<svg class="poloto" width="800" height="500" viewBox="0 0 800 500" xmlns="http://www.w3.org/2000/svg"><style>.poloto { stroke-linecap:round; stroke-linejoin:round; font-family: 'Tahoma', sans-serif; background-color: AliceBlue;} .poloto_scatter{stroke-width:7} .poloto_line{stroke-width:2} .poloto_text{fill: black;} .poloto_axis_lines{stroke: black;stroke-width:3;fill:none;stroke-dasharray:none} .poloto0stroke{stroke:  blue;} .poloto1stroke{stroke:  red;} .poloto2stroke{stroke:  green;} .poloto3stroke{stroke:  gold;} .poloto4stroke{stroke:  aqua;} .poloto5stroke{stroke:  lime;} .poloto6stroke{stroke:  orange;} .poloto7stroke{stroke:  chocolate;} .poloto0fill{fill:blue;} .poloto1fill{fill:red;} .poloto2fill{fill:green;} .poloto3fill{fill:gold;} .poloto4fill{fill:aqua;} .poloto5fill{fill:lime;} .poloto6fill{fill:orange;} .poloto7fill{fill:chocolate;}</style><text  class="poloto_text poloto_legend_text" alignment-baseline="middle" text-anchor="start" font-size="large" x="675" y="100" ></text><path  class="poloto_linefill poloto0fill" d=" M 150 400 L 150 370.99592312172393 L 151.74216027874564 373.6167734420501 L 153.4843205574913 369.59813628421665 L 155.22648083623693 375.53873034362255 L 156.96864111498257 377.9848573092603 L 158.71080139372822 379.3826441467676 L 160.45296167247386 380.6057076295865 L 162.1951219512195 387.2451951077461 L 163.93728222996515 387.5946418171229 L 165.6794425087108 388.81770529994174 L 167.42160278745644 391.4385556202679 L 169.16376306620208 387.2451951077461 L 170.90592334494772 386.371578334304 L 172.64808362369337 386.02213162492717 L 174.390243902439 383.40128130460107 L 176.13240418118465 383.7507280139779 L 177.8745644599303 383.05183459522425 L 179.61672473867597 383.2265579499126 L 181.3588850174216 386.7210250436808 L 183.10104529616726 389.6913220733838 L 184.8432055749129 388.99242865463015 L 186.58536585365854 391.08910891089107 L 188.3275261324042 394.05940594059405 L 190.06968641114983 395.1077460687245 L 191.81184668989548 395.1077460687245 L 193.55400696864112 394.40885264997087 L 195.29616724738676 398.4274898078043 L 197.0383275261324 398.95165987186954 L 198.78048780487805 399.30110658124636 L 200.5226480836237 399.47582993593477 L 202.26480836236934 394.7582993593477 L 204.00696864111498 387.7693651718113 L 205.74912891986062 394.5835760046593 L 207.49128919860627 393.7099592312172 L 209.2334494773519 392.48689574839835 L 210.97560975609755 392.66161910308676 L 212.7177700348432 394.7582993593477 L 214.45993031358887 392.48689574839835 L 216.2020905923345 391.2638322655795 L 217.94425087108016 392.8363424577752 L 219.6864111498258 397.55387303436225 L 221.42857142857144 393.7099592312172 L 223.1707317073171 394.7582993593477 L 224.91289198606273 398.95165987186954 L 226.65505226480838 395.80663948747815 L 228.39721254355402 392.48689574839835 L 230.13937282229966 395.45719277810133 L 231.8815331010453 395.98136284216656 L 233.62369337979095 395.63191613278974 L 235.3658536585366 393.185789167152 L 237.10801393728224 389.6913220733838 L 238.85017421602788 399.8252766453116 L 240.59233449477352 398.4274898078043 L 242.33449477351917 397.20442632498543 L 244.0766550522648 400 L 245.81881533101046 397.9033197437391 L 247.5609756097561 395.98136284216656 L 249.30313588850174 394.05940594059405 L 251.0452961672474 390.91438555620266 L 252.78745644599303 387.2451951077461 L 254.52961672473867 391.7880023296447 L 256.2717770034843 391.4385556202679 L 258.01393728222996 391.7880023296447 L 259.7560975609756 391.7880023296447 L 261.49825783972125 389.16715200931856 L 263.2404181184669 385.3232382061735 L 264.98257839721254 381.4793244030285 L 266.7247386759582 386.54630168899246 L 268.4668989547038 382.52766453115896 L 270.20905923344947 385.3232382061735 L 271.9512195121951 388.81770529994174 L 273.69337979094075 385.1485148514852 L 275.4355400696864 381.65404775771697 L 277.17770034843204 378.68375072801393 L 278.91986062717774 378.3343040186371 L 280.6620209059233 382.3529411764706 L 282.404181184669 382.3529411764706 L 284.1463414634146 380.6057076295865 L 285.8885017421603 375.0145602795574 L 287.6306620209059 372.74315666860804 L 289.3728222996516 374.1409435061153 L 291.1149825783972 376.93651718112983 L 292.8571428571429 380.43098427489804 L 294.5993031358885 383.40128130460107 L 296.3414634146342 379.55736750145604 L 298.08362369337976 380.0815375655212 L 299.82578397212546 376.41234711706466 L 301.56794425087105 374.66511357018055 L 303.31010452961675 377.81013395457194 L 305.05226480836234 379.55736750145604 L 306.79442508710804 381.8287711124053 L 308.5365853658536 373.9662201514269 L 310.2787456445993 367.3267326732673 L 312.0209059233449 366.9772859638905 L 313.7630662020906 364.0069889341875 L 315.5052264808362 360.8619685497962 L 317.2473867595819 359.1147350029121 L 318.9895470383275 361.9103086779266 L 320.7317073170732 360.16307513104255 L 322.4738675958188 356.8433313919627 L 324.2160278745645 355.0960978450786 L 325.9581881533101 351.0774606872452 L 327.70034843205576 347.40827023878853 L 329.4425087108014 346.53465346534654 L 331.18466898954705 346.53465346534654 L 332.9268292682927 347.75771694816535 L 334.66898954703834 346.0104834012813 L 336.411149825784 343.56435643564356 L 338.1533101045296 339.3709959231217 L 339.89547038327527 337.4490390215492 L 341.6376306620209 331.6831683168317 L 343.37979094076655 328.01397786837504 L 345.1219512195122 326.61619103086775 L 346.86411149825784 321.37449039021544 L 348.6062717770035 312.11415259172975 L 350.34843205574913 307.9207920792079 L 352.0905923344948 306.5230052417006 L 353.8327526132404 312.63832265579504 L 355.57491289198606 313.1624927198602 L 357.3170731707317 314.2108328479907 L 359.05923344947735 312.63832265579504 L 360.801393728223 312.98776936517174 L 362.54355400696863 310.0174723354688 L 364.2857142857143 310.5416423995341 L 366.0278745644599 305.12521840419333 L 367.77003484320556 306.1735585323238 L 369.5121951219512 295.165987186954 L 371.25435540069685 292.71986022131625 L 372.9965156794425 296.039603960396 L 374.73867595818814 288.8759464181712 L 376.4808362369338 279.09143855562024 L 378.2229965156795 281.18811881188117 L 379.96515679442507 275.94641817122886 L 381.70731707317077 269.30693069306926 L 383.44947735191636 265.2882935352359 L 385.19163763066206 262.84216656959813 L 386.93379790940764 266.5113570180547 L 388.67595818815334 262.84216656959813 L 390.41811846689893 263.5410599883518 L 392.16027874564463 253.75655212580082 L 393.9024390243902 249.56319161327897 L 395.6445993031359 242.22481071636574 L 397.3867595818815 245.19510774606871 L 399.1289198606272 238.73034362259753 L 400.8710801393728 239.07979033197435 L 402.6132404181185 232.44030285381476 L 404.3554006968641 230.69306930693065 L 406.0975609756098 219.86022131624927 L 407.8397212543554 222.306348281887 L 409.58188153310107 210.2504368083867 L 411.3240418118467 209.02737332556782 L 413.06620209059236 203.4362259755387 L 414.808362369338 198.54397204426326 L 416.55052264808364 187.5364006988934 L 418.2926829268293 190.8561444379732 L 420.03484320557493 192.95282469423412 L 421.7770034843206 185.9638905066977 L 423.5191637630662 191.0308677926616 L 425.26132404181186 188.06057076295863 L 427.0034843205575 185.6144437973209 L 428.74564459930315 180.8969132207338 L 430.4878048780488 175.6552125800815 L 432.22996515679444 165.87070471753057 L 433.9721254355401 169.01572510192196 L 435.7142857142857 167.7926616191031 L 437.45644599303137 161.1531741409435 L 439.198606271777 155.73675014560277 L 440.94076655052265 147.35002912055913 L 442.6829268292683 145.60279557367502 L 444.42508710801394 146.30168899242867 L 446.1672473867596 150.49504950495046 L 447.9094076655052 139.83692486895745 L 449.65156794425087 134.7699475829936 L 451.3937282229965 141.23471170646474 L 453.13588850174216 128.6546301688992 L 454.8780487804878 127.95573675014555 L 456.62020905923345 119.91846243447878 L 458.3623693379791 120.96680256260913 L 460.10452961672473 119.04484566103667 L 461.8466898954704 112.40535818287708 L 463.588850174216 109.43506115317416 L 465.33101045296166 103.66919044845656 L 467.0731707317073 100 L 468.81533101045295 101.22306348281882 L 470.5574912891986 103.49446709376821 L 472.29965156794424 103.49446709376821 L 474.0418118466899 119.56901572510196 L 475.7839721254355 110.83284799068144 L 477.52613240418117 113.62842166569601 L 479.2682926829268 118.5206755969715 L 481.01045296167246 122.36458940011642 L 482.7526132404181 122.0151426907396 L 484.49477351916374 118.17122888759468 L 486.2369337979094 122.71403610949324 L 487.97909407665503 129.35352358765283 L 489.7212543554007 132.1490972626674 L 491.4634146341463 139.1380314502038 L 493.20557491289196 138.26441467676182 L 494.9477351916376 153.46534653465343 L 496.68989547038325 161.67734420500872 L 498.4320557491289 158.70704717530575 L 500.17421602787454 165.69598136284216 L 501.91637630662024 169.7146185206756 L 503.6585365853659 168.66627839254514 L 505.4006968641115 173.90797903319745 L 507.14285714285717 175.8299359347699 L 508.8850174216028 183.34304018637155 L 510.62717770034845 189.98252766453115 L 512.3693379790941 196.27256843331392 L 514.1114982578397 201.1648223645894 L 515.8536585365854 204.83401281304597 L 517.5958188153311 214.09435061153172 L 519.3379790940767 222.306348281887 L 521.0801393728223 220.5591147350029 L 522.822299651568 223.7041351193943 L 524.5644599303137 214.61852067559695 L 526.3066202090592 213.04601048340126 L 528.0487804878048 212.34711706464762 L 529.7909407665505 219.51077460687245 L 531.5331010452962 222.83051834595224 L 533.2752613240418 228.9458357600466 L 535.0174216027874 229.12055911473502 L 536.7595818815331 238.2061735585323 L 538.5017421602788 242.39953407105415 L 540.2439024390244 243.97204426324984 L 541.98606271777 236.98311007571343 L 543.7282229965157 241.17647058823528 L 545.4703832752614 245.54455445544554 L 547.212543554007 247.99068142108328 L 548.9547038327526 251.8345952242283 L 550.6968641114983 260.57076295864874 L 552.439024390244 254.63016889924288 L 554.1811846689895 247.64123471170646 L 555.9233449477351 250.78625509609785 L 557.6655052264808 257.251019219569 L 559.4076655052265 257.94991263832264 L 561.1498257839721 263.3663366336633 L 562.8919860627177 269.1322073383809 L 564.6341463414634 265.2882935352359 L 566.3763066202091 261.7938264414677 L 568.1184668989547 263.8905066977286 L 569.8606271777003 269.30693069306926 L 571.602787456446 272.6266744321491 L 573.3449477351917 268.08386721025045 L 575.0871080139373 271.9277810133955 L 576.8292682926829 273.84973791496793 L 578.5714285714286 278.3925451368666 L 580.3135888501743 280.1397786837507 L 582.0557491289198 320.326150262085 L 583.7979094076654 287.6528829353523 L 585.5400696864111 290.09900990099004 L 587.2822299651568 300.23296447291784 L 589.0243902439024 305.2999417588818 L 590.766550522648 305.47466511357015 L 592.5087108013937 307.3966220151427 L 594.2508710801394 303.2032615026209 L 595.993031358885 297.2626674432149 L 597.7351916376306 298.48573092603374 L 599.4773519163763 296.73849737914963 L 601.219512195122 303.37798485730923 L 602.9616724738676 306.34828188701226 L 604.7038327526133 311.0658124635993 L 606.445993031359 307.5713453698311 L 608.1881533101046 311.9394292370414 L 609.9303135888501 325.74257425742576 L 611.6724738675958 316.13278974956313 L 613.4146341463415 314.385556202679 L 615.1567944250871 318.57891671520093 L 616.8989547038327 320.1514269073966 L 618.6411149825784 321.5492137449039 L 620.3832752613241 326.4414676761794 L 622.1254355400697 328.01397786837504 L 623.8675958188153 324.86895748398365 L 625.609756097561 327.6645311589982 L 627.3519163763067 323.99534071054165 L 629.0940766550523 325.21840419336047 L 630.8362369337979 329.9359347699476 L 632.5783972125436 332.2073383808969 L 634.3205574912893 335.17763541059986 L 636.0627177700349 339.5457192778101 L 637.8048780487804 348.456610366919 L 639.5470383275261 350.5532906231799 L 641.2891986062718 354.2224810716366 L 643.0313588850174 357.01805474665116 L 644.773519163763 355.79499126383223 L 646.5156794425087 360.51252184041937 L 648.2578397212544 365.4047757716948 L 650 366.45311589982526 L 650 400 Z" /><text  class="poloto_labels poloto_text poloto_title" alignment-baseline="start" text-anchor="middle" font-size="x-large" x="400" y="37.5" >Total players on 2021-12-22</text><text  class="poloto_labels poloto_text poloto_xname" alignment-baseline="start" text-anchor="middle" font-size="x-large" x="400" y="481.25" >Time</text><text  class="poloto_labels poloto_text poloto_yname" alignment-baseline="start" text-anchor="middle" font-size="x-large" transform="rotate(-90,37.5,250)" x="37.5" y="250" >Count</text><line  class="poloto_axis_lines" stroke="black" x1="150" x2="150" y1="400" y2="405" /><text  class="poloto_tick_labels poloto_text" alignment-baseline="start" text-anchor="middle" x="150" y="430" > 00:00:00</text><line  class="poloto_axis_lines" stroke="black" x1="266.14401858304296" x2="266.14401858304296" y1="400" y2="405" /><text  class="poloto_tick_labels poloto_text" alignment-baseline="start" text-anchor="middle" x="266.14401858304296" y="430" > 05:33:20</text><line  class="poloto_axis_lines" stroke="black" x1="382.2880371660859" x2="382.2880371660859" y1="400" y2="405" /><text  class="poloto_tick_labels poloto_text" alignment-baseline="start" text-anchor="middle" x="382.2880371660859" y="430" > 11:06:40</text><line  class="poloto_axis_lines" stroke="black" x1="498.4320557491289" x2="498.4320557491289" y1="400" y2="405" /><text  class="poloto_tick_labels poloto_text" alignment-baseline="start" text-anchor="middle" x="498.4320557491289" y="430" > 16:40:00</text><line  class="poloto_axis_lines" stroke="black" x1="614.5760743321719" x2="614.5760743321719" y1="400" y2="405" /><text  class="poloto_tick_labels poloto_text" alignment-baseline="start" text-anchor="middle" x="614.5760743321719" y="430" > 22:13:20</text><line  class="poloto_axis_lines" stroke="black" x1="150" x2="144" y1="399.6505532906232" y2="399.6505532906232" /><text  class="poloto_tick_labels poloto_text" alignment-baseline="middle" text-anchor="end" x="135" y="399.6505532906232" > 1000</text><line  class="poloto_axis_lines" stroke="black" x1="150" x2="144" y1="312.2888759464182" y2="312.2888759464182" /><text  class="poloto_tick_labels poloto_text" alignment-baseline="middle" text-anchor="end" x="135" y="312.2888759464182" > 1500</text><line  class="poloto_axis_lines" stroke="black" x1="150" x2="144" y1="224.92719860221314" y2="224.92719860221314" /><text  class="poloto_tick_labels poloto_text" alignment-baseline="middle" text-anchor="end" x="135" y="224.92719860221314" > 2000</text><line  class="poloto_axis_lines" stroke="black" x1="150" x2="144" y1="137.56552125800818" y2="137.56552125800818" /><text  class="poloto_tick_labels poloto_text" alignment-baseline="middle" text-anchor="end" x="135" y="137.56552125800818" > 2500</text><path  stroke="black" fill="none" class="poloto_axis_lines" style="stroke-dasharray:14.518002322880372;stroke-dashoffset:-0;" d=" M 150 400 L 650 400" /><path  stroke="black" fill="none" class="poloto_axis_lines" style="stroke-dasharray:8.736167734420501;stroke-dashoffset:-0.34944670937682076;" d=" M 150 400 L 150 100" /></svg>