<svg class="poloto" width="800" height="500" viewBox="0 0 800 500" xmlns="http://www.w3.org/2000/svg"><style>.poloto { stroke-linecap:round; stroke-linejoin:round; font-family: 'Tahoma', sans-serif; background-color: AliceBlue;} .poloto_scatter{stroke-width:7} .poloto_line{stroke-width:2} .poloto_text{fill: black;} .poloto_axis_lines{stroke: black;stroke-width:3;fill:none;stroke-dasharray:none} .poloto0stroke{stroke:  blue;} .poloto1stroke{stroke:  red;} .poloto2stroke{stroke:  green;} .poloto3stroke{stroke:  gold;} .poloto4stroke{stroke:  aqua;} .poloto5stroke{stroke:  lime;} .poloto6stroke{stroke:  orange;} .poloto7stroke{stroke:  chocolate;} .poloto0fill{fill:blue;} .poloto1fill{fill:red;} .poloto2fill{fill:green;} .poloto3fill{fill:gold;} .poloto4fill{fill:aqua;} .poloto5fill{fill:lime;} .poloto6fill{fill:orange;} .poloto7fill{fill:chocolate;}</style><text  class="poloto_text poloto_legend_text" alignment-baseline="middle" text-anchor="start" font-size="large" x="675" y="100" ></text><path  class="poloto_linefill poloto0fill" d=" M 150 400 L 150 336.21721122871605 L 151.74216027874564 336.4933271974229 L 153.4843205574913 338.8403129314312 L 155.22648083623693 343.12011044638746 L 156.96864111498257 345.05292222733544 L 158.71080139372822 350.29912563276577 L 160.45296167247386 351.8177634606535 L 162.1951219512195 350.4371836171192 L 163.93728222996515 351.9558214450069 L 165.6794425087108 353.4744592728946 L 167.42160278745644 359.68706856879885 L 169.16376306620208 361.06764841233314 L 170.90592334494772 367.0041417395306 L 172.64808362369337 366.31385181776346 L 174.390243902439 371.00782328578003 L 176.13240418118465 370.7317073170732 L 177.8745644599303 371.974229176254 L 179.61672473867597 374.73538886332256 L 181.3588850174216 375.83985273815006 L 183.10104529616726 376.2540266912103 L 184.8432055749129 378.73907040957204 L 186.58536585365854 376.80625862862405 L 188.3275261324042 377.77266451909804 L 190.06968641114983 380.67188219052 L 191.81184668989548 380.5338242061666 L 193.55400696864112 383.7091578462954 L 195.29616724738676 384.9516797054763 L 197.0383275261324 384.537505752416 L 198.78048780487805 383.9852738150023 L 200.5226480836237 383.4330418775886 L 202.26480836236934 386.0561435803037 L 204.00696864111498 389.369535204786 L 205.74912891986062 387.436723423838 L 207.49128919860627 387.9889553612517 L 209.2334494773519 381.7763460653474 L 210.97560975609755 387.02254947077773 L 212.7177700348432 387.2986654394846 L 214.45993031358887 387.7128393925449 L 216.2020905923345 387.7128393925449 L 217.94425087108016 391.85457892314776 L 219.6864111498258 391.02623101702716 L 221.42857142857144 391.85457892314776 L 223.1707317073171 392.13069489185455 L 224.91289198606273 388.2650713299586 L 226.65505226480838 385.3658536585366 L 228.39721254355402 382.7427519558214 L 230.13937282229966 384.537505752416 L 231.8815331010453 386.1942015646572 L 233.62369337979095 389.369535204786 L 235.3658536585366 388.81730326737227 L 237.10801393728224 391.02623101702716 L 238.85017421602788 391.16428900138055 L 240.59233449477352 395.7202024850437 L 242.33449477351917 395.8582604693971 L 244.0766550522648 394.6157386102163 L 245.81881533101046 392.6829268292683 L 247.5609756097561 394.75379659456974 L 249.30313588850174 395.8582604693971 L 251.0452961672474 391.85457892314776 L 252.78745644599303 389.369535204786 L 254.52961672473867 393.92544868844914 L 256.2717770034843 398.34330418775886 L 258.01393728222996 397.6530142659917 L 259.7560975609756 397.5149562816383 L 261.49825783972125 400 L 263.2404181184669 397.92913023469856 L 264.98257839721254 396.8246663598711 L 266.7247386759582 393.78739070409574 L 268.4668989547038 389.64565117349287 L 270.20905923344947 390.33594109526 L 271.9512195121951 385.9180855959503 L 273.69337979094075 380.94799815922687 L 275.4355400696864 379.0151863782789 L 277.17770034843204 382.0524620340543 L 278.91986062717774 384.26138978370915 L 280.6620209059233 381.91440404970086 L 282.404181184669 383.0188679245283 L 284.1463414634146 382.0524620340543 L 285.8885017421603 381.36217211228717 L 287.6306620209059 379.15324436263234 L 289.3728222996516 374.873446847676 L 291.1149825783972 373.907040957202 L 292.8571428571429 369.9033594109526 L 294.5993031358885 373.76898297284856 L 296.3414634146342 374.59733087896916 L 298.08362369337976 370.3175333640129 L 299.82578397212546 368.5227795674183 L 301.56794425087105 365.3474459272894 L 303.31010452961675 363.27657616198803 L 305.05226480836234 363.5526921306949 L 306.79442508710804 363.69075011504833 L 308.5365853658536 367.142199723884 L 310.2787456445993 370.4555913483663 L 312.0209059233449 370.1794753796595 L 313.7630662020906 366.31385181776346 L 315.5052264808362 363.27657616198803 L 317.2473867595819 360.37735849056605 L 318.9895470383275 355.54532903819603 L 320.7317073170732 354.99309710078234 L 322.4738675958188 350.9894155545329 L 324.2160278745645 350.5752416014726 L 325.9581881533101 351.5416474919466 L 327.70034843205576 350.4371836171192 L 329.4425087108014 348.3663138518177 L 331.18466898954705 346.5715600552232 L 332.9268292682927 347.5379659456972 L 334.66898954703834 342.42982052462037 L 336.411149825784 344.08651633686145 L 338.1533101045296 340.2208927749655 L 339.89547038327527 336.4933271974229 L 341.6376306620209 334.9746893695352 L 343.37979094076655 329.45236999539804 L 345.1219512195122 324.4822825586746 L 346.86411149825784 322.8255867464335 L 348.6062717770035 323.1017027151404 L 350.34843205574913 322.54947077772664 L 352.0905923344948 318.9599631845375 L 353.8327526132404 313.29958582604695 L 355.57491289198606 306.8108605614358 L 357.3170731707317 305.9825126553152 L 359.05923344947735 309.8481362172112 L 360.801393728223 309.1578462954441 L 362.54355400696863 309.9861942015647 L 364.2857142857143 307.91532443626323 L 366.0278745644599 303.6355269213069 L 367.77003484320556 299.63184537505754 L 369.5121951219512 299.21767142199724 L 371.25435540069685 293.005062126093 L 372.9965156794425 284.16935112747353 L 374.73867595818814 276.43810400368153 L 376.4808362369338 277.4045098941555 L 378.2229965156795 273.53888633225955 L 379.96515679442507 268.56879889553613 L 381.70731707317077 262.7703635526921 L 383.44947735191636 263.46065347445926 L 385.19163763066206 259.04279797514954 L 386.93379790940764 259.7330878969167 L 388.67595818815334 255.72940635066726 L 390.41811846689893 256.0055223193741 L 392.16027874564463 254.34882650713297 L 393.9024390243902 250.34514496088354 L 395.6445993031359 253.24436263230558 L 397.3867595818815 250.20708697653015 L 399.1289198606272 245.23699953980673 L 400.8710801393728 230.74091118269672 L 402.6132404181185 227.84169351127474 L 404.3554006968641 226.7372296364473 L 406.0975609756098 219.8343304187759 L 407.8397212543554 212.5172572480442 L 409.58188153310107 211.1366774045099 L 411.3240418118467 210.86056143580305 L 413.06620209059236 204.64795213989873 L 414.808362369338 199.81592268752877 L 416.55052264808364 194.98389323515875 L 418.2926829268293 191.80855959502992 L 420.03484320557493 190.28992176714218 L 421.7770034843206 220.66267832489643 L 423.5191637630662 179.52139898757474 L 425.26132404181186 172.20432581684304 L 427.0034843205575 182.14450069028993 L 428.74564459930315 182.28255867464333 L 430.4878048780488 176.62218131615276 L 432.22996515679444 169.85734008283475 L 433.9721254355401 162.2641509433962 L 435.7142857142857 156.4657156005522 L 437.45644599303137 166.12977450529223 L 439.198606271777 149.0105844454671 L 440.94076655052265 159.36493327197422 L 442.6829268292683 152.87620800736306 L 444.42508710801394 150.94339622641508 L 446.1672473867596 149.0105844454671 L 447.9094076655052 144.04049700874367 L 449.65156794425087 134.92867004141738 L 451.3937282229965 135.34284399447768 L 453.13588850174216 140.03681546249425 L 454.8780487804878 142.65991716520938 L 456.62020905923345 132.5816843074091 L 458.3623693379791 125.95490105844453 L 460.10452961672473 121.53704555913481 L 461.8466898954704 121.67510354348826 L 463.588850174216 117.80947998159223 L 465.33101045296166 118.63782788771283 L 467.0731707317073 125.67878508973769 L 468.81533101045295 116.29084215370455 L 470.5574912891986 119.60423377818682 L 472.29965156794424 114.49608835710995 L 474.0418118466899 110.21629084215368 L 475.7839721254355 110.90658076392083 L 477.52613240418117 114.49608835710995 L 479.2682926829268 108.697653014266 L 481.01045296167246 110.49240681086053 L 482.7526132404181 111.04463874827428 L 484.49477351916374 109.80211688909338 L 486.2369337979094 109.94017487344684 L 487.97909407665503 107.73124712379195 L 489.7212543554007 107.59318913943855 L 491.4634146341463 113.25356649792911 L 493.20557491289196 100 L 494.9477351916376 106.62678324896456 L 496.68989547038325 105.24620340543026 L 498.4320557491289 112.14910262310167 L 500.17421602787454 102.20892774965483 L 501.91637630662024 105.10814542107681 L 503.6585365853659 106.76484123331795 L 505.4006968641115 105.66037735849056 L 507.14285714285717 118.08559595029908 L 508.8850174216028 121.39898757478142 L 510.62717770034845 120.01840773124712 L 512.3693379790941 120.01840773124712 L 514.1114982578397 126.78324896456508 L 515.8536585365854 137.5517717441325 L 517.5958188153311 141.69351127473539 L 519.3379790940767 141.55545329038193 L 521.0801393728223 148.1822365393465 L 522.822299651568 150.11504832029453 L 524.5644599303137 151.21951219512192 L 526.3066202090592 146.6635987114588 L 528.0487804878048 155.7754256787851 L 529.7909407665505 160.05522319374137 L 531.5331010452962 158.67464335020708 L 533.2752613240418 162.6783248964565 L 535.0174216027874 164.47307869305104 L 536.7595818815331 167.64841233317992 L 538.5017421602788 169.85734008283475 L 540.2439024390244 168.06258628624022 L 541.98606271777 177.8647031753336 L 543.7282229965157 181.45421076852278 L 545.4703832752614 190.84215370455593 L 547.212543554007 191.67050161067647 L 548.9547038327526 193.18913943856415 L 550.6968641114983 191.80855959502992 L 552.439024390244 190.56603773584902 L 554.1811846689895 189.73768982972848 L 555.9233449477351 194.7077772664519 L 557.6655052264808 188.08099401748734 L 559.4076655052265 185.5959502991256 L 561.1498257839721 190.42797975149563 L 562.8919860627177 190.70409572020247 L 564.6341463414634 193.46525540727106 L 566.3763066202091 197.88311090658073 L 568.1184668989547 199.95398067188216 L 569.8606271777003 216.658996778647 L 571.602787456446 218.591808559595 L 573.3449477351917 211.41279337321674 L 575.0871080139373 211.96502531063044 L 576.8292682926829 211.82696732627704 L 578.5714285714286 220.52462034054304 L 580.3135888501743 218.8679245283019 L 582.0557491289198 213.06948918545788 L 583.7979094076654 217.625402669121 L 585.5400696864111 224.9424758398527 L 587.2822299651568 234.74459272894615 L 589.0243902439024 227.97975149562814 L 590.766550522648 231.56925908881726 L 592.5087108013937 235.57294063506674 L 594.2508710801394 235.8490566037736 L 595.993031358885 240.68108605614356 L 597.7351916376306 239.9907961343764 L 599.4773519163763 239.43856419696272 L 601.219512195122 246.75563736769442 L 602.9616724738676 257.52416014726185 L 604.7038327526133 256.28163828808096 L 606.445993031359 258.214450069029 L 608.1881533101046 254.62494247583982 L 609.9303135888501 264.84123331799356 L 611.6724738675958 261.8039576622181 L 613.4146341463415 264.5651173492867 L 615.1567944250871 268.0165669581224 L 616.8989547038327 268.70685687988953 L 618.6411149825784 271.4680165669581 L 620.3832752613241 275.1955821445007 L 622.1254355400697 281.68430740911185 L 623.8675958188153 281.96042337781864 L 625.609756097561 281.1320754716981 L 627.3519163763067 284.03129314312014 L 629.0940766550523 284.58352508053383 L 630.8362369337979 289.13943856419695 L 632.5783972125436 290.3819604233778 L 634.3205574912893 290.7961343764381 L 636.0627177700349 296.45651173492865 L 637.8048780487804 296.45651173492865 L 639.5470383275261 298.38932351587664 L 641.2891986062718 301.2885411872986 L 643.0313588850174 301.5646571560055 L 644.773519163763 306.2586286240221 L 646.5156794425087 308.8817303267372 L 648.2578397212544 309.4339622641509 L 650 311.50483202945236 L 650 400 Z" /><text  class="poloto_labels poloto_text poloto_title" alignment-baseline="start" text-anchor="middle" font-size="x-large" x="400" y="37.5" >Total players on 2021-10-29</text><text  class="poloto_labels poloto_text poloto_xname" alignment-baseline="start" text-anchor="middle" font-size="x-large" x="400" y="481.25" >Time</text><text  class="poloto_labels poloto_text poloto_yname" alignment-baseline="start" text-anchor="middle" font-size="x-large" transform="rotate(-90,37.5,250)" x="37.5" y="250" >Count</text><line  class="poloto_axis_lines" stroke="black" x1="150" x2="150" y1="400" y2="405" /><text  class="poloto_tick_labels poloto_text" alignment-baseline="start" text-anchor="middle" x="150" y="430" > 00:00</text><line  class="poloto_axis_lines" stroke="black" x1="266.14401858304296" x2="266.14401858304296" y1="400" y2="405" /><text  class="poloto_tick_labels poloto_text" alignment-baseline="start" text-anchor="middle" x="266.14401858304296" y="430" > 06:00</text><line  class="poloto_axis_lines" stroke="black" x1="382.2880371660859" x2="382.2880371660859" y1="400" y2="405" /><text  class="poloto_tick_labels poloto_text" alignment-baseline="start" text-anchor="middle" x="382.2880371660859" y="430" > 11:00</text><line  class="poloto_axis_lines" stroke="black" x1="498.4320557491289" x2="498.4320557491289" y1="400" y2="405" /><text  class="poloto_tick_labels poloto_text" alignment-baseline="start" text-anchor="middle" x="498.4320557491289" y="430" > 17:00</text><line  class="poloto_axis_lines" stroke="black" x1="614.5760743321719" x2="614.5760743321719" y1="400" y2="405" /><text  class="poloto_tick_labels poloto_text" alignment-baseline="start" text-anchor="middle" x="614.5760743321719" y="430" > 22:00</text><line  class="poloto_axis_lines" stroke="black" x1="150" x2="144" y1="387.436723423838" y2="387.436723423838" /><text  class="poloto_tick_labels poloto_text" alignment-baseline="middle" text-anchor="end" x="135" y="387.436723423838" > 1000</text><line  class="poloto_axis_lines" stroke="black" x1="150" x2="144" y1="318.4077312471238" y2="318.4077312471238" /><text  class="poloto_tick_labels poloto_text" alignment-baseline="middle" text-anchor="end" x="135" y="318.4077312471238" > 1500</text><line  class="poloto_axis_lines" stroke="black" x1="150" x2="144" y1="249.37873907040955" y2="249.37873907040955" /><text  class="poloto_tick_labels poloto_text" alignment-baseline="middle" text-anchor="end" x="135" y="249.37873907040955" > 2000</text><line  class="poloto_axis_lines" stroke="black" x1="150" x2="144" y1="180.34974689369534" y2="180.34974689369534" /><text  class="poloto_tick_labels poloto_text" alignment-baseline="middle" text-anchor="end" x="135" y="180.34974689369534" > 2500</text><line  class="poloto_axis_lines" stroke="black" x1="150" x2="144" y1="111.32075471698113" y2="111.32075471698113" /><text  class="poloto_tick_labels poloto_text" alignment-baseline="middle" text-anchor="end" x="135" y="111.32075471698113" > 3000</text><path  stroke="black" fill="none" class="poloto_axis_lines" style="stroke-dasharray:14.518002322880372;stroke-dashoffset:-0;" d=" M 150 400 L 650 400" /><path  stroke="black" fill="none" class="poloto_axis_lines" style="stroke-dasharray:6.902899217671423;stroke-dashoffset:-12.563276576161996;" d=" M 150 400 L 150 100" /></svg>