<svg class="poloto" width="800" height="500" viewBox="0 0 800 500" xmlns="http://www.w3.org/2000/svg"><style>.poloto { stroke-linecap:round; stroke-linejoin:round; font-family: 'Tahoma', sans-serif; background-color: AliceBlue;} .poloto_scatter{stroke-width:7} .poloto_line{stroke-width:2} .poloto_text{fill: black;} .poloto_axis_lines{stroke: black;stroke-width:3;fill:none;stroke-dasharray:none} .poloto0stroke{stroke:  blue;} .poloto1stroke{stroke:  red;} .poloto2stroke{stroke:  green;} .poloto3stroke{stroke:  gold;} .poloto4stroke{stroke:  aqua;} .poloto5stroke{stroke:  lime;} .poloto6stroke{stroke:  orange;} .poloto7stroke{stroke:  chocolate;} .poloto0fill{fill:blue;} .poloto1fill{fill:red;} .poloto2fill{fill:green;} .poloto3fill{fill:gold;} .poloto4fill{fill:aqua;} .poloto5fill{fill:lime;} .poloto6fill{fill:orange;} .poloto7fill{fill:chocolate;}</style><text  class="poloto_text poloto_legend_text" alignment-baseline="middle" text-anchor="start" font-size="large" x="675" y="100" ></text><path  class="poloto_linefill poloto0fill" d=" M 150 400 L 150 348.1667503766952 L 151.74216027874564 351.783023606228 L 153.4843205574913 355.39929683576094 L 155.22648083623693 355.54997488699144 L 156.96864111498257 357.3581115017579 L 158.71080139372822 363.08387744851836 L 160.45296167247386 366.2481165243596 L 162.1951219512195 368.8096433952787 L 163.93728222996515 370.9191361125063 L 165.6794425087108 370.9191361125063 L 167.42160278745644 365.79608237066805 L 169.16376306620208 373.0286288297338 L 170.90592334494772 368.35760924158717 L 172.64808362369337 373.17930688096436 L 174.390243902439 379.809141135108 L 176.13240418118465 388.24711200401805 L 177.8745644599303 381.9186338523355 L 179.61672473867597 383.57609241587147 L 181.3588850174216 388.6991461577097 L 183.10104529616726 386.1376192867906 L 184.8432055749129 387.3430436966349 L 186.58536585365854 389.904570567554 L 188.3275261324042 394.42491210447014 L 190.06968641114983 392.7674535409342 L 191.81184668989548 394.57559015570064 L 193.55400696864112 398.64389753892516 L 195.29616724738676 400 L 197.0383275261324 399.69864389753894 L 198.78048780487805 396.83576092415876 L 200.5226480836237 394.87694625816175 L 202.26480836236934 391.1099949773983 L 204.00696864111498 392.6167754897037 L 205.74912891986062 390.0552486187845 L 207.49128919860627 384.48016072325464 L 209.2334494773519 385.98694123556004 L 210.97560975609755 388.09643395278755 L 212.7177700348432 388.3977900552486 L 214.45993031358887 386.7403314917127 L 216.2020905923345 390.65796082370673 L 217.94425087108016 390.65796082370673 L 219.6864111498258 386.58965344048215 L 221.42857142857144 383.1240582621798 L 223.17653890824624 376.4942240080362 L 224.91289198606273 376.6449020592667 L 226.65505226480838 376.34354595680566 L 228.39721254355402 367.6042189854345 L 230.13937282229966 364.8920140632848 L 231.8815331010453 360.07031642390757 L 233.62369337979095 353.5911602209945 L 235.3658536585366 353.440482169764 L 237.10801393728224 348.92014063284785 L 238.85017421602788 346.5092918131592 L 240.59233449477352 344.24912104470116 L 242.33449477351917 337.01657458563534 L 244.0766550522648 335.50979407333 L 245.81881533101046 331.74284279256653 L 247.5609756097561 333.8523355097941 L 249.30313588850174 330.2360622802612 L 251.0452961672474 328.7292817679558 L 252.78745644599303 330.98945253641386 L 254.52961672473867 322.2501255650427 L 256.2717770034843 321.1953792064289 L 258.01393728222996 322.8528377699648 L 259.7560975609756 322.7021597187343 L 261.49825783972125 320.2913108990457 L 263.2404181184669 317.7297840281266 L 264.98257839721254 313.96283274736317 L 266.7247386759582 320.89402310396787 L 268.4668989547038 321.0447011551984 L 270.20905923344947 316.6750376695128 L 271.9512195121951 314.5655449522853 L 273.69337979094075 314.4148669010547 L 275.4355400696864 318.93520843797086 L 277.17770034843204 316.5243596182823 L 278.9198606271777 318.78453038674036 L 280.6620209059233 319.537920642893 L 282.40418118466897 320.89402310396787 L 284.1463414634146 316.5243596182823 L 285.88850174216026 310.49723756906076 L 287.6306620209059 309.2918131592165 L 289.37282229965155 305.67553992968357 L 291.1149825783972 300.40180813661476 L 292.85714285714283 301.305876443998 L 294.5993031358885 303.8674033149171 L 296.3414634146342 303.4153691612255 L 298.08362369337976 299.94977398292315 L 299.82578397212546 301.00452034153693 L 301.56794425087105 299.49773982923153 L 303.31010452961675 294.5253641386238 L 305.05226480836234 287.4434957307885 L 306.79442508710804 290.90909090909093 L 308.5365853658536 283.52586639879456 L 310.2787456445993 283.37518834756406 L 312.0209059233449 280.8136614766449 L 313.7630662020906 279.0055248618784 L 315.5052264808362 280.0602712204922 L 317.2473867595819 277.80010045203414 L 318.9895470383275 277.4987443495731 L 320.7317073170732 273.43043696634857 L 322.4738675958188 273.43043696634857 L 324.2160278745645 269.060773480663 L 325.95818815331006 271.6223003515821 L 327.70034843205576 265.143144148669 L 329.44250871080135 267.101958814666 L 331.18466898954705 273.7317930688096 L 332.92682926829264 269.66348568558516 L 334.66898954703834 267.70467101958815 L 336.4111498257839 267.4033149171271 L 338.1533101045296 256.40381717729787 L 339.8954703832752 269.060773480663 L 341.6376306620209 270.5675539929684 L 343.3797909407665 261.97890507282773 L 345.1219512195122 261.0748367654445 L 346.86411149825784 268.15670517327976 L 348.6062717770035 267.8553490708187 L 350.34843205574913 269.060773480663 L 352.0905923344948 264.99246609743847 L 353.8327526132404 264.99246609743847 L 355.57491289198606 262.7322953289804 L 357.3170731707317 252.6368658965344 L 359.05923344947735 250.37669512807634 L 360.801393728223 246.3083877448518 L 362.54355400696863 247.3631341034656 L 364.2857142857143 245.55499748869914 L 366.0278745644599 231.54193872425918 L 367.77003484320556 228.98041185334 L 369.5121951219512 230.03515821195379 L 371.25435540069685 228.07634354595683 L 372.9965156794425 223.7066800602712 L 374.73867595818814 225.2134605725766 L 376.4808362369338 226.56956303365143 L 378.2229965156794 225.96685082872926 L 379.96515679442507 220.69311903566046 L 381.7073170731707 220.3917629331994 L 383.44947735191636 215.41938724259165 L 385.191637630662 215.2687091913611 L 386.93379790940764 210.89904570567552 L 388.6759581881533 210.59768960321446 L 390.41811846689893 212.10447011551986 L 392.1602787456446 203.21446509291815 L 393.9024390243902 200.3515821195379 L 395.6445993031359 205.4746358613762 L 397.3867595818815 202.91310899045703 L 399.1289198606272 203.5158211953792 L 400.8710801393728 206.98141637368155 L 402.6132404181185 205.4746358613762 L 404.3554006968641 203.0637870416876 L 406.0975609756097 204.41988950276243 L 407.83972125435537 202.91310899045703 L 409.581881533101 206.07734806629833 L 411.32404181184666 208.03616273229534 L 413.0662020905923 207.2827724761426 L 414.80836236933794 202.31039678553492 L 416.5505226480836 198.09141135107984 L 418.29268292682923 194.6258161727775 L 420.0348432055749 189.50276243093924 L 421.7770034843206 192.51632345554998 L 423.5191637630662 190.70818684078353 L 425.26132404181186 187.24259166248117 L 427.0034843205575 178.2019085886489 L 428.74564459930315 169.7639377197388 L 430.4878048780488 169.7639377197388 L 432.2357723577236 172.4761426418885 L 433.9721254355401 169.7639377197388 L 435.7142857142857 170.66800602712203 L 437.45644599303137 164.0381717729784 L 439.198606271777 155.6002009040683 L 440.94076655052265 148.97036664992464 L 442.6829268292683 143.09392265193367 L 444.42508710801394 139.47764942240082 L 446.1672473867596 135.71069814163735 L 447.9094076655052 131.03967855349072 L 449.65156794425087 131.49171270718233 L 451.3937282229965 131.34103465595177 L 453.13588850174216 139.1762933199397 L 454.8780487804878 137.36815670517325 L 456.62020905923345 128.6288297338021 L 458.3623693379791 119.73882471120038 L 460.10452961672473 115.97187343043697 L 461.8466898954704 105.87644399799098 L 463.588850174216 110.095429432446 L 465.33101045296166 112.65695630336512 L 467.0731707317073 107.08186840783526 L 468.81533101045295 109.64339527875438 L 470.5574912891986 108.73932697137116 L 472.29965156794424 108.13661476644899 L 474.0418118466899 103.91762933199396 L 475.7839721254355 103.91762933199396 L 477.52613240418117 100 L 479.2682926829268 104.67101958814663 L 481.01045296167246 107.98593671521849 L 482.7526132404181 115.82119537920642 L 484.49477351916374 112.50627825213462 L 486.2369337979094 119.73882471120038 L 487.97909407665503 129.83425414364638 L 489.7212543554007 130.88900050226016 L 491.4634146341463 135.25866398794574 L 493.20557491289196 136.0120542440984 L 494.9477351916376 129.98493219487693 L 496.68989547038325 123.8071320944249 L 498.4320557491289 134.05323957810145 L 500.17421602787454 131.34103465595177 L 501.9163763066202 129.38221998995476 L 503.6585365853658 137.0668006027122 L 505.40069686411147 145.9568056253139 L 507.1428571428571 161.47664490205926 L 508.88501742160275 163.58613761928677 L 510.6271777003484 159.06579608237064 L 512.3693379790941 164.49020592667 L 514.1114982578397 164.18884982420894 L 515.8536585365853 169.6132596685083 L 517.595818815331 168.1064791562029 L 519.3379790940767 173.68156705173277 L 521.0801393728223 179.2566549472627 L 522.822299651568 183.92767453540932 L 524.5644599303137 188.74937217478652 L 526.3124274099885 193.87242591662482 L 528.0487804878048 189.05072827724763 L 529.7909407665505 199.59819186338524 L 531.5331010452962 208.18684078352584 L 533.2752613240418 203.36514314414865 L 535.0174216027874 204.7212456052235 L 536.7653890824622 203.66649924660976 L 538.5017421602788 203.81717729784026 L 540.2439024390244 204.7212456052235 L 541.98606271777 212.85786037167253 L 543.7282229965157 218.884982420894 L 545.4703832752614 230.33651431441484 L 547.212543554007 232.29532898041185 L 548.9547038327526 230.18583626318434 L 550.6968641114983 236.36363636363637 L 552.439024390244 238.32245102963333 L 554.1811846689895 235.7609241587142 L 555.9233449477351 241.33601205424412 L 557.6655052264808 245.4043194374686 L 559.4076655052265 250.22601707684578 L 561.1498257839721 253.99296835760924 L 562.8919860627177 255.65042692114514 L 564.6341463414634 258.21195379206426 L 566.3763066202091 256.40381717729787 L 568.1184668989547 258.965344048217 L 569.8606271777003 253.6916122551482 L 571.602787456446 254.1436464088398 L 573.3449477351917 255.95178302360625 L 575.0871080139373 247.21245605223504 L 576.8292682926829 245.55499748869914 L 578.5714285714286 242.39075841285785 L 580.3135888501743 251.43144148669012 L 582.0557491289198 255.49974886991464 L 583.7979094076654 259.8694123556002 L 585.5400696864111 260.92415871421395 L 587.2822299651568 266.9512807634355 L 589.0243902439024 269.66348568558516 L 590.766550522648 271.32094424912106 L 592.5087108013937 280.0602712204922 L 594.2508710801394 282.3204419889503 L 595.993031358885 282.0190858864892 L 597.7351916376306 284.8819688598694 L 599.4773519163763 287.74485183324964 L 601.219512195122 283.9779005524862 L 602.9616724738676 289.251632345555 L 604.7038327526132 289.40231039678554 L 606.4459930313589 287.5941737820191 L 608.1881533101046 285.1833249623305 L 609.9303135888501 283.2245102963335 L 611.6724738675957 285.9367152184832 L 613.4146341463414 282.7724761426419 L 615.1567944250871 287.4434957307885 L 616.8989547038327 292.8679055750879 L 618.6411149825783 296.78553490708185 L 620.383275261324 304.77147162230034 L 622.1254355400697 307.33299849321946 L 623.8675958188153 316.37368156705173 L 625.609756097561 316.2230035158212 L 627.3519163763067 322.55148166750377 L 629.0940766550523 322.55148166750377 L 630.8420441347271 326.46911099949773 L 632.5783972125436 329.9347061778001 L 634.3205574912893 334.90708186840783 L 636.0627177700349 346.96132596685084 L 637.8048780487804 350.8789552988448 L 639.5470383275261 352.9884480160723 L 641.2891986062718 354.79658463083877 L 643.0313588850174 357.2074334505274 L 644.773519163763 358.7142139628328 L 646.5156794425087 360.2209944751381 L 648.2578397212544 360.3716725263687 L 650 360.52235057759924 L 650 400 Z" /><text  class="poloto_labels poloto_text poloto_title" alignment-baseline="start" text-anchor="middle" font-size="x-large" x="400" y="37.5" >Total players on 2021-08-16</text><text  class="poloto_labels poloto_text poloto_xname" alignment-baseline="start" text-anchor="middle" font-size="x-large" x="400" y="481.25" >Time</text><text  class="poloto_labels poloto_text poloto_yname" alignment-baseline="start" text-anchor="middle" font-size="x-large" transform="rotate(-90,37.5,250)" x="37.5" y="250" >Count</text><line  class="poloto_axis_lines" stroke="black" x1="208.0487804878049" x2="208.0487804878049" y1="400" y2="405" /><text  class="poloto_tick_labels poloto_text" alignment-baseline="start" text-anchor="middle" x="208.0487804878049" y="430" > 03:00</text><line  class="poloto_axis_lines" stroke="black" x1="266.1207897793264" x2="266.1207897793264" y1="400" y2="405" /><text  class="poloto_tick_labels poloto_text" alignment-baseline="start" text-anchor="middle" x="266.1207897793264" y="430" > 06:00</text><line  class="poloto_axis_lines" stroke="black" x1="324.19279907084785" x2="324.19279907084785" y1="400" y2="405" /><text  class="poloto_tick_labels poloto_text" alignment-baseline="start" text-anchor="middle" x="324.19279907084785" y="430" > 08:00</text><line  class="poloto_axis_lines" stroke="black" x1="382.2648083623693" x2="382.2648083623693" y1="400" y2="405" /><text  class="poloto_tick_labels poloto_text" alignment-baseline="start" text-anchor="middle" x="382.2648083623693" y="430" > 11:00</text><line  class="poloto_axis_lines" stroke="black" x1="440.3368176538908" x2="440.3368176538908" y1="400" y2="405" /><text  class="poloto_tick_labels poloto_text" alignment-baseline="start" text-anchor="middle" x="440.3368176538908" y="430" > 14:00</text><line  class="poloto_axis_lines" stroke="black" x1="498.4088269454123" x2="498.4088269454123" y1="400" y2="405" /><text  class="poloto_tick_labels poloto_text" alignment-baseline="start" text-anchor="middle" x="498.4088269454123" y="430" > 17:00</text><line  class="poloto_axis_lines" stroke="black" x1="556.4808362369338" x2="556.4808362369338" y1="400" y2="405" /><text  class="poloto_tick_labels poloto_text" alignment-baseline="start" text-anchor="middle" x="556.4808362369338" y="430" > 19:00</text><line  class="poloto_axis_lines" stroke="black" x1="614.5528455284552" x2="614.5528455284552" y1="400" y2="405" /><text  class="poloto_tick_labels poloto_text" alignment-baseline="start" text-anchor="middle" x="614.5528455284552" y="430" > 22:00</text><line  class="poloto_axis_lines" stroke="black" x1="150" x2="144" y1="357.3581115017579" y2="357.3581115017579" /><text  class="poloto_tick_labels poloto_text" alignment-baseline="middle" text-anchor="end" x="135" y="357.3581115017579" > 1500</text><line  class="poloto_axis_lines" stroke="black" x1="150" x2="144" y1="282.0190858864892" y2="282.0190858864892" /><text  class="poloto_tick_labels poloto_text" alignment-baseline="middle" text-anchor="end" x="135" y="282.0190858864892" > 2000</text><line  class="poloto_axis_lines" stroke="black" x1="150" x2="144" y1="206.6800602712205" y2="206.6800602712205" /><text  class="poloto_tick_labels poloto_text" alignment-baseline="middle" text-anchor="end" x="135" y="206.6800602712205" > 2500</text><line  class="poloto_axis_lines" stroke="black" x1="150" x2="144" y1="131.34103465595177" y2="131.34103465595177" /><text  class="poloto_tick_labels poloto_text" alignment-baseline="middle" text-anchor="end" x="135" y="131.34103465595177" > 3000</text><path  stroke="black" fill="none" class="poloto_axis_lines" style="stroke-dasharray:14.518002322880372;stroke-dashoffset:-58.04878048780488;" d=" M 150 400 L 650 400" /><path  stroke="black" fill="none" class="poloto_axis_lines" style="stroke-dasharray:7.533902561526871;stroke-dashoffset:-42.64188849824208;" d=" M 150 400 L 150 100" /></svg>