<svg class="poloto" width="800" height="500" viewBox="0 0 800 500" xmlns="http://www.w3.org/2000/svg"><style>.poloto { stroke-linecap:round; stroke-linejoin:round; font-family: 'Tahoma', sans-serif; background-color: AliceBlue;} .poloto_scatter{stroke-width:7} .poloto_line{stroke-width:2} .poloto_text{fill: black;} .poloto_axis_lines{stroke: black;stroke-width:3;fill:none;stroke-dasharray:none} .poloto0stroke{stroke:  blue;} .poloto1stroke{stroke:  red;} .poloto2stroke{stroke:  green;} .poloto3stroke{stroke:  gold;} .poloto4stroke{stroke:  aqua;} .poloto5stroke{stroke:  lime;} .poloto6stroke{stroke:  orange;} .poloto7stroke{stroke:  chocolate;} .poloto0fill{fill:blue;} .poloto1fill{fill:red;} .poloto2fill{fill:green;} .poloto3fill{fill:gold;} .poloto4fill{fill:aqua;} .poloto5fill{fill:lime;} .poloto6fill{fill:orange;} .poloto7fill{fill:chocolate;}</style><text  class="poloto_text poloto_legend_text" alignment-baseline="middle" text-anchor="start" font-size="large" x="675" y="100" ></text><path  class="poloto_linefill poloto0fill" d=" M 150 400 L 150 326.3422818791946 L 151.74216027874564 328.0201342281879 L 153.4843205574913 334.3959731543624 L 155.22648083623693 339.09395973154363 L 156.96864111498257 342.1140939597316 L 158.71080139372822 344.2953020134228 L 160.45296167247386 355.8724832214765 L 162.1951219512195 353.3557046979866 L 163.93728222996515 358.7248322147651 L 165.6794425087108 359.3959731543624 L 167.42160278745644 359.7315436241611 L 169.16376306620208 365.2684563758389 L 170.90592334494772 364.26174496644296 L 172.64808362369337 364.76510067114094 L 174.390243902439 367.1140939597316 L 176.13240418118465 365.43624161073825 L 177.8745644599303 367.28187919463085 L 179.61672473867597 371.1409395973154 L 181.3588850174216 369.96644295302013 L 183.10104529616726 370.80536912751677 L 184.8432055749129 368.6241610738255 L 186.58536585365854 364.93288590604027 L 188.3275261324042 363.758389261745 L 190.06968641114983 360.4026845637584 L 191.81184668989548 361.40939597315435 L 193.55400696864112 366.9463087248322 L 195.29616724738676 371.81208053691273 L 197.0383275261324 365.93959731543623 L 198.78048780487805 364.4295302013423 L 200.5226480836237 366.9463087248322 L 202.26480836236934 371.3087248322148 L 204.00696864111498 372.48322147651004 L 205.74912891986062 371.3087248322148 L 207.49128919860627 369.1275167785235 L 209.2334494773519 367.44966442953023 L 210.97560975609755 370.80536912751677 L 212.7177700348432 376.17449664429535 L 214.45993031358887 378.8590604026846 L 216.2020905923345 377.68456375838923 L 217.94425087108016 382.2147651006711 L 219.6864111498258 380.70469798657723 L 221.42857142857144 376.17449664429535 L 223.1707317073171 374.496644295302 L 224.91289198606273 376.17449664429535 L 226.65505226480838 370.80536912751677 L 228.39721254355402 365.2684563758389 L 230.13937282229966 365.77181208053696 L 231.8815331010453 360.4026845637584 L 233.62369337979095 359.3959731543624 L 235.3658536585366 359.06040268456377 L 237.10801393728224 356.5436241610738 L 238.85017421602788 356.5436241610738 L 240.59233449477352 358.22147651006713 L 242.33449477351917 360.9060402684564 L 244.0766550522648 358.7248322147651 L 245.81881533101046 357.55033557046977 L 247.5609756097561 360.73825503355704 L 249.30313588850174 365.6040268456376 L 251.0452961672474 362.08053691275165 L 252.78745644599303 359.56375838926175 L 254.52961672473867 349.66442953020135 L 256.2717770034843 348.6577181208054 L 258.01393728222996 351.17449664429535 L 259.7560975609756 349.496644295302 L 261.49825783972125 348.8255033557047 L 263.2404181184669 357.3825503355705 L 264.98257839721254 348.6577181208054 L 266.7247386759582 356.20805369127515 L 268.4668989547038 346.3087248322148 L 270.20905923344947 352.1812080536913 L 271.9512195121951 354.5302013422819 L 273.69337979094075 361.40939597315435 L 275.4355400696864 354.19463087248323 L 277.17770034843204 353.0201342281879 L 278.9198606271777 354.19463087248323 L 280.6620209059233 355.53691275167785 L 282.40418118466897 361.57718120805373 L 284.1463414634146 349.66442953020135 L 285.88850174216026 400 L 287.6306620209059 356.5436241610738 L 289.37282229965155 349.8322147651007 L 291.1149825783972 346.1409395973154 L 292.85714285714283 345.63758389261744 L 294.5993031358885 337.75167785234896 L 296.3414634146342 339.93288590604027 L 298.08362369337976 335.23489932885906 L 299.82578397212546 340.43624161073825 L 301.56794425087105 331.7114093959732 L 303.31010452961675 328.18791946308727 L 305.05226480836234 333.5570469798658 L 306.79442508710804 337.08053691275165 L 308.5365853658536 333.89261744966444 L 310.2787456445993 332.71812080536915 L 312.0209059233449 331.87919463087246 L 313.7630662020906 327.51677852348996 L 315.5052264808362 317.6174496644295 L 317.2473867595819 322.8187919463087 L 318.9895470383275 324.66442953020135 L 320.7317073170732 318.4563758389262 L 322.4738675958188 319.6308724832215 L 324.2160278745645 320.13422818791946 L 325.95818815331006 315.1006711409396 L 327.70034843205576 312.5838926174497 L 329.44250871080135 311.0738255033557 L 331.18466898954705 306.0402684563759 L 332.92682926829264 305.53691275167785 L 334.66898954703834 310.9060402684564 L 336.4111498257839 313.9261744966443 L 338.1533101045296 301.3422818791946 L 339.8954703832752 298.1543624161074 L 341.6376306620209 299.16107382550337 L 343.3797909407665 292.9530201342282 L 345.1219512195122 288.0872483221477 L 346.86411149825784 293.28859060402687 L 348.6062717770035 293.12080536912754 L 350.34843205574913 289.4295302013423 L 352.0905923344948 294.7986577181208 L 353.8327526132404 287.751677852349 L 355.57491289198606 289.5973154362416 L 357.3170731707317 284.2281879194631 L 359.05923344947735 281.0402684563758 L 360.801393728223 274.16107382550337 L 362.54355400696863 273.32214765100673 L 364.2857142857143 272.9865771812081 L 366.0278745644599 269.2953020134228 L 367.77003484320556 265.6040268456376 L 369.5121951219512 267.44966442953023 L 371.25435540069685 254.19463087248323 L 372.9965156794425 250 L 374.73867595818814 246.6442953020134 L 376.4808362369338 241.61073825503354 L 378.2229965156794 240.1006711409396 L 379.96515679442507 233.5570469798658 L 381.7073170731707 226.67785234899327 L 383.44947735191636 225.16778523489933 L 385.191637630662 219.1275167785235 L 386.93379790940764 219.46308724832215 L 388.6759581881533 218.4563758389262 L 390.41811846689893 214.76510067114094 L 392.1602787456446 214.76510067114094 L 393.9024390243902 216.77852348993287 L 395.6445993031359 212.24832214765098 L 397.3867595818815 212.91946308724835 L 399.1289198606272 212.75167785234902 L 400.8710801393728 209.8993288590604 L 402.6132404181185 217.11409395973152 L 404.3554006968641 202.01342281879192 L 406.0975609756097 199.3288590604027 L 407.83972125435537 194.63087248322148 L 409.581881533101 201.00671140939596 L 411.32404181184666 199.66442953020135 L 413.0662020905923 195.13422818791946 L 414.80836236933794 192.61744966442956 L 416.5505226480836 197.48322147651004 L 418.29268292682923 196.30872483221475 L 420.0348432055749 194.63087248322148 L 421.7770034843206 193.4563758389262 L 423.5191637630662 196.30872483221475 L 425.26132404181186 190.26845637583892 L 427.0034843205575 179.19463087248323 L 428.74564459930315 165.43624161073825 L 430.4878048780488 166.9463087248322 L 432.22996515679444 164.76510067114094 L 433.9721254355401 158.5570469798658 L 435.7142857142857 151.8456375838926 L 437.45644599303137 147.65100671140937 L 439.198606271777 162.4161073825503 L 440.94076655052265 137.58389261744964 L 442.6829268292683 133.72483221476512 L 444.42508710801394 132.38255033557044 L 446.1672473867596 135.23489932885906 L 447.9094076655052 130.53691275167785 L 449.65156794425087 128.85906040268458 L 451.3937282229965 129.86577181208054 L 453.13588850174216 126.17449664429529 L 454.8780487804878 128.3557046979866 L 456.62020905923345 120.9731543624161 L 458.3623693379791 119.46308724832215 L 460.10452961672473 113.08724832214767 L 461.8466898954704 108.89261744966444 L 463.588850174216 100 L 465.33101045296166 114.09395973154363 L 467.0731707317073 105.8724832214765 L 468.81533101045295 106.04026845637583 L 470.5574912891986 108.72483221476512 L 472.29965156794424 109.73154362416108 L 474.0418118466899 112.58389261744964 L 475.7839721254355 112.41610738255031 L 477.52613240418117 121.81208053691273 L 479.2682926829268 129.0268456375839 L 481.01045296167246 122.81879194630875 L 482.7526132404181 119.63087248322148 L 484.49477351916374 118.95973154362417 L 486.2369337979094 117.6174496644295 L 487.97909407665503 122.98657718120808 L 489.7212543554007 123.82550335570471 L 491.4634146341463 128.3557046979866 L 493.20557491289196 128.85906040268458 L 494.9477351916376 127.85234899328862 L 496.68989547038325 124.83221476510067 L 498.4320557491289 128.3557046979866 L 500.17421602787454 132.21476510067112 L 501.9163763066202 131.87919463087246 L 503.6585365853658 125.83892617449663 L 505.40069686411147 133.72483221476512 L 507.1428571428571 131.5436241610738 L 508.88501742160275 140.43624161073825 L 510.6271777003484 130.03355704697987 L 512.3693379790941 131.5436241610738 L 514.1114982578397 145.63758389261744 L 515.8536585365853 135.5704697986577 L 517.595818815331 144.7986577181208 L 519.3379790940767 137.58389261744964 L 521.0801393728223 141.4429530201342 L 522.822299651568 149.66442953020135 L 524.5644599303137 164.59731543624162 L 526.3066202090592 165.1006711409396 L 528.0487804878048 163.08724832214767 L 529.7909407665505 183.38926174496646 L 531.5331010452962 180.70469798657717 L 533.2752613240418 182.0469798657718 L 535.0174216027874 184.2281879194631 L 536.7595818815331 181.37583892617448 L 538.5017421602788 184.06040268456377 L 540.2439024390244 191.61073825503354 L 541.98606271777 193.79194630872485 L 543.7282229965157 192.78523489932888 L 545.4703832752614 198.99328859060404 L 547.212543554007 195.3020134228188 L 548.9547038327526 197.3154362416107 L 550.6968641114983 205.53691275167785 L 552.439024390244 205.53691275167785 L 554.1811846689895 203.3557046979866 L 555.9233449477351 207.88590604026848 L 557.6655052264808 208.22147651006713 L 559.4076655052265 216.10738255033556 L 561.1498257839721 217.44966442953023 L 562.8919860627177 227.34899328859058 L 564.6341463414634 239.4295302013423 L 566.3763066202091 235.06711409395973 L 568.1184668989547 235.90604026845637 L 569.8606271777003 243.12080536912754 L 571.602787456446 246.14093959731542 L 573.3449477351917 253.3557046979866 L 575.0871080139373 248.8255033557047 L 576.8292682926829 252.51677852348996 L 578.5714285714286 255.8724832214765 L 580.3135888501743 246.97986577181206 L 582.0557491289198 248.1543624161074 L 583.7979094076654 246.47651006711408 L 585.5400696864111 246.97986577181206 L 587.2822299651568 246.6442953020134 L 589.0243902439024 252.18120805369125 L 590.766550522648 253.3557046979866 L 592.5087108013937 252.85234899328862 L 594.2508710801394 252.6845637583893 L 595.993031358885 243.4563758389262 L 597.7351916376306 242.28187919463085 L 599.4773519163763 240.93959731543623 L 601.219512195122 244.96644295302013 L 602.9616724738676 252.18120805369125 L 604.7038327526132 253.69127516778525 L 606.4459930313589 254.36241610738256 L 608.1881533101046 256.87919463087246 L 609.9303135888501 252.01342281879192 L 611.6724738675957 262.751677852349 L 613.4146341463414 264.5973154362416 L 615.1567944250871 262.91946308724835 L 616.8989547038327 261.9127516778523 L 618.6411149825783 266.61073825503354 L 620.383275261324 266.77852348993287 L 622.1254355400697 265.93959731543623 L 623.8675958188153 264.4295302013423 L 625.609756097561 271.81208053691273 L 627.3519163763067 271.4765100671141 L 629.0940766550523 276.3422818791946 L 630.8362369337979 275.6711409395973 L 632.5783972125436 275.33557046979865 L 634.3205574912893 275.33557046979865 L 636.0627177700349 275 L 637.8048780487804 280.53691275167785 L 639.5470383275261 281.71140939597313 L 641.2891986062718 285.5704697986577 L 643.0313588850174 290.6040268456376 L 644.773519163763 295.9731543624161 L 646.5156794425087 292.2818791946309 L 648.2578397212544 295.80536912751677 L 650 297.9865771812081 L 650 400 Z" /><text  class="poloto_labels poloto_text poloto_title" alignment-baseline="start" text-anchor="middle" font-size="x-large" x="400" y="37.5" >Total players on 2021-07-02</text><text  class="poloto_labels poloto_text poloto_xname" alignment-baseline="start" text-anchor="middle" font-size="x-large" x="400" y="481.25" >Time</text><text  class="poloto_labels poloto_text poloto_yname" alignment-baseline="start" text-anchor="middle" font-size="x-large" transform="rotate(-90,37.5,250)" x="37.5" y="250" >Count</text><line  class="poloto_axis_lines" stroke="black" x1="208.0487804878049" x2="208.0487804878049" y1="400" y2="405" /><text  class="poloto_tick_labels poloto_text" alignment-baseline="start" text-anchor="middle" x="208.0487804878049" y="430" > 02:46:40</text><line  class="poloto_axis_lines" stroke="black" x1="266.1207897793264" x2="266.1207897793264" y1="400" y2="405" /><text  class="poloto_tick_labels poloto_text" alignment-baseline="start" text-anchor="middle" x="266.1207897793264" y="430" > 05:33:20</text><line  class="poloto_axis_lines" stroke="black" x1="324.19279907084785" x2="324.19279907084785" y1="400" y2="405" /><text  class="poloto_tick_labels poloto_text" alignment-baseline="start" text-anchor="middle" x="324.19279907084785" y="430" > 08:20:00</text><line  class="poloto_axis_lines" stroke="black" x1="382.2648083623693" x2="382.2648083623693" y1="400" y2="405" /><text  class="poloto_tick_labels poloto_text" alignment-baseline="start" text-anchor="middle" x="382.2648083623693" y="430" > 11:06:40</text><line  class="poloto_axis_lines" stroke="black" x1="440.3368176538908" x2="440.3368176538908" y1="400" y2="405" /><text  class="poloto_tick_labels poloto_text" alignment-baseline="start" text-anchor="middle" x="440.3368176538908" y="430" > 13:53:20</text><line  class="poloto_axis_lines" stroke="black" x1="498.4088269454123" x2="498.4088269454123" y1="400" y2="405" /><text  class="poloto_tick_labels poloto_text" alignment-baseline="start" text-anchor="middle" x="498.4088269454123" y="430" > 16:40:00</text><line  class="poloto_axis_lines" stroke="black" x1="556.4808362369338" x2="556.4808362369338" y1="400" y2="405" /><text  class="poloto_tick_labels poloto_text" alignment-baseline="start" text-anchor="middle" x="556.4808362369338" y="430" > 19:26:40</text><line  class="poloto_axis_lines" stroke="black" x1="614.5528455284552" x2="614.5528455284552" y1="400" y2="405" /><text  class="poloto_tick_labels poloto_text" alignment-baseline="start" text-anchor="middle" x="614.5528455284552" y="430" > 22:13:20</text><line  class="poloto_axis_lines" stroke="black" x1="150" x2="144" y1="390.77181208053696" y2="390.77181208053696" /><text  class="poloto_tick_labels poloto_text" alignment-baseline="middle" text-anchor="end" x="135" y="390.77181208053696" > 1000</text><line  class="poloto_axis_lines" stroke="black" x1="150" x2="144" y1="306.87919463087246" y2="306.87919463087246" /><text  class="poloto_tick_labels poloto_text" alignment-baseline="middle" text-anchor="end" x="135" y="306.87919463087246" > 1500</text><line  class="poloto_axis_lines" stroke="black" x1="150" x2="144" y1="222.98657718120808" y2="222.98657718120808" /><text  class="poloto_tick_labels poloto_text" alignment-baseline="middle" text-anchor="end" x="135" y="222.98657718120808" > 2000</text><line  class="poloto_axis_lines" stroke="black" x1="150" x2="144" y1="139.09395973154363" y2="139.09395973154363" /><text  class="poloto_tick_labels poloto_text" alignment-baseline="middle" text-anchor="end" x="135" y="139.09395973154363" > 2500</text><path  stroke="black" fill="none" class="poloto_axis_lines" style="stroke-dasharray:14.518002322880372;stroke-dashoffset:-58.04878048780488;" d=" M 150 400 L 650 400" /><path  stroke="black" fill="none" class="poloto_axis_lines" style="stroke-dasharray:8.389261744966444;stroke-dashoffset:-9.228187919463068;" d=" M 150 400 L 150 100" /></svg>