<svg class="poloto" width="800" height="500" viewBox="0 0 800 500" xmlns="http://www.w3.org/2000/svg"><style>.poloto { stroke-linecap:round; stroke-linejoin:round; font-family: 'Tahoma', sans-serif; background-color: AliceBlue;} .poloto_scatter{stroke-width:7} .poloto_line{stroke-width:2} .poloto_text{fill: black;} .poloto_axis_lines{stroke: black;stroke-width:3;fill:none;stroke-dasharray:none} .poloto0stroke{stroke:  blue;} .poloto1stroke{stroke:  red;} .poloto2stroke{stroke:  green;} .poloto3stroke{stroke:  gold;} .poloto4stroke{stroke:  aqua;} .poloto5stroke{stroke:  lime;} .poloto6stroke{stroke:  orange;} .poloto7stroke{stroke:  chocolate;} .poloto0fill{fill:blue;} .poloto1fill{fill:red;} .poloto2fill{fill:green;} .poloto3fill{fill:gold;} .poloto4fill{fill:aqua;} .poloto5fill{fill:lime;} .poloto6fill{fill:orange;} .poloto7fill{fill:chocolate;}</style><text  class="poloto_text poloto_legend_text" alignment-baseline="middle" text-anchor="start" font-size="large" x="675" y="100" ></text><path  class="poloto_linefill poloto0fill" d=" M 150 400 L 150 336.6606170598911 L 151.73637324475314 331.0344827586207 L 153.47855375788336 329.7640653357532 L 155.2207342710136 333.2123411978221 L 156.96291478414383 338.1125226860254 L 158.70509529727406 348.4573502722323 L 160.4472758104043 348.27586206896547 L 162.18945632353453 347.54990925589834 L 163.93163683666478 348.82032667876587 L 165.673817349795 350.0907441016334 L 167.41599786292522 351.7241379310345 L 169.15817837605547 355.3539019963702 L 170.9003588891857 364.4283121597096 L 172.64253940231595 360.61705989110703 L 174.38471991544617 367.87658802177856 L 176.1269004285764 376.40653357531755 L 177.86908094170664 366.9691470054446 L 179.61126145483686 366.42468239564425 L 181.35344196796711 369.32849364791286 L 183.09562248109734 369.1470054446461 L 184.8378029942276 368.0580762250454 L 186.5799835073578 373.502722323049 L 188.32216402048806 374.9546279491833 L 190.06434453361828 372.41379310344826 L 191.8065250467485 388.9292196007259 L 193.54870555987875 386.3883847549909 L 195.29088607300898 388.021778584392 L 197.03306658613923 383.3030852994555 L 198.77524709926945 386.9328493647913 L 200.51742761239967 386.5698729582577 L 202.25960812552992 396.00725952813065 L 204.00178863866014 400 L 205.7439691517904 397.0961887477314 L 207.48614966492062 397.27767695099817 L 209.22833017805084 392.92196007259525 L 210.9705106911811 391.1070780399274 L 212.7126912043113 394.010889292196 L 214.45487171744156 380.58076225045374 L 216.19705223057179 375.49909255898365 L 217.939232743702 366.7876588021778 L 219.68141325683226 368.7840290381125 L 221.4235937699625 366.42468239564425 L 223.16577428309273 369.1470054446461 L 224.90795479622295 367.1506352087114 L 226.65013530935317 367.513611615245 L 228.39231582248343 384.9364791288566 L 230.13449633561368 362.9764065335753 L 231.8766768487439 353.7205081669691 L 233.61885736187412 354.44646098003625 L 235.36103787500434 360.43557168784025 L 237.1032183881346 370.05444646098 L 238.84539890126484 361.8874773139746 L 240.58757941439507 358.2577132486388 L 242.3297599275253 353.1760435571688 L 244.0719404406555 347.005444646098 L 245.81412095378576 344.64609800362973 L 247.556301466916 339.0199637023593 L 249.29848198004623 334.1197822141561 L 251.04066249317646 326.49727767695094 L 252.78284300630668 325.58983666061704 L 254.530830787814 319.41923774954626 L 256.2672040325672 315.7894736842105 L 258.0093845456974 302.9038112522686 L 259.7515650588276 306.1705989110708 L 261.4937455719579 307.44101633393825 L 263.23592608508807 304.7186932849364 L 264.97810659821835 305.2631578947369 L 266.72028711134857 308.52994555353905 L 268.4624676244788 305.2631578947369 L 270.20464813760907 304.9001814882032 L 271.94682865073923 305.989110707804 L 273.6890091638695 306.1705989110708 L 275.43118967699974 303.62976406533573 L 277.17337019012996 312.70417422867513 L 278.91555070326024 306.1705989110708 L 280.6577312163904 303.62976406533573 L 282.3999117295207 300.36297640653356 L 284.1420922426509 296.55172413793105 L 285.8842727557811 293.1034482758621 L 287.6264532689114 287.8402903811252 L 289.36863378204157 278.0399274047187 L 291.11081429517185 276.043557168784 L 292.85299480830207 276.043557168784 L 294.5951753214323 270.961887477314 L 296.3373558345626 271.68784029038113 L 298.07953634769274 267.51361161524494 L 299.821716860823 235.57168784029037 L 301.56389737395324 263.7023593466424 L 303.30607788708346 253.35753176043553 L 305.04825840021374 253.53901996370232 L 306.7904389133439 256.2613430127042 L 308.5326194264742 256.9872958257713 L 310.2747999396044 256.9872958257713 L 312.01698045273463 257.1687840290381 L 313.7591609658649 256.62431941923774 L 315.5013414789951 252.26860254083485 L 317.24352199212535 251.54264972776767 L 318.9857025052556 248.2758620689655 L 320.7278830183858 245.00907441016332 L 322.4700635315161 247.3684210526316 L 324.2122440446463 246.46098003629763 L 325.9544245577765 244.82758620689654 L 327.69660507090674 251.72413793103445 L 329.43878558403696 245.55353901996367 L 331.18096609716724 238.83847549909254 L 332.92314661029747 235.02722323049002 L 334.6653271234277 238.65698729582576 L 336.4075076365579 233.03085299455532 L 338.14968814968813 232.48638838475497 L 339.8918686628184 238.83847549909254 L 341.63404917594863 227.04174228675137 L 343.37622968907885 226.1343012704174 L 345.1184102022091 223.41197822141558 L 346.8605907153393 223.77495462794914 L 348.6027712284696 220.1451905626134 L 350.3449517415998 213.2486388384755 L 352.08713225473 211.7967332123412 L 353.8293127678603 208.1669691470054 L 355.57149328099047 202.35934664246824 L 357.31367379412075 201.2704174228675 L 359.05585430725097 197.45916515426498 L 360.7980348203812 195.8257713248639 L 362.54021533351147 202.7223230490018 L 364.28239584664163 201.99637023593462 L 366.0245763597719 196.91470054446458 L 367.76675687290214 196.7332123411978 L 369.50893738603236 194.3738656987296 L 371.25111789916264 196.18874773139746 L 372.9932984122928 200.72595281306715 L 374.7354789254231 205.08166969147 L 376.4776594385533 196.00725952813067 L 378.2198399516835 194.19237749546275 L 379.9620204648138 183.30308529945555 L 381.70420097794397 185.84392014519054 L 383.44638149107425 176.04355716878402 L 385.18856200420447 187.29582577132484 L 386.9307425173347 185.66243194192376 L 388.672923030465 177.13248638838476 L 390.41510354359514 172.59528130671507 L 392.1572840567254 166.42468239564428 L 393.89946456985564 161.7059891107078 L 395.64164508298586 172.95825771324863 L 397.38382559611614 178.03992740471867 L 399.1260061092463 181.48820326678762 L 400.8681866223766 177.13248638838476 L 402.6103671355068 179.3103448275862 L 404.352547648637 176.95099818511792 L 406.09472816176725 182.2141560798548 L 407.83690867489753 177.31397459165154 L 409.57908918802775 171.32486388384754 L 411.321269701158 171.6878402903811 L 413.0634502142882 173.3212341197822 L 414.8056307274184 170.41742286751358 L 416.5478112405487 170.2359346642468 L 418.2899917536789 168.05807622504537 L 420.03217226680914 163.88384754990923 L 421.77435277993936 164.06533575317602 L 423.5165332930696 161.88747731397459 L 425.25871380619986 165.51724137931032 L 427.0008943193301 157.53176043557167 L 428.7430748324603 175.86206896551724 L 430.48525534559053 165.15426497277676 L 432.22743585872075 152.08711433756807 L 433.96961637185103 152.8130671506352 L 435.71179688498125 150.27223230490014 L 437.4539773981115 159.89110707803994 L 439.1961579112417 156.6243194192377 L 440.938338424372 141.74228675136112 L 442.6805189375022 143.37568058076226 L 444.4226994506324 143.55716878402905 L 446.16487996376264 142.64972776769503 L 447.90706047689287 146.46098003629763 L 449.64924099002315 137.9310344827586 L 451.39142150315337 132.8493647912885 L 453.1336020162836 129.9455535390199 L 454.8757825294138 133.75680580762253 L 456.61796304254403 133.57531760435575 L 458.3601435556743 130.30852994555357 L 460.10232406880453 117.967332123412 L 461.84450458193476 121.41560798548096 L 463.586685095065 113.9745916515426 L 465.3288656081952 113.06715063520869 L 467.0710461213255 122.50453720508165 L 468.8132266344557 125.58983666061704 L 470.5554071475859 113.43012704174225 L 472.29758766071615 106.89655172413791 L 474.03976817384637 103.81125226860252 L 475.78194868697665 100 L 477.52412920010687 109.0744101633394 L 479.2663097132371 105.80762250453722 L 481.0084902263673 108.16696914700537 L 482.75067073949754 113.43012704174225 L 484.4928512526278 106.35208711433756 L 486.23503176575804 112.34119782214157 L 487.97721227888826 104.71869328493642 L 489.7193927920185 106.53357531760435 L 491.4615733051487 124.68239564428313 L 493.203753818279 176.95099818511792 L 494.9459343314092 117.78584392014523 L 496.6881148445394 109.43738656987296 L 498.43029535766965 125.40834845735026 L 500.17247587079993 141.37931034482756 L 501.91465638393015 129.58257713248634 L 503.6568368970604 136.66061705989114 L 505.3990174101906 147.00544464609797 L 507.1411979233208 146.8239564428312 L 508.8833784364511 160.79854809437384 L 510.6255589495813 163.52087114337567 L 512.3677394627116 145.73502722323045 L 514.1099199758418 152.6315789473684 L 515.8521004889719 158.6206896551724 L 517.5942810021022 161.88747731397459 L 519.3364615152325 165.6987295825771 L 521.0786420283628 162.43194192377493 L 522.8208225414929 172.59528130671507 L 524.5630030546231 219.96370235934663 L 526.3051835677534 191.65154264972776 L 528.0473640808837 204.53720508166967 L 529.7895445940139 194.73684210526315 L 531.5317251071441 206.17059891107075 L 533.2739056202743 201.45190562613428 L 535.0160861334045 203.08529945553536 L 536.7582666465348 211.97822141560798 L 538.5004471596651 214.8820326678766 L 540.2426276727953 223.95644283121598 L 541.9848081859254 232.48638838475497 L 543.7269886990557 226.86025408348453 L 545.469169212186 220.8711433756806 L 547.2171569936934 218.87477313974588 L 548.9535302384464 218.51179673321232 L 550.6957107515766 236.8421052631579 L 552.4378912647069 230.12704174228676 L 554.1800717778372 232.48638838475497 L 555.9222522909674 223.59346642468236 L 557.6644328040976 219.96370235934663 L 559.4066133172278 228.13067150635206 L 561.148793830358 235.57168784029037 L 562.8909743434883 237.56805807622501 L 564.6331548566186 246.09800362976407 L 566.3753353697488 252.99455535390197 L 568.117515882879 253.53901996370232 L 569.8596963960092 249.18330308529946 L 571.6018769091395 235.57168784029037 L 573.3440574222698 240.8348457350272 L 575.0862379353999 239.7459165154265 L 576.8284184485302 251.72413793103445 L 578.5705989616604 245.37205081669688 L 580.3127794747907 248.63883847549906 L 582.0549599879209 257.1687840290381 L 583.7971405010511 253.53901996370232 L 585.5393210141814 249.00181488203268 L 587.2815015273115 256.0798548094374 L 589.0236820404418 260.43557168784025 L 590.7658625535721 263.1578947368421 L 592.5080430667023 269.1470054446461 L 594.2502235798326 266.60617059891104 L 595.9924040929627 266.2431941923775 L 597.734584606093 256.8058076225045 L 599.4767651192233 273.6842105263157 L 601.2189456323534 260.25408348457347 L 602.9611261454837 263.7023593466424 L 604.7033066586139 262.43194192377496 L 606.4454871717442 262.0689655172414 L 608.1876676848744 257.8947368421052 L 609.9298481980046 290.38112522686026 L 611.6720287111349 287.29582577132487 L 613.414209224265 292.0145190562613 L 615.1563897373953 296.0072595281307 L 616.8985702505256 296.37023593466427 L 618.6407507636558 296.7332123411978 L 620.382931276786 293.1034482758621 L 622.1251117899162 295.644283121597 L 623.8672923030465 299.2740471869329 L 625.6094728161768 299.45553539019966 L 627.3516533293069 295.0998185117967 L 629.0938338424372 298.1851179673321 L 630.8360143555674 294.010889292196 L 632.5781948686977 302.1778584392015 L 634.320375381828 309.0744101633394 L 636.0625558949582 315.0635208711434 L 637.8047364080884 314.8820326678766 L 639.5469169212186 313.0671506352087 L 641.2890974343488 319.0562613430127 L 643.0312779474791 319.41923774954626 L 644.7734584606094 323.956442831216 L 646.5156389737396 321.7785843920145 L 648.2578194868697 325.7713248638838 L 650 327.40471869328496 L 650 400 Z" /><text  class="poloto_labels poloto_text poloto_title" alignment-baseline="start" text-anchor="middle" font-size="x-large" x="400" y="37.5" >Total players on 2021-07-25</text><text  class="poloto_labels poloto_text poloto_xname" alignment-baseline="start" text-anchor="middle" font-size="x-large" x="400" y="481.25" >Time</text><text  class="poloto_labels poloto_text poloto_yname" alignment-baseline="start" text-anchor="middle" font-size="x-large" transform="rotate(-90,37.5,250)" x="37.5" y="250" >Count</text><line  class="poloto_axis_lines" stroke="black" x1="208.0436474291223" x2="208.0436474291223" y1="400" y2="405" /><text  class="poloto_tick_labels poloto_text" alignment-baseline="start" text-anchor="middle" x="208.0436474291223" y="430" > 03:00</text><line  class="poloto_axis_lines" stroke="black" x1="266.1163312001301" x2="266.1163312001301" y1="400" y2="405" /><text  class="poloto_tick_labels poloto_text" alignment-baseline="start" text-anchor="middle" x="266.1163312001301" y="430" > 06:00</text><line  class="poloto_axis_lines" stroke="black" x1="324.1890149711379" x2="324.1890149711379" y1="400" y2="405" /><text  class="poloto_tick_labels poloto_text" alignment-baseline="start" text-anchor="middle" x="324.1890149711379" y="430" > 08:00</text><line  class="poloto_axis_lines" stroke="black" x1="382.26169874214565" x2="382.26169874214565" y1="400" y2="405" /><text  class="poloto_tick_labels poloto_text" alignment-baseline="start" text-anchor="middle" x="382.26169874214565" y="430" > 11:00</text><line  class="poloto_axis_lines" stroke="black" x1="440.33438251315346" x2="440.33438251315346" y1="400" y2="405" /><text  class="poloto_tick_labels poloto_text" alignment-baseline="start" text-anchor="middle" x="440.33438251315346" y="430" > 14:00</text><line  class="poloto_axis_lines" stroke="black" x1="498.40706628416126" x2="498.40706628416126" y1="400" y2="405" /><text  class="poloto_tick_labels poloto_text" alignment-baseline="start" text-anchor="middle" x="498.40706628416126" y="430" > 17:00</text><line  class="poloto_axis_lines" stroke="black" x1="556.479750055169" x2="556.479750055169" y1="400" y2="405" /><text  class="poloto_tick_labels poloto_text" alignment-baseline="start" text-anchor="middle" x="556.479750055169" y="430" > 19:00</text><line  class="poloto_axis_lines" stroke="black" x1="614.5524338261769" x2="614.5524338261769" y1="400" y2="405" /><text  class="poloto_tick_labels poloto_text" alignment-baseline="start" text-anchor="middle" x="614.5524338261769" y="430" > 22:00</text><line  class="poloto_axis_lines" stroke="black" x1="150" x2="144" y1="311.61524500907444" y2="311.61524500907444" /><text  class="poloto_tick_labels poloto_text" alignment-baseline="middle" text-anchor="end" x="135" y="311.61524500907444" > 1500</text><line  class="poloto_axis_lines" stroke="black" x1="150" x2="144" y1="220.87114337568062" y2="220.87114337568062" /><text  class="poloto_tick_labels poloto_text" alignment-baseline="middle" text-anchor="end" x="135" y="220.87114337568062" > 2000</text><line  class="poloto_axis_lines" stroke="black" x1="150" x2="144" y1="130.12704174228668" y2="130.12704174228668" /><text  class="poloto_tick_labels poloto_text" alignment-baseline="middle" text-anchor="end" x="135" y="130.12704174228668" > 2500</text><path  stroke="black" fill="none" class="poloto_axis_lines" style="stroke-dasharray:14.518170942751949;stroke-dashoffset:-58.043647429122295;" d=" M 150 400 L 650 400" /><path  stroke="black" fill="none" class="poloto_axis_lines" style="stroke-dasharray:9.074410163339383;stroke-dashoffset:-88.38475499092559;" d=" M 150 400 L 150 100" /></svg>