<svg class="poloto" width="800" height="500" viewBox="0 0 800 500" xmlns="http://www.w3.org/2000/svg"><style>.poloto { stroke-linecap:round; stroke-linejoin:round; font-family: 'Tahoma', sans-serif; background-color: AliceBlue;} .poloto_scatter{stroke-width:7} .poloto_line{stroke-width:2} .poloto_text{fill: black;} .poloto_axis_lines{stroke: black;stroke-width:3;fill:none;stroke-dasharray:none} .poloto0stroke{stroke:  blue;} .poloto1stroke{stroke:  red;} .poloto2stroke{stroke:  green;} .poloto3stroke{stroke:  gold;} .poloto4stroke{stroke:  aqua;} .poloto5stroke{stroke:  lime;} .poloto6stroke{stroke:  orange;} .poloto7stroke{stroke:  chocolate;} .poloto0fill{fill:blue;} .poloto1fill{fill:red;} .poloto2fill{fill:green;} .poloto3fill{fill:gold;} .poloto4fill{fill:aqua;} .poloto5fill{fill:lime;} .poloto6fill{fill:orange;} .poloto7fill{fill:chocolate;}</style><text  class="poloto_text poloto_legend_text" alignment-baseline="middle" text-anchor="start" font-size="large" x="675" y="100" ></text><path  class="poloto_linefill poloto0fill" d=" M 150 400 L 150 353.6318951392682 L 151.74216027874564 357.89186237028946 L 153.4843205574913 361.16876024030586 L 155.22648083623693 362.97105406881485 L 156.96864111498257 366.4117968323321 L 158.71080139372822 366.4117968323321 L 160.45296167247386 365.1010376843255 L 162.1951219512195 364.28181321682143 L 163.93728222996515 363.1348989623157 L 165.6794425087108 364.28181321682143 L 167.42160278745644 363.9541234298198 L 169.16376306620208 364.44565811032226 L 170.90592334494772 365.9202621518296 L 172.64808362369337 365.1010376843255 L 174.390243902439 375.5871108683779 L 176.13240418118465 379.3555434188968 L 177.8745644599303 389.6777717094484 L 179.61672473867597 386.5647187329328 L 181.3588850174216 387.7116329874385 L 183.10104529616726 392.62697979246315 L 184.8432055749129 398.3615510649918 L 186.58536585365854 400 L 188.3275261324042 399.01693063899506 L 190.06968641114983 397.70617149098854 L 191.81184668989548 395.08465319497543 L 193.55400696864112 399.3446204259967 L 195.29616724738676 396.395412342982 L 197.0383275261324 398.6892408519934 L 198.78048780487805 399.50846531949753 L 200.5226480836237 400 L 202.26480836236934 397.87001638448936 L 204.00696864111498 393.11851447296556 L 205.74912891986062 387.87547788093934 L 207.49128919860627 387.7116329874385 L 209.2334494773519 379.68323320589843 L 210.97560975609755 380.3386127799017 L 212.7177700348432 387.2200983069361 L 214.45993031358887 383.45166575641724 L 216.2020905923345 380.3386127799017 L 217.94425087108016 373.12943746586564 L 219.6864111498258 362.80720917531403 L 221.42857142857144 358.3833970507919 L 223.1707317073171 355.10649918077553 L 224.91289198606273 354.9426542872747 L 226.65505226480838 348.0611687602403 L 228.39721254355402 346.25887493173127 L 230.13937282229966 352.64882577826324 L 231.8815331010453 351.82960131075913 L 233.62369337979095 347.40578918623703 L 235.3658536585366 343.801201529219 L 237.10801393728224 340.0327689787002 L 238.85017421602788 337.90278536318954 L 240.59233449477352 330.20207536865104 L 242.33449477351917 320.53522665210266 L 244.0766550522648 314.30912069907157 L 245.81881533101046 315.7837247405789 L 247.5609756097561 312.998361551065 L 249.30313588850174 313.9814309120699 L 251.0452961672474 315.29219006007645 L 252.78745644599303 308.7383943200437 L 254.52961672473867 309.7214636810486 L 256.2717770034843 312.3429819770617 L 258.01393728222996 308.7383943200437 L 259.7560975609756 303.82304751501914 L 261.49825783972125 306.2807209175314 L 263.2404181184669 308.41070453304206 L 264.98257839721254 310.21299836155106 L 266.7247386759582 312.998361551065 L 268.4668989547038 314.30912069907157 L 270.20905923344947 307.4276351720371 L 271.9512195121951 301.5292190060077 L 273.69337979094075 296.45002730748223 L 275.4355400696864 291.8623702894593 L 277.17770034843204 292.5177498634626 L 278.91986062717774 297.1054068814855 L 280.6620209059233 291.37083560895684 L 282.404181184669 291.206990715456 L 284.1463414634146 287.4385581649372 L 285.8885017421603 282.8509011469143 L 287.6306620209059 346.75040961223374 L 289.3728222996516 295.1392681594757 L 291.1149825783972 319.8798470780994 L 292.8571428571429 337.41125068268707 L 294.5993031358885 277.93555434188966 L 296.3414634146342 274.82250136537414 L 298.08362369337976 273.8394320043692 L 299.82578397212546 277.7717094483889 L 301.56794425087105 271.8732932823594 L 303.31010452961675 267.4494811578372 L 305.05226480836234 270.5625341343528 L 306.79442508710804 267.4494811578372 L 308.5365853658536 266.3025669033315 L 310.2787456445993 261.38722009830695 L 312.0209059233449 264.66411796832335 L 313.7630662020906 254.5057345712725 L 315.5052264808362 254.99726925177498 L 317.2473867595819 255.48880393227745 L 318.9895470383275 252.70344074276352 L 320.7317073170732 250.57345712725288 L 322.4738675958188 249.42654287274712 L 324.2160278745645 247.62424904423813 L 325.9581881533101 246.3134898962316 L 327.70034843205576 243.20043691971603 L 329.4425087108014 238.44893500819228 L 331.18466898954705 239.1043145821955 L 332.9268292682927 237.9574003276898 L 334.66898954703834 245.33042053522666 L 336.411149825784 242.05352266521027 L 338.1533101045296 244.01966138722008 L 339.89547038327527 238.44893500819228 L 341.6376306620209 235.17203713817588 L 343.37979094076655 226.1605679956308 L 345.1219512195122 223.70289459311851 L 346.86411149825784 232.55051884216277 L 348.6062717770035 224.3582741671218 L 350.34843205574913 220.42599672310212 L 352.0905923344948 225.83287820862915 L 353.8327526132404 218.95139268159477 L 355.57491289198606 220.09830693610053 L 357.3170731707317 218.62370289459312 L 359.05923344947735 226.48825778263245 L 360.801393728223 224.52211906062263 L 362.54355400696863 228.61824139814308 L 364.2857142857143 220.42599672310212 L 366.0278745644599 220.09830693610053 L 367.77003484320556 216.82140906608413 L 369.5121951219512 211.4145275805571 L 371.25435540069685 205.18842162752594 L 372.9965156794425 203.7138175860186 L 374.73867595818814 205.6799563080284 L 376.4808362369338 198.47078099399238 L 378.2229965156795 194.86619333697433 L 379.96515679442507 208.1376297105407 L 381.70731707317077 196.0131075914801 L 383.44947735191636 208.9568541780448 L 385.19163763066206 203.87766247951942 L 386.93379790940764 195.19388312397598 L 388.67595818815334 201.09229929000549 L 390.41811846689893 208.79300928454398 L 392.16027874564463 195.52157291097762 L 393.9024390243902 190.44238121245223 L 395.6445993031359 195.84926269797927 L 397.3867595818815 185.6908793009285 L 399.1289198606272 180.6116876024031 L 400.8710801393728 188.47624249044242 L 402.6132404181185 183.7247405789186 L 404.3554006968641 176.0240305843801 L 406.0975609756098 259.2572364827963 L 407.8397212543554 249.9180775532496 L 409.58188153310107 217.64063353358824 L 411.3240418118467 245.33042053522666 L 413.06620209059236 233.69743309666848 L 414.808362369338 209.12069907154563 L 416.55052264808364 233.04205352266524 L 418.2926829268293 228.29055161114144 L 420.03484320557493 221.40906608410705 L 421.7770034843206 210.59530311305298 L 423.5191637630662 215.8383397050792 L 425.26132404181186 212.5614418350628 L 427.0034843205575 202.89459311851448 L 428.74564459930315 189.13162206444565 L 430.4878048780488 164.06335335882034 L 432.22996515679444 166.3571818678318 L 433.9721254355401 156.198798470781 L 435.7142857142857 147.84270890223922 L 437.45644599303137 153.5772801747679 L 439.198606271777 152.43036592026215 L 440.94076655052265 144.401966138722 L 442.6829268292683 139.1589295466958 L 444.42508710801394 135.06280720917533 L 446.1672473867596 127.68978700163848 L 447.9094076655052 135.06280720917533 L 449.65156794425087 127.8536318951393 L 451.3937282229965 153.74112506826873 L 453.13588850174216 133.09666848716552 L 454.8780487804878 139.81430912069908 L 456.62020905923345 172.2555980338613 L 458.3623693379791 117.36755871108687 L 460.10452961672473 119.49754232659751 L 461.8466898954704 116.38448935008194 L 463.588850174216 121.79137083560897 L 465.33101045296166 117.36755871108687 L 467.0731707317073 114.2545057345713 L 468.81533101045295 108.02839978154014 L 470.5574912891986 104.42381212452216 L 472.29965156794424 100 L 474.0418118466899 154.72419442927367 L 475.7839721254355 170.12561441835066 L 477.52613240418117 167.0125614418351 L 479.2682926829268 117.20371381758605 L 481.01045296167246 156.36264336428184 L 482.7526132404181 118.35062807209175 L 484.49477351916374 178.31785909339158 L 486.2369337979094 102.94920808301475 L 487.97909407665503 111.30529765155654 L 489.7212543554007 121.46368104860733 L 491.4634146341463 119.16985253959587 L 493.20557491289196 119.16985253959587 L 494.9477351916376 124.24904423812126 L 496.68989547038325 127.52594210813766 L 498.4320557491289 123.92135445111961 L 500.17421602787454 127.8536318951393 L 501.91637630662024 120.80830147460404 L 503.6585365853659 127.52594210813766 L 505.4006968641115 120.80830147460404 L 507.14285714285717 121.79137083560897 L 508.8850174216028 130.4751501911524 L 510.62717770034845 141.4527580557073 L 512.3693379790941 142.76351720371383 L 514.1114982578397 155.87110868377937 L 515.8536585365854 152.7580557072638 L 517.5958188153311 164.39104314582198 L 519.3379790940767 163.24412889131622 L 521.0801393728223 170.12561441835066 L 522.822299651568 166.3571818678318 L 524.5644599303137 170.94483888585472 L 526.3066202090592 175.20480611687606 L 528.0487804878048 180.12015292190063 L 529.7909407665505 185.36318951392684 L 531.5331010452962 188.803932277444 L 533.2752613240418 187.001638448935 L 535.0174216027874 215.01911523757508 L 536.7595818815331 203.38612779901695 L 538.5017421602788 182.4139814309121 L 540.2439024390244 183.5608956854178 L 541.98606271777 213.87220098306938 L 543.7282229965157 184.05243036592026 L 545.4703832752614 188.3123975969416 L 547.212543554007 191.42545057345717 L 548.9547038327526 196.0131075914801 L 550.6968641114983 202.403058438012 L 552.439024390244 205.84380120152923 L 554.1811846689895 207.97378481703987 L 555.9233449477351 210.1037684325505 L 557.6655052264808 220.2621518296013 L 559.4076655052265 229.76515565264884 L 561.1498257839721 228.29055161114144 L 562.8919860627177 226.8159475696341 L 564.6341463414634 237.1381758601857 L 566.3763066202091 244.8388858547242 L 568.1184668989547 245.4942654287275 L 569.8606271777003 254.0141998907701 L 571.602787456446 248.27962861824142 L 573.3449477351917 250.40961223375206 L 575.0871080139373 256.79956308028403 L 576.8292682926829 262.53413435281266 L 578.5714285714286 250.0819224467504 L 580.3135888501743 258.4380120152922 L 582.0557491289198 261.0595303113053 L 583.7979094076654 261.38722009830695 L 585.5400696864111 262.53413435281266 L 587.2822299651568 260.404150737302 L 589.0243902439024 258.11032222829056 L 590.766550522648 260.56799563080284 L 592.5087108013937 263.84489350081924 L 594.2508710801394 266.46641179683235 L 595.993031358885 298.2523211359913 L 597.7351916376306 279.24631348989624 L 599.4773519163763 283.0147460404151 L 601.219512195122 284.1616602949208 L 602.9616724738676 283.5062807209175 L 604.7038327526133 289.404696886947 L 606.445993031359 298.2523211359913 L 608.1881533101046 294.15619879847077 L 609.9303135888501 301.85690879300927 L 611.6724738675958 301.5292190060077 L 613.4146341463415 302.51228836701256 L 615.1567944250871 313.32605133806663 L 616.8989547038327 318.56908793009285 L 618.6411149825784 318.2413981430912 L 620.3832752613241 317.4221736755871 L 622.1254355400697 321.02676133260513 L 623.8675958188153 327.2528672856363 L 625.609756097561 328.399781540142 L 627.3519163763067 330.20207536865104 L 629.0940766550523 330.20207536865104 L 630.8362369337979 329.8743855816494 L 632.5783972125436 329.0551611141453 L 634.3205574912893 334.78973238667396 L 636.0627177700349 333.31512834516656 L 637.8048780487804 332.00436919716003 L 639.5470383275261 328.5636264336428 L 641.2891986062718 334.2981977061715 L 643.0313588850174 339.3773894046969 L 644.773519163763 346.09503003823045 L 646.5156794425087 344.12889131622063 L 648.2578397212544 348.5527034407428 L 650 346.5865647187329 L 650 400 Z" /><text  class="poloto_labels poloto_text poloto_title" alignment-baseline="start" text-anchor="middle" font-size="x-large" x="400" y="37.5" >Total players on 2021-08-21</text><text  class="poloto_labels poloto_text poloto_xname" alignment-baseline="start" text-anchor="middle" font-size="x-large" x="400" y="481.25" >Time</text><text  class="poloto_labels poloto_text poloto_yname" alignment-baseline="start" text-anchor="middle" font-size="x-large" transform="rotate(-90,37.5,250)" x="37.5" y="250" >Count</text><line  class="poloto_axis_lines" stroke="black" x1="150" x2="150" y1="400" y2="405" /><text  class="poloto_tick_labels poloto_text" alignment-baseline="start" text-anchor="middle" x="150" y="430" > 00:00:00</text><line  class="poloto_axis_lines" stroke="black" x1="266.14401858304296" x2="266.14401858304296" y1="400" y2="405" /><text  class="poloto_tick_labels poloto_text" alignment-baseline="start" text-anchor="middle" x="266.14401858304296" y="430" > 05:33:20</text><line  class="poloto_axis_lines" stroke="black" x1="382.2880371660859" x2="382.2880371660859" y1="400" y2="405" /><text  class="poloto_tick_labels poloto_text" alignment-baseline="start" text-anchor="middle" x="382.2880371660859" y="430" > 11:06:40</text><line  class="poloto_axis_lines" stroke="black" x1="498.4320557491289" x2="498.4320557491289" y1="400" y2="405" /><text  class="poloto_tick_labels poloto_text" alignment-baseline="start" text-anchor="middle" x="498.4320557491289" y="430" > 16:40:00</text><line  class="poloto_axis_lines" stroke="black" x1="614.5760743321719" x2="614.5760743321719" y1="400" y2="405" /><text  class="poloto_tick_labels poloto_text" alignment-baseline="start" text-anchor="middle" x="614.5760743321719" y="430" > 22:13:20</text><line  class="poloto_axis_lines" stroke="black" x1="150" x2="144" y1="369.0333151283452" y2="369.0333151283452" /><text  class="poloto_tick_labels poloto_text" alignment-baseline="middle" text-anchor="end" x="135" y="369.0333151283452" > 1500</text><line  class="poloto_axis_lines" stroke="black" x1="150" x2="144" y1="287.11086837793556" y2="287.11086837793556" /><text  class="poloto_tick_labels poloto_text" alignment-baseline="middle" text-anchor="end" x="135" y="287.11086837793556" > 2000</text><line  class="poloto_axis_lines" stroke="black" x1="150" x2="144" y1="205.18842162752594" y2="205.18842162752594" /><text  class="poloto_tick_labels poloto_text" alignment-baseline="middle" text-anchor="end" x="135" y="205.18842162752594" > 2500</text><line  class="poloto_axis_lines" stroke="black" x1="150" x2="144" y1="123.26597487711638" y2="123.26597487711638" /><text  class="poloto_tick_labels poloto_text" alignment-baseline="middle" text-anchor="end" x="135" y="123.26597487711638" > 3000</text><path  stroke="black" fill="none" class="poloto_axis_lines" style="stroke-dasharray:14.518002322880372;stroke-dashoffset:-0;" d=" M 150 400 L 650 400" /><path  stroke="black" fill="none" class="poloto_axis_lines" style="stroke-dasharray:8.19224467504096;stroke-dashoffset:-30.96668487165482;" d=" M 150 400 L 150 100" /></svg>