<svg class="poloto" width="800" height="500" viewBox="0 0 800 500" xmlns="http://www.w3.org/2000/svg"><style>.poloto { stroke-linecap:round; stroke-linejoin:round; font-family: 'Tahoma', sans-serif; background-color: AliceBlue;} .poloto_scatter{stroke-width:7} .poloto_line{stroke-width:2} .poloto_text{fill: black;} .poloto_axis_lines{stroke: black;stroke-width:3;fill:none;stroke-dasharray:none} .poloto0stroke{stroke:  blue;} .poloto1stroke{stroke:  red;} .poloto2stroke{stroke:  green;} .poloto3stroke{stroke:  gold;} .poloto4stroke{stroke:  aqua;} .poloto5stroke{stroke:  lime;} .poloto6stroke{stroke:  orange;} .poloto7stroke{stroke:  chocolate;} .poloto0fill{fill:blue;} .poloto1fill{fill:red;} .poloto2fill{fill:green;} .poloto3fill{fill:gold;} .poloto4fill{fill:aqua;} .poloto5fill{fill:lime;} .poloto6fill{fill:orange;} .poloto7fill{fill:chocolate;}</style><text  class="poloto_text poloto_legend_text" alignment-baseline="middle" text-anchor="start" font-size="large" x="675" y="100" ></text><path  class="poloto_linefill poloto0fill" d=" M 150 400 L 150 371.712158808933 L 151.74216027874564 366.0545905707196 L 153.4843205574913 364.86352357320095 L 155.22648083623693 371.56327543424317 L 156.96864111498257 373.4987593052109 L 158.71080139372822 378.7096774193548 L 160.45296167247386 379.9007444168734 L 162.1951219512195 383.17617866004963 L 163.93728222996515 378.85856079404465 L 165.6794425087108 377.8163771712159 L 167.42160278745644 378.4119106699752 L 169.16376306620208 381.09181141439205 L 170.90592334494772 383.17617866004963 L 172.64808362369337 387.1960297766749 L 174.390243902439 390.17369727047145 L 176.13240418118465 392.40694789081886 L 177.8745644599303 396.87344913151367 L 179.61672473867597 397.1712158808933 L 181.3588850174216 395.0868486352357 L 183.10104529616726 398.06451612903226 L 184.8432055749129 390.62034739454094 L 186.58536585365854 394.93796526054587 L 188.3275261324042 400 L 190.06968641114983 398.06451612903226 L 191.81184668989548 394.19354838709677 L 193.55400696864112 394.78908188585604 L 195.29616724738676 393.151364764268 L 197.0383275261324 390.91811414392055 L 198.78048780487805 387.6426799007444 L 200.5226480836237 389.5781637717122 L 202.26480836236934 389.2803970223325 L 204.00696864111498 384.51612903225805 L 205.74912891986062 384.8138957816377 L 207.49128919860627 379.9007444168734 L 209.2334494773519 377.07196029776674 L 210.97560975609755 374.24317617866006 L 212.7177700348432 372.4565756823821 L 214.45993031358887 371.41439205955334 L 216.2020905923345 369.18114143920593 L 217.94425087108016 364.56575682382135 L 219.6864111498258 366.5012406947891 L 221.42857142857144 370.5210918114144 L 223.1707317073171 369.77667493796525 L 224.91289198606273 367.3945409429281 L 226.65505226480838 367.54342431761785 L 228.39721254355402 364.2679900744417 L 230.13937282229966 366.0545905707196 L 231.8815331010453 360.24813895781637 L 233.62369337979095 355.7816377171216 L 235.3658536585366 354.44168734491313 L 237.10801393728224 349.9751861042183 L 238.85017421602788 347.8908188585608 L 240.59233449477352 347.4441687344913 L 242.33449477351917 343.5732009925558 L 244.0766550522648 343.72208436724566 L 245.81881533101046 342.531017369727 L 247.5609756097561 339.106699751861 L 249.30313588850174 335.5334987593052 L 251.0452961672474 335.5334987593052 L 252.78745644599303 332.7047146401985 L 254.52961672473867 336.87344913151367 L 256.2717770034843 328.83374689826303 L 258.01393728222996 327.7915632754342 L 259.7560975609756 328.53598014888337 L 261.49825783972125 331.36476426799004 L 263.2404181184669 337.1712158808933 L 264.98257839721254 335.0868486352357 L 266.7247386759582 339.5533498759305 L 268.4668989547038 337.32009925558316 L 270.20905923344947 338.3622828784119 L 271.9512195121951 337.468982630273 L 273.69337979094075 338.9578163771712 L 275.4355400696864 337.0223325062035 L 277.17770034843204 335.2357320099255 L 278.91986062717774 333.0024813895782 L 280.6620209059233 333.74689826302733 L 282.404181184669 336.72456575682384 L 284.1463414634146 336.87344913151367 L 285.8885017421603 328.83374689826303 L 287.6306620209059 332.40694789081886 L 289.3728222996516 331.6625310173697 L 291.1149825783972 325.7071960297767 L 292.8571428571429 317.9652605459057 L 294.5993031358885 312.30769230769226 L 296.3414634146342 300.99255583126546 L 298.08362369337976 305.4590570719603 L 299.82578397212546 306.2034739454094 L 301.56794425087105 305.0124069478908 L 303.31010452961675 289.8263027295285 L 305.05226480836234 292.05955334987596 L 306.79442508710804 292.2084367245658 L 308.5365853658536 285.06203473945413 L 310.2787456445993 285.955334987593 L 312.0209059233449 290.57071960297765 L 313.7630662020906 287.2952853598015 L 315.5052264808362 286.10421836228284 L 317.2473867595819 287.741935483871 L 318.9895470383275 283.8709677419355 L 320.7317073170732 288.48635235732013 L 322.4738675958188 284.16873449131515 L 324.2160278745645 280 L 325.9581881533101 277.468982630273 L 327.70034843205576 278.5111662531017 L 329.4425087108014 278.21339950372203 L 331.18466898954705 275.5334987593052 L 332.9268292682927 280.4466501240695 L 334.66898954703834 279.25558312655085 L 336.411149825784 270.620347394541 L 338.1533101045296 273.30024813895784 L 339.89547038327527 271.51364764267987 L 341.6376306620209 265.55831265508687 L 343.37979094076655 259.60297766749375 L 345.1219512195122 252.90322580645162 L 346.86411149825784 251.26550868486353 L 348.6062717770035 243.2258064516129 L 350.34843205574913 244.11910669975188 L 352.0905923344948 239.05707196029775 L 353.8327526132404 235.18610421836226 L 355.57491289198606 233.54838709677418 L 357.3170731707317 229.08188585607942 L 359.05923344947735 229.97518610421835 L 360.801393728223 227.2952853598015 L 362.54355400696863 226.84863523573202 L 364.2857142857143 224.76426799007444 L 366.0278745644599 220.29776674937963 L 367.77003484320556 217.1712158808933 L 369.5121951219512 209.42928039702232 L 371.25435540069685 213.00248138957815 L 372.9965156794425 217.91563275434245 L 374.73867595818814 219.70223325062037 L 376.4808362369338 218.21339950372212 L 378.2229965156795 216.27791563275437 L 379.96515679442507 200.34739454094293 L 381.70731707317077 202.28287841191067 L 383.44947735191636 206.00496277915633 L 385.19163763066206 205.409429280397 L 386.93379790940764 207.34491315136475 L 388.67595818815334 207.6426799007444 L 390.41811846689893 205.409429280397 L 392.16027874564463 201.09181141439208 L 393.9024390243902 192.90322580645162 L 395.6445993031359 195.5831265508685 L 397.3867595818815 197.81637717121586 L 399.1289198606272 201.09181141439208 L 400.8710801393728 200.04962779156327 L 402.6132404181185 205.55831265508684 L 404.3554006968641 201.985111662531 L 406.0975609756098 206.302729528536 L 407.8397212543554 206.302729528536 L 409.58188153310107 202.87841191067 L 411.3240418118467 201.68734491315135 L 413.06620209059236 206.15384615384616 L 414.808362369338 204.51612903225808 L 416.55052264808364 194.39205955334987 L 418.2926829268293 192.3076923076923 L 420.03484320557493 189.18114143920596 L 421.7770034843206 186.3523573200993 L 423.5191637630662 191.1166253101737 L 425.26132404181186 190.96774193548387 L 427.0034843205575 184.11910669975188 L 428.74564459930315 186.3523573200993 L 430.4878048780488 186.20347394540946 L 432.22996515679444 179.50372208436724 L 433.9721254355401 172.9528535980149 L 435.7142857142857 165.95533498759303 L 437.45644599303137 170.272952853598 L 439.198606271777 165.95533498759303 L 440.94076655052265 171.61290322580643 L 442.6829268292683 169.37965260545909 L 444.42508710801394 183.2258064516129 L 446.1672473867596 161.6377171215881 L 447.9094076655052 148.9826302729529 L 449.65156794425087 139.3052109181142 L 451.3937282229965 133.79652605459057 L 453.13588850174216 127.9900744416874 L 454.8780487804878 131.56327543424322 L 456.62020905923345 120.09925558312659 L 458.3623693379791 112.65508684863528 L 460.10452961672473 103.424317617866 L 461.8466898954704 105.95533498759312 L 463.588850174216 100 L 465.33101045296166 105.3598014888338 L 467.0731707317073 108.63523573200996 L 468.81533101045295 105.50868486352363 L 470.5574912891986 102.23325062034746 L 472.29965156794424 103.87096774193549 L 474.0418118466899 108.78411910669979 L 475.7839721254355 101.78660049627797 L 477.52613240418117 102.53101736972701 L 479.2682926829268 106.25310173697267 L 481.01045296167246 103.424317617866 L 482.7526132404181 112.50620347394545 L 484.49477351916374 115.18610421836229 L 486.2369337979094 121.1414392059553 L 487.97909407665503 121.43920595533496 L 489.7212543554007 133.79652605459057 L 491.4634146341463 130.81885856079407 L 493.20557491289196 135.8808933002482 L 494.9477351916376 132.30769230769226 L 496.68989547038325 133.9454094292804 L 498.4320557491289 140.64516129032256 L 500.17421602787454 155.68238213399505 L 501.91637630662024 157.32009925558313 L 503.6585365853659 161.33995037220845 L 505.4006968641115 160.00000000000003 L 507.14285714285717 159.55334987593054 L 508.8850174216028 158.9578163771712 L 510.62717770034845 162.67990074441687 L 512.3693379790941 148.0893300248139 L 514.1114982578397 151.66253101736973 L 515.8536585365854 158.06451612903228 L 517.5958188153311 163.72208436724569 L 519.3379790940767 166.99751861042185 L 521.0801393728223 179.65260545905707 L 522.822299651568 168.78411910669976 L 524.5644599303137 164.46650124069478 L 526.3066202090592 174.88833746898266 L 528.0487804878048 190.6699751861042 L 529.7909407665505 198.26302729528535 L 531.5331010452962 201.985111662531 L 533.2752613240418 199.454094292804 L 535.0174216027874 206.00496277915633 L 536.7595818815331 202.13399503722084 L 538.5017421602788 200.6451612903226 L 540.2439024390244 204.81389578163774 L 541.98606271777 204.6650124069479 L 543.7282229965157 216.12903225806454 L 545.4703832752614 214.49131513647646 L 547.212543554007 219.70223325062037 L 548.9547038327526 225.95533498759303 L 550.6968641114983 226.40198511166253 L 552.439024390244 226.6997518610422 L 554.1811846689895 229.37965260545909 L 555.9233449477351 234.29280397022333 L 557.6655052264808 238.6104218362283 L 559.4076655052265 243.37468982630273 L 561.1498257839721 249.62779156327545 L 562.8919860627177 255.7320099255583 L 564.6341463414634 257.9652605459057 L 566.3763066202091 264.06947890818856 L 568.1184668989547 275.5334987593052 L 569.8606271777003 268.38709677419354 L 571.602787456446 266.1538461538462 L 573.3449477351917 271.0669975186104 L 575.0871080139373 277.76674937965265 L 576.8292682926829 279.106699751861 L 578.5714285714286 277.468982630273 L 580.3135888501743 276.4267990074442 L 582.0557491289198 281.3399503722085 L 583.7979094076654 280.74441687344915 L 585.5400696864111 278.21339950372203 L 587.2822299651568 277.6178660049628 L 589.0243902439024 282.67990074441684 L 590.766550522648 285.65756823821334 L 592.5087108013937 289.2307692307693 L 594.2508710801394 281.3399503722085 L 595.993031358885 292.95285359801494 L 597.7351916376306 293.54838709677415 L 599.4773519163763 294.2928039702233 L 601.219512195122 296.97270471464014 L 602.9616724738676 303.37468982630276 L 604.7038327526133 299.2059553349876 L 606.445993031359 298.01488833746896 L 608.1881533101046 302.6302729528536 L 609.9303135888501 312.0099255583126 L 611.6724738675958 311.11662531017373 L 613.4146341463415 311.86104218362277 L 615.1567944250871 312.9032258064516 L 616.8989547038327 315.4342431761787 L 618.6411149825784 314.8387096774194 L 620.3832752613241 321.8362282878412 L 622.1254355400697 328.53598014888337 L 623.8675958188153 337.32009925558316 L 625.609756097561 331.51364764267987 L 627.3519163763067 329.87593052109185 L 629.0940766550523 327.6426799007444 L 630.8362369337979 327.94044665012404 L 632.5783972125436 328.2382133995037 L 634.3205574912893 327.04714640198506 L 636.0627177700349 331.36476426799004 L 637.8048780487804 334.6401985111662 L 639.5470383275261 342.9776674937965 L 641.2891986062718 345.80645161290323 L 643.0313588850174 352.5062034739454 L 644.773519163763 352.2084367245658 L 646.5156794425087 354.2928039702233 L 648.2578397212544 352.80397022332505 L 650 352.80397022332505 L 650 400 Z" /><text  class="poloto_labels poloto_text poloto_title" alignment-baseline="start" text-anchor="middle" font-size="x-large" x="400" y="37.5" >Total players on 2021-08-20</text><text  class="poloto_labels poloto_text poloto_xname" alignment-baseline="start" text-anchor="middle" font-size="x-large" x="400" y="481.25" >Time</text><text  class="poloto_labels poloto_text poloto_yname" alignment-baseline="start" text-anchor="middle" font-size="x-large" transform="rotate(-90,37.5,250)" x="37.5" y="250" >Count</text><line  class="poloto_axis_lines" stroke="black" x1="150" x2="150" y1="400" y2="405" /><text  class="poloto_tick_labels poloto_text" alignment-baseline="start" text-anchor="middle" x="150" y="430" > 00:00:00</text><line  class="poloto_axis_lines" stroke="black" x1="266.14401858304296" x2="266.14401858304296" y1="400" y2="405" /><text  class="poloto_tick_labels poloto_text" alignment-baseline="start" text-anchor="middle" x="266.14401858304296" y="430" > 05:33:20</text><line  class="poloto_axis_lines" stroke="black" x1="382.2880371660859" x2="382.2880371660859" y1="400" y2="405" /><text  class="poloto_tick_labels poloto_text" alignment-baseline="start" text-anchor="middle" x="382.2880371660859" y="430" > 11:06:40</text><line  class="poloto_axis_lines" stroke="black" x1="498.4320557491289" x2="498.4320557491289" y1="400" y2="405" /><text  class="poloto_tick_labels poloto_text" alignment-baseline="start" text-anchor="middle" x="498.4320557491289" y="430" > 16:40:00</text><line  class="poloto_axis_lines" stroke="black" x1="614.5760743321719" x2="614.5760743321719" y1="400" y2="405" /><text  class="poloto_tick_labels poloto_text" alignment-baseline="start" text-anchor="middle" x="614.5760743321719" y="430" > 22:13:20</text><line  class="poloto_axis_lines" stroke="black" x1="150" x2="144" y1="368.1389578163772" y2="368.1389578163772" /><text  class="poloto_tick_labels poloto_text" alignment-baseline="middle" text-anchor="end" x="135" y="368.1389578163772" > 1500</text><line  class="poloto_axis_lines" stroke="black" x1="150" x2="144" y1="293.697270471464" y2="293.697270471464" /><text  class="poloto_tick_labels poloto_text" alignment-baseline="middle" text-anchor="end" x="135" y="293.697270471464" > 2000</text><line  class="poloto_axis_lines" stroke="black" x1="150" x2="144" y1="219.25558312655085" y2="219.25558312655085" /><text  class="poloto_tick_labels poloto_text" alignment-baseline="middle" text-anchor="end" x="135" y="219.25558312655085" > 2500</text><line  class="poloto_axis_lines" stroke="black" x1="150" x2="144" y1="144.81389578163774" y2="144.81389578163774" /><text  class="poloto_tick_labels poloto_text" alignment-baseline="middle" text-anchor="end" x="135" y="144.81389578163774" > 3000</text><path  stroke="black" fill="none" class="poloto_axis_lines" style="stroke-dasharray:14.518002322880372;stroke-dashoffset:-0;" d=" M 150 400 L 650 400" /><path  stroke="black" fill="none" class="poloto_axis_lines" style="stroke-dasharray:7.444168734491315;stroke-dashoffset:-31.86104218362283;" d=" M 150 400 L 150 100" /></svg>