<svg class="poloto" width="800" height="500" viewBox="0 0 800 500" xmlns="http://www.w3.org/2000/svg"><style>.poloto { stroke-linecap:round; stroke-linejoin:round; font-family: 'Tahoma', sans-serif; background-color: AliceBlue;} .poloto_scatter{stroke-width:7} .poloto_line{stroke-width:2} .poloto_text{fill: black;} .poloto_axis_lines{stroke: black;stroke-width:3;fill:none;stroke-dasharray:none} .poloto0stroke{stroke:  blue;} .poloto1stroke{stroke:  red;} .poloto2stroke{stroke:  green;} .poloto3stroke{stroke:  gold;} .poloto4stroke{stroke:  aqua;} .poloto5stroke{stroke:  lime;} .poloto6stroke{stroke:  orange;} .poloto7stroke{stroke:  chocolate;} .poloto0fill{fill:blue;} .poloto1fill{fill:red;} .poloto2fill{fill:green;} .poloto3fill{fill:gold;} .poloto4fill{fill:aqua;} .poloto5fill{fill:lime;} .poloto6fill{fill:orange;} .poloto7fill{fill:chocolate;}</style><text  class="poloto_text poloto_legend_text" alignment-baseline="middle" text-anchor="start" font-size="large" x="675" y="100" ></text><path  class="poloto_linefill poloto0fill" d=" M 150 400 L 150 343.304347826087 L 151.74216027874564 349.3913043478261 L 153.4843205574913 349.5652173913044 L 155.22648083623693 349.5652173913044 L 156.96864111498257 348.8695652173913 L 158.71080139372822 354.4347826086956 L 160.45296167247386 358.0869565217391 L 162.1951219512195 356.52173913043475 L 163.93728222996515 356.17391304347825 L 165.6794425087108 361.2173913043478 L 167.42160278745644 362.6086956521739 L 169.16376306620208 363.304347826087 L 170.90592334494772 366.6086956521739 L 172.64808362369337 367.304347826087 L 174.390243902439 361.04347826086956 L 176.13240418118465 364.3478260869565 L 177.8745644599303 364.8695652173913 L 179.61672473867597 370.6086956521739 L 181.3588850174216 364.52173913043475 L 183.10104529616726 362.7826086956522 L 184.8432055749129 370.2608695652174 L 186.58536585365854 371.82608695652175 L 188.3275261324042 376.3478260869565 L 190.06968641114983 375.304347826087 L 191.81184668989548 373.3913043478261 L 193.55400696864112 378.4347826086956 L 195.29616724738676 371.304347826087 L 197.0383275261324 361.7391304347826 L 198.78048780487805 367.82608695652175 L 200.5226480836237 366.6086956521739 L 202.26480836236934 361.04347826086956 L 204.00696864111498 362.6086956521739 L 205.74912891986062 360.52173913043475 L 207.49128919860627 357.3913043478261 L 209.2334494773519 353.7391304347826 L 210.97560975609755 349.9130434782609 L 212.7177700348432 350.0869565217391 L 214.45993031358887 352.17391304347825 L 216.2020905923345 348 L 217.94425087108016 349.2173913043478 L 219.6864111498258 346.2608695652174 L 221.42857142857144 341.9130434782609 L 223.1707317073171 333.9130434782609 L 224.91289198606273 332.3478260869565 L 226.65505226480838 328.3478260869565 L 228.39721254355402 323.13043478260875 L 230.13937282229966 321.9130434782609 L 231.8815331010453 325.9130434782609 L 233.62369337979095 329.3913043478261 L 235.3658536585366 324.52173913043475 L 237.10801393728224 319.6521739130435 L 238.85017421602788 322.2608695652174 L 240.59233449477352 322.2608695652174 L 242.33449477351917 330.7826086956522 L 244.0766550522648 323.6521739130435 L 245.81881533101046 323.82608695652175 L 247.5609756097561 328.86956521739125 L 249.30313588850174 330.7826086956522 L 251.0452961672474 326.4347826086956 L 252.78745644599303 334.6086956521739 L 254.52961672473867 331.1304347826087 L 256.2717770034843 331.1304347826087 L 258.01393728222996 333.2173913043478 L 259.7560975609756 330.6086956521739 L 261.49825783972125 328.17391304347825 L 263.2404181184669 326.9565217391304 L 264.98257839721254 328.86956521739125 L 266.7247386759582 321.21739130434787 L 268.4668989547038 319.13043478260875 L 270.20905923344947 315.82608695652175 L 271.9512195121951 310.0869565217391 L 273.69337979094075 321.3913043478261 L 275.4355400696864 311.6521739130435 L 277.17770034843204 305.9130434782609 L 278.91986062717774 308.3478260869565 L 280.6620209059233 296.695652173913 L 282.404181184669 293.3913043478261 L 284.1463414634146 296.695652173913 L 285.8885017421603 287.82608695652175 L 287.6306620209059 286.0869565217391 L 289.3728222996516 288.52173913043475 L 291.1149825783972 281.0434782608696 L 292.8571428571429 278.78260869565213 L 294.5993031358885 269.21739130434787 L 296.3414634146342 264.3478260869565 L 298.08362369337976 277.7391304347826 L 299.82578397212546 272.3478260869565 L 301.56794425087105 270.2608695652174 L 303.31010452961675 270.6086956521739 L 305.05226480836234 270.4347826086956 L 306.79442508710804 267.82608695652175 L 308.5365853658536 267.13043478260875 L 310.2787456445993 259.47826086956525 L 312.0209059233449 254.08695652173915 L 313.7630662020906 247.47826086956522 L 315.5052264808362 244.17391304347828 L 317.2473867595819 241.7391304347826 L 318.9895470383275 252.52173913043478 L 320.7317073170732 243.65217391304347 L 322.4738675958188 244.17391304347828 L 324.2160278745645 240.34782608695653 L 325.9581881533101 242.6086956521739 L 327.70034843205576 240.86956521739128 L 329.4425087108014 253.7391304347826 L 331.18466898954705 249.7391304347826 L 332.9268292682927 238.43478260869566 L 334.66898954703834 228.86956521739128 L 336.411149825784 228.00000000000003 L 338.1533101045296 225.21739130434784 L 339.89547038327527 226.08695652173915 L 341.6376306620209 235.30434782608697 L 343.37979094076655 235.13043478260872 L 345.1219512195122 238.95652173913047 L 346.86411149825784 233.0434782608696 L 348.6062717770035 232.69565217391303 L 350.34843205574913 226.6086956521739 L 352.0905923344948 231.82608695652172 L 353.8327526132404 229.21739130434784 L 355.57491289198606 228.86956521739128 L 357.3170731707317 220.17391304347828 L 359.05923344947735 215.82608695652172 L 360.801393728223 218.78260869565216 L 362.54355400696863 213.0434782608696 L 364.2857142857143 217.3913043478261 L 366.0278745644599 216.69565217391303 L 367.77003484320556 221.21739130434784 L 369.5121951219512 221.3913043478261 L 371.25435540069685 218.95652173913047 L 372.9965156794425 208.69565217391303 L 374.73867595818814 219.82608695652172 L 376.4808362369338 201.91304347826085 L 378.2229965156795 201.21739130434784 L 379.96515679442507 197.3913043478261 L 381.70731707317077 193.91304347826085 L 383.44947735191636 192.69565217391303 L 385.19163763066206 188.17391304347828 L 386.93379790940764 181.21739130434784 L 388.67595818815334 177.9130434782609 L 390.41811846689893 179.65217391304347 L 392.16027874564463 177.9130434782609 L 393.9024390243902 182.78260869565216 L 395.6445993031359 174.78260869565216 L 397.3867595818815 175.30434782608697 L 399.1289198606272 168.86956521739128 L 400.8710801393728 173.21739130434784 L 402.6132404181185 170.43478260869566 L 404.3554006968641 171.30434782608697 L 406.0975609756098 168.00000000000003 L 407.8397212543554 167.65217391304347 L 409.58188153310107 179.30434782608697 L 411.3240418118467 166.95652173913047 L 413.06620209059236 175.30434782608697 L 414.808362369338 163.82608695652172 L 416.55052264808364 153.7391304347826 L 418.2926829268293 149.21739130434784 L 420.03484320557493 146.08695652173915 L 421.7770034843206 148.17391304347828 L 423.5191637630662 164.52173913043478 L 425.26132404181186 152.52173913043478 L 427.0034843205575 158.6086956521739 L 428.74564459930315 149.7391304347826 L 430.4878048780488 128.17391304347825 L 432.22996515679444 127.47826086956525 L 433.9721254355401 136.17391304347825 L 435.7142857142857 128.3478260869565 L 437.45644599303137 123.47826086956525 L 439.198606271777 108.17391304347825 L 440.94076655052265 111.6521739130435 L 442.6829268292683 108.17391304347825 L 444.42508710801394 112.695652173913 L 446.1672473867596 105.21739130434787 L 447.9094076655052 108.17391304347825 L 449.65156794425087 103.6521739130435 L 451.3937282229965 100 L 453.13588850174216 101.21739130434787 L 454.8780487804878 114.9565217391305 L 456.62020905923345 107.304347826087 L 458.3623693379791 104 L 460.10452961672473 118.9565217391305 L 461.8466898954704 110.60869565217388 L 463.588850174216 107.304347826087 L 465.33101045296166 101.73913043478262 L 467.0731707317073 109.04347826086962 L 468.81533101045295 112.86956521739125 L 470.5574912891986 128.17391304347825 L 472.29965156794424 129.91304347826087 L 474.0418118466899 124.52173913043475 L 475.7839721254355 133.91304347826087 L 477.52613240418117 132.17391304347825 L 479.2682926829268 146.2608695652174 L 481.01045296167246 145.9130434782609 L 482.7526132404181 159.13043478260872 L 484.49477351916374 161.9130434782609 L 486.2369337979094 166.6086956521739 L 487.97909407665503 165.21739130434784 L 489.7212543554007 175.47826086956522 L 491.4634146341463 182.2608695652174 L 493.20557491289196 197.7391304347826 L 494.9477351916376 194.2608695652174 L 496.68989547038325 197.7391304347826 L 498.4320557491289 196.69565217391303 L 500.17421602787454 191.82608695652172 L 501.91637630662024 204.69565217391303 L 503.6585365853659 200.86956521739128 L 505.4006968641115 205.3913043478261 L 507.14285714285717 221.56521739130434 L 508.8850174216028 204.86956521739128 L 510.62717770034845 209.56521739130434 L 512.3693379790941 207.13043478260872 L 514.1114982578397 209.21739130434784 L 515.8536585365854 214.43478260869566 L 517.5958188153311 207.47826086956522 L 519.3379790940767 219.13043478260872 L 521.0801393728223 236.86956521739128 L 522.822299651568 228.52173913043478 L 524.5644599303137 229.0434782608696 L 526.3066202090592 232.17391304347828 L 528.0487804878048 234.08695652173915 L 529.7909407665505 246.2608695652174 L 531.5331010452962 252.34782608695653 L 533.2752613240418 249.3913043478261 L 535.0174216027874 248.86956521739128 L 536.7595818815331 253.21739130434784 L 538.5017421602788 263.82608695652175 L 540.2439024390244 255.30434782608697 L 541.98606271777 269.0434782608696 L 543.7282229965157 259.6521739130435 L 545.4703832752614 258.2608695652174 L 547.212543554007 258.2608695652174 L 548.9547038327526 257.7391304347826 L 550.6968641114983 253.7391304347826 L 552.439024390244 257.9130434782609 L 554.1811846689895 261.21739130434787 L 555.9233449477351 255.13043478260872 L 557.6655052264808 265.9130434782609 L 559.4076655052265 270.9565217391305 L 561.1498257839721 269.7391304347826 L 562.8919860627177 263.13043478260875 L 564.6341463414634 260.3478260869565 L 566.3763066202091 267.6521739130435 L 568.1184668989547 262.2608695652174 L 569.8606271777003 261.7391304347826 L 571.602787456446 265.7391304347826 L 573.3449477351917 275.13043478260875 L 575.0871080139373 270.6086956521739 L 576.8292682926829 269.9130434782609 L 578.5714285714286 282.4347826086956 L 580.3135888501743 283.82608695652175 L 582.0557491289198 286.6086956521739 L 583.7979094076654 284 L 585.5400696864111 288.52173913043475 L 587.2822299651568 296.3478260869565 L 589.0243902439024 298.4347826086956 L 590.766550522648 309.7391304347826 L 592.5087108013937 304.86956521739125 L 594.2508710801394 303.6521739130435 L 595.993031358885 303.13043478260875 L 597.7351916376306 300.52173913043475 L 599.4773519163763 306.6086956521739 L 601.219512195122 311.82608695652175 L 602.9616724738676 322.4347826086956 L 604.7038327526133 322.2608695652174 L 606.445993031359 324.86956521739125 L 608.1881533101046 325.7391304347826 L 609.9303135888501 336.52173913043475 L 611.6724738675958 338.6086956521739 L 613.4146341463415 338.95652173913044 L 615.1567944250871 337.7391304347826 L 616.8989547038327 341.2173913043478 L 618.6411149825784 349.3913043478261 L 620.3832752613241 356 L 622.1254355400697 355.304347826087 L 623.8675958188153 362.6086956521739 L 625.609756097561 362.2608695652174 L 627.3519163763067 365.3913043478261 L 629.0940766550523 368.17391304347825 L 630.8362369337979 375.47826086956525 L 632.5783972125436 380.695652173913 L 634.3205574912893 376.695652173913 L 636.0627177700349 373.9130434782609 L 637.8048780487804 377.5652173913044 L 639.5470383275261 377.3913043478261 L 641.2891986062718 377.3913043478261 L 643.0313588850174 378.0869565217391 L 644.773519163763 382.95652173913044 L 646.5156794425087 383.47826086956525 L 648.2578397212544 390.4347826086956 L 650 400 L 650 400 Z" /><text  class="poloto_labels poloto_text poloto_title" alignment-baseline="start" text-anchor="middle" font-size="x-large" x="400" y="37.5" >Total players on 2021-11-07</text><text  class="poloto_labels poloto_text poloto_xname" alignment-baseline="start" text-anchor="middle" font-size="x-large" x="400" y="481.25" >Time</text><text  class="poloto_labels poloto_text poloto_yname" alignment-baseline="start" text-anchor="middle" font-size="x-large" transform="rotate(-90,37.5,250)" x="37.5" y="250" >Count</text><line  class="poloto_axis_lines" stroke="black" x1="150" x2="150" y1="400" y2="405" /><text  class="poloto_tick_labels poloto_text" alignment-baseline="start" text-anchor="middle" x="150" y="430" > 00:00:00</text><line  class="poloto_axis_lines" stroke="black" x1="266.14401858304296" x2="266.14401858304296" y1="400" y2="405" /><text  class="poloto_tick_labels poloto_text" alignment-baseline="start" text-anchor="middle" x="266.14401858304296" y="430" > 05:33:20</text><line  class="poloto_axis_lines" stroke="black" x1="382.2880371660859" x2="382.2880371660859" y1="400" y2="405" /><text  class="poloto_tick_labels poloto_text" alignment-baseline="start" text-anchor="middle" x="382.2880371660859" y="430" > 11:06:40</text><line  class="poloto_axis_lines" stroke="black" x1="498.4320557491289" x2="498.4320557491289" y1="400" y2="405" /><text  class="poloto_tick_labels poloto_text" alignment-baseline="start" text-anchor="middle" x="498.4320557491289" y="430" > 16:40:00</text><line  class="poloto_axis_lines" stroke="black" x1="614.5760743321719" x2="614.5760743321719" y1="400" y2="405" /><text  class="poloto_tick_labels poloto_text" alignment-baseline="start" text-anchor="middle" x="614.5760743321719" y="430" > 22:13:20</text><line  class="poloto_axis_lines" stroke="black" x1="150" x2="144" y1="325.7391304347826" y2="325.7391304347826" /><text  class="poloto_tick_labels poloto_text" alignment-baseline="middle" text-anchor="end" x="135" y="325.7391304347826" > 1500</text><line  class="poloto_axis_lines" stroke="black" x1="150" x2="144" y1="238.78260869565213" y2="238.78260869565213" /><text  class="poloto_tick_labels poloto_text" alignment-baseline="middle" text-anchor="end" x="135" y="238.78260869565213" > 2000</text><line  class="poloto_axis_lines" stroke="black" x1="150" x2="144" y1="151.82608695652172" y2="151.82608695652172" /><text  class="poloto_tick_labels poloto_text" alignment-baseline="middle" text-anchor="end" x="135" y="151.82608695652172" > 2500</text><path  stroke="black" fill="none" class="poloto_axis_lines" style="stroke-dasharray:14.518002322880372;stroke-dashoffset:-0;" d=" M 150 400 L 650 400" /><path  stroke="black" fill="none" class="poloto_axis_lines" style="stroke-dasharray:8.695652173913043;stroke-dashoffset:-74.2608695652174;" d=" M 150 400 L 150 100" /></svg>