<svg class="poloto" width="800" height="500" viewBox="0 0 800 500" xmlns="http://www.w3.org/2000/svg"><style>.poloto { stroke-linecap:round; stroke-linejoin:round; font-family: 'Tahoma', sans-serif; background-color: AliceBlue;} .poloto_scatter{stroke-width:7} .poloto_line{stroke-width:2} .poloto_text{fill: black;} .poloto_axis_lines{stroke: black;stroke-width:3;fill:none;stroke-dasharray:none} .poloto0stroke{stroke:  blue;} .poloto1stroke{stroke:  red;} .poloto2stroke{stroke:  green;} .poloto3stroke{stroke:  gold;} .poloto4stroke{stroke:  aqua;} .poloto5stroke{stroke:  lime;} .poloto6stroke{stroke:  orange;} .poloto7stroke{stroke:  chocolate;} .poloto0fill{fill:blue;} .poloto1fill{fill:red;} .poloto2fill{fill:green;} .poloto3fill{fill:gold;} .poloto4fill{fill:aqua;} .poloto5fill{fill:lime;} .poloto6fill{fill:orange;} .poloto7fill{fill:chocolate;}</style><text  class="poloto_text poloto_legend_text" alignment-baseline="middle" text-anchor="start" font-size="large" x="675" y="100" ></text><path  class="poloto_linefill poloto0fill" d=" M 150 400 L 150 320.92651757188503 L 151.74216027874564 330.03194888178916 L 153.4843205574913 340.09584664536743 L 155.22648083623693 337.8594249201278 L 156.96864111498257 341.21405750798726 L 158.71080139372822 346.80511182108626 L 160.45296167247386 346.1661341853035 L 162.1951219512195 357.0287539936102 L 163.93728222996515 351.91693290734827 L 165.6794425087108 355.43130990415335 L 167.42160278745644 359.7444089456869 L 169.16376306620208 359.58466453674123 L 170.90592334494772 362.4600638977636 L 172.64808362369337 369.00958466453676 L 174.390243902439 368.2108626198083 L 176.13240418118465 368.84984025559106 L 177.8745644599303 374.2811501597444 L 179.61672473867597 380.03194888178916 L 181.3588850174216 381.15015974440894 L 183.10104529616726 380.5111821086262 L 184.8432055749129 380.5111821086262 L 186.58536585365854 378.594249201278 L 188.3275261324042 379.39297124600637 L 190.06968641114983 385.62300319488816 L 191.81184668989548 385.46325878594246 L 193.55400696864112 389.1373801916933 L 195.29616724738676 389.77635782747603 L 197.0383275261324 384.8242811501598 L 198.78048780487805 388.8178913738019 L 200.5226480836237 386.9009584664537 L 202.26480836236934 391.69329073482425 L 204.00696864111498 400 L 205.74912891986062 392.17252396166134 L 207.49128919860627 391.21405750798726 L 209.2334494773519 389.297124600639 L 210.97560975609755 381.62939297124603 L 212.7177700348432 381.30990415335464 L 214.45993031358887 384.6645367412141 L 216.2020905923345 384.5047923322684 L 217.94425087108016 382.1086261980831 L 219.6864111498258 382.9073482428115 L 221.42857142857144 382.7476038338658 L 223.1707317073171 383.3865814696486 L 224.91289198606273 383.3865814696486 L 226.65505226480838 384.6645367412141 L 228.39721254355402 384.5047923322684 L 230.13937282229966 382.7476038338658 L 231.8815331010453 382.1086261980831 L 233.62369337979095 382.5878594249201 L 235.3658536585366 376.3578274760383 L 237.10801393728224 371.405750798722 L 238.85017421602788 376.8370607028754 L 240.59233449477352 374.92012779552715 L 242.33449477351917 380.35143769968056 L 244.0766550522648 377.1565495207668 L 245.81881533101046 379.23322683706067 L 247.5609756097561 377.1565495207668 L 249.30313588850174 376.9968051118211 L 251.0452961672474 373.9616613418531 L 252.78745644599303 375.39936102236425 L 254.52961672473867 372.68370607028754 L 256.2717770034843 367.8913738019169 L 258.01393728222996 371.08626198083067 L 259.7560975609756 371.7252396166134 L 261.49825783972125 371.405750798722 L 263.2404181184669 370.12779552715654 L 264.98257839721254 370.28753993610223 L 266.7247386759582 370.92651757188503 L 268.4668989547038 372.2044728434505 L 270.20905923344947 375.7188498402556 L 271.9512195121951 374.76038338658145 L 273.69337979094075 370.60702875399363 L 275.4355400696864 371.24600638977637 L 277.17770034843204 368.84984025559106 L 278.9198606271777 368.0511182108626 L 280.6620209059233 366.61341853035145 L 282.40418118466897 368.37060702875397 L 284.1463414634146 365.0159744408946 L 285.88850174216026 352.23642172523967 L 287.6306620209059 357.1884984025559 L 289.37282229965155 347.7635782747604 L 291.1149825783972 348.7220447284345 L 292.85714285714283 349.20127795527156 L 294.5993031358885 353.8338658146965 L 296.3414634146342 352.07667731629397 L 298.08362369337976 350.1597444089457 L 299.82578397212546 351.1182108626198 L 301.56794425087105 352.71565495207665 L 303.31010452961675 353.8338658146965 L 305.05226480836234 365.9744408945687 L 306.79442508710804 350.1597444089457 L 308.5365853658536 350 L 310.2787456445993 356.5495207667732 L 312.0209059233449 353.51437699680514 L 313.7630662020906 351.2779552715655 L 315.5052264808362 355.75079872204475 L 317.2473867595819 353.67412140575084 L 318.9895470383275 352.87539936102235 L 320.7317073170732 353.8338658146965 L 322.4738675958188 351.2779552715655 L 324.2160278745645 348.24281150159743 L 325.95818815331006 346.48562300319486 L 327.70034843205576 344.888178913738 L 329.44250871080135 341.85303514376994 L 331.18466898954705 339.4568690095847 L 332.92682926829264 340.73482428115017 L 334.66898954703834 340.41533546325877 L 336.4111498257839 338.1789137380192 L 338.1533101045296 338.1789137380192 L 339.8954703832752 336.9009584664537 L 341.6376306620209 336.9009584664537 L 343.3797909407665 331.78913738019173 L 345.1219512195122 329.55271565495207 L 346.86411149825784 328.91373801916933 L 348.6062717770035 320.76677316293933 L 350.34843205574913 319.32907348242816 L 352.0905923344948 317.0926517571885 L 353.8327526132404 310.8626198083067 L 355.57491289198606 307.50798722044726 L 357.3170731707317 305.9105431309904 L 359.05923344947735 299.6805111821086 L 360.801393728223 294.5686900958467 L 362.54355400696863 293.2907348242811 L 364.2857142857143 290.73482428115017 L 366.0278745644599 281.46964856230034 L 367.77003484320556 282.10862619808313 L 369.5121951219512 281.94888178913743 L 371.25435540069685 279.23322683706067 L 372.9965156794425 277.1565495207668 L 374.73867595818814 274.60063897763575 L 376.4808362369338 273.482428115016 L 378.2229965156794 274.92012779552715 L 379.96515679442507 270.44728434504793 L 381.7073170731707 266.4536741214058 L 383.44947735191636 264.85623003194894 L 385.191637630662 257.82747603833866 L 386.93379790940764 253.5143769968051 L 388.6759581881533 245.52715654952075 L 390.41811846689893 250.31948881789137 L 392.1602787456446 254.47284345047925 L 393.9024390243902 248.24281150159746 L 395.6445993031359 245.04792332268372 L 397.3867595818815 241.53354632587863 L 399.1289198606272 235.62300319488818 L 400.8710801393728 240.5750798722045 L 402.6132404181185 236.42172523961662 L 404.3554006968641 232.42811501597444 L 406.0975609756097 227.3162939297125 L 407.83972125435537 219.80830670926517 L 409.581881533101 223.3226837060703 L 411.32404181184666 218.2108626198083 L 413.0662020905923 219.80830670926517 L 414.80836236933794 213.25878594249204 L 416.5505226480836 204.31309904153355 L 418.29268292682923 201.1182108626198 L 420.0348432055749 192.4920127795527 L 421.7770034843206 200.63897763578277 L 423.5191637630662 188.65814696485623 L 425.26132404181186 195.68690095846645 L 427.0034843205575 193.45047923322684 L 428.74564459930315 204.31309904153355 L 430.4878048780488 189.61661341853036 L 432.22996515679444 183.54632587859427 L 433.9721254355401 186.26198083067092 L 435.7142857142857 182.42811501597444 L 437.45644599303137 181.4696485623003 L 439.198606271777 177.1565495207668 L 440.94076655052265 186.10223642172528 L 442.6829268292683 183.86581469648561 L 444.42508710801394 174.76038338658148 L 446.1672473867596 165.81469648562305 L 447.9094076655052 170.7667731629393 L 449.65156794425087 163.25878594249204 L 451.3937282229965 150.79872204472846 L 453.13588850174216 146.16613418530355 L 454.8780487804878 153.19488817891377 L 456.62020905923345 144.08945686900958 L 458.3623693379791 146.00638977635785 L 460.10452961672473 134.82428115015978 L 461.8466898954704 138.8178913738019 L 463.588850174216 133.2268370607029 L 465.33101045296166 134.18530351437698 L 467.0731707317073 127.7955271565495 L 468.81533101045295 114.85623003194894 L 470.5574912891986 117.41214057507989 L 472.29965156794424 122.2044728434505 L 474.0418118466899 107.98722044728436 L 475.7839721254355 106.86900958466458 L 477.52613240418117 113.89776357827475 L 479.2682926829268 108.30670926517575 L 481.01045296167246 100.95846645367419 L 482.7526132404181 121.40575079872201 L 484.49477351916374 100.1597444089457 L 486.2369337979094 110.38338658146972 L 487.97909407665503 108.78594249201285 L 489.7212543554007 105.75079872204469 L 491.4634146341463 108.62619808306715 L 493.20557491289196 111.98083067092648 L 494.9477351916376 104.47284345047922 L 496.68989547038325 103.35463258785944 L 498.4320557491289 102.87539936102235 L 500.17421602787454 114.21725239616615 L 501.9163763066202 100 L 503.6585365853658 105.27156549520771 L 505.40069686411147 108.14696485623006 L 507.1428571428571 107.34824281150156 L 508.88501742160275 113.89776357827475 L 510.6271777003484 117.41214057507989 L 512.3693379790941 123.32268370607028 L 514.1114982578397 130.99041533546324 L 515.8536585365853 129.39297124600637 L 517.595818815331 145.04792332268372 L 519.3379790940767 143.7699680511182 L 521.0801393728223 128.9137380191694 L 522.822299651568 130.03194888178916 L 524.5644599303137 129.23322683706067 L 526.3066202090592 136.58146964856235 L 528.0487804878048 134.34504792332268 L 529.7909407665505 140.73482428115017 L 531.5331010452962 145.2076677316294 L 533.2752613240418 149.52076677316293 L 535.0174216027874 153.19488817891377 L 536.7595818815331 159.42492012779556 L 538.5017421602788 152.23642172523964 L 540.2439024390244 144.40894568690098 L 541.98606271777 145.68690095846645 L 543.7282229965157 150.47923322683707 L 545.4703832752614 145.68690095846645 L 547.212543554007 153.9936102236422 L 548.9547038327526 157.3482428115016 L 550.6968641114983 160.86261980830673 L 552.439024390244 164.6964856230032 L 554.1811846689895 165.9744408945687 L 555.9233449477351 167.73162939297126 L 557.6655052264808 174.12140575079874 L 559.4076655052265 176.35782747603835 L 561.1498257839721 176.67731629392975 L 562.8919860627177 178.27476038338662 L 564.6341463414634 189.61661341853036 L 566.3763066202091 193.61022364217254 L 568.1184668989547 197.44408945686902 L 569.8606271777003 193.76996805111824 L 571.602787456446 195.3674121405751 L 573.3449477351917 195.68690095846645 L 575.0871080139373 198.56230031948886 L 576.8292682926829 200.31948881789137 L 578.5714285714286 200.31948881789137 L 580.3135888501743 199.0415335463259 L 582.0557491289198 204.95207667731628 L 583.7979094076654 206.70926517571885 L 585.5400696864111 210.86261980830673 L 587.2822299651568 208.78594249201282 L 589.0243902439024 213.41853035143774 L 590.766550522648 218.2108626198083 L 592.5087108013937 214.5367412140575 L 594.2508710801394 216.45367412140578 L 595.993031358885 216.93290734824282 L 597.7351916376306 223.1629392971246 L 599.4773519163763 225.39936102236422 L 601.219512195122 224.76038338658148 L 602.9616724738676 224.12140575079874 L 604.7038327526132 227.47603833865819 L 606.4459930313589 221.88498402555913 L 608.1881533101046 225.71884984025561 L 609.9303135888501 233.22683706070288 L 611.6724738675957 242.9712460063898 L 613.4146341463414 245.04792332268372 L 615.1567944250871 239.93610223642176 L 616.8989547038327 240.0958466453674 L 618.6411149825783 246.3258785942492 L 620.383275261324 247.28434504792332 L 622.1254355400697 244.40894568690098 L 623.8675958188153 242.17252396166137 L 625.609756097561 240.4153354632588 L 627.3519163763067 238.0191693290735 L 629.0940766550523 244.72843450479232 L 630.8362369337979 245.3674121405751 L 632.5783972125436 254.95207667731628 L 634.3205574912893 264.37699680511184 L 636.0627177700349 274.76038338658145 L 637.8048780487804 275.55910543130994 L 639.5470383275261 284.5047923322684 L 641.2891986062718 290.0958466453674 L 643.0313588850174 300.1597444089457 L 644.773519163763 294.888178913738 L 646.5156794425087 290.73482428115017 L 648.2578397212544 291.05431309904156 L 650 293.4504792332268 L 650 400 Z" /><text  class="poloto_labels poloto_text poloto_title" alignment-baseline="start" text-anchor="middle" font-size="x-large" x="400" y="37.5" >Total players on 2021-06-04</text><text  class="poloto_labels poloto_text poloto_xname" alignment-baseline="start" text-anchor="middle" font-size="x-large" x="400" y="481.25" >Time</text><text  class="poloto_labels poloto_text poloto_yname" alignment-baseline="start" text-anchor="middle" font-size="x-large" transform="rotate(-90,37.5,250)" x="37.5" y="250" >Count</text><line  class="poloto_axis_lines" stroke="black" x1="208.0487804878049" x2="208.0487804878049" y1="400" y2="405" /><text  class="poloto_tick_labels poloto_text" alignment-baseline="start" text-anchor="middle" x="208.0487804878049" y="430" > 03:00</text><line  class="poloto_axis_lines" stroke="black" x1="266.1207897793264" x2="266.1207897793264" y1="400" y2="405" /><text  class="poloto_tick_labels poloto_text" alignment-baseline="start" text-anchor="middle" x="266.1207897793264" y="430" > 06:00</text><line  class="poloto_axis_lines" stroke="black" x1="324.19279907084785" x2="324.19279907084785" y1="400" y2="405" /><text  class="poloto_tick_labels poloto_text" alignment-baseline="start" text-anchor="middle" x="324.19279907084785" y="430" > 08:00</text><line  class="poloto_axis_lines" stroke="black" x1="382.2648083623693" x2="382.2648083623693" y1="400" y2="405" /><text  class="poloto_tick_labels poloto_text" alignment-baseline="start" text-anchor="middle" x="382.2648083623693" y="430" > 11:00</text><line  class="poloto_axis_lines" stroke="black" x1="440.3368176538908" x2="440.3368176538908" y1="400" y2="405" /><text  class="poloto_tick_labels poloto_text" alignment-baseline="start" text-anchor="middle" x="440.3368176538908" y="430" > 14:00</text><line  class="poloto_axis_lines" stroke="black" x1="498.4088269454123" x2="498.4088269454123" y1="400" y2="405" /><text  class="poloto_tick_labels poloto_text" alignment-baseline="start" text-anchor="middle" x="498.4088269454123" y="430" > 17:00</text><line  class="poloto_axis_lines" stroke="black" x1="556.4808362369338" x2="556.4808362369338" y1="400" y2="405" /><text  class="poloto_tick_labels poloto_text" alignment-baseline="start" text-anchor="middle" x="556.4808362369338" y="430" > 19:00</text><line  class="poloto_axis_lines" stroke="black" x1="614.5528455284552" x2="614.5528455284552" y1="400" y2="405" /><text  class="poloto_tick_labels poloto_text" alignment-baseline="start" text-anchor="middle" x="614.5528455284552" y="430" > 22:00</text><line  class="poloto_axis_lines" stroke="black" x1="150" x2="144" y1="393.7699680511182" y2="393.7699680511182" /><text  class="poloto_tick_labels poloto_text" alignment-baseline="middle" text-anchor="end" x="135" y="393.7699680511182" > 1000</text><line  class="poloto_axis_lines" stroke="black" x1="150" x2="144" y1="313.89776357827475" y2="313.89776357827475" /><text  class="poloto_tick_labels poloto_text" alignment-baseline="middle" text-anchor="end" x="135" y="313.89776357827475" > 1500</text><line  class="poloto_axis_lines" stroke="black" x1="150" x2="144" y1="234.02555910543128" y2="234.02555910543128" /><text  class="poloto_tick_labels poloto_text" alignment-baseline="middle" text-anchor="end" x="135" y="234.02555910543128" > 2000</text><line  class="poloto_axis_lines" stroke="black" x1="150" x2="144" y1="154.15335463258785" y2="154.15335463258785" /><text  class="poloto_tick_labels poloto_text" alignment-baseline="middle" text-anchor="end" x="135" y="154.15335463258785" > 2500</text><path  stroke="black" fill="none" class="poloto_axis_lines" style="stroke-dasharray:14.518002322880372;stroke-dashoffset:-58.04878048780488;" d=" M 150 400 L 650 400" /><path  stroke="black" fill="none" class="poloto_axis_lines" style="stroke-dasharray:7.987220447284345;stroke-dashoffset:-6.230031948881788;" d=" M 150 400 L 150 100" /></svg>