<svg class="poloto" width="800" height="500" viewBox="0 0 800 500" xmlns="http://www.w3.org/2000/svg"><style>.poloto { stroke-linecap:round; stroke-linejoin:round; font-family: 'Tahoma', sans-serif; background-color: AliceBlue;} .poloto_scatter{stroke-width:7} .poloto_line{stroke-width:2} .poloto_text{fill: black;} .poloto_axis_lines{stroke: black;stroke-width:3;fill:none;stroke-dasharray:none} .poloto0stroke{stroke:  blue;} .poloto1stroke{stroke:  red;} .poloto2stroke{stroke:  green;} .poloto3stroke{stroke:  gold;} .poloto4stroke{stroke:  aqua;} .poloto5stroke{stroke:  lime;} .poloto6stroke{stroke:  orange;} .poloto7stroke{stroke:  chocolate;} .poloto0fill{fill:blue;} .poloto1fill{fill:red;} .poloto2fill{fill:green;} .poloto3fill{fill:gold;} .poloto4fill{fill:aqua;} .poloto5fill{fill:lime;} .poloto6fill{fill:orange;} .poloto7fill{fill:chocolate;}</style><text  class="poloto_text poloto_legend_text" alignment-baseline="middle" text-anchor="start" font-size="large" x="675" y="100" ></text><path  class="poloto_linefill poloto0fill" d=" M 150 400 L 150 373.3366434955313 L 151.74216027874564 381.6782522343595 L 153.4843205574913 382.57199602780537 L 155.22648083623693 381.82720953326714 L 156.96864111498257 383.76365441906654 L 158.71080139372822 382.12512413108243 L 160.45296167247386 386.29592850049653 L 162.1951219512195 395.38232373386296 L 163.93728222996515 398.0635551142006 L 165.6794425087108 397.61668321747766 L 167.42160278745644 399.7020854021847 L 169.16376306620208 399.7020854021847 L 170.90592334494772 398.3614697120159 L 172.64808362369337 394.04170804369414 L 174.390243902439 398.80834160873883 L 176.13240418118465 398.51042701092354 L 177.8745644599303 400 L 179.61672473867597 398.80834160873883 L 181.3588850174216 397.1698113207547 L 183.10104529616726 392.850049652433 L 184.8432055749129 394.63753723932473 L 186.58536585365854 397.0208540218471 L 188.3275261324042 396.7229394240318 L 190.06968641114983 395.5312810327706 L 191.81184668989548 392.40317775571003 L 193.55400696864112 397.31876861966236 L 195.29616724738676 396.4250248262165 L 197.0383275261324 390.46673286991063 L 198.78048780487805 383.46573982125125 L 200.5226480836237 376.46474677259187 L 202.26480836236934 380.0397219463754 L 204.00696864111498 376.6137040714995 L 205.74912891986062 375.42204568023834 L 207.49128919860627 373.78351539225423 L 209.2334494773519 375.8689175769613 L 210.97560975609755 370.35749751737836 L 212.7177700348432 372.88977159880835 L 214.45993031358887 373.6345580933466 L 216.2020905923345 372.7408142999007 L 217.94425087108016 373.9324726911619 L 219.6864111498258 370.35749751737836 L 221.42857142857144 371.4001986097319 L 223.1707317073171 368.71896722939425 L 224.91289198606273 366.78252234359485 L 226.65505226480838 363.0585898709037 L 228.39721254355402 361.1221449851043 L 230.13937282229966 359.03674280039723 L 231.8815331010453 348.16285998013905 L 233.62369337979095 341.3108242303873 L 235.3658536585366 343.39622641509436 L 237.10801393728224 339.67229394240314 L 238.85017421602788 334.4587884806356 L 240.59233449477352 330.1390268123138 L 242.33449477351917 329.6921549155909 L 244.0766550522648 327.01092353525326 L 245.81881533101046 320.1588877855015 L 247.5609756097561 321.4995034756703 L 249.30313588850174 320.4568023833168 L 251.0452961672474 318.52035749751735 L 252.78745644599303 316.583912611718 L 254.52961672473867 311.3704071499503 L 256.2717770034843 308.3912611717974 L 258.01393728222996 310.32770605759686 L 259.7560975609756 304.9652432969216 L 261.49825783972125 304.2204568023833 L 263.2404181184669 303.4756703078451 L 264.98257839721254 301.53922542204566 L 266.7247386759582 300.4965243296922 L 268.4668989547038 301.24131082423037 L 270.20905923344947 306.60377358490564 L 271.9512195121951 306.60377358490564 L 273.69337979094075 305.85898709036746 L 275.4355400696864 303.4756703078451 L 277.17770034843204 302.87984111221454 L 278.91986062717774 303.6246276067527 L 280.6620209059233 304.8162859980139 L 282.404181184669 301.98609731876866 L 284.1463414634146 296.4746772591857 L 285.8885017421603 297.07050645481627 L 287.6306620209059 293.79344587884805 L 289.3728222996516 293.34657398212516 L 291.1149825783972 290.6653426017875 L 292.8571428571429 289.62264150943395 L 294.5993031358885 282.025819265144 L 296.3414634146342 282.1747765640516 L 298.08362369337976 286.3455809334657 L 299.82578397212546 281.87686196623633 L 301.56794425087105 271.1519364448858 L 303.31010452961675 270.40714995034756 L 305.05226480836234 271.4498510427011 L 306.79442508710804 265.3426017874876 L 308.5365853658536 269.5134061569017 L 310.2787456445993 270.2581926514399 L 312.0209059233449 269.9602780536246 L 313.7630662020906 265.7894736842105 L 315.5052264808362 262.66137040714995 L 317.2473867595819 263.25719960278053 L 318.9895470383275 258.6395233366435 L 320.7317073170732 259.682224428997 L 322.4738675958188 259.3843098311817 L 324.2160278745645 256.1072492552135 L 325.9581881533101 256.7030784508441 L 327.70034843205576 252.83018867924528 L 329.4425087108014 250.59582919563059 L 331.18466898954705 242.10526315789474 L 332.9268292682927 241.50943396226415 L 334.66898954703834 249.10625620655412 L 336.411149825784 249.55312810327706 L 338.1533101045296 244.1906653426018 L 339.89547038327527 247.7656405163853 L 341.6376306620209 245.08440913604767 L 343.37979094076655 251.78748758689176 L 345.1219512195122 253.27706057596822 L 346.86411149825784 254.4687189672294 L 348.6062717770035 255.36246276067527 L 350.34843205574913 248.0635551142006 L 352.0905923344948 245.38232373386296 L 353.8327526132404 242.55213505461768 L 355.57491289198606 242.70109235352533 L 357.3170731707317 230.03972194637538 L 359.05923344947735 223.93247269116188 L 360.801393728223 223.48560079443894 L 362.54355400696863 220.506454816286 L 364.2857142857143 224.52830188679246 L 366.0278745644599 227.80536246276068 L 367.77003484320556 226.6137040714995 L 369.5121951219512 225.86891757696128 L 371.25435540069685 225.42204568023834 L 372.9965156794425 220.05958291956307 L 374.73867595818814 227.06057596822245 L 376.4808362369338 216.3356504468719 L 378.2229965156795 213.35650446871898 L 379.96515679442507 210.5263157894737 L 381.70731707317077 217.2293942403178 L 383.44947735191636 209.78152929493547 L 385.19163763066206 210.2284011916584 L 386.93379790940764 221.4001986097319 L 388.67595818815334 219.46375372393248 L 390.41811846689893 210.67527308838135 L 392.16027874564463 212.1648460774578 L 393.9024390243902 210.5263157894737 L 395.6445993031359 208.14299900695136 L 397.3867595818815 216.18669314796426 L 399.1289198606272 215.73982125124132 L 400.8710801393728 216.03773584905662 L 402.6132404181185 212.1648460774578 L 404.3554006968641 216.6335650446872 L 406.0975609756098 218.5700099304866 L 407.8397212543554 218.12313803376367 L 409.58188153310107 218.5700099304866 L 411.3240418118467 223.93247269116188 L 413.06620209059236 215.29294935451838 L 414.808362369338 225.86891757696128 L 416.55052264808364 209.48361469712017 L 418.2926829268293 210.67527308838135 L 420.03484320557493 197.7159880834161 L 421.7770034843206 194.28997020854024 L 423.5191637630662 188.18272095332674 L 425.26132404181186 199.9503475670308 L 427.0034843205575 201.5888778550149 L 428.74564459930315 179.99006951340618 L 430.4878048780488 172.6911618669315 L 432.22996515679444 168.07348560079447 L 433.9721254355401 171.64846077457798 L 435.7142857142857 168.96722939424035 L 437.45644599303137 158.6891757696127 L 439.198606271777 160.77457795431974 L 440.94076655052265 163.9026812313803 L 442.6829268292683 162.71102284011914 L 444.42508710801394 160.92353525322739 L 446.1672473867596 160.0297914597815 L 447.9094076655052 157.19960278053622 L 449.65156794425087 149.15590863952332 L 451.3937282229965 148.4111221449851 L 453.13588850174216 133.6643495531281 L 454.8780487804878 138.72889771598807 L 456.62020905923345 135.15392254220455 L 458.3623693379791 139.175769612711 L 460.10452961672473 134.26017874875868 L 461.8466898954704 134.55809334657397 L 463.588850174216 149.7517378351539 L 465.33101045296166 148.1132075471698 L 467.0731707317073 133.96226415094338 L 468.81533101045295 130.98311817279045 L 470.5574912891986 123.98212512413107 L 472.29965156794424 120.40714995034756 L 474.0418118466899 115.78947368421052 L 475.7839721254355 105.21350546176762 L 477.52613240418117 100 L 479.2682926829268 117.27904667328698 L 481.01045296167246 101.34061569016882 L 482.7526132404181 105.06454816285998 L 484.49477351916374 110.87388282025819 L 486.2369337979094 113.55511420059582 L 487.97909407665503 115.64051638530287 L 489.7212543554007 114.89572989076464 L 491.4634146341463 115.49155908639523 L 493.20557491289196 117.13008937437934 L 494.9477351916376 109.83118172790466 L 496.68989547038325 116.53426017874875 L 498.4320557491289 108.3416087388282 L 500.17421602787454 109.08639523336643 L 501.91637630662024 117.57696127110228 L 503.6585365853659 134.26017874875868 L 505.4006968641115 129.94041708043693 L 507.14285714285717 125.91857000993048 L 508.8850174216028 130.53624627606752 L 510.62717770034845 133.6643495531281 L 512.3693379790941 136.49453823237337 L 514.1114982578397 135.45183714001985 L 515.8536585365854 137.09036742800396 L 517.5958188153311 138.13306852035748 L 519.3379790940767 138.13306852035748 L 521.0801393728223 142.0059582919563 L 522.822299651568 152.13505461767625 L 524.5644599303137 157.49751737835152 L 526.3066202090592 163.45580933465737 L 528.0487804878048 175.96822244289973 L 529.7909407665505 175.5213505461768 L 531.5331010452962 174.77656405163856 L 533.2752613240418 179.0963257199603 L 535.0174216027874 185.05461767626616 L 536.7595818815331 192.05561072492554 L 538.5017421602788 189.9702085402185 L 540.2439024390244 193.8430983118173 L 541.98606271777 191.45978152929496 L 543.7282229965157 196.97120158887788 L 545.4703832752614 201.14200595829197 L 547.212543554007 210.2284011916584 L 548.9547038327526 207.54716981132077 L 550.6968641114983 217.52730883813308 L 552.439024390244 225.571002979146 L 554.1811846689895 226.01787487586893 L 555.9233449477351 232.42303872889772 L 557.6655052264808 239.1261171797418 L 559.4076655052265 235.253227408143 L 561.1498257839721 238.82820258192652 L 562.8919860627177 244.33962264150944 L 564.6341463414634 258.49056603773585 L 566.3763066202091 250 L 568.1184668989547 254.61767626613704 L 569.8606271777003 252.2343594836147 L 571.602787456446 255.8093346573982 L 573.3449477351917 251.48957298907646 L 575.0871080139373 250.14895729890765 L 576.8292682926829 254.91559086395233 L 578.5714285714286 250 L 580.3135888501743 254.4687189672294 L 582.0557491289198 256.55412115193644 L 583.7979094076654 254.31976166832175 L 585.5400696864111 254.1708043694141 L 587.2822299651568 255.8093346573982 L 589.0243902439024 264.00198609731876 L 590.766550522648 255.06454816285998 L 592.5087108013937 256.4051638530288 L 594.2508710801394 259.3843098311817 L 595.993031358885 262.66137040714995 L 597.7351916376306 262.5124131082423 L 599.4773519163763 260.8738828202582 L 601.219512195122 270.70506454816285 L 602.9616724738676 271.1519364448858 L 604.7038327526133 275.17378351539224 L 606.445993031359 282.4726911618669 L 608.1881533101046 287.2393247269116 L 609.9303135888501 279.7914597815293 L 611.6724738675958 292.3038728897716 L 613.4146341463415 305.85898709036746 L 615.1567944250871 297.81529294935456 L 616.8989547038327 302.58192651439924 L 618.6411149825784 302.73088381330683 L 620.3832752613241 306.75273088381334 L 622.1254355400697 312.5620655412115 L 623.8675958188153 316.8818272095333 L 625.609756097561 319.8609731876862 L 627.3519163763067 320.3078450844091 L 629.0940766550523 318.96722939424035 L 630.8362369337979 317.7755710029792 L 632.5783972125436 326.86196623634555 L 634.3205574912893 329.0963257199603 L 636.0627177700349 326.86196623634555 L 637.8048780487804 334.3098311817279 L 639.5470383275261 342.3535253227408 L 641.2891986062718 343.99205561072495 L 643.0313588850174 350.8440913604767 L 644.773519163763 352.03574975173785 L 646.5156794425087 361.4200595829196 L 648.2578397212544 362.90963257199604 L 650 363.20754716981133 L 650 400 Z" /><text  class="poloto_labels poloto_text poloto_title" alignment-baseline="start" text-anchor="middle" font-size="x-large" x="400" y="37.5" >Total players on 2021-10-04</text><text  class="poloto_labels poloto_text poloto_xname" alignment-baseline="start" text-anchor="middle" font-size="x-large" x="400" y="481.25" >Time</text><text  class="poloto_labels poloto_text poloto_yname" alignment-baseline="start" text-anchor="middle" font-size="x-large" transform="rotate(-90,37.5,250)" x="37.5" y="250" >Count</text><line  class="poloto_axis_lines" stroke="black" x1="150" x2="150" y1="400" y2="405" /><text  class="poloto_tick_labels poloto_text" alignment-baseline="start" text-anchor="middle" x="150" y="430" > 00:00:00</text><line  class="poloto_axis_lines" stroke="black" x1="266.14401858304296" x2="266.14401858304296" y1="400" y2="405" /><text  class="poloto_tick_labels poloto_text" alignment-baseline="start" text-anchor="middle" x="266.14401858304296" y="430" > 05:33:20</text><line  class="poloto_axis_lines" stroke="black" x1="382.2880371660859" x2="382.2880371660859" y1="400" y2="405" /><text  class="poloto_tick_labels poloto_text" alignment-baseline="start" text-anchor="middle" x="382.2880371660859" y="430" > 11:06:40</text><line  class="poloto_axis_lines" stroke="black" x1="498.4320557491289" x2="498.4320557491289" y1="400" y2="405" /><text  class="poloto_tick_labels poloto_text" alignment-baseline="start" text-anchor="middle" x="498.4320557491289" y="430" > 16:40:00</text><line  class="poloto_axis_lines" stroke="black" x1="614.5760743321719" x2="614.5760743321719" y1="400" y2="405" /><text  class="poloto_tick_labels poloto_text" alignment-baseline="start" text-anchor="middle" x="614.5760743321719" y="430" > 22:13:20</text><line  class="poloto_axis_lines" stroke="black" x1="150" x2="144" y1="325.6703078450844" y2="325.6703078450844" /><text  class="poloto_tick_labels poloto_text" alignment-baseline="middle" text-anchor="end" x="135" y="325.6703078450844" > 1500</text><line  class="poloto_axis_lines" stroke="black" x1="150" x2="144" y1="251.19165839126117" y2="251.19165839126117" /><text  class="poloto_tick_labels poloto_text" alignment-baseline="middle" text-anchor="end" x="135" y="251.19165839126117" > 2000</text><line  class="poloto_axis_lines" stroke="black" x1="150" x2="144" y1="176.71300893743796" y2="176.71300893743796" /><text  class="poloto_tick_labels poloto_text" alignment-baseline="middle" text-anchor="end" x="135" y="176.71300893743796" > 2500</text><line  class="poloto_axis_lines" stroke="black" x1="150" x2="144" y1="102.2343594836147" y2="102.2343594836147" /><text  class="poloto_tick_labels poloto_text" alignment-baseline="middle" text-anchor="end" x="135" y="102.2343594836147" > 3000</text><path  stroke="black" fill="none" class="poloto_axis_lines" style="stroke-dasharray:14.518002322880372;stroke-dashoffset:-0;" d=" M 150 400 L 650 400" /><path  stroke="black" fill="none" class="poloto_axis_lines" style="stroke-dasharray:7.447864945382324;stroke-dashoffset:-74.32969215491559;" d=" M 150 400 L 150 100" /></svg>