<svg class="poloto" width="800" height="500" viewBox="0 0 800 500" xmlns="http://www.w3.org/2000/svg"><style>.poloto { stroke-linecap:round; stroke-linejoin:round; font-family: 'Tahoma', sans-serif; background-color: AliceBlue;} .poloto_scatter{stroke-width:7} .poloto_line{stroke-width:2} .poloto_text{fill: black;} .poloto_axis_lines{stroke: black;stroke-width:3;fill:none;stroke-dasharray:none} .poloto0stroke{stroke:  blue;} .poloto1stroke{stroke:  red;} .poloto2stroke{stroke:  green;} .poloto3stroke{stroke:  gold;} .poloto4stroke{stroke:  aqua;} .poloto5stroke{stroke:  lime;} .poloto6stroke{stroke:  orange;} .poloto7stroke{stroke:  chocolate;} .poloto0fill{fill:blue;} .poloto1fill{fill:red;} .poloto2fill{fill:green;} .poloto3fill{fill:gold;} .poloto4fill{fill:aqua;} .poloto5fill{fill:lime;} .poloto6fill{fill:orange;} .poloto7fill{fill:chocolate;}</style><text  class="poloto_text poloto_legend_text" alignment-baseline="middle" text-anchor="start" font-size="large" x="675" y="100" ></text><path  class="poloto_linefill poloto0fill" d=" M 150 400 L 150 319.43855932203394 L 151.74216027874564 317.84957627118644 L 153.4843205574913 320.0741525423729 L 155.22648083623693 321.6631355932203 L 156.96864111498257 326.58898305084745 L 158.71080139372822 329.9258474576271 L 160.45296167247386 329.1313559322034 L 162.1951219512195 336.12288135593224 L 163.93728222996515 337.0762711864407 L 165.6794425087108 338.8241525423729 L 167.42160278745644 341.52542372881356 L 169.16376306620208 351.2182203389831 L 170.90592334494772 354.2372881355932 L 172.64808362369337 356.77966101694915 L 174.390243902439 356.4618644067797 L 176.13240418118465 358.20974576271186 L 177.8745644599303 364.5656779661017 L 179.61672473867597 364.24788135593224 L 181.3588850174216 362.97669491525426 L 183.10104529616726 362.18220338983053 L 184.8432055749129 362.81779661016947 L 186.58536585365854 358.0508474576271 L 188.3275261324042 365.20127118644064 L 190.06968641114983 368.22033898305085 L 191.81184668989548 371.71610169491527 L 193.55400696864112 369.65042372881356 L 195.29616724738676 368.6970338983051 L 197.0383275261324 368.3792372881356 L 198.78048780487805 369.1737288135593 L 200.5226480836237 365.6779661016949 L 202.26480836236934 368.22033898305085 L 204.00696864111498 371.39830508474574 L 205.74912891986062 373.62288135593224 L 207.49128919860627 371.39830508474574 L 209.2334494773519 378.70762711864404 L 210.97560975609755 374.7351694915254 L 212.7177700348432 374.7351694915254 L 214.45993031358887 376.16525423728814 L 216.2020905923345 379.8199152542373 L 217.94425087108016 376.3241525423729 L 219.6864111498258 377.9131355932203 L 221.42857142857144 376.0063559322034 L 223.1707317073171 377.7542372881356 L 224.91289198606273 376.48305084745766 L 226.65505226480838 380.1377118644068 L 228.39721254355402 380.1377118644068 L 230.13937282229966 382.3622881355932 L 231.8815331010453 380.614406779661 L 233.62369337979095 380.93220338983053 L 235.3658536585366 378.5487288135593 L 237.10801393728224 381.40889830508473 L 238.85017421602788 380.2966101694915 L 240.59233449477352 380.77330508474574 L 242.33449477351917 382.83898305084745 L 244.0766550522648 380.2966101694915 L 245.81881533101046 378.3898305084746 L 247.5609756097561 378.3898305084746 L 249.30313588850174 379.66101694915255 L 251.0452961672474 379.3432203389831 L 252.78745644599303 381.25 L 254.52961672473867 383.3156779661017 L 256.2717770034843 384.26906779661016 L 258.01393728222996 382.2033898305085 L 259.7560975609756 385.85805084745766 L 261.49825783972125 389.5127118644068 L 263.2404181184669 391.896186440678 L 264.98257839721254 397.77542372881356 L 266.7247386759582 399.68220338983053 L 268.4668989547038 399.2055084745763 L 270.20905923344947 399.364406779661 L 271.9512195121951 397.9343220338983 L 273.69337979094075 398.41101694915255 L 275.4355400696864 400 L 277.17770034843204 398.5699152542373 L 278.91986062717774 394.7563559322034 L 280.6620209059233 393.00847457627117 L 282.404181184669 390.46610169491527 L 284.1463414634146 386.6525423728814 L 285.8885017421603 383.63347457627117 L 287.6306620209059 379.978813559322 L 289.3728222996516 372.19279661016947 L 291.1149825783972 369.65042372881356 L 292.8571428571429 369.49152542372883 L 294.5993031358885 367.7436440677966 L 296.3414634146342 362.02330508474574 L 298.08362369337976 361.7055084745763 L 299.82578397212546 364.24788135593224 L 301.56794425087105 365.8368644067797 L 303.31010452961675 368.3792372881356 L 305.05226480836234 371.39830508474574 L 306.79442508710804 370.28601694915255 L 308.5365853658536 373.146186440678 L 310.2787456445993 375.0529661016949 L 312.0209059233449 368.85593220338984 L 313.7630662020906 373.7817796610169 L 315.5052264808362 373.46398305084745 L 317.2473867595819 373.146186440678 L 318.9895470383275 373.146186440678 L 320.7317073170732 375.68855932203394 L 322.4738675958188 375.0529661016949 L 324.2160278745645 370.12711864406776 L 325.9581881533101 365.6779661016949 L 327.70034843205576 364.5656779661017 L 329.4425087108014 366.31355932203394 L 331.18466898954705 369.65042372881356 L 332.9268292682927 366.79025423728814 L 334.66898954703834 363.2944915254237 L 336.411149825784 362.5 L 338.1533101045296 355.0317796610169 L 339.89547038327527 354.2372881355932 L 341.6376306620209 351.37711864406776 L 343.37979094076655 346.13347457627117 L 345.1219512195122 343.90889830508473 L 346.86411149825784 341.52542372881356 L 348.6062717770035 341.36652542372883 L 350.34843205574913 341.8432203389831 L 352.0905923344948 342.6377118644068 L 353.8327526132404 341.8432203389831 L 355.57491289198606 339.14194915254234 L 357.3170731707317 341.04872881355936 L 359.05923344947735 336.59957627118644 L 360.801393728223 332.9449152542373 L 362.54355400696863 336.2817796610169 L 364.2857142857143 334.85169491525426 L 366.0278745644599 330.08474576271186 L 367.77003484320556 330.2436440677966 L 369.5121951219512 332.4682203389831 L 371.25435540069685 325.7944915254237 L 372.9965156794425 321.0275423728814 L 374.73867595818814 313.87711864406776 L 376.4808362369338 312.2881355932203 L 378.2229965156795 309.90466101694915 L 379.96515679442507 308.79237288135596 L 381.70731707317077 307.99788135593224 L 383.44947735191636 307.0444915254237 L 385.19163763066206 300.0529661016949 L 386.93379790940764 295.9216101694915 L 388.67595818815334 296.239406779661 L 390.41811846689893 293.5381355932203 L 392.16027874564463 293.22033898305085 L 393.9024390243902 286.5466101694915 L 395.6445993031359 278.60169491525426 L 397.3867595818815 278.2838983050848 L 399.1289198606272 274.1525423728814 L 400.8710801393728 269.06779661016947 L 402.6132404181185 269.22669491525426 L 404.3554006968641 266.20762711864404 L 406.0975609756098 265.8898305084746 L 407.8397212543554 256.1970338983051 L 409.58188153310107 253.4957627118644 L 411.3240418118467 253.4957627118644 L 413.06620209059236 251.27118644067795 L 414.808362369338 248.72881355932205 L 416.55052264808364 242.84957627118646 L 418.2926829268293 244.91525423728817 L 420.03484320557493 243.80296610169492 L 421.7770034843206 236.49364406779662 L 423.5191637630662 234.11016949152545 L 425.26132404181186 227.7542372881356 L 427.0034843205575 226.8008474576271 L 428.74564459930315 216.79025423728817 L 430.4878048780488 216.9491525423729 L 432.22996515679444 211.54661016949152 L 433.9721254355401 206.77966101694918 L 435.7142857142857 196.92796610169492 L 437.45644599303137 191.20762711864407 L 439.198606271777 191.3665254237288 L 440.94076655052265 189.4597457627119 L 442.6829268292683 190.2542372881356 L 444.42508710801394 184.85169491525423 L 446.1672473867596 180.0847457627119 L 447.9094076655052 177.3834745762712 L 449.65156794425087 161.1758474576271 L 451.3937282229965 150.6885593220339 L 453.13588850174216 150.37076271186444 L 454.8780487804878 149.8940677966102 L 456.62020905923345 151.48305084745763 L 458.3623693379791 145.28601694915253 L 460.10452961672473 149.8940677966102 L 461.8466898954704 146.0805084745763 L 463.588850174216 135.27542372881362 L 465.33101045296166 133.05084745762713 L 467.0731707317073 134.48093220338978 L 468.81533101045295 125.26483050847457 L 470.5574912891986 116.84322033898309 L 472.29965156794424 112.55296610169489 L 474.0418118466899 117.47881355932202 L 475.7839721254355 111.12288135593224 L 477.52613240418117 123.9936440677966 L 479.2682926829268 120.97457627118649 L 481.01045296167246 127.48940677966107 L 482.7526132404181 122.8813559322034 L 484.49477351916374 120.65677966101691 L 486.2369337979094 104.44915254237287 L 487.97909407665503 100 L 489.7212543554007 103.17796610169489 L 491.4634146341463 111.28177966101691 L 493.20557491289196 120.97457627118649 L 494.9477351916376 115.88983050847457 L 496.68989547038325 119.70338983050851 L 498.4320557491289 117.79661016949149 L 500.17421602787454 124.94703389830511 L 501.91637630662024 128.76059322033905 L 503.6585365853659 134.3220338983051 L 505.4006968641115 133.05084745762713 L 507.14285714285717 132.57415254237287 L 508.8850174216028 132.2563559322034 L 510.62717770034845 136.06991525423734 L 512.3693379790941 140.83686440677968 L 514.1114982578397 145.60381355932205 L 515.8536585365854 150.52966101694918 L 517.5958188153311 157.20338983050848 L 519.3379790940767 154.18432203389833 L 521.0801393728223 157.83898305084747 L 522.822299651568 163.8771186440678 L 524.5644599303137 171.9809322033898 L 526.3066202090592 178.8135593220339 L 528.0487804878048 184.6927966101695 L 529.7909407665505 191.68432203389833 L 531.5331010452962 194.22669491525423 L 533.2752613240418 192.0021186440678 L 535.0174216027874 196.61016949152545 L 536.7595818815331 197.08686440677965 L 538.5017421602788 203.4427966101695 L 540.2439024390244 210.91101694915253 L 541.98606271777 207.5741525423729 L 543.7282229965157 209.79872881355934 L 545.4703832752614 213.93008474576274 L 547.212543554007 206.77966101694918 L 548.9547038327526 208.0508474576271 L 550.6968641114983 207.09745762711864 L 552.439024390244 207.25635593220338 L 554.1811846689895 209.79872881355934 L 555.9233449477351 211.22881355932205 L 557.6655052264808 217.74364406779662 L 559.4076655052265 222.66949152542375 L 561.1498257839721 225.3707627118644 L 562.8919860627177 227.7542372881356 L 564.6341463414634 228.3898305084746 L 566.3763066202091 226.00635593220338 L 568.1184668989547 226.00635593220338 L 569.8606271777003 221.71610169491524 L 571.602787456446 226.64194915254237 L 573.3449477351917 227.91313559322035 L 575.0871080139373 229.34322033898306 L 576.8292682926829 233.95127118644066 L 578.5714285714286 231.5677966101695 L 580.3135888501743 228.2309322033898 L 582.0557491289198 231.72669491525423 L 583.7979094076654 222.1927966101695 L 585.5400696864111 229.34322033898306 L 587.2822299651568 229.18432203389833 L 589.0243902439024 231.09110169491524 L 590.766550522648 237.92372881355934 L 592.5087108013937 247.77542372881354 L 594.2508710801394 246.5042372881356 L 595.993031358885 242.69067796610167 L 597.7351916376306 241.10169491525423 L 599.4773519163763 242.53177966101694 L 601.219512195122 239.35381355932205 L 602.9616724738676 239.35381355932205 L 604.7038327526133 240.3072033898305 L 606.445993031359 239.98940677966104 L 608.1881533101046 244.75635593220338 L 609.9303135888501 246.9809322033898 L 611.6724738675958 246.34533898305088 L 613.4146341463415 248.72881355932205 L 615.1567944250871 252.22457627118646 L 616.8989547038327 257.4682203389831 L 618.6411149825784 266.6843220338983 L 620.3832752613241 266.6843220338983 L 622.1254355400697 272.8813559322034 L 623.8675958188153 279.87288135593224 L 625.609756097561 276.53601694915255 L 627.3519163763067 278.9194915254237 L 629.0940766550523 283.84533898305085 L 630.8362369337979 287.5 L 632.5783972125436 288.9300847457627 L 634.3205574912893 295.12711864406776 L 636.0627177700349 300.52966101694915 L 637.8048780487804 297.6694915254237 L 639.5470383275261 306.885593220339 L 641.2891986062718 308.79237288135596 L 643.0313588850174 312.92372881355936 L 644.773519163763 317.6906779661017 L 646.5156794425087 313.5593220338983 L 648.2578397212544 310.3813559322034 L 650 309.5868644067797 L 650 400 Z" /><text  class="poloto_labels poloto_text poloto_title" alignment-baseline="start" text-anchor="middle" font-size="x-large" x="400" y="37.5" >Total players on 2021-10-21</text><text  class="poloto_labels poloto_text poloto_xname" alignment-baseline="start" text-anchor="middle" font-size="x-large" x="400" y="481.25" >Time</text><text  class="poloto_labels poloto_text poloto_yname" alignment-baseline="start" text-anchor="middle" font-size="x-large" transform="rotate(-90,37.5,250)" x="37.5" y="250" >Count</text><line  class="poloto_axis_lines" stroke="black" x1="150" x2="150" y1="400" y2="405" /><text  class="poloto_tick_labels poloto_text" alignment-baseline="start" text-anchor="middle" x="150" y="430" > 00:00</text><line  class="poloto_axis_lines" stroke="black" x1="266.14401858304296" x2="266.14401858304296" y1="400" y2="405" /><text  class="poloto_tick_labels poloto_text" alignment-baseline="start" text-anchor="middle" x="266.14401858304296" y="430" > 06:00</text><line  class="poloto_axis_lines" stroke="black" x1="382.2880371660859" x2="382.2880371660859" y1="400" y2="405" /><text  class="poloto_tick_labels poloto_text" alignment-baseline="start" text-anchor="middle" x="382.2880371660859" y="430" > 11:00</text><line  class="poloto_axis_lines" stroke="black" x1="498.4320557491289" x2="498.4320557491289" y1="400" y2="405" /><text  class="poloto_tick_labels poloto_text" alignment-baseline="start" text-anchor="middle" x="498.4320557491289" y="430" > 17:00</text><line  class="poloto_axis_lines" stroke="black" x1="614.5760743321719" x2="614.5760743321719" y1="400" y2="405" /><text  class="poloto_tick_labels poloto_text" alignment-baseline="start" text-anchor="middle" x="614.5760743321719" y="430" > 22:00</text><line  class="poloto_axis_lines" stroke="black" x1="150" x2="144" y1="356.93855932203394" y2="356.93855932203394" /><text  class="poloto_tick_labels poloto_text" alignment-baseline="middle" text-anchor="end" x="135" y="356.93855932203394" > 1000</text><line  class="poloto_axis_lines" stroke="black" x1="150" x2="144" y1="277.489406779661" y2="277.489406779661" /><text  class="poloto_tick_labels poloto_text" alignment-baseline="middle" text-anchor="end" x="135" y="277.489406779661" > 1500</text><line  class="poloto_axis_lines" stroke="black" x1="150" x2="144" y1="198.0402542372882" y2="198.0402542372882" /><text  class="poloto_tick_labels poloto_text" alignment-baseline="middle" text-anchor="end" x="135" y="198.0402542372882" > 2000</text><line  class="poloto_axis_lines" stroke="black" x1="150" x2="144" y1="118.59110169491521" y2="118.59110169491521" /><text  class="poloto_tick_labels poloto_text" alignment-baseline="middle" text-anchor="end" x="135" y="118.59110169491521" > 2500</text><path  stroke="black" fill="none" class="poloto_axis_lines" style="stroke-dasharray:14.518002322880372;stroke-dashoffset:-0;" d=" M 150 400 L 650 400" /><path  stroke="black" fill="none" class="poloto_axis_lines" style="stroke-dasharray:7.944915254237287;stroke-dashoffset:-43.06144067796609;" d=" M 150 400 L 150 100" /></svg>