<svg class="poloto" width="800" height="500" viewBox="0 0 800 500" xmlns="http://www.w3.org/2000/svg"><style>.poloto { stroke-linecap:round; stroke-linejoin:round; font-family: 'Tahoma', sans-serif; background-color: AliceBlue;} .poloto_scatter{stroke-width:7} .poloto_line{stroke-width:2} .poloto_text{fill: black;} .poloto_axis_lines{stroke: black;stroke-width:3;fill:none;stroke-dasharray:none} .poloto0stroke{stroke:  blue;} .poloto1stroke{stroke:  red;} .poloto2stroke{stroke:  green;} .poloto3stroke{stroke:  gold;} .poloto4stroke{stroke:  aqua;} .poloto5stroke{stroke:  lime;} .poloto6stroke{stroke:  orange;} .poloto7stroke{stroke:  chocolate;} .poloto0fill{fill:blue;} .poloto1fill{fill:red;} .poloto2fill{fill:green;} .poloto3fill{fill:gold;} .poloto4fill{fill:aqua;} .poloto5fill{fill:lime;} .poloto6fill{fill:orange;} .poloto7fill{fill:chocolate;}</style><text  class="poloto_text poloto_legend_text" alignment-baseline="middle" text-anchor="start" font-size="large" x="675" y="100" ></text><path  class="poloto_linefill poloto0fill" d=" M 150 400 L 150 357.02789699570815 L 151.74216027874564 357.34978540772534 L 153.4843205574913 352.0386266094421 L 155.22648083623693 358.637339055794 L 156.96864111498257 346.5665236051502 L 158.71080139372822 362.3390557939914 L 160.45296167247386 364.2703862660944 L 162.1951219512195 364.5922746781116 L 163.93728222996515 366.362660944206 L 165.6794425087108 365.55793991416306 L 167.42160278745644 363.94849785407723 L 169.16376306620208 368.4549356223176 L 170.90592334494772 373.92703862660943 L 172.64808362369337 380.2038626609442 L 174.390243902439 387.2854077253219 L 176.13240418118465 392.9184549356223 L 177.8745644599303 393.72317596566523 L 179.61672473867597 389.8605150214592 L 181.3588850174216 384.0665236051502 L 183.10104529616726 380.0429184549356 L 184.8432055749129 380.0429184549356 L 186.58536585365854 381.1695278969957 L 188.3275261324042 379.2381974248927 L 190.06968641114983 375.69742489270385 L 191.81184668989548 377.3068669527897 L 193.55400696864112 374.57081545064375 L 195.29616724738676 374.73175965665234 L 197.0383275261324 370.06437768240346 L 198.78048780487805 376.82403433476395 L 200.5226480836237 374.57081545064375 L 202.26480836236934 381.9742489270386 L 204.00696864111498 381.81330472103 L 205.74912891986062 389.0557939914163 L 207.49128919860627 387.76824034334766 L 209.2334494773519 386.8025751072961 L 210.97560975609755 388.412017167382 L 212.7177700348432 392.9184549356223 L 214.45993031358887 396.29828326180257 L 216.2020905923345 396.62017167381975 L 217.94425087108016 398.068669527897 L 219.6864111498258 399.8390557939914 L 221.42857142857144 400 L 223.1707317073171 397.4248927038626 L 224.91289198606273 392.9184549356223 L 226.65505226480838 388.7339055793991 L 228.39721254355402 381.49141630901283 L 230.13937282229966 381.0085836909871 L 231.8815331010453 381.9742489270386 L 233.62369337979095 375.85836909871244 L 235.3658536585366 377.14592274678114 L 237.10801393728224 381.6523605150214 L 238.85017421602788 381.33047210300424 L 240.59233449477352 376.98497854077254 L 242.33449477351917 374.89270386266094 L 244.0766550522648 372.80042918454933 L 245.81881533101046 366.04077253218884 L 247.5609756097561 367.48927038626607 L 249.30313588850174 372.156652360515 L 251.0452961672474 358.1545064377682 L 252.78745644599303 356.38412017167377 L 254.52961672473867 360.8905579399142 L 256.2717770034843 358.95922746781116 L 258.01393728222996 363.3047210300429 L 259.7560975609756 360.0858369098712 L 261.49825783972125 353.6480686695279 L 263.2404181184669 350.9120171673819 L 264.98257839721254 347.69313304721027 L 266.7247386759582 348.98068669527896 L 268.4668989547038 342.381974248927 L 270.20905923344947 343.83047210300424 L 271.9512195121951 339.32403433476395 L 273.69337979094075 338.84120171673817 L 275.4355400696864 336.4270386266094 L 277.17770034843204 339.64592274678114 L 278.9198606271777 338.35836909871244 L 280.6620209059233 338.519313304721 L 282.40418118466897 339.96781115879827 L 284.1463414634146 339.96781115879827 L 285.88850174216026 336.58798283261797 L 287.6306620209059 334.3347639484979 L 289.37282229965155 332.2424892703863 L 291.1149825783972 326.931330472103 L 292.85714285714283 323.71244635193136 L 294.5993031358885 323.2296137339056 L 296.3414634146342 320.332618025751 L 298.08362369337976 323.068669527897 L 299.82578397212546 321.29828326180257 L 301.56794425087105 315.9871244635193 L 303.31010452961675 316.1480686695279 L 305.05226480836234 308.58369098712444 L 306.79442508710804 307.1351931330472 L 308.5365853658536 311.4806866952789 L 310.2787456445993 319.68884120171674 L 312.0209059233449 313.09012875536484 L 313.7630662020906 314.69957081545067 L 315.5052264808362 309.2274678111588 L 317.2473867595819 307.4570815450644 L 318.9895470383275 304.5600858369098 L 320.7317073170732 300.3755364806867 L 322.4738675958188 299.73175965665234 L 324.2160278745645 292.1673819742489 L 325.95818815331006 289.9141630901288 L 327.70034843205576 287.8218884120172 L 329.44250871080135 292.1673819742489 L 331.18466898954705 285.568669527897 L 332.92682926829264 282.832618025751 L 334.66898954703834 282.9935622317596 L 336.4111498257839 283.79828326180257 L 338.1533101045296 276.8776824034335 L 339.8954703832752 275.26824034334766 L 341.6376306620209 274.6244635193133 L 343.3797909407665 270.118025751073 L 345.1219512195122 272.85407725321886 L 346.86411149825784 266.8991416309012 L 348.6062717770035 270.92274678111585 L 350.34843205574913 267.8648068669528 L 352.0905923344948 268.0257510729614 L 353.8327526132404 265.1287553648068 L 355.57491289198606 265.2896995708154 L 357.3170731707317 268.0257510729614 L 359.05923344947735 262.23175965665234 L 360.801393728223 260.7832618025751 L 362.54355400696863 262.7145922746781 L 364.2857142857143 263.1974248927038 L 366.0278745644599 260.4613733905579 L 367.77003484320556 254.9892703862661 L 369.5121951219512 244.206008583691 L 371.25435540069685 249.03433476394846 L 372.9965156794425 247.10300429184545 L 374.73867595818814 241.63090128755366 L 376.4808362369338 242.43562231759657 L 378.2229965156794 239.53862660944205 L 379.96515679442507 237.60729613733903 L 381.7073170731707 228.91630901287553 L 383.44947735191636 221.35193133047207 L 385.191637630662 223.28326180257508 L 386.93379790940764 228.11158798283262 L 388.6759581881533 225.69742489270382 L 390.41811846689893 221.51287553648066 L 392.1602787456446 215.71888412017168 L 393.9024390243902 211.85622317596565 L 395.6445993031359 212.33905579399138 L 397.3867595818815 211.85622317596565 L 399.1289198606272 218.93776824034333 L 400.8710801393728 212.49999999999997 L 402.6132404181185 215.5579399141631 L 404.3554006968641 219.09871244635193 L 406.0975609756097 205.5793991416309 L 407.83972125435537 203.96995708154506 L 409.581881533101 204.13090128755366 L 411.32404181184666 204.93562231759657 L 413.0662020905923 202.36051502145924 L 414.80836236933794 201.55579399141627 L 416.5505226480836 198.17596566523602 L 418.29268292682923 199.6244635193133 L 420.0348432055749 199.46351931330472 L 421.7770034843206 194.79613733905578 L 423.5191637630662 197.04935622317592 L 425.26132404181186 190.28969957081543 L 427.0034843205575 188.35836909871242 L 428.74564459930315 185.4613733905579 L 430.4878048780488 179.6673819742489 L 432.22996515679444 178.21888412017168 L 433.9721254355401 182.40343347639484 L 435.7142857142857 173.71244635193133 L 437.45644599303137 169.0450643776824 L 439.198606271777 177.7360515021459 L 440.94076655052265 174.83905579399138 L 442.6829268292683 169.0450643776824 L 444.42508710801394 163.09012875536482 L 446.1672473867596 160.83690987124461 L 447.9094076655052 163.41201716738195 L 449.65156794425087 163.57296137339054 L 451.3937282229965 167.11373390557938 L 453.13588850174216 161.96351931330472 L 454.8780487804878 159.0665236051502 L 456.62020905923345 154.07725321888412 L 458.3623693379791 155.20386266094417 L 460.10452961672473 149.57081545064378 L 461.8466898954704 154.56008583690985 L 463.588850174216 157.61802575107296 L 465.33101045296166 160.3540772532189 L 467.0731707317073 158.26180257510728 L 468.81533101045295 152.95064377682402 L 470.5574912891986 148.28326180257508 L 472.29965156794424 149.40987124463518 L 474.0418118466899 152.95064377682402 L 475.7839721254355 162.76824034334763 L 477.52613240418117 159.7103004291845 L 479.2682926829268 159.2274678111588 L 481.01045296167246 138.94849785407723 L 482.7526132404181 134.9248927038626 L 484.49477351916374 136.37339055793984 L 486.2369337979094 124.78540772532187 L 487.97909407665503 115.61158798283259 L 489.7212543554007 114.64592274678114 L 491.4634146341463 108.36909871244632 L 493.20557491289196 100 L 494.9477351916376 106.92060085836908 L 496.68989547038325 106.75965665236049 L 498.4320557491289 107.24248927038627 L 500.17421602787454 104.1845493562231 L 501.9163763066202 101.12660944206004 L 503.6585365853658 110.78326180257511 L 505.40069686411147 113.68025751072958 L 507.1428571428571 117.22103004291841 L 508.88501742160275 119.15236051502143 L 510.6271777003484 120.27896995708147 L 512.3693379790941 123.9806866952789 L 514.1114982578397 127.03862660944208 L 515.8536585365853 131.70600858369096 L 517.595818815331 138.94849785407723 L 519.3379790940767 147.63948497854076 L 521.0801393728223 152.62875536480684 L 522.822299651568 159.7103004291845 L 524.5644599303137 156.9742489270386 L 526.3066202090592 159.2274678111588 L 528.0487804878048 167.43562231759657 L 529.7909407665505 166.7918454935622 L 531.5331010452962 173.06866952789696 L 533.2752613240418 173.22961373390555 L 535.0174216027874 176.7703862660944 L 536.7595818815331 179.9892703862661 L 538.5017421602788 181.92060085836906 L 540.2439024390244 189.6459227467811 L 541.98606271777 182.24248927038624 L 543.7282229965157 190.7725321888412 L 545.4703832752614 197.04935622317592 L 547.212543554007 197.6931330472103 L 548.9547038327526 192.54291845493563 L 550.6968641114983 200.42918454935622 L 552.439024390244 202.36051502145924 L 554.1811846689895 202.68240343347637 L 555.9233449477351 203.64806866952787 L 557.6655052264808 203.48712446351928 L 559.4076655052265 214.9141630901287 L 561.1498257839721 211.05150214592274 L 562.8919860627177 216.84549356223172 L 564.6341463414634 219.74248927038624 L 566.3763066202091 217.3283261802575 L 568.1184668989547 223.9270386266094 L 569.8606271777003 227.78969957081543 L 571.602787456446 231.49141630901286 L 573.3449477351917 235.0321888412017 L 575.0871080139373 237.1244635193133 L 576.8292682926829 244.36695278969958 L 578.5714285714286 240.50429184549355 L 580.3135888501743 246.45922746781113 L 582.0557491289198 247.10300429184545 L 583.7979094076654 248.22961373390555 L 585.5400696864111 245.65450643776822 L 587.2822299651568 244.52789699570812 L 589.0243902439024 251.28755364806867 L 590.766550522648 264.9678111587982 L 592.5087108013937 264.16309012875536 L 594.2508710801394 266.41630901287556 L 595.993031358885 272.5321888412017 L 597.7351916376306 287.8218884120172 L 599.4773519163763 276.5557939914163 L 601.219512195122 277.36051502145926 L 602.9616724738676 273.17596566523605 L 604.7038327526132 277.68240343347634 L 606.4459930313589 272.85407725321886 L 608.1881533101046 277.84334763948493 L 609.9303135888501 276.3948497854077 L 611.6724738675957 276.7167381974249 L 613.4146341463414 279.77467811158795 L 615.1567944250871 286.69527896995703 L 616.8989547038327 291.6845493562232 L 618.6411149825783 299.57081545064375 L 620.383275261324 293.9377682403433 L 622.1254355400697 293.29399141630904 L 623.8675958188153 296.5128755364807 L 625.609756097561 296.6738197424893 L 627.3519163763067 300.8583690987124 L 629.0940766550523 299.73175965665234 L 630.8362369337979 303.75536480686696 L 632.5783972125436 308.10085836909866 L 634.3205574912893 308.58369098712444 L 636.0627177700349 308.90557939914163 L 637.8048780487804 310.99785407725324 L 639.5470383275261 312.1244635193133 L 641.2891986062718 318.88412017167377 L 643.0313588850174 319.52789699570815 L 644.773519163763 324.8390557939914 L 646.5156794425087 325.4828326180258 L 648.2578397212544 324.19527896995703 L 650 322.7467811158798 L 650 400 Z" /><text  class="poloto_labels poloto_text poloto_title" alignment-baseline="start" text-anchor="middle" font-size="x-large" x="400" y="37.5" >Total players on 2021-05-29</text><text  class="poloto_labels poloto_text poloto_xname" alignment-baseline="start" text-anchor="middle" font-size="x-large" x="400" y="481.25" >Time</text><text  class="poloto_labels poloto_text poloto_yname" alignment-baseline="start" text-anchor="middle" font-size="x-large" transform="rotate(-90,37.5,250)" x="37.5" y="250" >Count</text><line  class="poloto_axis_lines" stroke="black" x1="208.0487804878049" x2="208.0487804878049" y1="400" y2="405" /><text  class="poloto_tick_labels poloto_text" alignment-baseline="start" text-anchor="middle" x="208.0487804878049" y="430" > 03:00</text><line  class="poloto_axis_lines" stroke="black" x1="266.1207897793264" x2="266.1207897793264" y1="400" y2="405" /><text  class="poloto_tick_labels poloto_text" alignment-baseline="start" text-anchor="middle" x="266.1207897793264" y="430" > 06:00</text><line  class="poloto_axis_lines" stroke="black" x1="324.19279907084785" x2="324.19279907084785" y1="400" y2="405" /><text  class="poloto_tick_labels poloto_text" alignment-baseline="start" text-anchor="middle" x="324.19279907084785" y="430" > 08:00</text><line  class="poloto_axis_lines" stroke="black" x1="382.2648083623693" x2="382.2648083623693" y1="400" y2="405" /><text  class="poloto_tick_labels poloto_text" alignment-baseline="start" text-anchor="middle" x="382.2648083623693" y="430" > 11:00</text><line  class="poloto_axis_lines" stroke="black" x1="440.3368176538908" x2="440.3368176538908" y1="400" y2="405" /><text  class="poloto_tick_labels poloto_text" alignment-baseline="start" text-anchor="middle" x="440.3368176538908" y="430" > 14:00</text><line  class="poloto_axis_lines" stroke="black" x1="498.4088269454123" x2="498.4088269454123" y1="400" y2="405" /><text  class="poloto_tick_labels poloto_text" alignment-baseline="start" text-anchor="middle" x="498.4088269454123" y="430" > 17:00</text><line  class="poloto_axis_lines" stroke="black" x1="556.4808362369338" x2="556.4808362369338" y1="400" y2="405" /><text  class="poloto_tick_labels poloto_text" alignment-baseline="start" text-anchor="middle" x="556.4808362369338" y="430" > 19:00</text><line  class="poloto_axis_lines" stroke="black" x1="614.5528455284552" x2="614.5528455284552" y1="400" y2="405" /><text  class="poloto_tick_labels poloto_text" alignment-baseline="start" text-anchor="middle" x="614.5528455284552" y="430" > 22:00</text><line  class="poloto_axis_lines" stroke="black" x1="150" x2="144" y1="352.6824034334764" y2="352.6824034334764" /><text  class="poloto_tick_labels poloto_text" alignment-baseline="middle" text-anchor="end" x="135" y="352.6824034334764" > 1500</text><line  class="poloto_axis_lines" stroke="black" x1="150" x2="144" y1="272.2103004291845" y2="272.2103004291845" /><text  class="poloto_tick_labels poloto_text" alignment-baseline="middle" text-anchor="end" x="135" y="272.2103004291845" > 2000</text><line  class="poloto_axis_lines" stroke="black" x1="150" x2="144" y1="191.73819742489263" y2="191.73819742489263" /><text  class="poloto_tick_labels poloto_text" alignment-baseline="middle" text-anchor="end" x="135" y="191.73819742489263" > 2500</text><line  class="poloto_axis_lines" stroke="black" x1="150" x2="144" y1="111.2660944206009" y2="111.2660944206009" /><text  class="poloto_tick_labels poloto_text" alignment-baseline="middle" text-anchor="end" x="135" y="111.2660944206009" > 3000</text><path  stroke="black" fill="none" class="poloto_axis_lines" style="stroke-dasharray:14.518002322880372;stroke-dashoffset:-58.04878048780488;" d=" M 150 400 L 650 400" /><path  stroke="black" fill="none" class="poloto_axis_lines" style="stroke-dasharray:8.047210300429185;stroke-dashoffset:-47.317596566523605;" d=" M 150 400 L 150 100" /></svg>