<svg class="poloto" width="800" height="500" viewBox="0 0 800 500" xmlns="http://www.w3.org/2000/svg"><style>.poloto { stroke-linecap:round; stroke-linejoin:round; font-family: 'Tahoma', sans-serif; background-color: AliceBlue;} .poloto_scatter{stroke-width:7} .poloto_line{stroke-width:2} .poloto_text{fill: black;} .poloto_axis_lines{stroke: black;stroke-width:3;fill:none;stroke-dasharray:none} .poloto0stroke{stroke:  blue;} .poloto1stroke{stroke:  red;} .poloto2stroke{stroke:  green;} .poloto3stroke{stroke:  gold;} .poloto4stroke{stroke:  aqua;} .poloto5stroke{stroke:  lime;} .poloto6stroke{stroke:  orange;} .poloto7stroke{stroke:  chocolate;} .poloto0fill{fill:blue;} .poloto1fill{fill:red;} .poloto2fill{fill:green;} .poloto3fill{fill:gold;} .poloto4fill{fill:aqua;} .poloto5fill{fill:lime;} .poloto6fill{fill:orange;} .poloto7fill{fill:chocolate;}</style><text  class="poloto_text poloto_legend_text" alignment-baseline="middle" text-anchor="start" font-size="large" x="675" y="100" ></text><path  class="poloto_linefill poloto0fill" d=" M 150 400 L 150 379.9145299145299 L 151.74216027874564 377.4928774928775 L 153.4843205574913 382.33618233618233 L 155.22648083623693 380.6267806267806 L 156.96864111498257 384.1880341880342 L 158.71080139372822 387.1794871794872 L 160.45296167247386 388.74643874643874 L 162.1951219512195 391.88034188034186 L 163.93728222996515 388.8888888888889 L 165.6794425087108 388.46153846153845 L 167.42160278745644 393.3048433048433 L 169.16376306620208 397.2934472934473 L 170.90592334494772 399.4301994301994 L 172.64808362369337 400 L 174.390243902439 397.2934472934473 L 176.13240418118465 396.58119658119654 L 177.8745644599303 389.88603988603984 L 179.61672473867597 390.4558404558404 L 181.3588850174216 390.4558404558404 L 183.10104529616726 388.60398860398857 L 184.8432055749129 391.59544159544157 L 186.58536585365854 392.5925925925926 L 188.3275261324042 390.02849002849 L 190.06968641114983 389.88603988603984 L 191.81184668989548 383.7606837606837 L 193.55400696864112 386.4672364672365 L 195.29616724738676 387.3219373219373 L 197.0383275261324 385.8974358974359 L 198.78048780487805 387.4643874643874 L 200.5226480836237 387.74928774928776 L 202.26480836236934 383.19088319088314 L 204.00696864111498 382.1937321937322 L 205.74912891986062 382.05128205128204 L 207.49128919860627 382.47863247863245 L 209.2334494773519 381.62393162393164 L 210.97560975609755 380.7692307692307 L 212.7177700348432 381.76638176638176 L 214.45993031358887 379.7720797720798 L 216.2020905923345 379.34472934472933 L 217.94425087108016 377.2079772079772 L 219.6864111498258 380.34188034188037 L 221.42857142857144 376.7806267806268 L 223.1707317073171 372.79202279202275 L 224.91289198606273 376.9230769230769 L 226.65505226480838 376.0683760683761 L 228.39721254355402 370.3703703703703 L 230.13937282229966 371.22507122507125 L 231.8815331010453 369.2307692307692 L 233.62369337979095 372.9344729344729 L 235.3658536585366 375.07122507122506 L 237.10801393728224 376.3532763532763 L 238.85017421602788 373.6467236467237 L 240.59233449477352 371.36752136752136 L 242.33449477351917 367.0940170940171 L 244.0766550522648 368.66096866096865 L 245.81881533101046 368.23361823361824 L 247.5609756097561 366.09686609686605 L 249.30313588850174 360.82621082621085 L 251.0452961672474 358.97435897435895 L 252.78745644599303 361.53846153846155 L 254.52961672473867 362.8205128205128 L 256.2717770034843 359.25925925925924 L 258.01393728222996 357.2649572649573 L 259.7560975609756 356.8376068376068 L 261.49825783972125 356.8376068376068 L 263.2404181184669 350 L 264.98257839721254 345.44159544159544 L 266.7247386759582 346.2962962962963 L 268.4668989547038 340.3133903133903 L 270.20905923344947 335.61253561253557 L 271.9512195121951 332.05128205128204 L 273.69337979094075 329.9145299145299 L 275.4355400696864 330.9116809116809 L 277.17770034843204 332.47863247863245 L 278.91986062717774 327.065527065527 L 280.6620209059233 324.2165242165242 L 282.404181184669 322.9344729344729 L 284.1463414634146 320.9401709401709 L 285.8885017421603 322.9344729344729 L 287.6306620209059 322.9344729344729 L 289.3728222996516 323.0769230769231 L 291.1149825783972 322.9344729344729 L 292.8571428571429 314.52991452991455 L 294.5993031358885 311.53846153846155 L 296.3414634146342 313.6752136752136 L 298.08362369337976 313.6752136752136 L 299.82578397212546 308.1196581196581 L 301.56794425087105 306.98005698005693 L 303.31010452961675 310.2564102564103 L 305.05226480836234 310.96866096866097 L 306.79442508710804 317.0940170940171 L 308.5365853658536 316.3817663817664 L 310.2787456445993 312.39316239316236 L 312.0209059233449 306.5527065527066 L 313.7630662020906 303.4188034188034 L 315.5052264808362 298.86039886039885 L 317.2473867595819 296.4387464387464 L 318.9895470383275 290.8831908831909 L 320.7317073170732 297.5783475783476 L 322.4738675958188 297.7207977207977 L 324.2160278745645 296.4387464387464 L 325.9581881533101 294.3019943019943 L 327.70034843205576 290.8831908831909 L 329.4425087108014 286.46723646723643 L 331.18466898954705 284.6153846153846 L 332.9268292682927 280.4843304843305 L 334.66898954703834 284.1880341880342 L 336.411149825784 274.2165242165242 L 338.1533101045296 276.9230769230769 L 339.89547038327527 279.9145299145299 L 341.6376306620209 278.34757834757835 L 343.37979094076655 279.05982905982904 L 345.1219512195122 269.8005698005698 L 346.86411149825784 268.5185185185185 L 348.6062717770035 263.6752136752137 L 350.34843205574913 261.53846153846155 L 352.0905923344948 262.67806267806264 L 353.8327526132404 265.66951566951565 L 355.57491289198606 261.1111111111111 L 357.3170731707317 262.39316239316236 L 359.05923344947735 251.4245014245014 L 360.801393728223 255.27065527065525 L 362.54355400696863 250 L 364.2857142857143 260.2564102564102 L 366.0278745644599 250.56980056980058 L 367.77003484320556 247.1509971509971 L 369.5121951219512 241.88034188034186 L 371.25435540069685 239.45868945868943 L 372.9965156794425 240.45584045584042 L 374.73867595818814 238.46153846153845 L 376.4808362369338 241.31054131054128 L 378.2229965156795 234.90028490028487 L 379.96515679442507 231.76638176638176 L 381.70731707317077 236.32478632478632 L 383.44947735191636 232.05128205128204 L 385.19163763066206 230.05698005698002 L 386.93379790940764 224.92877492877489 L 388.67595818815334 223.2193732193732 L 390.41811846689893 218.51851851851848 L 392.16027874564463 211.68091168091166 L 393.9024390243902 212.67806267806264 L 395.6445993031359 208.83190883190883 L 397.3867595818815 202.13675213675214 L 399.1289198606272 210.8262108262108 L 400.8710801393728 189.6011396011396 L 402.6132404181185 183.76068376068372 L 404.3554006968641 178.49002849002846 L 406.0975609756098 173.2193732193732 L 407.8397212543554 174.92877492877489 L 409.58188153310107 178.34757834757835 L 411.3240418118467 171.79487179487177 L 413.06620209059236 168.09116809116807 L 414.808362369338 157.8347578347578 L 416.55052264808364 157.8347578347578 L 418.2926829268293 155.12820512820514 L 420.03484320557493 154.1310541310541 L 421.7770034843206 154.70085470085468 L 423.5191637630662 157.8347578347578 L 425.26132404181186 156.6951566951567 L 427.0034843205575 152.56410256410254 L 428.74564459930315 146.43874643874642 L 430.4878048780488 145.86894586894584 L 432.22996515679444 139.17378917378915 L 433.9721254355401 139.45868945868943 L 435.7142857142857 138.17663817663816 L 437.45644599303137 141.16809116809117 L 439.198606271777 138.17663817663816 L 440.94076655052265 128.49002849002846 L 442.6829268292683 121.65242165242165 L 444.42508710801394 113.24786324786322 L 446.1672473867596 117.66381766381767 L 447.9094076655052 123.78917378917379 L 449.65156794425087 118.09116809116807 L 451.3937282229965 121.65242165242165 L 453.13588850174216 118.94586894586894 L 454.8780487804878 115.09971509971507 L 456.62020905923345 108.40455840455837 L 458.3623693379791 110.8262108262108 L 460.10452961672473 100 L 461.8466898954704 102.42165242165242 L 463.588850174216 103.98860398860398 L 465.33101045296166 114.67236467236467 L 467.0731707317073 109.25925925925924 L 468.81533101045295 109.97150997150993 L 470.5574912891986 112.10826210826207 L 472.29965156794424 115.24216524216524 L 474.0418118466899 116.52421652421651 L 475.7839721254355 120.5128205128205 L 477.52613240418117 127.77777777777777 L 479.2682926829268 134.3304843304843 L 481.01045296167246 140.02849002849 L 482.7526132404181 148.14814814814815 L 484.49477351916374 154.27350427350427 L 486.2369337979094 156.26780626780624 L 487.97909407665503 163.67521367521368 L 489.7212543554007 167.2364672364672 L 491.4634146341463 166.38176638176634 L 493.20557491289196 171.65242165242165 L 494.9477351916376 168.37606837606836 L 496.68989547038325 175.64102564102564 L 498.4320557491289 179.77207977207973 L 500.17421602787454 179.9145299145299 L 501.91637630662024 178.63247863247864 L 503.6585365853659 189.74358974358972 L 505.4006968641115 193.87464387464388 L 507.14285714285717 201.1396011396011 L 508.8850174216028 204.27350427350427 L 510.62717770034845 204.98575498575497 L 512.3693379790941 208.68945868945866 L 514.1114982578397 210.5413105413105 L 515.8536585365854 209.11680911680912 L 517.5958188153311 219.23076923076923 L 519.3379790940767 234.18803418803418 L 521.0801393728223 234.045584045584 L 522.822299651568 234.61538461538458 L 524.5644599303137 228.77492877492875 L 526.3066202090592 236.8945868945869 L 528.0487804878048 241.31054131054128 L 529.7909407665505 245.44159544159544 L 531.5331010452962 246.86609686609683 L 533.2752613240418 247.1509971509971 L 535.0174216027874 249.7150997150997 L 536.7595818815331 254.27350427350427 L 538.5017421602788 250.2849002849003 L 540.2439024390244 249.7150997150997 L 541.98606271777 254.4159544159544 L 543.7282229965157 254.98575498575497 L 545.4703832752614 258.68945868945866 L 547.212543554007 272.36467236467234 L 548.9547038327526 283.1908831908832 L 550.6968641114983 271.79487179487177 L 552.439024390244 274.64387464387465 L 554.1811846689895 277.3504273504273 L 555.9233449477351 282.33618233618233 L 557.6655052264808 282.47863247863245 L 559.4076655052265 280.6267806267806 L 561.1498257839721 281.6239316239316 L 562.8919860627177 287.8917378917379 L 564.6341463414634 285.47008547008545 L 566.3763066202091 291.88034188034186 L 568.1184668989547 288.74643874643874 L 569.8606271777003 288.74643874643874 L 571.602787456446 287.037037037037 L 573.3449477351917 285.6125356125356 L 575.0871080139373 291.025641025641 L 576.8292682926829 294.87179487179486 L 578.5714285714286 300 L 580.3135888501743 305.4131054131054 L 582.0557491289198 304.98575498575497 L 583.7979094076654 305.69800569800566 L 585.5400696864111 302.84900284900283 L 587.2822299651568 315.95441595441594 L 589.0243902439024 310.5413105413105 L 590.766550522648 313.3903133903134 L 592.5087108013937 317.66381766381767 L 594.2508710801394 315.66951566951565 L 595.993031358885 316.8091168091168 L 597.7351916376306 322.9344729344729 L 599.4773519163763 318.37606837606836 L 601.219512195122 320.7977207977208 L 602.9616724738676 328.91737891737887 L 604.7038327526133 325.9259259259259 L 606.445993031359 331.1965811965812 L 608.1881533101046 332.6210826210826 L 609.9303135888501 329.48717948717945 L 611.6724738675958 325.64102564102564 L 613.4146341463415 329.2022792022792 L 615.1567944250871 334.61538461538464 L 616.8989547038327 339.17378917378915 L 618.6411149825784 338.74643874643874 L 620.3832752613241 339.6011396011396 L 622.1254355400697 345.7264957264957 L 623.8675958188153 344.1595441595441 L 625.609756097561 344.5868945868946 L 627.3519163763067 351.70940170940173 L 629.0940766550523 345.7264957264957 L 630.8362369337979 350.1424501424501 L 632.5783972125436 354.13105413105416 L 634.3205574912893 352.13675213675214 L 636.0627177700349 351.13960113960115 L 637.8048780487804 356.98005698005693 L 639.5470383275261 352.4216524216524 L 641.2891986062718 353.1339031339031 L 643.0313588850174 356.4102564102564 L 644.773519163763 357.5498575498575 L 646.5156794425087 363.1054131054131 L 648.2578397212544 363.8176638176638 L 650 361.8233618233618 L 650 400 Z" /><text  class="poloto_labels poloto_text poloto_title" alignment-baseline="start" text-anchor="middle" font-size="x-large" x="400" y="37.5" >Total players on 2021-12-18</text><text  class="poloto_labels poloto_text poloto_xname" alignment-baseline="start" text-anchor="middle" font-size="x-large" x="400" y="481.25" >Time</text><text  class="poloto_labels poloto_text poloto_yname" alignment-baseline="start" text-anchor="middle" font-size="x-large" transform="rotate(-90,37.5,250)" x="37.5" y="250" >Count</text><line  class="poloto_axis_lines" stroke="black" x1="150" x2="150" y1="400" y2="405" /><text  class="poloto_tick_labels poloto_text" alignment-baseline="start" text-anchor="middle" x="150" y="430" > 00:00</text><line  class="poloto_axis_lines" stroke="black" x1="266.14401858304296" x2="266.14401858304296" y1="400" y2="405" /><text  class="poloto_tick_labels poloto_text" alignment-baseline="start" text-anchor="middle" x="266.14401858304296" y="430" > 06:00</text><line  class="poloto_axis_lines" stroke="black" x1="382.2880371660859" x2="382.2880371660859" y1="400" y2="405" /><text  class="poloto_tick_labels poloto_text" alignment-baseline="start" text-anchor="middle" x="382.2880371660859" y="430" > 11:00</text><line  class="poloto_axis_lines" stroke="black" x1="498.4320557491289" x2="498.4320557491289" y1="400" y2="405" /><text  class="poloto_tick_labels poloto_text" alignment-baseline="start" text-anchor="middle" x="498.4320557491289" y="430" > 17:00</text><line  class="poloto_axis_lines" stroke="black" x1="614.5760743321719" x2="614.5760743321719" y1="400" y2="405" /><text  class="poloto_tick_labels poloto_text" alignment-baseline="start" text-anchor="middle" x="614.5760743321719" y="430" > 22:00</text><line  class="poloto_axis_lines" stroke="black" x1="150" x2="144" y1="342.16524216524215" y2="342.16524216524215" /><text  class="poloto_tick_labels poloto_text" alignment-baseline="middle" text-anchor="end" x="135" y="342.16524216524215" > 1500</text><line  class="poloto_axis_lines" stroke="black" x1="150" x2="144" y1="270.9401709401709" y2="270.9401709401709" /><text  class="poloto_tick_labels poloto_text" alignment-baseline="middle" text-anchor="end" x="135" y="270.9401709401709" > 2000</text><line  class="poloto_axis_lines" stroke="black" x1="150" x2="144" y1="199.7150997150997" y2="199.7150997150997" /><text  class="poloto_tick_labels poloto_text" alignment-baseline="middle" text-anchor="end" x="135" y="199.7150997150997" > 2500</text><line  class="poloto_axis_lines" stroke="black" x1="150" x2="144" y1="128.49002849002846" y2="128.49002849002846" /><text  class="poloto_tick_labels poloto_text" alignment-baseline="middle" text-anchor="end" x="135" y="128.49002849002846" > 3000</text><path  stroke="black" fill="none" class="poloto_axis_lines" style="stroke-dasharray:14.518002322880372;stroke-dashoffset:-0;" d=" M 150 400 L 650 400" /><path  stroke="black" fill="none" class="poloto_axis_lines" style="stroke-dasharray:7.122507122507123;stroke-dashoffset:-57.83475783475785;" d=" M 150 400 L 150 100" /></svg>