<svg class="poloto" width="800" height="500" viewBox="0 0 800 500" xmlns="http://www.w3.org/2000/svg"><style>.poloto { stroke-linecap:round; stroke-linejoin:round; font-family: 'Tahoma', sans-serif; background-color: AliceBlue;} .poloto_scatter{stroke-width:7} .poloto_line{stroke-width:2} .poloto_text{fill: black;} .poloto_axis_lines{stroke: black;stroke-width:3;fill:none;stroke-dasharray:none} .poloto0stroke{stroke:  blue;} .poloto1stroke{stroke:  red;} .poloto2stroke{stroke:  green;} .poloto3stroke{stroke:  gold;} .poloto4stroke{stroke:  aqua;} .poloto5stroke{stroke:  lime;} .poloto6stroke{stroke:  orange;} .poloto7stroke{stroke:  chocolate;} .poloto0fill{fill:blue;} .poloto1fill{fill:red;} .poloto2fill{fill:green;} .poloto3fill{fill:gold;} .poloto4fill{fill:aqua;} .poloto5fill{fill:lime;} .poloto6fill{fill:orange;} .poloto7fill{fill:chocolate;}</style><text  class="poloto_text poloto_legend_text" alignment-baseline="middle" text-anchor="start" font-size="large" x="675" y="100" ></text><path  class="poloto_linefill poloto0fill" d=" M 150 400 L 150 337.25165562913907 L 151.74216027874564 341.0596026490066 L 153.4843205574913 347.18543046357615 L 155.22648083623693 349.17218543046357 L 156.96864111498257 352.6490066225166 L 158.71080139372822 350.49668874172187 L 160.45296167247386 352.81456953642385 L 162.1951219512195 361.2582781456954 L 163.93728222996515 359.7682119205298 L 165.6794425087108 358.27814569536423 L 167.42160278745644 353.47682119205297 L 169.16376306620208 353.6423841059603 L 170.90592334494772 354.63576158940396 L 172.64808362369337 357.4503311258278 L 174.390243902439 362.25165562913907 L 176.13240418118465 360.7615894039735 L 177.8745644599303 369.20529801324506 L 179.61672473867597 369.20529801324506 L 181.3588850174216 373.34437086092714 L 183.10104529616726 374.00662251655626 L 184.8432055749129 369.8675496688742 L 186.58536585365854 369.3708609271523 L 188.3275261324042 370.36423841059604 L 190.06968641114983 372.0198675496689 L 191.81184668989548 371.6887417218543 L 193.55400696864112 369.7019867549669 L 195.29616724738676 375.16556291390725 L 197.0383275261324 375.49668874172187 L 198.78048780487805 372.0198675496689 L 200.5226480836237 377.317880794702 L 202.26480836236934 381.62251655629143 L 204.00696864111498 382.4503311258278 L 205.74912891986062 377.9801324503311 L 207.49128919860627 372.51655629139077 L 209.2334494773519 375 L 210.97560975609755 374.83443708609275 L 212.7177700348432 377.9801324503311 L 214.45993031358887 378.8079470198676 L 216.2020905923345 380.46357615894044 L 217.94425087108016 379.4701986754967 L 219.6864111498258 383.44370860927154 L 221.42857142857144 383.9403973509934 L 223.1707317073171 381.2913907284768 L 224.91289198606273 382.28476821192055 L 226.65505226480838 385.7615894039735 L 228.39721254355402 383.44370860927154 L 230.13937282229966 384.7682119205298 L 231.8815331010453 387.08609271523176 L 233.62369337979095 386.75496688741725 L 235.3658536585366 384.7682119205298 L 237.10801393728224 385.0993377483444 L 238.85017421602788 383.6092715231788 L 240.59233449477352 379.1390728476821 L 242.33449477351917 379.1390728476821 L 244.0766550522648 382.4503311258278 L 245.81881533101046 383.6092715231788 L 247.5609756097561 384.7682119205298 L 249.30313588850174 386.0927152317881 L 251.0452961672474 388.2450331125828 L 252.78745644599303 389.73509933774835 L 254.52961672473867 388.57615894039736 L 256.2717770034843 389.2384105960265 L 258.01393728222996 391.55629139072846 L 259.7560975609756 392.38410596026495 L 261.49825783972125 393.87417218543044 L 263.2404181184669 393.7086092715232 L 264.98257839721254 391.72185430463577 L 266.7247386759582 395.8609271523179 L 268.4668989547038 400 L 270.20905923344947 396.1920529801324 L 271.9512195121951 390.5629139072848 L 273.69337979094075 386.42384105960264 L 275.4355400696864 380.79470198675494 L 277.17770034843204 383.9403973509934 L 278.9198606271777 380.96026490066225 L 280.6620209059233 384.7682119205298 L 282.40418118466897 381.4569536423841 L 284.1463414634146 374.00662251655626 L 285.88850174216026 371.02649006622516 L 287.6306620209059 369.8675496688742 L 289.37282229965155 368.3774834437086 L 291.1149825783972 369.7019867549669 L 292.85714285714283 365.7284768211921 L 294.5993031358885 366.2251655629139 L 296.3414634146342 363.9072847682119 L 298.08362369337976 361.9205298013245 L 299.82578397212546 361.58940397350995 L 301.56794425087105 358.9403973509934 L 303.31010452961675 364.9006622516556 L 305.05226480836234 366.0596026490066 L 306.79442508710804 365.89403973509934 L 308.5365853658536 369.8675496688742 L 310.2787456445993 373.0132450331126 L 312.0209059233449 374.00662251655626 L 313.7630662020906 373.841059602649 L 315.5052264808362 372.8476821192053 L 317.2473867595819 366.8874172185431 L 318.9895470383275 367.2185430463576 L 320.7317073170732 369.3708609271523 L 322.4738675958188 363.24503311258275 L 324.2160278745645 366.8874172185431 L 325.95818815331006 353.47682119205297 L 327.70034843205576 379.63576158940396 L 329.44250871080135 354.80132450331126 L 331.18466898954705 351.158940397351 L 332.92682926829264 341.3907284768212 L 334.66898954703834 340.0662251655629 L 336.4111498257839 340.2317880794702 L 338.1533101045296 339.07284768211923 L 339.8954703832752 331.4569536423841 L 341.6376306620209 337.91390728476824 L 343.3797909407665 332.7814569536424 L 345.1219512195122 331.4569536423841 L 346.86411149825784 331.12582781456956 L 348.6062717770035 316.8874172185431 L 350.34843205574913 320.6953642384106 L 352.0905923344948 317.5496688741722 L 353.8327526132404 314.40397350993373 L 355.57491289198606 312.74834437086093 L 357.3170731707317 307.4503311258278 L 359.05923344947735 303.1456953642384 L 360.801393728223 297.5165562913907 L 362.54355400696863 301.65562913907286 L 364.2857142857143 301.8211920529801 L 366.0278745644599 295.86092715231786 L 367.77003484320556 295.5298013245033 L 369.5121951219512 295.6953642384106 L 371.25435540069685 297.18543046357615 L 372.9965156794425 296.6887417218543 L 374.73867595818814 288.7417218543046 L 376.4808362369338 289.56953642384104 L 378.2229965156794 287.9139072847682 L 379.96515679442507 289.07284768211923 L 381.7073170731707 281.12582781456956 L 383.44947735191636 283.27814569536423 L 385.191637630662 280.96026490066225 L 386.93379790940764 284.4370860927152 L 388.6759581881533 280.96026490066225 L 390.41811846689893 265.3973509933775 L 392.1602787456446 255.79470198675494 L 393.9024390243902 250 L 395.6445993031359 251.49006622516555 L 397.3867595818815 244.3708609271523 L 399.1289198606272 241.88741721854302 L 400.8710801393728 237.9139072847682 L 402.6132404181185 239.73509933774835 L 404.3554006968641 235.26490066225165 L 406.0975609756097 238.90728476821192 L 407.83972125435537 236.9205298013245 L 409.581881533101 229.1390728476821 L 411.32404181184666 228.97350993377484 L 413.0662020905923 230.13245033112582 L 414.80836236933794 227.64900662251654 L 416.5505226480836 224.8344370860927 L 418.29268292682923 220.03311258278143 L 420.0348432055749 215.72847682119203 L 421.7770034843206 211.09271523178808 L 423.5191637630662 236.25827814569539 L 425.26132404181186 221.68874172185429 L 427.0034843205575 206.62251655629137 L 428.74564459930315 205.96026490066225 L 430.4878048780488 206.62251655629137 L 432.22996515679444 203.80794701986753 L 433.9721254355401 207.4503311258278 L 435.7142857142857 207.28476821192055 L 437.45644599303137 205.46357615894038 L 439.198606271777 202.81456953642385 L 440.94076655052265 199.50331125827813 L 442.6829268292683 196.68874172185429 L 444.42508710801394 191.88741721854302 L 446.1672473867596 184.43708609271522 L 447.9094076655052 183.27814569536423 L 449.65156794425087 178.64238410596028 L 451.3937282229965 176.3245033112583 L 453.13588850174216 176.158940397351 L 454.8780487804878 178.80794701986753 L 456.62020905923345 171.68874172185429 L 458.3623693379791 168.37748344370863 L 460.10452961672473 148.17880794701983 L 461.8466898954704 137.08609271523176 L 463.588850174216 144.86754966887418 L 465.33101045296166 143.046357615894 L 467.0731707317073 130.6291390728477 L 468.81533101045295 131.95364238410593 L 470.5574912891986 118.87417218543044 L 472.29965156794424 121.02649006622516 L 474.0418118466899 124.66887417218544 L 475.7839721254355 119.86754966887418 L 477.52613240418117 118.54304635761588 L 479.2682926829268 116.39072847682115 L 481.01045296167246 116.39072847682115 L 482.7526132404181 121.02649006622516 L 484.49477351916374 116.2251655629139 L 486.2369337979094 112.91390728476819 L 487.97909407665503 103.47682119205297 L 489.7212543554007 105.46357615894038 L 491.4634146341463 100 L 493.20557491289196 105.62913907284769 L 494.9477351916376 107.94701986754967 L 496.68989547038325 106.62251655629137 L 498.4320557491289 103.64238410596028 L 500.17421602787454 108.11258278145692 L 501.9163763066202 109.27152317880791 L 503.6585365853658 106.1258278145695 L 505.40069686411147 110.26490066225165 L 507.1428571428571 120.86092715231786 L 508.88501742160275 122.51655629139071 L 510.6271777003484 125.82781456953643 L 512.3693379790941 136.7549668874172 L 514.1114982578397 130.29801324503308 L 515.8536585365853 140.39735099337747 L 517.595818815331 155.29801324503308 L 519.3379790940767 159.76821192052978 L 521.0801393728223 159.43708609271522 L 522.822299651568 168.54304635761588 L 524.5644599303137 167.21854304635758 L 526.3066202090592 159.60264900662253 L 528.0487804878048 167.71523178807945 L 529.7909407665505 162.41721854304637 L 531.5331010452962 166.2251655629139 L 533.2752613240418 175.33112582781456 L 535.0174216027874 238.74172185430461 L 536.7595818815331 201.49006622516555 L 538.5017421602788 201.8211920529801 L 540.2439024390244 205.6291390728477 L 541.98606271777 197.18543046357615 L 543.7282229965157 199.66887417218544 L 545.4703832752614 187.25165562913907 L 547.212543554007 195.03311258278143 L 548.9547038327526 199.33774834437088 L 550.6968641114983 201.8211920529801 L 552.439024390244 198.50993377483445 L 554.1811846689895 200 L 555.9233449477351 202.81456953642385 L 557.6655052264808 210.43046357615896 L 559.4076655052265 214.23841059602648 L 561.1498257839721 223.6754966887417 L 562.8919860627177 226.98675496688742 L 564.6341463414634 228.64238410596028 L 566.3763066202091 231.2913907284768 L 568.1184668989547 229.4701986754967 L 569.8606271777003 234.76821192052978 L 571.602787456446 233.11258278145692 L 573.3449477351917 228.47682119205297 L 575.0871080139373 223.841059602649 L 576.8292682926829 223.34437086092714 L 578.5714285714286 226.158940397351 L 580.3135888501743 225.66225165562912 L 582.0557491289198 226.65562913907286 L 583.7979094076654 225.66225165562912 L 585.5400696864111 232.78145695364236 L 587.2822299651568 239.4039735099338 L 589.0243902439024 237.9139072847682 L 590.766550522648 239.4039735099338 L 592.5087108013937 237.41721854304637 L 594.2508710801394 241.0596026490066 L 595.993031358885 245.19867549668874 L 597.7351916376306 239.56953642384104 L 599.4773519163763 243.046357615894 L 601.219512195122 248.34437086092714 L 602.9616724738676 241.2251655629139 L 604.7038327526132 246.19205298013247 L 606.4459930313589 251.158940397351 L 608.1881533101046 252.81456953642385 L 609.9303135888501 255.46357615894038 L 611.6724738675957 270.19867549668874 L 613.4146341463414 268.5430463576159 L 615.1567944250871 270.36423841059604 L 616.8989547038327 277.1523178807947 L 618.6411149825783 275.82781456953643 L 620.383275261324 275 L 622.1254355400697 285.7615894039735 L 623.8675958188153 287.74834437086093 L 625.609756097561 284.10596026490066 L 627.3519163763067 293.7086092715232 L 629.0940766550523 294.5364238410596 L 630.8362369337979 303.97350993377484 L 632.5783972125436 307.28476821192055 L 634.3205574912893 310.7615894039735 L 636.0627177700349 316.72185430463577 L 637.8048780487804 318.2119205298013 L 639.5470383275261 322.51655629139077 L 641.2891986062718 333.7748344370861 L 643.0313588850174 326.9867549668874 L 644.773519163763 331.4569536423841 L 646.5156794425087 329.3046357615894 L 648.2578397212544 338.4105960264901 L 650 341.0596026490066 L 650 400 Z" /><text  class="poloto_labels poloto_text poloto_title" alignment-baseline="start" text-anchor="middle" font-size="x-large" x="400" y="37.5" >Total players on 2021-05-27</text><text  class="poloto_labels poloto_text poloto_xname" alignment-baseline="start" text-anchor="middle" font-size="x-large" x="400" y="481.25" >Time</text><text  class="poloto_labels poloto_text poloto_yname" alignment-baseline="start" text-anchor="middle" font-size="x-large" transform="rotate(-90,37.5,250)" x="37.5" y="250" >Count</text><line  class="poloto_axis_lines" stroke="black" x1="208.0487804878049" x2="208.0487804878049" y1="400" y2="405" /><text  class="poloto_tick_labels poloto_text" alignment-baseline="start" text-anchor="middle" x="208.0487804878049" y="430" > 02:46:40</text><line  class="poloto_axis_lines" stroke="black" x1="266.1207897793264" x2="266.1207897793264" y1="400" y2="405" /><text  class="poloto_tick_labels poloto_text" alignment-baseline="start" text-anchor="middle" x="266.1207897793264" y="430" > 05:33:20</text><line  class="poloto_axis_lines" stroke="black" x1="324.19279907084785" x2="324.19279907084785" y1="400" y2="405" /><text  class="poloto_tick_labels poloto_text" alignment-baseline="start" text-anchor="middle" x="324.19279907084785" y="430" > 08:20:00</text><line  class="poloto_axis_lines" stroke="black" x1="382.2648083623693" x2="382.2648083623693" y1="400" y2="405" /><text  class="poloto_tick_labels poloto_text" alignment-baseline="start" text-anchor="middle" x="382.2648083623693" y="430" > 11:06:40</text><line  class="poloto_axis_lines" stroke="black" x1="440.3368176538908" x2="440.3368176538908" y1="400" y2="405" /><text  class="poloto_tick_labels poloto_text" alignment-baseline="start" text-anchor="middle" x="440.3368176538908" y="430" > 13:53:20</text><line  class="poloto_axis_lines" stroke="black" x1="498.4088269454123" x2="498.4088269454123" y1="400" y2="405" /><text  class="poloto_tick_labels poloto_text" alignment-baseline="start" text-anchor="middle" x="498.4088269454123" y="430" > 16:40:00</text><line  class="poloto_axis_lines" stroke="black" x1="556.4808362369338" x2="556.4808362369338" y1="400" y2="405" /><text  class="poloto_tick_labels poloto_text" alignment-baseline="start" text-anchor="middle" x="556.4808362369338" y="430" > 19:26:40</text><line  class="poloto_axis_lines" stroke="black" x1="614.5528455284552" x2="614.5528455284552" y1="400" y2="405" /><text  class="poloto_tick_labels poloto_text" alignment-baseline="start" text-anchor="middle" x="614.5528455284552" y="430" > 22:13:20</text><line  class="poloto_axis_lines" stroke="black" x1="150" x2="144" y1="395.6953642384106" y2="395.6953642384106" /><text  class="poloto_tick_labels poloto_text" alignment-baseline="middle" text-anchor="end" x="135" y="395.6953642384106" > 1000</text><line  class="poloto_axis_lines" stroke="black" x1="150" x2="144" y1="312.91390728476824" y2="312.91390728476824" /><text  class="poloto_tick_labels poloto_text" alignment-baseline="middle" text-anchor="end" x="135" y="312.91390728476824" > 1500</text><line  class="poloto_axis_lines" stroke="black" x1="150" x2="144" y1="230.13245033112582" y2="230.13245033112582" /><text  class="poloto_tick_labels poloto_text" alignment-baseline="middle" text-anchor="end" x="135" y="230.13245033112582" > 2000</text><line  class="poloto_axis_lines" stroke="black" x1="150" x2="144" y1="147.3509933774834" y2="147.3509933774834" /><text  class="poloto_tick_labels poloto_text" alignment-baseline="middle" text-anchor="end" x="135" y="147.3509933774834" > 2500</text><path  stroke="black" fill="none" class="poloto_axis_lines" style="stroke-dasharray:14.518002322880372;stroke-dashoffset:-58.04878048780488;" d=" M 150 400 L 650 400" /><path  stroke="black" fill="none" class="poloto_axis_lines" style="stroke-dasharray:8.27814569536424;stroke-dashoffset:-4.304635761589395;" d=" M 150 400 L 150 100" /></svg>