<svg class="poloto" width="800" height="500" viewBox="0 0 800 500" xmlns="http://www.w3.org/2000/svg"><style>.poloto { stroke-linecap:round; stroke-linejoin:round; font-family: 'Tahoma', sans-serif; background-color: AliceBlue;} .poloto_scatter{stroke-width:7} .poloto_line{stroke-width:2} .poloto_text{fill: black;} .poloto_axis_lines{stroke: black;stroke-width:3;fill:none;stroke-dasharray:none} .poloto0stroke{stroke:  blue;} .poloto1stroke{stroke:  red;} .poloto2stroke{stroke:  green;} .poloto3stroke{stroke:  gold;} .poloto4stroke{stroke:  aqua;} .poloto5stroke{stroke:  lime;} .poloto6stroke{stroke:  orange;} .poloto7stroke{stroke:  chocolate;} .poloto0fill{fill:blue;} .poloto1fill{fill:red;} .poloto2fill{fill:green;} .poloto3fill{fill:gold;} .poloto4fill{fill:aqua;} .poloto5fill{fill:lime;} .poloto6fill{fill:orange;} .poloto7fill{fill:chocolate;}</style><text  class="poloto_text poloto_legend_text" alignment-baseline="middle" text-anchor="start" font-size="large" x="675" y="100" ></text><path  class="poloto_linefill poloto0fill" d=" M 150 400 L 150 362.0730976632714 L 151.74216027874564 367.2857998801678 L 153.4843205574913 368.3642899940084 L 155.22648083623693 364.5895745955662 L 156.96864111498257 370.7010185739964 L 158.71080139372822 369.80227681246254 L 160.45296167247386 373.397243858598 L 162.1951219512195 366.20730976632717 L 163.93728222996515 367.6452965847813 L 165.6794425087108 372.6782504493709 L 167.42160278745644 373.9364889155183 L 169.16376306620208 371.24026363091673 L 170.90592334494772 376.2732174955063 L 172.64808362369337 376.8124625524266 L 174.390243902439 374.6554823247454 L 176.13240418118465 378.9694427801079 L 177.8745644599303 382.9239065308568 L 179.61672473867597 387.0581186339125 L 181.3588850174216 385.4403834631516 L 183.10104529616726 389.39484721390056 L 184.8432055749129 389.57459556620734 L 186.58536585365854 391.5518274415818 L 188.3275261324042 395.8657878969443 L 190.06968641114983 396.5847813061714 L 191.81184668989548 396.5847813061714 L 193.55400696864112 399.10125823846613 L 195.29616724738676 400 L 197.0383275261324 394.96704613541044 L 198.78048780487805 395.68603954463754 L 200.5226480836237 392.81006590772915 L 202.26480836236934 391.5518274415818 L 204.00696864111498 390.29358897543443 L 205.74912891986062 398.92150988615936 L 207.49128919860627 396.5847813061714 L 209.2334494773519 396.94427801078496 L 210.97560975609755 396.0455362492511 L 212.7177700348432 394.78729778310367 L 214.45993031358887 388.4961054523667 L 216.2020905923345 394.24805272618335 L 217.94425087108016 391.73157579388857 L 219.6864111498258 388.3163571000599 L 221.42857142857144 387.7771120431396 L 223.1707317073171 385.79988016776514 L 224.91289198606273 385.9796285200719 L 226.65505226480838 384.18214499700423 L 228.39721254355402 387.41761533852605 L 230.13937282229966 384.00239664469746 L 231.8815331010453 384.18214499700423 L 233.62369337979095 387.0581186339125 L 235.3658536585366 386.69862192929895 L 237.10801393728224 381.30617136009585 L 238.85017421602788 376.63271420011984 L 240.59233449477352 376.8124625524266 L 242.33449477351917 369.62252846015576 L 244.0766550522648 372.1390053924506 L 245.81881533101046 376.2732174955063 L 247.5609756097561 374.11623726782506 L 249.30313588850174 373.397243858598 L 251.0452961672474 372.1390053924506 L 252.78745644599303 378.7896944278011 L 254.52961672473867 377.5314559616537 L 256.2717770034843 379.50868783702816 L 258.01393728222996 385.79988016776514 L 259.7560975609756 391.19233073696824 L 261.49825783972125 394.78729778310367 L 263.2404181184669 391.73157579388857 L 264.98257839721254 392.0910724985021 L 266.7247386759582 393.3493109646495 L 268.4668989547038 395.1467944877172 L 270.20905923344947 394.0683043738766 L 271.9512195121951 396.5847813061714 L 273.69337979094075 389.7543439185141 L 275.4355400696864 389.57459556620734 L 277.17770034843204 390.653085680048 L 278.91986062717774 393.8885560215698 L 280.6620209059233 396.40503295386463 L 282.404181184669 389.39484721390056 L 284.1463414634146 382.56440982624326 L 285.8885017421603 378.9694427801079 L 287.6306620209059 379.68843618933494 L 289.3728222996516 377.5314559616537 L 291.1149825783972 371.9592570401438 L 292.8571428571429 371.77950868783705 L 294.5993031358885 372.8579988016777 L 296.3414634146342 364.94907130017975 L 298.08362369337976 373.21749550629124 L 299.82578397212546 368.9035350509287 L 301.56794425087105 371.9592570401438 L 303.31010452961675 370.1617735170761 L 305.05226480836234 376.2732174955063 L 306.79442508710804 373.57699221090473 L 308.5365853658536 373.9364889155183 L 310.2787456445993 368.1845416417016 L 312.0209059233449 374.6554823247454 L 313.7630662020906 374.11623726782506 L 315.5052264808362 375.19472738166564 L 317.2473867595819 375.19472738166564 L 318.9895470383275 376.8124625524266 L 320.7317073170732 377.7112043139605 L 322.4738675958188 373.9364889155183 L 324.2160278745645 372.3187537447574 L 325.9581881533101 368.1845416417016 L 327.70034843205576 370.7010185739964 L 329.4425087108014 370.8807669263032 L 331.18466898954705 369.9820251647693 L 332.9268292682927 364.5895745955662 L 334.66898954703834 363.3313361294188 L 336.411149825784 360.99460754943084 L 338.1533101045296 362.0730976632714 L 339.89547038327527 355.60215698022773 L 341.6376306620209 356.141402037148 L 343.37979094076655 355.2426602756142 L 345.1219512195122 357.04014379868187 L 346.86411149825784 352.9059316956261 L 348.6062717770035 347.15398442180947 L 350.34843205574913 351.6476932294787 L 352.0905923344948 346.61473936488915 L 353.8327526132404 358.11863391252245 L 355.57491289198606 346.2552426602756 L 357.3170731707317 343.3792690233673 L 359.05923344947735 336.9083283403236 L 360.801393728223 346.9742360695027 L 362.54355400696863 337.4475733972439 L 364.2857142857143 337.2678250449371 L 366.0278745644599 330.6171360095866 L 367.77003484320556 326.3031755542241 L 369.5121951219512 321.2702216896345 L 371.25435540069685 317.6752546434991 L 372.9965156794425 317.1360095865788 L 374.73867595818814 311.0245656081486 L 376.4808362369338 314.4397843019772 L 378.2229965156795 302.75614140203714 L 379.96515679442507 303.47513481126424 L 381.70731707317077 295.3864589574596 L 383.44947735191636 289.45476333133615 L 385.19163763066206 284.7813061713601 L 386.93379790940764 282.62432594367885 L 388.67595818815334 282.80407429598563 L 390.41811846689893 286.2192929898143 L 392.16027874564463 282.62432594367885 L 393.9024390243902 275.79388855602156 L 395.6445993031359 280.6470940683044 L 397.3867595818815 272.1989215098862 L 399.1289198606272 278.1306171360096 L 400.8710801393728 268.9634511683643 L 402.6132404181185 267.1659676452966 L 404.3554006968641 262.67225883762734 L 406.0975609756098 263.21150389454766 L 407.8397212543554 255.84182144997004 L 409.58188153310107 249.73037747153984 L 411.3240418118467 243.07968843618937 L 413.06620209059236 247.21390053924506 L 414.808362369338 242.72019173157582 L 416.55052264808364 244.69742360695028 L 418.2926829268293 242.1809466746555 L 420.03484320557493 238.22648292390653 L 421.7770034843206 234.6315158777711 L 423.5191637630662 235.88975434391853 L 425.26132404181186 233.55302576393052 L 427.0034843205575 221.33013780707012 L 428.74564459930315 214.14020371479927 L 430.4878048780488 204.4337926902337 L 432.22996515679444 202.2768124625524 L 433.9721254355401 204.07429598562015 L 435.7142857142857 195.62612342720195 L 437.45644599303137 199.04134212103054 L 439.198606271777 185.91971240263632 L 440.94076655052265 186.27920910724987 L 442.6829268292683 180.70701018574 L 444.42508710801394 174.5955662073098 L 446.1672473867596 163.81066506890352 L 447.9094076655052 156.98022768124628 L 449.65156794425087 162.1929298981426 L 451.3937282229965 158.77771120431396 L 453.13588850174216 149.43079688436188 L 454.8780487804878 142.78010784901142 L 456.62020905923345 126.96225284601559 L 458.3623693379791 128.5799880167765 L 460.10452961672473 125.88376273217494 L 461.8466898954704 124.98502097064113 L 463.588850174216 111.86339125224686 L 465.33101045296166 107.5494307968844 L 467.0731707317073 117.79508687837028 L 468.81533101045295 119.95206710605152 L 470.5574912891986 111.32414619532653 L 472.29965156794424 107.90892750149789 L 474.0418118466899 106.47094068304375 L 475.7839721254355 106.8304373876573 L 477.52613240418117 102.69622528460155 L 479.2682926829268 114.73936488915518 L 481.01045296167246 102.51647693229478 L 482.7526132404181 104.4937088076693 L 484.49477351916374 102.15698022768123 L 486.2369337979094 104.13421210305575 L 487.97909407665503 100 L 489.7212543554007 101.61773517076097 L 491.4634146341463 113.30137807070105 L 493.20557491289196 106.8304373876573 L 494.9477351916376 111.32414619532653 L 496.68989547038325 113.48112642300782 L 498.4320557491289 121.74955062911926 L 500.17421602787454 124.98502097064113 L 501.91637630662024 129.65847813061714 L 503.6585365853659 135.76992210904734 L 505.4006968641115 133.6129418813661 L 507.14285714285717 135.94967046135412 L 508.8850174216028 134.33193529059315 L 510.62717770034845 128.220491312163 L 512.3693379790941 138.10665068903535 L 514.1114982578397 132.71420011983224 L 515.8536585365854 126.24325943678849 L 517.5958188153311 130.91671659676456 L 519.3379790940767 139.185140802876 L 521.0801393728223 143.49910125823845 L 522.822299651568 149.61054523666866 L 524.5644599303137 151.04853205512285 L 526.3066202090592 156.62073097663273 L 528.0487804878048 170.1018573996405 L 529.7909407665505 166.86638705811862 L 531.5331010452962 185.02097064110245 L 533.2752613240418 176.57279808268424 L 535.0174216027874 172.97783103654882 L 536.7595818815331 188.97543439185142 L 538.5017421602788 189.8741761533853 L 540.2439024390244 194.5476333133613 L 541.98606271777 209.2869982025165 L 543.7282229965157 208.38825644098262 L 545.4703832752614 206.59077291791493 L 547.212543554007 201.19832234871183 L 548.9547038327526 211.6237267825045 L 550.6968641114983 198.14260035949673 L 552.439024390244 197.24385859796286 L 554.1811846689895 206.95026962252848 L 555.9233449477351 202.4565608148592 L 557.6655052264808 201.19832234871183 L 559.4076655052265 208.38825644098262 L 561.1498257839721 210.36548831635713 L 562.8919860627177 213.42121030557223 L 564.6341463414634 213.78070701018572 L 566.3763066202091 209.64649490713003 L 568.1184668989547 217.91491911324147 L 569.8606271777003 228.69982025164768 L 571.602787456446 234.6315158777711 L 573.3449477351917 243.2594367884961 L 575.0871080139373 240.92270820850808 L 576.8292682926829 240.02396644697427 L 578.5714285714286 245.2366686638706 L 580.3135888501743 246.3151587777112 L 582.0557491289198 247.5733972438586 L 583.7979094076654 249.0113840623128 L 585.5400696864111 252.06710605152784 L 587.2822299651568 253.50509286998204 L 589.0243902439024 255.66207309766327 L 590.766550522648 255.4823247453565 L 592.5087108013937 251.52786099460758 L 594.2508710801394 250.44937088076693 L 595.993031358885 252.24685440383462 L 597.7351916376306 251.70760934691435 L 599.4773519163763 258.89754343918514 L 601.219512195122 263.21150389454766 L 602.9616724738676 267.1659676452966 L 604.7038327526133 274.17615338526065 L 606.445993031359 280.6470940683044 L 608.1881533101046 275.0748951467945 L 609.9303135888501 279.388855602157 L 611.6724738675958 279.2091072498502 L 613.4146341463415 283.5230677052127 L 615.1567944250871 280.6470940683044 L 616.8989547038327 286.9382863990414 L 618.6411149825784 296.2852007189934 L 620.3832752613241 312.1030557219892 L 622.1254355400697 313.7207908927502 L 623.8675958188153 321.4499700419413 L 625.609756097561 324.5056920311564 L 627.3519163763067 326.48292390653086 L 629.0940766550523 332.0551228280408 L 630.8362369337979 337.2678250449371 L 632.5783972125436 341.04254044337927 L 634.3205574912893 338.70581186339126 L 636.0627177700349 337.2678250449371 L 637.8048780487804 343.7387657279809 L 639.5470383275261 345.89574595566205 L 641.2891986062718 349.31096464949076 L 643.0313588850174 351.10844817255844 L 644.773519163763 358.29838226482923 L 646.5156794425087 356.3211503894548 L 648.2578397212544 362.432594367885 L 650 359.9161174355902 L 650 400 Z" /><text  class="poloto_labels poloto_text poloto_title" alignment-baseline="start" text-anchor="middle" font-size="x-large" x="400" y="37.5" >Total players on 2021-09-09</text><text  class="poloto_labels poloto_text poloto_xname" alignment-baseline="start" text-anchor="middle" font-size="x-large" x="400" y="481.25" >Time</text><text  class="poloto_labels poloto_text poloto_yname" alignment-baseline="start" text-anchor="middle" font-size="x-large" transform="rotate(-90,37.5,250)" x="37.5" y="250" >Count</text><line  class="poloto_axis_lines" stroke="black" x1="150" x2="150" y1="400" y2="405" /><text  class="poloto_tick_labels poloto_text" alignment-baseline="start" text-anchor="middle" x="150" y="430" > 00:00:00</text><line  class="poloto_axis_lines" stroke="black" x1="266.14401858304296" x2="266.14401858304296" y1="400" y2="405" /><text  class="poloto_tick_labels poloto_text" alignment-baseline="start" text-anchor="middle" x="266.14401858304296" y="430" > 05:33:20</text><line  class="poloto_axis_lines" stroke="black" x1="382.2880371660859" x2="382.2880371660859" y1="400" y2="405" /><text  class="poloto_tick_labels poloto_text" alignment-baseline="start" text-anchor="middle" x="382.2880371660859" y="430" > 11:06:40</text><line  class="poloto_axis_lines" stroke="black" x1="498.4320557491289" x2="498.4320557491289" y1="400" y2="405" /><text  class="poloto_tick_labels poloto_text" alignment-baseline="start" text-anchor="middle" x="498.4320557491289" y="430" > 16:40:00</text><line  class="poloto_axis_lines" stroke="black" x1="614.5760743321719" x2="614.5760743321719" y1="400" y2="405" /><text  class="poloto_tick_labels poloto_text" alignment-baseline="start" text-anchor="middle" x="614.5760743321719" y="430" > 22:13:20</text><line  class="poloto_axis_lines" stroke="black" x1="150" x2="144" y1="316.5967645296585" y2="316.5967645296585" /><text  class="poloto_tick_labels poloto_text" alignment-baseline="middle" text-anchor="end" x="135" y="316.5967645296585" > 1500</text><line  class="poloto_axis_lines" stroke="black" x1="150" x2="144" y1="226.72258837627322" y2="226.72258837627322" /><text  class="poloto_tick_labels poloto_text" alignment-baseline="middle" text-anchor="end" x="135" y="226.72258837627322" > 2000</text><line  class="poloto_axis_lines" stroke="black" x1="150" x2="144" y1="136.848412222888" y2="136.848412222888" /><text  class="poloto_tick_labels poloto_text" alignment-baseline="middle" text-anchor="end" x="135" y="136.848412222888" > 2500</text><path  stroke="black" fill="none" class="poloto_axis_lines" style="stroke-dasharray:14.518002322880372;stroke-dashoffset:-0;" d=" M 150 400 L 650 400" /><path  stroke="black" fill="none" class="poloto_axis_lines" style="stroke-dasharray:8.987417615338526;stroke-dashoffset:-83.40323547034149;" d=" M 150 400 L 150 100" /></svg>