<svg class="poloto" width="800" height="500" viewBox="0 0 800 500" xmlns="http://www.w3.org/2000/svg"><style>.poloto { stroke-linecap:round; stroke-linejoin:round; font-family: 'Tahoma', sans-serif; background-color: AliceBlue;} .poloto_scatter{stroke-width:7} .poloto_line{stroke-width:2} .poloto_text{fill: black;} .poloto_axis_lines{stroke: black;stroke-width:3;fill:none;stroke-dasharray:none} .poloto0stroke{stroke:  blue;} .poloto1stroke{stroke:  red;} .poloto2stroke{stroke:  green;} .poloto3stroke{stroke:  gold;} .poloto4stroke{stroke:  aqua;} .poloto5stroke{stroke:  lime;} .poloto6stroke{stroke:  orange;} .poloto7stroke{stroke:  chocolate;} .poloto0fill{fill:blue;} .poloto1fill{fill:red;} .poloto2fill{fill:green;} .poloto3fill{fill:gold;} .poloto4fill{fill:aqua;} .poloto5fill{fill:lime;} .poloto6fill{fill:orange;} .poloto7fill{fill:chocolate;}</style><text  class="poloto_text poloto_legend_text" alignment-baseline="middle" text-anchor="start" font-size="large" x="675" y="100" ></text><path  class="poloto_linefill poloto0fill" d=" M 150 400 L 150 360.877296976882 L 151.74216027874564 364.96739774748073 L 153.4843205574913 362.83343212803794 L 155.22648083623693 368.5240071132188 L 156.96864111498257 369.94665085951397 L 158.71080139372822 370.6579727326615 L 160.45296167247386 381.5056312981624 L 162.1951219512195 377.41553052756376 L 163.93728222996515 380.08298755186723 L 165.6794425087108 382.21695317131 L 167.42160278745644 382.57261410788385 L 169.16376306620208 387.72969768820394 L 170.90592334494772 391.2863070539419 L 172.64808362369337 393.2424422050978 L 174.390243902439 390.93064611736816 L 176.13240418118465 390.3971547125074 L 177.8745644599303 399.2886781268524 L 179.61672473867597 400 L 181.3588850174216 394.4872554831061 L 183.10104529616726 394.3094250148192 L 184.8432055749129 388.2631890930646 L 186.58536585365854 396.2655601659751 L 188.3275261324042 399.82216953171314 L 190.06968641114983 398.3995257854179 L 191.81184668989548 394.4872554831061 L 193.55400696864112 390.57498518079433 L 195.29616724738676 391.2863070539419 L 197.0383275261324 392.1754593953764 L 198.78048780487805 390.93064611736816 L 200.5226480836237 381.8612922347362 L 202.26480836236934 387.551867219917 L 204.00696864111498 390.04149377593365 L 205.74912891986062 386.6627148784825 L 207.49128919860627 382.57261410788385 L 209.2334494773519 380.79430942501483 L 210.97560975609755 379.37166567871964 L 212.7177700348432 375.99288678126857 L 214.45993031358887 379.0160047421458 L 216.2020905923345 375.2815649081209 L 217.94425087108016 369.768820391227 L 219.6864111498258 365.14522821576764 L 221.42857142857144 363.1890930646117 L 223.1707317073171 367.63485477178426 L 224.91289198606273 365.32305868405456 L 226.65505226480838 366.9235328986366 L 228.39721254355402 365.32305868405456 L 230.13937282229966 362.655601659751 L 231.8815331010453 366.3900414937759 L 233.62369337979095 365.32305868405456 L 235.3658536585366 366.0343805572021 L 237.10801393728224 363.54475400118554 L 238.85017421602788 363.1890930646117 L 240.59233449477352 358.5655008891523 L 242.33449477351917 358.7433313574393 L 244.0766550522648 355.36455245998815 L 245.81881533101046 354.65323058684055 L 247.5609756097561 347.18435091879076 L 249.30313588850174 349.85180794309423 L 251.0452961672474 349.85180794309423 L 252.78745644599303 343.98340248962654 L 254.52961672473867 345.58387670420865 L 256.2717770034843 344.16123295791346 L 258.01393728222996 339.3598103141672 L 259.7560975609756 335.98103141671606 L 261.49825783972125 331.7131001778305 L 263.2404181184669 332.95791345583876 L 264.9883855981417 329.04564315352695 L 266.7247386759582 323.71072910492 L 268.4668989547038 322.46591582691167 L 270.20905923344947 321.932424422051 L 271.9512195121951 321.2211025489034 L 273.69337979094075 319.44279786603437 L 275.4355400696864 323.17723770005927 L 277.17770034843204 327.0895080023711 L 278.9198606271777 334.7362181387078 L 280.6620209059233 334.91404860699464 L 282.40418118466897 338.64848844101954 L 284.1463414634146 336.3366923532899 L 285.88850174216026 336.51452282157675 L 287.6306620209059 337.58150563129817 L 289.37282229965155 338.4706579727327 L 291.1149825783972 334.38055720213396 L 292.85714285714283 336.8701837581506 L 294.5993031358885 333.66923532898636 L 296.3472706155633 329.04564315352695 L 298.08362369337976 329.93479549496146 L 299.82578397212546 327.4451689389449 L 301.56794425087105 325.8446947243628 L 303.31010452961675 329.93479549496146 L 305.05226480836234 325.31120331950206 L 306.79442508710804 327.9786603438056 L 308.5365853658536 324.7777119146414 L 310.2787456445993 325.48903378778897 L 312.0209059233449 324.7777119146414 L 313.7630662020906 325.8446947243628 L 315.5052264808362 322.99940723177235 L 317.2473867595819 321.932424422051 L 318.9895470383275 320.86544161232956 L 320.7317073170732 319.6206283343213 L 322.4738675958188 322.28808535862476 L 324.2160278745645 322.6437462951986 L 325.95818815331006 321.932424422051 L 327.70034843205576 314.10788381742736 L 329.44250871080135 310.5512744516894 L 331.18466898954705 307.5281564908121 L 332.92682926829264 306.2833432128038 L 334.66898954703834 302.371072910492 L 336.4111498257839 303.0823947836396 L 338.1533101045296 301.1262596324837 L 339.8954703832752 296.85832839359813 L 341.6376306620209 291.70124481327804 L 343.3797909407665 276.9413159454653 L 345.1219512195122 276.58565500889154 L 346.86411149825784 276.9413159454653 L 348.6062717770035 276.05216360403085 L 350.34843205574913 277.8304682868998 L 352.0905923344948 288.67812685240074 L 353.8327526132404 283.6988737403675 L 355.57491289198606 281.20924718435094 L 357.3170731707317 275.87433313574394 L 359.05923344947735 283.5210432720806 L 360.801393728223 277.29697688203913 L 362.54355400696863 271.7842323651452 L 364.2857142857143 258.44694724362773 L 366.0278745644599 258.62477771191465 L 367.77003484320556 257.02430349733254 L 369.5121951219512 253.46769413159456 L 371.25435540069685 257.73562537048014 L 372.9965156794425 248.31061055127446 L 374.73867595818814 242.08654416123295 L 376.4808362369338 244.22050978067574 L 378.2229965156794 279.9644339063426 L 379.96515679442507 246.53230586840544 L 381.7073170731707 237.2851215174867 L 383.44947735191636 233.72851215174865 L 385.191637630662 233.72851215174865 L 386.93379790940764 235.32898636633075 L 388.6759581881533 229.63841138114998 L 390.41811846689893 226.25963248369885 L 392.1602787456446 217.0124481327801 L 393.9024390243902 261.47006520450503 L 395.6445993031359 230.88322465915826 L 397.3867595818815 229.46058091286307 L 399.1289198606272 226.7931238885596 L 400.8710801393728 225.54831061055125 L 402.6132404181185 217.36810906935386 L 404.3554006968641 213.81149970361588 L 406.0975609756097 215.5898043864849 L 407.83972125435537 214.34499110847656 L 409.581881533101 222.16953171310018 L 411.32404181184666 212.03319502074686 L 413.0662020905923 212.92234736218137 L 414.80836236933794 217.54593953764078 L 416.5505226480836 221.28037937166567 L 418.29268292682923 218.4350918790753 L 420.0348432055749 215.23414344991107 L 421.7770034843206 226.43746295198576 L 423.5191637630662 215.76763485477176 L 425.26132404181186 212.3888559573207 L 427.0034843205575 213.10017783046828 L 428.74564459930315 195.3171310017783 L 430.4878048780488 190.6935388263189 L 432.22996515679444 196.7397747480735 L 433.9721254355401 182.3355068168346 L 435.7142857142857 177.1784232365145 L 437.45644599303137 172.37700059276824 L 439.198606271777 165.26378186129222 L 440.94076655052265 168.46473029045643 L 442.6829268292683 168.8203912270302 L 444.42508710801394 160.81802015411972 L 446.1672473867596 158.50622406639002 L 447.9094076655052 148.90337877889743 L 449.65156794425087 154.94961470065203 L 451.3937282229965 156.72791938352105 L 453.13588850174216 160.10669828097213 L 454.8780487804878 154.41612329579135 L 456.62020905923345 148.90337877889743 L 458.3623693379791 142.14582098399524 L 460.10452961672473 136.09958506224064 L 461.8466898954704 129.69768820391226 L 463.588850174216 121.33965619442796 L 465.33101045296166 119.561351511559 L 467.0731707317073 116.5382335506817 L 468.81533101045295 111.3811499703616 L 470.5574912891986 107.64671013633671 L 472.29965156794424 105.86840545346769 L 474.0418118466899 105.334914048607 L 475.7839721254355 107.64671013633671 L 477.52613240418117 102.3117960877297 L 479.2682926829268 108.18020154119739 L 481.01045296167246 107.4688796680498 L 482.7526132404181 106.93538826318911 L 484.49477351916374 107.64671013633671 L 486.2369337979094 99.99999999999994 L 487.97909407665503 101.6004742145821 L 489.7212543554007 108.53586247777116 L 491.4634146341463 116.00474214582096 L 493.20557491289196 121.33965619442796 L 494.9477351916376 121.8731475992887 L 496.68989547038325 127.91938352104324 L 498.4320557491289 129.51985773562535 L 500.17421602787454 133.96561944279784 L 501.9163763066202 129.34202726733844 L 503.6585365853658 136.81090693538823 L 505.40069686411147 143.56846473029043 L 507.1428571428571 143.39063426200357 L 508.88501742160275 148.01422643746292 L 510.6271777003484 138.58921161825725 L 512.3693379790941 139.30053349140485 L 514.1114982578397 148.19205690574984 L 515.8536585365853 143.74629519857734 L 517.595818815331 153.70480142264375 L 519.3379790940767 167.75340841730883 L 521.0801393728223 175.40011855364554 L 522.822299651568 175.0444576170717 L 524.5644599303137 173.4439834024896 L 526.3066202090592 176.11144042679314 L 528.0487804878048 182.5133372851215 L 529.7909407665505 192.64967397747478 L 531.5331010452962 196.38411381149967 L 533.2752613240418 199.94072317723771 L 535.0174216027874 197.09543568464733 L 536.7595818815331 201.54119739181982 L 538.5017421602788 205.98695909899232 L 540.2439024390244 215.5898043864849 L 541.98606271777 211.49970361588618 L 543.7282229965157 215.94546532305867 L 545.4703832752614 226.61529342027268 L 547.212543554007 234.2620035566094 L 548.9547038327526 231.06105512744517 L 550.6968641114983 234.79549496147007 L 552.439024390244 244.57617071724957 L 554.1811846689895 249.91108476585657 L 555.9233449477351 249.73325429756966 L 557.6655052264808 250.80023710729103 L 559.4076655052265 258.09128630705396 L 561.1498257839721 258.44694724362773 L 562.8919860627177 257.91345583876705 L 564.6341463414634 254.35684647302907 L 566.3763066202091 255.06816834617666 L 568.1184668989547 266.4493183165382 L 569.8606271777003 259.8695909899229 L 571.602787456446 264.13752222880856 L 573.3449477351917 268.40545346769414 L 575.0871080139373 270.1837581505631 L 576.8292682926829 274.45168938944875 L 578.5714285714286 278.00829875518673 L 580.3135888501743 276.4078245406046 L 582.0557491289198 274.45168938944875 L 583.7979094076654 273.918197984588 L 585.5400696864111 278.00829875518673 L 587.2822299651568 283.6988737403675 L 589.0301974448316 281.7427385892116 L 590.766550522648 279.60877296976884 L 592.5087108013937 278.7196206283343 L 594.2508710801394 276.2299940723177 L 595.993031358885 276.58565500889154 L 597.7351916376306 272.4955542382928 L 599.4773519163763 272.6733847065797 L 601.219512195122 275.3408417308832 L 602.9616724738676 284.94368701837584 L 604.7038327526132 285.8328393598103 L 606.4459930313589 283.34321280379373 L 608.1881533101046 286.5441612329579 L 609.9303135888501 293.479549496147 L 611.6724738675957 293.12388855957323 L 613.4146341463414 290.9899229401304 L 615.1567944250871 295.7913455838767 L 616.8989547038327 296.3248369887374 L 618.6411149825783 307.1724955542383 L 620.383275261324 307.8838174273859 L 622.1254355400697 309.8399525785418 L 623.8675958188153 313.7522228808536 L 625.609756097561 317.6644931831654 L 627.3519163763067 321.0432720806165 L 629.0940766550523 324.7777119146414 L 630.8420441347271 327.8008298755187 L 632.5783972125436 328.1564908120925 L 634.3205574912893 329.5791345583877 L 636.0627177700349 338.4706579727327 L 637.8048780487804 337.93716656787194 L 639.5470383275261 342.9164196799052 L 641.2891986062718 345.40604623592174 L 643.0313588850174 344.33906342620037 L 644.773519163763 339.8933017190279 L 646.5156794425087 338.82631890930645 L 648.2578397212544 348.42916419679904 L 650 349.31831653823355 L 650 400 Z" /><text  class="poloto_labels poloto_text poloto_title" alignment-baseline="start" text-anchor="middle" font-size="x-large" x="400" y="37.5" >Total players on 2021-07-30</text><text  class="poloto_labels poloto_text poloto_xname" alignment-baseline="start" text-anchor="middle" font-size="x-large" x="400" y="481.25" >Time</text><text  class="poloto_labels poloto_text poloto_yname" alignment-baseline="start" text-anchor="middle" font-size="x-large" transform="rotate(-90,37.5,250)" x="37.5" y="250" >Count</text><line  class="poloto_axis_lines" stroke="black" x1="208.0487804878049" x2="208.0487804878049" y1="400" y2="405" /><text  class="poloto_tick_labels poloto_text" alignment-baseline="start" text-anchor="middle" x="208.0487804878049" y="430" > 03:00</text><line  class="poloto_axis_lines" stroke="black" x1="266.1207897793264" x2="266.1207897793264" y1="400" y2="405" /><text  class="poloto_tick_labels poloto_text" alignment-baseline="start" text-anchor="middle" x="266.1207897793264" y="430" > 06:00</text><line  class="poloto_axis_lines" stroke="black" x1="324.19279907084785" x2="324.19279907084785" y1="400" y2="405" /><text  class="poloto_tick_labels poloto_text" alignment-baseline="start" text-anchor="middle" x="324.19279907084785" y="430" > 08:00</text><line  class="poloto_axis_lines" stroke="black" x1="382.2648083623693" x2="382.2648083623693" y1="400" y2="405" /><text  class="poloto_tick_labels poloto_text" alignment-baseline="start" text-anchor="middle" x="382.2648083623693" y="430" > 11:00</text><line  class="poloto_axis_lines" stroke="black" x1="440.3368176538908" x2="440.3368176538908" y1="400" y2="405" /><text  class="poloto_tick_labels poloto_text" alignment-baseline="start" text-anchor="middle" x="440.3368176538908" y="430" > 14:00</text><line  class="poloto_axis_lines" stroke="black" x1="498.4088269454123" x2="498.4088269454123" y1="400" y2="405" /><text  class="poloto_tick_labels poloto_text" alignment-baseline="start" text-anchor="middle" x="498.4088269454123" y="430" > 17:00</text><line  class="poloto_axis_lines" stroke="black" x1="556.4808362369338" x2="556.4808362369338" y1="400" y2="405" /><text  class="poloto_tick_labels poloto_text" alignment-baseline="start" text-anchor="middle" x="556.4808362369338" y="430" > 19:00</text><line  class="poloto_axis_lines" stroke="black" x1="614.5528455284552" x2="614.5528455284552" y1="400" y2="405" /><text  class="poloto_tick_labels poloto_text" alignment-baseline="start" text-anchor="middle" x="614.5528455284552" y="430" > 22:00</text><line  class="poloto_axis_lines" stroke="black" x1="150" x2="144" y1="345.58387670420865" y2="345.58387670420865" /><text  class="poloto_tick_labels poloto_text" alignment-baseline="middle" text-anchor="end" x="135" y="345.58387670420865" > 1500</text><line  class="poloto_axis_lines" stroke="black" x1="150" x2="144" y1="256.66864256075877" y2="256.66864256075877" /><text  class="poloto_tick_labels poloto_text" alignment-baseline="middle" text-anchor="end" x="135" y="256.66864256075877" > 2000</text><line  class="poloto_axis_lines" stroke="black" x1="150" x2="144" y1="167.75340841730883" y2="167.75340841730883" /><text  class="poloto_tick_labels poloto_text" alignment-baseline="middle" text-anchor="end" x="135" y="167.75340841730883" > 2500</text><path  stroke="black" fill="none" class="poloto_axis_lines" style="stroke-dasharray:14.518002322880372;stroke-dashoffset:-58.04878048780488;" d=" M 150 400 L 650 400" /><path  stroke="black" fill="none" class="poloto_axis_lines" style="stroke-dasharray:8.891523414344991;stroke-dashoffset:-54.41612329579135;" d=" M 150 400 L 150 100" /></svg>