<svg class="poloto" width="800" height="500" viewBox="0 0 800 500" xmlns="http://www.w3.org/2000/svg"><style>.poloto { stroke-linecap:round; stroke-linejoin:round; font-family: 'Tahoma', sans-serif; background-color: AliceBlue;} .poloto_scatter{stroke-width:7} .poloto_line{stroke-width:2} .poloto_text{fill: black;} .poloto_axis_lines{stroke: black;stroke-width:3;fill:none;stroke-dasharray:none} .poloto0stroke{stroke:  blue;} .poloto1stroke{stroke:  red;} .poloto2stroke{stroke:  green;} .poloto3stroke{stroke:  gold;} .poloto4stroke{stroke:  aqua;} .poloto5stroke{stroke:  lime;} .poloto6stroke{stroke:  orange;} .poloto7stroke{stroke:  chocolate;} .poloto0fill{fill:blue;} .poloto1fill{fill:red;} .poloto2fill{fill:green;} .poloto3fill{fill:gold;} .poloto4fill{fill:aqua;} .poloto5fill{fill:lime;} .poloto6fill{fill:orange;} .poloto7fill{fill:chocolate;}</style><text  class="poloto_text poloto_legend_text" alignment-baseline="middle" text-anchor="start" font-size="large" x="675" y="100" ></text><path  class="poloto_linefill poloto0fill" d=" M 150 400 L 150 376.18078175895766 L 151.74216027874564 376.66938110749186 L 153.4843205574913 378.5016286644951 L 155.22648083623693 381.31107491856676 L 156.96864111498257 383.38762214983717 L 158.71080139372822 384.7312703583062 L 160.45296167247386 389.49511400651465 L 162.1951219512195 390.3501628664495 L 163.93728222996515 390.3501628664495 L 165.6794425087108 389.37296416938113 L 167.42160278745644 389.49511400651465 L 169.16376306620208 396.0912052117264 L 170.90592334494772 399.3892508143323 L 172.64808362369337 397.80130293159607 L 174.390243902439 396.0912052117264 L 176.13240418118465 393.15960912052117 L 177.8745644599303 393.64820846905536 L 179.61672473867597 393.40390879478826 L 181.3588850174216 393.8925081433225 L 183.10104529616726 394.3811074918567 L 184.8432055749129 390.228013029316 L 186.58536585365854 391.3273615635179 L 188.3275261324042 388.0293159609121 L 190.06968641114983 391.8159609120521 L 191.81184668989548 394.8697068403909 L 193.55400696864112 392.3045602605863 L 195.29616724738676 395.4804560260586 L 197.0383275261324 393.2817589576547 L 198.78048780487805 394.8697068403909 L 200.5226480836237 398.77850162866446 L 202.26480836236934 397.0684039087948 L 204.00696864111498 396.8241042345277 L 205.74912891986062 394.9918566775244 L 207.49128919860627 392.54885993485345 L 209.2334494773519 391.6938110749186 L 210.97560975609755 394.01465798045604 L 212.7177700348432 393.2817589576547 L 214.45993031358887 394.01465798045604 L 216.2020905923345 394.50325732899023 L 217.94425087108016 394.9918566775244 L 219.6864111498258 394.8697068403909 L 221.42857142857144 393.03745928338765 L 223.1707317073171 391.44951140065143 L 224.91289198606273 390.10586319218237 L 226.65505226480838 387.0521172638437 L 228.39721254355402 388.2736156351791 L 230.13937282229966 387.7850162866449 L 231.8815331010453 390.228013029316 L 233.62369337979095 391.3273615635179 L 235.3658536585366 393.52605863192184 L 237.10801393728224 390.96091205211724 L 238.85017421602788 384.7312703583062 L 240.59233449477352 385.7084690553746 L 242.33449477351917 385.95276872964166 L 244.0766550522648 383.7540716612378 L 245.81881533101046 383.5097719869707 L 247.5609756097561 383.7540716612378 L 249.30313588850174 386.07491856677524 L 251.0452961672474 385.7084690553746 L 252.78745644599303 388.3957654723127 L 254.52961672473867 390.3501628664495 L 256.2717770034843 389.37296416938113 L 258.01393728222996 389.25081433224756 L 259.7560975609756 387.1742671009772 L 261.49825783972125 386.07491856677524 L 263.2404181184669 388.1514657980456 L 264.98257839721254 386.80781758957653 L 266.7247386759582 391.6938110749186 L 268.4668989547038 393.77035830618894 L 270.20905923344947 396.5798045602606 L 271.9512195121951 397.55700325732903 L 273.69337979094075 399.14495114006513 L 275.4355400696864 400 L 277.17770034843204 398.65635179153094 L 278.91986062717774 398.90065146579803 L 280.6620209059233 396.8241042345277 L 282.404181184669 394.3811074918567 L 284.1463414634146 391.571661237785 L 285.8885017421603 386.9299674267101 L 287.6306620209059 386.9299674267101 L 289.3728222996516 385.09771986970685 L 291.1149825783972 383.6319218241042 L 292.8571428571429 383.0211726384365 L 294.5993031358885 382.0439739413681 L 296.3414634146342 380.70032573289905 L 298.08362369337976 379.4788273615635 L 299.82578397212546 380.57817589576547 L 301.56794425087105 381.43322475570034 L 303.31010452961675 380.9446254071661 L 305.05226480836234 380.4560260586319 L 306.79442508710804 377.8908794788274 L 308.5365853658536 373.98208469055373 L 310.2787456445993 370.928338762215 L 312.0209059233449 369.828990228013 L 313.7630662020906 371.1726384364821 L 315.5052264808362 370.928338762215 L 317.2473867595819 375.814332247557 L 318.9895470383275 369.7068403908795 L 320.7317073170732 366.1644951140065 L 322.4738675958188 365.4315960912052 L 324.2160278745645 365.6758957654723 L 325.9581881533101 362.7442996742671 L 327.70034843205576 366.1644951140065 L 329.4425087108014 367.2638436482085 L 331.18466898954705 366.5309446254072 L 332.9268292682927 368.36319218241044 L 334.66898954703834 368.48534201954396 L 336.411149825784 370.5618892508144 L 338.1533101045296 369.95114006514655 L 339.89547038327527 366.042345276873 L 341.6376306620209 367.0195439739414 L 343.37979094076655 365.9201954397394 L 345.1219512195122 364.21009771986974 L 346.86411149825784 360.30130293159607 L 348.6062717770035 356.3925081433225 L 350.34843205574913 352.23941368078175 L 352.0905923344948 353.46091205211724 L 353.8327526132404 356.75895765472313 L 355.57491289198606 358.2247557003258 L 357.3170731707317 358.8355048859935 L 359.05923344947735 357.00325732899023 L 360.801393728223 353.94951140065143 L 362.54355400696863 347.59771986970685 L 364.2857142857143 342.3452768729642 L 366.0278745644599 337.3371335504886 L 367.77003484320556 333.55048859934857 L 369.5121951219512 331.59609120521174 L 371.25435540069685 319.3811074918567 L 372.9965156794425 318.52605863192184 L 374.73867595818814 315.7166123778502 L 376.4808362369338 314.6172638436482 L 378.2229965156795 318.77035830618894 L 379.96515679442507 313.1514657980456 L 381.70731707317077 311.9299674267101 L 383.44947735191636 313.76221498371336 L 385.19163763066206 307.8990228013029 L 386.93379790940764 308.6319218241042 L 388.67595818815334 311.1970684039088 L 390.41811846689893 313.1514657980456 L 392.16027874564463 311.44136807817586 L 393.9024390243902 306.5553745928339 L 395.6445993031359 302.40228013029315 L 397.3867595818815 304.6009771986971 L 399.1289198606272 301.05863192182414 L 400.8710801393728 317.54885993485345 L 402.6132404181185 294.2182410423453 L 404.3554006968641 295.928338762215 L 406.0975609756098 296.05048859934857 L 407.8397212543554 290.1872964169381 L 409.58188153310107 291.8973941368078 L 411.3240418118467 289.08794788273616 L 413.06620209059236 288.59934853420197 L 414.808362369338 285.057003257329 L 416.55052264808364 276.75081433224756 L 418.2926829268293 275.4071661237785 L 420.03484320557493 278.46091205211724 L 421.7770034843206 276.26221498371336 L 423.5191637630662 271.62052117263846 L 425.26132404181186 267.1009771986971 L 427.0034843205575 262.8257328990228 L 428.74564459930315 261.9706840390879 L 430.4878048780488 261.9706840390879 L 432.22996515679444 260.38273615635177 L 433.9721254355401 255.37459283387625 L 435.7142857142857 248.77850162866451 L 437.45644599303137 255.37459283387625 L 439.198606271777 239.61726384364823 L 440.94076655052265 234.24267100977198 L 442.6829268292683 232.04397394136805 L 444.42508710801394 221.0504885993485 L 446.1672473867596 221.90553745928338 L 447.9094076655052 219.21824104234526 L 449.65156794425087 227.03583061889253 L 451.3937282229965 212.7442996742671 L 453.13588850174216 208.1026058631922 L 454.8780487804878 214.57654723127035 L 456.62020905923345 208.95765472312706 L 458.3623693379791 202.11726384364823 L 460.10452961672473 199.79641693811072 L 461.8466898954704 195.2768729641694 L 463.588850174216 196.37622149837136 L 465.33101045296166 194.05537459283386 L 467.0731707317073 185.74918566775244 L 468.81533101045295 189.41368078175896 L 470.5574912891986 186.23778501628664 L 472.29965156794424 187.70358306188928 L 474.0418118466899 180.37459283387625 L 475.7839721254355 191.85667752442998 L 477.52613240418117 185.62703583061892 L 479.2682926829268 179.27524429967428 L 481.01045296167246 189.65798045602605 L 482.7526132404181 187.94788273615637 L 484.49477351916374 184.89413680781757 L 486.2369337979094 185.38273615635177 L 487.97909407665503 189.29153094462544 L 489.7212543554007 189.90228013029315 L 491.4634146341463 193.81107491856676 L 493.20557491289196 189.65798045602605 L 494.9477351916376 197.59771986970685 L 496.68989547038325 193.81107491856676 L 498.4320557491289 196.37622149837136 L 500.17421602787454 195.7654723127036 L 501.91637630662024 201.1400651465798 L 503.6585365853659 209.56840390879478 L 505.4006968641115 213.59934853420197 L 507.14285714285717 210.91205211726384 L 508.8850174216028 213.11074918566777 L 510.62717770034845 209.93485342019545 L 512.3693379790941 210.42345276872965 L 514.1114982578397 213.2328990228013 L 515.8536585365854 217.01954397394138 L 517.5958188153311 225.20358306188928 L 519.3379790940767 225.3257328990228 L 521.0801393728223 227.03583061889253 L 522.822299651568 234.24267100977198 L 524.5644599303137 234.97557003257327 L 526.3066202090592 238.6400651465798 L 528.0487804878048 249.2671009771987 L 529.7909407665505 244.99185667752442 L 531.5331010452962 248.04560260586317 L 533.2752613240418 251.95439739413683 L 535.0174216027874 253.17589576547232 L 536.7595818815331 253.6644951140065 L 538.5017421602788 256.96254071661235 L 540.2439024390244 263.43648208469057 L 541.98606271777 270.64332247557 L 543.7282229965157 277.48371335504885 L 545.4703832752614 276.99511400651465 L 547.212543554007 277.8501628664495 L 548.9547038327526 278.0944625407166 L 550.6968641114983 270.64332247557 L 552.439024390244 274.6742671009772 L 554.1811846689895 276.87296416938113 L 555.9233449477351 277.72801302931595 L 557.6655052264808 280.90390879478826 L 559.4076655052265 284.69055374592836 L 561.1498257839721 281.27035830618894 L 562.8919860627177 290.06514657980455 L 564.6341463414634 288.7214983713355 L 566.3763066202091 290.5537459283388 L 568.1184668989547 291.5309446254072 L 569.8606271777003 294.2182410423453 L 571.602787456446 298.12703583061887 L 573.3449477351917 295.3175895765472 L 575.0871080139373 298.98208469055373 L 576.8292682926829 294.46254071661235 L 578.5714285714286 294.58469055374593 L 580.3135888501743 298.73778501628664 L 582.0557491289198 296.6612377850163 L 583.7979094076654 301.66938110749186 L 585.5400696864111 306.06677524429966 L 587.2822299651568 309.4869706840391 L 589.0243902439024 309.7312703583062 L 590.766550522648 311.5635179153095 L 592.5087108013937 306.79967426710095 L 594.2508710801394 317.3045602605863 L 595.993031358885 317.671009771987 L 597.7351916376306 319.9918566775244 L 599.4773519163763 321.70195439739416 L 601.219512195122 323.65635179153094 L 602.9616724738676 321.8241042345277 L 604.7038327526133 328.0537459283388 L 606.445993031359 332.08469055374593 L 608.1881533101046 336.23778501628664 L 609.9303135888501 338.19218241042347 L 611.6724738675958 340.2687296416938 L 613.4146341463415 342.5895765472313 L 615.1567944250871 342.9560260586319 L 616.8989547038327 344.5439739413681 L 618.6411149825784 346.4983713355049 L 620.3832752613241 350.0407166123779 L 622.1254355400697 323.90065146579803 L 623.8675958188153 220.1954397394137 L 625.609756097561 100 L 627.3519163763067 364.82084690553745 L 629.0940766550523 363.9657980456026 L 630.8362369337979 363.1107491856677 L 632.5783972125436 365.06514657980455 L 634.3205574912893 365.9201954397394 L 636.0627177700349 368.6074918566775 L 637.8048780487804 367.5081433224756 L 639.5470383275261 368.72964169381106 L 641.2891986062718 375.3257328990228 L 643.0313588850174 378.62377850162864 L 644.773519163763 383.7540716612378 L 646.5156794425087 386.07491856677524 L 648.2578397212544 385.34201954397395 L 650 384.4869706840391 L 650 400 Z" /><text  class="poloto_labels poloto_text poloto_title" alignment-baseline="start" text-anchor="middle" font-size="x-large" x="400" y="37.5" >Total players on 2021-09-01</text><text  class="poloto_labels poloto_text poloto_xname" alignment-baseline="start" text-anchor="middle" font-size="x-large" x="400" y="481.25" >Time</text><text  class="poloto_labels poloto_text poloto_yname" alignment-baseline="start" text-anchor="middle" font-size="x-large" transform="rotate(-90,37.5,250)" x="37.5" y="250" >Count</text><line  class="poloto_axis_lines" stroke="black" x1="150" x2="150" y1="400" y2="405" /><text  class="poloto_tick_labels poloto_text" alignment-baseline="start" text-anchor="middle" x="150" y="430" > 00:00:00</text><line  class="poloto_axis_lines" stroke="black" x1="266.14401858304296" x2="266.14401858304296" y1="400" y2="405" /><text  class="poloto_tick_labels poloto_text" alignment-baseline="start" text-anchor="middle" x="266.14401858304296" y="430" > 05:33:20</text><line  class="poloto_axis_lines" stroke="black" x1="382.2880371660859" x2="382.2880371660859" y1="400" y2="405" /><text  class="poloto_tick_labels poloto_text" alignment-baseline="start" text-anchor="middle" x="382.2880371660859" y="430" > 11:06:40</text><line  class="poloto_axis_lines" stroke="black" x1="498.4320557491289" x2="498.4320557491289" y1="400" y2="405" /><text  class="poloto_tick_labels poloto_text" alignment-baseline="start" text-anchor="middle" x="498.4320557491289" y="430" > 16:40:00</text><line  class="poloto_axis_lines" stroke="black" x1="614.5760743321719" x2="614.5760743321719" y1="400" y2="405" /><text  class="poloto_tick_labels poloto_text" alignment-baseline="start" text-anchor="middle" x="614.5760743321719" y="430" > 22:13:20</text><line  class="poloto_axis_lines" stroke="black" x1="150" x2="144" y1="361.5228013029316" y2="361.5228013029316" /><text  class="poloto_tick_labels poloto_text" alignment-baseline="middle" text-anchor="end" x="135" y="361.5228013029316" > 1500</text><line  class="poloto_axis_lines" stroke="black" x1="150" x2="144" y1="300.4478827361563" y2="300.4478827361563" /><text  class="poloto_tick_labels poloto_text" alignment-baseline="middle" text-anchor="end" x="135" y="300.4478827361563" > 2000</text><line  class="poloto_axis_lines" stroke="black" x1="150" x2="144" y1="239.37296416938113" y2="239.37296416938113" /><text  class="poloto_tick_labels poloto_text" alignment-baseline="middle" text-anchor="end" x="135" y="239.37296416938113" > 2500</text><line  class="poloto_axis_lines" stroke="black" x1="150" x2="144" y1="178.29804560260584" y2="178.29804560260584" /><text  class="poloto_tick_labels poloto_text" alignment-baseline="middle" text-anchor="end" x="135" y="178.29804560260584" > 3000</text><line  class="poloto_axis_lines" stroke="black" x1="150" x2="144" y1="117.2231270358306" y2="117.2231270358306" /><text  class="poloto_tick_labels poloto_text" alignment-baseline="middle" text-anchor="end" x="135" y="117.2231270358306" > 3500</text><path  stroke="black" fill="none" class="poloto_axis_lines" style="stroke-dasharray:14.518002322880372;stroke-dashoffset:-0;" d=" M 150 400 L 650 400" /><path  stroke="black" fill="none" class="poloto_axis_lines" style="stroke-dasharray:6.107491856677525;stroke-dashoffset:-38.47719869706842;" d=" M 150 400 L 150 100" /></svg>