<svg class="poloto" width="800" height="500" viewBox="0 0 800 500" xmlns="http://www.w3.org/2000/svg"><style>.poloto { stroke-linecap:round; stroke-linejoin:round; font-family: 'Tahoma', sans-serif; background-color: AliceBlue;} .poloto_scatter{stroke-width:7} .poloto_line{stroke-width:2} .poloto_text{fill: black;} .poloto_axis_lines{stroke: black;stroke-width:3;fill:none;stroke-dasharray:none} .poloto0stroke{stroke:  blue;} .poloto1stroke{stroke:  red;} .poloto2stroke{stroke:  green;} .poloto3stroke{stroke:  gold;} .poloto4stroke{stroke:  aqua;} .poloto5stroke{stroke:  lime;} .poloto6stroke{stroke:  orange;} .poloto7stroke{stroke:  chocolate;} .poloto0fill{fill:blue;} .poloto1fill{fill:red;} .poloto2fill{fill:green;} .poloto3fill{fill:gold;} .poloto4fill{fill:aqua;} .poloto5fill{fill:lime;} .poloto6fill{fill:orange;} .poloto7fill{fill:chocolate;}</style><text  class="poloto_text poloto_legend_text" alignment-baseline="middle" text-anchor="start" font-size="large" x="675" y="100" ></text><path  class="poloto_linefill poloto0fill" d=" M 150 400 L 150 327.31277533039645 L 151.74216027874564 335.5726872246696 L 153.4843205574913 343.17180616740086 L 155.22648083623693 339.5374449339207 L 156.96864111498257 342.84140969162996 L 158.71080139372822 343.9977973568282 L 160.45296167247386 341.85022026431716 L 162.1951219512195 335.40748898678413 L 163.93728222996515 334.4162995594713 L 165.6794425087108 336.56387665198235 L 167.42160278745644 347.63215859030834 L 169.16376306620208 348.7885462555066 L 170.90592334494772 349.61453744493394 L 172.64808362369337 353.2488986784141 L 174.390243902439 354.24008810572684 L 176.13240418118465 357.87444933920705 L 177.8745644599303 358.3700440528635 L 179.61672473867597 358.5352422907489 L 181.3588850174216 362.5 L 183.10104529616726 366.9603524229075 L 184.8432055749129 367.9515418502202 L 186.58536585365854 373.237885462555 L 188.3275261324042 377.86343612334804 L 190.06968641114983 375.22026431718064 L 191.81184668989548 372.08149779735686 L 193.55400696864112 371.09030837004406 L 195.29616724738676 368.77753303964755 L 197.0383275261324 376.2114537444934 L 198.78048780487805 379.6806167400881 L 200.5226480836237 386.94933920704847 L 202.26480836236934 384.47136563876654 L 204.00696864111498 389.09691629955944 L 205.74912891986062 386.94933920704847 L 207.49128919860627 384.30616740088107 L 209.2334494773519 377.69823788546256 L 210.97560975609755 380.01101321585907 L 212.7177700348432 384.47136563876654 L 214.45993031358887 384.1409691629956 L 216.2020905923345 385.29735682819387 L 217.94425087108016 383.81057268722464 L 219.6864111498258 384.47136563876654 L 221.42857142857144 383.97577092511017 L 223.1707317073171 383.6453744493392 L 224.91289198606273 387.6101321585903 L 226.65505226480838 394.05286343612335 L 228.39721254355402 391.74008810572684 L 230.13937282229966 390.91409691629957 L 231.8815331010453 391.24449339207047 L 233.62369337979095 391.9052863436124 L 235.3658536585366 388.931718061674 L 237.10801393728224 387.94052863436127 L 238.85017421602788 388.76651982378854 L 240.59233449477352 388.60132158590307 L 242.33449477351917 388.60132158590307 L 244.0766550522648 388.931718061674 L 245.81881533101046 395.5396475770925 L 247.5609756097561 392.56607929515417 L 249.30313588850174 397.02643171806164 L 251.0452961672474 397.852422907489 L 252.78745644599303 397.852422907489 L 254.52961672473867 394.2180616740088 L 256.2717770034843 391.24449339207047 L 258.01393728222996 394.7136563876652 L 259.7560975609756 395.04405286343615 L 261.49825783972125 394.5484581497798 L 263.2404181184669 397.852422907489 L 264.98257839721254 398.6784140969163 L 266.7247386759582 396.36563876651985 L 268.4668989547038 394.38325991189424 L 270.20905923344947 400 L 271.9512195121951 393.88766519823787 L 273.69337979094075 382.3237885462555 L 275.4355400696864 395.5396475770925 L 277.17770034843204 388.60132158590307 L 278.9198606271777 388.60132158590307 L 280.6620209059233 386.61894273127757 L 282.40418118466897 379.6806167400881 L 284.1463414634146 371.9162995594713 L 285.88850174216026 380.83700440528634 L 287.6306620209059 373.40308370044056 L 289.37282229965155 385.4625550660793 L 291.1149825783972 377.20264317180613 L 292.85714285714283 374.3942731277533 L 294.5993031358885 373.0726872246696 L 296.3414634146342 368.44713656387665 L 298.08362369337976 364.15198237885465 L 299.82578397212546 358.7004405286344 L 301.56794425087105 360.51762114537445 L 303.31010452961675 360.6828193832599 L 305.05226480836234 363.6563876651982 L 306.79442508710804 369.1079295154185 L 308.5365853658536 367.29074889867843 L 310.2787456445993 362.0044052863436 L 312.0209059233449 362.3348017621145 L 313.7630662020906 354.4052863436124 L 315.5052264808362 356.22246696035245 L 317.2473867595819 357.54405286343615 L 318.9895470383275 358.0396475770925 L 320.7317073170732 358.0396475770925 L 322.4738675958188 362.9955947136564 L 324.2160278745645 362.9955947136564 L 325.95818815331006 362.0044052863436 L 327.70034843205576 364.3171806167401 L 329.44250871080135 363.16079295154185 L 331.18466898954705 359.6916299559472 L 332.92682926829264 357.70925110132157 L 334.66898954703834 355.06607929515417 L 336.4111498257839 356.38766519823787 L 338.1533101045296 353.90969162995594 L 339.8954703832752 351.26651982378854 L 341.6376306620209 347.9625550660793 L 343.3797909407665 342.51101321585907 L 345.1219512195122 335.5726872246696 L 346.86411149825784 327.97356828193836 L 348.6062717770035 331.11233480176213 L 350.34843205574913 325 L 352.0905923344948 326.8171806167401 L 353.8327526132404 322.68722466960355 L 355.57491289198606 321.36563876651985 L 357.3170731707317 318.06167400881054 L 359.05923344947735 318.3920704845815 L 360.801393728223 312.9405286343612 L 362.54355400696863 307.98458149779736 L 364.2857142857143 306.3325991189427 L 366.0278745644599 301.70704845814976 L 367.77003484320556 304.35022026431716 L 369.5121951219512 298.89867841409693 L 371.25435540069685 301.70704845814976 L 372.9965156794425 298.568281938326 L 374.73867595818814 295.5947136563877 L 376.4808362369338 288.3259911894273 L 378.2229965156794 286.0132158590308 L 379.96515679442507 277.09251101321587 L 381.7073170731707 275.4405286343612 L 383.44947735191636 277.91850220264314 L 385.191637630662 278.90969162995594 L 386.93379790940764 273.45814977973566 L 388.6759581881533 271.1453744493392 L 390.41811846689893 270.81497797356826 L 392.1602787456446 268.00660792951544 L 393.9024390243902 262.0594713656388 L 395.6445993031359 263.05066079295153 L 397.3867595818815 263.7114537444934 L 399.1289198606272 261.56387665198235 L 400.8710801393728 259.2511013215859 L 402.6132404181185 245.37444933920705 L 404.3554006968641 234.96696035242292 L 406.0975609756097 233.48017621145374 L 407.83972125435537 230.1762114537445 L 409.581881533101 223.56828193832598 L 411.32404181184666 226.70704845814976 L 413.0662020905923 224.22907488986783 L 414.80836236933794 231.0022026431718 L 416.5505226480836 225.22026431718064 L 418.29268292682923 222.41189427312776 L 420.0348432055749 215.63876651982378 L 421.7770034843206 205.23127753303964 L 423.5191637630662 213.49118942731275 L 425.26132404181186 203.579295154185 L 427.0034843205575 198.12775330396477 L 428.74564459930315 197.63215859030834 L 430.4878048780488 189.7026431718062 L 432.22996515679444 186.72907488986783 L 433.9721254355401 182.10352422907488 L 435.7142857142857 177.47797356828193 L 437.45644599303137 182.43392070484583 L 439.198606271777 177.6431718061674 L 440.94076655052265 172.6872246696035 L 442.6829268292683 175.49559471365637 L 444.42508710801394 175.66079295154185 L 446.1672473867596 173.34801762114535 L 447.9094076655052 171.0352422907489 L 449.65156794425087 175.99118942731275 L 451.3937282229965 169.05286343612335 L 453.13588850174216 169.7136563876652 L 454.8780487804878 164.59251101321587 L 456.62020905923345 161.45374449339204 L 458.3623693379791 158.64537444933922 L 460.10452961672473 148.89867841409693 L 461.8466898954704 145.92511013215858 L 463.588850174216 140.80396475770925 L 465.33101045296166 148.23788546255508 L 467.0731707317073 138.8215859030837 L 468.81533101045295 145.7599118942731 L 470.5574912891986 138.65638766519822 L 472.29965156794424 134.8568281938326 L 474.0418118466899 124.44933920704847 L 475.7839721254355 125.60572687224669 L 477.52613240418117 124.28414096916299 L 479.2682926829268 117.67621145374449 L 481.01045296167246 111.23348017621146 L 482.7526132404181 101.6519823788546 L 484.49477351916374 102.9735682819383 L 486.2369337979094 100 L 487.97909407665503 108.09471365638768 L 489.7212543554007 107.26872246696036 L 491.4634146341463 108.2599118942731 L 493.20557491289196 108.2599118942731 L 494.9477351916376 106.6079295154185 L 496.68989547038325 119.98898678414093 L 498.4320557491289 115.36343612334798 L 500.17421602787454 116.85022026431716 L 501.9163763066202 117.84140969162996 L 503.6585365853658 115.36343612334798 L 505.40069686411147 132.37885462555067 L 507.1428571428571 132.04845814977972 L 508.88501742160275 128.90969162995594 L 510.6271777003484 131.2224669603524 L 512.3693379790941 136.83920704845815 L 514.1114982578397 137.16960352422905 L 515.8536585365853 147.24669603524228 L 517.595818815331 145.92511013215858 L 519.3379790940767 179.62555066079295 L 521.0801393728223 181.44273127753303 L 522.822299651568 191.35462555066078 L 524.5644599303137 194.8237885462555 L 526.3066202090592 211.01321585903082 L 528.0487804878048 202.91850220264314 L 529.7909407665505 208.8656387665198 L 531.5331010452962 211.1784140969163 L 533.2752613240418 213.65638766519822 L 535.0174216027874 206.71806167400882 L 536.7595818815331 215.1431718061674 L 538.5017421602788 215.30837004405288 L 540.2439024390244 218.61233480176213 L 541.98606271777 219.76872246696036 L 543.7282229965157 221.91629955947138 L 545.4703832752614 219.60352422907488 L 547.212543554007 220.26431718061673 L 548.9547038327526 222.74229074889865 L 550.6968641114983 228.5242290748899 L 552.439024390244 227.2026431718062 L 554.1811846689895 233.48017621145374 L 555.9233449477351 237.1145374449339 L 557.6655052264808 234.80176211453744 L 559.4076655052265 238.27092511013217 L 561.1498257839721 240.41850220264314 L 562.8919860627177 234.1409691629956 L 564.6341463414634 231.3325991189427 L 566.3763066202091 235.62775330396477 L 568.1184668989547 237.1145374449339 L 569.8606271777003 242.23568281938327 L 571.602787456446 246.53083700440527 L 573.3449477351917 252.6431718061674 L 575.0871080139373 253.30396475770925 L 576.8292682926829 244.7136563876652 L 578.5714285714286 242.0704845814978 L 580.3135888501743 237.61013215859032 L 582.0557491289198 244.7136563876652 L 583.7979094076654 252.31277533039645 L 585.5400696864111 253.46916299559473 L 587.2822299651568 263.5462555066079 L 589.0243902439024 264.37224669603523 L 590.766550522648 264.5374449339207 L 592.5087108013937 270.3193832599119 L 594.2508710801394 271.97136563876654 L 595.993031358885 267.6762114537445 L 597.7351916376306 271.4757709251101 L 599.4773519163763 280.8920704845815 L 601.219512195122 280.56167400881054 L 602.9616724738676 279.24008810572684 L 604.7038327526132 281.38766519823787 L 606.4459930313589 290.4735682819383 L 608.1881533101046 290.80396475770925 L 609.9303135888501 290.3083700440529 L 611.6724738675957 299.06387665198235 L 613.4146341463414 302.0374449339207 L 615.1567944250871 296.25550660792953 L 616.8989547038327 300.715859030837 L 618.6411149825783 303.3590308370044 L 620.383275261324 307.6541850220264 L 622.1254355400697 307.3237885462555 L 623.8675958188153 312.44493392070484 L 625.609756097561 317.73127753303964 L 627.3519163763067 316.5748898678414 L 629.0940766550523 319.2180616740088 L 630.8362369337979 328.46916299559473 L 632.5783972125436 331.6079295154185 L 634.3205574912893 328.63436123348015 L 636.0627177700349 328.9647577092511 L 637.8048780487804 340.36343612334804 L 639.5470383275261 345.48458149779736 L 641.2891986062718 344.32819383259914 L 643.0313588850174 348.29295154185024 L 644.773519163763 350.27533039647574 L 646.5156794425087 348.7885462555066 L 648.2578397212544 349.94493392070484 L 650 351.26651982378854 L 650 400 Z" /><text  class="poloto_labels poloto_text poloto_title" alignment-baseline="start" text-anchor="middle" font-size="x-large" x="400" y="37.5" >Total players on 2021-05-24</text><text  class="poloto_labels poloto_text poloto_xname" alignment-baseline="start" text-anchor="middle" font-size="x-large" x="400" y="481.25" >Time</text><text  class="poloto_labels poloto_text poloto_yname" alignment-baseline="start" text-anchor="middle" font-size="x-large" transform="rotate(-90,37.5,250)" x="37.5" y="250" >Count</text><line  class="poloto_axis_lines" stroke="black" x1="208.0487804878049" x2="208.0487804878049" y1="400" y2="405" /><text  class="poloto_tick_labels poloto_text" alignment-baseline="start" text-anchor="middle" x="208.0487804878049" y="430" > 03:00</text><line  class="poloto_axis_lines" stroke="black" x1="266.1207897793264" x2="266.1207897793264" y1="400" y2="405" /><text  class="poloto_tick_labels poloto_text" alignment-baseline="start" text-anchor="middle" x="266.1207897793264" y="430" > 06:00</text><line  class="poloto_axis_lines" stroke="black" x1="324.19279907084785" x2="324.19279907084785" y1="400" y2="405" /><text  class="poloto_tick_labels poloto_text" alignment-baseline="start" text-anchor="middle" x="324.19279907084785" y="430" > 08:00</text><line  class="poloto_axis_lines" stroke="black" x1="382.2648083623693" x2="382.2648083623693" y1="400" y2="405" /><text  class="poloto_tick_labels poloto_text" alignment-baseline="start" text-anchor="middle" x="382.2648083623693" y="430" > 11:00</text><line  class="poloto_axis_lines" stroke="black" x1="440.3368176538908" x2="440.3368176538908" y1="400" y2="405" /><text  class="poloto_tick_labels poloto_text" alignment-baseline="start" text-anchor="middle" x="440.3368176538908" y="430" > 14:00</text><line  class="poloto_axis_lines" stroke="black" x1="498.4088269454123" x2="498.4088269454123" y1="400" y2="405" /><text  class="poloto_tick_labels poloto_text" alignment-baseline="start" text-anchor="middle" x="498.4088269454123" y="430" > 17:00</text><line  class="poloto_axis_lines" stroke="black" x1="556.4808362369338" x2="556.4808362369338" y1="400" y2="405" /><text  class="poloto_tick_labels poloto_text" alignment-baseline="start" text-anchor="middle" x="556.4808362369338" y="430" > 19:00</text><line  class="poloto_axis_lines" stroke="black" x1="614.5528455284552" x2="614.5528455284552" y1="400" y2="405" /><text  class="poloto_tick_labels poloto_text" alignment-baseline="start" text-anchor="middle" x="614.5528455284552" y="430" > 22:00</text><line  class="poloto_axis_lines" stroke="black" x1="150" x2="144" y1="325.99118942731275" y2="325.99118942731275" /><text  class="poloto_tick_labels poloto_text" alignment-baseline="middle" text-anchor="end" x="135" y="325.99118942731275" > 1500</text><line  class="poloto_axis_lines" stroke="black" x1="150" x2="144" y1="243.3920704845815" y2="243.3920704845815" /><text  class="poloto_tick_labels poloto_text" alignment-baseline="middle" text-anchor="end" x="135" y="243.3920704845815" > 2000</text><line  class="poloto_axis_lines" stroke="black" x1="150" x2="144" y1="160.7929515418502" y2="160.7929515418502" /><text  class="poloto_tick_labels poloto_text" alignment-baseline="middle" text-anchor="end" x="135" y="160.7929515418502" > 2500</text><path  stroke="black" fill="none" class="poloto_axis_lines" style="stroke-dasharray:14.518002322880372;stroke-dashoffset:-58.04878048780488;" d=" M 150 400 L 650 400" /><path  stroke="black" fill="none" class="poloto_axis_lines" style="stroke-dasharray:8.259911894273127;stroke-dashoffset:-74.00881057268722;" d=" M 150 400 L 150 100" /></svg>