<svg class="poloto" width="800" height="500" viewBox="0 0 800 500" xmlns="http://www.w3.org/2000/svg"><style>.poloto { stroke-linecap:round; stroke-linejoin:round; font-family: 'Tahoma', sans-serif; background-color: AliceBlue;} .poloto_scatter{stroke-width:7} .poloto_line{stroke-width:2} .poloto_text{fill: black;} .poloto_axis_lines{stroke: black;stroke-width:3;fill:none;stroke-dasharray:none} .poloto0stroke{stroke:  blue;} .poloto1stroke{stroke:  red;} .poloto2stroke{stroke:  green;} .poloto3stroke{stroke:  gold;} .poloto4stroke{stroke:  aqua;} .poloto5stroke{stroke:  lime;} .poloto6stroke{stroke:  orange;} .poloto7stroke{stroke:  chocolate;} .poloto0fill{fill:blue;} .poloto1fill{fill:red;} .poloto2fill{fill:green;} .poloto3fill{fill:gold;} .poloto4fill{fill:aqua;} .poloto5fill{fill:lime;} .poloto6fill{fill:orange;} .poloto7fill{fill:chocolate;}</style><text  class="poloto_text poloto_legend_text" alignment-baseline="middle" text-anchor="start" font-size="large" x="675" y="100" ></text><path  class="poloto_linefill poloto0fill" d=" M 150 400 L 150 355.0351288056206 L 151.74216027874564 358.5480093676815 L 153.4843205574913 361.70960187353626 L 155.22648083623693 364.344262295082 L 156.96864111498257 369.7892271662763 L 158.71080139372822 365.04683840749414 L 160.45296167247386 370.14051522248246 L 162.1951219512195 369.9648711943794 L 163.93728222996515 374.3559718969555 L 165.6794425087108 377.1662763466042 L 167.42160278745644 374.88290398126463 L 169.16376306620208 378.74707259953163 L 170.90592334494772 382.08430913348946 L 172.64808362369337 381.7330210772834 L 174.390243902439 386.29976580796256 L 176.13240418118465 390.1639344262295 L 177.8745644599303 392.09601873536303 L 179.61672473867597 389.4613583138173 L 181.3588850174216 388.40749414519905 L 183.10104529616726 389.9882903981264 L 184.8432055749129 387.88056206088993 L 186.58536585365854 386.1241217798595 L 188.3275261324042 384.016393442623 L 190.06968641114983 384.36768149882903 L 191.81184668989548 386.1241217798595 L 193.55400696864112 394.3793911007026 L 195.29616724738676 392.7985948477752 L 197.0383275261324 392.4473067915691 L 198.78048780487805 392.9742388758782 L 200.5226480836237 394.02810304449645 L 202.26480836236934 398.94613583138175 L 204.00696864111498 397.1896955503513 L 205.74912891986062 393.8524590163935 L 207.49128919860627 400 L 209.2334494773519 396.4871194379391 L 210.97560975609755 392.271662763466 L 212.7177700348432 391.39344262295083 L 214.45993031358887 392.4473067915691 L 216.2020905923345 389.11007025761126 L 217.94425087108016 390.1639344262295 L 219.6864111498258 388.40749414519905 L 221.42857142857144 387.70491803278685 L 223.1707317073171 382.9625292740047 L 224.91289198606273 377.86885245901635 L 226.65505226480838 372.95081967213116 L 228.39721254355402 369.61358313817334 L 230.13937282229966 366.4519906323185 L 231.8815331010453 367.8571428571429 L 233.62369337979095 366.4519906323185 L 235.3658536585366 370.4918032786885 L 237.10801393728224 368.55971896955504 L 238.85017421602788 369.08665105386416 L 240.59233449477352 367.3302107728337 L 242.33449477351917 371.1943793911007 L 244.0766550522648 375.93676814988294 L 245.81881533101046 380.85480093676813 L 247.5609756097561 378.74707259953163 L 249.30313588850174 375.93676814988294 L 251.0452961672474 377.1662763466042 L 252.78745644599303 376.1124121779859 L 254.52961672473867 372.24824355971896 L 256.2717770034843 370.8430913348946 L 258.01393728222996 369.2622950819672 L 259.7560975609756 362.9391100702576 L 261.49825783972125 362.0608899297424 L 263.2404181184669 364.69555035128803 L 264.98257839721254 367.1545667447307 L 266.7247386759582 366.27634660421546 L 268.4668989547038 371.01873536299763 L 270.20905923344947 368.73536299765806 L 271.9512195121951 368.20843091334893 L 273.69337979094075 368.20843091334893 L 275.4355400696864 367.3302107728337 L 277.17770034843204 365.92505854800936 L 278.91986062717774 363.9929742388759 L 280.6620209059233 366.27634660421546 L 282.404181184669 364.69555035128803 L 284.1463414634146 366.62763466042156 L 285.8885017421603 366.62763466042156 L 287.6306620209059 371.72131147540983 L 289.3728222996516 373.4777517564403 L 291.1149825783972 377.5175644028103 L 292.8571428571429 371.8969555035129 L 294.5993031358885 371.1943793911007 L 296.3414634146342 365.92505854800936 L 298.08362369337976 358.0210772833724 L 299.82578397212546 357.49414519906327 L 301.56794425087105 363.4660421545667 L 303.31010452961675 362.58782201405154 L 305.05226480836234 362.76346604215456 L 306.79442508710804 364.1686182669789 L 308.5365853658536 360.1288056206089 L 310.2787456445993 366.27634660421546 L 312.0209059233449 365.5737704918033 L 313.7630662020906 363.9929742388759 L 315.5052264808362 363.6416861826698 L 317.2473867595819 365.39812646370024 L 318.9895470383275 362.41217798594846 L 320.7317073170732 355.38641686182666 L 322.4738675958188 356.08899297423886 L 324.2160278745645 353.45433255269324 L 325.9581881533101 350.6440281030445 L 327.70034843205576 349.23887587822014 L 329.4425087108014 346.07728337236534 L 331.18466898954705 349.06323185011706 L 332.9268292682927 338.3489461358314 L 334.66898954703834 331.4988290398127 L 336.411149825784 332.2014051522248 L 338.1533101045296 328.86416861826694 L 339.89547038327527 328.1615925058548 L 341.6376306620209 327.8103044496487 L 343.37979094076655 324.2974238875878 L 345.1219512195122 328.6885245901639 L 346.86411149825784 327.6346604215457 L 348.6062717770035 323.0679156908665 L 350.34843205574913 324.6487119437939 L 352.0905923344948 323.7704918032787 L 353.8327526132404 321.4871194379391 L 355.57491289198606 316.39344262295083 L 357.3170731707317 305.5035128805621 L 359.05923344947735 307.9625292740047 L 360.801393728223 303.39578454332553 L 362.54355400696863 299.18032786885243 L 364.2857142857143 302.1662763466042 L 366.0278745644599 293.384074941452 L 367.77003484320556 287.9391100702576 L 369.5121951219512 285.655737704918 L 371.25435540069685 274.59016393442624 L 372.9965156794425 275.11709601873537 L 374.73867595818814 276.69789227166274 L 376.4808362369338 282.3185011709602 L 378.2229965156795 284.60187353629976 L 379.96515679442507 283.1967213114754 L 381.70731707317077 279.85948477751754 L 383.44947735191636 276.3466042154567 L 385.19163763066206 268.79391100702577 L 386.93379790940764 270.72599531615924 L 388.67595818815334 271.60421545667447 L 390.41811846689893 286.7096018735363 L 392.16027874564463 281.615925058548 L 393.9024390243902 271.60421545667447 L 395.6445993031359 267.91569086651054 L 397.3867595818815 268.26697892271665 L 399.1289198606272 267.56440281030444 L 400.8710801393728 269.14519906323187 L 402.6132404181185 262.9976580796253 L 404.3554006968641 260.53864168618264 L 406.0975609756098 261.24121779859485 L 407.8397212543554 258.07962529274005 L 409.58188153310107 248.77049180327867 L 411.3240418118467 242.9742388758782 L 413.06620209059236 239.98829039812648 L 414.808362369338 231.38173302107725 L 416.55052264808364 240.69086651053863 L 418.2926829268293 237.7049180327869 L 420.03484320557493 228.04449648711943 L 421.7770034843206 227.5175644028103 L 423.5191637630662 220.6674473067916 L 425.26132404181186 213.8173302107728 L 427.0034843205575 213.46604215456676 L 428.74564459930315 205.21077283372364 L 430.4878048780488 201.3466042154567 L 432.22996515679444 195.90163934426226 L 433.9721254355401 200.8196721311475 L 435.7142857142857 197.1311475409836 L 437.45644599303137 195.72599531615924 L 439.198606271777 185.01170960187352 L 440.94076655052265 183.7822014051522 L 442.6829268292683 180.79625292740047 L 444.42508710801394 180.79625292740047 L 446.1672473867596 170.25761124121777 L 447.9094076655052 164.8126463700234 L 449.65156794425087 162.17798594847773 L 451.3937282229965 160.59718969555036 L 453.13588850174216 157.61124121779858 L 454.8780487804878 156.55737704918033 L 456.62020905923345 150.93676814988288 L 458.3623693379791 147.07259953161594 L 460.10452961672473 140.92505854800936 L 461.8466898954704 141.27634660421546 L 463.588850174216 140.57377049180326 L 465.33101045296166 135.480093676815 L 467.0731707317073 129.1569086651054 L 468.81533101045295 127.40046838407494 L 470.5574912891986 115.807962529274 L 472.29965156794424 116.33489461358312 L 474.0418118466899 107.90398126463703 L 475.7839721254355 100 L 477.52613240418117 106.6744730679157 L 479.2682926829268 102.8103044496487 L 481.01045296167246 102.98594847775178 L 482.7526132404181 104.91803278688525 L 484.49477351916374 112.9976580796253 L 486.2369337979094 111.94379391100705 L 487.97909407665503 107.0257611241218 L 489.7212543554007 109.30913348946137 L 491.4634146341463 113.3489461358314 L 493.20557491289196 114.92974238875877 L 494.9477351916376 119.14519906323187 L 496.68989547038325 120.19906323185012 L 498.4320557491289 118.26697892271665 L 500.17421602787454 108.60655737704917 L 501.91637630662024 111.06557377049182 L 503.6585365853659 114.92974238875877 L 505.4006968641115 123.00936768149882 L 507.14285714285717 118.79391100702577 L 508.8850174216028 120.19906323185012 L 510.62717770034845 120.55035128805622 L 512.3693379790941 111.06557377049182 L 514.1114982578397 122.8337236533958 L 515.8536585365854 127.22482435597192 L 517.5958188153311 128.1030444964871 L 519.3379790940767 128.62997658079627 L 521.0801393728223 135.1288056206089 L 522.822299651568 130.21077283372364 L 524.5644599303137 127.04918032786884 L 526.3066202090592 129.5081967213115 L 528.0487804878048 137.93911007025758 L 529.7909407665505 132.6697892271663 L 531.5331010452962 148.12646370023418 L 533.2752613240418 151.99063231850118 L 535.0174216027874 155.50351288056208 L 536.7595818815331 158.4894613583138 L 538.5017421602788 160.42154566744728 L 540.2439024390244 169.55503512880563 L 541.98606271777 183.60655737704917 L 543.7282229965157 189.57845433255267 L 545.4703832752614 185.53864168618264 L 547.212543554007 195.72599531615924 L 548.9547038327526 198.71194379391102 L 550.6968641114983 190.63231850117097 L 552.439024390244 191.68618266978922 L 554.1811846689895 198.36065573770492 L 555.9233449477351 198.88758782201404 L 557.6655052264808 200.2927400468384 L 559.4076655052265 201.87353629976582 L 561.1498257839721 204.3325526932084 L 562.8919860627177 206.615925058548 L 564.6341463414634 207.3185011709602 L 566.3763066202091 214.1686182669789 L 568.1184668989547 218.73536299765806 L 569.8606271777003 224.0046838407494 L 571.602787456446 226.8149882903981 L 573.3449477351917 229.09836065573768 L 575.0871080139373 222.77517564402808 L 576.8292682926829 221.89695550351286 L 578.5714285714286 222.42388758782204 L 580.3135888501743 230.327868852459 L 582.0557491289198 232.25995316159248 L 583.7979094076654 238.23185011709603 L 585.5400696864111 249.2974238875878 L 587.2822299651568 253.68852459016392 L 589.0243902439024 245.25761124121777 L 590.766550522648 249.6487119437939 L 592.5087108013937 260.1873536299766 L 594.2508710801394 256.6744730679157 L 595.993031358885 264.05152224824354 L 597.7351916376306 281.44028103044496 L 599.4773519163763 266.6861826697892 L 601.219512195122 278.8056206088993 L 602.9616724738676 270.90163934426226 L 604.7038327526133 275.2927400468384 L 606.445993031359 273.88758782201404 L 608.1881533101046 272.4824355971897 L 609.9303135888501 281.615925058548 L 611.6724738675958 279.3325526932084 L 613.4146341463415 281.26463700234194 L 615.1567944250871 290.39812646370024 L 616.8989547038327 295.1405152224824 L 618.6411149825784 305.152224824356 L 620.3832752613241 308.3138173302108 L 622.1254355400697 325.3512880562061 L 623.8675958188153 325.3512880562061 L 625.609756097561 314.2857142857143 L 627.3519163763067 325.5269320843091 L 629.0940766550523 325.70257611241215 L 630.8362369337979 327.6346604215457 L 632.5783972125436 337.9976580796253 L 634.3205574912893 343.9695550351288 L 636.0627177700349 346.95550351288057 L 637.8048780487804 356.26463700234194 L 639.5470383275261 351.6978922716628 L 641.2891986062718 359.77751756440284 L 643.0313588850174 360.655737704918 L 644.773519163763 368.20843091334893 L 646.5156794425087 368.55971896955504 L 648.2578397212544 362.0608899297424 L 650 359.95316159250586 L 650 400 Z" /><text  class="poloto_labels poloto_text poloto_title" alignment-baseline="start" text-anchor="middle" font-size="x-large" x="400" y="37.5" >Total players on 2021-09-02</text><text  class="poloto_labels poloto_text poloto_xname" alignment-baseline="start" text-anchor="middle" font-size="x-large" x="400" y="481.25" >Time</text><text  class="poloto_labels poloto_text poloto_yname" alignment-baseline="start" text-anchor="middle" font-size="x-large" transform="rotate(-90,37.5,250)" x="37.5" y="250" >Count</text><line  class="poloto_axis_lines" stroke="black" x1="150" x2="150" y1="400" y2="405" /><text  class="poloto_tick_labels poloto_text" alignment-baseline="start" text-anchor="middle" x="150" y="430" > 00:00</text><line  class="poloto_axis_lines" stroke="black" x1="266.14401858304296" x2="266.14401858304296" y1="400" y2="405" /><text  class="poloto_tick_labels poloto_text" alignment-baseline="start" text-anchor="middle" x="266.14401858304296" y="430" > 06:00</text><line  class="poloto_axis_lines" stroke="black" x1="382.2880371660859" x2="382.2880371660859" y1="400" y2="405" /><text  class="poloto_tick_labels poloto_text" alignment-baseline="start" text-anchor="middle" x="382.2880371660859" y="430" > 11:00</text><line  class="poloto_axis_lines" stroke="black" x1="498.4320557491289" x2="498.4320557491289" y1="400" y2="405" /><text  class="poloto_tick_labels poloto_text" alignment-baseline="start" text-anchor="middle" x="498.4320557491289" y="430" > 17:00</text><line  class="poloto_axis_lines" stroke="black" x1="614.5760743321719" x2="614.5760743321719" y1="400" y2="405" /><text  class="poloto_tick_labels poloto_text" alignment-baseline="start" text-anchor="middle" x="614.5760743321719" y="430" > 22:00</text><line  class="poloto_axis_lines" stroke="black" x1="150" x2="144" y1="321.135831381733" y2="321.135831381733" /><text  class="poloto_tick_labels poloto_text" alignment-baseline="middle" text-anchor="end" x="135" y="321.135831381733" > 1500</text><line  class="poloto_axis_lines" stroke="black" x1="150" x2="144" y1="233.31381733021078" y2="233.31381733021078" /><text  class="poloto_tick_labels poloto_text" alignment-baseline="middle" text-anchor="end" x="135" y="233.31381733021078" > 2000</text><line  class="poloto_axis_lines" stroke="black" x1="150" x2="144" y1="145.4918032786885" y2="145.4918032786885" /><text  class="poloto_tick_labels poloto_text" alignment-baseline="middle" text-anchor="end" x="135" y="145.4918032786885" > 2500</text><path  stroke="black" fill="none" class="poloto_axis_lines" style="stroke-dasharray:14.518002322880372;stroke-dashoffset:-0;" d=" M 150 400 L 650 400" /><path  stroke="black" fill="none" class="poloto_axis_lines" style="stroke-dasharray:8.782201405152225;stroke-dashoffset:-78.864168618267;" d=" M 150 400 L 150 100" /></svg>