<svg class="poloto" width="800" height="500" viewBox="0 0 800 500" xmlns="http://www.w3.org/2000/svg"><style>.poloto { stroke-linecap:round; stroke-linejoin:round; font-family: 'Tahoma', sans-serif; background-color: AliceBlue;} .poloto_scatter{stroke-width:7} .poloto_line{stroke-width:2} .poloto_text{fill: black;} .poloto_axis_lines{stroke: black;stroke-width:3;fill:none;stroke-dasharray:none} .poloto0stroke{stroke:  blue;} .poloto1stroke{stroke:  red;} .poloto2stroke{stroke:  green;} .poloto3stroke{stroke:  gold;} .poloto4stroke{stroke:  aqua;} .poloto5stroke{stroke:  lime;} .poloto6stroke{stroke:  orange;} .poloto7stroke{stroke:  chocolate;} .poloto0fill{fill:blue;} .poloto1fill{fill:red;} .poloto2fill{fill:green;} .poloto3fill{fill:gold;} .poloto4fill{fill:aqua;} .poloto5fill{fill:lime;} .poloto6fill{fill:orange;} .poloto7fill{fill:chocolate;}</style><text  class="poloto_text poloto_legend_text" alignment-baseline="middle" text-anchor="start" font-size="large" x="675" y="100" ></text><path  class="poloto_linefill poloto0fill" d=" M 150 400 L 150 351.8852894317578 L 151.74216027874564 349.4954859267127 L 153.4843205574913 353.9564524694636 L 155.22648083623693 354.4344131704726 L 156.96864111498257 359.05469994689327 L 158.71080139372822 359.69198088157196 L 160.45296167247386 360.48858204992035 L 162.1951219512195 362.87838555496546 L 163.93728222996515 357.78013807753587 L 165.6794425087108 360.8072225172597 L 167.42160278745644 363.9936271906532 L 169.16376306620208 363.51566648964416 L 170.90592334494772 369.2511949017525 L 172.64808362369337 365.2681890600106 L 174.390243902439 361.92246415294744 L 176.13240418118465 362.0817843866171 L 177.8745644599303 363.67498672331385 L 179.61672473867597 367.1800318640467 L 181.3588850174216 362.40042485395645 L 183.10104529616726 362.55974508762614 L 184.8432055749129 363.03770578863515 L 186.58536585365854 362.40042485395645 L 188.3275261324042 366.7020711630377 L 190.06968641114983 366.7020711630377 L 191.81184668989548 369.5698353690919 L 193.55400696864112 375.78332448220925 L 195.29616724738676 378.49176845459374 L 197.0383275261324 379.12904938927244 L 198.78048780487805 381.04089219330854 L 200.5226480836237 381.04089219330854 L 202.26480836236934 381.51885289431755 L 204.00696864111498 386.7764206054169 L 205.74912891986062 380.0849707912905 L 207.49128919860627 379.12904938927244 L 209.2334494773519 377.53584705257566 L 210.97560975609755 376.57992565055764 L 212.7177700348432 373.71216144450347 L 214.45993031358887 378.6510886882634 L 216.2020905923345 376.89856611789696 L 217.94425087108016 376.7392458842273 L 219.6864111498258 378.33244822092405 L 221.42857142857144 377.05788635156665 L 223.1707317073171 382.4747742963356 L 224.91289198606273 379.60701009028145 L 226.65505226480838 379.44768985661176 L 228.39721254355402 380.5629314922995 L 230.13937282229966 381.51885289431755 L 231.8815331010453 379.12904938927244 L 233.62369337979095 380.88157195963885 L 235.3658536585366 383.9086563993627 L 237.10801393728224 380.0849707912905 L 238.85017421602788 383.1120552310143 L 240.59233449477352 381.51885289431755 L 242.33449477351917 379.12904938927244 L 244.0766550522648 376.42060541688795 L 245.81881533101046 375.4646840148699 L 247.5609756097561 375.78332448220925 L 249.30313588850174 375.62400424853956 L 251.0452961672474 379.76633032395114 L 252.78745644599303 387.5730217737653 L 254.52961672473867 377.85448751991504 L 256.2717770034843 378.81040892193306 L 258.01393728222996 384.7052575677111 L 259.7560975609756 387.4137015400956 L 261.49825783972125 386.1391396707382 L 263.2404181184669 383.4306956983537 L 264.98257839721254 387.2543813064259 L 266.7247386759582 391.55602761550716 L 268.4668989547038 391.71534784917685 L 270.20905923344947 399.0440785979819 L 271.9512195121951 395.69835369091874 L 273.69337979094075 393.94583112055227 L 275.4355400696864 399.0440785979819 L 277.17770034843204 400 L 278.91986062717774 394.74243228890066 L 280.6620209059233 394.90175252257035 L 282.404181184669 392.6712692511949 L 284.1463414634146 390.28146574614976 L 285.8885017421603 384.5459373340414 L 287.6306620209059 382.31545406266594 L 289.3728222996516 373.5528412108338 L 291.1149825783972 367.8173127987254 L 292.8571428571429 367.02071163037704 L 294.5993031358885 363.51566648964416 L 296.3414634146342 360.96654275092936 L 298.08362369337976 361.60382368560806 L 299.82578397212546 357.6208178438662 L 301.56794425087105 357.9394583112055 L 303.31010452961675 360.0106213489113 L 305.05226480836234 356.9835369091875 L 306.79442508710804 354.4344131704726 L 308.5365853658536 354.9123738714817 L 310.2787456445993 358.5767392458842 L 312.0209059233449 357.78013807753587 L 313.7630662020906 358.0987785448752 L 315.5052264808362 360.96654275092936 L 317.2473867595819 359.05469994689327 L 318.9895470383275 360.169941582581 L 320.7317073170732 360.48858204992035 L 322.4738675958188 367.8173127987254 L 324.2160278745645 357.3021773765268 L 325.9581881533101 352.2039298990972 L 327.70034843205576 355.231014338821 L 329.4425087108014 356.3462559745088 L 331.18466898954705 356.5055762081784 L 332.9268292682927 355.231014338821 L 334.66898954703834 355.231014338821 L 336.411149825784 355.231014338821 L 338.1533101045296 358.41741901221457 L 339.89547038327527 354.9123738714817 L 341.6376306620209 350.6107275624004 L 343.37979094076655 345.99044078597984 L 345.1219512195122 346.94636218799786 L 346.86411149825784 353.4784917684546 L 348.6062717770035 345.03451938396177 L 350.34843205574913 338.3430695698354 L 352.0905923344948 335.3159851301115 L 353.8327526132404 336.43122676579924 L 355.57491289198606 333.72278279341475 L 357.3170731707317 328.62453531598516 L 359.05923344947735 323.6856080722252 L 360.801393728223 326.0754115772703 L 362.54355400696863 324.9601699415826 L 364.2857142857143 322.2517259691981 L 366.0278745644599 321.77376526818904 L 367.77003484320556 320.817843866171 L 369.5121951219512 319.70260223048325 L 371.25435540069685 321.77376526818904 L 372.9965156794425 310.3027084439724 L 374.73867595818814 306.9569835369092 L 376.4808362369338 307.4349442379182 L 378.2229965156795 308.8688263409453 L 379.96515679442507 305.68242166755175 L 381.70731707317077 299.6282527881041 L 383.44947735191636 303.61125862984596 L 385.19163763066206 292.1402018056293 L 386.93379790940764 290.06903876792353 L 388.67595818815334 284.01486988847586 L 390.41811846689893 282.1030270844397 L 392.16027874564463 282.58098778544877 L 393.9024390243902 280.6691449814126 L 395.6445993031359 271.90653212958046 L 397.3867595818815 269.676048858205 L 399.1289198606272 270.3133297928837 L 400.8710801393728 266.4896441848115 L 402.6132404181185 264.259160913436 L 404.3554006968641 257.24907063197026 L 406.0975609756098 251.6728624535316 L 407.8397212543554 253.90334572490707 L 409.58188153310107 253.26606479022837 L 411.3240418118467 243.70685077004777 L 413.06620209059236 245.77801380775355 L 414.808362369338 243.70685077004777 L 416.55052264808364 240.99840679766328 L 418.2926829268293 241.31704726500266 L 420.03484320557493 223.6325013276686 L 421.7770034843206 223.79182156133828 L 423.5191637630662 223.31386086032927 L 425.26132404181186 230.32395114179502 L 427.0034843205575 225.86298459904407 L 428.74564459930315 214.71056824216674 L 430.4878048780488 218.3749336165693 L 432.22996515679444 210.09028146574616 L 433.9721254355401 208.9750398300584 L 435.7142857142857 204.9920339883165 L 437.45644599303137 208.65639936271907 L 439.198606271777 211.04620286776418 L 440.94076655052265 196.38874137015398 L 442.6829268292683 190.493892724376 L 444.42508710801394 184.28040361125863 L 446.1672473867596 175.3584705257568 L 447.9094076655052 172.01274561869354 L 449.65156794425087 166.43653744025488 L 451.3937282229965 161.8162506638343 L 453.13588850174216 161.49761019649492 L 454.8780487804878 159.7450876261285 L 456.62020905923345 152.57567711099307 L 458.3623693379791 146.6808284652151 L 460.10452961672473 139.51141795007965 L 461.8466898954704 137.59957514604355 L 463.588850174216 135.36909187466807 L 465.33101045296166 142.6978226234732 L 467.0731707317073 130.27084439723842 L 468.81533101045295 122.14551248008496 L 470.5574912891986 119.43706850770047 L 472.29965156794424 110.19649495485925 L 474.0418118466899 100 L 475.7839721254355 109.08125331917154 L 477.52613240418117 103.98300584174189 L 479.2682926829268 104.93892724375996 L 481.01045296167246 109.08125331917154 L 482.7526132404181 110.67445565586831 L 484.49477351916374 118.79978757302177 L 486.2369337979094 104.93892724375996 L 487.97909407665503 111.78969729155602 L 489.7212543554007 112.26765799256503 L 491.4634146341463 117.8438661710037 L 493.20557491289196 121.03027084439725 L 494.9477351916376 115.77270313329791 L 496.68989547038325 111.47105682421665 L 498.4320557491289 118.00318640467339 L 500.17421602787454 120.71163037705787 L 501.91637630662024 118.32182687201276 L 503.6585365853659 121.98619224641527 L 505.4006968641115 122.78279341476366 L 507.14285714285717 129.4742432288901 L 508.8850174216028 144.6096654275093 L 510.62717770034845 139.19277748274033 L 512.3693379790941 158.94848645778012 L 514.1114982578397 154.80616038236855 L 515.8536585365854 157.35528412108334 L 517.5958188153311 158.6298459904408 L 519.3379790940767 159.1078066914498 L 521.0801393728223 155.76208178438662 L 522.822299651568 156.24004248539563 L 524.5644599303137 168.82634094530005 L 526.3066202090592 175.1991502920871 L 528.0487804878048 178.70419543281997 L 529.7909407665505 187.46680828465213 L 531.5331010452962 187.62612851832182 L 533.2752613240418 190.81253319171532 L 535.0174216027874 192.4057355284121 L 536.7595818815331 189.2193308550186 L 538.5017421602788 197.02602230483268 L 540.2439024390244 193.36165693043017 L 541.98606271777 193.0430164630908 L 543.7282229965157 189.8566117896973 L 545.4703832752614 193.20233669676048 L 547.212543554007 195.11417950079658 L 548.9547038327526 198.77854487519915 L 550.6968641114983 207.22251725969198 L 552.439024390244 212.95804567180033 L 554.1811846689895 210.2496016994158 L 555.9233449477351 211.84280403611257 L 557.6655052264808 218.21561338289962 L 559.4076655052265 214.39192777482737 L 561.1498257839721 215.34784917684544 L 562.8919860627177 212.63940520446096 L 564.6341463414634 215.82580987785445 L 566.3763066202091 217.7376526818906 L 568.1184668989547 220.60541688794478 L 569.8606271777003 221.5613382899628 L 571.602787456446 217.25969198088154 L 573.3449477351917 213.75464684014867 L 575.0871080139373 217.25969198088154 L 576.8292682926829 218.69357408390863 L 578.5714285714286 239.88316516197557 L 580.3135888501743 212.32076473712158 L 582.0557491289198 214.39192777482737 L 583.7979094076654 216.30377057886352 L 585.5400696864111 224.2697822623473 L 587.2822299651568 221.5613382899628 L 589.0243902439024 228.41210833775887 L 590.766550522648 225.5443441317047 L 592.5087108013937 227.77482740308017 L 594.2508710801394 235.740839086564 L 595.993031358885 234.4662772172066 L 597.7351916376306 240.99840679766328 L 599.4773519163763 242.43228890069037 L 601.219512195122 245.61869357408392 L 602.9616724738676 250.71694105151352 L 604.7038327526133 251.99150292087091 L 606.445993031359 255.01858736059478 L 608.1881533101046 252.46946362187998 L 609.9303135888501 257.40839086563994 L 611.6724738675958 260.43547530536375 L 613.4146341463415 267.4455655868295 L 615.1567944250871 271.26925119490176 L 616.8989547038327 269.83536909187467 L 618.6411149825784 273.34041423260754 L 620.3832752613241 272.38449283058947 L 622.1254355400697 278.4386617100372 L 623.8675958188153 285.13011152416357 L 625.609756097561 284.3335103558152 L 627.3519163763067 292.777482740308 L 629.0940766550523 295.1672862453532 L 630.8362369337979 296.2825278810409 L 632.5783972125436 297.716409984068 L 634.3205574912893 300.10621348911314 L 636.0627177700349 328.62453531598516 L 637.8048780487804 324.9601699415826 L 639.5470383275261 329.10249601699417 L 641.2891986062718 307.11630377057884 L 643.0313588850174 311.2586298459904 L 644.773519163763 314.2857142857143 L 646.5156794425087 321.9330855018587 L 648.2578397212544 321.77376526818904 L 650 321.13648433351034 L 650 400 Z" /><text  class="poloto_labels poloto_text poloto_title" alignment-baseline="start" text-anchor="middle" font-size="x-large" x="400" y="37.5" >Total players on 2021-10-20</text><text  class="poloto_labels poloto_text poloto_xname" alignment-baseline="start" text-anchor="middle" font-size="x-large" x="400" y="481.25" >Time</text><text  class="poloto_labels poloto_text poloto_yname" alignment-baseline="start" text-anchor="middle" font-size="x-large" transform="rotate(-90,37.5,250)" x="37.5" y="250" >Count</text><line  class="poloto_axis_lines" stroke="black" x1="150" x2="150" y1="400" y2="405" /><text  class="poloto_tick_labels poloto_text" alignment-baseline="start" text-anchor="middle" x="150" y="430" > 00:00</text><line  class="poloto_axis_lines" stroke="black" x1="266.14401858304296" x2="266.14401858304296" y1="400" y2="405" /><text  class="poloto_tick_labels poloto_text" alignment-baseline="start" text-anchor="middle" x="266.14401858304296" y="430" > 06:00</text><line  class="poloto_axis_lines" stroke="black" x1="382.2880371660859" x2="382.2880371660859" y1="400" y2="405" /><text  class="poloto_tick_labels poloto_text" alignment-baseline="start" text-anchor="middle" x="382.2880371660859" y="430" > 11:00</text><line  class="poloto_axis_lines" stroke="black" x1="498.4320557491289" x2="498.4320557491289" y1="400" y2="405" /><text  class="poloto_tick_labels poloto_text" alignment-baseline="start" text-anchor="middle" x="498.4320557491289" y="430" > 17:00</text><line  class="poloto_axis_lines" stroke="black" x1="614.5760743321719" x2="614.5760743321719" y1="400" y2="405" /><text  class="poloto_tick_labels poloto_text" alignment-baseline="start" text-anchor="middle" x="614.5760743321719" y="430" > 22:00</text><line  class="poloto_axis_lines" stroke="black" x1="150" x2="144" y1="360.8072225172597" y2="360.8072225172597" /><text  class="poloto_tick_labels poloto_text" alignment-baseline="middle" text-anchor="end" x="135" y="360.8072225172597" > 1000</text><line  class="poloto_axis_lines" stroke="black" x1="150" x2="144" y1="281.1471056824217" y2="281.1471056824217" /><text  class="poloto_tick_labels poloto_text" alignment-baseline="middle" text-anchor="end" x="135" y="281.1471056824217" > 1500</text><line  class="poloto_axis_lines" stroke="black" x1="150" x2="144" y1="201.48698884758363" y2="201.48698884758363" /><text  class="poloto_tick_labels poloto_text" alignment-baseline="middle" text-anchor="end" x="135" y="201.48698884758363" > 2000</text><line  class="poloto_axis_lines" stroke="black" x1="150" x2="144" y1="121.82687201274564" y2="121.82687201274564" /><text  class="poloto_tick_labels poloto_text" alignment-baseline="middle" text-anchor="end" x="135" y="121.82687201274564" > 2500</text><path  stroke="black" fill="none" class="poloto_axis_lines" style="stroke-dasharray:14.518002322880372;stroke-dashoffset:-0;" d=" M 150 400 L 650 400" /><path  stroke="black" fill="none" class="poloto_axis_lines" style="stroke-dasharray:7.966011683483802;stroke-dashoffset:-39.19277748274031;" d=" M 150 400 L 150 100" /></svg>