<svg class="poloto" width="800" height="500" viewBox="0 0 800 500" xmlns="http://www.w3.org/2000/svg"><style>.poloto { stroke-linecap:round; stroke-linejoin:round; font-family: 'Tahoma', sans-serif; background-color: AliceBlue;} .poloto_scatter{stroke-width:7} .poloto_line{stroke-width:2} .poloto_text{fill: black;} .poloto_axis_lines{stroke: black;stroke-width:3;fill:none;stroke-dasharray:none} .poloto0stroke{stroke:  blue;} .poloto1stroke{stroke:  red;} .poloto2stroke{stroke:  green;} .poloto3stroke{stroke:  gold;} .poloto4stroke{stroke:  aqua;} .poloto5stroke{stroke:  lime;} .poloto6stroke{stroke:  orange;} .poloto7stroke{stroke:  chocolate;} .poloto0fill{fill:blue;} .poloto1fill{fill:red;} .poloto2fill{fill:green;} .poloto3fill{fill:gold;} .poloto4fill{fill:aqua;} .poloto5fill{fill:lime;} .poloto6fill{fill:orange;} .poloto7fill{fill:chocolate;}</style><text  class="poloto_text poloto_legend_text" alignment-baseline="middle" text-anchor="start" font-size="large" x="675" y="100" ></text><path  class="poloto_linefill poloto0fill" d=" M 150 400 L 150 349.66996699669966 L 151.74216027874564 348.019801980198 L 153.4843205574913 348.5148514851485 L 155.22648083623693 347.68976897689765 L 156.96864111498257 353.1353135313531 L 158.71080139372822 353.1353135313531 L 160.45296167247386 351.98019801980195 L 162.1951219512195 353.1353135313531 L 163.93728222996515 359.2409240924093 L 165.6794425087108 364.6864686468647 L 167.42160278745644 368.81188118811883 L 169.16376306620208 379.70297029702965 L 170.90592334494772 380.36303630363034 L 172.64808362369337 384.32343234323434 L 174.390243902439 386.7986798679868 L 176.13240418118465 386.63366336633663 L 177.8745644599303 387.4587458745874 L 179.61672473867597 387.7887788778878 L 181.3588850174216 388.61386138613864 L 183.10104529616726 391.9141914191419 L 184.8432055749129 395.21452145214516 L 186.58536585365854 390.0990099009901 L 188.3275261324042 386.963696369637 L 190.06968641114983 385.6435643564356 L 191.81184668989548 380.36303630363034 L 193.55400696864112 384.32343234323434 L 195.29616724738676 388.1188118811881 L 197.0383275261324 388.61386138613864 L 198.78048780487805 392.73927392739273 L 200.5226480836237 400 L 202.26480836236934 395.21452145214516 L 204.00696864111498 392.73927392739273 L 205.74912891986062 390.26402640264024 L 207.49128919860627 390.7590759075907 L 209.2334494773519 387.4587458745874 L 210.97560975609755 385.973597359736 L 212.7177700348432 388.9438943894389 L 214.45993031358887 385.1485148514852 L 216.2020905923345 387.1287128712871 L 217.94425087108016 382.34323432343234 L 219.6864111498258 383.4983498349835 L 221.42857142857144 382.8382838283828 L 223.1707317073171 383.3333333333333 L 224.91289198606273 377.062706270627 L 226.65505226480838 376.2376237623762 L 228.39721254355402 371.78217821782175 L 230.13937282229966 367.986798679868 L 231.8815331010453 365.5115511551155 L 233.62369337979095 364.6864686468647 L 235.3658536585366 361.2211221122112 L 237.10801393728224 352.9702970297029 L 238.85017421602788 351.1551155115511 L 240.59233449477352 349.83498349834986 L 242.33449477351917 348.019801980198 L 244.0766550522648 353.46534653465346 L 245.81881533101046 352.9702970297029 L 247.5609756097561 357.4257425742574 L 249.30313588850174 353.3003300330033 L 251.0452961672474 353.1353135313531 L 252.78745644599303 353.46534653465346 L 254.52961672473867 348.5148514851485 L 256.2717770034843 353.79537953795375 L 258.01393728222996 354.2904290429043 L 259.7560975609756 354.7854785478548 L 261.49825783972125 354.2904290429043 L 263.2404181184669 345.7095709570957 L 264.9883855981417 340.09900990099004 L 266.7247386759582 338.28382838283824 L 268.4668989547038 338.9438943894389 L 270.20905923344947 342.24422442244224 L 271.9512195121951 339.6039603960396 L 273.69337979094075 336.6336633663366 L 275.44134727061555 332.3432343234323 L 277.17770034843204 332.50825082508254 L 278.9198606271777 329.2079207920792 L 280.6620209059233 327.062706270627 L 282.40418118466897 331.18811881188117 L 284.1463414634146 333.33333333333337 L 285.88850174216026 331.6831683168317 L 287.6306620209059 323.92739273927396 L 289.37282229965155 317.82178217821786 L 291.1149825783972 314.6864686468647 L 292.85714285714283 314.6864686468647 L 294.5993031358885 318.15181518151815 L 296.3414634146342 319.4719471947195 L 298.08362369337976 313.6963696369637 L 299.82578397212546 310.0660066006601 L 301.56794425087105 311.0561056105611 L 303.31010452961675 310.23102310231025 L 305.05226480836234 305.28052805280527 L 306.79442508710804 308.2508250825082 L 308.5365853658536 304.7854785478547 L 310.2787456445993 305.28052805280527 L 312.0209059233449 303.6303630363036 L 313.7630662020906 298.5148514851485 L 315.5052264808362 294.38943894389433 L 317.253193960511 286.79867986798683 L 318.9895470383275 288.7788778877888 L 320.7317073170732 288.28382838283824 L 322.4738675958188 280.5280528052805 L 324.2160278745645 283.00330033003297 L 325.95818815331006 281.51815181518145 L 327.70034843205576 282.17821782178214 L 329.44250871080135 281.3531353135313 L 331.18466898954705 279.2079207920792 L 332.92682926829264 277.88778877887785 L 334.66898954703834 278.3828382838284 L 336.4111498257839 277.55775577557756 L 338.1533101045296 272.2772277227723 L 339.8954703832752 276.5676567656766 L 341.6376306620209 267.82178217821786 L 343.3797909407665 266.33663366336634 L 345.1219512195122 266.8316831683168 L 346.86411149825784 267.49174917491746 L 348.6062717770035 268.81188118811883 L 350.34843205574913 270.29702970297024 L 352.0905923344948 263.86138613861385 L 353.8327526132404 258.2508250825082 L 355.57491289198606 262.5412541254125 L 357.3170731707317 268.15181518151815 L 359.05923344947735 260.23102310231025 L 360.801393728223 259.075907590759 L 362.54355400696863 262.5412541254125 L 364.2857142857143 257.42574257425747 L 366.0278745644599 256.60066006600664 L 367.77003484320556 263.20132013201317 L 369.5121951219512 247.68976897689768 L 371.25435540069685 251.3201320132013 L 372.9965156794425 247.1947194719472 L 374.73867595818814 240.9240924092409 L 376.4808362369338 234.65346534653466 L 378.2229965156794 230.5280528052805 L 379.96515679442507 236.46864686468646 L 381.7073170731707 229.86798679867988 L 383.44947735191636 241.0891089108911 L 385.191637630662 229.2079207920792 L 386.93379790940764 222.6072607260726 L 388.6759581881533 226.23762376237622 L 390.41811846689893 228.05280528052802 L 392.1602787456446 224.25742574257427 L 393.9024390243902 225.24752475247524 L 395.6445993031359 221.2871287128713 L 397.3867595818815 215.67656765676568 L 399.1289198606272 216.8316831683168 L 400.8710801393728 214.85148514851485 L 402.6132404181185 213.53135313531354 L 404.3554006968641 214.35643564356437 L 406.0975609756097 217.16171617161714 L 407.83972125435537 219.4719471947195 L 409.581881533101 219.4719471947195 L 411.32404181184666 224.58745874587456 L 413.0662020905923 203.3003300330033 L 414.80836236933794 209.73597359735973 L 416.5505226480836 202.6402640264026 L 418.29268292682923 196.6996699669967 L 420.0348432055749 197.85478547854783 L 421.7770034843206 191.41914191419139 L 423.5191637630662 186.96369636963695 L 425.26132404181186 181.023102310231 L 427.0034843205575 184.65346534653466 L 428.74564459930315 186.30363036303632 L 430.4878048780488 192.24422442244222 L 432.22996515679444 182.5082508250825 L 433.9721254355401 175.24752475247524 L 435.7142857142857 174.75247524752476 L 437.45644599303137 168.97689768976895 L 439.198606271777 168.97689768976895 L 440.94076655052265 158.9108910891089 L 442.6829268292683 158.9108910891089 L 444.42508710801394 160.56105610561056 L 446.1672473867596 169.3069306930693 L 447.9094076655052 165.016501650165 L 449.65156794425087 167.82178217821783 L 451.3937282229965 151.81518151815183 L 453.13588850174216 158.08580858085807 L 454.8780487804878 143.5643564356435 L 456.62020905923345 135.14851485148517 L 458.3623693379791 131.18811881188117 L 460.10452961672473 132.67326732673268 L 461.8466898954704 123.92739273927396 L 463.588850174216 118.15181518151815 L 465.33101045296166 116.83168316831677 L 467.0731707317073 110.72607260726068 L 468.81533101045295 109.40594059405942 L 470.5574912891986 110.39603960396039 L 472.29965156794424 102.97029702970292 L 474.0418118466899 111.8811881188119 L 475.7839721254355 107.75577557755776 L 477.52613240418117 105.44554455445541 L 479.2682926829268 103.960396039604 L 481.01045296167246 105.11551155115512 L 482.7526132404181 100.33003300330029 L 484.49477351916374 104.45544554455444 L 486.2369337979094 100 L 487.97909407665503 100.16501650165014 L 489.7212543554007 100.82508250825083 L 491.4634146341463 107.75577557755776 L 493.20557491289196 103.30033003300332 L 494.9477351916376 105.44554455445541 L 496.68989547038325 111.71617161716176 L 498.4320557491289 123.43234323432341 L 500.17421602787454 125.41254125412536 L 501.9163763066202 134.1584158415842 L 503.6585365853658 141.08910891089113 L 505.4065040650406 140.75907590759073 L 507.1428571428571 148.5148514851485 L 508.88501742160275 148.18481848184817 L 510.6271777003484 164.02640264026402 L 512.3693379790941 176.8976897689769 L 514.1114982578397 169.63696369636963 L 515.8536585365853 172.27722772277227 L 517.595818815331 169.63696369636963 L 519.3379790940767 169.4719471947195 L 521.0801393728223 188.6138613861386 L 522.822299651568 192.24422442244222 L 524.5644599303137 201.65016501650163 L 526.3066202090592 207.75577557755773 L 528.0487804878048 222.27722772277227 L 529.7909407665505 216.5016501650165 L 531.5331010452962 210.7260726072607 L 533.2752613240418 209.73597359735973 L 535.0174216027874 221.61716171617164 L 536.7595818815331 218.8118811881188 L 538.5017421602788 226.23762376237622 L 540.2439024390244 224.58745874587456 L 541.98606271777 234.32343234323432 L 543.7282229965157 223.43234323432344 L 545.4703832752614 229.86798679867988 L 547.212543554007 232.17821782178217 L 548.9547038327526 237.62376237623764 L 550.6968641114983 239.1089108910891 L 552.439024390244 244.38943894389436 L 554.1811846689895 255.61056105610558 L 555.9233449477351 256.1056105610561 L 557.6655052264808 256.9306930693069 L 559.4076655052265 263.86138613861385 L 561.1498257839721 267.49174917491746 L 562.8919860627177 266.8316831683168 L 564.6341463414634 265.67656765676566 L 566.3763066202091 270.7920792079208 L 568.1184668989547 272.44224422442244 L 569.8606271777003 269.96699669966995 L 571.602787456446 280.1980198019802 L 573.3449477351917 269.1419141914191 L 575.0871080139373 269.1419141914191 L 576.8292682926829 272.6072607260726 L 578.5714285714286 268.3168316831683 L 580.3135888501743 270.4620462046205 L 582.0557491289198 277.7227722772277 L 583.7979094076654 283.99339933993394 L 585.5400696864111 282.8382838283828 L 587.2822299651568 288.4488448844885 L 589.0243902439024 294.8844884488449 L 590.766550522648 296.3696369636964 L 592.5087108013937 289.9339933993399 L 594.2508710801394 285.973597359736 L 595.993031358885 287.1287128712871 L 597.7351916376306 284.4884488448845 L 599.4773519163763 282.50825082508254 L 601.219512195122 281.84818481848185 L 602.9616724738676 274.5874587458745 L 604.7038327526132 281.18811881188117 L 606.4459930313589 281.023102310231 L 608.1881533101046 286.3036303630363 L 609.9303135888501 287.4587458745874 L 611.6724738675957 298.34983498349834 L 613.4146341463414 297.68976897689765 L 615.1567944250871 299.3399339933993 L 616.8989547038327 299.83498349834986 L 618.6411149825783 296.3696369636964 L 620.383275261324 300.3300330033003 L 622.1254355400697 308.74587458745873 L 623.8675958188153 319.63696369636966 L 625.609756097561 320.7920792079208 L 627.3519163763067 322.6072607260726 L 629.0940766550523 326.07260726072604 L 630.8362369337979 328.21782178217825 L 632.5783972125436 330.69306930693074 L 634.3205574912893 335.973597359736 L 636.0627177700349 331.51815181518145 L 637.8048780487804 336.6336633663366 L 639.5470383275261 333.99339933993394 L 641.2891986062718 337.62376237623766 L 643.0313588850174 346.3696369636964 L 644.773519163763 339.76897689768975 L 646.5156794425087 348.34983498349834 L 648.2578397212544 348.5148514851485 L 650 349.17491749174917 L 650 400 Z" /><text  class="poloto_labels poloto_text poloto_title" alignment-baseline="start" text-anchor="middle" font-size="x-large" x="400" y="37.5" >Total players on 2021-08-06</text><text  class="poloto_labels poloto_text poloto_xname" alignment-baseline="start" text-anchor="middle" font-size="x-large" x="400" y="481.25" >Time</text><text  class="poloto_labels poloto_text poloto_yname" alignment-baseline="start" text-anchor="middle" font-size="x-large" transform="rotate(-90,37.5,250)" x="37.5" y="250" >Count</text><line  class="poloto_axis_lines" stroke="black" x1="208.0487804878049" x2="208.0487804878049" y1="400" y2="405" /><text  class="poloto_tick_labels poloto_text" alignment-baseline="start" text-anchor="middle" x="208.0487804878049" y="430" > 02:46:40</text><line  class="poloto_axis_lines" stroke="black" x1="266.1207897793264" x2="266.1207897793264" y1="400" y2="405" /><text  class="poloto_tick_labels poloto_text" alignment-baseline="start" text-anchor="middle" x="266.1207897793264" y="430" > 05:33:20</text><line  class="poloto_axis_lines" stroke="black" x1="324.19279907084785" x2="324.19279907084785" y1="400" y2="405" /><text  class="poloto_tick_labels poloto_text" alignment-baseline="start" text-anchor="middle" x="324.19279907084785" y="430" > 08:20:00</text><line  class="poloto_axis_lines" stroke="black" x1="382.2648083623693" x2="382.2648083623693" y1="400" y2="405" /><text  class="poloto_tick_labels poloto_text" alignment-baseline="start" text-anchor="middle" x="382.2648083623693" y="430" > 11:06:40</text><line  class="poloto_axis_lines" stroke="black" x1="440.3368176538908" x2="440.3368176538908" y1="400" y2="405" /><text  class="poloto_tick_labels poloto_text" alignment-baseline="start" text-anchor="middle" x="440.3368176538908" y="430" > 13:53:20</text><line  class="poloto_axis_lines" stroke="black" x1="498.4088269454123" x2="498.4088269454123" y1="400" y2="405" /><text  class="poloto_tick_labels poloto_text" alignment-baseline="start" text-anchor="middle" x="498.4088269454123" y="430" > 16:40:00</text><line  class="poloto_axis_lines" stroke="black" x1="556.4808362369338" x2="556.4808362369338" y1="400" y2="405" /><text  class="poloto_tick_labels poloto_text" alignment-baseline="start" text-anchor="middle" x="556.4808362369338" y="430" > 19:26:40</text><line  class="poloto_axis_lines" stroke="black" x1="614.5528455284552" x2="614.5528455284552" y1="400" y2="405" /><text  class="poloto_tick_labels poloto_text" alignment-baseline="start" text-anchor="middle" x="614.5528455284552" y="430" > 22:13:20</text><line  class="poloto_axis_lines" stroke="black" x1="150" x2="144" y1="351.4851485148515" y2="351.4851485148515" /><text  class="poloto_tick_labels poloto_text" alignment-baseline="middle" text-anchor="end" x="135" y="351.4851485148515" > 1500</text><line  class="poloto_axis_lines" stroke="black" x1="150" x2="144" y1="268.976897689769" y2="268.976897689769" /><text  class="poloto_tick_labels poloto_text" alignment-baseline="middle" text-anchor="end" x="135" y="268.976897689769" > 2000</text><line  class="poloto_axis_lines" stroke="black" x1="150" x2="144" y1="186.46864686468643" y2="186.46864686468643" /><text  class="poloto_tick_labels poloto_text" alignment-baseline="middle" text-anchor="end" x="135" y="186.46864686468643" > 2500</text><line  class="poloto_axis_lines" stroke="black" x1="150" x2="144" y1="103.960396039604" y2="103.960396039604" /><text  class="poloto_tick_labels poloto_text" alignment-baseline="middle" text-anchor="end" x="135" y="103.960396039604" > 3000</text><path  stroke="black" fill="none" class="poloto_axis_lines" style="stroke-dasharray:14.518002322880372;stroke-dashoffset:-58.04878048780488;" d=" M 150 400 L 650 400" /><path  stroke="black" fill="none" class="poloto_axis_lines" style="stroke-dasharray:8.250825082508252;stroke-dashoffset:-48.51485148514851;" d=" M 150 400 L 150 100" /></svg>