<svg class="poloto" width="800" height="500" viewBox="0 0 800 500" xmlns="http://www.w3.org/2000/svg"><style>.poloto { stroke-linecap:round; stroke-linejoin:round; font-family: 'Tahoma', sans-serif; background-color: AliceBlue;} .poloto_scatter{stroke-width:7} .poloto_line{stroke-width:2} .poloto_text{fill: black;} .poloto_axis_lines{stroke: black;stroke-width:3;fill:none;stroke-dasharray:none} .poloto0stroke{stroke:  blue;} .poloto1stroke{stroke:  red;} .poloto2stroke{stroke:  green;} .poloto3stroke{stroke:  gold;} .poloto4stroke{stroke:  aqua;} .poloto5stroke{stroke:  lime;} .poloto6stroke{stroke:  orange;} .poloto7stroke{stroke:  chocolate;} .poloto0fill{fill:blue;} .poloto1fill{fill:red;} .poloto2fill{fill:green;} .poloto3fill{fill:gold;} .poloto4fill{fill:aqua;} .poloto5fill{fill:lime;} .poloto6fill{fill:orange;} .poloto7fill{fill:chocolate;}</style><text  class="poloto_text poloto_legend_text" alignment-baseline="middle" text-anchor="start" font-size="large" x="675" y="100" ></text><path  class="poloto_linefill poloto0fill" d=" M 150 400 L 150 359.55056179775283 L 151.74216027874564 362.72306675479183 L 153.4843205574913 366.2921348314607 L 155.22648083623693 362.92134831460675 L 156.96864111498257 358.75743555849306 L 158.71080139372822 356.97290152015864 L 160.45296167247386 356.57633840052875 L 162.1951219512195 354.99008592200926 L 163.93728222996515 352.80898876404495 L 165.6794425087108 352.21414408460015 L 167.42160278745644 337.1447455386649 L 169.16376306620208 349.23992068737607 L 170.90592334494772 360.34368803701256 L 172.64808362369337 346.26569729015205 L 174.390243902439 345.0760079312624 L 176.13240418118465 344.67944481163255 L 177.8745644599303 344.4811632518176 L 179.61672473867597 348.2485128883014 L 181.3588850174216 346.46397884996696 L 183.10104529616726 348.84335756774624 L 184.8432055749129 357.36946463978853 L 186.58536585365854 357.76602775941836 L 188.3275261324042 362.32650363516194 L 190.06968641114983 370.25776602775943 L 191.81184668989548 379.7752808988764 L 193.55400696864112 382.74950429610044 L 195.29616724738676 384.7323198942498 L 197.0383275261324 387.1116986120291 L 198.78048780487805 388.4996695307336 L 200.5226480836237 387.1116986120291 L 202.26480836236934 396.0343688037012 L 204.00696864111498 391.2756113681428 L 205.74912891986062 393.654990085922 L 207.49128919860627 392.86186384666223 L 209.2334494773519 391.2756113681428 L 210.97560975609755 382.74950429610044 L 212.7177700348432 390.482485128883 L 214.45993031358887 397.6206212822208 L 216.2020905923345 400 L 217.94425087108016 398.0171844018506 L 219.6864111498258 393.0601454064772 L 221.42857142857144 389.68935888962324 L 223.1707317073171 395.4395241242564 L 224.91289198606273 392.0687376074025 L 226.65505226480838 383.34434897554524 L 228.39721254355402 380.3701255783212 L 230.13937282229966 376.80105750165234 L 231.8815331010453 375.0165234633179 L 233.62369337979095 376.20621282220753 L 235.3658536585366 385.7237276933245 L 237.10801393728224 377.1976206212822 L 238.85017421602788 367.08526107072043 L 240.59233449477352 364.90416391275613 L 242.33449477351917 366.68869795109055 L 244.0766550522648 362.32650363516194 L 245.81881533101046 356.37805684071384 L 247.5609756097561 359.9471249173827 L 249.30313588850174 354.39524124256445 L 251.0452961672474 352.61070720423004 L 252.78745644599303 353.20555188367484 L 254.52961672473867 354.59352280237937 L 256.2717770034843 353.20555188367484 L 258.01393728222996 347.05882352941177 L 259.7560975609756 343.8863185723728 L 261.49825783972125 336.94646397885 L 263.2404181184669 336.94646397885 L 264.98257839721254 335.16192994051556 L 266.7247386759582 333.773959021811 L 268.4668989547038 327.8255122273629 L 270.20905923344947 332.3859881031064 L 271.9512195121951 327.62723066754796 L 273.69337979094075 329.2134831460674 L 275.4355400696864 320.0925313945803 L 277.17770034843204 320.6873760740251 L 278.9198606271777 321.8770654329148 L 280.6620209059233 318.9028420356907 L 282.40418118466897 324.6530072703239 L 284.1463414634146 313.3509583608725 L 285.88850174216026 313.9458030403173 L 287.6306620209059 312.9543952412426 L 289.37282229965155 314.1440846001322 L 291.1149825783972 305.8162590879048 L 292.85714285714283 301.8506278916061 L 294.5993031358885 315.1354923992069 L 296.3414634146342 312.1612690019828 L 298.08362369337976 312.3595505617978 L 299.82578397212546 308.7904824851289 L 301.56794425087105 295.10905485789823 L 303.31010452961675 285.59153998678124 L 305.05226480836234 284.00528750826174 L 306.79442508710804 279.24653007270325 L 308.5365853658536 281.03106411103767 L 310.2787456445993 277.26371447455386 L 312.0209059233449 274.28949107732984 L 313.7630662020906 275.08261731658956 L 315.5052264808362 271.71183079973565 L 317.2473867595819 270.9187045604759 L 318.9895470383275 264.17713152676805 L 320.7317073170732 267.7461996034369 L 322.4738675958188 268.93588896232654 L 324.2160278745645 266.35822868473235 L 325.95818815331006 261.99603436880375 L 327.70034843205576 253.07336417713157 L 329.44250871080135 256.6424322538004 L 331.18466898954705 258.6252478519498 L 332.92682926829264 262.59087904824855 L 334.66898954703834 261.00462656972906 L 336.4111498257839 264.5736946463979 L 338.1533101045296 257.0389953734303 L 339.8954703832752 257.6338400528751 L 341.6376306620209 249.50429610046268 L 343.3797909407665 248.31460674157307 L 345.1219512195122 243.1592861863847 L 346.86411149825784 243.3575677461996 L 348.6062717770035 232.4520819563781 L 350.34843205574913 235.2280237937872 L 352.0905923344948 223.9259748843358 L 353.8327526132404 223.9259748843358 L 355.57491289198606 221.94315928618641 L 357.3170731707317 227.2967614011897 L 359.05923344947735 221.54659616655653 L 360.801393728223 221.54659616655653 L 362.54355400696863 217.97752808988764 L 364.2857142857143 220.95175148711172 L 366.0278745644599 208.65829477858563 L 367.77003484320556 217.38268341044284 L 369.5121951219512 217.18440185062792 L 371.25435540069685 213.41705221414412 L 372.9965156794425 209.64970257766032 L 374.73867595818814 203.89953734302713 L 376.4808362369338 211.83079973562462 L 378.2229965156794 209.45142101784535 L 379.96515679442507 207.66688697951093 L 381.7073170731707 219.96034368803703 L 383.44947735191636 215.3998678122935 L 385.191637630662 207.27032385988105 L 386.93379790940764 204.49438202247194 L 388.6759581881533 202.11500330469266 L 390.41811846689893 204.49438202247194 L 392.1602787456446 204.09781890284205 L 393.9024390243902 206.27891606080635 L 395.6445993031359 187.64044943820227 L 397.3867595818815 183.87309980171847 L 399.1289198606272 181.69200264375417 L 400.8710801393728 191.80436219431596 L 402.6132404181185 187.44216787838735 L 404.3554006968641 183.0799735624587 L 406.0975609756097 189.02842035690685 L 407.83972125435537 188.63185723727696 L 409.581881533101 183.67481824190355 L 411.32404181184666 181.89028420356908 L 413.0662020905923 178.91606080634506 L 414.80836236933794 197.75280898876406 L 416.5505226480836 172.57105089226707 L 418.29268292682923 175.94183740912098 L 420.0348432055749 178.3212161269002 L 421.7770034843206 174.15730337078656 L 423.5191637630662 165.63119629874427 L 425.26132404181186 163.05353602115008 L 427.0034843205575 156.7085261070721 L 428.74564459930315 151.3549239920688 L 430.4878048780488 144.6133509583609 L 432.22996515679444 143.62194315928622 L 433.9721254355401 147.98413747521482 L 435.7142857142857 148.97554527428952 L 437.45644599303137 153.1394580304032 L 439.198606271777 154.1308658294779 L 440.94076655052265 156.906807666887 L 442.6829268292683 146.7944481163252 L 444.42508710801394 133.31130204890945 L 446.1672473867596 133.90614672835432 L 447.9094076655052 127.16457369464644 L 449.65156794425087 128.94910773298085 L 451.3937282229965 123.00066093853275 L 453.13588850174216 127.95769993390616 L 454.8780487804878 124.19035029742236 L 456.62020905923345 137.47521480502314 L 458.3623693379791 115.26768010575017 L 460.10452961672473 107.13813615333777 L 461.8466898954704 105.94844679444816 L 463.588850174216 113.68142762723073 L 465.33101045296166 104.56047587574358 L 467.0731707317073 100 L 468.81533101045295 101.58625247851955 L 470.5574912891986 104.56047587574358 L 472.29965156794424 110.90548578982157 L 474.0418118466899 106.9398545935228 L 475.7839721254355 106.34500991407799 L 477.52613240418117 141.24256444150694 L 479.2682926829268 112.49173826834112 L 481.01045296167246 119.62987442167878 L 482.7526132404181 121.61269001982816 L 484.49477351916374 116.06080634500995 L 486.2369337979094 107.5346992729676 L 487.97909407665503 104.3621943159286 L 489.7212543554007 115.86252478519498 L 491.4634146341463 118.24190350297431 L 493.20557491289196 119.82815598149375 L 494.9477351916376 135.69068076668873 L 496.68989547038325 148.7772637144746 L 498.4320557491289 145.20819563780572 L 500.17421602787454 171.18307997356249 L 501.9163763066202 161.8638466622604 L 503.6585365853658 118.44018506278917 L 505.40069686411147 126.17316589557174 L 507.1428571428571 118.44018506278917 L 508.88501742160275 119.03502974223397 L 510.6271777003484 122.20753469927303 L 512.3693379790941 132.71645736946465 L 514.1114982578397 140.2511566424323 L 515.8536585365853 140.64771976206214 L 517.595818815331 152.34633179114343 L 519.3379790940767 141.8374091209518 L 521.0801393728223 163.4500991407799 L 522.822299651568 175.14871116986126 L 524.5644599303137 173.56245869134176 L 526.3066202090592 171.57964309319237 L 528.0487804878048 176.7349636483807 L 529.7909407665505 179.51090548578986 L 531.5331010452962 193.78717779246534 L 533.2752613240418 193.58889623265037 L 535.0174216027874 191.20951751487115 L 536.7595818815331 184.6662260409782 L 538.5017421602788 189.22670191672177 L 540.2439024390244 197.95109054857903 L 541.98606271777 189.22670191672177 L 543.7282229965157 187.83873099801718 L 545.4703832752614 200.72703238598814 L 547.212543554007 206.47719762062133 L 548.9547038327526 213.02048909451423 L 550.6968641114983 217.77924653007273 L 552.439024390244 216.39127561136814 L 554.1811846689895 210.641110376735 L 555.9233449477351 208.65829477858563 L 557.6655052264808 188.43357567746204 L 559.4076655052265 188.63185723727696 L 561.1498257839721 191.20951751487115 L 562.8919860627177 196.16655651024456 L 564.6341463414634 192.99405155320557 L 566.3763066202091 202.90812954395244 L 568.1184668989547 200.13218770654333 L 569.8606271777003 198.14937210839395 L 571.602787456446 200.72703238598814 L 573.3449477351917 199.33906146728356 L 575.0871080139373 202.70984798413753 L 576.8292682926829 198.14937210839395 L 578.5714285714286 205.48578982154663 L 580.3135888501743 208.26173165895574 L 582.0557491289198 212.02908129543954 L 583.7979094076654 217.38268341044284 L 585.5400696864111 219.96034368803703 L 587.2822299651568 212.2273628552545 L 589.0243902439024 217.5809649702578 L 590.766550522648 220.158625247852 L 592.5087108013937 229.2795769993391 L 594.2508710801394 226.7019167217449 L 595.993031358885 222.53800396563122 L 597.7351916376306 226.90019828155982 L 599.4773519163763 227.49504296100463 L 601.219512195122 236.4177131526768 L 602.9616724738676 237.2108393919366 L 604.7038327526132 240.9781890284204 L 606.4459930313589 244.7455386649042 L 608.1881533101046 242.7627230667548 L 609.9303135888501 249.30601454064777 L 611.6724738675957 255.45274289491078 L 613.4146341463414 261.99603436880375 L 615.1567944250871 272.70323859881034 L 616.8989547038327 277.26371447455386 L 618.6411149825783 278.84996695307336 L 620.383275261324 277.26371447455386 L 622.1254355400697 278.45340383344353 L 623.8675958188153 279.04824851288834 L 625.609756097561 277.26371447455386 L 627.3519163763067 285.3932584269663 L 629.0940766550523 287.17779246530074 L 630.8362369337979 289.35888962326504 L 632.5783972125436 297.29015201586253 L 634.3205574912893 304.82485128883013 L 636.0627177700349 310.5750165234633 L 637.8048780487804 313.7475214805023 L 639.5470383275261 314.738929279577 L 641.2891986062718 314.5406477197621 L 643.0313588850174 320.8856576338401 L 644.773519163763 326.63582286847327 L 646.5156794425087 329.4117647058824 L 648.2578397212544 332.7825512227363 L 650 339.7224058162591 L 650 400 Z" /><text  class="poloto_labels poloto_text poloto_title" alignment-baseline="start" text-anchor="middle" font-size="x-large" x="400" y="37.5" >Total players on 2021-05-23</text><text  class="poloto_labels poloto_text poloto_xname" alignment-baseline="start" text-anchor="middle" font-size="x-large" x="400" y="481.25" >Time</text><text  class="poloto_labels poloto_text poloto_yname" alignment-baseline="start" text-anchor="middle" font-size="x-large" transform="rotate(-90,37.5,250)" x="37.5" y="250" >Count</text><line  class="poloto_axis_lines" stroke="black" x1="208.0487804878049" x2="208.0487804878049" y1="400" y2="405" /><text  class="poloto_tick_labels poloto_text" alignment-baseline="start" text-anchor="middle" x="208.0487804878049" y="430" > 02:46:40</text><line  class="poloto_axis_lines" stroke="black" x1="266.1207897793264" x2="266.1207897793264" y1="400" y2="405" /><text  class="poloto_tick_labels poloto_text" alignment-baseline="start" text-anchor="middle" x="266.1207897793264" y="430" > 05:33:20</text><line  class="poloto_axis_lines" stroke="black" x1="324.19279907084785" x2="324.19279907084785" y1="400" y2="405" /><text  class="poloto_tick_labels poloto_text" alignment-baseline="start" text-anchor="middle" x="324.19279907084785" y="430" > 08:20:00</text><line  class="poloto_axis_lines" stroke="black" x1="382.2648083623693" x2="382.2648083623693" y1="400" y2="405" /><text  class="poloto_tick_labels poloto_text" alignment-baseline="start" text-anchor="middle" x="382.2648083623693" y="430" > 11:06:40</text><line  class="poloto_axis_lines" stroke="black" x1="440.3368176538908" x2="440.3368176538908" y1="400" y2="405" /><text  class="poloto_tick_labels poloto_text" alignment-baseline="start" text-anchor="middle" x="440.3368176538908" y="430" > 13:53:20</text><line  class="poloto_axis_lines" stroke="black" x1="498.4088269454123" x2="498.4088269454123" y1="400" y2="405" /><text  class="poloto_tick_labels poloto_text" alignment-baseline="start" text-anchor="middle" x="498.4088269454123" y="430" > 16:40:00</text><line  class="poloto_axis_lines" stroke="black" x1="556.4808362369338" x2="556.4808362369338" y1="400" y2="405" /><text  class="poloto_tick_labels poloto_text" alignment-baseline="start" text-anchor="middle" x="556.4808362369338" y="430" > 19:26:40</text><line  class="poloto_axis_lines" stroke="black" x1="614.5528455284552" x2="614.5528455284552" y1="400" y2="405" /><text  class="poloto_tick_labels poloto_text" alignment-baseline="start" text-anchor="middle" x="614.5528455284552" y="430" > 22:13:20</text><line  class="poloto_axis_lines" stroke="black" x1="150" x2="144" y1="335.9550561797753" y2="335.9550561797753" /><text  class="poloto_tick_labels poloto_text" alignment-baseline="middle" text-anchor="end" x="135" y="335.9550561797753" > 1500</text><line  class="poloto_axis_lines" stroke="black" x1="150" x2="144" y1="236.8142762723067" y2="236.8142762723067" /><text  class="poloto_tick_labels poloto_text" alignment-baseline="middle" text-anchor="end" x="135" y="236.8142762723067" > 2000</text><line  class="poloto_axis_lines" stroke="black" x1="150" x2="144" y1="137.67349636483812" y2="137.67349636483812" /><text  class="poloto_tick_labels poloto_text" alignment-baseline="middle" text-anchor="end" x="135" y="137.67349636483812" > 2500</text><path  stroke="black" fill="none" class="poloto_axis_lines" style="stroke-dasharray:14.518002322880372;stroke-dashoffset:-58.04878048780488;" d=" M 150 400 L 650 400" /><path  stroke="black" fill="none" class="poloto_axis_lines" style="stroke-dasharray:9.91407799074686;stroke-dashoffset:-64.04494382022472;" d=" M 150 400 L 150 100" /></svg>