<svg class="poloto" width="800" height="500" viewBox="0 0 800 500" xmlns="http://www.w3.org/2000/svg"><style>.poloto { stroke-linecap:round; stroke-linejoin:round; font-family: 'Tahoma', sans-serif; background-color: AliceBlue;} .poloto_scatter{stroke-width:7} .poloto_line{stroke-width:2} .poloto_text{fill: black;} .poloto_axis_lines{stroke: black;stroke-width:3;fill:none;stroke-dasharray:none} .poloto0stroke{stroke:  blue;} .poloto1stroke{stroke:  red;} .poloto2stroke{stroke:  green;} .poloto3stroke{stroke:  gold;} .poloto4stroke{stroke:  aqua;} .poloto5stroke{stroke:  lime;} .poloto6stroke{stroke:  orange;} .poloto7stroke{stroke:  chocolate;} .poloto0fill{fill:blue;} .poloto1fill{fill:red;} .poloto2fill{fill:green;} .poloto3fill{fill:gold;} .poloto4fill{fill:aqua;} .poloto5fill{fill:lime;} .poloto6fill{fill:orange;} .poloto7fill{fill:chocolate;}</style><text  class="poloto_text poloto_legend_text" alignment-baseline="middle" text-anchor="start" font-size="large" x="675" y="100" ></text><path  class="poloto_linefill poloto0fill" d=" M 150 400 L 150 355 L 151.74216027874564 358.495145631068 L 153.4843205574913 359.0776699029126 L 155.22648083623693 359.36893203883494 L 156.96864111498257 359.80582524271847 L 158.71080139372822 359.36893203883494 L 160.45296167247386 367.2330097087379 L 162.1951219512195 368.252427184466 L 163.93728222996515 372.47572815533977 L 165.6794425087108 376.4077669902913 L 167.42160278745644 380.3398058252427 L 169.16376306620208 386.0194174757281 L 170.90592334494772 388.20388349514565 L 172.64808362369337 390.8252427184466 L 174.390243902439 390.8252427184466 L 176.13240418118465 392.4271844660194 L 177.8745644599303 392.5728155339806 L 179.61672473867597 391.4077669902913 L 181.3588850174216 392.86407766990294 L 183.10104529616726 390.8252427184466 L 184.8432055749129 389.80582524271847 L 186.58536585365854 390.3883495145631 L 188.3275261324042 392.5728155339806 L 190.06968641114983 392.13592233009706 L 191.81184668989548 393.3009708737864 L 193.55400696864112 392.13592233009706 L 195.29616724738676 396.2135922330097 L 197.0383275261324 399.126213592233 L 198.78048780487805 395.04854368932035 L 200.5226480836237 396.79611650485435 L 202.26480836236934 391.6990291262136 L 204.00696864111498 392.5728155339806 L 205.74912891986062 394.02912621359224 L 207.49128919860627 395.9223300970874 L 209.2334494773519 393.0097087378641 L 210.97560975609755 393.88349514563106 L 212.7177700348432 390.8252427184466 L 214.45993031358887 392.5728155339806 L 216.2020905923345 394.1747572815534 L 217.94425087108016 393.4466019417476 L 219.6864111498258 399.5631067961165 L 221.42857142857144 395.4854368932039 L 223.1707317073171 396.0679611650486 L 224.91289198606273 395.04854368932035 L 226.65505226480838 395.19417475728153 L 228.39721254355402 399.41747572815535 L 230.13937282229966 400 L 231.8815331010453 399.5631067961165 L 233.62369337979095 396.3592233009709 L 235.3658536585366 398.1067961165048 L 237.10801393728224 395.63106796116506 L 238.85017421602788 393.88349514563106 L 240.59233449477352 395.63106796116506 L 242.33449477351917 397.81553398058253 L 244.0766550522648 391.2621359223301 L 245.81881533101046 388.20388349514565 L 247.5609756097561 388.20388349514565 L 249.30313588850174 391.11650485436894 L 251.0452961672474 390.97087378640776 L 252.78745644599303 390.97087378640776 L 254.52961672473867 391.84466019417476 L 256.2717770034843 395.9223300970874 L 258.01393728222996 392.5728155339806 L 259.7560975609756 394.02912621359224 L 261.49825783972125 396.3592233009709 L 263.2404181184669 392.71844660194176 L 264.98257839721254 393.5922330097087 L 266.7247386759582 392.13592233009706 L 268.4668989547038 396.0679611650486 L 270.20905923344947 394.6116504854369 L 271.9512195121951 386.8932038834952 L 273.69337979094075 388.3495145631068 L 275.4355400696864 388.20388349514565 L 277.17770034843204 384.8543689320388 L 278.91986062717774 384.2718446601942 L 280.6620209059233 384.2718446601942 L 282.404181184669 384.2718446601942 L 284.1463414634146 381.0679611650486 L 285.8885017421603 379.90291262135923 L 287.6306620209059 376.84466019417476 L 289.3728222996516 375.09708737864077 L 291.1149825783972 375.6796116504854 L 292.8571428571429 376.84466019417476 L 294.5993031358885 373.6407766990291 L 296.3414634146342 373.3495145631068 L 298.08362369337976 367.81553398058253 L 299.82578397212546 365.4854368932039 L 301.56794425087105 367.81553398058253 L 303.31010452961675 372.03883495145635 L 305.05226480836234 375.97087378640776 L 306.79442508710804 378.88349514563106 L 308.5365853658536 379.1747572815534 L 310.2787456445993 385.5825242718447 L 312.0209059233449 386.45631067961165 L 313.7630662020906 387.18446601941747 L 315.5052264808362 384.8543689320388 L 317.2473867595819 382.66990291262135 L 318.9895470383275 383.3980582524272 L 320.7317073170732 382.96116504854365 L 322.4738675958188 377.86407766990294 L 324.2160278745645 375.09708737864077 L 325.9581881533101 379.90291262135923 L 327.70034843205576 382.81553398058253 L 329.4425087108014 382.0873786407767 L 331.18466898954705 381.79611650485435 L 332.9268292682927 382.2330097087379 L 334.66898954703834 380.9223300970874 L 336.411149825784 381.504854368932 L 338.1533101045296 379.6116504854369 L 339.89547038327527 379.02912621359224 L 341.6376306620209 374.6601941747573 L 343.37979094076655 366.3592233009709 L 345.1219512195122 369.8543689320388 L 346.86411149825784 366.0679611650486 L 348.6062717770035 364.46601941747576 L 350.34843205574913 364.3203883495146 L 352.0905923344948 360.6796116504854 L 353.8327526132404 354.8543689320388 L 355.57491289198606 344.80582524271847 L 357.3170731707317 340 L 359.05923344947735 342.4757281553398 L 360.801393728223 339.70873786407765 L 362.54355400696863 334.61165048543694 L 364.2857142857143 326.747572815534 L 366.0278745644599 322.37864077669906 L 367.77003484320556 321.94174757281553 L 369.5121951219512 320.77669902912623 L 371.25435540069685 317.86407766990294 L 372.9965156794425 316.84466019417476 L 374.73867595818814 321.79611650485435 L 376.4808362369338 316.4077669902913 L 378.2229965156795 309.8543689320388 L 379.96515679442507 305.3398058252427 L 381.70731707317077 304.46601941747576 L 383.44947735191636 295.7281553398058 L 385.19163763066206 291.0679611650486 L 386.93379790940764 288.5922330097087 L 388.67595818815334 288.0097087378641 L 390.41811846689893 285.8252427184466 L 392.16027874564463 279.41747572815535 L 393.9024390243902 283.93203883495147 L 395.6445993031359 290.77669902912623 L 397.3867595818815 280.29126213592235 L 399.1289198606272 276.50485436893206 L 400.8710801393728 262.66990291262135 L 402.6132404181185 262.5242718446602 L 404.3554006968641 256.5533980582524 L 406.0975609756098 258.4466019417476 L 407.8397212543554 258.73786407766994 L 409.58188153310107 247.66990291262135 L 411.3240418118467 243.59223300970876 L 413.06620209059236 236.31067961165047 L 414.808362369338 222.33009708737865 L 416.55052264808364 216.50485436893206 L 418.2926829268293 209.22330097087382 L 420.03484320557493 203.39805825242718 L 421.7770034843206 195.5339805825243 L 423.5191637630662 203.10679611650488 L 425.26132404181186 191.747572815534 L 427.0034843205575 195.38834951456312 L 428.74564459930315 190.873786407767 L 430.4878048780488 184.61165048543688 L 432.22996515679444 178.7864077669903 L 433.9721254355401 179.07766990291265 L 435.7142857142857 178.34951456310682 L 437.45644599303137 170.77669902912623 L 439.198606271777 170.63106796116506 L 440.94076655052265 165.5339805825243 L 442.6829268292683 169.90291262135923 L 444.42508710801394 160 L 446.1672473867596 146.45631067961165 L 447.9094076655052 154.3203883495146 L 449.65156794425087 145.873786407767 L 451.3937282229965 152.4271844660194 L 453.13588850174216 143.25242718446606 L 454.8780487804878 134.95145631067965 L 456.62020905923345 131.31067961165053 L 458.3623693379791 128.54368932038835 L 460.10452961672473 120.09708737864082 L 461.8466898954704 126.79611650485441 L 463.588850174216 129.56310679611653 L 465.33101045296166 128.10679611650488 L 467.0731707317073 120.24271844660194 L 468.81533101045295 115.29126213592235 L 470.5574912891986 119.6601941747573 L 472.29965156794424 134.95145631067965 L 474.0418118466899 121.84466019417476 L 475.7839721254355 119.36893203883494 L 477.52613240418117 109.32038834951459 L 479.2682926829268 102.03883495145635 L 481.01045296167246 102.621359223301 L 482.7526132404181 100 L 484.49477351916374 102.621359223301 L 486.2369337979094 118.495145631068 L 487.97909407665503 106.11650485436894 L 489.7212543554007 103.7864077669903 L 491.4634146341463 106.99029126213594 L 493.20557491289196 108.59223300970876 L 494.9477351916376 100.43689320388353 L 496.68989547038325 104.22330097087382 L 498.4320557491289 104.368932038835 L 500.17421602787454 104.22330097087382 L 501.91637630662024 102.9126213592233 L 503.6585365853659 105.5339805825243 L 505.4006968641115 108.88349514563106 L 507.14285714285717 111.50485436893206 L 508.8850174216028 112.52427184466023 L 510.62717770034845 109.75728155339806 L 512.3693379790941 117.76699029126218 L 514.1114982578397 121.69902912621359 L 515.8536585365854 140.1941747572816 L 517.5958188153311 139.3203883495146 L 519.3379790940767 157.9611650485437 L 521.0801393728223 120.09708737864082 L 522.822299651568 117.47572815533982 L 524.5644599303137 132.33009708737865 L 526.3066202090592 139.46601941747576 L 528.0487804878048 148.93203883495147 L 529.7909407665505 154.75728155339806 L 531.5331010452962 159.56310679611653 L 533.2752613240418 164.36893203883494 L 535.0174216027874 170.3398058252427 L 536.7595818815331 173.10679611650488 L 538.5017421602788 176.01941747572818 L 540.2439024390244 181.84466019417476 L 541.98606271777 183.88349514563106 L 543.7282229965157 189.126213592233 L 545.4703832752614 199.90291262135923 L 547.212543554007 193.05825242718447 L 548.9547038327526 196.6990291262136 L 550.6968641114983 199.1747572815534 L 552.439024390244 197.2815533980583 L 554.1811846689895 201.50485436893206 L 555.9233449477351 204.27184466019418 L 557.6655052264808 213.88349514563106 L 559.4076655052265 209.6601941747573 L 561.1498257839721 219.85436893203882 L 562.8919860627177 226.26213592233012 L 564.6341463414634 224.07766990291265 L 566.3763066202091 227.5728155339806 L 568.1184668989547 228.00970873786412 L 569.8606271777003 237.47572815533982 L 571.602787456446 232.81553398058253 L 573.3449477351917 237.18446601941747 L 575.0871080139373 240.38834951456312 L 576.8292682926829 262.0873786407767 L 578.5714285714286 249.41747572815535 L 580.3135888501743 239.95145631067965 L 582.0557491289198 250 L 583.7979094076654 243.73786407766994 L 585.5400696864111 243.73786407766994 L 587.2822299651568 251.31067961165047 L 589.0243902439024 251.747572815534 L 590.766550522648 256.99029126213594 L 592.5087108013937 255.09708737864077 L 594.2508710801394 262.0873786407767 L 595.993031358885 253.05825242718447 L 597.7351916376306 254.51456310679612 L 599.4773519163763 255.24271844660194 L 601.219512195122 253.64077669902912 L 602.9616724738676 256.99029126213594 L 604.7038327526133 272.28155339805824 L 606.445993031359 264.2718446601942 L 608.1881533101046 265.7281553398058 L 609.9303135888501 276.06796116504853 L 611.6724738675958 282.62135922330094 L 613.4146341463415 286.99029126213594 L 615.1567944250871 289.02912621359224 L 616.8989547038327 285.3883495145631 L 618.6411149825784 290.77669902912623 L 620.3832752613241 292.9611650485437 L 622.1254355400697 299.95145631067965 L 623.8675958188153 306.79611650485435 L 625.609756097561 305.19417475728153 L 627.3519163763067 311.1650485436893 L 629.0940766550523 314.95145631067965 L 630.8362369337979 315.6796116504854 L 632.5783972125436 312.18446601941747 L 634.3205574912893 312.7669902912621 L 636.0627177700349 318.0097087378641 L 637.8048780487804 313.93203883495147 L 639.5470383275261 315.97087378640776 L 641.2891986062718 315.0970873786408 L 643.0313588850174 315.3883495145631 L 644.773519163763 320.19417475728153 L 646.5156794425087 326.1650485436893 L 648.2578397212544 332.13592233009706 L 650 339.5631067961165 L 650 400 Z" /><text  class="poloto_labels poloto_text poloto_title" alignment-baseline="start" text-anchor="middle" font-size="x-large" x="400" y="37.5" >Total players on 2021-10-15</text><text  class="poloto_labels poloto_text poloto_xname" alignment-baseline="start" text-anchor="middle" font-size="x-large" x="400" y="481.25" >Time</text><text  class="poloto_labels poloto_text poloto_yname" alignment-baseline="start" text-anchor="middle" font-size="x-large" transform="rotate(-90,37.5,250)" x="37.5" y="250" >Count</text><line  class="poloto_axis_lines" stroke="black" x1="150" x2="150" y1="400" y2="405" /><text  class="poloto_tick_labels poloto_text" alignment-baseline="start" text-anchor="middle" x="150" y="430" > 00:00</text><line  class="poloto_axis_lines" stroke="black" x1="266.14401858304296" x2="266.14401858304296" y1="400" y2="405" /><text  class="poloto_tick_labels poloto_text" alignment-baseline="start" text-anchor="middle" x="266.14401858304296" y="430" > 06:00</text><line  class="poloto_axis_lines" stroke="black" x1="382.2880371660859" x2="382.2880371660859" y1="400" y2="405" /><text  class="poloto_tick_labels poloto_text" alignment-baseline="start" text-anchor="middle" x="382.2880371660859" y="430" > 11:00</text><line  class="poloto_axis_lines" stroke="black" x1="498.4320557491289" x2="498.4320557491289" y1="400" y2="405" /><text  class="poloto_tick_labels poloto_text" alignment-baseline="start" text-anchor="middle" x="498.4320557491289" y="430" > 17:00</text><line  class="poloto_axis_lines" stroke="black" x1="614.5760743321719" x2="614.5760743321719" y1="400" y2="405" /><text  class="poloto_tick_labels poloto_text" alignment-baseline="start" text-anchor="middle" x="614.5760743321719" y="430" > 22:00</text><line  class="poloto_axis_lines" stroke="black" x1="150" x2="144" y1="387.7669902912621" y2="387.7669902912621" /><text  class="poloto_tick_labels poloto_text" alignment-baseline="middle" text-anchor="end" x="135" y="387.7669902912621" > 1000</text><line  class="poloto_axis_lines" stroke="black" x1="150" x2="144" y1="314.95145631067965" y2="314.95145631067965" /><text  class="poloto_tick_labels poloto_text" alignment-baseline="middle" text-anchor="end" x="135" y="314.95145631067965" > 1500</text><line  class="poloto_axis_lines" stroke="black" x1="150" x2="144" y1="242.13592233009712" y2="242.13592233009712" /><text  class="poloto_tick_labels poloto_text" alignment-baseline="middle" text-anchor="end" x="135" y="242.13592233009712" > 2000</text><line  class="poloto_axis_lines" stroke="black" x1="150" x2="144" y1="169.3203883495146" y2="169.3203883495146" /><text  class="poloto_tick_labels poloto_text" alignment-baseline="middle" text-anchor="end" x="135" y="169.3203883495146" > 2500</text><path  stroke="black" fill="none" class="poloto_axis_lines" style="stroke-dasharray:14.518002322880372;stroke-dashoffset:-0;" d=" M 150 400 L 650 400" /><path  stroke="black" fill="none" class="poloto_axis_lines" style="stroke-dasharray:7.281553398058252;stroke-dashoffset:-12.233009708737853;" d=" M 150 400 L 150 100" /></svg>