<svg class="poloto" width="800" height="500" viewBox="0 0 800 500" xmlns="http://www.w3.org/2000/svg"><style>.poloto { stroke-linecap:round; stroke-linejoin:round; font-family: 'Tahoma', sans-serif; background-color: AliceBlue;} .poloto_scatter{stroke-width:7} .poloto_line{stroke-width:2} .poloto_text{fill: black;} .poloto_axis_lines{stroke: black;stroke-width:3;fill:none;stroke-dasharray:none} .poloto0stroke{stroke:  blue;} .poloto1stroke{stroke:  red;} .poloto2stroke{stroke:  green;} .poloto3stroke{stroke:  gold;} .poloto4stroke{stroke:  aqua;} .poloto5stroke{stroke:  lime;} .poloto6stroke{stroke:  orange;} .poloto7stroke{stroke:  chocolate;} .poloto0fill{fill:blue;} .poloto1fill{fill:red;} .poloto2fill{fill:green;} .poloto3fill{fill:gold;} .poloto4fill{fill:aqua;} .poloto5fill{fill:lime;} .poloto6fill{fill:orange;} .poloto7fill{fill:chocolate;}</style><text  class="poloto_text poloto_legend_text" alignment-baseline="middle" text-anchor="start" font-size="large" x="675" y="100" ></text><path  class="poloto_linefill poloto0fill" d=" M 150 400 L 150 336.4951768488746 L 151.74216027874564 337.94212218649517 L 153.4843205574913 337.45980707395495 L 155.22648083623693 339.3890675241157 L 156.96864111498257 344.2122186495177 L 158.71080139372822 348.2315112540193 L 160.45296167247386 350.1607717041801 L 162.1951219512195 352.41157556270093 L 163.93728222996515 362.21864951768487 L 165.6794425087108 365.2733118971061 L 167.42160278745644 369.61414790996787 L 169.16376306620208 368.0064308681672 L 170.90592334494772 372.34726688102893 L 172.64808362369337 372.9903536977492 L 174.390243902439 372.50803858520896 L 176.13240418118465 369.4533762057878 L 177.8745644599303 375.88424437299034 L 179.61672473867597 375.4019292604502 L 181.3588850174216 373.1511254019292 L 183.10104529616726 375.88424437299034 L 184.8432055749129 375.08038585209005 L 186.58536585365854 370.9003215434084 L 188.3275261324042 374.43729903536973 L 190.06968641114983 372.0257234726688 L 191.81184668989548 370.5787781350482 L 193.55400696864112 375.08038585209005 L 195.29616724738676 378.1350482315113 L 197.0383275261324 378.9389067524116 L 198.78048780487805 379.90353697749197 L 200.5226480836237 383.7620578778135 L 202.26480836236934 386.33440514469453 L 204.00696864111498 388.2636655948553 L 205.74912891986062 390.032154340836 L 207.49128919860627 394.3729903536978 L 209.2334494773519 393.89067524115757 L 210.97560975609755 395.98070739549837 L 212.7177700348432 394.3729903536978 L 214.45993031358887 395.01607717041804 L 216.2020905923345 396.14147909967846 L 217.94425087108016 398.39228295819936 L 219.6864111498258 400 L 221.42857142857144 398.07073954983923 L 223.1707317073171 394.2122186495177 L 224.91289198606273 398.5530546623794 L 226.65505226480838 391.4790996784566 L 228.39721254355402 390.032154340836 L 230.13937282229966 389.5498392282958 L 231.8815331010453 392.443729903537 L 233.62369337979095 389.7106109324759 L 235.3658536585366 392.12218649517683 L 237.10801393728224 391.31832797427654 L 238.85017421602788 393.2475884244373 L 240.59233449477352 394.2122186495177 L 242.33449477351917 393.56913183279744 L 244.0766550522648 397.90996784565914 L 245.81881533101046 398.8745980707396 L 247.5609756097561 395.81993569131834 L 249.30313588850174 394.5337620578778 L 251.0452961672474 391.80064308681676 L 252.78745644599303 392.443729903537 L 254.52961672473867 392.9260450160772 L 256.2717770034843 391.31832797427654 L 258.01393728222996 391.4790996784566 L 259.7560975609756 394.5337620578778 L 261.49825783972125 390.19292604501607 L 263.2404181184669 380.86816720257235 L 264.98257839721254 378.9389067524116 L 266.7247386759582 378.45659163987136 L 268.4668989547038 377.49196141479104 L 270.20905923344947 377.33118971061094 L 271.9512195121951 375.7234726688103 L 273.69337979094075 370.09646302250803 L 275.4355400696864 367.3633440514469 L 277.17770034843204 368.9710610932476 L 278.91986062717774 368.9710610932476 L 280.6620209059233 372.1864951768489 L 282.404181184669 368.4887459807074 L 284.1463414634146 376.04501607717043 L 285.8885017421603 368.8102893890675 L 287.6306620209059 367.2025723472669 L 289.3728222996516 365.43408360128615 L 291.1149825783972 377.33118971061094 L 292.8571428571429 374.43729903536973 L 294.5993031358885 386.0128617363344 L 296.3414634146342 380.7073954983923 L 298.08362369337976 382.95819935691316 L 299.82578397212546 376.6881028938907 L 301.56794425087105 378.45659163987136 L 303.31010452961675 377.65273311897107 L 305.05226480836234 374.43729903536973 L 306.79442508710804 373.7942122186495 L 308.5365853658536 374.11575562700966 L 310.2787456445993 366.88102893890675 L 312.0209059233449 371.8649517684887 L 313.7630662020906 369.2926045016077 L 315.5052264808362 363.1832797427653 L 317.2473867595819 363.66559485530547 L 318.9895470383275 356.7524115755627 L 320.7317073170732 351.4469453376206 L 322.4738675958188 348.5530546623794 L 324.2160278745645 351.7684887459807 L 325.9581881533101 346.14147909967846 L 327.70034843205576 344.3729903536978 L 329.4425087108014 344.2122186495177 L 331.18466898954705 343.72990353697753 L 332.9268292682927 346.30225080385856 L 334.66898954703834 334.08360128617363 L 336.411149825784 335.5305466237942 L 338.1533101045296 334.7266881028939 L 339.89547038327527 329.90353697749197 L 341.6376306620209 324.11575562700966 L 343.37979094076655 321.7041800643087 L 345.1219512195122 315.75562700964633 L 346.86411149825784 314.7909967845659 L 348.6062717770035 315.2733118971061 L 350.34843205574913 318.0064308681672 L 352.0905923344948 312.7009646302251 L 353.8327526132404 303.2154340836013 L 355.57491289198606 292.2829581993569 L 357.3170731707317 291.63987138263667 L 359.05923344947735 287.78135048231513 L 360.801393728223 284.24437299035367 L 362.54355400696863 283.6012861736334 L 364.2857142857143 286.33440514469453 L 366.0278745644599 278.2958199356913 L 367.77003484320556 272.0257234726688 L 369.5121951219512 272.508038585209 L 371.25435540069685 273.63344051446944 L 372.9965156794425 273.1511254019293 L 374.73867595818814 264.46945337620576 L 376.4808362369338 258.5209003215434 L 378.2229965156795 257.7170418006431 L 379.96515679442507 261.09324758842445 L 381.70731707317077 256.2700964630225 L 383.44947735191636 245.016077170418 L 385.19163763066206 251.92926045016077 L 386.93379790940764 246.78456591639872 L 388.67595818815334 248.07073954983923 L 390.41811846689893 247.10610932475885 L 392.16027874564463 230.86816720257235 L 393.9024390243902 228.93890675241158 L 395.6445993031359 229.74276527331187 L 397.3867595818815 222.34726688102893 L 399.1289198606272 219.61414790996787 L 400.8710801393728 211.09324758842445 L 402.6132404181185 209.16398713826368 L 404.3554006968641 205.9485530546624 L 406.0975609756098 207.2347266881029 L 407.8397212543554 214.95176848874598 L 409.58188153310107 205.62700964630227 L 411.3240418118467 203.6977491961415 L 413.06620209059236 208.36012861736333 L 414.808362369338 189.7106109324759 L 416.55052264808364 184.5659163987138 L 418.2926829268293 175.5627009646302 L 420.03484320557493 170.09646302250803 L 421.7770034843206 168.81028938906752 L 423.5191637630662 160.93247588424435 L 425.26132404181186 154.983922829582 L 427.0034843205575 145.81993569131834 L 428.74564459930315 142.28295819935693 L 430.4878048780488 137.62057877813504 L 432.22996515679444 133.11897106109325 L 433.9721254355401 131.99356913183277 L 435.7142857142857 131.5112540192926 L 437.45644599303137 139.5498392282958 L 439.198606271777 125.88424437299034 L 440.94076655052265 126.04501607717043 L 442.6829268292683 126.04501607717043 L 444.42508710801394 122.50803858520902 L 446.1672473867596 133.92282958199354 L 447.9094076655052 127.49196141479098 L 449.65156794425087 128.29581993569133 L 451.3937282229965 122.66881028938906 L 453.13588850174216 118.16720257234726 L 454.8780487804878 122.0257234726688 L 456.62020905923345 110.77170418006432 L 458.3623693379791 108.84244372990355 L 460.10452961672473 113.66559485530547 L 461.8466898954704 110.2893890675241 L 463.588850174216 108.84244372990355 L 465.33101045296166 103.21543408360128 L 467.0731707317073 101.92926045016077 L 468.81533101045295 100 L 470.5574912891986 106.75241157556269 L 472.29965156794424 109.64630225080384 L 474.0418118466899 110.2893890675241 L 475.7839721254355 113.8263665594855 L 477.52613240418117 110.2893890675241 L 479.2682926829268 113.9871382636656 L 481.01045296167246 107.55627009646304 L 482.7526132404181 108.68167202572346 L 484.49477351916374 114.30868167202573 L 486.2369337979094 118.16720257234726 L 487.97909407665503 116.39871382636653 L 489.7212543554007 121.22186495176851 L 491.4634146341463 132.95819935691316 L 493.20557491289196 137.2990353697749 L 494.9477351916376 124.43729903536979 L 496.68989547038325 128.29581993569133 L 498.4320557491289 128.61736334405145 L 500.17421602787454 131.0289389067524 L 501.91637630662024 135.53054662379418 L 503.6585365853659 148.5530546623794 L 505.4006968641115 156.91318327974278 L 507.14285714285717 171.06109324758842 L 508.8850174216028 180.38585209003213 L 510.62717770034845 177.00964630225081 L 512.3693379790941 180.2250803858521 L 514.1114982578397 185.04823151125402 L 515.8536585365854 196.4630225080386 L 517.5958188153311 204.34083601286176 L 519.3379790940767 205.30546623794214 L 521.0801393728223 201.44694533762055 L 522.822299651568 202.57234726688102 L 524.5644599303137 207.2347266881029 L 526.3066202090592 205.46623794212218 L 528.0487804878048 214.14790996784564 L 529.7909407665505 222.50803858520902 L 531.5331010452962 221.54340836012864 L 533.2752613240418 213.18327974276525 L 535.0174216027874 225.5627009646302 L 536.7595818815331 221.2218649517685 L 538.5017421602788 228.45659163987136 L 540.2439024390244 236.0128617363344 L 541.98606271777 234.40514469453376 L 543.7282229965157 233.92282958199354 L 545.4703832752614 239.87138263665594 L 547.212543554007 241.63987138263667 L 548.9547038327526 244.37299035369773 L 550.6968641114983 237.13826366559488 L 552.439024390244 242.7652733118971 L 554.1811846689895 234.88745980707398 L 555.9233449477351 237.2990353697749 L 557.6655052264808 241.47909967845658 L 559.4076655052265 245.17684887459808 L 561.1498257839721 243.2475884244373 L 562.8919860627177 239.38906752411577 L 564.6341463414634 243.2475884244373 L 566.3763066202091 246.4630225080386 L 568.1184668989547 243.2475884244373 L 569.8606271777003 242.7652733118971 L 571.602787456446 252.09003215434086 L 573.3449477351917 248.39228295819936 L 575.0871080139373 239.7106109324759 L 576.8292682926829 240.83601286173632 L 578.5714285714286 243.08681672025722 L 580.3135888501743 247.42765273311898 L 582.0557491289198 250.48231511254016 L 583.7979094076654 245.016077170418 L 585.5400696864111 247.90996784565914 L 587.2822299651568 236.81672025723475 L 589.0243902439024 237.78135048231513 L 590.766550522648 244.37299035369773 L 592.5087108013937 253.6977491961415 L 594.2508710801394 254.66237942122189 L 595.993031358885 263.66559485530547 L 597.7351916376306 266.88102893890675 L 599.4773519163763 269.29260450160774 L 601.219512195122 270.41800643086816 L 602.9616724738676 275.5627009646302 L 604.7038327526133 277.65273311897107 L 606.445993031359 279.2604501607717 L 608.1881533101046 285.2090032154341 L 609.9303135888501 287.94212218649517 L 611.6724738675958 294.5337620578778 L 613.4146341463415 303.2154340836013 L 615.1567944250871 301.60771704180064 L 616.8989547038327 310.12861736334406 L 618.6411149825784 314.7909967845659 L 620.3832752613241 315.43408360128615 L 622.1254355400697 317.04180064308684 L 623.8675958188153 316.5594855305466 L 625.609756097561 315.2733118971061 L 627.3519163763067 317.524115755627 L 629.0940766550523 316.88102893890675 L 630.8362369337979 319.2926045016077 L 632.5783972125436 322.34726688102893 L 634.3205574912893 324.91961414790995 L 636.0627177700349 331.9935691318328 L 637.8048780487804 337.62057877813504 L 639.5470383275261 341.80064308681676 L 641.2891986062718 345.6591639871383 L 643.0313588850174 344.85530546623795 L 644.773519163763 342.443729903537 L 646.5156794425087 341.15755627009645 L 648.2578397212544 348.2315112540193 L 650 350.48231511254016 L 650 400 Z" /><text  class="poloto_labels poloto_text poloto_title" alignment-baseline="start" text-anchor="middle" font-size="x-large" x="400" y="37.5" >Total players on 2021-11-01</text><text  class="poloto_labels poloto_text poloto_xname" alignment-baseline="start" text-anchor="middle" font-size="x-large" x="400" y="481.25" >Time</text><text  class="poloto_labels poloto_text poloto_yname" alignment-baseline="start" text-anchor="middle" font-size="x-large" transform="rotate(-90,37.5,250)" x="37.5" y="250" >Count</text><line  class="poloto_axis_lines" stroke="black" x1="150" x2="150" y1="400" y2="405" /><text  class="poloto_tick_labels poloto_text" alignment-baseline="start" text-anchor="middle" x="150" y="430" > 00:00:00</text><line  class="poloto_axis_lines" stroke="black" x1="266.14401858304296" x2="266.14401858304296" y1="400" y2="405" /><text  class="poloto_tick_labels poloto_text" alignment-baseline="start" text-anchor="middle" x="266.14401858304296" y="430" > 05:33:20</text><line  class="poloto_axis_lines" stroke="black" x1="382.2880371660859" x2="382.2880371660859" y1="400" y2="405" /><text  class="poloto_tick_labels poloto_text" alignment-baseline="start" text-anchor="middle" x="382.2880371660859" y="430" > 11:06:40</text><line  class="poloto_axis_lines" stroke="black" x1="498.4320557491289" x2="498.4320557491289" y1="400" y2="405" /><text  class="poloto_tick_labels poloto_text" alignment-baseline="start" text-anchor="middle" x="498.4320557491289" y="430" > 16:40:00</text><line  class="poloto_axis_lines" stroke="black" x1="614.5760743321719" x2="614.5760743321719" y1="400" y2="405" /><text  class="poloto_tick_labels poloto_text" alignment-baseline="start" text-anchor="middle" x="614.5760743321719" y="430" > 22:13:20</text><line  class="poloto_axis_lines" stroke="black" x1="150" x2="144" y1="370.09646302250803" y2="370.09646302250803" /><text  class="poloto_tick_labels poloto_text" alignment-baseline="middle" text-anchor="end" x="135" y="370.09646302250803" > 1000</text><line  class="poloto_axis_lines" stroke="black" x1="150" x2="144" y1="289.7106109324759" y2="289.7106109324759" /><text  class="poloto_tick_labels poloto_text" alignment-baseline="middle" text-anchor="end" x="135" y="289.7106109324759" > 1500</text><line  class="poloto_axis_lines" stroke="black" x1="150" x2="144" y1="209.3247588424437" y2="209.3247588424437" /><text  class="poloto_tick_labels poloto_text" alignment-baseline="middle" text-anchor="end" x="135" y="209.3247588424437" > 2000</text><line  class="poloto_axis_lines" stroke="black" x1="150" x2="144" y1="128.93890675241158" y2="128.93890675241158" /><text  class="poloto_tick_labels poloto_text" alignment-baseline="middle" text-anchor="end" x="135" y="128.93890675241158" > 2500</text><path  stroke="black" fill="none" class="poloto_axis_lines" style="stroke-dasharray:14.518002322880372;stroke-dashoffset:-0;" d=" M 150 400 L 650 400" /><path  stroke="black" fill="none" class="poloto_axis_lines" style="stroke-dasharray:8.038585209003216;stroke-dashoffset:-29.903536977491967;" d=" M 150 400 L 150 100" /></svg>