<svg class="poloto" width="800" height="500" viewBox="0 0 800 500" xmlns="http://www.w3.org/2000/svg"><style>.poloto { stroke-linecap:round; stroke-linejoin:round; font-family: 'Tahoma', sans-serif; background-color: AliceBlue;} .poloto_scatter{stroke-width:7} .poloto_line{stroke-width:2} .poloto_text{fill: black;} .poloto_axis_lines{stroke: black;stroke-width:3;fill:none;stroke-dasharray:none} .poloto0stroke{stroke:  blue;} .poloto1stroke{stroke:  red;} .poloto2stroke{stroke:  green;} .poloto3stroke{stroke:  gold;} .poloto4stroke{stroke:  aqua;} .poloto5stroke{stroke:  lime;} .poloto6stroke{stroke:  orange;} .poloto7stroke{stroke:  chocolate;} .poloto0fill{fill:blue;} .poloto1fill{fill:red;} .poloto2fill{fill:green;} .poloto3fill{fill:gold;} .poloto4fill{fill:aqua;} .poloto5fill{fill:lime;} .poloto6fill{fill:orange;} .poloto7fill{fill:chocolate;}</style><text  class="poloto_text poloto_legend_text" alignment-baseline="middle" text-anchor="start" font-size="large" x="675" y="100" ></text><path  class="poloto_linefill poloto0fill" d=" M 150 400 L 150 370.49881235154396 L 151.74216027874564 372.4940617577197 L 153.4843205574913 375.6294536817102 L 155.22648083623693 377.9097387173397 L 156.96864111498257 379.9049881235154 L 158.71080139372822 381.3301662707838 L 160.45296167247386 381.04513064133016 L 162.1951219512195 383.895486935867 L 163.93728222996515 385.7482185273159 L 165.6794425087108 387.3159144893111 L 167.42160278745644 389.1686460807601 L 169.16376306620208 388.0285035629454 L 170.90592334494772 387.03087885985747 L 172.64808362369337 389.59619952494063 L 174.390243902439 386.7458432304038 L 176.13240418118465 389.1686460807601 L 177.8745644599303 393.1591448931116 L 179.61672473867597 392.1615201900238 L 181.3588850174216 390.5938242280285 L 183.10104529616726 391.59144893111636 L 184.8432055749129 391.8764845605701 L 186.58536585365854 393.3016627078385 L 188.3275261324042 395.15439429928745 L 190.06968641114983 392.3040380047506 L 191.81184668989548 396.1520190023753 L 193.55400696864112 392.5890736342043 L 195.29616724738676 397.71971496437055 L 197.0383275261324 398.1472684085511 L 198.78048780487805 393.3016627078385 L 200.5226480836237 397.8622327790974 L 202.26480836236934 398.1472684085511 L 204.00696864111498 398.28978622327793 L 205.74912891986062 395.72446555819477 L 207.49128919860627 398.43230403800476 L 209.2334494773519 395.15439429928745 L 210.97560975609755 393.87173396674586 L 212.7177700348432 400 L 214.45993031358887 398.00475059382427 L 216.2020905923345 397.8622327790974 L 217.94425087108016 397.71971496437055 L 219.6864111498258 394.86935866983373 L 221.42857142857144 398.28978622327793 L 223.1707317073171 396.7220902612827 L 224.91289198606273 395.8669833729216 L 226.65505226480838 397.57719714964367 L 228.39721254355402 395.01187648456056 L 230.13937282229966 389.1686460807601 L 231.8815331010453 383.6104513064133 L 233.62369337979095 386.3182897862233 L 235.3658536585366 383.75296912114015 L 237.10801393728224 386.46080760095015 L 238.85017421602788 387.1733966745843 L 240.59233449477352 388.8836104513064 L 242.33449477351917 388.8836104513064 L 244.0766550522648 387.60095011876484 L 245.81881533101046 387.03087885985747 L 247.5609756097561 385.17814726840857 L 249.30313588850174 386.603325415677 L 251.0452961672474 388.31353919239905 L 252.78745644599303 385.8907363420427 L 254.52961672473867 385.7482185273159 L 256.2717770034843 386.17577197149643 L 258.01393728222996 387.458432304038 L 259.7560975609756 388.74109263657954 L 261.49825783972125 385.03562945368174 L 263.2404181184669 386.0332541567696 L 264.98257839721254 386.88836104513064 L 266.7247386759582 389.1686460807601 L 268.4668989547038 391.3064133016627 L 270.20905923344947 393.4441805225653 L 271.9512195121951 396.57957244655586 L 273.69337979094075 394.1567695961995 L 275.4355400696864 392.5890736342043 L 277.17770034843204 388.0285035629454 L 278.91986062717774 389.31116389548697 L 280.6620209059233 390.0237529691211 L 282.404181184669 387.03087885985747 L 284.1463414634146 387.458432304038 L 285.8885017421603 385.8907363420427 L 287.6306620209059 382.6128266033254 L 289.3728222996516 378.33729216152017 L 291.1149825783972 382.32779097387174 L 292.8571428571429 378.33729216152017 L 294.5993031358885 371.9239904988124 L 296.3414634146342 374.2042755344418 L 298.08362369337976 376.34204275534444 L 299.82578397212546 373.3491686460808 L 301.56794425087105 373.3491686460808 L 303.31010452961675 372.6365795724465 L 305.05226480836234 370.6413301662708 L 306.79442508710804 373.4916864608076 L 308.5365853658536 373.20665083135395 L 310.2787456445993 375.77197149643706 L 312.0209059233449 378.7648456057007 L 313.7630662020906 376.91211401425176 L 315.5052264808362 379.4774346793349 L 317.2473867595819 378.7648456057007 L 318.9895470383275 377.1971496437055 L 320.7317073170732 375.48693586698334 L 322.4738675958188 376.1995249406176 L 324.2160278745645 374.34679334916865 L 325.9581881533101 371.9239904988124 L 327.70034843205576 373.63420427553444 L 329.4425087108014 373.63420427553444 L 331.18466898954705 369.50118764845604 L 332.9268292682927 370.7838479809976 L 334.66898954703834 367.2209026128266 L 336.411149825784 366.5083135391924 L 338.1533101045296 361.520190023753 L 339.89547038327527 357.24465558194777 L 341.6376306620209 354.96437054631826 L 343.37979094076655 351.9714964370546 L 345.1219512195122 346.41330166270785 L 346.86411149825784 349.1211401425178 L 348.6062717770035 351.4014251781473 L 350.34843205574913 351.4014251781473 L 352.0905923344948 350.1187648456057 L 353.8327526132404 346.12826603325414 L 355.57491289198606 341.56769596199524 L 357.3170731707317 337.8622327790974 L 359.05923344947735 334.7268408551069 L 360.801393728223 329.8812351543943 L 362.54355400696863 327.60095011876484 L 364.2857142857143 326.46080760095015 L 366.0278745644599 325.4631828978622 L 367.77003484320556 322.4703087885986 L 369.5121951219512 318.90736342042754 L 371.25435540069685 317.624703087886 L 372.9965156794425 317.9097387173397 L 374.73867595818814 315.6294536817102 L 376.4808362369338 313.63420427553444 L 378.2229965156795 311.78147268408554 L 379.96515679442507 307.3634204275535 L 381.70731707317077 305.36817102137763 L 383.44947735191636 302.51781472684087 L 385.19163763066206 299.66745843230404 L 386.93379790940764 297.3871733966746 L 388.67595818815334 289.54869358669833 L 390.41811846689893 285.70071258907365 L 392.16027874564463 281.9952494061758 L 393.9024390243902 277.43467933491684 L 395.6445993031359 277.8622327790974 L 397.3867595818815 282.28028503562945 L 399.1289198606272 284.27553444180523 L 400.8710801393728 280.85510688836104 L 402.6132404181185 273.3016627078385 L 404.3554006968641 274.7268408551069 L 406.0975609756098 270.30878859857484 L 407.8397212543554 265.60570071258906 L 409.58188153310107 259.7624703087886 L 411.3240418118467 263.04038004750595 L 413.06620209059236 259.4774346793349 L 414.808362369338 257.3396674584323 L 416.55052264808364 254.061757719715 L 418.2926829268293 250.49881235154396 L 420.03484320557493 245.79572446555818 L 421.7770034843206 241.37767220902612 L 423.5191637630662 240.52256532066508 L 425.26132404181186 239.38242280285033 L 427.0034843205575 235.67695961995247 L 428.74564459930315 222.5653206650831 L 430.4878048780488 220.14251781472683 L 432.22996515679444 212.30403800475057 L 433.9721254355401 214.29928741092635 L 435.7142857142857 211.87648456057008 L 437.45644599303137 200.33254156769596 L 439.198606271777 186.22327790973873 L 440.94076655052265 177.52969121140143 L 442.6829268292683 186.7933491686461 L 444.42508710801394 175.10688836104515 L 446.1672473867596 169.833729216152 L 447.9094076655052 160.57007125890738 L 449.65156794425087 151.59144893111636 L 451.3937282229965 148.17102137767222 L 453.13588850174216 140.61757719714961 L 454.8780487804878 153.01662707838477 L 456.62020905923345 150.02375296912112 L 458.3623693379791 138.19477434679334 L 460.10452961672473 130.92636579572445 L 461.8466898954704 128.21852731591446 L 463.588850174216 124.22802850356294 L 465.33101045296166 122.94536817102136 L 467.0731707317073 119.52494061757722 L 468.81533101045295 110.68883610451309 L 470.5574912891986 119.80997624703087 L 472.29965156794424 117.81472684085509 L 474.0418118466899 115.10688836104515 L 475.7839721254355 111.82897862232778 L 477.52613240418117 111.40142517814729 L 479.2682926829268 105.41567695961993 L 481.01045296167246 105.55819477434682 L 482.7526132404181 106.55581947743468 L 484.49477351916374 108.26603325415675 L 486.2369337979094 111.82897862232778 L 487.97909407665503 104.5605700712589 L 489.7212543554007 100 L 491.4634146341463 107.55344418052255 L 493.20557491289196 106.69833729216151 L 494.9477351916376 112.54156769596199 L 496.68989547038325 108.12351543942992 L 498.4320557491289 112.82660332541565 L 500.17421602787454 117.95724465558192 L 501.91637630662024 114.96437054631826 L 503.6585365853659 116.67458432304039 L 505.4006968641115 114.25178147268406 L 507.14285714285717 122.51781472684087 L 508.8850174216028 131.7814726840855 L 510.62717770034845 134.34679334916865 L 512.3693379790941 131.7814726840855 L 514.1114982578397 141.187648456057 L 515.8536585365854 142.04275534441803 L 517.5958188153311 146.17577197149643 L 519.3379790940767 149.16864608076008 L 521.0801393728223 150.45130641330167 L 522.822299651568 148.7410926365796 L 524.5644599303137 148.31353919239905 L 526.3066202090592 160.7125890736342 L 528.0487804878048 163.56294536817103 L 529.7909407665505 164.5605700712589 L 531.5331010452962 165.41567695961993 L 533.2752613240418 167.12589073634206 L 535.0174216027874 166.6983372921615 L 536.7595818815331 166.6983372921615 L 538.5017421602788 174.39429928741094 L 540.2439024390244 176.6745843230404 L 541.98606271777 191.49643705463183 L 543.7282229965157 190.49881235154396 L 545.4703832752614 196.76959619952493 L 547.212543554007 191.7814726840855 L 548.9547038327526 199.04988123515437 L 550.6968641114983 201.187648456057 L 552.439024390244 202.32779097387174 L 554.1811846689895 199.76247030878858 L 555.9233449477351 198.47980997624705 L 557.6655052264808 205.3206650831354 L 559.4076655052265 208.5985748218527 L 561.1498257839721 214.58432304038007 L 562.8919860627177 214.15676959619952 L 564.6341463414634 223.99049881235152 L 566.3763066202091 225.9857482185273 L 568.1184668989547 233.11163895486936 L 569.8606271777003 236.81710213776722 L 571.602787456446 248.07600950118763 L 573.3449477351917 241.66270783847983 L 575.0871080139373 242.6603325415677 L 576.8292682926829 242.51781472684087 L 578.5714285714286 246.22327790973873 L 580.3135888501743 253.63420427553444 L 582.0557491289198 253.06413301662707 L 583.7979094076654 256.19952494061755 L 585.5400696864111 261.04513064133016 L 587.2822299651568 257.48218527315913 L 589.0243902439024 254.20427553444182 L 590.766550522648 259.0498812351544 L 592.5087108013937 257.62470308788596 L 594.2508710801394 262.6128266033254 L 595.993031358885 267.8859857482185 L 597.7351916376306 266.4608076009501 L 599.4773519163763 266.17577197149643 L 601.219512195122 267.458432304038 L 602.9616724738676 269.1686460807601 L 604.7038327526133 270.0237529691211 L 606.445993031359 269.8812351543943 L 608.1881533101046 273.15914489311166 L 609.9303135888501 278.43230403800476 L 611.6724738675958 286.84085510688834 L 613.4146341463415 289.54869358669833 L 615.1567944250871 292.39904988123516 L 616.8989547038327 292.8266033254157 L 618.6411149825784 289.69121140142516 L 620.3832752613241 291.2589073634204 L 622.1254355400697 299.38242280285033 L 623.8675958188153 300.5225653206651 L 625.609756097561 299.52494061757716 L 627.3519163763067 303.08788598574824 L 629.0940766550523 306.36579572446556 L 630.8362369337979 314.06175771971493 L 632.5783972125436 317.76722090261285 L 634.3205574912893 322.4703087885986 L 636.0627177700349 330.5938242280285 L 637.8048780487804 331.8764845605701 L 639.5470383275261 333.72921615201903 L 641.2891986062718 342.28028503562945 L 643.0313588850174 340.85510688836104 L 644.773519163763 341.8527315914489 L 646.5156794425087 341.2826603325416 L 648.2578397212544 347.2684085510689 L 650 343.56294536817103 L 650 400 Z" /><text  class="poloto_labels poloto_text poloto_title" alignment-baseline="start" text-anchor="middle" font-size="x-large" x="400" y="37.5" >Total players on 2021-09-10</text><text  class="poloto_labels poloto_text poloto_xname" alignment-baseline="start" text-anchor="middle" font-size="x-large" x="400" y="481.25" >Time</text><text  class="poloto_labels poloto_text poloto_yname" alignment-baseline="start" text-anchor="middle" font-size="x-large" transform="rotate(-90,37.5,250)" x="37.5" y="250" >Count</text><line  class="poloto_axis_lines" stroke="black" x1="150" x2="150" y1="400" y2="405" /><text  class="poloto_tick_labels poloto_text" alignment-baseline="start" text-anchor="middle" x="150" y="430" > 00:00</text><line  class="poloto_axis_lines" stroke="black" x1="266.14401858304296" x2="266.14401858304296" y1="400" y2="405" /><text  class="poloto_tick_labels poloto_text" alignment-baseline="start" text-anchor="middle" x="266.14401858304296" y="430" > 06:00</text><line  class="poloto_axis_lines" stroke="black" x1="382.2880371660859" x2="382.2880371660859" y1="400" y2="405" /><text  class="poloto_tick_labels poloto_text" alignment-baseline="start" text-anchor="middle" x="382.2880371660859" y="430" > 11:00</text><line  class="poloto_axis_lines" stroke="black" x1="498.4320557491289" x2="498.4320557491289" y1="400" y2="405" /><text  class="poloto_tick_labels poloto_text" alignment-baseline="start" text-anchor="middle" x="498.4320557491289" y="430" > 17:00</text><line  class="poloto_axis_lines" stroke="black" x1="614.5760743321719" x2="614.5760743321719" y1="400" y2="405" /><text  class="poloto_tick_labels poloto_text" alignment-baseline="start" text-anchor="middle" x="614.5760743321719" y="430" > 22:00</text><line  class="poloto_axis_lines" stroke="black" x1="150" x2="144" y1="335.4394299287411" y2="335.4394299287411" /><text  class="poloto_tick_labels poloto_text" alignment-baseline="middle" text-anchor="end" x="135" y="335.4394299287411" > 1500</text><line  class="poloto_axis_lines" stroke="black" x1="150" x2="144" y1="264.18052256532064" y2="264.18052256532064" /><text  class="poloto_tick_labels poloto_text" alignment-baseline="middle" text-anchor="end" x="135" y="264.18052256532064" > 2000</text><line  class="poloto_axis_lines" stroke="black" x1="150" x2="144" y1="192.92161520190024" y2="192.92161520190024" /><text  class="poloto_tick_labels poloto_text" alignment-baseline="middle" text-anchor="end" x="135" y="192.92161520190024" > 2500</text><line  class="poloto_axis_lines" stroke="black" x1="150" x2="144" y1="121.66270783847983" y2="121.66270783847983" /><text  class="poloto_tick_labels poloto_text" alignment-baseline="middle" text-anchor="end" x="135" y="121.66270783847983" > 3000</text><path  stroke="black" fill="none" class="poloto_axis_lines" style="stroke-dasharray:14.518002322880372;stroke-dashoffset:-0;" d=" M 150 400 L 650 400" /><path  stroke="black" fill="none" class="poloto_axis_lines" style="stroke-dasharray:7.125890736342043;stroke-dashoffset:-64.5605700712589;" d=" M 150 400 L 150 100" /></svg>