<svg class="poloto" width="800" height="500" viewBox="0 0 800 500" xmlns="http://www.w3.org/2000/svg"><style>.poloto { stroke-linecap:round; stroke-linejoin:round; font-family: 'Tahoma', sans-serif; background-color: AliceBlue;} .poloto_scatter{stroke-width:7} .poloto_line{stroke-width:2} .poloto_text{fill: black;} .poloto_axis_lines{stroke: black;stroke-width:3;fill:none;stroke-dasharray:none} .poloto0stroke{stroke:  blue;} .poloto1stroke{stroke:  red;} .poloto2stroke{stroke:  green;} .poloto3stroke{stroke:  gold;} .poloto4stroke{stroke:  aqua;} .poloto5stroke{stroke:  lime;} .poloto6stroke{stroke:  orange;} .poloto7stroke{stroke:  chocolate;} .poloto0fill{fill:blue;} .poloto1fill{fill:red;} .poloto2fill{fill:green;} .poloto3fill{fill:gold;} .poloto4fill{fill:aqua;} .poloto5fill{fill:lime;} .poloto6fill{fill:orange;} .poloto7fill{fill:chocolate;}</style><text  class="poloto_text poloto_legend_text" alignment-baseline="middle" text-anchor="start" font-size="large" x="675" y="100" ></text><path  class="poloto_linefill poloto0fill" d=" M 150 400 L 150 354.98338870431894 L 151.74216027874564 358.1395348837209 L 153.4843205574913 369.43521594684387 L 155.22648083623693 370.09966777408636 L 156.96864111498257 372.09302325581393 L 158.71080139372822 373.0897009966777 L 160.45296167247386 368.27242524916943 L 162.1951219512195 367.109634551495 L 163.93728222996515 362.79069767441865 L 165.6794425087108 365.4485049833887 L 167.42160278745644 367.4418604651163 L 169.16376306620208 370.7641196013289 L 170.90592334494772 373.421926910299 L 172.64808362369337 379.40199335548175 L 174.390243902439 385.2159468438538 L 176.13240418118465 388.2059800664452 L 177.8745644599303 389.5348837209302 L 179.61672473867597 388.37209302325584 L 181.3588850174216 393.687707641196 L 183.10104529616726 394.51827242524917 L 184.8432055749129 390.0332225913621 L 186.58536585365854 389.7009966777409 L 188.3275261324042 391.3621262458472 L 190.06968641114983 393.8538205980067 L 191.81184668989548 393.18936877076413 L 193.55400696864112 390.19933554817277 L 195.29616724738676 400 L 197.0383275261324 395.1827242524917 L 198.78048780487805 394.6843853820598 L 200.5226480836237 394.01993355481727 L 202.26480836236934 390.69767441860466 L 204.00696864111498 394.1860465116279 L 205.74912891986062 393.18936877076413 L 207.49128919860627 392.19269102990035 L 209.2334494773519 381.3953488372093 L 210.97560975609755 384.3853820598007 L 212.7177700348432 380.2325581395349 L 214.45993031358887 386.04651162790697 L 216.2020905923345 382.3920265780731 L 217.94425087108016 385.7142857142857 L 219.6864111498258 380.89700996677743 L 221.42857142857144 372.2591362126246 L 223.1707317073171 373.25581395348837 L 224.91289198606273 370.7641196013289 L 226.65505226480838 370.09966777408636 L 228.39721254355402 369.10299003322257 L 230.13937282229966 364.28571428571433 L 231.8815331010453 357.641196013289 L 233.62369337979095 356.31229235880403 L 235.3658536585366 359.8006644518273 L 237.10801393728224 354.15282392026575 L 238.85017421602788 348.6710963455149 L 240.59233449477352 353.48837209302326 L 242.33449477351917 355.14950166112953 L 244.0766550522648 355.14950166112953 L 245.81881533101046 354.81727574750835 L 247.5609756097561 349.6677740863787 L 249.30313588850174 351.827242524917 L 251.0452961672474 351.4950166112957 L 252.78745644599303 350.8305647840532 L 254.52961672473867 352.99003322259136 L 256.2717770034843 351.6611295681063 L 258.01393728222996 348.5049833887043 L 259.7560975609756 338.70431893687703 L 261.49825783972125 342.358803986711 L 263.2404181184669 341.5282392026578 L 264.9883855981417 342.8571428571429 L 266.7247386759582 342.6910299003322 L 268.4668989547038 340.0332225913621 L 270.20905923344947 338.70431893687703 L 271.9512195121951 334.0531561461794 L 273.69337979094075 333.2225913621263 L 275.44134727061555 333.7209302325582 L 277.17770034843204 331.22923588039873 L 278.9198606271777 335.8803986710964 L 280.6620209059233 337.20930232558135 L 282.40418118466897 334.0531561461794 L 284.1463414634146 338.20598006644514 L 285.88850174216026 329.73421926910305 L 287.6306620209059 326.0797342192691 L 289.37282229965155 320.76411960132896 L 291.1149825783972 321.09634551495014 L 292.85714285714283 320.09966777408636 L 294.5993031358885 316.2790697674419 L 296.3414634146342 322.5913621262458 L 298.08362369337976 316.7774086378738 L 299.82578397212546 318.1063122923588 L 301.56794425087105 314.9501661129568 L 303.31010452961675 315.9468438538206 L 305.05226480836234 310.1328903654485 L 306.79442508710804 304.81727574750835 L 308.5365853658536 314.6179401993355 L 310.2787456445993 309.6345514950166 L 312.0209059233449 309.9667774086379 L 313.7630662020906 310.1328903654485 L 315.5052264808362 309.1362126245847 L 317.2473867595819 302.65780730897006 L 318.9895470383275 304.65116279069764 L 320.7317073170732 301.6611295681063 L 322.4738675958188 301.3289036544851 L 324.2160278745645 298.3388704318937 L 325.95818815331006 300 L 327.70034843205576 291.6943521594684 L 329.44250871080135 283.3887043189369 L 331.18466898954705 286.87707641196016 L 332.92682926829264 280.73089700996684 L 334.66898954703834 279.23588039867116 L 336.4111498257839 282.3920265780731 L 338.1533101045296 279.23588039867116 L 339.8954703832752 279.40199335548175 L 341.6376306620209 269.76744186046517 L 343.3797909407665 267.109634551495 L 345.1219512195122 255.8139534883721 L 346.86411149825784 257.9734219269103 L 348.6062717770035 259.468438538206 L 350.34843205574913 255.64784053156146 L 352.0905923344948 248.17275747508305 L 353.8327526132404 252.82392026578074 L 355.57491289198606 252.9900332225914 L 357.3170731707317 243.0232558139535 L 359.05923344947735 248.00664451827245 L 360.801393728223 247.50830564784056 L 362.54355400696863 240.86378737541528 L 364.2857142857143 248.00664451827245 L 366.0278745644599 241.36212624584718 L 367.77003484320556 231.3953488372093 L 369.5121951219512 230.8970099667774 L 371.25435540069685 231.3953488372093 L 372.9965156794425 229.06976744186048 L 374.73867595818814 224.58471760797343 L 376.4808362369338 215.11627906976744 L 378.2229965156794 221.42857142857142 L 379.96515679442507 215.94684385382058 L 381.7073170731707 210.29900332225915 L 383.44947735191636 211.29568106312294 L 385.191637630662 210.6312292358804 L 386.93379790940764 211.62790697674419 L 388.6759581881533 206.312292358804 L 390.41811846689893 207.47508305647838 L 392.1602787456446 201.6611295681063 L 393.9024390243902 209.46843853820596 L 395.6445993031359 201.6611295681063 L 397.3867595818815 200.99667774086382 L 399.1289198606272 193.35548172757476 L 400.876887340302 189.53488372093025 L 402.6132404181185 208.63787375415282 L 404.3554006968641 197.8405315614618 L 406.0975609756097 206.4784053156146 L 407.83972125435537 202.1594684385382 L 409.581881533101 204.9833887043189 L 411.32404181184666 213.28903654485052 L 413.0662020905923 208.47176079734217 L 414.80836236933794 207.64119601328903 L 416.5505226480836 207.14285714285714 L 418.29268292682923 201.4950166112957 L 420.0348432055749 195.34883720930233 L 421.7770034843206 194.1860465116279 L 423.5191637630662 196.01328903654488 L 425.26132404181186 195.0166112956811 L 427.0034843205575 186.5448504983389 L 428.74564459930315 198.3388704318937 L 430.4878048780488 189.3687707641196 L 432.22996515679444 182.3920265780731 L 433.9721254355401 180.23255813953486 L 435.7142857142857 167.77408637873756 L 437.45644599303137 162.62458471760797 L 439.198606271777 153.98671096345512 L 440.94076655052265 160.1328903654485 L 442.68873403019745 150.99667774086382 L 444.42508710801394 143.52159468438538 L 446.1672473867596 139.70099667774082 L 447.9094076655052 134.3853820598007 L 449.65156794425087 130.89700996677743 L 451.3937282229965 131.06312292358803 L 453.13588850174216 126.41196013289039 L 454.8780487804878 127.07641196013287 L 456.62020905923345 132.5581395348837 L 458.3623693379791 120.43189368770766 L 460.10452961672473 118.43853820598008 L 461.8466898954704 110.13289036544847 L 463.588850174216 124.25249169435222 L 465.33101045296166 105.14950166112953 L 467.0731707317073 106.47840531561462 L 468.81533101045295 109.3023255813954 L 470.5574912891986 104.48504983388705 L 472.29965156794424 103.65448504983385 L 474.0418118466899 100 L 475.7839721254355 108.1395348837209 L 477.52613240418117 102.15946843853817 L 479.2682926829268 110.96345514950167 L 481.01045296167246 114.78405315614623 L 482.7526132404181 119.60132890365446 L 484.5005807200929 116.4451827242525 L 486.2369337979094 120.43189368770766 L 487.97909407665503 119.93355481727576 L 489.7212543554007 124.9169435215947 L 491.4634146341463 127.40863787375417 L 493.20557491289196 129.06976744186045 L 494.9477351916376 135.38205980066448 L 496.68989547038325 122.25913621262464 L 498.4320557491289 134.3853820598007 L 500.17421602787454 134.71760797342188 L 501.9163763066202 144.85049833887044 L 503.6585365853658 138.03986710963454 L 505.40069686411147 141.8604651162791 L 507.1428571428571 143.52159468438538 L 508.88501742160275 141.1960132890365 L 510.6271777003484 163.4551495016611 L 512.3693379790941 177.40863787375415 L 514.1114982578397 170.43189368770763 L 515.8536585365853 170.59800664451828 L 517.595818815331 175.24916943521598 L 519.3379790940767 176.0797342192691 L 521.0801393728223 183.72093023255812 L 522.822299651568 187.04318936877078 L 524.5644599303137 192.19269102990032 L 526.3066202090592 193.35548172757476 L 528.0487804878048 209.6345514950166 L 529.7909407665505 206.9767441860465 L 531.5331010452962 220.76411960132893 L 533.2752613240418 208.97009966777406 L 535.0174216027874 211.62790697674419 L 536.7653890824622 217.44186046511626 L 538.5017421602788 235.5481727574751 L 540.2439024390244 223.7541528239203 L 541.98606271777 230.06644518272427 L 543.7282229965157 229.23588039867113 L 545.4703832752614 238.70431893687706 L 547.2183507549362 243.0232558139535 L 548.9547038327526 242.85714285714286 L 550.6968641114983 246.01328903654488 L 552.439024390244 254.15282392026577 L 554.1811846689895 255.3156146179402 L 555.9233449477351 259.468438538206 L 557.6655052264808 267.2757475083057 L 559.4076655052265 263.62126245847173 L 561.1498257839721 263.62126245847173 L 562.8919860627177 268.6046511627907 L 564.6341463414634 267.109634551495 L 566.3763066202091 270.93023255813955 L 568.1184668989547 272.25913621262464 L 569.8606271777003 273.2558139534884 L 571.602787456446 276.7441860465117 L 573.3449477351917 278.40531561461796 L 575.0871080139373 278.40531561461796 L 576.8292682926829 280.89700996677743 L 578.5714285714286 281.5614617940199 L 580.3135888501743 286.04651162790697 L 582.0557491289198 285.8803986710964 L 583.7979094076654 286.04651162790697 L 585.5400696864111 290.1993355481727 L 587.2822299651568 287.20930232558135 L 589.0243902439024 290.3654485049834 L 590.766550522648 294.01993355481727 L 592.5087108013937 290.531561461794 L 594.2508710801394 292.358803986711 L 595.993031358885 295.84717607973425 L 597.7351916376306 296.34551495016615 L 599.4773519163763 297.00996677740864 L 601.219512195122 299.1694352159468 L 602.9616724738676 303.65448504983385 L 604.7038327526132 302.15946843853817 L 606.4459930313589 301.6611295681063 L 608.1881533101046 299.6677740863787 L 609.9303135888501 301.9933554817276 L 611.6724738675957 302.99003322259136 L 613.4146341463414 308.4717607973422 L 615.1567944250871 320.26578073089706 L 616.8989547038327 319.10299003322257 L 618.6411149825783 321.42857142857144 L 620.383275261324 323.5880398671096 L 622.1254355400697 321.09634551495014 L 623.8675958188153 321.92691029900334 L 625.609756097561 326.4119601328904 L 627.3519163763067 332.0598006644518 L 629.0940766550523 329.73421926910305 L 630.8362369337979 338.37209302325584 L 632.5783972125436 342.6910299003322 L 634.3205574912893 346.51162790697674 L 636.0627177700349 343.1893687707641 L 637.8048780487804 336.04651162790697 L 639.5470383275261 333.7209302325582 L 641.2891986062718 329.06976744186045 L 643.0313588850174 338.87043189368774 L 644.773519163763 345.18272425249165 L 646.5156794425087 348.172757475083 L 648.2578397212544 354.81727574750835 L 650 355.14950166112953 L 650 400 Z" /><text  class="poloto_labels poloto_text poloto_title" alignment-baseline="start" text-anchor="middle" font-size="x-large" x="400" y="37.5" >Total players on 2021-08-05</text><text  class="poloto_labels poloto_text poloto_xname" alignment-baseline="start" text-anchor="middle" font-size="x-large" x="400" y="481.25" >Time</text><text  class="poloto_labels poloto_text poloto_yname" alignment-baseline="start" text-anchor="middle" font-size="x-large" transform="rotate(-90,37.5,250)" x="37.5" y="250" >Count</text><line  class="poloto_axis_lines" stroke="black" x1="208.0487804878049" x2="208.0487804878049" y1="400" y2="405" /><text  class="poloto_tick_labels poloto_text" alignment-baseline="start" text-anchor="middle" x="208.0487804878049" y="430" > 03:00</text><line  class="poloto_axis_lines" stroke="black" x1="266.1207897793264" x2="266.1207897793264" y1="400" y2="405" /><text  class="poloto_tick_labels poloto_text" alignment-baseline="start" text-anchor="middle" x="266.1207897793264" y="430" > 06:00</text><line  class="poloto_axis_lines" stroke="black" x1="324.19279907084785" x2="324.19279907084785" y1="400" y2="405" /><text  class="poloto_tick_labels poloto_text" alignment-baseline="start" text-anchor="middle" x="324.19279907084785" y="430" > 08:00</text><line  class="poloto_axis_lines" stroke="black" x1="382.2648083623693" x2="382.2648083623693" y1="400" y2="405" /><text  class="poloto_tick_labels poloto_text" alignment-baseline="start" text-anchor="middle" x="382.2648083623693" y="430" > 11:00</text><line  class="poloto_axis_lines" stroke="black" x1="440.3368176538908" x2="440.3368176538908" y1="400" y2="405" /><text  class="poloto_tick_labels poloto_text" alignment-baseline="start" text-anchor="middle" x="440.3368176538908" y="430" > 14:00</text><line  class="poloto_axis_lines" stroke="black" x1="498.4088269454123" x2="498.4088269454123" y1="400" y2="405" /><text  class="poloto_tick_labels poloto_text" alignment-baseline="start" text-anchor="middle" x="498.4088269454123" y="430" > 17:00</text><line  class="poloto_axis_lines" stroke="black" x1="556.4808362369338" x2="556.4808362369338" y1="400" y2="405" /><text  class="poloto_tick_labels poloto_text" alignment-baseline="start" text-anchor="middle" x="556.4808362369338" y="430" > 19:00</text><line  class="poloto_axis_lines" stroke="black" x1="614.5528455284552" x2="614.5528455284552" y1="400" y2="405" /><text  class="poloto_tick_labels poloto_text" alignment-baseline="start" text-anchor="middle" x="614.5528455284552" y="430" > 22:00</text><line  class="poloto_axis_lines" stroke="black" x1="150" x2="144" y1="360.1328903654485" y2="360.1328903654485" /><text  class="poloto_tick_labels poloto_text" alignment-baseline="middle" text-anchor="end" x="135" y="360.1328903654485" > 1500</text><line  class="poloto_axis_lines" stroke="black" x1="150" x2="144" y1="277.0764119601329" y2="277.0764119601329" /><text  class="poloto_tick_labels poloto_text" alignment-baseline="middle" text-anchor="end" x="135" y="277.0764119601329" > 2000</text><line  class="poloto_axis_lines" stroke="black" x1="150" x2="144" y1="194.01993355481727" y2="194.01993355481727" /><text  class="poloto_tick_labels poloto_text" alignment-baseline="middle" text-anchor="end" x="135" y="194.01993355481727" > 2500</text><line  class="poloto_axis_lines" stroke="black" x1="150" x2="144" y1="110.96345514950167" y2="110.96345514950167" /><text  class="poloto_tick_labels poloto_text" alignment-baseline="middle" text-anchor="end" x="135" y="110.96345514950167" > 3000</text><path  stroke="black" fill="none" class="poloto_axis_lines" style="stroke-dasharray:14.518002322880372;stroke-dashoffset:-58.04878048780488;" d=" M 150 400 L 650 400" /><path  stroke="black" fill="none" class="poloto_axis_lines" style="stroke-dasharray:8.305647840531561;stroke-dashoffset:-39.8671096345515;" d=" M 150 400 L 150 100" /></svg>