<svg class="poloto" width="800" height="500" viewBox="0 0 800 500" xmlns="http://www.w3.org/2000/svg"><style>.poloto { stroke-linecap:round; stroke-linejoin:round; font-family: 'Tahoma', sans-serif; background-color: AliceBlue;} .poloto_scatter{stroke-width:7} .poloto_line{stroke-width:2} .poloto_text{fill: black;} .poloto_axis_lines{stroke: black;stroke-width:3;fill:none;stroke-dasharray:none} .poloto0stroke{stroke:  blue;} .poloto1stroke{stroke:  red;} .poloto2stroke{stroke:  green;} .poloto3stroke{stroke:  gold;} .poloto4stroke{stroke:  aqua;} .poloto5stroke{stroke:  lime;} .poloto6stroke{stroke:  orange;} .poloto7stroke{stroke:  chocolate;} .poloto0fill{fill:blue;} .poloto1fill{fill:red;} .poloto2fill{fill:green;} .poloto3fill{fill:gold;} .poloto4fill{fill:aqua;} .poloto5fill{fill:lime;} .poloto6fill{fill:orange;} .poloto7fill{fill:chocolate;}</style><text  class="poloto_text poloto_legend_text" alignment-baseline="middle" text-anchor="start" font-size="large" x="675" y="100" ></text><path  class="poloto_linefill poloto0fill" d=" M 150 400 L 150 342.27129337539435 L 151.74216027874564 353.2492113564669 L 153.4843205574913 363.0914826498423 L 155.22648083623693 361.7665615141956 L 156.96864111498257 361.9558359621451 L 158.71080139372822 363.84858044164037 L 160.45296167247386 367.06624605678235 L 162.1951219512195 368.39116719242907 L 163.93728222996515 367.6340694006309 L 165.6794425087108 370.47318611987384 L 167.42160278745644 373.3123028391167 L 169.16376306620208 374.6372239747634 L 170.90592334494772 382.20820189274446 L 172.64808362369337 387.88643533123025 L 174.390243902439 390.7255520504732 L 176.13240418118465 395.45741324921136 L 177.8745644599303 392.9968454258675 L 179.61672473867597 395.83596214511044 L 181.3588850174216 388.83280757097793 L 183.10104529616726 394.5110410094637 L 184.8432055749129 391.1041009463722 L 186.58536585365854 388.4542586750789 L 188.3275261324042 380.5047318611987 L 190.06968641114983 385.61514195583595 L 191.81184668989548 385.80441640378547 L 193.55400696864112 397.7287066246057 L 195.29616724738676 397.1608832807571 L 197.0383275261324 388.6435331230284 L 198.78048780487805 389.77917981072557 L 200.5226480836237 383.9116719242902 L 202.26480836236934 379.93690851735016 L 204.00696864111498 372.93375394321765 L 205.74912891986062 377.66561514195587 L 207.49128919860627 378.80126182965296 L 209.2334494773519 376.9085173501577 L 210.97560975609755 373.69085173501577 L 212.7177700348432 366.6876971608833 L 214.45993031358887 366.49842271293375 L 216.2020905923345 366.1198738170347 L 217.94425087108016 366.49842271293375 L 219.6864111498258 362.7129337539432 L 221.42857142857144 362.1451104100946 L 223.1707317073171 364.0378548895899 L 224.91289198606273 363.47003154574134 L 226.65505226480838 361.00946372239747 L 228.39721254355402 362.5236593059937 L 230.13937282229966 356.2776025236593 L 231.8815331010453 351.35646687697164 L 233.62369337979095 348.32807570977917 L 235.3658536585366 358.7381703470032 L 237.10801393728224 345.4889589905363 L 238.85017421602788 347.0031545741325 L 240.59233449477352 347.57097791798105 L 242.33449477351917 350.410094637224 L 244.0766550522648 357.602523659306 L 245.81881533101046 351.16719242902207 L 247.5609756097561 347.57097791798105 L 249.30313588850174 331.4826498422713 L 251.0452961672474 324.4794952681388 L 252.78745644599303 319.93690851735016 L 254.52961672473867 315.58359621451103 L 256.2717770034843 312.74447949526814 L 258.01393728222996 315.205047318612 L 259.7560975609756 312.3659305993691 L 261.49825783972125 314.4479495268139 L 263.2404181184669 305.1735015772871 L 264.98257839721254 298.3596214511041 L 266.7247386759582 292.4921135646688 L 268.4668989547038 296.65615141955834 L 270.20905923344947 304.6056782334385 L 271.9512195121951 308.9589905362776 L 273.69337979094075 301.7665615141956 L 275.4355400696864 304.22712933753945 L 277.17770034843204 297.60252365930603 L 278.91986062717774 292.4921135646688 L 280.6620209059233 289.8422712933754 L 282.404181184669 289.2744479495268 L 284.1463414634146 293.81703470031545 L 285.8885017421603 290.97791798107255 L 287.6306620209059 291.54574132492115 L 289.3728222996516 296.2776025236593 L 291.1149825783972 292.30283911671927 L 292.8571428571429 289.0851735015773 L 294.5993031358885 291.16719242902207 L 296.3414634146342 285.29968454258676 L 298.08362369337976 287.7602523659306 L 299.82578397212546 286.2460567823344 L 301.56794425087105 283.4069400630915 L 303.31010452961675 277.53943217665613 L 305.05226480836234 275.0788643533123 L 306.79442508710804 276.5930599369085 L 308.5365853658536 264.2902208201893 L 310.2787456445993 259.36908517350156 L 312.0209059233449 266.5615141955836 L 313.7630662020906 261.6403785488959 L 315.5052264808362 254.25867507886437 L 317.2473867595819 255.0157728706625 L 318.9895470383275 255.0157728706625 L 320.7317073170732 257.8548895899054 L 322.4738675958188 256.15141955835963 L 324.2160278745645 253.69085173501577 L 325.9581881533101 251.7981072555205 L 327.70034843205576 248.2018927444795 L 329.4425087108014 252.55520504731862 L 331.18466898954705 253.12302839116722 L 332.9268292682927 258.801261829653 L 334.66898954703834 255.39432176656152 L 336.411149825784 249.90536277602524 L 338.1533101045296 238.73817034700318 L 339.89547038327527 236.0883280757098 L 341.6376306620209 239.1167192429022 L 343.37979094076655 241.38801261829656 L 345.1219512195122 248.7697160883281 L 346.86411149825784 241.7665615141956 L 348.6062717770035 226.813880126183 L 350.34843205574913 238.73817034700318 L 352.0905923344948 231.35646687697164 L 353.8327526132404 221.51419558359623 L 355.57491289198606 220.75709779179812 L 357.3170731707317 220.5678233438486 L 359.05923344947735 221.13564668769715 L 360.801393728223 221.51419558359623 L 362.54355400696863 216.403785488959 L 364.2857142857143 218.29652996845425 L 366.0278745644599 223.21766561514198 L 367.77003484320556 223.21766561514198 L 369.5121951219512 225.48895899053628 L 371.25435540069685 220.5678233438486 L 372.9965156794425 217.91798107255522 L 374.73867595818814 212.05047318611986 L 376.4808362369338 210.53627760252368 L 378.2229965156795 205.80441640378552 L 379.96515679442507 204.4794952681388 L 381.70731707317077 192.74447949526814 L 383.44947735191636 196.52996845425866 L 385.19163763066206 196.71924290220824 L 386.93379790940764 195.39432176656152 L 388.67595818815334 187.44479495268138 L 390.41811846689893 177.79179810725554 L 392.16027874564463 194.06940063091486 L 393.9024390243902 197.09779179810727 L 395.6445993031359 189.3375394321767 L 397.3867595818815 183.65930599369085 L 399.1289198606272 182.90220820189273 L 400.8710801393728 181.7665615141956 L 402.6132404181185 176.46687697160883 L 404.3554006968641 168.13880126182966 L 406.0975609756098 176.46687697160883 L 407.8397212543554 169.8422712933754 L 409.58188153310107 172.49211356466878 L 411.3240418118467 166.62460567823348 L 413.06620209059236 163.9747634069401 L 414.808362369338 167.0031545741325 L 416.55052264808364 166.4353312302839 L 418.2926829268293 166.2460567823344 L 420.03484320557493 159.81072555205049 L 421.7770034843206 161.51419558359623 L 423.5191637630662 153.5646687697161 L 425.26132404181186 154.51104100946372 L 427.0034843205575 142.2082018927445 L 428.74564459930315 142.39747634069403 L 430.4878048780488 145.99369085173504 L 432.22996515679444 134.82649842271297 L 433.9721254355401 132.3659305993691 L 435.7142857142857 129.5268138801262 L 437.45644599303137 127.25552050473186 L 439.198606271777 125.74132492113569 L 440.94076655052265 117.22397476340694 L 442.6829268292683 120.06309148264984 L 444.42508710801394 119.1167192429022 L 446.1672473867596 112.87066246056781 L 447.9094076655052 122.90220820189279 L 449.65156794425087 121.38801261829656 L 451.3937282229965 124.98422712933757 L 453.13588850174216 125.55205047318611 L 454.8780487804878 121.76656151419559 L 456.62020905923345 116.46687697160883 L 458.3623693379791 121.57728706624607 L 460.10452961672473 111.16719242902212 L 461.8466898954704 110.410094637224 L 463.588850174216 109.08517350157729 L 465.33101045296166 107.76025236593063 L 467.0731707317073 108.13880126182966 L 468.81533101045295 127.63406940063095 L 470.5574912891986 119.1167192429022 L 472.29965156794424 117.98107255520506 L 474.0418118466899 121.76656151419559 L 475.7839721254355 112.30283911671927 L 477.52613240418117 104.54258675078864 L 479.2682926829268 107.76025236593063 L 481.01045296167246 114.00630914826502 L 482.7526132404181 103.4069400630915 L 484.49477351916374 105.29968454258676 L 486.2369337979094 109.65299684542589 L 487.97909407665503 100 L 489.7212543554007 105.48895899053628 L 491.4634146341463 108.70662460567826 L 493.20557491289196 105.67823343848585 L 494.9477351916376 107.38170347003154 L 496.68989547038325 116.27760252365931 L 498.4320557491289 123.84858044164042 L 500.17421602787454 127.06624605678235 L 501.91637630662024 119.30599369085178 L 503.6585365853659 123.84858044164042 L 505.4006968641115 131.23028391167196 L 507.14285714285717 145.80441640378552 L 508.8850174216028 138.80126182965301 L 510.62717770034845 138.6119873817035 L 512.3693379790941 142.2082018927445 L 514.1114982578397 144.66876971608832 L 515.8536585365854 159.24290220820188 L 517.5958188153311 161.1356466876972 L 519.3379790940767 157.35015772870662 L 521.0801393728223 163.9747634069401 L 522.822299651568 170.59936908517352 L 524.5644599303137 163.78548895899053 L 526.3066202090592 176.6561514195584 L 528.0487804878048 186.68769716088332 L 529.7909407665505 204.8580441640379 L 531.5331010452962 207.6971608832808 L 533.2752613240418 196.71924290220824 L 535.0174216027874 203.7223974763407 L 536.7595818815331 216.5930599369085 L 538.5017421602788 222.64984227129338 L 540.2439024390244 231.92429022082018 L 541.98606271777 231.92429022082018 L 543.7282229965157 229.6529968454259 L 545.4703832752614 227.94952681388014 L 547.212543554007 224.1640378548896 L 548.9547038327526 230.78864353312304 L 550.6968641114983 233.62776025236593 L 552.439024390244 230.97791798107255 L 554.1811846689895 214.1324921135647 L 555.9233449477351 217.7287066246057 L 557.6655052264808 233.62776025236593 L 559.4076655052265 246.30914826498423 L 561.1498257839721 248.9589905362776 L 562.8919860627177 250.28391167192433 L 564.6341463414634 249.5268138801262 L 566.3763066202091 244.794952681388 L 568.1184668989547 251.7981072555205 L 569.8606271777003 250.66246056782336 L 571.602787456446 251.23028391167196 L 573.3449477351917 246.30914826498423 L 575.0871080139373 245.3627760252366 L 576.8292682926829 252.55520504731862 L 578.5714285714286 251.0410094637224 L 580.3135888501743 258.2334384858044 L 582.0557491289198 262.9652996845426 L 583.7979094076654 271.1041009463722 L 585.5400696864111 267.3186119873817 L 587.2822299651568 269.21135646687696 L 589.0243902439024 273.18611987381706 L 590.766550522648 274.5110410094637 L 592.5087108013937 278.48580441640377 L 594.2508710801394 284.35331230283913 L 595.993031358885 282.46056782334387 L 597.7351916376306 274.8895899053628 L 599.4773519163763 279.8107255520505 L 601.219512195122 278.86435331230285 L 602.9616724738676 284.54258675078864 L 604.7038327526133 289.2744479495268 L 606.445993031359 295.5205047318612 L 608.1881533101046 296.8454258675079 L 609.9303135888501 296.0883280757098 L 611.6724738675958 298.7381703470032 L 613.4146341463415 297.22397476340694 L 615.1567944250871 303.65930599369085 L 616.8989547038327 309.1482649842271 L 618.6411149825784 315.58359621451103 L 620.3832752613241 318.801261829653 L 622.1254355400697 323.7223974763407 L 623.8675958188153 332.42902208201895 L 625.609756097561 338.10725552050474 L 627.3519163763067 343.0283911671924 L 629.0940766550523 337.53943217665613 L 630.8362369337979 345.29968454258676 L 632.5783972125436 346.6246056782334 L 634.3205574912893 346.6246056782334 L 636.0627177700349 350.97791798107255 L 637.8048780487804 352.6813880126183 L 639.5470383275261 349.8422712933754 L 641.2891986062718 353.81703470031545 L 643.0313588850174 354.57413249211356 L 644.773519163763 366.30914826498423 L 646.5156794425087 377.8548895899054 L 648.2578397212544 388.83280757097793 L 650 400 L 650 400 Z" /><text  class="poloto_labels poloto_text poloto_title" alignment-baseline="start" text-anchor="middle" font-size="x-large" x="400" y="37.5" >Total players on 2021-10-24</text><text  class="poloto_labels poloto_text poloto_xname" alignment-baseline="start" text-anchor="middle" font-size="x-large" x="400" y="481.25" >Time</text><text  class="poloto_labels poloto_text poloto_yname" alignment-baseline="start" text-anchor="middle" font-size="x-large" transform="rotate(-90,37.5,250)" x="37.5" y="250" >Count</text><line  class="poloto_axis_lines" stroke="black" x1="150" x2="150" y1="400" y2="405" /><text  class="poloto_tick_labels poloto_text" alignment-baseline="start" text-anchor="middle" x="150" y="430" > 00:00:00</text><line  class="poloto_axis_lines" stroke="black" x1="266.14401858304296" x2="266.14401858304296" y1="400" y2="405" /><text  class="poloto_tick_labels poloto_text" alignment-baseline="start" text-anchor="middle" x="266.14401858304296" y="430" > 05:33:20</text><line  class="poloto_axis_lines" stroke="black" x1="382.2880371660859" x2="382.2880371660859" y1="400" y2="405" /><text  class="poloto_tick_labels poloto_text" alignment-baseline="start" text-anchor="middle" x="382.2880371660859" y="430" > 11:06:40</text><line  class="poloto_axis_lines" stroke="black" x1="498.4320557491289" x2="498.4320557491289" y1="400" y2="405" /><text  class="poloto_tick_labels poloto_text" alignment-baseline="start" text-anchor="middle" x="498.4320557491289" y="430" > 16:40:00</text><line  class="poloto_axis_lines" stroke="black" x1="614.5760743321719" x2="614.5760743321719" y1="400" y2="405" /><text  class="poloto_tick_labels poloto_text" alignment-baseline="start" text-anchor="middle" x="614.5760743321719" y="430" > 22:13:20</text><line  class="poloto_axis_lines" stroke="black" x1="150" x2="144" y1="332.61829652996846" y2="332.61829652996846" /><text  class="poloto_tick_labels poloto_text" alignment-baseline="middle" text-anchor="end" x="135" y="332.61829652996846" > 1500</text><line  class="poloto_axis_lines" stroke="black" x1="150" x2="144" y1="237.98107255520506" y2="237.98107255520506" /><text  class="poloto_tick_labels poloto_text" alignment-baseline="middle" text-anchor="end" x="135" y="237.98107255520506" > 2000</text><line  class="poloto_axis_lines" stroke="black" x1="150" x2="144" y1="143.34384858044166" y2="143.34384858044166" /><text  class="poloto_tick_labels poloto_text" alignment-baseline="middle" text-anchor="end" x="135" y="143.34384858044166" > 2500</text><path  stroke="black" fill="none" class="poloto_axis_lines" style="stroke-dasharray:14.518002322880372;stroke-dashoffset:-0;" d=" M 150 400 L 650 400" /><path  stroke="black" fill="none" class="poloto_axis_lines" style="stroke-dasharray:9.46372239747634;stroke-dashoffset:-67.38170347003154;" d=" M 150 400 L 150 100" /></svg>