<svg class="poloto" width="800" height="500" viewBox="0 0 800 500" xmlns="http://www.w3.org/2000/svg"><style>.poloto { stroke-linecap:round; stroke-linejoin:round; font-family: 'Tahoma', sans-serif; background-color: AliceBlue;} .poloto_scatter{stroke-width:7} .poloto_line{stroke-width:2} .poloto_text{fill: black;} .poloto_axis_lines{stroke: black;stroke-width:3;fill:none;stroke-dasharray:none} .poloto0stroke{stroke:  blue;} .poloto1stroke{stroke:  red;} .poloto2stroke{stroke:  green;} .poloto3stroke{stroke:  gold;} .poloto4stroke{stroke:  aqua;} .poloto5stroke{stroke:  lime;} .poloto6stroke{stroke:  orange;} .poloto7stroke{stroke:  chocolate;} .poloto0fill{fill:blue;} .poloto1fill{fill:red;} .poloto2fill{fill:green;} .poloto3fill{fill:gold;} .poloto4fill{fill:aqua;} .poloto5fill{fill:lime;} .poloto6fill{fill:orange;} .poloto7fill{fill:chocolate;}</style><text  class="poloto_text poloto_legend_text" alignment-baseline="middle" text-anchor="start" font-size="large" x="675" y="100" ></text><path  class="poloto_linefill poloto0fill" d=" M 150 400 L 150 348.421926910299 L 151.74216027874564 353.40531561461796 L 153.4843205574913 357.01827242524917 L 155.22648083623693 362.0016611295681 L 156.96864111498257 363.12292358803984 L 158.71080139372822 367.35880398671094 L 160.45296167247386 368.9784053156146 L 162.1951219512195 375.45681063122925 L 163.93728222996515 377.3255813953488 L 165.6794425087108 378.19767441860466 L 167.42160278745644 381.436877076412 L 169.16376306620208 380.06644518272424 L 170.90592334494772 383.80398671096344 L 172.64808362369337 382.30897009966776 L 174.390243902439 382.5581395348837 L 176.13240418118465 385.6727574750831 L 177.8745644599303 385.921926910299 L 179.61672473867597 386.4202657807309 L 181.3588850174216 386.66943521594686 L 183.10104529616726 388.16445182724254 L 184.8432055749129 389.7840531561462 L 186.58536585365854 389.7840531561462 L 188.3275261324042 392.89867109634554 L 190.06968641114983 393.5215946843854 L 191.81184668989548 394.01993355481727 L 193.55400696864112 395.265780730897 L 195.29616724738676 393.6461794019933 L 197.0383275261324 391.40365448504986 L 198.78048780487805 392.5249169435216 L 200.5226480836237 395.8887043189369 L 202.26480836236934 398.75415282392026 L 204.00696864111498 395.390365448505 L 205.74912891986062 397.2591362126246 L 207.49128919860627 399.25249169435216 L 209.2334494773519 396.1378737541528 L 210.97560975609755 395.8887043189369 L 212.7177700348432 400 L 214.45993031358887 393.7707641196013 L 216.2020905923345 393.8953488372093 L 217.94425087108016 395.141196013289 L 219.6864111498258 396.51162790697674 L 221.42857142857144 395.265780730897 L 223.1707317073171 398.25581395348837 L 224.91289198606273 397.2591362126246 L 226.65505226480838 393.6461794019933 L 228.39721254355402 391.6528239202658 L 230.13937282229966 390.531561461794 L 231.8815331010453 388.7873754152824 L 233.62369337979095 386.54485049833886 L 235.3658536585366 387.04318936877075 L 237.10801393728224 382.30897009966776 L 238.85017421602788 383.5548172757475 L 240.59233449477352 384.0531561461794 L 242.33449477351917 385.0498338870432 L 244.0766550522648 383.92857142857144 L 245.81881533101046 386.2956810631229 L 247.5609756097561 387.16777408637876 L 249.30313588850174 387.16777408637876 L 251.0452961672474 383.5548172757475 L 252.78745644599303 385.2990033222591 L 254.52961672473867 383.30564784053155 L 256.2717770034843 383.30564784053155 L 258.01393728222996 383.92857142857144 L 259.7560975609756 377.4501661129568 L 261.49825783972125 378.3222591362126 L 263.2404181184669 377.4501661129568 L 264.98257839721254 378.8205980066445 L 266.7247386759582 377.2009966777409 L 268.4668989547038 377.57475083056477 L 270.20905923344947 378.07308970099666 L 271.9512195121951 381.436877076412 L 273.69337979094075 381.81063122923587 L 275.4355400696864 380.06644518272424 L 277.17770034843204 376.8272425249169 L 278.91986062717774 374.33554817275746 L 280.6620209059233 373.5880398671096 L 282.404181184669 373.46345514950167 L 284.1463414634146 370.9717607973422 L 285.8885017421603 366.36212624584715 L 287.6306620209059 360.00830564784053 L 289.3728222996516 359.6345514950166 L 291.1149825783972 354.5265780730897 L 292.8571428571429 347.1760797342193 L 294.5993031358885 349.9169435215947 L 296.3414634146342 349.16943521594686 L 298.08362369337976 349.66777408637876 L 299.82578397212546 346.92691029900334 L 301.56794425087105 344.93355481727576 L 303.31010452961675 343.18936877076413 L 305.05226480836234 344.43521594684387 L 306.79442508710804 342.06810631229234 L 308.5365853658536 346.92691029900334 L 310.2787456445993 347.30066445182723 L 312.0209059233449 349.04485049833886 L 313.7630662020906 346.5531561461794 L 315.5052264808362 346.30398671096344 L 317.2473867595819 348.54651162790697 L 318.9895470383275 347.30066445182723 L 320.7317073170732 345.1827242524917 L 322.4738675958188 343.812292358804 L 324.2160278745645 342.56644518272424 L 325.9581881533101 341.4451827242525 L 327.70034843205576 338.0813953488372 L 329.4425087108014 345.93023255813955 L 331.18466898954705 344.1860465116279 L 332.9268292682927 339.202657807309 L 334.66898954703834 332.59966777408636 L 336.411149825784 330.2325581395349 L 338.1533101045296 332.3504983388704 L 339.89547038327527 334.468438538206 L 341.6376306620209 330.48172757475083 L 343.37979094076655 328.6129568106312 L 345.1219512195122 315.656146179402 L 346.86411149825784 312.54152823920265 L 348.6062717770035 311.66943521594686 L 350.34843205574913 310.6727574750831 L 352.0905923344948 315.90531561461796 L 353.8327526132404 320.88870431893685 L 355.57491289198606 318.6461794019934 L 357.3170731707317 311.9186046511628 L 359.05923344947735 309.1777408637874 L 360.801393728223 306.063122923588 L 362.54355400696863 301.45348837209303 L 364.2857142857143 296.968438538206 L 366.0278745644599 296.22093023255815 L 367.77003484320556 295.22425249169436 L 369.5121951219512 290.1162790697674 L 371.25435540069685 289.1196013289036 L 372.9965156794425 283.2641196013289 L 374.73867595818814 281.7691029900332 L 376.4808362369338 274.4186046511628 L 378.2229965156795 275.7890365448505 L 379.96515679442507 268.687707641196 L 381.70731707317077 264.8255813953488 L 383.44947735191636 258.84551495016615 L 385.19163763066206 258.5963455149502 L 386.93379790940764 256.9767441860465 L 388.67595818815334 252.49169435215947 L 390.41811846689893 258.5963455149502 L 392.16027874564463 245.14119601328906 L 393.9024390243902 237.66611295681065 L 395.6445993031359 248.62956810631232 L 397.3867595818815 243.64617940199338 L 399.1289198606272 241.0299003322259 L 400.8710801393728 245.63953488372096 L 402.6132404181185 235.17441860465118 L 404.3554006968641 230.81395348837208 L 406.0975609756098 231.43687707641197 L 407.8397212543554 221.34551495016615 L 409.58188153310107 216.2375415282392 L 411.3240418118467 213.87043189368774 L 413.06620209059236 212.624584717608 L 414.808362369338 216.98504983388705 L 416.55052264808364 208.2641196013289 L 418.2926829268293 204.0282392026578 L 420.03484320557493 208.51328903654485 L 421.7770034843206 208.01495016611295 L 423.5191637630662 206.14617940199338 L 425.26132404181186 203.031561461794 L 427.0034843205575 201.53654485049833 L 428.74564459930315 195.6810631229236 L 430.4878048780488 193.68770764119603 L 432.22996515679444 189.82558139534888 L 433.9721254355401 182.4750830564784 L 435.7142857142857 173.13122923588043 L 437.45644599303137 170.51495016611295 L 439.198606271777 164.90863787375417 L 440.94076655052265 165.40697674418607 L 442.6829268292683 164.78405315614617 L 444.42508710801394 168.27242524916943 L 446.1672473867596 168.52159468438538 L 447.9094076655052 166.5282392026578 L 449.65156794425087 157.43355481727576 L 451.3937282229965 152.94850498338872 L 453.13588850174216 153.69601328903656 L 454.8780487804878 153.82059800664456 L 456.62020905923345 154.31893687707645 L 458.3623693379791 149.8338870431894 L 460.10452961672473 144.72591362126246 L 461.8466898954704 144.60132890365452 L 463.588850174216 145.84717607973425 L 465.33101045296166 145.22425249169436 L 467.0731707317073 141.8604651162791 L 468.81533101045295 131.64451827242527 L 470.5574912891986 133.2641196013289 L 472.29965156794424 126.16279069767444 L 474.0418118466899 121.0548172757475 L 475.7839721254355 119.55980066445181 L 477.52613240418117 117.81561461794024 L 479.2682926829268 117.69102990033224 L 481.01045296167246 113.82890365448509 L 482.7526132404181 114.07807308970104 L 484.49477351916374 113.95348837209303 L 486.2369337979094 118.43853820598008 L 487.97909407665503 119.68438538205982 L 489.7212543554007 116.69435215946845 L 491.4634146341463 106.97674418604652 L 493.20557491289196 112.58305647840535 L 494.9477351916376 109.59302325581399 L 496.68989547038325 111.21262458471762 L 498.4320557491289 100 L 500.17421602787454 111.46179401993356 L 501.91637630662024 120.30730897009965 L 503.6585365853659 126.28737541528238 L 505.4006968641115 133.7624584717608 L 507.14285714285717 140.61461794019937 L 508.8850174216028 145.5980066445183 L 510.62717770034845 148.83720930232562 L 512.3693379790941 151.95182724252493 L 514.1114982578397 156.81063122923587 L 515.8536585365854 158.92857142857144 L 517.5958188153311 165.531561461794 L 519.3379790940767 168.52159468438538 L 521.0801393728223 166.5282392026578 L 522.822299651568 176.1212624584718 L 524.5644599303137 187.08471760797346 L 526.3066202090592 184.21926910299004 L 528.0487804878048 185.58970099667778 L 529.7909407665505 193.06478405315613 L 531.5331010452962 197.79900332225913 L 533.2752613240418 200.4152823920266 L 535.0174216027874 197.54983388704318 L 536.7595818815331 201.28737541528238 L 538.5017421602788 198.67109634551497 L 540.2439024390244 198.92026578073092 L 541.98606271777 200.2906976744186 L 543.7282229965157 200.53986710963454 L 545.4703832752614 201.53654485049833 L 547.212543554007 206.14617940199338 L 548.9547038327526 211.5033222591362 L 550.6968641114983 213.4966777408638 L 552.439024390244 217.234219269103 L 554.1811846689895 218.23089700996678 L 555.9233449477351 224.58471760797346 L 557.6655052264808 223.83720930232562 L 559.4076655052265 226.57807308970104 L 561.1498257839721 224.58471760797346 L 562.8919860627177 227.94850498338872 L 564.6341463414634 230.81395348837208 L 566.3763066202091 236.54485049833886 L 568.1184668989547 240.40697674418607 L 569.8606271777003 235.29900332225913 L 571.602787456446 238.91196013289039 L 573.3449477351917 239.53488372093022 L 575.0871080139373 240.28239202657807 L 576.8292682926829 240.78073089700996 L 578.5714285714286 245.390365448505 L 580.3135888501743 246.63621262458474 L 582.0557491289198 251.86877076411963 L 583.7979094076654 255.2325581395349 L 585.5400696864111 254.2358803986711 L 587.2822299651568 258.9700996677741 L 589.0243902439024 264.3272425249169 L 590.766550522648 265.8222591362126 L 592.5087108013937 264.7009966777409 L 594.2508710801394 261.96013289036546 L 595.993031358885 275.66445182724254 L 597.7351916376306 268.4385382059801 L 599.4773519163763 273.421926910299 L 601.219512195122 277.90697674418607 L 602.9616724738676 272.6744186046512 L 604.7038327526133 275.04152823920265 L 606.445993031359 283.6378737541528 L 608.1881533101046 292.85714285714283 L 609.9303135888501 288.12292358803984 L 611.6724738675958 290.86378737541526 L 613.4146341463415 291.6112956810631 L 615.1567944250871 289.7425249169435 L 616.8989547038327 293.6046511627907 L 618.6411149825784 297.9651162790698 L 620.3832752613241 303.19767441860466 L 622.1254355400697 305.8139534883721 L 623.8675958188153 306.436877076412 L 625.609756097561 310.921926910299 L 627.3519163763067 311.7940199335548 L 629.0940766550523 308.5548172757475 L 630.8362369337979 310.0498338870432 L 632.5783972125436 320.6395348837209 L 634.3205574912893 323.8787375415282 L 636.0627177700349 321.1378737541528 L 637.8048780487804 331.72757475083057 L 639.5470383275261 334.59302325581393 L 641.2891986062718 331.3538205980066 L 643.0313588850174 336.33720930232556 L 644.773519163763 339.3272425249169 L 646.5156794425087 335.5897009966777 L 648.2578397212544 337.0847176079734 L 650 338.45514950166114 L 650 400 Z" /><text  class="poloto_labels poloto_text poloto_title" alignment-baseline="start" text-anchor="middle" font-size="x-large" x="400" y="37.5" >Total players on 2021-10-09</text><text  class="poloto_labels poloto_text poloto_xname" alignment-baseline="start" text-anchor="middle" font-size="x-large" x="400" y="481.25" >Time</text><text  class="poloto_labels poloto_text poloto_yname" alignment-baseline="start" text-anchor="middle" font-size="x-large" transform="rotate(-90,37.5,250)" x="37.5" y="250" >Count</text><line  class="poloto_axis_lines" stroke="black" x1="150" x2="150" y1="400" y2="405" /><text  class="poloto_tick_labels poloto_text" alignment-baseline="start" text-anchor="middle" x="150" y="430" > 00:00</text><line  class="poloto_axis_lines" stroke="black" x1="266.14401858304296" x2="266.14401858304296" y1="400" y2="405" /><text  class="poloto_tick_labels poloto_text" alignment-baseline="start" text-anchor="middle" x="266.14401858304296" y="430" > 06:00</text><line  class="poloto_axis_lines" stroke="black" x1="382.2880371660859" x2="382.2880371660859" y1="400" y2="405" /><text  class="poloto_tick_labels poloto_text" alignment-baseline="start" text-anchor="middle" x="382.2880371660859" y="430" > 11:00</text><line  class="poloto_axis_lines" stroke="black" x1="498.4320557491289" x2="498.4320557491289" y1="400" y2="405" /><text  class="poloto_tick_labels poloto_text" alignment-baseline="start" text-anchor="middle" x="498.4320557491289" y="430" > 17:00</text><line  class="poloto_axis_lines" stroke="black" x1="614.5760743321719" x2="614.5760743321719" y1="400" y2="405" /><text  class="poloto_tick_labels poloto_text" alignment-baseline="start" text-anchor="middle" x="614.5760743321719" y="430" > 22:00</text><line  class="poloto_axis_lines" stroke="black" x1="150" x2="144" y1="395.390365448505" y2="395.390365448505" /><text  class="poloto_tick_labels poloto_text" alignment-baseline="middle" text-anchor="end" x="135" y="395.390365448505" > 1000</text><line  class="poloto_axis_lines" stroke="black" x1="150" x2="144" y1="333.09800664451825" y2="333.09800664451825" /><text  class="poloto_tick_labels poloto_text" alignment-baseline="middle" text-anchor="end" x="135" y="333.09800664451825" > 1500</text><line  class="poloto_axis_lines" stroke="black" x1="150" x2="144" y1="270.80564784053155" y2="270.80564784053155" /><text  class="poloto_tick_labels poloto_text" alignment-baseline="middle" text-anchor="end" x="135" y="270.80564784053155" > 2000</text><line  class="poloto_axis_lines" stroke="black" x1="150" x2="144" y1="208.51328903654485" y2="208.51328903654485" /><text  class="poloto_tick_labels poloto_text" alignment-baseline="middle" text-anchor="end" x="135" y="208.51328903654485" > 2500</text><line  class="poloto_axis_lines" stroke="black" x1="150" x2="144" y1="146.22093023255815" y2="146.22093023255815" /><text  class="poloto_tick_labels poloto_text" alignment-baseline="middle" text-anchor="end" x="135" y="146.22093023255815" > 3000</text><path  stroke="black" fill="none" class="poloto_axis_lines" style="stroke-dasharray:14.518002322880372;stroke-dashoffset:-0;" d=" M 150 400 L 650 400" /><path  stroke="black" fill="none" class="poloto_axis_lines" style="stroke-dasharray:6.2292358803986705;stroke-dashoffset:-4.60963455149502;" d=" M 150 400 L 150 100" /></svg>