<svg class="poloto" width="800" height="500" viewBox="0 0 800 500" xmlns="http://www.w3.org/2000/svg"><style>.poloto { stroke-linecap:round; stroke-linejoin:round; font-family: 'Tahoma', sans-serif; background-color: AliceBlue;} .poloto_scatter{stroke-width:7} .poloto_line{stroke-width:2} .poloto_text{fill: black;} .poloto_axis_lines{stroke: black;stroke-width:3;fill:none;stroke-dasharray:none} .poloto0stroke{stroke:  blue;} .poloto1stroke{stroke:  red;} .poloto2stroke{stroke:  green;} .poloto3stroke{stroke:  gold;} .poloto4stroke{stroke:  aqua;} .poloto5stroke{stroke:  lime;} .poloto6stroke{stroke:  orange;} .poloto7stroke{stroke:  chocolate;} .poloto0fill{fill:blue;} .poloto1fill{fill:red;} .poloto2fill{fill:green;} .poloto3fill{fill:gold;} .poloto4fill{fill:aqua;} .poloto5fill{fill:lime;} .poloto6fill{fill:orange;} .poloto7fill{fill:chocolate;}</style><text  class="poloto_text poloto_legend_text" alignment-baseline="middle" text-anchor="start" font-size="large" x="675" y="100" ></text><path  class="poloto_linefill poloto0fill" d=" M 150 400 L 150 383.0790568654646 L 151.74216027874564 384.32732316227464 L 153.4843205574913 384.0499306518724 L 155.22648083623693 385.7142857142857 L 156.96864111498257 388.626907073509 L 158.71080139372822 386.6851595006935 L 160.45296167247386 386.4077669902913 L 162.1951219512195 389.875173370319 L 163.93728222996515 390.4299583911234 L 165.6794425087108 391.5395284327323 L 167.42160278745644 393.48127600554784 L 169.16376306620208 397.7808599167822 L 170.90592334494772 393.48127600554784 L 172.64808362369337 391.6782246879334 L 174.390243902439 391.123439667129 L 176.13240418118465 393.75866851595003 L 177.8745644599303 396.80998613037445 L 179.61672473867597 396.39389736477114 L 181.3588850174216 395.5617198335645 L 183.10104529616726 396.53259361997226 L 184.8432055749129 400 L 186.58536585365854 396.53259361997226 L 188.3275261324042 395.2843273231623 L 190.06968641114983 395.8391123439667 L 191.81184668989548 395.70041608876556 L 193.55400696864112 393.48127600554784 L 195.29616724738676 389.45908460471566 L 197.0383275261324 383.77253814147014 L 198.78048780487805 384.32732316227464 L 200.5226480836237 385.7142857142857 L 202.26480836236934 380.99861303744797 L 204.00696864111498 382.3855755894591 L 205.74912891986062 381.96948682385573 L 207.49128919860627 379.8890429958391 L 209.2334494773519 378.77947295423024 L 210.97560975609755 376.5603328710125 L 212.7177700348432 375.7281553398058 L 214.45993031358887 372.53814147018034 L 216.2020905923345 369.62552011095704 L 217.94425087108016 368.51595006934815 L 219.6864111498258 368.2385575589459 L 221.42857142857144 363.1067961165048 L 223.1707317073171 362.9680998613037 L 224.91289198606273 355.7558945908461 L 226.65505226480838 353.5367545076283 L 228.39721254355402 350.9015256588072 L 230.13937282229966 350.06934812760056 L 231.8815331010453 345.2149791955617 L 233.62369337979095 342.0249653259362 L 235.3658536585366 342.4410540915395 L 237.10801393728224 340.36061026352286 L 238.85017421602788 343.5506241331484 L 240.59233449477352 345.0762829403606 L 242.33449477351917 335.0901525658807 L 244.0766550522648 338.14147018030513 L 245.81881533101046 332.3162274618585 L 247.5609756097561 331.06796116504853 L 249.30313588850174 329.81969486823857 L 251.0452961672474 327.0457697642164 L 252.78745644599303 325.9361997226075 L 254.52961672473867 327.46185852981966 L 256.2717770034843 328.15533980582524 L 258.01393728222996 328.29403606102636 L 259.7560975609756 325.9361997226075 L 261.49825783972125 322.8848821081831 L 263.2404181184669 327.46185852981966 L 264.98257839721254 321.49791955617195 L 266.7247386759582 315.67267683772536 L 268.4668989547038 316.6435506241331 L 270.20905923344947 314.8404993065187 L 271.9512195121951 314.1470180305132 L 273.69337979094075 311.9278779472954 L 275.4355400696864 313.45353675450764 L 277.17770034843204 317.3370319001387 L 278.91986062717774 322.33009708737865 L 280.6620209059233 317.6144244105409 L 282.404181184669 311.373092926491 L 284.1463414634146 312.76005547850207 L 285.8885017421603 306.9348127600555 L 287.6306620209059 303.88349514563106 L 289.3728222996516 299.5839112343967 L 291.1149825783972 298.6130374479889 L 292.8571428571429 293.3425797503468 L 294.5993031358885 298.8904299583911 L 296.3414634146342 298.75173370319 L 298.08362369337976 293.3425797503468 L 299.82578397212546 292.09431345353676 L 301.56794425087105 291.95561719833563 L 303.31010452961675 287.7947295423023 L 305.05226480836234 287.93342579750345 L 306.79442508710804 282.10818307905686 L 308.5365853658536 282.9403606102635 L 310.2787456445993 285.9916782246879 L 312.0209059233449 280.1664355062413 L 313.7630662020906 278.7794729542302 L 315.5052264808362 274.618585298197 L 317.2473867595819 277.39251040221916 L 318.9895470383275 281.69209431345354 L 320.7317073170732 275.1733703190014 L 322.4738675958188 270.4576976421637 L 324.2160278745645 271.56726768377257 L 325.9581881533101 273.6477115117892 L 327.70034843205576 267.6837725381415 L 329.4425087108014 269.20943134535366 L 331.18466898954705 268.0998613037448 L 332.9268292682927 265.880721220527 L 334.66898954703834 265.60332871012486 L 336.411149825784 265.3259361997226 L 338.1533101045296 264.35506241331484 L 339.89547038327527 262.69070735090156 L 341.6376306620209 260.4715672676838 L 343.37979094076655 252.84327323162276 L 345.1219512195122 256.0332871012482 L 346.86411149825784 255.4785020804438 L 348.6062717770035 252.70457697642163 L 350.34843205574913 254.09153952843272 L 352.0905923344948 259.08460471567264 L 353.8327526132404 245.35367545076284 L 355.57491289198606 249.37586685159502 L 357.3170731707317 249.5145631067961 L 359.05923344947735 245.76976421636616 L 360.801393728223 247.4341192787795 L 362.54355400696863 250.62413314840498 L 364.2857142857143 250.06934812760053 L 366.0278745644599 247.29542302357837 L 367.77003484320556 252.98196948682383 L 369.5121951219512 243.82801664355063 L 371.25435540069685 238.28016643550623 L 372.9965156794425 241.8862690707351 L 374.73867595818814 231.76144244105407 L 376.4808362369338 229.95839112343967 L 378.2229965156795 227.32316227461857 L 379.96515679442507 222.46879334257974 L 381.70731707317077 221.35922330097085 L 383.44947735191636 215.11789181692095 L 385.19163763066206 215.25658807212207 L 386.93379790940764 219.69486823855758 L 388.67595818815334 223.30097087378638 L 390.41811846689893 212.7600554785021 L 392.16027874564463 217.33703190013873 L 393.9024390243902 208.87656033287104 L 395.6445993031359 207.4895977808599 L 397.3867595818815 208.3217753120666 L 399.1289198606272 210.67961165048544 L 400.8710801393728 215.53398058252426 L 402.6132404181185 215.81137309292652 L 404.3554006968641 214.42441054091537 L 406.0975609756098 219.41747572815532 L 407.8397212543554 211.78918169209433 L 409.58188153310107 216.22746185852984 L 411.3240418118467 214.2857142857143 L 413.06620209059236 216.0887656033287 L 414.808362369338 216.92094313453535 L 416.55052264808364 210.124826629681 L 418.2926829268293 200.41608876560335 L 420.03484320557493 187.51733703190015 L 421.7770034843206 197.36477115117893 L 423.5191637630662 192.09431345353678 L 425.26132404181186 193.75866851595006 L 427.0034843205575 190.01386962552013 L 428.74564459930315 185.7142857142857 L 430.4878048780488 184.46601941747574 L 432.22996515679444 191.6782246879334 L 433.9721254355401 182.8016643550624 L 435.7142857142857 186.5464632454924 L 437.45644599303137 173.78640776699032 L 439.198606271777 168.0998613037448 L 440.94076655052265 172.95423023578363 L 442.6829268292683 160.748959778086 L 444.42508710801394 155.2011095700416 L 446.1672473867596 153.25936199722608 L 447.9094076655052 164.7711511789182 L 449.65156794425087 142.8571428571429 L 451.3937282229965 142.8571428571429 L 453.13588850174216 143.96671289875178 L 454.8780487804878 152.70457697642163 L 456.62020905923345 145.07628294036064 L 458.3623693379791 140.22191400832173 L 460.10452961672473 132.03883495145635 L 461.8466898954704 136.61581137309292 L 463.588850174216 136.19972260748955 L 465.33101045296166 125.52011095700414 L 467.0731707317073 119.55617198335642 L 468.81533101045295 123.85575589459086 L 470.5574912891986 122.33009708737859 L 472.29965156794424 151.17891816920942 L 474.0418118466899 118.1692094313454 L 475.7839721254355 125.65880721220526 L 477.52613240418117 121.63661581137308 L 479.2682926829268 122.33009708737859 L 481.01045296167246 120.94313453536756 L 482.7526132404181 139.9445214979196 L 484.49477351916374 116.36615811373099 L 486.2369337979094 110.26352288488215 L 487.97909407665503 114.42441054091535 L 489.7212543554007 123.43966712898748 L 491.4634146341463 101.24826629681002 L 493.20557491289196 100 L 494.9477351916376 102.21914008321778 L 496.68989547038325 125.10402219140087 L 498.4320557491289 111.51178918169205 L 500.17421602787454 118.03051317614427 L 501.91637630662024 116.22746185852986 L 503.6585365853659 127.0457697642164 L 505.4006968641115 132.73231622746187 L 507.14285714285717 146.87933425797505 L 508.8850174216028 151.0402219140083 L 510.62717770034845 149.93065187239947 L 512.3693379790941 158.25242718446603 L 514.1114982578397 168.93203883495144 L 515.8536585365854 174.3411927877947 L 517.5958188153311 152.28848821081831 L 519.3379790940767 179.8890429958391 L 521.0801393728223 163.52288488210817 L 522.822299651568 174.06380027739252 L 524.5644599303137 170.18030513176146 L 526.3066202090592 177.94729542302358 L 528.0487804878048 185.99167822468794 L 529.7909407665505 192.64909847434117 L 531.5331010452962 192.09431345353678 L 533.2752613240418 200.9708737864078 L 535.0174216027874 201.24826629681 L 536.7595818815331 204.2995839112344 L 538.5017421602788 214.84049930651875 L 540.2439024390244 215.95006934812758 L 541.98606271777 223.30097087378638 L 543.7282229965157 230.374479889043 L 545.4703832752614 223.71705963938976 L 547.212543554007 226.76837725381412 L 548.9547038327526 225.10402219140084 L 550.6968641114983 227.1844660194175 L 552.439024390244 225.93619972260748 L 554.1811846689895 234.5353675450763 L 555.9233449477351 237.30929264909847 L 557.6655052264808 233.98058252427185 L 559.4076655052265 232.03883495145632 L 561.1498257839721 233.56449375866853 L 562.8919860627177 232.45492371705964 L 564.6341463414634 246.18585298196948 L 566.3763066202091 249.2371705963939 L 568.1184668989547 245.90846047156728 L 569.8606271777003 254.36893203883497 L 571.602787456446 256.5880721220527 L 573.3449477351917 260.74895977808603 L 575.0871080139373 260.6102635228849 L 576.8292682926829 268.0998613037448 L 578.5714285714286 267.5450762829404 L 580.3135888501743 276.28294036061027 L 582.0557491289198 275.03467406380025 L 583.7979094076654 268.6546463245493 L 585.5400696864111 269.3481276005548 L 587.2822299651568 268.9320388349514 L 589.0243902439024 267.40638002773926 L 590.766550522648 277.39251040221916 L 592.5087108013937 280.0277392510402 L 594.2508710801394 286.13037447988904 L 595.993031358885 294.59084604715673 L 597.7351916376306 293.61997226074897 L 599.4773519163763 289.5977808599168 L 601.219512195122 294.8682385575589 L 602.9616724738676 290.98474341192787 L 604.7038327526133 285.8529819694868 L 606.445993031359 287.7947295423023 L 608.1881533101046 288.7656033287101 L 609.9303135888501 295.9778085991678 L 611.6724738675958 299.72260748959775 L 613.4146341463415 304.5769764216366 L 615.1567944250871 312.06657420249655 L 616.8989547038327 324.2718446601942 L 618.6411149825784 323.71705963938973 L 620.3832752613241 326.4909847434119 L 622.1254355400697 325.24271844660194 L 623.8675958188153 330.92926490984746 L 625.609756097561 328.8488210818308 L 627.3519163763067 337.03190013869624 L 629.0940766550523 336.1997226074896 L 630.8362369337979 336.4771151178918 L 632.5783972125436 338.002773925104 L 634.3205574912893 338.9736477115118 L 636.0627177700349 340.6380027739251 L 637.8048780487804 342.8571428571429 L 639.5470383275261 342.1636615811373 L 641.2891986062718 345.7697642163662 L 643.0313588850174 348.4049930651872 L 644.773519163763 349.23717059639387 L 646.5156794425087 350.4854368932039 L 648.2578397212544 352.84327323162273 L 650 350.34674063800276 L 650 400 Z" /><text  class="poloto_labels poloto_text poloto_title" alignment-baseline="start" text-anchor="middle" font-size="x-large" x="400" y="37.5" >Total players on 2021-10-06</text><text  class="poloto_labels poloto_text poloto_xname" alignment-baseline="start" text-anchor="middle" font-size="x-large" x="400" y="481.25" >Time</text><text  class="poloto_labels poloto_text poloto_yname" alignment-baseline="start" text-anchor="middle" font-size="x-large" transform="rotate(-90,37.5,250)" x="37.5" y="250" >Count</text><line  class="poloto_axis_lines" stroke="black" x1="150" x2="150" y1="400" y2="405" /><text  class="poloto_tick_labels poloto_text" alignment-baseline="start" text-anchor="middle" x="150" y="430" > 00:00</text><line  class="poloto_axis_lines" stroke="black" x1="266.14401858304296" x2="266.14401858304296" y1="400" y2="405" /><text  class="poloto_tick_labels poloto_text" alignment-baseline="start" text-anchor="middle" x="266.14401858304296" y="430" > 06:00</text><line  class="poloto_axis_lines" stroke="black" x1="382.2880371660859" x2="382.2880371660859" y1="400" y2="405" /><text  class="poloto_tick_labels poloto_text" alignment-baseline="start" text-anchor="middle" x="382.2880371660859" y="430" > 11:00</text><line  class="poloto_axis_lines" stroke="black" x1="498.4320557491289" x2="498.4320557491289" y1="400" y2="405" /><text  class="poloto_tick_labels poloto_text" alignment-baseline="start" text-anchor="middle" x="498.4320557491289" y="430" > 17:00</text><line  class="poloto_axis_lines" stroke="black" x1="614.5760743321719" x2="614.5760743321719" y1="400" y2="405" /><text  class="poloto_tick_labels poloto_text" alignment-baseline="start" text-anchor="middle" x="614.5760743321719" y="430" > 22:00</text><line  class="poloto_axis_lines" stroke="black" x1="150" x2="144" y1="397.0873786407767" y2="397.0873786407767" /><text  class="poloto_tick_labels poloto_text" alignment-baseline="middle" text-anchor="end" x="135" y="397.0873786407767" > 1000</text><line  class="poloto_axis_lines" stroke="black" x1="150" x2="144" y1="327.7392510402219" y2="327.7392510402219" /><text  class="poloto_tick_labels poloto_text" alignment-baseline="middle" text-anchor="end" x="135" y="327.7392510402219" > 1500</text><line  class="poloto_axis_lines" stroke="black" x1="150" x2="144" y1="258.3911234396671" y2="258.3911234396671" /><text  class="poloto_tick_labels poloto_text" alignment-baseline="middle" text-anchor="end" x="135" y="258.3911234396671" > 2000</text><line  class="poloto_axis_lines" stroke="black" x1="150" x2="144" y1="189.04299583911234" y2="189.04299583911234" /><text  class="poloto_tick_labels poloto_text" alignment-baseline="middle" text-anchor="end" x="135" y="189.04299583911234" > 2500</text><line  class="poloto_axis_lines" stroke="black" x1="150" x2="144" y1="119.69486823855755" y2="119.69486823855755" /><text  class="poloto_tick_labels poloto_text" alignment-baseline="middle" text-anchor="end" x="135" y="119.69486823855755" > 3000</text><path  stroke="black" fill="none" class="poloto_axis_lines" style="stroke-dasharray:14.518002322880372;stroke-dashoffset:-0;" d=" M 150 400 L 650 400" /><path  stroke="black" fill="none" class="poloto_axis_lines" style="stroke-dasharray:6.934812760055477;stroke-dashoffset:-2.9126213592232943;" d=" M 150 400 L 150 100" /></svg>