<svg class="poloto" width="800" height="500" viewBox="0 0 800 500" xmlns="http://www.w3.org/2000/svg"><style>.poloto { stroke-linecap:round; stroke-linejoin:round; font-family: 'Tahoma', sans-serif; background-color: AliceBlue;} .poloto_scatter{stroke-width:7} .poloto_line{stroke-width:2} .poloto_text{fill: black;} .poloto_axis_lines{stroke: black;stroke-width:3;fill:none;stroke-dasharray:none} .poloto0stroke{stroke:  blue;} .poloto1stroke{stroke:  red;} .poloto2stroke{stroke:  green;} .poloto3stroke{stroke:  gold;} .poloto4stroke{stroke:  aqua;} .poloto5stroke{stroke:  lime;} .poloto6stroke{stroke:  orange;} .poloto7stroke{stroke:  chocolate;} .poloto0fill{fill:blue;} .poloto1fill{fill:red;} .poloto2fill{fill:green;} .poloto3fill{fill:gold;} .poloto4fill{fill:aqua;} .poloto5fill{fill:lime;} .poloto6fill{fill:orange;} .poloto7fill{fill:chocolate;}</style><text  class="poloto_text poloto_legend_text" alignment-baseline="middle" text-anchor="start" font-size="large" x="675" y="100" ></text><path  class="poloto_linefill poloto0fill" d=" M 150 400 L 150 342.14285714285717 L 151.74216027874564 348.57142857142856 L 153.4843205574913 348.961038961039 L 155.22648083623693 352.6623376623377 L 156.96864111498257 347.987012987013 L 158.71080139372822 360.45454545454544 L 160.45296167247386 355.1948051948052 L 162.1951219512195 360.06493506493507 L 163.93728222996515 357.72727272727275 L 165.6794425087108 360.06493506493507 L 167.42160278745644 367.0779220779221 L 169.16376306620208 372.3376623376623 L 170.90592334494772 377.98701298701303 L 172.64808362369337 375.06493506493507 L 174.390243902439 386.7532467532468 L 176.13240418118465 389.4805194805195 L 177.8745644599303 389.87012987012986 L 179.61672473867597 391.62337662337666 L 181.3588850174216 397.27272727272725 L 183.10104529616726 398.6363636363636 L 184.8432055749129 400 L 186.58536585365854 399.02597402597405 L 188.3275261324042 398.0519480519481 L 190.06968641114983 389.87012987012986 L 191.81184668989548 384.4155844155844 L 193.55400696864112 378.76623376623377 L 195.29616724738676 378.76623376623377 L 197.0383275261324 382.46753246753246 L 198.78048780487805 381.4935064935065 L 200.5226480836237 384.61038961038963 L 202.26480836236934 383.6363636363636 L 204.00696864111498 388.1168831168831 L 205.74912891986062 385.1948051948052 L 207.49128919860627 391.81818181818187 L 209.2334494773519 389.67532467532465 L 210.97560975609755 392.5974025974026 L 212.7177700348432 392.4025974025974 L 214.45993031358887 393.1818181818182 L 216.2020905923345 390.64935064935065 L 217.94425087108016 381.2987012987013 L 219.6864111498258 390.84415584415586 L 221.42857142857144 392.98701298701303 L 223.1707317073171 388.7012987012987 L 224.91289198606273 382.8571428571429 L 226.65505226480838 376.8181818181818 L 228.39721254355402 374.0909090909091 L 230.13937282229966 373.8961038961039 L 231.8815331010453 366.8831168831169 L 233.62369337979095 369.4155844155844 L 235.3658536585366 380.32467532467535 L 237.10801393728224 380.7142857142857 L 238.85017421602788 376.42857142857144 L 240.59233449477352 362.20779220779224 L 242.33449477351917 365.12987012987014 L 244.0766550522648 361.8181818181818 L 245.81881533101046 353.44155844155847 L 247.5609756097561 357.14285714285717 L 249.30313588850174 356.16883116883116 L 251.0452961672474 359.4805194805195 L 252.78745644599303 357.53246753246754 L 254.52961672473867 357.9220779220779 L 256.2717770034843 360.45454545454544 L 258.01393728222996 356.16883116883116 L 259.7560975609756 357.9220779220779 L 261.49825783972125 353.24675324675326 L 263.2404181184669 348.1818181818182 L 264.98257839721254 356.75324675324674 L 266.7247386759582 357.72727272727275 L 268.4668989547038 355.7792207792208 L 270.20905923344947 355 L 271.9512195121951 357.14285714285717 L 273.69337979094075 361.23376623376623 L 275.4355400696864 369.61038961038963 L 277.17770034843204 367.6623376623377 L 278.9198606271777 372.1428571428571 L 280.6620209059233 372.92207792207796 L 282.40418118466897 365.32467532467535 L 284.1463414634146 362.7922077922078 L 285.88850174216026 359.87012987012986 L 287.6306620209059 363.1818181818182 L 289.37282229965155 359.4805194805195 L 291.1149825783972 351.68831168831167 L 292.85714285714283 347.20779220779224 L 294.5993031358885 342.3376623376623 L 296.3414634146342 338.05194805194805 L 298.08362369337976 332.987012987013 L 299.82578397212546 333.57142857142856 L 301.56794425087105 335.5194805194805 L 303.31010452961675 336.1038961038961 L 305.05226480836234 332.20779220779224 L 306.79442508710804 340 L 308.5365853658536 329.0909090909091 L 310.2787456445993 331.62337662337666 L 312.0209059233449 330.45454545454544 L 313.7630662020906 333.76623376623377 L 315.5052264808362 333.76623376623377 L 317.2473867595819 335.7142857142857 L 318.9895470383275 332.5974025974026 L 320.7317073170732 333.961038961039 L 322.4738675958188 331.8181818181818 L 324.2160278745645 329.2857142857143 L 325.95818815331006 331.038961038961 L 327.70034843205576 325.38961038961037 L 329.44250871080135 317.7922077922078 L 331.18466898954705 310.1948051948052 L 332.92682926829264 302.4025974025974 L 334.66898954703834 305.32467532467535 L 336.4111498257839 302.4025974025974 L 338.1533101045296 303.3766233766234 L 339.8954703832752 302.20779220779224 L 341.6376306620209 302.7922077922078 L 343.3797909407665 298.7012987012987 L 345.1219512195122 295.974025974026 L 346.86411149825784 288.961038961039 L 348.6062717770035 286.038961038961 L 350.34843205574913 275.90909090909093 L 352.0905923344948 274.35064935064935 L 353.8327526132404 281.5584415584416 L 355.57491289198606 279.8051948051948 L 357.3170731707317 277.85714285714283 L 359.05923344947735 269.6753246753247 L 360.801393728223 274.93506493506493 L 362.54355400696863 269.0909090909091 L 364.2857142857143 266.75324675324674 L 366.0278745644599 275.12987012987014 L 367.77003484320556 263.44155844155847 L 369.5121951219512 258.1818181818182 L 371.25435540069685 266.94805194805195 L 372.9965156794425 267.3376623376623 L 374.73867595818814 248.24675324675326 L 376.4808362369338 241.42857142857144 L 378.2229965156794 239.09090909090907 L 379.96515679442507 242.5974025974026 L 381.7073170731707 245.32467532467535 L 383.44947735191636 247.66233766233768 L 385.191637630662 240.84415584415586 L 386.93379790940764 240.84415584415586 L 388.6759581881533 231.68831168831167 L 390.41811846689893 225.84415584415586 L 392.1602787456446 223.8961038961039 L 393.9024390243902 227.4025974025974 L 395.6445993031359 235.38961038961037 L 397.3867595818815 225.64935064935065 L 399.1289198606272 224.09090909090907 L 400.8710801393728 227.79220779220782 L 402.6132404181185 220.97402597402595 L 404.3554006968641 217.27272727272725 L 406.0975609756097 215.71428571428572 L 407.83972125435537 212.4025974025974 L 409.581881533101 209.87012987012986 L 411.32404181184666 210.84415584415586 L 413.0662020905923 204.02597402597405 L 414.80836236933794 207.9220779220779 L 416.5505226480836 199.35064935064935 L 418.29268292682923 205.38961038961037 L 420.0348432055749 193.31168831168833 L 421.7770034843206 193.8961038961039 L 423.5191637630662 192.33766233766232 L 425.26132404181186 184.35064935064935 L 427.0034843205575 180.06493506493507 L 428.74564459930315 177.33766233766232 L 430.4878048780488 183.57142857142856 L 432.22996515679444 175.1948051948052 L 433.9721254355401 168.3766233766234 L 435.7142857142857 172.27272727272725 L 437.45644599303137 174.2207792207792 L 439.198606271777 180.45454545454544 L 440.94076655052265 182.01298701298703 L 442.6829268292683 178.31168831168833 L 444.42508710801394 169.93506493506493 L 446.1672473867596 170.5194805194805 L 447.9094076655052 167.01298701298703 L 449.65156794425087 163.8961038961039 L 451.3937282229965 152.4025974025974 L 453.13588850174216 147.33766233766232 L 454.8780487804878 144.41558441558442 L 456.62020905923345 147.53246753246754 L 458.3623693379791 132.9220779220779 L 460.10452961672473 137.98701298701297 L 461.8466898954704 127.0779220779221 L 463.588850174216 127.0779220779221 L 465.33101045296166 132.9220779220779 L 467.0731707317073 118.31168831168833 L 468.81533101045295 113.2467532467532 L 470.5574912891986 117.33766233766232 L 472.29965156794424 113.0519480519481 L 474.0418118466899 110.12987012987014 L 475.7839721254355 112.66233766233768 L 477.52613240418117 106.03896103896102 L 479.2682926829268 121.42857142857144 L 481.01045296167246 114.22077922077926 L 482.7526132404181 100 L 484.49477351916374 106.03896103896102 L 486.2369337979094 112.27272727272725 L 487.97909407665503 116.55844155844153 L 489.7212543554007 116.94805194805195 L 491.4634146341463 121.23376623376623 L 493.20557491289196 130 L 494.9477351916376 157.0779220779221 L 496.68989547038325 137.01298701298703 L 498.4320557491289 132.9220779220779 L 500.17421602787454 136.6233766233766 L 501.9163763066202 148.50649350649348 L 503.6585365853658 146.16883116883116 L 505.4065040650406 146.36363636363637 L 507.1428571428571 145.1948051948052 L 508.88501742160275 138.57142857142856 L 510.6271777003484 140.5194805194805 L 512.3693379790941 150.06493506493507 L 514.1114982578397 147.9220779220779 L 515.8536585365853 174.8051948051948 L 517.595818815331 141.2987012987013 L 519.3379790940767 151.8181818181818 L 521.0801393728223 155.5194805194805 L 522.822299651568 166.6233766233766 L 524.5644599303137 193.11688311688312 L 526.3066202090592 186.68831168831167 L 528.0487804878048 193.8961038961039 L 529.7909407665505 189.61038961038963 L 531.5331010452962 192.53246753246754 L 533.2752613240418 196.03896103896102 L 535.0174216027874 193.7012987012987 L 536.7595818815331 205.58441558441558 L 538.5017421602788 208.7012987012987 L 540.2439024390244 221.16883116883116 L 541.98606271777 218.44155844155847 L 543.7282229965157 234.8051948051948 L 545.4703832752614 232.85714285714283 L 547.212543554007 225.25974025974028 L 548.9547038327526 228.57142857142856 L 550.6968641114983 228.57142857142856 L 552.439024390244 230.71428571428572 L 554.1811846689895 227.01298701298703 L 555.9233449477351 224.28571428571428 L 557.6655052264808 229.15584415584414 L 559.4076655052265 230.32467532467535 L 561.1498257839721 239.87012987012986 L 562.8919860627177 232.27272727272725 L 564.6341463414634 237.72727272727275 L 566.3763066202091 230.5194805194805 L 568.1184668989547 234.61038961038963 L 569.8606271777003 243.96103896103898 L 571.602787456446 234.02597402597405 L 573.3449477351917 236.36363636363637 L 575.0871080139373 245.71428571428572 L 576.8292682926829 250.38961038961037 L 578.5714285714286 246.2987012987013 L 580.3135888501743 251.16883116883116 L 582.0557491289198 235 L 583.7979094076654 235.7792207792208 L 585.5400696864111 236.36363636363637 L 587.2822299651568 240.84415584415586 L 589.0243902439024 246.2987012987013 L 590.766550522648 246.1038961038961 L 592.5087108013937 247.46753246753246 L 594.2508710801394 260.12987012987014 L 595.993031358885 250.38961038961037 L 597.7351916376306 256.23376623376623 L 599.4773519163763 261.68831168831167 L 601.219512195122 264.61038961038963 L 602.9616724738676 267.9220779220779 L 604.7038327526132 281.16883116883116 L 606.4459930313589 272.7922077922078 L 608.1881533101046 260.7142857142857 L 609.9303135888501 267.72727272727275 L 611.6724738675957 273.57142857142856 L 613.4146341463414 275.5194805194805 L 615.1567944250871 284.4805194805195 L 616.8989547038327 284.6753246753247 L 618.6411149825783 282.53246753246754 L 620.383275261324 280 L 622.1254355400697 290.5194805194805 L 623.8675958188153 302.4025974025974 L 625.609756097561 306.4935064935065 L 627.3519163763067 315.06493506493507 L 629.0940766550523 310.974025974026 L 630.8362369337979 308.24675324675326 L 632.5783972125436 307.27272727272725 L 634.3205574912893 313.8961038961039 L 636.0627177700349 345.84415584415586 L 637.8048780487804 344.6753246753247 L 639.5470383275261 345.45454545454544 L 641.2891986062718 324.2207792207792 L 643.0313588850174 322.8571428571429 L 644.773519163763 320.12987012987014 L 646.5156794425087 323.24675324675326 L 648.2578397212544 327.9220779220779 L 650 332.7922077922078 L 650 400 Z" /><text  class="poloto_labels poloto_text poloto_title" alignment-baseline="start" text-anchor="middle" font-size="x-large" x="400" y="37.5" >Total players on 2021-07-13</text><text  class="poloto_labels poloto_text poloto_xname" alignment-baseline="start" text-anchor="middle" font-size="x-large" x="400" y="481.25" >Time</text><text  class="poloto_labels poloto_text poloto_yname" alignment-baseline="start" text-anchor="middle" font-size="x-large" transform="rotate(-90,37.5,250)" x="37.5" y="250" >Count</text><line  class="poloto_axis_lines" stroke="black" x1="208.0487804878049" x2="208.0487804878049" y1="400" y2="405" /><text  class="poloto_tick_labels poloto_text" alignment-baseline="start" text-anchor="middle" x="208.0487804878049" y="430" > 02:46:40</text><line  class="poloto_axis_lines" stroke="black" x1="266.1207897793264" x2="266.1207897793264" y1="400" y2="405" /><text  class="poloto_tick_labels poloto_text" alignment-baseline="start" text-anchor="middle" x="266.1207897793264" y="430" > 05:33:20</text><line  class="poloto_axis_lines" stroke="black" x1="324.19279907084785" x2="324.19279907084785" y1="400" y2="405" /><text  class="poloto_tick_labels poloto_text" alignment-baseline="start" text-anchor="middle" x="324.19279907084785" y="430" > 08:20:00</text><line  class="poloto_axis_lines" stroke="black" x1="382.2648083623693" x2="382.2648083623693" y1="400" y2="405" /><text  class="poloto_tick_labels poloto_text" alignment-baseline="start" text-anchor="middle" x="382.2648083623693" y="430" > 11:06:40</text><line  class="poloto_axis_lines" stroke="black" x1="440.3368176538908" x2="440.3368176538908" y1="400" y2="405" /><text  class="poloto_tick_labels poloto_text" alignment-baseline="start" text-anchor="middle" x="440.3368176538908" y="430" > 13:53:20</text><line  class="poloto_axis_lines" stroke="black" x1="498.4088269454123" x2="498.4088269454123" y1="400" y2="405" /><text  class="poloto_tick_labels poloto_text" alignment-baseline="start" text-anchor="middle" x="498.4088269454123" y="430" > 16:40:00</text><line  class="poloto_axis_lines" stroke="black" x1="556.4808362369338" x2="556.4808362369338" y1="400" y2="405" /><text  class="poloto_tick_labels poloto_text" alignment-baseline="start" text-anchor="middle" x="556.4808362369338" y="430" > 19:26:40</text><line  class="poloto_axis_lines" stroke="black" x1="614.5528455284552" x2="614.5528455284552" y1="400" y2="405" /><text  class="poloto_tick_labels poloto_text" alignment-baseline="start" text-anchor="middle" x="614.5528455284552" y="430" > 22:13:20</text><line  class="poloto_axis_lines" stroke="black" x1="150" x2="144" y1="335.5194805194805" y2="335.5194805194805" /><text  class="poloto_tick_labels poloto_text" alignment-baseline="middle" text-anchor="end" x="135" y="335.5194805194805" > 1500</text><line  class="poloto_axis_lines" stroke="black" x1="150" x2="144" y1="238.11688311688312" y2="238.11688311688312" /><text  class="poloto_tick_labels poloto_text" alignment-baseline="middle" text-anchor="end" x="135" y="238.11688311688312" > 2000</text><line  class="poloto_axis_lines" stroke="black" x1="150" x2="144" y1="140.71428571428572" y2="140.71428571428572" /><text  class="poloto_tick_labels poloto_text" alignment-baseline="middle" text-anchor="end" x="135" y="140.71428571428572" > 2500</text><path  stroke="black" fill="none" class="poloto_axis_lines" style="stroke-dasharray:14.518002322880372;stroke-dashoffset:-58.04878048780488;" d=" M 150 400 L 650 400" /><path  stroke="black" fill="none" class="poloto_axis_lines" style="stroke-dasharray:9.740259740259742;stroke-dashoffset:-64.48051948051949;" d=" M 150 400 L 150 100" /></svg>