<svg class="poloto" width="800" height="500" viewBox="0 0 800 500" xmlns="http://www.w3.org/2000/svg"><style>.poloto { stroke-linecap:round; stroke-linejoin:round; font-family: 'Tahoma', sans-serif; background-color: AliceBlue;} .poloto_scatter{stroke-width:7} .poloto_line{stroke-width:2} .poloto_text{fill: black;} .poloto_axis_lines{stroke: black;stroke-width:3;fill:none;stroke-dasharray:none} .poloto0stroke{stroke:  blue;} .poloto1stroke{stroke:  red;} .poloto2stroke{stroke:  green;} .poloto3stroke{stroke:  gold;} .poloto4stroke{stroke:  aqua;} .poloto5stroke{stroke:  lime;} .poloto6stroke{stroke:  orange;} .poloto7stroke{stroke:  chocolate;} .poloto0fill{fill:blue;} .poloto1fill{fill:red;} .poloto2fill{fill:green;} .poloto3fill{fill:gold;} .poloto4fill{fill:aqua;} .poloto5fill{fill:lime;} .poloto6fill{fill:orange;} .poloto7fill{fill:chocolate;}</style><text  class="poloto_text poloto_legend_text" alignment-baseline="middle" text-anchor="start" font-size="large" x="675" y="100" ></text><path  class="poloto_linefill poloto0fill" d=" M 150 400 L 150 336.0918312867058 L 151.74216027874564 338.17405232247734 L 153.4843205574913 339.6155899626268 L 155.22648083623693 343.6198611852643 L 156.96864111498257 347.62413240790175 L 158.71080139372822 350.02669514148425 L 160.45296167247386 347.14361986118524 L 162.1951219512195 350.6673785371063 L 163.93728222996515 352.4292578750667 L 165.6794425087108 356.1131873998932 L 167.42160278745644 361.3988254137747 L 169.16376306620208 363.8013881473572 L 170.90592334494772 364.7624132407902 L 172.64808362369337 368.12600106780565 L 174.390243902439 363.48104644954617 L 176.13240418118465 366.52429257875065 L 177.8745644599303 368.4463427656167 L 179.61672473867597 374.85317672183663 L 181.3588850174216 378.2167645488521 L 183.10104529616726 381.90069407367855 L 184.8432055749129 382.2210357714896 L 186.58536585365854 377.8964228510411 L 188.3275261324042 375.8142018152696 L 190.06968641114983 375.1735184196476 L 191.81184668989548 372.6107848371596 L 193.55400696864112 375.8142018152696 L 195.29616724738676 378.0565936999466 L 197.0383275261324 369.5675387079551 L 198.78048780487805 375.65403096636413 L 200.5226480836237 375.65403096636413 L 202.26480836236934 373.73198077949814 L 204.00696864111498 374.85317672183663 L 205.74912891986062 377.2557394554191 L 207.49128919860627 380.9396689802456 L 209.2334494773519 382.5413774693006 L 210.97560975609755 386.0651361452216 L 212.7177700348432 382.0608649225841 L 214.45993031358887 381.0998398291511 L 216.2020905923345 384.4634276561666 L 217.94425087108016 387.18633208756006 L 219.6864111498258 388.147357180993 L 221.42857142857144 389.749065670048 L 223.1707317073171 388.4676988788041 L 224.91289198606273 389.749065670048 L 226.65505226480838 391.350774159103 L 228.39721254355402 389.749065670048 L 230.13937282229966 393.59316604378 L 231.8815331010453 399.1991457554725 L 233.62369337979095 394.3940202883075 L 235.3658536585366 400 L 237.10801393728224 396.6364121729845 L 238.85017421602788 392.31179925253605 L 240.59233449477352 390.38974906567006 L 242.33449477351917 394.3940202883075 L 244.0766550522648 395.51521623064605 L 245.81881533101046 394.87453283502407 L 247.5609756097561 392.952482648158 L 249.30313588850174 391.991457554725 L 251.0452961672474 391.350774159103 L 252.78745644599303 385.2642819006941 L 254.52961672473867 378.3769353977576 L 256.2717770034843 375.8142018152696 L 258.01393728222996 370.20822210357716 L 259.7560975609756 376.13454351308064 L 261.49825783972125 371.64975974372663 L 263.2404181184669 371.64975974372663 L 264.98257839721254 366.68446342765617 L 266.7247386759582 362.0395088093967 L 268.4668989547038 362.68019220501867 L 270.20905923344947 364.12172984516815 L 271.9512195121951 357.3945541911372 L 273.69337979094075 353.2301121195942 L 275.4355400696864 350.02669514148425 L 277.17770034843204 349.3860117458622 L 278.91986062717774 350.34703683929524 L 280.6620209059233 347.7843032568072 L 282.404181184669 347.62413240790175 L 284.1463414634146 345.2215696743193 L 285.8885017421603 346.6631073144688 L 287.6306620209059 342.1783235451148 L 289.3728222996516 343.6198611852643 L 291.1149825783972 340.4164442071543 L 292.8571428571429 344.10037373198077 L 294.5993031358885 345.0613988254138 L 296.3414634146342 350.50720768820077 L 298.08362369337976 347.7843032568072 L 299.82578397212546 349.8665242925788 L 301.56794425087105 347.62413240790175 L 303.31010452961675 349.3860117458622 L 305.05226480836234 348.5851575013347 L 306.79442508710804 346.34276561665774 L 308.5365853658536 349.54618259476774 L 310.2787456445993 347.94447410571274 L 312.0209059233449 342.8190069407368 L 313.7630662020906 348.5851575013347 L 315.5052264808362 347.94447410571274 L 317.2473867595819 342.8190069407368 L 318.9895470383275 338.49439402028827 L 320.7317073170732 339.29524826481577 L 322.4738675958188 337.5333689268553 L 324.2160278745645 337.6935397757608 L 325.9581881533101 335.13080619327286 L 327.70034843205576 337.2130272290443 L 329.4425087108014 333.2087560064068 L 331.18466898954705 333.8494394020288 L 332.9268292682927 332.72824345969036 L 334.66898954703834 331.76721836625734 L 336.411149825784 326.16123865456484 L 338.1533101045296 327.76294714361984 L 339.89547038327527 323.4383342231714 L 341.6376306620209 320.39508809396693 L 343.37979094076655 323.5985050720769 L 345.1219512195122 322.7976508275494 L 346.86411149825784 321.6764548852109 L 348.6062717770035 317.6721836625734 L 350.34843205574913 311.74586225306996 L 352.0905923344948 305.97971169247194 L 353.8327526132404 304.37800320341694 L 355.57491289198606 297.330485851575 L 357.3170731707317 296.8499733048585 L 359.05923344947735 291.56433529097706 L 360.801393728223 282.75493860117456 L 362.54355400696863 281.4735718099306 L 364.2857142857143 280.35237586759206 L 366.0278745644599 278.2701548318206 L 367.77003484320556 281.15323011211956 L 369.5121951219512 272.6641751201281 L 371.25435540069685 270.1014415376402 L 372.9965156794425 270.42178323545113 L 374.73867595818814 265.77682861719165 L 376.4808362369338 267.0581954084356 L 378.2229965156795 264.97597437266415 L 379.96515679442507 263.37426588360916 L 381.70731707317077 259.8505072076882 L 383.44947735191636 256.4869193806727 L 385.19163763066206 246.39615589962628 L 386.93379790940764 243.6732514682328 L 388.67595818815334 241.43085958355582 L 390.41811846689893 235.50453817405233 L 392.16027874564463 226.37479978643884 L 393.9024390243902 224.2925787506674 L 395.6445993031359 222.85104111051785 L 397.3867595818815 215.32301121195943 L 399.1289198606272 209.23651895355047 L 400.8710801393728 205.39241857981844 L 402.6132404181185 203.47036839295245 L 404.3554006968641 202.34917245061396 L 406.0975609756098 203.95088093966896 L 407.8397212543554 198.34490122797652 L 409.58188153310107 196.903363587827 L 411.3240418118467 188.73465029364652 L 413.06620209059236 184.73037907100908 L 414.808362369338 175.2802989855846 L 416.55052264808364 167.43192738921513 L 418.2926829268293 166.79124399359316 L 420.03484320557493 160.86492258408967 L 421.7770034843206 161.98611852642816 L 423.5191637630662 166.47090229578217 L 425.26132404181186 164.54885210891618 L 427.0034843205575 161.34543513080618 L 428.74564459930315 159.4233849439402 L 430.4878048780488 152.85638013881473 L 432.22996515679444 148.53176721836624 L 433.9721254355401 144.20715429791775 L 435.7142857142857 145.48852108916176 L 437.45644599303137 147.89108382274426 L 439.198606271777 147.73091297383874 L 440.94076655052265 142.92578750667383 L 442.6829268292683 128.51041110517883 L 444.42508710801394 123.22477309129738 L 446.1672473867596 122.26374799786436 L 447.9094076655052 120.02135611318738 L 449.65156794425087 120.82221035771488 L 451.3937282229965 125.7875066737854 L 453.13588850174216 123.86545648691936 L 454.8780487804878 126.74853176721831 L 456.62020905923345 126.74853176721831 L 458.3623693379791 119.3806727175654 L 460.10452961672473 119.06033101975436 L 461.8466898954704 116.49759743726645 L 463.588850174216 113.7746930058729 L 465.33101045296166 114.41537640149488 L 467.0731707317073 119.70101441537633 L 468.81533101045295 118.5798184730379 L 470.5574912891986 121.30272290443133 L 472.29965156794424 116.81793913507738 L 474.0418118466899 116.81793913507738 L 475.7839721254355 111.53230112119593 L 477.52613240418117 104.805125467165 L 479.2682926829268 100 L 481.01045296167246 107.68820074746395 L 482.7526132404181 107.68820074746395 L 484.49477351916374 104.64495461825948 L 486.2369337979094 109.12973838761343 L 487.97909407665503 124.02562733582488 L 489.7212543554007 127.86972770955686 L 491.4634146341463 127.70955686065133 L 493.20557491289196 132.3545114789108 L 494.9477351916376 130.43246129204488 L 496.68989547038325 124.50613988254133 L 498.4320557491289 127.06887346502936 L 500.17421602787454 125.14682327816331 L 501.91637630662024 131.71382808328883 L 503.6585365853659 129.7917778964228 L 505.4006968641115 141.48424986652424 L 507.14285714285717 155.8996262680192 L 508.8850174216028 171.43619861185263 L 510.62717770034845 176.24132407901763 L 512.3693379790941 185.53123331553658 L 514.1114982578397 187.45328350240257 L 515.8536585365854 190.97704217832356 L 517.5958188153311 198.34490122797652 L 519.3379790940767 197.0635344367325 L 521.0801393728223 202.66951414842495 L 522.822299651568 198.34490122797652 L 524.5644599303137 194.66097170315 L 526.3066202090592 196.903363587827 L 528.0487804878048 194.50080085424455 L 529.7909407665505 200.5872931126535 L 531.5331010452962 204.11105178857449 L 533.2752613240418 205.87293112653495 L 535.0174216027874 208.43566470902297 L 536.7595818815331 210.19754404698344 L 538.5017421602788 217.72557394554192 L 540.2439024390244 219.4874532835024 L 541.98606271777 226.6951414842499 L 543.7282229965157 233.26214628937535 L 545.4703832752614 230.21890016017082 L 547.212543554007 238.38761345435128 L 548.9547038327526 248.79871863320878 L 550.6968641114983 245.91564335290977 L 552.439024390244 249.27923117992523 L 554.1811846689895 254.40469834490122 L 555.9233449477351 252.96316070475174 L 557.6655052264808 251.84196476241326 L 559.4076655052265 254.88521089161773 L 561.1498257839721 254.88521089161773 L 562.8919860627177 260.01067805659375 L 564.6341463414634 262.0928990923652 L 566.3763066202091 260.17084890549916 L 568.1184668989547 264.6556326748532 L 569.8606271777003 268.6599038974906 L 571.602787456446 270.1014415376402 L 573.3449477351917 267.8590496529631 L 575.0871080139373 272.98451681793915 L 576.8292682926829 274.42605445808863 L 578.5714285714286 279.0710090763481 L 580.3135888501743 279.2311799252536 L 582.0557491289198 284.8371596369461 L 583.7979094076654 290.60331019754403 L 585.5400696864111 289.16177255739456 L 587.2822299651568 286.9193806727176 L 589.0243902439024 294.9279231179925 L 590.766550522648 297.01014415376403 L 592.5087108013937 304.2178323545115 L 594.2508710801394 307.58142018152694 L 595.993031358885 309.66364121729845 L 597.7351916376306 306.13988254137746 L 599.4773519163763 308.38227442605444 L 601.219512195122 312.7068873465029 L 602.9616724738676 316.8713294180459 L 604.7038327526133 315.1094500800854 L 606.445993031359 323.11799252536036 L 608.1881533101046 326.4815803523759 L 609.9303135888501 329.6849973304859 L 611.6724738675958 326.6417512012814 L 613.4146341463415 332.0875600640683 L 615.1567944250871 333.0485851575013 L 616.8989547038327 330.64602242391885 L 618.6411149825784 329.52482648158036 L 620.3832752613241 332.0875600640683 L 622.1254355400697 331.6070475173518 L 623.8675958188153 330.96636412172984 L 625.609756097561 332.8884143085958 L 627.3519163763067 332.56807261078484 L 629.0940766550523 338.0138814735718 L 630.8362369337979 344.4207154297918 L 632.5783972125436 342.3384943940203 L 634.3205574912893 339.4554191137213 L 636.0627177700349 343.29951948745327 L 637.8048780487804 343.7800320341698 L 639.5470383275261 345.54191137213024 L 641.2891986062718 341.8579818473038 L 643.0313588850174 340.7367859049653 L 644.773519163763 344.90122797650827 L 646.5156794425087 346.34276561665774 L 648.2578397212544 348.5851575013347 L 650 356.4335290977042 L 650 400 Z" /><text  class="poloto_labels poloto_text poloto_title" alignment-baseline="start" text-anchor="middle" font-size="x-large" x="400" y="37.5" >Total players on 2021-12-31</text><text  class="poloto_labels poloto_text poloto_xname" alignment-baseline="start" text-anchor="middle" font-size="x-large" x="400" y="481.25" >Time</text><text  class="poloto_labels poloto_text poloto_yname" alignment-baseline="start" text-anchor="middle" font-size="x-large" transform="rotate(-90,37.5,250)" x="37.5" y="250" >Count</text><line  class="poloto_axis_lines" stroke="black" x1="150" x2="150" y1="400" y2="405" /><text  class="poloto_tick_labels poloto_text" alignment-baseline="start" text-anchor="middle" x="150" y="430" > 00:00</text><line  class="poloto_axis_lines" stroke="black" x1="266.14401858304296" x2="266.14401858304296" y1="400" y2="405" /><text  class="poloto_tick_labels poloto_text" alignment-baseline="start" text-anchor="middle" x="266.14401858304296" y="430" > 06:00</text><line  class="poloto_axis_lines" stroke="black" x1="382.2880371660859" x2="382.2880371660859" y1="400" y2="405" /><text  class="poloto_tick_labels poloto_text" alignment-baseline="start" text-anchor="middle" x="382.2880371660859" y="430" > 11:00</text><line  class="poloto_axis_lines" stroke="black" x1="498.4320557491289" x2="498.4320557491289" y1="400" y2="405" /><text  class="poloto_tick_labels poloto_text" alignment-baseline="start" text-anchor="middle" x="498.4320557491289" y="430" > 17:00</text><line  class="poloto_axis_lines" stroke="black" x1="614.5760743321719" x2="614.5760743321719" y1="400" y2="405" /><text  class="poloto_tick_labels poloto_text" alignment-baseline="start" text-anchor="middle" x="614.5760743321719" y="430" > 22:00</text><line  class="poloto_axis_lines" stroke="black" x1="150" x2="144" y1="386.2253069941271" y2="386.2253069941271" /><text  class="poloto_tick_labels poloto_text" alignment-baseline="middle" text-anchor="end" x="135" y="386.2253069941271" > 1000</text><line  class="poloto_axis_lines" stroke="black" x1="150" x2="144" y1="306.13988254137746" y2="306.13988254137746" /><text  class="poloto_tick_labels poloto_text" alignment-baseline="middle" text-anchor="end" x="135" y="306.13988254137746" > 1500</text><line  class="poloto_axis_lines" stroke="black" x1="150" x2="144" y1="226.05445808862783" y2="226.05445808862783" /><text  class="poloto_tick_labels poloto_text" alignment-baseline="middle" text-anchor="end" x="135" y="226.05445808862783" > 2000</text><line  class="poloto_axis_lines" stroke="black" x1="150" x2="144" y1="145.96903363587828" y2="145.96903363587828" /><text  class="poloto_tick_labels poloto_text" alignment-baseline="middle" text-anchor="end" x="135" y="145.96903363587828" > 2500</text><path  stroke="black" fill="none" class="poloto_axis_lines" style="stroke-dasharray:14.518002322880372;stroke-dashoffset:-0;" d=" M 150 400 L 650 400" /><path  stroke="black" fill="none" class="poloto_axis_lines" style="stroke-dasharray:8.00854244527496;stroke-dashoffset:-13.774693005872933;" d=" M 150 400 L 150 100" /></svg>