<svg class="poloto" width="800" height="500" viewBox="0 0 800 500" xmlns="http://www.w3.org/2000/svg"><style>.poloto { stroke-linecap:round; stroke-linejoin:round; font-family: 'Tahoma', sans-serif; background-color: AliceBlue;} .poloto_scatter{stroke-width:7} .poloto_line{stroke-width:2} .poloto_text{fill: black;} .poloto_axis_lines{stroke: black;stroke-width:3;fill:none;stroke-dasharray:none} .poloto0stroke{stroke:  blue;} .poloto1stroke{stroke:  red;} .poloto2stroke{stroke:  green;} .poloto3stroke{stroke:  gold;} .poloto4stroke{stroke:  aqua;} .poloto5stroke{stroke:  lime;} .poloto6stroke{stroke:  orange;} .poloto7stroke{stroke:  chocolate;} .poloto0fill{fill:blue;} .poloto1fill{fill:red;} .poloto2fill{fill:green;} .poloto3fill{fill:gold;} .poloto4fill{fill:aqua;} .poloto5fill{fill:lime;} .poloto6fill{fill:orange;} .poloto7fill{fill:chocolate;}</style><text  class="poloto_text poloto_legend_text" alignment-baseline="middle" text-anchor="start" font-size="large" x="675" y="100" ></text><path  class="poloto_linefill poloto0fill" d=" M 150 400 L 150 302.3399862353751 L 151.74216027874564 309.1534755677908 L 153.4843205574913 315.55402615278734 L 155.22648083623693 345.49208534067446 L 156.96864111498257 330.41982105987614 L 158.71080139372822 330.83275980729525 L 160.45296167247386 328.1486579490709 L 162.1951219512195 332.69098417068136 L 163.93728222996515 334.3427391603579 L 165.6794425087108 331.2456985547144 L 167.42160278745644 341.7756366139023 L 169.16376306620208 338.88506538196833 L 170.90592334494772 353.13145216792844 L 172.64808362369337 349.6214728148658 L 174.390243902439 356.02202339986235 L 176.13240418118465 350.65381968341364 L 177.8745644599303 354.98967653131456 L 179.61672473867597 357.2608396421198 L 181.3588850174216 359.94494150034416 L 183.10104529616726 365.31314521679286 L 184.8432055749129 369.02959394356503 L 186.58536585365854 367.171369580179 L 188.3275261324042 383.89538885065383 L 190.06968641114983 376.46249139710943 L 191.81184668989548 379.1465932553338 L 193.55400696864112 382.4501032346868 L 195.29616724738676 379.7660013764625 L 197.0383275261324 387.4053682037164 L 198.78048780487805 390.9153475567791 L 200.5226480836237 391.32828630419823 L 202.26480836236934 398.96765313145215 L 204.00696864111498 400 L 205.74912891986062 397.5223675154852 L 207.49128919860627 397.5223675154852 L 209.2334494773519 392.98004129387476 L 210.97560975609755 393.18651066758434 L 212.7177700348432 394.2188575361322 L 214.45993031358887 393.59944941500345 L 216.2020905923345 384.5147969717825 L 217.94425087108016 387.8183069511356 L 219.6864111498258 385.9600825877495 L 221.42857142857144 382.2436338609773 L 223.1707317073171 381.6242257398486 L 224.91289198606273 384.9277357192017 L 226.65505226480838 385.7536132140399 L 228.39721254355402 387.4053682037164 L 230.13937282229966 386.37302133516863 L 231.8815331010453 382.0371644872677 L 233.62369337979095 379.7660013764625 L 235.3658536585366 373.7783895388851 L 237.10801393728224 376.668960770819 L 238.85017421602788 372.5395732966277 L 240.59233449477352 367.79077770130766 L 242.33449477351917 363.0419821059876 L 244.0766550522648 366.34549208534065 L 245.81881533101046 370.2684101858224 L 247.5609756097561 374.3977976600138 L 249.30313588850174 373.57192016517547 L 251.0452961672474 373.36545079146595 L 252.78745644599303 370.68134893324157 L 254.52961672473867 363.6613902271163 L 256.2717770034843 366.9649002064694 L 258.01393728222996 368.20371644872677 L 259.7560975609756 366.34549208534065 L 261.49825783972125 364.4872677219546 L 263.2404181184669 364.280798348245 L 264.98257839721254 364.6937370956641 L 266.7247386759582 365.72608396421197 L 268.4668989547038 367.171369580179 L 270.20905923344947 362.0096352374398 L 271.9512195121951 362.6290433585685 L 273.69337979094075 357.2608396421198 L 275.4355400696864 351.892635925671 L 277.17770034843204 350.03441156228496 L 278.9198606271777 344.8726772195458 L 280.6620209059233 344.0467997247075 L 282.40418118466897 341.9821059876118 L 284.1463414634146 335.58155540261527 L 285.88850174216026 333.10392291810047 L 287.6306620209059 331.2456985547144 L 289.37282229965155 329.5939435650379 L 291.1149825783972 335.78802477632485 L 292.85714285714283 329.5939435650379 L 294.5993031358885 327.94218857536134 L 296.3414634146342 325.87749483826565 L 298.08362369337976 325.0516173434274 L 299.82578397212546 327.1163110805231 L 301.56794425087105 328.56159669649 L 303.31010452961675 330.62629043358567 L 305.05226480836234 339.2980041293875 L 306.79442508710804 334.5492085340675 L 308.5365853658536 333.10392291810047 L 310.2787456445993 333.5168616655196 L 312.0209059233449 340.949759119064 L 313.7630662020906 339.0915347556779 L 315.5052264808362 334.3427391603579 L 317.2473867595819 340.74328974535445 L 318.9895470383275 337.2333103922918 L 320.7317073170732 330.21335168616656 L 322.4738675958188 329.1810048176187 L 324.2160278745645 331.6586373021335 L 325.95818815331006 334.5492085340675 L 327.70034843205576 332.2780454232622 L 329.44250871080135 322.98692360633174 L 331.18466898954705 320.92222986923605 L 332.92682926829264 320.50929112181694 L 334.66898954703834 314.7281486579491 L 336.4111498257839 306.4693737095664 L 338.1533101045296 310.18582243633864 L 339.8954703832752 305.64349621472815 L 341.6376306620209 303.5788024776325 L 343.3797909407665 300.8947006194081 L 345.1219512195122 297.59119064005506 L 346.86411149825784 295.9394356503785 L 348.6062717770035 294.9070887818307 L 350.34843205574913 295.32002752924984 L 352.0905923344948 291.8100481761872 L 353.8327526132404 283.7577426015141 L 355.57491289198606 284.79008947006196 L 357.3170731707317 286.4418444597385 L 359.05923344947735 284.79008947006196 L 360.801393728223 276.5313145216793 L 362.54355400696863 272.1954576737784 L 364.2857142857143 264.762560220234 L 366.0278745644599 265.7949070887818 L 367.77003484320556 262.9043358568479 L 369.5121951219512 257.32966276668964 L 371.25435540069685 257.74260151410874 L 372.9965156794425 260.8396421197522 L 374.73867595818814 247.41913282863044 L 376.4808362369338 247.83207157604954 L 378.2229965156794 244.52856159669648 L 379.96515679442507 250.10323468685476 L 381.7073170731707 244.11562284927737 L 383.44947735191636 250.92911218169303 L 385.191637630662 239.57329662766688 L 386.93379790940764 239.36682725395735 L 388.6759581881533 237.92154163799034 L 390.41811846689893 244.32209222298695 L 392.1602787456446 240.8121128699243 L 393.9024390243902 242.67033723331042 L 395.6445993031359 233.3792154163799 L 397.3867595818815 230.488644184446 L 399.1289198606272 212.31933929800414 L 400.8710801393728 204.88644184445974 L 402.6132404181185 210.04817618719892 L 404.3554006968641 205.50584996558842 L 406.0975609756097 215.20991052993804 L 407.83972125435537 222.02339986235376 L 409.581881533101 216.44872677219547 L 411.32404181184666 211.0805230557467 L 413.0662020905923 200.13764624913972 L 414.80836236933794 193.5306262904336 L 416.5505226480836 188.3688919476944 L 418.29268292682923 185.8912594631796 L 420.0348432055749 183.82656572608397 L 421.7770034843206 184.23950447350308 L 423.5191637630662 175.77426015141089 L 425.26132404181186 176.80660701995873 L 427.0034843205575 179.28423950447353 L 428.74564459930315 169.99311768754302 L 430.4878048780488 160.9084652443221 L 432.22996515679444 156.98554714384034 L 433.9721254355401 161.11493461803167 L 435.7142857142857 165.8637302133517 L 437.45644599303137 150.9979353062629 L 439.198606271777 140.0550584996559 L 440.94076655052265 158.4308327598073 L 442.6829268292683 157.19201651754992 L 444.42508710801394 149.9655884377151 L 446.1672473867596 155.12732278045422 L 447.9094076655052 144.59738472126634 L 449.65156794425087 145.62973158981418 L 451.3937282229965 140.88093599449417 L 453.13588850174216 138.81624225739847 L 454.8780487804878 126.22161046111495 L 456.62020905923345 124.36338609772884 L 458.3623693379791 118.16930488644186 L 460.10452961672473 109.49759119064004 L 461.8466898954704 111.56228492773573 L 463.588850174216 104.33585684790091 L 465.33101045296166 105.16173434273918 L 467.0731707317073 105.98761183757745 L 468.81533101045295 100.61940812112869 L 470.5574912891986 113.00757054370268 L 472.29965156794424 107.22642807983482 L 474.0418118466899 107.63936682725398 L 475.7839721254355 108.25877494838267 L 477.52613240418117 104.33585684790091 L 479.2682926829268 103.92291810048175 L 481.01045296167246 102.68410185822438 L 482.7526132404181 104.12938747419133 L 484.49477351916374 109.29112181693051 L 486.2369337979094 112.59463179628358 L 487.97909407665503 102.68410185822438 L 489.7212543554007 100.61940812112869 L 491.4634146341463 100 L 493.20557491289196 105.57467309015829 L 494.9477351916376 104.54232622161044 L 496.68989547038325 101.03234686854785 L 498.4320557491289 104.74879559532002 L 500.17421602787454 104.9552649690296 L 501.9163763066202 109.9105299380592 L 503.6585365853658 120.64693737095666 L 505.40069686411147 120.2339986235375 L 507.1428571428571 123.33103922918099 L 508.88501742160275 124.56985547143842 L 510.6271777003484 129.93805918788712 L 512.3693379790941 131.17687543014455 L 514.1114982578397 142.73916035788028 L 515.8536585365853 145.0103234686855 L 517.595818815331 153.88850653819685 L 519.3379790940767 151.41087405368205 L 521.0801393728223 145.21679284239502 L 522.822299651568 153.4755677907777 L 524.5644599303137 161.52787336545077 L 526.3066202090592 169.37370956641433 L 528.0487804878048 177.632484514797 L 529.7909407665505 187.74948382656572 L 531.5331010452962 197.04060564349624 L 533.2752613240418 198.69236063317277 L 535.0174216027874 198.2794218857536 L 536.7595818815331 199.93117687543014 L 538.5017421602788 205.50584996558842 L 540.2439024390244 212.93874741913282 L 541.98606271777 211.69993117687545 L 543.7282229965157 205.09291121816932 L 545.4703832752614 206.74466620784585 L 547.212543554007 215.20991052993804 L 548.9547038327526 216.44872677219547 L 550.6968641114983 218.7198898830007 L 552.439024390244 216.44872677219547 L 554.1811846689895 212.11286992429456 L 555.9233449477351 212.93874741913282 L 557.6655052264808 219.13282863041985 L 559.4076655052265 230.69511355815553 L 561.1498257839721 227.39160357880246 L 562.8919860627177 222.43633860977292 L 564.6341463414634 229.45629731589815 L 566.3763066202091 228.6304198210599 L 568.1184668989547 224.0880935994494 L 569.8606271777003 218.100481761872 L 571.602787456446 219.95870612525812 L 573.3449477351917 213.35168616655199 L 575.0871080139373 211.2869924294563 L 576.8292682926829 213.7646249139711 L 578.5714285714286 208.1899518238128 L 580.3135888501743 211.49346180316587 L 582.0557491289198 213.35168616655199 L 583.7979094076654 216.2422573984859 L 585.5400696864111 216.65519614590505 L 587.2822299651568 218.30695113558158 L 589.0243902439024 226.35925671025467 L 590.766550522648 232.14039917412254 L 592.5087108013937 228.83688919476947 L 594.2508710801394 222.43633860977292 L 595.993031358885 234.61803165863734 L 597.7351916376306 235.23743977976602 L 599.4773519163763 237.92154163799034 L 601.219512195122 243.9091534755678 L 602.9616724738676 243.4962147281487 L 604.7038327526132 237.71507226428082 L 606.4459930313589 229.24982794218857 L 608.1881533101046 233.17274604267033 L 609.9303135888501 228.21748107364073 L 611.6724738675957 235.23743977976602 L 613.4146341463414 240.19270474879562 L 615.1567944250871 242.25739848589126 L 616.8989547038327 243.4962147281487 L 618.6411149825783 254.43909153475568 L 620.383275261324 258.98141775636617 L 622.1254355400697 258.1555402615279 L 623.8675958188153 269.51135581555405 L 625.609756097561 270.7501720578114 L 627.3519163763067 269.0984170681349 L 629.0940766550523 266.6207845836201 L 630.8362369337979 262.2849277357192 L 632.5783972125436 268.2725395732966 L 634.3205574912893 272.40192704748796 L 636.0627177700349 274.46662078458365 L 637.8048780487804 276.7377838953889 L 639.5470383275261 289.1259463179628 L 641.2891986062718 291.3971094287681 L 643.0313588850174 295.11355815554026 L 644.773519163763 297.79766001376464 L 646.5156794425087 310.18582243633864 L 648.2578397212544 303.3723331039229 L 650 303.16586373021335 L 650 400 Z" /><text  class="poloto_labels poloto_text poloto_title" alignment-baseline="start" text-anchor="middle" font-size="x-large" x="400" y="37.5" >Total players on 2021-06-29</text><text  class="poloto_labels poloto_text poloto_xname" alignment-baseline="start" text-anchor="middle" font-size="x-large" x="400" y="481.25" >Time</text><text  class="poloto_labels poloto_text poloto_yname" alignment-baseline="start" text-anchor="middle" font-size="x-large" transform="rotate(-90,37.5,250)" x="37.5" y="250" >Count</text><line  class="poloto_axis_lines" stroke="black" x1="208.0487804878049" x2="208.0487804878049" y1="400" y2="405" /><text  class="poloto_tick_labels poloto_text" alignment-baseline="start" text-anchor="middle" x="208.0487804878049" y="430" > 03:00</text><line  class="poloto_axis_lines" stroke="black" x1="266.1207897793264" x2="266.1207897793264" y1="400" y2="405" /><text  class="poloto_tick_labels poloto_text" alignment-baseline="start" text-anchor="middle" x="266.1207897793264" y="430" > 06:00</text><line  class="poloto_axis_lines" stroke="black" x1="324.19279907084785" x2="324.19279907084785" y1="400" y2="405" /><text  class="poloto_tick_labels poloto_text" alignment-baseline="start" text-anchor="middle" x="324.19279907084785" y="430" > 08:00</text><line  class="poloto_axis_lines" stroke="black" x1="382.2648083623693" x2="382.2648083623693" y1="400" y2="405" /><text  class="poloto_tick_labels poloto_text" alignment-baseline="start" text-anchor="middle" x="382.2648083623693" y="430" > 11:00</text><line  class="poloto_axis_lines" stroke="black" x1="440.3368176538908" x2="440.3368176538908" y1="400" y2="405" /><text  class="poloto_tick_labels poloto_text" alignment-baseline="start" text-anchor="middle" x="440.3368176538908" y="430" > 14:00</text><line  class="poloto_axis_lines" stroke="black" x1="498.4088269454123" x2="498.4088269454123" y1="400" y2="405" /><text  class="poloto_tick_labels poloto_text" alignment-baseline="start" text-anchor="middle" x="498.4088269454123" y="430" > 17:00</text><line  class="poloto_axis_lines" stroke="black" x1="556.4808362369338" x2="556.4808362369338" y1="400" y2="405" /><text  class="poloto_tick_labels poloto_text" alignment-baseline="start" text-anchor="middle" x="556.4808362369338" y="430" > 19:00</text><line  class="poloto_axis_lines" stroke="black" x1="614.5528455284552" x2="614.5528455284552" y1="400" y2="405" /><text  class="poloto_tick_labels poloto_text" alignment-baseline="start" text-anchor="middle" x="614.5528455284552" y="430" > 22:00</text><line  class="poloto_axis_lines" stroke="black" x1="150" x2="144" y1="399.3805918788713" y2="399.3805918788713" /><text  class="poloto_tick_labels poloto_text" alignment-baseline="middle" text-anchor="end" x="135" y="399.3805918788713" > 1000</text><line  class="poloto_axis_lines" stroke="black" x1="150" x2="144" y1="296.1459050240881" y2="296.1459050240881" /><text  class="poloto_tick_labels poloto_text" alignment-baseline="middle" text-anchor="end" x="135" y="296.1459050240881" > 1500</text><line  class="poloto_axis_lines" stroke="black" x1="150" x2="144" y1="192.9112181693049" y2="192.9112181693049" /><text  class="poloto_tick_labels poloto_text" alignment-baseline="middle" text-anchor="end" x="135" y="192.9112181693049" > 2000</text><path  stroke="black" fill="none" class="poloto_axis_lines" style="stroke-dasharray:14.518002322880372;stroke-dashoffset:-58.04878048780488;" d=" M 150 400 L 650 400" /><path  stroke="black" fill="none" class="poloto_axis_lines" style="stroke-dasharray:10.323468685478321;stroke-dashoffset:-0.6194081211286857;" d=" M 150 400 L 150 100" /></svg>