<svg class="poloto" width="800" height="500" viewBox="0 0 800 500" xmlns="http://www.w3.org/2000/svg"><style>.poloto { stroke-linecap:round; stroke-linejoin:round; font-family: 'Tahoma', sans-serif; background-color: AliceBlue;} .poloto_scatter{stroke-width:7} .poloto_line{stroke-width:2} .poloto_text{fill: black;} .poloto_axis_lines{stroke: black;stroke-width:3;fill:none;stroke-dasharray:none} .poloto0stroke{stroke:  blue;} .poloto1stroke{stroke:  red;} .poloto2stroke{stroke:  green;} .poloto3stroke{stroke:  gold;} .poloto4stroke{stroke:  aqua;} .poloto5stroke{stroke:  lime;} .poloto6stroke{stroke:  orange;} .poloto7stroke{stroke:  chocolate;} .poloto0fill{fill:blue;} .poloto1fill{fill:red;} .poloto2fill{fill:green;} .poloto3fill{fill:gold;} .poloto4fill{fill:aqua;} .poloto5fill{fill:lime;} .poloto6fill{fill:orange;} .poloto7fill{fill:chocolate;}</style><text  class="poloto_text poloto_legend_text" alignment-baseline="middle" text-anchor="start" font-size="large" x="675" y="100" ></text><path  class="poloto_linefill poloto0fill" d=" M 150 400 L 150 341.0385259631491 L 151.74216027874564 343.21608040201005 L 153.4843205574913 345.05862646566163 L 155.22648083623693 349.91624790619767 L 156.96864111498257 353.26633165829145 L 158.71080139372822 359.6314907872697 L 160.45296167247386 358.1239530988275 L 162.1951219512195 362.98157453936346 L 163.93728222996515 362.64656616415414 L 165.6794425087108 368.84422110552765 L 167.42160278745644 372.8643216080402 L 169.16376306620208 377.05192629815747 L 170.90592334494772 374.7068676716918 L 172.64808362369337 374.3718592964824 L 174.390243902439 371.0217755443886 L 176.13240418118465 374.03685092127307 L 177.8745644599303 377.21943048576213 L 179.61672473867597 375.8793969849246 L 181.3588850174216 371.0217755443886 L 183.10104529616726 367.5041876046901 L 184.8432055749129 369.3467336683417 L 186.58536585365854 366.66666666666663 L 188.3275261324042 371.8592964824121 L 190.06968641114983 370.35175879396985 L 191.81184668989548 377.21943048576213 L 193.55400696864112 381.7420435510888 L 195.29616724738676 382.9145728643216 L 197.0383275261324 384.08710217755447 L 198.78048780487805 381.7420435510888 L 200.5226480836237 380.56951423785597 L 202.26480836236934 381.23953098827474 L 204.00696864111498 384.9246231155779 L 205.74912891986062 385.76214405360133 L 207.49128919860627 391.4572864321608 L 209.2334494773519 394.30485762144053 L 210.97560975609755 396.4824120603015 L 212.7177700348432 394.6398659966499 L 214.45993031358887 399.6649916247906 L 216.2020905923345 400 L 217.94425087108016 393.63484087102177 L 219.6864111498258 391.9597989949749 L 221.42857142857144 392.62981574539367 L 223.1707317073171 396.1474036850922 L 224.91289198606273 389.9497487437186 L 226.65505226480838 387.26968174204353 L 228.39721254355402 386.0971524288107 L 230.13937282229966 386.59966499162476 L 231.8815331010453 384.9246231155779 L 233.62369337979095 383.58458961474037 L 235.3658536585366 384.9246231155779 L 237.10801393728224 387.60469011725297 L 238.85017421602788 389.9497487437186 L 240.59233449477352 388.60971524288107 L 242.33449477351917 390.284757118928 L 244.0766550522648 391.62479061976546 L 245.81881533101046 385.76214405360133 L 247.5609756097561 385.427135678392 L 249.30313588850174 386.7671691792295 L 251.0452961672474 380.9045226130653 L 252.78745644599303 376.54941373534336 L 254.52961672473867 378.05695142378556 L 256.2717770034843 377.5544388609715 L 258.01393728222996 381.57453936348406 L 259.7560975609756 379.3969849246231 L 261.49825783972125 380.23450586264653 L 263.2404181184669 377.21943048576213 L 264.98257839721254 372.19430485762143 L 266.7247386759582 370.51926298157457 L 268.4668989547038 367.16917922948073 L 270.20905923344947 363.9865996649916 L 271.9512195121951 358.2914572864322 L 273.69337979094075 357.286432160804 L 275.4355400696864 358.7939698492462 L 277.17770034843204 354.94137353433837 L 278.91986062717774 351.0887772194305 L 280.6620209059233 342.88107202680067 L 282.404181184669 338.8609715242881 L 284.1463414634146 339.69849246231155 L 285.8885017421603 347.06867671691793 L 287.6306620209059 341.2060301507538 L 289.3728222996516 341.8760469011726 L 291.1149825783972 344.89112227805697 L 292.8571428571429 342.37855946398656 L 294.5993031358885 347.7386934673367 L 296.3414634146342 354.43886097152426 L 298.08362369337976 351.2562814070352 L 299.82578397212546 352.428810720268 L 301.56794425087105 350.92127303182576 L 303.31010452961675 351.92629815745397 L 305.05226480836234 354.7738693467337 L 306.79442508710804 357.95644891122276 L 308.5365853658536 358.7939698492462 L 310.2787456445993 358.45896147403687 L 312.0209059233449 353.26633165829145 L 313.7630662020906 349.2462311557789 L 315.5052264808362 348.9112227805695 L 317.2473867595819 346.73366834170855 L 318.9895470383275 346.39865996649917 L 320.7317073170732 343.55108877721943 L 322.4738675958188 340.03350083752093 L 324.2160278745645 336.51591289782243 L 325.9581881533101 342.88107202680067 L 327.70034843205576 337.35343383584586 L 329.4425087108014 338.6934673366834 L 331.18466898954705 337.1859296482412 L 332.9268292682927 335.3433835845896 L 334.66898954703834 339.1959798994975 L 336.411149825784 331.99329983249584 L 338.1533101045296 329.1457286432161 L 339.89547038327527 322.6130653266332 L 341.6376306620209 324.95812395309883 L 343.37979094076655 323.45058626465664 L 345.1219512195122 321.44053601340033 L 346.86411149825784 318.42546063651594 L 348.6062717770035 311.5577889447236 L 350.34843205574913 308.8777219430486 L 352.0905923344948 310.5527638190955 L 353.8327526132404 302.0100502512563 L 355.57491289198606 301.8425460636516 L 357.3170731707317 296.1474036850921 L 359.05923344947735 293.80234505862643 L 360.801393728223 288.94472361809045 L 362.54355400696863 281.23953098827474 L 364.2857142857143 278.05695142378556 L 366.0278745644599 277.5544388609715 L 367.77003484320556 277.8894472361809 L 369.5121951219512 280.06700167504187 L 371.25435540069685 273.03182579564486 L 372.9965156794425 273.53433835845897 L 374.73867595818814 270.5192629815745 L 376.4808362369338 280.9045226130653 L 378.2229965156795 264.15410385259634 L 379.96515679442507 260.13400335008373 L 381.70731707317077 259.46398659966496 L 383.44947735191636 259.6314907872697 L 385.19163763066206 252.42881072026802 L 386.93379790940764 250.08375209380233 L 388.67595818815334 249.58123953098828 L 390.41811846689893 254.10385259631488 L 392.16027874564463 247.2361809045226 L 393.9024390243902 237.68844221105525 L 395.6445993031359 235.34338358458962 L 397.3867595818815 228.81072026800672 L 399.1289198606272 232.99832495812393 L 400.8710801393728 241.54103852596313 L 402.6132404181185 234.50586264656613 L 404.3554006968641 216.5829145728643 L 406.0975609756098 221.608040201005 L 407.8397212543554 212.7303182579564 L 409.58188153310107 208.0402010050251 L 411.3240418118467 204.85762144053598 L 413.06620209059236 195.30988274706868 L 414.808362369338 189.9497487437186 L 416.55052264808364 188.94472361809045 L 418.2926829268293 195.47738693467335 L 420.03484320557493 182.41206030150755 L 421.7770034843206 172.8643216080402 L 423.5191637630662 178.05695142378556 L 425.26132404181186 171.85929648241205 L 427.0034843205575 173.19932998324958 L 428.74564459930315 186.76716917922948 L 430.4878048780488 168.17420435510888 L 432.22996515679444 163.48408710217757 L 433.9721254355401 159.63149078726968 L 435.7142857142857 175.20938023450583 L 437.45644599303137 172.3618090452261 L 439.198606271777 158.62646566164153 L 440.94076655052265 157.286432160804 L 442.6829268292683 145.39363484087102 L 444.42508710801394 125.62814070351754 L 446.1672473867596 140.2010050251256 L 447.9094076655052 140.03350083752093 L 449.65156794425087 148.57621440536013 L 451.3937282229965 133.50083752093803 L 453.13588850174216 144.05360134003348 L 454.8780487804878 133.33333333333331 L 456.62020905923345 107.37018425460633 L 458.3623693379791 110.0502512562814 L 460.10452961672473 105.36013400335008 L 461.8466898954704 108.20770519262982 L 463.588850174216 107.70519262981571 L 465.33101045296166 127.1356783919598 L 467.0731707317073 124.28810720268007 L 468.81533101045295 104.5226130653266 L 470.5574912891986 100 L 472.29965156794424 101.17252931323281 L 474.0418118466899 100.50251256281405 L 475.7839721254355 105.36013400335008 L 477.52613240418117 110.21775544388606 L 479.2682926829268 115.41038525963148 L 481.01045296167246 131.82579564489112 L 482.7526132404181 129.64824120603015 L 484.49477351916374 139.02847571189278 L 486.2369337979094 135.51088777219428 L 487.97909407665503 136.01340033500838 L 489.7212543554007 140.7035175879397 L 491.4634146341463 152.2613065326633 L 493.20557491289196 154.43886097152426 L 494.9477351916376 161.64154103852593 L 496.68989547038325 156.78391959798995 L 498.4320557491289 172.3618090452261 L 500.17421602787454 161.80904522613065 L 501.91637630662024 173.53433835845897 L 503.6585365853659 180.06700167504187 L 505.4006968641115 170.68676716917923 L 507.14285714285717 186.93467336683415 L 508.8850174216028 194.80737018425458 L 510.62717770034845 179.8994974874372 L 512.3693379790941 168.84422110552765 L 514.1114982578397 181.23953098827468 L 515.8536585365854 188.10720268006702 L 517.5958188153311 202.51256281407035 L 519.3379790940767 206.36515912897823 L 521.0801393728223 212.22780569514237 L 522.822299651568 219.93299832495813 L 524.5644599303137 215.57788944723615 L 526.3066202090592 236.18090452261305 L 528.0487804878048 228.97822445561138 L 529.7909407665505 238.6934673366834 L 531.5331010452962 232.66331658291455 L 533.2752613240418 239.69849246231155 L 535.0174216027874 226.96817420435508 L 536.7595818815331 229.48073701842543 L 538.5017421602788 228.97822445561138 L 540.2439024390244 234.8408710217755 L 541.98606271777 247.90619765494137 L 543.7282229965157 239.36348408710217 L 545.4703832752614 243.88609715242882 L 547.212543554007 246.73366834170855 L 548.9547038327526 252.59631490787268 L 550.6968641114983 253.09882747068679 L 552.439024390244 252.59631490787268 L 554.1811846689895 254.2713567839196 L 555.9233449477351 255.7788944723618 L 557.6655052264808 251.08877721943048 L 559.4076655052265 252.7638190954774 L 561.1498257839721 258.62646566164153 L 562.8919860627177 255.10887772194303 L 564.6341463414634 257.95644891122276 L 566.3763066202091 257.7889447236181 L 568.1184668989547 261.3065326633166 L 569.8606271777003 276.54941373534336 L 571.602787456446 269.6817420435511 L 573.3449477351917 270.5192629815745 L 575.0871080139373 268.50921273031827 L 576.8292682926829 268.50921273031827 L 578.5714285714286 272.8643216080402 L 580.3135888501743 272.02680067001677 L 582.0557491289198 263.81909547738695 L 583.7979094076654 269.6817420435511 L 585.5400696864111 276.3819095477387 L 587.2822299651568 260.8040201005025 L 589.0243902439024 263.9865996649916 L 590.766550522648 262.8140703517588 L 592.5087108013937 266.83417085427135 L 594.2508710801394 270.5192629815745 L 595.993031358885 270.35175879396985 L 597.7351916376306 275.8793969849246 L 599.4773519163763 280.40201005025125 L 601.219512195122 284.08710217755447 L 602.9616724738676 288.10720268006696 L 604.7038327526133 285.09212730318256 L 606.445993031359 293.4673366834171 L 608.1881533101046 293.13232830820766 L 609.9303135888501 290.2847571189279 L 611.6724738675958 292.964824120603 L 613.4146341463415 294.80737018425464 L 615.1567944250871 302.0100502512563 L 616.8989547038327 300.67001675041877 L 618.6411149825784 304.35510887772193 L 620.3832752613241 307.20268006700167 L 622.1254355400697 307.035175879397 L 623.8675958188153 304.02010050251255 L 625.609756097561 307.37018425460633 L 627.3519163763067 307.20268006700167 L 629.0940766550523 312.73031825795647 L 630.8362369337979 315.4103852596315 L 632.5783972125436 315.24288107202676 L 634.3205574912893 313.9028475711893 L 636.0627177700349 315.24288107202676 L 637.8048780487804 325.46063651591294 L 639.5470383275261 330.9882747068677 L 641.2891986062718 334.33835845896147 L 643.0313588850174 339.53098827470683 L 644.773519163763 336.6834170854271 L 646.5156794425087 337.1859296482412 L 648.2578397212544 353.9363484087102 L 650 339.1959798994975 L 650 400 Z" /><text  class="poloto_labels poloto_text poloto_title" alignment-baseline="start" text-anchor="middle" font-size="x-large" x="400" y="37.5" >Total players on 2021-11-11</text><text  class="poloto_labels poloto_text poloto_xname" alignment-baseline="start" text-anchor="middle" font-size="x-large" x="400" y="481.25" >Time</text><text  class="poloto_labels poloto_text poloto_yname" alignment-baseline="start" text-anchor="middle" font-size="x-large" transform="rotate(-90,37.5,250)" x="37.5" y="250" >Count</text><line  class="poloto_axis_lines" stroke="black" x1="150" x2="150" y1="400" y2="405" /><text  class="poloto_tick_labels poloto_text" alignment-baseline="start" text-anchor="middle" x="150" y="430" > 00:00</text><line  class="poloto_axis_lines" stroke="black" x1="266.14401858304296" x2="266.14401858304296" y1="400" y2="405" /><text  class="poloto_tick_labels poloto_text" alignment-baseline="start" text-anchor="middle" x="266.14401858304296" y="430" > 06:00</text><line  class="poloto_axis_lines" stroke="black" x1="382.2880371660859" x2="382.2880371660859" y1="400" y2="405" /><text  class="poloto_tick_labels poloto_text" alignment-baseline="start" text-anchor="middle" x="382.2880371660859" y="430" > 11:00</text><line  class="poloto_axis_lines" stroke="black" x1="498.4320557491289" x2="498.4320557491289" y1="400" y2="405" /><text  class="poloto_tick_labels poloto_text" alignment-baseline="start" text-anchor="middle" x="498.4320557491289" y="430" > 17:00</text><line  class="poloto_axis_lines" stroke="black" x1="614.5760743321719" x2="614.5760743321719" y1="400" y2="405" /><text  class="poloto_tick_labels poloto_text" alignment-baseline="start" text-anchor="middle" x="614.5760743321719" y="430" > 22:00</text><line  class="poloto_axis_lines" stroke="black" x1="150" x2="144" y1="360.9715242881072" y2="360.9715242881072" /><text  class="poloto_tick_labels poloto_text" alignment-baseline="middle" text-anchor="end" x="135" y="360.9715242881072" > 1000</text><line  class="poloto_axis_lines" stroke="black" x1="150" x2="144" y1="277.21943048576213" y2="277.21943048576213" /><text  class="poloto_tick_labels poloto_text" alignment-baseline="middle" text-anchor="end" x="135" y="277.21943048576213" > 1500</text><line  class="poloto_axis_lines" stroke="black" x1="150" x2="144" y1="193.4673366834171" y2="193.4673366834171" /><text  class="poloto_tick_labels poloto_text" alignment-baseline="middle" text-anchor="end" x="135" y="193.4673366834171" > 2000</text><line  class="poloto_axis_lines" stroke="black" x1="150" x2="144" y1="109.71524288107202" y2="109.71524288107202" /><text  class="poloto_tick_labels poloto_text" alignment-baseline="middle" text-anchor="end" x="135" y="109.71524288107202" > 2500</text><path  stroke="black" fill="none" class="poloto_axis_lines" style="stroke-dasharray:14.518002322880372;stroke-dashoffset:-0;" d=" M 150 400 L 650 400" /><path  stroke="black" fill="none" class="poloto_axis_lines" style="stroke-dasharray:8.375209380234505;stroke-dashoffset:-39.02847571189278;" d=" M 150 400 L 150 100" /></svg>