<svg class="poloto" width="800" height="500" viewBox="0 0 800 500" xmlns="http://www.w3.org/2000/svg"><style>.poloto { stroke-linecap:round; stroke-linejoin:round; font-family: 'Tahoma', sans-serif; background-color: AliceBlue;} .poloto_scatter{stroke-width:7} .poloto_line{stroke-width:2} .poloto_text{fill: black;} .poloto_axis_lines{stroke: black;stroke-width:3;fill:none;stroke-dasharray:none} .poloto0stroke{stroke:  blue;} .poloto1stroke{stroke:  red;} .poloto2stroke{stroke:  green;} .poloto3stroke{stroke:  gold;} .poloto4stroke{stroke:  aqua;} .poloto5stroke{stroke:  lime;} .poloto6stroke{stroke:  orange;} .poloto7stroke{stroke:  chocolate;} .poloto0fill{fill:blue;} .poloto1fill{fill:red;} .poloto2fill{fill:green;} .poloto3fill{fill:gold;} .poloto4fill{fill:aqua;} .poloto5fill{fill:lime;} .poloto6fill{fill:orange;} .poloto7fill{fill:chocolate;}</style><text  class="poloto_text poloto_legend_text" alignment-baseline="middle" text-anchor="start" font-size="large" x="675" y="100" ></text><path  class="poloto_linefill poloto0fill" d=" M 150 400 L 150 334.2967244701349 L 151.74216027874564 340.65510597302506 L 153.4843205574913 338.5356454720617 L 155.22648083623693 338.72832369942194 L 156.96864111498257 337.9576107899808 L 158.71080139372822 348.9402697495183 L 160.45296167247386 346.242774566474 L 162.1951219512195 357.80346820809245 L 163.93728222996515 357.99614643545283 L 165.6794425087108 362.62042389210023 L 167.42160278745644 369.36416184971097 L 169.16376306620208 377.4566473988439 L 170.90592334494772 380.7321772639692 L 172.64808362369337 382.6589595375723 L 174.390243902439 381.69556840077075 L 176.13240418118465 384.00770712909446 L 177.8745644599303 388.8246628131021 L 179.61672473867597 389.980732177264 L 181.3588850174216 389.5953757225434 L 183.10104529616726 393.83429672447016 L 184.8432055749129 392.67822736030826 L 186.58536585365854 388.2466281310212 L 188.3275261324042 389.5953757225434 L 190.06968641114983 387.2832369942197 L 191.81184668989548 387.47591522157995 L 193.55400696864112 382.6589595375723 L 195.29616724738676 380.7321772639692 L 197.0383275261324 384.7784200385356 L 198.78048780487805 388.2466281310212 L 200.5226480836237 391.52215799614646 L 202.26480836236934 396.72447013487476 L 204.00696864111498 397.8805394990366 L 205.74912891986062 392.87090558766863 L 207.49128919860627 391.32947976878614 L 209.2334494773519 393.4489402697495 L 210.97560975609755 392.10019267822736 L 212.7177700348432 398.65125240847783 L 214.45993031358887 397.49518304431604 L 216.2020905923345 400 L 217.94425087108016 392.87090558766863 L 219.6864111498258 389.402697495183 L 221.42857142857144 386.5125240847784 L 223.1707317073171 383.8150289017341 L 224.91289198606273 383.4296724470135 L 226.65505226480838 385.5491329479769 L 228.39721254355402 386.31984585741816 L 230.13937282229966 388.4393063583815 L 231.8815331010453 387.66859344894027 L 233.62369337979095 387.66859344894027 L 235.3658536585366 389.980732177264 L 237.10801393728224 384.971098265896 L 238.85017421602788 385.35645472061657 L 240.59233449477352 383.4296724470135 L 242.33449477351917 381.69556840077075 L 244.0766550522648 378.4200385356455 L 245.81881533101046 378.0346820809249 L 247.5609756097561 376.4932562620424 L 249.30313588850174 383.8150289017341 L 251.0452961672474 379.96146435452795 L 252.78745644599303 376.6859344894027 L 254.52961672473867 379.76878612716763 L 256.2717770034843 374.5664739884393 L 258.01393728222996 373.9884393063584 L 259.7560975609756 379.38342967244705 L 261.49825783972125 382.27360308285165 L 263.2404181184669 383.2369942196532 L 264.98257839721254 380.9248554913295 L 266.7247386759582 379.76878612716763 L 268.4668989547038 374.9518304431599 L 270.20905923344947 368.59344894026975 L 271.9512195121951 365.3179190751445 L 273.69337979094075 362.2350674373796 L 275.4355400696864 367.4373795761079 L 277.17770034843204 368.0154142581888 L 278.9198606271777 369.9421965317919 L 280.6620209059233 369.5568400770713 L 282.40418118466897 373.9884393063584 L 284.1463414634146 381.69556840077075 L 285.88850174216026 362.62042389210023 L 287.6306620209059 363.3911368015414 L 289.37282229965155 363.19845857418113 L 291.1149825783972 361.27167630057806 L 292.85714285714283 363.77649325626203 L 294.5993031358885 365.1252408477842 L 296.3414634146342 365.7032755298651 L 298.08362369337976 363.77649325626203 L 299.82578397212546 355.6840077071291 L 301.56794425087105 361.07899807321775 L 303.31010452961675 360.6936416184971 L 305.05226480836234 355.2986512524085 L 306.79442508710804 352.4084778420039 L 308.5365853658536 357.80346820809245 L 310.2787456445993 353.1791907514451 L 312.0209059233449 353.1791907514451 L 313.7630662020906 349.71098265895955 L 315.5052264808362 356.8400770712909 L 317.2473867595819 352.2157996146435 L 318.9895470383275 356.45472061657034 L 320.7317073170732 346.4354527938343 L 322.4738675958188 352.4084778420039 L 324.2160278745645 350.28901734104045 L 325.95818815331006 343.73795761079 L 327.70034843205576 338.9210019267823 L 329.44250871080135 340.46242774566474 L 331.18466898954705 338.3429672447013 L 332.92682926829264 337.9576107899808 L 334.66898954703834 334.2967244701349 L 336.4111498257839 326.97495183044316 L 338.1533101045296 320.4238921001927 L 339.8954703832752 325.0481695568401 L 341.6376306620209 322.7360308285164 L 343.3797909407665 325.0481695568401 L 345.1219512195122 315.028901734104 L 346.86411149825784 317.14836223506745 L 348.6062717770035 313.2947976878613 L 350.34843205574913 309.4412331406551 L 352.0905923344948 298.65125240847783 L 353.8327526132404 294.6050096339113 L 355.57491289198606 283.6223506743738 L 357.3170731707317 285.5491329479769 L 359.05923344947735 278.6127167630058 L 360.801393728223 279.38342967244705 L 362.54355400696863 284.58574181117535 L 364.2857142857143 289.0173410404624 L 366.0278745644599 293.4489402697495 L 367.77003484320556 288.05394990366085 L 369.5121951219512 287.0905587668593 L 371.25435540069685 284.7784200385356 L 372.9965156794425 292.10019267822736 L 374.73867595818814 288.05394990366085 L 376.4808362369338 287.2832369942197 L 378.2229965156794 282.6589595375723 L 379.96515679442507 276.49325626204245 L 381.7073170731707 273.60308285163774 L 383.44947735191636 274.56647398843927 L 385.191637630662 272.8323699421966 L 386.93379790940764 263.9691714836224 L 388.6759581881533 258.766859344894 L 390.41811846689893 256.64739884393066 L 392.1602787456446 258.38150289017346 L 393.9024390243902 250.86705202312137 L 395.6445993031359 247.39884393063582 L 397.3867595818815 241.61849710982662 L 399.1289198606272 242.0038535645472 L 400.8710801393728 245.08670520231212 L 402.6132404181185 242.96724470134873 L 404.3554006968641 235.2601156069364 L 406.0975609756097 234.10404624277456 L 407.83972125435537 232.56262042389213 L 409.581881533101 225.04816955684007 L 411.32404181184666 225.4335260115607 L 413.0662020905923 214.0655105973025 L 414.80836236933794 210.01926782273605 L 416.5505226480836 208.67052023121389 L 418.29268292682923 207.32177263969172 L 420.0348432055749 202.31213872832367 L 421.7770034843206 195.56840077071288 L 423.5191637630662 195.37572254335262 L 425.26132404181186 197.495183044316 L 427.0034843205575 198.26589595375722 L 428.74564459930315 199.42196531791907 L 430.4878048780488 188.63198458574183 L 432.22996515679444 182.0809248554913 L 433.9721254355401 179.1907514450867 L 435.7142857142857 172.4470134874759 L 437.45644599303137 166.66666666666666 L 439.198606271777 165.5105973025048 L 440.94076655052265 158.76685934489402 L 442.6829268292683 154.52793834296725 L 444.42508710801394 150.28901734104048 L 446.1672473867596 138.3429672447013 L 447.9094076655052 131.21387283236993 L 449.65156794425087 132.94797687861274 L 451.3937282229965 128.32369942196533 L 453.13588850174216 121.38728323699422 L 454.8780487804878 115.22157996146439 L 456.62020905923345 109.44123314065507 L 458.3623693379791 105.2023121387283 L 460.10452961672473 100 L 461.8466898954704 103.08285163776497 L 463.588850174216 104.43159922928714 L 465.33101045296166 108.0924855491329 L 467.0731707317073 105.00963391136804 L 468.81533101045295 108.86319845857417 L 470.5574912891986 101.92678227360307 L 472.29965156794424 111.17533718689788 L 474.0418118466899 114.83622350674375 L 475.7839721254355 122.35067437379575 L 477.52613240418117 123.50674373795766 L 479.2682926829268 120.23121387283231 L 481.01045296167246 120.80924855491332 L 482.7526132404181 117.14836223506745 L 484.49477351916374 114.25818882466285 L 486.2369337979094 119.26782273603078 L 487.97909407665503 119.84585741811179 L 489.7212543554007 126.20423892100189 L 491.4634146341463 119.65317919075142 L 493.20557491289196 117.14836223506745 L 494.9477351916376 107.70712909441238 L 496.68989547038325 129.0944123314066 L 498.4320557491289 102.50481695568396 L 500.17421602787454 117.14836223506745 L 501.9163763066202 112.71676300578031 L 503.6585365853658 114.06551059730248 L 505.40069686411147 112.52408477842005 L 507.1428571428571 117.34104046242771 L 508.88501742160275 112.33140655105979 L 510.6271777003484 110.98265895953762 L 512.3693379790941 125.24084778420035 L 514.1114982578397 131.4065510597303 L 515.8536585365853 138.53564547206167 L 517.595818815331 160.3082851637765 L 519.3379790940767 131.4065510597303 L 521.0801393728223 140.0770712909441 L 522.822299651568 143.35260115606934 L 524.5644599303137 148.9402697495183 L 526.3066202090592 148.55491329479767 L 528.0487804878048 147.59152215799614 L 529.7909407665505 154.72061657032756 L 531.5331010452962 165.70327552986512 L 533.2752613240418 169.17148362235068 L 535.0174216027874 163.00578034682079 L 536.7595818815331 174.75915221579962 L 538.5017421602788 159.73025048169555 L 540.2439024390244 172.2543352601156 L 541.98606271777 173.02504816955687 L 543.7282229965157 176.878612716763 L 545.4703832752614 185.3564547206166 L 547.212543554007 190.36608863198458 L 548.9547038327526 193.25626204238924 L 550.6968641114983 197.8805394990366 L 552.439024390244 197.3025048169557 L 554.1811846689895 201.34874759152214 L 555.9233449477351 201.34874759152214 L 557.6655052264808 204.04624277456648 L 559.4076655052265 204.62427745664738 L 561.1498257839721 213.10211946050097 L 562.8919860627177 212.33140655105976 L 564.6341463414634 217.72639691714838 L 566.3763066202091 217.9190751445087 L 568.1184668989547 217.53371868978806 L 569.8606271777003 221.77263969171483 L 571.602787456446 222.15799614643547 L 573.3449477351917 225.24084778420038 L 575.0871080139373 228.51637764932562 L 576.8292682926829 235.64547206165705 L 578.5714285714286 236.60886319845858 L 580.3135888501743 236.8015414258189 L 582.0557491289198 234.29672447013488 L 583.7979094076654 234.87475915221583 L 585.5400696864111 238.34296724470133 L 587.2822299651568 238.15028901734107 L 589.0243902439024 237.95761078998075 L 590.766550522648 233.91136801541424 L 592.5087108013937 256.8400770712909 L 594.2508710801394 231.98458574181117 L 595.993031358885 235.64547206165705 L 597.7351916376306 238.34296724470133 L 599.4773519163763 244.70134874759154 L 601.219512195122 237.18689788053948 L 602.9616724738676 235.2601156069364 L 604.7038327526132 236.03082851637762 L 606.4459930313589 237.76493256262043 L 608.1881533101046 241.23314065510598 L 609.9303135888501 237.5722543352601 L 611.6724738675957 242.0038535645472 L 613.4146341463414 249.13294797687863 L 615.1567944250871 246.24277456647397 L 616.8989547038327 257.4181117533718 L 618.6411149825783 261.0789980732177 L 620.383275261324 267.82273603082854 L 622.1254355400697 270.13487475915224 L 623.8675958188153 272.6396917148362 L 625.609756097561 278.0346820809249 L 627.3519163763067 293.4489402697495 L 629.0940766550523 278.9980732177264 L 630.8362369337979 276.878612716763 L 632.5783972125436 276.6859344894027 L 634.3205574912893 284.2003853564547 L 636.0627177700349 289.21001926782276 L 637.8048780487804 292.87090558766863 L 639.5470383275261 301.54142581888243 L 641.2891986062718 302.11946050096344 L 643.0313588850174 313.10211946050094 L 644.773519163763 312.9094412331407 L 646.5156794425087 316.1849710982659 L 648.2578397212544 325.81888246628137 L 650 327.74566473988443 L 650 400 Z" /><text  class="poloto_labels poloto_text poloto_title" alignment-baseline="start" text-anchor="middle" font-size="x-large" x="400" y="37.5" >Total players on 2021-06-24</text><text  class="poloto_labels poloto_text poloto_xname" alignment-baseline="start" text-anchor="middle" font-size="x-large" x="400" y="481.25" >Time</text><text  class="poloto_labels poloto_text poloto_yname" alignment-baseline="start" text-anchor="middle" font-size="x-large" transform="rotate(-90,37.5,250)" x="37.5" y="250" >Count</text><line  class="poloto_axis_lines" stroke="black" x1="208.0487804878049" x2="208.0487804878049" y1="400" y2="405" /><text  class="poloto_tick_labels poloto_text" alignment-baseline="start" text-anchor="middle" x="208.0487804878049" y="430" > 03:00</text><line  class="poloto_axis_lines" stroke="black" x1="266.1207897793264" x2="266.1207897793264" y1="400" y2="405" /><text  class="poloto_tick_labels poloto_text" alignment-baseline="start" text-anchor="middle" x="266.1207897793264" y="430" > 06:00</text><line  class="poloto_axis_lines" stroke="black" x1="324.19279907084785" x2="324.19279907084785" y1="400" y2="405" /><text  class="poloto_tick_labels poloto_text" alignment-baseline="start" text-anchor="middle" x="324.19279907084785" y="430" > 08:00</text><line  class="poloto_axis_lines" stroke="black" x1="382.2648083623693" x2="382.2648083623693" y1="400" y2="405" /><text  class="poloto_tick_labels poloto_text" alignment-baseline="start" text-anchor="middle" x="382.2648083623693" y="430" > 11:00</text><line  class="poloto_axis_lines" stroke="black" x1="440.3368176538908" x2="440.3368176538908" y1="400" y2="405" /><text  class="poloto_tick_labels poloto_text" alignment-baseline="start" text-anchor="middle" x="440.3368176538908" y="430" > 14:00</text><line  class="poloto_axis_lines" stroke="black" x1="498.4088269454123" x2="498.4088269454123" y1="400" y2="405" /><text  class="poloto_tick_labels poloto_text" alignment-baseline="start" text-anchor="middle" x="498.4088269454123" y="430" > 17:00</text><line  class="poloto_axis_lines" stroke="black" x1="556.4808362369338" x2="556.4808362369338" y1="400" y2="405" /><text  class="poloto_tick_labels poloto_text" alignment-baseline="start" text-anchor="middle" x="556.4808362369338" y="430" > 19:00</text><line  class="poloto_axis_lines" stroke="black" x1="614.5528455284552" x2="614.5528455284552" y1="400" y2="405" /><text  class="poloto_tick_labels poloto_text" alignment-baseline="start" text-anchor="middle" x="614.5528455284552" y="430" > 22:00</text><line  class="poloto_axis_lines" stroke="black" x1="150" x2="144" y1="365.1252408477842" y2="365.1252408477842" /><text  class="poloto_tick_labels poloto_text" alignment-baseline="middle" text-anchor="end" x="135" y="365.1252408477842" > 1200</text><line  class="poloto_axis_lines" stroke="black" x1="150" x2="144" y1="326.5895953757225" y2="326.5895953757225" /><text  class="poloto_tick_labels poloto_text" alignment-baseline="middle" text-anchor="end" x="135" y="326.5895953757225" > 1400</text><line  class="poloto_axis_lines" stroke="black" x1="150" x2="144" y1="288.05394990366085" y2="288.05394990366085" /><text  class="poloto_tick_labels poloto_text" alignment-baseline="middle" text-anchor="end" x="135" y="288.05394990366085" > 1600</text><line  class="poloto_axis_lines" stroke="black" x1="150" x2="144" y1="249.51830443159918" y2="249.51830443159918" /><text  class="poloto_tick_labels poloto_text" alignment-baseline="middle" text-anchor="end" x="135" y="249.51830443159918" > 1800</text><line  class="poloto_axis_lines" stroke="black" x1="150" x2="144" y1="210.98265895953762" y2="210.98265895953762" /><text  class="poloto_tick_labels poloto_text" alignment-baseline="middle" text-anchor="end" x="135" y="210.98265895953762" > 2000</text><line  class="poloto_axis_lines" stroke="black" x1="150" x2="144" y1="172.44701348747594" y2="172.44701348747594" /><text  class="poloto_tick_labels poloto_text" alignment-baseline="middle" text-anchor="end" x="135" y="172.44701348747594" > 2200</text><line  class="poloto_axis_lines" stroke="black" x1="150" x2="144" y1="133.91136801541427" y2="133.91136801541427" /><text  class="poloto_tick_labels poloto_text" alignment-baseline="middle" text-anchor="end" x="135" y="133.91136801541427" > 2400</text><path  stroke="black" fill="none" class="poloto_axis_lines" style="stroke-dasharray:14.518002322880372;stroke-dashoffset:-58.04878048780488;" d=" M 150 400 L 650 400" /><path  stroke="black" fill="none" class="poloto_axis_lines" style="stroke-dasharray:9.633911368015415;stroke-dashoffset:-34.8747591522158;" d=" M 150 400 L 150 100" /></svg>