<svg class="poloto" width="800" height="500" viewBox="0 0 800 500" xmlns="http://www.w3.org/2000/svg"><style>.poloto { stroke-linecap:round; stroke-linejoin:round; font-family: 'Tahoma', sans-serif; background-color: AliceBlue;} .poloto_scatter{stroke-width:7} .poloto_line{stroke-width:2} .poloto_text{fill: black;} .poloto_axis_lines{stroke: black;stroke-width:3;fill:none;stroke-dasharray:none} .poloto0stroke{stroke:  blue;} .poloto1stroke{stroke:  red;} .poloto2stroke{stroke:  green;} .poloto3stroke{stroke:  gold;} .poloto4stroke{stroke:  aqua;} .poloto5stroke{stroke:  lime;} .poloto6stroke{stroke:  orange;} .poloto7stroke{stroke:  chocolate;} .poloto0fill{fill:blue;} .poloto1fill{fill:red;} .poloto2fill{fill:green;} .poloto3fill{fill:gold;} .poloto4fill{fill:aqua;} .poloto5fill{fill:lime;} .poloto6fill{fill:orange;} .poloto7fill{fill:chocolate;}</style><text  class="poloto_text poloto_legend_text" alignment-baseline="middle" text-anchor="start" font-size="large" x="675" y="100" ></text><path  class="poloto_linefill poloto0fill" d=" M 150 400 L 150 275.8373205741627 L 151.74216027874564 276.4524948735475 L 153.4843205574913 273.17156527682846 L 155.22648083623693 271.7361585782638 L 156.96864111498257 276.24743677375255 L 158.71080139372822 280.04101161995897 L 160.45296167247386 276.96514012303487 L 162.1951219512195 281.16883116883116 L 163.93728222996515 284.0396445659603 L 165.6794425087108 287.012987012987 L 167.42160278745644 288.24333561175666 L 169.16376306620208 287.62816131237184 L 170.90592334494772 288.961038961039 L 172.64808362369337 289.0635680109364 L 174.390243902439 289.67874231032124 L 176.13240418118465 294.2925495557074 L 177.8745644599303 294.70266575529735 L 179.61672473867597 293.47231715652765 L 181.3588850174216 291.6267942583732 L 183.10104529616726 290.1913875598086 L 184.8432055749129 293.0622009569378 L 186.58536585365854 295.62542720437455 L 188.3275261324042 294.60013670539985 L 190.06968641114983 295.0102529049897 L 191.81184668989548 297.1633629528366 L 193.55400696864112 296.4456596035543 L 195.29616724738676 296.34313055365686 L 197.0383275261324 297.0608339029392 L 198.78048780487805 295.933014354067 L 200.5226480836237 294.8051948051948 L 202.26480836236934 296.9583048530417 L 204.00696864111498 296.6507177033493 L 205.74912891986062 295.1127819548872 L 207.49128919860627 296.4456596035543 L 209.2334494773519 295.62542720437455 L 210.97560975609755 298.5987696514012 L 212.7177700348432 296.75324675324674 L 214.45993031358887 297.9835953520164 L 216.2020905923345 296.6507177033493 L 217.94425087108016 296.6507177033493 L 219.6864111498258 294.8051948051948 L 221.42857142857144 297.88106630211894 L 223.1707317073171 298.49624060150376 L 224.91289198606273 298.90635680109364 L 226.65505226480838 301.161995898838 L 228.39721254355402 301.26452494873547 L 230.13937282229966 301.26452494873547 L 231.8815331010453 302.08475734791523 L 233.62369337979095 299.62406015037595 L 235.3658536585366 298.5987696514012 L 237.10801393728224 297.9835953520164 L 238.85017421602788 294.9077238550923 L 240.59233449477352 291.93438140806563 L 242.33449477351917 290.498974709501 L 244.0766550522648 294.0874914559125 L 245.81881533101046 295.83048530416954 L 247.5609756097561 295.5228981544771 L 249.30313588850174 294.9077238550923 L 251.0452961672474 293.0622009569378 L 252.78745644599303 289.67874231032124 L 254.52961672473867 287.4231032125769 L 256.2717770034843 284.9624060150376 L 258.01393728222996 283.83458646616543 L 259.7560975609756 287.11551606288447 L 261.49825783972125 284.85987696514013 L 263.2404181184669 287.8332194121668 L 264.98257839721254 286.2952836637047 L 266.7247386759582 287.62816131237184 L 268.4668989547038 287.4231032125769 L 270.20905923344947 292.44702665755295 L 271.9512195121951 290.39644565960356 L 273.69337979094075 289.8838004101162 L 275.4355400696864 284.9624060150376 L 277.17770034843204 282.5017088174983 L 278.91986062717774 286.1927546138072 L 280.6620209059233 282.70676691729324 L 282.404181184669 279.7334244702666 L 284.1463414634146 281.06630211893366 L 285.8885017421603 281.27136021872866 L 287.6306620209059 280.8612440191388 L 289.3728222996516 279.11825017088177 L 291.1149825783972 280.3485987696514 L 292.8571428571429 275.73479152426523 L 294.5993031358885 275.0170881749829 L 296.3414634146342 278.40054682159945 L 298.08362369337976 283.21941216678056 L 299.82578397212546 274.19685577580316 L 301.56794425087105 272.863978127136 L 303.31010452961675 272.96650717703346 L 305.05226480836234 272.35133287764864 L 306.79442508710804 269.17293233082705 L 308.5365853658536 268.4552289815448 L 310.2787456445993 265.7894736842105 L 312.0209059233449 264.7641831852358 L 313.7630662020906 265.686944634313 L 315.5052264808362 265.99453178400546 L 317.2473867595819 266.6097060833903 L 318.9895470383275 266.91729323308266 L 320.7317073170732 267.7375256322625 L 322.4738675958188 270.7108680792891 L 324.2160278745645 268.55775803144223 L 325.9581881533101 269.58304853041693 L 327.70034843205576 270.4032809295967 L 329.4425087108014 268.4552289815448 L 331.18466898954705 268.7628161312372 L 332.9268292682927 269.377990430622 L 334.66898954703834 266.3021189336979 L 336.411149825784 263.4313055365687 L 338.1533101045296 263.0211893369788 L 339.89547038327527 258.4073820915926 L 341.6376306620209 256.971975393028 L 343.37979094076655 251.12781954887217 L 345.1219512195122 252.1531100478469 L 346.86411149825784 254.71633629528367 L 348.6062717770035 253.7935748462064 L 350.34843205574913 252.05058099794942 L 352.0905923344948 254.81886534518114 L 353.8327526132404 253.07587149692412 L 355.57491289198606 254.5112781954887 L 357.3170731707317 250.51264524948735 L 359.05923344947735 248.46206425153792 L 360.801393728223 247.33424470266576 L 362.54355400696863 241.9002050580998 L 364.2857142857143 240.4647983595352 L 366.0278745644599 238.82433356117565 L 367.77003484320556 236.77375256322622 L 369.5121951219512 236.36363636363635 L 371.25435540069685 235.33834586466165 L 372.9965156794425 233.59535201640463 L 374.73867595818814 231.33971291866027 L 376.4808362369338 227.95625427204374 L 378.2229965156795 222.72727272727272 L 379.96515679442507 219.6514012303486 L 381.70731707317077 222.00956937799043 L 383.44947735191636 223.95762132604236 L 385.19163763066206 221.59945317840052 L 386.93379790940764 209.29596719070403 L 388.67595818815334 210.83390293916608 L 390.41811846689893 212.98701298701297 L 392.16027874564463 212.5768967874231 L 393.9024390243902 214.42241968557758 L 395.6445993031359 216.67805878332194 L 397.3867595818815 213.70471633629526 L 399.1289198606272 209.80861244019138 L 400.8710801393728 206.83526999316473 L 402.6132404181185 203.0416951469583 L 404.3554006968641 204.57963089542037 L 406.0975609756098 200.27341079972658 L 407.8397212543554 195.86466165413532 L 409.58188153310107 193.30143540669854 L 411.3240418118467 194.01913875598086 L 413.06620209059236 192.7887901572112 L 414.808362369338 181.1004784688995 L 416.55052264808364 177.9220779220779 L 418.2926829268293 177.6144907723855 L 420.03484320557493 179.97265892002733 L 421.7770034843206 176.17908407382092 L 423.5191637630662 167.46411483253587 L 425.26132404181186 165.00341763499657 L 427.0034843205575 158.5440874914559 L 428.74564459930315 143.47231715652765 L 430.4878048780488 141.5242652084757 L 432.22996515679444 132.29665071770336 L 433.9721254355401 131.3738892686261 L 435.7142857142857 125.4272043745728 L 437.45644599303137 115.58441558441558 L 439.198606271777 111.07313738892685 L 440.94076655052265 105.12645249487355 L 442.6829268292683 102.87081339712915 L 444.42508710801394 103.38345864661653 L 446.1672473867596 102.0505809979494 L 447.9094076655052 102.66575529733421 L 449.65156794425087 104.61380724538617 L 451.3937282229965 104.81886534518111 L 453.13588850174216 102.76828434723171 L 454.8780487804878 100 L 456.62020905923345 232.15994531784006 L 458.3623693379791 221.70198222829802 L 460.10452961672473 205.29733424470265 L 461.8466898954704 194.63431305536568 L 463.588850174216 190.53315105946683 L 465.33101045296166 183.66370471633627 L 467.0731707317073 175.97402597402595 L 468.81533101045295 175.25632262474366 L 470.5574912891986 176.99931647300068 L 472.29965156794424 175.87149692412848 L 474.0418118466899 173.0006835269993 L 475.7839721254355 176.17908407382092 L 477.52613240418117 168.0792891319207 L 479.2682926829268 170.23239917976758 L 481.01045296167246 170.43745727956252 L 482.7526132404181 168.18181818181816 L 484.49477351916374 174.23103212576896 L 486.2369337979094 180.3827751196172 L 487.97909407665503 175.25632262474366 L 489.7212543554007 168.59193438140807 L 491.4634146341463 162.95283663704714 L 493.20557491289196 167.77170198222828 L 494.9477351916376 157.62132604237866 L 496.68989547038325 155.46821599453176 L 498.4320557491289 143.57484620642515 L 500.17421602787454 135.88516746411483 L 501.91637630662024 138.85850991114148 L 503.6585365853659 135.06493506493507 L 505.4006968641115 140.08885850991112 L 507.14285714285717 131.47641831852354 L 508.8850174216028 130.14354066985646 L 510.62717770034845 129.42583732057415 L 512.3693379790941 127.06766917293231 L 514.1114982578397 123.88926862611072 L 515.8536585365854 122.45386192754614 L 517.5958188153311 133.526999316473 L 519.3379790940767 123.58168147641828 L 521.0801393728223 132.80929596719068 L 522.822299651568 128.81066302118933 L 524.5644599303137 129.83595352016403 L 526.3066202090592 136.1927546138072 L 528.0487804878048 152.59740259740258 L 529.7909407665505 142.03691045796307 L 531.5331010452962 149.21394395078605 L 533.2752613240418 142.95967190704033 L 535.0174216027874 143.6773752563226 L 536.7595818815331 147.67600820232397 L 538.5017421602788 150.7518796992481 L 540.2439024390244 153.52016404647983 L 541.98606271777 153.31510594668487 L 543.7282229965157 157.51879699248119 L 545.4703832752614 152.80246069719752 L 547.212543554007 153.52016404647983 L 548.9547038327526 156.90362269309637 L 550.6968641114983 158.133971291866 L 552.439024390244 161.82501708817497 L 554.1811846689895 162.23513328776485 L 555.9233449477351 165.82365003417632 L 557.6655052264808 169.20710868079289 L 559.4076655052265 171.36021872863978 L 561.1498257839721 175.05126452494872 L 562.8919860627177 172.38550922761448 L 564.6341463414634 171.6678058783322 L 566.3763066202091 171.87286397812713 L 568.1184668989547 168.3868762816131 L 569.8606271777003 170.43745727956252 L 571.602787456446 180.48530416951468 L 573.3449477351917 190.12303485987695 L 575.0871080139373 195.04442925495556 L 576.8292682926829 187.96992481203006 L 578.5714285714286 194.32672590567327 L 580.3135888501743 193.0963773069036 L 582.0557491289198 190.02050580997948 L 583.7979094076654 192.99384825700614 L 585.5400696864111 201.50375939849624 L 587.2822299651568 207.6555023923445 L 589.0243902439024 198.32535885167462 L 590.766550522648 199.5557074504443 L 592.5087108013937 190.43062200956936 L 594.2508710801394 200.06835269993164 L 595.993031358885 203.96445659603555 L 597.7351916376306 199.96582365003417 L 599.4773519163763 202.42652084757347 L 601.219512195122 210.4237867395762 L 602.9616724738676 212.37183868762816 L 604.7038327526133 215.3451811346548 L 606.445993031359 216.7805878332194 L 608.1881533101046 215.44771018455228 L 609.9303135888501 219.75393028024607 L 611.6724738675958 400 L 613.4146341463415 234.62064251537936 L 615.1567944250871 235.33834586466165 L 616.8989547038327 237.593984962406 L 618.6411149825784 237.49145591250854 L 620.3832752613241 238.10663021189336 L 622.1254355400697 240.4647983595352 L 623.8675958188153 240.87491455912507 L 625.609756097561 243.9507860560492 L 627.3519163763067 249.6924128503076 L 629.0940766550523 250.92276144907723 L 630.8362369337979 255.6390977443609 L 632.5783972125436 257.9972658920027 L 634.3205574912893 256.5618591934381 L 636.0627177700349 261.2781954887218 L 637.8048780487804 260.8680792891319 L 639.5470383275261 262.406015037594 L 641.2891986062718 267.12235133287766 L 643.0313588850174 263.84142173615857 L 644.773519163763 264.86671223513326 L 646.5156794425087 266.5071770334928 L 648.2578397212544 268.6602870813397 L 650 271.32604237867395 L 650 400 Z" /><text  class="poloto_labels poloto_text poloto_title" alignment-baseline="start" text-anchor="middle" font-size="x-large" x="400" y="37.5" >Total players on 2021-09-30</text><text  class="poloto_labels poloto_text poloto_xname" alignment-baseline="start" text-anchor="middle" font-size="x-large" x="400" y="481.25" >Time</text><text  class="poloto_labels poloto_text poloto_yname" alignment-baseline="start" text-anchor="middle" font-size="x-large" transform="rotate(-90,37.5,250)" x="37.5" y="250" >Count</text><line  class="poloto_axis_lines" stroke="black" x1="150" x2="150" y1="400" y2="405" /><text  class="poloto_tick_labels poloto_text" alignment-baseline="start" text-anchor="middle" x="150" y="430" > 00:00:00</text><line  class="poloto_axis_lines" stroke="black" x1="266.14401858304296" x2="266.14401858304296" y1="400" y2="405" /><text  class="poloto_tick_labels poloto_text" alignment-baseline="start" text-anchor="middle" x="266.14401858304296" y="430" > 05:33:20</text><line  class="poloto_axis_lines" stroke="black" x1="382.2880371660859" x2="382.2880371660859" y1="400" y2="405" /><text  class="poloto_tick_labels poloto_text" alignment-baseline="start" text-anchor="middle" x="382.2880371660859" y="430" > 11:06:40</text><line  class="poloto_axis_lines" stroke="black" x1="498.4320557491289" x2="498.4320557491289" y1="400" y2="405" /><text  class="poloto_tick_labels poloto_text" alignment-baseline="start" text-anchor="middle" x="498.4320557491289" y="430" > 16:40:00</text><line  class="poloto_axis_lines" stroke="black" x1="614.5760743321719" x2="614.5760743321719" y1="400" y2="405" /><text  class="poloto_tick_labels poloto_text" alignment-baseline="start" text-anchor="middle" x="614.5760743321719" y="430" > 22:13:20</text><line  class="poloto_axis_lines" stroke="black" x1="150" x2="144" y1="400" y2="400" /><text  class="poloto_tick_labels poloto_text" alignment-baseline="middle" text-anchor="end" x="135" y="400" > 0</text><line  class="poloto_axis_lines" stroke="black" x1="150" x2="144" y1="348.73547505126453" y2="348.73547505126453" /><text  class="poloto_tick_labels poloto_text" alignment-baseline="middle" text-anchor="end" x="135" y="348.73547505126453" > 500</text><line  class="poloto_axis_lines" stroke="black" x1="150" x2="144" y1="297.47095010252906" y2="297.47095010252906" /><text  class="poloto_tick_labels poloto_text" alignment-baseline="middle" text-anchor="end" x="135" y="297.47095010252906" > 1000</text><line  class="poloto_axis_lines" stroke="black" x1="150" x2="144" y1="246.2064251537936" y2="246.2064251537936" /><text  class="poloto_tick_labels poloto_text" alignment-baseline="middle" text-anchor="end" x="135" y="246.2064251537936" > 1500</text><line  class="poloto_axis_lines" stroke="black" x1="150" x2="144" y1="194.94190020505812" y2="194.94190020505812" /><text  class="poloto_tick_labels poloto_text" alignment-baseline="middle" text-anchor="end" x="135" y="194.94190020505812" > 2000</text><line  class="poloto_axis_lines" stroke="black" x1="150" x2="144" y1="143.6773752563226" y2="143.6773752563226" /><text  class="poloto_tick_labels poloto_text" alignment-baseline="middle" text-anchor="end" x="135" y="143.6773752563226" > 2500</text><path  stroke="black" fill="none" class="poloto_axis_lines" style="stroke-dasharray:14.518002322880372;stroke-dashoffset:-0;" d=" M 150 400 L 650 400" /><path  stroke="black" fill="none" class="poloto_axis_lines" style="stroke-dasharray:5.126452494873548;stroke-dashoffset:-0;" d=" M 150 400 L 150 100" /></svg>