<svg class="poloto" width="800" height="500" viewBox="0 0 800 500" xmlns="http://www.w3.org/2000/svg"><style>.poloto { stroke-linecap:round; stroke-linejoin:round; font-family: 'Tahoma', sans-serif; background-color: AliceBlue;} .poloto_scatter{stroke-width:7} .poloto_line{stroke-width:2} .poloto_text{fill: black;} .poloto_axis_lines{stroke: black;stroke-width:3;fill:none;stroke-dasharray:none} .poloto0stroke{stroke:  blue;} .poloto1stroke{stroke:  red;} .poloto2stroke{stroke:  green;} .poloto3stroke{stroke:  gold;} .poloto4stroke{stroke:  aqua;} .poloto5stroke{stroke:  lime;} .poloto6stroke{stroke:  orange;} .poloto7stroke{stroke:  chocolate;} .poloto0fill{fill:blue;} .poloto1fill{fill:red;} .poloto2fill{fill:green;} .poloto3fill{fill:gold;} .poloto4fill{fill:aqua;} .poloto5fill{fill:lime;} .poloto6fill{fill:orange;} .poloto7fill{fill:chocolate;}</style><text  class="poloto_text poloto_legend_text" alignment-baseline="middle" text-anchor="start" font-size="large" x="675" y="100" ></text><path  class="poloto_linefill poloto0fill" d=" M 150 400 L 150 329.48960302457465 L 151.74216027874564 338.7523629489603 L 153.4843205574913 336.48393194706995 L 155.22648083623693 335.1606805293006 L 156.96864111498257 339.88657844990547 L 158.71080139372822 338.1852551984877 L 160.45296167247386 355.95463137996217 L 162.1951219512195 359.35727788279775 L 163.93728222996515 355.95463137996217 L 165.6794425087108 363.13799621928166 L 167.42160278745644 365.2173913043478 L 169.16376306620208 362.1928166351607 L 170.90592334494772 366.5406427221172 L 172.64808362369337 372.2117202268431 L 174.390243902439 375.80340264650283 L 176.13240418118465 378.63894139886577 L 177.8745644599303 379.96219281663514 L 179.61672473867597 379.96219281663514 L 181.3588850174216 382.98676748582227 L 183.10104529616726 388.468809073724 L 184.8432055749129 388.0907372400756 L 186.58536585365854 392.4385633270321 L 188.3275261324042 395.4631379962193 L 190.06968641114983 396.5973534971645 L 191.81184668989548 385.633270321361 L 193.55400696864112 387.7126654064272 L 195.29616724738676 389.0359168241966 L 197.0383275261324 400 L 198.78048780487805 397.73156899810965 L 200.5226480836237 397.73156899810965 L 202.26480836236934 394.13988657844993 L 204.00696864111498 387.523629489603 L 205.74912891986062 391.30434782608694 L 207.49128919860627 390.92627599243855 L 209.2334494773519 390.17013232514176 L 210.97560975609755 391.30434782608694 L 212.7177700348432 381.6635160680529 L 214.45993031358887 382.6086956521739 L 216.2020905923345 386.2003780718336 L 217.94425087108016 395.4631379962193 L 219.6864111498258 386.3894139886578 L 221.42857142857144 389.98109640831757 L 223.1707317073171 387.1455576559546 L 224.91289198606273 390.35916824196596 L 226.65505226480838 387.7126654064272 L 228.39721254355402 383.36483931947066 L 230.13937282229966 375.80340264650283 L 231.8815331010453 376.7485822306238 L 233.62369337979095 370.3213610586011 L 235.3658536585366 370.1323251417769 L 237.10801393728224 382.0415879017013 L 238.85017421602788 378.82797731568996 L 240.59233449477352 374.66918714555766 L 242.33449477351917 376.937618147448 L 244.0766550522648 358.6011342155009 L 245.81881533101046 360.11342155009453 L 247.5609756097561 357.8449905482041 L 249.30313588850174 359.73534971644614 L 251.0452961672474 359.92438563327033 L 252.78745644599303 355.95463137996217 L 254.52961672473867 358.2230623818525 L 256.2717770034843 350.8506616257089 L 258.01393728222996 349.1493383742911 L 259.7560975609756 346.6918714555766 L 261.49825783972125 348.9603024574669 L 263.2404181184669 342.1550094517958 L 264.98257839721254 342.34404536862 L 266.7247386759582 342.1550094517958 L 268.4668989547038 340.83175803402645 L 270.20905923344947 341.77693761814743 L 271.9512195121951 341.77693761814743 L 273.69337979094075 332.8922495274102 L 275.4355400696864 334.593572778828 L 277.17770034843204 330.812854442344 L 278.9198606271777 329.67863894139884 L 280.6620209059233 324.38563327032136 L 282.40418118466897 330.812854442344 L 284.1463414634146 327.7882797731569 L 285.88850174216026 322.117202268431 L 287.6306620209059 325.70888468809073 L 289.37282229965155 324.38563327032136 L 291.1149825783972 325.89792060491493 L 292.85714285714283 321.17202268431 L 294.5993031358885 321.9281663516068 L 296.3414634146342 322.6843100189036 L 298.08362369337976 318.90359168241963 L 299.82578397212546 313.79962192816635 L 301.56794425087105 314.17769376181474 L 303.31010452961675 313.98865784499054 L 305.05226480836234 311.7202268431002 L 306.79442508710804 308.3175803402646 L 308.5365853658536 317.76937618147446 L 310.2787456445993 311.7202268431002 L 312.0209059233449 318.33648393194704 L 313.7630662020906 317.20226843100187 L 315.5052264808362 311.531190926276 L 317.2473867595819 310.9640831758034 L 318.9895470383275 306.23818525519846 L 320.7317073170732 305.6710775047259 L 322.4738675958188 301.1342155009452 L 324.2160278745645 303.7807183364839 L 325.95818815331006 304.9149338374291 L 327.70034843205576 300.5671077504726 L 329.44250871080135 298.10964083175804 L 331.18466898954705 294.70699432892246 L 332.92682926829264 294.32892249527407 L 334.66898954703834 287.7126654064272 L 336.4111498257839 293.3837429111531 L 338.1533101045296 291.11531190926274 L 339.8954703832752 280.9073724007561 L 341.6376306620209 281.6635160680529 L 343.3797909407665 280.7183364839319 L 345.1219512195122 271.0775047258979 L 346.86411149825784 266.1625708884688 L 348.6062717770035 269.9432892249527 L 350.34843205574913 274.48015122873346 L 352.0905923344948 250.2835538752363 L 353.8327526132404 240.45368620037806 L 355.57491289198606 228.35538752362947 L 357.3170731707317 224.57466918714556 L 359.05923344947735 227.0321361058601 L 360.801393728223 236.10586011342156 L 362.54355400696863 235.16068052930058 L 364.2857142857143 226.8431001890359 L 366.0278745644599 223.44045368620039 L 367.77003484320556 222.6843100189036 L 369.5121951219512 217.76937618147446 L 371.25435540069685 215.12287334593572 L 372.9965156794425 223.44045368620039 L 374.73867595818814 223.2514177693762 L 376.4808362369338 220.226843100189 L 378.2229965156794 212.47637051039698 L 379.96515679442507 207.37240075614363 L 381.7073170731707 211.3421550094518 L 383.44947735191636 207.93950850661622 L 385.191637630662 205.29300567107748 L 386.93379790940764 207.56143667296783 L 388.6759581881533 205.48204158790168 L 390.41811846689893 205.10396975425328 L 392.1602787456446 204.5368620037807 L 393.9024390243902 198.48771266540643 L 395.6445993031359 196.97542533081287 L 397.3867595818815 195.65217391304344 L 399.1289198606272 210.9640831758034 L 400.8710801393728 213.79962192816635 L 402.6132404181185 203.40264650283552 L 404.3554006968641 200.94517958412098 L 406.0975609756097 194.32892249527407 L 407.83972125435537 196.78638941398867 L 409.581881533101 190.92627599243855 L 411.32404181184666 189.60302457466918 L 413.0662020905923 181.6635160680529 L 414.80836236933794 188.8468809073724 L 416.5505226480836 183.55387523629486 L 418.29268292682923 181.0964083175803 L 420.0348432055749 188.8468809073724 L 421.7770034843206 182.98676748582227 L 423.5191637630662 180.15122873345933 L 425.26132404181186 181.8525519848771 L 427.0034843205575 181.2854442344045 L 428.74564459930315 180.90737240075612 L 430.4878048780488 170.3213610586011 L 432.22996515679444 175.80340264650283 L 433.9721254355401 164.08317580340264 L 435.7142857142857 162.57088846880907 L 437.45644599303137 161.4366729678639 L 439.198606271777 154.2533081285444 L 440.94076655052265 150.2835538752363 L 442.6829268292683 148.20415879017014 L 444.42508710801394 148.01512287334594 L 446.1672473867596 141.96597353497162 L 447.9094076655052 139.31947069943288 L 449.65156794425087 137.61814744801512 L 451.3937282229965 135.91682419659736 L 453.13588850174216 137.61814744801512 L 454.8780487804878 137.42911153119093 L 456.62020905923345 132.70321361058598 L 458.3623693379791 134.21550094517954 L 460.10452961672473 124.95274102079395 L 461.8466898954704 129.48960302457465 L 463.588850174216 122.8733459357278 L 465.33101045296166 126.65406427221171 L 467.0731707317073 112.85444234404531 L 468.81533101045295 119.84877126654061 L 470.5574912891986 120.226843100189 L 472.29965156794424 126.65406427221171 L 474.0418118466899 124.38563327032136 L 475.7839721254355 115.6899810964083 L 477.52613240418117 119.65973534971641 L 479.2682926829268 121.36105860113418 L 481.01045296167246 113.0434782608695 L 482.7526132404181 100 L 484.49477351916374 114.55576559546307 L 486.2369337979094 123.062381852552 L 487.97909407665503 118.71455576559543 L 489.7212543554007 124.00756143667297 L 491.4634146341463 123.81852551984878 L 493.20557491289196 125.70888468809073 L 494.9477351916376 121.36105860113418 L 496.68989547038325 119.65973534971641 L 498.4320557491289 118.52551984877124 L 500.17421602787454 115.12287334593566 L 501.9163763066202 112.85444234404531 L 503.6585365853658 120.226843100189 L 505.40069686411147 119.84877126654061 L 507.1428571428571 130.24574669187143 L 508.88501742160275 130.05671077504724 L 510.6271777003484 134.4045368620038 L 512.3693379790941 148.77126654064273 L 514.1114982578397 144.99054820415876 L 515.8536585365853 151.60680529300566 L 517.595818815331 155.57655954631377 L 519.3379790940767 167.10775047258977 L 521.0801393728223 173.91304347826087 L 522.822299651568 182.2306238185255 L 524.5644599303137 193.1947069943289 L 526.3066202090592 186.38941398865785 L 528.0487804878048 186.38941398865785 L 529.7909407665505 190.54820415879016 L 531.5331010452962 194.70699432892246 L 533.2752613240418 197.16446124763706 L 535.0174216027874 203.21361058601133 L 536.7595818815331 200.5671077504726 L 538.5017421602788 201.13421550094517 L 540.2439024390244 200.1890359168242 L 541.98606271777 201.70132325141776 L 543.7282229965157 199.24385633270322 L 545.4703832752614 203.59168241965972 L 547.212543554007 208.695652173913 L 548.9547038327526 207.75047258979203 L 550.6968641114983 211.7202268431002 L 552.439024390244 213.23251417769376 L 554.1811846689895 221.36105860113418 L 555.9233449477351 214.93383742911152 L 557.6655052264808 374.10207939508507 L 559.4076655052265 277.6937618147448 L 561.1498257839721 241.39886578449904 L 562.8919860627177 237.9962192816635 L 564.6341463414634 244.80151228733456 L 566.3763066202091 241.58790170132323 L 568.1184668989547 247.06994328922497 L 569.8606271777003 245.55765595463134 L 571.602787456446 242.9111531190926 L 573.3449477351917 261.8147448015123 L 575.0871080139373 272.0226843100189 L 576.8292682926829 240.07561436672967 L 578.5714285714286 253.49716446124762 L 580.3135888501743 235.53875236294897 L 582.0557491289198 234.593572778828 L 583.7979094076654 242.5330812854442 L 585.5400696864111 243.4782608695652 L 587.2822299651568 246.88090737240077 L 589.0243902439024 247.25897920604916 L 590.766550522648 255.95463137996217 L 592.5087108013937 259.92438563327033 L 594.2508710801394 274.66918714555766 L 595.993031358885 287.523629489603 L 597.7351916376306 296.4083175803402 L 599.4773519163763 308.695652173913 L 601.219512195122 301.89035916824196 L 602.9616724738676 300.7561436672968 L 604.7038327526132 279.96219281663514 L 606.4459930313589 277.3156899810964 L 608.1881533101046 280.5293005671077 L 609.9303135888501 282.0415879017013 L 611.6724738675957 286.76748582230624 L 613.4146341463414 290.17013232514176 L 615.1567944250871 294.1398865784499 L 616.8989547038327 298.67674858223063 L 618.6411149825783 301.89035916824196 L 620.383275261324 299.4328922495274 L 622.1254355400697 300.945179584121 L 623.8675958188153 301.32325141776937 L 625.609756097561 299.054820415879 L 627.3519163763067 305.1039697542533 L 629.0940766550523 311.531190926276 L 630.8362369337979 316.6351606805293 L 632.5783972125436 318.90359168241963 L 634.3205574912893 323.062381852552 L 636.0627177700349 330.24574669187143 L 637.8048780487804 332.1361058601134 L 639.5470383275261 335.1606805293006 L 641.2891986062718 344.0453686200378 L 643.0313588850174 348.9603024574669 L 644.773519163763 351.98487712665406 L 646.5156794425087 359.35727788279775 L 648.2578397212544 363.89413988657844 L 650 371.8336483931947 L 650 400 Z" /><text  class="poloto_labels poloto_text poloto_title" alignment-baseline="start" text-anchor="middle" font-size="x-large" x="400" y="37.5" >Total players on 2021-06-06</text><text  class="poloto_labels poloto_text poloto_xname" alignment-baseline="start" text-anchor="middle" font-size="x-large" x="400" y="481.25" >Time</text><text  class="poloto_labels poloto_text poloto_yname" alignment-baseline="start" text-anchor="middle" font-size="x-large" transform="rotate(-90,37.5,250)" x="37.5" y="250" >Count</text><line  class="poloto_axis_lines" stroke="black" x1="208.0487804878049" x2="208.0487804878049" y1="400" y2="405" /><text  class="poloto_tick_labels poloto_text" alignment-baseline="start" text-anchor="middle" x="208.0487804878049" y="430" > 02:46:40</text><line  class="poloto_axis_lines" stroke="black" x1="266.1207897793264" x2="266.1207897793264" y1="400" y2="405" /><text  class="poloto_tick_labels poloto_text" alignment-baseline="start" text-anchor="middle" x="266.1207897793264" y="430" > 05:33:20</text><line  class="poloto_axis_lines" stroke="black" x1="324.19279907084785" x2="324.19279907084785" y1="400" y2="405" /><text  class="poloto_tick_labels poloto_text" alignment-baseline="start" text-anchor="middle" x="324.19279907084785" y="430" > 08:20:00</text><line  class="poloto_axis_lines" stroke="black" x1="382.2648083623693" x2="382.2648083623693" y1="400" y2="405" /><text  class="poloto_tick_labels poloto_text" alignment-baseline="start" text-anchor="middle" x="382.2648083623693" y="430" > 11:06:40</text><line  class="poloto_axis_lines" stroke="black" x1="440.3368176538908" x2="440.3368176538908" y1="400" y2="405" /><text  class="poloto_tick_labels poloto_text" alignment-baseline="start" text-anchor="middle" x="440.3368176538908" y="430" > 13:53:20</text><line  class="poloto_axis_lines" stroke="black" x1="498.4088269454123" x2="498.4088269454123" y1="400" y2="405" /><text  class="poloto_tick_labels poloto_text" alignment-baseline="start" text-anchor="middle" x="498.4088269454123" y="430" > 16:40:00</text><line  class="poloto_axis_lines" stroke="black" x1="556.4808362369338" x2="556.4808362369338" y1="400" y2="405" /><text  class="poloto_tick_labels poloto_text" alignment-baseline="start" text-anchor="middle" x="556.4808362369338" y="430" > 19:26:40</text><line  class="poloto_axis_lines" stroke="black" x1="614.5528455284552" x2="614.5528455284552" y1="400" y2="405" /><text  class="poloto_tick_labels poloto_text" alignment-baseline="start" text-anchor="middle" x="614.5528455284552" y="430" > 22:13:20</text><line  class="poloto_axis_lines" stroke="black" x1="150" x2="144" y1="362.94896030245746" y2="362.94896030245746" /><text  class="poloto_tick_labels poloto_text" alignment-baseline="middle" text-anchor="end" x="135" y="362.94896030245746" > 1400</text><line  class="poloto_axis_lines" stroke="black" x1="150" x2="144" y1="325.14177693761815" y2="325.14177693761815" /><text  class="poloto_tick_labels poloto_text" alignment-baseline="middle" text-anchor="end" x="135" y="325.14177693761815" > 1600</text><line  class="poloto_axis_lines" stroke="black" x1="150" x2="144" y1="287.33459357277883" y2="287.33459357277883" /><text  class="poloto_tick_labels poloto_text" alignment-baseline="middle" text-anchor="end" x="135" y="287.33459357277883" > 1800</text><line  class="poloto_axis_lines" stroke="black" x1="150" x2="144" y1="249.5274102079395" y2="249.5274102079395" /><text  class="poloto_tick_labels poloto_text" alignment-baseline="middle" text-anchor="end" x="135" y="249.5274102079395" > 2000</text><line  class="poloto_axis_lines" stroke="black" x1="150" x2="144" y1="211.7202268431002" y2="211.7202268431002" /><text  class="poloto_tick_labels poloto_text" alignment-baseline="middle" text-anchor="end" x="135" y="211.7202268431002" > 2200</text><line  class="poloto_axis_lines" stroke="black" x1="150" x2="144" y1="173.91304347826087" y2="173.91304347826087" /><text  class="poloto_tick_labels poloto_text" alignment-baseline="middle" text-anchor="end" x="135" y="173.91304347826087" > 2400</text><line  class="poloto_axis_lines" stroke="black" x1="150" x2="144" y1="136.10586011342156" y2="136.10586011342156" /><text  class="poloto_tick_labels poloto_text" alignment-baseline="middle" text-anchor="end" x="135" y="136.10586011342156" > 2600</text><path  stroke="black" fill="none" class="poloto_axis_lines" style="stroke-dasharray:14.518002322880372;stroke-dashoffset:-58.04878048780488;" d=" M 150 400 L 650 400" /><path  stroke="black" fill="none" class="poloto_axis_lines" style="stroke-dasharray:9.45179584120983;stroke-dashoffset:-37.051039697542535;" d=" M 150 400 L 150 100" /></svg>