<svg class="poloto" width="800" height="500" viewBox="0 0 800 500" xmlns="http://www.w3.org/2000/svg"><style>.poloto { stroke-linecap:round; stroke-linejoin:round; font-family: 'Tahoma', sans-serif; background-color: AliceBlue;} .poloto_scatter{stroke-width:7} .poloto_line{stroke-width:2} .poloto_text{fill: black;} .poloto_axis_lines{stroke: black;stroke-width:3;fill:none;stroke-dasharray:none} .poloto0stroke{stroke:  blue;} .poloto1stroke{stroke:  red;} .poloto2stroke{stroke:  green;} .poloto3stroke{stroke:  gold;} .poloto4stroke{stroke:  aqua;} .poloto5stroke{stroke:  lime;} .poloto6stroke{stroke:  orange;} .poloto7stroke{stroke:  chocolate;} .poloto0fill{fill:blue;} .poloto1fill{fill:red;} .poloto2fill{fill:green;} .poloto3fill{fill:gold;} .poloto4fill{fill:aqua;} .poloto5fill{fill:lime;} .poloto6fill{fill:orange;} .poloto7fill{fill:chocolate;}</style><text  class="poloto_text poloto_legend_text" alignment-baseline="middle" text-anchor="start" font-size="large" x="675" y="100" ></text><path  class="poloto_linefill poloto0fill" d=" M 150 400 L 150 102.845100105374 L 157.2460267619922 99.99999999999994 L 164.4920535239844 105.05795574288726 L 171.7380802859766 116.12223393045309 L 179.00826047050873 116.754478398314 L 186.25428723250093 121.1801896733403 L 193.50031399449313 129.71548998946258 L 200.7463407564851 140.77976817702842 L 207.9923675184773 145.83772391991573 L 215.2383942804695 158.4826132771338 L 222.4844210424617 154.6891464699683 L 229.7304478044539 187.88198103266592 L 236.9764745664461 148.05057955742888 L 244.22250132843828 171.12750263435197 L 251.46852809043048 153.10853530031608 L 258.7145548524227 175.86933614330877 L 265.96058161441465 152.47629083245516 L 273.20660837640685 157.85036880927288 L 280.45263513839905 153.10853530031608 L 287.69866190039124 166.06954689146465 L 294.94468866238344 151.21180189673333 L 302.19071542437564 165.43730242360374 L 309.43674218636784 166.06954689146465 L 316.68276894836004 195.15279241306638 L 323.92879571035223 191.0432033719705 L 331.17482247234443 192.30769230769232 L 338.4208492343364 172.7081138040042 L 345.6668759963286 190.72708113803998 L 352.9129027583208 191.6754478398314 L 360.158929520313 188.83034773445735 L 367.4049562823052 185.98524762908318 L 374.6509830442974 196.7334035827186 L 381.8970098062896 193.25605900948364 L 389.1430365682818 218.54583772391987 L 396.389063330274 202.10748155953632 L 403.63509009226595 234.0358271865121 L 410.88111685425815 220.12644889357222 L 418.12714361625035 206.84931506849313 L 425.37317037824255 216.96522655426764 L 432.61919714023475 216.01685985247622 L 439.86522390222694 215.0684931506849 L 447.11125066421914 220.44257112750262 L 454.35727742621134 225.18440463645942 L 461.60330418820354 250.47418335089566 L 468.84933095019574 263.1190727081138 L 476.0953577121877 256.79662802950475 L 483.3413844741799 252.3709167544784 L 490.5874112361721 264.3835616438356 L 497.8334379981643 375.0263435194942 L 505.0794647601565 336.77555321390935 L 512.3254915221487 331.4014752370917 L 519.5715182841409 330.4531085353003 L 526.8175450461331 342.781875658588 L 534.0635718081253 341.51738672286615 L 541.3095985701175 342.781875658588 L 548.5556253321095 298.2086406743941 L 555.8016520941017 293.78292939936773 L 563.0476788560939 283.03477344573236 L 570.293705618086 306.42781875658585 L 577.5397323800782 313.0663856691254 L 584.7857591420704 367.12328767123284 L 592.0317859040626 348.47207586933615 L 599.2778126660548 377.23919915700736 L 606.523839428047 366.8071654373024 L 613.769866190039 400 L 621.0158929520314 364.9104320337197 L 628.2619197140236 389.567966280295 L 635.5079464760158 373.7618545837724 L 642.753973238008 357.6396206533193 L 649.9999999999998 356.6912539515279 L 649.9999999999998 400 Z" /><text  class="poloto_labels poloto_text poloto_title" alignment-baseline="start" text-anchor="middle" font-size="x-large" x="400" y="37.5" >Total players on 2021-05-18</text><text  class="poloto_labels poloto_text poloto_xname" alignment-baseline="start" text-anchor="middle" font-size="x-large" x="400" y="481.25" >Time</text><text  class="poloto_labels poloto_text poloto_yname" alignment-baseline="start" text-anchor="middle" font-size="x-large" transform="rotate(-90,37.5,250)" x="37.5" y="250" >Count</text><line  class="poloto_axis_lines" stroke="black" x1="260.187913627361" x2="260.187913627361" y1="400" y2="405" /><text  class="poloto_tick_labels poloto_text" alignment-baseline="start" text-anchor="middle" x="260.187913627361" y="430" > 19:00</text><line  class="poloto_axis_lines" stroke="black" x1="380.9550263272306" x2="380.9550263272306" y1="400" y2="405" /><text  class="poloto_tick_labels poloto_text" alignment-baseline="start" text-anchor="middle" x="380.9550263272306" y="430" > 21:00</text><line  class="poloto_axis_lines" stroke="black" x1="501.7221390271002" x2="501.7221390271002" y1="400" y2="405" /><text  class="poloto_tick_labels poloto_text" alignment-baseline="start" text-anchor="middle" x="501.7221390271002" y="430" > 22:00</text><line  class="poloto_axis_lines" stroke="black" x1="622.4892517269698" x2="622.4892517269698" y1="400" y2="405" /><text  class="poloto_tick_labels poloto_text" alignment-baseline="start" text-anchor="middle" x="622.4892517269698" y="430" > 24:00</text><line  class="poloto_axis_lines" stroke="black" x1="150" x2="144" y1="387.67123287671234" y2="387.67123287671234" /><text  class="poloto_tick_labels poloto_text" alignment-baseline="middle" text-anchor="end" x="135" y="387.67123287671234" > 1200</text><line  class="poloto_axis_lines" stroke="black" x1="150" x2="144" y1="324.4467860906217" y2="324.4467860906217" /><text  class="poloto_tick_labels poloto_text" alignment-baseline="middle" text-anchor="end" x="135" y="324.4467860906217" > 1400</text><line  class="poloto_axis_lines" stroke="black" x1="150" x2="144" y1="261.2223393045311" y2="261.2223393045311" /><text  class="poloto_tick_labels poloto_text" alignment-baseline="middle" text-anchor="end" x="135" y="261.2223393045311" > 1600</text><line  class="poloto_axis_lines" stroke="black" x1="150" x2="144" y1="197.99789251844044" y2="197.99789251844044" /><text  class="poloto_tick_labels poloto_text" alignment-baseline="middle" text-anchor="end" x="135" y="197.99789251844044" > 1800</text><line  class="poloto_axis_lines" stroke="black" x1="150" x2="144" y1="134.77344573234978" y2="134.77344573234978" /><text  class="poloto_tick_labels poloto_text" alignment-baseline="middle" text-anchor="end" x="135" y="134.77344573234978" > 2000</text><path  stroke="black" fill="none" class="poloto_axis_lines" style="stroke-dasharray:12.076711269986957;stroke-dashoffset:-110.18791362736101;" d=" M 150 400 L 650 400" /><path  stroke="black" fill="none" class="poloto_axis_lines" style="stroke-dasharray:7.903055848261328;stroke-dashoffset:-12.328767123287662;" d=" M 150 400 L 150 100" /></svg>