<svg class="poloto" width="800" height="500" viewBox="0 0 800 500" xmlns="http://www.w3.org/2000/svg"><style>.poloto { stroke-linecap:round; stroke-linejoin:round; font-family: 'Tahoma', sans-serif; background-color: AliceBlue;} .poloto_scatter{stroke-width:7} .poloto_line{stroke-width:2} .poloto_text{fill: black;} .poloto_axis_lines{stroke: black;stroke-width:3;fill:none;stroke-dasharray:none} .poloto0stroke{stroke:  blue;} .poloto1stroke{stroke:  red;} .poloto2stroke{stroke:  green;} .poloto3stroke{stroke:  gold;} .poloto4stroke{stroke:  aqua;} .poloto5stroke{stroke:  lime;} .poloto6stroke{stroke:  orange;} .poloto7stroke{stroke:  chocolate;} .poloto0fill{fill:blue;} .poloto1fill{fill:red;} .poloto2fill{fill:green;} .poloto3fill{fill:gold;} .poloto4fill{fill:aqua;} .poloto5fill{fill:lime;} .poloto6fill{fill:orange;} .poloto7fill{fill:chocolate;}</style><text  class="poloto_text poloto_legend_text" alignment-baseline="middle" text-anchor="start" font-size="large" x="675" y="100" ></text><path  class="poloto_linefill poloto0fill" d=" M 150 400 L 150 346.65775401069516 L 151.74216027874564 350.06684491978615 L 153.4843205574913 353.0748663101605 L 155.22648083623693 355.6818181818182 L 156.96864111498257 356.6844919786096 L 158.71080139372822 361.49732620320856 L 160.45296167247386 360.6951871657754 L 162.1951219512195 367.71390374331554 L 163.93728222996515 366.51069518716577 L 165.6794425087108 364.5053475935829 L 167.42160278745644 367.71390374331554 L 169.16376306620208 367.5133689839572 L 170.90592334494772 372.927807486631 L 172.64808362369337 377.3395721925134 L 174.390243902439 378.1417112299465 L 176.13240418118465 376.1363636363636 L 177.8745644599303 371.9251336898396 L 179.61672473867597 376.5374331550802 L 181.3588850174216 377.13903743315507 L 183.10104529616726 374.13101604278074 L 184.8432055749129 372.927807486631 L 186.58536585365854 378.9438502673797 L 188.3275261324042 378.1417112299465 L 190.06968641114983 380.94919786096256 L 191.81184668989548 388.1684491978609 L 193.55400696864112 385.1604278074866 L 195.29616724738676 385.7620320855615 L 197.0383275261324 389.3716577540107 L 198.78048780487805 387.3663101604278 L 200.5226480836237 383.95721925133694 L 202.26480836236934 383.35561497326205 L 204.00696864111498 386.16310160427804 L 205.74912891986062 388.7700534759358 L 207.49128919860627 400 L 209.2334494773519 397.19251336898395 L 210.97560975609755 391.97860962566847 L 212.7177700348432 395.98930481283423 L 214.45993031358887 394.1844919786096 L 216.2020905923345 393.1818181818182 L 217.94425087108016 389.77272727272725 L 219.6864111498258 397.19251336898395 L 221.42857142857144 391.5775401069519 L 223.1707317073171 390.37433155080214 L 224.91289198606273 382.75401069518716 L 226.65505226480838 382.5534759358289 L 228.39721254355402 379.14438502673795 L 230.13937282229966 379.74598930481284 L 231.8815331010453 379.3449197860963 L 233.62369337979095 375.7352941176471 L 235.3658536585366 376.7379679144385 L 237.10801393728224 377.3395721925134 L 238.85017421602788 378.34224598930484 L 240.59233449477352 376.5374331550802 L 242.33449477351917 380.1470588235294 L 244.0766550522648 372.72727272727275 L 245.81881533101046 372.3262032085562 L 247.5609756097561 377.94117647058823 L 249.30313588850174 364.3048128342246 L 251.0452961672474 359.29144385026734 L 252.78745644599303 361.49732620320856 L 254.52961672473867 365.70855614973266 L 256.2717770034843 367.5133689839572 L 258.01393728222996 358.6898395721925 L 259.7560975609756 356.8850267379679 L 261.49825783972125 349.2647058823529 L 263.2404181184669 346.65775401069516 L 264.98257839721254 345.4545454545455 L 266.7247386759582 346.45721925133694 L 268.4668989547038 347.0588235294117 L 270.20905923344947 349.8663101604278 L 271.9512195121951 353.8770053475936 L 273.69337979094075 348.66310160427804 L 275.4355400696864 349.6657754010695 L 277.17770034843204 346.05614973262027 L 278.9198606271777 344.45187165775405 L 280.6620209059233 344.45187165775405 L 282.40418118466897 342.6470588235294 L 284.1463414634146 340.6417112299465 L 285.88850174216026 335.82887700534764 L 287.6306620209059 335.42780748663097 L 289.37282229965155 335.42780748663097 L 291.1149825783972 334.024064171123 L 292.85714285714283 333.6229946524064 L 294.5993031358885 335.6283422459893 L 296.3414634146342 342.0454545454545 L 298.08362369337976 345.25401069518716 L 299.82578397212546 346.45721925133694 L 301.56794425087105 342.8475935828877 L 303.31010452961675 338.83689839572196 L 305.05226480836234 340.4411764705883 L 306.79442508710804 334.8262032085562 L 308.5365853658536 332.2192513368984 L 310.2787456445993 329.4117647058823 L 312.0209059233449 325 L 313.7630662020906 320.38770053475935 L 315.5052264808362 320.1871657754011 L 317.2473867595819 321.9919786096257 L 318.9895470383275 316.3770053475936 L 320.7317073170732 316.17647058823525 L 322.4738675958188 313.97058823529414 L 324.2160278745645 314.17112299465236 L 325.95818815331006 306.35026737967917 L 327.70034843205576 302.3395721925134 L 329.44250871080135 308.35561497326205 L 331.18466898954705 306.7513368983957 L 332.92682926829264 308.1550802139037 L 334.66898954703834 300.9358288770054 L 336.4111498257839 300.9358288770054 L 338.1533101045296 297.12566844919786 L 339.8954703832752 301.93850267379685 L 341.6376306620209 295.9224598930481 L 343.3797909407665 295.3208556149733 L 345.1219512195122 290.9090909090909 L 346.86411149825784 295.52139037433153 L 348.6062717770035 284.0909090909091 L 350.34843205574913 276.2700534759358 L 352.0905923344948 277.07219251336903 L 353.8327526132404 276.2700534759358 L 355.57491289198606 274.2647058823529 L 357.3170731707317 266.04278074866306 L 359.05923344947735 273.4625668449198 L 360.801393728223 262.6336898395722 L 362.54355400696863 259.8262032085562 L 364.2857142857143 258.6229946524064 L 366.0278745644599 261.2299465240642 L 367.77003484320556 261.4304812834224 L 369.5121951219512 254.41176470588235 L 371.25435540069685 251.6042780748663 L 372.9965156794425 245.58823529411765 L 374.73867595818814 243.98395721925132 L 376.4808362369338 237.96791443850267 L 378.2229965156794 235.56149732620324 L 379.96515679442507 236.56417112299468 L 381.7073170731707 229.74598930481287 L 383.44947735191636 231.55080213903742 L 385.191637630662 238.97058823529412 L 386.93379790940764 234.95989304812835 L 388.6759581881533 233.35561497326202 L 390.41811846689893 233.35561497326202 L 392.1602787456446 232.55347593582886 L 393.9024390243902 235.56149732620324 L 395.6445993031359 234.5588235294118 L 397.3867595818815 221.524064171123 L 399.1289198606272 225.53475935828877 L 400.8710801393728 218.91711229946523 L 402.6132404181185 220.52139037433156 L 404.3554006968641 222.927807486631 L 406.0975609756097 214.1042780748663 L 407.83972125435537 203.27540106951872 L 409.581881533101 203.475935828877 L 411.32404181184666 199.8663101604278 L 413.0662020905923 194.85294117647058 L 414.80836236933794 193.64973262032086 L 416.5505226480836 192.8475935828877 L 418.29268292682923 191.64438502673798 L 420.0348432055749 203.07486631016044 L 421.7770034843206 191.84491978609626 L 423.5191637630662 183.62299465240645 L 425.26132404181186 198.26203208556151 L 427.0034843205575 186.43048128342244 L 428.74564459930315 185.427807486631 L 430.4878048780488 177.60695187165774 L 432.22996515679444 175.40106951871658 L 433.9721254355401 185.8288770053476 L 435.7142857142857 178.00802139037435 L 437.45644599303137 184.6256684491979 L 439.198606271777 183.62299465240645 L 440.94076655052265 178.81016042780752 L 442.6829268292683 177.2058823529412 L 444.42508710801394 182.82085561497328 L 446.1672473867596 173.9973262032086 L 447.9094076655052 175.00000000000003 L 449.65156794425087 178.81016042780752 L 451.3937282229965 171.39037433155082 L 453.13588850174216 165.37433155080217 L 454.8780487804878 167.98128342245988 L 456.62020905923345 168.98395721925132 L 458.3623693379791 165.37433155080217 L 460.10452961672473 153.9438502673797 L 461.8466898954704 154.34491978609626 L 463.588850174216 153.5427807486631 L 465.33101045296166 172.7941176470588 L 467.0731707317073 165.17379679144383 L 468.81533101045295 159.75935828877007 L 470.5574912891986 144.51871657754012 L 472.29965156794424 139.10427807486633 L 474.0418118466899 139.70588235294122 L 475.7839721254355 139.70588235294122 L 477.52613240418117 126.27005347593581 L 479.2682926829268 129.6791443850267 L 481.01045296167246 119.45187165775405 L 482.7526132404181 107.01871657754009 L 484.49477351916374 104.81283422459899 L 486.2369337979094 115.64171122994651 L 487.97909407665503 132.4866310160428 L 489.7212543554007 113.23529411764707 L 491.4634146341463 121.65775401069516 L 493.20557491289196 109.8262032085562 L 494.9477351916376 105.21390374331554 L 496.68989547038325 105.6149732620321 L 498.4320557491289 112.83422459893052 L 500.17421602787454 125.86898395721926 L 501.9163763066202 121.05614973262038 L 503.6585365853658 100 L 505.40069686411147 122.05882352941182 L 507.1428571428571 131.0828877005348 L 508.88501742160275 139.30481283422455 L 510.6271777003484 132.88770053475935 L 512.3693379790941 147.72727272727272 L 514.1114982578397 148.72994652406416 L 515.8536585365853 155.94919786096258 L 517.595818815331 157.35294117647058 L 519.3379790940767 163.16844919786095 L 521.0801393728223 165.57486631016044 L 522.822299651568 165.17379679144383 L 524.5644599303137 160.3609625668449 L 526.3066202090592 175.2005347593583 L 528.0487804878048 195.2540106951872 L 529.7909407665505 201.87165775401073 L 531.5331010452962 190.64171122994654 L 533.2752613240418 192.8475935828877 L 535.0174216027874 192.04545454545453 L 536.7595818815331 203.27540106951872 L 538.5017421602788 206.68449197860966 L 540.2439024390244 212.2994652406417 L 541.98606271777 217.7139037433155 L 543.7282229965157 218.3155080213904 L 545.4703832752614 219.1176470588235 L 547.212543554007 222.32620320855617 L 548.9547038327526 221.524064171123 L 550.6968641114983 220.72192513368984 L 552.439024390244 217.31283422459896 L 554.1811846689895 225.3342245989305 L 555.9233449477351 211.4973262032086 L 557.6655052264808 209.69251336898398 L 559.4076655052265 216.31016042780752 L 561.1498257839721 207.0855614973262 L 562.8919860627177 212.2994652406417 L 564.6341463414634 208.28877005347593 L 566.3763066202091 207.6871657754011 L 568.1184668989547 219.1176470588235 L 569.8606271777003 235.3609625668449 L 571.602787456446 232.35294117647058 L 573.3449477351917 220.32085561497328 L 575.0871080139373 226.33689839572193 L 576.8292682926829 219.7192513368984 L 578.5714285714286 223.12834224598933 L 580.3135888501743 221.72459893048128 L 582.0557491289198 219.1176470588235 L 583.7979094076654 212.90106951871658 L 585.5400696864111 222.32620320855617 L 587.2822299651568 225.93582887700538 L 589.0243902439024 228.74331550802137 L 590.766550522648 238.16844919786095 L 592.5087108013937 246.18983957219254 L 594.2508710801394 243.18181818181816 L 595.993031358885 241.5775401069519 L 597.7351916376306 250.80213903743314 L 599.4773519163763 255.2139037433155 L 601.219512195122 265.6417112299465 L 602.9616724738676 260.0267379679144 L 604.7038327526132 264.63903743315507 L 606.4459930313589 261.2299465240642 L 608.1881533101046 263.83689839572196 L 609.9303135888501 266.8449197860963 L 611.6724738675957 275.26737967914437 L 613.4146341463414 278.67647058823525 L 615.1567944250871 284.29144385026734 L 616.8989547038327 290.10695187165777 L 618.6411149825783 293.31550802139043 L 620.383275261324 291.1096256684492 L 622.1254355400697 291.1096256684492 L 623.8675958188153 281.283422459893 L 625.609756097561 286.096256684492 L 627.3519163763067 296.524064171123 L 629.0940766550523 298.52941176470586 L 630.8362369337979 306.95187165775405 L 632.5783972125436 312.1657754010695 L 634.3205574912893 311.3636363636364 L 636.0627177700349 314.57219251336903 L 637.8048780487804 317.58021390374336 L 639.5470383275261 318.783422459893 L 641.2891986062718 321.79144385026734 L 643.0313588850174 322.192513368984 L 644.773519163763 326.00267379679144 L 646.5156794425087 331.81818181818187 L 648.2578397212544 338.6363636363636 L 650 338.4358288770054 L 650 400 Z" /><text  class="poloto_labels poloto_text poloto_title" alignment-baseline="start" text-anchor="middle" font-size="x-large" x="400" y="37.5" >Total players on 2021-07-07</text><text  class="poloto_labels poloto_text poloto_xname" alignment-baseline="start" text-anchor="middle" font-size="x-large" x="400" y="481.25" >Time</text><text  class="poloto_labels poloto_text poloto_yname" alignment-baseline="start" text-anchor="middle" font-size="x-large" transform="rotate(-90,37.5,250)" x="37.5" y="250" >Count</text><line  class="poloto_axis_lines" stroke="black" x1="208.0487804878049" x2="208.0487804878049" y1="400" y2="405" /><text  class="poloto_tick_labels poloto_text" alignment-baseline="start" text-anchor="middle" x="208.0487804878049" y="430" > 03:00</text><line  class="poloto_axis_lines" stroke="black" x1="266.1207897793264" x2="266.1207897793264" y1="400" y2="405" /><text  class="poloto_tick_labels poloto_text" alignment-baseline="start" text-anchor="middle" x="266.1207897793264" y="430" > 06:00</text><line  class="poloto_axis_lines" stroke="black" x1="324.19279907084785" x2="324.19279907084785" y1="400" y2="405" /><text  class="poloto_tick_labels poloto_text" alignment-baseline="start" text-anchor="middle" x="324.19279907084785" y="430" > 08:00</text><line  class="poloto_axis_lines" stroke="black" x1="382.2648083623693" x2="382.2648083623693" y1="400" y2="405" /><text  class="poloto_tick_labels poloto_text" alignment-baseline="start" text-anchor="middle" x="382.2648083623693" y="430" > 11:00</text><line  class="poloto_axis_lines" stroke="black" x1="440.3368176538908" x2="440.3368176538908" y1="400" y2="405" /><text  class="poloto_tick_labels poloto_text" alignment-baseline="start" text-anchor="middle" x="440.3368176538908" y="430" > 14:00</text><line  class="poloto_axis_lines" stroke="black" x1="498.4088269454123" x2="498.4088269454123" y1="400" y2="405" /><text  class="poloto_tick_labels poloto_text" alignment-baseline="start" text-anchor="middle" x="498.4088269454123" y="430" > 17:00</text><line  class="poloto_axis_lines" stroke="black" x1="556.4808362369338" x2="556.4808362369338" y1="400" y2="405" /><text  class="poloto_tick_labels poloto_text" alignment-baseline="start" text-anchor="middle" x="556.4808362369338" y="430" > 19:00</text><line  class="poloto_axis_lines" stroke="black" x1="614.5528455284552" x2="614.5528455284552" y1="400" y2="405" /><text  class="poloto_tick_labels poloto_text" alignment-baseline="start" text-anchor="middle" x="614.5528455284552" y="430" > 22:00</text><line  class="poloto_axis_lines" stroke="black" x1="150" x2="144" y1="368.51604278074865" y2="368.51604278074865" /><text  class="poloto_tick_labels poloto_text" alignment-baseline="middle" text-anchor="end" x="135" y="368.51604278074865" > 1200</text><line  class="poloto_axis_lines" stroke="black" x1="150" x2="144" y1="328.4090909090909" y2="328.4090909090909" /><text  class="poloto_tick_labels poloto_text" alignment-baseline="middle" text-anchor="end" x="135" y="328.4090909090909" > 1400</text><line  class="poloto_axis_lines" stroke="black" x1="150" x2="144" y1="288.3021390374331" y2="288.3021390374331" /><text  class="poloto_tick_labels poloto_text" alignment-baseline="middle" text-anchor="end" x="135" y="288.3021390374331" > 1600</text><line  class="poloto_axis_lines" stroke="black" x1="150" x2="144" y1="248.19518716577545" y2="248.19518716577545" /><text  class="poloto_tick_labels poloto_text" alignment-baseline="middle" text-anchor="end" x="135" y="248.19518716577545" > 1800</text><line  class="poloto_axis_lines" stroke="black" x1="150" x2="144" y1="208.08823529411768" y2="208.08823529411768" /><text  class="poloto_tick_labels poloto_text" alignment-baseline="middle" text-anchor="end" x="135" y="208.08823529411768" > 2000</text><line  class="poloto_axis_lines" stroke="black" x1="150" x2="144" y1="167.9812834224599" y2="167.9812834224599" /><text  class="poloto_tick_labels poloto_text" alignment-baseline="middle" text-anchor="end" x="135" y="167.9812834224599" > 2200</text><line  class="poloto_axis_lines" stroke="black" x1="150" x2="144" y1="127.87433155080214" y2="127.87433155080214" /><text  class="poloto_tick_labels poloto_text" alignment-baseline="middle" text-anchor="end" x="135" y="127.87433155080214" > 2400</text><path  stroke="black" fill="none" class="poloto_axis_lines" style="stroke-dasharray:14.518002322880372;stroke-dashoffset:-58.04878048780488;" d=" M 150 400 L 650 400" /><path  stroke="black" fill="none" class="poloto_axis_lines" style="stroke-dasharray:10.026737967914439;stroke-dashoffset:-31.483957219251323;" d=" M 150 400 L 150 100" /></svg>