<svg class="poloto" width="800" height="500" viewBox="0 0 800 500" xmlns="http://www.w3.org/2000/svg"><style>.poloto { stroke-linecap:round; stroke-linejoin:round; font-family: 'Tahoma', sans-serif; background-color: AliceBlue;} .poloto_scatter{stroke-width:7} .poloto_line{stroke-width:2} .poloto_text{fill: black;} .poloto_axis_lines{stroke: black;stroke-width:3;fill:none;stroke-dasharray:none} .poloto0stroke{stroke:  blue;} .poloto1stroke{stroke:  red;} .poloto2stroke{stroke:  green;} .poloto3stroke{stroke:  gold;} .poloto4stroke{stroke:  aqua;} .poloto5stroke{stroke:  lime;} .poloto6stroke{stroke:  orange;} .poloto7stroke{stroke:  chocolate;} .poloto0fill{fill:blue;} .poloto1fill{fill:red;} .poloto2fill{fill:green;} .poloto3fill{fill:gold;} .poloto4fill{fill:aqua;} .poloto5fill{fill:lime;} .poloto6fill{fill:orange;} .poloto7fill{fill:chocolate;}</style><text  class="poloto_text poloto_legend_text" alignment-baseline="middle" text-anchor="start" font-size="large" x="675" y="100" ></text><path  class="poloto_linefill poloto0fill" d=" M 150 400 L 150 319.0184049079755 L 151.74216027874564 325.4601226993865 L 153.4843205574913 323.6196319018405 L 155.22648083623693 324.7239263803681 L 156.96864111498257 326.9325153374233 L 158.71080139372822 332.4539877300613 L 160.45296167247386 336.13496932515335 L 162.1951219512195 345.88957055214723 L 163.93728222996515 350.1226993865031 L 165.6794425087108 350.8588957055215 L 167.42160278745644 350.8588957055215 L 169.16376306620208 348.282208588957 L 170.90592334494772 354.5398773006135 L 172.64808362369337 355.4601226993865 L 174.390243902439 353.9877300613497 L 176.13240418118465 355.0920245398773 L 177.8745644599303 361.3496932515337 L 179.61672473867597 368.5276073619632 L 181.3588850174216 362.63803680981596 L 183.10104529616726 367.7914110429448 L 184.8432055749129 371.1042944785276 L 186.58536585365854 371.4723926380368 L 188.3275261324042 375.70552147239266 L 190.06968641114983 378.83435582822085 L 191.81184668989548 385.64417177914106 L 193.55400696864112 390.79754601226995 L 195.29616724738676 387.4846625766871 L 197.0383275261324 382.14723926380367 L 198.78048780487805 387.11656441717787 L 200.5226480836237 385.64417177914106 L 202.26480836236934 389.3251533742331 L 204.00696864111498 393.74233128834356 L 205.74912891986062 393.00613496932516 L 207.49128919860627 393.37423312883436 L 209.2334494773519 392.82208588957053 L 210.97560975609755 394.6625766871166 L 212.7177700348432 390.9815950920246 L 214.45993031358887 394.29447852760734 L 216.2020905923345 395.76687116564415 L 217.94425087108016 400 L 219.6864111498258 393.55828220858893 L 221.42857142857144 392.4539877300614 L 223.1707317073171 389.1411042944785 L 224.91289198606273 388.0368098159509 L 226.65505226480838 385.0920245398773 L 228.39721254355402 382.69938650306744 L 230.13937282229966 385.2760736196319 L 231.8815331010453 387.3006134969325 L 233.62369337979095 383.6196319018405 L 235.3658536585366 384.3558282208589 L 237.10801393728224 381.96319018404904 L 238.85017421602788 383.9877300613497 L 240.59233449477352 391.16564417177915 L 242.33449477351917 388.5889570552147 L 244.0766550522648 386.7484662576687 L 245.81881533101046 385.8282208588957 L 247.5609756097561 377.9141104294479 L 249.30313588850174 386.5644171779141 L 251.0452961672474 396.50306748466255 L 252.78745644599303 397.0552147239264 L 254.52961672473867 395.2147239263804 L 256.2717770034843 395.398773006135 L 258.01393728222996 391.717791411043 L 259.7560975609756 391.16564417177915 L 261.49825783972125 384.90797546012266 L 263.2404181184669 390.6134969325153 L 264.98257839721254 386.38036809815947 L 266.7247386759582 393.1901840490798 L 268.4668989547038 395.03067484662574 L 270.20905923344947 386.0122699386503 L 271.9512195121951 382.5153374233129 L 273.69337979094075 380.1226993865031 L 275.4355400696864 378.83435582822085 L 277.17770034843204 379.93865030674846 L 278.9198606271777 378.282208588957 L 280.6620209059233 373.3128834355828 L 282.40418118466897 368.5276073619632 L 284.1463414634146 365.398773006135 L 285.88850174216026 365.2147239263804 L 287.6306620209059 369.44785276073617 L 289.37282229965155 364.47852760736197 L 291.1149825783972 368.5276073619632 L 292.85714285714283 363.00613496932516 L 294.5993031358885 358.0368098159509 L 296.3414634146342 357.11656441717787 L 298.08362369337976 360.2453987730062 L 299.82578397212546 361.717791411043 L 301.56794425087105 364.11042944785277 L 303.31010452961675 366.50306748466255 L 305.05226480836234 364.29447852760734 L 306.79442508710804 364.11042944785277 L 308.5365853658536 364.84662576687117 L 310.2787456445993 367.0552147239264 L 312.0209059233449 371.6564417177914 L 313.7630662020906 368.8957055214724 L 315.5052264808362 373.49693251533745 L 317.2473867595819 372.9447852760736 L 318.9895470383275 372.2085889570552 L 320.7317073170732 368.3435582822086 L 322.4738675958188 372.5766871165644 L 324.2160278745645 366.50306748466255 L 325.95818815331006 367.4233128834356 L 327.70034843205576 367.0552147239264 L 329.44250871080135 361.16564417177915 L 331.18466898954705 353.6196319018405 L 332.92682926829264 352.69938650306744 L 334.66898954703834 347.73006134969324 L 336.4111498257839 347.73006134969324 L 338.1533101045296 339.2638036809816 L 339.8954703832752 337.4233128834356 L 341.6376306620209 339.079754601227 L 343.3797909407665 342.3926380368098 L 345.1219512195122 344.0490797546012 L 346.86411149825784 342.02453987730064 L 348.6062717770035 334.84662576687117 L 350.34843205574913 325.0920245398773 L 352.0905923344948 319.20245398773005 L 353.8327526132404 320.4907975460123 L 355.57491289198606 319.57055214723925 L 357.3170731707317 316.62576687116564 L 359.05923344947735 321.77914110429447 L 360.801393728223 320.30674846625766 L 362.54355400696863 311.2883435582822 L 364.2857142857143 309.81595092024537 L 366.0278745644599 306.50306748466255 L 367.77003484320556 305.2147239263804 L 369.5121951219512 300.9815950920245 L 371.25435540069685 300.2453987730061 L 372.9965156794425 294.1717791411043 L 374.73867595818814 289.57055214723925 L 376.4808362369338 287.9141104294479 L 378.2229965156794 286.80981595092027 L 379.96515679442507 280.1840490797546 L 381.7073170731707 280.7361963190184 L 383.44947735191636 282.5766871165644 L 385.191637630662 284.23312883435585 L 386.93379790940764 284.0490797546012 L 388.6759581881533 281.840490797546 L 390.41811846689893 276.87116564417175 L 392.1602787456446 269.5092024539877 L 393.9024390243902 270.42944785276075 L 395.6445993031359 262.14723926380367 L 397.3867595818815 257.17791411042947 L 399.1289198606272 250.55214723926383 L 400.8710801393728 254.23312883435585 L 402.6132404181185 248.34355828220856 L 404.3554006968641 269.1411042944785 L 406.0975609756097 261.04294478527606 L 407.83972125435537 266.1963190184049 L 409.581881533101 236.5644171779141 L 411.32404181184666 226.62576687116564 L 413.0662020905923 220.7361963190184 L 414.80836236933794 225.70552147239266 L 416.5505226480836 226.07361963190186 L 418.29268292682923 224.60122699386505 L 420.0348432055749 216.87116564417175 L 421.7770034843206 213.92638036809814 L 423.5191637630662 212.08588957055213 L 425.26132404181186 210.06134969325154 L 427.0034843205575 203.61963190184048 L 428.74564459930315 204.35582822085888 L 430.4878048780488 203.8036809815951 L 432.22996515679444 199.38650306748468 L 433.9721254355401 190.3680981595092 L 435.7142857142857 184.29447852760734 L 437.45644599303137 183.37423312883436 L 439.198606271777 183.00613496932516 L 440.94076655052265 179.32515337423314 L 442.6829268292683 176.9325153374233 L 444.42508710801394 175.0920245398773 L 446.1672473867596 316.07361963190186 L 447.9094076655052 319.93865030674846 L 449.65156794425087 168.09815950920245 L 451.3937282229965 164.78527607361963 L 453.13588850174216 153.55828220858893 L 454.8780487804878 145.27607361963192 L 456.62020905923345 141.41104294478527 L 458.3623693379791 142.88343558282207 L 460.10452961672473 131.4723926380368 L 461.8466898954704 126.1349693251534 L 463.588850174216 120.98159509202452 L 465.33101045296166 123.9263803680982 L 467.0731707317073 130.55214723926383 L 468.81533101045295 123.9263803680982 L 470.5574912891986 122.08588957055213 L 472.29965156794424 116.38036809815952 L 474.0418118466899 111.77914110429447 L 475.7839721254355 108.28220858895708 L 477.52613240418117 112.6993865030675 L 479.2682926829268 111.22699386503069 L 481.01045296167246 107.54601226993867 L 482.7526132404181 109.57055214723925 L 484.49477351916374 108.83435582822085 L 486.2369337979094 105.52147239263803 L 487.97909407665503 100.92024539877303 L 489.7212543554007 100 L 491.4634146341463 100 L 493.20557491289196 111.9631901840491 L 494.9477351916376 117.85276073619633 L 496.68989547038325 120.98159509202452 L 498.4320557491289 116.38036809815952 L 500.17421602787454 123.37423312883436 L 501.9163763066202 127.23926380368101 L 503.6585365853658 123.37423312883436 L 505.40069686411147 123.19018404907973 L 507.1428571428571 120.24539877300612 L 508.88501742160275 129.07975460122702 L 510.6271777003484 127.60736196319021 L 512.3693379790941 142.51533742331287 L 514.1114982578397 150.42944785276075 L 515.8536585365853 152.08588957055213 L 517.595818815331 169.57055214723925 L 519.3379790940767 166.62576687116564 L 521.0801393728223 160.55214723926383 L 522.822299651568 168.28220858895708 L 524.5644599303137 165.15337423312883 L 526.3066202090592 166.07361963190186 L 528.0487804878048 172.3312883435583 L 529.7909407665505 170.67484662576686 L 531.5331010452962 165.33742331288346 L 533.2752613240418 173.4355828220859 L 535.0174216027874 170.1226993865031 L 536.7595818815331 174.5398773006135 L 538.5017421602788 180.24539877300612 L 540.2439024390244 188.159509202454 L 541.98606271777 184.47852760736197 L 543.7282229965157 182.63803680981596 L 545.4703832752614 184.84662576687117 L 547.212543554007 194.41717791411043 L 548.9547038327526 188.34355828220862 L 550.6968641114983 195.15337423312883 L 552.439024390244 195.88957055214723 L 554.1811846689895 202.3312883435583 L 555.9233449477351 191.28834355828224 L 557.6655052264808 198.65030674846628 L 559.4076655052265 200.30674846625766 L 561.1498257839721 196.25766871165644 L 562.8919860627177 203.61963190184048 L 564.6341463414634 196.25766871165644 L 566.3763066202091 196.80981595092027 L 568.1184668989547 196.99386503067484 L 569.8606271777003 202.6993865030675 L 571.602787456446 200.67484662576686 L 573.3449477351917 203.61963190184048 L 575.0871080139373 209.32515337423314 L 576.8292682926829 199.75460122699388 L 578.5714285714286 199.75460122699388 L 580.3135888501743 198.46625766871165 L 582.0557491289198 201.04294478527606 L 583.7979094076654 205.27607361963192 L 585.5400696864111 206.9325153374233 L 587.2822299651568 201.9631901840491 L 589.0243902439024 199.93865030674846 L 590.766550522648 208.0368098159509 L 592.5087108013937 197.17791411042947 L 594.2508710801394 201.2269938650307 L 595.993031358885 208.58895705521473 L 597.7351916376306 213.19018404907973 L 599.4773519163763 216.13496932515335 L 601.219512195122 218.34355828220862 L 602.9616724738676 217.7914110429448 L 604.7038327526132 216.68711656441718 L 606.4459930313589 220.92024539877303 L 608.1881533101046 230.30674846625766 L 609.9303135888501 237.85276073619633 L 611.6724738675957 245.39877300613495 L 613.4146341463414 243.92638036809814 L 615.1567944250871 272.26993865030676 L 616.8989547038327 271.7177914110429 L 618.6411149825783 260.67484662576686 L 620.383275261324 249.07975460122697 L 622.1254355400697 254.23312883435585 L 623.8675958188153 260.8588957055215 L 625.609756097561 257.73006134969324 L 627.3519163763067 263.2515337423313 L 629.0940766550523 265.4601226993865 L 630.8362369337979 273.19018404907973 L 632.5783972125436 287.17791411042947 L 634.3205574912893 285.88957055214723 L 636.0627177700349 292.6993865030675 L 637.8048780487804 286.99386503067484 L 639.5470383275261 295.2760736196319 L 641.2891986062718 297.6687116564417 L 643.0313588850174 307.97546012269936 L 644.773519163763 309.6319018404908 L 646.5156794425087 318.83435582822085 L 648.2578397212544 323.6196319018405 L 650 323.8036809815951 L 650 400 Z" /><text  class="poloto_labels poloto_text poloto_title" alignment-baseline="start" text-anchor="middle" font-size="x-large" x="400" y="37.5" >Total players on 2021-06-03</text><text  class="poloto_labels poloto_text poloto_xname" alignment-baseline="start" text-anchor="middle" font-size="x-large" x="400" y="481.25" >Time</text><text  class="poloto_labels poloto_text poloto_yname" alignment-baseline="start" text-anchor="middle" font-size="x-large" transform="rotate(-90,37.5,250)" x="37.5" y="250" >Count</text><line  class="poloto_axis_lines" stroke="black" x1="208.0487804878049" x2="208.0487804878049" y1="400" y2="405" /><text  class="poloto_tick_labels poloto_text" alignment-baseline="start" text-anchor="middle" x="208.0487804878049" y="430" > 03:00</text><line  class="poloto_axis_lines" stroke="black" x1="266.1207897793264" x2="266.1207897793264" y1="400" y2="405" /><text  class="poloto_tick_labels poloto_text" alignment-baseline="start" text-anchor="middle" x="266.1207897793264" y="430" > 06:00</text><line  class="poloto_axis_lines" stroke="black" x1="324.19279907084785" x2="324.19279907084785" y1="400" y2="405" /><text  class="poloto_tick_labels poloto_text" alignment-baseline="start" text-anchor="middle" x="324.19279907084785" y="430" > 08:00</text><line  class="poloto_axis_lines" stroke="black" x1="382.2648083623693" x2="382.2648083623693" y1="400" y2="405" /><text  class="poloto_tick_labels poloto_text" alignment-baseline="start" text-anchor="middle" x="382.2648083623693" y="430" > 11:00</text><line  class="poloto_axis_lines" stroke="black" x1="440.3368176538908" x2="440.3368176538908" y1="400" y2="405" /><text  class="poloto_tick_labels poloto_text" alignment-baseline="start" text-anchor="middle" x="440.3368176538908" y="430" > 14:00</text><line  class="poloto_axis_lines" stroke="black" x1="498.4088269454123" x2="498.4088269454123" y1="400" y2="405" /><text  class="poloto_tick_labels poloto_text" alignment-baseline="start" text-anchor="middle" x="498.4088269454123" y="430" > 17:00</text><line  class="poloto_axis_lines" stroke="black" x1="556.4808362369338" x2="556.4808362369338" y1="400" y2="405" /><text  class="poloto_tick_labels poloto_text" alignment-baseline="start" text-anchor="middle" x="556.4808362369338" y="430" > 19:00</text><line  class="poloto_axis_lines" stroke="black" x1="614.5528455284552" x2="614.5528455284552" y1="400" y2="405" /><text  class="poloto_tick_labels poloto_text" alignment-baseline="start" text-anchor="middle" x="614.5528455284552" y="430" > 22:00</text><line  class="poloto_axis_lines" stroke="black" x1="150" x2="144" y1="318.6503067484663" y2="318.6503067484663" /><text  class="poloto_tick_labels poloto_text" alignment-baseline="middle" text-anchor="end" x="135" y="318.6503067484663" > 1500</text><line  class="poloto_axis_lines" stroke="black" x1="150" x2="144" y1="226.62576687116564" y2="226.62576687116564" /><text  class="poloto_tick_labels poloto_text" alignment-baseline="middle" text-anchor="end" x="135" y="226.62576687116564" > 2000</text><line  class="poloto_axis_lines" stroke="black" x1="150" x2="144" y1="134.60122699386505" y2="134.60122699386505" /><text  class="poloto_tick_labels poloto_text" alignment-baseline="middle" text-anchor="end" x="135" y="134.60122699386505" > 2500</text><path  stroke="black" fill="none" class="poloto_axis_lines" style="stroke-dasharray:14.518002322880372;stroke-dashoffset:-58.04878048780488;" d=" M 150 400 L 650 400" /><path  stroke="black" fill="none" class="poloto_axis_lines" style="stroke-dasharray:9.202453987730062;stroke-dashoffset:-81.34969325153372;" d=" M 150 400 L 150 100" /></svg>