<svg class="poloto" width="800" height="500" viewBox="0 0 800 500" xmlns="http://www.w3.org/2000/svg"><style>.poloto { stroke-linecap:round; stroke-linejoin:round; font-family: 'Tahoma', sans-serif; background-color: AliceBlue;} .poloto_scatter{stroke-width:7} .poloto_line{stroke-width:2} .poloto_text{fill: black;} .poloto_axis_lines{stroke: black;stroke-width:3;fill:none;stroke-dasharray:none} .poloto0stroke{stroke:  blue;} .poloto1stroke{stroke:  red;} .poloto2stroke{stroke:  green;} .poloto3stroke{stroke:  gold;} .poloto4stroke{stroke:  aqua;} .poloto5stroke{stroke:  lime;} .poloto6stroke{stroke:  orange;} .poloto7stroke{stroke:  chocolate;} .poloto0fill{fill:blue;} .poloto1fill{fill:red;} .poloto2fill{fill:green;} .poloto3fill{fill:gold;} .poloto4fill{fill:aqua;} .poloto5fill{fill:lime;} .poloto6fill{fill:orange;} .poloto7fill{fill:chocolate;}</style><text  class="poloto_text poloto_legend_text" alignment-baseline="middle" text-anchor="start" font-size="large" x="675" y="100" ></text><path  class="poloto_linefill poloto0fill" d=" M 150 400 L 150 371.95614541257936 L 151.74216027874564 372.3023658395846 L 153.4843205574913 371.7830351990767 L 155.22648083623693 373.86035776110793 L 156.96864111498257 379.7461050201962 L 158.71080139372822 383.7276399307559 L 160.45296167247386 385.28563185227927 L 162.1951219512195 389.267166762839 L 163.93728222996515 396.5377957299481 L 165.6794425087108 394.11425274091175 L 167.42160278745644 395.8453548759377 L 169.16376306620208 393.5949221004039 L 170.90592334494772 397.40334679746104 L 172.64808362369337 394.28736295441433 L 174.390243902439 393.07559145989615 L 176.13240418118465 396.01846508944027 L 177.8745644599303 390.3058280438546 L 179.61672473867597 389.0940565493364 L 181.3588850174216 390.132717830352 L 183.10104529616726 394.28736295441433 L 184.8432055749129 398.0957876514715 L 186.58536585365854 394.11425274091175 L 188.3275261324042 394.9798038084247 L 190.06968641114983 392.2100403923831 L 191.81184668989548 393.9411425274091 L 193.55400696864112 395.4991344489325 L 195.29616724738676 400 L 197.0383275261324 397.5764570109636 L 198.78048780487805 394.4604731679169 L 200.5226480836237 389.4402769763416 L 202.26480836236934 389.4402769763416 L 204.00696864111498 389.95960761684944 L 205.74912891986062 385.6318522792845 L 207.49128919860627 384.59319099826894 L 209.2334494773519 382.6889786497403 L 210.97560975609755 379.91921523369876 L 212.7177700348432 383.0351990767455 L 214.45993031358887 377.1494518176572 L 216.2020905923345 375.76457010963645 L 217.94425087108016 374.55279861511826 L 219.6864111498258 374.0334679746105 L 221.42857142857144 381.4772071552222 L 223.1707317073171 380.95787651471437 L 224.91289198606273 381.30409694171954 L 226.65505226480838 380.0923254472014 L 228.39721254355402 379.91921523369876 L 230.13937282229966 382.5158684362377 L 231.8815331010453 380.6116560877092 L 233.62369337979095 387.01673398730526 L 235.3658536585366 390.132717830352 L 237.10801393728224 381.65031736872476 L 238.85017421602788 383.20830929024817 L 240.59233449477352 380.0923254472014 L 242.33449477351917 375.93768032313903 L 244.0766550522648 368.66705135603 L 245.81881533101046 373.68724754760535 L 247.5609756097561 367.801500288517 L 249.30313588850174 367.801500288517 L 251.0452961672474 366.4166185804962 L 252.78745644599303 365.2048470859781 L 254.52961672473867 367.801500288517 L 256.2717770034843 367.10905943450666 L 258.01393728222996 366.07039815349106 L 259.7560975609756 365.7241777264859 L 261.49825783972125 362.43508366993655 L 263.2404181184669 365.03173687247545 L 264.98257839721254 368.8401615695326 L 266.7247386759582 369.3594922100404 L 268.4668989547038 370.22504327755337 L 270.20905923344947 377.32256203115986 L 271.9512195121951 378.01500288517025 L 273.69337979094075 378.8805539526832 L 275.4355400696864 375.4183496826313 L 277.17770034843204 371.95614541257936 L 278.91986062717774 373.68724754760535 L 280.6620209059233 369.8788228505482 L 282.404181184669 374.0334679746105 L 284.1463414634146 375.76457010963645 L 285.8885017421603 371.43681477207156 L 287.6306620209059 365.7241777264859 L 289.3728222996516 359.665320253895 L 291.1149825783972 356.7224466243508 L 292.8571428571429 360.1846508944028 L 294.5993031358885 357.41488747836127 L 296.3414634146342 353.9526832083093 L 298.08362369337976 359.8384304673976 L 299.82578397212546 357.934218118869 L 301.56794425087105 353.43335256780153 L 303.31010452961675 349.4518176572418 L 305.05226480836234 354.2989036353145 L 306.79442508710804 355.33756491633005 L 308.5365853658536 361.22331217541836 L 310.2787456445993 365.5510675129833 L 312.0209059233449 370.39815349105595 L 313.7630662020906 368.8401615695326 L 315.5052264808362 367.28216964800924 L 317.2473867595819 370.22504327755337 L 318.9895470383275 374.2065781881131 L 320.7317073170732 368.32083092902485 L 322.4738675958188 368.8401615695326 L 324.2160278745645 366.76283900750144 L 325.9581881533101 364.5124062319677 L 327.70034843205576 362.2619734564339 L 329.4425087108014 358.9728793998846 L 331.18466898954705 356.37622619734566 L 332.9268292682927 351.18291979226774 L 334.66898954703834 350.14425851125213 L 336.411149825784 346.5089440276977 L 338.1533101045296 343.3929601846509 L 339.89547038327527 341.6618580496249 L 341.6376306620209 342.35429890363537 L 343.37979094076655 341.1425274091172 L 345.1219512195122 342.00807847663015 L 346.86411149825784 343.2198499711483 L 348.6062717770035 340.96941719561454 L 350.34843205574913 336.64166185804964 L 352.0905923344948 333.69878822850546 L 353.8327526132404 331.96768609347953 L 355.57491289198606 342.8736295441431 L 357.3170731707317 333.5256780150029 L 359.05923344947735 327.12060011540683 L 360.801393728223 322.96595499134446 L 362.54355400696863 329.37103289094057 L 364.2857142857143 321.2348528563185 L 366.0278745644599 325.73571840738606 L 367.77003484320556 325.73571840738606 L 369.5121951219512 326.25504904789386 L 371.25435540069685 321.75418349682633 L 372.9965156794425 321.5810732833237 L 374.73867595818814 320.36930178880556 L 376.4808362369338 314.48355452971725 L 378.2229965156795 302.3658395845355 L 379.96515679442507 327.9861511829198 L 381.70731707317077 323.6583958453549 L 383.44947735191636 289.2094633583382 L 385.19163763066206 281.7657241777265 L 386.93379790940764 283.669936526255 L 388.67595818815334 286.0934795152914 L 390.41811846689893 284.7085978072706 L 392.16027874564463 277.4379688401616 L 393.9024390243902 284.1892671667629 L 395.6445993031359 279.3421811886901 L 397.3867595818815 279.6884016156954 L 399.1289198606272 277.95729948066935 L 400.8710801393728 275.53375649163297 L 402.6132404181185 272.59088286208885 L 404.3554006968641 278.6497403346798 L 406.0975609756098 265.8395845354876 L 407.8397212543554 270.34045008655517 L 409.58188153310107 271.0328909405655 L 411.3240418118467 265.3202538949798 L 413.06620209059236 265.3202538949798 L 414.808362369338 258.74206578188114 L 416.55052264808364 262.89671090594345 L 418.2926829268293 254.58742065781885 L 420.03484320557493 249.56722446624352 L 421.7770034843206 255.97230236583962 L 423.5191637630662 239.00750144258515 L 425.26132404181186 239.00750144258515 L 427.0034843205575 229.65954991344492 L 428.74564459930315 226.02423542989035 L 430.4878048780488 213.733410271206 L 432.22996515679444 211.82919792267748 L 433.9721254355401 212.69474899019045 L 435.7142857142857 207.6745527986151 L 437.45644599303137 196.24927870744378 L 439.198606271777 221.17714945181766 L 440.94076655052265 214.9451817657242 L 442.6829268292683 175.129832660127 L 444.42508710801394 181.36180034622046 L 446.1672473867596 176.16849394114254 L 447.9094076655052 172.3600692440854 L 449.65156794425087 173.9180611656088 L 451.3937282229965 166.8205424120023 L 453.13588850174216 162.31967686093483 L 454.8780487804878 172.1869590305828 L 456.62020905923345 155.56837853433356 L 458.3623693379791 159.0305828043855 L 460.10452961672473 145.52798615118294 L 461.8466898954704 137.7380265435661 L 463.588850174216 144.14310444316217 L 465.33101045296166 139.8153491055973 L 467.0731707317073 141.20023081361808 L 468.81533101045295 136.18003462204274 L 470.5574912891986 130.46739757645707 L 472.29965156794424 133.06405077899603 L 474.0418118466899 124.40854010386613 L 475.7839721254355 121.11944604731684 L 477.52613240418117 114.19503750721299 L 479.2682926829268 110.55972302365842 L 481.01045296167246 108.82862088863249 L 482.7526132404181 100 L 484.49477351916374 107.44373918061171 L 486.2369337979094 114.0219272937104 L 487.97909407665503 120.4270051933064 L 489.7212543554007 133.92960184650894 L 491.4634146341463 131.1598384304674 L 493.20557491289196 126.83208309290251 L 494.9477351916376 127.35141373341025 L 496.68989547038325 131.50605885747257 L 498.4320557491289 124.23542989036355 L 500.17421602787454 135.83381419503758 L 501.91637630662024 134.10271206001153 L 503.6585365853659 152.27928447778422 L 505.4006968641115 149.3364108482401 L 507.14285714285717 156.43392960184653 L 508.8850174216028 161.10790536641665 L 510.62717770034845 167.16676283900753 L 512.3693379790941 171.32140796306984 L 514.1114982578397 167.5129832660127 L 515.8536585365854 169.93652625504907 L 517.5958188153311 171.14829774956726 L 519.3379790940767 167.33987305251011 L 521.0801393728223 171.84073860357765 L 522.822299651568 181.36180034622046 L 524.5644599303137 187.7668782458165 L 526.3066202090592 189.84420080784767 L 528.0487804878048 193.47951529140224 L 529.7909407665505 210.96364685516446 L 531.5331010452962 209.23254472013852 L 533.2752613240418 197.80727062896713 L 535.0174216027874 206.11656087709176 L 536.7595818815331 209.57876514714368 L 538.5017421602788 199.01904212348532 L 540.2439024390244 207.6745527986151 L 541.98606271777 214.7720715522216 L 543.7282229965157 217.54183496826315 L 545.4703832752614 220.8309290248125 L 547.212543554007 222.38892094633584 L 548.9547038327526 225.5049047893826 L 550.6968641114983 231.73687247547608 L 552.439024390244 234.85285631852278 L 554.1811846689895 234.1604154645124 L 555.9233449477351 237.79572994806696 L 557.6655052264808 226.02423542989035 L 559.4076655052265 223.9469128678592 L 561.1498257839721 217.36872475476056 L 562.8919860627177 218.06116560877095 L 564.6341463414634 223.42758222735145 L 566.3763066202091 229.3133294864397 L 568.1184668989547 227.75533756491635 L 569.8606271777003 229.48643969994234 L 571.602787456446 233.64108482400465 L 573.3449477351917 238.48817080207735 L 575.0871080139373 239.18061165608773 L 576.8292682926829 242.64281592613966 L 578.5714285714286 249.56722446624352 L 580.3135888501743 249.0478938257357 L 582.0557491289198 255.79919215233699 L 583.7979094076654 260.3000577034045 L 585.5400696864111 265.3202538949798 L 587.2822299651568 258.395845354876 L 589.0243902439024 260.99249855741493 L 590.766550522648 270.51356030005775 L 592.5087108013937 262.5504904789383 L 594.2508710801394 265.8395845354876 L 595.993031358885 277.09174841315644 L 597.7351916376306 283.32371609924985 L 599.4773519163763 287.47836122331216 L 601.219512195122 290.94056549336415 L 602.9616724738676 294.9221004039239 L 604.7038327526133 287.8245816503173 L 606.445993031359 291.6330063473745 L 608.1881533101046 284.1892671667629 L 609.9303135888501 284.36237738026546 L 611.6724738675958 288.1708020773226 L 613.4146341463415 304.6162723600693 L 615.1567944250871 301.3271783035199 L 616.8989547038327 311.7137911136757 L 618.6411149825784 306.1742642815926 L 620.3832752613241 314.8297749567224 L 622.1254355400697 317.7726485862666 L 623.8675958188153 320.54241200230814 L 625.609756097561 334.2181188690133 L 627.3519163763067 332.6601269474899 L 629.0940766550523 334.3912290825159 L 630.8362369337979 337.6803231390652 L 632.5783972125436 339.930755914599 L 634.3205574912893 342.8736295441431 L 636.0627177700349 341.8349682631275 L 637.8048780487804 345.1240623196769 L 639.5470383275261 346.16272360069246 L 641.2891986062718 349.6249278707444 L 643.0313588850174 347.0282746682054 L 644.773519163763 348.06693594922103 L 646.5156794425087 349.1055972302366 L 648.2578397212544 351.3560300057703 L 650 348.932487016734 L 650 400 Z" /><text  class="poloto_labels poloto_text poloto_title" alignment-baseline="start" text-anchor="middle" font-size="x-large" x="400" y="37.5" >Total players on 2021-09-15</text><text  class="poloto_labels poloto_text poloto_xname" alignment-baseline="start" text-anchor="middle" font-size="x-large" x="400" y="481.25" >Time</text><text  class="poloto_labels poloto_text poloto_yname" alignment-baseline="start" text-anchor="middle" font-size="x-large" transform="rotate(-90,37.5,250)" x="37.5" y="250" >Count</text><line  class="poloto_axis_lines" stroke="black" x1="150" x2="150" y1="400" y2="405" /><text  class="poloto_tick_labels poloto_text" alignment-baseline="start" text-anchor="middle" x="150" y="430" > 00:00</text><line  class="poloto_axis_lines" stroke="black" x1="266.14401858304296" x2="266.14401858304296" y1="400" y2="405" /><text  class="poloto_tick_labels poloto_text" alignment-baseline="start" text-anchor="middle" x="266.14401858304296" y="430" > 06:00</text><line  class="poloto_axis_lines" stroke="black" x1="382.2880371660859" x2="382.2880371660859" y1="400" y2="405" /><text  class="poloto_tick_labels poloto_text" alignment-baseline="start" text-anchor="middle" x="382.2880371660859" y="430" > 11:00</text><line  class="poloto_axis_lines" stroke="black" x1="498.4320557491289" x2="498.4320557491289" y1="400" y2="405" /><text  class="poloto_tick_labels poloto_text" alignment-baseline="start" text-anchor="middle" x="498.4320557491289" y="430" > 17:00</text><line  class="poloto_axis_lines" stroke="black" x1="614.5760743321719" x2="614.5760743321719" y1="400" y2="405" /><text  class="poloto_tick_labels poloto_text" alignment-baseline="start" text-anchor="middle" x="614.5760743321719" y="430" > 22:00</text><line  class="poloto_axis_lines" stroke="black" x1="150" x2="144" y1="398.9613387189844" y2="398.9613387189844" /><text  class="poloto_tick_labels poloto_text" alignment-baseline="middle" text-anchor="end" x="135" y="398.9613387189844" > 1000</text><line  class="poloto_axis_lines" stroke="black" x1="150" x2="144" y1="312.40623196768615" y2="312.40623196768615" /><text  class="poloto_tick_labels poloto_text" alignment-baseline="middle" text-anchor="end" x="135" y="312.40623196768615" > 1500</text><line  class="poloto_axis_lines" stroke="black" x1="150" x2="144" y1="225.8511252163878" y2="225.8511252163878" /><text  class="poloto_tick_labels poloto_text" alignment-baseline="middle" text-anchor="end" x="135" y="225.8511252163878" > 2000</text><line  class="poloto_axis_lines" stroke="black" x1="150" x2="144" y1="139.29601846508945" y2="139.29601846508945" /><text  class="poloto_tick_labels poloto_text" alignment-baseline="middle" text-anchor="end" x="135" y="139.29601846508945" > 2500</text><path  stroke="black" fill="none" class="poloto_axis_lines" style="stroke-dasharray:14.518002322880372;stroke-dashoffset:-0;" d=" M 150 400 L 650 400" /><path  stroke="black" fill="none" class="poloto_axis_lines" style="stroke-dasharray:8.655510675129833;stroke-dashoffset:-1.0386612810155782;" d=" M 150 400 L 150 100" /></svg>