<svg class="poloto" width="800" height="500" viewBox="0 0 800 500" xmlns="http://www.w3.org/2000/svg"><style>.poloto { stroke-linecap:round; stroke-linejoin:round; font-family: 'Tahoma', sans-serif; background-color: AliceBlue;} .poloto_scatter{stroke-width:7} .poloto_line{stroke-width:2} .poloto_text{fill: black;} .poloto_axis_lines{stroke: black;stroke-width:3;fill:none;stroke-dasharray:none} .poloto0stroke{stroke:  blue;} .poloto1stroke{stroke:  red;} .poloto2stroke{stroke:  green;} .poloto3stroke{stroke:  gold;} .poloto4stroke{stroke:  aqua;} .poloto5stroke{stroke:  lime;} .poloto6stroke{stroke:  orange;} .poloto7stroke{stroke:  chocolate;} .poloto0fill{fill:blue;} .poloto1fill{fill:red;} .poloto2fill{fill:green;} .poloto3fill{fill:gold;} .poloto4fill{fill:aqua;} .poloto5fill{fill:lime;} .poloto6fill{fill:orange;} .poloto7fill{fill:chocolate;}</style><text  class="poloto_text poloto_legend_text" alignment-baseline="middle" text-anchor="start" font-size="large" x="675" y="100" ></text><path  class="poloto_linefill poloto0fill" d=" M 150 400 L 150 323.9614689945816 L 151.74216027874564 324.8645394340758 L 153.4843205574913 321.7940999397953 L 155.22648083623693 329.37989163154725 L 156.96864111498257 345.45454545454544 L 158.71080139372822 350.5117399157134 L 160.45296167247386 343.467790487658 L 162.1951219512195 344.3708609271523 L 163.93728222996515 351.9566526189043 L 165.6794425087108 357.0138470800722 L 167.42160278745644 359.36183022275736 L 169.16376306620208 363.3353401565322 L 170.90592334494772 364.41902468392533 L 172.64808362369337 366.58639373871165 L 174.390243902439 369.837447320891 L 176.13240418118465 368.573148705599 L 177.8745644599303 371.82420228777846 L 179.61672473867597 375.43648404575555 L 181.3588850174216 380.4936785069235 L 183.10104529616726 384.82841661649604 L 184.8432055749129 386.0927152317881 L 186.58536585365854 387.5376279349789 L 188.3275261324042 386.2733293196869 L 190.06968641114983 383.56411800120406 L 191.81184668989548 384.10596026490066 L 193.55400696864112 397.65201685731483 L 195.29616724738676 398.735701384708 L 197.0383275261324 394.40096327513544 L 198.78048780487805 393.67850692354 L 200.5226480836237 389.70499698976516 L 202.26480836236934 384.82841661649604 L 204.00696864111498 384.2865743527995 L 205.74912891986062 383.3835039133052 L 207.49128919860627 380.31306441902467 L 209.2334494773519 385.1896447922938 L 210.97560975609755 387.35701384708005 L 212.7177700348432 387.1763997591812 L 214.45993031358887 392.9560505719446 L 216.2020905923345 395.48464780252857 L 217.94425087108016 400 L 219.6864111498258 397.29078868151714 L 221.42857142857144 395.84587597832626 L 223.1707317073171 398.91631547260687 L 224.91289198606273 397.1101745936183 L 226.65505226480838 395.1234196267309 L 228.39721254355402 395.1234196267309 L 230.13937282229966 391.51113786875374 L 231.8815331010453 387.1763997591812 L 233.62369337979095 381.5773630343167 L 235.3658536585366 374.3527995183624 L 237.10801393728224 375.97832630945214 L 238.85017421602788 372.366044551475 L 240.59233449477352 370.19867549668874 L 242.33449477351917 377.2426249247441 L 244.0766550522648 378.50692354003615 L 245.81881533101046 381.5773630343167 L 247.5609756097561 378.50692354003615 L 249.30313588850174 370.9211318482842 L 251.0452961672474 369.4762191450933 L 252.78745644599303 373.9915713425647 L 254.52961672473867 369.837447320891 L 256.2717770034843 361.7098133654425 L 258.01393728222996 363.15472606863335 L 259.7560975609756 364.2384105960265 L 261.49825783972125 365.3220951234196 L 263.2404181184669 364.96086694762187 L 264.98257839721254 368.9343768813967 L 266.7247386759582 366.58639373871165 L 268.4668989547038 365.14148103552077 L 270.20905923344947 366.58639373871165 L 271.9512195121951 365.50270921131846 L 273.69337979094075 369.29560505719445 L 275.4355400696864 366.40577965081275 L 277.17770034843204 366.2251655629139 L 278.9198606271777 364.2384105960265 L 280.6620209059233 361.8904274533413 L 282.40418118466897 362.9741119807345 L 284.1463414634146 360.62612883804934 L 285.88850174216026 355.9301625526791 L 287.6306620209059 349.789283564118 L 289.37282229965155 352.8597230583986 L 291.1149825783972 345.09331727874775 L 292.85714285714283 349.0668272125226 L 294.5993031358885 349.9698976520168 L 296.3414634146342 350.5117399157134 L 298.08362369337976 351.9566526189043 L 299.82578397212546 349.6086694762191 L 301.56794425087105 350.8729680915111 L 303.31010452961675 350.5117399157134 L 305.05226480836234 349.24744130042143 L 306.79442508710804 349.6086694762191 L 308.5365853658536 347.80252859723055 L 310.2787456445993 346.89945815773626 L 312.0209059233449 351.23419626730885 L 313.7630662020906 347.98314268512945 L 315.5052264808362 351.4148103552077 L 317.2473867595819 352.4984948826008 L 318.9895470383275 349.6086694762191 L 320.7317073170732 348.70559903672483 L 322.4738675958188 351.9566526189043 L 324.2160278745645 347.260686333534 L 325.95818815331006 343.467790487658 L 327.70034843205576 345.09331727874775 L 329.44250871080135 336.42384105960264 L 331.18466898954705 336.42384105960264 L 332.92682926829264 334.61770018061407 L 334.66898954703834 336.60445514750154 L 336.4111498257839 332.26971703792896 L 338.1533101045296 329.1992775436484 L 339.8954703832752 321.0716435881999 L 341.6376306620209 314.9307645996388 L 343.3797909407665 309.33172787477423 L 345.1219512195122 312.22155328115593 L 346.86411149825784 312.5827814569536 L 348.6062717770035 309.5123419626731 L 350.34843205574913 301.02347983142687 L 352.0905923344948 290.72847682119203 L 353.8327526132404 288.92233594220346 L 355.57491289198606 286.3937387116195 L 357.3170731707317 284.0457555689344 L 359.05923344947735 281.69777242624923 L 360.801393728223 279.53040337146297 L 362.54355400696863 273.208910295003 L 364.2857142857143 267.7904876580373 L 366.0278745644599 265.0812763395545 L 367.77003484320556 263.27513546056593 L 369.5121951219512 255.68934376881396 L 371.25435540069685 258.94039735099335 L 372.9965156794425 257.8567128236002 L 374.73867595818814 261.2883804936785 L 376.4808362369338 263.4557495484648 L 378.2229965156794 264.35881998795907 L 379.96515679442507 262.5526791089705 L 381.7073170731707 256.4118001204094 L 383.44947735191636 264.1782059000602 L 385.191637630662 259.12101143889225 L 386.93379790940764 259.48223961468995 L 388.6759581881533 257.8567128236002 L 390.41811846689893 255.8699578567128 L 392.1602787456446 250.0903070439494 L 393.9024390243902 250.0903070439494 L 395.6445993031359 239.97591812161346 L 397.3867595818815 236.18302227573753 L 399.1289198606272 233.29319686935582 L 400.8710801393728 238.89223359422033 L 402.6132404181185 234.0156532209512 L 404.3554006968641 232.2095123419627 L 406.0975609756097 235.82179409993978 L 407.83972125435537 227.15231788079467 L 409.581881533101 217.76038531005418 L 411.32404181184666 211.98073449729077 L 413.0662020905923 204.39494280553885 L 414.80836236933794 197.35099337748346 L 416.5505226480836 194.46116797110176 L 418.29268292682923 201.86634557495483 L 420.0348432055749 207.10415412402165 L 421.7770034843206 198.25406381697775 L 423.5191637630662 198.07344972907885 L 425.26132404181186 198.4346779048766 L 427.0034843205575 199.33774834437088 L 428.74564459930315 193.01625526791088 L 430.4878048780488 185.6110776640578 L 432.22996515679444 183.98555087296808 L 433.9721254355401 183.62432269717038 L 435.7142857142857 170.258880192655 L 437.45644599303137 161.58940397350995 L 439.198606271777 188.13967489464176 L 440.94076655052265 185.6110776640578 L 442.6829268292683 185.79169175195665 L 444.42508710801394 186.87537627934978 L 446.1672473867596 181.45695364238412 L 447.9094076655052 147.14027694160143 L 449.65156794425087 136.6646598434678 L 451.3937282229965 135.94220349187236 L 453.13588850174216 138.47080072245637 L 454.8780487804878 134.31667670078264 L 456.62020905923345 133.7748344370861 L 458.3623693379791 126.36965683323297 L 460.10452961672473 119.32570740517758 L 461.8466898954704 118.4226369656833 L 463.588850174216 122.39614689945813 L 465.33101045296166 119.68693558097533 L 467.0731707317073 114.62974111980736 L 468.81533101045295 118.0614087898856 L 470.5574912891986 112.2817579771222 L 472.29965156794424 111.19807344972907 L 474.0418118466899 107.22456351595423 L 475.7839721254355 105.23780854906681 L 477.52613240418117 101.62552679108973 L 479.2682926829268 112.64298615291995 L 481.01045296167246 111.37868753762791 L 482.7526132404181 116.79711017459363 L 484.49477351916374 116.61649608669478 L 486.2369337979094 120.77062010836846 L 487.97909407665503 121.312462372065 L 489.7212543554007 131.2462372065021 L 491.4634146341463 133.59422034918725 L 493.20557491289196 130.3431667670078 L 494.9477351916376 132.69114990969297 L 496.68989547038325 127.81456953642385 L 498.4320557491289 117.88079470198676 L 500.17421602787454 114.99096929560505 L 501.9163763066202 120.40939193257071 L 503.6585365853658 115.1715833835039 L 505.40069686411147 102.34798314268511 L 507.1428571428571 100 L 508.88501742160275 107.58579169175198 L 510.6271777003484 114.44912703190846 L 512.3693379790941 120.04816375677302 L 514.1114982578397 128.35641180012038 L 515.8536585365853 129.9819385912101 L 517.595818815331 131.42685129440093 L 519.3379790940767 136.30343166767005 L 521.0801393728223 140.63816977724264 L 522.822299651568 143.7086092715232 L 524.5644599303137 141.54124021673692 L 526.3066202090592 144.43106562311863 L 528.0487804878048 153.10054184226368 L 529.7909407665505 153.28115593016253 L 531.5331010452962 160.5057194461168 L 533.2752613240418 156.89343768813967 L 535.0174216027874 154.90668272125225 L 536.7595818815331 156.17098133654423 L 538.5017421602788 165.74352799518363 L 540.2439024390244 166.82721252257676 L 541.98606271777 168.99458157736302 L 543.7282229965157 180.91511137868753 L 545.4703832752614 186.5141481035521 L 547.212543554007 188.68151715833835 L 548.9547038327526 190.30704394942808 L 550.6968641114983 190.84888621312462 L 552.439024390244 200.60204695966286 L 554.1811846689895 209.8133654425045 L 555.9233449477351 210.1745936183022 L 557.6655052264808 216.13485851896445 L 559.4076655052265 217.94099939795302 L 561.1498257839721 223.54003612281758 L 562.8919860627177 226.4298615291993 L 564.6341463414634 227.51354605659242 L 566.3763066202091 229.1390728476821 L 568.1184668989547 228.95845875978324 L 569.8606271777003 231.6676700782661 L 571.602787456446 228.7778446718844 L 573.3449477351917 232.57074051776038 L 575.0871080139373 234.37688139674896 L 576.8292682926829 229.68091511137868 L 578.5714285714286 226.97170379289582 L 580.3135888501743 231.48705599036725 L 582.0557491289198 233.11258278145692 L 583.7979094076654 231.84828416616494 L 585.5400696864111 230.40337146297412 L 587.2822299651568 230.58398555087297 L 589.0243902439024 238.16977724262495 L 590.766550522648 242.32390126429863 L 592.5087108013937 243.5881998795906 L 594.2508710801394 244.85249849488258 L 595.993031358885 243.76881396748945 L 597.7351916376306 246.83925346177 L 599.4773519163763 245.03311258278143 L 601.219512195122 248.82600842865742 L 602.9616724738676 251.53521974714027 L 604.7038327526132 249.7290788681517 L 606.4459930313589 246.83925346177 L 608.1881533101046 249.00662251655626 L 609.9303135888501 252.9801324503311 L 611.6724738675957 255.32811559301626 L 613.4146341463414 256.4118001204094 L 615.1567944250871 267.7904876580373 L 616.8989547038327 263.8169777242625 L 618.6411149825783 262.0108368452739 L 620.383275261324 271.2221553281156 L 622.1254355400697 266.52618904274533 L 623.8675958188153 259.12101143889225 L 625.609756097561 258.94039735099335 L 627.3519163763067 282.2396146899458 L 629.0940766550523 284.9488260084286 L 630.8362369337979 290.1866345574955 L 632.5783972125436 281.1559301625527 L 634.3205574912893 284.58759783263093 L 636.0627177700349 287.11619506321495 L 637.8048780487804 302.28777844671885 L 639.5470383275261 302.28777844671885 L 641.2891986062718 308.6092715231788 L 643.0313588850174 306.2612883804937 L 644.773519163763 311.31848284166165 L 646.5156794425087 314.7501505117399 L 648.2578397212544 316.19506321493077 L 650 319.80734497290786 L 650 400 Z" /><text  class="poloto_labels poloto_text poloto_title" alignment-baseline="start" text-anchor="middle" font-size="x-large" x="400" y="37.5" >Total players on 2021-06-25</text><text  class="poloto_labels poloto_text poloto_xname" alignment-baseline="start" text-anchor="middle" font-size="x-large" x="400" y="481.25" >Time</text><text  class="poloto_labels poloto_text poloto_yname" alignment-baseline="start" text-anchor="middle" font-size="x-large" transform="rotate(-90,37.5,250)" x="37.5" y="250" >Count</text><line  class="poloto_axis_lines" stroke="black" x1="208.0487804878049" x2="208.0487804878049" y1="400" y2="405" /><text  class="poloto_tick_labels poloto_text" alignment-baseline="start" text-anchor="middle" x="208.0487804878049" y="430" > 03:00</text><line  class="poloto_axis_lines" stroke="black" x1="266.1207897793264" x2="266.1207897793264" y1="400" y2="405" /><text  class="poloto_tick_labels poloto_text" alignment-baseline="start" text-anchor="middle" x="266.1207897793264" y="430" > 06:00</text><line  class="poloto_axis_lines" stroke="black" x1="324.19279907084785" x2="324.19279907084785" y1="400" y2="405" /><text  class="poloto_tick_labels poloto_text" alignment-baseline="start" text-anchor="middle" x="324.19279907084785" y="430" > 08:00</text><line  class="poloto_axis_lines" stroke="black" x1="382.2648083623693" x2="382.2648083623693" y1="400" y2="405" /><text  class="poloto_tick_labels poloto_text" alignment-baseline="start" text-anchor="middle" x="382.2648083623693" y="430" > 11:00</text><line  class="poloto_axis_lines" stroke="black" x1="440.3368176538908" x2="440.3368176538908" y1="400" y2="405" /><text  class="poloto_tick_labels poloto_text" alignment-baseline="start" text-anchor="middle" x="440.3368176538908" y="430" > 14:00</text><line  class="poloto_axis_lines" stroke="black" x1="498.4088269454123" x2="498.4088269454123" y1="400" y2="405" /><text  class="poloto_tick_labels poloto_text" alignment-baseline="start" text-anchor="middle" x="498.4088269454123" y="430" > 17:00</text><line  class="poloto_axis_lines" stroke="black" x1="556.4808362369338" x2="556.4808362369338" y1="400" y2="405" /><text  class="poloto_tick_labels poloto_text" alignment-baseline="start" text-anchor="middle" x="556.4808362369338" y="430" > 19:00</text><line  class="poloto_axis_lines" stroke="black" x1="614.5528455284552" x2="614.5528455284552" y1="400" y2="405" /><text  class="poloto_tick_labels poloto_text" alignment-baseline="start" text-anchor="middle" x="614.5528455284552" y="430" > 22:00</text><line  class="poloto_axis_lines" stroke="black" x1="150" x2="144" y1="400" y2="400" /><text  class="poloto_tick_labels poloto_text" alignment-baseline="middle" text-anchor="end" x="135" y="400" > 1000</text><line  class="poloto_axis_lines" stroke="black" x1="150" x2="144" y1="309.6929560505719" y2="309.6929560505719" /><text  class="poloto_tick_labels poloto_text" alignment-baseline="middle" text-anchor="end" x="135" y="309.6929560505719" > 1500</text><line  class="poloto_axis_lines" stroke="black" x1="150" x2="144" y1="219.3859121011439" y2="219.3859121011439" /><text  class="poloto_tick_labels poloto_text" alignment-baseline="middle" text-anchor="end" x="135" y="219.3859121011439" > 2000</text><line  class="poloto_axis_lines" stroke="black" x1="150" x2="144" y1="129.07886815171582" y2="129.07886815171582" /><text  class="poloto_tick_labels poloto_text" alignment-baseline="middle" text-anchor="end" x="135" y="129.07886815171582" > 2500</text><path  stroke="black" fill="none" class="poloto_axis_lines" style="stroke-dasharray:14.518002322880372;stroke-dashoffset:-58.04878048780488;" d=" M 150 400 L 650 400" /><path  stroke="black" fill="none" class="poloto_axis_lines" style="stroke-dasharray:9.030704394942806;stroke-dashoffset:-0;" d=" M 150 400 L 150 100" /></svg>