<svg class="poloto" width="800" height="500" viewBox="0 0 800 500" xmlns="http://www.w3.org/2000/svg"><style>.poloto { stroke-linecap:round; stroke-linejoin:round; font-family: 'Tahoma', sans-serif; background-color: AliceBlue;} .poloto_scatter{stroke-width:7} .poloto_line{stroke-width:2} .poloto_text{fill: black;} .poloto_axis_lines{stroke: black;stroke-width:3;fill:none;stroke-dasharray:none} .poloto0stroke{stroke:  blue;} .poloto1stroke{stroke:  red;} .poloto2stroke{stroke:  green;} .poloto3stroke{stroke:  gold;} .poloto4stroke{stroke:  aqua;} .poloto5stroke{stroke:  lime;} .poloto6stroke{stroke:  orange;} .poloto7stroke{stroke:  chocolate;} .poloto0fill{fill:blue;} .poloto1fill{fill:red;} .poloto2fill{fill:green;} .poloto3fill{fill:gold;} .poloto4fill{fill:aqua;} .poloto5fill{fill:lime;} .poloto6fill{fill:orange;} .poloto7fill{fill:chocolate;}</style><text  class="poloto_text poloto_legend_text" alignment-baseline="middle" text-anchor="start" font-size="large" x="675" y="100" ></text><path  class="poloto_linefill poloto0fill" d=" M 150 400 L 150 359.40482874789444 L 151.74216027874564 362.94216732172936 L 153.4843205574913 368.1639528354857 L 155.22648083623693 373.7226277372263 L 156.96864111498257 372.0381807973049 L 158.71080139372822 375.9124087591241 L 160.45296167247386 374.39640651319485 L 162.1951219512195 376.9230769230769 L 163.93728222996515 372.7119595732735 L 165.6794425087108 373.385738349242 L 167.42160278745644 382.4817518248175 L 169.16376306620208 378.6075238629983 L 170.90592334494772 382.65019651880965 L 172.64808362369337 382.98708590679394 L 174.390243902439 385.0084222346996 L 176.13240418118465 386.692869174621 L 177.8745644599303 393.2622122403144 L 179.61672473867597 393.0937675463223 L 181.3588850174216 395.62043795620434 L 183.10104529616726 397.1364402021336 L 184.8432055749129 396.79955081414937 L 186.58536585365854 394.10443571027514 L 188.3275261324042 392.2515440763616 L 190.06968641114983 394.9466591802358 L 191.81184668989548 394.60976979225154 L 193.55400696864112 397.30488489612577 L 195.29616724738676 397.81021897810217 L 197.0383275261324 394.77821448624366 L 198.78048780487805 395.9573273441887 L 200.5226480836237 396.4626614261651 L 202.26480836236934 399.6631106120157 L 204.00696864111498 397.47332959011794 L 205.74912891986062 397.47332959011794 L 207.49128919860627 400 L 209.2334494773519 397.97866367209434 L 210.97560975609755 394.77821448624366 L 212.7177700348432 391.9146546883773 L 214.45993031358887 390.06176305446377 L 216.2020905923345 388.7142055025267 L 217.94425087108016 390.06176305446377 L 219.6864111498258 392.92532285233017 L 221.42857142857144 387.1982032565974 L 223.1707317073171 388.7142055025267 L 224.91289198606273 388.88265019651885 L 226.65505226480838 389.05109489051097 L 228.39721254355402 394.77821448624366 L 230.13937282229966 389.2195395845031 L 231.8815331010453 386.52442448062885 L 233.62369337979095 386.692869174621 L 235.3658536585366 379.6181920269512 L 237.10801393728224 383.6608646827625 L 238.85017421602788 380.4604154969119 L 240.59233449477352 375.743964065132 L 242.33449477351917 379.449747332959 L 244.0766550522648 375.5755193711398 L 245.81881533101046 372.7119595732735 L 247.5609756097561 370.18528916339136 L 249.30313588850174 365.4688377316114 L 251.0452961672474 360.5839416058394 L 252.78745644599303 361.5946097697922 L 254.52961672473867 361.08927568781587 L 256.2717770034843 363.27905670971364 L 258.01393728222996 366.81639528354856 L 259.7560975609756 364.7950589556429 L 261.49825783972125 367.321729365525 L 263.2404181184669 365.4688377316114 L 264.98257839721254 372.0381807973049 L 266.7247386759582 378.10218978102193 L 268.4668989547038 381.97641774284114 L 270.20905923344947 384.1661987647389 L 271.9512195121951 381.97641774284114 L 273.69337979094075 383.4924199887704 L 275.4355400696864 385.17686692869177 L 277.17770034843204 382.65019651880965 L 278.91986062717774 375.40707467714765 L 280.6620209059233 376.4177428411005 L 282.404181184669 373.8910724312184 L 284.1463414634146 374.56485120718696 L 285.8885017421603 372.0381807973049 L 287.6306620209059 367.65861875350924 L 289.3728222996516 362.2683885457608 L 291.1149825783972 357.720381807973 L 292.8571428571429 350.1403705783268 L 294.5993031358885 351.65637282425604 L 296.3414634146342 361.7630544637844 L 298.08362369337976 362.94216732172936 L 299.82578397212546 357.0466030320045 L 301.56794425087105 358.22571588994947 L 303.31010452961675 356.2043795620438 L 305.05226480836234 356.3728242560359 L 306.79442508710804 364.12128017967433 L 308.5365853658536 365.6372824256036 L 310.2787456445993 367.8270634475014 L 312.0209059233449 370.8590679393599 L 313.7630662020906 376.9230769230769 L 315.5052264808362 378.6075238629983 L 317.2473867595819 376.0808534531162 L 318.9895470383275 377.2599663110612 L 320.7317073170732 373.55418304323416 L 322.4738675958188 372.206625491297 L 324.2160278745645 376.24929814710833 L 325.9581881533101 372.37507018528913 L 327.70034843205576 370.52217855137565 L 329.4425087108014 366.81639528354856 L 331.18466898954705 366.64795058955644 L 332.9268292682927 366.14261650758 L 334.66898954703834 364.7950589556429 L 336.411149825784 363.78439079169004 L 338.1533101045296 364.62661426165073 L 339.89547038327527 364.4581695676586 L 341.6376306620209 368.6692869174621 L 343.37979094076655 362.09994385176867 L 345.1219512195122 356.7097136440202 L 346.86411149825784 358.56260527793376 L 348.6062717770035 353.6777091521617 L 350.34843205574913 346.0976979225154 L 352.0905923344948 345.0870297585626 L 353.8327526132404 342.72880404267266 L 355.57491289198606 339.52835485682203 L 357.3170731707317 331.94834362717575 L 359.05923344947735 335.31723750701855 L 360.801393728223 334.1381246490736 L 362.54355400696863 333.2959011791129 L 364.2857142857143 331.4430095451993 L 366.0278745644599 324.8736664795059 L 367.77003484320556 324.19988770353734 L 369.5121951219512 318.1358787198203 L 371.25435540069685 319.48343627175745 L 372.9965156794425 314.9354295339697 L 374.73867595818814 311.73498034811905 L 376.4808362369338 305.83941605839414 L 378.2229965156795 305.33408197641774 L 379.96515679442507 300.4491858506457 L 381.70731707317077 297.5856260527794 L 383.44947735191636 298.4278495227401 L 385.19163763066206 294.5536215609209 L 386.93379790940764 282.93093767546327 L 388.67595818815334 279.89893318360475 L 390.41811846689893 284.1100505334082 L 392.16027874564463 279.3935991016283 L 393.9024390243902 281.414935429534 L 395.6445993031359 269.6238068500842 L 397.3867595818815 264.0651319483436 L 399.1289198606272 261.70690623245366 L 400.8710801393728 255.47445255474454 L 402.6132404181185 260.0224592925323 L 404.3554006968641 254.80067377877597 L 406.0975609756098 255.97978663672095 L 407.8397212543554 260.69623806850086 L 409.58188153310107 253.79000561482312 L 411.3240418118467 247.38910724312186 L 413.06620209059236 249.4104435710275 L 414.808362369338 239.64065131948345 L 416.55052264808364 239.13531723750705 L 418.2926829268293 233.23975294778214 L 420.03484320557493 224.81751824817522 L 421.7770034843206 221.61706906232453 L 423.5191637630662 221.44862436833242 L 425.26132404181186 218.07973048848962 L 427.0034843205575 216.73217293655253 L 428.74564459930315 208.81527231892196 L 430.4878048780488 211.67883211678836 L 432.22996515679444 208.81527231892196 L 433.9721254355401 217.06906232453682 L 435.7142857142857 200.05614823133075 L 437.45644599303137 199.5508141493543 L 439.198606271777 194.49747332959012 L 440.94076655052265 189.94946659180235 L 442.6829268292683 192.3076923076923 L 444.42508710801394 190.28635597978663 L 446.1672473867596 189.44413250982595 L 447.9094076655052 182.20101066816395 L 449.65156794425087 174.957888826502 L 451.3937282229965 163.3352049410444 L 453.13588850174216 162.82987085906794 L 454.8780487804878 158.95564289724874 L 456.62020905923345 152.2178551375632 L 458.3623693379791 150.36496350364965 L 460.10452961672473 148.68051656372828 L 461.8466898954704 137.90005614823133 L 463.588850174216 132.8467153284672 L 465.33101045296166 129.9831555306008 L 467.0731707317073 131.49915777653007 L 468.81533101045295 134.02582818641213 L 470.5574912891986 129.14093206064013 L 472.29965156794424 135.03649635036493 L 474.0418118466899 130.9938236945536 L 475.7839721254355 128.29870859067944 L 477.52613240418117 124.76137001684447 L 479.2682926829268 119.03425042111178 L 481.01045296167246 112.12801796743406 L 482.7526132404181 105.7271195957328 L 484.49477351916374 105.39023020774846 L 486.2369337979094 100 L 487.97909407665503 102.35822571588994 L 489.7212543554007 112.29646266142618 L 491.4634146341463 135.03649635036493 L 493.20557491289196 114.65468837731612 L 494.9477351916376 125.9404828747895 L 496.68989547038325 115.4969118472768 L 498.4320557491289 112.80179674340263 L 500.17421602787454 112.80179674340263 L 501.91637630662024 116.67602470522183 L 503.6585365853659 125.60359348680515 L 505.4006968641115 130.65693430656938 L 507.14285714285717 136.55249859629419 L 508.8850174216028 132.8467153284672 L 510.62717770034845 138.74227961819201 L 512.3693379790941 148.8489612577204 L 514.1114982578397 145.14317798989336 L 515.8536585365854 147.16451431779902 L 517.5958188153311 148.17518248175182 L 519.3379790940767 152.55474452554748 L 521.0801393728223 154.07074677147673 L 522.822299651568 161.98764738910725 L 524.5644599303137 165.69343065693434 L 526.3066202090592 178.49522740033692 L 528.0487804878048 184.89612577203818 L 529.7909407665505 190.11791128579452 L 531.5331010452962 191.12857944974732 L 533.2752613240418 190.11791128579452 L 535.0174216027874 192.3076923076923 L 536.7595818815331 197.69792251544075 L 538.5017421602788 201.90903986524424 L 540.2439024390244 205.10948905109493 L 541.98606271777 204.09882088714207 L 543.7282229965157 205.9517125210556 L 545.4703832752614 201.57215047725995 L 547.212543554007 216.22683885457607 L 548.9547038327526 221.11173498034813 L 550.6968641114983 223.6384053902302 L 552.439024390244 221.7855137563167 L 554.1811846689895 219.764177428411 L 555.9233449477351 215.55306007860756 L 557.6655052264808 221.28017967434025 L 559.4076655052265 219.93262212240316 L 561.1498257839721 224.48062886019093 L 562.8919860627177 227.84952274003368 L 564.6341463414634 235.42953396967997 L 566.3763066202091 241.1566535654127 L 568.1184668989547 242.33576642335768 L 569.8606271777003 234.4188658057271 L 571.602787456446 241.493542953397 L 573.3449477351917 237.45087029758562 L 575.0871080139373 249.57888826501969 L 576.8292682926829 248.06288601909043 L 578.5714285714286 246.0415496911847 L 580.3135888501743 245.70466030320048 L 582.0557491289198 241.1566535654127 L 583.7979094076654 245.0308815272319 L 585.5400696864111 249.7473329590118 L 587.2822299651568 247.89444132509826 L 589.0243902439024 256.65356541268955 L 590.766550522648 259.51712521055583 L 592.5087108013937 263.0544637843908 L 594.2508710801394 256.65356541268955 L 595.993031358885 262.38068500842223 L 597.7351916376306 261.8753509264458 L 599.4773519163763 265.58113419427286 L 601.219512195122 273.32959011791127 L 602.9616724738676 276.02470522178555 L 604.7038327526133 275.6878158338012 L 606.445993031359 280.235822571589 L 608.1881533101046 283.77316114542396 L 609.9303135888501 285.2891633913532 L 611.6724738675958 289.33183604716453 L 613.4146341463415 290.51094890510944 L 615.1567944250871 297.5856260527794 L 616.8989547038327 303.98652442448065 L 618.6411149825784 298.7647389107243 L 620.3832752613241 301.96518809657493 L 622.1254355400697 306.0078607523863 L 623.8675958188153 317.6305446378439 L 625.609756097561 314.093206064009 L 627.3519163763067 319.98877035373386 L 629.0940766550523 323.35766423357666 L 630.8362369337979 321.5047725996631 L 632.5783972125436 330.2638966872544 L 634.3205574912893 332.28523301516003 L 636.0627177700349 330.6007860752386 L 637.8048780487804 332.6221224031443 L 639.5470383275261 342.56035934868055 L 641.2891986062718 339.19146546883775 L 643.0313588850174 343.73947220662546 L 644.773519163763 346.771476698484 L 646.5156794425087 349.46659180235827 L 648.2578397212544 343.90791690061764 L 650 348.9612577203818 L 650 400 Z" /><text  class="poloto_labels poloto_text poloto_title" alignment-baseline="start" text-anchor="middle" font-size="x-large" x="400" y="37.5" >Total players on 2021-09-23</text><text  class="poloto_labels poloto_text poloto_xname" alignment-baseline="start" text-anchor="middle" font-size="x-large" x="400" y="481.25" >Time</text><text  class="poloto_labels poloto_text poloto_yname" alignment-baseline="start" text-anchor="middle" font-size="x-large" transform="rotate(-90,37.5,250)" x="37.5" y="250" >Count</text><line  class="poloto_axis_lines" stroke="black" x1="150" x2="150" y1="400" y2="405" /><text  class="poloto_tick_labels poloto_text" alignment-baseline="start" text-anchor="middle" x="150" y="430" > 00:00</text><line  class="poloto_axis_lines" stroke="black" x1="266.14401858304296" x2="266.14401858304296" y1="400" y2="405" /><text  class="poloto_tick_labels poloto_text" alignment-baseline="start" text-anchor="middle" x="266.14401858304296" y="430" > 06:00</text><line  class="poloto_axis_lines" stroke="black" x1="382.2880371660859" x2="382.2880371660859" y1="400" y2="405" /><text  class="poloto_tick_labels poloto_text" alignment-baseline="start" text-anchor="middle" x="382.2880371660859" y="430" > 11:00</text><line  class="poloto_axis_lines" stroke="black" x1="498.4320557491289" x2="498.4320557491289" y1="400" y2="405" /><text  class="poloto_tick_labels poloto_text" alignment-baseline="start" text-anchor="middle" x="498.4320557491289" y="430" > 17:00</text><line  class="poloto_axis_lines" stroke="black" x1="614.5760743321719" x2="614.5760743321719" y1="400" y2="405" /><text  class="poloto_tick_labels poloto_text" alignment-baseline="start" text-anchor="middle" x="614.5760743321719" y="430" > 22:00</text><line  class="poloto_axis_lines" stroke="black" x1="150" x2="144" y1="388.3773161145424" y2="388.3773161145424" /><text  class="poloto_tick_labels poloto_text" alignment-baseline="middle" text-anchor="end" x="135" y="388.3773161145424" > 1000</text><line  class="poloto_axis_lines" stroke="black" x1="150" x2="144" y1="304.15496911847276" y2="304.15496911847276" /><text  class="poloto_tick_labels poloto_text" alignment-baseline="middle" text-anchor="end" x="135" y="304.15496911847276" > 1500</text><line  class="poloto_axis_lines" stroke="black" x1="150" x2="144" y1="219.93262212240313" y2="219.93262212240313" /><text  class="poloto_tick_labels poloto_text" alignment-baseline="middle" text-anchor="end" x="135" y="219.93262212240313" > 2000</text><line  class="poloto_axis_lines" stroke="black" x1="150" x2="144" y1="135.7102751263335" y2="135.7102751263335" /><text  class="poloto_tick_labels poloto_text" alignment-baseline="middle" text-anchor="end" x="135" y="135.7102751263335" > 2500</text><path  stroke="black" fill="none" class="poloto_axis_lines" style="stroke-dasharray:14.518002322880372;stroke-dashoffset:-0;" d=" M 150 400 L 650 400" /><path  stroke="black" fill="none" class="poloto_axis_lines" style="stroke-dasharray:8.422234699606962;stroke-dashoffset:-11.622683885457604;" d=" M 150 400 L 150 100" /></svg>