<svg class="poloto" width="800" height="500" viewBox="0 0 800 500" xmlns="http://www.w3.org/2000/svg"><style>.poloto { stroke-linecap:round; stroke-linejoin:round; font-family: 'Tahoma', sans-serif; background-color: AliceBlue;} .poloto_scatter{stroke-width:7} .poloto_line{stroke-width:2} .poloto_text{fill: black;} .poloto_axis_lines{stroke: black;stroke-width:3;fill:none;stroke-dasharray:none} .poloto0stroke{stroke:  blue;} .poloto1stroke{stroke:  red;} .poloto2stroke{stroke:  green;} .poloto3stroke{stroke:  gold;} .poloto4stroke{stroke:  aqua;} .poloto5stroke{stroke:  lime;} .poloto6stroke{stroke:  orange;} .poloto7stroke{stroke:  chocolate;} .poloto0fill{fill:blue;} .poloto1fill{fill:red;} .poloto2fill{fill:green;} .poloto3fill{fill:gold;} .poloto4fill{fill:aqua;} .poloto5fill{fill:lime;} .poloto6fill{fill:orange;} .poloto7fill{fill:chocolate;}</style><text  class="poloto_text poloto_legend_text" alignment-baseline="middle" text-anchor="start" font-size="large" x="675" y="100" ></text><path  class="poloto_linefill poloto0fill" d=" M 150 400 L 150 309.4042056074766 L 151.74216027874564 315.0116822429907 L 153.4843205574913 318.69158878504675 L 155.22648083623693 320.61915887850466 L 156.96864111498257 320.0934579439253 L 158.71080139372822 321.49532710280374 L 160.45296167247386 323.9485981308411 L 162.1951219512195 326.22663551401865 L 163.93728222996515 328.6799065420561 L 165.6794425087108 330.9579439252336 L 167.42160278745644 328.1542056074766 L 169.16376306620208 327.6285046728972 L 170.90592334494772 333.2359813084112 L 172.64808362369337 342.8738317757009 L 174.390243902439 350.5841121495327 L 176.13240418118465 355.14018691588785 L 177.8745644599303 351.10981308411215 L 179.61672473867597 350.05841121495325 L 181.3588850174216 355.31542056074767 L 183.10104529616726 351.6355140186916 L 184.8432055749129 348.6565420560747 L 186.58536585365854 355.8411214953271 L 188.3275261324042 346.7289719626168 L 190.06968641114983 343.75 L 191.81184668989548 346.9042056074766 L 193.55400696864112 346.3785046728972 L 195.29616724738676 347.07943925233644 L 197.0383275261324 344.27570093457945 L 198.78048780487805 343.39953271028037 L 200.5226480836237 344.45093457943926 L 202.26480836236934 350.93457943925233 L 204.00696864111498 349.357476635514 L 205.74912891986062 346.7289719626168 L 207.49128919860627 351.8107476635514 L 209.2334494773519 353.7383177570093 L 210.97560975609755 351.9859813084112 L 212.7177700348432 349.53271028037386 L 214.45993031358887 347.7803738317757 L 216.2020905923345 343.9252336448598 L 217.94425087108016 346.7289719626168 L 219.6864111498258 346.2032710280374 L 221.42857142857144 344.8014018691589 L 223.1707317073171 343.04906542056074 L 224.91289198606273 349.00700934579436 L 226.65505226480838 346.7289719626168 L 228.39721254355402 345.8528037383178 L 230.13937282229966 343.5747663551402 L 231.8815331010453 334.1121495327103 L 233.62369337979095 331.8341121495327 L 235.3658536585366 325.1752336448598 L 237.10801393728224 318.69158878504675 L 238.85017421602788 316.4135514018692 L 240.59233449477352 312.0327102803738 L 242.33449477351917 306.4252336448598 L 244.0766550522648 310.63084112149534 L 245.81881533101046 309.4042056074766 L 247.56678281068525 305.72429906542055 L 249.30313588850174 400 L 251.0452961672474 309.053738317757 L 252.78745644599303 312.55841121495325 L 254.52961672473867 314.3107476635514 L 256.2717770034843 321.3200934579439 L 258.01393728222996 314.3107476635514 L 259.7560975609756 316.4135514018692 L 261.49825783972125 315.0116822429907 L 263.2404181184669 312.7336448598131 L 264.98257839721254 312.55841121495325 L 266.7247386759582 313.60981308411215 L 268.4668989547038 314.1355140186916 L 270.20905923344947 309.57943925233644 L 271.9512195121951 307.82710280373834 L 273.69337979094075 306.95093457943926 L 275.44134727061555 306.4252336448598 L 277.17770034843204 308.35280373831773 L 278.9198606271777 307.82710280373834 L 280.6620209059233 310.80607476635515 L 282.40418118466897 310.1051401869159 L 284.1463414634146 316.58878504672896 L 285.88850174216026 307.4766355140187 L 287.6306620209059 311.85747663551405 L 289.37282229965155 311.85747663551405 L 291.1149825783972 315.0116822429907 L 292.85714285714283 305.89953271028037 L 294.5993031358885 307.82710280373834 L 296.3414634146342 304.3224299065421 L 298.08362369337976 302.92056074766356 L 299.82578397212546 300.4672897196262 L 301.56794425087105 300.11682242990656 L 303.31010452961675 301.3434579439252 L 305.05226480836234 292.93224299065423 L 306.79442508710804 300.11682242990656 L 308.5365853658536 296.7873831775701 L 310.2787456445993 296.96261682242994 L 312.0209059233449 289.95327102803736 L 313.7630662020906 282.5934579439252 L 315.5052264808362 283.99532710280374 L 317.2473867595819 287.14953271028037 L 318.9895470383275 285.5724299065421 L 320.7317073170732 280.14018691588785 L 322.4738675958188 283.4696261682243 L 324.2160278745645 281.36682242990656 L 325.95818815331006 279.4392523364486 L 327.70034843205576 282.4182242990654 L 329.44250871080135 280.6658878504673 L 331.18466898954705 281.892523364486 L 332.92682926829264 283.11915887850466 L 334.66898954703834 278.0373831775701 L 336.4111498257839 272.4299065420561 L 338.1533101045296 272.25467289719626 L 339.8954703832752 273.48130841121497 L 341.6376306620209 271.20327102803736 L 343.3797909407665 265.24532710280374 L 345.1219512195122 261.0397196261682 L 346.86411149825784 260.33878504672896 L 348.6062717770035 256.30841121495325 L 350.34843205574913 261.39018691588785 L 352.0905923344948 252.1028037383178 L 353.8327526132404 254.90654205607478 L 355.57491289198606 255.95794392523362 L 357.3170731707317 250.35046728971963 L 359.05923344947735 279.2640186915888 L 360.801393728223 246.1448598130841 L 362.54355400696863 242.81542056074767 L 364.2857142857143 238.25934579439252 L 366.0278745644599 238.0841121495327 L 367.77003484320556 233.70327102803736 L 369.5121951219512 231.95093457943926 L 371.25435540069685 221.96261682242994 L 372.9965156794425 215.4789719626168 L 374.73867595818814 210.92289719626172 L 376.4808362369338 212.14953271028037 L 378.2229965156794 209.5210280373832 L 379.96515679442507 209.696261682243 L 381.7073170731707 200.23364485981307 L 383.44947735191636 203.03738317757012 L 385.191637630662 212.14953271028037 L 386.93379790940764 202.33644859813086 L 388.6759581881533 207.94392523364485 L 390.41811846689893 208.4696261682243 L 392.1602787456446 206.19158878504675 L 393.9024390243902 207.59345794392522 L 395.6445993031359 205.31542056074767 L 397.3867595818815 203.21261682242994 L 399.1289198606272 200.05841121495325 L 400.8710801393728 207.76869158878503 L 402.6132404181185 206.36682242990656 L 404.3554006968641 201.98598130841123 L 406.0975609756097 208.6448598130841 L 407.83972125435537 220.21028037383178 L 409.581881533101 200.75934579439252 L 411.32404181184666 203.73831775700933 L 413.0662020905923 204.96495327102804 L 414.80836236933794 193.22429906542055 L 416.5505226480836 189.54439252336448 L 418.29268292682923 188.142523364486 L 420.0348432055749 187.79205607476638 L 421.7770034843206 179.90654205607478 L 423.5191637630662 174.64953271028037 L 425.26132404181186 171.84579439252337 L 427.0034843205575 165.71261682242994 L 428.74564459930315 164.83644859813086 L 430.4878048780488 155.37383177570092 L 432.22996515679444 157.4766355140187 L 433.9721254355401 153.62149532710282 L 435.7142857142857 155.89953271028037 L 437.45644599303137 153.62149532710282 L 439.198606271777 152.04439252336448 L 440.94076655052265 158.70327102803742 L 442.6829268292683 141.88084112149534 L 444.42508710801394 139.25233644859816 L 446.1672473867596 145.73598130841123 L 447.9094076655052 141.17990654205607 L 449.65156794425087 142.5817757009346 L 451.3937282229965 141.70560747663552 L 453.13588850174216 126.46028037383178 L 454.8780487804878 166.9392523364486 L 456.62020905923345 164.48598130841123 L 458.3623693379791 121.553738317757 L 460.10452961672473 112.9672897196262 L 461.8466898954704 105.0817757009346 L 463.588850174216 106.1331775700935 L 465.33101045296166 108.41121495327104 L 467.0731707317073 111.9158878504673 L 468.81533101045295 105.78271028037386 L 470.5574912891986 108.23598130841123 L 472.29965156794424 100 L 474.0418118466899 104.0303738317757 L 475.7839721254355 103.15420560747663 L 477.52613240418117 106.30841121495331 L 479.2682926829268 106.1331775700935 L 481.01045296167246 104.38084112149534 L 482.7526132404181 112.09112149532712 L 484.49477351916374 121.0280373831776 L 486.2369337979094 108.41121495327104 L 487.97909407665503 109.98831775700938 L 489.7212543554007 118.22429906542055 L 491.4634146341463 120.32710280373834 L 493.20557491289196 120.50233644859816 L 494.9477351916376 123.30607476635515 L 496.68989547038325 129.08878504672896 L 498.4320557491289 135.22196261682245 L 500.17421602787454 131.7172897196262 L 501.9163763066202 139.07710280373834 L 503.6585365853658 129.26401869158877 L 505.40069686411147 122.95560747663552 L 507.1428571428571 121.553738317757 L 508.88501742160275 121.0280373831776 L 510.6271777003484 126.28504672897196 L 512.3693379790941 131.01635514018693 L 514.1114982578397 138.02570093457945 L 515.8536585365853 144.15887850467288 L 517.595818815331 145.3855140186916 L 519.3379790940767 146.26168224299067 L 521.0801393728223 149.24065420560748 L 522.822299651568 146.6121495327103 L 524.5644599303137 146.6121495327103 L 526.3066202090592 141.70560747663552 L 528.0487804878048 154.14719626168227 L 529.7909407665505 163.78504672897196 L 531.5331010452962 161.3317757009346 L 533.2752613240418 177.1028037383178 L 535.0174216027874 169.9182242990654 L 536.7595818815331 174.64953271028037 L 538.5017421602788 169.9182242990654 L 540.2439024390244 174.29906542056074 L 541.98606271777 177.45327102803736 L 543.7282229965157 174.64953271028037 L 545.4703832752614 179.38084112149534 L 547.212543554007 180.43224299065423 L 548.9547038327526 190.07009345794393 L 550.6968641114983 198.30607476635515 L 552.439024390244 192.6985981308411 L 554.1811846689895 198.48130841121497 L 555.9233449477351 201.6355140186916 L 557.6655052264808 207.24299065420564 L 559.4076655052265 215.65420560747663 L 561.1498257839721 205.31542056074767 L 562.8919860627177 208.82009345794393 L 564.6341463414634 213.37616822429908 L 566.3763066202091 223.3644859813084 L 568.1184668989547 220.91121495327104 L 569.8606271777003 218.80841121495325 L 571.602787456446 223.01401869158877 L 573.3449477351917 225.4672897196262 L 575.0871080139373 236.3317757009346 L 576.8292682926829 235.98130841121497 L 578.5714285714286 236.15654205607478 L 580.3135888501743 235.1051401869159 L 582.0557491289198 231.77570093457945 L 583.7979094076654 238.96028037383178 L 585.5400696864111 235.80607476635515 L 587.2822299651568 235.1051401869159 L 589.0243902439024 233.17757009345797 L 590.766550522648 228.2710280373832 L 592.5087108013937 234.053738317757 L 594.2508710801394 241.9392523364486 L 595.993031358885 240.88785046728975 L 597.7351916376306 245.09345794392522 L 599.4773519163763 249.47429906542055 L 601.219512195122 234.40420560747663 L 602.9616724738676 232.3014018691589 L 604.7038327526132 235.45560747663552 L 606.4459930313589 245.79439252336448 L 608.1881533101046 235.80607476635515 L 609.9303135888501 232.12616822429908 L 611.6724738675957 239.1355140186916 L 613.4146341463414 242.81542056074767 L 615.1567944250871 247.89719626168227 L 616.8989547038327 244.9182242990654 L 618.6411149825783 249.82476635514018 L 620.383275261324 252.62850467289718 L 622.1254355400697 246.49532710280374 L 623.8675958188153 254.55607476635515 L 625.609756097561 254.90654205607478 L 627.3519163763067 261.7406542056075 L 629.0940766550523 261.56542056074767 L 630.8362369337979 272.07943925233644 L 632.5783972125436 256.30841121495325 L 634.3205574912893 252.1028037383178 L 636.0627177700349 254.20560747663552 L 637.8048780487804 275.4088785046729 L 639.5470383275261 285.92289719626166 L 641.2891986062718 283.11915887850466 L 643.0313588850174 286.0981308411215 L 644.773519163763 287.5 L 646.5156794425087 288.7266355140187 L 648.2578397212544 295.3855140186916 L 650 333.41121495327104 L 650 400 Z" /><text  class="poloto_labels poloto_text poloto_title" alignment-baseline="start" text-anchor="middle" font-size="x-large" x="400" y="37.5" >Total players on 2021-07-16</text><text  class="poloto_labels poloto_text poloto_xname" alignment-baseline="start" text-anchor="middle" font-size="x-large" x="400" y="481.25" >Time</text><text  class="poloto_labels poloto_text poloto_yname" alignment-baseline="start" text-anchor="middle" font-size="x-large" transform="rotate(-90,37.5,250)" x="37.5" y="250" >Count</text><line  class="poloto_axis_lines" stroke="black" x1="208.0487804878049" x2="208.0487804878049" y1="400" y2="405" /><text  class="poloto_tick_labels poloto_text" alignment-baseline="start" text-anchor="middle" x="208.0487804878049" y="430" > 02:46:40</text><line  class="poloto_axis_lines" stroke="black" x1="266.1207897793264" x2="266.1207897793264" y1="400" y2="405" /><text  class="poloto_tick_labels poloto_text" alignment-baseline="start" text-anchor="middle" x="266.1207897793264" y="430" > 05:33:20</text><line  class="poloto_axis_lines" stroke="black" x1="324.19279907084785" x2="324.19279907084785" y1="400" y2="405" /><text  class="poloto_tick_labels poloto_text" alignment-baseline="start" text-anchor="middle" x="324.19279907084785" y="430" > 08:20:00</text><line  class="poloto_axis_lines" stroke="black" x1="382.2648083623693" x2="382.2648083623693" y1="400" y2="405" /><text  class="poloto_tick_labels poloto_text" alignment-baseline="start" text-anchor="middle" x="382.2648083623693" y="430" > 11:06:40</text><line  class="poloto_axis_lines" stroke="black" x1="440.3368176538908" x2="440.3368176538908" y1="400" y2="405" /><text  class="poloto_tick_labels poloto_text" alignment-baseline="start" text-anchor="middle" x="440.3368176538908" y="430" > 13:53:20</text><line  class="poloto_axis_lines" stroke="black" x1="498.4088269454123" x2="498.4088269454123" y1="400" y2="405" /><text  class="poloto_tick_labels poloto_text" alignment-baseline="start" text-anchor="middle" x="498.4088269454123" y="430" > 16:40:00</text><line  class="poloto_axis_lines" stroke="black" x1="556.4808362369338" x2="556.4808362369338" y1="400" y2="405" /><text  class="poloto_tick_labels poloto_text" alignment-baseline="start" text-anchor="middle" x="556.4808362369338" y="430" > 19:26:40</text><line  class="poloto_axis_lines" stroke="black" x1="614.5528455284552" x2="614.5528455284552" y1="400" y2="405" /><text  class="poloto_tick_labels poloto_text" alignment-baseline="start" text-anchor="middle" x="614.5528455284552" y="430" > 22:13:20</text><line  class="poloto_axis_lines" stroke="black" x1="150" x2="144" y1="392.81542056074767" y2="392.81542056074767" /><text  class="poloto_tick_labels poloto_text" alignment-baseline="middle" text-anchor="end" x="135" y="392.81542056074767" > 1000</text><line  class="poloto_axis_lines" stroke="black" x1="150" x2="144" y1="305.1985981308411" y2="305.1985981308411" /><text  class="poloto_tick_labels poloto_text" alignment-baseline="middle" text-anchor="end" x="135" y="305.1985981308411" > 1500</text><line  class="poloto_axis_lines" stroke="black" x1="150" x2="144" y1="217.5817757009346" y2="217.5817757009346" /><text  class="poloto_tick_labels poloto_text" alignment-baseline="middle" text-anchor="end" x="135" y="217.5817757009346" > 2000</text><line  class="poloto_axis_lines" stroke="black" x1="150" x2="144" y1="129.96495327102804" y2="129.96495327102804" /><text  class="poloto_tick_labels poloto_text" alignment-baseline="middle" text-anchor="end" x="135" y="129.96495327102804" > 2500</text><path  stroke="black" fill="none" class="poloto_axis_lines" style="stroke-dasharray:14.518002322880372;stroke-dashoffset:-58.04878048780488;" d=" M 150 400 L 650 400" /><path  stroke="black" fill="none" class="poloto_axis_lines" style="stroke-dasharray:8.761682242990654;stroke-dashoffset:-7.184579439252332;" d=" M 150 400 L 150 100" /></svg>