<svg class="poloto" width="800" height="500" viewBox="0 0 800 500" xmlns="http://www.w3.org/2000/svg"><style>.poloto { stroke-linecap:round; stroke-linejoin:round; font-family: 'Tahoma', sans-serif; background-color: AliceBlue;} .poloto_scatter{stroke-width:7} .poloto_line{stroke-width:2} .poloto_text{fill: black;} .poloto_axis_lines{stroke: black;stroke-width:3;fill:none;stroke-dasharray:none} .poloto0stroke{stroke:  blue;} .poloto1stroke{stroke:  red;} .poloto2stroke{stroke:  green;} .poloto3stroke{stroke:  gold;} .poloto4stroke{stroke:  aqua;} .poloto5stroke{stroke:  lime;} .poloto6stroke{stroke:  orange;} .poloto7stroke{stroke:  chocolate;} .poloto0fill{fill:blue;} .poloto1fill{fill:red;} .poloto2fill{fill:green;} .poloto3fill{fill:gold;} .poloto4fill{fill:aqua;} .poloto5fill{fill:lime;} .poloto6fill{fill:orange;} .poloto7fill{fill:chocolate;}</style><text  class="poloto_text poloto_legend_text" alignment-baseline="middle" text-anchor="start" font-size="large" x="675" y="100" ></text><path  class="poloto_linefill poloto0fill" d=" M 150 400 L 150 362.10221793635486 L 151.74216027874564 362.3915139826422 L 153.4843205574913 367.0202507232401 L 155.22648083623693 366.29701060752166 L 156.96864111498257 370.20250723240116 L 158.71080139372822 376.5670202507232 L 160.45296167247386 377.86885245901635 L 162.1951219512195 373.67405978784956 L 163.93728222996515 380.76181292189005 L 165.6794425087108 380.03857280617166 L 167.42160278745644 379.02603664416586 L 169.16376306620208 379.7492767598843 L 170.90592334494772 381.77434908389586 L 172.64808362369337 381.62970106075215 L 174.390243902439 383.9440694310511 L 176.13240418118465 381.4850530376085 L 177.8745644599303 382.3529411764706 L 179.61672473867597 386.98167791706845 L 181.3588850174216 386.11378977820635 L 183.10104529616726 386.98167791706845 L 184.8432055749129 388.4281581485053 L 186.58536585365854 391.17647058823525 L 188.3275261324042 389.2960462873674 L 190.06968641114983 390.88717454194796 L 191.81184668989548 390.4532304725169 L 193.55400696864112 391.0318225650916 L 195.29616724738676 391.17647058823525 L 197.0383275261324 394.7926711668274 L 198.78048780487805 393.49083895853425 L 200.5226480836237 394.21407907425265 L 202.26480836236934 392.62295081967216 L 204.00696864111498 397.83027965284475 L 205.74912891986062 397.1070395371263 L 207.49128919860627 397.9749276759884 L 209.2334494773519 396.5284474445516 L 210.97560975609755 396.5284474445516 L 212.7177700348432 397.9749276759884 L 214.45993031358887 393.34619093539055 L 216.2020905923345 395.6605593056895 L 217.94425087108016 393.9247830279653 L 219.6864111498258 392.0443587270974 L 221.42857142857144 390.59787849566055 L 223.1707317073171 392.47830279652845 L 224.91289198606273 394.35872709739635 L 226.65505226480838 397.3963355834137 L 228.39721254355402 399.7107039537126 L 230.13937282229966 400 L 231.8815331010453 399.56605593056895 L 233.62369337979095 395.3712632594021 L 235.3658536585366 393.9247830279653 L 237.10801393728224 392.9122468659595 L 238.85017421602788 386.98167791706845 L 240.59233449477352 385.824493731919 L 242.33449477351917 385.39054966248796 L 244.0766550522648 386.25843780135006 L 245.81881533101046 388.1388621022179 L 247.5609756097561 386.5477338476374 L 249.30313588850174 385.824493731919 L 251.0452961672474 387.2709739633558 L 252.78745644599303 383.36547733847635 L 254.52961672473867 380.6171648987464 L 256.2717770034843 382.3529411764706 L 258.01393728222996 380.6171648987464 L 259.7560975609756 377.57955641272906 L 261.49825783972125 378.44744455159116 L 263.2404181184669 371.93828351012536 L 264.98257839721254 371.3596914175506 L 266.7247386759582 371.07039537126326 L 268.4668989547038 374.68659594985536 L 270.20905923344947 370.34715525554486 L 271.9512195121951 367.0202507232401 L 273.69337979094075 365.5737704918033 L 275.4355400696864 363.2594021215043 L 277.17770034843204 363.11475409836066 L 278.91986062717774 364.56123432979746 L 280.6620209059233 363.11475409836066 L 282.404181184669 363.83799421407906 L 284.1463414634146 361.6682738669238 L 285.8885017421603 362.10221793635486 L 287.6306620209059 365.5737704918033 L 289.3728222996516 367.8881388621022 L 291.1149825783972 369.18997107039536 L 292.8571428571429 374.9758919961427 L 294.5993031358885 372.2275795564127 L 296.3414634146342 373.52941176470586 L 298.08362369337976 374.2526518804243 L 299.82578397212546 368.32208293153326 L 301.56794425087105 370.05785920925746 L 303.31010452961675 368.61137897782066 L 305.05226480836234 363.69334619093536 L 306.79442508710804 362.97010607521696 L 308.5365853658536 367.16489874638376 L 310.2787456445993 360.655737704918 L 312.0209059233449 359.7878495660559 L 313.7630662020906 354.2912246865959 L 315.5052264808362 355.01446480231436 L 317.2473867595819 354.0019286403086 L 318.9895470383275 350.2410800385728 L 320.7317073170732 350.9643201542912 L 322.4738675958188 350.8196721311475 L 324.2160278745645 347.6374156219865 L 325.9581881533101 350.2410800385728 L 327.70034843205576 349.9517839922854 L 329.4425087108014 347.78206364513017 L 331.18466898954705 349.9517839922854 L 332.9268292682927 350.53037608486017 L 334.66898954703834 345.17839922854387 L 336.411149825784 354.43587270973967 L 338.1533101045296 338.5245901639344 L 339.89547038327527 331.58148505303757 L 341.6376306620209 329.4117647058823 L 343.37979094076655 331.1475409836065 L 345.1219512195122 326.0848601735776 L 346.86411149825784 326.808100289296 L 348.6062717770035 325.0723240115718 L 350.34843205574913 326.808100289296 L 352.0905923344948 324.9276759884282 L 353.8327526132404 318.7078109932497 L 355.57491289198606 318.7078109932497 L 357.3170731707317 309.5949855351977 L 359.05923344947735 310.4628736740598 L 360.801393728223 302.5072324011572 L 362.54355400696863 303.80906460945033 L 364.2857142857143 300.6268081002893 L 366.0278745644599 299.32497589199613 L 367.77003484320556 299.32497589199613 L 369.5121951219512 293.9729990356799 L 371.25435540069685 291.36933461909354 L 372.9965156794425 283.99228543876563 L 374.73867595818814 281.53326904532304 L 376.4808362369338 276.7598842815815 L 378.2229965156795 285.7280617164899 L 379.96515679442507 279.5081967213115 L 381.70731707317077 274.1562198649952 L 383.44947735191636 270.68466730954674 L 385.19163763066206 265.3326904532305 L 386.93379790940764 264.4648023143684 L 388.67595818815334 263.45226615236254 L 390.41811846689893 262.58437801350044 L 392.16027874564463 257.95564127290265 L 393.9024390243902 254.91803278688528 L 395.6445993031359 240.30858244937318 L 397.3867595818815 245.80520732883318 L 399.1289198606272 238.42815814850533 L 400.8710801393728 236.40308582449373 L 402.6132404181185 236.54773384763743 L 404.3554006968641 221.21504339440693 L 406.0975609756098 219.47926711668273 L 407.8397212543554 215.28447444551594 L 409.58188153310107 208.77531340405014 L 411.3240418118467 199.6624879459981 L 413.06620209059236 199.6624879459981 L 414.808362369338 196.33558341369334 L 416.55052264808364 192.4300867888139 L 418.2926829268293 183.89585342333655 L 420.03484320557493 179.8457087753134 L 421.7770034843206 175.07232401157185 L 423.5191637630662 169.72034715525555 L 425.26132404181186 172.7579556412729 L 427.0034843205575 171.60077145612345 L 428.74564459930315 168.70781099324975 L 430.4878048780488 176.66345226615235 L 432.22996515679444 172.46865959498555 L 433.9721254355401 166.6827386692382 L 435.7142857142857 166.24879459980716 L 437.45644599303137 157.8592092574735 L 439.198606271777 155.9787849566056 L 440.94076655052265 153.2304725168756 L 442.6829268292683 147.8784956605593 L 444.42508710801394 145.70877531340406 L 446.1672473867596 149.18032786885246 L 447.9094076655052 142.8158148505304 L 449.65156794425087 144.2622950819672 L 451.3937282229965 143.39440694310508 L 453.13588850174216 141.0800385728062 L 454.8780487804878 138.7656702025073 L 456.62020905923345 129.94214079074254 L 458.3623693379791 127.62777242044365 L 460.10452961672473 122.13114754098365 L 461.8466898954704 126.9045323047252 L 463.588850174216 121.6972034715526 L 465.33101045296166 116.77917068466729 L 467.0731707317073 115.0433944069431 L 468.81533101045295 111.8611378977821 L 470.5574912891986 101.1571841851495 L 472.29965156794424 100 L 474.0418118466899 102.74831243973006 L 475.7839721254355 105.7859209257474 L 477.52613240418117 109.5467695274831 L 479.2682926829268 116.34522661523624 L 481.01045296167246 108.82352941176475 L 482.7526132404181 113.5969141755063 L 484.49477351916374 113.5969141755063 L 486.2369337979094 116.2005785920926 L 487.97909407665503 125.31340405014464 L 489.7212543554007 128.49566055930575 L 491.4634146341463 129.94214079074254 L 493.20557491289196 134.42622950819668 L 494.9477351916376 140.2121504339441 L 496.68989547038325 145.9980713596914 L 498.4320557491289 150.771456123433 L 500.17421602787454 152.65188042430086 L 501.91637630662024 156.702025072324 L 503.6585365853659 159.7396335583414 L 505.4006968641115 177.2420443587271 L 507.14285714285717 174.20443587270975 L 508.8850174216028 180.7135969141755 L 510.62717770034845 177.3866923818708 L 512.3693379790941 179.2671166827387 L 514.1114982578397 185.77627772420445 L 515.8536585365854 190.11571841851494 L 517.5958188153311 184.18514946962395 L 519.3379790940767 187.51205400192865 L 521.0801393728223 191.7068466730955 L 522.822299651568 193.00867888138865 L 524.5644599303137 197.6374156219865 L 526.3066202090592 193.297974927676 L 528.0487804878048 198.5053037608486 L 529.7909407665505 213.54869816779174 L 531.5331010452962 221.9382835101254 L 533.2752613240418 217.4541947926712 L 535.0174216027874 215.5737704918033 L 536.7595818815331 225.12054001928644 L 538.5017421602788 216.00771456123434 L 540.2439024390244 219.3346190935391 L 541.98606271777 215.13982642237224 L 543.7282229965157 223.38476374156218 L 545.4703832752614 223.52941176470588 L 547.212543554007 221.21504339440693 L 548.9547038327526 222.66152362584378 L 550.6968641114983 225.84378013500483 L 552.439024390244 227.2902603664417 L 554.1811846689895 227.14561234329798 L 555.9233449477351 229.89392478302798 L 557.6655052264808 240.16393442622953 L 559.4076655052265 235.82449373191898 L 561.1498257839721 235.39054966248793 L 562.8919860627177 236.98167791706848 L 564.6341463414634 240.30858244937318 L 566.3763066202091 235.39054966248793 L 568.1184668989547 242.04435872709743 L 569.8606271777003 247.97492767598843 L 571.602787456446 249.27675988428157 L 573.3449477351917 249.85535197685633 L 575.0871080139373 252.16972034715528 L 576.8292682926829 254.33944069431053 L 578.5714285714286 262.4397299903568 L 580.3135888501743 266.92381870781105 L 582.0557491289198 263.3076181292189 L 583.7979094076654 268.8042430086789 L 585.5400696864111 270.68466730954674 L 587.2822299651568 270.68466730954674 L 589.0243902439024 270.2507232401157 L 590.766550522648 268.22565091610414 L 592.5087108013937 267.3577627772421 L 594.2508710801394 263.3076181292189 L 595.993031358885 264.32015429122464 L 597.7351916376306 260.4146576663452 L 599.4773519163763 270.10607521697204 L 601.219512195122 273.2883317261331 L 602.9616724738676 273.1436837029894 L 604.7038327526133 279.07425265188044 L 606.445993031359 279.2189006750241 L 608.1881533101046 275.45805207328834 L 609.9303135888501 275.45805207328834 L 611.6724738675958 284.4262295081967 L 613.4146341463415 286.16200578592094 L 615.1567944250871 284.28158148505304 L 616.8989547038327 288.91031822565094 L 618.6411149825784 291.51398264223724 L 620.3832752613241 291.36933461909354 L 622.1254355400697 294.98553519768564 L 623.8675958188153 299.7589199614272 L 625.609756097561 303.3751205400193 L 627.3519163763067 305.54484088717453 L 629.0940766550523 308.29315332690453 L 630.8362369337979 308.29315332690453 L 632.5783972125436 311.18611378977823 L 634.3205574912893 305.1108968177435 L 636.0627177700349 309.16104146576663 L 637.8048780487804 316.2487945998071 L 639.5470383275261 323.9151398264224 L 641.2891986062718 329.5564127290261 L 643.0313588850174 332.4493731918997 L 644.773519163763 333.1726133076181 L 646.5156794425087 335.6316297010608 L 648.2578397212544 337.22275795564127 L 650 340.2603664416586 L 650 400 Z" /><text  class="poloto_labels poloto_text poloto_title" alignment-baseline="start" text-anchor="middle" font-size="x-large" x="400" y="37.5" >Total players on 2021-11-26</text><text  class="poloto_labels poloto_text poloto_xname" alignment-baseline="start" text-anchor="middle" font-size="x-large" x="400" y="481.25" >Time</text><text  class="poloto_labels poloto_text poloto_yname" alignment-baseline="start" text-anchor="middle" font-size="x-large" transform="rotate(-90,37.5,250)" x="37.5" y="250" >Count</text><line  class="poloto_axis_lines" stroke="black" x1="150" x2="150" y1="400" y2="405" /><text  class="poloto_tick_labels poloto_text" alignment-baseline="start" text-anchor="middle" x="150" y="430" > 00:00:00</text><line  class="poloto_axis_lines" stroke="black" x1="266.14401858304296" x2="266.14401858304296" y1="400" y2="405" /><text  class="poloto_tick_labels poloto_text" alignment-baseline="start" text-anchor="middle" x="266.14401858304296" y="430" > 05:33:20</text><line  class="poloto_axis_lines" stroke="black" x1="382.2880371660859" x2="382.2880371660859" y1="400" y2="405" /><text  class="poloto_tick_labels poloto_text" alignment-baseline="start" text-anchor="middle" x="382.2880371660859" y="430" > 11:06:40</text><line  class="poloto_axis_lines" stroke="black" x1="498.4320557491289" x2="498.4320557491289" y1="400" y2="405" /><text  class="poloto_tick_labels poloto_text" alignment-baseline="start" text-anchor="middle" x="498.4320557491289" y="430" > 16:40:00</text><line  class="poloto_axis_lines" stroke="black" x1="614.5760743321719" x2="614.5760743321719" y1="400" y2="405" /><text  class="poloto_tick_labels poloto_text" alignment-baseline="start" text-anchor="middle" x="614.5760743321719" y="430" > 22:13:20</text><line  class="poloto_axis_lines" stroke="black" x1="150" x2="144" y1="378.73674059787845" y2="378.73674059787845" /><text  class="poloto_tick_labels poloto_text" alignment-baseline="middle" text-anchor="end" x="135" y="378.73674059787845" > 1000</text><line  class="poloto_axis_lines" stroke="black" x1="150" x2="144" y1="306.4127290260367" y2="306.4127290260367" /><text  class="poloto_tick_labels poloto_text" alignment-baseline="middle" text-anchor="end" x="135" y="306.4127290260367" > 1500</text><line  class="poloto_axis_lines" stroke="black" x1="150" x2="144" y1="234.0887174541948" y2="234.0887174541948" /><text  class="poloto_tick_labels poloto_text" alignment-baseline="middle" text-anchor="end" x="135" y="234.0887174541948" > 2000</text><line  class="poloto_axis_lines" stroke="black" x1="150" x2="144" y1="161.76470588235293" y2="161.76470588235293" /><text  class="poloto_tick_labels poloto_text" alignment-baseline="middle" text-anchor="end" x="135" y="161.76470588235293" > 2500</text><path  stroke="black" fill="none" class="poloto_axis_lines" style="stroke-dasharray:14.518002322880372;stroke-dashoffset:-0;" d=" M 150 400 L 650 400" /><path  stroke="black" fill="none" class="poloto_axis_lines" style="stroke-dasharray:7.232401157184185;stroke-dashoffset:-21.26325940212152;" d=" M 150 400 L 150 100" /></svg>