<svg class="poloto" width="800" height="500" viewBox="0 0 800 500" xmlns="http://www.w3.org/2000/svg"><style>.poloto { stroke-linecap:round; stroke-linejoin:round; font-family: 'Tahoma', sans-serif; background-color: AliceBlue;} .poloto_scatter{stroke-width:7} .poloto_line{stroke-width:2} .poloto_text{fill: black;} .poloto_axis_lines{stroke: black;stroke-width:3;fill:none;stroke-dasharray:none} .poloto0stroke{stroke:  blue;} .poloto1stroke{stroke:  red;} .poloto2stroke{stroke:  green;} .poloto3stroke{stroke:  gold;} .poloto4stroke{stroke:  aqua;} .poloto5stroke{stroke:  lime;} .poloto6stroke{stroke:  orange;} .poloto7stroke{stroke:  chocolate;} .poloto0fill{fill:blue;} .poloto1fill{fill:red;} .poloto2fill{fill:green;} .poloto3fill{fill:gold;} .poloto4fill{fill:aqua;} .poloto5fill{fill:lime;} .poloto6fill{fill:orange;} .poloto7fill{fill:chocolate;}</style><text  class="poloto_text poloto_legend_text" alignment-baseline="middle" text-anchor="start" font-size="large" x="675" y="100" ></text><path  class="poloto_linefill poloto0fill" d=" M 150 400 L 150 366.54929577464793 L 151.74216027874564 365.49295774647885 L 153.4843205574913 372.53521126760563 L 155.22648083623693 381.1619718309859 L 156.96864111498257 382.7464788732394 L 158.71080139372822 385.91549295774644 L 160.45296167247386 382.3943661971831 L 162.1951219512195 386.9718309859155 L 163.93728222996515 391.19718309859155 L 165.6794425087108 390.14084507042253 L 167.42160278745644 396.30281690140845 L 169.16376306620208 389.2605633802817 L 170.90592334494772 387.1478873239437 L 172.64808362369337 386.443661971831 L 174.390243902439 382.57042253521126 L 176.13240418118465 383.09859154929575 L 177.8745644599303 388.0281690140845 L 179.61672473867597 392.42957746478874 L 181.3588850174216 392.78169014084506 L 183.10104529616726 400 L 184.8432055749129 395.7746478873239 L 186.58536585365854 394.71830985915494 L 188.3275261324042 392.6056338028169 L 190.06968641114983 389.2605633802817 L 191.81184668989548 385.7394366197183 L 193.55400696864112 391.02112676056333 L 195.29616724738676 393.8380281690141 L 197.0383275261324 394.8943661971831 L 198.78048780487805 390.669014084507 L 200.5226480836237 397.53521126760563 L 202.26480836236934 393.8380281690141 L 204.00696864111498 393.4859154929577 L 205.74912891986062 386.443661971831 L 207.49128919860627 388.90845070422534 L 209.2334494773519 382.9225352112676 L 210.97560975609755 382.7464788732394 L 212.7177700348432 382.0422535211268 L 214.45993031358887 380.4577464788732 L 216.2020905923345 383.80281690140845 L 217.94425087108016 380.6338028169014 L 219.6864111498258 384.6830985915493 L 221.42857142857144 380.6338028169014 L 223.1707317073171 373.41549295774644 L 224.91289198606273 366.90140845070425 L 226.65505226480838 359.330985915493 L 228.39721254355402 354.04929577464793 L 230.13937282229966 351.05633802816897 L 231.8815331010453 350.17605633802816 L 233.62369337979095 352.11267605633805 L 235.3658536585366 352.8169014084507 L 237.10801393728224 357.57042253521126 L 238.85017421602788 350.5281690140845 L 240.59233449477352 349.29577464788736 L 242.33449477351917 341.7253521126761 L 244.0766550522648 338.0281690140845 L 245.81881533101046 332.7464788732394 L 247.5609756097561 333.8028169014084 L 249.30313588850174 331.69014084507046 L 251.0452961672474 338.20422535211264 L 252.78745644599303 327.99295774647885 L 254.52961672473867 320.95070422535207 L 256.2717770034843 315.49295774647885 L 258.01393728222996 320.4225352112676 L 259.7560975609756 313.0281690140845 L 261.49825783972125 309.85915492957747 L 263.2404181184669 298.94366197183103 L 264.98257839721254 298.5915492957746 L 266.7247386759582 300.70422535211264 L 268.4668989547038 298.2394366197183 L 270.20905923344947 301.58450704225356 L 271.9512195121951 297.35915492957747 L 273.69337979094075 305.80985915492954 L 275.4355400696864 304.2253521126761 L 277.17770034843204 295.59859154929575 L 278.91986062717774 298.94366197183103 L 280.6620209059233 295.2464788732394 L 282.404181184669 291.54929577464793 L 284.1463414634146 301.05633802816897 L 285.8885017421603 293.4859154929577 L 287.6306620209059 298.76760563380276 L 289.3728222996516 297.88732394366195 L 291.1149825783972 301.05633802816897 L 292.8571428571429 300.3521126760563 L 294.5993031358885 299.6478873239437 L 296.3414634146342 295.2464788732394 L 298.08362369337976 289.7887323943662 L 299.82578397212546 288.7323943661971 L 301.56794425087105 285.5633802816901 L 303.31010452961675 274.82394366197184 L 305.05226480836234 272.7112676056338 L 306.79442508710804 271.47887323943667 L 308.5365853658536 261.0915492957746 L 310.2787456445993 262.1478873239437 L 312.0209059233449 259.50704225352115 L 313.7630662020906 263.9084507042254 L 315.5052264808362 256.16197183098586 L 317.2473867595819 258.97887323943667 L 318.9895470383275 254.75352112676055 L 320.7317073170732 252.46478873239434 L 322.4738675958188 243.8380281690141 L 324.2160278745645 245.42253521126761 L 325.9581881533101 241.5492957746479 L 327.70034843205576 241.72535211267606 L 329.4425087108014 242.7816901408451 L 331.18466898954705 234.68309859154928 L 332.9268292682927 231.1619718309859 L 334.66898954703834 235.38732394366198 L 336.411149825784 233.80281690140848 L 338.1533101045296 239.43661971830986 L 339.89547038327527 225.1760563380282 L 341.6376306620209 226.93661971830986 L 343.37979094076655 231.51408450704227 L 345.1219512195122 228.52112676056336 L 346.86411149825784 226.40845070422537 L 348.6062717770035 235.56338028169014 L 350.34843205574913 225.70422535211267 L 352.0905923344948 226.2323943661972 L 353.8327526132404 209.1549295774648 L 355.57491289198606 203.87323943661974 L 357.3170731707317 199.29577464788733 L 359.05923344947735 197.18309859154928 L 360.801393728223 185.03521126760566 L 362.54355400696863 185.56338028169014 L 364.2857142857143 180.6338028169014 L 366.0278745644599 175.5281690140845 L 367.77003484320556 161.79577464788733 L 369.5121951219512 168.30985915492957 L 371.25435540069685 164.2605633802817 L 372.9965156794425 170.42253521126761 L 374.73867595818814 168.66197183098595 L 376.4808362369338 171.83098591549296 L 378.2229965156795 169.3661971830986 L 379.96515679442507 158.27464788732394 L 381.70731707317077 166.19718309859158 L 383.44947735191636 172.53521126760566 L 385.19163763066206 170.0704225352113 L 386.93379790940764 176.40845070422537 L 388.67595818815334 166.90140845070422 L 390.41811846689893 164.08450704225353 L 392.16027874564463 164.08450704225353 L 393.9024390243902 166.90140845070422 L 395.6445993031359 157.74647887323945 L 397.3867595818815 161.9718309859155 L 399.1289198606272 165.31690140845072 L 400.8710801393728 164.78873239436618 L 402.6132404181185 163.20422535211267 L 404.3554006968641 179.40140845070422 L 406.0975609756098 176.056338028169 L 407.8397212543554 169.01408450704227 L 409.58188153310107 164.9647887323944 L 411.3240418118467 171.6549295774648 L 413.06620209059236 178.87323943661974 L 414.808362369338 162.85211267605635 L 416.55052264808364 157.39436619718313 L 418.2926829268293 161.09154929577463 L 420.03484320557493 156.51408450704227 L 421.7770034843206 151.40845070422537 L 423.5191637630662 148.41549295774647 L 425.26132404181186 154.57746478873239 L 427.0034843205575 153.16901408450704 L 428.74564459930315 160.91549295774647 L 430.4878048780488 154.22535211267606 L 432.22996515679444 148.2394366197183 L 433.9721254355401 144.01408450704227 L 435.7142857142857 130.28169014084506 L 437.45644599303137 121.3028169014085 L 439.198606271777 120.95070422535207 L 440.94076655052265 120.24647887323943 L 442.6829268292683 116.72535211267609 L 444.42508710801394 110.03521126760563 L 446.1672473867596 112.32394366197184 L 447.9094076655052 114.96478873239437 L 449.65156794425087 114.08450704225345 L 451.3937282229965 114.26056338028172 L 453.13588850174216 100.70422535211264 L 454.8780487804878 102.46478873239437 L 456.62020905923345 110.03521126760563 L 458.3623693379791 101.05633802816897 L 460.10452961672473 100 L 461.8466898954704 102.99295774647885 L 463.588850174216 103.87323943661966 L 465.33101045296166 115.14084507042253 L 467.0731707317073 110.2112676056338 L 468.81533101045295 115.49295774647885 L 470.5574912891986 104.75352112676057 L 472.29965156794424 118.66197183098598 L 474.0418118466899 103.87323943661966 L 475.7839721254355 112.32394366197184 L 477.52613240418117 114.96478873239437 L 479.2682926829268 120.77464788732391 L 481.01045296167246 113.02816901408448 L 482.7526132404181 128.87323943661977 L 484.49477351916374 133.45070422535207 L 486.2369337979094 134.50704225352115 L 487.97909407665503 135.03521126760563 L 489.7212543554007 141.02112676056333 L 491.4634146341463 141.37323943661977 L 493.20557491289196 144.89436619718313 L 494.9477351916376 139.08450704225356 L 496.68989547038325 139.26056338028172 L 498.4320557491289 142.6056338028169 L 500.17421602787454 145.42253521126761 L 501.91637630662024 149.82394366197187 L 503.6585365853659 146.83098591549296 L 505.4006968641115 163.7323943661972 L 507.14285714285717 159.33098591549296 L 508.8850174216028 174.8239436619718 L 510.62717770034845 169.3661971830986 L 512.3693379790941 172.53521126760566 L 514.1114982578397 175.88028169014083 L 515.8536585365854 184.68309859154928 L 517.5958188153311 187.14788732394365 L 519.3379790940767 196.83098591549296 L 521.0801393728223 209.50704225352112 L 522.822299651568 212.6760563380282 L 524.5644599303137 219.89436619718307 L 526.3066202090592 222.88732394366198 L 528.0487804878048 233.4507042253521 L 529.7909407665505 233.27464788732394 L 531.5331010452962 233.09859154929578 L 533.2752613240418 243.30985915492957 L 535.0174216027874 249.11971830985917 L 536.7595818815331 247.88732394366198 L 538.5017421602788 242.4295774647887 L 540.2439024390244 239.08450704225353 L 541.98606271777 242.60563380281693 L 543.7282229965157 252.11267605633802 L 545.4703832752614 240.14084507042256 L 547.212543554007 238.7323943661972 L 548.9547038327526 244.01408450704227 L 550.6968641114983 259.330985915493 L 552.439024390244 252.99295774647888 L 554.1811846689895 252.46478873239434 L 555.9233449477351 248.2394366197183 L 557.6655052264808 251.23239436619716 L 559.4076655052265 257.0422535211268 L 561.1498257839721 258.8028169014085 L 562.8919860627177 275.17605633802816 L 564.6341463414634 263.0281690140845 L 566.3763066202091 266.1971830985915 L 568.1184668989547 264.08450704225356 L 569.8606271777003 264.08450704225356 L 571.602787456446 267.6056338028169 L 573.3449477351917 265.14084507042253 L 575.0871080139373 277.8169014084507 L 576.8292682926829 281.33802816901414 L 578.5714285714286 272.00704225352115 L 580.3135888501743 284.1549295774648 L 582.0557491289198 275.17605633802816 L 583.7979094076654 278.169014084507 L 585.5400696864111 283.62676056338023 L 587.2822299651568 284.6830985915493 L 589.0243902439024 285.5633802816901 L 590.766550522648 295.95070422535207 L 592.5087108013937 289.7887323943662 L 594.2508710801394 293.83802816901414 L 595.993031358885 296.830985915493 L 597.7351916376306 300.8802816901408 L 599.4773519163763 296.6549295774648 L 601.219512195122 305.80985915492954 L 602.9616724738676 310.03521126760563 L 604.7038327526133 318.66197183098586 L 606.445993031359 327.99295774647885 L 608.1881533101046 330.4577464788732 L 609.9303135888501 334.6830985915493 L 611.6724738675958 340.669014084507 L 613.4146341463415 338.55633802816897 L 615.1567944250871 344.5422535211268 L 616.8989547038327 344.5422535211268 L 618.6411149825784 343.30985915492954 L 620.3832752613241 351.2323943661971 L 622.1254355400697 352.64084507042253 L 623.8675958188153 353.3450704225352 L 625.609756097561 358.8028169014084 L 627.3519163763067 354.40140845070425 L 629.0940766550523 354.5774647887324 L 630.8362369337979 365.3169014084507 L 632.5783972125436 366.7253521126761 L 634.3205574912893 366.54929577464793 L 636.0627177700349 374.4718309859155 L 637.8048780487804 379.22535211267603 L 639.5470383275261 387.5 L 641.2891986062718 389.2605633802817 L 643.0313588850174 389.61267605633805 L 644.773519163763 387.5 L 646.5156794425087 388.55633802816897 L 648.2578397212544 396.12676056338023 L 650 398.5915492957746 L 650 400 Z" /><text  class="poloto_labels poloto_text poloto_title" alignment-baseline="start" text-anchor="middle" font-size="x-large" x="400" y="37.5" >Total players on 2021-09-12</text><text  class="poloto_labels poloto_text poloto_xname" alignment-baseline="start" text-anchor="middle" font-size="x-large" x="400" y="481.25" >Time</text><text  class="poloto_labels poloto_text poloto_yname" alignment-baseline="start" text-anchor="middle" font-size="x-large" transform="rotate(-90,37.5,250)" x="37.5" y="250" >Count</text><line  class="poloto_axis_lines" stroke="black" x1="150" x2="150" y1="400" y2="405" /><text  class="poloto_tick_labels poloto_text" alignment-baseline="start" text-anchor="middle" x="150" y="430" > 00:00</text><line  class="poloto_axis_lines" stroke="black" x1="266.14401858304296" x2="266.14401858304296" y1="400" y2="405" /><text  class="poloto_tick_labels poloto_text" alignment-baseline="start" text-anchor="middle" x="266.14401858304296" y="430" > 06:00</text><line  class="poloto_axis_lines" stroke="black" x1="382.2880371660859" x2="382.2880371660859" y1="400" y2="405" /><text  class="poloto_tick_labels poloto_text" alignment-baseline="start" text-anchor="middle" x="382.2880371660859" y="430" > 11:00</text><line  class="poloto_axis_lines" stroke="black" x1="498.4320557491289" x2="498.4320557491289" y1="400" y2="405" /><text  class="poloto_tick_labels poloto_text" alignment-baseline="start" text-anchor="middle" x="498.4320557491289" y="430" > 17:00</text><line  class="poloto_axis_lines" stroke="black" x1="614.5760743321719" x2="614.5760743321719" y1="400" y2="405" /><text  class="poloto_tick_labels poloto_text" alignment-baseline="start" text-anchor="middle" x="614.5760743321719" y="430" > 22:00</text><line  class="poloto_axis_lines" stroke="black" x1="150" x2="144" y1="364.61267605633805" y2="364.61267605633805" /><text  class="poloto_tick_labels poloto_text" alignment-baseline="middle" text-anchor="end" x="135" y="364.61267605633805" > 1500</text><line  class="poloto_axis_lines" stroke="black" x1="150" x2="144" y1="276.58450704225356" y2="276.58450704225356" /><text  class="poloto_tick_labels poloto_text" alignment-baseline="middle" text-anchor="end" x="135" y="276.58450704225356" > 2000</text><line  class="poloto_axis_lines" stroke="black" x1="150" x2="144" y1="188.55633802816897" y2="188.55633802816897" /><text  class="poloto_tick_labels poloto_text" alignment-baseline="middle" text-anchor="end" x="135" y="188.55633802816897" > 2500</text><line  class="poloto_axis_lines" stroke="black" x1="150" x2="144" y1="100.52816901408448" y2="100.52816901408448" /><text  class="poloto_tick_labels poloto_text" alignment-baseline="middle" text-anchor="end" x="135" y="100.52816901408448" > 3000</text><path  stroke="black" fill="none" class="poloto_axis_lines" style="stroke-dasharray:14.518002322880372;stroke-dashoffset:-0;" d=" M 150 400 L 650 400" /><path  stroke="black" fill="none" class="poloto_axis_lines" style="stroke-dasharray:8.80281690140845;stroke-dashoffset:-35.38732394366198;" d=" M 150 400 L 150 100" /></svg>