<svg class="poloto" width="800" height="500" viewBox="0 0 800 500" xmlns="http://www.w3.org/2000/svg"><style>.poloto { stroke-linecap:round; stroke-linejoin:round; font-family: 'Tahoma', sans-serif; background-color: AliceBlue;} .poloto_scatter{stroke-width:7} .poloto_line{stroke-width:2} .poloto_text{fill: black;} .poloto_axis_lines{stroke: black;stroke-width:3;fill:none;stroke-dasharray:none} .poloto0stroke{stroke:  blue;} .poloto1stroke{stroke:  red;} .poloto2stroke{stroke:  green;} .poloto3stroke{stroke:  gold;} .poloto4stroke{stroke:  aqua;} .poloto5stroke{stroke:  lime;} .poloto6stroke{stroke:  orange;} .poloto7stroke{stroke:  chocolate;} .poloto0fill{fill:blue;} .poloto1fill{fill:red;} .poloto2fill{fill:green;} .poloto3fill{fill:gold;} .poloto4fill{fill:aqua;} .poloto5fill{fill:lime;} .poloto6fill{fill:orange;} .poloto7fill{fill:chocolate;}</style><text  class="poloto_text poloto_legend_text" alignment-baseline="middle" text-anchor="start" font-size="large" x="675" y="100" ></text><path  class="poloto_linefill poloto0fill" d=" M 150 400 L 150 322.82717282717283 L 151.74216027874564 329.87012987012986 L 153.4843205574913 337.8121878121878 L 155.22648083623693 340.959040959041 L 156.96864111498257 349.05094905094904 L 158.71080139372822 351.4485514485514 L 160.45296167247386 354.5954045954046 L 162.1951219512195 357.2927072927073 L 163.93728222996515 358.94105894105894 L 165.6794425087108 357.7422577422577 L 167.42160278745644 359.99000999001 L 169.16376306620208 359.6903096903097 L 170.90592334494772 364.7852147852148 L 172.64808362369337 369.43056943056945 L 174.390243902439 368.2317682317682 L 176.13240418118465 366.43356643356645 L 177.8745644599303 365.68431568431566 L 179.61672473867597 368.68131868131866 L 181.3588850174216 370.6293706293706 L 183.10104529616726 371.6783216783217 L 184.8432055749129 374.97502497502495 L 186.58536585365854 372.57742257742257 L 188.3275261324042 371.82817182817183 L 190.06968641114983 368.98101898101896 L 191.81184668989548 370.02997002997006 L 193.55400696864112 372.27772227772226 L 195.29616724738676 373.02697302697305 L 197.0383275261324 371.6783216783217 L 198.78048780487805 377.5224775224775 L 200.5226480836237 379.47052947052947 L 202.26480836236934 383.2167832167832 L 204.00696864111498 379.62037962037965 L 205.74912891986062 380.8191808191808 L 207.49128919860627 378.87112887112886 L 209.2334494773519 378.1218781218781 L 210.97560975609755 380.8191808191808 L 212.7177700348432 387.86213786213784 L 214.45993031358887 393.4065934065934 L 216.2020905923345 395.95404595404597 L 217.94425087108016 393.85614385614383 L 219.6864111498258 393.4065934065934 L 221.42857142857144 394.9050949050949 L 223.1707317073171 397.15284715284713 L 224.91289198606273 396.7032967032967 L 226.65505226480838 398.35164835164835 L 228.39721254355402 396.7032967032967 L 230.13937282229966 398.8011988011988 L 231.8815331010453 400 L 233.62369337979095 395.95404595404597 L 235.3658536585366 395.65434565434566 L 237.10801393728224 393.85614385614383 L 238.85017421602788 391.008991008991 L 240.59233449477352 388.16183816183815 L 242.33449477351917 389.36063936063937 L 244.0766550522648 386.06393606393607 L 245.81881533101046 388.46153846153845 L 247.5609756097561 387.4125874125874 L 249.30313588850174 386.2137862137862 L 251.0452961672474 384.86513486513485 L 252.78745644599303 385.61438561438564 L 254.52961672473867 386.3636363636364 L 256.2717770034843 386.963036963037 L 258.01393728222996 384.86513486513485 L 259.7560975609756 385.31468531468533 L 261.49825783972125 381.26873126873124 L 263.2404181184669 380.2197802197802 L 264.98257839721254 379.17082917082917 L 266.7247386759582 381.56843156843155 L 268.4668989547038 383.2167832167832 L 270.20905923344947 382.61738261738265 L 271.9512195121951 382.01798201798204 L 273.69337979094075 382.61738261738265 L 275.4355400696864 376.6233766233766 L 277.17770034843204 380.6693306693307 L 278.91986062717774 379.7702297702298 L 280.6620209059233 379.47052947052947 L 282.404181184669 375.27472527472526 L 284.1463414634146 378.1218781218781 L 285.8885017421603 374.3756243756244 L 287.6306620209059 371.0789210789211 L 289.3728222996516 366.5834165834166 L 291.1149825783972 360.8891108891109 L 292.8571428571429 355.1948051948052 L 294.5993031358885 355.04495504495503 L 296.3414634146342 351.4485514485514 L 298.08362369337976 353.0969030969031 L 299.82578397212546 354.5954045954046 L 301.56794425087105 360.13986013986016 L 303.31010452961675 359.6903096903097 L 305.05226480836234 360.2897102897103 L 306.79442508710804 355.04495504495503 L 308.5365853658536 359.0909090909091 L 310.2787456445993 353.3966033966034 L 312.0209059233449 350.0999000999001 L 313.7630662020906 348.75124875124874 L 315.5052264808362 348.3016983016983 L 317.2473867595819 349.50049950049953 L 318.9895470383275 354.5954045954046 L 320.7317073170732 356.6933066933067 L 322.4738675958188 357.7422577422577 L 324.2160278745645 354.8951048951049 L 325.9581881533101 356.09390609390607 L 327.70034843205576 359.0909090909091 L 329.4425087108014 350.0999000999001 L 331.18466898954705 351.1488511488512 L 332.9268292682927 348.9010989010989 L 334.66898954703834 346.05394605394605 L 336.411149825784 344.7052947052947 L 338.1533101045296 342.45754245754244 L 339.89547038327527 339.76023976023976 L 341.6376306620209 333.76623376623377 L 343.37979094076655 333.31668331668334 L 345.1219512195122 328.971028971029 L 346.86411149825784 328.5214785214785 L 348.6062717770035 325.97402597402595 L 350.34843205574913 324.02597402597405 L 352.0905923344948 319.3806193806194 L 353.8327526132404 316.83316683316684 L 355.57491289198606 314.8851148851149 L 357.3170731707317 313.83616383616385 L 359.05923344947735 307.992007992008 L 360.801393728223 311.7382617382617 L 362.54355400696863 308.14185814185817 L 364.2857142857143 303.1968031968032 L 366.0278745644599 300.1998001998002 L 367.77003484320556 295.5544455544456 L 369.5121951219512 293.6063936063936 L 371.25435540069685 291.05894105894106 L 372.9965156794425 289.1108891108891 L 374.73867595818814 284.16583416583416 L 376.4808362369338 283.86613386613385 L 378.2229965156795 282.8171828171828 L 379.96515679442507 282.0679320679321 L 381.70731707317077 274.72527472527474 L 383.44947735191636 271.42857142857144 L 385.19163763066206 270.3796203796204 L 386.93379790940764 267.83216783216784 L 388.67595818815334 268.13186813186815 L 390.41811846689893 265.73426573426576 L 392.16027874564463 261.53846153846155 L 393.9024390243902 265.43456543456546 L 395.6445993031359 264.23576423576424 L 397.3867595818815 263.6363636363636 L 399.1289198606272 261.53846153846155 L 400.8710801393728 257.94205794205794 L 402.6132404181185 263.6363636363636 L 404.3554006968641 259.7402597402597 L 406.0975609756098 246.4035964035964 L 407.8397212543554 248.80119880119878 L 409.58188153310107 242.8071928071928 L 411.3240418118467 240.1098901098901 L 413.06620209059236 238.16183816183815 L 414.808362369338 232.9170829170829 L 416.55052264808364 228.27172827172825 L 418.2926829268293 221.52847152847153 L 420.03484320557493 217.1828171828172 L 421.7770034843206 224.67532467532465 L 423.5191637630662 220.3296703296703 L 425.26132404181186 214.035964035964 L 427.0034843205575 205.34465534465534 L 428.74564459930315 195.90409590409587 L 430.4878048780488 203.09690309690308 L 432.22996515679444 202.94705294705295 L 433.9721254355401 197.85214785214782 L 435.7142857142857 196.65334665334666 L 437.45644599303137 188.71128871128872 L 439.198606271777 193.50649350649348 L 440.94076655052265 191.7082917082917 L 442.6829268292683 195.90409590409587 L 444.42508710801394 189.91008991008988 L 446.1672473867596 180.3196803196803 L 447.9094076655052 181.66833166833163 L 449.65156794425087 159.94005994005994 L 451.3937282229965 167.1328671328671 L 453.13588850174216 162.48751248751245 L 454.8780487804878 156.34365634365633 L 456.62020905923345 150.34965034965035 L 458.3623693379791 144.05594405594405 L 460.10452961672473 143.75624375624375 L 461.8466898954704 142.4075924075924 L 463.588850174216 139.56043956043953 L 465.33101045296166 142.55744255744253 L 467.0731707317073 141.20879120879118 L 468.81533101045295 135.2147852147852 L 470.5574912891986 130.56943056943055 L 472.29965156794424 138.2117882117882 L 474.0418118466899 127.42257742257738 L 475.7839721254355 125.17482517482517 L 477.52613240418117 129.97002997002994 L 479.2682926829268 118.88111888111888 L 481.01045296167246 113.78621378621375 L 482.7526132404181 114.08591408591406 L 484.49477351916374 105.5444555444555 L 486.2369337979094 101.94805194805195 L 487.97909407665503 108.99100899100898 L 489.7212543554007 101.64835164835165 L 491.4634146341463 104.79520479520477 L 493.20557491289196 103.44655344655342 L 494.9477351916376 106.2937062937063 L 496.68989547038325 105.99400599400599 L 498.4320557491289 104.34565434565434 L 500.17421602787454 100 L 501.91637630662024 113.93606393606393 L 503.6585365853659 114.98501498501497 L 505.4006968641115 125.47452547452548 L 507.14285714285717 126.82317682317682 L 508.8850174216028 132.06793206793208 L 510.62717770034845 123.07692307692304 L 512.3693379790941 136.71328671328672 L 514.1114982578397 138.96103896103892 L 515.8536585365854 147.65234765234766 L 517.5958188153311 147.50249750249748 L 519.3379790940767 153.34665334665334 L 521.0801393728223 159.19080919080915 L 522.822299651568 160.08991008991006 L 524.5644599303137 165.63436563436562 L 526.3066202090592 166.23376623376623 L 528.0487804878048 168.63136863136862 L 529.7909407665505 175.67432567432564 L 531.5331010452962 171.92807192807192 L 533.2752613240418 181.06893106893108 L 535.0174216027874 180.6193806193806 L 536.7595818815331 184.2157842157842 L 538.5017421602788 179.12087912087912 L 540.2439024390244 183.76623376623377 L 541.98606271777 189.01098901098902 L 543.7282229965157 190.5094905094905 L 545.4703832752614 191.55844155844153 L 547.212543554007 195.45454545454544 L 548.9547038327526 199.50049950049947 L 550.6968641114983 202.49750249750247 L 552.439024390244 196.50349650349648 L 554.1811846689895 201.89810189810186 L 555.9233449477351 202.34765234765234 L 557.6655052264808 196.35364635364635 L 559.4076655052265 199.35064935064935 L 561.1498257839721 202.94705294705295 L 562.8919860627177 219.1308691308691 L 564.6341463414634 214.035964035964 L 566.3763066202091 219.7302697302697 L 568.1184668989547 217.032967032967 L 569.8606271777003 214.78521478521475 L 571.602787456446 215.38461538461536 L 573.3449477351917 218.38161838161835 L 575.0871080139373 227.97202797202794 L 576.8292682926829 229.6203796203796 L 578.5714285714286 224.97502497502495 L 580.3135888501743 233.66633366633363 L 582.0557491289198 237.86213786213784 L 583.7979094076654 242.8071928071928 L 585.5400696864111 234.1158841158841 L 587.2822299651568 233.06693306693307 L 589.0243902439024 234.41558441558442 L 590.766550522648 234.41558441558442 L 592.5087108013937 234.86513486513485 L 594.2508710801394 235.9140859140859 L 595.993031358885 240.55944055944053 L 597.7351916376306 244.15584415584414 L 599.4773519163763 239.66033966033967 L 601.219512195122 237.86213786213784 L 602.9616724738676 237.1128871128871 L 604.7038327526133 240.4095904095904 L 606.445993031359 245.35464535464536 L 608.1881533101046 253.5964035964036 L 609.9303135888501 255.24475524475525 L 611.6724738675958 261.23876123876124 L 613.4146341463415 263.4865134865135 L 615.1567944250871 265.43456543456546 L 616.8989547038327 264.98501498501497 L 618.6411149825784 266.1838161838162 L 620.3832752613241 265.5844155844156 L 622.1254355400697 264.38561438561436 L 623.8675958188153 267.23276723276723 L 625.609756097561 269.1808191808192 L 627.3519163763067 269.4805194805195 L 629.0940766550523 274.42557442557444 L 630.8362369337979 278.4715284715285 L 632.5783972125436 284.31568431568434 L 634.3205574912893 289.7102897102897 L 636.0627177700349 297.2027972027972 L 637.8048780487804 292.85714285714283 L 639.5470383275261 301.54845154845157 L 641.2891986062718 297.05294705294705 L 643.0313588850174 300.7992007992008 L 644.773519163763 300.1998001998002 L 646.5156794425087 306.94305694305694 L 648.2578397212544 307.84215784215786 L 650 313.68631368631367 L 650 400 Z" /><text  class="poloto_labels poloto_text poloto_title" alignment-baseline="start" text-anchor="middle" font-size="x-large" x="400" y="37.5" >Total players on 2021-10-27</text><text  class="poloto_labels poloto_text poloto_xname" alignment-baseline="start" text-anchor="middle" font-size="x-large" x="400" y="481.25" >Time</text><text  class="poloto_labels poloto_text poloto_yname" alignment-baseline="start" text-anchor="middle" font-size="x-large" transform="rotate(-90,37.5,250)" x="37.5" y="250" >Count</text><line  class="poloto_axis_lines" stroke="black" x1="150" x2="150" y1="400" y2="405" /><text  class="poloto_tick_labels poloto_text" alignment-baseline="start" text-anchor="middle" x="150" y="430" > 00:00</text><line  class="poloto_axis_lines" stroke="black" x1="266.14401858304296" x2="266.14401858304296" y1="400" y2="405" /><text  class="poloto_tick_labels poloto_text" alignment-baseline="start" text-anchor="middle" x="266.14401858304296" y="430" > 06:00</text><line  class="poloto_axis_lines" stroke="black" x1="382.2880371660859" x2="382.2880371660859" y1="400" y2="405" /><text  class="poloto_tick_labels poloto_text" alignment-baseline="start" text-anchor="middle" x="382.2880371660859" y="430" > 11:00</text><line  class="poloto_axis_lines" stroke="black" x1="498.4320557491289" x2="498.4320557491289" y1="400" y2="405" /><text  class="poloto_tick_labels poloto_text" alignment-baseline="start" text-anchor="middle" x="498.4320557491289" y="430" > 17:00</text><line  class="poloto_axis_lines" stroke="black" x1="614.5760743321719" x2="614.5760743321719" y1="400" y2="405" /><text  class="poloto_tick_labels poloto_text" alignment-baseline="start" text-anchor="middle" x="614.5760743321719" y="430" > 22:00</text><line  class="poloto_axis_lines" stroke="black" x1="150" x2="144" y1="365.0849150849151" y2="365.0849150849151" /><text  class="poloto_tick_labels poloto_text" alignment-baseline="middle" text-anchor="end" x="135" y="365.0849150849151" > 1000</text><line  class="poloto_axis_lines" stroke="black" x1="150" x2="144" y1="290.15984015984014" y2="290.15984015984014" /><text  class="poloto_tick_labels poloto_text" alignment-baseline="middle" text-anchor="end" x="135" y="290.15984015984014" > 1500</text><line  class="poloto_axis_lines" stroke="black" x1="150" x2="144" y1="215.23476523476523" y2="215.23476523476523" /><text  class="poloto_tick_labels poloto_text" alignment-baseline="middle" text-anchor="end" x="135" y="215.23476523476523" > 2000</text><line  class="poloto_axis_lines" stroke="black" x1="150" x2="144" y1="140.30969030969027" y2="140.30969030969027" /><text  class="poloto_tick_labels poloto_text" alignment-baseline="middle" text-anchor="end" x="135" y="140.30969030969027" > 2500</text><path  stroke="black" fill="none" class="poloto_axis_lines" style="stroke-dasharray:14.518002322880372;stroke-dashoffset:-0;" d=" M 150 400 L 650 400" /><path  stroke="black" fill="none" class="poloto_axis_lines" style="stroke-dasharray:7.492507492507492;stroke-dashoffset:-34.915084915084904;" d=" M 150 400 L 150 100" /></svg>