<svg class="poloto" width="800" height="500" viewBox="0 0 800 500" xmlns="http://www.w3.org/2000/svg"><style>.poloto { stroke-linecap:round; stroke-linejoin:round; font-family: 'Tahoma', sans-serif; background-color: AliceBlue;} .poloto_scatter{stroke-width:7} .poloto_line{stroke-width:2} .poloto_text{fill: black;} .poloto_axis_lines{stroke: black;stroke-width:3;fill:none;stroke-dasharray:none} .poloto0stroke{stroke:  blue;} .poloto1stroke{stroke:  red;} .poloto2stroke{stroke:  green;} .poloto3stroke{stroke:  gold;} .poloto4stroke{stroke:  aqua;} .poloto5stroke{stroke:  lime;} .poloto6stroke{stroke:  orange;} .poloto7stroke{stroke:  chocolate;} .poloto0fill{fill:blue;} .poloto1fill{fill:red;} .poloto2fill{fill:green;} .poloto3fill{fill:gold;} .poloto4fill{fill:aqua;} .poloto5fill{fill:lime;} .poloto6fill{fill:orange;} .poloto7fill{fill:chocolate;}</style><text  class="poloto_text poloto_legend_text" alignment-baseline="middle" text-anchor="start" font-size="large" x="675" y="100" ></text><path  class="poloto_linefill poloto0fill" d=" M 150 400 L 150 339.85973115137347 L 151.74216027874564 342.489772063121 L 153.4843205574913 340.91174751607247 L 155.22648083623693 343.7171244886032 L 156.96864111498257 349.67855055523086 L 158.71080139372822 347.9251899473992 L 160.45296167247386 350.5552308591467 L 162.1951219512195 349.3278784336645 L 163.93728222996515 350.5552308591467 L 165.6794425087108 351.60724722384566 L 167.42160278745644 361.2507305669199 L 169.16376306620208 360.37405026300405 L 170.90592334494772 366.5108123904149 L 172.64808362369337 370.0175336060783 L 174.390243902439 374.75160724722383 L 176.13240418118465 377.38164815897136 L 177.8745644599303 376.8556399766219 L 179.61672473867597 378.7843366452367 L 181.3588850174216 379.135008766803 L 183.10104529616726 378.7843366452367 L 184.8432055749129 376.5049678550555 L 186.58536585365854 376.1542957334892 L 188.3275261324042 376.32963179427236 L 190.06968641114983 379.31034482758616 L 191.81184668989548 380.88836937463475 L 193.55400696864112 378.7843366452367 L 195.29616724738676 379.66101694915255 L 197.0383275261324 375.80362361192283 L 198.78048780487805 375.2776154295733 L 200.5226480836237 380.01168907071883 L 202.26480836236934 386.4991233196961 L 204.00696864111498 389.8305084745763 L 205.74912891986062 395.2659263588545 L 207.49128919860627 392.4605493863238 L 209.2334494773519 392.8112215078901 L 210.97560975609755 390.3565166569258 L 212.7177700348432 392.63588544710694 L 214.45993031358887 391.0578609000585 L 216.2020905923345 390.1811805961426 L 217.94425087108016 388.9538281706604 L 219.6864111498258 388.9538281706604 L 221.42857142857144 392.1098772647574 L 223.1707317073171 394.5645821157218 L 224.91289198606273 394.73991817650494 L 226.65505226480838 393.68790181180594 L 228.39721254355402 395.09059029807133 L 230.13937282229966 393.3372296902396 L 231.8815331010453 384.92109877264755 L 233.62369337979095 389.1291642314436 L 235.3658536585366 389.30450029222675 L 237.10801393728224 388.07714786674455 L 238.85017421602788 387.7264757451783 L 240.59233449477352 390.8825248392753 L 242.33449477351917 391.75920514319114 L 244.0766550522648 391.2331969608416 L 245.81881533101046 394.0385739333723 L 247.5609756097561 399.4739918176505 L 249.30313588850174 398.07130333138514 L 251.0452961672474 398.07130333138514 L 252.78745644599303 397.19462302746933 L 254.52961672473867 399.29865575686733 L 256.2717770034843 400 L 258.01393728222996 396.49327878433667 L 259.7560975609756 394.0385739333723 L 261.49825783972125 390.8825248392753 L 263.2404181184669 380.71303331385155 L 264.98257839721254 380.71303331385155 L 266.7247386759582 380.3623611922852 L 268.4668989547038 371.59555815312683 L 270.20905923344947 371.94623027469316 L 271.9512195121951 372.99824663939216 L 273.69337979094075 378.2583284628872 L 275.4355400696864 375.6282875511397 L 277.17770034843204 373.1735827001753 L 278.91986062717774 370.36820572764464 L 280.6620209059233 373.1735827001753 L 282.404181184669 373.69959088252483 L 284.1463414634146 369.8421975452951 L 285.8885017421603 371.59555815312683 L 287.6306620209059 372.64757451782583 L 289.3728222996516 374.4009351256575 L 291.1149825783972 371.94623027469316 L 292.8571428571429 375.2776154295733 L 294.5993031358885 374.926943308007 L 296.3414634146342 370.36820572764464 L 298.08362369337976 371.2448860315605 L 299.82578397212546 369.31618936294564 L 301.56794425087105 371.0695499707773 L 303.31010452961675 367.7381648158971 L 305.05226480836234 362.3027469316189 L 306.79442508710804 362.4780829924021 L 308.5365853658536 360.0233781414378 L 310.2787456445993 359.1466978375219 L 312.0209059233449 357.5686732904734 L 313.7630662020906 353.00993571011105 L 315.5052264808362 351.4319111630625 L 317.2473867595819 351.4319111630625 L 318.9895470383275 350.3798947983635 L 320.7317073170732 350.905902980713 L 322.4738675958188 348.9772063120982 L 324.2160278745645 347.2238457042665 L 325.9581881533101 340.0350672121566 L 327.70034843205576 344.24313267095266 L 329.4425087108014 343.3664523670368 L 331.18466898954705 338.10637054354174 L 332.9268292682927 330.56691992986555 L 334.66898954703834 330.0409117475161 L 336.411149825784 326.1835184102864 L 338.1533101045296 331.6189362945646 L 339.89547038327527 325.13150204558735 L 341.6376306620209 324.25482174167155 L 343.37979094076655 315.13734658094677 L 345.1219512195122 311.63062536528344 L 346.86411149825784 307.94856808883696 L 348.6062717770035 310.75394506136763 L 350.34843205574913 307.42255990648744 L 352.0905923344948 307.2472238457043 L 353.8327526132404 309.52659263588544 L 355.57491289198606 296.55172413793105 L 357.3170731707317 293.5710111046172 L 359.05923344947735 293.0450029222677 L 360.801393728223 300.4091174751607 L 362.54355400696863 289.5382817066043 L 364.2857142857143 284.8042080654588 L 366.0278745644599 284.2781998831093 L 367.77003484320556 283.4015195791934 L 369.5121951219512 275.8620689655172 L 371.25435540069685 268.322618351841 L 372.9965156794425 265.3419053185272 L 374.73867595818814 264.4652250146113 L 376.4808362369338 263.41320864991235 L 378.2229965156795 259.906487434249 L 379.96515679442507 257.10111046171824 L 381.70731707317077 254.12039742840446 L 383.44947735191636 252.54237288135593 L 385.19163763066206 253.76972530683807 L 386.93379790940764 259.3804792518995 L 388.67595818815334 256.39976621858557 L 390.41811846689893 261.1338398597311 L 392.16027874564463 250.78901227352426 L 393.9024390243902 241.84687317358268 L 395.6445993031359 239.041496201052 L 397.3867595818815 244.4769140853302 L 399.1289198606272 243.60023378141435 L 400.8710801393728 236.937463471654 L 402.6132404181185 240.97019286966687 L 404.3554006968641 237.11279953243715 L 406.0975609756098 231.32670952659262 L 407.8397212543554 228.52133255406196 L 409.58188153310107 220.63120981881937 L 411.3240418118467 218.70251315020457 L 413.06620209059236 212.74108708357684 L 414.808362369338 198.36353009935706 L 416.55052264808364 197.13617767387493 L 418.2926829268293 195.5581531268264 L 420.03484320557493 197.6621858562244 L 421.7770034843206 194.5061367621274 L 423.5191637630662 185.21332554061954 L 425.26132404181186 191.70075978959673 L 427.0034843205575 180.479251899474 L 428.74564459930315 167.15371127995323 L 430.4878048780488 168.0303915838691 L 432.22996515679444 167.15371127995323 L 433.9721254355401 156.45821157217998 L 435.7142857142857 149.09409701928698 L 437.45644599303137 144.18468731735825 L 439.198606271777 138.74926943308003 L 440.94076655052265 142.95733489187603 L 442.6829268292683 141.37931034482756 L 444.42508710801394 138.04792518994736 L 446.1672473867596 128.22910578609003 L 447.9094076655052 132.96317942723556 L 449.65156794425087 123.67036820572764 L 451.3937282229965 132.61250730566917 L 453.13588850174216 121.56633547632964 L 454.8780487804878 117.18293395675039 L 456.62020905923345 111.92285213325545 L 458.3623693379791 110.52016364699 L 460.10452961672473 112.62419637638811 L 461.8466898954704 105.26008182349506 L 463.588850174216 103.3313851548802 L 465.33101045296166 103.50672121566333 L 467.0731707317073 107.5394506136762 L 468.81533101045295 104.73407364114553 L 470.5574912891986 100 L 472.29965156794424 101.92869666861486 L 474.0418118466899 104.38340151957914 L 475.7839721254355 109.46814728229106 L 477.52613240418117 107.5394506136762 L 479.2682926829268 110.87083576855639 L 481.01045296167246 121.21566335476325 L 482.7526132404181 130.85914669783756 L 484.49477351916374 138.74926943308003 L 486.2369337979094 148.3927527761543 L 487.97909407665503 144.71069549970778 L 489.7212543554007 147.51607247223845 L 491.4634146341463 161.01694915254237 L 493.20557491289196 164.17299824663937 L 494.9477351916376 164.34833430742256 L 496.68989547038325 164.34833430742256 L 498.4320557491289 172.41379310344828 L 500.17421602787454 181.00526008182348 L 501.91637630662024 194.6814728229106 L 503.6585365853659 189.59672706019873 L 505.4006968641115 184.33664523670367 L 507.14285714285717 191.3500876680304 L 508.8850174216028 200.1168907071888 L 510.62717770034845 195.20748100526006 L 512.3693379790941 195.7334891876096 L 514.1114982578397 198.36353009935706 L 515.8536585365854 194.5061367621274 L 517.5958188153311 198.8895382817066 L 519.3379790940767 197.48684979544126 L 521.0801393728223 196.43483343074226 L 522.822299651568 195.03214494447693 L 524.5644599303137 201.87025131502045 L 526.3066202090592 209.58503798947984 L 528.0487804878048 217.65049678550557 L 529.7909407665505 229.22267679719462 L 531.5331010452962 222.91057860900057 L 533.2752613240418 211.16306253652832 L 535.0174216027874 218.0011689070719 L 536.7595818815331 223.96259497369957 L 538.5017421602788 222.55990648743423 L 540.2439024390244 208.00701344243132 L 541.98606271777 206.60432495616598 L 543.7282229965157 203.44827586206898 L 545.4703832752614 209.58503798947984 L 547.212543554007 206.95499707773232 L 548.9547038327526 209.58503798947984 L 550.6968641114983 209.76037405026298 L 552.439024390244 211.51373465809465 L 554.1811846689895 205.72764465225012 L 555.9233449477351 199.41554646405612 L 557.6655052264808 208.1823495032145 L 559.4076655052265 204.85096434833432 L 561.1498257839721 203.79894798363532 L 562.8919860627177 208.35768556399765 L 564.6341463414634 208.88369374634718 L 566.3763066202091 217.8258328462887 L 568.1184668989547 213.96843950905904 L 569.8606271777003 219.22852133255404 L 571.602787456446 221.85856224430157 L 573.3449477351917 227.29398012857976 L 575.0871080139373 224.3132670952659 L 576.8292682926829 216.07247223845704 L 578.5714285714286 231.50204558737582 L 580.3135888501743 229.22267679719462 L 582.0557491289198 235.53477498538868 L 583.7979094076654 233.43074225599062 L 585.5400696864111 232.20338983050848 L 587.2822299651568 237.11279953243715 L 589.0243902439024 238.69082407948568 L 590.766550522648 240.61952074810054 L 592.5087108013937 244.6522501461134 L 594.2508710801394 250.0876680303916 L 595.993031358885 255.5230859146698 L 597.7351916376306 258.85447106954996 L 599.4773519163763 258.6791350087668 L 601.219512195122 258.6791350087668 L 602.9616724738676 259.0298071303331 L 604.7038327526133 263.2378725891292 L 606.445993031359 266.0432495616599 L 608.1881533101046 264.9912331969608 L 609.9303135888501 266.0432495616599 L 611.6724738675958 271.1279953243717 L 613.4146341463415 270.426651081239 L 615.1567944250871 272.530683810637 L 616.8989547038327 278.49210987726474 L 618.6411149825784 283.5768556399766 L 620.3832752613241 293.0450029222677 L 622.1254355400697 297.60374050263005 L 623.8675958188153 293.395675043834 L 625.609756097561 297.42840444184685 L 627.3519163763067 304.09117475160724 L 629.0940766550523 304.4418468731736 L 630.8362369337979 312.5073056691993 L 632.5783972125436 314.0853302162478 L 634.3205574912893 314.0853302162478 L 636.0627177700349 312.5073056691993 L 637.8048780487804 314.26066627703096 L 639.5470383275261 315.31268264172996 L 641.2891986062718 317.9427235534775 L 643.0313588850174 320.0467562828755 L 644.773519163763 322.676797194623 L 646.5156794425087 327.0601987142022 L 648.2578397212544 335.8270017533606 L 650 344.76914085330213 L 650 400 Z" /><text  class="poloto_labels poloto_text poloto_title" alignment-baseline="start" text-anchor="middle" font-size="x-large" x="400" y="37.5" >Total players on 2021-12-02</text><text  class="poloto_labels poloto_text poloto_xname" alignment-baseline="start" text-anchor="middle" font-size="x-large" x="400" y="481.25" >Time</text><text  class="poloto_labels poloto_text poloto_yname" alignment-baseline="start" text-anchor="middle" font-size="x-large" transform="rotate(-90,37.5,250)" x="37.5" y="250" >Count</text><line  class="poloto_axis_lines" stroke="black" x1="150" x2="150" y1="400" y2="405" /><text  class="poloto_tick_labels poloto_text" alignment-baseline="start" text-anchor="middle" x="150" y="430" > 00:00:00</text><line  class="poloto_axis_lines" stroke="black" x1="266.14401858304296" x2="266.14401858304296" y1="400" y2="405" /><text  class="poloto_tick_labels poloto_text" alignment-baseline="start" text-anchor="middle" x="266.14401858304296" y="430" > 05:33:20</text><line  class="poloto_axis_lines" stroke="black" x1="382.2880371660859" x2="382.2880371660859" y1="400" y2="405" /><text  class="poloto_tick_labels poloto_text" alignment-baseline="start" text-anchor="middle" x="382.2880371660859" y="430" > 11:06:40</text><line  class="poloto_axis_lines" stroke="black" x1="498.4320557491289" x2="498.4320557491289" y1="400" y2="405" /><text  class="poloto_tick_labels poloto_text" alignment-baseline="start" text-anchor="middle" x="498.4320557491289" y="430" > 16:40:00</text><line  class="poloto_axis_lines" stroke="black" x1="614.5760743321719" x2="614.5760743321719" y1="400" y2="405" /><text  class="poloto_tick_labels poloto_text" alignment-baseline="start" text-anchor="middle" x="614.5760743321719" y="430" > 22:13:20</text><line  class="poloto_axis_lines" stroke="black" x1="150" x2="144" y1="359.3220338983051" y2="359.3220338983051" /><text  class="poloto_tick_labels poloto_text" alignment-baseline="middle" text-anchor="end" x="135" y="359.3220338983051" > 1000</text><line  class="poloto_axis_lines" stroke="black" x1="150" x2="144" y1="271.6540035067212" y2="271.6540035067212" /><text  class="poloto_tick_labels poloto_text" alignment-baseline="middle" text-anchor="end" x="135" y="271.6540035067212" > 1500</text><line  class="poloto_axis_lines" stroke="black" x1="150" x2="144" y1="183.9859731151373" y2="183.9859731151373" /><text  class="poloto_tick_labels poloto_text" alignment-baseline="middle" text-anchor="end" x="135" y="183.9859731151373" > 2000</text><path  stroke="black" fill="none" class="poloto_axis_lines" style="stroke-dasharray:14.518002322880372;stroke-dashoffset:-0;" d=" M 150 400 L 650 400" /><path  stroke="black" fill="none" class="poloto_axis_lines" style="stroke-dasharray:8.766803039158386;stroke-dashoffset:-40.67796610169492;" d=" M 150 400 L 150 100" /></svg>