<svg class="poloto" width="800" height="500" viewBox="0 0 800 500" xmlns="http://www.w3.org/2000/svg"><style>.poloto { stroke-linecap:round; stroke-linejoin:round; font-family: 'Tahoma', sans-serif; background-color: AliceBlue;} .poloto_scatter{stroke-width:7} .poloto_line{stroke-width:2} .poloto_text{fill: black;} .poloto_axis_lines{stroke: black;stroke-width:3;fill:none;stroke-dasharray:none} .poloto0stroke{stroke:  blue;} .poloto1stroke{stroke:  red;} .poloto2stroke{stroke:  green;} .poloto3stroke{stroke:  gold;} .poloto4stroke{stroke:  aqua;} .poloto5stroke{stroke:  lime;} .poloto6stroke{stroke:  orange;} .poloto7stroke{stroke:  chocolate;} .poloto0fill{fill:blue;} .poloto1fill{fill:red;} .poloto2fill{fill:green;} .poloto3fill{fill:gold;} .poloto4fill{fill:aqua;} .poloto5fill{fill:lime;} .poloto6fill{fill:orange;} .poloto7fill{fill:chocolate;}</style><text  class="poloto_text poloto_legend_text" alignment-baseline="middle" text-anchor="start" font-size="large" x="675" y="100" ></text><path  class="poloto_linefill poloto0fill" d=" M 150 400 L 150 358.0734966592428 L 151.74216027874564 362.75055679287306 L 153.4843205574913 371.2694877505568 L 155.22648083623693 367.0935412026726 L 156.96864111498257 368.5968819599109 L 158.71080139372822 366.4253897550111 L 160.45296167247386 357.739420935412 L 162.1951219512195 360.74610244988867 L 163.93728222996515 363.7527839643652 L 165.6794425087108 365.75723830734967 L 167.42160278745644 368.5968819599109 L 169.16376306620208 372.6057906458797 L 170.90592334494772 377.11581291759467 L 172.64808362369337 377.9510022271715 L 174.390243902439 370.26726057906455 L 176.13240418118465 369.9331848552339 L 177.8745644599303 375.7795100222717 L 179.61672473867597 377.4498886414254 L 181.3588850174216 376.11358574610244 L 183.10104529616726 376.28062360801783 L 184.8432055749129 374.9443207126949 L 186.58536585365854 378.78619153674833 L 188.3275261324042 380.28953229398667 L 190.06968641114983 382.29398663697106 L 191.81184668989548 387.80623608017817 L 193.55400696864112 391.98218262806233 L 195.29616724738676 387.47216035634744 L 197.0383275261324 385.13363028953233 L 198.78048780487805 381.4587973273942 L 200.5226480836237 382.12694877505567 L 202.26480836236934 382.46102449888645 L 204.00696864111498 379.12026726057906 L 205.74912891986062 381.4587973273942 L 207.49128919860627 385.30066815144767 L 209.2334494773519 387.47216035634744 L 210.97560975609755 387.47216035634744 L 212.7177700348432 388.9755011135858 L 214.45993031358887 385.8017817371938 L 216.2020905923345 384.6325167037862 L 217.94425087108016 385.467706013363 L 219.6864111498258 386.6369710467706 L 221.42857142857144 388.1403118040089 L 223.1707317073171 392.8173719376392 L 224.91289198606273 389.30957683741644 L 226.65505226480838 391.815144766147 L 228.39721254355402 391.4810690423162 L 230.13937282229966 393.81959910913145 L 231.8815331010453 391.14699331848556 L 233.62369337979095 393.9866369710468 L 235.3658536585366 397.3273942093541 L 237.10801393728224 393.9866369710468 L 238.85017421602788 393.48552338530067 L 240.59233449477352 393.15144766146994 L 242.33449477351917 393.652561247216 L 244.0766550522648 393.652561247216 L 245.81881533101046 396.9933184855234 L 247.5609756097561 400 L 249.30313588850174 387.80623608017817 L 251.0452961672474 394.8218262806236 L 252.78745644599303 390.31180400890867 L 254.52961672473867 395.3229398663697 L 256.2717770034843 393.15144766146994 L 258.01393728222996 390.31180400890867 L 259.7560975609756 388.8084632516704 L 261.49825783972125 389.6436525612472 L 263.2404181184669 390.64587973273944 L 264.98257839721254 392.48329621380844 L 266.7247386759582 390.31180400890867 L 268.4668989547038 397.3273942093541 L 270.20905923344947 392.65033407572383 L 271.9512195121951 391.98218262806233 L 273.69337979094075 395.4899777282851 L 275.4355400696864 387.47216035634744 L 277.17770034843204 382.29398663697106 L 278.9198606271777 376.28062360801783 L 280.6620209059233 374.9443207126949 L 282.40418118466897 374.4432071269488 L 284.1463414634146 372.10467706013367 L 285.88850174216026 371.9376391982183 L 287.6306620209059 372.93986636971044 L 289.37282229965155 367.5946547884187 L 291.1149825783972 365.59020044543433 L 292.85714285714283 364.5879732739421 L 294.5993031358885 365.59020044543433 L 296.3414634146342 369.2650334075724 L 298.08362369337976 363.25167037861917 L 299.82578397212546 365.924276169265 L 301.56794425087105 363.91982182628067 L 303.31010452961675 366.4253897550111 L 305.05226480836234 364.4209354120267 L 306.79442508710804 370.76837416481067 L 308.5365853658536 369.5991091314031 L 310.2787456445993 373.2739420935412 L 312.0209059233449 370.43429844098 L 313.7630662020906 369.5991091314031 L 315.5052264808362 365.75723830734967 L 317.2473867595819 363.5857461024499 L 318.9895470383275 376.11358574610244 L 320.7317073170732 376.4476614699332 L 322.4738675958188 369.9331848552339 L 324.2160278745645 367.7616926503341 L 325.95818815331006 369.097995545657 L 327.70034843205576 362.91759465478845 L 329.44250871080135 363.5857461024499 L 331.18466898954705 366.7594654788419 L 332.92682926829264 354.8997772828508 L 334.66898954703834 352.89532293986633 L 336.4111498257839 353.2293986636971 L 338.1533101045296 351.05790645879733 L 339.8954703832752 356.57015590200444 L 341.6376306620209 354.73273942093545 L 343.3797909407665 354.23162583518933 L 345.1219512195122 352.728285077951 L 346.86411149825784 349.554565701559 L 348.6062717770035 350.0556792873051 L 350.34843205574913 345.5456570155902 L 352.0905923344948 339.0311804008909 L 353.8327526132404 339.69933184855233 L 355.57491289198606 342.87305122494433 L 357.3170731707317 343.87527839643656 L 359.05923344947735 335.52338530066817 L 360.801393728223 318.15144766146994 L 362.54355400696863 325.3340757238308 L 364.2857142857143 305.7906458797327 L 366.0278745644599 305.9576837416481 L 367.77003484320556 305.28953229398667 L 369.5121951219512 295.1002227171492 L 371.25435540069685 289.4209354120267 L 372.9965156794425 289.92204899777283 L 374.73867595818814 292.92873051224944 L 376.4808362369338 291.4253897550111 L 378.2229965156794 285.74610244988867 L 379.96515679442507 283.9086859688196 L 381.7073170731707 280.06681514476617 L 383.44947735191636 278.3964365256125 L 385.191637630662 282.57238307349667 L 386.93379790940764 276.2249443207127 L 388.6759581881533 268.5412026726058 L 390.41811846689893 268.70824053452117 L 392.1602787456446 266.5367483296214 L 393.9024390243902 257.51670378619156 L 395.6445993031359 257.6837416481069 L 397.3867595818815 263.8641425389755 L 399.1289198606272 255.34521158129178 L 400.8710801393728 253.173719376392 L 402.6132404181185 255.34521158129178 L 404.3554006968641 251.16926503340756 L 406.0975609756097 244.3207126948775 L 407.83972125435537 244.3207126948775 L 409.581881533101 237.63919821826283 L 411.32404181184666 231.79287305122494 L 413.0662020905923 233.1291759465479 L 414.80836236933794 222.93986636971044 L 416.5505226480836 224.7772828507795 L 418.29268292682923 220.93541202672606 L 420.0348432055749 221.93763919821828 L 421.7770034843206 215.59020044543428 L 423.5191637630662 207.739420935412 L 425.26132404181186 203.56347438752783 L 427.0034843205575 203.56347438752783 L 428.74564459930315 196.04677060133628 L 430.4878048780488 195.37861915367483 L 432.22996515679444 194.7104677060134 L 433.9721254355401 187.02672605790644 L 435.7142857142857 181.34743875278394 L 437.45644599303137 173.32962138084633 L 439.198606271777 168.98663697104678 L 440.94076655052265 171.49220489977728 L 442.6829268292683 162.47216035634744 L 444.42508710801394 159.96659242761694 L 446.1672473867596 160.9688195991091 L 447.9094076655052 152.11581291759467 L 449.65156794425087 149.2761692650334 L 451.3937282229965 142.92873051224944 L 453.13588850174216 150.2783964365256 L 454.8780487804878 151.11358574610244 L 456.62020905923345 141.25835189309578 L 458.3623693379791 139.92204899777283 L 460.10452961672473 138.25167037861917 L 461.8466898954704 137.24944320712694 L 463.588850174216 137.24944320712694 L 465.33101045296166 146.93763919821828 L 467.0731707317073 151.78173719376395 L 468.81533101045295 144.5991091314031 L 470.5574912891986 143.76391982182628 L 472.29965156794424 143.42984409799556 L 474.0418118466899 136.24721603563472 L 475.7839721254355 134.57683741648106 L 477.52613240418117 126.55902004454344 L 479.2682926829268 121.04677060133628 L 481.01045296167246 120.71269487750556 L 482.7526132404181 112.69487750556794 L 484.49477351916374 121.88195991091317 L 486.2369337979094 124.05345211581295 L 487.97909407665503 115.53452115812917 L 489.7212543554007 112.36080178173717 L 491.4634146341463 113.02895322939867 L 493.20557491289196 120.87973273942094 L 494.9477351916376 124.88864142538978 L 496.68989547038325 118.20712694877506 L 498.4320557491289 121.21380846325167 L 500.17421602787454 119.37639198218261 L 501.9163763066202 112.69487750556794 L 503.6585365853658 118.70824053452117 L 505.40069686411147 104.84409799554567 L 507.1428571428571 100 L 508.88501742160275 105.011135857461 L 510.6271777003484 100.50111358574611 L 512.3693379790941 100.50111358574611 L 514.1114982578397 106.18040089086861 L 515.8536585365853 110.02227171492206 L 517.595818815331 181.01336302895322 L 519.3379790940767 249.16481069042317 L 521.0801393728223 136.74832962138083 L 522.822299651568 135.913140311804 L 524.5644599303137 135.4120267260579 L 526.3066202090592 144.93318485523383 L 528.0487804878048 150.11135857461022 L 529.7909407665505 126.72605790645878 L 531.5331010452962 128.56347438752783 L 533.2752613240418 130.7349665924276 L 535.0174216027874 140.42316258351894 L 536.7595818815331 142.92873051224944 L 538.5017421602788 150.94654788418705 L 540.2439024390244 148.10690423162583 L 541.98606271777 141.5924276169265 L 543.7282229965157 151.78173719376395 L 545.4703832752614 153.61915367483294 L 547.212543554007 159.29844097995544 L 548.9547038327526 165.31180400890867 L 550.6968641114983 171.49220489977728 L 552.439024390244 169.3207126948775 L 554.1811846689895 170.48997772828506 L 555.9233449477351 174.8329621380846 L 557.6655052264808 183.6859688195991 L 559.4076655052265 186.02449888641428 L 561.1498257839721 189.19821826280622 L 562.8919860627177 210.913140311804 L 564.6341463414634 216.4253897550111 L 566.3763066202091 210.07795100222717 L 568.1184668989547 226.44766146993317 L 569.8606271777003 222.60579064587972 L 571.602787456446 215.75723830734967 L 573.3449477351917 210.57906458797328 L 575.0871080139373 213.75278396436528 L 576.8292682926829 221.7706013363029 L 578.5714285714286 220.10022271714922 L 580.3135888501743 256.34743875278394 L 582.0557491289198 219.5991091314031 L 583.7979094076654 217.260579064588 L 585.5400696864111 217.42761692650333 L 587.2822299651568 223.77505567928733 L 589.0243902439024 220.2672605790646 L 590.766550522648 217.59465478841872 L 592.5087108013937 218.09576837416483 L 594.2508710801394 224.9443207126949 L 595.993031358885 235.9688195991091 L 597.7351916376306 237.97327394209356 L 599.4773519163763 242.65033407572383 L 601.219512195122 247.66146993318483 L 602.9616724738676 255.011135857461 L 604.7038327526132 250.83518930957683 L 606.4459930313589 251.33630289532294 L 608.1881533101046 251.67037861915367 L 609.9303135888501 251.50334075723833 L 611.6724738675957 262.52783964365256 L 613.4146341463414 259.52115812917594 L 615.1567944250871 257.01559020044544 L 616.8989547038327 259.02004454342983 L 618.6411149825783 257.51670378619156 L 620.383275261324 258.3518930957684 L 622.1254355400697 258.3518930957684 L 623.8675958188153 260.18930957683745 L 625.609756097561 263.02895322939867 L 627.3519163763067 271.38084632516706 L 629.0940766550523 275.89086859688194 L 630.8362369337979 284.07572383073494 L 632.5783972125436 282.73942093541206 L 634.3205574912893 280.7349665924276 L 636.0627177700349 284.57683741648106 L 637.8048780487804 288.7527839643653 L 639.5470383275261 291.2583518930958 L 641.2891986062718 297.93986636971044 L 643.0313588850174 296.60356347438756 L 644.773519163763 303.61915367483294 L 646.5156794425087 305.6236080178174 L 648.2578397212544 309.79955456570156 L 650 320.3229398663697 L 650 400 Z" /><text  class="poloto_labels poloto_text poloto_title" alignment-baseline="start" text-anchor="middle" font-size="x-large" x="400" y="37.5" >Total players on 2021-05-28</text><text  class="poloto_labels poloto_text poloto_xname" alignment-baseline="start" text-anchor="middle" font-size="x-large" x="400" y="481.25" >Time</text><text  class="poloto_labels poloto_text poloto_yname" alignment-baseline="start" text-anchor="middle" font-size="x-large" transform="rotate(-90,37.5,250)" x="37.5" y="250" >Count</text><line  class="poloto_axis_lines" stroke="black" x1="208.0487804878049" x2="208.0487804878049" y1="400" y2="405" /><text  class="poloto_tick_labels poloto_text" alignment-baseline="start" text-anchor="middle" x="208.0487804878049" y="430" > 02:46:40</text><line  class="poloto_axis_lines" stroke="black" x1="266.1207897793264" x2="266.1207897793264" y1="400" y2="405" /><text  class="poloto_tick_labels poloto_text" alignment-baseline="start" text-anchor="middle" x="266.1207897793264" y="430" > 05:33:20</text><line  class="poloto_axis_lines" stroke="black" x1="324.19279907084785" x2="324.19279907084785" y1="400" y2="405" /><text  class="poloto_tick_labels poloto_text" alignment-baseline="start" text-anchor="middle" x="324.19279907084785" y="430" > 08:20:00</text><line  class="poloto_axis_lines" stroke="black" x1="382.2648083623693" x2="382.2648083623693" y1="400" y2="405" /><text  class="poloto_tick_labels poloto_text" alignment-baseline="start" text-anchor="middle" x="382.2648083623693" y="430" > 11:06:40</text><line  class="poloto_axis_lines" stroke="black" x1="440.3368176538908" x2="440.3368176538908" y1="400" y2="405" /><text  class="poloto_tick_labels poloto_text" alignment-baseline="start" text-anchor="middle" x="440.3368176538908" y="430" > 13:53:20</text><line  class="poloto_axis_lines" stroke="black" x1="498.4088269454123" x2="498.4088269454123" y1="400" y2="405" /><text  class="poloto_tick_labels poloto_text" alignment-baseline="start" text-anchor="middle" x="498.4088269454123" y="430" > 16:40:00</text><line  class="poloto_axis_lines" stroke="black" x1="556.4808362369338" x2="556.4808362369338" y1="400" y2="405" /><text  class="poloto_tick_labels poloto_text" alignment-baseline="start" text-anchor="middle" x="556.4808362369338" y="430" > 19:26:40</text><line  class="poloto_axis_lines" stroke="black" x1="614.5528455284552" x2="614.5528455284552" y1="400" y2="405" /><text  class="poloto_tick_labels poloto_text" alignment-baseline="start" text-anchor="middle" x="614.5528455284552" y="430" > 22:13:20</text><line  class="poloto_axis_lines" stroke="black" x1="150" x2="144" y1="327.6726057906459" y2="327.6726057906459" /><text  class="poloto_tick_labels poloto_text" alignment-baseline="middle" text-anchor="end" x="135" y="327.6726057906459" > 1500</text><line  class="poloto_axis_lines" stroke="black" x1="150" x2="144" y1="244.15367483296217" y2="244.15367483296217" /><text  class="poloto_tick_labels poloto_text" alignment-baseline="middle" text-anchor="end" x="135" y="244.15367483296217" > 2000</text><line  class="poloto_axis_lines" stroke="black" x1="150" x2="144" y1="160.6347438752784" y2="160.6347438752784" /><text  class="poloto_tick_labels poloto_text" alignment-baseline="middle" text-anchor="end" x="135" y="160.6347438752784" > 2500</text><path  stroke="black" fill="none" class="poloto_axis_lines" style="stroke-dasharray:14.518002322880372;stroke-dashoffset:-58.04878048780488;" d=" M 150 400 L 650 400" /><path  stroke="black" fill="none" class="poloto_axis_lines" style="stroke-dasharray:8.351893095768373;stroke-dashoffset:-72.32739420935411;" d=" M 150 400 L 150 100" /></svg>