<svg class="poloto" width="800" height="500" viewBox="0 0 800 500" xmlns="http://www.w3.org/2000/svg"><style>.poloto { stroke-linecap:round; stroke-linejoin:round; font-family: 'Tahoma', sans-serif; background-color: AliceBlue;} .poloto_scatter{stroke-width:7} .poloto_line{stroke-width:2} .poloto_text{fill: black;} .poloto_axis_lines{stroke: black;stroke-width:3;fill:none;stroke-dasharray:none} .poloto0stroke{stroke:  blue;} .poloto1stroke{stroke:  red;} .poloto2stroke{stroke:  green;} .poloto3stroke{stroke:  gold;} .poloto4stroke{stroke:  aqua;} .poloto5stroke{stroke:  lime;} .poloto6stroke{stroke:  orange;} .poloto7stroke{stroke:  chocolate;} .poloto0fill{fill:blue;} .poloto1fill{fill:red;} .poloto2fill{fill:green;} .poloto3fill{fill:gold;} .poloto4fill{fill:aqua;} .poloto5fill{fill:lime;} .poloto6fill{fill:orange;} .poloto7fill{fill:chocolate;}</style><text  class="poloto_text poloto_legend_text" alignment-baseline="middle" text-anchor="start" font-size="large" x="675" y="100" ></text><path  class="poloto_linefill poloto0fill" d=" M 150 400 L 150 314.33649289099526 L 151.74216027874564 321.0900473933649 L 153.4843205574913 325 L 155.22648083623693 329.4431279620853 L 156.96864111498257 327.4881516587678 L 158.71080139372822 328.1990521327014 L 160.45296167247386 331.2203791469194 L 162.1951219512195 339.04028436018956 L 163.93728222996515 346.3270142180095 L 165.6794425087108 349.1706161137441 L 167.42160278745644 355.56872037914695 L 169.16376306620208 358.9454976303317 L 170.90592334494772 364.6327014218009 L 172.64808362369337 368.542654028436 L 174.390243902439 363.21090047393363 L 176.13240418118465 363.92180094786727 L 177.8745644599303 367.65402843601896 L 179.61672473867597 392.7132701421801 L 181.3588850174216 388.0924170616114 L 183.10104529616726 380.4502369668246 L 184.8432055749129 379.38388625592415 L 186.58536585365854 379.20616113744074 L 188.3275261324042 382.2274881516588 L 190.06968641114983 384.0047393364929 L 191.81184668989548 381.3388625592417 L 193.55400696864112 384.3601895734597 L 195.29616724738676 386.8483412322275 L 197.0383275261324 385.60426540284357 L 198.78048780487805 381.6943127962085 L 200.5226480836237 384.5379146919431 L 202.26480836236934 384.7156398104265 L 204.00696864111498 386.31516587677726 L 205.74912891986062 386.8483412322275 L 207.49128919860627 388.4478672985782 L 209.2334494773519 392.89099526066354 L 210.97560975609755 387.914691943128 L 212.7177700348432 390.93601895734594 L 214.45993031358887 394.66824644549763 L 216.2020905923345 394.3127962085308 L 217.94425087108016 392.53554502369667 L 219.6864111498258 394.66824644549763 L 221.42857142857144 398.75592417061614 L 223.1707317073171 393.24644549763036 L 224.91289198606273 394.4905213270142 L 226.65505226480838 397.86729857819904 L 228.39721254355402 400 L 230.13937282229966 396.4454976303317 L 231.8815331010453 396.2677725118483 L 233.62369337979095 388.4478672985782 L 235.3658536585366 388.6255924170616 L 237.10801393728224 386.6706161137441 L 238.85017421602788 385.781990521327 L 240.59233449477352 384.5379146919431 L 242.33449477351917 380.2725118483412 L 244.0766550522648 379.9170616113744 L 245.81881533101046 379.56161137440756 L 247.5609756097561 376.00710900473933 L 249.30313588850174 375.11848341232223 L 251.0452961672474 369.43127962085305 L 252.78745644599303 373.34123222748815 L 254.52961672473867 374.0521327014218 L 256.2717770034843 373.16350710900474 L 258.01393728222996 374.7630331753554 L 259.7560975609756 374.7630331753554 L 261.49825783972125 373.34123222748815 L 263.2404181184669 374.0521327014218 L 264.98257839721254 372.4526066350711 L 266.7247386759582 373.16350710900474 L 268.4668989547038 375.29620853080564 L 270.20905923344947 375.8293838862559 L 271.9512195121951 373.16350710900474 L 273.69337979094075 372.8080568720379 L 275.4355400696864 372.0971563981043 L 277.17770034843204 375.6516587677725 L 278.9198606271777 379.38388625592415 L 280.6620209059233 375.8293838862559 L 282.40418118466897 372.6303317535545 L 284.1463414634146 373.34123222748815 L 285.88850174216026 370.67535545023696 L 287.6306620209059 370.67535545023696 L 289.37282229965155 372.8080568720379 L 291.1149825783972 363.74407582938386 L 292.85714285714283 360.72274881516586 L 294.5993031358885 359.30094786729853 L 296.3414634146342 356.8127962085308 L 298.08362369337976 356.1018957345972 L 299.82578397212546 354.50236966824644 L 301.56794425087105 357.70142180094786 L 303.31010452961675 358.9454976303317 L 305.05226480836234 355.2132701421801 L 306.79442508710804 357.16824644549763 L 308.5365853658536 355.3909952606635 L 310.2787456445993 357.16824644549763 L 312.0209059233449 359.8341232227488 L 313.7630662020906 354.68009478672985 L 315.5052264808362 355.2132701421801 L 317.2473867595819 357.16824644549763 L 318.9895470383275 351.48104265402844 L 320.7317073170732 356.6350710900474 L 322.4738675958188 357.52369668246445 L 324.2160278745645 355.92417061611377 L 325.95818815331006 353.79146919431275 L 327.70034843205576 347.39336492890993 L 329.44250871080135 344.54976303317534 L 331.18466898954705 342.9502369668246 L 332.92682926829264 340.10663507109007 L 334.66898954703834 335.84123222748815 L 336.4111498257839 328.7322274881517 L 338.1533101045296 325.1777251184834 L 339.8954703832752 325.5331753554502 L 341.6376306620209 326.24407582938386 L 343.3797909407665 324.6445497630332 L 345.1219512195122 321.80094786729853 L 346.86411149825784 317.7132701421801 L 348.6062717770035 317.8909952606635 L 350.34843205574913 319.1350710900474 L 352.0905923344948 318.42417061611377 L 353.8327526132404 319.66824644549763 L 355.57491289198606 311.8483412322275 L 357.3170731707317 307.22748815165875 L 359.05923344947735 300.2962085308057 L 360.801393728223 302.4289099526066 L 362.54355400696863 301.36255924170615 L 364.2857142857143 300.2962085308057 L 366.0278745644599 294.07582938388623 L 367.77003484320556 293.0094786729858 L 369.5121951219512 294.07582938388623 L 371.25435540069685 288.56635071090045 L 372.9965156794425 283.7677725118483 L 374.73867595818814 279.50236966824644 L 376.4808362369338 268.12796208530807 L 378.2229965156794 271.8601895734597 L 379.96515679442507 274.5260663507109 L 381.7073170731707 268.12796208530807 L 383.44947735191636 262.2630331753554 L 385.191637630662 261.3744075829384 L 386.93379790940764 262.2630331753554 L 388.6759581881533 258.8862559241706 L 390.41811846689893 256.2203791469194 L 392.1602787456446 254.26540284360186 L 393.9024390243902 247.68957345971563 L 395.6445993031359 240.0473933649289 L 397.3867595818815 242.18009478672985 L 399.1289198606272 240.93601895734594 L 400.8710801393728 243.4241706161137 L 402.6132404181185 234.1824644549763 L 404.3554006968641 234.71563981042652 L 406.0975609756097 228.85071090047393 L 407.83972125435537 225.82938388625593 L 409.581881533101 219.6090047393365 L 411.32404181184666 218.00947867298578 L 413.0662020905923 213.21090047393363 L 414.80836236933794 206.10189573459712 L 416.5505226480836 201.30331753554503 L 418.29268292682923 193.12796208530807 L 420.0348432055749 195.08293838862556 L 421.7770034843206 188.50710900473933 L 423.5191637630662 184.41943127962082 L 425.26132404181186 188.15165876777252 L 427.0034843205575 189.7511848341232 L 428.74564459930315 184.41943127962082 L 430.4878048780488 181.93127962085305 L 432.22996515679444 185.13033175355451 L 433.9721254355401 187.6184834123223 L 435.7142857142857 188.68483412322274 L 437.45644599303137 188.86255924170615 L 439.198606271777 201.65876777251185 L 440.94076655052265 176.77725118483414 L 442.6829268292683 168.0687203791469 L 444.42508710801394 167.18009478672985 L 446.1672473867596 156.3388625592417 L 447.9094076655052 148.69668246445497 L 449.65156794425087 147.98578199052133 L 451.3937282229965 146.3862559241706 L 453.13588850174216 148.69668246445497 L 454.8780487804878 149.4075829383886 L 456.62020905923345 143.00947867298578 L 458.3623693379791 138.56635071090045 L 460.10452961672473 136.4336492890995 L 461.8466898954704 139.63270142180096 L 463.588850174216 142.65402843601896 L 465.33101045296166 132.70142180094786 L 467.0731707317073 137.5 L 468.81533101045295 128.7914691943128 L 470.5574912891986 125.94786729857822 L 472.29965156794424 119.01658767772511 L 474.0418118466899 116.17298578199052 L 475.7839721254355 120.61611374407585 L 477.52613240418117 118.30568720379148 L 479.2682926829268 118.12796208530807 L 481.01045296167246 117.7725118483412 L 482.7526132404181 100 L 484.49477351916374 104.97630331753555 L 486.2369337979094 106.75355450236964 L 487.97909407665503 127.36966824644549 L 489.7212543554007 124.17061611374407 L 491.4634146341463 131.2796208530806 L 493.20557491289196 126.83649289099526 L 494.9477351916376 123.28199052132703 L 496.68989547038325 137.3222748815166 L 498.4320557491289 138.92180094786727 L 500.17421602787454 142.29857819905214 L 501.9163763066202 146.91943127962082 L 503.6585365853658 148.34123222748815 L 505.40069686411147 150.65165876777252 L 507.1428571428571 143.7203791469194 L 508.88501742160275 147.27488151658764 L 510.6271777003484 149.05213270142178 L 512.3693379790941 160.42654028436016 L 514.1114982578397 155.0947867298578 L 515.8536585365853 162.91469194312793 L 517.595818815331 160.24881516587675 L 519.3379790940767 161.49289099526067 L 521.0801393728223 164.33649289099526 L 522.822299651568 177.66587677725119 L 524.5644599303137 185.48578199052133 L 526.3066202090592 193.12796208530807 L 528.0487804878048 195.61611374407585 L 529.7909407665505 195.26066350710897 L 531.5331010452962 197.57109004739334 L 533.2752613240418 192.5947867298578 L 535.0174216027874 177.31042654028437 L 536.7595818815331 178.73222748815164 L 538.5017421602788 179.62085308056874 L 540.2439024390244 177.66587677725119 L 541.98606271777 176.06635071090045 L 543.7282229965157 180.8649289099526 L 545.4703832752614 174.28909952606637 L 547.212543554007 171.62322274881518 L 548.9547038327526 171.62322274881518 L 550.6968641114983 169.1350710900474 L 552.439024390244 179.08767772511845 L 554.1811846689895 176.06635071090045 L 555.9233449477351 184.59715639810423 L 557.6655052264808 174.11137440758296 L 559.4076655052265 170.9123222748815 L 561.1498257839721 170.37914691943126 L 562.8919860627177 173.22274881516586 L 564.6341463414634 181.93127962085305 L 566.3763066202091 187.085308056872 L 568.1184668989547 197.21563981042652 L 569.8606271777003 197.21563981042652 L 571.602787456446 199.7037914691943 L 573.3449477351917 198.99289099526067 L 575.0871080139373 204.50236966824644 L 576.8292682926829 206.10189573459712 L 578.5714285714286 214.27725118483414 L 580.3135888501743 214.09952606635068 L 582.0557491289198 213.03317535545023 L 583.7979094076654 210.72274881516586 L 585.5400696864111 206.2796208530806 L 587.2822299651568 204.68009478672985 L 589.0243902439024 213.56635071090045 L 590.766550522648 213.74407582938386 L 592.5087108013937 216.40995260663504 L 594.2508710801394 208.94549763033177 L 595.993031358885 209.478672985782 L 597.7351916376306 209.83412322274881 L 599.4773519163763 215.521327014218 L 601.219512195122 215.16587677725119 L 602.9616724738676 219.25355450236964 L 604.7038327526132 224.2298578199052 L 606.4459930313589 227.07345971563979 L 608.1881533101046 236.49289099526067 L 609.9303135888501 244.3127962085308 L 611.6724738675957 240.58056872037912 L 613.4146341463414 245.20142180094786 L 615.1567944250871 250 L 616.8989547038327 252.48815165876778 L 618.6411149825783 250.71090047393363 L 620.383275261324 259.4194312796208 L 622.1254355400697 260.84123222748815 L 623.8675958188153 265.10663507109007 L 625.609756097561 265.6398104265403 L 627.3519163763067 263.86255924170615 L 629.0940766550523 264.3957345971564 L 630.8362369337979 272.92654028436016 L 632.5783972125436 276.83649289099526 L 634.3205574912893 280.7464454976303 L 636.0627177700349 281.8127962085308 L 637.8048780487804 286.4336492890995 L 639.5470383275261 288.38862559241704 L 641.2891986062718 291.0545023696682 L 643.0313588850174 295.31990521327015 L 644.773519163763 305.0947867298578 L 646.5156794425087 308.8270142180095 L 648.2578397212544 321.978672985782 L 650 330.8649289099526 L 650 400 Z" /><text  class="poloto_labels poloto_text poloto_title" alignment-baseline="start" text-anchor="middle" font-size="x-large" x="400" y="37.5" >Total players on 2021-06-16</text><text  class="poloto_labels poloto_text poloto_xname" alignment-baseline="start" text-anchor="middle" font-size="x-large" x="400" y="481.25" >Time</text><text  class="poloto_labels poloto_text poloto_yname" alignment-baseline="start" text-anchor="middle" font-size="x-large" transform="rotate(-90,37.5,250)" x="37.5" y="250" >Count</text><line  class="poloto_axis_lines" stroke="black" x1="208.0487804878049" x2="208.0487804878049" y1="400" y2="405" /><text  class="poloto_tick_labels poloto_text" alignment-baseline="start" text-anchor="middle" x="208.0487804878049" y="430" > 03:00</text><line  class="poloto_axis_lines" stroke="black" x1="266.1207897793264" x2="266.1207897793264" y1="400" y2="405" /><text  class="poloto_tick_labels poloto_text" alignment-baseline="start" text-anchor="middle" x="266.1207897793264" y="430" > 06:00</text><line  class="poloto_axis_lines" stroke="black" x1="324.19279907084785" x2="324.19279907084785" y1="400" y2="405" /><text  class="poloto_tick_labels poloto_text" alignment-baseline="start" text-anchor="middle" x="324.19279907084785" y="430" > 08:00</text><line  class="poloto_axis_lines" stroke="black" x1="382.2648083623693" x2="382.2648083623693" y1="400" y2="405" /><text  class="poloto_tick_labels poloto_text" alignment-baseline="start" text-anchor="middle" x="382.2648083623693" y="430" > 11:00</text><line  class="poloto_axis_lines" stroke="black" x1="440.3368176538908" x2="440.3368176538908" y1="400" y2="405" /><text  class="poloto_tick_labels poloto_text" alignment-baseline="start" text-anchor="middle" x="440.3368176538908" y="430" > 14:00</text><line  class="poloto_axis_lines" stroke="black" x1="498.4088269454123" x2="498.4088269454123" y1="400" y2="405" /><text  class="poloto_tick_labels poloto_text" alignment-baseline="start" text-anchor="middle" x="498.4088269454123" y="430" > 17:00</text><line  class="poloto_axis_lines" stroke="black" x1="556.4808362369338" x2="556.4808362369338" y1="400" y2="405" /><text  class="poloto_tick_labels poloto_text" alignment-baseline="start" text-anchor="middle" x="556.4808362369338" y="430" > 19:00</text><line  class="poloto_axis_lines" stroke="black" x1="614.5528455284552" x2="614.5528455284552" y1="400" y2="405" /><text  class="poloto_tick_labels poloto_text" alignment-baseline="start" text-anchor="middle" x="614.5528455284552" y="430" > 22:00</text><line  class="poloto_axis_lines" stroke="black" x1="150" x2="144" y1="393.7796208530806" y2="393.7796208530806" /><text  class="poloto_tick_labels poloto_text" alignment-baseline="middle" text-anchor="end" x="135" y="393.7796208530806" > 1000</text><line  class="poloto_axis_lines" stroke="black" x1="150" x2="144" y1="304.9170616113744" y2="304.9170616113744" /><text  class="poloto_tick_labels poloto_text" alignment-baseline="middle" text-anchor="end" x="135" y="304.9170616113744" > 1500</text><line  class="poloto_axis_lines" stroke="black" x1="150" x2="144" y1="216.05450236966823" y2="216.05450236966823" /><text  class="poloto_tick_labels poloto_text" alignment-baseline="middle" text-anchor="end" x="135" y="216.05450236966823" > 2000</text><line  class="poloto_axis_lines" stroke="black" x1="150" x2="144" y1="127.19194312796208" y2="127.19194312796208" /><text  class="poloto_tick_labels poloto_text" alignment-baseline="middle" text-anchor="end" x="135" y="127.19194312796208" > 2500</text><path  stroke="black" fill="none" class="poloto_axis_lines" style="stroke-dasharray:14.518002322880372;stroke-dashoffset:-58.04878048780488;" d=" M 150 400 L 650 400" /><path  stroke="black" fill="none" class="poloto_axis_lines" style="stroke-dasharray:8.886255924170616;stroke-dashoffset:-6.220379146919441;" d=" M 150 400 L 150 100" /></svg>