<svg class="poloto" width="800" height="500" viewBox="0 0 800 500" xmlns="http://www.w3.org/2000/svg"><style>.poloto { stroke-linecap:round; stroke-linejoin:round; font-family: 'Tahoma', sans-serif; background-color: AliceBlue;} .poloto_scatter{stroke-width:7} .poloto_line{stroke-width:2} .poloto_text{fill: black;} .poloto_axis_lines{stroke: black;stroke-width:3;fill:none;stroke-dasharray:none} .poloto0stroke{stroke:  blue;} .poloto1stroke{stroke:  red;} .poloto2stroke{stroke:  green;} .poloto3stroke{stroke:  gold;} .poloto4stroke{stroke:  aqua;} .poloto5stroke{stroke:  lime;} .poloto6stroke{stroke:  orange;} .poloto7stroke{stroke:  chocolate;} .poloto0fill{fill:blue;} .poloto1fill{fill:red;} .poloto2fill{fill:green;} .poloto3fill{fill:gold;} .poloto4fill{fill:aqua;} .poloto5fill{fill:lime;} .poloto6fill{fill:orange;} .poloto7fill{fill:chocolate;}</style><text  class="poloto_text poloto_legend_text" alignment-baseline="middle" text-anchor="start" font-size="large" x="675" y="100" ></text><path  class="poloto_linefill poloto0fill" d=" M 150 400 L 150 292.6425772747061 L 151.74216027874564 293.6874183717893 L 153.4843205574913 293.2956029603831 L 155.22648083623693 299.17283413147584 L 156.96864111498257 302.6991728341315 L 158.71080139372822 301.00130605137133 L 160.45296167247386 298.78101872006965 L 162.1951219512195 304.7888550282978 L 163.93728222996515 307.0091423595995 L 165.6794425087108 310.5354810622551 L 167.42160278745644 313.147583804963 L 169.16376306620208 315.3678711362647 L 170.90592334494772 320.8532868959512 L 172.64808362369337 321.114497170222 L 174.390243902439 324.6408358728777 L 176.13240418118465 325.0326512842839 L 177.8745644599303 324.51023073574225 L 179.61672473867597 323.2041793643883 L 181.3588850174216 327.7753591641271 L 183.10104529616726 331.82411841532434 L 184.8432055749129 331.43230300391815 L 186.58536585365854 329.8650413582934 L 188.3275261324042 328.29777971266867 L 190.06968641114983 331.69351327818896 L 191.81184668989548 331.5629081410535 L 193.55400696864112 332.7383543752721 L 195.29616724738676 333.78319547235526 L 197.0383275261324 337.0483239007401 L 198.78048780487805 337.4401393121463 L 200.5226480836237 335.35045711798 L 202.26480836236934 335.21985198084457 L 204.00696864111498 335.35045711798 L 205.74912891986062 337.5707444492817 L 207.49128919860627 337.0483239007401 L 209.2334494773519 334.4362211580322 L 210.97560975609755 331.43230300391815 L 212.7177700348432 333.6525903352198 L 214.45993031358887 332.47714410100133 L 216.2020905923345 334.17501088376144 L 217.94425087108016 332.2159338267305 L 219.6864111498258 328.29777971266867 L 221.42857142857144 324.6408358728777 L 223.1707317073171 326.077492381367 L 224.91289198606273 323.07357422725295 L 226.65505226480838 323.9878101872007 L 228.39721254355402 325.9468872442316 L 230.13937282229966 321.767522855899 L 231.8815331010453 319.5472355245973 L 233.62369337979095 317.84936874183717 L 235.3658536585366 316.2821070962124 L 237.10801393728224 314.71484545058775 L 238.85017421602788 314.1924249020461 L 240.59233449477352 317.3269481932956 L 242.33449477351917 313.9312146277754 L 244.0766550522648 316.54331737048324 L 245.81881533101046 317.3269481932956 L 247.5609756097561 315.75968654767087 L 249.30313588850174 315.89029168480624 L 251.0452961672474 312.1027427078798 L 252.78745644599303 312.7557683935568 L 254.52961672473867 316.41271223334786 L 256.2717770034843 313.67000435350457 L 258.01393728222996 316.9351327818894 L 259.7560975609756 316.54331737048324 L 261.49825783972125 316.41271223334786 L 263.2404181184669 317.7187636047018 L 264.98257839721254 319.5472355245973 L 266.7247386759582 318.37178929037873 L 268.4668989547038 315.6290814105355 L 270.20905923344947 315.49847627340006 L 271.9512195121951 315.49847627340006 L 273.69337979094075 316.80452764475405 L 275.4355400696864 316.6739225076186 L 277.17770034843204 313.80060949063994 L 278.9198606271777 314.32303003918156 L 280.6620209059233 311.4497170222029 L 282.40418118466897 309.3600348280366 L 284.1463414634146 306.3561166739225 L 285.88850174216026 304.9194601654332 L 287.6306620209059 301.91554201131913 L 289.37282229965155 298.78101872006965 L 291.1149825783972 299.3034392686112 L 292.85714285714283 298.12799303439266 L 294.5993031358885 297.08315193730954 L 296.3414634146342 295.1240748802786 L 298.08362369337976 293.5568132346539 L 299.82578397212546 290.5528950805398 L 301.56794425087105 293.2956029603831 L 303.31010452961675 292.12015672616457 L 305.05226480836234 293.4262080975185 L 306.79442508710804 295.907705703091 L 308.5365853658536 303.35219851980844 L 310.2787456445993 303.61340879407925 L 312.0209059233449 304.2664344797562 L 313.7630662020906 304.00522420548543 L 315.5052264808362 300.60949063996514 L 317.2473867595819 299.17283413147584 L 318.9895470383275 294.34044405746624 L 320.7317073170732 293.1649978232477 L 322.4738675958188 296.69133652590335 L 324.2160278745645 295.25468001741405 L 325.95818815331006 290.2916848062691 L 327.70034843205576 290.03047453199827 L 329.44250871080135 290.81410535481064 L 331.18466898954705 288.9856334349151 L 332.92682926829264 287.67958206356116 L 334.66898954703834 287.0265563778842 L 336.4111498257839 286.24292555507185 L 338.1533101045296 283.23900740095775 L 339.8954703832752 287.28776665215497 L 341.6376306620209 286.3735306922072 L 343.3797909407665 284.54505877231173 L 345.1219512195122 283.3696125380932 L 346.86411149825784 282.06356116673925 L 348.6062717770035 281.14932520679145 L 350.34843205574913 282.45537657814543 L 352.0905923344948 273.1824118415324 L 353.8327526132404 269.0030474531998 L 355.57491289198606 270.57030909882457 L 357.3170731707317 276.96996081845884 L 359.05923344947735 265.3461036134088 L 360.801393728223 262.21158032215936 L 362.54355400696863 256.8567696996082 L 364.2857142857143 259.7300827165869 L 366.0278745644599 257.6404005224206 L 367.77003484320556 254.63648236830647 L 369.5121951219512 255.42011319111884 L 371.25435540069685 253.98345668262954 L 372.9965156794425 400 L 374.73867595818814 363.95298215063127 L 376.4808362369338 251.11014366565087 L 378.2229965156794 249.6734871571615 L 379.96515679442507 247.845015237266 L 381.7073170731707 248.36743578580757 L 383.44947735191636 247.845015237266 L 385.191637630662 246.27775359164127 L 386.93379790940764 243.27383543752723 L 388.6759581881533 242.09838920330867 L 390.41811846689893 243.7962559860688 L 392.1602787456446 245.36351763169353 L 393.9024390243902 246.66956900304746 L 395.6445993031359 244.97170222028734 L 397.3867595818815 244.0574662603396 L 399.1289198606272 240.13931214627775 L 400.8710801393728 237.3966042664345 L 402.6132404181185 230.73574227252936 L 404.3554006968641 231.78058336961254 L 406.0975609756097 227.60121898127994 L 407.83972125435537 223.9442751414889 L 409.581881533101 219.89551589029168 L 411.32404181184666 217.80583369612538 L 413.0662020905923 216.89159773617763 L 414.80836236933794 212.0592076621681 L 416.5505226480836 214.01828471919896 L 418.29268292682923 208.6634740966478 L 420.0348432055749 213.4958641706574 L 421.7770034843206 217.4140182847192 L 423.5191637630662 214.27949499346977 L 425.26132404181186 211.1449717022203 L 427.0034843205575 201.74140182847196 L 428.74564459930315 192.59904222899434 L 430.4878048780488 186.46060078363087 L 432.22996515679444 179.93034392686116 L 433.9721254355401 175.75097953852855 L 435.7142857142857 172.35524597300827 L 437.45644599303137 166.73922507618636 L 439.198606271777 167.26164562472792 L 440.94076655052265 163.60470178493688 L 442.6829268292683 161.25380931649983 L 444.42508710801394 161.3844144536352 L 446.1672473867596 154.07052677405312 L 447.9094076655052 144.79756203744017 L 449.65156794425087 148.97692642577277 L 451.3937282229965 147.14845450587728 L 453.13588850174216 146.3648236830649 L 454.8780487804878 138.65912059207665 L 456.62020905923345 133.43491510666087 L 458.3623693379791 127.94949934697433 L 460.10452961672473 124.94558119286029 L 461.8466898954704 124.94558119286029 L 463.588850174216 121.94166303874624 L 465.33101045296166 121.02742707879844 L 467.0731707317073 123.50892468437092 L 468.81533101045295 117.3704832390074 L 470.5574912891986 117.63169351327821 L 472.29965156794424 120.50500653025688 L 474.0418118466899 117.3704832390074 L 475.7839721254355 112.53809316499786 L 477.52613240418117 106.53025685676971 L 479.2682926829268 104.96299521114497 L 481.01045296167246 100 L 482.7526132404181 108.22812363952983 L 484.49477351916374 106.39965171963433 L 486.2369337979094 106.00783630822815 L 487.97909407665503 109.66478014801919 L 489.7212543554007 108.09751850239445 L 491.4634146341463 107.44449281671746 L 493.20557491289196 107.31388767958208 L 494.9477351916376 109.66478014801919 L 496.68989547038325 110.44841097083156 L 498.4320557491289 106.26904658249896 L 500.17421602787454 114.49717022202879 L 501.9163763066202 120.24379625598607 L 503.6585365853658 125.33739660426647 L 505.40069686411147 123.90074009577711 L 507.1428571428571 125.20679146713104 L 508.88501742160275 128.0801044841097 L 510.6271777003484 128.86373530692208 L 512.3693379790941 133.82673051806705 L 514.1114982578397 130.43099695254682 L 515.8536585365853 129.64736612973445 L 517.595818815331 136.70004353504572 L 519.3379790940767 143.62211580322162 L 521.0801393728223 151.58902916848064 L 522.822299651568 155.24597300827168 L 524.5644599303137 159.0335219851981 L 526.3066202090592 166.60861993905098 L 528.0487804878048 164.1271223334785 L 529.7909407665505 167.26164562472792 L 531.5331010452962 169.61253809316503 L 533.2752613240418 172.61645624727907 L 535.0174216027874 168.17588158467566 L 536.7595818815331 218.85067479320855 L 538.5017421602788 238.44144536351763 L 540.2439024390244 257.11797997387896 L 541.98606271777 245.10230735742272 L 543.7282229965157 264.8236830648672 L 545.4703832752614 194.0356987374837 L 547.212543554007 184.50152372659994 L 548.9547038327526 191.9460165433174 L 550.6968641114983 197.82324771441012 L 552.439024390244 191.42359599477584 L 554.1811846689895 196.25598606878538 L 555.9233449477351 199.65171963430566 L 557.6655052264808 199.39050936003486 L 559.4076655052265 199.78232477144104 L 561.1498257839721 203.56987374836746 L 562.8919860627177 195.34175010883763 L 564.6341463414634 203.96168915977364 L 566.3763066202091 208.6634740966478 L 568.1184668989547 213.1040487592512 L 569.8606271777003 208.14105354810624 L 571.602787456446 205.1371353939922 L 573.3449477351917 203.96168915977364 L 575.0871080139373 202.26382237701353 L 576.8292682926829 200.6965607313888 L 578.5714285714286 203.0474531998259 L 580.3135888501743 210.7531562908141 L 582.0557491289198 212.32041793643884 L 583.7979094076654 211.1449717022203 L 585.5400696864111 209.18589464518942 L 587.2822299651568 212.71223334784503 L 589.0243902439024 214.80191554201133 L 590.766550522648 215.3243360905529 L 592.5087108013937 216.10796691336526 L 594.2508710801394 216.10796691336526 L 595.993031358885 212.45102307357422 L 597.7351916376306 212.97344362211584 L 599.4773519163763 214.01828471919896 L 601.219512195122 217.80583369612538 L 602.9616724738676 223.2912494558119 L 604.7038327526132 222.89943404440578 L 606.4459930313589 223.9442751414889 L 608.1881533101046 227.20940356987376 L 609.9303135888501 231.38876795820636 L 611.6724738675957 233.21723987810185 L 613.4146341463414 237.26599912929908 L 615.1567944250871 238.31084022638225 L 616.8989547038327 240.40052242054855 L 618.6411149825783 239.4862864606008 L 620.383275261324 241.9677840661733 L 622.1254355400697 248.49804092294295 L 623.8675958188153 247.45319982585983 L 625.609756097561 249.41227688289075 L 627.3519163763067 245.8859381802351 L 629.0940766550523 254.1140618197649 L 630.8362369337979 257.6404005224206 L 632.5783972125436 259.0770570309099 L 634.3205574912893 261.427949499347 L 636.0627177700349 265.73791902481497 L 637.8048780487804 263.64823683064867 L 639.5470383275261 266.12973443622116 L 641.2891986062718 270.8315193730953 L 643.0313588850174 273.704832390074 L 644.773519163763 282.977797126687 L 646.5156794425087 283.3696125380932 L 648.2578397212544 284.54505877231173 L 650 284.4144536351763 L 650 400 Z" /><text  class="poloto_labels poloto_text poloto_title" alignment-baseline="start" text-anchor="middle" font-size="x-large" x="400" y="37.5" >Total players on 2021-06-08</text><text  class="poloto_labels poloto_text poloto_xname" alignment-baseline="start" text-anchor="middle" font-size="x-large" x="400" y="481.25" >Time</text><text  class="poloto_labels poloto_text poloto_yname" alignment-baseline="start" text-anchor="middle" font-size="x-large" transform="rotate(-90,37.5,250)" x="37.5" y="250" >Count</text><line  class="poloto_axis_lines" stroke="black" x1="208.0487804878049" x2="208.0487804878049" y1="400" y2="405" /><text  class="poloto_tick_labels poloto_text" alignment-baseline="start" text-anchor="middle" x="208.0487804878049" y="430" > 02:46:40</text><line  class="poloto_axis_lines" stroke="black" x1="266.1207897793264" x2="266.1207897793264" y1="400" y2="405" /><text  class="poloto_tick_labels poloto_text" alignment-baseline="start" text-anchor="middle" x="266.1207897793264" y="430" > 05:33:20</text><line  class="poloto_axis_lines" stroke="black" x1="324.19279907084785" x2="324.19279907084785" y1="400" y2="405" /><text  class="poloto_tick_labels poloto_text" alignment-baseline="start" text-anchor="middle" x="324.19279907084785" y="430" > 08:20:00</text><line  class="poloto_axis_lines" stroke="black" x1="382.2648083623693" x2="382.2648083623693" y1="400" y2="405" /><text  class="poloto_tick_labels poloto_text" alignment-baseline="start" text-anchor="middle" x="382.2648083623693" y="430" > 11:06:40</text><line  class="poloto_axis_lines" stroke="black" x1="440.3368176538908" x2="440.3368176538908" y1="400" y2="405" /><text  class="poloto_tick_labels poloto_text" alignment-baseline="start" text-anchor="middle" x="440.3368176538908" y="430" > 13:53:20</text><line  class="poloto_axis_lines" stroke="black" x1="498.4088269454123" x2="498.4088269454123" y1="400" y2="405" /><text  class="poloto_tick_labels poloto_text" alignment-baseline="start" text-anchor="middle" x="498.4088269454123" y="430" > 16:40:00</text><line  class="poloto_axis_lines" stroke="black" x1="556.4808362369338" x2="556.4808362369338" y1="400" y2="405" /><text  class="poloto_tick_labels poloto_text" alignment-baseline="start" text-anchor="middle" x="556.4808362369338" y="430" > 19:26:40</text><line  class="poloto_axis_lines" stroke="black" x1="614.5528455284552" x2="614.5528455284552" y1="400" y2="405" /><text  class="poloto_tick_labels poloto_text" alignment-baseline="start" text-anchor="middle" x="614.5528455284552" y="430" > 22:13:20</text><line  class="poloto_axis_lines" stroke="black" x1="150" x2="144" y1="340.44405746626035" y2="340.44405746626035" /><text  class="poloto_tick_labels poloto_text" alignment-baseline="middle" text-anchor="end" x="135" y="340.44405746626035" > 1000</text><line  class="poloto_axis_lines" stroke="black" x1="150" x2="144" y1="275.14148889856335" y2="275.14148889856335" /><text  class="poloto_tick_labels poloto_text" alignment-baseline="middle" text-anchor="end" x="135" y="275.14148889856335" > 1500</text><line  class="poloto_axis_lines" stroke="black" x1="150" x2="144" y1="209.83892033086636" y2="209.83892033086636" /><text  class="poloto_tick_labels poloto_text" alignment-baseline="middle" text-anchor="end" x="135" y="209.83892033086636" > 2000</text><line  class="poloto_axis_lines" stroke="black" x1="150" x2="144" y1="144.53635176316936" y2="144.53635176316936" /><text  class="poloto_tick_labels poloto_text" alignment-baseline="middle" text-anchor="end" x="135" y="144.53635176316936" > 2500</text><path  stroke="black" fill="none" class="poloto_axis_lines" style="stroke-dasharray:14.518002322880372;stroke-dashoffset:-58.04878048780488;" d=" M 150 400 L 650 400" /><path  stroke="black" fill="none" class="poloto_axis_lines" style="stroke-dasharray:6.530256856769699;stroke-dashoffset:-59.55594253373967;" d=" M 150 400 L 150 100" /></svg>