<svg class="poloto" width="800" height="500" viewBox="0 0 800 500" xmlns="http://www.w3.org/2000/svg"><style>.poloto { stroke-linecap:round; stroke-linejoin:round; font-family: 'Tahoma', sans-serif; background-color: AliceBlue;} .poloto_scatter{stroke-width:7} .poloto_line{stroke-width:2} .poloto_text{fill: black;} .poloto_axis_lines{stroke: black;stroke-width:3;fill:none;stroke-dasharray:none} .poloto0stroke{stroke:  blue;} .poloto1stroke{stroke:  red;} .poloto2stroke{stroke:  green;} .poloto3stroke{stroke:  gold;} .poloto4stroke{stroke:  aqua;} .poloto5stroke{stroke:  lime;} .poloto6stroke{stroke:  orange;} .poloto7stroke{stroke:  chocolate;} .poloto0fill{fill:blue;} .poloto1fill{fill:red;} .poloto2fill{fill:green;} .poloto3fill{fill:gold;} .poloto4fill{fill:aqua;} .poloto5fill{fill:lime;} .poloto6fill{fill:orange;} .poloto7fill{fill:chocolate;}</style><text  class="poloto_text poloto_legend_text" alignment-baseline="middle" text-anchor="start" font-size="large" x="675" y="100" ></text><path  class="poloto_linefill poloto0fill" d=" M 150 400 L 150 340.07807417046195 L 151.74216027874564 338.12621990891347 L 153.4843205574913 341.63955757970075 L 155.22648083623693 347.88549121665585 L 156.96864111498257 358.81587508132725 L 158.71080139372822 357.44957709824337 L 160.45296167247386 359.4014313597918 L 162.1951219512195 359.7918022121015 L 163.93728222996515 362.13402732595966 L 165.6794425087108 363.10995445673393 L 167.42160278745644 366.81847755367596 L 169.16376306620208 371.6981132075472 L 170.90592334494772 372.86922576447625 L 172.64808362369337 380.4814573845153 L 174.390243902439 377.7488614183475 L 176.13240418118465 374.82108002602473 L 177.8745644599303 372.2836694860117 L 179.61672473867597 377.55367599219255 L 181.3588850174216 381.06701366297983 L 183.10104529616726 375.9921925829538 L 184.8432055749129 382.04294079375404 L 186.58536585365854 391.8022121014964 L 188.3275261324042 396.87703318152245 L 190.06968641114983 400 L 191.81184668989548 391.2166558230319 L 193.55400696864112 390.0455432661028 L 195.29616724738676 392.97332465842555 L 197.0383275261324 392.77813923227063 L 198.78048780487805 391.8022121014964 L 200.5226480836237 393.7540663630449 L 202.26480836236934 393.5588809368901 L 204.00696864111498 389.85035783994795 L 205.74912891986062 389.65517241379314 L 207.49128919860627 387.11776187378007 L 209.2334494773519 383.60442420299285 L 210.97560975609755 381.4573845152895 L 212.7177700348432 380.28627195836043 L 214.45993031358887 381.2621990891347 L 216.2020905923345 380.67664281067016 L 217.94425087108016 387.5081327260898 L 219.6864111498258 390.0455432661028 L 221.42857142857144 387.11776187378007 L 223.1707317073171 385.16590761223165 L 224.91289198606273 378.334417696812 L 226.65505226480838 379.5055302537411 L 228.39721254355402 381.84775536759923 L 230.13937282229966 376.7729342875732 L 231.8815331010453 374.62589459986987 L 233.62369337979095 375.9921925829538 L 235.3658536585366 370.33181522446324 L 237.10801393728224 368.9655172413793 L 238.85017421602788 367.2088484059857 L 240.59233449477352 359.7918022121015 L 242.33449477351917 356.27846454131424 L 244.0766550522648 353.1554977228367 L 245.81881533101046 346.32400780741705 L 247.5609756097561 341.4443721535459 L 249.30313588850174 339.4925178919974 L 251.0452961672474 341.4443721535459 L 252.78745644599303 344.56733897202344 L 254.52961672473867 343.9817826935589 L 256.2717770034843 336.9551073519844 L 258.01393728222996 335.7839947950553 L 259.7560975609756 332.07547169811323 L 261.49825783972125 332.66102797657777 L 263.2404181184669 337.9310344827586 L 264.98257839721254 341.4443721535459 L 266.7247386759582 340.6636304489265 L 268.4668989547038 341.0540013012362 L 270.20905923344947 342.0299284320104 L 271.9512195121951 343.9817826935589 L 273.69337979094075 344.7625243981783 L 275.4355400696864 345.54326610279765 L 277.17770034843204 341.63955757970075 L 278.9198606271777 340.2732595966168 L 280.6620209059233 337.34547820429407 L 282.40418118466897 335.7839947950553 L 284.1463414634146 337.9310344827586 L 285.88850174216026 335.58880936890046 L 287.6306620209059 325.63435263500327 L 289.37282229965155 345.7384515289525 L 291.1149825783972 344.56733897202344 L 292.85714285714283 344.7625243981783 L 294.5993031358885 320.7547169811321 L 296.3414634146342 311.1906310995446 L 298.08362369337976 313.7280416395576 L 299.82578397212546 306.50618087182824 L 301.56794425087105 304.9446974625895 L 303.31010452961675 297.1372804163956 L 305.05226480836234 295.77098243331164 L 306.79442508710804 292.45283018867923 L 308.5365853658536 290.6961613532856 L 310.2787456445993 288.74430709173714 L 312.0209059233449 286.79245283018867 L 313.7630662020906 275.6668835393624 L 315.5052264808362 274.6909564085882 L 317.2473867595819 279.3754066363045 L 318.9895470383275 275.27651268705273 L 320.7317073170732 271.56798959011064 L 322.4738675958188 275.6668835393624 L 324.2160278745645 275.27651268705273 L 325.95818815331006 271.56798959011064 L 327.70034843205576 267.8594664931685 L 329.44250871080135 268.6402081977879 L 331.18466898954705 267.27391021470396 L 332.92682926829264 265.1268705270007 L 334.66898954703834 258.1001951854262 L 336.4111498257839 254.78204294079376 L 338.1533101045296 246.38906961613532 L 339.8954703832752 241.3142485361093 L 341.6376306620209 230.77423552374756 L 343.3797909407665 231.55497722836697 L 345.1219512195122 232.53090435914118 L 346.86411149825784 234.87312947299938 L 348.6062717770035 234.28757319453484 L 350.34843205574913 238.3864671437866 L 352.0905923344948 241.11906310995448 L 353.8327526132404 239.36239427456087 L 355.57491289198606 240.53350683148994 L 357.3170731707317 236.23942745608326 L 359.05923344947735 233.50683148991544 L 360.801393728223 227.45608327911515 L 362.54355400696863 221.99089134677945 L 364.2857142857143 217.1112556929083 L 366.0278745644599 215.74495770982435 L 367.77003484320556 212.03643461288226 L 369.5121951219512 210.8653220559532 L 371.25435540069685 210.08458035133378 L 372.9965156794425 200.1301236174366 L 374.73867595818814 199.93493819128173 L 376.4808362369338 202.6675341574496 L 378.2229965156794 201.8867924528302 L 379.96515679442507 197.20234222511385 L 381.7073170731707 192.90826284970723 L 383.44947735191636 204.0338321405335 L 385.191637630662 205.5953155497723 L 386.93379790940764 203.83864671437868 L 388.6759581881533 197.39752765126872 L 390.41811846689893 185.49121665582305 L 392.1602787456446 179.0500975927131 L 393.9024390243902 181.00195185426156 L 395.6445993031359 175.53675992192586 L 397.3867595818815 168.90045543266103 L 399.1289198606272 176.70787247885494 L 400.8710801393728 175.341574495771 L 402.6132404181185 174.17046193884192 L 404.3554006968641 167.3389720234223 L 406.0975609756097 166.55823031880288 L 407.83972125435537 164.99674690956408 L 409.581881533101 165.97267404033835 L 411.32404181184666 171.43786597267405 L 413.0662020905923 173.19453480806766 L 414.80836236933794 174.75601821730646 L 416.5505226480836 176.51268705270007 L 418.29268292682923 172.02342225113858 L 420.0348432055749 163.24007807417047 L 421.7770034843206 168.3148991541965 L 423.5191637630662 164.80156148340927 L 425.26132404181186 151.72413793103448 L 427.0034843205575 147.82042940793758 L 428.74564459930315 139.42745608327914 L 430.4878048780488 150.35783994795054 L 432.22996515679444 151.91932335718934 L 433.9721254355401 138.64671437865974 L 435.7142857142857 147.82042940793758 L 437.45644599303137 142.35523747560183 L 439.198606271777 138.45152895250487 L 440.94076655052265 135.13337670787251 L 442.6829268292683 133.96226415094338 L 444.42508710801394 129.2778139232271 L 446.1672473867596 129.86337020169162 L 447.9094076655052 130.44892648015616 L 449.65156794425087 136.69486011711126 L 451.3937282229965 131.62003903708523 L 453.13588850174216 124.98373454782046 L 454.8780487804878 121.86076772934291 L 456.62020905923345 115.41964866623294 L 458.3623693379791 106.83148991541964 L 460.10452961672473 109.17371502927784 L 461.8466898954704 104.87963565387122 L 463.588850174216 101.5614834092388 L 465.33101045296166 102.14703968770334 L 467.0731707317073 111.71112556929086 L 468.81533101045295 118.34743005855563 L 470.5574912891986 120.2992843201041 L 472.29965156794424 121.47039687703318 L 474.0418118466899 115.02927781392322 L 475.7839721254355 116.20039037085235 L 477.52613240418117 112.88223812621993 L 479.2682926829268 109.75927130774238 L 481.01045296167246 100 L 482.7526132404181 105.85556278464537 L 484.49477351916374 106.0507482108003 L 486.2369337979094 117.56668835393623 L 487.97909407665503 110.73519843851659 L 489.7212543554007 115.22446324007808 L 491.4634146341463 110.14964216005205 L 493.20557491289196 109.36890045543265 L 494.9477351916376 117.17631750162656 L 496.68989547038325 119.5185426154847 L 498.4320557491289 119.5185426154847 L 500.17421602787454 121.47039687703318 L 501.9163763066202 130.64411190631102 L 503.6585365853658 138.8418998048146 L 505.40069686411147 138.64671437865974 L 507.1428571428571 141.96486662329215 L 508.88501742160275 148.0156148340924 L 510.6271777003484 160.11711125569292 L 512.3693379790941 163.825634352635 L 514.1114982578397 171.43786597267405 L 515.8536585365853 172.80416395575799 L 517.595818815331 170.8523096942095 L 519.3379790940767 169.0956408588159 L 521.0801393728223 157.5797007156799 L 522.822299651568 168.51008458035136 L 524.5644599303137 170.46193884189984 L 526.3066202090592 185.2960312296682 L 528.0487804878048 188.6141834743006 L 529.7909407665505 187.63825634352634 L 531.5331010452962 186.46714378659726 L 533.2752613240418 197.98308392973325 L 535.0174216027874 205.5953155497723 L 536.7595818815331 212.6219908913468 L 538.5017421602788 209.49902407286925 L 540.2439024390244 208.71828236824985 L 541.98606271777 203.05790500975928 L 543.7282229965157 198.76382563435266 L 545.4703832752614 208.1327260897853 L 547.212543554007 209.49902407286925 L 548.9547038327526 215.9401431359792 L 550.6968641114983 216.13532856213402 L 552.439024390244 215.1594014313598 L 554.1811846689895 211.25569290826286 L 555.9233449477351 218.47755367599223 L 557.6655052264808 213.98828887443074 L 559.4076655052265 218.28236824983736 L 561.1498257839721 215.74495770982435 L 562.8919860627177 217.69681197137282 L 564.6341463414634 210.67013662979832 L 566.3763066202091 208.9134677944047 L 568.1184668989547 205.00975927130776 L 569.8606271777003 204.8145738451529 L 571.602787456446 207.74235523747564 L 573.3449477351917 201.49642160052053 L 575.0871080139373 202.27716330513988 L 576.8292682926829 212.81717631750166 L 578.5714285714286 212.81717631750166 L 580.3135888501743 210.27976577748865 L 582.0557491289198 218.47755367599223 L 583.7979094076654 234.48275862068965 L 585.5400696864111 228.62719583604428 L 587.2822299651568 226.08978529603127 L 589.0243902439024 234.67794404684452 L 590.766550522648 238.3864671437866 L 592.5087108013937 231.75016265452183 L 594.2508710801394 231.94534808067664 L 595.993031358885 229.79830839297335 L 597.7351916376306 237.02016916070266 L 599.4773519163763 241.89980481457388 L 601.219512195122 245.4131424853611 L 602.9616724738676 244.4372153545869 L 604.7038327526132 245.02277163305143 L 606.4459930313589 239.36239427456087 L 608.1881533101046 239.9479505530254 L 609.9303135888501 255.95315549772283 L 611.6724738675957 248.14573845152898 L 613.4146341463414 249.9024072869226 L 615.1567944250871 255.75797007156802 L 616.8989547038327 261.80871828236826 L 618.6411149825783 267.8594664931685 L 620.383275261324 273.32465842550425 L 622.1254355400697 281.71763175016264 L 623.8675958188153 288.35393623942747 L 625.609756097561 282.10800260247237 L 627.3519163763067 287.57319453480807 L 629.0940766550523 289.3298633702017 L 630.8362369337979 294.99024072869224 L 632.5783972125436 315.6798959011061 L 634.3205574912893 315.6798959011061 L 636.0627177700349 319.1932335718933 L 637.8048780487804 318.80286271958363 L 639.5470383275261 320.9499024072869 L 641.2891986062718 327.58620689655174 L 643.0313588850174 332.07547169811323 L 644.773519163763 341.4443721535459 L 646.5156794425087 348.86141834743006 L 648.2578397212544 347.2999349381913 L 650 359.59661678594665 L 650 400 Z" /><text  class="poloto_labels poloto_text poloto_title" alignment-baseline="start" text-anchor="middle" font-size="x-large" x="400" y="37.5" >Total players on 2021-06-20</text><text  class="poloto_labels poloto_text poloto_xname" alignment-baseline="start" text-anchor="middle" font-size="x-large" x="400" y="481.25" >Time</text><text  class="poloto_labels poloto_text poloto_yname" alignment-baseline="start" text-anchor="middle" font-size="x-large" transform="rotate(-90,37.5,250)" x="37.5" y="250" >Count</text><line  class="poloto_axis_lines" stroke="black" x1="208.0487804878049" x2="208.0487804878049" y1="400" y2="405" /><text  class="poloto_tick_labels poloto_text" alignment-baseline="start" text-anchor="middle" x="208.0487804878049" y="430" > 02:46:40</text><line  class="poloto_axis_lines" stroke="black" x1="266.1207897793264" x2="266.1207897793264" y1="400" y2="405" /><text  class="poloto_tick_labels poloto_text" alignment-baseline="start" text-anchor="middle" x="266.1207897793264" y="430" > 05:33:20</text><line  class="poloto_axis_lines" stroke="black" x1="324.19279907084785" x2="324.19279907084785" y1="400" y2="405" /><text  class="poloto_tick_labels poloto_text" alignment-baseline="start" text-anchor="middle" x="324.19279907084785" y="430" > 08:20:00</text><line  class="poloto_axis_lines" stroke="black" x1="382.2648083623693" x2="382.2648083623693" y1="400" y2="405" /><text  class="poloto_tick_labels poloto_text" alignment-baseline="start" text-anchor="middle" x="382.2648083623693" y="430" > 11:06:40</text><line  class="poloto_axis_lines" stroke="black" x1="440.3368176538908" x2="440.3368176538908" y1="400" y2="405" /><text  class="poloto_tick_labels poloto_text" alignment-baseline="start" text-anchor="middle" x="440.3368176538908" y="430" > 13:53:20</text><line  class="poloto_axis_lines" stroke="black" x1="498.4088269454123" x2="498.4088269454123" y1="400" y2="405" /><text  class="poloto_tick_labels poloto_text" alignment-baseline="start" text-anchor="middle" x="498.4088269454123" y="430" > 16:40:00</text><line  class="poloto_axis_lines" stroke="black" x1="556.4808362369338" x2="556.4808362369338" y1="400" y2="405" /><text  class="poloto_tick_labels poloto_text" alignment-baseline="start" text-anchor="middle" x="556.4808362369338" y="430" > 19:26:40</text><line  class="poloto_axis_lines" stroke="black" x1="614.5528455284552" x2="614.5528455284552" y1="400" y2="405" /><text  class="poloto_tick_labels poloto_text" alignment-baseline="start" text-anchor="middle" x="614.5528455284552" y="430" > 22:13:20</text><line  class="poloto_axis_lines" stroke="black" x1="150" x2="144" y1="325.82953806115813" y2="325.82953806115813" /><text  class="poloto_tick_labels poloto_text" alignment-baseline="middle" text-anchor="end" x="135" y="325.82953806115813" > 1500</text><line  class="poloto_axis_lines" stroke="black" x1="150" x2="144" y1="228.23682498373455" y2="228.23682498373455" /><text  class="poloto_tick_labels poloto_text" alignment-baseline="middle" text-anchor="end" x="135" y="228.23682498373455" > 2000</text><line  class="poloto_axis_lines" stroke="black" x1="150" x2="144" y1="130.64411190631102" y2="130.64411190631102" /><text  class="poloto_tick_labels poloto_text" alignment-baseline="middle" text-anchor="end" x="135" y="130.64411190631102" > 2500</text><path  stroke="black" fill="none" class="poloto_axis_lines" style="stroke-dasharray:14.518002322880372;stroke-dashoffset:-58.04878048780488;" d=" M 150 400 L 650 400" /><path  stroke="black" fill="none" class="poloto_axis_lines" style="stroke-dasharray:9.759271307742356;stroke-dashoffset:-74.17046193884187;" d=" M 150 400 L 150 100" /></svg>