<svg class="poloto" width="800" height="500" viewBox="0 0 800 500" xmlns="http://www.w3.org/2000/svg"><style>.poloto { stroke-linecap:round; stroke-linejoin:round; font-family: 'Tahoma', sans-serif; background-color: AliceBlue;} .poloto_scatter{stroke-width:7} .poloto_line{stroke-width:2} .poloto_text{fill: black;} .poloto_axis_lines{stroke: black;stroke-width:3;fill:none;stroke-dasharray:none} .poloto0stroke{stroke:  blue;} .poloto1stroke{stroke:  red;} .poloto2stroke{stroke:  green;} .poloto3stroke{stroke:  gold;} .poloto4stroke{stroke:  aqua;} .poloto5stroke{stroke:  lime;} .poloto6stroke{stroke:  orange;} .poloto7stroke{stroke:  chocolate;} .poloto0fill{fill:blue;} .poloto1fill{fill:red;} .poloto2fill{fill:green;} .poloto3fill{fill:gold;} .poloto4fill{fill:aqua;} .poloto5fill{fill:lime;} .poloto6fill{fill:orange;} .poloto7fill{fill:chocolate;}</style><text  class="poloto_text poloto_legend_text" alignment-baseline="middle" text-anchor="start" font-size="large" x="675" y="100" ></text><path  class="poloto_linefill poloto0fill" d=" M 150 400 L 150 347.9251899473992 L 151.74216027874564 353.5359438924605 L 153.4843205574913 359.6727060198714 L 155.22648083623693 363.0040911747516 L 156.96864111498257 360.72472238457044 L 158.71080139372822 358.0946814728229 L 160.45296167247386 356.16598480420805 L 162.1951219512195 363.70543541788425 L 163.93728222996515 362.65341905318525 L 165.6794425087108 363.1794272355348 L 167.42160278745644 363.1794272355348 L 169.16376306620208 367.38749269433083 L 170.90592334494772 370.71887784921097 L 172.64808362369337 369.66686148451197 L 174.390243902439 372.47223845704264 L 176.13240418118465 370.89421390999416 L 177.8745644599303 373.1735827001753 L 179.61672473867597 369.14085330216244 L 181.3588850174216 366.5108123904149 L 183.10104529616726 367.2121566335476 L 184.8432055749129 364.93278784336644 L 186.58536585365854 372.47223845704264 L 188.3275261324042 375.4529514903565 L 190.06968641114983 374.75160724722383 L 191.81184668989548 373.87492694330797 L 193.55400696864112 379.135008766803 L 195.29616724738676 380.3623611922852 L 197.0383275261324 380.7130333138515 L 198.78048780487805 377.90765634132083 L 200.5226480836237 378.6090005844535 L 202.26480836236934 378.2583284628872 L 204.00696864111498 389.6551724137931 L 205.74912891986062 388.42781998831094 L 207.49128919860627 385.97311513734655 L 209.2334494773519 386.4991233196961 L 210.97560975609755 387.7264757451783 L 212.7177700348432 385.447106954997 L 214.45993031358887 387.7264757451783 L 216.2020905923345 387.5511396843951 L 217.94425087108016 387.0251315020456 L 219.6864111498258 391.75920514319114 L 221.42857142857144 391.75920514319114 L 223.1707317073171 388.9538281706604 L 224.91289198606273 392.63588544710694 L 226.65505226480838 392.8112215078901 L 228.39721254355402 400 L 230.13937282229966 394.0385739333723 L 231.8815331010453 390.8825248392753 L 233.62369337979095 386.8497954412624 L 235.3658536585366 391.75920514319114 L 237.10801393728224 388.25248392752775 L 238.85017421602788 382.99240210403275 L 240.59233449477352 378.9596727060199 L 242.33449477351917 383.6937463471654 L 244.0766550522648 387.0251315020456 L 245.81881533101046 387.9018118059614 L 247.5609756097561 385.2717708942139 L 249.30313588850174 390.7071887784921 L 251.0452961672474 393.86323787258914 L 252.78745644599303 391.40853302162475 L 254.52961672473867 392.1098772647574 L 256.2717770034843 393.1618936294565 L 258.01393728222996 387.9018118059614 L 259.7560975609756 387.3758036236119 L 261.49825783972125 381.5897136177674 L 263.2404181184669 379.8363530099357 L 264.98257839721254 373.5242548217417 L 266.7247386759582 370.36820572764464 L 268.4668989547038 364.93278784336644 L 270.20905923344947 360.9000584453536 L 271.9512195121951 352.6592635885447 L 273.69337979094075 349.50321449444766 L 275.4355400696864 353.5359438924605 L 277.17770034843204 352.6592635885447 L 278.91986062717774 360.1987142022209 L 280.6620209059233 360.72472238457044 L 282.404181184669 355.9906487434249 L 284.1463414634146 351.95791934541205 L 285.8885017421603 354.2372881355932 L 287.6306620209059 354.06195207481005 L 289.3728222996516 352.3085914669783 L 291.1149825783972 351.2565751022794 L 292.8571428571429 357.04266510812386 L 294.5993031358885 356.3413208649912 L 296.3414634146342 354.4126241963764 L 298.08362369337976 355.28930450029225 L 299.82578397212546 356.6919929865576 L 301.56794425087105 355.6399766218585 L 303.31010452961675 353.009935710111 L 305.05226480836234 350.905902980713 L 306.79442508710804 355.11396843950905 L 308.5365853658536 354.7632963179427 L 310.2787456445993 349.50321449444766 L 312.0209059233449 349.3278784336645 L 313.7630662020906 346.697837521917 L 315.5052264808362 340.91174751607247 L 317.2473867595819 337.0543541788428 L 318.9895470383275 331.9696084161309 L 320.7317073170732 330.56691992986555 L 322.4738675958188 326.8848626534191 L 324.2160278745645 325.83284628872 L 325.9581881533101 329.33956750438335 L 327.70034843205576 324.07948568088835 L 329.4425087108014 321.27410870835763 L 331.18466898954705 320.57276446522496 L 332.9268292682927 323.3781414377557 L 334.66898954703834 322.8521332554062 L 336.411149825784 311.63062536528344 L 338.1533101045296 309.0005844535359 L 339.89547038327527 306.19520748100524 L 341.6376306620209 303.03915838690824 L 343.37979094076655 301.1104617182934 L 345.1219512195122 296.55172413793105 L 346.86411149825784 298.1297486849795 L 348.6062717770035 302.3378141437755 L 350.34843205574913 295.1490356516657 L 352.0905923344948 292.86966686148446 L 353.8327526132404 285.50555230859146 L 355.57491289198606 283.92752776154293 L 357.3170731707317 289.3629456458211 L 359.05923344947735 285.68088836937466 L 360.801393728223 283.7521917007598 L 362.54355400696863 281.99883109292807 L 364.2857142857143 278.3167738164816 L 366.0278745644599 270.95265926358854 L 367.77003484320556 272.530683810637 L 369.5121951219512 267.7966101694915 L 371.25435540069685 263.4132086499123 L 372.9965156794425 261.8351841028638 L 374.73867595818814 254.8217416715371 L 376.4808362369338 250.6136762127411 L 378.2229965156795 262.5365283459965 L 379.96515679442507 253.41905318527176 L 381.70731707317077 243.60023378141437 L 383.44947735191636 238.34015195791932 L 385.19163763066206 242.19754529514904 L 386.93379790940764 239.5675043834015 L 388.67595818815334 238.34015195791932 L 390.41811846689893 233.95675043834012 L 392.16027874564463 231.15137346580946 L 393.9024390243902 222.9105786090006 L 395.6445993031359 227.2939801285798 L 397.3867595818815 223.7872589129164 L 399.1289198606272 217.2998246639392 L 400.8710801393728 211.864406779661 L 402.6132404181185 204.50029222676795 L 404.3554006968641 197.3115137346581 L 406.0975609756098 195.0321449444769 L 407.8397212543554 190.99941554646404 L 409.58188153310107 186.96668614845117 L 411.3240418118467 176.44652250146112 L 413.06620209059236 176.79719462302745 L 414.808362369338 178.19988310929278 L 416.55052264808364 175.9205143191116 L 418.2926829268293 177.32320280537698 L 420.03484320557493 176.6218585622443 L 421.7770034843206 172.06312098188192 L 423.5191637630662 162.9456458211572 L 425.26132404181186 164.34833430742253 L 427.0034843205575 161.718293395675 L 428.74564459930315 161.01694915254234 L 430.4878048780488 160.8416130917592 L 432.22996515679444 151.37346580946814 L 433.9721254355401 156.2828755113968 L 435.7142857142857 146.46405610753942 L 437.45644599303137 146.1133839859731 L 439.198606271777 145.93804792518995 L 440.94076655052265 129.8071303331385 L 442.6829268292683 133.1385154880187 L 444.42508710801394 131.0344827586207 L 446.1672473867596 122.26767971946231 L 447.9094076655052 119.28696668614845 L 449.65156794425087 118.41028638223258 L 451.3937282229965 122.44301578024545 L 453.13588850174216 120.33898305084745 L 454.8780487804878 114.37755698421972 L 456.62020905923345 113.15020455873758 L 458.3623693379791 110.16949152542372 L 460.10452961672473 103.85739333722967 L 461.8466898954704 100.8766803039158 L 463.588850174216 103.156049094097 L 465.33101045296166 102.63004091174747 L 467.0731707317073 102.45470485096433 L 468.81533101045295 118.58562244301578 L 470.5574912891986 101.22735242548214 L 472.29965156794424 100 L 474.0418118466899 100 L 475.7839721254355 105.96142606662767 L 477.52613240418117 102.63004091174747 L 479.2682926829268 107.36411455289306 L 481.01045296167246 115.78024547048506 L 482.7526132404181 114.37755698421972 L 484.49477351916374 127.17708942139097 L 486.2369337979094 190.99941554646404 L 487.97909407665503 189.24605493863237 L 489.7212543554007 190.12273524254817 L 491.4634146341463 192.05143191116304 L 493.20557491289196 187.4926943308007 L 494.9477351916376 198.01285797779076 L 496.68989547038325 194.15546464056104 L 498.4320557491289 172.06312098188192 L 500.17421602787454 161.19228521332553 L 501.91637630662024 162.77030976037406 L 503.6585365853659 169.78375219170073 L 505.4006968641115 162.41963763880767 L 507.14285714285717 169.6084161309176 L 508.8850174216028 183.81063705435417 L 510.62717770034845 181.53126826417298 L 512.3693379790941 186.09000584453537 L 514.1114982578397 192.22676797194623 L 515.8536585365854 202.5715955581531 L 517.5958188153311 204.50029222676795 L 519.3379790940767 201.34424313267095 L 521.0801393728223 202.39625949736995 L 522.822299651568 210.28638223261248 L 524.5644599303137 208.0070134424313 L 526.3066202090592 205.02630040911748 L 528.0487804878048 211.16306253652834 L 529.7909407665505 219.22852133255407 L 531.5331010452962 224.66393921683226 L 533.2752613240418 228.1706604324956 L 535.0174216027874 232.5540619520748 L 536.7595818815331 228.3459964932788 L 538.5017421602788 233.43074225599065 L 540.2439024390244 232.37872589129165 L 541.98606271777 239.04149620105198 L 543.7282229965157 242.54821741671537 L 545.4703832752614 236.58679135008765 L 547.212543554007 234.30742255990646 L 548.9547038327526 238.5154880187025 L 550.6968641114983 232.20338983050846 L 552.439024390244 228.69666861484512 L 554.1811846689895 227.64465225014612 L 555.9233449477351 220.10520163646987 L 557.6655052264808 226.0666277030976 L 559.4076655052265 224.66393921683226 L 561.1498257839721 224.8392752776154 L 562.8919860627177 224.13793103448273 L 564.6341463414634 218.70251315020454 L 566.3763066202091 218.70251315020454 L 568.1184668989547 218.87784921098773 L 569.8606271777003 222.20923436586787 L 571.602787456446 224.66393921683226 L 573.3449477351917 218.17650496785507 L 575.0871080139373 220.10520163646987 L 576.8292682926829 222.7352425482174 L 578.5714285714286 221.15721800116887 L 580.3135888501743 228.87200467562826 L 582.0557491289198 239.39216832261832 L 583.7979094076654 245.70426651081237 L 585.5400696864111 243.07422559906485 L 587.2822299651568 240.09351256575098 L 589.0243902439024 242.7235534774985 L 590.766550522648 240.97019286966685 L 592.5087108013937 243.60023378141437 L 594.2508710801394 252.5423728813559 L 595.993031358885 256.9257744009351 L 597.7351916376306 255.69842197545296 L 599.4773519163763 254.47106954997076 L 601.219512195122 252.5423728813559 L 602.9616724738676 257.27644652250143 L 604.7038327526133 258.67913500876676 L 606.445993031359 257.62711864406776 L 608.1881533101046 268.1472822910578 L 609.9303135888501 273.7580362361192 L 611.6724738675958 271.1279953243717 L 613.4146341463415 274.8100526008182 L 615.1567944250871 276.38807714786674 L 616.8989547038327 283.92752776154293 L 618.6411149825784 292.6943308007013 L 620.3832752613241 295.499707773232 L 622.1254355400697 299.53243717124485 L 623.8675958188153 302.3378141437755 L 625.609756097561 311.2799532437171 L 627.3519163763067 312.85797779076563 L 629.0940766550523 317.06604324956163 L 630.8362369337979 319.3454120397428 L 632.5783972125436 325.83284628872 L 634.3205574912893 326.35885447106955 L 636.0627177700349 329.33956750438335 L 637.8048780487804 332.1449444769141 L 639.5470383275261 329.33956750438335 L 641.2891986062718 330.56691992986555 L 643.0313588850174 330.3915838690824 L 644.773519163763 331.9696084161309 L 646.5156794425087 334.5996493278784 L 648.2578397212544 333.5476329631794 L 650 332.3202805376973 L 650 400 Z" /><text  class="poloto_labels poloto_text poloto_title" alignment-baseline="start" text-anchor="middle" font-size="x-large" x="400" y="37.5" >Total players on 2021-11-16</text><text  class="poloto_labels poloto_text poloto_xname" alignment-baseline="start" text-anchor="middle" font-size="x-large" x="400" y="481.25" >Time</text><text  class="poloto_labels poloto_text poloto_yname" alignment-baseline="start" text-anchor="middle" font-size="x-large" transform="rotate(-90,37.5,250)" x="37.5" y="250" >Count</text><line  class="poloto_axis_lines" stroke="black" x1="150" x2="150" y1="400" y2="405" /><text  class="poloto_tick_labels poloto_text" alignment-baseline="start" text-anchor="middle" x="150" y="430" > 00:00:00</text><line  class="poloto_axis_lines" stroke="black" x1="266.14401858304296" x2="266.14401858304296" y1="400" y2="405" /><text  class="poloto_tick_labels poloto_text" alignment-baseline="start" text-anchor="middle" x="266.14401858304296" y="430" > 05:33:20</text><line  class="poloto_axis_lines" stroke="black" x1="382.2880371660859" x2="382.2880371660859" y1="400" y2="405" /><text  class="poloto_tick_labels poloto_text" alignment-baseline="start" text-anchor="middle" x="382.2880371660859" y="430" > 11:06:40</text><line  class="poloto_axis_lines" stroke="black" x1="498.4320557491289" x2="498.4320557491289" y1="400" y2="405" /><text  class="poloto_tick_labels poloto_text" alignment-baseline="start" text-anchor="middle" x="498.4320557491289" y="430" > 16:40:00</text><line  class="poloto_axis_lines" stroke="black" x1="614.5760743321719" x2="614.5760743321719" y1="400" y2="405" /><text  class="poloto_tick_labels poloto_text" alignment-baseline="start" text-anchor="middle" x="614.5760743321719" y="430" > 22:13:20</text><line  class="poloto_axis_lines" stroke="black" x1="150" x2="144" y1="355.4646405610754" y2="355.4646405610754" /><text  class="poloto_tick_labels poloto_text" alignment-baseline="middle" text-anchor="end" x="135" y="355.4646405610754" > 1000</text><line  class="poloto_axis_lines" stroke="black" x1="150" x2="144" y1="267.7966101694915" y2="267.7966101694915" /><text  class="poloto_tick_labels poloto_text" alignment-baseline="middle" text-anchor="end" x="135" y="267.7966101694915" > 1500</text><line  class="poloto_axis_lines" stroke="black" x1="150" x2="144" y1="180.12857977790765" y2="180.12857977790765" /><text  class="poloto_tick_labels poloto_text" alignment-baseline="middle" text-anchor="end" x="135" y="180.12857977790765" > 2000</text><path  stroke="black" fill="none" class="poloto_axis_lines" style="stroke-dasharray:14.518002322880372;stroke-dashoffset:-0;" d=" M 150 400 L 650 400" /><path  stroke="black" fill="none" class="poloto_axis_lines" style="stroke-dasharray:8.766803039158386;stroke-dashoffset:-44.535359438924615;" d=" M 150 400 L 150 100" /></svg>