<svg class="poloto" width="800" height="500" viewBox="0 0 800 500" xmlns="http://www.w3.org/2000/svg"><style>.poloto { stroke-linecap:round; stroke-linejoin:round; font-family: 'Tahoma', sans-serif; background-color: AliceBlue;} .poloto_scatter{stroke-width:7} .poloto_line{stroke-width:2} .poloto_text{fill: black;} .poloto_axis_lines{stroke: black;stroke-width:3;fill:none;stroke-dasharray:none} .poloto0stroke{stroke:  blue;} .poloto1stroke{stroke:  red;} .poloto2stroke{stroke:  green;} .poloto3stroke{stroke:  gold;} .poloto4stroke{stroke:  aqua;} .poloto5stroke{stroke:  lime;} .poloto6stroke{stroke:  orange;} .poloto7stroke{stroke:  chocolate;} .poloto0fill{fill:blue;} .poloto1fill{fill:red;} .poloto2fill{fill:green;} .poloto3fill{fill:gold;} .poloto4fill{fill:aqua;} .poloto5fill{fill:lime;} .poloto6fill{fill:orange;} .poloto7fill{fill:chocolate;}</style><text  class="poloto_text poloto_legend_text" alignment-baseline="middle" text-anchor="start" font-size="large" x="675" y="100" ></text><path  class="poloto_linefill poloto0fill" d=" M 150 400 L 150 349.1271820448878 L 151.74216027874564 356.6084788029925 L 153.4843205574913 355.67331670822944 L 155.22648083623693 356.4214463840399 L 156.96864111498257 356.79551122194516 L 158.71080139372822 361.28428927680795 L 160.45296167247386 356.4214463840399 L 162.1951219512195 358.4788029925187 L 163.93728222996515 359.6009975062344 L 165.6794425087108 363.90274314214463 L 167.42160278745644 363.90274314214463 L 169.16376306620208 368.7655860349127 L 170.90592334494772 372.5062344139651 L 172.64808362369337 373.25436408977555 L 174.390243902439 372.31920199501246 L 176.13240418118465 378.1172069825436 L 177.8745644599303 378.1172069825436 L 179.61672473867597 378.4912718204489 L 181.3588850174216 375.8728179551122 L 183.10104529616726 374.3765586034913 L 184.8432055749129 374.9376558603491 L 186.58536585365854 380.5486284289277 L 188.3275261324042 380.5486284289277 L 190.06968641114983 381.6708229426434 L 191.81184668989548 377.930174563591 L 193.55400696864112 377.18204488778053 L 195.29616724738676 377.7431421446384 L 197.0383275261324 381.85785536159597 L 198.78048780487805 382.0448877805486 L 200.5226480836237 381.6708229426434 L 202.26480836236934 381.1097256857855 L 204.00696864111498 380.5486284289277 L 205.74912891986062 380.3615960099751 L 207.49128919860627 383.354114713217 L 209.2334494773519 389.15211970074813 L 210.97560975609755 395.51122194513715 L 212.7177700348432 397.0074812967581 L 214.45993031358887 399.25187032418955 L 216.2020905923345 397.19451371571074 L 217.94425087108016 392.14463840399003 L 219.6864111498258 391.9576059850374 L 221.42857142857144 397.19451371571074 L 223.1707317073171 399.6259351620947 L 224.91289198606273 400 L 226.65505226480838 395.51122194513715 L 228.39721254355402 391.58354114713217 L 230.13937282229966 388.9650872817955 L 231.8815331010453 388.9650872817955 L 233.62369337979095 386.15960099750623 L 235.3658536585366 389.71321695760594 L 237.10801393728224 389.71321695760594 L 238.85017421602788 394.3890274314215 L 240.59233449477352 395.8852867830424 L 242.33449477351917 395.69825436408973 L 244.0766550522648 397.75561097256855 L 245.81881533101046 398.31670822942647 L 247.5609756097561 399.25187032418955 L 249.30313588850174 397.19451371571074 L 251.0452961672474 393.640897755611 L 252.78745644599303 390.83541147132166 L 254.52961672473867 390.27431421446386 L 256.2717770034843 387.28179551122196 L 258.01393728222996 381.85785536159597 L 259.7560975609756 382.7930174563591 L 261.49825783972125 375.6857855361596 L 263.2404181184669 370.26184538653365 L 264.98257839721254 365.21197007481294 L 266.7247386759582 366.33416458852867 L 268.4668989547038 360.1620947630922 L 270.20905923344947 352.4937655860349 L 271.9512195121951 352.30673316708226 L 273.69337979094075 352.8678304239402 L 275.4355400696864 350.99750623441395 L 277.17770034843204 353.428927680798 L 278.91986062717774 352.68079800498754 L 280.6620209059233 358.4788029925187 L 282.404181184669 355.1122194513716 L 284.1463414634146 354.73815461346635 L 285.8885017421603 357.35660847880297 L 287.6306620209059 358.66583541147133 L 289.3728222996516 355.8603491271821 L 291.1149825783972 356.04738154613466 L 292.8571428571429 351.37157107231917 L 294.5993031358885 353.428927680798 L 296.3414634146342 353.6159600997506 L 298.08362369337976 352.30673316708226 L 299.82578397212546 354.92518703241893 L 301.56794425087105 354.92518703241893 L 303.31010452961675 352.8678304239402 L 305.05226480836234 348.75311720698255 L 306.79442508710804 354.36408977556107 L 308.5365853658536 353.99002493765585 L 310.2787456445993 347.6309226932668 L 312.0209059233449 346.69576059850374 L 313.7630662020906 344.6384039900249 L 315.5052264808362 347.25685785536155 L 317.2473867595819 342.5810473815461 L 318.9895470383275 342.76807980049875 L 320.7317073170732 333.79052369077306 L 322.4738675958188 330.79800498753116 L 324.2160278745645 328.5536159600997 L 325.9581881533101 327.24438902743145 L 327.70034843205576 333.0423940149626 L 329.4425087108014 330.42394014962593 L 331.18466898954705 333.0423940149626 L 332.9268292682927 332.1072319201995 L 334.66898954703834 343.8902743142145 L 336.411149825784 327.24438902743145 L 338.1533101045296 327.9925187032419 L 339.89547038327527 322.75561097256855 L 341.6376306620209 313.0299251870324 L 343.37979094076655 314.9002493765586 L 345.1219512195122 309.1022443890274 L 346.86411149825784 317.33167082294267 L 348.6062717770035 316.0224438902743 L 350.34843205574913 315.83541147132166 L 352.0905923344948 325.9351620947631 L 353.8327526132404 305.17456359102243 L 355.57491289198606 298.62842892768083 L 357.3170731707317 310.22443890274315 L 359.05923344947735 296.7581047381546 L 360.801393728223 293.9526184538653 L 362.54355400696863 296.19700748129674 L 364.2857142857143 290.96009975062344 L 366.0278745644599 286.65835411471323 L 367.77003484320556 286.4713216957606 L 369.5121951219512 284.22693266832914 L 371.25435540069685 281.04738154613466 L 372.9965156794425 286.28428927680795 L 374.73867595818814 286.4713216957606 L 376.4808362369338 284.788029925187 L 378.2229965156795 273.5660847880299 L 379.96515679442507 268.5162094763092 L 381.70731707317077 259.9127182044888 L 383.44947735191636 257.48129675810475 L 385.19163763066206 259.9127182044888 L 386.93379790940764 262.3441396508728 L 388.67595818815334 261.9700748129676 L 390.41811846689893 242.89276807980048 L 392.16027874564463 236.53366583541145 L 393.9024390243902 234.66334164588528 L 395.6445993031359 230.17456359102243 L 397.3867595818815 228.11720698254362 L 399.1289198606272 227.36907730673317 L 400.8710801393728 224.7506234413965 L 402.6132404181185 215.7730673316708 L 404.3554006968641 211.28428927680795 L 406.0975609756098 204.7381546134663 L 407.8397212543554 209.788029925187 L 409.58188153310107 210.7231920199501 L 411.3240418118467 211.28428927680795 L 413.06620209059236 202.68079800498754 L 414.808362369338 194.2643391521197 L 416.55052264808364 180.79800498753116 L 418.2926829268293 183.9775561097257 L 420.03484320557493 189.40149625935163 L 421.7770034843206 167.3316708229426 L 423.5191637630662 172.75561097256855 L 425.26132404181186 169.76309226932665 L 427.0034843205575 163.21695760598504 L 428.74564459930315 165.08728179551122 L 430.4878048780488 162.84289276807976 L 432.22996515679444 163.21695760598504 L 433.9721254355401 163.77805486284285 L 435.7142857142857 152.36907730673317 L 437.45644599303137 157.9800498753117 L 439.198606271777 149.37655860349128 L 440.94076655052265 160.9725685785536 L 442.6829268292683 146.38403990024938 L 444.42508710801394 121.32169576059846 L 446.1672473867596 116.64588528678303 L 447.9094076655052 119.2643391521197 L 449.65156794425087 121.69576059850374 L 451.3937282229965 119.07730673316706 L 453.13588850174216 118.32917705735662 L 454.8780487804878 115.33665835411472 L 456.62020905923345 118.89027431421442 L 458.3623693379791 116.2718204488778 L 460.10452961672473 116.45885286783039 L 461.8466898954704 108.97755610972564 L 463.588850174216 108.60349127182042 L 465.33101045296166 104.48877805486285 L 467.0731707317073 100 L 468.81533101045295 101.49625935162095 L 470.5574912891986 111.97007481296754 L 472.29965156794424 117.01995012468825 L 474.0418118466899 116.08478802992516 L 475.7839721254355 110.84788029925187 L 477.52613240418117 110.84788029925187 L 479.2682926829268 119.07730673316706 L 481.01045296167246 125.62344139650872 L 482.7526132404181 133.66583541147128 L 484.49477351916374 143.95261845386534 L 486.2369337979094 151.8079800498753 L 487.97909407665503 159.85037406483787 L 489.7212543554007 163.77805486284285 L 491.4634146341463 164.15211970074813 L 493.20557491289196 168.2668329177057 L 494.9477351916376 161.7206982543641 L 496.68989547038325 166.20947630922694 L 498.4320557491289 175.9351620947631 L 500.17421602787454 174.2518703241895 L 501.91637630662024 180.61097256857852 L 503.6585365853659 187.90523690773068 L 505.4006968641115 173.3167082294264 L 507.14285714285717 181.17206982543638 L 508.8850174216028 190.33665835411472 L 510.62717770034845 190.5236907730673 L 512.3693379790941 189.77556109725685 L 514.1114982578397 195.76059850374065 L 515.8536585365854 231.67082294264338 L 517.5958188153311 200.2493765586035 L 519.3379790940767 197.2568578553616 L 521.0801393728223 198.00498753117205 L 522.822299651568 203.8029925187032 L 524.5644599303137 205.4862842892768 L 526.3066202090592 201.1845386533666 L 528.0487804878048 199.501246882793 L 529.7909407665505 195.94763092269324 L 531.5331010452962 195.38653366583537 L 533.2752613240418 203.99002493765585 L 535.0174216027874 194.07730673316706 L 536.7595818815331 206.42144638403988 L 538.5017421602788 194.07730673316706 L 540.2439024390244 203.2418952618454 L 541.98606271777 208.66583541147133 L 543.7282229965157 196.13466334164588 L 545.4703832752614 193.32917705735662 L 547.212543554007 198.37905236907727 L 548.9547038327526 208.85286783042392 L 550.6968641114983 216.7082294264339 L 552.439024390244 212.96758104738154 L 554.1811846689895 217.4563591022444 L 555.9233449477351 217.4563591022444 L 557.6655052264808 218.20448877805484 L 559.4076655052265 215.21197007481294 L 561.1498257839721 221.94513715710724 L 562.8919860627177 216.7082294264339 L 564.6341463414634 218.7655860349127 L 566.3763066202091 225.12468827930172 L 568.1184668989547 229.23940149625935 L 569.8606271777003 232.9800498753117 L 571.602787456446 225.31172069825436 L 573.3449477351917 225.31172069825436 L 575.0871080139373 222.6932668329177 L 576.8292682926829 228.86533665835412 L 578.5714285714286 239.52618453865335 L 580.3135888501743 230.7356608478803 L 582.0557491289198 233.54114713216956 L 583.7979094076654 229.0523690773067 L 585.5400696864111 234.47630922693264 L 587.2822299651568 227.93017456359098 L 589.0243902439024 229.9875311720698 L 590.766550522648 234.10224438902742 L 592.5087108013937 243.64089775561098 L 594.2508710801394 247.56857855361596 L 595.993031358885 250.9351620947631 L 597.7351916376306 254.67581047381543 L 599.4773519163763 262.3441396508728 L 601.219512195122 264.77556109725685 L 602.9616724738676 268.70324189526184 L 604.7038327526133 270.3865336658354 L 606.445993031359 269.82543640897757 L 608.1881533101046 265.71072319201994 L 609.9303135888501 270.1995012468828 L 611.6724738675958 272.06982543640896 L 613.4146341463415 268.70324189526184 L 615.1567944250871 275.2493765586035 L 616.8989547038327 276.5586034912718 L 618.6411149825784 277.30673316708226 L 620.3832752613241 287.21945137157104 L 622.1254355400697 290.7730673316708 L 623.8675958188153 291.8952618453865 L 625.609756097561 298.8154613466334 L 627.3519163763067 297.31920199501246 L 629.0940766550523 300.87281795511217 L 630.8362369337979 302.3690773067332 L 632.5783972125436 303.1172069825436 L 634.3205574912893 309.4763092269327 L 636.0627177700349 310.9725685785536 L 637.8048780487804 313.0299251870324 L 639.5470383275261 315.6483790523691 L 641.2891986062718 321.82044887780546 L 643.0313588850174 327.9925187032419 L 644.773519163763 334.16458852867834 L 646.5156794425087 333.2294264339152 L 648.2578397212544 331.5461346633416 L 650 334.72568578553614 L 650 400 Z" /><text  class="poloto_labels poloto_text poloto_title" alignment-baseline="start" text-anchor="middle" font-size="x-large" x="400" y="37.5" >Total players on 2021-12-01</text><text  class="poloto_labels poloto_text poloto_xname" alignment-baseline="start" text-anchor="middle" font-size="x-large" x="400" y="481.25" >Time</text><text  class="poloto_labels poloto_text poloto_yname" alignment-baseline="start" text-anchor="middle" font-size="x-large" transform="rotate(-90,37.5,250)" x="37.5" y="250" >Count</text><line  class="poloto_axis_lines" stroke="black" x1="150" x2="150" y1="400" y2="405" /><text  class="poloto_tick_labels poloto_text" alignment-baseline="start" text-anchor="middle" x="150" y="430" > 00:00</text><line  class="poloto_axis_lines" stroke="black" x1="266.14401858304296" x2="266.14401858304296" y1="400" y2="405" /><text  class="poloto_tick_labels poloto_text" alignment-baseline="start" text-anchor="middle" x="266.14401858304296" y="430" > 06:00</text><line  class="poloto_axis_lines" stroke="black" x1="382.2880371660859" x2="382.2880371660859" y1="400" y2="405" /><text  class="poloto_tick_labels poloto_text" alignment-baseline="start" text-anchor="middle" x="382.2880371660859" y="430" > 11:00</text><line  class="poloto_axis_lines" stroke="black" x1="498.4320557491289" x2="498.4320557491289" y1="400" y2="405" /><text  class="poloto_tick_labels poloto_text" alignment-baseline="start" text-anchor="middle" x="498.4320557491289" y="430" > 17:00</text><line  class="poloto_axis_lines" stroke="black" x1="614.5760743321719" x2="614.5760743321719" y1="400" y2="405" /><text  class="poloto_tick_labels poloto_text" alignment-baseline="start" text-anchor="middle" x="614.5760743321719" y="430" > 22:00</text><line  class="poloto_axis_lines" stroke="black" x1="150" x2="144" y1="357.5436408977556" y2="357.5436408977556" /><text  class="poloto_tick_labels poloto_text" alignment-baseline="middle" text-anchor="end" x="135" y="357.5436408977556" > 1000</text><line  class="poloto_axis_lines" stroke="black" x1="150" x2="144" y1="264.02743142144635" y2="264.02743142144635" /><text  class="poloto_tick_labels poloto_text" alignment-baseline="middle" text-anchor="end" x="135" y="264.02743142144635" > 1500</text><line  class="poloto_axis_lines" stroke="black" x1="150" x2="144" y1="170.51122194513715" y2="170.51122194513715" /><text  class="poloto_tick_labels poloto_text" alignment-baseline="middle" text-anchor="end" x="135" y="170.51122194513715" > 2000</text><path  stroke="black" fill="none" class="poloto_axis_lines" style="stroke-dasharray:14.518002322880372;stroke-dashoffset:-0;" d=" M 150 400 L 650 400" /><path  stroke="black" fill="none" class="poloto_axis_lines" style="stroke-dasharray:9.351620947630924;stroke-dashoffset:-42.45635910224439;" d=" M 150 400 L 150 100" /></svg>