<svg class="poloto" width="800" height="500" viewBox="0 0 800 500" xmlns="http://www.w3.org/2000/svg"><style>.poloto { stroke-linecap:round; stroke-linejoin:round; font-family: 'Tahoma', sans-serif; background-color: AliceBlue;} .poloto_scatter{stroke-width:7} .poloto_line{stroke-width:2} .poloto_text{fill: black;} .poloto_axis_lines{stroke: black;stroke-width:3;fill:none;stroke-dasharray:none} .poloto0stroke{stroke:  blue;} .poloto1stroke{stroke:  red;} .poloto2stroke{stroke:  green;} .poloto3stroke{stroke:  gold;} .poloto4stroke{stroke:  aqua;} .poloto5stroke{stroke:  lime;} .poloto6stroke{stroke:  orange;} .poloto7stroke{stroke:  chocolate;} .poloto0fill{fill:blue;} .poloto1fill{fill:red;} .poloto2fill{fill:green;} .poloto3fill{fill:gold;} .poloto4fill{fill:aqua;} .poloto5fill{fill:lime;} .poloto6fill{fill:orange;} .poloto7fill{fill:chocolate;}</style><text  class="poloto_text poloto_legend_text" alignment-baseline="middle" text-anchor="start" font-size="large" x="675" y="100" ></text><path  class="poloto_linefill poloto0fill" d=" M 150 400 L 150 338.301043219076 L 151.74216027874564 344.1132637853949 L 153.4843205574913 349.7764530551416 L 155.22648083623693 347.2429210134128 L 156.96864111498257 352.45901639344265 L 158.71080139372822 355.7377049180328 L 160.45296167247386 355.290611028316 L 162.1951219512195 361.25186289120717 L 163.93728222996515 362.5931445603577 L 165.6794425087108 362.29508196721315 L 167.42160278745644 359.4634873323398 L 169.16376306620208 361.25186289120717 L 170.90592334494772 367.5111773472429 L 172.64808362369337 370.0447093889717 L 174.390243902439 368.8524590163935 L 176.13240418118465 368.7034277198212 L 177.8745644599303 373.4724292101341 L 179.61672473867597 375.5588673621461 L 181.3588850174216 373.91952309985095 L 183.10104529616726 375.70789865871836 L 184.8432055749129 379.1356184798808 L 186.58536585365854 378.53949329359165 L 188.3275261324042 381.52011922503726 L 190.06968641114983 381.371087928465 L 191.81184668989548 382.41430700447097 L 193.55400696864112 379.7317436661699 L 195.29616724738676 377.64530551415794 L 197.0383275261324 380.4769001490313 L 198.78048780487805 375.70789865871836 L 200.5226480836237 373.32339791356185 L 202.26480836236934 372.2801788375559 L 204.00696864111498 371.9821162444114 L 205.74912891986062 364.53055141579733 L 207.49128919860627 357.5260804769001 L 209.2334494773519 352.1609538002981 L 210.97560975609755 350.2235469448584 L 212.7177700348432 349.32935916542476 L 214.45993031358887 347.98807749627423 L 216.2020905923345 346.94485842026825 L 217.94425087108016 345.3055141579732 L 219.6864111498258 340.5365126676602 L 221.42857142857144 337.8539493293592 L 223.1707317073171 338.89716840536516 L 224.91289198606273 339.1952309985097 L 226.65505226480838 338.5991058122206 L 228.39721254355402 332.93591654247393 L 230.13937282229966 331.29657228017885 L 231.8815331010453 328.61400894187784 L 233.62369337979095 321.6095380029806 L 235.3658536585366 319.5230998509687 L 237.10801393728224 321.1624441132638 L 238.85017421602788 316.98956780923993 L 240.59233449477352 314.75409836065575 L 242.33449477351917 317.2876304023845 L 244.0766550522648 317.7347242921013 L 245.81881533101046 316.6915052160954 L 247.5609756097561 315.4992548435172 L 249.30313588850174 311.92250372578246 L 251.0452961672474 304.3219076005961 L 252.78745644599303 305.5141579731744 L 254.52961672473867 301.9374068554397 L 256.2717770034843 299.10581222056635 L 258.01393728222996 299.70193740685545 L 259.7560975609756 295.08196721311475 L 261.49825783972125 296.12518628912073 L 263.2404181184669 292.84649776453057 L 264.98257839721254 297.46646795827127 L 266.7247386759582 294.7839046199702 L 268.4668989547038 296.274217585693 L 270.20905923344947 290.46199701937405 L 271.9512195121951 289.1207153502236 L 273.69337979094075 284.2026825633383 L 275.4355400696864 285.24590163934425 L 277.17770034843204 287.4813710879285 L 278.91986062717774 284.2026825633383 L 280.6620209059233 284.5007451564829 L 282.404181184669 280.4769001490313 L 284.1463414634146 284.2026825633383 L 285.8885017421603 283.75558867362145 L 287.6306620209059 276.45305514157974 L 289.3728222996516 271.3859910581222 L 291.1149825783972 270.34277198211623 L 292.8571428571429 266.02086438152014 L 294.5993031358885 265.2757078986587 L 296.3414634146342 263.3383010432191 L 298.08362369337976 266.1698956780924 L 299.82578397212546 269.2995529061103 L 301.56794425087105 260.80476900149034 L 303.31010452961675 259.91058122205663 L 305.05226480836234 260.9538002980626 L 306.79442508710804 253.65126676602085 L 308.5365853658536 253.05514157973175 L 310.2787456445993 250.52160953800296 L 312.0209059233449 251.11773472429212 L 313.7630662020906 250.52160953800296 L 315.5052264808362 241.4307004470939 L 317.2473867595819 240.68554396423252 L 318.9895470383275 244.26229508196724 L 320.7317073170732 236.66169895678092 L 322.4738675958188 238.00298062593146 L 324.2160278745645 236.66169895678092 L 325.9581881533101 235.46944858420267 L 327.70034843205576 238.15201192250373 L 329.4425087108014 236.8107302533532 L 331.18466898954705 232.33979135618483 L 332.9268292682927 225.33532041728762 L 334.66898954703834 220.41728763040237 L 336.411149825784 212.51862891207156 L 338.1533101045296 211.02831594634876 L 339.89547038327527 213.11475409836066 L 341.6376306620209 214.90312965722802 L 343.37979094076655 209.68703427719822 L 345.1219512195122 208.04769001490314 L 346.86411149825784 204.17287630402387 L 348.6062717770035 197.46646795827127 L 350.34843205574913 197.61549925484354 L 352.0905923344948 199.4038748137109 L 353.8327526132404 187.4813710879285 L 355.57491289198606 189.12071535022358 L 357.3170731707317 187.1833084947839 L 359.05923344947735 179.7317436661699 L 360.801393728223 174.5156482861401 L 362.54355400696863 178.2414307004471 L 364.2857142857143 189.41877794336813 L 366.0278745644599 198.5096870342772 L 367.77003484320556 190.76005961251866 L 369.5121951219512 189.41877794336813 L 371.25435540069685 191.35618479880776 L 372.9965156794425 202.83159463487334 L 374.73867595818814 190.61102831594638 L 376.4808362369338 188.0774962742176 L 378.2229965156795 182.2652757078987 L 379.96515679442507 178.39046199701937 L 381.70731707317077 184.50074515648288 L 383.44947735191636 175.26080476900148 L 385.19163763066206 173.0253353204173 L 386.93379790940764 169.00149031296576 L 388.67595818815334 169.8956780923994 L 390.41811846689893 169.00149031296576 L 392.16027874564463 175.40983606557376 L 393.9024390243902 173.77049180327867 L 395.6445993031359 169.44858420268258 L 397.3867595818815 166.61698956780924 L 399.1289198606272 165.42473919523098 L 400.8710801393728 165.42473919523098 L 402.6132404181185 165.7228017883756 L 404.3554006968641 178.68852459016392 L 406.0975609756098 178.8375558867362 L 407.8397212543554 176.30402384500746 L 409.58188153310107 171.98211624441132 L 411.3240418118467 172.72727272727275 L 413.06620209059236 174.66467958271238 L 414.808362369338 179.58271236959763 L 416.55052264808364 164.38152011922506 L 418.2926829268293 157.22801788375563 L 420.03484320557493 155.29061102831594 L 421.7770034843206 149.47839046199704 L 423.5191637630662 144.4113263785395 L 425.26132404181186 141.4307004470939 L 427.0034843205575 137.40685543964236 L 428.74564459930315 136.8107302533532 L 430.4878048780488 143.21907600596126 L 432.22996515679444 142.17585692995527 L 433.9721254355401 136.51266766020865 L 435.7142857142857 134.87332339791357 L 437.45644599303137 130.1043219076006 L 439.198606271777 118.77794336810729 L 440.94076655052265 116.69150521609538 L 442.6829268292683 128.4649776453055 L 444.42508710801394 124.8882265275708 L 446.1672473867596 122.95081967213116 L 447.9094076655052 103.42771982116244 L 449.65156794425087 116.09538002980628 L 451.3937282229965 105.96125186289123 L 453.13588850174216 101.63934426229508 L 454.8780487804878 118.33084947839046 L 456.62020905923345 109.09090909090912 L 458.3623693379791 102.38450074515652 L 460.10452961672473 100 L 461.8466898954704 105.06706408345752 L 463.588850174216 400 L 465.33101045296166 199.4038748137109 L 467.0731707317073 186.14008941877796 L 468.81533101045295 149.92548435171386 L 470.5574912891986 143.66616989567808 L 472.29965156794424 127.42175856929958 L 474.0418118466899 136.51266766020865 L 475.7839721254355 128.01788375558868 L 477.52613240418117 127.71982116244413 L 479.2682926829268 120.11922503725782 L 481.01045296167246 114.30700447093892 L 482.7526132404181 118.33084947839046 L 484.49477351916374 121.1624441132638 L 486.2369337979094 120.5663189269747 L 487.97909407665503 114.30700447093892 L 489.7212543554007 116.5424739195231 L 491.4634146341463 116.09538002980628 L 493.20557491289196 120.2682563338301 L 494.9477351916376 121.1624441132638 L 496.68989547038325 107.60059612518631 L 498.4320557491289 119.37406855439644 L 500.17421602787454 128.16691505216096 L 501.91637630662024 128.9120715350224 L 503.6585365853659 152.30998509687038 L 505.4006968641115 316.24441132637855 L 507.14285714285717 247.98807749627423 L 508.8850174216028 152.16095380029805 L 510.62717770034845 148.58420268256333 L 512.3693379790941 151.11773472429212 L 514.1114982578397 153.65126676602085 L 515.8536585365854 146.49776453055142 L 517.5958188153311 145.0074515648286 L 519.3379790940767 138.00298062593146 L 521.0801393728223 139.9403874813711 L 522.822299651568 142.9210134128167 L 524.5644599303137 147.24292101341285 L 526.3066202090592 171.5350223546945 L 528.0487804878048 170.64083457526084 L 529.7909407665505 170.04470938897168 L 531.5331010452962 171.38599105812222 L 533.2752613240418 177.19821162444111 L 535.0174216027874 187.63040238450077 L 536.7595818815331 183.4575260804769 L 538.5017421602788 189.26974664679585 L 540.2439024390244 194.1877794336811 L 541.98606271777 196.42324888226528 L 543.7282229965157 195.3800298062593 L 545.4703832752614 205.36512667660207 L 547.212543554007 209.98509687034277 L 548.9547038327526 204.6199701937407 L 550.6968641114983 200.14903129657228 L 552.439024390244 208.04769001490314 L 554.1811846689895 205.36512667660207 L 555.9233449477351 205.36512667660207 L 557.6655052264808 215.35022354694485 L 559.4076655052265 226.3785394932936 L 561.1498257839721 232.04172876304023 L 562.8919860627177 230.9985096870343 L 564.6341463414634 228.31594634873323 L 566.3763066202091 218.1818181818182 L 568.1184668989547 218.92697466467962 L 569.8606271777003 214.75409836065575 L 571.602787456446 213.4128166915052 L 573.3449477351917 212.9657228017884 L 575.0871080139373 214.4560357675112 L 576.8292682926829 219.82116244411327 L 578.5714285714286 215.20119225037257 L 580.3135888501743 221.90760059612518 L 582.0557491289198 229.35916542473922 L 583.7979094076654 229.80625931445604 L 585.5400696864111 231.29657228017885 L 587.2822299651568 230.9985096870343 L 589.0243902439024 234.27719821162447 L 590.766550522648 238.15201192250373 L 592.5087108013937 236.06557377049182 L 594.2508710801394 235.76751117734727 L 595.993031358885 237.85394932935918 L 597.7351916376306 235.17138599105812 L 599.4773519163763 241.4307004470939 L 601.219512195122 250.96870342771984 L 602.9616724738676 253.65126676602085 L 604.7038327526133 257.0789865871833 L 606.445993031359 260.50670640834574 L 608.1881533101046 266.1698956780924 L 609.9303135888501 269.74664679582713 L 611.6724738675958 271.83308494783904 L 613.4146341463415 273.6214605067064 L 615.1567944250871 271.23695976154994 L 616.8989547038327 273.7704918032787 L 618.6411149825784 282.56333830104325 L 620.3832752613241 281.52011922503726 L 622.1254355400697 284.79880774962743 L 623.8675958188153 283.75558867362145 L 625.609756097561 290.0149031296572 L 627.3519163763067 293.1445603576751 L 629.0940766550523 298.65871833084947 L 630.8362369337979 300.4470938897168 L 632.5783972125436 306.55737704918033 L 634.3205574912893 304.769001490313 L 636.0627177700349 312.220566318927 L 637.8048780487804 317.7347242921013 L 639.5470383275261 322.35469448584206 L 641.2891986062718 326.9746646795827 L 643.0313588850174 328.31594634873323 L 644.773519163763 331.89269746646795 L 646.5156794425087 337.70491803278685 L 648.2578397212544 339.1952309985097 L 650 343.81520119225036 L 650 400 Z" /><text  class="poloto_labels poloto_text poloto_title" alignment-baseline="start" text-anchor="middle" font-size="x-large" x="400" y="37.5" >Total players on 2021-10-02</text><text  class="poloto_labels poloto_text poloto_xname" alignment-baseline="start" text-anchor="middle" font-size="x-large" x="400" y="481.25" >Time</text><text  class="poloto_labels poloto_text poloto_yname" alignment-baseline="start" text-anchor="middle" font-size="x-large" transform="rotate(-90,37.5,250)" x="37.5" y="250" >Count</text><line  class="poloto_axis_lines" stroke="black" x1="150" x2="150" y1="400" y2="405" /><text  class="poloto_tick_labels poloto_text" alignment-baseline="start" text-anchor="middle" x="150" y="430" > 00:00</text><line  class="poloto_axis_lines" stroke="black" x1="266.14401858304296" x2="266.14401858304296" y1="400" y2="405" /><text  class="poloto_tick_labels poloto_text" alignment-baseline="start" text-anchor="middle" x="266.14401858304296" y="430" > 06:00</text><line  class="poloto_axis_lines" stroke="black" x1="382.2880371660859" x2="382.2880371660859" y1="400" y2="405" /><text  class="poloto_tick_labels poloto_text" alignment-baseline="start" text-anchor="middle" x="382.2880371660859" y="430" > 11:00</text><line  class="poloto_axis_lines" stroke="black" x1="498.4320557491289" x2="498.4320557491289" y1="400" y2="405" /><text  class="poloto_tick_labels poloto_text" alignment-baseline="start" text-anchor="middle" x="498.4320557491289" y="430" > 17:00</text><line  class="poloto_axis_lines" stroke="black" x1="614.5760743321719" x2="614.5760743321719" y1="400" y2="405" /><text  class="poloto_tick_labels poloto_text" alignment-baseline="start" text-anchor="middle" x="614.5760743321719" y="430" > 22:00</text><line  class="poloto_axis_lines" stroke="black" x1="150" x2="144" y1="331.4456035767511" y2="331.4456035767511" /><text  class="poloto_tick_labels poloto_text" alignment-baseline="middle" text-anchor="end" x="135" y="331.4456035767511" > 1500</text><line  class="poloto_axis_lines" stroke="black" x1="150" x2="144" y1="256.929955290611" y2="256.929955290611" /><text  class="poloto_tick_labels poloto_text" alignment-baseline="middle" text-anchor="end" x="135" y="256.929955290611" > 2000</text><line  class="poloto_axis_lines" stroke="black" x1="150" x2="144" y1="182.41430700447097" y2="182.41430700447097" /><text  class="poloto_tick_labels poloto_text" alignment-baseline="middle" text-anchor="end" x="135" y="182.41430700447097" > 2500</text><line  class="poloto_axis_lines" stroke="black" x1="150" x2="144" y1="107.89865871833086" y2="107.89865871833086" /><text  class="poloto_tick_labels poloto_text" alignment-baseline="middle" text-anchor="end" x="135" y="107.89865871833086" > 3000</text><path  stroke="black" fill="none" class="poloto_axis_lines" style="stroke-dasharray:14.518002322880372;stroke-dashoffset:-0;" d=" M 150 400 L 650 400" /><path  stroke="black" fill="none" class="poloto_axis_lines" style="stroke-dasharray:7.451564828614009;stroke-dashoffset:-68.55439642324887;" d=" M 150 400 L 150 100" /></svg>