<svg class="poloto" width="800" height="500" viewBox="0 0 800 500" xmlns="http://www.w3.org/2000/svg"><style>.poloto { stroke-linecap:round; stroke-linejoin:round; font-family: 'Tahoma', sans-serif; background-color: AliceBlue;} .poloto_scatter{stroke-width:7} .poloto_line{stroke-width:2} .poloto_text{fill: black;} .poloto_axis_lines{stroke: black;stroke-width:3;fill:none;stroke-dasharray:none} .poloto0stroke{stroke:  blue;} .poloto1stroke{stroke:  red;} .poloto2stroke{stroke:  green;} .poloto3stroke{stroke:  gold;} .poloto4stroke{stroke:  aqua;} .poloto5stroke{stroke:  lime;} .poloto6stroke{stroke:  orange;} .poloto7stroke{stroke:  chocolate;} .poloto0fill{fill:blue;} .poloto1fill{fill:red;} .poloto2fill{fill:green;} .poloto3fill{fill:gold;} .poloto4fill{fill:aqua;} .poloto5fill{fill:lime;} .poloto6fill{fill:orange;} .poloto7fill{fill:chocolate;}</style><text  class="poloto_text poloto_legend_text" alignment-baseline="middle" text-anchor="start" font-size="large" x="675" y="100" ></text><path  class="poloto_linefill poloto0fill" d=" M 150 400 L 150 349.1249245624623 L 151.74216027874564 347.1333735666868 L 153.4843205574913 352.3838261919131 L 155.22648083623693 349.8491249245625 L 156.96864111498257 347.4954737477369 L 158.71080139372822 350.9354254677128 L 160.45296167247386 355.823777911889 L 162.1951219512195 359.08267954133976 L 163.93728222996515 357.4532287266144 L 165.6794425087108 362.5226312613156 L 167.42160278745644 365.6004828002414 L 169.16376306620208 373.38563669281837 L 170.90592334494772 378.4550392275196 L 172.64808362369337 380.084490042245 L 174.390243902439 379.5413397706699 L 176.13240418118465 380.62764031382017 L 177.8745644599303 391.85274592637296 L 179.61672473867597 391.6716958358479 L 181.3588850174216 389.31804465902235 L 183.10104529616726 388.050694025347 L 184.8432055749129 387.688593844297 L 186.58536585365854 389.31804465902235 L 188.3275261324042 389.86119493059743 L 190.06968641114983 390.5853952926976 L 191.81184668989548 395.11164755582377 L 193.55400696864112 390.76644538322273 L 195.29616724738676 392.57694628847315 L 197.0383275261324 395.47374773687386 L 198.78048780487805 400 L 200.5226480836237 397.4652987326494 L 202.26480836236934 397.8273989136994 L 204.00696864111498 400 L 205.74912891986062 399.81894990947495 L 207.49128919860627 398.7326493663247 L 209.2334494773519 394.3874471937236 L 210.97560975609755 393.66324683162344 L 212.7177700348432 398.5515992757996 L 214.45993031358887 398.7326493663247 L 216.2020905923345 397.28424864212434 L 217.94425087108016 397.28424864212434 L 219.6864111498258 394.5684972842487 L 221.42857142857144 387.3264936632469 L 223.1707317073171 386.9643934821968 L 224.91289198606273 387.86964393482197 L 226.65505226480838 387.3264936632469 L 228.39721254355402 387.50754375377187 L 230.13937282229966 390.22329511164753 L 231.8815331010453 389.4990947495474 L 233.62369337979095 386.9643934821968 L 235.3658536585366 387.1454435727218 L 237.10801393728224 386.0591430295715 L 238.85017421602788 388.7748943874472 L 240.59233449477352 386.9643934821968 L 242.33449477351917 387.1454435727218 L 244.0766550522648 382.98129149064573 L 245.81881533101046 380.98974049487026 L 247.5609756097561 380.8086904043452 L 249.30313588850174 382.98129149064573 L 251.0452961672474 384.067592033796 L 252.78745644599303 381.5328907664454 L 254.52961672473867 382.80024140012074 L 256.2717770034843 380.98974049487026 L 258.01393728222996 379.1792395896198 L 259.7560975609756 383.7054918527459 L 261.49825783972125 386.2401931200966 L 263.2404181184669 380.084490042245 L 264.98257839721254 376.8255884127942 L 266.7247386759582 377.36873868436936 L 268.4668989547038 376.64453832226917 L 270.20905923344947 374.65298732649364 L 271.9512195121951 373.74773687386846 L 273.69337979094075 374.29088714544355 L 275.4355400696864 373.2045866022933 L 277.17770034843204 375.19613759806884 L 278.91986062717774 377.00663850331927 L 280.6620209059233 371.3940856970429 L 282.404181184669 369.2214846107423 L 284.1463414634146 368.13518406759204 L 285.8885017421603 364.15208207604104 L 287.6306620209059 357.8153289076645 L 289.3728222996516 354.7374773687387 L 291.1149825783972 357.63427881713943 L 292.8571428571429 354.9185274592637 L 294.5993031358885 354.7374773687387 L 296.3414634146342 352.20277610138805 L 298.08362369337976 355.823777911889 L 299.82578397212546 361.4363307181654 L 301.56794425087105 361.9794809897405 L 303.31010452961675 359.62582981291496 L 305.05226480836234 358.1774290887146 L 306.79442508710804 358.1774290887146 L 308.5365853658536 359.26372963186486 L 310.2787456445993 362.5226312613156 L 312.0209059233449 369.5835847917924 L 313.7630662020906 367.22993361496685 L 315.5052264808362 366.50573325286666 L 317.2473867595819 370.1267350633675 L 318.9895470383275 367.22993361496685 L 320.7317073170732 368.6783343391672 L 322.4738675958188 367.41098370549184 L 324.2160278745645 361.6173808086904 L 325.9581881533101 361.6173808086904 L 327.70034843205576 356.54797827398914 L 329.4425087108014 353.65117682558844 L 331.18466898954705 343.87447193723597 L 332.9268292682927 341.1587205793603 L 334.66898954703834 346.40917320458664 L 336.411149825784 347.4954737477369 L 338.1533101045296 349.66807483403744 L 339.89547038327527 345.68497284248645 L 341.6376306620209 344.4176222088111 L 343.37979094076655 345.1418225709113 L 345.1219512195122 337.5377187688594 L 346.86411149825784 336.99456849728426 L 348.6062717770035 335.3651176825589 L 350.34843205574913 331.74411587205793 L 352.0905923344948 326.4936632468316 L 353.8327526132404 322.14846107423057 L 355.57491289198606 320.51901025950514 L 357.3170731707317 320.88111044055523 L 359.05923344947735 323.23476161738085 L 360.801393728223 321.6053108026554 L 362.54355400696863 323.05371152685575 L 364.2857142857143 319.97585998793 L 366.0278745644599 311.6475558237779 L 367.77003484320556 311.10440555220276 L 369.5121951219512 303.6813518406759 L 371.25435540069685 303.6813518406759 L 372.9965156794425 299.6982498491249 L 374.73867595818814 294.44779722389865 L 376.4808362369338 287.5678937839469 L 378.2229965156795 290.10259505129756 L 379.96515679442507 281.2311406155703 L 381.70731707317077 278.15328907664457 L 383.44947735191636 301.8708509354255 L 385.19163763066206 272.17863608931805 L 386.93379790940764 271.45443572721786 L 388.67595818815334 274.1701870850936 L 390.41811846689893 289.01629450814727 L 392.16027874564463 260.95353047676525 L 393.9024390243902 266.7471333735667 L 395.6445993031359 274.1701870850936 L 397.3867595818815 258.5998792999397 L 399.1289198606272 254.07362703681355 L 400.8710801393728 265.8418829209415 L 402.6132404181185 255.15992757996383 L 404.3554006968641 259.6861798430899 L 406.0975609756098 258.9619794809898 L 407.8397212543554 267.6523838261919 L 409.58188153310107 268.19553409776705 L 411.3240418118467 253.8925769462885 L 413.06620209059236 259.6861798430899 L 414.808362369338 289.74049487024746 L 416.55052264808364 250.81472540736274 L 418.2926829268293 248.09897404948703 L 420.03484320557493 244.84007242003622 L 421.7770034843206 237.41701870850937 L 423.5191637630662 237.77911888955947 L 425.26132404181186 233.61496680748343 L 427.0034843205575 227.6403138201569 L 428.74564459930315 212.07000603500302 L 430.4878048780488 208.08690404345202 L 432.22996515679444 203.74170187085093 L 433.9721254355401 195.23234761617385 L 435.7142857142857 194.50814725407366 L 437.45644599303137 189.25769462884733 L 439.198606271777 180.7483403741702 L 440.94076655052265 177.8515389257695 L 442.6829268292683 175.49788774894387 L 444.42508710801394 167.53168376584188 L 446.1672473867596 157.75497887748946 L 447.9094076655052 150.6940253470127 L 449.65156794425087 142.90887145443577 L 451.3937282229965 136.93421846710925 L 453.13588850174216 128.60591430295716 L 454.8780487804878 128.24381412190706 L 456.62020905923345 132.045866022933 L 458.3623693379791 120.82076041038022 L 460.10452961672473 125.34701267350636 L 461.8466898954704 123.35546167773089 L 463.588850174216 125.70911285455645 L 465.33101045296166 126.2522631261316 L 467.0731707317073 110.86300543150276 L 468.81533101045295 107.78515389257694 L 470.5574912891986 109.23355461677733 L 472.29965156794424 102.71575135787572 L 474.0418118466899 105.06940253470128 L 475.7839721254355 113.03560651780327 L 477.52613240418117 107.4230537115269 L 479.2682926829268 100 L 481.01045296167246 115.57030778515394 L 482.7526132404181 119.91550995775498 L 484.49477351916374 115.57030778515394 L 486.2369337979094 114.30295715147861 L 487.97909407665503 109.95775497887752 L 489.7212543554007 121.72601086300546 L 491.4634146341463 114.48400724200366 L 493.20557491289196 130.95956547978278 L 494.9477351916376 127.33856366928188 L 496.68989547038325 121.00181050090526 L 498.4320557491289 117.01870850935427 L 500.17421602787454 112.13035606517803 L 501.91637630662024 115.93240796620398 L 503.6585365853659 117.38080869040436 L 505.4006968641115 118.2860591430296 L 507.14285714285717 137.8394689197345 L 508.8850174216028 134.76161738080873 L 510.62717770034845 147.4351237175619 L 512.3693379790941 149.42667471333738 L 514.1114982578397 147.0730235365118 L 515.8536585365854 142.72782136391072 L 517.5958188153311 150.51297525648766 L 519.3379790940767 138.74471937235973 L 521.0801393728223 137.65841882920944 L 522.822299651568 149.24562462281233 L 524.5644599303137 139.6499698249849 L 526.3066202090592 149.06457453228728 L 528.0487804878048 153.95292697646352 L 529.7909407665505 157.39287869643937 L 531.5331010452962 166.44538322269165 L 533.2752613240418 169.1611345805673 L 535.0174216027874 174.04948702474354 L 536.7595818815331 175.13578756789383 L 538.5017421602788 179.11888955944482 L 540.2439024390244 183.28304164152087 L 541.98606271777 178.75678937839473 L 543.7282229965157 188.7145443572722 L 545.4703832752614 199.39649969824984 L 547.212543554007 205.73325286662646 L 548.9547038327526 203.74170187085093 L 550.6968641114983 191.6113458056729 L 552.439024390244 193.96499698249852 L 554.1811846689895 199.75859987929994 L 555.9233449477351 205.9143029571515 L 557.6655052264808 207.54375377187688 L 559.4076655052265 211.88895594447797 L 561.1498257839721 218.40675920337964 L 562.8919860627177 209.71635485817745 L 564.6341463414634 209.71635485817745 L 566.3763066202091 213.5184067592034 L 568.1184668989547 222.02776101388054 L 569.8606271777003 222.75196137598073 L 571.602787456446 227.09716354858182 L 573.3449477351917 230.71816535908272 L 575.0871080139373 239.0464695232348 L 576.8292682926829 229.99396499698253 L 578.5714285714286 226.19191309595658 L 580.3135888501743 235.6065178032589 L 582.0557491289198 225.82981291490648 L 583.7979094076654 229.0887145443573 L 585.5400696864111 229.45081472540738 L 587.2822299651568 239.5896197948099 L 589.0243902439024 240.13277006638504 L 590.766550522648 237.05491852745928 L 592.5087108013937 249.00422450211227 L 594.2508710801394 252.98732649366326 L 595.993031358885 250.45262522631265 L 597.7351916376306 258.2377791188896 L 599.4773519163763 261.31563065781535 L 601.219512195122 267.47133373566686 L 602.9616724738676 268.014484007242 L 604.7038327526133 264.21243210621606 L 606.445993031359 273.4459867229934 L 608.1881533101046 277.0669885334943 L 609.9303135888501 288.11104405552203 L 611.6724738675958 292.63729631864817 L 613.4146341463415 291.36994568497283 L 615.1567944250871 292.4562462281231 L 616.8989547038327 289.74049487024746 L 618.6411149825784 291.913095956548 L 620.3832752613241 298.6119493059747 L 622.1254355400697 303.6813518406759 L 623.8675958188153 327.5799637899819 L 625.609756097561 331.56306578153294 L 627.3519163763067 333.01146650573327 L 629.0940766550523 334.4598672299336 L 630.8362369337979 335.0030175015088 L 632.5783972125436 344.7797223898612 L 634.3205574912893 342.9692214846108 L 636.0627177700349 346.22812311406153 L 637.8048780487804 349.1249245624623 L 639.5470383275261 351.47857573928786 L 641.2891986062718 358.1774290887146 L 643.0313588850174 357.8153289076645 L 644.773519163763 354.9185274592637 L 646.5156794425087 356.3669281834641 L 648.2578397212544 356.18587809293905 L 650 352.20277610138805 L 650 400 Z" /><text  class="poloto_labels poloto_text poloto_title" alignment-baseline="start" text-anchor="middle" font-size="x-large" x="400" y="37.5" >Total players on 2021-09-16</text><text  class="poloto_labels poloto_text poloto_xname" alignment-baseline="start" text-anchor="middle" font-size="x-large" x="400" y="481.25" >Time</text><text  class="poloto_labels poloto_text poloto_yname" alignment-baseline="start" text-anchor="middle" font-size="x-large" transform="rotate(-90,37.5,250)" x="37.5" y="250" >Count</text><line  class="poloto_axis_lines" stroke="black" x1="150" x2="150" y1="400" y2="405" /><text  class="poloto_tick_labels poloto_text" alignment-baseline="start" text-anchor="middle" x="150" y="430" > 00:00:00</text><line  class="poloto_axis_lines" stroke="black" x1="266.14401858304296" x2="266.14401858304296" y1="400" y2="405" /><text  class="poloto_tick_labels poloto_text" alignment-baseline="start" text-anchor="middle" x="266.14401858304296" y="430" > 05:33:20</text><line  class="poloto_axis_lines" stroke="black" x1="382.2880371660859" x2="382.2880371660859" y1="400" y2="405" /><text  class="poloto_tick_labels poloto_text" alignment-baseline="start" text-anchor="middle" x="382.2880371660859" y="430" > 11:06:40</text><line  class="poloto_axis_lines" stroke="black" x1="498.4320557491289" x2="498.4320557491289" y1="400" y2="405" /><text  class="poloto_tick_labels poloto_text" alignment-baseline="start" text-anchor="middle" x="498.4320557491289" y="430" > 16:40:00</text><line  class="poloto_axis_lines" stroke="black" x1="614.5760743321719" x2="614.5760743321719" y1="400" y2="405" /><text  class="poloto_tick_labels poloto_text" alignment-baseline="start" text-anchor="middle" x="614.5760743321719" y="430" > 22:13:20</text><line  class="poloto_axis_lines" stroke="black" x1="150" x2="144" y1="395.11164755582377" y2="395.11164755582377" /><text  class="poloto_tick_labels poloto_text" alignment-baseline="middle" text-anchor="end" x="135" y="395.11164755582377" > 1000</text><line  class="poloto_axis_lines" stroke="black" x1="150" x2="144" y1="304.58660229330115" y2="304.58660229330115" /><text  class="poloto_tick_labels poloto_text" alignment-baseline="middle" text-anchor="end" x="135" y="304.58660229330115" > 1500</text><line  class="poloto_axis_lines" stroke="black" x1="150" x2="144" y1="214.06155703077854" y2="214.06155703077854" /><text  class="poloto_tick_labels poloto_text" alignment-baseline="middle" text-anchor="end" x="135" y="214.06155703077854" > 2000</text><line  class="poloto_axis_lines" stroke="black" x1="150" x2="144" y1="123.53651176825593" y2="123.53651176825593" /><text  class="poloto_tick_labels poloto_text" alignment-baseline="middle" text-anchor="end" x="135" y="123.53651176825593" > 2500</text><path  stroke="black" fill="none" class="poloto_axis_lines" style="stroke-dasharray:14.518002322880372;stroke-dashoffset:-0;" d=" M 150 400 L 650 400" /><path  stroke="black" fill="none" class="poloto_axis_lines" style="stroke-dasharray:9.052504526252262;stroke-dashoffset:-4.888352444176206;" d=" M 150 400 L 150 100" /></svg>