<svg class="poloto" width="800" height="500" viewBox="0 0 800 500" xmlns="http://www.w3.org/2000/svg"><style>.poloto { stroke-linecap:round; stroke-linejoin:round; font-family: 'Tahoma', sans-serif; background-color: AliceBlue;} .poloto_scatter{stroke-width:7} .poloto_line{stroke-width:2} .poloto_text{fill: black;} .poloto_axis_lines{stroke: black;stroke-width:3;fill:none;stroke-dasharray:none} .poloto0stroke{stroke:  blue;} .poloto1stroke{stroke:  red;} .poloto2stroke{stroke:  green;} .poloto3stroke{stroke:  gold;} .poloto4stroke{stroke:  aqua;} .poloto5stroke{stroke:  lime;} .poloto6stroke{stroke:  orange;} .poloto7stroke{stroke:  chocolate;} .poloto0fill{fill:blue;} .poloto1fill{fill:red;} .poloto2fill{fill:green;} .poloto3fill{fill:gold;} .poloto4fill{fill:aqua;} .poloto5fill{fill:lime;} .poloto6fill{fill:orange;} .poloto7fill{fill:chocolate;}</style><text  class="poloto_text poloto_legend_text" alignment-baseline="middle" text-anchor="start" font-size="large" x="675" y="100" ></text><path  class="poloto_linefill poloto0fill" d=" M 150 400 L 150 365.9966499162479 L 151.74216027874564 366.83417085427135 L 153.4843205574913 373.03182579564486 L 155.22648083623693 376.7169179229481 L 156.96864111498257 374.70686767169184 L 158.71080139372822 374.3718592964824 L 160.45296167247386 376.21440536013404 L 162.1951219512195 378.55946398659967 L 163.93728222996515 373.03182579564486 L 165.6794425087108 376.7169179229481 L 167.42160278745644 375.37688442211055 L 169.16376306620208 378.05695142378556 L 170.90592334494772 378.05695142378556 L 172.64808362369337 381.07202680067 L 174.390243902439 387.26968174204353 L 176.13240418118465 385.59463986599667 L 177.8745644599303 386.9346733668342 L 179.61672473867597 386.9346733668342 L 181.3588850174216 385.427135678392 L 183.10104529616726 384.25460636515913 L 184.8432055749129 388.94472361809045 L 186.58536585365854 392.12730318257957 L 188.3275261324042 386.4321608040201 L 190.06968641114983 389.4472361809045 L 191.81184668989548 386.26465661641544 L 193.55400696864112 384.5896147403685 L 195.29616724738676 391.62479061976546 L 197.0383275261324 394.6398659966499 L 198.78048780487805 396.64991624790616 L 200.5226480836237 400 L 202.26480836236934 394.30485762144053 L 204.00696864111498 390.61976549413737 L 205.74912891986062 389.9497487437186 L 207.49128919860627 387.60469011725297 L 209.2334494773519 386.0971524288107 L 210.97560975609755 389.4472361809045 L 212.7177700348432 387.10217755443887 L 214.45993031358887 379.73199329983254 L 216.2020905923345 382.74706867671694 L 217.94425087108016 380.9045226130653 L 219.6864111498258 387.60469011725297 L 221.42857142857144 389.78224455611394 L 223.1707317073171 390.11725293132326 L 224.91289198606273 387.77219430485763 L 226.65505226480838 385.929648241206 L 228.39721254355402 387.9396984924623 L 230.13937282229966 384.4221105527638 L 231.8815331010453 384.4221105527638 L 233.62369337979095 384.5896147403685 L 235.3658536585366 385.09212730318256 L 237.10801393728224 380.9045226130653 L 238.85017421602788 384.5896147403685 L 240.59233449477352 389.78224455611394 L 242.33449477351917 389.4472361809045 L 244.0766550522648 388.77721943048573 L 245.81881533101046 386.59966499162476 L 247.5609756097561 386.59966499162476 L 249.30313588850174 379.8994974874372 L 251.0452961672474 374.8743718592965 L 252.78745644599303 375.37688442211055 L 254.52961672473867 377.05192629815747 L 256.2717770034843 376.7169179229481 L 258.01393728222996 370.51926298157457 L 259.7560975609756 368.84422110552765 L 261.49825783972125 366.49916247906197 L 263.2404181184669 363.9865996649916 L 264.98257839721254 362.4790619765494 L 266.7247386759582 354.7738693467337 L 268.4668989547038 350.251256281407 L 270.20905923344947 353.9363484087102 L 271.9512195121951 350.4187604690117 L 273.69337979094075 350.4187604690117 L 275.4355400696864 346.73366834170855 L 277.17770034843204 349.07872696817424 L 278.91986062717774 345.89614740368506 L 280.6620209059233 346.2311557788945 L 282.404181184669 350.4187604690117 L 284.1463414634146 350.4187604690117 L 285.8885017421603 352.2613065326633 L 287.6306620209059 351.2562814070352 L 289.3728222996516 351.0887772194305 L 291.1149825783972 348.9112227805695 L 292.8571428571429 349.91624790619767 L 294.5993031358885 352.2613065326633 L 296.3414634146342 348.7437185929648 L 298.08362369337976 358.2914572864322 L 299.82578397212546 358.62646566164153 L 301.56794425087105 351.2562814070352 L 303.31010452961675 352.59631490787274 L 305.05226480836234 354.7738693467337 L 306.79442508710804 355.4438860971525 L 308.5365853658536 354.606365159129 L 310.2787456445993 354.7738693467337 L 312.0209059233449 353.43383584589617 L 313.7630662020906 351.42378559463987 L 315.5052264808362 351.0887772194305 L 317.2473867595819 346.90117252931327 L 318.9895470383275 340.2010050251256 L 320.7317073170732 336.51591289782243 L 322.4738675958188 339.53098827470683 L 324.2160278745645 336.0134003350084 L 325.9581881533101 334.84087102177557 L 327.70034843205576 332.32830820770516 L 329.4425087108014 327.30318257956446 L 331.18466898954705 322.27805695142376 L 332.9268292682927 320.4355108877722 L 334.66898954703834 319.43048576214403 L 336.411149825784 318.42546063651594 L 338.1533101045296 313.5678391959799 L 339.89547038327527 317.58793969849245 L 341.6376306620209 315.0753768844221 L 343.37979094076655 309.715242881072 L 345.1219512195122 305.3601340033501 L 346.86411149825784 306.70016750418756 L 348.6062717770035 307.035175879397 L 350.34843205574913 306.03015075376885 L 352.0905923344948 303.8525963149079 L 353.8327526132404 300.67001675041877 L 355.57491289198606 293.13232830820766 L 357.3170731707317 293.80234505862643 L 359.05923344947735 287.10217755443887 L 360.801393728223 290.9547738693467 L 362.54355400696863 286.0971524288107 L 364.2857142857143 284.5896147403685 L 366.0278745644599 282.5795644891122 L 367.77003484320556 273.53433835845897 L 369.5121951219512 272.5293132328308 L 371.25435540069685 264.82412060301505 L 372.9965156794425 259.96649916247907 L 374.73867595818814 260.8040201005025 L 376.4808362369338 252.59631490787268 L 378.2229965156795 249.07872696817418 L 379.96515679442507 257.6214405360134 L 381.70731707317077 251.75879396984925 L 383.44947735191636 242.88107202680067 L 385.19163763066206 240.36850921273032 L 386.93379790940764 236.01340033500838 L 388.67595818815334 228.47571189279734 L 390.41811846689893 228.30820770519261 L 392.16027874564463 225.79564489112227 L 393.9024390243902 223.28308207705192 L 395.6445993031359 228.14070351758795 L 397.3867595818815 221.44053601340033 L 399.1289198606272 211.5577889447236 L 400.8710801393728 201.84254606365158 L 402.6132404181185 209.04522613065325 L 404.3554006968641 202.17755443886097 L 406.0975609756098 199.32998324958123 L 407.8397212543554 195.64489112227807 L 409.58188153310107 188.60971524288107 L 411.3240418118467 188.94472361809045 L 413.06620209059236 191.12227805695142 L 414.808362369338 181.07202680067002 L 416.55052264808364 171.02177554438862 L 418.2926829268293 164.82412060301505 L 420.03484320557493 161.9765494137353 L 421.7770034843206 158.7939698492462 L 423.5191637630662 156.78391959798995 L 425.26132404181186 144.72361809045225 L 427.0034843205575 149.74874371859295 L 428.74564459930315 142.2110552763819 L 430.4878048780488 142.71356783919595 L 432.22996515679444 144.2211055276382 L 433.9721254355401 144.38860971524286 L 435.7142857142857 132.99832495812393 L 437.45644599303137 137.35343383584586 L 439.198606271777 144.8911222780569 L 440.94076655052265 138.02345058626463 L 442.6829268292683 133.33333333333331 L 444.42508710801394 126.13065326633165 L 446.1672473867596 127.63819095477385 L 447.9094076655052 126.13065326633165 L 449.65156794425087 127.63819095477385 L 451.3937282229965 129.98324958123953 L 453.13588850174216 124.62311557788945 L 454.8780487804878 119.76549413735341 L 456.62020905923345 128.14070351758795 L 458.3623693379791 118.42546063651588 L 460.10452961672473 108.5427135678392 L 461.8466898954704 101.34003350083748 L 463.588850174216 100 L 465.33101045296166 106.86767169179228 L 467.0731707317073 110.72026800670017 L 468.81533101045295 109.71524288107202 L 470.5574912891986 107.70519262981571 L 472.29965156794424 108.5427135678392 L 474.0418118466899 107.70519262981571 L 475.7839721254355 106.70016750418756 L 477.52613240418117 111.39028475711893 L 479.2682926829268 112.39530988274703 L 481.01045296167246 117.75544388609711 L 482.7526132404181 117.25293132328306 L 484.49477351916374 120.93802345058623 L 486.2369337979094 121.27303182579561 L 487.97909407665503 126.6331658291457 L 489.7212543554007 133.6683417085427 L 491.4634146341463 145.56113902847568 L 493.20557491289196 151.08877721943048 L 494.9477351916376 156.61641541038523 L 496.68989547038325 165.32663316582915 L 498.4320557491289 168.17420435510888 L 500.17421602787454 173.53433835845897 L 501.91637630662024 168.50921273031827 L 503.6585365853659 176.04690117252932 L 505.4006968641115 180.06700167504187 L 507.14285714285717 172.3618090452261 L 508.8850174216028 183.24958123953098 L 510.62717770034845 185.42713567839195 L 512.3693379790941 187.10217755443887 L 514.1114982578397 188.10720268006702 L 515.8536585365854 193.80234505862643 L 517.5958188153311 196.64991624790616 L 519.3379790940767 210.88777219430483 L 521.0801393728223 215.91289782244553 L 522.822299651568 217.92294807370183 L 524.5644599303137 220.93802345058623 L 526.3066202090592 220.6030150753769 L 528.0487804878048 223.11557788944725 L 529.7909407665505 219.76549413735341 L 531.5331010452962 213.90284757118928 L 533.2752613240418 208.5427135678392 L 535.0174216027874 217.92294807370183 L 536.7595818815331 209.88274706867674 L 538.5017421602788 208.20770519262982 L 540.2439024390244 216.75041876046902 L 541.98606271777 221.608040201005 L 543.7282229965157 221.77554438860972 L 545.4703832752614 221.44053601340033 L 547.212543554007 216.41541038525963 L 548.9547038327526 217.75544388609717 L 550.6968641114983 219.59798994974875 L 552.439024390244 232.32830820770516 L 554.1811846689895 232.83082077051927 L 555.9233449477351 226.29815745393637 L 557.6655052264808 221.77554438860972 L 559.4076655052265 216.91792294807368 L 561.1498257839721 220.26800670016752 L 562.8919860627177 224.62311557788945 L 564.6341463414634 230.6532663316583 L 566.3763066202091 234.00335008375208 L 568.1184668989547 229.48073701842543 L 569.8606271777003 233.50083752093803 L 571.602787456446 238.02345058626463 L 573.3449477351917 241.37353433835847 L 575.0871080139373 243.55108877721943 L 576.8292682926829 248.91122278056952 L 578.5714285714286 247.57118927973198 L 580.3135888501743 249.41373534338356 L 582.0557491289198 249.74874371859295 L 583.7979094076654 253.26633165829145 L 585.5400696864111 257.95644891122276 L 587.2822299651568 250.58626465661644 L 589.0243902439024 252.42881072026802 L 590.766550522648 257.4539363484087 L 592.5087108013937 269.8492462311558 L 594.2508710801394 265.4941373534338 L 595.993031358885 274.7068676716918 L 597.7351916376306 278.89447236180905 L 599.4773519163763 276.7169179229481 L 601.219512195122 276.0469011725293 L 602.9616724738676 276.54941373534336 L 604.7038327526133 282.9145728643216 L 606.445993031359 283.91959798994975 L 608.1881533101046 291.1222780569514 L 609.9303135888501 288.7772194304858 L 611.6724738675958 305.5276381909548 L 613.4146341463415 297.31993299832493 L 615.1567944250871 292.62981574539367 L 616.8989547038327 296.9849246231156 L 618.6411149825784 296.8174204355109 L 620.3832752613241 300.83752093802343 L 622.1254355400697 302.51256281407035 L 623.8675958188153 300.5025125628141 L 625.609756097561 307.70519262981577 L 627.3519163763067 307.035175879397 L 629.0940766550523 310.72026800670017 L 630.8362369337979 313.2328308207705 L 632.5783972125436 319.76549413735347 L 634.3205574912893 318.92797319933 L 636.0627177700349 320.93802345058623 L 637.8048780487804 328.9782244556114 L 639.5470383275261 331.1557788944724 L 641.2891986062718 333.6683417085427 L 643.0313588850174 333.6683417085427 L 644.773519163763 340.03350083752093 L 646.5156794425087 346.90117252931327 L 648.2578397212544 346.56616415410383 L 650 346.0636515912898 L 650 400 Z" /><text  class="poloto_labels poloto_text poloto_title" alignment-baseline="start" text-anchor="middle" font-size="x-large" x="400" y="37.5" >Total players on 2021-12-21</text><text  class="poloto_labels poloto_text poloto_xname" alignment-baseline="start" text-anchor="middle" font-size="x-large" x="400" y="481.25" >Time</text><text  class="poloto_labels poloto_text poloto_yname" alignment-baseline="start" text-anchor="middle" font-size="x-large" transform="rotate(-90,37.5,250)" x="37.5" y="250" >Count</text><line  class="poloto_axis_lines" stroke="black" x1="150" x2="150" y1="400" y2="405" /><text  class="poloto_tick_labels poloto_text" alignment-baseline="start" text-anchor="middle" x="150" y="430" > 00:00:00</text><line  class="poloto_axis_lines" stroke="black" x1="266.14401858304296" x2="266.14401858304296" y1="400" y2="405" /><text  class="poloto_tick_labels poloto_text" alignment-baseline="start" text-anchor="middle" x="266.14401858304296" y="430" > 05:33:20</text><line  class="poloto_axis_lines" stroke="black" x1="382.2880371660859" x2="382.2880371660859" y1="400" y2="405" /><text  class="poloto_tick_labels poloto_text" alignment-baseline="start" text-anchor="middle" x="382.2880371660859" y="430" > 11:06:40</text><line  class="poloto_axis_lines" stroke="black" x1="498.4320557491289" x2="498.4320557491289" y1="400" y2="405" /><text  class="poloto_tick_labels poloto_text" alignment-baseline="start" text-anchor="middle" x="498.4320557491289" y="430" > 16:40:00</text><line  class="poloto_axis_lines" stroke="black" x1="614.5760743321719" x2="614.5760743321719" y1="400" y2="405" /><text  class="poloto_tick_labels poloto_text" alignment-baseline="start" text-anchor="middle" x="614.5760743321719" y="430" > 22:13:20</text><line  class="poloto_axis_lines" stroke="black" x1="150" x2="144" y1="377.38693467336685" y2="377.38693467336685" /><text  class="poloto_tick_labels poloto_text" alignment-baseline="middle" text-anchor="end" x="135" y="377.38693467336685" > 1000</text><line  class="poloto_axis_lines" stroke="black" x1="150" x2="144" y1="293.63484087102177" y2="293.63484087102177" /><text  class="poloto_tick_labels poloto_text" alignment-baseline="middle" text-anchor="end" x="135" y="293.63484087102177" > 1500</text><line  class="poloto_axis_lines" stroke="black" x1="150" x2="144" y1="209.88274706867674" y2="209.88274706867674" /><text  class="poloto_tick_labels poloto_text" alignment-baseline="middle" text-anchor="end" x="135" y="209.88274706867674" > 2000</text><line  class="poloto_axis_lines" stroke="black" x1="150" x2="144" y1="126.13065326633165" y2="126.13065326633165" /><text  class="poloto_tick_labels poloto_text" alignment-baseline="middle" text-anchor="end" x="135" y="126.13065326633165" > 2500</text><path  stroke="black" fill="none" class="poloto_axis_lines" style="stroke-dasharray:14.518002322880372;stroke-dashoffset:-0;" d=" M 150 400 L 650 400" /><path  stroke="black" fill="none" class="poloto_axis_lines" style="stroke-dasharray:8.375209380234505;stroke-dashoffset:-22.613065326633148;" d=" M 150 400 L 150 100" /></svg>