<svg class="poloto" width="800" height="500" viewBox="0 0 800 500" xmlns="http://www.w3.org/2000/svg"><style>.poloto { stroke-linecap:round; stroke-linejoin:round; font-family: 'Tahoma', sans-serif; background-color: AliceBlue;} .poloto_scatter{stroke-width:7} .poloto_line{stroke-width:2} .poloto_text{fill: black;} .poloto_axis_lines{stroke: black;stroke-width:3;fill:none;stroke-dasharray:none} .poloto0stroke{stroke:  blue;} .poloto1stroke{stroke:  red;} .poloto2stroke{stroke:  green;} .poloto3stroke{stroke:  gold;} .poloto4stroke{stroke:  aqua;} .poloto5stroke{stroke:  lime;} .poloto6stroke{stroke:  orange;} .poloto7stroke{stroke:  chocolate;} .poloto0fill{fill:blue;} .poloto1fill{fill:red;} .poloto2fill{fill:green;} .poloto3fill{fill:gold;} .poloto4fill{fill:aqua;} .poloto5fill{fill:lime;} .poloto6fill{fill:orange;} .poloto7fill{fill:chocolate;}</style><text  class="poloto_text poloto_legend_text" alignment-baseline="middle" text-anchor="start" font-size="large" x="675" y="100" ></text><path  class="poloto_linefill poloto0fill" d=" M 150 400 L 150 367.20930232558135 L 151.74216027874564 369.8255813953488 L 153.4843205574913 367.73255813953483 L 155.22648083623693 372.09302325581393 L 156.96864111498257 371.74418604651163 L 158.71080139372822 372.7906976744186 L 160.45296167247386 367.5581395348837 L 162.1951219512195 370.3488372093023 L 163.93728222996515 374.36046511627904 L 165.6794425087108 374.8837209302326 L 167.42160278745644 383.6046511627907 L 169.16376306620208 385 L 170.90592334494772 390.5813953488372 L 172.64808362369337 394.7674418604651 L 174.390243902439 399.65116279069764 L 176.13240418118465 395.98837209302326 L 177.8745644599303 394.59302325581393 L 179.61672473867597 398.0813953488372 L 181.3588850174216 397.0348837209302 L 183.10104529616726 397.90697674418607 L 184.8432055749129 391.1046511627907 L 186.58536585365854 390.5813953488372 L 188.3275261324042 390.40697674418607 L 190.06968641114983 393.0232558139535 L 191.81184668989548 395.4651162790698 L 193.55400696864112 393.8953488372093 L 195.29616724738676 397.20930232558135 L 197.0383275261324 396.8604651162791 L 198.78048780487805 394.7674418604651 L 200.5226480836237 393.37209302325584 L 202.26480836236934 392.8488372093023 L 204.00696864111498 393.54651162790697 L 205.74912891986062 391.80232558139534 L 207.49128919860627 396.1627906976744 L 209.2334494773519 395.2906976744186 L 210.97560975609755 395.4651162790698 L 212.7177700348432 397.0348837209302 L 214.45993031358887 395.4651162790698 L 216.2020905923345 398.0813953488372 L 217.94425087108016 400 L 219.6864111498258 398.25581395348837 L 221.42857142857144 396.51162790697674 L 223.1707317073171 395.1162790697674 L 224.91289198606273 396.1627906976744 L 226.65505226480838 385.6976744186046 L 228.39721254355402 385.5232558139535 L 230.13937282229966 382.0348837209302 L 231.8815331010453 385.6976744186046 L 233.62369337979095 386.74418604651163 L 235.3658536585366 386.56976744186045 L 237.10801393728224 389.70930232558135 L 238.85017421602788 391.9767441860465 L 240.59233449477352 390.23255813953483 L 242.33449477351917 397.20930232558135 L 244.0766550522648 397.3837209302326 L 245.81881533101046 397.3837209302326 L 247.5609756097561 395.6395348837209 L 249.30313588850174 394.24418604651163 L 251.0452961672474 391.45348837209303 L 252.78745644599303 389.8837209302326 L 254.52961672473867 387.4418604651163 L 256.2717770034843 383.6046511627907 L 258.01393728222996 382.90697674418607 L 259.7560975609756 383.95348837209303 L 261.49825783972125 366.33720930232556 L 263.2404181184669 370.5232558139535 L 264.98257839721254 368.95348837209303 L 266.7247386759582 368.0813953488372 L 268.4668989547038 360.23255813953483 L 270.20905923344947 355.3488372093023 L 271.9512195121951 356.9186046511628 L 273.69337979094075 357.2674418604651 L 275.4355400696864 350.6395348837209 L 277.17770034843204 348.54651162790697 L 278.91986062717774 348.54651162790697 L 280.6620209059233 344.01162790697674 L 282.404181184669 344.18604651162786 L 284.1463414634146 346.62790697674416 L 285.8885017421603 344.01162790697674 L 287.6306620209059 343.83720930232556 L 289.3728222996516 348.7209302325581 L 291.1149825783972 347.5 L 292.8571428571429 353.77906976744185 L 294.5993031358885 356.04651162790697 L 296.3414634146342 357.9651162790698 L 298.08362369337976 359.18604651162786 L 299.82578397212546 357.09302325581393 L 301.56794425087105 353.77906976744185 L 303.31010452961675 353.6046511627907 L 305.05226480836234 355.5232558139535 L 306.79442508710804 356.3953488372093 L 308.5365853658536 356.04651162790697 L 310.2787456445993 354.65116279069764 L 312.0209059233449 356.74418604651163 L 313.7630662020906 355 L 315.5052264808362 353.6046511627907 L 317.2473867595819 359.70930232558135 L 318.9895470383275 356.56976744186045 L 320.7317073170732 359.18604651162786 L 322.4738675958188 358.83720930232556 L 324.2160278745645 355 L 325.9581881533101 350.8139534883721 L 327.70034843205576 347.5 L 329.4425087108014 341.3953488372093 L 331.18466898954705 341.3953488372093 L 332.9268292682927 338.6046511627907 L 334.66898954703834 335.4651162790698 L 336.411149825784 332.6744186046511 L 338.1533101045296 337.0348837209302 L 339.89547038327527 328.1395348837209 L 341.6376306620209 325 L 343.37979094076655 322.20930232558135 L 345.1219512195122 317.3255813953488 L 346.86411149825784 313.6627906976744 L 348.6062717770035 311.56976744186045 L 350.34843205574913 312.6162790697674 L 352.0905923344948 312.2674418604651 L 353.8327526132404 306.51162790697674 L 355.57491289198606 300.5813953488372 L 357.3170731707317 297.2674418604651 L 359.05923344947735 293.25581395348837 L 360.801393728223 297.9651162790698 L 362.54355400696863 299.18604651162786 L 364.2857142857143 299.5348837209302 L 366.0278745644599 295.3488372093023 L 367.77003484320556 294.30232558139534 L 369.5121951219512 285.2325581395349 L 371.25435540069685 277.7325581395349 L 372.9965156794425 276.1627906976744 L 374.73867595818814 279.12790697674416 L 376.4808362369338 279.12790697674416 L 378.2229965156795 277.5581395348837 L 379.96515679442507 279.30232558139534 L 381.70731707317077 272.5 L 383.44947735191636 268.3139534883721 L 385.19163763066206 264.30232558139534 L 386.93379790940764 259.59302325581393 L 388.67595818815334 248.95348837209303 L 390.41811846689893 243.89534883720927 L 392.16027874564463 245.98837209302326 L 393.9024390243902 243.19767441860466 L 395.6445993031359 241.45348837209303 L 397.3867595818815 234.65116279069764 L 399.1289198606272 227.32558139534882 L 400.8710801393728 227.32558139534882 L 402.6132404181185 224.53488372093022 L 404.3554006968641 216.51162790697674 L 406.0975609756098 216.16279069767438 L 407.8397212543554 205.69767441860466 L 409.58188153310107 202.03488372093022 L 411.3240418118467 203.25581395348837 L 413.06620209059236 200.6395348837209 L 414.808362369338 194.01162790697674 L 416.55052264808364 195.0581395348837 L 418.2926829268293 191.22093023255815 L 420.03484320557493 184.41860465116275 L 421.7770034843206 176.22093023255815 L 423.5191637630662 177.96511627906978 L 425.26132404181186 171.86046511627904 L 427.0034843205575 168.54651162790697 L 428.74564459930315 168.3720930232558 L 430.4878048780488 166.10465116279067 L 432.22996515679444 171.68604651162786 L 433.9721254355401 157.7325581395349 L 435.7142857142857 178.66279069767438 L 437.45644599303137 158.25581395348837 L 439.198606271777 154.59302325581393 L 440.94076655052265 156.51162790697674 L 442.6829268292683 154.41860465116275 L 444.42508710801394 154.59302325581393 L 446.1672473867596 138.02325581395348 L 447.9094076655052 140.11627906976742 L 449.65156794425087 133.1395348837209 L 451.3937282229965 136.97674418604652 L 453.13588850174216 128.4302325581395 L 454.8780487804878 119.7093023255814 L 456.62020905923345 126.16279069767438 L 458.3623693379791 119.18604651162786 L 460.10452961672473 113.4302325581395 L 461.8466898954704 115.3488372093023 L 463.588850174216 116.91860465116275 L 465.33101045296166 117.26744186046511 L 467.0731707317073 120.40697674418601 L 468.81533101045295 114.47674418604652 L 470.5574912891986 113.77906976744185 L 472.29965156794424 108.1976744186046 L 474.0418118466899 108.37209302325579 L 475.7839721254355 107.5 L 477.52613240418117 106.27906976744185 L 479.2682926829268 101.74418604651163 L 481.01045296167246 100 L 482.7526132404181 101.91860465116275 L 484.49477351916374 120.9302325581395 L 486.2369337979094 124.94186046511624 L 487.97909407665503 131.22093023255815 L 489.7212543554007 144.30232558139534 L 491.4634146341463 149.53488372093022 L 493.20557491289196 164.18604651162786 L 494.9477351916376 140.6395348837209 L 496.68989547038325 146.22093023255815 L 498.4320557491289 145.52325581395348 L 500.17421602787454 154.24418604651163 L 501.91637630662024 157.2093023255814 L 503.6585365853659 169.7674418604651 L 505.4006968641115 158.95348837209303 L 507.14285714285717 165.75581395348837 L 508.8850174216028 170.46511627906978 L 510.62717770034845 180.0581395348837 L 512.3693379790941 183.19767441860466 L 514.1114982578397 186.33720930232556 L 515.8536585365854 199.59302325581393 L 517.5958188153311 205.8720930232558 L 519.3379790940767 204.12790697674416 L 521.0801393728223 219.47674418604652 L 522.822299651568 222.96511627906978 L 524.5644599303137 218.60465116279067 L 526.3066202090592 201.33720930232556 L 528.0487804878048 208.1395348837209 L 529.7909407665505 202.906976744186 L 531.5331010452962 204.30232558139534 L 533.2752613240418 201.86046511627904 L 535.0174216027874 207.2674418604651 L 536.7595818815331 211.27906976744185 L 538.5017421602788 208.48837209302326 L 540.2439024390244 235.52325581395348 L 541.98606271777 227.8488372093023 L 543.7282229965157 203.60465116279067 L 545.4703832752614 218.25581395348837 L 547.212543554007 212.67441860465112 L 548.9547038327526 215.98837209302326 L 550.6968641114983 218.0813953488372 L 552.439024390244 217.38372093023253 L 554.1811846689895 212.67441860465112 L 555.9233449477351 223.48837209302326 L 557.6655052264808 230.46511627906978 L 559.4076655052265 233.25581395348837 L 561.1498257839721 233.4302325581395 L 562.8919860627177 232.7325581395349 L 564.6341463414634 235.17441860465112 L 566.3763066202091 236.39534883720927 L 568.1184668989547 238.83720930232556 L 569.8606271777003 242.67441860465112 L 571.602787456446 244.7674418604651 L 573.3449477351917 244.41860465116275 L 575.0871080139373 244.9418604651163 L 576.8292682926829 250.17441860465112 L 578.5714285714286 246.16279069767438 L 580.3135888501743 251.04651162790697 L 582.0557491289198 249.82558139534882 L 583.7979094076654 243.89534883720927 L 585.5400696864111 247.38372093023253 L 587.2822299651568 257.5 L 589.0243902439024 254.53488372093022 L 590.766550522648 264.12790697674416 L 592.5087108013937 267.2674418604651 L 594.2508710801394 266.56976744186045 L 595.993031358885 270.2325581395349 L 597.7351916376306 272.6744186046511 L 599.4773519163763 283.48837209302326 L 601.219512195122 286.1046511627907 L 602.9616724738676 290.8139534883721 L 604.7038327526133 290.6395348837209 L 606.445993031359 289.06976744186045 L 608.1881533101046 292.5581395348837 L 609.9303135888501 293.25581395348837 L 611.6724738675958 297.7906976744186 L 613.4146341463415 301.80232558139534 L 615.1567944250871 303.1976744186046 L 616.8989547038327 307.5581395348837 L 618.6411149825784 308.43023255813955 L 620.3832752613241 308.77906976744185 L 622.1254355400697 314.36046511627904 L 623.8675958188153 315.40697674418607 L 625.609756097561 321.68604651162786 L 627.3519163763067 323.6046511627907 L 629.0940766550523 330.40697674418607 L 630.8362369337979 334.9418604651163 L 632.5783972125436 336.86046511627904 L 634.3205574912893 335.8139534883721 L 636.0627177700349 334.7674418604651 L 637.8048780487804 331.9767441860465 L 639.5470383275261 334.59302325581393 L 641.2891986062718 345.5813953488372 L 643.0313588850174 344.70930232558135 L 644.773519163763 350.4651162790698 L 646.5156794425087 352.90697674418607 L 648.2578397212544 356.74418604651163 L 650 356.56976744186045 L 650 400 Z" /><text  class="poloto_labels poloto_text poloto_title" alignment-baseline="start" text-anchor="middle" font-size="x-large" x="400" y="37.5" >Total players on 2021-12-15</text><text  class="poloto_labels poloto_text poloto_xname" alignment-baseline="start" text-anchor="middle" font-size="x-large" x="400" y="481.25" >Time</text><text  class="poloto_labels poloto_text poloto_yname" alignment-baseline="start" text-anchor="middle" font-size="x-large" transform="rotate(-90,37.5,250)" x="37.5" y="250" >Count</text><line  class="poloto_axis_lines" stroke="black" x1="150" x2="150" y1="400" y2="405" /><text  class="poloto_tick_labels poloto_text" alignment-baseline="start" text-anchor="middle" x="150" y="430" > 00:00</text><line  class="poloto_axis_lines" stroke="black" x1="266.14401858304296" x2="266.14401858304296" y1="400" y2="405" /><text  class="poloto_tick_labels poloto_text" alignment-baseline="start" text-anchor="middle" x="266.14401858304296" y="430" > 06:00</text><line  class="poloto_axis_lines" stroke="black" x1="382.2880371660859" x2="382.2880371660859" y1="400" y2="405" /><text  class="poloto_tick_labels poloto_text" alignment-baseline="start" text-anchor="middle" x="382.2880371660859" y="430" > 11:00</text><line  class="poloto_axis_lines" stroke="black" x1="498.4320557491289" x2="498.4320557491289" y1="400" y2="405" /><text  class="poloto_tick_labels poloto_text" alignment-baseline="start" text-anchor="middle" x="498.4320557491289" y="430" > 17:00</text><line  class="poloto_axis_lines" stroke="black" x1="614.5760743321719" x2="614.5760743321719" y1="400" y2="405" /><text  class="poloto_tick_labels poloto_text" alignment-baseline="start" text-anchor="middle" x="614.5760743321719" y="430" > 22:00</text><line  class="poloto_axis_lines" stroke="black" x1="150" x2="144" y1="374.36046511627904" y2="374.36046511627904" /><text  class="poloto_tick_labels poloto_text" alignment-baseline="middle" text-anchor="end" x="135" y="374.36046511627904" > 1000</text><line  class="poloto_axis_lines" stroke="black" x1="150" x2="144" y1="287.15116279069764" y2="287.15116279069764" /><text  class="poloto_tick_labels poloto_text" alignment-baseline="middle" text-anchor="end" x="135" y="287.15116279069764" > 1500</text><line  class="poloto_axis_lines" stroke="black" x1="150" x2="144" y1="199.94186046511624" y2="199.94186046511624" /><text  class="poloto_tick_labels poloto_text" alignment-baseline="middle" text-anchor="end" x="135" y="199.94186046511624" > 2000</text><line  class="poloto_axis_lines" stroke="black" x1="150" x2="144" y1="112.73255813953489" y2="112.73255813953489" /><text  class="poloto_tick_labels poloto_text" alignment-baseline="middle" text-anchor="end" x="135" y="112.73255813953489" > 2500</text><path  stroke="black" fill="none" class="poloto_axis_lines" style="stroke-dasharray:14.518002322880372;stroke-dashoffset:-0;" d=" M 150 400 L 650 400" /><path  stroke="black" fill="none" class="poloto_axis_lines" style="stroke-dasharray:8.72093023255814;stroke-dashoffset:-25.639534883720955;" d=" M 150 400 L 150 100" /></svg>