<svg class="poloto" width="800" height="500" viewBox="0 0 800 500" xmlns="http://www.w3.org/2000/svg"><style>.poloto { stroke-linecap:round; stroke-linejoin:round; font-family: 'Tahoma', sans-serif; background-color: AliceBlue;} .poloto_scatter{stroke-width:7} .poloto_line{stroke-width:2} .poloto_text{fill: black;} .poloto_axis_lines{stroke: black;stroke-width:3;fill:none;stroke-dasharray:none} .poloto0stroke{stroke:  blue;} .poloto1stroke{stroke:  red;} .poloto2stroke{stroke:  green;} .poloto3stroke{stroke:  gold;} .poloto4stroke{stroke:  aqua;} .poloto5stroke{stroke:  lime;} .poloto6stroke{stroke:  orange;} .poloto7stroke{stroke:  chocolate;} .poloto0fill{fill:blue;} .poloto1fill{fill:red;} .poloto2fill{fill:green;} .poloto3fill{fill:gold;} .poloto4fill{fill:aqua;} .poloto5fill{fill:lime;} .poloto6fill{fill:orange;} .poloto7fill{fill:chocolate;}</style><text  class="poloto_text poloto_legend_text" alignment-baseline="middle" text-anchor="start" font-size="large" x="675" y="100" ></text><path  class="poloto_linefill poloto0fill" d=" M 150 400 L 150 358.3833970507919 L 151.74216027874564 361.4964500273075 L 153.4843205574913 367.0671764063353 L 155.22648083623693 370.34407427635176 L 156.96864111498257 371.49098853085746 L 158.71080139372822 373.94866193336975 L 160.45296167247386 378.7001638448935 L 162.1951219512195 381.4855270344074 L 163.93728222996515 380.0109229929001 L 165.6794425087108 378.8640087383943 L 167.42160278745644 378.37247405789185 L 169.16376306620208 385.09011469142547 L 170.90592334494772 382.1409066084107 L 172.64808362369337 385.09011469142547 L 174.390243902439 384.598580010923 L 176.13240418118465 388.203167667941 L 177.8745644599303 390.988530857455 L 179.61672473867597 391.1523757509558 L 181.3588850174216 392.1354451119607 L 183.10104529616726 393.4462042599672 L 184.8432055749129 390.4969961769525 L 186.58536585365854 390.988530857455 L 188.3275261324042 392.1354451119607 L 190.06968641114983 388.69470234844346 L 191.81184668989548 394.59311851447296 L 193.55400696864112 392.1354451119607 L 195.29616724738676 390.988530857455 L 197.0383275261324 390.82468596395415 L 198.78048780487805 393.11851447296556 L 200.5226480836237 393.4462042599672 L 202.26480836236934 392.79082468596397 L 204.00696864111498 395.08465319497543 L 205.74912891986062 396.8869470234844 L 207.49128919860627 393.4462042599672 L 209.2334494773519 396.06772255598037 L 210.97560975609755 395.4123429819771 L 212.7177700348432 400 L 214.45993031358887 396.395412342982 L 216.2020905923345 396.8869470234844 L 217.94425087108016 395.08465319497543 L 219.6864111498258 394.1015838339705 L 221.42857142857144 387.7116329874386 L 223.1707317073171 384.7624249044238 L 224.91289198606273 383.45166575641724 L 226.65505226480838 383.61551064991806 L 228.39721254355402 380.0109229929001 L 230.13937282229966 379.84707809939925 L 231.8815331010453 378.8640087383943 L 233.62369337979095 381.64937192790825 L 235.3658536585366 379.5193883123976 L 237.10801393728224 381.4855270344074 L 238.85017421602788 378.7001638448935 L 240.59233449477352 378.0447842708902 L 242.33449477351917 375.0955761878755 L 244.0766550522648 373.94866193336975 L 245.81881533101046 375.7509557618788 L 247.5609756097561 379.3555434188968 L 249.30313588850174 380.66630256690337 L 251.0452961672474 381.9770617149099 L 252.78745644599303 378.208629164391 L 254.52961672473867 378.7001638448935 L 256.2717770034843 370.5079191698526 L 258.01393728222996 369.3610049153468 L 259.7560975609756 367.5587110868378 L 261.49825783972125 363.62643364281814 L 263.2404181184669 360.6772255598034 L 264.98257839721254 360.8410704533042 L 266.7247386759582 359.85800109229933 L 268.4668989547038 356.08956854178047 L 270.20905923344947 354.2872747132715 L 271.9512195121951 353.30420535226654 L 273.69337979094075 354.2872747132715 L 275.4355400696864 351.17422173675584 L 277.17770034843204 346.91425450573456 L 278.91986062717774 349.3719279082469 L 280.6620209059233 351.17422173675584 L 282.404181184669 351.99344620425995 L 284.1463414634146 351.0103768432551 L 285.8885017421603 347.8973238667395 L 287.6306620209059 348.38885854724197 L 289.3728222996516 355.4341889677772 L 291.1149825783972 349.2080830147461 L 292.8571428571429 354.12342981977065 L 294.5993031358885 352.1572910977608 L 296.3414634146342 351.6657564172583 L 298.08362369337976 357.400327689787 L 299.82578397212546 360.34953577280174 L 301.56794425087105 356.5811032222829 L 303.31010452961675 361.00491534680503 L 305.05226480836234 361.16876024030586 L 306.79442508710804 358.54724194429275 L 308.5365853658536 356.2534134352813 L 310.2787456445993 355.10649918077553 L 312.0209059233449 353.6318951392682 L 313.7630662020906 347.8973238667395 L 315.5052264808362 342.49044238121246 L 317.2473867595819 338.2304751501912 L 318.9895470383275 340.0327689787002 L 320.7317073170732 336.59202621518295 L 322.4738675958188 332.16821409066085 L 324.2160278745645 328.56362643364287 L 325.9581881533101 326.92517749863464 L 327.70034843205576 318.73293282359367 L 329.4425087108014 318.405243036592 L 331.18466898954705 317.0944838885855 L 332.9268292682927 313.6537411250683 L 334.66898954703834 309.06608410704536 L 336.411149825784 308.90223921354453 L 338.1533101045296 304.15073730202073 L 339.89547038327527 309.2299290005461 L 341.6376306620209 311.196067722556 L 343.37979094076655 302.3484434735118 L 345.1219512195122 305.62534134352813 L 346.86411149825784 294.3200436919716 L 348.6062717770035 290.22392135445114 L 350.34843205574913 289.0770070999454 L 352.0905923344948 282.8509011469143 L 353.8327526132404 289.0770070999454 L 355.57491289198606 287.11086837793556 L 357.3170731707317 289.404696886947 L 359.05923344947735 284.9808847624249 L 360.801393728223 285.6362643364282 L 362.54355400696863 279.90169306389953 L 364.2857142857143 283.67012561441834 L 366.0278745644599 275.3140360458766 L 367.77003484320556 269.2517749863463 L 369.5121951219512 263.6810486073184 L 371.25435540069685 266.3025669033315 L 372.9965156794425 259.91261605679955 L 374.73867595818814 276.9524849808848 L 376.4808362369338 258.92954669579467 L 378.2229965156795 256.96340797378485 L 379.96515679442507 255.32495903877663 L 381.70731707317077 251.72037138175864 L 383.44947735191636 245.33042053522666 L 385.19163763066206 241.2342981977062 L 386.93379790940764 238.9404696886947 L 388.67595818815334 239.7596941561988 L 390.41811846689893 233.04205352266524 L 392.16027874564463 234.84434735117424 L 393.9024390243902 227.30748225013656 L 395.6445993031359 226.65210267613327 L 397.3867595818815 221.24522119060623 L 399.1289198606272 217.3129437465866 L 400.8710801393728 214.36373566357184 L 402.6132404181185 207.97378481703987 L 404.3554006968641 199.94538503549973 L 406.0975609756098 198.14309120699073 L 407.8397212543554 197.1600218459858 L 409.58188153310107 186.18241398143095 L 411.3240418118467 194.86619333697433 L 413.06620209059236 187.82086291643913 L 414.808362369338 177.49863462588752 L 416.55052264808364 179.3009284543965 L 418.2926829268293 176.51556526488258 L 420.03484320557493 171.27252867285637 L 421.7770034843206 170.2894593118515 L 423.5191637630662 165.04642271982527 L 425.26132404181186 167.0125614418351 L 427.0034843205575 165.37411250682692 L 428.74564459930315 164.71873293282363 L 430.4878048780488 153.41343528126708 L 432.22996515679444 157.67340251228842 L 433.9721254355401 152.92190060076462 L 435.7142857142857 146.04041507373023 L 437.45644599303137 141.4527580557073 L 439.198606271777 138.99508465319502 L 440.94076655052265 140.30584380120155 L 442.6829268292683 140.14199890770072 L 444.42508710801394 132.11359912616058 L 446.1672473867596 145.0573457127253 L 447.9094076655052 133.42435827416716 L 449.65156794425087 116.8760240305844 L 451.3937282229965 127.68978700163848 L 453.13588850174216 132.44128891316223 L 454.8780487804878 116.38448935008194 L 456.62020905923345 123.4298197706172 L 458.3623693379791 118.84216275259422 L 460.10452961672473 114.41835062807212 L 461.8466898954704 131.94975423265976 L 463.588850174216 115.56526488257788 L 465.33101045296166 103.44074276351722 L 467.0731707317073 104.09612233752051 L 468.81533101045295 100.00000000000006 L 470.5574912891986 104.58765701802298 L 472.29965156794424 104.25996723102134 L 474.0418118466899 116.54833424358276 L 475.7839721254355 112.77990169306395 L 477.52613240418117 105.8984161660295 L 479.2682926829268 111.63298743855819 L 481.01045296167246 118.18678317859099 L 482.7526132404181 118.35062807209175 L 484.49477351916374 137.3566357181868 L 486.2369337979094 138.1758601856909 L 487.97909407665503 128.34516657564177 L 489.7212543554007 132.76897870016387 L 491.4634146341463 139.15892954669584 L 493.20557491289196 146.69579464773352 L 494.9477351916376 136.70125614418356 L 496.68989547038325 137.19279082468597 L 498.4320557491289 138.99508465319502 L 500.17421602787454 149.48115783724745 L 501.91637630662024 148.49808847624251 L 503.6585365853659 162.09721463681052 L 505.4006968641115 177.99016930639 L 507.14285714285717 176.6794101583834 L 508.8850174216028 171.10868377935554 L 510.62717770034845 172.41944292736213 L 512.3693379790941 176.35172037138176 L 514.1114982578397 177.00709994538505 L 515.8536585365854 175.86018569087935 L 517.5958188153311 179.9563080283998 L 519.3379790940767 181.92244675040962 L 521.0801393728223 204.86073184052435 L 522.822299651568 203.54997269251777 L 524.5644599303137 211.90606226105956 L 526.3066202090592 206.66302566903335 L 528.0487804878048 211.4145275805571 L 529.7909407665505 218.4598580010923 L 531.5331010452962 227.30748225013656 L 533.2752613240418 230.42053522665213 L 535.0174216027874 227.96286182413985 L 536.7595818815331 225.99672310212998 L 538.5017421602788 225.50518842162757 L 540.2439024390244 222.88367012561446 L 541.98606271777 223.70289459311851 L 543.7282229965157 224.19442927362098 L 545.4703832752614 220.42599672310217 L 547.212543554007 230.2566903331513 L 548.9547038327526 235.17203713817588 L 550.6968641114983 231.2397596941562 L 552.439024390244 213.54451119606773 L 554.1811846689895 205.35226652102676 L 555.9233449477351 206.17149098853088 L 557.6655052264808 235.00819224467506 L 559.4076655052265 236.97433096668487 L 561.1498257839721 241.72583287820862 L 562.8919860627177 243.6919716002185 L 564.6341463414634 245.00273074822502 L 566.3763066202091 239.26815947569634 L 568.1184668989547 215.67449481157837 L 569.8606271777003 212.06990715456038 L 571.602787456446 211.4145275805571 L 573.3449477351917 217.64063353358824 L 575.0871080139373 224.68596395412345 L 576.8292682926829 231.56744948115784 L 578.5714285714286 247.4604041507373 L 580.3135888501743 233.8612779901693 L 582.0557491289198 231.2397596941562 L 583.7979094076654 234.84434735117424 L 585.5400696864111 239.43200436919716 L 587.2822299651568 272.36482796286185 L 589.0243902439024 267.28563626433646 L 590.766550522648 270.7263790278537 L 592.5087108013937 278.75477880939377 L 594.2508710801394 274.6586564718733 L 595.993031358885 282.68705625341346 L 597.7351916376306 281.86783178590935 L 599.4773519163763 281.0486073184053 L 601.219512195122 279.7378481703987 L 602.9616724738676 286.2916439104315 L 604.7038327526133 290.22392135445114 L 606.445993031359 291.04314582195525 L 608.1881533101046 272.0371381758602 L 609.9303135888501 273.51174221736755 L 611.6724738675958 286.4554888039323 L 613.4146341463415 289.73238667394867 L 615.1567944250871 293.1731294374659 L 616.8989547038327 298.7438558164937 L 618.6411149825784 301.36537411250686 L 620.3832752613241 303.16766794101585 L 622.1254355400697 324.46750409612235 L 623.8675958188153 323.4844347351174 L 625.609756097561 321.3544511196068 L 627.3519163763067 324.6313489896232 L 629.0940766550523 313.32605133806663 L 630.8362369337979 320.37138175860184 L 632.5783972125436 330.3659202621518 L 634.3205574912893 333.64281813216826 L 636.0627177700349 325.7782632441289 L 637.8048780487804 324.6313489896232 L 639.5470383275261 312.0152921900601 L 641.2891986062718 316.60294920808303 L 643.0313588850174 319.0606226105953 L 644.773519163763 323.64827962861824 L 646.5156794425087 326.92517749863464 L 648.2578397212544 333.64281813216826 L 650 337.7389404696887 L 650 400 Z" /><text  class="poloto_labels poloto_text poloto_title" alignment-baseline="start" text-anchor="middle" font-size="x-large" x="400" y="37.5" >Total players on 2021-12-09</text><text  class="poloto_labels poloto_text poloto_xname" alignment-baseline="start" text-anchor="middle" font-size="x-large" x="400" y="481.25" >Time</text><text  class="poloto_labels poloto_text poloto_yname" alignment-baseline="start" text-anchor="middle" font-size="x-large" transform="rotate(-90,37.5,250)" x="37.5" y="250" >Count</text><line  class="poloto_axis_lines" stroke="black" x1="150" x2="150" y1="400" y2="405" /><text  class="poloto_tick_labels poloto_text" alignment-baseline="start" text-anchor="middle" x="150" y="430" > 00:00:00</text><line  class="poloto_axis_lines" stroke="black" x1="266.14401858304296" x2="266.14401858304296" y1="400" y2="405" /><text  class="poloto_tick_labels poloto_text" alignment-baseline="start" text-anchor="middle" x="266.14401858304296" y="430" > 05:33:20</text><line  class="poloto_axis_lines" stroke="black" x1="382.2880371660859" x2="382.2880371660859" y1="400" y2="405" /><text  class="poloto_tick_labels poloto_text" alignment-baseline="start" text-anchor="middle" x="382.2880371660859" y="430" > 11:06:40</text><line  class="poloto_axis_lines" stroke="black" x1="498.4320557491289" x2="498.4320557491289" y1="400" y2="405" /><text  class="poloto_tick_labels poloto_text" alignment-baseline="start" text-anchor="middle" x="498.4320557491289" y="430" > 16:40:00</text><line  class="poloto_axis_lines" stroke="black" x1="614.5760743321719" x2="614.5760743321719" y1="400" y2="405" /><text  class="poloto_tick_labels poloto_text" alignment-baseline="start" text-anchor="middle" x="614.5760743321719" y="430" > 22:13:20</text><line  class="poloto_axis_lines" stroke="black" x1="150" x2="144" y1="359.5303113052977" y2="359.5303113052977" /><text  class="poloto_tick_labels poloto_text" alignment-baseline="middle" text-anchor="end" x="135" y="359.5303113052977" > 1000</text><line  class="poloto_axis_lines" stroke="black" x1="150" x2="144" y1="277.60786455488807" y2="277.60786455488807" /><text  class="poloto_tick_labels poloto_text" alignment-baseline="middle" text-anchor="end" x="135" y="277.60786455488807" > 1500</text><line  class="poloto_axis_lines" stroke="black" x1="150" x2="144" y1="195.68541780447845" y2="195.68541780447845" /><text  class="poloto_tick_labels poloto_text" alignment-baseline="middle" text-anchor="end" x="135" y="195.68541780447845" > 2000</text><line  class="poloto_axis_lines" stroke="black" x1="150" x2="144" y1="113.76297105406883" y2="113.76297105406883" /><text  class="poloto_tick_labels poloto_text" alignment-baseline="middle" text-anchor="end" x="135" y="113.76297105406883" > 2500</text><path  stroke="black" fill="none" class="poloto_axis_lines" style="stroke-dasharray:14.518002322880372;stroke-dashoffset:-0;" d=" M 150 400 L 650 400" /><path  stroke="black" fill="none" class="poloto_axis_lines" style="stroke-dasharray:8.19224467504096;stroke-dashoffset:-40.46968869470234;" d=" M 150 400 L 150 100" /></svg>