<svg class="poloto" width="800" height="500" viewBox="0 0 800 500" xmlns="http://www.w3.org/2000/svg"><style>.poloto { stroke-linecap:round; stroke-linejoin:round; font-family: 'Tahoma', sans-serif; background-color: AliceBlue;} .poloto_scatter{stroke-width:7} .poloto_line{stroke-width:2} .poloto_text{fill: black;} .poloto_axis_lines{stroke: black;stroke-width:3;fill:none;stroke-dasharray:none} .poloto0stroke{stroke:  blue;} .poloto1stroke{stroke:  red;} .poloto2stroke{stroke:  green;} .poloto3stroke{stroke:  gold;} .poloto4stroke{stroke:  aqua;} .poloto5stroke{stroke:  lime;} .poloto6stroke{stroke:  orange;} .poloto7stroke{stroke:  chocolate;} .poloto0fill{fill:blue;} .poloto1fill{fill:red;} .poloto2fill{fill:green;} .poloto3fill{fill:gold;} .poloto4fill{fill:aqua;} .poloto5fill{fill:lime;} .poloto6fill{fill:orange;} .poloto7fill{fill:chocolate;}</style><text  class="poloto_text poloto_legend_text" alignment-baseline="middle" text-anchor="start" font-size="large" x="675" y="100" ></text><path  class="poloto_linefill poloto0fill" d=" M 150 400 L 150 356.1839651957738 L 151.74216027874564 354.31945307644503 L 153.4843205574913 360.8452454940957 L 155.22648083623693 357.30267246737105 L 156.96864111498257 365.13362336855187 L 158.71080139372822 369.79490366687384 L 160.45296167247386 375.3884400248602 L 162.1951219512195 377.43940335612183 L 163.93728222996515 375.9477936606588 L 165.6794425087108 381.727781230578 L 167.42160278745644 382.2871348663766 L 169.16376306620208 378.74456183965196 L 170.90592334494772 375.57489123679306 L 172.64808362369337 375.9477936606588 L 174.390243902439 379.1174642635177 L 176.13240418118465 379.3039154754506 L 177.8745644599303 382.2871348663766 L 179.61672473867597 382.4735860783095 L 181.3588850174216 378.5581106277191 L 183.10104529616726 379.49036668738347 L 184.8432055749129 382.10068365444374 L 186.58536585365854 388.81292728402735 L 188.3275261324042 391.9825978868863 L 190.06968641114983 386.7619639527657 L 191.81184668989548 386.7619639527657 L 193.55400696864112 387.32131758856434 L 195.29616724738676 387.13486637663146 L 197.0383275261324 386.9484151646986 L 198.78048780487805 388.99937849596023 L 200.5226480836237 387.88067122436297 L 202.26480836236934 389.1858297078931 L 204.00696864111498 390.49098819142324 L 205.74912891986062 392.7284027346178 L 207.49128919860627 388.99937849596023 L 209.2334494773519 383.0329397141081 L 210.97560975609755 385.08390304536977 L 212.7177700348432 383.9651957737725 L 214.45993031358887 386.01615910503415 L 216.2020905923345 386.01615910503415 L 217.94425087108016 383.9651957737725 L 219.6864111498258 381.5413300186451 L 221.42857142857144 382.84648850217525 L 223.1707317073171 378.74456183965196 L 224.91289198606273 383.4058421379739 L 226.65505226480838 388.99937849596023 L 228.39721254355402 388.99937849596023 L 230.13937282229966 386.7619639527657 L 231.8815331010453 386.2026103169671 L 233.62369337979095 388.06712243629585 L 235.3658536585366 384.1516469857054 L 237.10801393728224 386.38906152889996 L 238.85017421602788 387.88067122436297 L 240.59233449477352 393.10130515848357 L 242.33449477351917 392.7284027346178 L 244.0766550522648 399.8135487880671 L 245.81881533101046 400 L 247.5609756097561 399.44064636420137 L 249.30313588850174 395.71162212554384 L 251.0452961672474 398.88129272840274 L 252.78745644599303 398.88129272840274 L 254.52961672473867 396.27097576134247 L 256.2717770034843 390.1180857675575 L 258.01393728222996 392.35550031075206 L 259.7560975609756 388.2535736482287 L 261.49825783972125 383.4058421379739 L 263.2404181184669 372.9645742697328 L 264.98257839721254 366.0658794282163 L 266.7247386759582 363.2691112492231 L 268.4668989547038 363.82846488502173 L 270.20905923344947 360.8452454940957 L 271.9512195121951 363.2691112492231 L 273.69337979094075 354.6923555003108 L 275.4355400696864 355.2517091361094 L 277.17770034843204 355.81106277190804 L 278.91986062717774 358.6078309509012 L 280.6620209059233 361.21814791796146 L 282.404181184669 360.0994406463642 L 284.1463414634146 357.6755748912368 L 285.8885017421603 357.30267246737105 L 287.6306620209059 352.0820385332505 L 289.3728222996516 348.3530142945929 L 291.1149825783972 349.65817277812306 L 292.8571428571429 351.70913610938476 L 294.5993031358885 352.45494095711626 L 296.3414634146342 363.455562461156 L 298.08362369337976 369.04909881914233 L 299.82578397212546 366.8116842759478 L 301.56794425087105 367.93039154754507 L 303.31010452961675 363.82846488502173 L 305.05226480836234 368.11684275947795 L 306.79442508710804 365.32007458048474 L 308.5365853658536 370.54070851460534 L 310.2787456445993 368.3032939714108 L 312.0209059233449 362.89620882535735 L 313.7630662020906 366.9981354878807 L 315.5052264808362 367.7439403356122 L 317.2473867595819 368.6761963952766 L 318.9895470383275 371.4729645742698 L 320.7317073170732 370.54070851460534 L 322.4738675958188 369.60845245494096 L 324.2160278745645 362.5233064014916 L 325.9581881533101 358.4213797389683 L 327.70034843205576 364.947172156619 L 329.4425087108014 357.48912367930393 L 331.18466898954705 357.6755748912368 L 332.9268292682927 351.89558732131763 L 334.66898954703834 345.18334369173397 L 336.411149825784 335.67433188315727 L 338.1533101045296 338.6575512740833 L 339.89547038327527 331.75885643256686 L 341.6376306620209 327.28402734617777 L 343.37979094076655 326.1653200745805 L 345.1219512195122 323.74145431945306 L 346.86411149825784 328.21628340584215 L 348.6062717770035 313.48663766314485 L 350.34843205574913 311.99502796768184 L 352.0905923344948 303.4182722187694 L 353.8327526132404 296.519577377253 L 355.57491289198606 295.21441889372284 L 357.3170731707317 291.4853946550653 L 359.05923344947735 290.36668738346805 L 360.801393728223 289.8073337476694 L 362.54355400696863 282.16283405842137 L 364.2857142857143 281.9763828464885 L 366.0278745644599 275.82349285270357 L 367.77003484320556 276.5692977004351 L 369.5121951219512 271.90801740211316 L 371.25435540069685 265.1957737725295 L 372.9965156794425 262.958359229335 L 374.73867595818814 266.6873834679925 L 376.4808362369338 250.83903045369797 L 378.2229965156795 250.09322560596647 L 379.96515679442507 244.12678682411436 L 381.70731707317077 252.51709136109386 L 383.44947735191636 241.5164698570541 L 385.19163763066206 240.21131137352396 L 386.93379790940764 243.56743318831573 L 388.67595818815334 237.41454319453075 L 390.41811846689893 233.68551895587322 L 392.16027874564463 231.82100683654446 L 393.9024390243902 226.9732753262896 L 395.6445993031359 223.61715351149783 L 397.3867595818815 214.85394655065258 L 399.1289198606272 215.22684897451833 L 400.8710801393728 220.07458048477318 L 402.6132404181185 207.39589807333746 L 404.3554006968641 206.09073958980733 L 406.0975609756098 199.1920447482909 L 407.8397212543554 200.49720323182103 L 409.58188153310107 191.92044748290866 L 411.3240418118467 188.19142324425113 L 413.06620209059236 182.78433809819765 L 414.808362369338 179.9875699192045 L 416.55052264808364 176.63144810441267 L 418.2926829268293 179.9875699192045 L 420.03484320557493 179.241765071473 L 421.7770034843206 171.03791174642637 L 423.5191637630662 164.8850217526414 L 425.26132404181186 162.83405842137975 L 427.0034843205575 155.00310752019888 L 428.74564459930315 144.74829086389062 L 430.4878048780488 141.20571783716593 L 432.22996515679444 141.01926662523306 L 433.9721254355401 138.96830329397142 L 435.7142857142857 135.79863269111252 L 437.45644599303137 128.89993784959609 L 439.198606271777 130.20509633312622 L 440.94076655052265 130.57799875699197 L 442.6829268292683 123.1199502796768 L 444.42508710801394 114.91609695463023 L 446.1672473867596 118.27221876942201 L 447.9094076655052 122.56059664387817 L 449.65156794425087 117.5264139216905 L 451.3937282229965 122.3741454319453 L 453.13588850174216 113.42448725916722 L 454.8780487804878 112.11932877563709 L 456.62020905923345 100.7458048477315 L 458.3623693379791 119.2044748290864 L 460.10452961672473 113.6109384711001 L 461.8466898954704 114.72964574269736 L 463.588850174216 111.37352392790558 L 465.33101045296166 106.15288999378492 L 467.0731707317073 111.74642635177133 L 468.81533101045295 104.28837787445616 L 470.5574912891986 107.83095090118093 L 472.29965156794424 100 L 474.0418118466899 103.1696706028589 L 475.7839721254355 115.28899937849599 L 477.52613240418117 114.91609695463023 L 479.2682926829268 116.40770665009325 L 481.01045296167246 124.61155997513981 L 482.7526132404181 129.27284027346184 L 484.49477351916374 130.01864512119334 L 486.2369337979094 138.2224984462399 L 487.97909407665503 147.54505904288382 L 489.7212543554007 156.86761963952765 L 491.4634146341463 159.66438781852085 L 493.20557491289196 161.90180236171537 L 494.9477351916376 163.2069608452455 L 496.68989547038325 160.41019266625236 L 498.4320557491289 163.02050963331263 L 500.17421602787454 161.90180236171537 L 501.91637630662024 162.08825357364825 L 503.6585365853659 165.81727781230578 L 505.4006968641115 168.98694841516473 L 507.14285714285717 174.7669359850839 L 508.8850174216028 182.03853325046614 L 510.62717770034845 204.59912989434432 L 512.3693379790941 196.20882535736482 L 514.1114982578397 193.41205717837167 L 515.8536585365854 199.75139838408953 L 517.5958188153311 195.27656929770043 L 519.3379790940767 198.4462399005594 L 521.0801393728223 201.6159105034183 L 522.822299651568 217.27781230577997 L 524.5644599303137 216.15910503418272 L 526.3066202090592 214.85394655065258 L 528.0487804878048 216.53200745804847 L 529.7909407665505 220.44748290863893 L 531.5331010452962 222.87134866376633 L 533.2752613240418 209.63331261653204 L 535.0174216027874 219.70167806090743 L 536.7595818815331 224.54940957116222 L 538.5017421602788 222.49844623990057 L 540.2439024390244 227.90553138595405 L 541.98606271777 222.68489745183345 L 543.7282229965157 223.61715351149783 L 545.4703832752614 225.85456805469235 L 547.212543554007 241.5164698570541 L 548.9547038327526 231.4481044126787 L 550.6968641114983 224.7358607830951 L 552.439024390244 225.29521441889372 L 554.1811846689895 222.87134866376633 L 555.9233449477351 221.5661901802362 L 557.6655052264808 225.4816656308266 L 559.4076655052265 218.95587321317592 L 561.1498257839721 222.3119950279677 L 562.8919860627177 221.19328775637044 L 564.6341463414634 217.65071472964573 L 566.3763066202091 213.9216904909882 L 568.1184668989547 221.00683654443756 L 569.8606271777003 229.0242386575513 L 571.602787456446 219.1423244251088 L 573.3449477351917 218.02361715351154 L 575.0871080139373 229.58359229334994 L 576.8292682926829 232.56681168427596 L 578.5714285714286 233.49906774394034 L 580.3135888501743 230.51584835301432 L 582.0557491289198 230.7022995649472 L 583.7979094076654 229.58359229334994 L 585.5400696864111 234.80422622747048 L 587.2822299651568 238.53325046612807 L 589.0243902439024 244.12678682411436 L 590.766550522648 244.686140459913 L 592.5087108013937 247.29645742697326 L 594.2508710801394 249.34742075823496 L 595.993031358885 263.3312616532007 L 597.7351916376306 264.82287134866374 L 599.4773519163763 265.7551274083281 L 601.219512195122 264.63642013673086 L 602.9616724738676 270.0435052827844 L 604.7038327526133 269.8570540708515 L 606.445993031359 271.5351149782474 L 608.1881533101046 275.07768800497206 L 609.9303135888501 284.77315102548164 L 611.6724738675958 291.85829707893106 L 613.4146341463415 289.43443132380366 L 615.1567944250871 288.12927284027353 L 616.8989547038327 295.4008701056557 L 618.6411149825784 303.6047234307023 L 620.3832752613241 304.72343070229954 L 622.1254355400697 300.4350528278434 L 623.8675958188153 306.9608452454941 L 625.609756097561 308.26600372902425 L 627.3519163763067 317.2156619018024 L 629.0940766550523 318.14791796146676 L 630.8362369337979 318.7072715972654 L 632.5783972125436 324.1143567433188 L 634.3205574912893 322.06339341205717 L 636.0627177700349 328.0298321939093 L 637.8048780487804 331.94530764449974 L 639.5470383275261 332.69111249223124 L 641.2891986062718 336.42013673088877 L 643.0313588850174 338.6575512740833 L 644.773519163763 336.60658794282165 L 646.5156794425087 342.3865755127408 L 648.2578397212544 342.20012430080794 L 650 342.3865755127408 L 650 400 Z" /><text  class="poloto_labels poloto_text poloto_title" alignment-baseline="start" text-anchor="middle" font-size="x-large" x="400" y="37.5" >Total players on 2021-12-06</text><text  class="poloto_labels poloto_text poloto_xname" alignment-baseline="start" text-anchor="middle" font-size="x-large" x="400" y="481.25" >Time</text><text  class="poloto_labels poloto_text poloto_yname" alignment-baseline="start" text-anchor="middle" font-size="x-large" transform="rotate(-90,37.5,250)" x="37.5" y="250" >Count</text><line  class="poloto_axis_lines" stroke="black" x1="150" x2="150" y1="400" y2="405" /><text  class="poloto_tick_labels poloto_text" alignment-baseline="start" text-anchor="middle" x="150" y="430" > 00:00</text><line  class="poloto_axis_lines" stroke="black" x1="266.14401858304296" x2="266.14401858304296" y1="400" y2="405" /><text  class="poloto_tick_labels poloto_text" alignment-baseline="start" text-anchor="middle" x="266.14401858304296" y="430" > 06:00</text><line  class="poloto_axis_lines" stroke="black" x1="382.2880371660859" x2="382.2880371660859" y1="400" y2="405" /><text  class="poloto_tick_labels poloto_text" alignment-baseline="start" text-anchor="middle" x="382.2880371660859" y="430" > 11:00</text><line  class="poloto_axis_lines" stroke="black" x1="498.4320557491289" x2="498.4320557491289" y1="400" y2="405" /><text  class="poloto_tick_labels poloto_text" alignment-baseline="start" text-anchor="middle" x="498.4320557491289" y="430" > 17:00</text><line  class="poloto_axis_lines" stroke="black" x1="614.5760743321719" x2="614.5760743321719" y1="400" y2="405" /><text  class="poloto_tick_labels poloto_text" alignment-baseline="start" text-anchor="middle" x="614.5760743321719" y="430" > 22:00</text><line  class="poloto_axis_lines" stroke="black" x1="150" x2="144" y1="367.93039154754507" y2="367.93039154754507" /><text  class="poloto_tick_labels poloto_text" alignment-baseline="middle" text-anchor="end" x="135" y="367.93039154754507" > 1000</text><line  class="poloto_axis_lines" stroke="black" x1="150" x2="144" y1="274.7047855811063" y2="274.7047855811063" /><text  class="poloto_tick_labels poloto_text" alignment-baseline="middle" text-anchor="end" x="135" y="274.7047855811063" > 1500</text><line  class="poloto_axis_lines" stroke="black" x1="150" x2="144" y1="181.4791796146675" y2="181.4791796146675" /><text  class="poloto_tick_labels poloto_text" alignment-baseline="middle" text-anchor="end" x="135" y="181.4791796146675" > 2000</text><path  stroke="black" fill="none" class="poloto_axis_lines" style="stroke-dasharray:14.518002322880372;stroke-dashoffset:-0;" d=" M 150 400 L 650 400" /><path  stroke="black" fill="none" class="poloto_axis_lines" style="stroke-dasharray:9.322560596643878;stroke-dashoffset:-32.06960845245493;" d=" M 150 400 L 150 100" /></svg>