<svg class="poloto" width="800" height="500" viewBox="0 0 800 500" xmlns="http://www.w3.org/2000/svg"><style>.poloto { stroke-linecap:round; stroke-linejoin:round; font-family: 'Tahoma', sans-serif; background-color: AliceBlue;} .poloto_scatter{stroke-width:7} .poloto_line{stroke-width:2} .poloto_text{fill: black;} .poloto_axis_lines{stroke: black;stroke-width:3;fill:none;stroke-dasharray:none} .poloto0stroke{stroke:  blue;} .poloto1stroke{stroke:  red;} .poloto2stroke{stroke:  green;} .poloto3stroke{stroke:  gold;} .poloto4stroke{stroke:  aqua;} .poloto5stroke{stroke:  lime;} .poloto6stroke{stroke:  orange;} .poloto7stroke{stroke:  chocolate;} .poloto0fill{fill:blue;} .poloto1fill{fill:red;} .poloto2fill{fill:green;} .poloto3fill{fill:gold;} .poloto4fill{fill:aqua;} .poloto5fill{fill:lime;} .poloto6fill{fill:orange;} .poloto7fill{fill:chocolate;}</style><text  class="poloto_text poloto_legend_text" alignment-baseline="middle" text-anchor="start" font-size="large" x="675" y="100" ></text><path  class="poloto_linefill poloto0fill" d=" M 150 400 L 150 367.2696438665913 L 151.74216027874564 366.25211984171847 L 153.4843205574913 365.57377049180326 L 155.22648083623693 365.40418315432447 L 156.96864111498257 368.11758055398525 L 158.71080139372822 368.6263425664217 L 160.45296167247386 364.04748445449405 L 162.1951219512195 366.0825325042397 L 163.93728222996515 369.6438665912945 L 165.6794425087108 373.88355002826455 L 167.42160278745644 376.93612210288296 L 169.16376306620208 376.42736009044654 L 170.90592334494772 377.1057094403618 L 172.64808362369337 381.6845675522894 L 174.390243902439 383.04126625211984 L 176.13240418118465 382.70209157716226 L 177.8745644599303 379.6495195025438 L 179.61672473867597 386.77218767665346 L 181.3588850174216 393.0469191633691 L 183.10104529616726 392.87733182589034 L 184.8432055749129 394.06444318824197 L 186.58536585365854 395.25155455059354 L 188.3275261324042 395.25155455059354 L 190.06968641114983 397.1170152628604 L 191.81184668989548 400 L 193.55400696864112 397.9649519502544 L 195.29616724738676 398.98247597512716 L 197.0383275261324 398.304126625212 L 198.78048780487805 397.28660260033917 L 200.5226480836237 397.62577727529674 L 202.26480836236934 396.77784058790274 L 204.00696864111498 400 L 205.74912891986062 395.92990390050875 L 207.49128919860627 399.6608253250424 L 209.2334494773519 396.09949123798754 L 210.97560975609755 390.8422837761447 L 212.7177700348432 389.4855850763143 L 214.45993031358887 392.87733182589034 L 216.2020905923345 393.3860938383267 L 217.94425087108016 389.31599773883545 L 219.6864111498258 392.19898247597513 L 221.42857142857144 396.9474279253816 L 223.1707317073171 394.57320520067833 L 224.91289198606273 398.6433013001696 L 226.65505226480838 394.23403052572075 L 228.39721254355402 393.2165065008479 L 230.13937282229966 395.4211418880724 L 231.8815331010453 392.3685698134539 L 233.62369337979095 391.5206331260599 L 235.3658536585366 393.5556811758055 L 237.10801393728224 392.5381571509327 L 238.85017421602788 389.14641040135666 L 240.59233449477352 388.8072357263991 L 242.33449477351917 385.0763143018654 L 244.0766550522648 385.0763143018654 L 245.81881533101046 383.04126625211984 L 247.5609756097561 375.5794234030526 L 249.30313588850174 379.98869417750143 L 251.0452961672474 380.83663086489537 L 252.78745644599303 380.4974561899378 L 254.52961672473867 379.31034482758616 L 256.2717770034843 378.1232334652346 L 258.01393728222996 375.9185980780102 L 259.7560975609756 378.1232334652346 L 261.49825783972125 375.5794234030526 L 263.2404181184669 374.56189937817976 L 264.98257839721254 372.86602600339177 L 266.7247386759582 365.57377049180326 L 268.4668989547038 356.41605426794797 L 270.20905923344947 358.2815149802148 L 271.9512195121951 350.9892594686263 L 273.69337979094075 348.6150367439231 L 275.4355400696864 346.74957603165626 L 277.17770034843204 354.72018089316 L 278.91986062717774 350.6500847936687 L 280.6620209059233 351.83719615602035 L 282.404181184669 351.83719615602035 L 284.1463414634146 346.5799886941775 L 285.8885017421603 355.9072922555116 L 287.6306620209059 355.73770491803276 L 289.3728222996516 358.11192764273596 L 291.1149825783972 357.4335782928208 L 292.8571428571429 361.3340870548332 L 294.5993031358885 367.2696438665913 L 296.3414634146342 368.2871678914641 L 298.08362369337976 369.6438665912945 L 299.82578397212546 369.1351045788581 L 301.56794425087105 368.11758055398525 L 303.31010452961675 372.86602600339177 L 305.05226480836234 372.0180893159977 L 306.79442508710804 370.6613906161673 L 308.5365853658536 373.5443753533069 L 310.2787456445993 370.8309779536461 L 312.0209059233449 366.7608818541549 L 313.7630662020906 366.7608818541549 L 315.5052264808362 367.7784058790277 L 317.2473867595819 362.351611079706 L 318.9895470383275 360.31656302996043 L 320.7317073170732 354.72018089316 L 322.4738675958188 349.4629734313171 L 324.2160278745645 349.4629734313171 L 325.9581881533101 349.6325607687959 L 327.70034843205576 344.0361786319954 L 329.4425087108014 341.6619559072923 L 331.18466898954705 333.86093838326735 L 332.9268292682927 333.01300169587336 L 334.66898954703834 330.2996042962125 L 336.411149825784 327.58620689655174 L 338.1533101045296 331.65630299604294 L 339.89547038327527 323.85528547201807 L 341.6376306620209 323.00734878462407 L 343.37979094076655 314.18880723572636 L 345.1219512195122 312.66252119841715 L 346.86411149825784 311.30582249858674 L 348.6062717770035 308.4228377614471 L 350.34843205574913 307.5749010740531 L 352.0905923344948 305.5398530243075 L 353.8327526132404 301.30016958733745 L 355.57491289198606 303.5048049745619 L 357.3170731707317 295.19502543810063 L 359.05923344947735 296.38213680045226 L 360.801393728223 289.4290559638213 L 362.54355400696863 291.46410401356695 L 364.2857142857143 292.312040700961 L 366.0278745644599 286.3764838892029 L 367.77003484320556 281.2888637648389 L 369.5121951219512 279.93216506500846 L 371.25435540069685 280.2713397399661 L 372.9965156794425 275.6924816280384 L 374.73867595818814 276.87959299039005 L 376.4808362369338 268.90898812888634 L 378.2229965156795 269.7569248162804 L 379.96515679442507 263.8213680045223 L 381.70731707317077 256.52911249293385 L 383.44947735191636 253.1373657433578 L 385.19163763066206 254.83323911814585 L 386.93379790940764 247.88015828151498 L 388.67595818815334 248.04974561899377 L 390.41811846689893 243.4708875070661 L 392.16027874564463 241.6054267947993 L 393.9024390243902 235.83945732052007 L 395.6445993031359 231.76936122102882 L 397.3867595818815 232.27812323346524 L 399.1289198606272 227.69926512153756 L 400.8710801393728 221.2549462973431 L 402.6132404181185 219.0503109101187 L 404.3554006968641 213.96269078575466 L 406.0975609756098 202.4307518371961 L 407.8397212543554 199.3781797625777 L 409.58188153310107 202.4307518371961 L 411.3240418118467 202.4307518371961 L 413.06620209059236 202.76992651215375 L 414.808362369338 204.12662521198416 L 416.55052264808364 197.1735443753533 L 418.2926829268293 189.88128886376484 L 420.03484320557493 197.34313171283208 L 421.7770034843206 190.55963821368005 L 423.5191637630662 185.81119276427358 L 425.26132404181186 179.0276992651215 L 427.0034843205575 180.72357263990955 L 428.74564459930315 181.91068400226112 L 430.4878048780488 181.23233465234597 L 432.22996515679444 178.8581119276427 L 433.9721254355401 168.85245901639342 L 435.7142857142857 175.6359525155455 L 437.45644599303137 173.43131712832104 L 439.198606271777 156.3029960429621 L 440.94076655052265 154.94629734313168 L 442.6829268292683 143.75353306953082 L 444.42508710801394 149.01074053137364 L 446.1672473867596 149.01074053137364 L 447.9094076655052 144.43188241944597 L 449.65156794425087 148.50197851893722 L 451.3937282229965 141.88807235726398 L 453.13588850174216 136.97003957037873 L 454.8780487804878 133.2391181458451 L 456.62020905923345 135.9525155455059 L 458.3623693379791 127.30356133408702 L 460.10452961672473 126.96438665912945 L 461.8466898954704 123.5726399095534 L 463.588850174216 123.23346523459583 L 465.33101045296166 118.65460712266815 L 467.0731707317073 114.07574901074054 L 468.81533101045295 114.92368569813453 L 470.5574912891986 118.31543244771058 L 472.29965156794424 112.71905031091012 L 474.0418118466899 102.88298473713962 L 475.7839721254355 100 L 477.52613240418117 106.44431882419445 L 479.2682926829268 102.54381006218199 L 481.01045296167246 107.12266817410966 L 482.7526132404181 107.46184284906724 L 484.49477351916374 113.56698699830412 L 486.2369337979094 126.96438665912945 L 487.97909407665503 134.2566421707179 L 489.7212543554007 137.64838892029394 L 491.4634146341463 145.95816845675523 L 493.20557491289196 157.49010740531372 L 494.9477351916376 159.69474279253814 L 496.68989547038325 181.91068400226112 L 498.4320557491289 172.24420576596947 L 500.17421602787454 180.89315997738834 L 501.91637630662024 191.91633691351046 L 503.6585365853659 190.89881288863762 L 505.4006968641115 194.79932165065009 L 507.14285714285717 194.46014697569245 L 508.8850174216028 195.13849632560766 L 510.62717770034845 202.60033917467496 L 512.3693379790941 207.85754663651778 L 514.1114982578397 200.2261164499717 L 515.8536585365854 207.00960994912379 L 517.5958188153311 210.40135669869983 L 519.3379790940767 209.2142453363482 L 521.0801393728223 210.23176936122104 L 522.822299651568 207.34878462408136 L 524.5644599303137 210.7405313736574 L 526.3066202090592 209.0446579988694 L 528.0487804878048 209.8925946862634 L 529.7909407665505 212.77557942340303 L 531.5331010452962 216.33691351045786 L 533.2752613240418 219.8982475975127 L 535.0174216027874 221.4245336348219 L 536.7595818815331 227.52967778405878 L 538.5017421602788 231.76936122102882 L 540.2439024390244 227.86885245901635 L 541.98606271777 232.7868852459016 L 543.7282229965157 231.0910118711136 L 545.4703832752614 228.54720180893156 L 547.212543554007 229.5647258338044 L 548.9547038327526 235.83945732052007 L 550.6968641114983 234.82193329564723 L 552.439024390244 236.68739400791407 L 554.1811846689895 228.54720180893156 L 555.9233449477351 228.54720180893156 L 557.6655052264808 229.05596382136798 L 559.4076655052265 230.4126625211984 L 561.1498257839721 231.0910118711136 L 562.8919860627177 234.99152063312607 L 564.6341463414634 229.5647258338044 L 566.3763066202091 237.02656868287164 L 568.1184668989547 237.8745053702657 L 569.8606271777003 238.5528547201809 L 571.602787456446 240.9270774448841 L 573.3449477351917 240.75749010740532 L 575.0871080139373 247.37139626907856 L 576.8292682926829 239.90955342001126 L 578.5714285714286 235.66986998304122 L 580.3135888501743 245.84511023176935 L 582.0557491289198 251.7806670435274 L 583.7979094076654 254.32447710570943 L 585.5400696864111 256.1899378179762 L 587.2822299651568 256.8682871678914 L 589.0243902439024 249.57603165630297 L 590.766550522648 251.10231769361218 L 592.5087108013937 253.64612775579423 L 594.2508710801394 266.53476540418313 L 595.993031358885 266.87394007914077 L 597.7351916376306 268.06105144149234 L 599.4773519163763 270.26568682871675 L 601.219512195122 272.3007348784624 L 602.9616724738676 267.72187676653476 L 604.7038327526133 272.9790842283776 L 606.445993031359 280.2713397399661 L 608.1881533101046 288.07235726399097 L 609.9303135888501 290.10740531373654 L 611.6724738675958 297.2300734878462 L 613.4146341463415 293.6687394007914 L 615.1567944250871 300.28264556246467 L 616.8989547038327 305.7094403617863 L 618.6411149825784 304.5223289994347 L 620.3832752613241 311.13623516110795 L 622.1254355400697 314.527981910684 L 623.8675958188153 324.3640474844545 L 625.609756097561 327.75579423403053 L 627.3519163763067 344.7145279819107 L 629.0940766550523 343.3578292820803 L 630.8362369337979 349.1237987563595 L 632.5783972125436 339.7964951950254 L 634.3205574912893 346.0712266817411 L 636.0627177700349 345.5624646693047 L 637.8048780487804 352.5155455059355 L 639.5470383275261 358.62068965517244 L 641.2891986062718 364.3866591294517 L 643.0313588850174 363.02996042962127 L 644.773519163763 366.25211984171847 L 646.5156794425087 362.1820237422272 L 648.2578397212544 362.69078575466364 L 650 366.9304691916337 L 650 400 Z" /><text  class="poloto_labels poloto_text poloto_title" alignment-baseline="start" text-anchor="middle" font-size="x-large" x="400" y="37.5" >Total players on 2021-12-20</text><text  class="poloto_labels poloto_text poloto_xname" alignment-baseline="start" text-anchor="middle" font-size="x-large" x="400" y="481.25" >Time</text><text  class="poloto_labels poloto_text poloto_yname" alignment-baseline="start" text-anchor="middle" font-size="x-large" transform="rotate(-90,37.5,250)" x="37.5" y="250" >Count</text><line  class="poloto_axis_lines" stroke="black" x1="150" x2="150" y1="400" y2="405" /><text  class="poloto_tick_labels poloto_text" alignment-baseline="start" text-anchor="middle" x="150" y="430" > 00:00</text><line  class="poloto_axis_lines" stroke="black" x1="266.14401858304296" x2="266.14401858304296" y1="400" y2="405" /><text  class="poloto_tick_labels poloto_text" alignment-baseline="start" text-anchor="middle" x="266.14401858304296" y="430" > 06:00</text><line  class="poloto_axis_lines" stroke="black" x1="382.2880371660859" x2="382.2880371660859" y1="400" y2="405" /><text  class="poloto_tick_labels poloto_text" alignment-baseline="start" text-anchor="middle" x="382.2880371660859" y="430" > 11:00</text><line  class="poloto_axis_lines" stroke="black" x1="498.4320557491289" x2="498.4320557491289" y1="400" y2="405" /><text  class="poloto_tick_labels poloto_text" alignment-baseline="start" text-anchor="middle" x="498.4320557491289" y="430" > 17:00</text><line  class="poloto_axis_lines" stroke="black" x1="614.5760743321719" x2="614.5760743321719" y1="400" y2="405" /><text  class="poloto_tick_labels poloto_text" alignment-baseline="start" text-anchor="middle" x="614.5760743321719" y="430" > 22:00</text><line  class="poloto_axis_lines" stroke="black" x1="150" x2="144" y1="379.81910684002264" y2="379.81910684002264" /><text  class="poloto_tick_labels poloto_text" alignment-baseline="middle" text-anchor="end" x="135" y="379.81910684002264" > 1000</text><line  class="poloto_axis_lines" stroke="black" x1="150" x2="144" y1="295.02543810062184" y2="295.02543810062184" /><text  class="poloto_tick_labels poloto_text" alignment-baseline="middle" text-anchor="end" x="135" y="295.02543810062184" > 1500</text><line  class="poloto_axis_lines" stroke="black" x1="150" x2="144" y1="210.23176936122104" y2="210.23176936122104" /><text  class="poloto_tick_labels poloto_text" alignment-baseline="middle" text-anchor="end" x="135" y="210.23176936122104" > 2000</text><line  class="poloto_axis_lines" stroke="black" x1="150" x2="144" y1="125.43810062182024" y2="125.43810062182024" /><text  class="poloto_tick_labels poloto_text" alignment-baseline="middle" text-anchor="end" x="135" y="125.43810062182024" > 2500</text><path  stroke="black" fill="none" class="poloto_axis_lines" style="stroke-dasharray:14.518002322880372;stroke-dashoffset:-0;" d=" M 150 400 L 650 400" /><path  stroke="black" fill="none" class="poloto_axis_lines" style="stroke-dasharray:8.479366873940078;stroke-dashoffset:-20.180893159977387;" d=" M 150 400 L 150 100" /></svg>