<svg class="poloto" width="800" height="500" viewBox="0 0 800 500" xmlns="http://www.w3.org/2000/svg"><style>.poloto { stroke-linecap:round; stroke-linejoin:round; font-family: 'Tahoma', sans-serif; background-color: AliceBlue;} .poloto_scatter{stroke-width:7} .poloto_line{stroke-width:2} .poloto_text{fill: black;} .poloto_axis_lines{stroke: black;stroke-width:3;fill:none;stroke-dasharray:none} .poloto0stroke{stroke:  blue;} .poloto1stroke{stroke:  red;} .poloto2stroke{stroke:  green;} .poloto3stroke{stroke:  gold;} .poloto4stroke{stroke:  aqua;} .poloto5stroke{stroke:  lime;} .poloto6stroke{stroke:  orange;} .poloto7stroke{stroke:  chocolate;} .poloto0fill{fill:blue;} .poloto1fill{fill:red;} .poloto2fill{fill:green;} .poloto3fill{fill:gold;} .poloto4fill{fill:aqua;} .poloto5fill{fill:lime;} .poloto6fill{fill:orange;} .poloto7fill{fill:chocolate;}</style><text  class="poloto_text poloto_legend_text" alignment-baseline="middle" text-anchor="start" font-size="large" x="675" y="100" ></text><path  class="poloto_linefill poloto0fill" d=" M 150 400 L 150 343.54587869362365 L 151.74216027874564 348.6780715396579 L 153.4843205574913 353.6547433903577 L 155.22648083623693 356.298600311042 L 156.96864111498257 355.2099533437014 L 158.71080139372822 358.3203732503888 L 160.45296167247386 362.36391912908243 L 162.1951219512195 360.49766718507 L 163.93728222996515 357.8538102643857 L 165.6794425087108 362.36391912908243 L 167.42160278745644 360.9642301710731 L 169.16376306620208 366.2519440124417 L 170.90592334494772 373.71695178849143 L 172.64808362369337 378.0715396578538 L 174.390243902439 379.31570762052877 L 176.13240418118465 376.82737169517884 L 177.8745644599303 380.55987558320373 L 179.61672473867597 382.58164852255055 L 181.3588850174216 384.2923794712286 L 183.10104529616726 383.8258164852255 L 184.8432055749129 380.8709175738725 L 186.58536585365854 387.0917573872473 L 188.3275261324042 385.3810264385692 L 190.06968641114983 385.84758942457233 L 191.81184668989548 389.5800933125972 L 193.55400696864112 393.7791601866252 L 195.29616724738676 397.20062208398133 L 197.0383275261324 395.48989113530325 L 198.78048780487805 397.20062208398133 L 200.5226480836237 400 L 202.26480836236934 398.2892690513219 L 204.00696864111498 395.800933125972 L 205.74912891986062 393.31259720062206 L 207.49128919860627 389.5800933125972 L 209.2334494773519 395.02332814930014 L 210.97560975609755 396.7340590979782 L 212.7177700348432 393.0015552099533 L 214.45993031358887 389.5800933125972 L 216.2020905923345 390.51321928460345 L 217.94425087108016 388.0248833592535 L 219.6864111498258 390.66874027993777 L 221.42857142857144 391.601866251944 L 223.1707317073171 393.7791601866252 L 224.91289198606273 395.1788491446345 L 226.65505226480838 393.31259720062206 L 228.39721254355402 389.42457231726286 L 230.13937282229966 391.29082426127525 L 231.8815331010453 385.69206842923796 L 233.62369337979095 387.7138413685848 L 235.3658536585366 391.29082426127525 L 237.10801393728224 385.22550544323485 L 238.85017421602788 383.5147744945568 L 240.59233449477352 381.49300155520996 L 242.33449477351917 383.9813374805599 L 244.0766550522648 386.78071539657856 L 245.81881533101046 387.0917573872473 L 247.5609756097561 387.40279937791604 L 249.30313588850174 388.95800933125975 L 251.0452961672474 390.2021772939347 L 252.78745644599303 393.31259720062206 L 254.52961672473867 397.51166407465007 L 256.2717770034843 395.48989113530325 L 258.01393728222996 396.2674961119751 L 259.7560975609756 395.3343701399689 L 261.49825783972125 396.8895800933126 L 263.2404181184669 398.9113530326594 L 264.98257839721254 394.55676516329703 L 266.7247386759582 396.8895800933126 L 268.4668989547038 396.8895800933126 L 270.20905923344947 396.2674961119751 L 271.9512195121951 394.2457231726283 L 273.69337979094075 393.46811819595644 L 275.4355400696864 391.91290824261273 L 277.17770034843204 387.5583203732504 L 278.91986062717774 390.3576982892691 L 280.6620209059233 387.24727838258167 L 282.404181184669 385.5365474339036 L 284.1463414634146 379.6267496111975 L 285.8885017421603 376.20528771384136 L 287.6306620209059 373.71695178849143 L 289.3728222996516 367.49611197511666 L 291.1149825783972 365.7853810264386 L 292.8571428571429 362.83048211508554 L 294.5993031358885 361.4307931570762 L 296.3414634146342 366.2519440124417 L 298.08362369337976 364.85225505443236 L 299.82578397212546 363.1415241057543 L 301.56794425087105 364.5412130637636 L 303.31010452961675 366.2519440124417 L 305.05226480836234 369.67340590979785 L 306.79442508710804 367.02954898911355 L 308.5365853658536 367.65163297045103 L 310.2787456445993 362.36391912908243 L 312.0209059233449 360.3421461897356 L 313.7630662020906 365.00777604976673 L 315.5052264808362 367.9626749611198 L 317.2473867595819 365.3188180404355 L 318.9895470383275 367.1850699844479 L 320.7317073170732 367.02954898911355 L 322.4738675958188 368.2737169517885 L 324.2160278745645 365.00777604976673 L 325.9581881533101 362.0528771384137 L 327.70034843205576 361.74183514774495 L 329.4425087108014 366.56298600311044 L 331.18466898954705 365.1632970451011 L 332.9268292682927 362.9860031104199 L 334.66898954703834 363.76360808709177 L 336.411149825784 360.3421461897356 L 338.1533101045296 362.0528771384137 L 339.89547038327527 356.92068429237946 L 341.6376306620209 356.92068429237946 L 343.37979094076655 360.49766718507 L 345.1219512195122 344.01244167962676 L 346.86411149825784 349.6111975116641 L 348.6062717770035 352.099533437014 L 350.34843205574913 348.0559875583204 L 352.0905923344948 346.9673405909798 L 353.8327526132404 341.36858475894246 L 355.57491289198606 339.0357698289269 L 357.3170731707317 334.6811819595645 L 359.05923344947735 337.79160186625194 L 360.801393728223 328.149300155521 L 362.54355400696863 325.34992223950235 L 364.2857142857143 324.88335925349924 L 366.0278745644599 316.95178849144634 L 367.77003484320556 313.3748055987558 L 369.5121951219512 318.1959564541213 L 371.25435540069685 302.48833592534993 L 372.9965156794425 302.48833592534993 L 374.73867595818814 306.8429237947123 L 376.4808362369338 295.1788491446345 L 378.2229965156795 297.20062208398133 L 379.96515679442507 297.04510108864696 L 381.70731707317077 292.5349922239502 L 383.44947735191636 288.0248833592535 L 385.19163763066206 282.2706065318818 L 386.93379790940764 282.8926905132193 L 388.67595818815334 279.31570762052877 L 390.41811846689893 275.4276827371695 L 392.16027874564463 270.13996889580096 L 393.9024390243902 275.4276827371695 L 395.6445993031359 280.40435458786936 L 397.3867595818815 277.6049766718507 L 399.1289198606272 266.7185069984448 L 400.8710801393728 268.58475894245726 L 402.6132404181185 265.7853810264386 L 404.3554006968641 260.3421461897356 L 406.0975609756098 258.47589424572317 L 407.8397212543554 257.8538102643857 L 409.58188153310107 260.8087091757387 L 411.3240418118467 256.298600311042 L 413.06620209059236 248.36702954898914 L 414.808362369338 242.30171073094868 L 416.55052264808364 239.19129082426127 L 418.2926829268293 237.9471228615863 L 420.03484320557493 240.43545878693624 L 421.7770034843206 237.79160186625194 L 423.5191637630662 233.90357698289273 L 425.26132404181186 223.950233281493 L 427.0034843205575 220.06220839813375 L 428.74564459930315 215.08553654743395 L 430.4878048780488 210.26438569206846 L 432.22996515679444 208.70917573872475 L 433.9721254355401 214.61897356143083 L 435.7142857142857 208.55365474339038 L 437.45644599303137 204.04354587869364 L 439.198606271777 190.04665629860034 L 440.94076655052265 191.13530326594093 L 442.6829268292683 184.75894245723174 L 444.42508710801394 192.06842923794716 L 446.1672473867596 184.13685847589426 L 447.9094076655052 181.3374805598756 L 449.65156794425087 173.87247278382586 L 451.3937282229965 168.58475894245726 L 453.13588850174216 170.60653188180407 L 454.8780487804878 165.31881804043547 L 456.62020905923345 153.18818040435463 L 458.3623693379791 143.07931570762054 L 460.10452961672473 141.52410575427683 L 461.8466898954704 137.79160186625194 L 463.588850174216 136.7029548989114 L 465.33101045296166 135.45878693623644 L 467.0731707317073 130.48211508553658 L 468.81533101045295 124.10575427682738 L 470.5574912891986 122.08398133748057 L 472.29965156794424 111.50855365474342 L 474.0418118466899 107.15396578538105 L 475.7839721254355 111.50855365474342 L 477.52613240418117 113.68584758942461 L 479.2682926829268 111.6640746500778 L 481.01045296167246 121.46189735614308 L 482.7526132404181 112.44167962674965 L 484.49477351916374 107.77604976671853 L 486.2369337979094 108.08709175738727 L 487.97909407665503 102.17729393468119 L 489.7212543554007 102.02177293934682 L 491.4634146341463 103.7325038880249 L 493.20557491289196 100 L 494.9477351916376 111.04199066874031 L 496.68989547038325 108.86469673405912 L 498.4320557491289 108.55365474339038 L 500.17421602787454 110.88646967340594 L 501.91637630662024 114.61897356143083 L 503.6585365853659 121.15085536547434 L 505.4006968641115 145.72317262830484 L 507.14285714285717 143.07931570762054 L 508.8850174216028 151.01088646967344 L 510.62717770034845 158.63141524105754 L 512.3693379790941 165.78538102643859 L 514.1114982578397 160.80870917573873 L 515.8536585365854 162.36391912908243 L 517.5958188153311 170.91757387247281 L 519.3379790940767 169.51788491446348 L 521.0801393728223 162.5194401244168 L 522.822299651568 171.07309486780719 L 524.5644599303137 163.6080870917574 L 526.3066202090592 162.98600311041992 L 528.0487804878048 174.80559875583208 L 529.7909407665505 169.82892690513222 L 531.5331010452962 180.87091757387248 L 533.2752613240418 182.11508553654744 L 535.0174216027874 185.84758942457233 L 536.7595818815331 191.2908242612753 L 538.5017421602788 188.646967340591 L 540.2439024390244 194.71228615863146 L 541.98606271777 195.17884914463457 L 543.7282229965157 199.68895800933126 L 545.4703832752614 211.0419906687403 L 547.212543554007 207.62052877138416 L 548.9547038327526 213.06376360808713 L 550.6968641114983 215.55209953343706 L 552.439024390244 216.95178849144634 L 554.1811846689895 217.7293934681182 L 555.9233449477351 228.7713841368585 L 557.6655052264808 226.1275272161742 L 559.4076655052265 226.5940902021773 L 561.1498257839721 230.63763608087095 L 562.8919860627177 236.23639191290823 L 564.6341463414634 231.57076205287717 L 566.3763066202091 232.81493001555214 L 568.1184668989547 227.2161741835148 L 569.8606271777003 227.2161741835148 L 571.602787456446 232.19284603421465 L 573.3449477351917 230.63763608087095 L 575.0871080139373 227.83825816485228 L 576.8292682926829 239.19129082426127 L 578.5714285714286 246.9673405909798 L 580.3135888501743 238.5692068429238 L 582.0557491289198 245.25660964230173 L 583.7979094076654 244.7900466562986 L 585.5400696864111 245.56765163297047 L 587.2822299651568 244.7900466562986 L 589.0243902439024 250.6998444790047 L 590.766550522648 247.90046656298603 L 592.5087108013937 256.14307931570767 L 594.2508710801394 255.9875583203733 L 595.993031358885 256.7651632970451 L 597.7351916376306 254.58786936236396 L 599.4773519163763 255.3654743390358 L 601.219512195122 259.72006220839813 L 602.9616724738676 264.696734059098 L 604.7038327526133 270.29548989113533 L 606.445993031359 269.3623639191291 L 608.1881533101046 271.6951788491446 L 609.9303135888501 273.09486780715395 L 611.6724738675958 277.4494556765163 L 613.4146341463415 281.95956454121307 L 615.1567944250871 287.40279937791604 L 616.8989547038327 295.02332814930014 L 618.6411149825784 296.2674961119751 L 620.3832752613241 292.37947122861584 L 622.1254355400697 292.5349922239502 L 623.8675958188153 294.55676516329703 L 625.609756097561 296.7340590979782 L 627.3519163763067 299.22239502332815 L 629.0940766550523 306.2208398133748 L 630.8362369337979 311.8195956454121 L 632.5783972125436 315.552099533437 L 634.3205574912893 322.3950233281493 L 636.0627177700349 327.99377916018665 L 637.8048780487804 329.8600311041991 L 639.5470383275261 331.88180404354586 L 641.2891986062718 338.4136858475894 L 643.0313588850174 342.45723172628306 L 644.773519163763 343.54587869362365 L 646.5156794425087 346.81181959564543 L 648.2578397212544 347.900466562986 L 650 349.6111975116641 L 650 400 Z" /><text  class="poloto_labels poloto_text poloto_title" alignment-baseline="start" text-anchor="middle" font-size="x-large" x="400" y="37.5" >Total players on 2021-10-25</text><text  class="poloto_labels poloto_text poloto_xname" alignment-baseline="start" text-anchor="middle" font-size="x-large" x="400" y="481.25" >Time</text><text  class="poloto_labels poloto_text poloto_yname" alignment-baseline="start" text-anchor="middle" font-size="x-large" transform="rotate(-90,37.5,250)" x="37.5" y="250" >Count</text><line  class="poloto_axis_lines" stroke="black" x1="150" x2="150" y1="400" y2="405" /><text  class="poloto_tick_labels poloto_text" alignment-baseline="start" text-anchor="middle" x="150" y="430" > 00:00:00</text><line  class="poloto_axis_lines" stroke="black" x1="266.14401858304296" x2="266.14401858304296" y1="400" y2="405" /><text  class="poloto_tick_labels poloto_text" alignment-baseline="start" text-anchor="middle" x="266.14401858304296" y="430" > 05:33:20</text><line  class="poloto_axis_lines" stroke="black" x1="382.2880371660859" x2="382.2880371660859" y1="400" y2="405" /><text  class="poloto_tick_labels poloto_text" alignment-baseline="start" text-anchor="middle" x="382.2880371660859" y="430" > 11:06:40</text><line  class="poloto_axis_lines" stroke="black" x1="498.4320557491289" x2="498.4320557491289" y1="400" y2="405" /><text  class="poloto_tick_labels poloto_text" alignment-baseline="start" text-anchor="middle" x="498.4320557491289" y="430" > 16:40:00</text><line  class="poloto_axis_lines" stroke="black" x1="614.5760743321719" x2="614.5760743321719" y1="400" y2="405" /><text  class="poloto_tick_labels poloto_text" alignment-baseline="start" text-anchor="middle" x="614.5760743321719" y="430" > 22:13:20</text><line  class="poloto_axis_lines" stroke="black" x1="150" x2="144" y1="369.3623639191291" y2="369.3623639191291" /><text  class="poloto_tick_labels poloto_text" alignment-baseline="middle" text-anchor="end" x="135" y="369.3623639191291" > 1000</text><line  class="poloto_axis_lines" stroke="black" x1="150" x2="144" y1="291.601866251944" y2="291.601866251944" /><text  class="poloto_tick_labels poloto_text" alignment-baseline="middle" text-anchor="end" x="135" y="291.601866251944" > 1500</text><line  class="poloto_axis_lines" stroke="black" x1="150" x2="144" y1="213.84136858475898" y2="213.84136858475898" /><text  class="poloto_tick_labels poloto_text" alignment-baseline="middle" text-anchor="end" x="135" y="213.84136858475898" > 2000</text><line  class="poloto_axis_lines" stroke="black" x1="150" x2="144" y1="136.08087091757392" y2="136.08087091757392" /><text  class="poloto_tick_labels poloto_text" alignment-baseline="middle" text-anchor="end" x="135" y="136.08087091757392" > 2500</text><path  stroke="black" fill="none" class="poloto_axis_lines" style="stroke-dasharray:14.518002322880372;stroke-dashoffset:-0;" d=" M 150 400 L 650 400" /><path  stroke="black" fill="none" class="poloto_axis_lines" style="stroke-dasharray:7.776049766718506;stroke-dashoffset:-30.637636080870905;" d=" M 150 400 L 150 100" /></svg>