<svg class="poloto" width="800" height="500" viewBox="0 0 800 500" xmlns="http://www.w3.org/2000/svg"><style>.poloto { stroke-linecap:round; stroke-linejoin:round; font-family: 'Tahoma', sans-serif; background-color: AliceBlue;} .poloto_scatter{stroke-width:7} .poloto_line{stroke-width:2} .poloto_text{fill: black;} .poloto_axis_lines{stroke: black;stroke-width:3;fill:none;stroke-dasharray:none} .poloto0stroke{stroke:  blue;} .poloto1stroke{stroke:  red;} .poloto2stroke{stroke:  green;} .poloto3stroke{stroke:  gold;} .poloto4stroke{stroke:  aqua;} .poloto5stroke{stroke:  lime;} .poloto6stroke{stroke:  orange;} .poloto7stroke{stroke:  chocolate;} .poloto0fill{fill:blue;} .poloto1fill{fill:red;} .poloto2fill{fill:green;} .poloto3fill{fill:gold;} .poloto4fill{fill:aqua;} .poloto5fill{fill:lime;} .poloto6fill{fill:orange;} .poloto7fill{fill:chocolate;}</style><text  class="poloto_text poloto_legend_text" alignment-baseline="middle" text-anchor="start" font-size="large" x="675" y="100" ></text><path  class="poloto_linefill poloto0fill" d=" M 150 400 L 150 363.2903981264637 L 151.74216027874564 357.8454332552693 L 153.4843205574913 363.99297423887583 L 155.22648083623693 364.69555035128803 L 156.96864111498257 364.344262295082 L 158.71080139372822 362.2365339578454 L 160.45296167247386 361.0070257611241 L 162.1951219512195 365.92505854800936 L 163.93728222996515 368.384074941452 L 165.6794425087108 370.31615925058543 L 167.42160278745644 374.88290398126463 L 169.16376306620208 379.8009367681499 L 170.90592334494772 369.9648711943794 L 172.64808362369337 365.39812646370024 L 174.390243902439 369.43793911007026 L 176.13240418118465 372.7751756440281 L 177.8745644599303 384.36768149882903 L 179.61672473867597 388.7587822014051 L 181.3588850174216 391.39344262295083 L 183.10104529616726 391.92037470725995 L 184.8432055749129 391.92037470725995 L 186.58536585365854 386.4754098360655 L 188.3275261324042 391.56908665105385 L 190.06968641114983 396.6627634660422 L 191.81184668989548 400 L 193.55400696864112 394.3793911007026 L 195.29616724738676 394.73067915690865 L 197.0383275261324 392.4473067915691 L 198.78048780487805 385.07025761124123 L 200.5226480836237 385.07025761124123 L 202.26480836236934 384.0163934426229 L 204.00696864111498 382.08430913348946 L 205.74912891986062 382.4355971896955 L 207.49128919860627 380.85480093676813 L 209.2334494773519 379.4496487119438 L 210.97560975609755 381.0304449648712 L 212.7177700348432 378.04449648711943 L 214.45993031358887 385.07025761124123 L 216.2020905923345 387.88056206088993 L 217.94425087108016 390.3395784543326 L 219.6864111498258 385.24590163934425 L 221.42857142857144 384.5433255269321 L 223.1707317073171 386.8266978922717 L 224.91289198606273 384.0163934426229 L 226.65505226480838 384.71896955503513 L 228.39721254355402 382.4355971896955 L 230.13937282229966 380.6791569086651 L 231.8815331010453 371.72131147540983 L 233.62369337979095 374.7072599531616 L 235.3658536585366 371.72131147540983 L 237.10801393728224 378.2201405152225 L 238.85017421602788 375.23419203747073 L 240.59233449477352 372.24824355971896 L 242.33449477351917 372.95081967213116 L 244.0766550522648 370.6674473067916 L 245.81881533101046 371.37002341920373 L 247.5609756097561 362.0608899297424 L 249.30313588850174 356.26463700234194 L 251.0452961672474 351.34660421545664 L 252.78745644599303 356.4402810304449 L 254.53542392566783 350.9953161592506 L 256.2717770034843 346.42857142857144 L 258.01393728222996 351.17096018735367 L 259.7560975609756 345.02341920374704 L 261.49825783972125 348.1850117096019 L 263.2404181184669 348.36065573770486 L 264.9883855981417 352.2248243559719 L 266.7247386759582 356.79156908665107 L 268.4668989547038 362.2365339578454 L 270.20905923344947 357.8454332552693 L 271.9512195121951 362.76346604215456 L 273.69337979094075 363.2903981264637 L 275.4355400696864 371.01873536299763 L 277.17770034843204 369.2622950819672 L 278.9198606271777 368.03278688524586 L 280.6620209059233 362.58782201405154 L 282.40418118466897 370.6674473067916 L 284.1463414634146 366.10070257611244 L 285.88850174216026 360.655737704918 L 287.6306620209059 361.3583138173302 L 289.37282229965155 358.19672131147536 L 291.1149825783972 350.2927400468384 L 292.85714285714283 353.27868852459017 L 294.5993031358885 347.13114754098365 L 296.3414634146342 346.25292740046837 L 298.08362369337976 349.4145199063232 L 299.82578397212546 337.8220140515223 L 301.56794425087105 333.07962529274005 L 303.31010452961675 333.60655737704917 L 305.05226480836234 339.0515222482436 L 306.79442508710804 334.48477751756434 L 308.5365853658536 336.943793911007 L 310.2787456445993 331.3231850117096 L 312.0209059233449 325.87822014051517 L 313.7630662020906 319.90632318501173 L 315.5052264808362 328.3372365339578 L 317.2473867595819 322.1896955503513 L 318.9895470383275 324.8243559718969 L 320.7317073170732 322.1896955503513 L 322.4738675958188 321.4871194379391 L 324.2160278745645 315.1639344262295 L 325.95818815331006 319.73067915690865 L 327.70034843205576 315.6908665105386 L 329.44250871080135 310.2459016393442 L 331.18466898954705 303.74707259953163 L 332.92682926829264 304.97658079625296 L 334.66898954703834 299.35597189695545 L 336.4111498257839 308.3138173302108 L 338.1533101045296 309.19203747072595 L 339.8954703832752 309.5433255269321 L 341.6376306620209 312.70491803278685 L 343.3797909407665 309.89461358313815 L 345.1219512195122 305.67915690866505 L 346.86411149825784 297.24824355971896 L 348.6062717770035 293.73536299765806 L 350.34843205574913 290.5737704918033 L 352.0905923344948 295.31615925058543 L 353.8327526132404 286.88524590163934 L 355.57491289198606 287.7634660421545 L 357.3170731707317 276.87353629976576 L 359.05923344947735 281.08899297423886 L 360.801393728223 266.6861826697892 L 362.54355400696863 270.3747072599532 L 364.2857142857143 265.983606557377 L 366.0278745644599 268.9695550351288 L 367.77003484320556 265.10538641686185 L 369.51800232288036 257.0257611241218 L 371.25435540069685 252.98594847775175 L 372.9965156794425 254.3911007025761 L 374.73867595818814 255.26932084309132 L 376.4808362369338 254.91803278688522 L 378.2229965156794 248.94613583138172 L 379.96515679442507 244.2037470725995 L 381.7073170731707 239.98829039812645 L 383.44947735191636 238.231850117096 L 385.191637630662 238.5831381733021 L 386.93379790940764 232.96252927400465 L 388.6759581881533 217.68149882903978 L 390.41811846689893 213.81733021077284 L 392.1602787456446 214.16861826697888 L 393.9024390243902 212.4121779859485 L 395.6445993031359 201.8735362997658 L 397.3867595818815 221.89695550351288 L 399.1289198606272 206.44028103044494 L 400.8710801393728 213.11475409836063 L 402.6132404181185 213.81733021077284 L 404.3554006968641 211.8852459016393 L 406.0975609756097 200.46838407494144 L 407.83972125435537 202.92740046838404 L 409.581881533101 195.02341920374707 L 411.32404181184666 201.8735362997658 L 413.0662020905923 206.44028103044494 L 414.80836236933794 197.48243559718966 L 416.5505226480836 200.29274004683842 L 418.29268292682923 194.67213114754097 L 420.0348432055749 190.63231850117094 L 421.7828106852497 198.3606557377049 L 423.5191637630662 195.02341920374707 L 425.26132404181186 200.11709601873534 L 427.0034843205575 198.887587822014 L 428.74564459930315 203.10304449648712 L 430.4878048780488 190.45667447306792 L 432.22996515679444 203.45433255269322 L 433.9721254355401 184.30913348946135 L 435.7142857142857 182.5526932084309 L 437.45644599303137 190.45667447306792 L 439.198606271777 178.86416861826697 L 440.94076655052265 163.9344262295082 L 442.6829268292683 158.31381733021075 L 444.42508710801394 156.9086651053864 L 446.1672473867596 153.3957845433255 L 447.9094076655052 156.5573770491803 L 449.65156794425087 152.69320843091336 L 451.3937282229965 158.31381733021075 L 453.13588850174216 157.43559718969553 L 454.8780487804878 147.24824355971893 L 456.62020905923345 139.8711943793911 L 458.3623693379791 144.2622950819672 L 460.10452961672473 138.11475409836066 L 461.8466898954704 127.04918032786884 L 463.588850174216 121.42857142857144 L 465.33101045296166 129.3325526932084 L 467.0731707317073 129.68384074941446 L 468.81533101045295 124.59016393442619 L 470.5574912891986 113.52459016393436 L 472.29965156794424 100.35128805620604 L 474.0418118466899 107.37704918032784 L 475.7839721254355 100 L 477.52613240418117 104.03981264637002 L 479.2682926829268 114.75409836065569 L 481.01045296167246 110.01170960187358 L 482.7526132404181 107.72833723653389 L 484.5005807200929 106.3231850117096 L 486.2369337979094 108.25526932084313 L 487.97909407665503 115.45667447306789 L 489.7212543554007 115.10538641686185 L 491.4634146341463 113.52459016393436 L 493.20557491289196 118.96955503512879 L 494.9477351916376 118.61826697892275 L 496.68989547038325 123.00936768149882 L 498.4320557491289 120.72599531615924 L 500.17421602787454 119.14519906323187 L 501.9163763066202 127.92740046838401 L 503.6585365853658 124.41451990632322 L 505.40069686411147 135.8313817330211 L 507.1428571428571 145.84309133489458 L 508.88501742160275 140.92505854800936 L 510.6271777003484 146.19437939110068 L 512.3693379790941 148.47775175644026 L 514.1114982578397 142.8571428571429 L 515.8536585365853 146.37002341920376 L 517.595818815331 151.99063231850116 L 519.3379790940767 156.03044496487118 L 521.0801393728223 157.96252927400465 L 522.822299651568 166.56908665105382 L 524.5644599303137 172.3653395784543 L 526.3124274099885 174.12177985948475 L 528.0487804878048 189.40281030444962 L 529.7909407665505 191.51053864168617 L 531.5331010452962 189.9297423887588 L 533.2752613240418 199.4145199063232 L 535.0174216027874 199.76580796252924 L 536.7653890824622 205.5620608899297 L 538.5017421602788 210.12880562060886 L 540.2439024390244 218.38407494145198 L 541.98606271777 227.69320843091336 L 543.7282229965157 235.24590163934423 L 545.4703832752614 242.62295081967213 L 547.212543554007 237.8805620608899 L 548.9547038327526 242.096018735363 L 550.6968641114983 247.54098360655738 L 552.439024390244 244.73067915690868 L 554.1811846689895 241.0421545667447 L 555.9233449477351 239.98829039812645 L 557.6655052264808 245.78454332552693 L 559.4076655052265 250.8782201405152 L 561.1498257839721 246.31147540983605 L 562.8919860627177 248.0679156908665 L 564.6341463414634 245.60889929742385 L 566.3763066202091 248.59484777517562 L 568.1184668989547 250.5269320843091 L 569.8606271777003 249.64871194379387 L 571.602787456446 255.44496487119434 L 573.3449477351917 257.90398126463697 L 575.0871080139373 262.8220140515223 L 576.8292682926829 262.6463700234192 L 578.5714285714286 257.5526932084309 L 580.3135888501743 265.4566744730679 L 582.0557491289198 264.5784543325527 L 583.7979094076654 261.0655737704918 L 585.5400696864111 261.41686182669787 L 587.2822299651568 272.83372365339574 L 589.0243902439024 261.41686182669787 L 590.766550522648 262.4707259953161 L 592.5087108013937 264.0515222482436 L 594.2508710801394 258.78220140515225 L 595.993031358885 265.63231850117097 L 597.7351916376306 268.44262295081967 L 599.4773519163763 278.1030444964871 L 601.219512195122 281.26463700234194 L 602.9616724738676 280.0351288056206 L 604.7038327526132 284.2505854800937 L 606.4459930313589 286.00702576112405 L 608.1881533101046 286.18266978922713 L 609.9303135888501 287.9391100702576 L 611.6724738675957 291.9789227166276 L 613.4146341463414 297.0725995316159 L 615.1567944250871 307.78688524590166 L 616.8989547038327 307.9625292740046 L 618.6411149825783 309.7189695550351 L 620.383275261324 317.7985948477751 L 622.1254355400697 321.311475409836 L 623.8675958188153 323.5948477751756 L 625.609756097561 330.09367681498827 L 627.3519163763067 328.68852459016387 L 629.0940766550523 329.39110070257607 L 630.8420441347271 336.59250585480095 L 632.5783972125436 344.14519906323187 L 634.3205574912893 342.5644028103044 L 636.0627177700349 352.75175644028104 L 637.8048780487804 348.0093676814988 L 639.5470383275261 348.36065573770486 L 641.2891986062718 354.3325526932084 L 643.0313588850174 356.79156908665107 L 644.773519163763 358.7236533957845 L 646.5156794425087 364.1686182669789 L 648.2578397212544 367.6814988290398 L 650 367.50585480093673 L 650 400 Z" /><text  class="poloto_labels poloto_text poloto_title" alignment-baseline="start" text-anchor="middle" font-size="x-large" x="400" y="37.5" >Total players on 2021-08-02</text><text  class="poloto_labels poloto_text poloto_xname" alignment-baseline="start" text-anchor="middle" font-size="x-large" x="400" y="481.25" >Time</text><text  class="poloto_labels poloto_text poloto_yname" alignment-baseline="start" text-anchor="middle" font-size="x-large" transform="rotate(-90,37.5,250)" x="37.5" y="250" >Count</text><line  class="poloto_axis_lines" stroke="black" x1="208.0487804878049" x2="208.0487804878049" y1="400" y2="405" /><text  class="poloto_tick_labels poloto_text" alignment-baseline="start" text-anchor="middle" x="208.0487804878049" y="430" > 02:46:40</text><line  class="poloto_axis_lines" stroke="black" x1="266.1207897793264" x2="266.1207897793264" y1="400" y2="405" /><text  class="poloto_tick_labels poloto_text" alignment-baseline="start" text-anchor="middle" x="266.1207897793264" y="430" > 05:33:20</text><line  class="poloto_axis_lines" stroke="black" x1="324.19279907084785" x2="324.19279907084785" y1="400" y2="405" /><text  class="poloto_tick_labels poloto_text" alignment-baseline="start" text-anchor="middle" x="324.19279907084785" y="430" > 08:20:00</text><line  class="poloto_axis_lines" stroke="black" x1="382.2648083623693" x2="382.2648083623693" y1="400" y2="405" /><text  class="poloto_tick_labels poloto_text" alignment-baseline="start" text-anchor="middle" x="382.2648083623693" y="430" > 11:06:40</text><line  class="poloto_axis_lines" stroke="black" x1="440.3368176538908" x2="440.3368176538908" y1="400" y2="405" /><text  class="poloto_tick_labels poloto_text" alignment-baseline="start" text-anchor="middle" x="440.3368176538908" y="430" > 13:53:20</text><line  class="poloto_axis_lines" stroke="black" x1="498.4088269454123" x2="498.4088269454123" y1="400" y2="405" /><text  class="poloto_tick_labels poloto_text" alignment-baseline="start" text-anchor="middle" x="498.4088269454123" y="430" > 16:40:00</text><line  class="poloto_axis_lines" stroke="black" x1="556.4808362369338" x2="556.4808362369338" y1="400" y2="405" /><text  class="poloto_tick_labels poloto_text" alignment-baseline="start" text-anchor="middle" x="556.4808362369338" y="430" > 19:26:40</text><line  class="poloto_axis_lines" stroke="black" x1="614.5528455284552" x2="614.5528455284552" y1="400" y2="405" /><text  class="poloto_tick_labels poloto_text" alignment-baseline="start" text-anchor="middle" x="614.5528455284552" y="430" > 22:13:20</text><line  class="poloto_axis_lines" stroke="black" x1="150" x2="144" y1="351.5222482435597" y2="351.5222482435597" /><text  class="poloto_tick_labels poloto_text" alignment-baseline="middle" text-anchor="end" x="135" y="351.5222482435597" > 1500</text><line  class="poloto_axis_lines" stroke="black" x1="150" x2="144" y1="263.70023419203744" y2="263.70023419203744" /><text  class="poloto_tick_labels poloto_text" alignment-baseline="middle" text-anchor="end" x="135" y="263.70023419203744" > 2000</text><line  class="poloto_axis_lines" stroke="black" x1="150" x2="144" y1="175.87822014051517" y2="175.87822014051517" /><text  class="poloto_tick_labels poloto_text" alignment-baseline="middle" text-anchor="end" x="135" y="175.87822014051517" > 2500</text><path  stroke="black" fill="none" class="poloto_axis_lines" style="stroke-dasharray:14.518002322880372;stroke-dashoffset:-58.04878048780488;" d=" M 150 400 L 650 400" /><path  stroke="black" fill="none" class="poloto_axis_lines" style="stroke-dasharray:8.782201405152225;stroke-dashoffset:-48.47775175644031;" d=" M 150 400 L 150 100" /></svg>