<svg class="poloto" width="800" height="500" viewBox="0 0 800 500" xmlns="http://www.w3.org/2000/svg"><style>.poloto { stroke-linecap:round; stroke-linejoin:round; font-family: 'Tahoma', sans-serif; background-color: AliceBlue;} .poloto_scatter{stroke-width:7} .poloto_line{stroke-width:2} .poloto_text{fill: black;} .poloto_axis_lines{stroke: black;stroke-width:3;fill:none;stroke-dasharray:none} .poloto0stroke{stroke:  blue;} .poloto1stroke{stroke:  red;} .poloto2stroke{stroke:  green;} .poloto3stroke{stroke:  gold;} .poloto4stroke{stroke:  aqua;} .poloto5stroke{stroke:  lime;} .poloto6stroke{stroke:  orange;} .poloto7stroke{stroke:  chocolate;} .poloto0fill{fill:blue;} .poloto1fill{fill:red;} .poloto2fill{fill:green;} .poloto3fill{fill:gold;} .poloto4fill{fill:aqua;} .poloto5fill{fill:lime;} .poloto6fill{fill:orange;} .poloto7fill{fill:chocolate;}</style><text  class="poloto_text poloto_legend_text" alignment-baseline="middle" text-anchor="start" font-size="large" x="675" y="100" ></text><path  class="poloto_linefill poloto0fill" d=" M 150 400 L 150 373.1472569778633 L 151.73637324475314 377.76708373435997 L 153.47855375788336 381.37632338787296 L 155.2207342710136 378.6333012512031 L 156.96291478414383 379.78825794032724 L 158.70509529727406 384.2637151106834 L 160.4530830787814 383.5418671799807 L 162.18945632353453 385.4186717998075 L 163.93163683666478 380.51010587102985 L 165.673817349795 386.71799807507216 L 167.41599786292522 388.59480269489893 L 169.15817837605547 385.9961501443696 L 170.9003588891857 385.70741097208855 L 172.64253940231595 389.17228103946104 L 174.38471991544617 390.32723772858515 L 176.1269004285764 391.3378248315688 L 177.86908094170664 397.1126082771896 L 179.61126145483686 394.8026948989413 L 181.35344196796711 400 L 183.09562248109734 395.5245428296439 L 184.8378029942276 397.5457170356112 L 186.5799835073578 395.95765158806546 L 188.32216402048806 396.24639076034646 L 190.06434453361828 399.1337824831569 L 191.8065250467485 398.70067372473534 L 193.54870555987875 398.84504331087584 L 195.29088607300898 398.4119345524543 L 197.03306658613923 395.6689124157844 L 198.77524709926945 393.64773820981713 L 200.51742761239967 389.0279114533205 L 202.25960812552992 387.1511068334937 L 204.00178863866014 380.65447545717035 L 205.7439691517904 379.78825794032724 L 207.48614966492062 378.4889316650626 L 209.22833017805084 380.9432146294514 L 210.9705106911811 381.5206929740135 L 212.71849847268842 376.6121270452358 L 214.45487171744156 371.9923002887392 L 216.19705223057179 376.4677574590953 L 217.939232743702 368.52743022136667 L 219.68141325683226 369.9711260827719 L 221.4235937699625 365.64003849855635 L 223.16577428309273 363.0413859480269 L 224.90795479622295 364.19634263715113 L 226.65013530935317 365.35129932627524 L 228.39231582248343 363.9076034648701 L 230.13449633561368 364.7738209817132 L 231.8766768487439 364.6294513955727 L 233.62466463025123 364.48508180943213 L 235.36103787500434 359.2877767083735 L 237.1032183881346 355.3897978825794 L 238.84539890126484 357.5553416746872 L 240.58757941439507 356.2560153994225 L 242.3297599275253 352.79114533205006 L 244.0719404406555 355.82290664100094 L 245.81412095378576 352.06929740134746 L 247.556301466916 347.16073147256975 L 249.29848198004623 338.49855630413856 L 251.04066249317646 338.93166506256017 L 252.78284300630668 334.6005774783446 L 254.52502351943693 334.02309913378247 L 256.2672040325672 334.6005774783446 L 258.0093845456974 332.7237728585178 L 259.7515650588276 329.4032723772858 L 261.4937455719579 326.5158806544755 L 263.23592608508807 325.2165543792108 L 264.98391386659546 324.7834456207893 L 266.72028711134857 324.3503368623676 L 268.4624676244788 326.660250240616 L 270.20464813760907 332.29066410009625 L 271.94682865073923 334.6005774783446 L 273.6890091638695 332.00192492781525 L 275.43699694537685 334.167468719923 L 277.17337019012996 334.02309913378247 L 278.91555070326024 336.9104908565929 L 280.6577312163904 335.61116458132824 L 282.3999117295207 335.89990375360924 L 284.1420922426509 337.63233878729545 L 285.8842727557811 333.5899903753609 L 287.6264532689114 343.6958614051973 L 289.36863378204157 338.6429258902791 L 291.11081429517185 346.29451395572664 L 292.85299480830207 332.4350336862368 L 294.5951753214323 327.95957651588066 L 296.3373558345626 329.1145332050048 L 298.07953634769274 326.660250240616 L 299.821716860823 324.49470644850817 L 301.56389737395324 323.7728585178056 L 303.30607788708346 318.7199230028874 L 305.04825840021374 315.832531280077 L 306.7904389133439 311.6458132820019 L 308.5326194264742 307.89220404234845 L 310.2747999396044 303.41674687199236 L 312.01698045273463 307.60346487006734 L 313.7591609658649 310.2021174205968 L 315.5013414789951 305.4379210779596 L 317.24352199212535 304.1385948026949 L 318.9857025052556 303.41674687199236 L 320.7278830183858 303.8498556304139 L 322.4700635315161 304.57170356111646 L 324.2122440446463 306.3041385948027 L 325.9544245577765 296.4870067372474 L 327.69660507090674 291.4340712223292 L 329.43878558403696 289.70163618864296 L 331.18096609716724 288.1135707410972 L 332.92314661029747 281.3282001924928 L 334.6653271234277 282.1944177093359 L 336.4075076365579 278.5851780558229 L 338.14968814968813 281.9056785370549 L 339.8918686628184 274.9759384023099 L 341.63404917594863 274.3984600577478 L 343.37622968907885 263.7151106833494 L 345.1184102022091 256.06352261790187 L 346.8605907153393 253.46487006737246 L 348.6085784968467 252.1655437921078 L 350.3449517415998 254.18671799807507 L 352.08713225473 250.00000000000003 L 353.8293127678603 243.79210779595766 L 355.57149328099047 240.47160731472573 L 357.31367379412075 236.14051973051014 L 359.05585430725097 228.48893166506255 L 360.7980348203812 233.39749759384026 L 362.54021533351147 235.56304138594803 L 364.28239584664163 232.67564966313765 L 366.0245763597719 228.34456207892205 L 367.76675687290214 233.54186717998076 L 369.50893738603236 231.95380173243504 L 371.25111789916264 226.61212704523584 L 372.9932984122928 221.9923002887392 L 374.7354789254231 217.37247353224254 L 376.4776594385533 214.1963426371511 L 378.2198399516835 207.55534167468718 L 379.9620204648138 214.48508180943216 L 381.70420097794397 208.2771896053898 L 383.44638149107425 208.42155919153035 L 385.18856200420447 204.5235803657363 L 386.9307425173347 203.0798845043311 L 388.672923030465 196.29451395572667 L 390.41510354359514 203.51299326275264 L 392.1572840567254 195.71703561116456 L 393.89946456985564 195.71703561116456 L 395.64164508298586 193.98460057747835 L 397.38382559611614 192.25216554379213 L 399.1260061092463 194.12897016361885 L 400.8681866223766 188.06544754571703 L 402.6103671355068 195.1395572666025 L 404.352547648637 199.03753609239655 L 406.09472816176725 204.09047160731475 L 407.83690867489753 200.1924927815207 L 409.57908918802775 198.604427333975 L 411.321269701158 199.90375360923966 L 413.0634502142882 198.604427333975 L 414.8056307274184 198.89316650625605 L 416.5478112405487 198.7487969201155 L 418.2899917536789 197.59384023099133 L 420.03217226680914 194.85081809432145 L 421.77435277993936 182.14629451395572 L 423.5165332930696 179.6920115495669 L 425.25871380619986 175.79403272377286 L 427.0008943193301 178.53705486044274 L 428.7430748324603 170.59672762271416 L 430.48525534559053 166.98748796920117 L 432.23324312709786 154.13859480269488 L 433.96961637185103 144.46583253128009 L 435.71760415335837 143.7439846005775 L 437.4539773981115 135.51491819056787 L 439.1961579112417 138.4023099133783 L 440.938338424372 135.08180943214631 L 442.6805189375022 130.46198267564966 L 444.4226994506324 133.6381135707411 L 446.16487996376264 124.83156881616935 L 447.90706047689287 124.1097208854668 L 449.64924099002315 123.96535129932624 L 451.39142150315337 122.66602502406158 L 453.1394092846607 123.96535129932624 L 454.8757825294138 122.37728585178058 L 456.61796304254403 129.30702598652556 L 458.3601435556743 123.67661212704525 L 460.10232406880453 117.90182868142449 L 461.84450458193476 114.14821944177095 L 463.5924923634421 114.2925890279115 L 465.3288656081952 110.53897978825796 L 467.0710461213255 107.36284889316653 L 468.8132266344557 106.49663137632342 L 470.56121441596304 111.54956689124162 L 472.29758766071615 108.66217516843119 L 474.03976817384637 111.69393647738207 L 475.78194868697665 106.06352261790187 L 477.52412920010687 104.90856592877765 L 479.2663097132371 105.91915303176131 L 481.0084902263673 106.64100096246386 L 482.75067073949754 102.88739172281043 L 484.4928512526278 100 L 486.23503176575804 103.75360923965354 L 487.97721227888826 104.7641963426372 L 489.7193927920185 114.5813282001925 L 491.4615733051487 118.91241578440804 L 493.203753818279 118.33493743984604 L 494.9459343314092 120.50048123195381 L 496.6881148445394 122.37728585178058 L 498.43029535766965 122.08854667949947 L 500.17247587079993 133.9268527430221 L 501.91465638393015 129.01828681424445 L 503.6568368970604 139.8460057747834 L 505.3990174101906 141.86717998075073 L 507.1411979233208 181.56881616939367 L 508.8833784364511 170.74109720885465 L 510.6255589495813 173.33974975938403 L 512.3677394627116 184.0230991337825 L 514.1099199758418 187.48796920115498 L 515.857907757349 189.3647738209817 L 517.5942810021022 192.10779595765158 L 519.3364615152325 183.44562078922038 L 521.0786420283628 207.98845043310874 L 522.8208225414929 186.18864292589026 L 524.5630030546231 186.18864292589026 L 526.3109908361305 195.1395572666025 L 528.0473640808837 199.4706448508181 L 529.7895445940139 196.72762271414823 L 531.5317251071441 196.58325312800773 L 533.2739056202743 198.31568816169394 L 535.0160861334045 202.9355149181906 L 536.7582666465348 205.24542829643892 L 538.5004471596651 213.04138594802694 L 540.2426276727953 216.65062560153993 L 541.9848081859254 219.2492781520693 L 543.7269886990557 224.01347449470646 L 545.469169212186 232.82001924927815 L 547.2113497253163 237.87295476419635 L 548.9535302384464 241.04908565928778 L 550.6957107515766 247.97882579403276 L 552.4378912647069 244.80269489894133 L 554.1800717778372 259.67276227141485 L 555.9222522909674 247.97882579403276 L 557.6702400724747 249.42252165543792 L 559.4066133172278 261.69393647738207 L 561.148793830358 262.5601539942252 L 562.8909743434883 259.38402309913374 L 564.6331548566186 260.53897978825796 L 566.3753353697488 263.1376323387873 L 568.117515882879 259.8171318575553 L 569.8596963960092 275.553416746872 L 571.6018769091395 273.38787295476425 L 573.3440574222698 276.4196342637151 L 575.0862379353999 276.27526467757457 L 576.8284184485302 277.57459095283923 L 578.5705989616604 282.62752646775743 L 580.3127794747907 282.05004812319544 L 582.0549599879209 281.7613089509143 L 583.7971405010511 277.7189605389798 L 585.5393210141814 274.83156881616935 L 587.2815015273115 278.44080846968234 L 589.0236820404418 282.62752646775743 L 590.7658625535721 288.54667949951875 L 592.5080430667023 292.5890279114533 L 594.2502235798326 293.1665062560154 L 595.9924040929627 299.51876804619826 L 597.734584606093 308.0365736284889 L 599.4767651192233 309.04716073147256 L 601.2189456323534 303.8498556304139 L 602.9611261454837 304.1385948026949 L 604.7033066586139 305.72666025024057 L 606.4454871717442 306.73724735322423 L 608.1876676848744 308.614051973051 L 609.9356554663817 314.10009624639076 L 611.6720287111349 317.42059672762275 L 613.414209224265 313.23387872954765 L 615.1563897373953 317.2762271414822 L 616.8985702505256 321.60731472569785 L 618.6407507636558 317.70933589990375 L 620.382931276786 318.4311838306064 L 622.1251117899162 319.2974013474495 L 623.8672923030465 329.5476419634264 L 625.6094728161768 330.1251203079885 L 627.3516533293069 331.8575553416747 L 629.0938338424372 331.71318575553414 L 630.8360143555674 332.00192492781525 L 632.5781948686977 342.68527430221366 L 634.320375381828 340.08662175168433 L 636.0625558949582 342.2521655437921 L 637.8047364080884 349.4706448508181 L 639.5469169212186 347.16073147256975 L 641.2890974343488 350.3368623676612 L 643.0312779474791 350.3368623676612 L 644.7734584606094 359.8652550529355 L 646.5156389737396 361.59769008662175 L 648.2578194868697 361.59769008662175 L 650 365.7844080846968 L 650 400 Z" /><text  class="poloto_labels poloto_text poloto_title" alignment-baseline="start" text-anchor="middle" font-size="x-large" x="400" y="37.5" >Total players on 2021-08-17</text><text  class="poloto_labels poloto_text poloto_xname" alignment-baseline="start" text-anchor="middle" font-size="x-large" x="400" y="481.25" >Time</text><text  class="poloto_labels poloto_text poloto_yname" alignment-baseline="start" text-anchor="middle" font-size="x-large" transform="rotate(-90,37.5,250)" x="37.5" y="250" >Count</text><line  class="poloto_axis_lines" stroke="black" x1="208.0436474291223" x2="208.0436474291223" y1="400" y2="405" /><text  class="poloto_tick_labels poloto_text" alignment-baseline="start" text-anchor="middle" x="208.0436474291223" y="430" > 02:46:40</text><line  class="poloto_axis_lines" stroke="black" x1="266.1163312001301" x2="266.1163312001301" y1="400" y2="405" /><text  class="poloto_tick_labels poloto_text" alignment-baseline="start" text-anchor="middle" x="266.1163312001301" y="430" > 05:33:20</text><line  class="poloto_axis_lines" stroke="black" x1="324.1890149711379" x2="324.1890149711379" y1="400" y2="405" /><text  class="poloto_tick_labels poloto_text" alignment-baseline="start" text-anchor="middle" x="324.1890149711379" y="430" > 08:20:00</text><line  class="poloto_axis_lines" stroke="black" x1="382.26169874214565" x2="382.26169874214565" y1="400" y2="405" /><text  class="poloto_tick_labels poloto_text" alignment-baseline="start" text-anchor="middle" x="382.26169874214565" y="430" > 11:06:40</text><line  class="poloto_axis_lines" stroke="black" x1="440.33438251315346" x2="440.33438251315346" y1="400" y2="405" /><text  class="poloto_tick_labels poloto_text" alignment-baseline="start" text-anchor="middle" x="440.33438251315346" y="430" > 13:53:20</text><line  class="poloto_axis_lines" stroke="black" x1="498.40706628416126" x2="498.40706628416126" y1="400" y2="405" /><text  class="poloto_tick_labels poloto_text" alignment-baseline="start" text-anchor="middle" x="498.40706628416126" y="430" > 16:40:00</text><line  class="poloto_axis_lines" stroke="black" x1="556.479750055169" x2="556.479750055169" y1="400" y2="405" /><text  class="poloto_tick_labels poloto_text" alignment-baseline="start" text-anchor="middle" x="556.479750055169" y="430" > 19:26:40</text><line  class="poloto_axis_lines" stroke="black" x1="614.5524338261769" x2="614.5524338261769" y1="400" y2="405" /><text  class="poloto_tick_labels poloto_text" alignment-baseline="start" text-anchor="middle" x="614.5524338261769" y="430" > 22:13:20</text><line  class="poloto_axis_lines" stroke="black" x1="150" x2="144" y1="364.48508180943213" y2="364.48508180943213" /><text  class="poloto_tick_labels poloto_text" alignment-baseline="middle" text-anchor="end" x="135" y="364.48508180943213" > 1500</text><line  class="poloto_axis_lines" stroke="black" x1="150" x2="144" y1="292.3002887391723" y2="292.3002887391723" /><text  class="poloto_tick_labels poloto_text" alignment-baseline="middle" text-anchor="end" x="135" y="292.3002887391723" > 2000</text><line  class="poloto_axis_lines" stroke="black" x1="150" x2="144" y1="220.11549566891244" y2="220.11549566891244" /><text  class="poloto_tick_labels poloto_text" alignment-baseline="middle" text-anchor="end" x="135" y="220.11549566891244" > 2500</text><line  class="poloto_axis_lines" stroke="black" x1="150" x2="144" y1="147.93070259865257" y2="147.93070259865257" /><text  class="poloto_tick_labels poloto_text" alignment-baseline="middle" text-anchor="end" x="135" y="147.93070259865257" > 3000</text><path  stroke="black" fill="none" class="poloto_axis_lines" style="stroke-dasharray:14.518170942751949;stroke-dashoffset:-58.043647429122295;" d=" M 150 400 L 650 400" /><path  stroke="black" fill="none" class="poloto_axis_lines" style="stroke-dasharray:7.218479307025985;stroke-dashoffset:-35.51491819056784;" d=" M 150 400 L 150 100" /></svg>