<svg class="poloto" width="800" height="500" viewBox="0 0 800 500" xmlns="http://www.w3.org/2000/svg"><style>.poloto { stroke-linecap:round; stroke-linejoin:round; font-family: 'Tahoma', sans-serif; background-color: AliceBlue;} .poloto_scatter{stroke-width:7} .poloto_line{stroke-width:2} .poloto_text{fill: black;} .poloto_axis_lines{stroke: black;stroke-width:3;fill:none;stroke-dasharray:none} .poloto0stroke{stroke:  blue;} .poloto1stroke{stroke:  red;} .poloto2stroke{stroke:  green;} .poloto3stroke{stroke:  gold;} .poloto4stroke{stroke:  aqua;} .poloto5stroke{stroke:  lime;} .poloto6stroke{stroke:  orange;} .poloto7stroke{stroke:  chocolate;} .poloto0fill{fill:blue;} .poloto1fill{fill:red;} .poloto2fill{fill:green;} .poloto3fill{fill:gold;} .poloto4fill{fill:aqua;} .poloto5fill{fill:lime;} .poloto6fill{fill:orange;} .poloto7fill{fill:chocolate;}</style><text  class="poloto_text poloto_legend_text" alignment-baseline="middle" text-anchor="start" font-size="large" x="675" y="100" ></text><path  class="poloto_linefill poloto0fill" d=" M 150 400 L 150 375.304347826087 L 151.74216027874564 375.304347826087 L 153.4843205574913 373.3913043478261 L 155.22648083623693 372.8695652173913 L 156.96864111498257 369.7391304347826 L 158.71080139372822 370.0869565217391 L 160.45296167247386 376.17391304347825 L 162.1951219512195 371.304347826087 L 163.93728222996515 374.95652173913044 L 165.6794425087108 372.52173913043475 L 167.42160278745644 372 L 169.16376306620208 379.47826086956525 L 170.90592334494772 381.9130434782609 L 172.64808362369337 378.95652173913044 L 174.390243902439 380.3478260869565 L 176.13240418118465 384.17391304347825 L 177.8745644599303 383.47826086956525 L 179.61672473867597 386.6086956521739 L 181.3588850174216 389.9130434782609 L 183.10104529616726 390.95652173913044 L 184.8432055749129 384.52173913043475 L 186.58536585365854 382.95652173913044 L 188.3275261324042 385.21739130434787 L 190.06968641114983 382.0869565217391 L 191.81184668989548 381.3913043478261 L 193.55400696864112 377.7391304347826 L 195.29616724738676 378.4347826086956 L 197.0383275261324 379.6521739130435 L 198.78048780487805 371.82608695652175 L 200.5226480836237 374.2608695652174 L 202.26480836236934 368.69565217391306 L 204.00696864111498 372 L 205.74912891986062 369.04347826086956 L 207.49128919860627 367.1304347826087 L 209.2334494773519 370.6086956521739 L 210.97560975609755 364.8695652173913 L 212.7177700348432 364.69565217391306 L 214.45993031358887 360.52173913043475 L 216.2020905923345 362.7826086956522 L 217.94425087108016 359.47826086956525 L 219.6864111498258 357.9130434782609 L 221.42857142857144 348.69565217391306 L 223.1707317073171 346.4347826086956 L 224.91289198606273 340 L 226.65505226480838 342.0869565217391 L 228.39721254355402 340.8695652173913 L 230.13937282229966 338.0869565217391 L 231.8815331010453 337.04347826086956 L 233.62369337979095 329.5652173913044 L 235.3658536585366 332.69565217391306 L 237.10801393728224 332.8695652173913 L 238.85017421602788 332.69565217391306 L 240.59233449477352 332.69565217391306 L 242.33449477351917 333.5652173913044 L 244.0766550522648 334.7826086956522 L 245.81881533101046 334.7826086956522 L 247.5609756097561 334.7826086956522 L 249.30313588850174 334.60869565217394 L 251.0452961672474 331.82608695652175 L 252.78745644599303 333.04347826086956 L 254.52961672473867 329.04347826086956 L 256.2717770034843 332.69565217391306 L 258.01393728222996 332.69565217391306 L 259.7560975609756 335.6521739130435 L 261.49825783972125 329.39130434782606 L 263.2404181184669 320.17391304347825 L 264.98257839721254 314.0869565217391 L 266.7247386759582 315.1304347826087 L 268.4668989547038 311.82608695652175 L 270.20905923344947 308 L 271.9512195121951 308.5217391304348 L 273.69337979094075 307.6521739130435 L 275.4355400696864 306.60869565217394 L 277.17770034843204 305.5652173913044 L 278.91986062717774 310.0869565217391 L 280.6620209059233 309.39130434782606 L 282.404181184669 307.6521739130435 L 284.1463414634146 309.7391304347826 L 285.8885017421603 305.5652173913044 L 287.6306620209059 351.6521739130435 L 289.3728222996516 312.8695652173913 L 291.1149825783972 310.0869565217391 L 292.8571428571429 307.1304347826087 L 294.5993031358885 299.82608695652175 L 296.3414634146342 298.2608695652174 L 298.08362369337976 293.9130434782609 L 299.82578397212546 291.1304347826087 L 301.56794425087105 301.5652173913044 L 303.31010452961675 301.39130434782606 L 305.05226480836234 296.17391304347825 L 306.79442508710804 290.95652173913044 L 308.5365853658536 283.1304347826087 L 310.2787456445993 278.7826086956522 L 312.0209059233449 272.8695652173913 L 313.7630662020906 265.9130434782609 L 315.5052264808362 269.5652173913044 L 317.2473867595819 269.3913043478261 L 318.9895470383275 260.17391304347825 L 320.7317073170732 251.82608695652175 L 322.4738675958188 249.73913043478262 L 324.2160278745645 245.56521739130437 L 325.9581881533101 245.39130434782612 L 327.70034843205576 245.73913043478262 L 329.4425087108014 249.04347826086956 L 331.18466898954705 245.73913043478262 L 332.9268292682927 244.17391304347825 L 334.66898954703834 237.39130434782612 L 336.411149825784 234.60869565217394 L 338.1533101045296 230.95652173913044 L 339.89547038327527 237.73913043478262 L 341.6376306620209 236.3478260869565 L 343.37979094076655 235.30434782608694 L 345.1219512195122 238.7826086956522 L 346.86411149825784 228.69565217391306 L 348.6062717770035 228.8695652173913 L 350.34843205574913 220.3478260869565 L 352.0905923344948 216.8695652173913 L 353.8327526132404 228.69565217391306 L 355.57491289198606 209.39130434782612 L 357.3170731707317 220.8695652173913 L 359.05923344947735 208.3478260869565 L 360.801393728223 209.39130434782612 L 362.54355400696863 201.56521739130437 L 364.2857142857143 200.3478260869565 L 366.0278745644599 216.5217391304348 L 367.77003484320556 206.95652173913044 L 369.5121951219512 205.39130434782612 L 371.25435540069685 202.43478260869568 L 372.9965156794425 201.04347826086956 L 374.73867595818814 199.82608695652175 L 376.4808362369338 211.6521739130435 L 378.2229965156795 198.08695652173913 L 379.96515679442507 192.17391304347825 L 381.70731707317077 196.8695652173913 L 383.44947735191636 200.17391304347825 L 385.19163763066206 196.5217391304348 L 386.93379790940764 193.2173913043478 L 388.67595818815334 198.95652173913044 L 390.41811846689893 191.1304347826087 L 392.16027874564463 193.2173913043478 L 393.9024390243902 199.82608695652175 L 395.6445993031359 191.82608695652175 L 397.3867595818815 200 L 399.1289198606272 195.82608695652175 L 400.8710801393728 186.95652173913044 L 402.6132404181185 186.08695652173913 L 404.3554006968641 185.04347826086956 L 406.0975609756098 170.60869565217394 L 407.8397212543554 172.17391304347825 L 409.58188153310107 170.7826086956522 L 411.3240418118467 169.91304347826087 L 413.06620209059236 173.56521739130437 L 414.808362369338 167.30434782608694 L 416.55052264808364 171.30434782608694 L 418.2926829268293 168 L 420.03484320557493 158.95652173913044 L 421.7770034843206 162.08695652173913 L 423.5191637630662 154.95652173913044 L 425.26132404181186 157.39130434782612 L 427.0034843205575 154.43478260869568 L 428.74564459930315 151.1304347826087 L 430.4878048780488 145.91304347826087 L 432.22996515679444 142.7826086956522 L 433.9721254355401 132 L 435.7142857142857 135.47826086956525 L 437.45644599303137 138.60869565217394 L 439.198606271777 137.04347826086956 L 440.94076655052265 138.43478260869568 L 442.6829268292683 133.2173913043478 L 444.42508710801394 130.26086956521738 L 446.1672473867596 130.95652173913044 L 447.9094076655052 134.43478260869568 L 449.65156794425087 121.39130434782612 L 451.3937282229965 126.43478260869568 L 453.13588850174216 124 L 454.8780487804878 124 L 456.62020905923345 115.13043478260869 L 458.3623693379791 112.69565217391306 L 460.10452961672473 100 L 461.8466898954704 109.91304347826087 L 463.588850174216 112.69565217391306 L 465.33101045296166 112.86956521739131 L 467.0731707317073 115.47826086956525 L 468.81533101045295 124.34782608695656 L 470.5574912891986 133.04347826086956 L 472.29965156794424 136.8695652173913 L 474.0418118466899 121.39130434782612 L 475.7839721254355 130.7826086956522 L 477.52613240418117 140.17391304347825 L 479.2682926829268 130.7826086956522 L 481.01045296167246 138.43478260869568 L 482.7526132404181 142.7826086956522 L 484.49477351916374 149.56521739130437 L 486.2369337979094 155.30434782608694 L 487.97909407665503 160.34782608695656 L 489.7212543554007 163.82608695652175 L 491.4634146341463 174.95652173913044 L 493.20557491289196 170.43478260869568 L 494.9477351916376 179.82608695652175 L 496.68989547038325 185.39130434782612 L 498.4320557491289 186.60869565217394 L 500.17421602787454 188.5217391304348 L 501.91637630662024 197.91304347826087 L 503.6585365853659 198.43478260869568 L 505.4006968641115 199.6521739130435 L 507.14285714285717 202.60869565217394 L 508.8850174216028 209.39130434782612 L 510.62717770034845 208 L 512.3693379790941 221.91304347826087 L 514.1114982578397 232 L 515.8536585365854 225.2173913043478 L 517.5958188153311 242.08695652173913 L 519.3379790940767 244.69565217391306 L 521.0801393728223 245.04347826086956 L 522.822299651568 251.1304347826087 L 524.5644599303137 249.39130434782612 L 526.3066202090592 252.3478260869565 L 528.0487804878048 248.5217391304348 L 529.7909407665505 262.60869565217394 L 531.5331010452962 263.47826086956525 L 533.2752613240418 253.73913043478262 L 535.0174216027874 246.95652173913044 L 536.7595818815331 252 L 538.5017421602788 241.2173913043478 L 540.2439024390244 241.04347826086956 L 541.98606271777 248.5217391304348 L 543.7282229965157 251.1304347826087 L 545.4703832752614 250.60869565217394 L 547.212543554007 253.2173913043478 L 548.9547038327526 252.3478260869565 L 550.6968641114983 252.17391304347825 L 552.439024390244 257.04347826086956 L 554.1811846689895 264.3478260869565 L 555.9233449477351 265.5652173913044 L 557.6655052264808 269.5652173913044 L 559.4076655052265 270.2608695652174 L 561.1498257839721 274.4347826086957 L 562.8919860627177 270.95652173913044 L 564.6341463414634 274.95652173913044 L 566.3763066202091 279.1304347826087 L 568.1184668989547 280.8695652173913 L 569.8606271777003 281.9130434782609 L 571.602787456446 282.4347826086957 L 573.3449477351917 285.2173913043478 L 575.0871080139373 288.8695652173913 L 576.8292682926829 288.17391304347825 L 578.5714285714286 291.1304347826087 L 580.3135888501743 297.5652173913044 L 582.0557491289198 289.5652173913044 L 583.7979094076654 294.2608695652174 L 585.5400696864111 290.7826086956522 L 587.2822299651568 297.39130434782606 L 589.0243902439024 297.04347826086956 L 590.766550522648 303.47826086956525 L 592.5087108013937 302.2608695652174 L 594.2508710801394 302.60869565217394 L 595.993031358885 308.69565217391306 L 597.7351916376306 308.5217391304348 L 599.4773519163763 306.7826086956522 L 601.219512195122 313.9130434782609 L 602.9616724738676 320.5217391304348 L 604.7038327526133 323.1304347826087 L 606.445993031359 319.1304347826087 L 608.1881533101046 326.60869565217394 L 609.9303135888501 325.7391304347826 L 611.6724738675958 329.2173913043478 L 613.4146341463415 330.7826086956522 L 615.1567944250871 330.4347826086957 L 616.8989547038327 330.60869565217394 L 618.6411149825784 337.5652173913044 L 620.3832752613241 339.82608695652175 L 622.1254355400697 341.04347826086956 L 623.8675958188153 337.7391304347826 L 625.609756097561 343.47826086956525 L 627.3519163763067 344.8695652173913 L 629.0940766550523 345.3913043478261 L 630.8362369337979 350.2608695652174 L 632.5783972125436 356.17391304347825 L 634.3205574912893 357.3913043478261 L 636.0627177700349 361.9130434782609 L 637.8048780487804 370.4347826086956 L 639.5470383275261 371.47826086956525 L 641.2891986062718 379.6521739130435 L 643.0313588850174 381.7391304347826 L 644.773519163763 391.82608695652175 L 646.5156794425087 389.04347826086956 L 648.2578397212544 392.8695652173913 L 650 400 L 650 400 Z" /><text  class="poloto_labels poloto_text poloto_title" alignment-baseline="start" text-anchor="middle" font-size="x-large" x="400" y="37.5" >Total players on 2021-11-21</text><text  class="poloto_labels poloto_text poloto_xname" alignment-baseline="start" text-anchor="middle" font-size="x-large" x="400" y="481.25" >Time</text><text  class="poloto_labels poloto_text poloto_yname" alignment-baseline="start" text-anchor="middle" font-size="x-large" transform="rotate(-90,37.5,250)" x="37.5" y="250" >Count</text><line  class="poloto_axis_lines" stroke="black" x1="150" x2="150" y1="400" y2="405" /><text  class="poloto_tick_labels poloto_text" alignment-baseline="start" text-anchor="middle" x="150" y="430" > 00:00</text><line  class="poloto_axis_lines" stroke="black" x1="266.14401858304296" x2="266.14401858304296" y1="400" y2="405" /><text  class="poloto_tick_labels poloto_text" alignment-baseline="start" text-anchor="middle" x="266.14401858304296" y="430" > 06:00</text><line  class="poloto_axis_lines" stroke="black" x1="382.2880371660859" x2="382.2880371660859" y1="400" y2="405" /><text  class="poloto_tick_labels poloto_text" alignment-baseline="start" text-anchor="middle" x="382.2880371660859" y="430" > 11:00</text><line  class="poloto_axis_lines" stroke="black" x1="498.4320557491289" x2="498.4320557491289" y1="400" y2="405" /><text  class="poloto_tick_labels poloto_text" alignment-baseline="start" text-anchor="middle" x="498.4320557491289" y="430" > 17:00</text><line  class="poloto_axis_lines" stroke="black" x1="614.5760743321719" x2="614.5760743321719" y1="400" y2="405" /><text  class="poloto_tick_labels poloto_text" alignment-baseline="start" text-anchor="middle" x="614.5760743321719" y="430" > 22:00</text><line  class="poloto_axis_lines" stroke="black" x1="150" x2="144" y1="332.17391304347825" y2="332.17391304347825" /><text  class="poloto_tick_labels poloto_text" alignment-baseline="middle" text-anchor="end" x="135" y="332.17391304347825" > 1500</text><line  class="poloto_axis_lines" stroke="black" x1="150" x2="144" y1="245.2173913043478" y2="245.2173913043478" /><text  class="poloto_tick_labels poloto_text" alignment-baseline="middle" text-anchor="end" x="135" y="245.2173913043478" > 2000</text><line  class="poloto_axis_lines" stroke="black" x1="150" x2="144" y1="158.26086956521738" y2="158.26086956521738" /><text  class="poloto_tick_labels poloto_text" alignment-baseline="middle" text-anchor="end" x="135" y="158.26086956521738" > 2500</text><path  stroke="black" fill="none" class="poloto_axis_lines" style="stroke-dasharray:14.518002322880372;stroke-dashoffset:-0;" d=" M 150 400 L 650 400" /><path  stroke="black" fill="none" class="poloto_axis_lines" style="stroke-dasharray:8.695652173913043;stroke-dashoffset:-67.82608695652175;" d=" M 150 400 L 150 100" /></svg>