<svg class="poloto" width="800" height="500" viewBox="0 0 800 500" xmlns="http://www.w3.org/2000/svg"><style>.poloto { stroke-linecap:round; stroke-linejoin:round; font-family: 'Tahoma', sans-serif; background-color: AliceBlue;} .poloto_scatter{stroke-width:7} .poloto_line{stroke-width:2} .poloto_text{fill: black;} .poloto_axis_lines{stroke: black;stroke-width:3;fill:none;stroke-dasharray:none} .poloto0stroke{stroke:  blue;} .poloto1stroke{stroke:  red;} .poloto2stroke{stroke:  green;} .poloto3stroke{stroke:  gold;} .poloto4stroke{stroke:  aqua;} .poloto5stroke{stroke:  lime;} .poloto6stroke{stroke:  orange;} .poloto7stroke{stroke:  chocolate;} .poloto0fill{fill:blue;} .poloto1fill{fill:red;} .poloto2fill{fill:green;} .poloto3fill{fill:gold;} .poloto4fill{fill:aqua;} .poloto5fill{fill:lime;} .poloto6fill{fill:orange;} .poloto7fill{fill:chocolate;}</style><text  class="poloto_text poloto_legend_text" alignment-baseline="middle" text-anchor="start" font-size="large" x="675" y="100" ></text><path  class="poloto_linefill poloto0fill" d=" M 150 400 L 150 348.3126110124334 L 151.74216027874564 348.8454706927176 L 153.4843205574913 352.39786856127887 L 155.22648083623693 361.6341030195382 L 156.96864111498257 364.4760213143872 L 158.71080139372822 364.65364120781527 L 160.45296167247386 365.5417406749556 L 162.1951219512195 371.2255772646536 L 163.93728222996515 367.8507992895204 L 165.6794425087108 367.3179396092362 L 167.42160278745644 372.4689165186501 L 169.16376306620208 374.7779751332149 L 170.90592334494772 374.0674955595026 L 172.64808362369337 381.7051509769094 L 174.390243902439 377.97513321492005 L 176.13240418118465 378.86323268206036 L 177.8745644599303 377.61989342806396 L 179.61672473867597 380.10657193605687 L 181.3588850174216 378.5079928952042 L 183.10104529616726 383.83658969804617 L 184.8432055749129 383.6589698046181 L 186.58536585365854 387.0337477797513 L 188.3275261324042 384.3694493783304 L 190.06968641114983 385.96802841918293 L 191.81184668989548 384.90230905861455 L 193.55400696864112 388.27708703374776 L 195.29616724738676 384.3694493783304 L 197.0383275261324 383.6589698046181 L 198.78048780487805 381.34991119005326 L 200.5226480836237 379.3960923623446 L 202.26480836236934 378.6856127886323 L 204.00696864111498 382.06039076376555 L 205.74912891986062 383.83658969804617 L 207.49128919860627 383.6589698046181 L 209.2334494773519 384.01420959147424 L 210.97560975609755 389.1651865008881 L 212.7177700348432 390.0532859680284 L 214.45993031358887 390.23090586145645 L 216.2020905923345 392.18472468916514 L 217.94425087108016 392.8952042628774 L 219.6864111498258 387.74422735346354 L 221.42857142857144 385.0799289520426 L 223.1707317073171 382.5932504440497 L 224.91289198606273 388.0994671403197 L 226.65505226480838 387.56660746003547 L 228.39721254355402 385.0799289520426 L 230.13937282229966 387.2113676731794 L 231.8815331010453 385.96802841918293 L 233.62369337979095 391.82948490230905 L 235.3658536585366 390.76376554174067 L 237.10801393728224 392.0071047957371 L 238.85017421602788 389.5204262877442 L 240.59233449477352 391.1190053285968 L 242.33449477351917 396.26998223801064 L 244.0766550522648 392.8952042628774 L 245.81881533101046 395.38188277087033 L 247.5609756097561 397.69094138543517 L 249.30313588850174 400 L 251.0452961672474 396.9804618117229 L 252.78745644599303 396.26998223801064 L 254.52961672473867 398.4014209591474 L 256.2717770034843 393.2504440497336 L 258.01393728222996 393.0728241563055 L 259.7560975609756 387.2113676731794 L 261.49825783972125 379.2184724689165 L 263.2404181184669 375.13321492007105 L 264.98257839721254 368.9165186500888 L 266.7247386759582 366.60746003552396 L 268.4668989547038 366.0746003552398 L 270.20905923344947 367.49555950266426 L 271.9512195121951 368.20603907637656 L 273.69337979094075 369.8046181172291 L 275.4355400696864 362.34458259325044 L 277.17770034843204 359.32504440497337 L 278.91986062717774 356.83836589698046 L 280.6620209059233 351.5097690941385 L 282.404181184669 353.81882770870334 L 284.1463414634146 354.52930728241563 L 285.8885017421603 350.97690941385434 L 287.6306620209059 349.0230905861456 L 289.3728222996516 348.49023090586144 L 291.1149825783972 347.60213143872113 L 292.8571428571429 347.0692717584369 L 294.5993031358885 351.5097690941385 L 296.3414634146342 358.9698046181172 L 298.08362369337976 361.101243339254 L 299.82578397212546 364.1207815275311 L 301.56794425087105 358.436944937833 L 303.31010452961675 353.1083481349911 L 305.05226480836234 355.06216696269985 L 306.79442508710804 353.81882770870334 L 308.5365853658536 357.3712255772647 L 310.2787456445993 361.6341030195382 L 312.0209059233449 358.9698046181172 L 313.7630662020906 355.772646536412 L 315.5052264808362 353.4635879218472 L 317.2473867595819 352.39786856127887 L 318.9895470383275 353.64120781527527 L 320.7317073170732 353.4635879218472 L 322.4738675958188 351.6873889875666 L 324.2160278745645 353.1083481349911 L 325.9581881533101 352.0426287744227 L 327.70034843205576 349.91119005328596 L 329.4425087108014 346.1811722912966 L 331.18466898954705 344.93783303730015 L 332.9268292682927 339.4316163410302 L 334.66898954703834 337.8330373001776 L 336.411149825784 341.9182948490231 L 338.1533101045296 338.3658969804618 L 339.89547038327527 335.8792184724689 L 341.6376306620209 325.57726465364124 L 343.37979094076655 317.4067495559502 L 345.1219512195122 311.3676731793961 L 346.86411149825784 318.2948490230906 L 348.6062717770035 311.01243339253995 L 350.34843205574913 310.47957371225573 L 352.0905923344948 304.4404973357016 L 353.8327526132404 303.55239786856123 L 355.57491289198606 299.11190053285964 L 357.3170731707317 302.664298401421 L 359.05923344947735 295.91474245115455 L 360.801393728223 302.13143872113676 L 362.54355400696863 296.09236234458257 L 364.2857142857143 292.0071047957371 L 366.0278745644599 288.98756660746005 L 367.77003484320556 301.0657193605684 L 369.5121951219512 292.3623445825932 L 371.25435540069685 295.5595026642984 L 372.9965156794425 287.03374777975137 L 374.73867595818814 282.9484902309058 L 376.4808362369338 276.90941385435167 L 378.2229965156795 277.2646536412078 L 379.96515679442507 272.11367673179393 L 381.70731707317077 270.5150976909414 L 383.44947735191636 276.37655417406745 L 385.19163763066206 260.56838365896976 L 386.93379790940764 252.0426287744227 L 388.67595818815334 255.2397868561279 L 390.41811846689893 252.39786856127884 L 392.16027874564463 240.85257548845468 L 393.9024390243902 236.58969804618116 L 395.6445993031359 228.0639431616341 L 397.3867595818815 232.5044404973357 L 399.1289198606272 223.62344582593246 L 400.8710801393728 224.51154529307283 L 402.6132404181185 222.202486678508 L 404.3554006968641 224.86678507992892 L 406.0975609756098 226.99822380106568 L 407.8397212543554 212.25577264653637 L 409.58188153310107 210.1243339253996 L 411.3240418118467 208.17051509769092 L 413.06620209059236 207.28241563055062 L 414.808362369338 200.17761989342804 L 416.55052264808364 199.4671403197158 L 418.2926829268293 190.0532859680284 L 420.03484320557493 197.33570159857905 L 421.7770034843206 181.5275310834813 L 423.5191637630662 176.9094138543517 L 425.26132404181186 168.3836589698046 L 427.0034843205575 179.7513321492007 L 428.74564459930315 172.8241563055062 L 430.4878048780488 170.69271758436943 L 432.22996515679444 155.59502664298398 L 433.9721254355401 156.30550621669627 L 435.7142857142857 150.44404973357015 L 437.45644599303137 136.76731793960926 L 439.198606271777 134.45825932504442 L 440.94076655052265 128.41918294849017 L 442.6829268292683 130.55062166962693 L 444.42508710801394 125.75488454706931 L 446.1672473867596 137.47779751332143 L 447.9094076655052 135.8792184724689 L 449.65156794425087 131.79396092362344 L 451.3937282229965 121.84724689165182 L 453.13588850174216 121.84724689165182 L 454.8780487804878 121.49200710479568 L 456.62020905923345 125.04440497335702 L 458.3623693379791 107.10479573712257 L 460.10452961672473 101.42095914742447 L 461.8466898954704 100.17761989342807 L 463.588850174216 105.86145648312606 L 465.33101045296166 101.42095914742447 L 467.0731707317073 100 L 468.81533101045295 106.74955595026643 L 470.5574912891986 103.01953818827712 L 472.29965156794424 103.19715808170508 L 474.0418118466899 106.03907637655414 L 475.7839721254355 100.35523978685615 L 477.52613240418117 111.01243339253995 L 479.2682926829268 111.72291296625224 L 481.01045296167246 114.56483126110118 L 482.7526132404181 126.82060390763763 L 484.49477351916374 153.28596802841915 L 486.2369337979094 153.10834813499108 L 487.97909407665503 127.88632326820607 L 489.7212543554007 132.32682060390766 L 491.4634146341463 146.7140319715808 L 493.20557491289196 171.40319715808167 L 494.9477351916376 157.37122557726465 L 496.68989547038325 171.22557726465365 L 498.4320557491289 167.4955595026643 L 500.17421602787454 165.5417406749556 L 501.91637630662024 185.25754884547067 L 503.6585365853659 177.797513321492 L 505.4006968641115 188.09946714031972 L 507.14285714285717 195.91474245115452 L 508.8850174216028 197.15808170515098 L 510.62717770034845 196.0923623445826 L 512.3693379790941 194.67140319715807 L 514.1114982578397 190.9413854351687 L 515.8536585365854 196.44760213143869 L 517.5958188153311 193.78330373001776 L 519.3379790940767 193.78330373001776 L 521.0801393728223 197.33570159857905 L 522.822299651568 205.32859680284193 L 524.5644599303137 208.17051509769092 L 526.3066202090592 207.63765541740676 L 528.0487804878048 201.59857904085257 L 529.7909407665505 208.52575488454707 L 531.5331010452962 195.55950266429838 L 533.2752613240418 199.8223801065719 L 535.0174216027874 201.24333925399642 L 536.7595818815331 204.61811722912964 L 538.5017421602788 208.17051509769092 L 540.2439024390244 210.1243339253996 L 541.98606271777 212.96625222024866 L 543.7282229965157 211.54529307282414 L 545.4703832752614 209.59147424511545 L 547.212543554007 211.54529307282414 L 548.9547038327526 215.98579040852573 L 550.6968641114983 220.24866785079925 L 552.439024390244 229.1296625222025 L 554.1811846689895 215.09769094138542 L 555.9233449477351 214.03197158081704 L 557.6655052264808 217.40674955595026 L 559.4076655052265 228.59680284191828 L 561.1498257839721 227.70870337477797 L 562.8919860627177 223.62344582593246 L 564.6341463414634 222.55772646536408 L 566.3763066202091 226.82060390763766 L 568.1184668989547 224.86678507992892 L 569.8606271777003 226.99822380106568 L 571.602787456446 226.11012433392537 L 573.3449477351917 228.59680284191828 L 575.0871080139373 228.0639431616341 L 576.8292682926829 231.26110124333925 L 578.5714285714286 239.4316163410302 L 580.3135888501743 238.36589698046177 L 582.0557491289198 238.18827708703375 L 583.7979094076654 243.51687388987565 L 585.5400696864111 242.62877442273535 L 587.2822299651568 245.8259325044405 L 589.0243902439024 243.8721136767318 L 590.766550522648 253.81882770870337 L 592.5087108013937 253.46358792184722 L 594.2508710801394 255.06216696269982 L 595.993031358885 268.3836589698046 L 597.7351916376306 267.1403197158081 L 599.4773519163763 257.1936056838366 L 601.219512195122 264.47602131438725 L 602.9616724738676 268.5612788632327 L 604.7038327526133 273.0017761989343 L 606.445993031359 277.9751332149201 L 608.1881533101046 279.7513321492007 L 609.9303135888501 280.9946714031971 L 611.6724738675958 291.47424511545296 L 613.4146341463415 290.0532859680284 L 615.1567944250871 299.2895204262877 L 616.8989547038327 304.9733570159858 L 618.6411149825784 309.94671403197157 L 620.3832752613241 317.0515097690941 L 622.1254355400697 320.6039076376554 L 623.8675958188153 320.2486678507993 L 625.609756097561 317.22912966252215 L 627.3519163763067 320.95914742451157 L 629.0940766550523 317.5843694493783 L 630.8362369337979 318.65008880994674 L 632.5783972125436 318.2948490230906 L 634.3205574912893 324.5115452930728 L 636.0627177700349 324.86678507992895 L 637.8048780487804 328.59680284191825 L 639.5470383275261 329.6625222024867 L 641.2891986062718 335.3463587921847 L 643.0313588850174 336.5896980461812 L 644.773519163763 341.740674955595 L 646.5156794425087 341.20781527531085 L 648.2578397212544 343.16163410301954 L 650 346.1811722912966 L 650 400 Z" /><text  class="poloto_labels poloto_text poloto_title" alignment-baseline="start" text-anchor="middle" font-size="x-large" x="400" y="37.5" >Total players on 2021-12-07</text><text  class="poloto_labels poloto_text poloto_xname" alignment-baseline="start" text-anchor="middle" font-size="x-large" x="400" y="481.25" >Time</text><text  class="poloto_labels poloto_text poloto_yname" alignment-baseline="start" text-anchor="middle" font-size="x-large" transform="rotate(-90,37.5,250)" x="37.5" y="250" >Count</text><line  class="poloto_axis_lines" stroke="black" x1="150" x2="150" y1="400" y2="405" /><text  class="poloto_tick_labels poloto_text" alignment-baseline="start" text-anchor="middle" x="150" y="430" > 00:00</text><line  class="poloto_axis_lines" stroke="black" x1="266.14401858304296" x2="266.14401858304296" y1="400" y2="405" /><text  class="poloto_tick_labels poloto_text" alignment-baseline="start" text-anchor="middle" x="266.14401858304296" y="430" > 06:00</text><line  class="poloto_axis_lines" stroke="black" x1="382.2880371660859" x2="382.2880371660859" y1="400" y2="405" /><text  class="poloto_tick_labels poloto_text" alignment-baseline="start" text-anchor="middle" x="382.2880371660859" y="430" > 11:00</text><line  class="poloto_axis_lines" stroke="black" x1="498.4320557491289" x2="498.4320557491289" y1="400" y2="405" /><text  class="poloto_tick_labels poloto_text" alignment-baseline="start" text-anchor="middle" x="498.4320557491289" y="430" > 17:00</text><line  class="poloto_axis_lines" stroke="black" x1="614.5760743321719" x2="614.5760743321719" y1="400" y2="405" /><text  class="poloto_tick_labels poloto_text" alignment-baseline="start" text-anchor="middle" x="614.5760743321719" y="430" > 22:00</text><line  class="poloto_axis_lines" stroke="black" x1="150" x2="144" y1="368.20603907637656" y2="368.20603907637656" /><text  class="poloto_tick_labels poloto_text" alignment-baseline="middle" text-anchor="end" x="135" y="368.20603907637656" > 1000</text><line  class="poloto_axis_lines" stroke="black" x1="150" x2="144" y1="279.3960923623446" y2="279.3960923623446" /><text  class="poloto_tick_labels poloto_text" alignment-baseline="middle" text-anchor="end" x="135" y="279.3960923623446" > 1500</text><line  class="poloto_axis_lines" stroke="black" x1="150" x2="144" y1="190.5861456483126" y2="190.5861456483126" /><text  class="poloto_tick_labels poloto_text" alignment-baseline="middle" text-anchor="end" x="135" y="190.5861456483126" > 2000</text><line  class="poloto_axis_lines" stroke="black" x1="150" x2="144" y1="101.77619893428061" y2="101.77619893428061" /><text  class="poloto_tick_labels poloto_text" alignment-baseline="middle" text-anchor="end" x="135" y="101.77619893428061" > 2500</text><path  stroke="black" fill="none" class="poloto_axis_lines" style="stroke-dasharray:14.518002322880372;stroke-dashoffset:-0;" d=" M 150 400 L 650 400" /><path  stroke="black" fill="none" class="poloto_axis_lines" style="stroke-dasharray:8.880994671403197;stroke-dashoffset:-31.793960923623473;" d=" M 150 400 L 150 100" /></svg>