<svg class="poloto" width="800" height="500" viewBox="0 0 800 500" xmlns="http://www.w3.org/2000/svg"><style>.poloto { stroke-linecap:round; stroke-linejoin:round; font-family: 'Tahoma', sans-serif; background-color: AliceBlue;} .poloto_scatter{stroke-width:7} .poloto_line{stroke-width:2} .poloto_text{fill: black;} .poloto_axis_lines{stroke: black;stroke-width:3;fill:none;stroke-dasharray:none} .poloto0stroke{stroke:  blue;} .poloto1stroke{stroke:  red;} .poloto2stroke{stroke:  green;} .poloto3stroke{stroke:  gold;} .poloto4stroke{stroke:  aqua;} .poloto5stroke{stroke:  lime;} .poloto6stroke{stroke:  orange;} .poloto7stroke{stroke:  chocolate;} .poloto0fill{fill:blue;} .poloto1fill{fill:red;} .poloto2fill{fill:green;} .poloto3fill{fill:gold;} .poloto4fill{fill:aqua;} .poloto5fill{fill:lime;} .poloto6fill{fill:orange;} .poloto7fill{fill:chocolate;}</style><text  class="poloto_text poloto_legend_text" alignment-baseline="middle" text-anchor="start" font-size="large" x="675" y="100" ></text><path  class="poloto_linefill poloto0fill" d=" M 150 400 L 150 352.18461538461537 L 151.74216027874564 352.9230769230769 L 153.4843205574913 344.61538461538464 L 155.22648083623693 343.5076923076923 L 156.96864111498257 348.86153846153843 L 158.71080139372822 352.55384615384617 L 160.45296167247386 359.38461538461536 L 162.1951219512195 364.36923076923074 L 163.93728222996515 371.2 L 165.6794425087108 373.4153846153846 L 167.42160278745644 376.18461538461537 L 169.16376306620208 376.73846153846154 L 170.90592334494772 377.4769230769231 L 172.64808362369337 380.9846153846154 L 174.390243902439 384.12307692307695 L 176.13240418118465 380.24615384615385 L 177.8745644599303 384.67692307692306 L 179.61672473867597 387.63076923076926 L 181.3588850174216 388 L 183.10104529616726 392.9846153846154 L 184.8432055749129 393.1692307692308 L 186.58536585365854 388.55384615384617 L 188.3275261324042 380.61538461538464 L 190.06968641114983 381.3538461538461 L 191.81184668989548 383.9384615384615 L 193.55400696864112 382.6461538461539 L 195.29616724738676 376.36923076923074 L 197.0383275261324 378.5846153846154 L 198.78048780487805 373.4153846153846 L 200.5226480836237 373.7846153846154 L 202.26480836236934 378.5846153846154 L 204.00696864111498 378.4 L 205.74912891986062 374.89230769230767 L 207.49128919860627 373.04615384615386 L 209.2334494773519 373.4153846153846 L 210.97560975609755 371.0153846153846 L 212.7177700348432 364.36923076923074 L 214.45993031358887 366.03076923076924 L 216.2020905923345 369.9076923076923 L 217.94425087108016 368.79999999999995 L 219.6864111498258 369.1692307692308 L 221.42857142857144 375.0769230769231 L 223.1707317073171 380.61538461538464 L 224.91289198606273 387.0769230769231 L 226.65505226480838 400 L 228.39721254355402 392.79999999999995 L 230.13937282229966 392.9846153846154 L 231.8815331010453 390.03076923076924 L 233.62369337979095 385.2307692307692 L 235.3658536585366 379.13846153846157 L 237.10801393728224 381.9076923076923 L 238.85017421602788 381.53846153846155 L 240.59233449477352 373.6 L 242.33449477351917 368.79999999999995 L 244.0766550522648 366.95384615384614 L 245.81881533101046 364.9230769230769 L 247.5609756097561 370.8307692307692 L 249.30313588850174 372.67692307692306 L 251.0452961672474 371.38461538461536 L 252.78745644599303 375.63076923076926 L 254.52961672473867 368.0615384615385 L 256.2717770034843 359.5692307692308 L 258.01393728222996 373.96923076923076 L 259.7560975609756 369.3538461538461 L 261.49825783972125 366.7692307692308 L 263.2404181184669 368.0615384615385 L 264.98257839721254 364.36923076923074 L 266.7247386759582 365.10769230769233 L 268.4668989547038 368.24615384615385 L 270.20905923344947 364.36923076923074 L 271.9512195121951 364 L 273.69337979094075 358.6461538461539 L 275.4355400696864 356.9846153846154 L 277.17770034843204 356.61538461538464 L 278.9198606271777 358.6461538461539 L 280.6620209059233 359.75384615384615 L 282.40418118466897 357.3538461538461 L 284.1463414634146 353.8461538461538 L 285.88850174216026 349.04615384615386 L 287.6306620209059 341.10769230769233 L 289.37282229965155 337.04615384615386 L 291.1149825783972 341.10769230769233 L 292.85714285714283 340.9230769230769 L 294.5993031358885 337.6 L 296.3414634146342 336.4923076923077 L 298.08362369337976 331.69230769230774 L 299.82578397212546 321.72307692307686 L 301.56794425087105 321.1692307692308 L 303.31010452961675 317.8461538461538 L 305.05226480836234 320.79999999999995 L 306.79442508710804 318.03076923076924 L 308.5365853658536 316.55384615384617 L 310.2787456445993 308.0615384615385 L 312.0209059233449 310.6461538461539 L 313.7630662020906 303.8153846153846 L 315.5052264808362 302.70769230769235 L 317.2473867595819 311.20000000000005 L 318.9895470383275 312.30769230769226 L 320.7317073170732 308.79999999999995 L 322.4738675958188 304.9230769230769 L 324.2160278745645 297.53846153846155 L 325.95818815331006 302.89230769230767 L 327.70034843205576 300.30769230769226 L 329.44250871080135 296.61538461538464 L 331.18466898954705 291.2615384615384 L 332.92682926829264 296.2461538461538 L 334.66898954703834 295.69230769230774 L 336.4111498257839 289.78461538461534 L 338.1533101045296 286.0923076923077 L 339.8954703832752 285.9076923076923 L 341.6376306620209 282.95384615384614 L 343.3797909407665 280.55384615384617 L 345.1219512195122 268.9230769230769 L 346.86411149825784 263.20000000000005 L 348.6062717770035 260.0615384615385 L 350.34843205574913 254.5230769230769 L 352.0905923344948 258.95384615384614 L 353.8327526132404 252.12307692307692 L 355.57491289198606 244.1846153846154 L 357.3170731707317 248.79999999999998 L 359.05923344947735 244.55384615384614 L 360.801393728223 236.43076923076924 L 362.54355400696863 234.21538461538458 L 364.2857142857143 236.98461538461535 L 366.0278745644599 233.1076923076923 L 367.77003484320556 229.6 L 369.5121951219512 223.50769230769228 L 371.25435540069685 226.27692307692305 L 372.9965156794425 224.79999999999998 L 374.73867595818814 223.87692307692308 L 376.4808362369338 220.36923076923077 L 378.2229965156794 220.92307692307693 L 379.96515679442507 221.47692307692304 L 381.7073170731707 218.15384615384616 L 383.44947735191636 218.8923076923077 L 385.191637630662 208.36923076923077 L 386.93379790940764 204.3076923076923 L 388.6759581881533 201.53846153846152 L 390.41811846689893 202.46153846153842 L 392.1602787456446 203.0153846153846 L 393.9024390243902 198.21538461538458 L 395.6445993031359 205.04615384615383 L 397.3867595818815 202.46153846153842 L 399.1289198606272 206.8923076923077 L 400.8710801393728 207.26153846153844 L 402.6132404181185 211.6923076923077 L 404.3554006968641 217.04615384615383 L 406.0975609756097 211.13846153846154 L 407.83972125435537 202.27692307692305 L 409.581881533101 195.07692307692307 L 411.32404181184666 192.6769230769231 L 413.0662020905923 190.64615384615385 L 414.80836236933794 183.99999999999997 L 416.5505226480836 191.19999999999996 L 418.29268292682923 185.66153846153847 L 420.0348432055749 186.76923076923075 L 421.7770034843206 180.49230769230766 L 423.5191637630662 175.87692307692308 L 425.26132404181186 172.55384615384614 L 427.0034843205575 168.3076923076923 L 428.74564459930315 160.36923076923077 L 430.4878048780488 157.6 L 432.22996515679444 155.9384615384615 L 433.9721254355401 155.56923076923076 L 435.7142857142857 170.15384615384616 L 437.45644599303137 154.09230769230768 L 439.198606271777 147.26153846153844 L 440.94076655052265 150.58461538461538 L 442.6829268292683 142.8307692307692 L 444.42508710801394 148.55384615384614 L 446.1672473867596 141.1692307692308 L 447.9094076655052 138.5846153846154 L 449.65156794425087 132.4923076923077 L 451.3937282229965 128.43076923076922 L 453.13588850174216 126.39999999999998 L 454.8780487804878 128.2461538461538 L 456.62020905923345 133.78461538461534 L 458.3623693379791 120.86153846153843 L 460.10452961672473 114.95384615384614 L 461.8466898954704 117.72307692307686 L 463.588850174216 113.47692307692307 L 465.33101045296166 118.46153846153845 L 467.0731707317073 113.47692307692307 L 468.81533101045295 119.56923076923078 L 470.5574912891986 119.01538461538462 L 472.29965156794424 110.52307692307693 L 474.0418118466899 112.18461538461531 L 475.7839721254355 110.70769230769224 L 477.52613240418117 104.79999999999995 L 479.2682926829268 100.73846153846148 L 481.01045296167246 100 L 482.7526132404181 108.86153846153843 L 484.49477351916374 110.89230769230767 L 486.2369337979094 119.19999999999993 L 487.97909407665503 109.60000000000002 L 489.7212543554007 109.60000000000002 L 491.4634146341463 115.13846153846157 L 493.20557491289196 116.79999999999995 L 494.9477351916376 119.01538461538462 L 496.68989547038325 110.89230769230767 L 498.4320557491289 107.01538461538462 L 500.17421602787454 107.38461538461536 L 501.9163763066202 111.44615384615383 L 503.6585365853658 112.9230769230769 L 505.40069686411147 119.19999999999993 L 507.1428571428571 122.3384615384615 L 508.88501742160275 129.72307692307686 L 510.6271777003484 138.5846153846154 L 512.3693379790941 140.06153846153848 L 514.1114982578397 147.07692307692307 L 515.8536585365853 150.0307692307692 L 517.595818815331 141.53846153846155 L 519.3379790940767 147.4461538461538 L 521.0801393728223 146.33846153846153 L 522.822299651568 149.29230769230767 L 524.5644599303137 155.75384615384613 L 526.3066202090592 160.18461538461534 L 528.0487804878048 156.6769230769231 L 529.7909407665505 166.64615384615385 L 531.5331010452962 167.56923076923076 L 533.2752613240418 173.29230769230767 L 535.0174216027874 176.79999999999998 L 536.7595818815331 179.75384615384613 L 538.5017421602788 188.24615384615382 L 540.2439024390244 185.84615384615384 L 541.98606271777 183.99999999999997 L 543.7282229965157 185.29230769230767 L 545.4703832752614 188.06153846153845 L 547.212543554007 189.53846153846152 L 548.9547038327526 192.86153846153846 L 550.6968641114983 192.49230769230766 L 552.439024390244 196.7384615384615 L 554.1811846689895 193.41538461538462 L 555.9233449477351 198.21538461538458 L 557.6655052264808 203.75384615384613 L 559.4076655052265 207.63076923076923 L 561.1498257839721 207.26153846153844 L 562.8919860627177 209.29230769230767 L 564.6341463414634 202.09230769230768 L 566.3763066202091 202.09230769230768 L 568.1184668989547 207.63076923076923 L 569.8606271777003 214.09230769230768 L 571.602787456446 219.8153846153846 L 573.3449477351917 215.75384615384613 L 575.0871080139373 218.33846153846153 L 576.8292682926829 214.27692307692305 L 578.5714285714286 214.27692307692305 L 580.3135888501743 210.21538461538458 L 582.0557491289198 213.90769230769232 L 583.7979094076654 221.1076923076923 L 585.5400696864111 215.75384615384613 L 587.2822299651568 216.6769230769231 L 589.0243902439024 236.43076923076924 L 590.766550522648 237.35384615384615 L 592.5087108013937 234.58461538461538 L 594.2508710801394 233.66153846153847 L 595.993031358885 238.27692307692305 L 597.7351916376306 233.47692307692304 L 599.4773519163763 226.83076923076922 L 601.219512195122 223.13846153846154 L 602.9616724738676 223.50769230769228 L 604.7038327526132 228.86153846153846 L 606.4459930313589 233.1076923076923 L 608.1881533101046 231.63076923076923 L 609.9303135888501 238.46153846153842 L 611.6724738675957 248.79999999999998 L 613.4146341463414 254.33846153846153 L 615.1567944250871 254.15384615384616 L 616.8989547038327 250.27692307692305 L 618.6411149825783 260.2461538461538 L 620.383275261324 264.4923076923077 L 622.1254355400697 272.61538461538464 L 623.8675958188153 268.1846153846154 L 625.609756097561 276.86153846153843 L 627.3519163763067 272.2461538461538 L 629.0940766550523 277.4153846153846 L 630.8362369337979 283.69230769230774 L 632.5783972125436 287.20000000000005 L 634.3205574912893 293.10769230769233 L 636.0627177700349 296.61538461538464 L 637.8048780487804 289.78461538461534 L 639.5470383275261 296.0615384615385 L 641.2891986062718 306.4 L 643.0313588850174 303.0769230769231 L 644.773519163763 301.78461538461534 L 646.5156794425087 312.6769230769231 L 648.2578397212544 326.5230769230769 L 650 332.79999999999995 L 650 400 Z" /><text  class="poloto_labels poloto_text poloto_title" alignment-baseline="start" text-anchor="middle" font-size="x-large" x="400" y="37.5" >Total players on 2021-06-14</text><text  class="poloto_labels poloto_text poloto_xname" alignment-baseline="start" text-anchor="middle" font-size="x-large" x="400" y="481.25" >Time</text><text  class="poloto_labels poloto_text poloto_yname" alignment-baseline="start" text-anchor="middle" font-size="x-large" transform="rotate(-90,37.5,250)" x="37.5" y="250" >Count</text><line  class="poloto_axis_lines" stroke="black" x1="208.0487804878049" x2="208.0487804878049" y1="400" y2="405" /><text  class="poloto_tick_labels poloto_text" alignment-baseline="start" text-anchor="middle" x="208.0487804878049" y="430" > 02:46:40</text><line  class="poloto_axis_lines" stroke="black" x1="266.1207897793264" x2="266.1207897793264" y1="400" y2="405" /><text  class="poloto_tick_labels poloto_text" alignment-baseline="start" text-anchor="middle" x="266.1207897793264" y="430" > 05:33:20</text><line  class="poloto_axis_lines" stroke="black" x1="324.19279907084785" x2="324.19279907084785" y1="400" y2="405" /><text  class="poloto_tick_labels poloto_text" alignment-baseline="start" text-anchor="middle" x="324.19279907084785" y="430" > 08:20:00</text><line  class="poloto_axis_lines" stroke="black" x1="382.2648083623693" x2="382.2648083623693" y1="400" y2="405" /><text  class="poloto_tick_labels poloto_text" alignment-baseline="start" text-anchor="middle" x="382.2648083623693" y="430" > 11:06:40</text><line  class="poloto_axis_lines" stroke="black" x1="440.3368176538908" x2="440.3368176538908" y1="400" y2="405" /><text  class="poloto_tick_labels poloto_text" alignment-baseline="start" text-anchor="middle" x="440.3368176538908" y="430" > 13:53:20</text><line  class="poloto_axis_lines" stroke="black" x1="498.4088269454123" x2="498.4088269454123" y1="400" y2="405" /><text  class="poloto_tick_labels poloto_text" alignment-baseline="start" text-anchor="middle" x="498.4088269454123" y="430" > 16:40:00</text><line  class="poloto_axis_lines" stroke="black" x1="556.4808362369338" x2="556.4808362369338" y1="400" y2="405" /><text  class="poloto_tick_labels poloto_text" alignment-baseline="start" text-anchor="middle" x="556.4808362369338" y="430" > 19:26:40</text><line  class="poloto_axis_lines" stroke="black" x1="614.5528455284552" x2="614.5528455284552" y1="400" y2="405" /><text  class="poloto_tick_labels poloto_text" alignment-baseline="start" text-anchor="middle" x="614.5528455284552" y="430" > 22:13:20</text><line  class="poloto_axis_lines" stroke="black" x1="150" x2="144" y1="316.7384615384615" y2="316.7384615384615" /><text  class="poloto_tick_labels poloto_text" alignment-baseline="middle" text-anchor="end" x="135" y="316.7384615384615" > 1500</text><line  class="poloto_axis_lines" stroke="black" x1="150" x2="144" y1="224.43076923076922" y2="224.43076923076922" /><text  class="poloto_tick_labels poloto_text" alignment-baseline="middle" text-anchor="end" x="135" y="224.43076923076922" > 2000</text><line  class="poloto_axis_lines" stroke="black" x1="150" x2="144" y1="132.12307692307695" y2="132.12307692307695" /><text  class="poloto_tick_labels poloto_text" alignment-baseline="middle" text-anchor="end" x="135" y="132.12307692307695" > 2500</text><path  stroke="black" fill="none" class="poloto_axis_lines" style="stroke-dasharray:14.518002322880372;stroke-dashoffset:-58.04878048780488;" d=" M 150 400 L 650 400" /><path  stroke="black" fill="none" class="poloto_axis_lines" style="stroke-dasharray:9.23076923076923;stroke-dashoffset:-83.26153846153849;" d=" M 150 400 L 150 100" /></svg>