<svg class="poloto" width="800" height="500" viewBox="0 0 800 500" xmlns="http://www.w3.org/2000/svg"><style>.poloto { stroke-linecap:round; stroke-linejoin:round; font-family: 'Tahoma', sans-serif; background-color: AliceBlue;} .poloto_scatter{stroke-width:7} .poloto_line{stroke-width:2} .poloto_text{fill: black;} .poloto_axis_lines{stroke: black;stroke-width:3;fill:none;stroke-dasharray:none} .poloto0stroke{stroke:  blue;} .poloto1stroke{stroke:  red;} .poloto2stroke{stroke:  green;} .poloto3stroke{stroke:  gold;} .poloto4stroke{stroke:  aqua;} .poloto5stroke{stroke:  lime;} .poloto6stroke{stroke:  orange;} .poloto7stroke{stroke:  chocolate;} .poloto0fill{fill:blue;} .poloto1fill{fill:red;} .poloto2fill{fill:green;} .poloto3fill{fill:gold;} .poloto4fill{fill:aqua;} .poloto5fill{fill:lime;} .poloto6fill{fill:orange;} .poloto7fill{fill:chocolate;}</style><text  class="poloto_text poloto_legend_text" alignment-baseline="middle" text-anchor="start" font-size="large" x="675" y="100" ></text><path  class="poloto_linefill poloto0fill" d=" M 150 400 L 150 386.2473347547974 L 151.74216027874564 389.4456289978678 L 153.4843205574913 387.046908315565 L 155.22648083623693 387.6865671641791 L 156.96864111498257 388.4861407249467 L 158.71080139372822 389.28571428571433 L 160.45296167247386 391.2046908315565 L 162.1951219512195 394.4029850746269 L 163.93728222996515 398.7206823027719 L 165.6794425087108 399.68017057569296 L 167.42160278745644 393.4434968017058 L 169.16376306620208 396.64179104477614 L 170.90592334494772 400 L 172.64808362369337 396.4818763326226 L 174.390243902439 392.1641791044776 L 176.13240418118465 390.0852878464819 L 177.8745644599303 394.08315565031984 L 179.61672473867597 392.48400852878467 L 181.3588850174216 391.04477611940297 L 183.10104529616726 390.7249466950959 L 184.8432055749129 389.4456289978678 L 186.58536585365854 385.9275053304904 L 188.3275261324042 383.68869936034116 L 190.06968641114983 381.4498933901919 L 191.81184668989548 373.13432835820896 L 193.55400696864112 367.2174840085288 L 195.29616724738676 369.29637526652454 L 197.0383275261324 366.25799573560766 L 198.78048780487805 366.4179104477612 L 200.5226480836237 364.498933901919 L 202.26480836236934 365.9381663113006 L 204.00696864111498 367.3773987206823 L 205.74912891986062 368.33688699360346 L 207.49128919860627 363.3795309168444 L 209.2334494773519 362.1002132196162 L 210.97560975609755 359.2217484008529 L 212.7177700348432 364.179104477612 L 214.45993031358887 359.3816631130064 L 216.2020905923345 364.179104477612 L 217.94425087108016 366.5778251599147 L 219.6864111498258 371.85501066098084 L 221.42857142857144 370.2558635394456 L 223.1707317073171 364.3390191897655 L 224.91289198606273 363.3795309168444 L 226.65505226480838 363.5394456289979 L 228.39721254355402 359.2217484008529 L 230.13937282229966 354.7441364605544 L 231.8815331010453 351.54584221748405 L 233.62369337979095 354.9040511727079 L 235.3658536585366 354.9040511727079 L 237.10801393728224 354.7441364605544 L 238.85017421602788 354.9040511727079 L 240.59233449477352 352.50533049040513 L 242.33449477351917 349.30703624733474 L 244.0766550522648 352.3454157782516 L 245.81881533101046 349.1471215351812 L 247.5609756097561 351.7057569296376 L 249.30313588850174 349.7867803837953 L 251.0452961672474 350.10660980810235 L 252.78745644599303 345.4690831556503 L 254.52961672473867 343.39019189765463 L 256.2717770034843 343.0703624733476 L 258.01393728222996 337.15351812366737 L 259.7560975609756 340.83155650319827 L 261.49825783972125 341.6311300639659 L 263.2404181184669 342.75053304904054 L 264.98257839721254 345.78891257995735 L 266.7247386759582 343.0703624733476 L 268.4668989547038 341.1513859275053 L 270.20905923344947 342.91044776119406 L 271.9512195121951 339.55223880597015 L 273.69337979094075 335.87420042643924 L 275.4355400696864 337.63326226012794 L 277.17770034843204 333.1556503198294 L 278.91986062717774 328.03837953091687 L 280.6620209059233 320.5223880597015 L 282.404181184669 323.40085287846483 L 284.1463414634146 320.5223880597015 L 285.8885017421603 320.0426439232409 L 287.6306620209059 316.36460554371 L 289.3728222996516 320.36247334754796 L 291.1149825783972 313.8059701492537 L 292.8571428571429 314.2857142857143 L 294.5993031358885 315.724946695096 L 296.3414634146342 309.16844349680173 L 298.08362369337976 313.8059701492537 L 299.82578397212546 308.68869936034116 L 301.56794425087105 312.5266524520256 L 303.31010452961675 309.16844349680173 L 305.05226480836234 304.85074626865674 L 306.79442508710804 298.61407249466953 L 308.5365853658536 297.8144989339019 L 310.2787456445993 293.01705756929636 L 312.0209059233449 291.09808102345414 L 313.7630662020906 286.94029850746267 L 315.5052264808362 281.0234541577825 L 317.2473867595819 282.3027718550107 L 318.9895470383275 279.9040511727079 L 320.7317073170732 275.74626865671644 L 322.4738675958188 272.3880597014925 L 324.2160278745645 276.0660980810235 L 325.9581881533101 272.8678038379531 L 327.70034843205576 271.42857142857144 L 329.4425087108014 267.27078891258 L 331.18466898954705 262.79317697228146 L 332.9268292682927 257.0362473347548 L 334.66898954703834 253.99786780383795 L 336.411149825784 258.1556503198294 L 338.1533101045296 253.6780383795309 L 339.89547038327527 247.76119402985074 L 341.6376306620209 242.0042643923241 L 343.37979094076655 242.80383795309172 L 345.1219512195122 243.28358208955223 L 346.86411149825784 244.40298507462688 L 348.6062717770035 244.72281449893393 L 350.34843205574913 237.84648187633263 L 352.0905923344948 234.64818763326224 L 353.8327526132404 230.49040511727077 L 355.57491289198606 227.93176972281452 L 357.3170731707317 220.8955223880597 L 359.05923344947735 221.37526652452027 L 360.801393728223 214.81876332622602 L 362.54355400696863 213.37953091684437 L 364.2857142857143 225.8528784648188 L 366.0278745644599 216.89765458422175 L 367.77003484320556 218.01705756929636 L 369.5121951219512 216.09808102345414 L 371.25435540069685 218.65671641791045 L 372.9965156794425 217.2174840085288 L 374.73867595818814 219.61620469083158 L 376.4808362369338 222.17484008528783 L 378.2229965156795 219.136460554371 L 379.96515679442507 223.93390191897657 L 381.70731707317077 218.17697228144988 L 383.44947735191636 227.93176972281452 L 385.19163763066206 228.8912579957356 L 386.93379790940764 226.0127931769723 L 388.67595818815334 222.81449893390192 L 390.41811846689893 222.0149253731343 L 392.16027874564463 216.4179104477612 L 393.9024390243902 213.21961620469085 L 395.6445993031359 205.863539445629 L 397.3867595818815 201.38592750533047 L 399.1289198606272 194.50959488272923 L 400.8710801393728 194.02985074626866 L 402.6132404181185 195.14925373134326 L 404.3554006968641 191.95095948827293 L 406.0975609756098 184.9147121535181 L 407.8397212543554 176.43923240938165 L 409.58188153310107 173.40085287846483 L 411.3240418118467 169.40298507462688 L 413.06620209059236 167.96375266524518 L 414.808362369338 154.6908315565032 L 416.55052264808364 147.33475479744135 L 418.2926829268293 146.5351812366738 L 420.03484320557493 148.93390191897657 L 421.7770034843206 145.0959488272921 L 423.5191637630662 154.05117270788912 L 425.26132404181186 150.53304904051174 L 427.0034843205575 146.37526652452027 L 428.74564459930315 138.53944562899784 L 430.4878048780488 135.18123667377398 L 432.22996515679444 129.9040511727079 L 433.9721254355401 125.58635394456292 L 435.7142857142857 125.74626865671644 L 437.45644599303137 119.82942430703622 L 439.198606271777 122.54797441364605 L 440.94076655052265 114.8720682302772 L 442.6829268292683 120.62899786780383 L 444.42508710801394 103.19829424307034 L 446.1672473867596 100 L 447.9094076655052 104.47761194029852 L 449.65156794425087 113.59275053304901 L 451.3937282229965 111.35394456289981 L 453.13588850174216 118.71002132196162 L 454.8780487804878 124.46695095948826 L 456.62020905923345 118.39019189765457 L 458.3623693379791 119.18976545842219 L 460.10452961672473 107.51599147121533 L 461.8466898954704 107.51599147121533 L 463.588850174216 110.5543710021322 L 465.33101045296166 115.9914712153518 L 467.0731707317073 113.43283582089555 L 468.81533101045295 115.51172707889128 L 470.5574912891986 113.43283582089555 L 472.29965156794424 115.67164179104475 L 474.0418118466899 118.07036247334753 L 475.7839721254355 129.58422174840086 L 477.52613240418117 131.18336886993603 L 479.2682926829268 127.9850746268657 L 481.01045296167246 129.7441364605544 L 482.7526132404181 124.30703624733474 L 484.49477351916374 109.75479744136459 L 486.2369337979094 118.86993603411514 L 487.97909407665503 119.66950959488275 L 489.7212543554007 124.94669509594883 L 491.4634146341463 128.14498933901916 L 493.20557491289196 135.02132196162046 L 494.9477351916376 148.77398720682305 L 496.68989547038325 151.81236673773986 L 498.4320557491289 158.84861407249468 L 500.17421602787454 160.7675906183369 L 501.91637630662024 170.682302771855 L 503.6585365853659 177.07889125799574 L 505.4006968641115 180.1172707889126 L 507.14285714285717 186.51385927505328 L 508.8850174216028 190.51172707889128 L 510.62717770034845 198.50746268656718 L 512.3693379790941 198.18763326226014 L 514.1114982578397 193.71002132196162 L 515.8536585365854 200.10660980810235 L 517.5958188153311 203.62473347547973 L 519.3379790940767 210.9808102345416 L 521.0801393728223 215.13859275053306 L 522.822299651568 228.57142857142856 L 524.5644599303137 229.21108742004265 L 526.3066202090592 231.76972281449895 L 528.0487804878048 237.20682302771854 L 529.7909407665505 249.3603411513859 L 531.5331010452962 249.52025586353943 L 533.2752613240418 250.47974413646057 L 535.0174216027874 257.19616204690834 L 536.7595818815331 257.67590618336885 L 538.5017421602788 259.7547974413646 L 540.2439024390244 261.99360341151385 L 541.98606271777 262.15351812366737 L 543.7282229965157 266.7910447761194 L 545.4703832752614 261.1940298507463 L 547.212543554007 262.63326226012794 L 548.9547038327526 262.4733475479744 L 550.6968641114983 263.91257995735606 L 552.439024390244 266.1513859275053 L 554.1811846689895 263.1130063965885 L 555.9233449477351 262.79317697228146 L 557.6655052264808 260.7142857142857 L 559.4076655052265 261.51385927505333 L 561.1498257839721 262.15351812366737 L 562.8919860627177 268.7100213219616 L 564.6341463414634 273.0277185501066 L 566.3763066202091 276.0660980810235 L 568.1184668989547 275.74626865671644 L 569.8606271777003 281.98294243070364 L 571.602787456446 289.6588486140725 L 573.3449477351917 297.6545842217484 L 575.0871080139373 290.61833688699363 L 576.8292682926829 281.5031982942431 L 578.5714285714286 285.501066098081 L 580.3135888501743 290.4584221748401 L 582.0557491289198 296.5351812366738 L 583.7979094076654 282.6226012793177 L 585.5400696864111 281.5031982942431 L 587.2822299651568 280.54371002132194 L 589.0243902439024 286.6204690831557 L 590.766550522648 291.25799573560766 L 592.5087108013937 291.5778251599147 L 594.2508710801394 297.8144989339019 L 595.993031358885 299.25373134328356 L 597.7351916376306 298.77398720682305 L 599.4773519163763 303.25159914712157 L 601.219512195122 301.0127931769723 L 602.9616724738676 303.09168443496804 L 604.7038327526133 309.4882729211088 L 606.445993031359 308.68869936034116 L 608.1881533101046 308.2089552238806 L 609.9303135888501 308.68869936034116 L 611.6724738675958 317.1641791044776 L 613.4146341463415 320.0426439232409 L 615.1567944250871 323.7206823027719 L 616.8989547038327 330.43710021321965 L 618.6411149825784 325 L 620.3832752613241 331.39658848614073 L 622.1254355400697 335.3944562899787 L 623.8675958188153 343.86993603411514 L 625.609756097561 347.06823027718553 L 627.3519163763067 344.6695095948827 L 629.0940766550523 342.75053304904054 L 630.8362369337979 349.30703624733474 L 632.5783972125436 349.30703624733474 L 634.3205574912893 353.9445628997868 L 636.0627177700349 355.22388059701495 L 637.8048780487804 358.5820895522388 L 639.5470383275261 353.9445628997868 L 641.2891986062718 357.46268656716416 L 643.0313588850174 361.4605543710021 L 644.773519163763 363.3795309168444 L 646.5156794425087 365.9381663113006 L 648.2578397212544 362.42004264392324 L 650 359.70149253731347 L 650 400 Z" /><text  class="poloto_labels poloto_text poloto_title" alignment-baseline="start" text-anchor="middle" font-size="x-large" x="400" y="37.5" >Total players on 2021-11-27</text><text  class="poloto_labels poloto_text poloto_xname" alignment-baseline="start" text-anchor="middle" font-size="x-large" x="400" y="481.25" >Time</text><text  class="poloto_labels poloto_text poloto_yname" alignment-baseline="start" text-anchor="middle" font-size="x-large" transform="rotate(-90,37.5,250)" x="37.5" y="250" >Count</text><line  class="poloto_axis_lines" stroke="black" x1="150" x2="150" y1="400" y2="405" /><text  class="poloto_tick_labels poloto_text" alignment-baseline="start" text-anchor="middle" x="150" y="430" > 00:00:00</text><line  class="poloto_axis_lines" stroke="black" x1="266.14401858304296" x2="266.14401858304296" y1="400" y2="405" /><text  class="poloto_tick_labels poloto_text" alignment-baseline="start" text-anchor="middle" x="266.14401858304296" y="430" > 05:33:20</text><line  class="poloto_axis_lines" stroke="black" x1="382.2880371660859" x2="382.2880371660859" y1="400" y2="405" /><text  class="poloto_tick_labels poloto_text" alignment-baseline="start" text-anchor="middle" x="382.2880371660859" y="430" > 11:06:40</text><line  class="poloto_axis_lines" stroke="black" x1="498.4320557491289" x2="498.4320557491289" y1="400" y2="405" /><text  class="poloto_tick_labels poloto_text" alignment-baseline="start" text-anchor="middle" x="498.4320557491289" y="430" > 16:40:00</text><line  class="poloto_axis_lines" stroke="black" x1="614.5760743321719" x2="614.5760743321719" y1="400" y2="405" /><text  class="poloto_tick_labels poloto_text" alignment-baseline="start" text-anchor="middle" x="614.5760743321719" y="430" > 22:13:20</text><line  class="poloto_axis_lines" stroke="black" x1="150" x2="144" y1="346.1087420042644" y2="346.1087420042644" /><text  class="poloto_tick_labels poloto_text" alignment-baseline="middle" text-anchor="end" x="135" y="346.1087420042644" > 1500</text><line  class="poloto_axis_lines" stroke="black" x1="150" x2="144" y1="266.1513859275053" y2="266.1513859275053" /><text  class="poloto_tick_labels poloto_text" alignment-baseline="middle" text-anchor="end" x="135" y="266.1513859275053" > 2000</text><line  class="poloto_axis_lines" stroke="black" x1="150" x2="144" y1="186.1940298507463" y2="186.1940298507463" /><text  class="poloto_tick_labels poloto_text" alignment-baseline="middle" text-anchor="end" x="135" y="186.1940298507463" > 2500</text><line  class="poloto_axis_lines" stroke="black" x1="150" x2="144" y1="106.2366737739872" y2="106.2366737739872" /><text  class="poloto_tick_labels poloto_text" alignment-baseline="middle" text-anchor="end" x="135" y="106.2366737739872" > 3000</text><path  stroke="black" fill="none" class="poloto_axis_lines" style="stroke-dasharray:14.518002322880372;stroke-dashoffset:-0;" d=" M 150 400 L 650 400" /><path  stroke="black" fill="none" class="poloto_axis_lines" style="stroke-dasharray:7.995735607675907;stroke-dashoffset:-53.8912579957356;" d=" M 150 400 L 150 100" /></svg>