<svg class="poloto" width="800" height="500" viewBox="0 0 800 500" xmlns="http://www.w3.org/2000/svg"><style>.poloto { stroke-linecap:round; stroke-linejoin:round; font-family: 'Tahoma', sans-serif; background-color: AliceBlue;} .poloto_scatter{stroke-width:7} .poloto_line{stroke-width:2} .poloto_text{fill: black;} .poloto_axis_lines{stroke: black;stroke-width:3;fill:none;stroke-dasharray:none} .poloto0stroke{stroke:  blue;} .poloto1stroke{stroke:  red;} .poloto2stroke{stroke:  green;} .poloto3stroke{stroke:  gold;} .poloto4stroke{stroke:  aqua;} .poloto5stroke{stroke:  lime;} .poloto6stroke{stroke:  orange;} .poloto7stroke{stroke:  chocolate;} .poloto0fill{fill:blue;} .poloto1fill{fill:red;} .poloto2fill{fill:green;} .poloto3fill{fill:gold;} .poloto4fill{fill:aqua;} .poloto5fill{fill:lime;} .poloto6fill{fill:orange;} .poloto7fill{fill:chocolate;}</style><text  class="poloto_text poloto_legend_text" alignment-baseline="middle" text-anchor="start" font-size="large" x="675" y="100" ></text><path  class="poloto_linefill poloto0fill" d=" M 150 400 L 150 357.8426521523998 L 151.74216027874564 364.81939633844627 L 153.4843205574913 370.014844136566 L 155.22648083623693 368.3819891142998 L 156.96864111498257 371.05393369619003 L 158.71080139372822 375.21029193468576 L 160.45296167247386 382.33547748639285 L 162.1951219512195 380.70262246412665 L 163.93728222996515 386.19495299356754 L 165.6794425087108 389.46066303809994 L 167.42160278745644 391.2419594260267 L 169.16376306620208 392.72637308263234 L 170.90592334494772 392.8748144482929 L 172.64808362369337 393.91390400791687 L 174.390243902439 396.43740722414645 L 176.13240418118465 400 L 177.8745644599303 394.5076694705591 L 179.61672473867597 391.53884215734786 L 181.3588850174216 392.72637308263234 L 183.10104529616726 398.07026224641265 L 184.8432055749129 394.6561108362197 L 186.58536585365854 395.69520039584364 L 188.3275261324042 395.69520039584364 L 190.06968641114983 395.54675903018307 L 191.81184668989548 394.95299356754083 L 193.55400696864112 394.80455220188026 L 195.29616724738676 395.69520039584364 L 197.0383275261324 399.8515586343394 L 198.78048780487805 394.6561108362197 L 200.5226480836237 390.3513112320633 L 202.26480836236934 388.57001484413655 L 204.00696864111498 384.7105393369619 L 205.74912891986062 381.4448292924295 L 207.49128919860627 382.632360217714 L 209.2334494773519 378.17911924789706 L 210.97560975609755 377.882236516576 L 212.7177700348432 382.4839188520534 L 214.45993031358887 381.14794656110837 L 216.2020905923345 376.2493814943098 L 217.94425087108016 369.7179614052449 L 219.6864111498258 367.4913409203365 L 221.42857142857144 366.30380999505195 L 223.1707317073171 365.56160316674914 L 224.91289198606273 365.1162790697674 L 226.65505226480838 358.88174171202377 L 228.39721254355402 357.8426521523998 L 230.13937282229966 356.06135576447303 L 231.8815331010453 348.7877288471054 L 233.62369337979095 344.77981197427016 L 235.3658536585366 340.7718951014349 L 237.10801393728224 335.8733300346363 L 238.85017421602788 334.2404750123701 L 240.59233449477352 330.67788223651655 L 242.33449477351917 329.63879267689265 L 244.0766550522648 326.96684809500243 L 245.81881533101046 322.365165759525 L 247.5609756097561 315.8337456704602 L 249.30313588850174 312.8649183572489 L 251.0452961672474 316.7243938644235 L 252.78745644599303 315.38842157347847 L 254.52961672473867 311.0836219693221 L 256.2717770034843 307.81791192478966 L 258.01393728222996 304.70064324591783 L 259.7560975609756 307.5210291934686 L 261.49825783972125 309.1538842157348 L 263.2404181184669 306.9272637308263 L 264.98257839721254 306.0366155368629 L 266.7247386759582 302.6224641266699 L 268.4668989547038 301.1380504700643 L 270.20905923344947 299.0598713508165 L 271.9512195121951 301.1380504700643 L 273.69337979094075 305.8881741712024 L 275.4355400696864 302.7709054923305 L 277.17770034843204 306.9272637308263 L 278.91986062717774 306.18505690252346 L 280.6620209059233 310.1929737753587 L 282.404181184669 311.8258287976249 L 284.1463414634146 303.3646709549728 L 285.8885017421603 298.9114299851559 L 287.6306620209059 287.9267689262741 L 289.3728222996516 282.28599703117266 L 291.1149825783972 280.5047006432459 L 292.8571428571429 280.65314200890646 L 294.5993031358885 280.5047006432459 L 296.3414634146342 276.79366650173176 L 298.08362369337976 270.26224641266697 L 299.82578397212546 271.1528946066304 L 301.56794425087105 268.0356259277586 L 303.31010452961675 263.28550222662045 L 305.05226480836234 265.2152399802078 L 306.79442508710804 255.71499257793172 L 308.5365853658536 250.22266204849083 L 310.2787456445993 246.95695200395843 L 312.0209059233449 246.06630380999505 L 313.7630662020906 243.0974764967838 L 315.5052264808362 236.8629391390401 L 317.2473867595819 236.71449777337952 L 318.9895470383275 234.04255319148936 L 320.7317073170732 228.9955467590302 L 322.4738675958188 230.6284017812964 L 324.2160278745645 231.22216724393863 L 325.9581881533101 227.80801583374566 L 327.70034843205576 229.58931222167243 L 329.4425087108014 226.62048490846118 L 331.18466898954705 218.30776843146955 L 332.9268292682927 219.94062345373575 L 334.66898954703834 212.66699653636815 L 336.411149825784 204.35428005937658 L 338.1533101045296 200.3463631865413 L 339.89547038327527 203.90895596239486 L 341.6376306620209 208.51063829787236 L 343.37979094076655 216.9717961405245 L 345.1219512195122 201.08857001484412 L 346.86411149825784 201.9792182088075 L 348.6062717770035 207.02622464126668 L 350.34843205574913 205.54181098466105 L 352.0905923344948 213.85452746165268 L 353.8327526132404 210.14349332013856 L 355.57491289198606 199.6041563582385 L 357.3170731707317 193.51806036615537 L 359.05923344947735 191.14299851558636 L 360.801393728223 196.93221177634834 L 362.54355400696863 192.77585353785256 L 364.2857142857143 184.463137060861 L 366.0278745644599 192.33052944087083 L 367.77003484320556 184.6115784265215 L 369.5121951219512 189.06481939633844 L 371.25435540069685 181.04898565066802 L 372.9965156794425 188.32261256803562 L 374.73867595818814 176.74418604651166 L 376.4808362369338 184.3146956952004 L 378.2229965156795 175.55665512122712 L 379.96515679442507 176.59574468085108 L 381.70731707317077 176.29886194952994 L 383.44947735191636 181.04898565066802 L 385.19163763066206 180.30677882236515 L 386.93379790940764 170.95497278574962 L 388.67595818815334 169.470559129144 L 390.41811846689893 169.61900049480457 L 392.16027874564463 175.7050964868877 L 393.9024390243902 174.8144482929243 L 395.6445993031359 170.36120732310738 L 397.3867595818815 170.50964868876795 L 399.1289198606272 177.18951014349332 L 400.8710801393728 163.08758040573971 L 402.6132404181185 163.53290450272144 L 404.3554006968641 167.98614547253837 L 406.0975609756098 167.98614547253837 L 407.8397212543554 170.50964868876795 L 409.58188153310107 168.87679366650175 L 411.3240418118467 166.9470559129144 L 413.06620209059236 169.02523503216233 L 414.808362369338 171.69717961405243 L 416.55052264808364 173.4784760019792 L 418.2926829268293 173.3300346363187 L 420.03484320557493 159.52498762988623 L 421.7770034843206 151.36071251855518 L 423.5191637630662 159.9703117268679 L 425.26132404181186 144.53240969816923 L 427.0034843205575 147.05591291439882 L 428.74564459930315 146.313706086096 L 430.4878048780488 143.4933201385453 L 432.22996515679444 139.0400791687283 L 433.9721254355401 140.2276100940129 L 435.7142857142857 132.80554181098466 L 437.45644599303137 123.15685304304805 L 439.198606271777 139.33696190004946 L 440.94076655052265 126.86788718456216 L 442.6829268292683 126.57100445324102 L 444.42508710801394 126.27412172191987 L 446.1672473867596 132.6571004453241 L 447.9094076655052 130.13359722909456 L 449.65156794425087 130.28203859475514 L 451.3937282229965 135.62592775853534 L 453.13588850174216 120.6333498268184 L 454.8780487804878 129.985155863434 L 456.62020905923345 124.4928253339931 L 458.3623693379791 121.82088075210288 L 460.10452961672473 123.15685304304805 L 461.8466898954704 108.90648193963386 L 463.588850174216 110.68777832756064 L 465.33101045296166 108.164275111331 L 467.0731707317073 104.00791687283527 L 468.81533101045295 100 L 470.5574912891986 102.37506185056907 L 472.29965156794424 104.00791687283527 L 474.0418118466899 107.42206828302824 L 475.7839721254355 110.24245423057891 L 477.52613240418117 102.67194458189022 L 479.2682926829268 118.40672934190991 L 481.01045296167246 112.91439881246913 L 482.7526132404181 121.37555665512127 L 484.49477351916374 116.92231568530428 L 486.2369337979094 120.03958436417611 L 487.97909407665503 111.13310242454236 L 489.7212543554007 121.52399802078185 L 491.4634146341463 132.80554181098466 L 493.20557491289196 127.01632855022262 L 494.9477351916376 119.44581890153393 L 496.68989547038325 130.57892132607617 L 498.4320557491289 123.00841167738747 L 500.17421602787454 132.80554181098466 L 501.91637630662024 126.42256308758044 L 503.6585365853659 129.24294903513112 L 505.4006968641115 138.14943097476498 L 507.14285714285717 135.18060366155373 L 508.8850174216028 138.89163780306785 L 510.62717770034845 135.62592775853534 L 512.3693379790941 126.71944581890159 L 514.1114982578397 147.50123701138054 L 515.8536585365854 158.3374567046017 L 517.5958188153311 158.18901533894112 L 519.3379790940767 156.11083621969325 L 521.0801393728223 157.89213260761997 L 522.822299651568 164.12666996536367 L 524.5644599303137 170.65809005442853 L 526.3066202090592 172.29094507669473 L 528.0487804878048 174.8144482929243 L 529.7909407665505 177.04106877783275 L 531.5331010452962 178.22859970311728 L 533.2752613240418 187.28352300841166 L 535.0174216027874 196.93221177634834 L 536.7595818815331 195.74468085106386 L 538.5017421602788 205.2449282533399 L 540.2439024390244 207.02622464126668 L 541.98606271777 203.31519049975262 L 543.7282229965157 205.8386937159822 L 545.4703832752614 207.76843146956955 L 547.212543554007 212.0732310737259 L 548.9547038327526 211.92478970806533 L 550.6968641114983 217.56556160316674 L 552.439024390244 225.1360712518555 L 554.1811846689895 218.45620979713013 L 555.9233449477351 215.93270658090054 L 557.6655052264808 228.55022266204847 L 559.4076655052265 235.526966848095 L 561.1498257839721 239.08955962394853 L 562.8919860627177 243.0974764967838 L 564.6341463414634 242.05838693715984 L 566.3763066202091 249.03513112320636 L 568.1184668989547 246.06630380999505 L 569.8606271777003 260.7619990103909 L 571.602787456446 254.5274616526472 L 573.3449477351917 258.0900544285007 L 575.0871080139373 260.9104403760515 L 576.8292682926829 265.2152399802078 L 578.5714285714286 269.37159821870364 L 580.3135888501743 267.73874319643744 L 582.0557491289198 285.9970311726868 L 583.7979094076654 280.9500247402276 L 585.5400696864111 284.51261751608115 L 587.2822299651568 283.7704106877783 L 589.0243902439024 291.48936170212767 L 590.766550522648 285.7001484413656 L 592.5087108013937 287.4814448292924 L 594.2508710801394 286.73923800098964 L 595.993031358885 293.27065809005444 L 597.7351916376306 292.52845126175157 L 599.4773519163763 293.71598218703616 L 601.219512195122 296.2394854032657 L 602.9616724738676 302.91934685799106 L 604.7038327526133 304.997525977239 L 606.445993031359 302.3255813953489 L 608.1881533101046 313.01335972290946 L 609.9303135888501 317.02127659574467 L 611.6724738675958 316.8728352300841 L 613.4146341463415 322.51360712518556 L 615.1567944250871 328.5997031172687 L 616.8989547038327 330.0841167738743 L 618.6411149825784 334.8342404750124 L 620.3832752613241 336.91241959426026 L 622.1254355400697 336.61553686293917 L 623.8675958188153 339.43592281048984 L 625.609756097561 338.24839188520536 L 627.3519163763067 342.9985155863434 L 629.0940766550523 345.8189015338941 L 630.8362369337979 347.7486392874814 L 632.5783972125436 356.3582384957941 L 634.3205574912893 357.100445324097 L 636.0627177700349 361.2568035625928 L 637.8048780487804 362.7412172191984 L 639.5470383275261 365.264720435428 L 641.2891986062718 369.8664027709055 L 643.0313588850174 370.90549233052946 L 644.773519163763 378.17911924789706 L 646.5156794425087 380.8510638297872 L 648.2578397212544 385.00742206828306 L 650 389.0153389411182 L 650 400 Z" /><text  class="poloto_labels poloto_text poloto_title" alignment-baseline="start" text-anchor="middle" font-size="x-large" x="400" y="37.5" >Total players on 2021-10-03</text><text  class="poloto_labels poloto_text poloto_xname" alignment-baseline="start" text-anchor="middle" font-size="x-large" x="400" y="481.25" >Time</text><text  class="poloto_labels poloto_text poloto_yname" alignment-baseline="start" text-anchor="middle" font-size="x-large" transform="rotate(-90,37.5,250)" x="37.5" y="250" >Count</text><line  class="poloto_axis_lines" stroke="black" x1="150" x2="150" y1="400" y2="405" /><text  class="poloto_tick_labels poloto_text" alignment-baseline="start" text-anchor="middle" x="150" y="430" > 00:00:00</text><line  class="poloto_axis_lines" stroke="black" x1="266.14401858304296" x2="266.14401858304296" y1="400" y2="405" /><text  class="poloto_tick_labels poloto_text" alignment-baseline="start" text-anchor="middle" x="266.14401858304296" y="430" > 05:33:20</text><line  class="poloto_axis_lines" stroke="black" x1="382.2880371660859" x2="382.2880371660859" y1="400" y2="405" /><text  class="poloto_tick_labels poloto_text" alignment-baseline="start" text-anchor="middle" x="382.2880371660859" y="430" > 11:06:40</text><line  class="poloto_axis_lines" stroke="black" x1="498.4320557491289" x2="498.4320557491289" y1="400" y2="405" /><text  class="poloto_tick_labels poloto_text" alignment-baseline="start" text-anchor="middle" x="498.4320557491289" y="430" > 16:40:00</text><line  class="poloto_axis_lines" stroke="black" x1="614.5760743321719" x2="614.5760743321719" y1="400" y2="405" /><text  class="poloto_tick_labels poloto_text" alignment-baseline="start" text-anchor="middle" x="614.5760743321719" y="430" > 22:13:20</text><line  class="poloto_axis_lines" stroke="black" x1="150" x2="144" y1="342.9985155863434" y2="342.9985155863434" /><text  class="poloto_tick_labels poloto_text" alignment-baseline="middle" text-anchor="end" x="135" y="342.9985155863434" > 1500</text><line  class="poloto_axis_lines" stroke="black" x1="150" x2="144" y1="268.77783275606134" y2="268.77783275606134" /><text  class="poloto_tick_labels poloto_text" alignment-baseline="middle" text-anchor="end" x="135" y="268.77783275606134" > 2000</text><line  class="poloto_axis_lines" stroke="black" x1="150" x2="144" y1="194.5571499257793" y2="194.5571499257793" /><text  class="poloto_tick_labels poloto_text" alignment-baseline="middle" text-anchor="end" x="135" y="194.5571499257793" > 2500</text><line  class="poloto_axis_lines" stroke="black" x1="150" x2="144" y1="120.33646709549726" y2="120.33646709549726" /><text  class="poloto_tick_labels poloto_text" alignment-baseline="middle" text-anchor="end" x="135" y="120.33646709549726" > 3000</text><path  stroke="black" fill="none" class="poloto_axis_lines" style="stroke-dasharray:14.518002322880372;stroke-dashoffset:-0;" d=" M 150 400 L 650 400" /><path  stroke="black" fill="none" class="poloto_axis_lines" style="stroke-dasharray:7.422068283028203;stroke-dashoffset:-57.00148441365661;" d=" M 150 400 L 150 100" /></svg>