<svg class="poloto" width="800" height="500" viewBox="0 0 800 500" xmlns="http://www.w3.org/2000/svg"><style>.poloto { stroke-linecap:round; stroke-linejoin:round; font-family: 'Tahoma', sans-serif; background-color: AliceBlue;} .poloto_scatter{stroke-width:7} .poloto_line{stroke-width:2} .poloto_text{fill: black;} .poloto_axis_lines{stroke: black;stroke-width:3;fill:none;stroke-dasharray:none} .poloto0stroke{stroke:  blue;} .poloto1stroke{stroke:  red;} .poloto2stroke{stroke:  green;} .poloto3stroke{stroke:  gold;} .poloto4stroke{stroke:  aqua;} .poloto5stroke{stroke:  lime;} .poloto6stroke{stroke:  orange;} .poloto7stroke{stroke:  chocolate;} .poloto0fill{fill:blue;} .poloto1fill{fill:red;} .poloto2fill{fill:green;} .poloto3fill{fill:gold;} .poloto4fill{fill:aqua;} .poloto5fill{fill:lime;} .poloto6fill{fill:orange;} .poloto7fill{fill:chocolate;}</style><text  class="poloto_text poloto_legend_text" alignment-baseline="middle" text-anchor="start" font-size="large" x="675" y="100" ></text><path  class="poloto_linefill poloto0fill" d=" M 150 400 L 150 342.13759213759215 L 151.74216027874564 345.0859950859951 L 153.4843205574913 350.42997542997546 L 155.22648083623693 348.95577395577396 L 156.96864111498257 351.53562653562653 L 158.71080139372822 354.4840294840295 L 160.45296167247386 356.5110565110565 L 162.1951219512195 378.07125307125307 L 163.93728222996515 375.12285012285014 L 165.6794425087108 376.965601965602 L 167.42160278745644 382.12530712530713 L 169.16376306620208 379.72972972972974 L 170.90592334494772 379.9140049140049 L 172.64808362369337 379.9140049140049 L 174.390243902439 384.8894348894349 L 176.13240418118465 385.62653562653566 L 177.8745644599303 385.81081081081084 L 179.61672473867597 386.3636363636364 L 181.3588850174216 387.2850122850123 L 183.10104529616726 383.4152334152334 L 184.8432055749129 384.7051597051597 L 186.58536585365854 391.7076167076167 L 188.3275261324042 392.4447174447174 L 190.06968641114983 393.55036855036855 L 191.81184668989548 395.5773955773956 L 193.55400696864112 397.051597051597 L 195.29616724738676 399.44717444717446 L 197.0383275261324 393.1818181818182 L 198.78048780487805 392.997542997543 L 200.5226480836237 392.07616707616705 L 202.26480836236934 394.2874692874693 L 204.00696864111498 398.71007371007374 L 205.74912891986062 400 L 207.49128919860627 397.6044226044226 L 209.2334494773519 394.4717444717445 L 210.97560975609755 390.970515970516 L 212.7177700348432 383.4152334152334 L 214.45993031358887 383.968058968059 L 216.2020905923345 382.3095823095823 L 217.94425087108016 383.968058968059 L 219.6864111498258 377.7027027027027 L 221.42857142857144 377.14987714987717 L 223.1707317073171 376.04422604422604 L 224.91289198606273 376.04422604422604 L 226.65505226480838 372.9115479115479 L 228.39721254355402 370.7002457002457 L 230.13937282229966 369.2260442260442 L 231.8815331010453 363.51351351351354 L 233.62369337979095 358.90663390663394 L 235.3658536585366 355.03685503685506 L 237.10801393728224 350.982800982801 L 238.85017421602788 351.1670761670762 L 240.59233449477352 356.6953316953317 L 242.33449477351917 353.1941031941032 L 244.0766550522648 350.61425061425064 L 245.81881533101046 346.92874692874693 L 247.5609756097561 340.66339066339066 L 249.30313588850174 333.4766584766585 L 251.0452961672474 334.029484029484 L 252.78745644599303 337.34643734643737 L 254.52961672473867 339.1891891891892 L 256.2717770034843 332.5552825552826 L 258.01393728222996 327.2113022113022 L 259.7560975609756 326.4742014742015 L 261.49825783972125 318.9189189189189 L 263.2404181184669 321.3144963144963 L 264.98257839721254 329.7911547911548 L 266.7247386759582 325.7371007371007 L 268.4668989547038 329.6068796068796 L 270.20905923344947 327.2113022113022 L 271.9512195121951 329.7911547911548 L 273.69337979094075 332.92383292383295 L 275.4355400696864 329.7911547911548 L 277.17770034843204 326.10565110565113 L 278.9198606271777 328.5012285012285 L 280.6620209059233 331.8181818181818 L 282.40418118466897 329.97542997542996 L 284.1463414634146 329.7911547911548 L 285.88850174216026 319.2874692874693 L 287.6306620209059 325.7371007371007 L 289.37282229965155 323.71007371007374 L 291.1149825783972 315.970515970516 L 292.85714285714283 309.8894348894349 L 294.5993031358885 303.992628992629 L 296.3414634146342 307.4938574938575 L 298.08362369337976 308.5995085995086 L 299.82578397212546 299.017199017199 L 301.56794425087105 299.5700245700246 L 303.31010452961675 298.64864864864865 L 305.05226480836234 292.93611793611797 L 306.79442508710804 287.4078624078624 L 308.5365853658536 278.3783783783784 L 310.2787456445993 282.43243243243245 L 312.0209059233449 285.74938574938574 L 313.7630662020906 280.95823095823096 L 315.5052264808362 276.9041769041769 L 317.2473867595819 271.5601965601966 L 318.9895470383275 273.4029484029484 L 320.7317073170732 275.61425061425064 L 322.4738675958188 275.7985257985258 L 324.2160278745645 269.9017199017199 L 325.95818815331006 272.85012285012283 L 327.70034843205576 265.84766584766584 L 329.44250871080135 263.6363636363636 L 331.18466898954705 260.13513513513516 L 332.92682926829264 257.5552825552826 L 334.66898954703834 251.10565110565113 L 336.4111498257839 253.13267813267817 L 338.1533101045296 252.76412776412775 L 339.8954703832752 249.44717444717446 L 341.6376306620209 254.6068796068796 L 343.3797909407665 253.31695331695335 L 345.1219512195122 247.6044226044226 L 346.86411149825784 247.6044226044226 L 348.6062717770035 240.60196560196562 L 350.34843205574913 246.49877149877153 L 352.0905923344948 241.89189189189187 L 353.8327526132404 247.6044226044226 L 355.57491289198606 230.46683046683046 L 357.3170731707317 230.83538083538082 L 359.05923344947735 226.22850122850122 L 360.801393728223 219.77886977886976 L 362.54355400696863 217.75184275184273 L 364.2857142857143 215.54054054054052 L 366.0278745644599 215.90909090909093 L 367.77003484320556 213.8820638820639 L 369.5121951219512 210.38083538083538 L 371.25435540069685 224.20147420147418 L 372.9965156794425 216.2776412776413 L 374.73867595818814 221.25307125307125 L 376.4808362369338 221.8058968058968 L 378.2229965156794 213.14496314496313 L 379.96515679442507 212.77641277641277 L 381.7073170731707 210.74938574938574 L 383.44947735191636 205.03685503685506 L 385.191637630662 203.00982800982803 L 386.93379790940764 205.77395577395578 L 388.6759581881533 198.21867321867325 L 390.41811846689893 200.42997542997546 L 392.1602787456446 195.63882063882062 L 393.9024390243902 185.6879606879607 L 395.6445993031359 193.61179361179364 L 397.3867595818815 188.0835380835381 L 399.1289198606272 191.03194103194102 L 400.8710801393728 190.2948402948403 L 402.6132404181185 181.44963144963145 L 404.3554006968641 184.58230958230956 L 406.1033681765389 189.00491400491399 L 407.83972125435537 189.18918918918922 L 409.581881533101 189.18918918918922 L 411.32404181184666 191.95331695331697 L 413.0662020905923 194.71744471744472 L 414.80836236933794 186.42506142506141 L 416.5505226480836 196.3759213759214 L 418.29268292682923 187.53071253071255 L 420.0348432055749 182.18673218673217 L 421.7770034843206 182.92383292383295 L 423.5191637630662 177.3955773955774 L 425.26132404181186 171.49877149877153 L 427.0034843205575 172.23587223587225 L 428.74564459930315 162.6535626535627 L 430.4878048780488 156.5724815724816 L 432.22996515679444 151.22850122850122 L 433.9721254355401 139.8034398034398 L 435.7142857142857 144.4103194103194 L 437.45644599303137 153.25552825552825 L 439.198606271777 147.1744471744472 L 440.94076655052265 139.43488943488944 L 442.6829268292683 141.83046683046683 L 444.42508710801394 141.2776412776413 L 446.1672473867596 139.8034398034398 L 447.9094076655052 132.61670761670763 L 449.65156794425087 133.35380835380835 L 451.3937282229965 128.93120393120392 L 453.13588850174216 120.45454545454544 L 454.8780487804878 110.50368550368552 L 456.62020905923345 114.3734643734644 L 458.3623693379791 101.4742014742015 L 460.10452961672473 100 L 461.8466898954704 103.31695331695335 L 463.588850174216 109.39803439803438 L 465.33101045296166 107.73955773955777 L 467.0731707317073 113.45208845208845 L 468.81533101045295 122.66584766584765 L 470.5574912891986 111.79361179361177 L 472.29965156794424 107.92383292383295 L 474.0418118466899 108.66093366093367 L 475.7839721254355 109.39803439803438 L 477.52613240418117 108.66093366093367 L 479.2682926829268 111.6093366093366 L 481.01045296167246 106.81818181818181 L 482.7526132404181 108.47665847665849 L 484.49477351916374 110.13513513513516 L 486.2369337979094 112.53071253071255 L 487.97909407665503 123.03439803439807 L 489.7212543554007 117.32186732186733 L 491.4634146341463 120.27027027027026 L 493.20557491289196 116.58476658476661 L 494.9477351916376 119.34889434889436 L 496.68989547038325 114.3734643734644 L 498.4320557491289 119.71744471744472 L 500.17421602787454 121.3759213759214 L 501.9163763066202 119.34889434889436 L 503.6585365853658 141.83046683046683 L 505.40069686411147 133.90663390663394 L 507.1428571428571 135.74938574938574 L 508.88501742160275 139.06633906633908 L 510.6271777003484 157.12530712530713 L 512.3693379790941 137.96068796068795 L 514.1114982578397 140.72481572481576 L 515.8536585365853 135.56511056511056 L 517.595818815331 148.46437346437347 L 519.3379790940767 147.91154791154793 L 521.0801393728223 165.04914004914008 L 522.822299651568 159.33660933660934 L 524.5644599303137 157.3095823095823 L 526.3066202090592 159.15233415233416 L 528.0487804878048 170.94594594594594 L 529.7909407665505 173.89434889434892 L 531.5331010452962 166.7076167076167 L 533.2752613240418 169.65601965601968 L 535.0174216027874 175 L 536.7595818815331 175.73710073710072 L 538.5017421602788 189.92628992628994 L 540.2439024390244 184.39803439803438 L 541.98606271777 193.05896805896805 L 543.7282229965157 193.61179361179364 L 545.4703832752614 205.5896805896806 L 547.212543554007 208.7223587223587 L 548.9547038327526 215.35626535626534 L 550.6968641114983 213.69778869778872 L 552.439024390244 218.30466830466833 L 554.1811846689895 226.22850122850122 L 555.9233449477351 218.12039312039315 L 557.6655052264808 231.94103194103195 L 559.4076655052265 216.09336609336611 L 561.1498257839721 230.65110565110564 L 562.8919860627177 222.17444717444715 L 564.6341463414634 239.8648648648649 L 566.3763066202091 229.91400491400492 L 568.1184668989547 234.15233415233416 L 569.8606271777003 255.89680589680592 L 571.602787456446 250.92137592137595 L 573.3449477351917 253.31695331695335 L 575.0871080139373 251.65847665847667 L 576.8292682926829 254.23832923832924 L 578.5714285714286 264.92628992628994 L 580.3135888501743 261.7936117936118 L 582.0557491289198 266.031941031941 L 583.7979094076654 259.3980343980344 L 585.5400696864111 261.24078624078624 L 587.2822299651568 258.66093366093367 L 589.0243902439024 257.1867321867322 L 590.766550522648 254.79115479115478 L 592.5087108013937 256.8181818181818 L 594.2508710801394 257.73955773955777 L 595.993031358885 262.7149877149877 L 597.7351916376306 261.24078624078624 L 599.4773519163763 263.26781326781327 L 601.219512195122 267.6904176904177 L 602.9616724738676 262.34643734643737 L 604.7038327526132 269.7174447174447 L 606.4459930313589 273.03439803439807 L 608.1881533101046 272.66584766584765 L 609.9303135888501 270.45454545454544 L 611.6724738675957 266.7690417690418 L 613.4146341463414 276.7199017199017 L 615.1567944250871 288.3292383292383 L 616.8989547038327 283.7223587223587 L 618.6411149825783 282.985257985258 L 620.383275261324 288.51351351351354 L 622.1254355400697 280.4054054054054 L 623.8675958188153 286.1179361179361 L 625.609756097561 287.5921375921376 L 627.3519163763067 293.12039312039315 L 629.0940766550523 300.6756756756757 L 630.8362369337979 301.4127764127764 L 632.5783972125436 307.67813267813267 L 634.3205574912893 316.33906633906633 L 636.0627177700349 321.1302211302211 L 637.8048780487804 325.7371007371007 L 639.5470383275261 332.002457002457 L 641.2891986062718 328.31695331695335 L 643.0313588850174 336.4250614250614 L 644.773519163763 337.1621621621622 L 646.5156794425087 334.7665847665848 L 648.2578397212544 341.031941031941 L 650 337.34643734643737 L 650 400 Z" /><text  class="poloto_labels poloto_text poloto_title" alignment-baseline="start" text-anchor="middle" font-size="x-large" x="400" y="37.5" >Total players on 2021-07-26</text><text  class="poloto_labels poloto_text poloto_xname" alignment-baseline="start" text-anchor="middle" font-size="x-large" x="400" y="481.25" >Time</text><text  class="poloto_labels poloto_text poloto_yname" alignment-baseline="start" text-anchor="middle" font-size="x-large" transform="rotate(-90,37.5,250)" x="37.5" y="250" >Count</text><line  class="poloto_axis_lines" stroke="black" x1="208.0487804878049" x2="208.0487804878049" y1="400" y2="405" /><text  class="poloto_tick_labels poloto_text" alignment-baseline="start" text-anchor="middle" x="208.0487804878049" y="430" > 02:46:40</text><line  class="poloto_axis_lines" stroke="black" x1="266.1207897793264" x2="266.1207897793264" y1="400" y2="405" /><text  class="poloto_tick_labels poloto_text" alignment-baseline="start" text-anchor="middle" x="266.1207897793264" y="430" > 05:33:20</text><line  class="poloto_axis_lines" stroke="black" x1="324.19279907084785" x2="324.19279907084785" y1="400" y2="405" /><text  class="poloto_tick_labels poloto_text" alignment-baseline="start" text-anchor="middle" x="324.19279907084785" y="430" > 08:20:00</text><line  class="poloto_axis_lines" stroke="black" x1="382.2648083623693" x2="382.2648083623693" y1="400" y2="405" /><text  class="poloto_tick_labels poloto_text" alignment-baseline="start" text-anchor="middle" x="382.2648083623693" y="430" > 11:06:40</text><line  class="poloto_axis_lines" stroke="black" x1="440.3368176538908" x2="440.3368176538908" y1="400" y2="405" /><text  class="poloto_tick_labels poloto_text" alignment-baseline="start" text-anchor="middle" x="440.3368176538908" y="430" > 13:53:20</text><line  class="poloto_axis_lines" stroke="black" x1="498.4088269454123" x2="498.4088269454123" y1="400" y2="405" /><text  class="poloto_tick_labels poloto_text" alignment-baseline="start" text-anchor="middle" x="498.4088269454123" y="430" > 16:40:00</text><line  class="poloto_axis_lines" stroke="black" x1="556.4808362369338" x2="556.4808362369338" y1="400" y2="405" /><text  class="poloto_tick_labels poloto_text" alignment-baseline="start" text-anchor="middle" x="556.4808362369338" y="430" > 19:26:40</text><line  class="poloto_axis_lines" stroke="black" x1="614.5528455284552" x2="614.5528455284552" y1="400" y2="405" /><text  class="poloto_tick_labels poloto_text" alignment-baseline="start" text-anchor="middle" x="614.5528455284552" y="430" > 22:13:20</text><line  class="poloto_axis_lines" stroke="black" x1="150" x2="144" y1="324.2628992628993" y2="324.2628992628993" /><text  class="poloto_tick_labels poloto_text" alignment-baseline="middle" text-anchor="end" x="135" y="324.2628992628993" > 1500</text><line  class="poloto_axis_lines" stroke="black" x1="150" x2="144" y1="232.12530712530713" y2="232.12530712530713" /><text  class="poloto_tick_labels poloto_text" alignment-baseline="middle" text-anchor="end" x="135" y="232.12530712530713" > 2000</text><line  class="poloto_axis_lines" stroke="black" x1="150" x2="144" y1="139.98771498771498" y2="139.98771498771498" /><text  class="poloto_tick_labels poloto_text" alignment-baseline="middle" text-anchor="end" x="135" y="139.98771498771498" > 2500</text><path  stroke="black" fill="none" class="poloto_axis_lines" style="stroke-dasharray:14.518002322880372;stroke-dashoffset:-58.04878048780488;" d=" M 150 400 L 650 400" /><path  stroke="black" fill="none" class="poloto_axis_lines" style="stroke-dasharray:9.213759213759214;stroke-dashoffset:-75.73710073710072;" d=" M 150 400 L 150 100" /></svg>