<svg class="poloto" width="800" height="500" viewBox="0 0 800 500" xmlns="http://www.w3.org/2000/svg"><style>.poloto { stroke-linecap:round; stroke-linejoin:round; font-family: 'Tahoma', sans-serif; background-color: AliceBlue;} .poloto_scatter{stroke-width:7} .poloto_line{stroke-width:2} .poloto_text{fill: black;} .poloto_axis_lines{stroke: black;stroke-width:3;fill:none;stroke-dasharray:none} .poloto0stroke{stroke:  blue;} .poloto1stroke{stroke:  red;} .poloto2stroke{stroke:  green;} .poloto3stroke{stroke:  gold;} .poloto4stroke{stroke:  aqua;} .poloto5stroke{stroke:  lime;} .poloto6stroke{stroke:  orange;} .poloto7stroke{stroke:  chocolate;} .poloto0fill{fill:blue;} .poloto1fill{fill:red;} .poloto2fill{fill:green;} .poloto3fill{fill:gold;} .poloto4fill{fill:aqua;} .poloto5fill{fill:lime;} .poloto6fill{fill:orange;} .poloto7fill{fill:chocolate;}</style><text  class="poloto_text poloto_legend_text" alignment-baseline="middle" text-anchor="start" font-size="large" x="675" y="100" ></text><path  class="poloto_linefill poloto0fill" d=" M 150 400 L 150 324.9576510446076 L 151.74216027874564 332.24167137210617 L 153.4843205574913 338.50931677018633 L 155.22648083623693 337.8317334839074 L 156.96864111498257 337.6623376623377 L 158.71080139372822 341.7278373800113 L 160.45296167247386 339.8644833427442 L 162.1951219512195 344.2687747035573 L 163.93728222996515 342.9136081309995 L 165.6794425087108 346.1321287408244 L 167.42160278745644 354.6019198193111 L 169.16376306620208 359.5143986448334 L 170.90592334494772 361.038961038961 L 172.64808362369337 363.07171089779786 L 174.390243902439 365.78204404291364 L 176.13240418118465 362.05533596837944 L 177.8745644599303 361.88594014680973 L 179.61672473867597 371.2027103331451 L 181.3588850174216 376.1151891586674 L 183.10104529616726 376.4539808018069 L 184.8432055749129 376.4539808018069 L 186.58536585365854 374.9294184076793 L 188.3275261324042 374.9294184076793 L 190.06968641114983 376.79277244494637 L 191.81184668989548 381.53585544889893 L 193.55400696864112 392.0383963862225 L 195.29616724738676 391.86900056465277 L 197.0383275261324 388.8198757763975 L 198.78048780487805 393.22416713721066 L 200.5226480836237 395.5957086391869 L 202.26480836236934 394.07114624505925 L 204.00696864111498 393.73235460191984 L 205.74912891986062 397.96725014116316 L 207.49128919860627 395.25691699604744 L 209.2334494773519 394.7487295313382 L 210.97560975609755 393.0547713156409 L 212.7177700348432 396.61208356860527 L 214.45993031358887 400 L 216.2020905923345 399.32241671372105 L 217.94425087108016 399.1530208921513 L 219.6864111498258 396.9508752117448 L 221.42857142857144 395.7651044607567 L 223.1707317073171 399.83060417843024 L 224.91289198606273 396.61208356860527 L 226.65505226480838 391.86900056465277 L 228.39721254355402 394.5793337097685 L 230.13937282229966 389.66685488424616 L 231.8815331010453 388.8198757763975 L 233.62369337979095 384.07679277244495 L 235.3658536585366 382.8910220214568 L 237.10801393728224 381.7052512704687 L 238.85017421602788 374.5906267645398 L 240.59233449477352 370.52512704686615 L 242.33449477351917 365.2738565782044 L 244.0766550522648 365.2738565782044 L 245.81881533101046 364.76566911349516 L 247.5609756097561 364.59627329192546 L 249.30313588850174 362.05533596837944 L 251.0452961672474 363.7492941840768 L 252.78745644599303 358.83681535855453 L 254.52961672473867 356.8040654997177 L 256.2717770034843 355.11010728402033 L 258.01393728222996 359.17560700169395 L 259.7560975609756 358.66741953698477 L 261.49825783972125 354.2631281761717 L 263.2404181184669 360.02258610954266 L 264.98257839721254 360.8695652173913 L 266.7247386759582 364.59627329192546 L 268.4668989547038 359.3450028232637 L 270.20905923344947 356.12648221343875 L 271.9512195121951 358.1592320722756 L 273.69337979094075 358.498023715415 L 275.4355400696864 349.0118577075099 L 277.17770034843204 350.36702428006777 L 278.91986062717774 351.89158667419537 L 280.6620209059233 346.47092038396386 L 282.404181184669 342.23602484472053 L 284.1463414634146 342.7442123094297 L 285.8885017421603 336.47656691134955 L 287.6306620209059 330.20892151326933 L 289.3728222996516 326.4822134387352 L 291.1149825783972 324.61885940146806 L 292.8571428571429 324.28006775832864 L 294.5993031358885 323.6024844720497 L 296.3414634146342 320.7227555053642 L 298.08362369337976 316.6572557876906 L 299.82578397212546 320.7227555053642 L 301.56794425087105 319.1981931112366 L 303.31010452961675 325.80463015245624 L 305.05226480836234 324.28006775832864 L 306.79442508710804 325.80463015245624 L 308.5365853658536 323.43308865047993 L 310.2787456445993 323.43308865047993 L 312.0209059233449 320.04517221908526 L 313.7630662020906 321.40033879164315 L 315.5052264808362 316.6572557876906 L 317.2473867595819 318.1818181818182 L 318.9895470383275 318.3512140033879 L 320.7317073170732 317.8430265386787 L 322.4738675958188 314.9632975719932 L 324.2160278745645 314.9632975719932 L 325.9581881533101 313.60813099943533 L 327.70034843205576 315.64088085827217 L 329.4425087108014 313.4387351778656 L 331.18466898954705 314.45511010728404 L 332.9268292682927 314.11631846414457 L 334.66898954703834 317.8430265386787 L 336.411149825784 315.3020892151327 L 338.1533101045296 313.09994353472615 L 339.89547038327527 317.67363071710895 L 341.6376306620209 312.25296442687744 L 343.37979094076655 306.4935064935065 L 345.1219512195122 297.1767363071711 L 346.86411149825784 298.7012987012987 L 348.6062717770035 290.73969508752117 L 350.34843205574913 284.9802371541502 L 352.0905923344948 288.36815358554486 L 353.8327526132404 288.70694522868433 L 355.57491289198606 285.31902879728966 L 357.3170731707317 285.4884246188594 L 359.05923344947735 279.2207792207792 L 360.801393728223 281.931112365895 L 362.54355400696863 278.2044042913608 L 364.2857142857143 281.931112365895 L 366.0278745644599 269.5652173913043 L 367.77003484320556 267.70186335403724 L 369.5121951219512 269.2264257481649 L 371.25435540069685 257.70750988142294 L 372.9965156794425 248.22134387351775 L 374.73867595818814 250.2540937323546 L 376.4808362369338 253.81140598531903 L 378.2229965156795 261.4342179559571 L 379.96515679442507 252.7950310559006 L 381.70731707317077 246.69678147939015 L 383.44947735191636 238.22699040090345 L 385.19163763066206 239.41276115189157 L 386.93379790940764 235.68605307735743 L 388.67595818815334 227.04686617730096 L 390.41811846689893 227.7244494635799 L 392.16027874564463 227.8938452851496 L 393.9024390243902 220.10163749294185 L 395.6445993031359 216.88311688311688 L 397.3867595818815 217.22190852625636 L 399.1289198606272 215.35855448898928 L 400.8710801393728 210.61547148503672 L 402.6132404181185 210.61547148503672 L 404.3554006968641 204.85601355166574 L 406.0975609756098 199.43534726143423 L 407.8397212543554 210.44607566346696 L 409.58188153310107 196.8944099378882 L 411.3240418118467 198.4189723320158 L 413.06620209059236 197.4025974025974 L 414.808362369338 201.97628458498025 L 416.55052264808364 206.7193675889328 L 418.2926829268293 199.7741389045737 L 420.03484320557493 190.626764539808 L 421.7770034843206 191.30434782608694 L 423.5191637630662 182.66516092603047 L 425.26132404181186 178.59966120835685 L 427.0034843205575 172.3320158102767 L 428.74564459930315 166.7419536984754 L 430.4878048780488 160.13551665725578 L 432.22996515679444 159.6273291925466 L 433.9721254355401 159.96612083568607 L 435.7142857142857 153.0208921513269 L 437.45644599303137 150.1411631846414 L 439.198606271777 147.6002258610954 L 440.94076655052265 147.76962168266516 L 442.6829268292683 143.36533032185207 L 444.42508710801394 134.21795595708636 L 446.1672473867596 139.97741389045734 L 447.9094076655052 140.1468097120271 L 449.65156794425087 127.78091473743649 L 451.3937282229965 125.23997741389047 L 453.13588850174216 125.0705815923207 L 454.8780487804878 119.48051948051949 L 456.62020905923345 115.75381140598529 L 458.3623693379791 120.83568605307732 L 460.10452961672473 118.63354037267078 L 461.8466898954704 113.21287408243927 L 463.588850174216 115.07622811970634 L 465.33101045296166 129.3054771315641 L 467.0731707317073 113.04347826086956 L 468.81533101045295 118.97233201581025 L 470.5574912891986 112.19649915302085 L 472.29965156794424 111.3495200451722 L 474.0418118466899 127.10333145115754 L 475.7839721254355 108.63918690005647 L 477.52613240418117 106.77583286278934 L 479.2682926829268 105.25127046866174 L 481.01045296167246 100 L 482.7526132404181 107.96160361377753 L 484.49477351916374 114.22924901185769 L 486.2369337979094 117.61716544325236 L 487.97909407665503 118.63354037267078 L 489.7212543554007 109.65556182947483 L 491.4634146341463 108.63918690005647 L 493.20557491289196 131.8464144551101 L 494.9477351916376 124.05420666290229 L 496.68989547038325 130.9994353472614 L 498.4320557491289 124.901185770751 L 500.17421602787454 124.56239412761153 L 501.91637630662024 125.40937323546018 L 503.6585365853659 131.16883116883116 L 505.4006968641115 142.85714285714283 L 507.14285714285717 133.70976849237718 L 508.8850174216028 137.43647656691132 L 510.62717770034845 141.50197628458494 L 512.3693379790941 143.36533032185207 L 514.1114982578397 153.19028797289667 L 515.8536585365854 152.00451722190854 L 517.5958188153311 154.88424618859398 L 519.3379790940767 164.53980801806887 L 521.0801393728223 174.025974025974 L 522.822299651568 181.8181818181818 L 524.5644599303137 179.2772444946358 L 526.3066202090592 186.90005646527385 L 528.0487804878048 183.85093167701865 L 529.7909407665505 201.97628458498025 L 531.5331010452962 203.16205533596838 L 533.2752613240418 202.31507622811972 L 535.0174216027874 206.7193675889328 L 536.7595818815331 203.67024280067756 L 538.5017421602788 208.7521174477696 L 540.2439024390244 207.73574251835123 L 541.98606271777 207.56634669678147 L 543.7282229965157 222.81197063805757 L 545.4703832752614 221.79559570863915 L 547.212543554007 213.32580463015245 L 548.9547038327526 210.95426312817614 L 550.6968641114983 215.0197628458498 L 552.439024390244 218.40767927724448 L 554.1811846689895 225.18351214003388 L 555.9233449477351 223.3201581027668 L 557.6655052264808 231.78994918125352 L 559.4076655052265 240.09034443817052 L 561.1498257839721 236.36363636363637 L 562.8919860627177 235.85544889892714 L 564.6341463414634 243.4782608695652 L 566.3763066202091 236.87182382834555 L 568.1184668989547 233.48390739695088 L 569.8606271777003 235.85544889892714 L 571.602787456446 252.45623941276114 L 573.3449477351917 241.78430265386788 L 575.0871080139373 242.46188594014683 L 576.8292682926829 251.7786561264822 L 578.5714285714286 247.54376058723886 L 580.3135888501743 245.51101072840203 L 582.0557491289198 246.0191981931112 L 583.7979094076654 250.93167701863354 L 585.5400696864111 256.52173913043475 L 587.2822299651568 253.81140598531903 L 589.0243902439024 256.52173913043475 L 590.766550522648 252.28684359119143 L 592.5087108013937 257.53811405985317 L 594.2508710801394 253.98080180688873 L 595.993031358885 255.5053642010164 L 597.7351916376306 259.06267645398077 L 599.4773519163763 260.5872388481084 L 601.219512195122 265.83850931677017 L 602.9616724738676 264.9915302089215 L 604.7038327526133 270.9203839638622 L 606.445993031359 269.3958215697346 L 608.1881533101046 274.47769621682664 L 609.9303135888501 274.47769621682664 L 611.6724738675958 286.67419536984755 L 613.4146341463415 288.8763410502541 L 615.1567944250871 291.24788255223035 L 616.8989547038327 300.39525691699606 L 618.6411149825784 305.6465273856578 L 620.3832752613241 297.6849237718803 L 622.1254355400697 302.42800677583284 L 623.8675958188153 302.42800677583284 L 625.609756097561 309.373235460192 L 627.3519163763067 312.4223602484472 L 629.0940766550523 317.33483907396953 L 630.8362369337979 321.0615471485037 L 632.5783972125436 332.74985883681535 L 634.3205574912893 334.9520045172219 L 636.0627177700349 334.6132128740825 L 637.8048780487804 342.23602484472053 L 639.5470383275261 343.7605872388481 L 641.2891986062718 350.70581592320724 L 643.0313588850174 354.2631281761717 L 644.773519163763 359.5143986448334 L 646.5156794425087 360.53077357425184 L 648.2578397212544 362.3941276115189 L 650 365.95143986448335 L 650 400 Z" /><text  class="poloto_labels poloto_text poloto_title" alignment-baseline="start" text-anchor="middle" font-size="x-large" x="400" y="37.5" >Total players on 2021-09-26</text><text  class="poloto_labels poloto_text poloto_xname" alignment-baseline="start" text-anchor="middle" font-size="x-large" x="400" y="481.25" >Time</text><text  class="poloto_labels poloto_text poloto_yname" alignment-baseline="start" text-anchor="middle" font-size="x-large" transform="rotate(-90,37.5,250)" x="37.5" y="250" >Count</text><line  class="poloto_axis_lines" stroke="black" x1="150" x2="150" y1="400" y2="405" /><text  class="poloto_tick_labels poloto_text" alignment-baseline="start" text-anchor="middle" x="150" y="430" > 00:00</text><line  class="poloto_axis_lines" stroke="black" x1="266.14401858304296" x2="266.14401858304296" y1="400" y2="405" /><text  class="poloto_tick_labels poloto_text" alignment-baseline="start" text-anchor="middle" x="266.14401858304296" y="430" > 06:00</text><line  class="poloto_axis_lines" stroke="black" x1="382.2880371660859" x2="382.2880371660859" y1="400" y2="405" /><text  class="poloto_tick_labels poloto_text" alignment-baseline="start" text-anchor="middle" x="382.2880371660859" y="430" > 11:00</text><line  class="poloto_axis_lines" stroke="black" x1="498.4320557491289" x2="498.4320557491289" y1="400" y2="405" /><text  class="poloto_tick_labels poloto_text" alignment-baseline="start" text-anchor="middle" x="498.4320557491289" y="430" > 17:00</text><line  class="poloto_axis_lines" stroke="black" x1="614.5760743321719" x2="614.5760743321719" y1="400" y2="405" /><text  class="poloto_tick_labels poloto_text" alignment-baseline="start" text-anchor="middle" x="614.5760743321719" y="430" > 22:00</text><line  class="poloto_axis_lines" stroke="black" x1="150" x2="144" y1="316.99604743083" y2="316.99604743083" /><text  class="poloto_tick_labels poloto_text" alignment-baseline="middle" text-anchor="end" x="135" y="316.99604743083" > 1500</text><line  class="poloto_axis_lines" stroke="black" x1="150" x2="144" y1="232.2981366459627" y2="232.2981366459627" /><text  class="poloto_tick_labels poloto_text" alignment-baseline="middle" text-anchor="end" x="135" y="232.2981366459627" > 2000</text><line  class="poloto_axis_lines" stroke="black" x1="150" x2="144" y1="147.6002258610954" y2="147.6002258610954" /><text  class="poloto_tick_labels poloto_text" alignment-baseline="middle" text-anchor="end" x="135" y="147.6002258610954" > 2500</text><path  stroke="black" fill="none" class="poloto_axis_lines" style="stroke-dasharray:14.518002322880372;stroke-dashoffset:-0;" d=" M 150 400 L 650 400" /><path  stroke="black" fill="none" class="poloto_axis_lines" style="stroke-dasharray:8.469791078486733;stroke-dashoffset:-83.00395256916997;" d=" M 150 400 L 150 100" /></svg>