<svg class="poloto" width="800" height="500" viewBox="0 0 800 500" xmlns="http://www.w3.org/2000/svg"><style>.poloto { stroke-linecap:round; stroke-linejoin:round; font-family: 'Tahoma', sans-serif; background-color: AliceBlue;} .poloto_scatter{stroke-width:7} .poloto_line{stroke-width:2} .poloto_text{fill: black;} .poloto_axis_lines{stroke: black;stroke-width:3;fill:none;stroke-dasharray:none} .poloto0stroke{stroke:  blue;} .poloto1stroke{stroke:  red;} .poloto2stroke{stroke:  green;} .poloto3stroke{stroke:  gold;} .poloto4stroke{stroke:  aqua;} .poloto5stroke{stroke:  lime;} .poloto6stroke{stroke:  orange;} .poloto7stroke{stroke:  chocolate;} .poloto0fill{fill:blue;} .poloto1fill{fill:red;} .poloto2fill{fill:green;} .poloto3fill{fill:gold;} .poloto4fill{fill:aqua;} .poloto5fill{fill:lime;} .poloto6fill{fill:orange;} .poloto7fill{fill:chocolate;}</style><text  class="poloto_text poloto_legend_text" alignment-baseline="middle" text-anchor="start" font-size="large" x="675" y="100" ></text><path  class="poloto_linefill poloto0fill" d=" M 150 400 L 150 353.54838709677415 L 151.74216027874564 352.85714285714283 L 153.4843205574913 353.963133640553 L 155.22648083623693 352.9953917050691 L 156.96864111498257 357.55760368663596 L 158.71080139372822 354.51612903225805 L 160.45296167247386 359.07834101382485 L 162.1951219512195 361.70506912442397 L 163.93728222996515 357.69585253456216 L 165.6794425087108 364.33179723502303 L 167.42160278745644 368.3410138248848 L 169.16376306620208 366.82027649769583 L 170.90592334494772 370.4147465437788 L 172.64808362369337 374.147465437788 L 174.390243902439 377.3271889400921 L 176.13240418118465 377.741935483871 L 177.8745644599303 380.2304147465438 L 179.61672473867597 381.75115207373267 L 181.3588850174216 383.54838709677415 L 183.10104529616726 384.3778801843318 L 184.8432055749129 387.8341013824885 L 186.58536585365854 389.76958525345617 L 188.3275261324042 400 L 190.06968641114983 380.36866359447004 L 191.81184668989548 378.7096774193548 L 193.55400696864112 374.83870967741933 L 195.29616724738676 378.8479262672811 L 197.0383275261324 380.64516129032256 L 198.78048780487805 380.64516129032256 L 200.5226480836237 377.1889400921659 L 202.26480836236934 375.1152073732719 L 204.00696864111498 370.55299539170505 L 205.74912891986062 366.9585253456221 L 207.49128919860627 357.8341013824885 L 209.2334494773519 364.19354838709677 L 210.97560975609755 362.53456221198155 L 212.72357723577235 362.53456221198155 L 214.45993031358887 361.8433179723502 L 216.2020905923345 367.64976958525347 L 217.94425087108016 366.2672811059908 L 219.6864111498258 360.46082949308754 L 221.42857142857144 361.1520737327189 L 223.1707317073171 356.7281105990783 L 224.91289198606273 359.2165898617511 L 226.65505226480838 354.7926267281106 L 228.39721254355402 351.47465437788014 L 230.13937282229966 353.41013824884794 L 231.8815331010453 346.221198156682 L 233.62369337979095 349.26267281105993 L 235.3658536585366 363.36405529953913 L 237.10801393728224 356.58986175115206 L 238.85017421602788 335.71428571428567 L 240.59233449477352 332.53456221198155 L 242.33449477351917 324.6543778801843 L 244.0766550522648 322.1658986175115 L 245.81881533101046 317.3271889400921 L 247.5609756097561 313.73271889400917 L 249.30313588850174 313.73271889400917 L 251.0452961672474 312.7649769585253 L 252.78745644599303 316.221198156682 L 254.52961672473867 310.2764976958525 L 256.2717770034843 307.2350230414746 L 258.01393728222996 304.33179723502303 L 259.7560975609756 305.852534562212 L 261.49825783972125 308.89400921658984 L 263.2404181184669 309.44700460829495 L 264.9883855981417 308.89400921658984 L 266.7247386759582 311.9354838709677 L 268.4668989547038 305.9907834101382 L 270.20905923344947 311.65898617511516 L 271.9512195121951 314.5622119815668 L 273.69337979094075 312.35023041474653 L 275.44134727061555 314.70046082949307 L 277.17770034843204 308.47926267281105 L 278.9198606271777 307.51152073732715 L 280.6620209059233 305.02304147465435 L 282.40418118466897 305.9907834101382 L 284.1463414634146 305.29953917050693 L 285.88850174216026 302.9493087557604 L 287.6306620209059 303.50230414746545 L 289.37282229965155 301.9815668202765 L 291.1149825783972 300.8755760368664 L 292.85714285714283 303.36405529953913 L 294.5993031358885 300.3225806451612 L 296.3414634146342 302.1198156682027 L 298.08362369337976 302.9493087557604 L 299.82578397212546 297.69585253456216 L 301.56794425087105 296.45161290322574 L 303.31010452961675 295.48387096774195 L 305.05226480836234 297.1428571428571 L 306.79442508710804 295.8986175115207 L 308.5365853658536 295.62211981566816 L 310.2787456445993 290.36866359447004 L 312.0209059233449 286.0829493087557 L 313.7630662020906 280.2764976958525 L 315.5052264808362 282.073732718894 L 317.2473867595819 282.76497695852527 L 318.9895470383275 276.8202764976958 L 320.7317073170732 275.29953917050693 L 322.4738675958188 274.47004608294924 L 324.2160278745645 266.8663594470046 L 325.95818815331006 264.37788018433173 L 327.70034843205576 264.65437788018426 L 329.44250871080135 262.58064516129025 L 331.18466898954705 266.72811059907826 L 332.92682926829264 260.36866359447004 L 334.66898954703834 254.70046082949304 L 336.4111498257839 252.07373271889398 L 338.1533101045296 251.38248847926266 L 339.8954703832752 243.9170506912442 L 341.6376306620209 246.54377880184327 L 343.3797909407665 240.8755760368663 L 345.1219512195122 240.73732718894004 L 346.86411149825784 235.2073732718894 L 348.6062717770035 236.3133640552995 L 350.34843205574913 234.10138248847923 L 352.0905923344948 234.37788018433176 L 353.8327526132404 235.8986175115207 L 355.57491289198606 236.7281105990783 L 357.3170731707317 233.1336405529954 L 359.05923344947735 237.2811059907834 L 360.801393728223 232.44239631336401 L 362.54355400696863 236.17511520737324 L 364.2857142857143 233.96313364055297 L 366.0278745644599 232.8571428571428 L 367.77003484320556 226.63594470046078 L 369.5121951219512 221.2442396313364 L 371.25435540069685 223.45622119815667 L 372.9965156794425 214.60829493087553 L 374.73867595818814 207.55760368663593 L 376.4808362369338 215.57603686635943 L 378.2229965156794 216.95852534562206 L 379.96515679442507 215.57603686635943 L 381.7073170731707 206.86635944700456 L 383.44947735191636 207.2811059907834 L 385.191637630662 203.68663594470044 L 386.93379790940764 206.45161290322577 L 388.6759581881533 203.1336405529954 L 390.41811846689893 199.2626728110599 L 392.1602787456446 194.56221198156678 L 393.9024390243902 191.79723502304145 L 395.6445993031359 188.2027649769585 L 397.3867595818815 191.6589861751152 L 399.1289198606272 199.40092165898616 L 400.8710801393728 209.07834101382488 L 402.6132404181185 217.3732718894009 L 404.3554006968641 210.04608294930873 L 406.0975609756097 201.47465437788017 L 407.83972125435537 205.2073732718894 L 409.581881533101 206.7281105990783 L 411.32404181184666 212.39631336405526 L 413.0662020905923 204.51612903225802 L 414.80836236933794 203.1336405529954 L 416.5505226480836 206.45161290322577 L 418.29268292682923 199.12442396313364 L 420.0348432055749 191.93548387096772 L 421.7770034843206 191.93548387096772 L 423.5191637630662 187.92626728110596 L 425.26132404181186 183.2258064516129 L 427.0034843205575 177.2811059907834 L 428.74564459930315 176.7281105990783 L 430.4878048780488 168.7096774193548 L 432.22996515679444 161.79723502304145 L 433.9721254355401 153.6405529953917 L 435.7142857142857 152.53456221198152 L 437.45644599303137 145.76036866359445 L 439.198606271777 143.27188940092162 L 440.94076655052265 143.41013824884794 L 442.6829268292683 132.62672811059906 L 444.42508710801394 132.073732718894 L 446.1672473867596 128.47926267281105 L 447.9094076655052 124.60829493087556 L 449.65156794425087 121.1520737327188 L 451.3937282229965 118.52534562211974 L 453.13588850174216 114.23963133640552 L 454.8780487804878 117.69585253456216 L 456.62020905923345 115.0691244239631 L 458.3623693379791 114.65437788018426 L 460.10452961672473 111.75115207373267 L 461.8466898954704 112.30414746543772 L 463.588850174216 111.19815668202762 L 465.33101045296166 110.92165898617509 L 467.0731707317073 106.49769585253455 L 468.81533101045295 103.59447004608296 L 470.5574912891986 104.70046082949307 L 472.29965156794424 104.70046082949307 L 474.04761904761904 106.49769585253455 L 475.7839721254355 102.76497695852527 L 477.52613240418117 100 L 479.2682926829268 104.70046082949307 L 481.01045296167246 109.81566820276498 L 482.7526132404181 104.70046082949307 L 484.49477351916374 106.49769585253455 L 486.2369337979094 110.36866359447004 L 487.97909407665503 111.75115207373267 L 489.7212543554007 107.18894009216581 L 491.4634146341463 105.1152073732718 L 493.20557491289196 105.80645161290317 L 494.9477351916376 111.61290322580646 L 496.68989547038325 114.93087557603678 L 498.4320557491289 114.37788018433173 L 500.17421602787454 123.0875576036866 L 501.9163763066202 130.82949308755758 L 503.6585365853658 133.1797235023041 L 505.4065040650406 139.9539170506912 L 507.1428571428571 134.56221198156675 L 508.88501742160275 139.9539170506912 L 510.6271777003484 147.55760368663593 L 512.3693379790941 151.42857142857142 L 514.1114982578397 156.12903225806448 L 515.8536585365853 160.82949308755755 L 517.595818815331 163.87096774193546 L 519.3379790940767 168.15668202764974 L 521.0801393728223 170.36866359447 L 522.822299651568 177.55760368663593 L 524.5644599303137 169.53917050691243 L 526.3124274099885 174.79262672811055 L 528.0487804878048 178.3870967741935 L 529.7909407665505 180.32258064516125 L 531.5331010452962 187.3732718894009 L 533.2752613240418 189.58525345622118 L 535.0174216027874 190.41474654377876 L 536.7595818815331 191.6589861751152 L 538.5017421602788 195.1152073732719 L 540.2439024390244 199.40092165898616 L 541.98606271777 198.7096774193548 L 543.7282229965157 203.54838709677418 L 545.4703832752614 209.90783410138246 L 547.212543554007 210.184331797235 L 548.9547038327526 212.6728110599078 L 550.6968641114983 216.8202764976958 L 552.439024390244 207.6958525345622 L 554.1811846689895 211.98156682027647 L 555.9233449477351 218.61751152073728 L 557.6655052264808 224.8387096774193 L 559.4076655052265 220.41474654377876 L 561.1498257839721 222.62672811059903 L 562.8919860627177 221.52073732718893 L 564.6341463414634 220.96774193548382 L 566.3763066202091 230.7834101382488 L 568.1184668989547 236.3133640552995 L 569.8606271777003 236.45161290322577 L 571.602787456446 237.14285714285714 L 573.3449477351917 244.05529953917048 L 575.0871080139373 244.331797235023 L 576.8292682926829 247.09677419354838 L 578.5772357723577 247.09677419354838 L 580.3135888501743 251.79723502304145 L 582.0557491289198 254.8387096774193 L 583.7979094076654 253.87096774193546 L 585.5400696864111 247.23502304147465 L 587.2822299651568 250.96774193548387 L 589.0301974448316 251.52073732718893 L 590.766550522648 273.64055299539166 L 592.5087108013937 278.61751152073725 L 594.2508710801394 257.741935483871 L 595.993031358885 264.7926267281106 L 597.7351916376306 269.49308755760364 L 599.4831591173054 271.8433179723502 L 601.219512195122 271.9815668202765 L 602.9616724738676 277.37327188940094 L 604.7038327526132 276.2672811059907 L 606.4459930313589 273.64055299539166 L 608.1881533101046 275.0230414746544 L 609.9303135888501 275.29953917050693 L 611.6724738675957 278.8940092165899 L 613.4146341463414 303.778801843318 L 615.1567944250871 281.52073732718895 L 616.8989547038327 279.58525345622115 L 618.6411149825783 278.0645161290322 L 620.383275261324 289.67741935483866 L 622.1254355400697 299.63133640552996 L 623.8675958188153 305.29953917050693 L 625.609756097561 335.1612903225806 L 627.3519163763067 334.4700460829493 L 629.0940766550523 342.7649769585253 L 630.8420441347271 340.2764976958525 L 632.5783972125436 340.96774193548384 L 634.3205574912893 344.70046082949307 L 636.0627177700349 341.2442396313364 L 637.8048780487804 340.4147465437788 L 639.5470383275261 345.2534562211981 L 641.2891986062718 350.2304147465438 L 643.0313588850174 351.1981566820276 L 644.773519163763 348.4331797235023 L 646.5156794425087 348.57142857142856 L 648.2578397212544 350.5069124423963 L 650 351.1981566820276 L 650 400 Z" /><text  class="poloto_labels poloto_text poloto_title" alignment-baseline="start" text-anchor="middle" font-size="x-large" x="400" y="37.5" >Total players on 2021-08-18</text><text  class="poloto_labels poloto_text poloto_xname" alignment-baseline="start" text-anchor="middle" font-size="x-large" x="400" y="481.25" >Time</text><text  class="poloto_labels poloto_text poloto_yname" alignment-baseline="start" text-anchor="middle" font-size="x-large" transform="rotate(-90,37.5,250)" x="37.5" y="250" >Count</text><line  class="poloto_axis_lines" stroke="black" x1="208.0487804878049" x2="208.0487804878049" y1="400" y2="405" /><text  class="poloto_tick_labels poloto_text" alignment-baseline="start" text-anchor="middle" x="208.0487804878049" y="430" > 03:00</text><line  class="poloto_axis_lines" stroke="black" x1="266.1207897793264" x2="266.1207897793264" y1="400" y2="405" /><text  class="poloto_tick_labels poloto_text" alignment-baseline="start" text-anchor="middle" x="266.1207897793264" y="430" > 06:00</text><line  class="poloto_axis_lines" stroke="black" x1="324.19279907084785" x2="324.19279907084785" y1="400" y2="405" /><text  class="poloto_tick_labels poloto_text" alignment-baseline="start" text-anchor="middle" x="324.19279907084785" y="430" > 08:00</text><line  class="poloto_axis_lines" stroke="black" x1="382.2648083623693" x2="382.2648083623693" y1="400" y2="405" /><text  class="poloto_tick_labels poloto_text" alignment-baseline="start" text-anchor="middle" x="382.2648083623693" y="430" > 11:00</text><line  class="poloto_axis_lines" stroke="black" x1="440.3368176538908" x2="440.3368176538908" y1="400" y2="405" /><text  class="poloto_tick_labels poloto_text" alignment-baseline="start" text-anchor="middle" x="440.3368176538908" y="430" > 14:00</text><line  class="poloto_axis_lines" stroke="black" x1="498.4088269454123" x2="498.4088269454123" y1="400" y2="405" /><text  class="poloto_tick_labels poloto_text" alignment-baseline="start" text-anchor="middle" x="498.4088269454123" y="430" > 17:00</text><line  class="poloto_axis_lines" stroke="black" x1="556.4808362369338" x2="556.4808362369338" y1="400" y2="405" /><text  class="poloto_tick_labels poloto_text" alignment-baseline="start" text-anchor="middle" x="556.4808362369338" y="430" > 19:00</text><line  class="poloto_axis_lines" stroke="black" x1="614.5528455284552" x2="614.5528455284552" y1="400" y2="405" /><text  class="poloto_tick_labels poloto_text" alignment-baseline="start" text-anchor="middle" x="614.5528455284552" y="430" > 22:00</text><line  class="poloto_axis_lines" stroke="black" x1="150" x2="144" y1="351.61290322580646" y2="351.61290322580646" /><text  class="poloto_tick_labels poloto_text" alignment-baseline="middle" text-anchor="end" x="135" y="351.61290322580646" > 1500</text><line  class="poloto_axis_lines" stroke="black" x1="150" x2="144" y1="282.48847926267274" y2="282.48847926267274" /><text  class="poloto_tick_labels poloto_text" alignment-baseline="middle" text-anchor="end" x="135" y="282.48847926267274" > 2000</text><line  class="poloto_axis_lines" stroke="black" x1="150" x2="144" y1="213.36405529953913" y2="213.36405529953913" /><text  class="poloto_tick_labels poloto_text" alignment-baseline="middle" text-anchor="end" x="135" y="213.36405529953913" > 2500</text><line  class="poloto_axis_lines" stroke="black" x1="150" x2="144" y1="144.2396313364055" y2="144.2396313364055" /><text  class="poloto_tick_labels poloto_text" alignment-baseline="middle" text-anchor="end" x="135" y="144.2396313364055" > 3000</text><path  stroke="black" fill="none" class="poloto_axis_lines" style="stroke-dasharray:14.518002322880372;stroke-dashoffset:-58.04878048780488;" d=" M 150 400 L 650 400" /><path  stroke="black" fill="none" class="poloto_axis_lines" style="stroke-dasharray:6.912442396313365;stroke-dashoffset:-48.387096774193566;" d=" M 150 400 L 150 100" /></svg>