<svg class="poloto" width="800" height="500" viewBox="0 0 800 500" xmlns="http://www.w3.org/2000/svg"><style>.poloto { stroke-linecap:round; stroke-linejoin:round; font-family: 'Tahoma', sans-serif; background-color: AliceBlue;} .poloto_scatter{stroke-width:7} .poloto_line{stroke-width:2} .poloto_text{fill: black;} .poloto_axis_lines{stroke: black;stroke-width:3;fill:none;stroke-dasharray:none} .poloto0stroke{stroke:  blue;} .poloto1stroke{stroke:  red;} .poloto2stroke{stroke:  green;} .poloto3stroke{stroke:  gold;} .poloto4stroke{stroke:  aqua;} .poloto5stroke{stroke:  lime;} .poloto6stroke{stroke:  orange;} .poloto7stroke{stroke:  chocolate;} .poloto0fill{fill:blue;} .poloto1fill{fill:red;} .poloto2fill{fill:green;} .poloto3fill{fill:gold;} .poloto4fill{fill:aqua;} .poloto5fill{fill:lime;} .poloto6fill{fill:orange;} .poloto7fill{fill:chocolate;}</style><text  class="poloto_text poloto_legend_text" alignment-baseline="middle" text-anchor="start" font-size="large" x="675" y="100" ></text><path  class="poloto_linefill poloto0fill" d=" M 150 400 L 150 390.0633975934791 L 151.74216027874564 390.1798421529305 L 153.4843205574913 391.61599171949797 L 155.22648083623693 391.07258377539137 L 156.96864111498257 392.3146590762065 L 158.71080139372822 393.5567343770216 L 160.45296167247386 394.0613274679778 L 162.1951219512195 395.88562556604995 L 163.93728222996515 395.30340276879286 L 165.6794425087108 395.92444041920044 L 167.42160278745644 396.46784836330704 L 169.16376306620208 396.42903351015656 L 170.90592334494772 397.3217751326174 L 172.64808362369337 397.865183076724 L 174.390243902439 397.4770345452193 L 176.13240418118465 398.4862207271316 L 177.8745644599303 398.8743692586363 L 179.61672473867597 399.3789623495924 L 181.3588850174216 399.340147496442 L 183.10104529616726 398.9519989649373 L 184.8432055749129 399.0296286712382 L 186.58536585365854 399.80592573424764 L 188.3275261324042 400 L 190.06968641114983 399.3013326432915 L 191.81184668989548 398.79673955233534 L 193.55400696864112 400 L 195.29616724738676 398.4474058739811 L 197.0383275261324 398.9131841117868 L 198.78048780487805 397.7487385172726 L 200.5226480836237 398.0204424893259 L 202.26480836236934 398.68029499288394 L 204.00696864111498 398.68029499288394 L 205.74912891986062 399.7282960279467 L 207.49128919860627 399.9611851468495 L 209.2334494773519 398.68029499288394 L 210.97560975609755 398.8355544054858 L 212.7177700348432 399.4177772027429 L 214.45993031358887 399.0296286712382 L 216.2020905923345 397.1665157200155 L 217.94425087108016 395.84681071289947 L 219.6864111498258 395.6527364471471 L 221.42857142857144 395.4974770345452 L 223.1707317073171 396.46784836330704 L 224.91289198606273 396.50666321645747 L 226.65505226480838 396.50666321645747 L 228.39721254355402 397.05007116056413 L 230.13937282229966 396.04088497865183 L 231.8815331010453 396.46784836330704 L 233.62369337979095 396.3514038038556 L 235.3658536585366 396.8948117479622 L 237.10801393728224 396.6231077759089 L 238.85017421602788 396.3514038038556 L 240.59233449477352 397.43821969206886 L 242.33449477351917 396.58429292275844 L 244.0766550522648 397.05007116056413 L 245.81881533101046 397.3605899857679 L 247.5609756097561 398.1757019019278 L 249.30313588850174 397.98162763617546 L 251.0452961672474 397.8263682235736 L 252.78745644599303 398.0204424893259 L 254.52961672473867 396.9336266011127 L 256.2717770034843 396.97244145426316 L 258.01393728222996 397.01125630741365 L 259.7560975609756 397.3217751326174 L 261.49825783972125 396.1961443912537 L 263.2404181184669 396.31258895070516 L 264.98257839721254 397.05007116056413 L 266.7247386759582 396.9336266011127 L 268.4668989547038 395.6915513002976 L 270.20905923344947 395.30340276879286 L 271.9512195121951 396.42903351015656 L 273.69337979094075 396.7783671885108 L 275.4355400696864 395.7691810065985 L 277.17770034843204 396.0796998318023 L 278.91986062717774 396.85599689481177 L 280.6620209059233 396.00207012550135 L 282.404181184669 395.148143356191 L 284.1463414634146 394.2554017337301 L 285.8885017421603 393.78962349592445 L 287.6306620209059 393.67317893647305 L 289.3728222996516 392.74162246086166 L 291.1149825783972 392.0041402510027 L 292.8571428571429 391.8488808384008 L 294.5993031358885 391.9265105447018 L 296.3414634146342 393.63436408332257 L 298.08362369337976 394.4494759994825 L 299.82578397212546 394.0613274679778 L 301.56794425087105 393.75080864277396 L 303.31010452961675 393.67317893647305 L 305.05226480836234 393.2850304049683 L 306.79442508710804 392.74162246086166 L 308.5365853658536 392.54754819510936 L 310.2787456445993 392.78043731401215 L 312.0209059233449 394.0225126148273 L 313.7630662020906 394.9928839435891 L 315.5052264808362 395.96325527235086 L 317.2473867595819 395.807995859749 L 318.9895470383275 395.6915513002976 L 320.7317073170732 395.2645879156424 L 322.4738675958188 394.1001423211282 L 324.2160278745645 394.5659205589339 L 325.9581881533101 394.21658688057965 L 327.70034843205576 393.20740069866736 L 329.4425087108014 392.9745115797645 L 331.18466898954705 391.96532539785227 L 332.9268292682927 390.9173243627895 L 334.66898954703834 389.98576788717816 L 336.411149825784 390.9173243627895 L 338.1533101045296 389.8305084745763 L 339.89547038327527 388.58843317376113 L 341.6376306620209 387.423987579247 L 343.37979094076655 386.9970241945918 L 345.1219512195122 388.0450252296545 L 346.86411149825784 388.1226549359555 L 348.6062717770035 387.6180618449994 L 350.34843205574913 386.68650536938804 L 352.0905923344948 388.31672920170786 L 353.8327526132404 389.0930262647173 L 355.57491289198606 386.4924311036357 L 357.3170731707317 386.8417647819899 L 359.05923344947735 385.8325786000776 L 360.801393728223 385.366800362272 L 362.54355400696863 385.0174666839177 L 364.2857142857143 384.97865183076726 L 366.0278745644599 385.3279855091215 L 367.77003484320556 384.8622072713158 L 369.5121951219512 385.0174666839177 L 371.25435540069685 383.3484279984474 L 372.9965156794425 381.9510932850304 L 374.73867595818814 380.74783283736576 L 376.4808362369338 380.78664769051625 L 378.2229965156795 379.81627636175443 L 379.96515679442507 380.1656100401087 L 381.70731707317077 378.4965713546384 L 383.44947735191636 378.14723767628413 L 385.19163763066206 377.40975546642517 L 386.93379790940764 377.2156812006728 L 388.67595818815334 376.9439772286195 L 390.41811846689893 377.64264458532796 L 392.16027874564463 377.60382973217753 L 393.9024390243902 375.7795316341053 L 395.6445993031359 374.6150860395911 L 397.3867595818815 375.6630870746539 L 399.1289198606272 373.4118255919265 L 400.8710801393728 372.51908396946567 L 402.6132404181185 372.20856514426185 L 404.3554006968641 371.8204166127571 L 406.0975609756098 372.05330573166 L 407.8397212543554 371.7427869064562 L 409.58188153310107 370.7724155776944 L 411.3240418118467 370.03493336783544 L 413.06620209059236 370.2678224867383 L 414.808362369338 369.49152542372883 L 416.55052264808364 368.48233924181653 L 418.2926829268293 367.5119679130547 L 420.03484320557493 365.80411437443394 L 421.7770034843206 363.47522318540564 L 423.5191637630662 363.00944494759995 L 425.26132404181186 361.2627765558287 L 427.0034843205575 359.9818864018631 L 428.74564459930315 360.7193686117221 L 430.4878048780488 357.7694397722862 L 432.22996515679444 357.8082546254367 L 433.9721254355401 357.57536550653384 L 435.7142857142857 357.7694397722862 L 437.45644599303137 355.6346228490102 L 439.198606271777 356.1004010868159 L 440.94076655052265 354.4313624013456 L 442.6829268292683 353.6162504851857 L 444.42508710801394 354.78069607969985 L 446.1672473867596 351.753137533963 L 447.9094076655052 351.4814335619097 L 449.65156794425087 351.5978781213611 L 451.3937282229965 347.63876310001297 L 453.13588850174216 349.3854314917842 L 454.8780487804878 347.21179971535776 L 456.62020905923345 346.9789105964549 L 458.3623693379791 346.4743175054988 L 460.10452961672473 345.426316470436 L 461.8466898954704 343.3303144003105 L 463.588850174216 341.73890542114117 L 465.33101045296166 342.0882390994954 L 467.0731707317073 346.9400957433044 L 468.81533101045295 338.9054211411567 L 470.5574912891986 338.59490231595294 L 472.29965156794424 337.2363824556864 L 474.0418118466899 337.54690128089015 L 475.7839721254355 337.7409755466425 L 477.52613240418117 100 L 479.2682926829268 108.53926769310385 L 481.01045296167246 174.44688834260575 L 482.7526132404181 104.19200414025096 L 484.49477351916374 124.10402380644325 L 486.2369337979094 376.98279208176996 L 487.97909407665503 392.3146590762065 L 489.7212543554007 389.9469530340277 L 491.4634146341463 386.76413507568896 L 493.20557491289196 389.90813818087724 L 494.9477351916376 385.1727260965196 L 496.68989547038325 381.6793893129771 L 498.4320557491289 384.55168844611205 L 500.17421602787454 380.0103506275068 L 501.91637630662024 385.0562815370682 L 503.6585365853659 391.03376892224094 L 505.4006968641115 385.366800362272 L 507.14285714285717 381.7958338724285 L 508.8850174216028 374.18812265493597 L 510.62717770034845 374.18812265493597 L 512.3693379790941 362.0778884719886 L 514.1114982578397 360.6029240522707 L 515.8536585365854 360.0207012550136 L 517.5958188153311 358.23521801009184 L 519.3379790940767 357.69181006598524 L 521.0801393728223 357.69181006598524 L 522.822299651568 356.7990684435244 L 524.5644599303137 355.3629188769569 L 526.3066202090592 354.78069607969985 L 528.0487804878048 364.2903351015655 L 529.7909407665505 359.3608487514556 L 531.5331010452962 357.53655065338336 L 533.2752613240418 359.20558933885366 L 535.0174216027874 357.2260318281796 L 536.7595818815331 356.8766981498253 L 538.5017421602788 357.14840212187863 L 540.2439024390244 355.6346228490102 L 541.98606271777 357.3036615344805 L 543.7282229965157 357.69181006598524 L 545.4703832752614 360.75818346487256 L 547.212543554007 358.70099624789754 L 548.9547038327526 359.78781213611074 L 550.6968641114983 360.0595161081641 L 552.439024390244 359.67136757665935 L 554.1811846689895 362.6989261223962 L 555.9233449477351 362.85418553499807 L 557.6655052264808 362.6601112692457 L 559.4076655052265 362.89300038814855 L 561.1498257839721 363.0870746539009 L 562.8919860627177 361.92262905938674 L 564.6341463414634 362.03907361883813 L 566.3763066202091 363.1647043602018 L 568.1184668989547 362.42722215034286 L 569.8606271777003 361.8061844999353 L 571.602787456446 363.00944494759995 L 573.3449477351917 362.54366670979425 L 575.0871080139373 362.2331478845905 L 576.8292682926829 363.66929745115795 L 578.5714285714286 364.7561133393712 L 580.3135888501743 366.65804114374436 L 582.0557491289198 366.65804114374436 L 583.7979094076654 367.5119679130547 L 585.5400696864111 365.7652995212835 L 587.2822299651568 365.9205589338854 L 589.0243902439024 366.6192262905939 L 590.766550522648 367.5895976193557 L 592.5087108013937 368.6375986544184 L 594.2508710801394 369.99611851468495 L 595.993031358885 369.7632293957821 L 597.7351916376306 371.23819381550004 L 599.4773519163763 372.71315823521803 L 601.219512195122 372.63552852891706 L 602.9616724738676 373.0624919135723 L 604.7038327526133 371.9368611722086 L 606.445993031359 371.3546383749515 L 608.1881533101046 372.0144908785095 L 609.9303135888501 372.36382455686373 L 611.6724738675958 374.5374563332902 L 613.4146341463415 374.92560486479493 L 615.1567944250871 376.3617544313624 L 616.8989547038327 380.28205459956007 L 618.6411149825784 378.06960796998317 L 620.3832752613241 378.22486738258505 L 622.1254355400697 378.4965713546384 L 623.8675958188153 382.7662052011903 L 625.609756097561 383.69776167680163 L 627.3519163763067 384.1635399146073 L 629.0940766550523 386.4148013973347 L 630.8362369337979 385.9102083063786 L 632.5783972125436 386.14309742528144 L 634.3205574912893 386.6088756630871 L 636.0627177700349 388.2390994954069 L 637.8048780487804 388.58843317376113 L 639.5470383275261 388.35554405485834 L 641.2891986062718 388.20028464225646 L 643.0313588850174 389.40354508992107 L 644.773519163763 390.4903609781343 L 646.5156794425087 390.14102729978003 L 648.2578397212544 388.58843317376113 L 650 388.93776685211543 L 650 400 Z" /><text  class="poloto_labels poloto_text poloto_title" alignment-baseline="start" text-anchor="middle" font-size="x-large" x="400" y="37.5" >Total players on 2021-09-27</text><text  class="poloto_labels poloto_text poloto_xname" alignment-baseline="start" text-anchor="middle" font-size="x-large" x="400" y="481.25" >Time</text><text  class="poloto_labels poloto_text poloto_yname" alignment-baseline="start" text-anchor="middle" font-size="x-large" transform="rotate(-90,37.5,250)" x="37.5" y="250" >Count</text><line  class="poloto_axis_lines" stroke="black" x1="150" x2="150" y1="400" y2="405" /><text  class="poloto_tick_labels poloto_text" alignment-baseline="start" text-anchor="middle" x="150" y="430" > 00:00:00</text><line  class="poloto_axis_lines" stroke="black" x1="266.14401858304296" x2="266.14401858304296" y1="400" y2="405" /><text  class="poloto_tick_labels poloto_text" alignment-baseline="start" text-anchor="middle" x="266.14401858304296" y="430" > 05:33:20</text><line  class="poloto_axis_lines" stroke="black" x1="382.2880371660859" x2="382.2880371660859" y1="400" y2="405" /><text  class="poloto_tick_labels poloto_text" alignment-baseline="start" text-anchor="middle" x="382.2880371660859" y="430" > 11:06:40</text><line  class="poloto_axis_lines" stroke="black" x1="498.4320557491289" x2="498.4320557491289" y1="400" y2="405" /><text  class="poloto_tick_labels poloto_text" alignment-baseline="start" text-anchor="middle" x="498.4320557491289" y="430" > 16:40:00</text><line  class="poloto_axis_lines" stroke="black" x1="614.5760743321719" x2="614.5760743321719" y1="400" y2="405" /><text  class="poloto_tick_labels poloto_text" alignment-baseline="start" text-anchor="middle" x="614.5760743321719" y="430" > 22:13:20</text><line  class="poloto_axis_lines" stroke="black" x1="150" x2="144" y1="359.12795963255275" y2="359.12795963255275" /><text  class="poloto_tick_labels poloto_text" alignment-baseline="middle" text-anchor="end" x="135" y="359.12795963255275" > 2000</text><line  class="poloto_axis_lines" stroke="black" x1="150" x2="144" y1="281.4982533316082" y2="281.4982533316082" /><text  class="poloto_tick_labels poloto_text" alignment-baseline="middle" text-anchor="end" x="135" y="281.4982533316082" > 4000</text><line  class="poloto_axis_lines" stroke="black" x1="150" x2="144" y1="203.8685470306637" y2="203.8685470306637" /><text  class="poloto_tick_labels poloto_text" alignment-baseline="middle" text-anchor="end" x="135" y="203.8685470306637" > 6000</text><line  class="poloto_axis_lines" stroke="black" x1="150" x2="144" y1="126.23884072971924" y2="126.23884072971924" /><text  class="poloto_tick_labels poloto_text" alignment-baseline="middle" text-anchor="end" x="135" y="126.23884072971924" > 8000</text><path  stroke="black" fill="none" class="poloto_axis_lines" style="stroke-dasharray:14.518002322880372;stroke-dashoffset:-0;" d=" M 150 400 L 650 400" /><path  stroke="black" fill="none" class="poloto_axis_lines" style="stroke-dasharray:9.703713287618061;stroke-dashoffset:-40.87204036744727;" d=" M 150 400 L 150 100" /></svg>