<svg class="poloto" width="800" height="500" viewBox="0 0 800 500" xmlns="http://www.w3.org/2000/svg"><style>.poloto { stroke-linecap:round; stroke-linejoin:round; font-family: 'Tahoma', sans-serif; background-color: AliceBlue;} .poloto_scatter{stroke-width:7} .poloto_line{stroke-width:2} .poloto_text{fill: black;} .poloto_axis_lines{stroke: black;stroke-width:3;fill:none;stroke-dasharray:none} .poloto0stroke{stroke:  blue;} .poloto1stroke{stroke:  red;} .poloto2stroke{stroke:  green;} .poloto3stroke{stroke:  gold;} .poloto4stroke{stroke:  aqua;} .poloto5stroke{stroke:  lime;} .poloto6stroke{stroke:  orange;} .poloto7stroke{stroke:  chocolate;} .poloto0fill{fill:blue;} .poloto1fill{fill:red;} .poloto2fill{fill:green;} .poloto3fill{fill:gold;} .poloto4fill{fill:aqua;} .poloto5fill{fill:lime;} .poloto6fill{fill:orange;} .poloto7fill{fill:chocolate;}</style><text  class="poloto_text poloto_legend_text" alignment-baseline="middle" text-anchor="start" font-size="large" x="675" y="100" ></text><path  class="poloto_linefill poloto0fill" d=" M 150 400 L 150 340.0372439478584 L 151.74216027874564 345.437616387337 L 153.4843205574913 350.8379888268156 L 155.22648083623693 339.8510242085661 L 156.96864111498257 350.65176908752323 L 158.71080139372822 355.12104283054003 L 160.45296167247386 361.82495344506515 L 162.1951219512195 367.03910614525137 L 163.93728222996515 366.1080074487896 L 165.6794425087108 366.66666666666663 L 167.42160278745644 364.4320297951583 L 169.16376306620208 365.54934823091247 L 170.90592334494772 364.80446927374305 L 172.64808362369337 364.99068901303536 L 174.390243902439 365.3631284916201 L 176.13240418118465 370.39106145251395 L 177.8745644599303 375.9776536312849 L 179.61672473867597 382.8677839851024 L 181.3588850174216 378.0260707635009 L 183.10104529616726 386.40595903165735 L 184.8432055749129 389.9441340782123 L 186.58536585365854 385.47486033519556 L 188.3275261324042 388.45437616387335 L 190.06968641114983 394.5996275605214 L 191.81184668989548 392.55121042830535 L 193.55400696864112 385.6610800744879 L 195.29616724738676 384.7299813780261 L 197.0383275261324 385.47486033519556 L 198.78048780487805 386.0335195530726 L 200.5226480836237 385.2886405959032 L 202.26480836236934 381.9366852886406 L 204.00696864111498 381.00558659217876 L 205.74912891986062 380.4469273743017 L 207.49128919860627 380.07448789571697 L 209.2334494773519 391.2476722532588 L 210.97560975609755 388.6405959031657 L 212.7177700348432 391.80633147113593 L 214.45993031358887 390.5027932960894 L 216.2020905923345 395.7169459962756 L 217.94425087108016 391.9925512104283 L 219.6864111498258 395.7169459962756 L 221.42857142857144 398.51024208566105 L 223.1707317073171 396.08938547486036 L 224.91289198606273 395.7169459962756 L 226.65505226480838 400 L 228.39721254355402 399.81378026070763 L 230.13937282229966 394.7858472998138 L 231.8815331010453 390.6890130353818 L 233.62369337979095 386.7783985102421 L 235.3658536585366 383.79888268156424 L 237.10801393728224 388.0819366852886 L 238.85017421602788 385.8472998137803 L 240.59233449477352 388.45437616387335 L 242.33449477351917 389.3854748603352 L 244.0766550522648 384.7299813780261 L 245.81881533101046 387.89571694599624 L 247.5609756097561 386.0335195530726 L 249.30313588850174 378.584729981378 L 251.0452961672474 378.39851024208565 L 252.78745644599303 378.7709497206704 L 254.52961672473867 379.70204841713223 L 256.2717770034843 383.4264432029795 L 258.01393728222996 382.49534450651765 L 259.7560975609756 381.1918063314711 L 261.49825783972125 374.487895716946 L 263.2404181184669 371.88081936685285 L 264.98257839721254 366.1080074487896 L 266.7247386759582 360.707635009311 L 268.4668989547038 354.5623836126629 L 270.20905923344947 348.6033519553073 L 271.9512195121951 347.8584729981378 L 273.69337979094075 346.1824953445065 L 275.4355400696864 346.1824953445065 L 277.17770034843204 348.78957169459966 L 278.91986062717774 347.4860335195531 L 280.6620209059233 342.83054003724396 L 282.404181184669 340.7821229050279 L 284.1463414634146 342.0856610800745 L 285.8885017421603 343.01675977653633 L 287.6306620209059 352.88640595903166 L 289.3728222996516 353.2588454376164 L 291.1149825783972 354.18994413407825 L 292.8571428571429 352.1415270018622 L 294.5993031358885 356.98324022346367 L 296.3414634146342 356.98324022346367 L 298.08362369337976 358.28677839851025 L 299.82578397212546 359.2178770949721 L 301.56794425087105 362.5698324022346 L 303.31010452961675 365.54934823091247 L 305.05226480836234 363.50093109869647 L 306.79442508710804 359.40409683426446 L 308.5365853658536 366.48044692737426 L 310.2787456445993 363.8733705772812 L 312.0209059233449 359.59031657355683 L 313.7630662020906 354.0037243947859 L 315.5052264808362 354.18994413407825 L 317.2473867595819 355.86592178770945 L 318.9895470383275 354.5623836126629 L 320.7317073170732 351.5828677839851 L 322.4738675958188 346.92737430167597 L 324.2160278745645 342.83054003724396 L 325.9581881533101 342.83054003724396 L 327.70034843205576 341.15456238361264 L 329.4425087108014 338.17504655493485 L 331.18466898954705 336.87150837988827 L 332.9268292682927 334.63687150837984 L 334.66898954703834 327.56052141527005 L 336.411149825784 327.3743016759777 L 338.1533101045296 327.00186219739294 L 339.89547038327527 329.4227188081936 L 341.6376306620209 323.09124767225325 L 343.37979094076655 319.92551210428303 L 345.1219512195122 317.69087523277466 L 346.86411149825784 319.18063314711355 L 348.6062717770035 317.69087523277466 L 350.34843205574913 311.9180633147114 L 352.0905923344948 311.1731843575419 L 353.8327526132404 312.8491620111732 L 355.57491289198606 310.0558659217877 L 357.3170731707317 304.096834264432 L 359.05923344947735 301.6759776536313 L 360.801393728223 293.66852886405957 L 362.54355400696863 289.75791433891993 L 364.2857142857143 284.35754189944134 L 366.0278745644599 277.83985102420854 L 367.77003484320556 278.2122905027933 L 369.5121951219512 280.633147113594 L 371.25435540069685 271.3221601489758 L 372.9965156794425 275.60521415270017 L 374.73867595818814 283.4264432029795 L 376.4808362369338 269.83240223463685 L 378.2229965156795 265.9217877094972 L 379.96515679442507 260.33519553072625 L 381.70731707317077 262.756052141527 L 383.44947735191636 268.7150837988827 L 385.19163763066206 259.9627560521415 L 386.93379790940764 265.54934823091247 L 388.67595818815334 257.5418994413408 L 390.41811846689893 247.48603351955308 L 392.16027874564463 244.87895716945997 L 393.9024390243902 241.340782122905 L 395.6445993031359 240.40968342644322 L 397.3867595818815 237.05772811918064 L 399.1289198606272 238.91992551210427 L 400.8710801393728 235.00931098696464 L 402.6132404181185 223.27746741154562 L 404.3554006968641 231.2849162011173 L 406.0975609756098 215.27001862197392 L 407.8397212543554 212.47672253258844 L 409.58188153310107 199.4413407821229 L 411.3240418118467 189.57169459962756 L 413.06620209059236 192.17877094972067 L 414.808362369338 187.52327746741156 L 416.55052264808364 174.11545623836128 L 418.2926829268293 174.487895716946 L 420.03484320557493 176.35009310986965 L 421.7770034843206 181.9366852886406 L 423.5191637630662 180.26070763500928 L 425.26132404181186 163.68715083798884 L 427.0034843205575 157.54189944134077 L 428.74564459930315 153.63128491620114 L 430.4878048780488 140.7821229050279 L 432.22996515679444 136.87150837988827 L 433.9721254355401 128.30540037243946 L 435.7142857142857 143.94785847299812 L 437.45644599303137 129.60893854748605 L 439.198606271777 120.85661080074487 L 440.94076655052265 119.73929236499066 L 442.6829268292683 128.86405959031657 L 444.42508710801394 124.20856610800746 L 446.1672473867596 120.6703910614525 L 447.9094076655052 127.56052141526999 L 449.65156794425087 128.49162011173183 L 451.3937282229965 126.0707635009311 L 453.13588850174216 118.80819366852887 L 454.8780487804878 116.0148975791434 L 456.62020905923345 113.03538175046555 L 458.3623693379791 107.44878957169459 L 460.10452961672473 101.86219739292363 L 461.8466898954704 100 L 463.588850174216 105.77281191806333 L 465.33101045296166 107.63500931098696 L 467.0731707317073 107.63500931098696 L 468.81533101045295 122.71880819366851 L 470.5574912891986 128.30540037243946 L 472.29965156794424 123.83612662942272 L 474.0418118466899 116.75977653631287 L 475.7839721254355 120.48417132216014 L 477.52613240418117 126.81564245810057 L 479.2682926829268 125.69832402234636 L 481.01045296167246 129.9813780260708 L 482.7526132404181 134.26443202979516 L 484.49477351916374 136.6852886405959 L 486.2369337979094 140.7821229050279 L 487.97909407665503 148.23091247672255 L 489.7212543554007 150.83798882681566 L 491.4634146341463 150.6517690875233 L 493.20557491289196 147.67225325884544 L 494.9477351916376 140.7821229050279 L 496.68989547038325 160.89385474860336 L 498.4320557491289 160.707635009311 L 500.17421602787454 159.59031657355678 L 501.91637630662024 169.83240223463685 L 503.6585365853659 173.55679702048417 L 505.4006968641115 170.39106145251395 L 507.14285714285717 172.8119180633147 L 508.8850174216028 181.19180633147113 L 510.62717770034845 182.8677839851024 L 512.3693379790941 198.8826815642458 L 514.1114982578397 193.10986964618252 L 515.8536585365854 197.02048417132215 L 517.5958188153311 205.4003724394786 L 519.3379790940767 203.91061452513964 L 521.0801393728223 200.37243947858474 L 522.822299651568 201.1173184357542 L 524.5644599303137 216.0148975791434 L 526.3066202090592 204.6554934823091 L 528.0487804878048 201.4897579143389 L 529.7909407665505 200.5586592178771 L 531.5331010452962 202.23463687150837 L 533.2752613240418 214.15270018621976 L 535.0174216027874 218.0633147113594 L 536.7595818815331 212.84916201117318 L 538.5017421602788 208.75232774674117 L 540.2439024390244 209.12476722532585 L 541.98606271777 209.86964618249533 L 543.7282229965157 206.7039106145251 L 545.4703832752614 200.93109869646185 L 547.212543554007 210.98696461824954 L 548.9547038327526 201.30353817504653 L 550.6968641114983 200.18621973929237 L 552.439024390244 201.86219739292363 L 554.1811846689895 200.5586592178771 L 555.9233449477351 208.37988826815644 L 557.6655052264808 217.31843575418992 L 559.4076655052265 209.12476722532585 L 561.1498257839721 204.6554934823091 L 562.8919860627177 210.6145251396648 L 564.6341463414634 222.53258845437614 L 566.3763066202091 226.81564245810057 L 568.1184668989547 221.9739292364991 L 569.8606271777003 224.39478584729983 L 571.602787456446 227.37430167597768 L 573.3449477351917 225.69832402234636 L 575.0871080139373 212.29050279329607 L 576.8292682926829 222.90502793296088 L 578.5714285714286 218.24953445065177 L 580.3135888501743 223.09124767225325 L 582.0557491289198 228.30540037243946 L 583.7979094076654 226.0707635009311 L 585.5400696864111 221.41527001862198 L 587.2822299651568 227.00186219739294 L 589.0243902439024 225.69832402234636 L 590.766550522648 239.10614525139664 L 592.5087108013937 248.7895716945996 L 594.2508710801394 238.36126629422716 L 595.993031358885 239.47858472998138 L 597.7351916376306 240.03724394785849 L 599.4773519163763 239.85102420856612 L 601.219512195122 249.3482309124767 L 602.9616724738676 251.02420856610803 L 604.7038327526133 246.7411545623836 L 606.445993031359 259.77653631284915 L 608.1881533101046 272.2532588454376 L 609.9303135888501 267.4115456238361 L 611.6724738675958 267.9702048417132 L 613.4146341463415 275.04655493482306 L 615.1567944250871 273.55679702048417 L 616.8989547038327 274.487895716946 L 618.6411149825784 282.68156424581 L 620.3832752613241 278.7709497206704 L 622.1254355400697 278.39851024208565 L 623.8675958188153 286.5921787709497 L 625.609756097561 284.5437616387337 L 627.3519163763067 293.29608938547483 L 629.0940766550523 297.3929236499069 L 630.8362369337979 305.02793296089385 L 632.5783972125436 308.3798882681564 L 634.3205574912893 307.07635009310985 L 636.0627177700349 313.78026070763497 L 637.8048780487804 314.7113594040968 L 639.5470383275261 316.5735567970205 L 641.2891986062718 315.2700186219739 L 643.0313588850174 316.20111731843576 L 644.773519163763 317.50465549348235 L 646.5156794425087 318.24953445065177 L 648.2578397212544 324.58100558659214 L 650 327.7467411545624 L 650 400 Z" /><text  class="poloto_labels poloto_text poloto_title" alignment-baseline="start" text-anchor="middle" font-size="x-large" x="400" y="37.5" >Total players on 2021-11-29</text><text  class="poloto_labels poloto_text poloto_xname" alignment-baseline="start" text-anchor="middle" font-size="x-large" x="400" y="481.25" >Time</text><text  class="poloto_labels poloto_text poloto_yname" alignment-baseline="start" text-anchor="middle" font-size="x-large" transform="rotate(-90,37.5,250)" x="37.5" y="250" >Count</text><line  class="poloto_axis_lines" stroke="black" x1="150" x2="150" y1="400" y2="405" /><text  class="poloto_tick_labels poloto_text" alignment-baseline="start" text-anchor="middle" x="150" y="430" > 00:00:00</text><line  class="poloto_axis_lines" stroke="black" x1="266.14401858304296" x2="266.14401858304296" y1="400" y2="405" /><text  class="poloto_tick_labels poloto_text" alignment-baseline="start" text-anchor="middle" x="266.14401858304296" y="430" > 05:33:20</text><line  class="poloto_axis_lines" stroke="black" x1="382.2880371660859" x2="382.2880371660859" y1="400" y2="405" /><text  class="poloto_tick_labels poloto_text" alignment-baseline="start" text-anchor="middle" x="382.2880371660859" y="430" > 11:06:40</text><line  class="poloto_axis_lines" stroke="black" x1="498.4320557491289" x2="498.4320557491289" y1="400" y2="405" /><text  class="poloto_tick_labels poloto_text" alignment-baseline="start" text-anchor="middle" x="498.4320557491289" y="430" > 16:40:00</text><line  class="poloto_axis_lines" stroke="black" x1="614.5760743321719" x2="614.5760743321719" y1="400" y2="405" /><text  class="poloto_tick_labels poloto_text" alignment-baseline="start" text-anchor="middle" x="614.5760743321719" y="430" > 22:13:20</text><line  class="poloto_axis_lines" stroke="black" x1="150" x2="144" y1="352.88640595903166" y2="352.88640595903166" /><text  class="poloto_tick_labels poloto_text" alignment-baseline="middle" text-anchor="end" x="135" y="352.88640595903166" > 1000</text><line  class="poloto_axis_lines" stroke="black" x1="150" x2="144" y1="259.77653631284915" y2="259.77653631284915" /><text  class="poloto_tick_labels poloto_text" alignment-baseline="middle" text-anchor="end" x="135" y="259.77653631284915" > 1500</text><line  class="poloto_axis_lines" stroke="black" x1="150" x2="144" y1="166.66666666666669" y2="166.66666666666669" /><text  class="poloto_tick_labels poloto_text" alignment-baseline="middle" text-anchor="end" x="135" y="166.66666666666669" > 2000</text><path  stroke="black" fill="none" class="poloto_axis_lines" style="stroke-dasharray:14.518002322880372;stroke-dashoffset:-0;" d=" M 150 400 L 650 400" /><path  stroke="black" fill="none" class="poloto_axis_lines" style="stroke-dasharray:9.310986964618248;stroke-dashoffset:-47.11359404096834;" d=" M 150 400 L 150 100" /></svg>