<svg class="poloto" width="800" height="500" viewBox="0 0 800 500" xmlns="http://www.w3.org/2000/svg"><style>.poloto { stroke-linecap:round; stroke-linejoin:round; font-family: 'Tahoma', sans-serif; background-color: AliceBlue;} .poloto_scatter{stroke-width:7} .poloto_line{stroke-width:2} .poloto_text{fill: black;} .poloto_axis_lines{stroke: black;stroke-width:3;fill:none;stroke-dasharray:none} .poloto0stroke{stroke:  blue;} .poloto1stroke{stroke:  red;} .poloto2stroke{stroke:  green;} .poloto3stroke{stroke:  gold;} .poloto4stroke{stroke:  aqua;} .poloto5stroke{stroke:  lime;} .poloto6stroke{stroke:  orange;} .poloto7stroke{stroke:  chocolate;} .poloto0fill{fill:blue;} .poloto1fill{fill:red;} .poloto2fill{fill:green;} .poloto3fill{fill:gold;} .poloto4fill{fill:aqua;} .poloto5fill{fill:lime;} .poloto6fill{fill:orange;} .poloto7fill{fill:chocolate;}</style><text  class="poloto_text poloto_legend_text" alignment-baseline="middle" text-anchor="start" font-size="large" x="675" y="100" ></text><path  class="poloto_linefill poloto0fill" d=" M 150 400 L 150 343.33958724202625 L 151.74216027874564 346.1538461538462 L 153.4843205574913 350.46904315196997 L 155.22648083623693 349.155722326454 L 156.96864111498257 349.718574108818 L 158.71080139372822 356.84803001876173 L 160.45296167247386 355.9099437148218 L 162.1951219512195 362.6641651031895 L 163.93728222996515 360.4127579737336 L 165.6794425087108 358.16135084427765 L 167.42160278745644 361.16322701688557 L 169.16376306620208 365.6660412757974 L 170.90592334494772 366.9793621013133 L 172.64808362369337 363.6022514071294 L 174.390243902439 364.16510318949344 L 176.13240418118465 368.10506566604124 L 177.8745644599303 369.6060037523452 L 179.61672473867597 370.7317073170732 L 181.3588850174216 374.10881801125703 L 183.10104529616726 375.234521575985 L 184.8432055749129 378.61163227016885 L 186.58536585365854 382.3639774859287 L 188.3275261324042 382.92682926829264 L 190.06968641114983 385.1782363977486 L 191.81184668989548 390.0562851782364 L 193.55400696864112 385.5534709193246 L 195.29616724738676 382.1763602251407 L 197.0383275261324 375.609756097561 L 198.78048780487805 374.10881801125703 L 200.5226480836237 369.7936210131332 L 202.26480836236934 370.9193245778612 L 204.00696864111498 367.91744840525325 L 205.74912891986062 366.60412757973734 L 207.49128919860627 368.4803001876172 L 209.2334494773519 366.41651031894935 L 210.97560975609755 369.7936210131332 L 212.7177700348432 361.9136960600375 L 214.45993031358887 351.40712945590997 L 216.2020905923345 354.0337711069418 L 217.94425087108016 349.343339587242 L 219.6864111498258 345.40337711069424 L 221.42857142857144 345.40337711069424 L 223.1707317073171 342.7767354596623 L 224.91289198606273 341.65103189493436 L 226.65505226480838 339.96247654784236 L 228.39721254355402 342.5891181988743 L 230.13937282229966 337.14821763602254 L 231.8815331010453 341.65103189493436 L 233.62369337979095 342.02626641651034 L 235.3658536585366 340.5253283302063 L 237.10801393728224 337.7110694183865 L 238.85017421602788 331.1444652908068 L 240.59233449477352 335.6472795497185 L 242.33449477351917 332.4577861163227 L 244.0766550522648 330.01876172607876 L 245.81881533101046 328.3302063789869 L 247.5609756097561 325.14071294559096 L 249.30313588850174 325.51594746716694 L 251.0452961672474 326.454033771107 L 252.78745644599303 329.8311444652908 L 254.52961672473867 323.45215759849907 L 256.2717770034843 319.13696060037523 L 258.01393728222996 321.95121951219517 L 259.7560975609756 325.8911819887429 L 261.49825783972125 319.3245778611632 L 263.2404181184669 319.13696060037523 L 264.98257839721254 309.3808630393996 L 266.7247386759582 313.5084427767355 L 268.4668989547038 313.1332082551595 L 270.20905923344947 309.9437148217636 L 271.9512195121951 305.0656660412758 L 273.69337979094075 305.81613508442774 L 275.4355400696864 298.6866791744841 L 277.17770034843204 303.93996247654786 L 278.91986062717774 308.2551594746717 L 280.6620209059233 296.8105065666041 L 282.404181184669 292.30769230769226 L 284.1463414634146 293.6210131332083 L 285.8885017421603 293.2457786116323 L 287.6306620209059 287.61726078799245 L 289.3728222996516 284.80300187617263 L 291.1149825783972 276.7354596622889 L 292.8571428571429 275.422138836773 L 294.5993031358885 268.6679174484052 L 296.3414634146342 259.0994371482176 L 298.08362369337976 268.8555347091932 L 299.82578397212546 267.3545966228893 L 301.56794425087105 264.72795497185746 L 303.31010452961675 260.9756097560976 L 305.05226480836234 253.65853658536585 L 306.79442508710804 248.78048780487805 L 308.5365853658536 245.5909943714822 L 310.2787456445993 249.53095684803 L 312.0209059233449 249.718574108818 L 313.7630662020906 253.28330206378988 L 315.5052264808362 246.52908067542214 L 317.2473867595819 236.21013133208257 L 318.9895470383275 240.33771106941836 L 320.7317073170732 244.6529080675422 L 322.4738675958188 241.27579737335836 L 324.2160278745645 243.1519699812383 L 325.9581881533101 238.83677298311446 L 327.70034843205576 243.33958724202628 L 329.4425087108014 239.7748592870544 L 331.18466898954705 236.21013133208257 L 332.9268292682927 236.77298311444653 L 334.66898954703834 235.45966228893056 L 336.411149825784 241.46341463414635 L 338.1533101045296 235.8348968105066 L 339.89547038327527 230.9568480300188 L 341.6376306620209 232.08255159474672 L 343.37979094076655 221.57598499061916 L 345.1219512195122 216.51031894934337 L 346.86411149825784 216.88555347091935 L 348.6062717770035 203.37711069418387 L 350.34843205574913 197.56097560975613 L 352.0905923344948 216.69793621013136 L 353.8327526132404 199.624765478424 L 355.57491289198606 212.7579737335835 L 357.3170731707317 195.30956848030021 L 359.05923344947735 210.88180112570356 L 360.801393728223 203.75234521575985 L 362.54355400696863 198.68667917448406 L 364.2857142857143 202.0637898686679 L 366.0278745644599 206.00375234521576 L 367.77003484320556 203.0018761726079 L 369.5121951219512 208.25515947467167 L 371.25435540069685 198.1238273921201 L 372.9965156794425 202.0637898686679 L 374.73867595818814 191.93245778611632 L 376.4808362369338 196.24765478424015 L 378.2229965156795 196.9981238273921 L 379.96515679442507 194.37148217636022 L 381.70731707317077 195.87242026266418 L 383.44947735191636 200.93808630393997 L 385.19163763066206 205.2532833020638 L 386.93379790940764 197.74859287054412 L 388.67595818815334 206.19136960600375 L 390.41811846689893 194.18386491557223 L 392.16027874564463 195.6848030018762 L 393.9024390243902 188.55534709193248 L 395.6445993031359 188.93058161350845 L 397.3867595818815 184.42776735459663 L 399.1289198606272 191.74484052532833 L 400.8710801393728 175.046904315197 L 402.6132404181185 168.48030018761725 L 404.3554006968641 165.85365853658536 L 406.0975609756098 164.72795497185743 L 407.8397212543554 160.60037523452158 L 409.58188153310107 160.03752345215761 L 411.3240418118467 157.9737335834897 L 413.06620209059236 163.03939962476548 L 414.808362369338 150.46904315197 L 416.55052264808364 178.04878048780486 L 418.2926829268293 141.83864915572235 L 420.03484320557493 136.58536585365857 L 421.7770034843206 140.71294559099442 L 423.5191637630662 130.76923076923083 L 425.26132404181186 130.20637898686675 L 427.0034843205575 133.58348968105065 L 428.74564459930315 124.76547842401499 L 430.4878048780488 118.76172607879926 L 432.22996515679444 118.57410881801127 L 433.9721254355401 108.63039399624768 L 435.7142857142857 104.8780487804878 L 437.45644599303137 101.12570356472793 L 439.198606271777 108.81801125703566 L 440.94076655052265 103.93996247654786 L 442.6829268292683 112.19512195121956 L 444.42508710801394 100 L 446.1672473867596 109.19324577861164 L 447.9094076655052 110.88180112570353 L 449.65156794425087 112.00750469043157 L 451.3937282229965 111.6322701688556 L 453.13588850174216 118.57410881801127 L 454.8780487804878 128.70544090056285 L 456.62020905923345 132.45778611632272 L 458.3623693379791 132.08255159474675 L 460.10452961672473 121.76360225140718 L 461.8466898954704 122.51407129455913 L 463.588850174216 127.9549718574109 L 465.33101045296166 119.88742964352718 L 467.0731707317073 130.01876172607876 L 468.81533101045295 133.39587242026266 L 470.5574912891986 134.70919324577858 L 472.29965156794424 146.71669793621012 L 474.0418118466899 139.96247654784236 L 475.7839721254355 140.33771106941845 L 477.52613240418117 142.02626641651034 L 479.2682926829268 136.58536585365857 L 481.01045296167246 139.3996247654784 L 482.7526132404181 139.77485928705437 L 484.49477351916374 139.2120075046904 L 486.2369337979094 148.96810506566604 L 487.97909407665503 154.78424015009384 L 489.7212543554007 159.84990619136963 L 491.4634146341463 158.53658536585365 L 493.20557491289196 163.97748592870542 L 494.9477351916376 168.66791744840523 L 496.68989547038325 164.54033771106944 L 498.4320557491289 171.48217636022517 L 500.17421602787454 166.41651031894938 L 501.91637630662024 174.859287054409 L 503.6585365853659 184.05253283302065 L 505.4006968641115 184.05253283302065 L 507.14285714285717 185.9287054409006 L 508.8850174216028 192.3076923076923 L 510.62717770034845 186.49155722326455 L 512.3693379790941 196.62288930581613 L 514.1114982578397 198.49906191369607 L 515.8536585365854 200.562851782364 L 517.5958188153311 208.44277673545966 L 519.3379790940767 219.8874296435272 L 521.0801393728223 230.0187617260788 L 522.822299651568 228.70544090056288 L 524.5644599303137 235.08442776735458 L 526.3066202090592 226.26641651031898 L 528.0487804878048 241.65103189493433 L 529.7909407665505 242.4015009380863 L 531.5331010452962 248.21763602251409 L 533.2752613240418 250.46904315197 L 535.0174216027874 259.4746716697937 L 536.7595818815331 260.03752345215764 L 538.5017421602788 260.03752345215764 L 540.2439024390244 256.47279549718576 L 541.98606271777 265.4784240150094 L 543.7282229965157 253.0956848030019 L 545.4703832752614 251.21951219512195 L 547.212543554007 234.7091932457786 L 548.9547038327526 230.0187617260788 L 550.6968641114983 228.89305816135087 L 552.439024390244 225.89118198874294 L 554.1811846689895 236.39774859287056 L 555.9233449477351 236.58536585365854 L 557.6655052264808 244.09005628517824 L 559.4076655052265 242.58911819887427 L 561.1498257839721 239.02439024390245 L 562.8919860627177 243.1519699812383 L 564.6341463414634 248.78048780487805 L 566.3763066202091 243.90243902439025 L 568.1184668989547 246.9043151969981 L 569.8606271777003 249.90619136960598 L 571.602787456446 235.6472795497186 L 573.3449477351917 268.10506566604124 L 575.0871080139373 241.46341463414635 L 576.8292682926829 269.2307692307693 L 578.5714285714286 249.343339587242 L 580.3135888501743 263.6022514071294 L 582.0557491289198 272.98311444652904 L 583.7979094076654 271.48217636022514 L 585.5400696864111 274.67166979362105 L 587.2822299651568 283.3020637898686 L 589.0243902439024 284.61538461538464 L 590.766550522648 293.99624765478427 L 592.5087108013937 286.8667917448405 L 594.2508710801394 289.49343339587244 L 595.993031358885 288.7429643527205 L 597.7351916376306 300.75046904315195 L 599.4773519163763 305.81613508442774 L 601.219512195122 306.5666041275797 L 602.9616724738676 309.3808630393996 L 604.7038327526133 314.6341463414634 L 606.445993031359 317.6360225140713 L 608.1881533101046 318.94934333958724 L 609.9303135888501 324.765478424015 L 611.6724738675958 323.2645403377111 L 613.4146341463415 330.20637898686675 L 615.1567944250871 332.27016885553473 L 616.8989547038327 340.33771106941833 L 618.6411149825784 343.9024390243902 L 620.3832752613241 353.09568480300186 L 622.1254355400697 358.34896810506564 L 623.8675958188153 372.60787992495307 L 625.609756097561 373.73358348968105 L 627.3519163763067 372.60787992495307 L 629.0940766550523 367.91744840525325 L 630.8362369337979 372.0450281425891 L 632.5783972125436 381.42589118198873 L 634.3205574912893 377.86116322701685 L 636.0627177700349 376.36022514071294 L 637.8048780487804 377.2983114446529 L 639.5470383275261 384.0525328330206 L 641.2891986062718 387.8048780487805 L 643.0313588850174 392.30769230769226 L 644.773519163763 395.1219512195122 L 646.5156794425087 393.0581613508443 L 648.2578397212544 392.6829268292683 L 650 400 L 650 400 Z" /><text  class="poloto_labels poloto_text poloto_title" alignment-baseline="start" text-anchor="middle" font-size="x-large" x="400" y="37.5" >Total players on 2021-11-28</text><text  class="poloto_labels poloto_text poloto_xname" alignment-baseline="start" text-anchor="middle" font-size="x-large" x="400" y="481.25" >Time</text><text  class="poloto_labels poloto_text poloto_yname" alignment-baseline="start" text-anchor="middle" font-size="x-large" transform="rotate(-90,37.5,250)" x="37.5" y="250" >Count</text><line  class="poloto_axis_lines" stroke="black" x1="150" x2="150" y1="400" y2="405" /><text  class="poloto_tick_labels poloto_text" alignment-baseline="start" text-anchor="middle" x="150" y="430" > 00:00:00</text><line  class="poloto_axis_lines" stroke="black" x1="266.14401858304296" x2="266.14401858304296" y1="400" y2="405" /><text  class="poloto_tick_labels poloto_text" alignment-baseline="start" text-anchor="middle" x="266.14401858304296" y="430" > 05:33:20</text><line  class="poloto_axis_lines" stroke="black" x1="382.2880371660859" x2="382.2880371660859" y1="400" y2="405" /><text  class="poloto_tick_labels poloto_text" alignment-baseline="start" text-anchor="middle" x="382.2880371660859" y="430" > 11:06:40</text><line  class="poloto_axis_lines" stroke="black" x1="498.4320557491289" x2="498.4320557491289" y1="400" y2="405" /><text  class="poloto_tick_labels poloto_text" alignment-baseline="start" text-anchor="middle" x="498.4320557491289" y="430" > 16:40:00</text><line  class="poloto_axis_lines" stroke="black" x1="614.5760743321719" x2="614.5760743321719" y1="400" y2="405" /><text  class="poloto_tick_labels poloto_text" alignment-baseline="start" text-anchor="middle" x="614.5760743321719" y="430" > 22:13:20</text><line  class="poloto_axis_lines" stroke="black" x1="150" x2="144" y1="322.8893058161351" y2="322.8893058161351" /><text  class="poloto_tick_labels poloto_text" alignment-baseline="middle" text-anchor="end" x="135" y="322.8893058161351" > 1500</text><line  class="poloto_axis_lines" stroke="black" x1="150" x2="144" y1="229.08067542213882" y2="229.08067542213882" /><text  class="poloto_tick_labels poloto_text" alignment-baseline="middle" text-anchor="end" x="135" y="229.08067542213882" > 2000</text><line  class="poloto_axis_lines" stroke="black" x1="150" x2="144" y1="135.27204502814254" y2="135.27204502814254" /><text  class="poloto_tick_labels poloto_text" alignment-baseline="middle" text-anchor="end" x="135" y="135.27204502814254" > 2500</text><path  stroke="black" fill="none" class="poloto_axis_lines" style="stroke-dasharray:14.518002322880372;stroke-dashoffset:-0;" d=" M 150 400 L 650 400" /><path  stroke="black" fill="none" class="poloto_axis_lines" style="stroke-dasharray:9.380863039399625;stroke-dashoffset:-77.11069418386492;" d=" M 150 400 L 150 100" /></svg>