<svg class="poloto" width="800" height="500" viewBox="0 0 800 500" xmlns="http://www.w3.org/2000/svg"><style>.poloto { stroke-linecap:round; stroke-linejoin:round; font-family: 'Tahoma', sans-serif; background-color: AliceBlue;} .poloto_scatter{stroke-width:7} .poloto_line{stroke-width:2} .poloto_text{fill: black;} .poloto_axis_lines{stroke: black;stroke-width:3;fill:none;stroke-dasharray:none} .poloto0stroke{stroke:  blue;} .poloto1stroke{stroke:  red;} .poloto2stroke{stroke:  green;} .poloto3stroke{stroke:  gold;} .poloto4stroke{stroke:  aqua;} .poloto5stroke{stroke:  lime;} .poloto6stroke{stroke:  orange;} .poloto7stroke{stroke:  chocolate;} .poloto0fill{fill:blue;} .poloto1fill{fill:red;} .poloto2fill{fill:green;} .poloto3fill{fill:gold;} .poloto4fill{fill:aqua;} .poloto5fill{fill:lime;} .poloto6fill{fill:orange;} .poloto7fill{fill:chocolate;}</style><text  class="poloto_text poloto_legend_text" alignment-baseline="middle" text-anchor="start" font-size="large" x="675" y="100" ></text><path  class="poloto_linefill poloto0fill" d=" M 150 400 L 150 365.7824933687002 L 151.74216027874564 372.28116710875327 L 153.4843205574913 369.36339522546416 L 155.22648083623693 367.1087533156499 L 156.96864111498257 372.41379310344826 L 158.71080139372822 372.8116710875331 L 160.45296167247386 375.19893899204243 L 162.1951219512195 376.657824933687 L 163.93728222996515 379.973474801061 L 165.6794425087108 382.36074270557026 L 167.42160278745644 383.28912466843497 L 169.16376306620208 387.7984084880636 L 170.90592334494772 388.8594164456233 L 172.64808362369337 392.17506631299733 L 174.390243902439 391.37931034482756 L 176.13240418118465 392.57294429708224 L 177.8745644599303 394.0318302387268 L 179.61672473867597 396.55172413793105 L 181.3588850174216 392.30769230769226 L 183.10104529616726 392.44031830238725 L 184.8432055749129 397.8779840848806 L 186.58536585365854 397.0822281167109 L 188.3275261324042 400 L 190.06968641114983 396.41909814323606 L 191.81184668989548 394.8275862068965 L 193.55400696864112 394.6949602122016 L 195.29616724738676 396.0212201591512 L 197.0383275261324 395.2254641909814 L 198.78048780487805 398.6737400530504 L 200.5226480836237 394.9602122015915 L 202.26480836236934 393.8992042440318 L 204.00696864111498 391.7771883289125 L 205.74912891986062 389.52254641909815 L 207.49128919860627 386.33952254641906 L 209.2334494773519 385.1458885941645 L 210.97560975609755 386.33952254641906 L 212.7177700348432 384.2175066312997 L 214.45993031358887 385.0132625994695 L 216.2020905923345 381.43236074270555 L 217.94425087108016 375.46419098143235 L 219.6864111498258 373.34217506631296 L 221.42857142857144 373.7400530503979 L 223.1707317073171 373.209549071618 L 224.91289198606273 376.7904509283819 L 226.65505226480838 377.7188328912467 L 228.39721254355402 380.106100795756 L 230.13937282229966 380.7692307692308 L 231.8815331010453 378.9124668435013 L 233.62369337979095 379.57559681697614 L 235.3658536585366 375.8620689655172 L 237.10801393728224 374.0053050397878 L 238.85017421602788 375.8620689655172 L 240.59233449477352 374.9336870026525 L 242.33449477351917 375.19893899204243 L 244.0766550522648 374.0053050397878 L 245.81881533101046 371.35278514588856 L 247.5609756097561 372.28116710875327 L 249.30313588850174 371.7506631299735 L 251.0452961672474 367.63925729442974 L 252.78745644599303 365.7824933687002 L 254.52961672473867 365.7824933687002 L 256.2717770034843 367.37400530503976 L 258.01393728222996 363.9257294429708 L 259.7560975609756 363.262599469496 L 261.49825783972125 364.9867374005305 L 263.2404181184669 366.18037135278513 L 264.98257839721254 364.19098143236073 L 266.7247386759582 370.9549071618037 L 268.4668989547038 366.57824933687004 L 270.20905923344947 367.37400530503976 L 271.9512195121951 365.1193633952255 L 273.69337979094075 370.026525198939 L 275.4355400696864 370.29177718832887 L 277.17770034843204 365.9151193633952 L 278.91986062717774 365.7824933687002 L 280.6620209059233 362.7320954907162 L 282.404181184669 362.7320954907162 L 284.1463414634146 358.7533156498674 L 285.8885017421603 360.2122015915119 L 287.6306620209059 359.946949602122 L 289.3728222996516 352.51989389920425 L 291.1149825783972 352.7851458885941 L 292.8571428571429 347.2148541114058 L 294.5993031358885 350.6631299734748 L 296.3414634146342 342.7055702917772 L 298.08362369337976 342.8381962864721 L 299.82578397212546 339.1246684350133 L 301.56794425087105 335.14588859416443 L 303.31010452961675 332.2281167108753 L 305.05226480836234 336.2068965517241 L 306.79442508710804 341.2466843501326 L 308.5365853658536 340.9814323607427 L 310.2787456445993 342.57294429708224 L 312.0209059233449 342.7055702917772 L 313.7630662020906 348.0106100795756 L 315.5052264808362 340.45092838196285 L 317.2473867595819 337.0026525198939 L 318.9895470383275 337.6657824933687 L 320.7317073170732 336.47214854111405 L 322.4738675958188 338.46153846153845 L 324.2160278745645 336.33952254641906 L 325.9581881533101 339.920424403183 L 327.70034843205576 339.787798408488 L 329.4425087108014 338.9920424403183 L 331.18466898954705 331.6976127320955 L 332.9268292682927 322.14854111405833 L 334.66898954703834 321.8832891246684 L 336.411149825784 321.61803713527854 L 338.1533101045296 318.9655172413793 L 339.89547038327527 317.6392572944297 L 341.6376306620209 316.44562334217505 L 343.37979094076655 316.44562334217505 L 345.1219512195122 310.2122015915119 L 346.86411149825784 301.9893899204244 L 348.6062717770035 298.54111405835545 L 350.34843205574913 295.2254641909814 L 352.0905923344948 295.7559681697612 L 353.8327526132404 288.59416445623344 L 355.57491289198606 288.0636604774536 L 357.3170731707317 298.9389920424403 L 359.05923344947735 292.7055702917772 L 360.801393728223 291.9098143236074 L 362.54355400696863 285.8090185676392 L 364.2857142857143 287.53315649867375 L 366.0278745644599 285.54376657824935 L 367.77003484320556 292.7055702917772 L 369.5121951219512 279.5755968169761 L 371.25435540069685 278.2493368700265 L 372.9965156794425 271.08753315649864 L 374.73867595818814 267.7718832891247 L 376.4808362369338 265.7824933687003 L 378.2229965156795 265.9151193633952 L 379.96515679442507 262.8647214854111 L 381.70731707317077 256.631299734748 L 383.44947735191636 252.78514588859412 L 385.19163763066206 250.9283819628647 L 386.93379790940764 242.8381962864721 L 388.67595818815334 245.35809018567636 L 390.41811846689893 248.67374005305038 L 392.16027874564463 249.60212201591509 L 393.9024390243902 248.40848806366046 L 395.6445993031359 243.23607427055703 L 397.3867595818815 242.44031830238725 L 399.1289198606272 238.19628647214853 L 400.8710801393728 234.74801061007958 L 402.6132404181185 240.05305039787794 L 404.3554006968641 227.05570291777184 L 406.0975609756098 222.8116710875331 L 407.8397212543554 218.70026525198938 L 409.58188153310107 214.05835543766574 L 411.3240418118467 212.33421750663126 L 413.06620209059236 207.42705570291776 L 414.808362369338 202.65251989389918 L 416.55052264808364 211.5384615384615 L 418.2926829268293 206.10079575596814 L 420.03484320557493 198.8063660477453 L 421.7770034843206 201.9893899204244 L 423.5191637630662 198.8063660477453 L 425.26132404181186 193.63395225464188 L 427.0034843205575 185.67639257294428 L 428.74564459930315 184.61538461538458 L 430.4878048780488 169.23076923076923 L 432.22996515679444 164.5888594164456 L 433.9721254355401 171.35278514588856 L 435.7142857142857 160.07957559681694 L 437.45644599303137 154.11140583554374 L 439.198606271777 176.65782493368698 L 440.94076655052265 146.15384615384613 L 442.6829268292683 142.44031830238725 L 444.42508710801394 135.14588859416443 L 446.1672473867596 139.12466843501323 L 447.9094076655052 140.71618037135278 L 449.65156794425087 167.24137931034483 L 451.3937282229965 136.60477453580899 L 453.13588850174216 124.9336870026525 L 454.8780487804878 135.67639257294428 L 456.62020905923345 137.00265251989384 L 458.3623693379791 122.54641909814319 L 460.10452961672473 124.00530503978774 L 461.8466898954704 124.13793103448273 L 463.588850174216 126.52519893899199 L 465.33101045296166 121.4854111405835 L 467.0731707317073 124.53580901856759 L 468.81533101045295 128.24933687002647 L 470.5574912891986 123.20954907161803 L 472.29965156794424 107.02917771883284 L 474.0418118466899 104.9071618037135 L 475.7839721254355 102.9177718832891 L 477.52613240418117 104.37665782493366 L 479.2682926829268 110.07957559681694 L 481.01045296167246 131.43236074270555 L 482.7526132404181 107.16180371352783 L 484.49477351916374 107.55968169761269 L 486.2369337979094 99.99999999999994 L 487.97909407665503 103.84615384615381 L 489.7212543554007 110.74270557029172 L 491.4634146341463 105.17241379310343 L 493.20557491289196 109.28381962864717 L 494.9477351916376 100.66312997347478 L 496.68989547038325 102.38726790450926 L 498.4320557491289 102.12201591511933 L 500.17421602787454 103.05039787798404 L 501.91637630662024 118.03713527851454 L 503.6585365853659 120.15915119363393 L 505.4006968641115 128.5145888594164 L 507.14285714285717 128.9124668435013 L 508.8850174216028 134.61538461538458 L 510.62717770034845 139.920424403183 L 512.3693379790941 143.5013262599469 L 514.1114982578397 142.17506631299733 L 515.8536585365854 179.840848806366 L 517.5958188153311 161.14058355437663 L 519.3379790940767 171.08753315649864 L 521.0801393728223 168.43501326259945 L 522.822299651568 177.9840848806366 L 524.5644599303137 170.15915119363393 L 526.3066202090592 169.36339522546416 L 528.0487804878048 180.23872679045093 L 529.7909407665505 185.27851458885937 L 531.5331010452962 196.28647214854107 L 533.2752613240418 194.29708222811666 L 535.0174216027874 202.12201591511933 L 536.7595818815331 206.49867374005305 L 538.5017421602788 204.9071618037135 L 540.2439024390244 206.8965517241379 L 541.98606271777 210.21220159151193 L 543.7282229965157 209.814323607427 L 545.4703832752614 214.45623342175065 L 547.212543554007 216.04774535809014 L 548.9547038327526 217.10875331564984 L 550.6968641114983 217.63925729442968 L 552.439024390244 213.66047745358088 L 554.1811846689895 210.8753315649867 L 555.9233449477351 214.32360742705566 L 557.6655052264808 221.8832891246684 L 559.4076655052265 223.07692307692304 L 561.1498257839721 229.840848806366 L 562.8919860627177 234.08488063660474 L 564.6341463414634 230.63660477453578 L 566.3763066202091 231.8302387267904 L 568.1184668989547 236.60477453580899 L 569.8606271777003 235.5437665782493 L 571.602787456446 240.18567639257293 L 573.3449477351917 240.31830238726786 L 575.0871080139373 251.06100795755964 L 576.8292682926829 250.39787798408486 L 578.5714285714286 261.8037135278514 L 580.3135888501743 261.5384615384615 L 582.0557491289198 255.9681697612732 L 583.7979094076654 252.51989389920425 L 585.5400696864111 252.65251989389918 L 587.2822299651568 263.12997347480103 L 589.0243902439024 263.12997347480103 L 590.766550522648 261.9363395225464 L 592.5087108013937 269.893899204244 L 594.2508710801394 263.39522546419096 L 595.993031358885 272.6790450928382 L 597.7351916376306 269.49602122015915 L 599.4773519163763 272.6790450928382 L 601.219512195122 275.19893899204243 L 602.9616724738676 276.12732095490713 L 604.7038327526133 285.14588859416443 L 606.445993031359 288.46153846153845 L 608.1881533101046 288.7267904509284 L 609.9303135888501 290.18567639257293 L 611.6724738675958 296.41909814323606 L 613.4146341463415 295.7559681697612 L 615.1567944250871 295.0928381962865 L 616.8989547038327 298.9389920424403 L 618.6411149825784 301.59151193633954 L 620.3832752613241 308.62068965517244 L 622.1254355400697 311.8037135278514 L 623.8675958188153 314.19098143236073 L 625.609756097561 311.0079575596817 L 627.3519163763067 312.33421750663126 L 629.0940766550523 313.12997347480103 L 630.8362369337979 316.31299734748006 L 632.5783972125436 317.37400530503976 L 634.3205574912893 320.55702917771885 L 636.0627177700349 322.9442970822281 L 637.8048780487804 326.52519893899205 L 639.5470383275261 337.0026525198939 L 641.2891986062718 339.920424403183 L 643.0313588850174 343.36870026525196 L 644.773519163763 342.9708222811671 L 646.5156794425087 342.57294429708224 L 648.2578397212544 349.2042440318302 L 650 357.29442970822276 L 650 400 Z" /><text  class="poloto_labels poloto_text poloto_title" alignment-baseline="start" text-anchor="middle" font-size="x-large" x="400" y="37.5" >Total players on 2021-09-18</text><text  class="poloto_labels poloto_text poloto_xname" alignment-baseline="start" text-anchor="middle" font-size="x-large" x="400" y="481.25" >Time</text><text  class="poloto_labels poloto_text poloto_yname" alignment-baseline="start" text-anchor="middle" font-size="x-large" transform="rotate(-90,37.5,250)" x="37.5" y="250" >Count</text><line  class="poloto_axis_lines" stroke="black" x1="150" x2="150" y1="400" y2="405" /><text  class="poloto_tick_labels poloto_text" alignment-baseline="start" text-anchor="middle" x="150" y="430" > 00:00</text><line  class="poloto_axis_lines" stroke="black" x1="266.14401858304296" x2="266.14401858304296" y1="400" y2="405" /><text  class="poloto_tick_labels poloto_text" alignment-baseline="start" text-anchor="middle" x="266.14401858304296" y="430" > 06:00</text><line  class="poloto_axis_lines" stroke="black" x1="382.2880371660859" x2="382.2880371660859" y1="400" y2="405" /><text  class="poloto_tick_labels poloto_text" alignment-baseline="start" text-anchor="middle" x="382.2880371660859" y="430" > 11:00</text><line  class="poloto_axis_lines" stroke="black" x1="498.4320557491289" x2="498.4320557491289" y1="400" y2="405" /><text  class="poloto_tick_labels poloto_text" alignment-baseline="start" text-anchor="middle" x="498.4320557491289" y="430" > 17:00</text><line  class="poloto_axis_lines" stroke="black" x1="614.5760743321719" x2="614.5760743321719" y1="400" y2="405" /><text  class="poloto_tick_labels poloto_text" alignment-baseline="start" text-anchor="middle" x="614.5760743321719" y="430" > 22:00</text><line  class="poloto_axis_lines" stroke="black" x1="150" x2="144" y1="338.59416445623344" y2="338.59416445623344" /><text  class="poloto_tick_labels poloto_text" alignment-baseline="middle" text-anchor="end" x="135" y="338.59416445623344" > 1500</text><line  class="poloto_axis_lines" stroke="black" x1="150" x2="144" y1="272.2811671087533" y2="272.2811671087533" /><text  class="poloto_tick_labels poloto_text" alignment-baseline="middle" text-anchor="end" x="135" y="272.2811671087533" > 2000</text><line  class="poloto_axis_lines" stroke="black" x1="150" x2="144" y1="205.9681697612732" y2="205.9681697612732" /><text  class="poloto_tick_labels poloto_text" alignment-baseline="middle" text-anchor="end" x="135" y="205.9681697612732" > 2500</text><line  class="poloto_axis_lines" stroke="black" x1="150" x2="144" y1="139.65517241379308" y2="139.65517241379308" /><text  class="poloto_tick_labels poloto_text" alignment-baseline="middle" text-anchor="end" x="135" y="139.65517241379308" > 3000</text><path  stroke="black" fill="none" class="poloto_axis_lines" style="stroke-dasharray:14.518002322880372;stroke-dashoffset:-0;" d=" M 150 400 L 650 400" /><path  stroke="black" fill="none" class="poloto_axis_lines" style="stroke-dasharray:6.63129973474801;stroke-dashoffset:-61.405835543766585;" d=" M 150 400 L 150 100" /></svg>