<svg class="poloto" width="800" height="500" viewBox="0 0 800 500" xmlns="http://www.w3.org/2000/svg"><style>.poloto { stroke-linecap:round; stroke-linejoin:round; font-family: 'Tahoma', sans-serif; background-color: AliceBlue;} .poloto_scatter{stroke-width:7} .poloto_line{stroke-width:2} .poloto_text{fill: black;} .poloto_axis_lines{stroke: black;stroke-width:3;fill:none;stroke-dasharray:none} .poloto0stroke{stroke:  blue;} .poloto1stroke{stroke:  red;} .poloto2stroke{stroke:  green;} .poloto3stroke{stroke:  gold;} .poloto4stroke{stroke:  aqua;} .poloto5stroke{stroke:  lime;} .poloto6stroke{stroke:  orange;} .poloto7stroke{stroke:  chocolate;} .poloto0fill{fill:blue;} .poloto1fill{fill:red;} .poloto2fill{fill:green;} .poloto3fill{fill:gold;} .poloto4fill{fill:aqua;} .poloto5fill{fill:lime;} .poloto6fill{fill:orange;} .poloto7fill{fill:chocolate;}</style><text  class="poloto_text poloto_legend_text" alignment-baseline="middle" text-anchor="start" font-size="large" x="675" y="100" ></text><path  class="poloto_linefill poloto0fill" d=" M 150 400 L 150 351.19695321001086 L 151.74216027874564 352.01305767138194 L 153.4843205574913 349.40152339499457 L 155.22648083623693 349.40152339499457 L 156.96864111498257 356.90968443960827 L 158.71080139372822 356.2568008705114 L 160.45296167247386 360.9902067464635 L 162.1951219512195 362.78563656147986 L 163.93728222996515 361.8063112078346 L 165.6794425087108 362.94885745375404 L 167.42160278745644 365.72361262241566 L 169.16376306620208 365.5603917301414 L 170.90592334494772 367.51904243743195 L 172.64808362369337 366.0500544069641 L 174.390243902439 366.8661588683351 L 176.13240418118465 371.7627856365615 L 177.8745644599303 376.006528835691 L 179.61672473867597 374.86398258977147 L 181.3588850174216 375.3536452665941 L 183.10104529616726 383.18824809575625 L 184.8432055749129 379.92383025027203 L 186.58536585365854 379.5973884657236 L 188.3275261324042 385.9630032644178 L 190.06968641114983 385.7997823721436 L 191.81184668989548 386.61588683351465 L 193.55400696864112 387.1055495103373 L 195.29616724738676 384.49401523394994 L 197.0383275261324 390.0435255712731 L 198.78048780487805 388.411316648531 L 200.5226480836237 386.45266594124047 L 202.26480836236934 385.4733405875952 L 204.00696864111498 382.3721436343852 L 205.74912891986062 380.4134929270947 L 207.49128919860627 377.47551686615884 L 209.2334494773519 381.2295973884657 L 210.97560975609755 378.78128400435253 L 212.7177700348432 380.4134929270947 L 214.45993031358887 378.61806311207835 L 216.2020905923345 379.4341675734494 L 217.94425087108016 378.1284004352557 L 219.6864111498258 383.8411316648531 L 221.42857142857144 383.5146898803047 L 223.1707317073171 390.69640914036995 L 224.91289198606273 390.8596300326442 L 226.65505226480838 386.94232861806313 L 228.39721254355402 388.5745375408052 L 230.13937282229966 383.18824809575625 L 231.8815331010453 384.6572361262241 L 233.62369337979095 385.63656147986944 L 235.3658536585366 381.7192600652884 L 237.10801393728224 383.18824809575625 L 238.85017421602788 384.1675734494015 L 240.59233449477352 388.5745375408052 L 242.33449477351917 388.7377584330794 L 244.0766550522648 386.7791077257889 L 245.81881533101046 392.49183895538624 L 247.5609756097561 397.87812840043523 L 249.30313588850174 400 L 251.0452961672474 396.89880304679 L 252.78745644599303 397.87812840043523 L 254.52961672473867 393.96082698585417 L 256.2717770034843 391.3492927094668 L 258.01393728222996 389.7170837867247 L 259.7560975609756 387.59521218716 L 261.49825783972125 383.35146898803043 L 263.2404181184669 379.76060935799785 L 264.98257839721254 377.31229597388466 L 266.7247386759582 377.1490750816105 L 268.4668989547038 374.5375408052231 L 270.20905923344947 369.6409140369967 L 271.9512195121951 365.0707290533188 L 273.69337979094075 363.4385201305767 L 275.4355400696864 363.2752992383025 L 277.17770034843204 359.84766050054407 L 278.91986062717774 358.5418933623504 L 280.6620209059233 364.5810663764962 L 282.404181184669 364.09140369967355 L 284.1463414634146 372.5788900979325 L 285.8885017421603 376.3329706202394 L 287.6306620209059 377.9651795429815 L 289.3728222996516 376.98585418933624 L 291.1149825783972 377.8019586507073 L 292.8571428571429 373.0685527747552 L 294.5993031358885 374.5375408052231 L 296.3414634146342 373.5582154515778 L 298.08362369337976 377.1490750816105 L 299.82578397212546 377.31229597388466 L 301.56794425087105 374.2110990206746 L 303.31010452961675 364.9075081610446 L 305.05226480836234 359.35799782372146 L 306.79442508710804 360.1741022850925 L 308.5365853658536 361.64309031556036 L 310.2787456445993 363.92818280739937 L 312.0209059233449 363.2752992383025 L 313.7630662020906 365.23394994559305 L 315.5052264808362 367.6822633297062 L 317.2473867595819 359.1947769314472 L 318.9895470383275 356.09357997823724 L 320.7317073170732 358.5418933623504 L 322.4738675958188 359.35799782372146 L 324.2160278745645 352.1762785636562 L 325.9581881533101 352.6659412404788 L 327.70034843205576 352.9923830250272 L 329.4425087108014 355.6039173014146 L 331.18466898954705 349.72796517954293 L 332.9268292682927 345.8106637649619 L 334.66898954703834 345.9738846572361 L 336.411149825784 344.83133841131666 L 338.1533101045296 341.0772578890098 L 339.89547038327527 337.1599564744287 L 341.6376306620209 334.54842219804135 L 343.37979094076655 332.91621327529924 L 345.1219512195122 336.5070729053319 L 346.86411149825784 329.651795429815 L 348.6062717770035 324.4287268770403 L 350.34843205574913 318.71599564744287 L 352.0905923344948 316.2676822633297 L 353.8327526132404 319.69532100108813 L 355.57491289198606 315.77801958650707 L 357.3170731707317 310.5549510337323 L 359.05923344947735 307.4537540805223 L 360.801393728223 305.3318824809576 L 362.54355400696863 301.2513601741023 L 364.2857142857143 308.43307943416755 L 366.0278745644599 300.76169749727967 L 367.77003484320556 297.170837867247 L 369.5121951219512 290.64200217627854 L 371.25435540069685 286.39825897714906 L 372.9965156794425 285.9085963003264 L 374.73867595818814 281.99129488574533 L 376.4808362369338 283.13384113166484 L 378.2229965156795 277.9107725788901 L 379.96515679442507 278.0739934711643 L 381.70731707317077 279.37976060935796 L 383.44947735191636 279.37976060935796 L 385.19163763066206 275.62568008705114 L 386.93379790940764 269.0968443960827 L 388.67595818815334 269.4232861806311 L 390.41811846689893 262.24156692056584 L 392.16027874564463 257.99782372143636 L 393.9024390243902 250.65288356909684 L 395.6445993031359 243.30794341675733 L 397.3867595818815 237.26877040261155 L 399.1289198606272 227.63873775843308 L 400.8710801393728 227.14907508161042 L 402.6132404181185 225.68008705114255 L 404.3554006968641 220.62023939064198 L 406.0975609756098 216.3764961915125 L 407.8397212543554 210.82698585418933 L 409.58188153310107 204.46137105549508 L 411.3240418118467 195.6474428726877 L 413.06620209059236 198.9118607181719 L 414.808362369338 197.44287268770404 L 416.55052264808364 194.66811751904243 L 418.2926829268293 195.1577801958651 L 420.03484320557493 189.93471164309028 L 421.7770034843206 186.50707290533188 L 423.5191637630662 187.3231773667029 L 425.26132404181186 181.1207834602829 L 427.0034843205575 177.36670293797607 L 428.74564459930315 165.94124047878125 L 430.4878048780488 163.49292709466812 L 432.22996515679444 164.7986942328618 L 433.9721254355401 169.85854189336231 L 435.7142857142857 183.56909684439609 L 437.45644599303137 180.9575625680087 L 439.198606271777 167.41022850924918 L 440.94076655052265 159.0859630032644 L 442.6829268292683 150.59847660500543 L 444.42508710801394 147.4972796517954 L 446.1672473867596 143.90642002176276 L 447.9094076655052 129.86942328618062 L 449.65156794425087 129.21653971708378 L 451.3937282229965 128.56365614798693 L 453.13588850174216 120.892274211099 L 454.8780487804878 119.42328618063112 L 456.62020905923345 115.0163220892274 L 458.3623693379791 113.22089227421111 L 460.10452961672473 100 L 461.8466898954704 105.22306855277475 L 463.588850174216 110.4461371055495 L 465.33101045296166 110.77257889009792 L 467.0731707317073 110.11969532100107 L 468.81533101045295 104.08052230685524 L 470.5574912891986 107.18171926006528 L 472.29965156794424 110.60935799782368 L 474.0418118466899 116.1588683351469 L 475.7839721254355 122.85092491838952 L 477.52613240418117 127.91077257889009 L 479.2682926829268 136.5614798694233 L 481.01045296167246 147.82372143634382 L 482.7526132404181 148.15016322089224 L 484.49477351916374 146.84439608269855 L 486.2369337979094 150.272034820457 L 487.97909407665503 147.98694232861806 L 489.7212543554007 145.8650707290533 L 491.4634146341463 154.0261153427639 L 493.20557491289196 159.24918389553864 L 494.9477351916376 165.45157780195865 L 496.68989547038325 169.20565832426547 L 498.4320557491289 172.95973884657235 L 500.17421602787454 174.91838955386288 L 501.91637630662024 181.28400435255713 L 503.6585365853659 176.3873775843308 L 505.4006968641115 180.30467899891187 L 507.14285714285717 183.73231773667027 L 508.8850174216028 193.52557127312292 L 510.62717770034845 201.03373231773668 L 512.3693379790941 199.23830250272033 L 514.1114982578397 193.68879216539716 L 515.8536585365854 202.9923830250272 L 517.5958188153311 212.13275299238302 L 519.3379790940767 211.64309031556036 L 521.0801393728223 218.49836779107727 L 522.822299651568 220.62023939064198 L 524.5644599303137 223.23177366702936 L 526.3066202090592 222.57889009793251 L 528.0487804878048 228.29162132752992 L 529.7909407665505 240.36996735582153 L 531.5331010452962 236.45266594124047 L 533.2752613240418 232.86180631120783 L 535.0174216027874 231.22959738846572 L 536.7595818815331 232.37214363438517 L 538.5017421602788 232.20892274211099 L 540.2439024390244 235.4733405875952 L 541.98606271777 235.4733405875952 L 543.7282229965157 233.025027203482 L 545.4703832752614 228.12840043525568 L 547.212543554007 227.9651795429815 L 548.9547038327526 221.59956474428725 L 550.6968641114983 228.12840043525568 L 552.439024390244 225.35364526659413 L 554.1811846689895 229.92383025027203 L 555.9233449477351 232.86180631120783 L 557.6655052264808 225.84330794341673 L 559.4076655052265 229.5973884657236 L 561.1498257839721 242.81828073993472 L 562.8919860627177 238.90097932535366 L 564.6341463414634 240.53318824809577 L 566.3763066202091 239.22742110990208 L 568.1184668989547 242.65505984766048 L 569.8606271777003 248.6942328618063 L 571.602787456446 246.24591947769312 L 573.3449477351917 240.8596300326442 L 575.0871080139373 233.18824809575625 L 576.8292682926829 242.4918389553863 L 578.5714285714286 242.81828073993472 L 580.3135888501743 249.51033732317734 L 582.0557491289198 250.16322089227418 L 583.7979094076654 253.10119695320998 L 585.5400696864111 256.0391730141458 L 587.2822299651568 260.4461371055495 L 589.0243902439024 257.67138193688794 L 590.766550522648 263.7105549510337 L 592.5087108013937 269.4232861806311 L 594.2508710801394 269.0968443960827 L 595.993031358885 267.9542981501632 L 597.7351916376306 269.2600652883569 L 599.4773519163763 268.60718171926004 L 601.219512195122 272.5244831338411 L 602.9616724738676 271.2187159956474 L 604.7038327526133 272.1980413492927 L 606.445993031359 270.07616974972797 L 608.1881533101046 273.01414581066376 L 609.9303135888501 277.25788900979325 L 611.6724738675958 280.8487486398259 L 613.4146341463415 284.76605005440695 L 615.1567944250871 286.07181719260063 L 616.8989547038327 288.52013057671377 L 618.6411149825784 292.92709466811755 L 620.3832752613241 299.455930359086 L 622.1254355400697 305.49510337323176 L 623.8675958188153 312.02393906420025 L 625.609756097561 317.57344940152336 L 627.3519163763067 323.44940152339495 L 629.0940766550523 321.9804134929271 L 630.8362369337979 314.7986942328618 L 632.5783972125436 323.44940152339495 L 634.3205574912893 316.1044613710555 L 636.0627177700349 314.7986942328618 L 637.8048780487804 315.61479869423283 L 639.5470383275261 317.4102285092492 L 641.2891986062718 316.9205658324265 L 643.0313588850174 321.9804134929271 L 644.773519163763 327.04026115342765 L 646.5156794425087 330.30467899891187 L 648.2578397212544 330.7943416757345 L 650 326.7138193688792 L 650 400 Z" /><text  class="poloto_labels poloto_text poloto_title" alignment-baseline="start" text-anchor="middle" font-size="x-large" x="400" y="37.5" >Total players on 2021-12-16</text><text  class="poloto_labels poloto_text poloto_xname" alignment-baseline="start" text-anchor="middle" font-size="x-large" x="400" y="481.25" >Time</text><text  class="poloto_labels poloto_text poloto_yname" alignment-baseline="start" text-anchor="middle" font-size="x-large" transform="rotate(-90,37.5,250)" x="37.5" y="250" >Count</text><line  class="poloto_axis_lines" stroke="black" x1="150" x2="150" y1="400" y2="405" /><text  class="poloto_tick_labels poloto_text" alignment-baseline="start" text-anchor="middle" x="150" y="430" > 00:00</text><line  class="poloto_axis_lines" stroke="black" x1="266.14401858304296" x2="266.14401858304296" y1="400" y2="405" /><text  class="poloto_tick_labels poloto_text" alignment-baseline="start" text-anchor="middle" x="266.14401858304296" y="430" > 06:00</text><line  class="poloto_axis_lines" stroke="black" x1="382.2880371660859" x2="382.2880371660859" y1="400" y2="405" /><text  class="poloto_tick_labels poloto_text" alignment-baseline="start" text-anchor="middle" x="382.2880371660859" y="430" > 11:00</text><line  class="poloto_axis_lines" stroke="black" x1="498.4320557491289" x2="498.4320557491289" y1="400" y2="405" /><text  class="poloto_tick_labels poloto_text" alignment-baseline="start" text-anchor="middle" x="498.4320557491289" y="430" > 17:00</text><line  class="poloto_axis_lines" stroke="black" x1="614.5760743321719" x2="614.5760743321719" y1="400" y2="405" /><text  class="poloto_tick_labels poloto_text" alignment-baseline="start" text-anchor="middle" x="614.5760743321719" y="430" > 22:00</text><line  class="poloto_axis_lines" stroke="black" x1="150" x2="144" y1="366.0500544069641" y2="366.0500544069641" /><text  class="poloto_tick_labels poloto_text" alignment-baseline="middle" text-anchor="end" x="135" y="366.0500544069641" > 1000</text><line  class="poloto_axis_lines" stroke="black" x1="150" x2="144" y1="284.4396082698585" y2="284.4396082698585" /><text  class="poloto_tick_labels poloto_text" alignment-baseline="middle" text-anchor="end" x="135" y="284.4396082698585" > 1500</text><line  class="poloto_axis_lines" stroke="black" x1="150" x2="144" y1="202.82916213275297" y2="202.82916213275297" /><text  class="poloto_tick_labels poloto_text" alignment-baseline="middle" text-anchor="end" x="135" y="202.82916213275297" > 2000</text><line  class="poloto_axis_lines" stroke="black" x1="150" x2="144" y1="121.21871599564741" y2="121.21871599564741" /><text  class="poloto_tick_labels poloto_text" alignment-baseline="middle" text-anchor="end" x="135" y="121.21871599564741" > 2500</text><path  stroke="black" fill="none" class="poloto_axis_lines" style="stroke-dasharray:14.518002322880372;stroke-dashoffset:-0;" d=" M 150 400 L 650 400" /><path  stroke="black" fill="none" class="poloto_axis_lines" style="stroke-dasharray:8.161044613710555;stroke-dashoffset:-33.94994559303592;" d=" M 150 400 L 150 100" /></svg>