<svg class="poloto" width="800" height="500" viewBox="0 0 800 500" xmlns="http://www.w3.org/2000/svg"><style>.poloto { stroke-linecap:round; stroke-linejoin:round; font-family: 'Tahoma', sans-serif; background-color: AliceBlue;} .poloto_scatter{stroke-width:7} .poloto_line{stroke-width:2} .poloto_text{fill: black;} .poloto_axis_lines{stroke: black;stroke-width:3;fill:none;stroke-dasharray:none} .poloto0stroke{stroke:  blue;} .poloto1stroke{stroke:  red;} .poloto2stroke{stroke:  green;} .poloto3stroke{stroke:  gold;} .poloto4stroke{stroke:  aqua;} .poloto5stroke{stroke:  lime;} .poloto6stroke{stroke:  orange;} .poloto7stroke{stroke:  chocolate;} .poloto0fill{fill:blue;} .poloto1fill{fill:red;} .poloto2fill{fill:green;} .poloto3fill{fill:gold;} .poloto4fill{fill:aqua;} .poloto5fill{fill:lime;} .poloto6fill{fill:orange;} .poloto7fill{fill:chocolate;}</style><text  class="poloto_text poloto_legend_text" alignment-baseline="middle" text-anchor="start" font-size="large" x="675" y="100" ></text><path  class="poloto_linefill poloto0fill" d=" M 150 400 L 150 362.1666666666667 L 151.74216027874564 364.6666666666667 L 153.4843205574913 366.83333333333337 L 155.22648083623693 369.5 L 156.96864111498257 371 L 158.71080139372822 368.6666666666667 L 160.45296167247386 369.33333333333337 L 162.1951219512195 371.83333333333337 L 163.93728222996515 376.33333333333337 L 165.6794425087108 381.33333333333337 L 167.42160278745644 383 L 169.16376306620208 381.5 L 170.90592334494772 378 L 172.64808362369337 381.83333333333337 L 174.390243902439 385.5 L 176.13240418118465 382.6666666666667 L 177.8745644599303 386.1666666666667 L 179.61672473867597 387.6666666666667 L 181.3588850174216 386.5 L 183.10104529616726 385.1666666666667 L 184.8432055749129 380.83333333333337 L 186.58536585365854 380.5 L 188.3275261324042 381.83333333333337 L 190.06968641114983 377.83333333333337 L 191.81184668989548 377 L 193.55400696864112 379.33333333333337 L 195.29616724738676 380 L 197.0383275261324 377.83333333333337 L 198.78048780487805 376.1666666666667 L 200.5226480836237 374 L 202.26480836236934 376.33333333333337 L 204.00696864111498 378.83333333333337 L 205.74912891986062 379.33333333333337 L 207.49128919860627 380.1666666666667 L 209.2334494773519 386 L 210.97560975609755 379.33333333333337 L 212.7177700348432 378.6666666666667 L 214.45993031358887 380.1666666666667 L 216.2020905923345 379.33333333333337 L 217.94425087108016 380.83333333333337 L 219.6864111498258 380.33333333333337 L 221.42857142857144 380.6666666666667 L 223.1707317073171 384.5 L 224.91289198606273 386.1666666666667 L 226.65505226480838 387.5 L 228.39721254355402 390.6666666666667 L 230.13937282229966 391.33333333333337 L 231.8815331010453 390.83333333333337 L 233.62369337979095 388.6666666666667 L 235.3658536585366 387.33333333333337 L 237.10801393728224 390.6666666666667 L 238.85017421602788 390.83333333333337 L 240.59233449477352 394.83333333333337 L 242.33449477351917 392.6666666666667 L 244.0766550522648 394.83333333333337 L 245.81881533101046 393.33333333333337 L 247.5609756097561 389.5 L 249.30313588850174 391.6666666666667 L 251.0452961672474 394 L 252.78745644599303 397 L 254.52961672473867 400 L 256.2717770034843 397.33333333333337 L 258.01393728222996 390.6666666666667 L 259.7560975609756 390.1666666666667 L 261.49825783972125 385.33333333333337 L 263.2404181184669 384.1666666666667 L 264.98257839721254 381.5 L 266.7247386759582 375.6666666666667 L 268.4668989547038 372.1666666666667 L 270.20905923344947 368.5 L 271.9512195121951 368.1666666666667 L 273.69337979094075 362.83333333333337 L 275.4355400696864 361.6666666666667 L 277.17770034843204 362.6666666666667 L 278.91986062717774 365 L 280.6620209059233 366.5 L 282.404181184669 367.33333333333337 L 284.1463414634146 363.6666666666667 L 285.8885017421603 358.5 L 287.6306620209059 358.5 L 289.3728222996516 359 L 291.1149825783972 362 L 292.8571428571429 364.1666666666667 L 294.5993031358885 366.33333333333337 L 296.3414634146342 363.83333333333337 L 298.08362369337976 365.1666666666667 L 299.82578397212546 369.1666666666667 L 301.56794425087105 373.5 L 303.31010452961675 370 L 305.05226480836234 369 L 306.79442508710804 366 L 308.5365853658536 368.6666666666667 L 310.2787456445993 361 L 312.0209059233449 357 L 313.7630662020906 359 L 315.5052264808362 357.33333333333337 L 317.2473867595819 351.33333333333337 L 318.9895470383275 345.83333333333337 L 320.7317073170732 340.83333333333337 L 322.4738675958188 341.1666666666667 L 324.2160278745645 347 L 325.9581881533101 340.6666666666667 L 327.70034843205576 339.6666666666667 L 329.4425087108014 337.5 L 331.18466898954705 334.1666666666667 L 332.9268292682927 329 L 334.66898954703834 338 L 336.411149825784 321.6666666666667 L 338.1533101045296 323 L 339.89547038327527 321.5 L 341.6376306620209 319 L 343.37979094076655 310.33333333333337 L 345.1219512195122 308.83333333333337 L 346.86411149825784 319.5 L 348.6062717770035 304.83333333333337 L 350.34843205574913 304.33333333333337 L 352.0905923344948 305.83333333333337 L 353.8327526132404 309.6666666666667 L 355.57491289198606 307.83333333333337 L 357.3170731707317 304 L 359.05923344947735 295.5 L 360.801393728223 292.6666666666667 L 362.54355400696863 293.33333333333337 L 364.2857142857143 292.5 L 366.0278745644599 286.1666666666667 L 367.77003484320556 282 L 369.5121951219512 272 L 371.25435540069685 273.33333333333337 L 372.9965156794425 272.83333333333337 L 374.73867595818814 273.33333333333337 L 376.4808362369338 274.33333333333337 L 378.2229965156795 263 L 379.96515679442507 257 L 381.70731707317077 251.66666666666669 L 383.44947735191636 253.5 L 385.19163763066206 250.16666666666669 L 386.93379790940764 247.5 L 388.67595818815334 255.33333333333337 L 390.41811846689893 252 L 392.16027874564463 247 L 393.9024390243902 243.66666666666669 L 395.6445993031359 232.83333333333337 L 397.3867595818815 233.66666666666669 L 399.1289198606272 233.33333333333337 L 400.8710801393728 234.83333333333337 L 402.6132404181185 223.33333333333337 L 404.3554006968641 211 L 406.0975609756098 198.5 L 407.8397212543554 194.5 L 409.58188153310107 204.33333333333337 L 411.3240418118467 180.33333333333337 L 413.06620209059236 176.16666666666669 L 414.808362369338 171.16666666666669 L 416.55052264808364 175.16666666666669 L 418.2926829268293 178 L 420.03484320557493 161.5 L 421.7770034843206 157.83333333333337 L 423.5191637630662 157.5 L 425.26132404181186 161.83333333333337 L 427.0034843205575 165.66666666666669 L 428.74564459930315 147.83333333333337 L 430.4878048780488 152.5 L 432.22996515679444 150.66666666666669 L 433.9721254355401 150.16666666666669 L 435.7142857142857 155.33333333333337 L 437.45644599303137 151.83333333333337 L 439.198606271777 144.83333333333337 L 440.94076655052265 146 L 442.6829268292683 137.66666666666669 L 444.42508710801394 134 L 446.1672473867596 134 L 447.9094076655052 139.33333333333337 L 449.65156794425087 138.66666666666669 L 451.3937282229965 141.66666666666669 L 453.13588850174216 133.16666666666669 L 454.8780487804878 129.33333333333337 L 456.62020905923345 110.16666666666669 L 458.3623693379791 110.5 L 460.10452961672473 108.5 L 461.8466898954704 113.66666666666669 L 463.588850174216 110.16666666666669 L 465.33101045296166 117 L 467.0731707317073 111.83333333333337 L 468.81533101045295 112.5 L 470.5574912891986 107 L 472.29965156794424 109.83333333333337 L 474.0418118466899 108.33333333333337 L 475.7839721254355 112.66666666666669 L 477.52613240418117 106 L 479.2682926829268 113.66666666666669 L 481.01045296167246 100 L 482.7526132404181 115.33333333333337 L 484.49477351916374 115 L 486.2369337979094 117.66666666666669 L 487.97909407665503 123.5 L 489.7212543554007 128.16666666666669 L 491.4634146341463 134.16666666666669 L 493.20557491289196 141.83333333333337 L 494.9477351916376 141.5 L 496.68989547038325 150.66666666666669 L 498.4320557491289 152.16666666666669 L 500.17421602787454 158.83333333333337 L 501.91637630662024 160.33333333333337 L 503.6585365853659 165.66666666666669 L 505.4006968641115 166.83333333333337 L 507.14285714285717 183.16666666666669 L 508.8850174216028 178.83333333333337 L 510.62717770034845 184.16666666666669 L 512.3693379790941 189.5 L 514.1114982578397 197.5 L 515.8536585365854 194.83333333333337 L 517.5958188153311 199.33333333333337 L 519.3379790940767 207.5 L 521.0801393728223 201.16666666666669 L 522.822299651568 206 L 524.5644599303137 215.66666666666669 L 526.3066202090592 219.16666666666669 L 528.0487804878048 221.66666666666669 L 529.7909407665505 217.66666666666669 L 531.5331010452962 215.33333333333337 L 533.2752613240418 220.5 L 535.0174216027874 222.66666666666669 L 536.7595818815331 220.16666666666669 L 538.5017421602788 234.16666666666669 L 540.2439024390244 232.83333333333337 L 541.98606271777 227.66666666666669 L 543.7282229965157 226.66666666666669 L 545.4703832752614 229.83333333333337 L 547.212543554007 224.83333333333337 L 548.9547038327526 219 L 550.6968641114983 222.66666666666669 L 552.439024390244 239.33333333333337 L 554.1811846689895 221.33333333333337 L 555.9233449477351 225.33333333333337 L 557.6655052264808 225.83333333333337 L 559.4076655052265 235.83333333333337 L 561.1498257839721 233.66666666666669 L 562.8919860627177 235.83333333333337 L 564.6341463414634 241.16666666666669 L 566.3763066202091 237.16666666666669 L 568.1184668989547 239.83333333333337 L 569.8606271777003 243.66666666666669 L 571.602787456446 245.66666666666669 L 573.3449477351917 255.33333333333337 L 575.0871080139373 265.6666666666667 L 576.8292682926829 262.5 L 578.5714285714286 256.6666666666667 L 580.3135888501743 253.83333333333337 L 582.0557491289198 250.83333333333337 L 583.7979094076654 250.5 L 585.5400696864111 251.66666666666669 L 587.2822299651568 252.5 L 589.0243902439024 259.5 L 590.766550522648 263.5 L 592.5087108013937 267.33333333333337 L 594.2508710801394 266.5 L 595.993031358885 267 L 597.7351916376306 270 L 599.4773519163763 269 L 601.219512195122 267.6666666666667 L 602.9616724738676 273.6666666666667 L 604.7038327526133 283.6666666666667 L 606.445993031359 277 L 608.1881533101046 281.6666666666667 L 609.9303135888501 290.6666666666667 L 611.6724738675958 297 L 613.4146341463415 294 L 615.1567944250871 292.1666666666667 L 616.8989547038327 293.5 L 618.6411149825784 292.1666666666667 L 620.3832752613241 297.1666666666667 L 622.1254355400697 301.33333333333337 L 623.8675958188153 297.33333333333337 L 625.609756097561 300.5 L 627.3519163763067 307.5 L 629.0940766550523 306 L 630.8362369337979 309.5 L 632.5783972125436 311.1666666666667 L 634.3205574912893 310.6666666666667 L 636.0627177700349 312.5 L 637.8048780487804 318.83333333333337 L 639.5470383275261 317.6666666666667 L 641.2891986062718 317 L 643.0313588850174 323.83333333333337 L 644.773519163763 330 L 646.5156794425087 334.83333333333337 L 648.2578397212544 340.5 L 650 344.33333333333337 L 650 400 Z" /><text  class="poloto_labels poloto_text poloto_title" alignment-baseline="start" text-anchor="middle" font-size="x-large" x="400" y="37.5" >Total players on 2021-11-03</text><text  class="poloto_labels poloto_text poloto_xname" alignment-baseline="start" text-anchor="middle" font-size="x-large" x="400" y="481.25" >Time</text><text  class="poloto_labels poloto_text poloto_yname" alignment-baseline="start" text-anchor="middle" font-size="x-large" transform="rotate(-90,37.5,250)" x="37.5" y="250" >Count</text><line  class="poloto_axis_lines" stroke="black" x1="150" x2="150" y1="400" y2="405" /><text  class="poloto_tick_labels poloto_text" alignment-baseline="start" text-anchor="middle" x="150" y="430" > 00:00:00</text><line  class="poloto_axis_lines" stroke="black" x1="266.14401858304296" x2="266.14401858304296" y1="400" y2="405" /><text  class="poloto_tick_labels poloto_text" alignment-baseline="start" text-anchor="middle" x="266.14401858304296" y="430" > 05:33:20</text><line  class="poloto_axis_lines" stroke="black" x1="382.2880371660859" x2="382.2880371660859" y1="400" y2="405" /><text  class="poloto_tick_labels poloto_text" alignment-baseline="start" text-anchor="middle" x="382.2880371660859" y="430" > 11:06:40</text><line  class="poloto_axis_lines" stroke="black" x1="498.4320557491289" x2="498.4320557491289" y1="400" y2="405" /><text  class="poloto_tick_labels poloto_text" alignment-baseline="start" text-anchor="middle" x="498.4320557491289" y="430" > 16:40:00</text><line  class="poloto_axis_lines" stroke="black" x1="614.5760743321719" x2="614.5760743321719" y1="400" y2="405" /><text  class="poloto_tick_labels poloto_text" alignment-baseline="start" text-anchor="middle" x="614.5760743321719" y="430" > 22:13:20</text><line  class="poloto_axis_lines" stroke="black" x1="150" x2="144" y1="379.33333333333337" y2="379.33333333333337" /><text  class="poloto_tick_labels poloto_text" alignment-baseline="middle" text-anchor="end" x="135" y="379.33333333333337" > 1000</text><line  class="poloto_axis_lines" stroke="black" x1="150" x2="144" y1="296" y2="296" /><text  class="poloto_tick_labels poloto_text" alignment-baseline="middle" text-anchor="end" x="135" y="296" > 1500</text><line  class="poloto_axis_lines" stroke="black" x1="150" x2="144" y1="212.66666666666669" y2="212.66666666666669" /><text  class="poloto_tick_labels poloto_text" alignment-baseline="middle" text-anchor="end" x="135" y="212.66666666666669" > 2000</text><line  class="poloto_axis_lines" stroke="black" x1="150" x2="144" y1="129.33333333333337" y2="129.33333333333337" /><text  class="poloto_tick_labels poloto_text" alignment-baseline="middle" text-anchor="end" x="135" y="129.33333333333337" > 2500</text><path  stroke="black" fill="none" class="poloto_axis_lines" style="stroke-dasharray:14.518002322880372;stroke-dashoffset:-0;" d=" M 150 400 L 650 400" /><path  stroke="black" fill="none" class="poloto_axis_lines" style="stroke-dasharray:8.333333333333332;stroke-dashoffset:-20.666666666666657;" d=" M 150 400 L 150 100" /></svg>