<svg class="poloto" width="800" height="500" viewBox="0 0 800 500" xmlns="http://www.w3.org/2000/svg"><style>.poloto { stroke-linecap:round; stroke-linejoin:round; font-family: 'Tahoma', sans-serif; background-color: AliceBlue;} .poloto_scatter{stroke-width:7} .poloto_line{stroke-width:2} .poloto_text{fill: black;} .poloto_axis_lines{stroke: black;stroke-width:3;fill:none;stroke-dasharray:none} .poloto0stroke{stroke:  blue;} .poloto1stroke{stroke:  red;} .poloto2stroke{stroke:  green;} .poloto3stroke{stroke:  gold;} .poloto4stroke{stroke:  aqua;} .poloto5stroke{stroke:  lime;} .poloto6stroke{stroke:  orange;} .poloto7stroke{stroke:  chocolate;} .poloto0fill{fill:blue;} .poloto1fill{fill:red;} .poloto2fill{fill:green;} .poloto3fill{fill:gold;} .poloto4fill{fill:aqua;} .poloto5fill{fill:lime;} .poloto6fill{fill:orange;} .poloto7fill{fill:chocolate;}</style><text  class="poloto_text poloto_legend_text" alignment-baseline="middle" text-anchor="start" font-size="large" x="675" y="100" ></text><path  class="poloto_linefill poloto0fill" d=" M 150 400 L 150 304.25977653631287 L 151.74216027874564 308.03072625698326 L 153.4843205574913 309.0782122905028 L 155.22648083623693 334.00837988826817 L 156.96864111498257 340.5027932960894 L 158.71080139372822 334.42737430167597 L 160.45296167247386 333.79888268156424 L 162.1951219512195 341.13128491620114 L 163.93728222996515 337.36033519553075 L 165.6794425087108 338.8268156424581 L 167.42160278745644 345.74022346368713 L 169.16376306620208 353.9106145251397 L 170.90592334494772 358.93854748603354 L 172.64808362369337 361.0335195530726 L 174.390243902439 365.64245810055866 L 176.13240418118465 364.3854748603352 L 177.8745644599303 366.6899441340782 L 179.61672473867597 371.92737430167597 L 181.3588850174216 374.86033519553075 L 183.10104529616726 375.0698324022346 L 184.8432055749129 380.3072625698324 L 186.58536585365854 384.91620111731845 L 188.3275261324042 384.0782122905028 L 190.06968641114983 382.1927374301676 L 191.81184668989548 377.7932960893855 L 193.55400696864112 384.4972067039106 L 195.29616724738676 386.3826815642458 L 197.0383275261324 395.6005586592179 L 198.78048780487805 398.74301675977654 L 200.5226480836237 399.7905027932961 L 202.26480836236934 397.90502793296093 L 204.00696864111498 393.7150837988827 L 205.74912891986062 395.6005586592179 L 207.49128919860627 396.85754189944134 L 209.2334494773519 396.2290502793296 L 210.97560975609755 385.1256983240223 L 212.7177700348432 382.6117318435754 L 214.45993031358887 390.7821229050279 L 216.2020905923345 392.03910614525137 L 217.94425087108016 397.4860335195531 L 219.6864111498258 400 L 221.42857142857144 393.7150837988827 L 223.1707317073171 392.03910614525137 L 224.91289198606273 394.5530726256983 L 226.65505226480838 392.03910614525137 L 228.39721254355402 389.10614525139664 L 230.13937282229966 385.5446927374302 L 231.8815331010453 381.14525139664806 L 233.62369337979095 377.16480446927375 L 235.3658536585366 367.10893854748605 L 237.10801393728224 362.0810055865922 L 238.85017421602788 359.5670391061453 L 240.59233449477352 361.45251396648047 L 242.33449477351917 364.3854748603352 L 244.0766550522648 360.82402234636874 L 245.81881533101046 359.35754189944134 L 247.5609756097561 347.83519553072625 L 249.30313588850174 344.48324022346367 L 251.0452961672474 347.83519553072625 L 252.78745644599303 344.48324022346367 L 254.52961672473867 345.74022346368713 L 256.2717770034843 341.13128491620114 L 258.01393728222996 339.66480446927375 L 259.7560975609756 345.3212290502793 L 261.49825783972125 344.06424581005587 L 263.2404181184669 334.8463687150838 L 264.98257839721254 331.49441340782124 L 266.7247386759582 333.1703910614525 L 268.4668989547038 328.3519553072626 L 270.20905923344947 335.89385474860336 L 271.9512195121951 337.36033519553075 L 273.69337979094075 341.340782122905 L 275.4355400696864 340.9217877094972 L 277.17770034843204 336.31284916201116 L 278.9198606271777 339.8743016759777 L 280.6620209059233 330.02793296089385 L 282.40418118466897 323.1145251396648 L 284.1463414634146 326.8854748603352 L 285.88850174216026 319.55307262569835 L 287.6306620209059 317.66759776536315 L 289.37282229965155 317.877094972067 L 291.1149825783972 316.8296089385475 L 292.85714285714283 315.57262569832403 L 294.5993031358885 319.7625698324022 L 296.3414634146342 319.1340782122905 L 298.08362369337976 316.62011173184356 L 299.82578397212546 309.2877094972067 L 301.56794425087105 300.0698324022346 L 303.31010452961675 298.18435754189943 L 305.05226480836234 294.41340782122904 L 306.79442508710804 295.6703910614525 L 308.5365853658536 299.0223463687151 L 310.2787456445993 293.99441340782124 L 312.0209059233449 297.1368715083799 L 313.7630662020906 290.0139664804469 L 315.5052264808362 282.2625698324022 L 317.2473867595819 276.3966480446927 L 318.9895470383275 272.41620111731845 L 320.7317073170732 271.7877094972067 L 322.4738675958188 275.5586592178771 L 324.2160278745645 276.60614525139664 L 325.95818815331006 274.30167597765364 L 327.70034843205576 271.9972067039106 L 329.44250871080135 281.00558659217876 L 331.18466898954705 280.58659217877096 L 332.92682926829264 282.47206703910615 L 334.66898954703834 270.74022346368713 L 336.4111498257839 268.43575418994413 L 338.1533101045296 266.340782122905 L 339.8954703832752 261.31284916201116 L 341.6376306620209 255.44692737430165 L 343.3797909407665 258.5893854748603 L 345.1219512195122 264.036312849162 L 346.86411149825784 262.1508379888268 L 348.6062717770035 260.26536312849163 L 350.34843205574913 260.0558659217877 L 352.0905923344948 266.340782122905 L 353.8327526132404 269.48324022346367 L 355.57491289198606 261.5223463687151 L 357.3170731707317 255.23743016759778 L 359.05923344947735 247.48603351955308 L 360.801393728223 235.96368715083798 L 362.54355400696863 232.1927374301676 L 364.2857142857143 231.98324022346367 L 366.0278745644599 225.27932960893855 L 367.77003484320556 221.92737430167597 L 369.5121951219512 216.06145251396646 L 371.25435540069685 214.3854748603352 L 372.9965156794425 212.9189944134078 L 374.73867595818814 206.84357541899442 L 376.4808362369338 201.18715083798884 L 378.2229965156794 195.53072625698326 L 379.96515679442507 193.43575418994413 L 381.7073170731707 196.78770949720672 L 383.44947735191636 194.6927374301676 L 385.191637630662 189.24581005586595 L 386.93379790940764 179.1899441340782 L 388.6759581881533 185.26536312849163 L 390.41811846689893 173.32402234636874 L 392.1602787456446 179.39944134078212 L 393.9024390243902 168.7150837988827 L 395.6445993031359 174.5810055865922 L 397.3867595818815 167.87709497206703 L 399.1289198606272 167.87709497206703 L 400.8710801393728 164.31564245810057 L 402.6132404181185 167.87709497206703 L 404.3554006968641 165.57262569832403 L 406.0975609756097 165.7821229050279 L 407.83972125435537 176.8854748603352 L 409.581881533101 177.72346368715085 L 411.32404181184666 176.67597765363126 L 413.0662020905923 172.48603351955308 L 414.80836236933794 173.32402234636874 L 416.5505226480836 170.18156424581008 L 418.29268292682923 171.2290502793296 L 420.0348432055749 176.8854748603352 L 421.7770034843206 180.65642458100558 L 423.5191637630662 173.74301675977654 L 425.26132404181186 156.14525139664806 L 427.0034843205575 161.80167597765364 L 428.74564459930315 167.66759776536315 L 430.4878048780488 166.20111731843576 L 432.22996515679444 167.87709497206703 L 433.9721254355401 166.8296089385475 L 435.7142857142857 162.22067039106145 L 437.45644599303137 169.55307262569835 L 439.198606271777 170.18156424581008 L 440.94076655052265 157.40223463687153 L 442.6829268292683 140.64245810055866 L 444.42508710801394 143.15642458100558 L 446.1672473867596 136.24301675977654 L 447.9094076655052 129.7486033519553 L 449.65156794425087 132.05307262569835 L 451.3937282229965 132.68156424581008 L 453.13588850174216 129.3296089385475 L 454.8780487804878 140.64245810055866 L 456.62020905923345 133.7290502793296 L 458.3623693379791 134.77653631284915 L 460.10452961672473 139.804469273743 L 461.8466898954704 143.7849162011173 L 463.588850174216 131.6340782122905 L 465.33101045296166 129.12011173184356 L 467.0731707317073 124.51117318435752 L 468.81533101045295 122.62569832402232 L 470.5574912891986 121.57821229050279 L 472.29965156794424 119.90223463687153 L 474.0418118466899 105.02793296089385 L 475.7839721254355 100 L 477.52613240418117 109.84636871508383 L 479.2682926829268 113.61731843575421 L 481.01045296167246 114.24581005586595 L 482.7526132404181 122.83519553072625 L 484.49477351916374 118.43575418994413 L 486.2369337979094 110.8938547486033 L 487.97909407665503 115.50279329608941 L 489.7212543554007 117.3882681564246 L 491.4634146341463 125.5586592178771 L 493.20557491289196 116.75977653631287 L 494.9477351916376 122.20670391061452 L 496.68989547038325 124.09217877094972 L 498.4320557491289 120.74022346368713 L 500.17421602787454 118.64525139664806 L 501.9163763066202 134.14804469273741 L 503.6585365853658 141.2709497206704 L 505.40069686411147 133.93854748603354 L 507.1428571428571 133.3100558659218 L 508.88501742160275 145.2513966480447 L 510.6271777003484 145.6703910614525 L 512.3693379790941 154.05027932960894 L 514.1114982578397 155.3072625698324 L 515.8536585365853 150.06983240223462 L 517.595818815331 135.6145251396648 L 519.3379790940767 125.34916201117318 L 521.0801393728223 134.77653631284915 L 522.822299651568 139.804469273743 L 524.5644599303137 137.9189944134078 L 526.3066202090592 144.83240223463685 L 528.0487804878048 142.52793296089385 L 529.7909407665505 148.39385474860336 L 531.5331010452962 156.14525139664806 L 533.2752613240418 159.70670391061452 L 535.0174216027874 155.93575418994413 L 536.7595818815331 164.52513966480444 L 538.5017421602788 177.72346368715085 L 540.2439024390244 186.31284916201116 L 541.98606271777 190.08379888268155 L 543.7282229965157 195.53072625698326 L 545.4703832752614 202.02513966480444 L 547.212543554007 199.30167597765364 L 548.9547038327526 205.7960893854749 L 550.6968641114983 195.1117318435754 L 552.439024390244 194.6927374301676 L 554.1811846689895 190.9217877094972 L 555.9233449477351 192.17877094972067 L 557.6655052264808 194.48324022346367 L 559.4076655052265 200.5586592178771 L 561.1498257839721 206.6340782122905 L 562.8919860627177 224.0223463687151 L 564.6341463414634 222.5558659217877 L 566.3763066202091 238.8966480446927 L 568.1184668989547 239.52513966480444 L 569.8606271777003 243.50558659217876 L 571.602787456446 243.08659217877096 L 573.3449477351917 253.35195530726259 L 575.0871080139373 249.37150837988827 L 576.8292682926829 250 L 578.5714285714286 238.4776536312849 L 580.3135888501743 248.74301675977654 L 582.0557491289198 227.58379888268155 L 583.7979094076654 245.39106145251395 L 585.5400696864111 238.68715083798884 L 587.2822299651568 247.90502793296088 L 589.0243902439024 250.20949720670393 L 590.766550522648 240.57262569832403 L 592.5087108013937 239.10614525139664 L 594.2508710801394 252.93296089385473 L 595.993031358885 240.15363128491617 L 597.7351916376306 241.20111731843576 L 599.4773519163763 240.3631284916201 L 601.219512195122 247.06703910614527 L 602.9616724738676 252.09497206703912 L 604.7038327526132 256.0754189944134 L 606.4459930313589 274.30167597765364 L 608.1881533101046 262.5698324022346 L 609.9303135888501 269.9022346368715 L 611.6724738675957 268.01675977653633 L 613.4146341463414 281.4245810055866 L 615.1567944250871 274.5111731843575 L 616.8989547038327 279.3296089385475 L 618.6411149825783 285.195530726257 L 620.383275261324 285.195530726257 L 622.1254355400697 288.54748603351953 L 623.8675958188153 288.33798882681566 L 625.609756097561 286.87150837988827 L 627.3519163763067 293.1564245810056 L 629.0940766550523 301.74581005586595 L 630.8362369337979 301.74581005586595 L 632.5783972125436 308.03072625698326 L 634.3205574912893 308.03072625698326 L 636.0627177700349 308.24022346368713 L 637.8048780487804 306.14525139664806 L 639.5470383275261 306.56424581005587 L 641.2891986062718 315.3631284916201 L 643.0313588850174 313.0586592178771 L 644.773519163763 315.57262569832403 L 646.5156794425087 321.6480446927374 L 648.2578397212544 329.8184357541899 L 650 332.7513966480447 L 650 400 Z" /><text  class="poloto_labels poloto_text poloto_title" alignment-baseline="start" text-anchor="middle" font-size="x-large" x="400" y="37.5" >Total players on 2021-07-03</text><text  class="poloto_labels poloto_text poloto_xname" alignment-baseline="start" text-anchor="middle" font-size="x-large" x="400" y="481.25" >Time</text><text  class="poloto_labels poloto_text poloto_yname" alignment-baseline="start" text-anchor="middle" font-size="x-large" transform="rotate(-90,37.5,250)" x="37.5" y="250" >Count</text><line  class="poloto_axis_lines" stroke="black" x1="208.0487804878049" x2="208.0487804878049" y1="400" y2="405" /><text  class="poloto_tick_labels poloto_text" alignment-baseline="start" text-anchor="middle" x="208.0487804878049" y="430" > 03:00</text><line  class="poloto_axis_lines" stroke="black" x1="266.1207897793264" x2="266.1207897793264" y1="400" y2="405" /><text  class="poloto_tick_labels poloto_text" alignment-baseline="start" text-anchor="middle" x="266.1207897793264" y="430" > 06:00</text><line  class="poloto_axis_lines" stroke="black" x1="324.19279907084785" x2="324.19279907084785" y1="400" y2="405" /><text  class="poloto_tick_labels poloto_text" alignment-baseline="start" text-anchor="middle" x="324.19279907084785" y="430" > 08:00</text><line  class="poloto_axis_lines" stroke="black" x1="382.2648083623693" x2="382.2648083623693" y1="400" y2="405" /><text  class="poloto_tick_labels poloto_text" alignment-baseline="start" text-anchor="middle" x="382.2648083623693" y="430" > 11:00</text><line  class="poloto_axis_lines" stroke="black" x1="440.3368176538908" x2="440.3368176538908" y1="400" y2="405" /><text  class="poloto_tick_labels poloto_text" alignment-baseline="start" text-anchor="middle" x="440.3368176538908" y="430" > 14:00</text><line  class="poloto_axis_lines" stroke="black" x1="498.4088269454123" x2="498.4088269454123" y1="400" y2="405" /><text  class="poloto_tick_labels poloto_text" alignment-baseline="start" text-anchor="middle" x="498.4088269454123" y="430" > 17:00</text><line  class="poloto_axis_lines" stroke="black" x1="556.4808362369338" x2="556.4808362369338" y1="400" y2="405" /><text  class="poloto_tick_labels poloto_text" alignment-baseline="start" text-anchor="middle" x="556.4808362369338" y="430" > 19:00</text><line  class="poloto_axis_lines" stroke="black" x1="614.5528455284552" x2="614.5528455284552" y1="400" y2="405" /><text  class="poloto_tick_labels poloto_text" alignment-baseline="start" text-anchor="middle" x="614.5528455284552" y="430" > 22:00</text><line  class="poloto_axis_lines" stroke="black" x1="150" x2="144" y1="372.3463687150838" y2="372.3463687150838" /><text  class="poloto_tick_labels poloto_text" alignment-baseline="middle" text-anchor="end" x="135" y="372.3463687150838" > 1200</text><line  class="poloto_axis_lines" stroke="black" x1="150" x2="144" y1="330.44692737430165" y2="330.44692737430165" /><text  class="poloto_tick_labels poloto_text" alignment-baseline="middle" text-anchor="end" x="135" y="330.44692737430165" > 1400</text><line  class="poloto_axis_lines" stroke="black" x1="150" x2="144" y1="288.54748603351953" y2="288.54748603351953" /><text  class="poloto_tick_labels poloto_text" alignment-baseline="middle" text-anchor="end" x="135" y="288.54748603351953" > 1600</text><line  class="poloto_axis_lines" stroke="black" x1="150" x2="144" y1="246.64804469273741" y2="246.64804469273741" /><text  class="poloto_tick_labels poloto_text" alignment-baseline="middle" text-anchor="end" x="135" y="246.64804469273741" > 1800</text><line  class="poloto_axis_lines" stroke="black" x1="150" x2="144" y1="204.7486033519553" y2="204.7486033519553" /><text  class="poloto_tick_labels poloto_text" alignment-baseline="middle" text-anchor="end" x="135" y="204.7486033519553" > 2000</text><line  class="poloto_axis_lines" stroke="black" x1="150" x2="144" y1="162.84916201117318" y2="162.84916201117318" /><text  class="poloto_tick_labels poloto_text" alignment-baseline="middle" text-anchor="end" x="135" y="162.84916201117318" > 2200</text><line  class="poloto_axis_lines" stroke="black" x1="150" x2="144" y1="120.94972067039106" y2="120.94972067039106" /><text  class="poloto_tick_labels poloto_text" alignment-baseline="middle" text-anchor="end" x="135" y="120.94972067039106" > 2400</text><path  stroke="black" fill="none" class="poloto_axis_lines" style="stroke-dasharray:14.518002322880372;stroke-dashoffset:-58.04878048780488;" d=" M 150 400 L 650 400" /><path  stroke="black" fill="none" class="poloto_axis_lines" style="stroke-dasharray:10.474860335195531;stroke-dashoffset:-27.6536312849162;" d=" M 150 400 L 150 100" /></svg>