<svg class="poloto" width="800" height="500" viewBox="0 0 800 500" xmlns="http://www.w3.org/2000/svg"><style>.poloto { stroke-linecap:round; stroke-linejoin:round; font-family: 'Tahoma', sans-serif; background-color: AliceBlue;} .poloto_scatter{stroke-width:7} .poloto_line{stroke-width:2} .poloto_text{fill: black;} .poloto_axis_lines{stroke: black;stroke-width:3;fill:none;stroke-dasharray:none} .poloto0stroke{stroke:  blue;} .poloto1stroke{stroke:  red;} .poloto2stroke{stroke:  green;} .poloto3stroke{stroke:  gold;} .poloto4stroke{stroke:  aqua;} .poloto5stroke{stroke:  lime;} .poloto6stroke{stroke:  orange;} .poloto7stroke{stroke:  chocolate;} .poloto0fill{fill:blue;} .poloto1fill{fill:red;} .poloto2fill{fill:green;} .poloto3fill{fill:gold;} .poloto4fill{fill:aqua;} .poloto5fill{fill:lime;} .poloto6fill{fill:orange;} .poloto7fill{fill:chocolate;}</style><text  class="poloto_text poloto_legend_text" alignment-baseline="middle" text-anchor="start" font-size="large" x="675" y="100" ></text><path  class="poloto_linefill poloto0fill" d=" M 150 400 L 150 329.78723404255317 L 151.74216027874564 329.11534154535275 L 153.4843205574913 332.97872340425533 L 155.22648083623693 329.78723404255317 L 156.96864111498257 338.3538633818589 L 158.71080139372822 336.0022396416573 L 160.45296167247386 335.3303471444569 L 162.1951219512195 339.8656215005599 L 163.93728222996515 342.2172452407615 L 165.6794425087108 347.2564389697648 L 167.42160278745644 348.4322508398656 L 169.16376306620208 355.82306830907055 L 170.90592334494772 355.1511758118701 L 172.64808362369337 363.8857782754759 L 174.390243902439 366.74132138857783 L 176.13240418118465 367.7491601343785 L 177.8745644599303 373.6282194848824 L 179.61672473867597 368.0851063829787 L 181.3588850174216 373.6282194848824 L 183.10104529616726 375.3079507278835 L 184.8432055749129 376.31578947368416 L 186.58536585365854 372.95632698768196 L 188.3275261324042 376.98768197088464 L 190.06968641114983 382.026875699888 L 191.81184668989548 382.86674132138853 L 193.55400696864112 382.1948488241881 L 195.29616724738676 381.35498320268755 L 197.0383275261324 383.0347144456887 L 198.78048780487805 379.84322508398657 L 200.5226480836237 385.8902575587906 L 202.26480836236934 383.2026875699888 L 204.00696864111498 391.097424412094 L 205.74912891986062 392.441209406495 L 207.49128919860627 392.1052631578947 L 209.2334494773519 387.56998880179174 L 210.97560975609755 382.53079507278835 L 212.7177700348432 384.37849944008957 L 214.45993031358887 382.1948488241881 L 216.2020905923345 380.17917133258675 L 217.94425087108016 385.21836506159013 L 219.6864111498258 382.026875699888 L 221.42857142857144 379.003359462486 L 223.1707317073171 379.003359462486 L 224.91289198606273 385.8902575587906 L 226.65505226480838 380.515117581187 L 228.39721254355402 381.6909294512878 L 230.13937282229966 382.69876819708844 L 231.8815331010453 375.979843225084 L 233.62369337979095 380.17917133258675 L 235.3658536585366 386.39417693169094 L 237.10801393728224 387.73796192609177 L 238.85017421602788 390.5935050391937 L 240.59233449477352 396.976483762598 L 242.33449477351917 394.28891377379614 L 244.0766550522648 394.62486002239643 L 245.81881533101046 395.8006718924972 L 247.5609756097561 393.95296752519596 L 249.30313588850174 390.76147816349385 L 251.0452961672474 393.95296752519596 L 252.78745644599303 392.1052631578947 L 254.52961672473867 392.9451287793953 L 256.2717770034843 392.1052631578947 L 258.01393728222996 390.4255319148936 L 259.7560975609756 389.2497200447928 L 261.49825783972125 391.43337066069427 L 263.2404181184669 392.9451287793953 L 264.98257839721254 400 L 266.7247386759582 393.44904815229563 L 268.4668989547038 394.28891377379614 L 270.20905923344947 390.2575587905935 L 271.9512195121951 392.9451287793953 L 273.69337979094075 390.5935050391937 L 275.4355400696864 394.62486002239643 L 277.17770034843204 398.488241881299 L 278.9198606271777 396.30459126539756 L 280.6620209059233 392.27323628219483 L 282.40418118466897 385.21836506159013 L 284.1463414634146 383.2026875699888 L 285.88850174216026 379.6752519596864 L 287.6306620209059 380.17917133258675 L 289.37282229965155 375.81187010078384 L 291.1149825783972 374.9720044792833 L 292.85714285714283 369.93281075027994 L 294.5993031358885 369.93281075027994 L 296.3414634146342 366.74132138857783 L 298.08362369337976 369.5968645016797 L 299.82578397212546 366.2374020156775 L 301.56794425087105 365.2295632698768 L 303.31010452961675 367.7491601343785 L 305.05226480836234 361.53415453527435 L 306.79442508710804 360.6942889137738 L 308.5365853658536 365.3975363941769 L 310.2787456445993 364.05375139977605 L 312.0209059233449 368.0851063829787 L 313.7630662020906 369.0929451287794 L 315.5052264808362 368.0851063829787 L 317.2473867595819 366.74132138857783 L 318.9895470383275 363.8857782754759 L 320.7317073170732 352.79955207166853 L 322.4738675958188 350.78387458006716 L 324.2160278745645 347.59238521836505 L 325.95818815331006 346.08062709966407 L 327.70034843205576 343.22508398656214 L 329.44250871080135 348.6002239641657 L 331.18466898954705 352.29563269876815 L 332.92682926829264 347.2564389697648 L 334.66898954703834 346.7525195968645 L 336.4111498257839 343.72900335946247 L 338.1533101045296 342.7211646136618 L 339.8954703832752 344.90481522956327 L 341.6376306620209 338.3538633818589 L 343.3797909407665 330.4591265397536 L 345.1219512195122 325.58790593505034 L 346.86411149825784 320.7166853303471 L 348.6062717770035 310.4703247480403 L 350.34843205574913 309.46248600223964 L 352.0905923344948 302.9115341545353 L 353.8327526132404 296.19260918253076 L 355.57491289198606 297.36842105263156 L 357.3170731707317 300.2239641657335 L 359.05923344947735 297.7043673012318 L 360.801393728223 298.88017917133254 L 362.54355400696863 296.6965285554311 L 364.2857142857143 293.16909294512874 L 366.0278745644599 290.31354983202687 L 367.77003484320556 290.8174692049272 L 369.5121951219512 287.7939529675252 L 371.25435540069685 282.92273236282193 L 372.9965156794425 277.88353863381855 L 374.73867595818814 280.23516237402015 L 376.4808362369338 276.0358342665173 L 378.2229965156794 276.0358342665173 L 379.96515679442507 280.90705487122057 L 381.7073170731707 272.508398656215 L 383.44947735191636 276.37178051511756 L 385.191637630662 264.1097424412094 L 386.93379790940764 265.7894736842105 L 388.6759581881533 261.5901455767077 L 390.41811846689893 262.094064949608 L 392.1602787456446 260.75027995520713 L 393.9024390243902 258.9025755879059 L 395.6445993031359 254.3673012318029 L 397.3867595818815 252.85554311310187 L 399.1289198606272 250.1679731243001 L 400.8710801393728 247.98432250839863 L 402.6132404181185 242.60918253079507 L 404.3554006968641 239.92161254199328 L 406.0975609756097 234.7144456886898 L 407.83972125435537 230.51511758118698 L 409.581881533101 227.9955207166853 L 411.32404181184666 220.7726763717805 L 413.0662020905923 214.72564389697646 L 414.80836236933794 211.87010078387453 L 416.5505226480836 222.95632698768196 L 418.29268292682923 217.74916013437849 L 420.0348432055749 214.053751399776 L 421.7770034843206 209.3505039193729 L 423.5191637630662 213.38185890257557 L 425.26132404181186 211.03023516237397 L 427.0034843205575 206.32698768197088 L 428.74564459930315 196.7525195968645 L 430.4878048780488 197.08846584546473 L 432.22996515679444 198.26427771556547 L 433.9721254355401 186.17021276595744 L 435.7142857142857 189.6976483762598 L 437.45644599303137 177.43561030235162 L 439.198606271777 167.525195968645 L 440.94076655052265 175.92385218365058 L 442.6829268292683 181.13101903695406 L 444.42508710801394 176.59574468085106 L 446.1672473867596 174.07614781634936 L 447.9094076655052 160.4703247480403 L 449.65156794425087 158.45464725643893 L 451.3937282229965 149.55207166853302 L 453.13588850174216 147.2004479283314 L 454.8780487804878 142.49720044792832 L 456.62020905923345 134.77043673012315 L 458.3623693379791 127.54759238521831 L 460.10452961672473 130.23516237402015 L 461.8466898954704 126.03583426651733 L 463.588850174216 127.88353863381855 L 465.33101045296166 121.33258678611418 L 467.0731707317073 124.3561030235162 L 468.81533101045295 123.1802911534154 L 470.5574912891986 127.54759238521831 L 472.29965156794424 121.16461366181409 L 474.0418118466899 118.30907054871216 L 475.7839721254355 106.21500559910413 L 477.52613240418117 106.21500559910413 L 479.2682926829268 101.17581187010074 L 481.01045296167246 99.99999999999994 L 482.7526132404181 108.06270996640535 L 484.49477351916374 102.51959686450164 L 486.2369337979094 106.88689809630455 L 487.97909407665503 99.99999999999994 L 489.7212543554007 109.91041433370657 L 491.4634146341463 113.94176931690924 L 493.20557491289196 113.10190369540868 L 494.9477351916376 116.62933930571108 L 496.68989547038325 123.68421052631578 L 498.4320557491289 117.63717805151174 L 500.17421602787454 120.49272116461361 L 501.9163763066202 126.53975363941765 L 503.6585365853658 125.86786114221724 L 505.40069686411147 127.54759238521831 L 507.1428571428571 127.21164613661813 L 508.88501742160275 134.77043673012315 L 510.6271777003484 137.62597984322508 L 512.3693379790941 137.29003359462484 L 514.1114982578397 133.7625979843225 L 515.8536585365853 133.42665173572226 L 517.595818815331 135.1063829787234 L 519.3379790940767 150.8958566629339 L 521.0801393728223 142.32922732362817 L 522.822299651568 140.98544232922728 L 524.5644599303137 145.52071668533034 L 526.3066202090592 143.8409854423292 L 528.0487804878048 145.01679731242996 L 529.7909407665505 150.39193729003358 L 531.5331010452962 155.59910414333706 L 533.2752613240418 167.18924972004476 L 535.0174216027874 167.02127659574467 L 536.7595818815331 166.01343784994395 L 538.5017421602788 162.31802911534152 L 540.2439024390244 161.98208286674128 L 541.98606271777 176.93169092945124 L 543.7282229965157 162.31802911534152 L 545.4703832752614 158.95856662933926 L 547.212543554007 184.15453527435608 L 548.9547038327526 178.27547592385218 L 550.6968641114983 191.20940649496077 L 552.439024390244 177.7715565509518 L 554.1811846689895 187.68197088465843 L 555.9233449477351 180.1231802911534 L 557.6655052264808 186.50615901455762 L 559.4076655052265 199.27211646136618 L 561.1498257839721 209.01455767077266 L 562.8919860627177 196.58454647256434 L 564.6341463414634 203.1354983202687 L 566.3763066202091 197.25643896976482 L 568.1184668989547 206.66293393057106 L 569.8606271777003 207.33482642777153 L 571.602787456446 206.32698768197088 L 573.3449477351917 207.33482642777153 L 575.0871080139373 210.19036954087346 L 576.8292682926829 213.04591265397534 L 578.5714285714286 216.06942889137736 L 580.3135888501743 214.89361702127655 L 582.0557491289198 208.1746920492721 L 583.7979094076654 208.006718924972 L 585.5400696864111 208.3426651735722 L 587.2822299651568 212.87793952967525 L 589.0243902439024 219.09294512877938 L 590.766550522648 220.60470324748036 L 592.5087108013937 219.93281075027994 L 594.2508710801394 227.15565509518473 L 595.993031358885 232.69876819708844 L 597.7351916376306 227.9955207166853 L 599.4773519163763 226.81970884658455 L 601.219512195122 227.32362821948487 L 602.9616724738676 230.68309070548707 L 604.7038327526132 224.1321388577827 L 606.4459930313589 223.79619260918253 L 608.1881533101046 222.45240761478163 L 609.9303135888501 214.053751399776 L 611.6724738675957 222.1164613661814 L 613.4146341463414 222.2844344904815 L 615.1567944250871 229.84322508398657 L 616.8989547038327 237.06606942889135 L 618.6411149825783 241.9372900335946 L 620.383275261324 249.83202687569985 L 622.1254355400697 252.68756998880178 L 623.8675958188153 254.7032474804031 L 625.609756097561 254.7032474804031 L 627.3519163763067 261.25419932810746 L 629.0940766550523 260.75027995520713 L 630.8362369337979 264.94960806270996 L 632.5783972125436 268.14109742441207 L 634.3205574912893 273.18029115341545 L 636.0627177700349 277.2116461366181 L 637.8048780487804 279.7312430011198 L 639.5470383275261 289.4736842105263 L 641.2891986062718 287.29003359462484 L 643.0313588850174 286.7861142217245 L 644.773519163763 291.65733482642776 L 646.5156794425087 295.68868980963043 L 648.2578397212544 303.07950727883537 L 650 306.94288913773795 L 650 400 Z" /><text  class="poloto_labels poloto_text poloto_title" alignment-baseline="start" text-anchor="middle" font-size="x-large" x="400" y="37.5" >Total players on 2021-06-11</text><text  class="poloto_labels poloto_text poloto_xname" alignment-baseline="start" text-anchor="middle" font-size="x-large" x="400" y="481.25" >Time</text><text  class="poloto_labels poloto_text poloto_yname" alignment-baseline="start" text-anchor="middle" font-size="x-large" transform="rotate(-90,37.5,250)" x="37.5" y="250" >Count</text><line  class="poloto_axis_lines" stroke="black" x1="208.0487804878049" x2="208.0487804878049" y1="400" y2="405" /><text  class="poloto_tick_labels poloto_text" alignment-baseline="start" text-anchor="middle" x="208.0487804878049" y="430" > 03:00</text><line  class="poloto_axis_lines" stroke="black" x1="266.1207897793264" x2="266.1207897793264" y1="400" y2="405" /><text  class="poloto_tick_labels poloto_text" alignment-baseline="start" text-anchor="middle" x="266.1207897793264" y="430" > 06:00</text><line  class="poloto_axis_lines" stroke="black" x1="324.19279907084785" x2="324.19279907084785" y1="400" y2="405" /><text  class="poloto_tick_labels poloto_text" alignment-baseline="start" text-anchor="middle" x="324.19279907084785" y="430" > 08:00</text><line  class="poloto_axis_lines" stroke="black" x1="382.2648083623693" x2="382.2648083623693" y1="400" y2="405" /><text  class="poloto_tick_labels poloto_text" alignment-baseline="start" text-anchor="middle" x="382.2648083623693" y="430" > 11:00</text><line  class="poloto_axis_lines" stroke="black" x1="440.3368176538908" x2="440.3368176538908" y1="400" y2="405" /><text  class="poloto_tick_labels poloto_text" alignment-baseline="start" text-anchor="middle" x="440.3368176538908" y="430" > 14:00</text><line  class="poloto_axis_lines" stroke="black" x1="498.4088269454123" x2="498.4088269454123" y1="400" y2="405" /><text  class="poloto_tick_labels poloto_text" alignment-baseline="start" text-anchor="middle" x="498.4088269454123" y="430" > 17:00</text><line  class="poloto_axis_lines" stroke="black" x1="556.4808362369338" x2="556.4808362369338" y1="400" y2="405" /><text  class="poloto_tick_labels poloto_text" alignment-baseline="start" text-anchor="middle" x="556.4808362369338" y="430" > 19:00</text><line  class="poloto_axis_lines" stroke="black" x1="614.5528455284552" x2="614.5528455284552" y1="400" y2="405" /><text  class="poloto_tick_labels poloto_text" alignment-baseline="start" text-anchor="middle" x="614.5528455284552" y="430" > 22:00</text><line  class="poloto_axis_lines" stroke="black" x1="150" x2="144" y1="394.28891377379614" y2="394.28891377379614" /><text  class="poloto_tick_labels poloto_text" alignment-baseline="middle" text-anchor="end" x="135" y="394.28891377379614" > 1000</text><line  class="poloto_axis_lines" stroke="black" x1="150" x2="144" y1="310.30235162374015" y2="310.30235162374015" /><text  class="poloto_tick_labels poloto_text" alignment-baseline="middle" text-anchor="end" x="135" y="310.30235162374015" > 1500</text><line  class="poloto_axis_lines" stroke="black" x1="150" x2="144" y1="226.31578947368416" y2="226.31578947368416" /><text  class="poloto_tick_labels poloto_text" alignment-baseline="middle" text-anchor="end" x="135" y="226.31578947368416" > 2000</text><line  class="poloto_axis_lines" stroke="black" x1="150" x2="144" y1="142.32922732362817" y2="142.32922732362817" /><text  class="poloto_tick_labels poloto_text" alignment-baseline="middle" text-anchor="end" x="135" y="142.32922732362817" > 2500</text><path  stroke="black" fill="none" class="poloto_axis_lines" style="stroke-dasharray:14.518002322880372;stroke-dashoffset:-58.04878048780488;" d=" M 150 400 L 650 400" /><path  stroke="black" fill="none" class="poloto_axis_lines" style="stroke-dasharray:8.3986562150056;stroke-dashoffset:-5.711086226203832;" d=" M 150 400 L 150 100" /></svg>