<svg class="poloto" width="800" height="500" viewBox="0 0 800 500" xmlns="http://www.w3.org/2000/svg"><style>.poloto { stroke-linecap:round; stroke-linejoin:round; font-family: 'Tahoma', sans-serif; background-color: AliceBlue;} .poloto_scatter{stroke-width:7} .poloto_line{stroke-width:2} .poloto_text{fill: black;} .poloto_axis_lines{stroke: black;stroke-width:3;fill:none;stroke-dasharray:none} .poloto0stroke{stroke:  blue;} .poloto1stroke{stroke:  red;} .poloto2stroke{stroke:  green;} .poloto3stroke{stroke:  gold;} .poloto4stroke{stroke:  aqua;} .poloto5stroke{stroke:  lime;} .poloto6stroke{stroke:  orange;} .poloto7stroke{stroke:  chocolate;} .poloto0fill{fill:blue;} .poloto1fill{fill:red;} .poloto2fill{fill:green;} .poloto3fill{fill:gold;} .poloto4fill{fill:aqua;} .poloto5fill{fill:lime;} .poloto6fill{fill:orange;} .poloto7fill{fill:chocolate;}</style><text  class="poloto_text poloto_legend_text" alignment-baseline="middle" text-anchor="start" font-size="large" x="675" y="100" ></text><path  class="poloto_linefill poloto0fill" d=" M 150 400 L 150 363.312101910828 L 151.74216027874564 367.7070063694267 L 153.4843205574913 375.15923566878985 L 155.22648083623693 375.73248407643314 L 156.96864111498257 380.5095541401274 L 158.71080139372822 386.4331210191083 L 160.45296167247386 387.57961783439487 L 162.1951219512195 387.19745222929936 L 163.93728222996515 385.6687898089172 L 165.6794425087108 391.21019108280257 L 167.42160278745644 396.9426751592357 L 169.16376306620208 395.796178343949 L 170.90592334494772 396.56050955414014 L 172.64808362369337 397.515923566879 L 174.390243902439 394.6496815286624 L 176.13240418118465 389.87261146496814 L 177.8745644599303 393.5031847133758 L 179.61672473867597 390.828025477707 L 181.3588850174216 384.5222929936306 L 183.10104529616726 388.343949044586 L 184.8432055749129 384.71337579617835 L 186.58536585365854 381.0828025477707 L 188.3275261324042 378.78980891719743 L 190.06968641114983 380.89171974522293 L 191.81184668989548 381.8471337579618 L 193.55400696864112 386.81528662420385 L 195.29616724738676 389.29936305732485 L 197.0383275261324 393.88535031847135 L 198.78048780487805 387.19745222929936 L 200.5226480836237 389.10828025477707 L 202.26480836236934 391.78343949044586 L 204.00696864111498 390.44585987261144 L 205.74912891986062 397.3248407643312 L 207.49128919860627 398.6624203821656 L 209.2334494773519 400 L 210.97560975609755 396.36942675159236 L 212.7177700348432 397.7070063694267 L 214.45993031358887 395.796178343949 L 216.2020905923345 397.13375796178343 L 217.94425087108016 389.10828025477707 L 219.6864111498258 388.9171974522293 L 221.42857142857144 387.57961783439487 L 223.1707317073171 382.03821656050957 L 224.91289198606273 381.4649681528663 L 226.65505226480838 384.5222929936306 L 228.39721254355402 386.624203821656 L 230.13937282229966 386.624203821656 L 231.8815331010453 391.97452229299364 L 233.62369337979095 396.56050955414014 L 235.3658536585366 394.26751592356686 L 237.10801393728224 394.07643312101914 L 238.85017421602788 391.0191082802548 L 240.59233449477352 389.4904458598726 L 242.33449477351917 385.28662420382165 L 244.0766550522648 390.828025477707 L 245.81881533101046 395.6050955414013 L 247.5609756097561 392.35668789808915 L 249.30313588850174 387.7707006369427 L 251.0452961672474 394.26751592356686 L 252.78745644599303 394.26751592356686 L 254.52961672473867 395.796178343949 L 256.2717770034843 393.5031847133758 L 258.01393728222996 390.44585987261144 L 259.7560975609756 390.44585987261144 L 261.49825783972125 385.859872611465 L 263.2404181184669 384.71337579617835 L 264.98257839721254 378.4076433121019 L 266.7247386759582 375.73248407643314 L 268.4668989547038 375.73248407643314 L 270.20905923344947 370.5732484076433 L 271.9512195121951 367.7070063694267 L 273.69337979094075 365.98726114649685 L 275.4355400696864 368.6624203821656 L 277.17770034843204 365.6050955414013 L 278.91986062717774 359.87261146496814 L 280.6620209059233 364.6496815286624 L 282.404181184669 367.3248407643312 L 284.1463414634146 368.6624203821656 L 285.8885017421603 361.4012738853503 L 287.6306620209059 360.44585987261144 L 289.3728222996516 367.7070063694267 L 291.1149825783972 369.2356687898089 L 292.8571428571429 371.9108280254777 L 294.5993031358885 375.15923566878985 L 296.3414634146342 371.3375796178344 L 298.08362369337976 372.2929936305733 L 299.82578397212546 374.5859872611465 L 301.56794425087105 373.43949044585986 L 303.31010452961675 369.4267515923567 L 305.05226480836234 371.52866242038215 L 306.79442508710804 367.89808917197456 L 308.5365853658536 365.6050955414013 L 310.2787456445993 366.56050955414014 L 312.0209059233449 365.98726114649685 L 313.7630662020906 359.10828025477707 L 315.5052264808362 358.9171974522293 L 317.2473867595819 359.4904458598726 L 318.9895470383275 354.90445859872614 L 320.7317073170732 350.3184713375796 L 322.4738675958188 346.687898089172 L 324.2160278745645 343.0573248407643 L 325.9581881533101 346.4968152866242 L 327.70034843205576 337.7070063694267 L 329.4425087108014 333.1210191082803 L 331.18466898954705 328.5350318471337 L 332.9268292682927 331.4012738853503 L 334.66898954703834 327.0063694267516 L 336.411149825784 325.4777070063694 L 338.1533101045296 322.2292993630573 L 339.89547038327527 322.03821656050957 L 341.6376306620209 320.12738853503186 L 343.37979094076655 317.64331210191085 L 345.1219512195122 311.71974522292993 L 346.86411149825784 310.1910828025477 L 348.6062717770035 313.0573248407643 L 350.34843205574913 307.7070063694267 L 352.0905923344948 305.2229299363057 L 353.8327526132404 299.29936305732485 L 355.57491289198606 295.85987261146494 L 357.3170731707317 294.90445859872614 L 359.05923344947735 285.92356687898086 L 360.801393728223 284.20382165605093 L 362.54355400696863 286.687898089172 L 364.2857142857143 283.63057324840764 L 366.0278745644599 276.56050955414014 L 367.77003484320556 272.9299363057325 L 369.5121951219512 277.13375796178343 L 371.25435540069685 264.140127388535 L 372.9965156794425 265.09554140127386 L 374.73867595818814 264.5222929936306 L 376.4808362369338 263.18471337579615 L 378.2229965156795 258.59872611464965 L 379.96515679442507 271.21019108280257 L 381.70731707317077 274.6496815286624 L 383.44947735191636 271.4012738853503 L 385.19163763066206 269.10828025477707 L 386.93379790940764 279.61783439490443 L 388.67595818815334 262.9936305732484 L 390.41811846689893 256.687898089172 L 392.16027874564463 242.16560509554137 L 393.9024390243902 238.53503184713372 L 395.6445993031359 243.88535031847135 L 397.3867595818815 231.656050955414 L 399.1289198606272 228.98089171974522 L 400.8710801393728 225.73248407643314 L 402.6132404181185 229.93630573248407 L 404.3554006968641 222.6751592356688 L 406.0975609756098 215.9872611464968 L 407.8397212543554 209.29936305732485 L 409.58188153310107 203.56687898089172 L 411.3240418118467 199.171974522293 L 413.06620209059236 186.94267515923565 L 414.808362369338 197.0700636942675 L 416.55052264808364 189.04458598726114 L 418.2926829268293 182.9299363057325 L 420.03484320557493 177.96178343949043 L 421.7770034843206 177.96178343949043 L 423.5191637630662 175.47770700636943 L 425.26132404181186 165.73248407643308 L 427.0034843205575 156.56050955414014 L 428.74564459930315 147.77070063694265 L 430.4878048780488 147.19745222929936 L 432.22996515679444 140.89171974522293 L 433.9721254355401 135.35031847133757 L 435.7142857142857 134.39490445859872 L 437.45644599303137 129.04458598726114 L 439.198606271777 133.82165605095543 L 440.94076655052265 128.4713375796178 L 442.6829268292683 122.54777070063693 L 444.42508710801394 127.32484076433121 L 446.1672473867596 128.66242038216558 L 447.9094076655052 124.07643312101908 L 449.65156794425087 121.40127388535029 L 451.3937282229965 116.43312101910828 L 453.13588850174216 111.27388535031844 L 454.8780487804878 121.21019108280251 L 456.62020905923345 105.92356687898086 L 458.3623693379791 106.68789808917194 L 460.10452961672473 106.68789808917194 L 461.8466898954704 112.80254777070064 L 463.588850174216 101.14649681528658 L 465.33101045296166 100 L 467.0731707317073 104.5859872611465 L 468.81533101045295 110.31847133757958 L 470.5574912891986 107.45222929936301 L 472.29965156794424 109.55414012738851 L 474.0418118466899 105.54140127388536 L 475.7839721254355 109.55414012738851 L 477.52613240418117 111.08280254777071 L 479.2682926829268 107.6433121019108 L 481.01045296167246 110.70063694267515 L 482.7526132404181 117.19745222929936 L 484.49477351916374 116.2420382165605 L 486.2369337979094 132.29299363057322 L 487.97909407665503 126.75159235668787 L 489.7212543554007 121.97452229299364 L 491.4634146341463 124.45859872611464 L 493.20557491289196 123.12101910828022 L 494.9477351916376 124.26751592356686 L 496.68989547038325 136.11464968152865 L 498.4320557491289 140.50955414012736 L 500.17421602787454 144.52229299363057 L 501.91637630662024 152.9299363057325 L 503.6585365853659 158.28025477707007 L 505.4006968641115 161.9108280254777 L 507.14285714285717 167.2611464968153 L 508.8850174216028 178.15286624203821 L 510.62717770034845 189.80891719745222 L 512.3693379790941 185.796178343949 L 514.1114982578397 188.66242038216558 L 515.8536585365854 189.80891719745222 L 517.5958188153311 197.6433121019108 L 519.3379790940767 190.19108280254778 L 521.0801393728223 201.27388535031844 L 522.822299651568 197.0700636942675 L 524.5644599303137 216.17834394904457 L 526.3066202090592 210.06369426751593 L 528.0487804878048 217.515923566879 L 529.7909407665505 204.3312101910828 L 531.5331010452962 215.9872611464968 L 533.2752613240418 214.84076433121015 L 535.0174216027874 207.19745222929936 L 536.7595818815331 207.96178343949043 L 538.5017421602788 216.17834394904457 L 540.2439024390244 205.47770700636943 L 541.98606271777 206.8152866242038 L 543.7282229965157 210.828025477707 L 545.4703832752614 212.9299363057325 L 547.212543554007 218.66242038216558 L 548.9547038327526 213.69426751592357 L 550.6968641114983 215.03184713375794 L 552.439024390244 224.39490445859872 L 554.1811846689895 225.35031847133757 L 555.9233449477351 210.06369426751593 L 557.6655052264808 223.82165605095543 L 559.4076655052265 220.5732484076433 L 561.1498257839721 217.3248407643312 L 562.8919860627177 221.71974522292993 L 564.6341463414634 229.36305732484078 L 566.3763066202091 230.50955414012736 L 568.1184668989547 221.71974522292993 L 569.8606271777003 229.36305732484078 L 571.602787456446 228.59872611464965 L 573.3449477351917 228.59872611464965 L 575.0871080139373 237.00636942675158 L 576.8292682926829 242.16560509554137 L 578.5714285714286 245.03184713375794 L 580.3135888501743 247.70700636942672 L 582.0557491289198 247.13375796178343 L 583.7979094076654 251.9108280254777 L 585.5400696864111 240.44585987261144 L 587.2822299651568 242.16560509554137 L 589.0243902439024 245.796178343949 L 590.766550522648 253.24840764331208 L 592.5087108013937 254.968152866242 L 594.2508710801394 252.86624203821657 L 595.993031358885 250.5732484076433 L 597.7351916376306 252.86624203821657 L 599.4773519163763 262.03821656050957 L 601.219512195122 260.70063694267515 L 602.9616724738676 257.2611464968153 L 604.7038327526133 255.35031847133757 L 606.445993031359 264.5222929936306 L 608.1881533101046 269.10828025477707 L 609.9303135888501 269.87261146496814 L 611.6724738675958 273.88535031847135 L 613.4146341463415 285.1592356687898 L 615.1567944250871 285.92356687898086 L 616.8989547038327 291.2738853503185 L 618.6411149825784 301.0191082802548 L 620.3832752613241 306.9426751592357 L 622.1254355400697 311.52866242038215 L 623.8675958188153 314.968152866242 L 625.609756097561 326.81528662420385 L 627.3519163763067 325.09554140127386 L 629.0940766550523 328.5350318471337 L 630.8362369337979 330.2547770700637 L 632.5783972125436 334.6496815286624 L 634.3205574912893 339.4267515923567 L 636.0627177700349 333.5031847133758 L 637.8048780487804 336.1783439490446 L 639.5470383275261 339.2356687898089 L 641.2891986062718 344.01273885350315 L 643.0313588850174 343.43949044585986 L 644.773519163763 347.0700636942675 L 646.5156794425087 349.9363057324841 L 648.2578397212544 352.03821656050957 L 650 361.4012738853503 L 650 400 Z" /><text  class="poloto_labels poloto_text poloto_title" alignment-baseline="start" text-anchor="middle" font-size="x-large" x="400" y="37.5" >Total players on 2021-11-15</text><text  class="poloto_labels poloto_text poloto_xname" alignment-baseline="start" text-anchor="middle" font-size="x-large" x="400" y="481.25" >Time</text><text  class="poloto_labels poloto_text poloto_yname" alignment-baseline="start" text-anchor="middle" font-size="x-large" transform="rotate(-90,37.5,250)" x="37.5" y="250" >Count</text><line  class="poloto_axis_lines" stroke="black" x1="150" x2="150" y1="400" y2="405" /><text  class="poloto_tick_labels poloto_text" alignment-baseline="start" text-anchor="middle" x="150" y="430" > 00:00</text><line  class="poloto_axis_lines" stroke="black" x1="266.14401858304296" x2="266.14401858304296" y1="400" y2="405" /><text  class="poloto_tick_labels poloto_text" alignment-baseline="start" text-anchor="middle" x="266.14401858304296" y="430" > 06:00</text><line  class="poloto_axis_lines" stroke="black" x1="382.2880371660859" x2="382.2880371660859" y1="400" y2="405" /><text  class="poloto_tick_labels poloto_text" alignment-baseline="start" text-anchor="middle" x="382.2880371660859" y="430" > 11:00</text><line  class="poloto_axis_lines" stroke="black" x1="498.4320557491289" x2="498.4320557491289" y1="400" y2="405" /><text  class="poloto_tick_labels poloto_text" alignment-baseline="start" text-anchor="middle" x="498.4320557491289" y="430" > 17:00</text><line  class="poloto_axis_lines" stroke="black" x1="614.5760743321719" x2="614.5760743321719" y1="400" y2="405" /><text  class="poloto_tick_labels poloto_text" alignment-baseline="start" text-anchor="middle" x="614.5760743321719" y="430" > 22:00</text><line  class="poloto_axis_lines" stroke="black" x1="150" x2="144" y1="370.95541401273886" y2="370.95541401273886" /><text  class="poloto_tick_labels poloto_text" alignment-baseline="middle" text-anchor="end" x="135" y="370.95541401273886" > 1000</text><line  class="poloto_axis_lines" stroke="black" x1="150" x2="144" y1="275.4140127388535" y2="275.4140127388535" /><text  class="poloto_tick_labels poloto_text" alignment-baseline="middle" text-anchor="end" x="135" y="275.4140127388535" > 1500</text><line  class="poloto_axis_lines" stroke="black" x1="150" x2="144" y1="179.87261146496814" y2="179.87261146496814" /><text  class="poloto_tick_labels poloto_text" alignment-baseline="middle" text-anchor="end" x="135" y="179.87261146496814" > 2000</text><path  stroke="black" fill="none" class="poloto_axis_lines" style="stroke-dasharray:14.518002322880372;stroke-dashoffset:-0;" d=" M 150 400 L 650 400" /><path  stroke="black" fill="none" class="poloto_axis_lines" style="stroke-dasharray:9.554140127388536;stroke-dashoffset:-29.044585987261144;" d=" M 150 400 L 150 100" /></svg>