<svg class="poloto" width="800" height="500" viewBox="0 0 800 500" xmlns="http://www.w3.org/2000/svg"><style>.poloto { stroke-linecap:round; stroke-linejoin:round; font-family: 'Tahoma', sans-serif; background-color: AliceBlue;} .poloto_scatter{stroke-width:7} .poloto_line{stroke-width:2} .poloto_text{fill: black;} .poloto_axis_lines{stroke: black;stroke-width:3;fill:none;stroke-dasharray:none} .poloto0stroke{stroke:  blue;} .poloto1stroke{stroke:  red;} .poloto2stroke{stroke:  green;} .poloto3stroke{stroke:  gold;} .poloto4stroke{stroke:  aqua;} .poloto5stroke{stroke:  lime;} .poloto6stroke{stroke:  orange;} .poloto7stroke{stroke:  chocolate;} .poloto0fill{fill:blue;} .poloto1fill{fill:red;} .poloto2fill{fill:green;} .poloto3fill{fill:gold;} .poloto4fill{fill:aqua;} .poloto5fill{fill:lime;} .poloto6fill{fill:orange;} .poloto7fill{fill:chocolate;}</style><text  class="poloto_text poloto_legend_text" alignment-baseline="middle" text-anchor="start" font-size="large" x="675" y="100" ></text><path  class="poloto_linefill poloto0fill" d=" M 150 400 L 150 333.7708830548926 L 151.74216027874564 344.51073985680193 L 153.4843205574913 342.00477326968974 L 155.22648083623693 344.51073985680193 L 156.96864111498257 355.7875894988067 L 158.71080139372822 358.47255369928405 L 160.45296167247386 358.6515513126492 L 162.1951219512195 357.21957040572795 L 163.93728222996515 360.4415274463007 L 165.6794425087108 368.854415274463 L 167.42160278745644 372.25536992840097 L 169.16376306620208 380.66825775656326 L 170.90592334494772 370.8233890214797 L 172.64808362369337 365.99045346062053 L 174.390243902439 365.8114558472554 L 176.13240418118465 366.88544152744635 L 177.8745644599303 372.07637231503577 L 179.61672473867597 382.99522673031026 L 181.3588850174216 384.4272076372315 L 183.10104529616726 385.6801909307876 L 184.8432055749129 390.87112171837714 L 186.58536585365854 391.76610978520284 L 188.3275261324042 392.3031026252984 L 190.06968641114983 392.4821002386635 L 191.81184668989548 400 L 193.55400696864112 397.31503579952266 L 195.29616724738676 398.2100238663485 L 197.0383275261324 398.92601431980904 L 198.78048780487805 391.76610978520284 L 200.5226480836237 389.9761336515513 L 202.26480836236934 386.0381861575179 L 204.00696864111498 389.0811455847255 L 205.74912891986062 389.43914081145584 L 207.49128919860627 386.9331742243437 L 209.2334494773519 381.20525059665874 L 210.97560975609755 385.3221957040573 L 212.7177700348432 384.964200477327 L 214.45993031358887 380.8472553699284 L 216.2020905923345 378.69928400954655 L 217.94425087108016 376.909307875895 L 219.6864111498258 382.45823389021484 L 221.42857142857144 382.99522673031026 L 223.1707317073171 378.8782816229117 L 224.91289198606273 377.6252983293556 L 226.65505226480838 375.83532219570407 L 228.39721254355402 379.41527446300717 L 230.13937282229966 390.3341288782816 L 231.8815331010453 388.0071599045346 L 233.62369337979095 387.82816229116946 L 235.3658536585366 386.57517899761336 L 237.10801393728224 383.8902147971361 L 238.85017421602788 380.1312649164678 L 240.59233449477352 378.5202863961814 L 242.33449477351917 374.4033412887828 L 244.0766550522648 373.1503579952267 L 245.81881533101046 369.92840095465397 L 247.5609756097561 365.2744630071599 L 249.30313588850174 365.63245823389025 L 251.0452961672474 360.08353221957043 L 252.78745644599303 361.51551312649167 L 254.52961672473867 360.08353221957043 L 256.2717770034843 359.00954653937947 L 258.01393728222996 356.145584725537 L 259.7560975609756 355.60859188544157 L 261.49825783972125 362.9474940334129 L 263.2404181184669 356.5035799522673 L 264.98257839721254 355.4295942720764 L 266.7247386759582 355.7875894988067 L 268.4668989547038 359.36754176610975 L 270.20905923344947 356.5035799522673 L 271.9512195121951 351.67064439140813 L 273.69337979094075 352.7446300715991 L 275.44134727061555 352.0286396181384 L 277.17770034843204 352.20763723150355 L 278.9198606271777 346.83770883054893 L 280.6620209059233 342.5417661097852 L 282.40418118466897 345.9427207637232 L 284.1463414634146 345.9427207637232 L 285.88850174216026 344.8687350835322 L 287.6306620209059 350.9546539379475 L 289.37282229965155 348.44868735083537 L 291.1149825783972 344.1527446300716 L 292.85714285714283 345.04773269689736 L 294.5993031358885 342.36276849642 L 296.3414634146342 336.9928400954654 L 298.08362369337976 335.56085918854416 L 299.82578397212546 330.3699284009547 L 301.56794425087105 331.98090692124106 L 303.31010452961675 329.65393794749406 L 305.05226480836234 332.1599045346062 L 306.79442508710804 331.44391408114564 L 308.5365853658536 328.7589498806683 L 310.2787456445993 330.9069212410501 L 312.0209059233449 330.9069212410501 L 313.7630662020906 328.0429594272076 L 315.5052264808362 338.9618138424821 L 317.2473867595819 331.0859188544153 L 318.9895470383275 340.5727923627685 L 320.7317073170732 344.3317422434368 L 322.4738675958188 331.44391408114564 L 324.2160278745645 326.7899761336515 L 325.95818815331006 325 L 327.70034843205576 328.40095465393796 L 329.44250871080135 328.5799522673031 L 331.18466898954705 329.47494033412886 L 332.92682926829264 326.43198090692124 L 334.66898954703834 323.56801909307876 L 336.4111498257839 320.346062052506 L 338.1533101045296 316.94510739856804 L 339.8954703832752 312.291169451074 L 341.6376306620209 310.6801909307876 L 343.3797909407665 306.563245823389 L 345.1219512195122 300.11933174224345 L 346.86411149825784 295.4653937947494 L 348.6062717770035 288.66348448687353 L 350.34843205574913 283.6515513126492 L 352.0905923344948 277.2076372315036 L 353.8327526132404 279.1766109785203 L 355.57491289198606 278.99761336515513 L 357.3170731707317 278.99761336515513 L 359.05923344947735 280.0715990453461 L 360.801393728223 273.2696897374702 L 362.54355400696863 276.3126491646778 L 364.2857142857143 273.4486873508353 L 366.0278745644599 266.109785202864 L 367.77003484320556 266.2887828162291 L 369.5121951219512 262.88782816229116 L 371.25435540069685 267.5417661097852 L 372.9965156794425 252.326968973747 L 374.73867595818814 249.28400954653938 L 376.4808362369338 247.49403341288786 L 378.2229965156794 243.73508353221956 L 379.96515679442507 243.91408114558476 L 381.7073170731707 244.45107398568018 L 383.44947735191636 236.57517899761336 L 385.191637630662 230.48926014319812 L 386.93379790940764 231.02625298329355 L 388.6759581881533 226.73031026252983 L 390.41811846689893 224.9403341288783 L 392.1602787456446 224.40334128878283 L 393.9024390243902 225.83532219570407 L 395.6445993031359 247.49403341288786 L 397.3867595818815 226.5513126491647 L 399.1289198606272 222.79236276849645 L 400.8710801393728 222.79236276849645 L 402.6132404181185 222.79236276849645 L 404.3554006968641 223.15035799522673 L 406.0975609756097 225.65632458233893 L 407.83972125435537 223.6873508353222 L 409.581881533101 223.86634844868735 L 411.32404181184666 223.86634844868735 L 413.0662020905923 226.90930787589502 L 414.80836236933794 224.04534606205254 L 416.5505226480836 229.5942720763723 L 418.29268292682923 226.1933174224344 L 420.0348432055749 221.89737470167063 L 421.7770034843206 224.22434367541769 L 423.5191637630662 228.5202863961814 L 425.26132404181186 221.7183770883055 L 427.0034843205575 219.57040572792363 L 428.74564459930315 220.28639618138425 L 430.4878048780488 211.15751789976133 L 432.22996515679444 199.7016706443914 L 433.9721254355401 198.26968973747017 L 435.7142857142857 198.6276849642005 L 437.45644599303137 197.3747016706444 L 439.198606271777 189.4988066825776 L 440.94076655052265 186.45584725536992 L 442.6829268292683 174.82100238663486 L 444.42508710801394 173.38902147971362 L 446.1672473867596 174.46300715990452 L 447.9094076655052 167.66109785202866 L 449.65156794425087 163.54415274463008 L 451.3937282229965 164.43914081145584 L 453.13588850174216 171.24105011933176 L 454.8780487804878 173.38902147971362 L 456.62020905923345 164.61813842482104 L 458.3623693379791 162.82816229116946 L 460.10452961672473 157.27923627684964 L 461.8466898954704 151.5513126491647 L 463.588850174216 151.5513126491647 L 465.33101045296166 148.50835322195707 L 467.0731707317073 140.8114558472554 L 468.81533101045295 139.5584725536993 L 470.5574912891986 137.41050119331743 L 472.29965156794424 144.3914081145585 L 474.0418118466899 141.34844868735087 L 475.7839721254355 135.6205250596659 L 477.52613240418117 133.47255369928405 L 479.2682926829268 125.59665871121717 L 481.01045296167246 126.49164677804299 L 482.7526132404181 122.55369928400955 L 484.49477351916374 129.35560859188547 L 486.2369337979094 132.75656324582343 L 487.97909407665503 125.41766109785203 L 489.7212543554007 120.76372315035803 L 491.4634146341463 116.28878281622912 L 493.20557491289196 129.35560859188547 L 494.9477351916376 116.8257756563246 L 496.68989547038325 130.96658711217185 L 498.4320557491289 119.68973747016707 L 500.17421602787454 122.7326968973747 L 501.9163763066202 123.09069212410503 L 503.6585365853658 135.79952267303105 L 505.40069686411147 126.67064439140813 L 507.1428571428571 142.42243436754177 L 508.88501742160275 154.23627684964202 L 510.6271777003484 100 L 512.3693379790941 101.61097852028644 L 514.1114982578397 174.82100238663486 L 515.8536585365853 174.82100238663486 L 517.595818815331 174.82100238663486 L 519.3379790940767 185.02386634844868 L 521.0801393728223 185.02386634844868 L 522.822299651568 180.90692124105016 L 524.5644599303137 189.67780429594274 L 526.3066202090592 192.54176610978521 L 528.0487804878048 197.55369928400955 L 529.7909407665505 206.32458233890213 L 531.5331010452962 210.79952267303105 L 533.2752613240418 206.50357995226733 L 535.0174216027874 210.9785202863962 L 536.7595818815331 227.62529832935564 L 538.5017421602788 229.7732696897375 L 540.2439024390244 219.92840095465397 L 541.98606271777 219.92840095465397 L 543.7282229965157 225.65632458233893 L 545.4703832752614 233.53221957040574 L 547.212543554007 220.1073985680191 L 548.9547038327526 226.0143198090692 L 550.6968641114983 228.69928400954655 L 552.439024390244 223.6873508353222 L 554.1811846689895 233.1742243436754 L 555.9233449477351 224.40334128878283 L 557.6655052264808 229.05727923627688 L 559.4076655052265 222.25536992840097 L 561.1498257839721 229.41527446300717 L 562.8919860627177 229.95226730310264 L 564.6341463414634 233.3532219570406 L 566.3763066202091 226.73031026252983 L 568.1184668989547 218.1384248210024 L 569.8606271777003 218.67541766109787 L 571.602787456446 224.9403341288783 L 573.3449477351917 217.42243436754177 L 575.0871080139373 221.3603818615752 L 576.8292682926829 231.92124105011936 L 578.5714285714286 236.21718377088308 L 580.3135888501743 239.2601431980907 L 582.0557491289198 247.13603818615752 L 583.7979094076654 251.43198090692124 L 585.5400696864111 247.49403341288786 L 587.2822299651568 256.0859188544153 L 589.0243902439024 251.43198090692124 L 590.766550522648 248.21002386634848 L 592.5087108013937 243.37708830548928 L 594.2508710801394 250.53699284009548 L 595.993031358885 251.61097852028638 L 597.7351916376306 254.11694510739858 L 599.4773519163763 256.8019093078759 L 601.219512195122 272.3747016706444 L 602.9616724738676 242.66109785202866 L 604.7038327526132 261.09785202863964 L 606.4459930313589 251.43198090692124 L 608.1881533101046 263.6038186157518 L 609.9303135888501 262.708830548926 L 611.6724738675957 265.75178997613364 L 613.4146341463414 267.00477326968974 L 615.1567944250871 272.9116945107399 L 616.8989547038327 271.83770883054893 L 618.6411149825783 276.13365155131265 L 620.383275261324 272.3747016706444 L 622.1254355400697 275.9546539379475 L 623.8675958188153 277.5656324582339 L 625.609756097561 277.92362768496423 L 627.3519163763067 280.4295942720764 L 629.0940766550523 289.200477326969 L 630.8362369337979 297.79236276849645 L 632.5783972125436 299.9403341288783 L 634.3205574912893 305.1312649164678 L 636.0627177700349 311.57517899761336 L 637.8048780487804 314.9761336515513 L 639.5470383275261 322.4940334128878 L 641.2891986062718 323.56801909307876 L 643.0313588850174 326.7899761336515 L 644.773519163763 332.33890214797134 L 646.5156794425087 337.35083532219573 L 648.2578397212544 336.63484486873506 L 650 337.35083532219573 L 650 400 Z" /><text  class="poloto_labels poloto_text poloto_title" alignment-baseline="start" text-anchor="middle" font-size="x-large" x="400" y="37.5" >Total players on 2021-07-05</text><text  class="poloto_labels poloto_text poloto_xname" alignment-baseline="start" text-anchor="middle" font-size="x-large" x="400" y="481.25" >Time</text><text  class="poloto_labels poloto_text poloto_yname" alignment-baseline="start" text-anchor="middle" font-size="x-large" transform="rotate(-90,37.5,250)" x="37.5" y="250" >Count</text><line  class="poloto_axis_lines" stroke="black" x1="208.0487804878049" x2="208.0487804878049" y1="400" y2="405" /><text  class="poloto_tick_labels poloto_text" alignment-baseline="start" text-anchor="middle" x="208.0487804878049" y="430" > 02:46:40</text><line  class="poloto_axis_lines" stroke="black" x1="266.1207897793264" x2="266.1207897793264" y1="400" y2="405" /><text  class="poloto_tick_labels poloto_text" alignment-baseline="start" text-anchor="middle" x="266.1207897793264" y="430" > 05:33:20</text><line  class="poloto_axis_lines" stroke="black" x1="324.19279907084785" x2="324.19279907084785" y1="400" y2="405" /><text  class="poloto_tick_labels poloto_text" alignment-baseline="start" text-anchor="middle" x="324.19279907084785" y="430" > 08:20:00</text><line  class="poloto_axis_lines" stroke="black" x1="382.2648083623693" x2="382.2648083623693" y1="400" y2="405" /><text  class="poloto_tick_labels poloto_text" alignment-baseline="start" text-anchor="middle" x="382.2648083623693" y="430" > 11:06:40</text><line  class="poloto_axis_lines" stroke="black" x1="440.3368176538908" x2="440.3368176538908" y1="400" y2="405" /><text  class="poloto_tick_labels poloto_text" alignment-baseline="start" text-anchor="middle" x="440.3368176538908" y="430" > 13:53:20</text><line  class="poloto_axis_lines" stroke="black" x1="498.4088269454123" x2="498.4088269454123" y1="400" y2="405" /><text  class="poloto_tick_labels poloto_text" alignment-baseline="start" text-anchor="middle" x="498.4088269454123" y="430" > 16:40:00</text><line  class="poloto_axis_lines" stroke="black" x1="556.4808362369338" x2="556.4808362369338" y1="400" y2="405" /><text  class="poloto_tick_labels poloto_text" alignment-baseline="start" text-anchor="middle" x="556.4808362369338" y="430" > 19:26:40</text><line  class="poloto_axis_lines" stroke="black" x1="614.5528455284552" x2="614.5528455284552" y1="400" y2="405" /><text  class="poloto_tick_labels poloto_text" alignment-baseline="start" text-anchor="middle" x="614.5528455284552" y="430" > 22:13:20</text><line  class="poloto_axis_lines" stroke="black" x1="150" x2="144" y1="394.98806682577566" y2="394.98806682577566" /><text  class="poloto_tick_labels poloto_text" alignment-baseline="middle" text-anchor="end" x="135" y="394.98806682577566" > 1000</text><line  class="poloto_axis_lines" stroke="black" x1="150" x2="144" y1="305.4892601431981" y2="305.4892601431981" /><text  class="poloto_tick_labels poloto_text" alignment-baseline="middle" text-anchor="end" x="135" y="305.4892601431981" > 1500</text><line  class="poloto_axis_lines" stroke="black" x1="150" x2="144" y1="215.99045346062053" y2="215.99045346062053" /><text  class="poloto_tick_labels poloto_text" alignment-baseline="middle" text-anchor="end" x="135" y="215.99045346062053" > 2000</text><line  class="poloto_axis_lines" stroke="black" x1="150" x2="144" y1="126.49164677804299" y2="126.49164677804299" /><text  class="poloto_tick_labels poloto_text" alignment-baseline="middle" text-anchor="end" x="135" y="126.49164677804299" > 2500</text><path  stroke="black" fill="none" class="poloto_axis_lines" style="stroke-dasharray:14.518002322880372;stroke-dashoffset:-58.04878048780488;" d=" M 150 400 L 650 400" /><path  stroke="black" fill="none" class="poloto_axis_lines" style="stroke-dasharray:8.949880668257757;stroke-dashoffset:-5.011933174224339;" d=" M 150 400 L 150 100" /></svg>