<svg class="poloto" width="800" height="500" viewBox="0 0 800 500" xmlns="http://www.w3.org/2000/svg"><style>.poloto { stroke-linecap:round; stroke-linejoin:round; font-family: 'Tahoma', sans-serif; background-color: AliceBlue;} .poloto_scatter{stroke-width:7} .poloto_line{stroke-width:2} .poloto_text{fill: black;} .poloto_axis_lines{stroke: black;stroke-width:3;fill:none;stroke-dasharray:none} .poloto0stroke{stroke:  blue;} .poloto1stroke{stroke:  red;} .poloto2stroke{stroke:  green;} .poloto3stroke{stroke:  gold;} .poloto4stroke{stroke:  aqua;} .poloto5stroke{stroke:  lime;} .poloto6stroke{stroke:  orange;} .poloto7stroke{stroke:  chocolate;} .poloto0fill{fill:blue;} .poloto1fill{fill:red;} .poloto2fill{fill:green;} .poloto3fill{fill:gold;} .poloto4fill{fill:aqua;} .poloto5fill{fill:lime;} .poloto6fill{fill:orange;} .poloto7fill{fill:chocolate;}</style><text  class="poloto_text poloto_legend_text" alignment-baseline="middle" text-anchor="start" font-size="large" x="675" y="100" ></text><path  class="poloto_linefill poloto0fill" d=" M 150 400 L 150 376.9901220220802 L 151.74216027874564 382.91690877396866 L 153.4843205574913 385.3573503776874 L 155.22648083623693 387.2748402091807 L 156.96864111498257 390.76118535735037 L 158.71080139372822 392.6786751888437 L 160.45296167247386 391.10981987216735 L 162.1951219512195 391.10981987216735 L 163.93728222996515 389.19233004067405 L 165.6794425087108 391.2841371295758 L 167.42160278745644 391.4584543869843 L 169.16376306620208 397.5595583962812 L 170.90592334494772 399.30273097036604 L 172.64808362369337 394.42184776292856 L 174.390243902439 393.2016269610691 L 176.13240418118465 400 L 177.8745644599303 397.03660662405576 L 179.61672473867597 391.8070889018013 L 181.3588850174216 389.71528181289943 L 183.10104529616726 389.88959907030795 L 184.8432055749129 391.8070889018013 L 186.58536585365854 387.9721092388146 L 188.3275261324042 386.4032539221383 L 190.06968641114983 391.4584543869843 L 191.81184668989548 393.3759442184776 L 193.55400696864112 390.9355026147589 L 195.29616724738676 389.540964555491 L 197.0383275261324 388.4950610110401 L 198.78048780487805 384.83439860546196 L 200.5226480836237 380.9994189424753 L 202.26480836236934 378.9076118535735 L 204.00696864111498 374.89831493317837 L 205.74912891986062 374.5496804183614 L 207.49128919860627 372.45787332945963 L 209.2334494773519 371.0633352701917 L 210.97560975609755 370.01743172574083 L 212.7177700348432 360.7786170830912 L 214.45993031358887 361.1272515979082 L 216.2020905923345 361.1272515979082 L 217.94425087108016 357.11795467751307 L 219.6864111498258 355.54909936083675 L 221.42857142857144 351.71411969785004 L 223.1707317073171 350.4938988959907 L 224.91289198606273 346.4846019755956 L 226.65505226480838 338.4660081348053 L 228.39721254355402 333.7594421847763 L 230.13937282229966 331.144683323649 L 231.8815331010453 325.3922138291691 L 233.62369337979095 313.71295758280064 L 235.3658536585366 315.10749564206856 L 237.10801393728224 313.8872748402092 L 238.85017421602788 317.3736199883789 L 240.59233449477352 321.7315514235909 L 242.33449477351917 320.68564787914 L 244.0766550522648 313.19000581057526 L 245.81881533101046 314.4102266124346 L 247.5609756097561 311.0981987216734 L 249.30313588850174 303.60255665310865 L 251.0452961672474 299.9418942475305 L 252.78745644599303 298.1987216734457 L 254.52961672473867 296.6298663567693 L 256.2717770034843 293.1435212085996 L 258.01393728222996 295.5839628123184 L 259.7560975609756 295.93259732713534 L 261.49825783972125 292.62056943637424 L 263.2404181184669 300.81348053457293 L 264.98257839721254 300.9877977919814 L 266.7247386759582 298.0244044160372 L 268.4668989547038 290.3544450900639 L 270.20905923344947 293.8407902382336 L 271.9512195121951 294.53805926786754 L 273.69337979094075 293.3178384660081 L 275.4355400696864 301.16211504938985 L 277.17770034843204 299.0703079604881 L 278.91986062717774 297.85008715862864 L 280.6620209059233 295.2353282975015 L 282.404181184669 295.7582800697269 L 284.1463414634146 292.09761766414874 L 285.8885017421603 293.3178384660081 L 287.6306620209059 289.13422428820456 L 289.3728222996516 280.59267867518884 L 291.1149825783972 279.7210923881464 L 292.8571428571429 285.6478791400349 L 294.5993031358885 271.7024985473562 L 296.3414634146342 271.7024985473562 L 298.08362369337976 276.75769901220224 L 299.82578397212546 270.48227774549684 L 301.56794425087105 271.35386403253926 L 303.31010452961675 270.6565950029053 L 305.05226480836234 269.2620569436374 L 306.79442508710804 266.64729808251013 L 308.5365853658536 257.7571179546775 L 310.2787456445993 249.91284137129574 L 312.0209059233449 246.2521789657176 L 313.7630662020906 245.90354445090063 L 315.5052264808362 245.0319581638582 L 317.2473867595819 248.1696687972109 L 318.9895470383275 242.9401510749564 L 320.7317073170732 242.9401510749564 L 322.4738675958188 239.27948866937825 L 324.2160278745645 230.3893085415456 L 325.9581881533101 229.69203951191164 L 327.70034843205576 227.2515979081929 L 329.4425087108014 225.68274259151653 L 331.18466898954705 216.9668797210924 L 332.9268292682927 217.14119697850086 L 334.66898954703834 222.0220801859384 L 336.411149825784 222.8936664729808 L 338.1533101045296 225.3341080766996 L 339.89547038327527 228.64613596746076 L 341.6376306620209 218.53573503776872 L 343.37979094076655 217.14119697850086 L 345.1219512195122 214.70075537478212 L 346.86411149825784 217.14119697850086 L 348.6062717770035 219.05868680999416 L 350.34843205574913 218.8843695525857 L 352.0905923344948 218.36141778036026 L 353.8327526132404 222.0220801859384 L 355.57491289198606 217.83846600813482 L 357.3170731707317 208.07669959325975 L 359.05923344947735 208.2510168506682 L 360.801393728223 207.90238233585123 L 362.54355400696863 210.1685066821615 L 364.2857142857143 226.0313771063335 L 366.0278745644599 219.23300406740267 L 367.77003484320556 214.17780360255662 L 369.5121951219512 211.04009296920393 L 371.25435540069685 201.62696106914584 L 372.9965156794425 206.3335270191749 L 374.73867595818814 216.09529343404998 L 376.4808362369338 213.13190005810574 L 378.2229965156795 209.99418942475305 L 379.96515679442507 214.87507263219058 L 381.70731707317077 211.91167925624634 L 383.44947735191636 216.79256246368388 L 385.19163763066206 226.55432887855895 L 386.93379790940764 217.83846600813482 L 388.67595818815334 217.31551423590932 L 390.41811846689893 223.9395700174317 L 392.16027874564463 221.84776292852993 L 393.9024390243902 221.3248111563045 L 395.6445993031359 234.7472399767577 L 397.3867595818815 232.3067983730389 L 399.1289198606272 229.86635676932016 L 400.8710801393728 232.3067983730389 L 402.6132404181185 230.3893085415456 L 404.3554006968641 232.8297501452644 L 406.0975609756098 234.57292271934918 L 407.8397212543554 247.29808251016848 L 409.58188153310107 238.23358512492737 L 411.3240418118467 237.36199883788495 L 413.06620209059236 227.42591516560137 L 414.808362369338 232.65543288785588 L 416.55052264808364 238.58221963974435 L 418.2926829268293 240.15107495642067 L 420.03484320557493 238.93085415456127 L 421.7770034843206 226.90296339337593 L 423.5191637630662 237.36199883788495 L 425.26132404181186 224.1138872748402 L 427.0034843205575 222.37071470075537 L 428.74564459930315 221.84776292852993 L 430.4878048780488 223.9395700174317 L 432.22996515679444 223.06798373038927 L 433.9721254355401 233.00406740267286 L 435.7142857142857 218.53573503776872 L 437.45644599303137 214.35212085996514 L 439.198606271777 201.97559558396281 L 440.94076655052265 190.2963393375944 L 442.6829268292683 186.28704241719927 L 444.42508710801394 184.71818710052295 L 446.1672473867596 182.45206275421268 L 447.9094076655052 175.13073794305635 L 449.65156794425087 159.9651365485183 L 451.3937282229965 159.44218477629286 L 453.13588850174216 156.30447414294017 L 454.8780487804878 159.9651365485183 L 456.62020905923345 154.3869843114468 L 458.3623693379791 149.3317838466008 L 460.10452961672473 132.07437536316093 L 461.8466898954704 130.3312027890761 L 463.588850174216 122.31260894828586 L 465.33101045296166 127.01917489831487 L 467.0731707317073 124.0557815223707 L 468.81533101045295 119.52353282975014 L 470.5574912891986 128.23939570017433 L 472.29965156794424 120.56943637420102 L 474.0418118466899 126.67054038349795 L 475.7839721254355 118.3033120278908 L 477.52613240418117 121.78965717606047 L 479.2682926829268 126.14758861127245 L 481.01045296167246 117.60604299825684 L 482.7526132404181 120.2208018593841 L 484.49477351916374 111.85357350377683 L 486.2369337979094 111.15630447414287 L 487.97909407665503 119.34921557234168 L 489.7212543554007 105.7524694944799 L 491.4634146341463 109.58744915746661 L 493.20557491289196 100 L 494.9477351916376 112.72515979081925 L 496.68989547038325 102.78907611853572 L 498.4320557491289 112.55084253341079 L 500.17421602787454 109.76176641487507 L 501.91637630662024 119.87216734456706 L 503.6585365853659 111.5049389889599 L 505.4006968641115 126.84485764090641 L 507.14285714285717 129.63393375944213 L 508.8850174216028 138.87274840209182 L 510.62717770034845 141.48750726321907 L 512.3693379790941 153.5153980244044 L 514.1114982578397 140.09296920395116 L 515.8536585365854 144.79953515398026 L 517.5958188153311 157.17606042998253 L 519.3379790940767 172.1673445671121 L 521.0801393728223 166.93782684485765 L 522.822299651568 177.22254503195816 L 524.5644599303137 173.91051714119695 L 526.3066202090592 188.20453224869263 L 528.0487804878048 198.6635676932016 L 529.7909407665505 208.94828588030217 L 531.5331010452962 203.71876815804765 L 533.2752613240418 209.64555490993607 L 535.0174216027874 213.65485183033118 L 536.7595818815331 217.31551423590932 L 538.5017421602788 211.91167925624634 L 540.2439024390244 213.13190005810574 L 541.98606271777 223.2423009877978 L 543.7282229965157 224.63683904706565 L 545.4703832752614 222.71934921557235 L 547.212543554007 235.9674607786171 L 548.9547038327526 239.62812318419523 L 550.6968641114983 240.15107495642067 L 552.439024390244 243.1144683323649 L 554.1811846689895 241.37129575828007 L 555.9233449477351 238.40790238233583 L 557.6655052264808 246.2521789657176 L 559.4076655052265 253.92213829169086 L 561.1498257839721 253.57350377687388 L 562.8919860627177 252.35328297501454 L 564.6341463414634 259.84892504357936 L 566.3763066202091 261.4177803602556 L 568.1184668989547 261.9407321324811 L 569.8606271777003 263.8582219639744 L 571.602787456446 270.1336432306798 L 573.3449477351917 266.99593259732717 L 575.0871080139373 272.5740848343986 L 576.8292682926829 280.06972690296334 L 578.5714285714286 281.46426496223125 L 580.3135888501743 283.2074375363161 L 582.0557491289198 279.02382335851246 L 583.7979094076654 275.18884369552586 L 585.5400696864111 269.08773968622893 L 587.2822299651568 271.5281812899477 L 589.0243902439024 282.85880302149917 L 590.766550522648 280.2440441603719 L 592.5087108013937 283.2074375363161 L 594.2508710801394 288.26263800116214 L 595.993031358885 288.959907030796 L 597.7351916376306 288.4369552585706 L 599.4773519163763 295.0610110400929 L 601.219512195122 302.0337013364323 L 602.9616724738676 290.52876234747237 L 604.7038327526133 294.712376525276 L 606.445993031359 298.1987216734457 L 608.1881533101046 306.91458454386986 L 609.9303135888501 300.81348053457293 L 611.6724738675958 315.281812899477 L 613.4146341463415 321.5572341661824 L 615.1567944250871 322.6031377106333 L 616.8989547038327 317.02498547356186 L 618.6411149825784 326.08948285880297 L 620.3832752613241 330.09877977919814 L 622.1254355400697 338.9889599070308 L 623.8675958188153 340.3834979662987 L 625.609756097561 346.83323649041256 L 627.3519163763067 352.760023242301 L 629.0940766550523 357.6409064497385 L 630.8362369337979 366.7054038349796 L 632.5783972125436 378.9076118535735 L 634.3205574912893 375.4212667054038 L 636.0627177700349 379.08192911098195 L 637.8048780487804 380.47646717024986 L 639.5470383275261 386.75188843695526 L 641.2891986062718 387.9721092388146 L 643.0313588850174 385.3573503776874 L 644.773519163763 382.39395700174316 L 646.5156794425087 394.94479953515395 L 648.2578397212544 392.15572341661823 L 650 394.7704822777455 L 650 400 Z" /><text  class="poloto_labels poloto_text poloto_title" alignment-baseline="start" text-anchor="middle" font-size="x-large" x="400" y="37.5" >Total players on 2021-09-21</text><text  class="poloto_labels poloto_text poloto_xname" alignment-baseline="start" text-anchor="middle" font-size="x-large" x="400" y="481.25" >Time</text><text  class="poloto_labels poloto_text poloto_yname" alignment-baseline="start" text-anchor="middle" font-size="x-large" transform="rotate(-90,37.5,250)" x="37.5" y="250" >Count</text><line  class="poloto_axis_lines" stroke="black" x1="150" x2="150" y1="400" y2="405" /><text  class="poloto_tick_labels poloto_text" alignment-baseline="start" text-anchor="middle" x="150" y="430" > 00:00:00</text><line  class="poloto_axis_lines" stroke="black" x1="266.14401858304296" x2="266.14401858304296" y1="400" y2="405" /><text  class="poloto_tick_labels poloto_text" alignment-baseline="start" text-anchor="middle" x="266.14401858304296" y="430" > 05:33:20</text><line  class="poloto_axis_lines" stroke="black" x1="382.2880371660859" x2="382.2880371660859" y1="400" y2="405" /><text  class="poloto_tick_labels poloto_text" alignment-baseline="start" text-anchor="middle" x="382.2880371660859" y="430" > 11:06:40</text><line  class="poloto_axis_lines" stroke="black" x1="498.4320557491289" x2="498.4320557491289" y1="400" y2="405" /><text  class="poloto_tick_labels poloto_text" alignment-baseline="start" text-anchor="middle" x="498.4320557491289" y="430" > 16:40:00</text><line  class="poloto_axis_lines" stroke="black" x1="614.5760743321719" x2="614.5760743321719" y1="400" y2="405" /><text  class="poloto_tick_labels poloto_text" alignment-baseline="start" text-anchor="middle" x="614.5760743321719" y="430" > 22:13:20</text><line  class="poloto_axis_lines" stroke="black" x1="150" x2="144" y1="337.4201045903544" y2="337.4201045903544" /><text  class="poloto_tick_labels poloto_text" alignment-baseline="middle" text-anchor="end" x="135" y="337.4201045903544" > 1500</text><line  class="poloto_axis_lines" stroke="black" x1="150" x2="144" y1="250.26147588611275" y2="250.26147588611275" /><text  class="poloto_tick_labels poloto_text" alignment-baseline="middle" text-anchor="end" x="135" y="250.26147588611275" > 2000</text><line  class="poloto_axis_lines" stroke="black" x1="150" x2="144" y1="163.10284718187097" y2="163.10284718187097" /><text  class="poloto_tick_labels poloto_text" alignment-baseline="middle" text-anchor="end" x="135" y="163.10284718187097" > 2500</text><path  stroke="black" fill="none" class="poloto_axis_lines" style="stroke-dasharray:14.518002322880372;stroke-dashoffset:-0;" d=" M 150 400 L 650 400" /><path  stroke="black" fill="none" class="poloto_axis_lines" style="stroke-dasharray:8.715862870424171;stroke-dashoffset:-62.57989540964556;" d=" M 150 400 L 150 100" /></svg>