<svg class="poloto" width="800" height="500" viewBox="0 0 800 500" xmlns="http://www.w3.org/2000/svg"><style>.poloto { stroke-linecap:round; stroke-linejoin:round; font-family: 'Tahoma', sans-serif; background-color: AliceBlue;} .poloto_scatter{stroke-width:7} .poloto_line{stroke-width:2} .poloto_text{fill: black;} .poloto_axis_lines{stroke: black;stroke-width:3;fill:none;stroke-dasharray:none} .poloto0stroke{stroke:  blue;} .poloto1stroke{stroke:  red;} .poloto2stroke{stroke:  green;} .poloto3stroke{stroke:  gold;} .poloto4stroke{stroke:  aqua;} .poloto5stroke{stroke:  lime;} .poloto6stroke{stroke:  orange;} .poloto7stroke{stroke:  chocolate;} .poloto0fill{fill:blue;} .poloto1fill{fill:red;} .poloto2fill{fill:green;} .poloto3fill{fill:gold;} .poloto4fill{fill:aqua;} .poloto5fill{fill:lime;} .poloto6fill{fill:orange;} .poloto7fill{fill:chocolate;}</style><text  class="poloto_text poloto_legend_text" alignment-baseline="middle" text-anchor="start" font-size="large" x="675" y="100" ></text><path  class="poloto_linefill poloto0fill" d=" M 150 400 L 150 306.6420664206642 L 151.74216027874564 308.30258302583024 L 153.4843205574913 304.4280442804428 L 155.22648083623693 320.2952029520295 L 156.96864111498257 309.96309963099634 L 158.71080139372822 316.2361623616236 L 160.45296167247386 324.5387453874539 L 162.1951219512195 327.859778597786 L 163.93728222996515 333.02583025830256 L 165.6794425087108 338.5608856088561 L 167.42160278745644 338.7453874538745 L 169.16376306620208 346.309963099631 L 170.90592334494772 344.8339483394834 L 172.64808362369337 347.4169741697417 L 174.390243902439 355.35055350553506 L 176.13240418118465 348.89298892988927 L 177.8745644599303 352.5830258302583 L 179.61672473867597 355.90405904059037 L 181.3588850174216 354.4280442804428 L 183.10104529616726 360.3321033210332 L 184.8432055749129 356.45756457564573 L 186.58536585365854 355.53505535055353 L 188.3275261324042 352.5830258302583 L 190.06968641114983 345.7564575645756 L 191.81184668989548 343.3579335793358 L 193.55400696864112 346.49446494464945 L 195.29616724738676 366.2361623616236 L 197.0383275261324 388.7453874538745 L 198.78048780487805 389.11439114391146 L 200.5226480836237 371.40221402214024 L 202.26480836236934 364.94464944649445 L 204.00696864111498 369.74169741697415 L 205.74912891986062 364.760147601476 L 207.49128919860627 369.00369003690037 L 209.2334494773519 364.39114391143914 L 210.97560975609755 363.46863468634683 L 212.7177700348432 378.0442804428044 L 214.45993031358887 365.31365313653134 L 216.2020905923345 374.5387453874539 L 217.94425087108016 361.2546125461255 L 219.6864111498258 360.14760147601476 L 221.42857142857144 373.24723247232475 L 223.1707317073171 400 L 224.91289198606273 351.66051660516604 L 226.65505226480838 348.89298892988927 L 228.39721254355402 345.7564575645756 L 230.13937282229966 348.3394833948339 L 231.8815331010453 346.49446494464945 L 233.62369337979095 348.5239852398524 L 235.3658536585366 352.2140221402214 L 237.10801393728224 351.10701107011073 L 238.85017421602788 349.07749077490774 L 240.59233449477352 341.1439114391144 L 242.33449477351917 340.4059040590406 L 244.0766550522648 356.8265682656827 L 245.81881533101046 359.77859778597787 L 247.5609756097561 361.070110701107 L 249.30313588850174 361.4391143911439 L 251.0452961672474 356.45756457564573 L 252.78745644599303 359.409594095941 L 254.52961672473867 356.6420664206642 L 256.2717770034843 355.71955719557195 L 258.01393728222996 357.1955719557195 L 259.7560975609756 351.8450184501845 L 261.49825783972125 353.87453874538744 L 263.2404181184669 358.6715867158672 L 264.98257839721254 359.409594095941 L 266.7247386759582 360.7011070110701 L 268.4668989547038 355.53505535055353 L 270.20905923344947 356.6420664206642 L 271.9512195121951 350.55350553505536 L 273.69337979094075 350.7380073800738 L 275.4355400696864 346.49446494464945 L 277.17770034843204 346.49446494464945 L 278.9198606271777 352.3985239852399 L 280.6620209059233 350.1845018450184 L 282.40418118466897 345.9409594095941 L 284.1463414634146 341.5129151291513 L 285.88850174216026 344.0959409594096 L 287.6306620209059 338.00738007380073 L 289.37282229965155 342.8044280442804 L 291.1149825783972 337.0848708487085 L 292.85714285714283 331.18081180811805 L 294.5993031358885 325.6457564575646 L 296.3414634146342 322.32472324723244 L 298.08362369337976 322.8782287822878 L 299.82578397212546 324.3542435424354 L 301.56794425087105 331.18081180811805 L 303.31010452961675 329.520295202952 L 305.05226480836234 333.5793357933579 L 306.79442508710804 330.25830258302585 L 308.5365853658536 332.4723247232472 L 310.2787456445993 336.1623616236162 L 312.0209059233449 339.11439114391146 L 313.7630662020906 343.7269372693727 L 315.5052264808362 348.70848708487085 L 317.2473867595819 347.23247232472323 L 318.9895470383275 344.46494464944647 L 320.7317073170732 338.3763837638376 L 322.4738675958188 346.309963099631 L 324.2160278745645 344.8339483394834 L 325.95818815331006 341.69741697416976 L 327.70034843205576 342.06642066420665 L 329.44250871080135 338.00738007380073 L 331.18466898954705 324.7232472324723 L 332.92682926829264 318.2656826568266 L 334.66898954703834 321.0332103321033 L 336.4111498257839 314.2066420664206 L 338.1533101045296 320.47970479704793 L 339.8954703832752 323.43173431734317 L 341.6376306620209 317.15867158671585 L 343.3797909407665 315.1291512915129 L 345.1219512195122 316.2361623616236 L 346.86411149825784 317.3431734317343 L 348.6062717770035 316.2361623616236 L 350.34843205574913 314.760147601476 L 352.0905923344948 314.0221402214022 L 353.8327526132404 306.08856088560884 L 355.57491289198606 300.7380073800738 L 357.3170731707317 296.309963099631 L 359.05923344947735 292.61992619926195 L 360.801393728223 293.7269372693727 L 362.54355400696863 290.77490774907744 L 364.2857142857143 286.1623616236162 L 366.0278745644599 295.3874538745388 L 367.77003484320556 288.00738007380073 L 369.5121951219512 281.7343173431734 L 371.25435540069685 281.549815498155 L 372.9965156794425 283.210332103321 L 374.73867595818814 277.859778597786 L 376.4808362369338 285.42435424354244 L 378.2229965156794 286.34686346863464 L 379.96515679442507 290.590405904059 L 381.7073170731707 286.34686346863464 L 383.44947735191636 281.36531365313647 L 385.191637630662 276.93726937269366 L 386.93379790940764 291.1439114391144 L 388.6759581881533 287.45387453874537 L 390.41811846689893 273.0627306273062 L 392.1602787456446 276.3837638376384 L 393.9024390243902 270.8487084870849 L 395.6445993031359 272.50922509225086 L 397.3867595818815 282.6568265682657 L 399.1289198606272 276.75276752767525 L 400.8710801393728 254.42804428044278 L 402.6132404181185 251.1070110701107 L 404.3554006968641 245.20295202952028 L 406.0975609756097 243.7269372693727 L 407.83972125435537 242.80442804428046 L 409.581881533101 237.6383763837638 L 411.32404181184666 249.44649446494466 L 413.0662020905923 237.8228782287823 L 414.80836236933794 242.2509225092251 L 416.5505226480836 244.6494464944649 L 418.29268292682923 254.24354243542436 L 420.0348432055749 241.14391143911436 L 421.7770034843206 239.6678966789668 L 423.5191637630662 241.5129151291513 L 425.26132404181186 236.90036900369003 L 427.0034843205575 245.20295202952028 L 428.74564459930315 228.2287822878229 L 430.4878048780488 232.10332103321034 L 432.22996515679444 219.5571955719557 L 433.9721254355401 215.31365313653137 L 435.7142857142857 208.4870848708487 L 437.45644599303137 210.51660516605168 L 439.198606271777 204.61254612546125 L 440.94076655052265 212.73062730627308 L 442.6829268292683 202.21402214022137 L 444.42508710801394 204.42804428044278 L 446.1672473867596 190.77490774907747 L 447.9094076655052 186.16236162361625 L 449.65156794425087 190.2214022140221 L 451.3937282229965 185.7933579335793 L 453.13588850174216 186.34686346863467 L 454.8780487804878 187.26937269372692 L 456.62020905923345 177.12177121771217 L 458.3623693379791 178.4132841328413 L 460.10452961672473 169.74169741697418 L 461.8466898954704 163.2841328413284 L 463.588850174216 152.39852398523985 L 465.33101045296166 156.64206642066418 L 467.0731707317073 146.8634686346863 L 468.81533101045295 147.97047970479704 L 470.5574912891986 141.1439114391144 L 472.29965156794424 138.5608856088561 L 474.0418118466899 157.01107011070113 L 475.7839721254355 128.9667896678967 L 477.52613240418117 144.4649446494465 L 479.2682926829268 139.66789667896683 L 481.01045296167246 120.47970479704793 L 482.7526132404181 116.23616236162366 L 484.49477351916374 127.67527675276756 L 486.2369337979094 119.00369003690037 L 487.97909407665503 121.77121771217708 L 489.7212543554007 114.94464944649451 L 491.4634146341463 118.81918819188195 L 493.20557491289196 113.46863468634683 L 494.9477351916376 109.59409594095939 L 496.68989547038325 109.22509225092256 L 498.4320557491289 113.28413284132841 L 500.17421602787454 108.11808118081183 L 501.9163763066202 107.0110701107011 L 503.6585365853658 100 L 505.40069686411147 104.05904059040586 L 507.1428571428571 109.96309963099634 L 508.88501742160275 121.40221402214024 L 510.6271777003484 128.22878228782292 L 512.3693379790941 132.65682656826573 L 514.1114982578397 142.9889298892989 L 515.8536585365853 139.29889298892988 L 517.595818815331 155.9040590405904 L 519.3379790940767 133.76383763837634 L 521.0801393728223 120.47970479704793 L 522.822299651568 124.16974169741695 L 524.5644599303137 134.87084870848707 L 526.3066202090592 138.00738007380073 L 528.0487804878048 154.24354243542436 L 529.7909407665505 161.62361623616235 L 531.5331010452962 161.80811808118082 L 533.2752613240418 175.46125461254613 L 535.0174216027874 165.1291512915129 L 536.7595818815331 169.00369003690034 L 538.5017421602788 181.3653136531365 L 540.2439024390244 181.3653136531365 L 541.98606271777 188.56088560885607 L 543.7282229965157 190.0369003690037 L 545.4703832752614 185.4243542435424 L 547.212543554007 231.91881918819186 L 548.9547038327526 167.15867158671588 L 550.6968641114983 175.27675276752765 L 552.439024390244 188.0073800738007 L 554.1811846689895 238.37638376383765 L 555.9233449477351 179.1512915129151 L 557.6655052264808 167.3431734317343 L 559.4076655052265 165.86715867158674 L 561.1498257839721 163.2841328413284 L 562.8919860627177 178.04428044280442 L 564.6341463414634 169.1881918819188 L 566.3763066202091 184.31734317343174 L 568.1184668989547 203.3210332103321 L 569.8606271777003 197.97047970479704 L 571.602787456446 218.08118081180814 L 573.3449477351917 229.1512915129151 L 575.0871080139373 225.46125461254613 L 576.8292682926829 231.54981549815497 L 578.5714285714286 225.83025830258302 L 580.3135888501743 234.13284132841326 L 582.0557491289198 230.07380073800735 L 583.7979094076654 219.5571955719557 L 585.5400696864111 209.22509225092253 L 587.2822299651568 209.9630996309963 L 589.0243902439024 222.140221402214 L 590.766550522648 205.71955719557192 L 592.5087108013937 214.02214022140222 L 594.2508710801394 179.33579335793357 L 595.993031358885 200.18450184501845 L 597.7351916376306 179.70479704797046 L 599.4773519163763 183.39483394833948 L 601.219512195122 181.91881918819186 L 602.9616724738676 190.2214022140221 L 604.7038327526132 193.54243542435424 L 606.4459930313589 185.97785977859778 L 608.1881533101046 188.37638376383765 L 609.9303135888501 197.41697416974168 L 611.6724738675957 202.02952029520296 L 613.4146341463414 211.99261992619924 L 615.1567944250871 226.75276752767527 L 616.8989547038327 226.75276752767527 L 618.6411149825783 219.1881918819188 L 620.383275261324 222.87822878228783 L 622.1254355400697 230.25830258302582 L 623.8675958188153 265.49815498154976 L 625.609756097561 272.6937269372694 L 627.3519163763067 260.3321033210332 L 629.0940766550523 264.9446494464945 L 630.8362369337979 262.91512915129147 L 632.5783972125436 270.8487084870849 L 634.3205574912893 271.9557195571956 L 636.0627177700349 281.18081180811805 L 637.8048780487804 283.02583025830256 L 639.5470383275261 283.3948339483395 L 641.2891986062718 282.10332103321036 L 643.0313588850174 307.7490774907749 L 644.773519163763 290.590405904059 L 646.5156794425087 302.7675276752767 L 648.2578397212544 302.2140221402214 L 650 313.09963099631 L 650 400 Z" /><text  class="poloto_labels poloto_text poloto_title" alignment-baseline="start" text-anchor="middle" font-size="x-large" x="400" y="37.5" >Total players on 2021-05-19</text><text  class="poloto_labels poloto_text poloto_xname" alignment-baseline="start" text-anchor="middle" font-size="x-large" x="400" y="481.25" >Time</text><text  class="poloto_labels poloto_text poloto_yname" alignment-baseline="start" text-anchor="middle" font-size="x-large" transform="rotate(-90,37.5,250)" x="37.5" y="250" >Count</text><line  class="poloto_axis_lines" stroke="black" x1="208.0487804878049" x2="208.0487804878049" y1="400" y2="405" /><text  class="poloto_tick_labels poloto_text" alignment-baseline="start" text-anchor="middle" x="208.0487804878049" y="430" > 03:00</text><line  class="poloto_axis_lines" stroke="black" x1="266.1207897793264" x2="266.1207897793264" y1="400" y2="405" /><text  class="poloto_tick_labels poloto_text" alignment-baseline="start" text-anchor="middle" x="266.1207897793264" y="430" > 06:00</text><line  class="poloto_axis_lines" stroke="black" x1="324.19279907084785" x2="324.19279907084785" y1="400" y2="405" /><text  class="poloto_tick_labels poloto_text" alignment-baseline="start" text-anchor="middle" x="324.19279907084785" y="430" > 08:00</text><line  class="poloto_axis_lines" stroke="black" x1="382.2648083623693" x2="382.2648083623693" y1="400" y2="405" /><text  class="poloto_tick_labels poloto_text" alignment-baseline="start" text-anchor="middle" x="382.2648083623693" y="430" > 11:00</text><line  class="poloto_axis_lines" stroke="black" x1="440.3368176538908" x2="440.3368176538908" y1="400" y2="405" /><text  class="poloto_tick_labels poloto_text" alignment-baseline="start" text-anchor="middle" x="440.3368176538908" y="430" > 14:00</text><line  class="poloto_axis_lines" stroke="black" x1="498.4088269454123" x2="498.4088269454123" y1="400" y2="405" /><text  class="poloto_tick_labels poloto_text" alignment-baseline="start" text-anchor="middle" x="498.4088269454123" y="430" > 17:00</text><line  class="poloto_axis_lines" stroke="black" x1="556.4808362369338" x2="556.4808362369338" y1="400" y2="405" /><text  class="poloto_tick_labels poloto_text" alignment-baseline="start" text-anchor="middle" x="556.4808362369338" y="430" > 19:00</text><line  class="poloto_axis_lines" stroke="black" x1="614.5528455284552" x2="614.5528455284552" y1="400" y2="405" /><text  class="poloto_tick_labels poloto_text" alignment-baseline="start" text-anchor="middle" x="614.5528455284552" y="430" > 22:00</text><line  class="poloto_axis_lines" stroke="black" x1="150" x2="144" y1="364.760147601476" y2="364.760147601476" /><text  class="poloto_tick_labels poloto_text" alignment-baseline="middle" text-anchor="end" x="135" y="364.760147601476" > 1000</text><line  class="poloto_axis_lines" stroke="black" x1="150" x2="144" y1="272.50922509225086" y2="272.50922509225086" /><text  class="poloto_tick_labels poloto_text" alignment-baseline="middle" text-anchor="end" x="135" y="272.50922509225086" > 1500</text><line  class="poloto_axis_lines" stroke="black" x1="150" x2="144" y1="180.25830258302585" y2="180.25830258302585" /><text  class="poloto_tick_labels poloto_text" alignment-baseline="middle" text-anchor="end" x="135" y="180.25830258302585" > 2000</text><path  stroke="black" fill="none" class="poloto_axis_lines" style="stroke-dasharray:14.518002322880372;stroke-dashoffset:-58.04878048780488;" d=" M 150 400 L 650 400" /><path  stroke="black" fill="none" class="poloto_axis_lines" style="stroke-dasharray:9.22509225092251;stroke-dashoffset:-35.23985239852399;" d=" M 150 400 L 150 100" /></svg>