<svg class="poloto" width="800" height="500" viewBox="0 0 800 500" xmlns="http://www.w3.org/2000/svg"><style>.poloto { stroke-linecap:round; stroke-linejoin:round; font-family: 'Tahoma', sans-serif; background-color: AliceBlue;} .poloto_scatter{stroke-width:7} .poloto_line{stroke-width:2} .poloto_text{fill: black;} .poloto_axis_lines{stroke: black;stroke-width:3;fill:none;stroke-dasharray:none} .poloto0stroke{stroke:  blue;} .poloto1stroke{stroke:  red;} .poloto2stroke{stroke:  green;} .poloto3stroke{stroke:  gold;} .poloto4stroke{stroke:  aqua;} .poloto5stroke{stroke:  lime;} .poloto6stroke{stroke:  orange;} .poloto7stroke{stroke:  chocolate;} .poloto0fill{fill:blue;} .poloto1fill{fill:red;} .poloto2fill{fill:green;} .poloto3fill{fill:gold;} .poloto4fill{fill:aqua;} .poloto5fill{fill:lime;} .poloto6fill{fill:orange;} .poloto7fill{fill:chocolate;}</style><text  class="poloto_text poloto_legend_text" alignment-baseline="middle" text-anchor="start" font-size="large" x="675" y="100" ></text><path  class="poloto_linefill poloto0fill" d=" M 150 400 L 150 361.7677286742035 L 151.74216027874564 361.9218910585817 L 153.4843205574913 361.45940390544706 L 155.22648083623693 363.30935251798564 L 156.96864111498257 367.1634121274409 L 158.71080139372822 369.0133607399795 L 160.45296167247386 374.1007194244604 L 162.1951219512195 374.40904419321686 L 163.93728222996515 379.80472764645424 L 165.6794425087108 378.57142857142856 L 167.42160278745644 381.03802672148 L 169.16376306620208 381.6546762589928 L 170.90592334494772 382.5796505652621 L 172.64808362369337 385.50873586844807 L 174.390243902439 387.05035971223026 L 176.13240418118465 385.3545734840699 L 177.8745644599303 390.5960945529291 L 179.61672473867597 394.45015416238437 L 181.3588850174216 395.37512846865366 L 183.10104529616726 399.0750256937307 L 184.8432055749129 397.841726618705 L 186.58536585365854 396.91675231243573 L 188.3275261324042 398.9208633093525 L 190.06968641114983 396.45426515930114 L 191.81184668989548 396.14594039054475 L 193.55400696864112 394.45015416238437 L 195.29616724738676 400 L 197.0383275261324 395.9917780061665 L 198.78048780487805 392.9085303186023 L 200.5226480836237 391.983556012333 L 202.26480836236934 389.825282631038 L 204.00696864111498 388.74614594039053 L 205.74912891986062 391.8293936279548 L 207.49128919860627 393.2168550873587 L 209.2334494773519 391.8293936279548 L 210.97560975609755 393.9876670092498 L 212.7177700348432 390.7502569373073 L 214.45993031358887 390.4419321685509 L 216.2020905923345 388.1294964028777 L 217.94425087108016 385.3545734840699 L 219.6864111498258 385.8170606372045 L 221.42857142857144 382.5796505652621 L 223.1707317073171 381.6546762589928 L 224.91289198606273 381.03802672148 L 226.65505226480838 380.8838643371017 L 228.39721254355402 375.7965056526208 L 230.13937282229966 372.0966084275437 L 231.8815331010453 374.7173689619733 L 233.62369337979095 376.72147995889003 L 235.3658536585366 377.6464542651593 L 237.10801393728224 376.4131551901336 L 238.85017421602788 378.26310380267216 L 240.59233449477352 376.4131551901336 L 242.33449477351917 374.25488180883866 L 244.0766550522648 376.72147995889003 L 245.81881533101046 375.48818088386435 L 247.5609756097561 375.1798561151079 L 249.30313588850174 377.1839671120247 L 251.0452961672474 373.6382322713258 L 252.78745644599303 374.5632065775951 L 254.52961672473867 375.6423432682426 L 256.2717770034843 373.9465570400822 L 258.01393728222996 375.7965056526208 L 259.7560975609756 378.10894141829397 L 261.49825783972125 376.8756423432683 L 263.2404181184669 377.95477903391577 L 264.98257839721254 379.9588900308325 L 266.7247386759582 382.1171634121274 L 268.4668989547038 379.18807810894145 L 270.20905923344947 376.8756423432683 L 271.9512195121951 376.2589928057554 L 273.69337979094075 369.1675231243577 L 275.4355400696864 369.1675231243577 L 277.17770034843204 371.17163412127445 L 278.91986062717774 369.47584789311406 L 280.6620209059233 371.47995889003084 L 282.404181184669 370.863309352518 L 284.1463414634146 363.15519013360745 L 285.8885017421603 367.0092497430627 L 287.6306620209059 364.5426515930113 L 289.3728222996516 365.0051387461459 L 291.1149825783972 363.30935251798564 L 292.8571428571429 358.0678314491264 L 294.5993031358885 357.29701952723536 L 296.3414634146342 358.6844809866393 L 298.08362369337976 361.61356628982526 L 299.82578397212546 365.775950668037 L 301.56794425087105 365.31346351490237 L 303.31010452961675 360.8427543679342 L 305.05226480836234 360.9969167523125 L 306.79442508710804 362.69270298047275 L 308.5365853658536 366.8550873586845 L 310.2787456445993 371.63412127440904 L 312.0209059233449 373.0215827338129 L 313.7630662020906 368.2425488180884 L 315.5052264808362 364.8509763617677 L 317.2473867595819 367.934224049332 L 318.9895470383275 369.63001027749226 L 320.7317073170732 369.47584789311406 L 322.4738675958188 376.4131551901336 L 324.2160278745645 373.0215827338129 L 325.9581881533101 372.0966084275437 L 327.70034843205576 369.7841726618705 L 329.4425087108014 369.47584789311406 L 331.18466898954705 368.55087358684483 L 332.9268292682927 365.4676258992806 L 334.66898954703834 362.69270298047275 L 336.411149825784 363.30935251798564 L 338.1533101045296 362.38437821171635 L 339.89547038327527 356.8345323741007 L 341.6376306620209 351.74717368961973 L 343.37979094076655 356.0637204522097 L 345.1219512195122 357.45118191161356 L 346.86411149825784 353.44295991778006 L 348.6062717770035 351.2846865364851 L 350.34843205574913 345.58067831449125 L 352.0905923344948 340.0308324768756 L 353.8327526132404 336.9475847893114 L 355.57491289198606 334.9434737923947 L 357.3170731707317 329.54779033915725 L 359.05923344947735 331.551901336074 L 360.801393728223 327.2353545734841 L 362.54355400696863 325.8478931140802 L 364.2857142857143 323.38129496402877 L 366.0278745644599 317.3689619732785 L 367.77003484320556 313.66906474820144 L 369.5121951219512 309.66084275436793 L 371.25435540069685 302.41521068859197 L 372.9965156794425 295.9403905447071 L 374.73867595818814 286.84480986639255 L 376.4808362369338 285.76567317574506 L 378.2229965156795 284.5323741007194 L 379.96515679442507 283.7615621788284 L 381.70731707317077 289.46557040082223 L 383.44947735191636 312.28160328879756 L 385.19163763066206 276.0534429599178 L 386.93379790940764 272.66187050359713 L 388.67595818815334 268.65364850976357 L 390.41811846689893 271.89105858170603 L 392.16027874564463 271.89105858170603 L 393.9024390243902 310.431654676259 L 395.6445993031359 300.1027749229188 L 397.3867595818815 274.8201438848921 L 399.1289198606272 272.04522096608423 L 400.8710801393728 294.24460431654677 L 402.6132404181185 267.4203494347379 L 404.3554006968641 259.2497430626927 L 406.0975609756098 260.79136690647476 L 407.8397212543554 256.9373072970195 L 409.58188153310107 250.46248715313462 L 411.3240418118467 249.22918807810893 L 413.06620209059236 275.2826310380267 L 414.808362369338 270.19527235354576 L 416.55052264808364 247.3792394655704 L 418.2926829268293 235.81706063720455 L 420.03484320557493 233.96711202466597 L 421.7770034843206 234.27543679342241 L 423.5191637630662 223.02158273381295 L 425.26132404181186 227.8006166495375 L 427.0034843205575 226.5673175745118 L 428.74564459930315 220.86330935251797 L 430.4878048780488 212.84686536485097 L 432.22996515679444 203.4429599177801 L 433.9721254355401 207.60534429599178 L 435.7142857142857 212.69270298047277 L 437.45644599303137 198.3556012332991 L 439.198606271777 196.04316546762587 L 440.94076655052265 189.2600205549846 L 442.6829268292683 201.74717368961976 L 444.42508710801394 184.6351490236382 L 446.1672473867596 185.7142857142857 L 447.9094076655052 168.7564234326824 L 449.65156794425087 161.35662898252824 L 451.3937282229965 166.13566289825283 L 453.13588850174216 154.57348406988692 L 454.8780487804878 153.64850976361768 L 456.62020905923345 156.4234326824255 L 458.3623693379791 145.94039054470707 L 460.10452961672473 146.5570400822199 L 461.8466898954704 135.61151079136687 L 463.588850174216 132.3741007194244 L 465.33101045296166 137.46145940390545 L 467.0731707317073 135.76567317574506 L 468.81533101045295 126.67009249743057 L 470.5574912891986 116.3412127440904 L 472.29965156794424 114.33710174717373 L 474.0418118466899 121.27440904419325 L 475.7839721254355 109.09558067831449 L 477.52613240418117 103.69989722507705 L 479.2682926829268 101.84994861253858 L 481.01045296167246 103.85405960945525 L 482.7526132404181 106.16649537512842 L 484.49477351916374 108.3247687564234 L 486.2369337979094 100 L 487.97909407665503 106.01233299075022 L 489.7212543554007 105.24152106885924 L 491.4634146341463 111.56217882836586 L 493.20557491289196 116.032887975334 L 494.9477351916376 104.47070914696815 L 496.68989547038325 105.24152106885924 L 498.4320557491289 105.24152106885924 L 500.17421602787454 100.46248715313459 L 501.91637630662024 109.09558067831449 L 503.6585365853659 112.79547790339154 L 505.4006968641115 119.27029804727647 L 507.14285714285717 119.57862281603286 L 508.8850174216028 125.1284686536485 L 510.62717770034845 133.4532374100719 L 512.3693379790941 139.00308324768753 L 514.1114982578397 147.17368961973276 L 515.8536585365854 147.4820143884892 L 517.5958188153311 151.3360739979445 L 519.3379790940767 153.03186022610484 L 521.0801393728223 163.5149023638232 L 522.822299651568 170.45220966084273 L 524.5644599303137 177.8520041109969 L 526.3066202090592 184.94347379239466 L 528.0487804878048 182.63103802672148 L 529.7909407665505 177.5436793422405 L 531.5331010452962 189.568345323741 L 533.2752613240418 197.12230215827336 L 535.0174216027874 200.82219938335047 L 536.7595818815331 209.14696813977392 L 538.5017421602788 209.91778006166496 L 540.2439024390244 208.99280575539566 L 541.98606271777 205.2929085303186 L 543.7282229965157 211.76772867420348 L 545.4703832752614 208.06783144912643 L 547.212543554007 204.21377183967113 L 548.9547038327526 213.77183967112026 L 550.6968641114983 211.92189105858168 L 552.439024390244 221.47995889003082 L 554.1811846689895 220.55498458376158 L 555.9233449477351 216.70092497430628 L 557.6655052264808 213.77183967112026 L 559.4076655052265 210.688591983556 L 561.1498257839721 212.23021582733813 L 562.8919860627177 214.85097636176775 L 564.6341463414634 225.17985611510792 L 566.3763066202091 224.40904419321683 L 568.1184668989547 232.11716341212744 L 569.8606271777003 235.20041109969165 L 571.602787456446 233.96711202466597 L 573.3449477351917 236.12538540596094 L 575.0871080139373 232.57965056526209 L 576.8292682926829 239.6711202466598 L 578.5714285714286 243.6793422404933 L 580.3135888501743 244.91264131551904 L 582.0557491289198 246.30010277492292 L 583.7979094076654 245.06680369989724 L 585.5400696864111 248.4583761562179 L 587.2822299651568 247.2250770811922 L 589.0243902439024 252.00411099691675 L 590.766550522648 255.5498458376156 L 592.5087108013937 253.54573484069888 L 594.2508710801394 256.7831449126413 L 595.993031358885 249.84583761562178 L 597.7351916376306 250.15416238437822 L 599.4773519163763 249.22918807810893 L 601.219512195122 259.7122302158274 L 602.9616724738676 262.02466598150056 L 604.7038327526133 267.8828365878726 L 606.445993031359 270.65775950668035 L 608.1881533101046 269.27029804727647 L 609.9303135888501 268.8078108941419 L 611.6724738675958 262.79547790339154 L 613.4146341463415 268.3453237410072 L 615.1567944250871 273.7410071942446 L 616.8989547038327 285.61151079136687 L 618.6411149825784 288.38643371017474 L 620.3832752613241 288.38643371017474 L 622.1254355400697 289.46557040082223 L 623.8675958188153 291.1613566289825 L 625.609756097561 293.3196300102775 L 627.3519163763067 295.63206577595065 L 629.0940766550523 299.48612538540596 L 630.8362369337979 305.1901336073998 L 632.5783972125436 311.20246659815007 L 634.3205574912893 313.36073997944504 L 636.0627177700349 320.45220966084275 L 637.8048780487804 323.0729701952723 L 639.5470383275261 326.464542651593 L 641.2891986062718 327.38951695786227 L 643.0313588850174 325.0770811921891 L 644.773519163763 331.3977389516958 L 646.5156794425087 335.4059609455293 L 648.2578397212544 344.8098663926002 L 650 343.7307297019527 L 650 400 Z" /><text  class="poloto_labels poloto_text poloto_title" alignment-baseline="start" text-anchor="middle" font-size="x-large" x="400" y="37.5" >Total players on 2021-09-17</text><text  class="poloto_labels poloto_text poloto_xname" alignment-baseline="start" text-anchor="middle" font-size="x-large" x="400" y="481.25" >Time</text><text  class="poloto_labels poloto_text poloto_yname" alignment-baseline="start" text-anchor="middle" font-size="x-large" transform="rotate(-90,37.5,250)" x="37.5" y="250" >Count</text><line  class="poloto_axis_lines" stroke="black" x1="150" x2="150" y1="400" y2="405" /><text  class="poloto_tick_labels poloto_text" alignment-baseline="start" text-anchor="middle" x="150" y="430" > 00:00:00</text><line  class="poloto_axis_lines" stroke="black" x1="266.14401858304296" x2="266.14401858304296" y1="400" y2="405" /><text  class="poloto_tick_labels poloto_text" alignment-baseline="start" text-anchor="middle" x="266.14401858304296" y="430" > 05:33:20</text><line  class="poloto_axis_lines" stroke="black" x1="382.2880371660859" x2="382.2880371660859" y1="400" y2="405" /><text  class="poloto_tick_labels poloto_text" alignment-baseline="start" text-anchor="middle" x="382.2880371660859" y="430" > 11:06:40</text><line  class="poloto_axis_lines" stroke="black" x1="498.4320557491289" x2="498.4320557491289" y1="400" y2="405" /><text  class="poloto_tick_labels poloto_text" alignment-baseline="start" text-anchor="middle" x="498.4320557491289" y="430" > 16:40:00</text><line  class="poloto_axis_lines" stroke="black" x1="614.5760743321719" x2="614.5760743321719" y1="400" y2="405" /><text  class="poloto_tick_labels poloto_text" alignment-baseline="start" text-anchor="middle" x="614.5760743321719" y="430" > 22:13:20</text><line  class="poloto_axis_lines" stroke="black" x1="150" x2="144" y1="393.6793422404933" y2="393.6793422404933" /><text  class="poloto_tick_labels poloto_text" alignment-baseline="middle" text-anchor="end" x="135" y="393.6793422404933" > 1000</text><line  class="poloto_axis_lines" stroke="black" x1="150" x2="144" y1="316.5981500513875" y2="316.5981500513875" /><text  class="poloto_tick_labels poloto_text" alignment-baseline="middle" text-anchor="end" x="135" y="316.5981500513875" > 1500</text><line  class="poloto_axis_lines" stroke="black" x1="150" x2="144" y1="239.51695786228163" y2="239.51695786228163" /><text  class="poloto_tick_labels poloto_text" alignment-baseline="middle" text-anchor="end" x="135" y="239.51695786228163" > 2000</text><line  class="poloto_axis_lines" stroke="black" x1="150" x2="144" y1="162.43576567317575" y2="162.43576567317575" /><text  class="poloto_tick_labels poloto_text" alignment-baseline="middle" text-anchor="end" x="135" y="162.43576567317575" > 2500</text><path  stroke="black" fill="none" class="poloto_axis_lines" style="stroke-dasharray:14.518002322880372;stroke-dashoffset:-0;" d=" M 150 400 L 650 400" /><path  stroke="black" fill="none" class="poloto_axis_lines" style="stroke-dasharray:7.7081192189105865;stroke-dashoffset:-6.320657759506673;" d=" M 150 400 L 150 100" /></svg>