<svg class="poloto" width="800" height="500" viewBox="0 0 800 500" xmlns="http://www.w3.org/2000/svg"><style>.poloto { stroke-linecap:round; stroke-linejoin:round; font-family: 'Tahoma', sans-serif; background-color: AliceBlue;} .poloto_scatter{stroke-width:7} .poloto_line{stroke-width:2} .poloto_text{fill: black;} .poloto_axis_lines{stroke: black;stroke-width:3;fill:none;stroke-dasharray:none} .poloto0stroke{stroke:  blue;} .poloto1stroke{stroke:  red;} .poloto2stroke{stroke:  green;} .poloto3stroke{stroke:  gold;} .poloto4stroke{stroke:  aqua;} .poloto5stroke{stroke:  lime;} .poloto6stroke{stroke:  orange;} .poloto7stroke{stroke:  chocolate;} .poloto0fill{fill:blue;} .poloto1fill{fill:red;} .poloto2fill{fill:green;} .poloto3fill{fill:gold;} .poloto4fill{fill:aqua;} .poloto5fill{fill:lime;} .poloto6fill{fill:orange;} .poloto7fill{fill:chocolate;}</style><text  class="poloto_text poloto_legend_text" alignment-baseline="middle" text-anchor="start" font-size="large" x="675" y="100" ></text><path  class="poloto_linefill poloto0fill" d=" M 150 400 L 150 349.34883720930236 L 151.74216027874564 350.74418604651163 L 153.4843205574913 357.1627906976744 L 155.22648083623693 362.6046511627907 L 156.96864111498257 379.06976744186045 L 158.71080139372822 376 L 160.45296167247386 375.3023255813954 L 162.1951219512195 377.1162790697674 L 163.93728222996515 379.90697674418607 L 165.6794425087108 381.0232558139535 L 167.42160278745644 382.4186046511628 L 169.16376306620208 382.1395348837209 L 170.90592334494772 383.25581395348837 L 172.64808362369337 384.93023255813955 L 174.390243902439 387.3023255813954 L 176.13240418118465 389.8139534883721 L 177.8745644599303 392.04651162790697 L 179.61672473867597 395.1162790697674 L 181.3588850174216 390.6511627906977 L 183.10104529616726 391.62790697674416 L 184.8432055749129 393.0232558139535 L 186.58536585365854 393.72093023255815 L 188.3275261324042 394.5581395348837 L 190.06968641114983 397.34883720930236 L 191.81184668989548 397.48837209302326 L 193.55400696864112 393.4418604651163 L 195.29616724738676 391.2093023255814 L 197.0383275261324 392.6046511627907 L 198.78048780487805 394 L 200.5226480836237 392.4651162790698 L 202.26480836236934 390.2325581395349 L 204.00696864111498 391.06976744186045 L 205.74912891986062 390.7906976744186 L 207.49128919860627 391.62790697674416 L 209.2334494773519 394.69767441860466 L 210.97560975609755 395.95348837209303 L 212.7177700348432 395.8139534883721 L 214.45993031358887 399.16279069767444 L 216.2020905923345 394.27906976744185 L 217.94425087108016 394.9767441860465 L 219.6864111498258 395.95348837209303 L 221.42857142857144 394.13953488372096 L 223.1707317073171 396.37209302325584 L 224.91289198606273 393.4418604651163 L 226.65505226480838 393.72093023255815 L 228.39721254355402 393.16279069767444 L 230.13937282229966 397.34883720930236 L 231.8815331010453 394.69767441860466 L 233.62369337979095 394.8372093023256 L 235.3658536585366 394 L 237.10801393728224 395.5348837209302 L 238.85017421602788 395.3953488372093 L 240.59233449477352 392.8837209302326 L 242.33449477351917 390.2325581395349 L 244.0766550522648 393.5813953488372 L 245.81881533101046 394.9767441860465 L 247.5609756097561 395.3953488372093 L 249.30313588850174 400 L 251.0452961672474 399.5813953488372 L 252.78745644599303 394.5581395348837 L 254.52961672473867 393.5813953488372 L 256.2717770034843 390.51162790697674 L 258.01393728222996 387.72093023255815 L 259.7560975609756 385.62790697674416 L 261.49825783972125 384.93023255813955 L 263.2404181184669 382.8372093023256 L 264.98257839721254 383.95348837209303 L 266.7247386759582 381.8604651162791 L 268.4668989547038 380.74418604651163 L 270.20905923344947 379.06976744186045 L 271.9512195121951 375.0232558139535 L 273.69337979094075 369.4418604651163 L 275.4355400696864 370.4186046511628 L 277.17770034843204 367.7674418604651 L 278.91986062717774 367.34883720930236 L 280.6620209059233 368.1860465116279 L 282.404181184669 367.90697674418607 L 284.1463414634146 368.1860465116279 L 285.8885017421603 365.1162790697674 L 287.6306620209059 369.0232558139535 L 289.3728222996516 366.51162790697674 L 291.1149825783972 372.65116279069764 L 292.8571428571429 374.74418604651163 L 294.5993031358885 372.51162790697674 L 296.3414634146342 376.27906976744185 L 298.08362369337976 375.0232558139535 L 299.82578397212546 374.04651162790697 L 301.56794425087105 374.8837209302326 L 303.31010452961675 371.81395348837214 L 305.05226480836234 372.37209302325584 L 306.79442508710804 375.72093023255815 L 308.5365853658536 375.0232558139535 L 310.2787456445993 378.09302325581393 L 312.0209059233449 375.72093023255815 L 313.7630662020906 376 L 315.5052264808362 377.3953488372093 L 317.2473867595819 369.4418604651163 L 318.9895470383275 363.5813953488372 L 320.7317073170732 361.2093023255814 L 322.4738675958188 359.95348837209303 L 324.2160278745645 355.06976744186045 L 325.9581881533101 353.6744186046512 L 327.70034843205576 352.5581395348837 L 329.4425087108014 355.48837209302326 L 331.18466898954705 349.7674418604651 L 332.9268292682927 348.79069767441865 L 334.66898954703834 348.93023255813955 L 336.411149825784 342.2325581395349 L 338.1533101045296 340 L 339.89547038327527 341.95348837209303 L 341.6376306620209 336.09302325581393 L 343.37979094076655 329.3953488372093 L 345.1219512195122 325.2093023255814 L 346.86411149825784 322 L 348.6062717770035 322.5581395348837 L 350.34843205574913 321.3023255813954 L 352.0905923344948 317.81395348837214 L 353.8327526132404 321.1627906976744 L 355.57491289198606 319.34883720930236 L 357.3170731707317 318.79069767441865 L 359.05923344947735 318.2325581395349 L 360.801393728223 315.5813953488372 L 362.54355400696863 315.5813953488372 L 364.2857142857143 315.5813953488372 L 366.0278745644599 314.3255813953489 L 367.77003484320556 311.95348837209303 L 369.5121951219512 311.3953488372093 L 371.25435540069685 303.8604651162791 L 372.9965156794425 307.48837209302326 L 374.73867595818814 304.5581395348837 L 376.4808362369338 303.72093023255815 L 378.2229965156795 294.93023255813955 L 379.96515679442507 290.4651162790698 L 381.70731707317077 289.48837209302326 L 383.44947735191636 285.5813953488372 L 385.19163763066206 279.72093023255815 L 386.93379790940764 276.09302325581393 L 388.67595818815334 267.72093023255815 L 390.41811846689893 261.30232558139534 L 392.16027874564463 251.67441860465118 L 393.9024390243902 244.4186046511628 L 395.6445993031359 249.16279069767444 L 397.3867595818815 232.5581395348837 L 399.1289198606272 234.7906976744186 L 400.8710801393728 233.81395348837208 L 402.6132404181185 233.95348837209303 L 404.3554006968641 230.60465116279073 L 406.0975609756098 232 L 407.8397212543554 224.32558139534882 L 409.58188153310107 218.32558139534882 L 411.3240418118467 210.37209302325584 L 413.06620209059236 210.09302325581393 L 414.808362369338 203.95348837209303 L 416.55052264808364 198.51162790697674 L 418.2926829268293 197.81395348837208 L 420.03484320557493 199.6279069767442 L 421.7770034843206 196.13953488372096 L 423.5191637630662 188.32558139534882 L 425.26132404181186 184.13953488372096 L 427.0034843205575 198.93023255813955 L 428.74564459930315 192.2325581395349 L 430.4878048780488 191.95348837209303 L 432.22996515679444 190 L 433.9721254355401 186.2325581395349 L 435.7142857142857 187.2093023255814 L 437.45644599303137 180.7906976744186 L 439.198606271777 173.95348837209303 L 440.94076655052265 163.34883720930236 L 442.6829268292683 153.72093023255815 L 444.42508710801394 146.74418604651163 L 446.1672473867596 137.53488372093022 L 447.9094076655052 134.18604651162792 L 449.65156794425087 131.11627906976747 L 451.3937282229965 126.6511627906977 L 453.13588850174216 109.62790697674421 L 454.8780487804878 105.72093023255815 L 456.62020905923345 103.90697674418607 L 458.3623693379791 100.41860465116281 L 460.10452961672473 106.13953488372096 L 461.8466898954704 104.04651162790697 L 463.588850174216 105.58139534883719 L 465.33101045296166 114.93023255813955 L 467.0731707317073 104.88372093023258 L 468.81533101045295 107.11627906976747 L 470.5574912891986 100 L 472.29965156794424 104.04651162790697 L 474.0418118466899 106.13953488372096 L 475.7839721254355 107.67441860465118 L 477.52613240418117 107.11627906976747 L 479.2682926829268 103.2093023255814 L 481.01045296167246 104.74418604651163 L 482.7526132404181 109.62790697674421 L 484.49477351916374 113.67441860465118 L 486.2369337979094 123.02325581395348 L 487.97909407665503 126.6511627906977 L 489.7212543554007 132.2325581395349 L 491.4634146341463 139.7674418604651 L 493.20557491289196 143.81395348837208 L 494.9477351916376 144.7906976744186 L 496.68989547038325 149.39534883720933 L 498.4320557491289 155.81395348837208 L 500.17421602787454 154.13953488372096 L 501.91637630662024 155.95348837209303 L 503.6585365853659 162.2325581395349 L 505.4006968641115 171.72093023255815 L 507.14285714285717 178.5581395348837 L 508.8850174216028 183.4418604651163 L 510.62717770034845 186.37209302325584 L 512.3693379790941 196.4186046511628 L 514.1114982578397 203.39534883720933 L 515.8536585365854 207.16279069767444 L 517.5958188153311 204.6511627906977 L 519.3379790940767 197.95348837209303 L 521.0801393728223 197.67441860465118 L 522.822299651568 201.16279069767444 L 524.5644599303137 208.97674418604652 L 526.3066202090592 210.09302325581393 L 528.0487804878048 210.6511627906977 L 529.7909407665505 212.18604651162792 L 531.5331010452962 212.88372093023258 L 533.2752613240418 222.51162790697674 L 535.0174216027874 221.81395348837208 L 536.7595818815331 226.4186046511628 L 538.5017421602788 229.34883720930236 L 540.2439024390244 232.97674418604652 L 541.98606271777 228.51162790697674 L 543.7282229965157 233.25581395348837 L 545.4703832752614 234.2325581395349 L 547.212543554007 234.6511627906977 L 548.9547038327526 233.81395348837208 L 550.6968641114983 231.16279069767444 L 552.439024390244 237.02325581395348 L 554.1811846689895 240.7906976744186 L 555.9233449477351 242.60465116279073 L 557.6655052264808 244.69767441860466 L 559.4076655052265 246.7906976744186 L 561.1498257839721 227.39534883720933 L 562.8919860627177 226.69767441860466 L 564.6341463414634 237.72093023255815 L 566.3763066202091 251.81395348837208 L 568.1184668989547 250 L 569.8606271777003 250.97674418604652 L 571.602787456446 256.83720930232556 L 573.3449477351917 259.7674418604651 L 575.0871080139373 260.74418604651163 L 576.8292682926829 263.6744186046512 L 578.5714285714286 268 L 580.3135888501743 268.1395348837209 L 582.0557491289198 269.25581395348837 L 583.7979094076654 270.93023255813955 L 585.5400696864111 279.8604651162791 L 587.2822299651568 274.1395348837209 L 589.0243902439024 272.04651162790697 L 590.766550522648 278.4651162790698 L 592.5087108013937 274.8372093023256 L 594.2508710801394 279.4418604651163 L 595.993031358885 295.2093023255814 L 597.7351916376306 291.4418604651163 L 599.4773519163763 276.65116279069764 L 601.219512195122 282.09302325581393 L 602.9616724738676 275.95348837209303 L 604.7038327526133 282.37209302325584 L 606.445993031359 283.2093023255814 L 608.1881533101046 287.6744186046512 L 609.9303135888501 292.8372093023256 L 611.6724738675958 299.1162790697674 L 613.4146341463415 300.65116279069764 L 615.1567944250871 299.95348837209303 L 616.8989547038327 303.72093023255815 L 618.6411149825784 306.2325581395349 L 620.3832752613241 310.4186046511628 L 622.1254355400697 310.8372093023256 L 623.8675958188153 310.5581395348837 L 625.609756097561 310 L 627.3519163763067 315.3023255813954 L 629.0940766550523 314.1860465116279 L 630.8362369337979 318.2325581395349 L 632.5783972125436 321.0232558139535 L 634.3205574912893 321.8604651162791 L 636.0627177700349 320.4651162790698 L 637.8048780487804 333.5813953488372 L 639.5470383275261 327.0232558139535 L 641.2891986062718 328.69767441860466 L 643.0313588850174 330.2325581395349 L 644.773519163763 329.25581395348837 L 646.5156794425087 328.4186046511628 L 648.2578397212544 332.6046511627907 L 650 338.6046511627907 L 650 400 Z" /><text  class="poloto_labels poloto_text poloto_title" alignment-baseline="start" text-anchor="middle" font-size="x-large" x="400" y="37.5" >Total players on 2021-12-17</text><text  class="poloto_labels poloto_text poloto_xname" alignment-baseline="start" text-anchor="middle" font-size="x-large" x="400" y="481.25" >Time</text><text  class="poloto_labels poloto_text poloto_yname" alignment-baseline="start" text-anchor="middle" font-size="x-large" transform="rotate(-90,37.5,250)" x="37.5" y="250" >Count</text><line  class="poloto_axis_lines" stroke="black" x1="150" x2="150" y1="400" y2="405" /><text  class="poloto_tick_labels poloto_text" alignment-baseline="start" text-anchor="middle" x="150" y="430" > 00:00:00</text><line  class="poloto_axis_lines" stroke="black" x1="266.14401858304296" x2="266.14401858304296" y1="400" y2="405" /><text  class="poloto_tick_labels poloto_text" alignment-baseline="start" text-anchor="middle" x="266.14401858304296" y="430" > 05:33:20</text><line  class="poloto_axis_lines" stroke="black" x1="382.2880371660859" x2="382.2880371660859" y1="400" y2="405" /><text  class="poloto_tick_labels poloto_text" alignment-baseline="start" text-anchor="middle" x="382.2880371660859" y="430" > 11:06:40</text><line  class="poloto_axis_lines" stroke="black" x1="498.4320557491289" x2="498.4320557491289" y1="400" y2="405" /><text  class="poloto_tick_labels poloto_text" alignment-baseline="start" text-anchor="middle" x="498.4320557491289" y="430" > 16:40:00</text><line  class="poloto_axis_lines" stroke="black" x1="614.5760743321719" x2="614.5760743321719" y1="400" y2="405" /><text  class="poloto_tick_labels poloto_text" alignment-baseline="start" text-anchor="middle" x="614.5760743321719" y="430" > 22:13:20</text><line  class="poloto_axis_lines" stroke="black" x1="150" x2="144" y1="377.95348837209303" y2="377.95348837209303" /><text  class="poloto_tick_labels poloto_text" alignment-baseline="middle" text-anchor="end" x="135" y="377.95348837209303" > 1000</text><line  class="poloto_axis_lines" stroke="black" x1="150" x2="144" y1="308.1860465116279" y2="308.1860465116279" /><text  class="poloto_tick_labels poloto_text" alignment-baseline="middle" text-anchor="end" x="135" y="308.1860465116279" > 1500</text><line  class="poloto_axis_lines" stroke="black" x1="150" x2="144" y1="238.4186046511628" y2="238.4186046511628" /><text  class="poloto_tick_labels poloto_text" alignment-baseline="middle" text-anchor="end" x="135" y="238.4186046511628" > 2000</text><line  class="poloto_axis_lines" stroke="black" x1="150" x2="144" y1="168.6511627906977" y2="168.6511627906977" /><text  class="poloto_tick_labels poloto_text" alignment-baseline="middle" text-anchor="end" x="135" y="168.6511627906977" > 2500</text><path  stroke="black" fill="none" class="poloto_axis_lines" style="stroke-dasharray:14.518002322880372;stroke-dashoffset:-0;" d=" M 150 400 L 650 400" /><path  stroke="black" fill="none" class="poloto_axis_lines" style="stroke-dasharray:6.976744186046512;stroke-dashoffset:-22.046511627906966;" d=" M 150 400 L 150 100" /></svg>