<svg class="poloto" width="800" height="500" viewBox="0 0 800 500" xmlns="http://www.w3.org/2000/svg"><style>.poloto { stroke-linecap:round; stroke-linejoin:round; font-family: 'Tahoma', sans-serif; background-color: AliceBlue;} .poloto_scatter{stroke-width:7} .poloto_line{stroke-width:2} .poloto_text{fill: black;} .poloto_axis_lines{stroke: black;stroke-width:3;fill:none;stroke-dasharray:none} .poloto0stroke{stroke:  blue;} .poloto1stroke{stroke:  red;} .poloto2stroke{stroke:  green;} .poloto3stroke{stroke:  gold;} .poloto4stroke{stroke:  aqua;} .poloto5stroke{stroke:  lime;} .poloto6stroke{stroke:  orange;} .poloto7stroke{stroke:  chocolate;} .poloto0fill{fill:blue;} .poloto1fill{fill:red;} .poloto2fill{fill:green;} .poloto3fill{fill:gold;} .poloto4fill{fill:aqua;} .poloto5fill{fill:lime;} .poloto6fill{fill:orange;} .poloto7fill{fill:chocolate;}</style><text  class="poloto_text poloto_legend_text" alignment-baseline="middle" text-anchor="start" font-size="large" x="675" y="100" ></text><path  class="poloto_linefill poloto0fill" d=" M 150 400 L 150 333.9889366933005 L 151.74216027874564 335.64843269821756 L 153.4843205574913 343.94591272280275 L 155.22648083623693 336.57037492317147 L 156.96864111498257 340.07375537799635 L 158.71080139372822 337.67670559311614 L 160.45296167247386 347.63368162261827 L 162.1951219512195 348.0024585125999 L 163.93728222996515 353.1653349723417 L 165.6794425087108 348.9244007375538 L 167.42160278745644 354.45605408727715 L 169.16376306620208 360.9096496619545 L 170.90592334494772 365.15058389674243 L 172.64808362369337 377.1358328211432 L 174.390243902439 375.8451137062077 L 176.13240418118465 374.3700061462815 L 177.8745644599303 385.4333128457283 L 179.61672473867597 385.9864781807007 L 181.3588850174216 386.1708666256915 L 183.10104529616726 383.9582052858021 L 184.8432055749129 384.32698217578366 L 186.58536585365854 383.5894283958205 L 188.3275261324042 383.9582052858021 L 190.06968641114983 382.48309772587584 L 191.81184668989548 381.0079901659496 L 193.55400696864112 384.6957590657652 L 195.29616724738676 386.90842040565457 L 197.0383275261324 390.9649661954518 L 198.78048780487805 394.8371235402582 L 200.5226480836237 391.8869084204057 L 202.26480836236934 394.46834665027654 L 204.00696864111498 400 L 205.74912891986062 392.99323909035036 L 207.49128919860627 395.02151198524894 L 209.2334494773519 391.8869084204057 L 210.97560975609755 392.99323909035036 L 212.7177700348432 388.9366933005532 L 214.45993031358887 392.8088506453596 L 216.2020905923345 388.19913952059005 L 217.94425087108016 386.7240319606638 L 219.6864111498258 384.1425937307929 L 221.42857142857144 381.1923786109404 L 223.1707317073171 377.8733866011063 L 224.91289198606273 378.4265519360787 L 226.65505226480838 379.16410571604183 L 228.39721254355402 377.320221266134 L 230.13937282229966 377.5046097111248 L 231.8815331010453 375.66072526121695 L 233.62369337979095 377.68899815611553 L 235.3658536585366 377.320221266134 L 237.10801393728224 377.5046097111248 L 238.85017421602788 376.58266748617086 L 240.59233449477352 373.6324523663184 L 242.33449477351917 374.3700061462815 L 244.0766550522648 367.7320221266134 L 245.81881533101046 364.04425322679776 L 247.5609756097561 354.64044253226797 L 249.30313588850174 352.4277811923786 L 251.0452961672474 344.31468961278426 L 252.78745644599303 344.1303011677935 L 254.52961672473867 346.34296250768284 L 256.2717770034843 345.42102028272893 L 258.01393728222996 345.0522433927474 L 259.7560975609756 348.18684695759066 L 261.49825783972125 354.8248309772588 L 263.2404181184669 344.86785494775665 L 264.98257839721254 338.9674247080517 L 266.7247386759582 339.15181315304244 L 268.4668989547038 334.72649047326365 L 270.20905923344947 337.67670559311614 L 271.9512195121951 338.04548248309777 L 273.69337979094075 343.7615242778119 L 275.4355400696864 339.7049784880147 L 277.17770034843204 346.1585740626921 L 278.9198606271777 338.59864781807005 L 280.6620209059233 333.25138291333747 L 282.40418118466897 329.93239090350335 L 284.1463414634146 326.7977873386601 L 285.88850174216026 323.4787953288261 L 287.6306620209059 322.0036877688998 L 289.37282229965155 324.40073755378 L 291.1149825783972 320.71296865396437 L 292.85714285714283 325.13829133374304 L 294.5993031358885 315.91886908420406 L 296.3414634146342 311.67793484941615 L 298.08362369337976 308.17455439459127 L 299.82578397212546 308.358942839582 L 301.56794425087105 303.01167793484944 L 303.31010452961675 293.79225568531035 L 305.05226480836234 297.66441303011675 L 306.79442508710804 296.18930547019056 L 308.5365853658536 293.42347879532883 L 310.2787456445993 292.31714812538416 L 312.0209059233449 294.34542102028274 L 313.7630662020906 291.94837123540253 L 315.5052264808362 291.7639827904118 L 317.2473867595819 283.65089121081746 L 318.9895470383275 283.65089121081746 L 320.7317073170732 290.2888752304856 L 322.4738675958188 285.12599877074365 L 324.2160278745645 283.8352796558082 L 325.95818815331006 280.700676090965 L 327.70034843205576 283.0977258758451 L 329.44250871080135 286.4167178856792 L 331.18466898954705 288.260602335587 L 332.92682926829264 286.60110633066995 L 334.66898954703834 280.5162876459742 L 336.4111498257839 275.7221880762139 L 338.1533101045296 273.8783036263061 L 339.8954703832752 270.74370006146285 L 341.6376306620209 270.3749231714812 L 343.3797909407665 265.94960049170254 L 345.1219512195122 268.34665027658264 L 346.86411149825784 267.0559311616472 L 348.6062717770035 262.6306084818684 L 350.34843205574913 268.899815611555 L 352.0905923344948 263.55255070682233 L 353.8327526132404 259.8647818070068 L 355.57491289198606 262.2618315918869 L 357.3170731707317 259.8647818070068 L 359.05923344947735 252.48924400737556 L 360.801393728223 260.9711124769515 L 362.54355400696863 250.27658266748617 L 364.2857142857143 242.53226797787337 L 366.0278745644599 231.46896127842652 L 367.77003484320556 230.54701905347267 L 369.5121951219512 218.5617701290719 L 371.25435540069685 220.7744314689613 L 372.9965156794425 225.56853103872155 L 374.73867595818814 209.8955132145052 L 376.4808362369338 205.83896742470804 L 378.2229965156794 206.0233558696988 L 379.96515679442507 204.17947141979104 L 381.7073170731707 203.99508297480023 L 383.44947735191636 207.68285187461586 L 385.191637630662 207.68285187461586 L 386.93379790940764 195.51321450522434 L 388.6759581881533 197.9102642901045 L 390.41811846689893 183.15918869084206 L 392.1602787456446 188.69084204056546 L 393.9024390243902 189.79717271051013 L 395.6445993031359 187.76889981561155 L 397.3867595818815 191.27228027043637 L 399.1289198606272 178.18070067609094 L 400.8710801393728 173.3866011063307 L 402.6132404181185 173.57098955132145 L 404.3554006968641 169.5144437615243 L 406.0975609756097 168.77688998156114 L 407.83972125435537 170.4363859864782 L 409.581881533101 185.92501536570373 L 411.32404181184666 183.89674247080515 L 413.0662020905923 182.60602335586967 L 414.80836236933794 170.25199754148738 L 416.5505226480836 171.35832821143205 L 418.29268292682923 167.67055931161647 L 420.0348432055749 182.05285802089733 L 421.7770034843206 167.67055931161647 L 423.5191637630662 159.5574677320221 L 425.26132404181186 156.05408727719728 L 427.0034843205575 152.55070682237246 L 428.74564459930315 162.6920712968654 L 430.4878048780488 153.84142593730795 L 432.22996515679444 153.1038721573448 L 433.9721254355401 151.8131530424093 L 435.7142857142857 151.99754148740013 L 437.45644599303137 152.91948371235404 L 439.198606271777 160.11063306699444 L 440.94076655052265 155.86969883220652 L 442.6829268292683 136.69330055316527 L 444.42508710801394 153.47264904732637 L 446.1672473867596 151.62876459741855 L 447.9094076655052 138.16840811309157 L 449.65156794425087 130.60848186846954 L 451.3937282229965 124.5236631837738 L 453.13588850174216 128.02704363859868 L 454.8780487804878 132.63675476336812 L 456.62020905923345 131.53042409342345 L 458.3623693379791 122.67977873386599 L 460.10452961672473 127.84265519360781 L 461.8466898954704 138.5371850030731 L 463.588850174216 118.80762138905959 L 465.33101045296166 119.7295636140135 L 467.0731707317073 110.51014136447452 L 468.81533101045295 109.03503380454822 L 470.5574912891986 104.7940995697603 L 472.29965156794424 108.85064535955746 L 474.0418118466899 115.30424093423483 L 475.7839721254355 120.46711739397665 L 477.52613240418117 109.40381069452985 L 479.2682926829268 100 L 481.01045296167246 103.318992009834 L 482.7526132404181 117.88567916410568 L 484.49477351916374 129.8709280885065 L 486.2369337979094 125.62999385371847 L 487.97909407665503 113.09157959434538 L 489.7212543554007 110.69452980946528 L 491.4634146341463 116.22618315918874 L 493.20557491289196 117.3325138291334 L 494.9477351916376 116.96373693915177 L 496.68989547038325 123.41733251382914 L 498.4320557491289 128.02704363859868 L 500.17421602787454 147.5722188076214 L 501.9163763066202 130.97725875845117 L 503.6585365853658 128.21143208358944 L 505.40069686411147 133.1899200983405 L 507.1428571428571 117.51690227412416 L 508.88501742160275 116.4105716041795 L 510.6271777003484 123.04855562384762 L 512.3693379790941 128.02704363859868 L 514.1114982578397 135.40258143822984 L 515.8536585365853 136.140135218193 L 517.595818815331 137.9840196681008 L 519.3379790940767 129.3177627535341 L 521.0801393728223 133.92747387830366 L 522.822299651568 138.90596189305472 L 524.5644599303137 152.73509526736322 L 526.3066202090592 153.84142593730795 L 528.0487804878048 147.38783036263058 L 529.7909407665505 155.86969883220652 L 531.5331010452962 157.34480639213277 L 533.2752613240418 159.00430239704977 L 535.0174216027874 157.34480639213277 L 536.7595818815331 165.08912108174556 L 538.5017421602788 174.49293177627536 L 540.2439024390244 178.5494775660725 L 541.98606271777 187.40012292562997 L 543.7282229965157 180.94652735095266 L 545.4703832752614 186.10940381069454 L 547.212543554007 190.9035033804548 L 548.9547038327526 189.79717271051013 L 550.6968641114983 203.07314074984632 L 552.439024390244 187.40012292562997 L 554.1811846689895 196.43515673017825 L 555.9233449477351 190.9035033804548 L 557.6655052264808 191.0878918254456 L 559.4076655052265 192.7473878303626 L 561.1498257839721 194.960049170252 L 562.8919860627177 197.9102642901045 L 564.6341463414634 199.93853718500307 L 566.3763066202091 205.6545789797173 L 568.1184668989547 209.8955132145052 L 569.8606271777003 211.92378610940378 L 571.602787456446 221.88076213890596 L 573.3449477351917 220.2212661339889 L 575.0871080139373 219.8524892440074 L 576.8292682926829 232.57529194837124 L 578.5714285714286 216.9022741241549 L 580.3135888501743 226.3060848186847 L 582.0557491289198 222.06515058389672 L 583.7979094076654 233.6816226183159 L 585.5400696864111 240.13521819299322 L 587.2822299651568 224.46220036877688 L 589.0243902439024 227.9655808236017 L 590.766550522648 245.66687154271668 L 592.5087108013937 239.95082974800246 L 594.2508710801394 248.06392132759677 L 595.993031358885 257.28334357713584 L 597.7351916376306 251.01413644744926 L 599.4773519163763 249.1702519975415 L 601.219512195122 260.04917025199757 L 602.9616724738676 251.19852489244008 L 604.7038327526132 257.8365089121081 L 606.4459930313589 258.758451137062 L 608.1881533101046 261.8930547019054 L 609.9303135888501 272.0344191763983 L 611.6724738675957 269.4529809465273 L 613.4146341463414 272.7719729563614 L 615.1567944250871 279.9631223110018 L 616.8989547038327 280.33189920098346 L 618.6411149825783 274.80024585126 L 620.383275261324 271.11247695144436 L 622.1254355400697 276.8285187461586 L 623.8675958188153 280.5162876459742 L 625.609756097561 285.67916410571604 L 627.3519163763067 291.2108174554395 L 629.0940766550523 297.8488014751075 L 630.8362369337979 297.11124769514447 L 632.5783972125436 306.5150583896742 L 634.3205574912893 336.75476336816223 L 636.0627177700349 338.9674247080517 L 637.8048780487804 341.54886293792254 L 639.5470383275261 346.5273509526736 L 641.2891986062718 322.5568531038722 L 643.0313588850174 339.8893669330055 L 644.773519163763 343.5771358328211 L 646.5156794425087 347.63368162261827 L 648.2578397212544 348.0024585125999 L 650 353.53411186232324 L 650 400 Z" /><text  class="poloto_labels poloto_text poloto_title" alignment-baseline="start" text-anchor="middle" font-size="x-large" x="400" y="37.5" >Total players on 2021-06-13</text><text  class="poloto_labels poloto_text poloto_xname" alignment-baseline="start" text-anchor="middle" font-size="x-large" x="400" y="481.25" >Time</text><text  class="poloto_labels poloto_text poloto_yname" alignment-baseline="start" text-anchor="middle" font-size="x-large" transform="rotate(-90,37.5,250)" x="37.5" y="250" >Count</text><line  class="poloto_axis_lines" stroke="black" x1="208.0487804878049" x2="208.0487804878049" y1="400" y2="405" /><text  class="poloto_tick_labels poloto_text" alignment-baseline="start" text-anchor="middle" x="208.0487804878049" y="430" > 03:00</text><line  class="poloto_axis_lines" stroke="black" x1="266.1207897793264" x2="266.1207897793264" y1="400" y2="405" /><text  class="poloto_tick_labels poloto_text" alignment-baseline="start" text-anchor="middle" x="266.1207897793264" y="430" > 06:00</text><line  class="poloto_axis_lines" stroke="black" x1="324.19279907084785" x2="324.19279907084785" y1="400" y2="405" /><text  class="poloto_tick_labels poloto_text" alignment-baseline="start" text-anchor="middle" x="324.19279907084785" y="430" > 08:00</text><line  class="poloto_axis_lines" stroke="black" x1="382.2648083623693" x2="382.2648083623693" y1="400" y2="405" /><text  class="poloto_tick_labels poloto_text" alignment-baseline="start" text-anchor="middle" x="382.2648083623693" y="430" > 11:00</text><line  class="poloto_axis_lines" stroke="black" x1="440.3368176538908" x2="440.3368176538908" y1="400" y2="405" /><text  class="poloto_tick_labels poloto_text" alignment-baseline="start" text-anchor="middle" x="440.3368176538908" y="430" > 14:00</text><line  class="poloto_axis_lines" stroke="black" x1="498.4088269454123" x2="498.4088269454123" y1="400" y2="405" /><text  class="poloto_tick_labels poloto_text" alignment-baseline="start" text-anchor="middle" x="498.4088269454123" y="430" > 17:00</text><line  class="poloto_axis_lines" stroke="black" x1="556.4808362369338" x2="556.4808362369338" y1="400" y2="405" /><text  class="poloto_tick_labels poloto_text" alignment-baseline="start" text-anchor="middle" x="556.4808362369338" y="430" > 19:00</text><line  class="poloto_axis_lines" stroke="black" x1="614.5528455284552" x2="614.5528455284552" y1="400" y2="405" /><text  class="poloto_tick_labels poloto_text" alignment-baseline="start" text-anchor="middle" x="614.5528455284552" y="430" > 22:00</text><line  class="poloto_axis_lines" stroke="black" x1="150" x2="144" y1="333.25138291333747" y2="333.25138291333747" /><text  class="poloto_tick_labels poloto_text" alignment-baseline="middle" text-anchor="end" x="135" y="333.25138291333747" > 1500</text><line  class="poloto_axis_lines" stroke="black" x1="150" x2="144" y1="241.0571604179471" y2="241.0571604179471" /><text  class="poloto_tick_labels poloto_text" alignment-baseline="middle" text-anchor="end" x="135" y="241.0571604179471" > 2000</text><line  class="poloto_axis_lines" stroke="black" x1="150" x2="144" y1="148.86293792255682" y2="148.86293792255682" /><text  class="poloto_tick_labels poloto_text" alignment-baseline="middle" text-anchor="end" x="135" y="148.86293792255682" > 2500</text><path  stroke="black" fill="none" class="poloto_axis_lines" style="stroke-dasharray:14.518002322880372;stroke-dashoffset:-58.04878048780488;" d=" M 150 400 L 650 400" /><path  stroke="black" fill="none" class="poloto_axis_lines" style="stroke-dasharray:9.21942224953903;stroke-dashoffset:-66.74861708666256;" d=" M 150 400 L 150 100" /></svg>