<svg class="poloto" width="800" height="500" viewBox="0 0 800 500" xmlns="http://www.w3.org/2000/svg"><style>.poloto { stroke-linecap:round; stroke-linejoin:round; font-family: 'Tahoma', sans-serif; background-color: AliceBlue;} .poloto_scatter{stroke-width:7} .poloto_line{stroke-width:2} .poloto_text{fill: black;} .poloto_axis_lines{stroke: black;stroke-width:3;fill:none;stroke-dasharray:none} .poloto0stroke{stroke:  blue;} .poloto1stroke{stroke:  red;} .poloto2stroke{stroke:  green;} .poloto3stroke{stroke:  gold;} .poloto4stroke{stroke:  aqua;} .poloto5stroke{stroke:  lime;} .poloto6stroke{stroke:  orange;} .poloto7stroke{stroke:  chocolate;} .poloto0fill{fill:blue;} .poloto1fill{fill:red;} .poloto2fill{fill:green;} .poloto3fill{fill:gold;} .poloto4fill{fill:aqua;} .poloto5fill{fill:lime;} .poloto6fill{fill:orange;} .poloto7fill{fill:chocolate;}</style><text  class="poloto_text poloto_legend_text" alignment-baseline="middle" text-anchor="start" font-size="large" x="675" y="100" ></text><path  class="poloto_linefill poloto0fill" d=" M 150 400 L 150 367.59884281581486 L 151.74216027874564 369.9132111861138 L 153.4843205574913 370.6364513018322 L 155.22648083623693 375.6991321118611 L 156.96864111498257 378.7367405978785 L 158.71080139372822 387.12632594021215 L 160.45296167247386 387.5602700096432 L 162.1951219512195 387.12632594021215 L 163.93728222996515 392.33365477338475 L 165.6794425087108 393.20154291224685 L 167.42160278745644 393.20154291224685 L 169.16376306620208 395.22661523625845 L 170.90592334494772 392.47830279652845 L 172.64808362369337 390.74252651880425 L 174.390243902439 393.34619093539055 L 176.13240418118465 398.69816779170685 L 177.8745644599303 397.54098360655735 L 179.61672473867597 397.54098360655735 L 181.3588850174216 400 L 183.10104529616726 396.81774349083895 L 184.8432055749129 395.80520732883315 L 186.58536585365854 397.9749276759884 L 188.3275261324042 391.61041465766635 L 190.06968641114983 394.06943105110895 L 191.81184668989548 391.75506268081006 L 193.55400696864112 386.5477338476374 L 195.29616724738676 389.15139826422376 L 197.0383275261324 385.6798457087753 L 198.78048780487805 387.12632594021215 L 200.5226480836237 386.4030858244937 L 202.26480836236934 385.10125361620055 L 204.00696864111498 393.9247830279653 L 205.74912891986062 390.88717454194796 L 207.49128919860627 398.55351976856315 L 209.2334494773519 394.7926711668274 L 210.97560975609755 388.28351012536166 L 212.7177700348432 383.65477338476376 L 214.45993031358887 383.2208293153327 L 216.2020905923345 382.9315332690453 L 217.94425087108016 383.076181292189 L 219.6864111498258 382.3529411764706 L 221.42857142857144 378.3027965284474 L 223.1707317073171 381.91899710703956 L 224.91289198606273 380.18322082931536 L 226.65505226480838 371.93828351012536 L 228.39721254355402 372.2275795564127 L 230.13937282229966 367.0202507232401 L 231.8815331010453 363.11475409836066 L 233.62369337979095 357.90742526518807 L 235.3658536585366 356.75024108003856 L 237.10801393728224 351.6875602700096 L 238.85017421602788 353.1340405014465 L 240.59233449477352 358.0520732883317 L 242.33449477351917 357.90742526518807 L 244.0766550522648 357.03953712632597 L 245.81881533101046 355.4484088717454 L 247.5609756097561 351.976856316297 L 249.30313588850174 345.7569913211186 L 251.0452961672474 345.46769527483127 L 252.78745644599303 345.6123432979749 L 254.52961672473867 346.33558341369337 L 256.2717770034843 351.39826422372226 L 258.01393728222996 351.25361620057856 L 259.7560975609756 343.1533269045323 L 261.49825783972125 344.45515911282547 L 263.2404181184669 350.38572806171646 L 264.98257839721254 345.6123432979749 L 266.7247386759582 343.7319189971071 L 268.4668989547038 343.8765670202507 L 270.20905923344947 343.8765670202507 L 271.9512195121951 339.8264223722276 L 273.69337979094075 334.47444551591127 L 275.4355400696864 333.0279652844745 L 277.17770034843204 328.10993249758917 L 278.91986062717774 327.0973963355834 L 280.6620209059233 322.3240115718419 L 282.404181184669 317.9845708775314 L 284.1463414634146 314.8023143683703 L 285.8885017421603 318.9971070395371 L 287.6306620209059 312.05400192864033 L 289.3728222996516 308.7270973963356 L 291.1149825783972 307.42526518804243 L 292.8571428571429 306.9913211186114 L 294.5993031358885 304.24300867888144 L 296.3414634146342 301.7839922854388 L 298.08362369337976 300.6268081002893 L 299.82578397212546 295.56412729026033 L 301.56794425087105 299.90356798457094 L 303.31010452961675 295.4194792671167 L 305.05226480836234 291.3693346190936 L 306.79442508710804 293.82835101253613 L 308.5365853658536 295.56412729026033 L 310.2787456445993 287.17454194792674 L 312.0209059233449 284.4262295081967 L 313.7630662020906 286.7405978784957 L 315.5052264808362 288.1870781099325 L 317.2473867595819 288.33172613307624 L 318.9895470383275 293.24975891996144 L 320.7317073170732 292.96046287367403 L 322.4738675958188 295.56412729026033 L 324.2160278745645 286.59594985535193 L 325.9581881533101 287.17454194792674 L 327.70034843205576 287.46383799421403 L 329.4425087108014 286.7405978784957 L 331.18466898954705 279.2189006750241 L 332.9268292682927 275.7473481195757 L 334.66898954703834 269.3828351012536 L 336.411149825784 276.18129218900674 L 338.1533101045296 274.73481195756995 L 339.89547038327527 268.94889103182254 L 341.6376306620209 272.42044358727094 L 343.37979094076655 269.672131147541 L 345.1219512195122 270.68466730954674 L 346.86411149825784 268.94889103182254 L 348.6062717770035 260.4146576663452 L 350.34843205574913 256.6538090646095 L 352.0905923344948 258.1002892960463 L 353.8327526132404 255.93056894889102 L 355.57491289198606 255.06268081002892 L 357.3170731707317 254.05014464802318 L 359.05923344947735 249.27675988428157 L 360.801393728223 247.54098360655738 L 362.54355400696863 242.76759884281583 L 364.2857142857143 248.55351976856318 L 366.0278745644599 242.91224686595953 L 367.77003484320556 241.32111861137898 L 369.5121951219512 230.32786885245903 L 371.25435540069685 231.91899710703953 L 372.9965156794425 227.43490838958533 L 374.73867595818814 218.3220829315333 L 376.4808362369338 223.52941176470588 L 378.2229965156795 224.54194792671169 L 379.96515679442507 214.99517839922854 L 381.70731707317077 215.718418514947 L 383.44947735191636 205.44840887174544 L 385.19163763066206 225.40983606557378 L 386.93379790940764 220.34715525554483 L 388.67595818815334 210.3664416586307 L 390.41811846689893 216.29701060752168 L 392.16027874564463 209.3539054966249 L 393.9024390243902 206.46094503375124 L 395.6445993031359 199.5178399228544 L 397.3867595818815 196.62487945998075 L 399.1289198606272 192.4300867888139 L 400.8710801393728 192.14079074252655 L 402.6132404181185 193.73191899710704 L 404.3554006968641 192.4300867888139 L 406.0975609756098 192.86403085824494 L 407.8397212543554 189.24783027965285 L 409.58188153310107 181.870781099325 L 411.3240418118467 177.09739633558345 L 413.06620209059236 166.6827386692382 L 414.808362369338 165.0916104146577 L 416.55052264808364 164.8023143683703 L 418.2926829268293 158.29315332690456 L 420.03484320557493 159.30568948891036 L 421.7770034843206 158.5824493731919 L 423.5191637630662 143.82835101253613 L 425.26132404181186 146.2873674059788 L 427.0034843205575 141.65863066538088 L 428.74564459930315 144.5515911282546 L 430.4878048780488 138.1870781099325 L 432.22996515679444 130.665380906461 L 433.9721254355401 127.91706846673094 L 435.7142857142857 123.28833172613315 L 437.45644599303137 120.8293153326905 L 439.198606271777 117.21311475409834 L 440.94076655052265 115.0433944069431 L 442.6829268292683 112.00578592092575 L 444.42508710801394 108.82352941176475 L 446.1672473867596 105.7859209257474 L 447.9094076655052 101.01253616200586 L 449.65156794425087 100.72324011571845 L 451.3937282229965 101.59112825458055 L 453.13588850174216 105.93056894889105 L 454.8780487804878 100 L 456.62020905923345 106.50916104146575 L 458.3623693379791 105.49662487946 L 460.10452961672473 112.87367405978785 L 461.8466898954704 102.74831243973006 L 463.588850174216 113.45226615236265 L 465.33101045296166 109.98071359691414 L 467.0731707317073 113.0183220829316 L 468.81533101045295 113.74156219864994 L 470.5574912891986 112.29508196721315 L 472.29965156794424 105.06268081002895 L 474.0418118466899 104.48408871745426 L 475.7839721254355 111.13789778206365 L 477.52613240418117 108.3895853423337 L 479.2682926829268 112.00578592092575 L 481.01045296167246 121.98649951783989 L 482.7526132404181 125.168756027001 L 484.49477351916374 126.75988428158155 L 486.2369337979094 140.64609450337514 L 487.97909407665503 141.65863066538088 L 489.7212543554007 144.11764705882356 L 491.4634146341463 150.19286403085826 L 493.20557491289196 153.2304725168756 L 494.9477351916376 160.17357762777246 L 496.68989547038325 168.5631629701061 L 498.4320557491289 165.9594985535198 L 500.17421602787454 162.0540019286403 L 501.91637630662024 161.1861137897782 L 503.6585365853659 162.9218900675024 L 505.4006968641115 159.16104146576666 L 507.14285714285717 169.2864030858245 L 508.8850174216028 174.4937319189971 L 510.62717770034845 175.94021215043395 L 512.3693379790941 183.89585342333655 L 514.1114982578397 190.98360655737704 L 515.8536585365854 205.44840887174544 L 517.5958188153311 204.58052073288334 L 519.3379790940767 209.2092574734812 L 521.0801393728223 211.2343297974928 L 522.822299651568 209.64320154291224 L 524.5644599303137 206.0270009643202 L 526.3066202090592 209.4985535197686 L 528.0487804878048 211.2343297974928 L 529.7909407665505 218.90067502410804 L 531.5331010452962 213.8379942140791 L 533.2752613240418 213.54869816779174 L 535.0174216027874 222.08293153326903 L 536.7595818815331 233.36547733847638 L 538.5017421602788 225.26518804243008 L 540.2439024390244 229.45998071359693 L 541.98606271777 233.65477338476373 L 543.7282229965157 234.08871745419478 L 545.4703832752614 237.99421407907428 L 547.212543554007 240.74252651880428 L 548.9547038327526 241.03182256509163 L 550.6968641114983 247.10703953712633 L 552.439024390244 247.83027965284478 L 554.1811846689895 249.13211186113793 L 555.9233449477351 250.86788813886213 L 557.6655052264808 250.72324011571843 L 559.4076655052265 258.3895853423337 L 561.1498257839721 262.7290260366442 L 562.8919860627177 261.71648987463834 L 564.6341463414634 269.81677917068464 L 566.3763066202091 277.04918032786884 L 568.1184668989547 277.4831243972999 L 569.8606271777003 282.4011571841852 L 571.602787456446 288.04243008678884 L 573.3449477351917 284.4262295081967 L 575.0871080139373 288.91031822565094 L 576.8292682926829 287.75313404050144 L 578.5714285714286 286.01735776277724 L 580.3135888501743 287.8977820636451 L 582.0557491289198 287.8977820636451 L 583.7979094076654 291.0800385728062 L 585.5400696864111 293.24975891996144 L 587.2822299651568 294.69623915139823 L 589.0243902439024 294.11764705882354 L 590.766550522648 299.7589199614272 L 592.5087108013937 303.95371263259403 L 594.2508710801394 308.1485053037609 L 595.993031358885 303.95371263259403 L 597.7351916376306 303.66441658630663 L 599.4773519163763 309.30568948891033 L 601.219512195122 323.4811957569913 L 602.9616724738676 318.9971070395371 L 604.7038327526133 323.3365477338476 L 606.445993031359 321.02217936354873 L 608.1881533101046 308.0038572806172 L 609.9303135888501 314.946962391514 L 611.6724738675958 318.129218900675 L 613.4146341463415 319.4310511089682 L 615.1567944250871 322.6133076181292 L 616.8989547038327 324.4937319189971 L 618.6411149825784 329.4117647058823 L 620.3832752613241 330.8582449373192 L 622.1254355400697 330.4243008678882 L 623.8675958188153 330.8582449373192 L 625.609756097561 333.8958534233366 L 627.3519163763067 341.1282545805208 L 629.0940766550523 348.79459980713597 L 630.8362369337979 352.5554484088717 L 632.5783972125436 361.23432979749276 L 634.3205574912893 360.51108968177437 L 636.0627177700349 358.3413693346191 L 637.8048780487804 360.36644165863066 L 639.5470383275261 361.37897782063646 L 641.2891986062718 359.9324975891996 L 643.0313588850174 362.6808100289296 L 644.773519163763 362.6808100289296 L 646.5156794425087 366.29701060752166 L 648.2578397212544 366.00771456123437 L 650 364.4165863066538 L 650 400 Z" /><text  class="poloto_labels poloto_text poloto_title" alignment-baseline="start" text-anchor="middle" font-size="x-large" x="400" y="37.5" >Total players on 2021-12-11</text><text  class="poloto_labels poloto_text poloto_xname" alignment-baseline="start" text-anchor="middle" font-size="x-large" x="400" y="481.25" >Time</text><text  class="poloto_labels poloto_text poloto_yname" alignment-baseline="start" text-anchor="middle" font-size="x-large" transform="rotate(-90,37.5,250)" x="37.5" y="250" >Count</text><line  class="poloto_axis_lines" stroke="black" x1="150" x2="150" y1="400" y2="405" /><text  class="poloto_tick_labels poloto_text" alignment-baseline="start" text-anchor="middle" x="150" y="430" > 00:00</text><line  class="poloto_axis_lines" stroke="black" x1="266.14401858304296" x2="266.14401858304296" y1="400" y2="405" /><text  class="poloto_tick_labels poloto_text" alignment-baseline="start" text-anchor="middle" x="266.14401858304296" y="430" > 06:00</text><line  class="poloto_axis_lines" stroke="black" x1="382.2880371660859" x2="382.2880371660859" y1="400" y2="405" /><text  class="poloto_tick_labels poloto_text" alignment-baseline="start" text-anchor="middle" x="382.2880371660859" y="430" > 11:00</text><line  class="poloto_axis_lines" stroke="black" x1="498.4320557491289" x2="498.4320557491289" y1="400" y2="405" /><text  class="poloto_tick_labels poloto_text" alignment-baseline="start" text-anchor="middle" x="498.4320557491289" y="430" > 17:00</text><line  class="poloto_axis_lines" stroke="black" x1="614.5760743321719" x2="614.5760743321719" y1="400" y2="405" /><text  class="poloto_tick_labels poloto_text" alignment-baseline="start" text-anchor="middle" x="614.5760743321719" y="430" > 22:00</text><line  class="poloto_axis_lines" stroke="black" x1="150" x2="144" y1="346.480231436837" y2="346.480231436837" /><text  class="poloto_tick_labels poloto_text" alignment-baseline="middle" text-anchor="end" x="135" y="346.480231436837" > 1500</text><line  class="poloto_axis_lines" stroke="black" x1="150" x2="144" y1="274.15621986499514" y2="274.15621986499514" /><text  class="poloto_tick_labels poloto_text" alignment-baseline="middle" text-anchor="end" x="135" y="274.15621986499514" > 2000</text><line  class="poloto_axis_lines" stroke="black" x1="150" x2="144" y1="201.83220829315337" y2="201.83220829315337" /><text  class="poloto_tick_labels poloto_text" alignment-baseline="middle" text-anchor="end" x="135" y="201.83220829315337" > 2500</text><line  class="poloto_axis_lines" stroke="black" x1="150" x2="144" y1="129.5081967213115" y2="129.5081967213115" /><text  class="poloto_tick_labels poloto_text" alignment-baseline="middle" text-anchor="end" x="135" y="129.5081967213115" > 3000</text><path  stroke="black" fill="none" class="poloto_axis_lines" style="stroke-dasharray:14.518002322880372;stroke-dashoffset:-0;" d=" M 150 400 L 650 400" /><path  stroke="black" fill="none" class="poloto_axis_lines" style="stroke-dasharray:7.232401157184185;stroke-dashoffset:-53.519768563162955;" d=" M 150 400 L 150 100" /></svg>