<svg class="poloto" width="800" height="500" viewBox="0 0 800 500" xmlns="http://www.w3.org/2000/svg"><style>.poloto { stroke-linecap:round; stroke-linejoin:round; font-family: 'Tahoma', sans-serif; background-color: AliceBlue;} .poloto_scatter{stroke-width:7} .poloto_line{stroke-width:2} .poloto_text{fill: black;} .poloto_axis_lines{stroke: black;stroke-width:3;fill:none;stroke-dasharray:none} .poloto0stroke{stroke:  blue;} .poloto1stroke{stroke:  red;} .poloto2stroke{stroke:  green;} .poloto3stroke{stroke:  gold;} .poloto4stroke{stroke:  aqua;} .poloto5stroke{stroke:  lime;} .poloto6stroke{stroke:  orange;} .poloto7stroke{stroke:  chocolate;} .poloto0fill{fill:blue;} .poloto1fill{fill:red;} .poloto2fill{fill:green;} .poloto3fill{fill:gold;} .poloto4fill{fill:aqua;} .poloto5fill{fill:lime;} .poloto6fill{fill:orange;} .poloto7fill{fill:chocolate;}</style><text  class="poloto_text poloto_legend_text" alignment-baseline="middle" text-anchor="start" font-size="large" x="675" y="100" ></text><path  class="poloto_linefill poloto0fill" d=" M 150 400 L 150 348.8448844884488 L 151.74216027874564 349.3399339933993 L 153.4843205574913 352.64026402640263 L 155.22648083623693 358.5808580858086 L 156.96864111498257 361.0561056105611 L 158.71080139372822 364.52145214521454 L 160.45296167247386 365.8415841584158 L 162.1951219512195 367.49174917491746 L 163.93728222996515 369.63696369636966 L 165.6794425087108 369.63696369636966 L 167.42160278745644 375.0825082508251 L 169.16376306620208 370.9570957095709 L 170.90592334494772 372.9372937293729 L 172.64808362369337 372.6072607260726 L 174.390243902439 375.9075907590759 L 176.13240418118465 379.5379537953795 L 177.8745644599303 379.86798679867985 L 179.61672473867597 379.5379537953795 L 181.3588850174216 383.00330033003297 L 183.10104529616726 385.6435643564356 L 184.8432055749129 385.1485148514852 L 186.58536585365854 382.50825082508254 L 188.3275261324042 381.023102310231 L 190.06968641114983 384.15841584158414 L 191.81184668989548 381.6831683168317 L 193.55400696864112 387.95379537953795 L 195.29616724738676 383.3333333333333 L 197.0383275261324 377.7227722772277 L 198.78048780487805 380.03300330033005 L 200.5226480836237 382.17821782178214 L 202.26480836236934 384.4884488448845 L 204.00696864111498 388.9438943894389 L 205.74912891986062 388.61386138613864 L 207.49128919860627 389.76897689768975 L 209.2334494773519 391.9141914191419 L 210.97560975609755 396.3696369636964 L 212.7177700348432 394.71947194719473 L 214.45993031358887 396.2046204620462 L 216.2020905923345 396.3696369636964 L 217.94425087108016 400 L 219.6864111498258 395.87458745874585 L 221.42857142857144 395.37953795379536 L 223.1707317073171 397.1947194719472 L 224.91289198606273 398.01980198019805 L 226.65505226480838 397.68976897689765 L 228.39721254355402 392.90429042904293 L 230.13937282229966 393.72937293729376 L 231.8815331010453 395.7095709570957 L 233.62369337979095 396.6996699669967 L 235.3658536585366 395.049504950495 L 237.10801393728224 395.54455445544556 L 238.85017421602788 392.57425742574253 L 240.59233449477352 392.24422442244224 L 242.33449477351917 388.28382838283824 L 244.0766550522648 392.0792079207921 L 245.81881533101046 392.0792079207921 L 247.5609756097561 388.44884488448844 L 249.30313588850174 388.7788778877888 L 251.0452961672474 388.7788778877888 L 252.78745644599303 388.9438943894389 L 254.52961672473867 389.27392739273927 L 256.2717770034843 386.13861386138615 L 258.01393728222996 386.7986798679868 L 259.7560975609756 381.84818481848185 L 261.49825783972125 381.18811881188117 L 263.2404181184669 384.4884488448845 L 264.98257839721254 374.9174917491749 L 266.7247386759582 373.1023102310231 L 268.4668989547038 363.20132013201317 L 270.20905923344947 363.20132013201317 L 271.9512195121951 358.9108910891089 L 273.69337979094075 356.27062706270624 L 275.4355400696864 356.9306930693069 L 277.17770034843204 360.3960396039604 L 278.91986062717774 358.74587458745873 L 280.6620209059233 357.4257425742574 L 282.404181184669 354.950495049505 L 284.1463414634146 358.5808580858086 L 285.8885017421603 360.72607260726073 L 287.6306620209059 362.70627062706274 L 289.3728222996516 370.2970297029703 L 291.1149825783972 368.3168316831683 L 292.8571428571429 370.7920792079208 L 294.5993031358885 371.1221122112211 L 296.3414634146342 369.96699669966995 L 298.08362369337976 371.45214521452147 L 299.82578397212546 368.3168316831683 L 301.56794425087105 365.18151815181517 L 303.31010452961675 360.06600660066005 L 305.05226480836234 359.2409240924093 L 306.79442508710804 353.6303630363036 L 308.5365853658536 354.2904290429043 L 310.2787456445993 353.46534653465346 L 312.0209059233449 351.8151815181518 L 313.7630662020906 352.14521452145215 L 315.5052264808362 348.8448844884488 L 317.2473867595819 349.009900990099 L 318.9895470383275 346.2046204620462 L 320.7317073170732 344.05940594059405 L 322.4738675958188 341.08910891089107 L 324.2160278745645 338.44884488448844 L 325.9581881533101 331.6831683168317 L 327.70034843205576 331.18811881188117 L 329.4425087108014 330.03300330033005 L 331.18466898954705 323.92739273927396 L 332.9268292682927 319.1419141914191 L 334.66898954703834 325.2475247524752 L 336.411149825784 316.99669966996703 L 338.1533101045296 314.8514851485148 L 339.89547038327527 312.2112211221122 L 341.6376306620209 309.7359735973597 L 343.37979094076655 308.9108910891089 L 345.1219512195122 307.5907590759076 L 346.86411149825784 306.7656765676568 L 348.6062717770035 304.7854785478548 L 350.34843205574913 299.009900990099 L 352.0905923344948 290.7590759075907 L 353.8327526132404 294.2244224422442 L 355.57491289198606 288.44884488448844 L 357.3170731707317 292.4092409240924 L 359.05923344947735 288.28382838283824 L 360.801393728223 288.7788778877888 L 362.54355400696863 292.4092409240924 L 364.2857142857143 287.6237623762376 L 366.0278745644599 283.8283828382838 L 367.77003484320556 278.7128712871287 L 369.5121951219512 279.37293729372936 L 371.25435540069685 280.1980198019802 L 372.9965156794425 278.3828382838284 L 374.73867595818814 277.2277227722772 L 376.4808362369338 269.1419141914191 L 378.2229965156795 268.3168316831683 L 379.96515679442507 264.52145214521454 L 381.70731707317077 266.83168316831683 L 383.44947735191636 258.5808580858086 L 385.19163763066206 263.5313531353135 L 386.93379790940764 254.2904290429043 L 388.67595818815334 254.95049504950492 L 390.41811846689893 252.64026402640263 L 392.16027874564463 252.80528052805278 L 393.9024390243902 250.4950495049505 L 395.6445993031359 244.2244224422442 L 397.3867595818815 246.2046204620462 L 399.1289198606272 243.39933993399342 L 400.8710801393728 239.4389438943894 L 402.6132404181185 222.77227722772278 L 404.3554006968641 214.85148514851483 L 406.0975609756098 220.79207920792078 L 407.8397212543554 212.70627062706268 L 409.58188153310107 208.25082508250824 L 411.3240418118467 208.91089108910893 L 413.06620209059236 218.81188118811883 L 414.808362369338 201.48514851485146 L 416.55052264808364 196.2046204620462 L 418.2926829268293 195.21452145214522 L 420.03484320557493 191.08910891089107 L 421.7770034843206 185.8085808580858 L 423.5191637630662 184.15841584158414 L 425.26132404181186 181.68316831683165 L 427.0034843205575 181.02310231023102 L 428.74564459930315 168.81188118811883 L 430.4878048780488 165.18151815181517 L 432.22996515679444 162.87128712871288 L 433.9721254355401 163.86138613861385 L 435.7142857142857 155.94059405940595 L 437.45644599303137 152.14521452145215 L 439.198606271777 149.5049504950495 L 440.94076655052265 145.37953795379536 L 442.6829268292683 133.993399339934 L 444.42508710801394 129.37293729372936 L 446.1672473867596 125.24752475247521 L 447.9094076655052 119.47194719471946 L 449.65156794425087 121.61716171617161 L 451.3937282229965 126.23762376237624 L 453.13588850174216 123.9273927392739 L 454.8780487804878 124.0924092409241 L 456.62020905923345 106.76567656765678 L 458.3623693379791 103.96039603960395 L 460.10452961672473 106.27062706270624 L 461.8466898954704 100 L 463.588850174216 119.14191419141912 L 465.33101045296166 112.87128712871288 L 467.0731707317073 112.54125412541254 L 468.81533101045295 113.36633663366337 L 470.5574912891986 123.76237623762376 L 472.29965156794424 126.89768976897687 L 474.0418118466899 122.1122112211221 L 475.7839721254355 111.88118811881185 L 477.52613240418117 115.51155115511551 L 479.2682926829268 113.86138613861385 L 481.01045296167246 110.89108910891088 L 482.7526132404181 114.68646864686468 L 484.49477351916374 119.6369636963696 L 486.2369337979094 122.77227722772278 L 487.97909407665503 120.46204620462044 L 489.7212543554007 124.75247524752473 L 491.4634146341463 127.39273927392736 L 493.20557491289196 140.0990099009901 L 494.9477351916376 141.74917491749176 L 496.68989547038325 140.75907590759073 L 498.4320557491289 152.4752475247525 L 500.17421602787454 160.06600660066005 L 501.91637630662024 162.2112211221122 L 503.6585365853659 175.08250825082507 L 505.4006968641115 173.5973597359736 L 507.14285714285717 181.18811881188117 L 508.8850174216028 184.4884488448845 L 510.62717770034845 203.6303630363036 L 512.3693379790941 217.65676567656766 L 514.1114982578397 200.16501650165014 L 515.8536585365854 199.00990099009903 L 517.5958188153311 208.4158415841584 L 519.3379790940767 201.65016501650166 L 521.0801393728223 198.84488448844883 L 522.822299651568 202.14521452145215 L 524.5644599303137 206.43564356435644 L 526.3066202090592 216.17161716171614 L 528.0487804878048 218.3168316831683 L 529.7909407665505 219.6369636963696 L 531.5331010452962 216.66666666666669 L 533.2752613240418 226.23762376237624 L 535.0174216027874 219.47194719471946 L 536.7595818815331 215.01650165016503 L 538.5017421602788 216.006600660066 L 540.2439024390244 214.52145214521454 L 541.98606271777 213.86138613861385 L 543.7282229965157 216.33663366336634 L 545.4703832752614 218.4818481848185 L 547.212543554007 210.3960396039604 L 548.9547038327526 215.5115511551155 L 550.6968641114983 223.5973597359736 L 552.439024390244 227.06270627062707 L 554.1811846689895 229.5379537953795 L 555.9233449477351 233.33333333333331 L 557.6655052264808 236.63366336633663 L 559.4076655052265 239.27392739273927 L 561.1498257839721 240.92409240924093 L 562.8919860627177 245.87458745874585 L 564.6341463414634 244.55445544554453 L 566.3763066202091 244.3894389438944 L 568.1184668989547 248.019801980198 L 569.8606271777003 249.3399339933993 L 571.602787456446 251.8151815181518 L 573.3449477351917 248.67986798679868 L 575.0871080139373 245.21452145214522 L 576.8292682926829 247.6897689768977 L 578.5714285714286 251.98019801980195 L 580.3135888501743 251.48514851485146 L 582.0557491289198 257.4257425742574 L 583.7979094076654 259.7359735973597 L 585.5400696864111 262.2112211221122 L 587.2822299651568 272.2772277227723 L 589.0243902439024 273.5973597359736 L 590.766550522648 271.6171617161716 L 592.5087108013937 271.28712871287127 L 594.2508710801394 273.10231023102307 L 595.993031358885 274.5874587458746 L 597.7351916376306 271.45214521452147 L 599.4773519163763 276.23762376237624 L 601.219512195122 279.0429042904291 L 602.9616724738676 279.0429042904291 L 604.7038327526133 287.1287128712871 L 606.445993031359 284.8184818481848 L 608.1881533101046 286.46864686468643 L 609.9303135888501 292.0792079207921 L 611.6724738675958 305.6105610561056 L 613.4146341463415 307.75577557755776 L 615.1567944250871 318.976897689769 L 616.8989547038327 325.0825082508251 L 618.6411149825784 327.7227722772277 L 620.3832752613241 329.2079207920792 L 622.1254355400697 330.1980198019802 L 623.8675958188153 329.86798679867985 L 625.609756097561 335.973597359736 L 627.3519163763067 340.0990099009901 L 629.0940766550523 336.63366336633663 L 630.8362369337979 340.42904290429044 L 632.5783972125436 341.25412541254127 L 634.3205574912893 343.2343234323432 L 636.0627177700349 344.55445544554453 L 637.8048780487804 350.16501650165014 L 639.5470383275261 358.08580858085804 L 641.2891986062718 350.3300330033003 L 643.0313588850174 363.36633663366337 L 644.773519163763 349.17491749174917 L 646.5156794425087 357.2607260726072 L 648.2578397212544 359.0759075907591 L 650 362.04620462046205 L 650 400 Z" /><text  class="poloto_labels poloto_text poloto_title" alignment-baseline="start" text-anchor="middle" font-size="x-large" x="400" y="37.5" >Total players on 2021-11-17</text><text  class="poloto_labels poloto_text poloto_xname" alignment-baseline="start" text-anchor="middle" font-size="x-large" x="400" y="481.25" >Time</text><text  class="poloto_labels poloto_text poloto_yname" alignment-baseline="start" text-anchor="middle" font-size="x-large" transform="rotate(-90,37.5,250)" x="37.5" y="250" >Count</text><line  class="poloto_axis_lines" stroke="black" x1="150" x2="150" y1="400" y2="405" /><text  class="poloto_tick_labels poloto_text" alignment-baseline="start" text-anchor="middle" x="150" y="430" > 00:00:00</text><line  class="poloto_axis_lines" stroke="black" x1="266.14401858304296" x2="266.14401858304296" y1="400" y2="405" /><text  class="poloto_tick_labels poloto_text" alignment-baseline="start" text-anchor="middle" x="266.14401858304296" y="430" > 05:33:20</text><line  class="poloto_axis_lines" stroke="black" x1="382.2880371660859" x2="382.2880371660859" y1="400" y2="405" /><text  class="poloto_tick_labels poloto_text" alignment-baseline="start" text-anchor="middle" x="382.2880371660859" y="430" > 11:06:40</text><line  class="poloto_axis_lines" stroke="black" x1="498.4320557491289" x2="498.4320557491289" y1="400" y2="405" /><text  class="poloto_tick_labels poloto_text" alignment-baseline="start" text-anchor="middle" x="498.4320557491289" y="430" > 16:40:00</text><line  class="poloto_axis_lines" stroke="black" x1="614.5760743321719" x2="614.5760743321719" y1="400" y2="405" /><text  class="poloto_tick_labels poloto_text" alignment-baseline="start" text-anchor="middle" x="614.5760743321719" y="430" > 22:13:20</text><line  class="poloto_axis_lines" stroke="black" x1="150" x2="144" y1="369.96699669966995" y2="369.96699669966995" /><text  class="poloto_tick_labels poloto_text" alignment-baseline="middle" text-anchor="end" x="135" y="369.96699669966995" > 1000</text><line  class="poloto_axis_lines" stroke="black" x1="150" x2="144" y1="287.45874587458746" y2="287.45874587458746" /><text  class="poloto_tick_labels poloto_text" alignment-baseline="middle" text-anchor="end" x="135" y="287.45874587458746" > 1500</text><line  class="poloto_axis_lines" stroke="black" x1="150" x2="144" y1="204.95049504950492" y2="204.95049504950492" /><text  class="poloto_tick_labels poloto_text" alignment-baseline="middle" text-anchor="end" x="135" y="204.95049504950492" > 2000</text><line  class="poloto_axis_lines" stroke="black" x1="150" x2="144" y1="122.44224422442244" y2="122.44224422442244" /><text  class="poloto_tick_labels poloto_text" alignment-baseline="middle" text-anchor="end" x="135" y="122.44224422442244" > 2500</text><path  stroke="black" fill="none" class="poloto_axis_lines" style="stroke-dasharray:14.518002322880372;stroke-dashoffset:-0;" d=" M 150 400 L 650 400" /><path  stroke="black" fill="none" class="poloto_axis_lines" style="stroke-dasharray:8.250825082508252;stroke-dashoffset:-30.03300330033005;" d=" M 150 400 L 150 100" /></svg>