<svg class="poloto" width="800" height="500" viewBox="0 0 800 500" xmlns="http://www.w3.org/2000/svg"><style>.poloto { stroke-linecap:round; stroke-linejoin:round; font-family: 'Tahoma', sans-serif; background-color: AliceBlue;} .poloto_scatter{stroke-width:7} .poloto_line{stroke-width:2} .poloto_text{fill: black;} .poloto_axis_lines{stroke: black;stroke-width:3;fill:none;stroke-dasharray:none} .poloto0stroke{stroke:  blue;} .poloto1stroke{stroke:  red;} .poloto2stroke{stroke:  green;} .poloto3stroke{stroke:  gold;} .poloto4stroke{stroke:  aqua;} .poloto5stroke{stroke:  lime;} .poloto6stroke{stroke:  orange;} .poloto7stroke{stroke:  chocolate;} .poloto0fill{fill:blue;} .poloto1fill{fill:red;} .poloto2fill{fill:green;} .poloto3fill{fill:gold;} .poloto4fill{fill:aqua;} .poloto5fill{fill:lime;} .poloto6fill{fill:orange;} .poloto7fill{fill:chocolate;}</style><text  class="poloto_text poloto_legend_text" alignment-baseline="middle" text-anchor="start" font-size="large" x="675" y="100" ></text><path  class="poloto_linefill poloto0fill" d=" M 150 400 L 150 266.7976424361493 L 151.74216027874564 271.63064833005893 L 153.4843205574913 273.39882121807466 L 155.22648083623693 277.8781925343811 L 156.96864111498257 278.46758349705306 L 158.71080139372822 279.4106090373281 L 160.45296167247386 284.24361493123774 L 162.1951219512195 287.07269155206285 L 163.93728222996515 283.6542239685658 L 165.6794425087108 288.1335952848723 L 167.42160278745644 289.901768172888 L 169.16376306620208 291.66994106090374 L 170.90592334494772 289.901768172888 L 172.64808362369337 288.48722986247543 L 174.390243902439 261.8467583497053 L 176.13240418118465 261.96463654223965 L 177.8745644599303 279.2927308447937 L 179.61672473867597 273.516699410609 L 181.3588850174216 281.53241650294694 L 183.10104529616726 275.6385068762279 L 184.8432055749129 252.4165029469548 L 186.58536585365854 292.61296660117875 L 188.3275261324042 288.36935166994107 L 190.06968641114983 295.5599214145383 L 191.81184668989548 284.00785854616896 L 193.55400696864112 280.7072691552063 L 195.29616724738676 296.03143418467585 L 197.0383275261324 296.97445972495086 L 198.78048780487805 293.6738703339882 L 200.5226480836237 295.6777996070727 L 202.26480836236934 293.2023575638507 L 204.00696864111498 291.1984282907662 L 205.74912891986062 291.7878192534381 L 207.49128919860627 292.0235756385069 L 209.2334494773519 293.5559921414538 L 210.97560975609755 293.32023575638505 L 212.7177700348432 292.84872298624754 L 214.45993031358887 293.909626719057 L 216.2020905923345 293.0844793713163 L 217.94425087108016 297.4459724950884 L 219.6864111498258 296.97445972495086 L 221.42857142857144 296.26719056974457 L 223.1707317073171 297.0923379174853 L 224.91289198606273 300.0392927308448 L 226.65505226480838 301.45383104125733 L 228.39721254355402 300.6286836935167 L 230.13937282229966 299.4499017681729 L 231.8815331010453 302.1611001964636 L 233.62369337979095 307.229862475442 L 235.3658536585366 308.6444007858546 L 237.10801393728224 308.6444007858546 L 238.85017421602788 307.34774066797644 L 240.59233449477352 307.229862475442 L 242.33449477351917 308.6444007858546 L 244.0766550522648 306.286836935167 L 245.81881533101046 308.05500982318273 L 247.5609756097561 304.9901768172888 L 249.30313588850174 301.2180746561886 L 251.0452961672474 306.40471512770137 L 252.78745644599303 303.2220039292731 L 254.52961672473867 299.5677799607073 L 256.2717770034843 296.26719056974457 L 258.01393728222996 292.25933202357567 L 259.7560975609756 289.78388998035365 L 261.49825783972125 285.5402750491159 L 263.2404181184669 282.0039292730845 L 264.98257839721254 277.524557956778 L 266.7247386759582 275.28487229862475 L 268.4668989547038 272.9273084479371 L 270.20905923344947 271.5127701375245 L 271.9512195121951 270.68762278978386 L 273.69337979094075 270.5697445972495 L 275.4355400696864 267.74066797642433 L 277.17770034843204 269.8624754420432 L 278.91986062717774 270.33398821218077 L 280.6620209059233 271.1591355599214 L 282.404181184669 272.573673870334 L 284.1463414634146 273.1630648330059 L 285.8885017421603 272.10216110019644 L 287.6306620209059 270.098231827112 L 289.3728222996516 272.69155206286837 L 291.1149825783972 273.87033398821217 L 292.8571428571429 273.87033398821217 L 294.5993031358885 275.04911591355597 L 296.3414634146342 280.35363457760315 L 298.08362369337976 280.5893909626719 L 299.82578397212546 279.0569744597249 L 301.56794425087105 280.4715127701375 L 303.31010452961675 279.4106090373281 L 305.05226480836234 276.5815324165029 L 306.79442508710804 275.52062868369353 L 308.5365853658536 274.3418467583497 L 310.2787456445993 277.17092337917484 L 312.0209059233449 278.46758349705306 L 313.7630662020906 275.75638506876226 L 315.5052264808362 273.1630648330059 L 317.2473867595819 271.5127701375245 L 318.9895470383275 271.2770137524558 L 320.7317073170732 270.8055009823183 L 322.4738675958188 267.8585461689587 L 324.2160278745645 267.62278978388997 L 325.9581881533101 267.8585461689587 L 327.70034843205576 269.8624754420432 L 329.4425087108014 268.09430255402754 L 331.18466898954705 264.20432220039294 L 332.9268292682927 262.4361493123772 L 334.66898954703834 263.96856581532415 L 336.411149825784 259.0176817288801 L 338.1533101045296 257.60314341846754 L 339.89547038327527 255.0098231827112 L 341.6376306620209 255.83497053045187 L 343.37979094076655 253.0058939096267 L 345.1219512195122 251.00196463654223 L 346.86411149825784 248.0550098231827 L 348.6062717770035 245.5795677799607 L 350.34843205574913 244.28290766208252 L 352.0905923344948 245.10805500982318 L 353.8327526132404 323.96856581532415 L 355.57491289198606 400 L 357.3170731707317 400 L 359.05923344947735 400 L 360.801393728223 400 L 362.54355400696863 242.75049115913555 L 364.2857142857143 236.38506876227896 L 366.0278745644599 233.0844793713163 L 367.77003484320556 236.38506876227896 L 369.5121951219512 229.43025540275048 L 371.25435540069685 222.12180746561884 L 372.9965156794425 227.07269155206285 L 374.73867595818814 233.55599214145383 L 376.4808362369338 222.35756385068763 L 378.2229965156795 226.2475442043222 L 379.96515679442507 229.19449901768172 L 381.70731707317077 218.23182711198427 L 383.44947735191636 218.34970530451866 L 385.19163763066206 212.10216110019647 L 386.93379790940764 214.4597249508841 L 388.67595818815334 211.63064833005893 L 390.41811846689893 209.9803536345776 L 392.16027874564463 200.78585461689588 L 393.9024390243902 198.7819253438114 L 395.6445993031359 195.24557956777994 L 397.3867595818815 200.07858546168958 L 399.1289198606272 196.07072691552062 L 400.8710801393728 193.47740667976424 L 402.6132404181185 192.06286836935166 L 404.3554006968641 185.69744597249507 L 406.0975609756098 180.98231827111982 L 407.8397212543554 181.45383104125736 L 409.58188153310107 188.0550098231827 L 411.3240418118467 181.57170923379175 L 413.06620209059236 179.92141453831042 L 414.808362369338 179.09626719056973 L 416.55052264808364 169.19449901768172 L 418.2926829268293 167.19056974459724 L 420.03484320557493 169.66601178781926 L 421.7770034843206 163.65422396856582 L 423.5191637630662 165.5402750491159 L 425.26132404181186 167.19056974459724 L 427.0034843205575 153.28094302554027 L 428.74564459930315 146.09037328094303 L 430.4878048780488 143.73280943025537 L 432.22996515679444 143.49705304518665 L 433.9721254355401 140.66797642436148 L 435.7142857142857 131.47347740667976 L 437.45644599303137 125.46168958742629 L 439.198606271777 125.22593320235757 L 440.94076655052265 127.4656188605108 L 442.6829268292683 126.286836935167 L 444.42508710801394 127.11198428290766 L 446.1672473867596 126.52259332023573 L 447.9094076655052 128.88015717092338 L 449.65156794425087 130.41257367387033 L 451.3937282229965 128.6444007858546 L 453.13588850174216 130.5304518664047 L 454.8780487804878 129.8231827111984 L 456.62020905923345 124.75442043222006 L 458.3623693379791 125.57956777996071 L 460.10452961672473 121.10019646365424 L 461.8466898954704 121.10019646365424 L 463.588850174216 116.97445972495086 L 465.33101045296166 112.9666011787819 L 467.0731707317073 112.49508840864439 L 468.81533101045295 109.4302554027505 L 470.5574912891986 109.54813359528487 L 472.29965156794424 102.82907662082516 L 474.0418118466899 100 L 475.7839721254355 102.47544204322202 L 477.52613240418117 102.23968565815323 L 479.2682926829268 102.12180746561887 L 481.01045296167246 105.18664047151276 L 482.7526132404181 112.9666011787819 L 484.49477351916374 114.85265225933199 L 486.2369337979094 120.62868369351668 L 487.97909407665503 125.69744597249507 L 489.7212543554007 123.22200392927306 L 491.4634146341463 127.22986247544202 L 493.20557491289196 129.3516699410609 L 494.9477351916376 130.05893909626718 L 496.68989547038325 135.36345776031436 L 498.4320557491289 140.90373280943027 L 500.17421602787454 152.33791748526522 L 501.91637630662024 145.73673870333988 L 503.6585365853659 151.2770137524558 L 505.4006968641115 153.28094302554027 L 507.14285714285717 165.5402750491159 L 508.8850174216028 168.72298624754418 L 510.62717770034845 166.60117878192534 L 512.3693379790941 167.66208251473478 L 514.1114982578397 177.4459724950884 L 515.8536585365854 171.0805500982318 L 517.5958188153311 174.02750491159134 L 519.3379790940767 184.63654223968564 L 521.0801393728223 201.02161100196463 L 522.822299651568 195.5992141453831 L 524.5644599303137 182.86836935166994 L 526.3066202090592 181.57170923379175 L 528.0487804878048 193.0058939096267 L 529.7909407665505 190.53045186640472 L 531.5331010452962 188.1728880157171 L 533.2752613240418 188.99803536345775 L 535.0174216027874 188.52652259332024 L 536.7595818815331 189.46954813359528 L 538.5017421602788 198.0746561886051 L 540.2439024390244 186.52259332023576 L 541.98606271777 182.3968565815324 L 543.7282229965157 183.1041257367387 L 545.4703832752614 189.70530451866404 L 547.212543554007 186.1689587426326 L 548.9547038327526 186.8762278978389 L 550.6968641114983 190.29469548133594 L 552.439024390244 188.762278978389 L 554.1811846689895 185.22593320235757 L 555.9233449477351 178.27111984282908 L 557.6655052264808 193.24165029469546 L 559.4076655052265 183.6935166994106 L 561.1498257839721 186.64047151277012 L 562.8919860627177 187.70137524557956 L 564.6341463414634 186.8762278978389 L 566.3763066202091 192.5343811394892 L 568.1184668989547 188.88015717092338 L 569.8606271777003 186.99410609037326 L 571.602787456446 185.81532416502947 L 573.3449477351917 188.0550098231827 L 575.0871080139373 186.64047151277012 L 576.8292682926829 192.77013752455795 L 578.5714285714286 194.53831041257368 L 580.3135888501743 193.8310412573674 L 582.0557491289198 191.70923379174852 L 583.7979094076654 192.65225933202356 L 585.5400696864111 191.11984282907662 L 587.2822299651568 195.83497053045187 L 589.0243902439024 197.9567779960707 L 590.766550522648 197.13163064833006 L 592.5087108013937 198.664047151277 L 594.2508710801394 197.72102161100196 L 595.993031358885 204.67583497053045 L 597.7351916376306 199.84282907662083 L 599.4773519163763 198.7819253438114 L 601.219512195122 204.67583497053045 L 602.9616724738676 207.03339882121807 L 604.7038327526133 208.33005893909626 L 606.445993031359 212.33791748526522 L 608.1881533101046 220 L 609.9303135888501 221.1787819253438 L 611.6724738675958 224.24361493123772 L 613.4146341463415 227.77996070726914 L 615.1567944250871 229.54813359528487 L 616.8989547038327 232.02357563850688 L 618.6411149825784 235.20628683693516 L 620.3832752613241 238.62475442043223 L 622.1254355400697 238.62475442043223 L 623.8675958188153 241.1001964636542 L 625.609756097561 242.6326129666012 L 627.3519163763067 245.93320235756386 L 629.0940766550523 244.28290766208252 L 630.8362369337979 255.83497053045187 L 632.5783972125436 255.12770137524558 L 634.3205574912893 261.02161100196463 L 636.0627177700349 261.7288801571709 L 637.8048780487804 263.614931237721 L 639.5470383275261 262.31827111984285 L 641.2891986062718 260.4322200392927 L 643.0313588850174 265.147347740668 L 644.773519163763 267.03339882121804 L 646.5156794425087 266.32612966601175 L 648.2578397212544 266.56188605108053 L 650 267.74066797642433 L 650 400 Z" /><text  class="poloto_labels poloto_text poloto_title" alignment-baseline="start" text-anchor="middle" font-size="x-large" x="400" y="37.5" >Total players on 2021-11-22</text><text  class="poloto_labels poloto_text poloto_xname" alignment-baseline="start" text-anchor="middle" font-size="x-large" x="400" y="481.25" >Time</text><text  class="poloto_labels poloto_text poloto_yname" alignment-baseline="start" text-anchor="middle" font-size="x-large" transform="rotate(-90,37.5,250)" x="37.5" y="250" >Count</text><line  class="poloto_axis_lines" stroke="black" x1="150" x2="150" y1="400" y2="405" /><text  class="poloto_tick_labels poloto_text" alignment-baseline="start" text-anchor="middle" x="150" y="430" > 00:00:00</text><line  class="poloto_axis_lines" stroke="black" x1="266.14401858304296" x2="266.14401858304296" y1="400" y2="405" /><text  class="poloto_tick_labels poloto_text" alignment-baseline="start" text-anchor="middle" x="266.14401858304296" y="430" > 05:33:20</text><line  class="poloto_axis_lines" stroke="black" x1="382.2880371660859" x2="382.2880371660859" y1="400" y2="405" /><text  class="poloto_tick_labels poloto_text" alignment-baseline="start" text-anchor="middle" x="382.2880371660859" y="430" > 11:06:40</text><line  class="poloto_axis_lines" stroke="black" x1="498.4320557491289" x2="498.4320557491289" y1="400" y2="405" /><text  class="poloto_tick_labels poloto_text" alignment-baseline="start" text-anchor="middle" x="498.4320557491289" y="430" > 16:40:00</text><line  class="poloto_axis_lines" stroke="black" x1="614.5760743321719" x2="614.5760743321719" y1="400" y2="405" /><text  class="poloto_tick_labels poloto_text" alignment-baseline="start" text-anchor="middle" x="614.5760743321719" y="430" > 22:13:20</text><line  class="poloto_axis_lines" stroke="black" x1="150" x2="144" y1="400" y2="400" /><text  class="poloto_tick_labels poloto_text" alignment-baseline="middle" text-anchor="end" x="135" y="400" > 0</text><line  class="poloto_axis_lines" stroke="black" x1="150" x2="144" y1="341.06090373280944" y2="341.06090373280944" /><text  class="poloto_tick_labels poloto_text" alignment-baseline="middle" text-anchor="end" x="135" y="341.06090373280944" > 500</text><line  class="poloto_axis_lines" stroke="black" x1="150" x2="144" y1="282.1218074656189" y2="282.1218074656189" /><text  class="poloto_tick_labels poloto_text" alignment-baseline="middle" text-anchor="end" x="135" y="282.1218074656189" > 1000</text><line  class="poloto_axis_lines" stroke="black" x1="150" x2="144" y1="223.18271119842825" y2="223.18271119842825" /><text  class="poloto_tick_labels poloto_text" alignment-baseline="middle" text-anchor="end" x="135" y="223.18271119842825" > 1500</text><line  class="poloto_axis_lines" stroke="black" x1="150" x2="144" y1="164.24361493123774" y2="164.24361493123774" /><text  class="poloto_tick_labels poloto_text" alignment-baseline="middle" text-anchor="end" x="135" y="164.24361493123774" > 2000</text><line  class="poloto_axis_lines" stroke="black" x1="150" x2="144" y1="105.30451866404712" y2="105.30451866404712" /><text  class="poloto_tick_labels poloto_text" alignment-baseline="middle" text-anchor="end" x="135" y="105.30451866404712" > 2500</text><path  stroke="black" fill="none" class="poloto_axis_lines" style="stroke-dasharray:14.518002322880372;stroke-dashoffset:-0;" d=" M 150 400 L 650 400" /><path  stroke="black" fill="none" class="poloto_axis_lines" style="stroke-dasharray:5.893909626719057;stroke-dashoffset:-0;" d=" M 150 400 L 150 100" /></svg>