<svg class="poloto" width="800" height="500" viewBox="0 0 800 500" xmlns="http://www.w3.org/2000/svg"><style>.poloto { stroke-linecap:round; stroke-linejoin:round; font-family: 'Tahoma', sans-serif; background-color: AliceBlue;} .poloto_scatter{stroke-width:7} .poloto_line{stroke-width:2} .poloto_text{fill: black;} .poloto_axis_lines{stroke: black;stroke-width:3;fill:none;stroke-dasharray:none} .poloto0stroke{stroke:  blue;} .poloto1stroke{stroke:  red;} .poloto2stroke{stroke:  green;} .poloto3stroke{stroke:  gold;} .poloto4stroke{stroke:  aqua;} .poloto5stroke{stroke:  lime;} .poloto6stroke{stroke:  orange;} .poloto7stroke{stroke:  chocolate;} .poloto0fill{fill:blue;} .poloto1fill{fill:red;} .poloto2fill{fill:green;} .poloto3fill{fill:gold;} .poloto4fill{fill:aqua;} .poloto5fill{fill:lime;} .poloto6fill{fill:orange;} .poloto7fill{fill:chocolate;}</style><text  class="poloto_text poloto_legend_text" alignment-baseline="middle" text-anchor="start" font-size="large" x="675" y="100" ></text><path  class="poloto_linefill poloto0fill" d=" M 150 400 L 150 325.54086538461536 L 151.74216027874564 327.16346153846155 L 153.4843205574913 326.4423076923077 L 155.22648083623693 336.3581730769231 L 156.96864111498257 338.52163461538464 L 158.71080139372822 337.9807692307692 L 160.45296167247386 346.27403846153845 L 162.1951219512195 353.30528846153845 L 163.93728222996515 353.125 L 165.6794425087108 357.63221153846155 L 167.42160278745644 361.4182692307692 L 169.16376306620208 367.1875 L 170.90592334494772 371.875 L 172.64808362369337 364.30288461538464 L 174.390243902439 364.30288461538464 L 176.13240418118465 361.4182692307692 L 177.8745644599303 363.9423076923077 L 179.61672473867597 371.5144230769231 L 181.3588850174216 367.1875 L 183.10104529616726 375.3004807692308 L 184.8432055749129 373.1370192307692 L 186.58536585365854 370.07211538461536 L 188.3275261324042 378.0048076923077 L 190.06968641114983 377.2836538461538 L 191.81184668989548 382.3317307692308 L 193.55400696864112 385.0360576923077 L 195.29616724738676 383.77403846153845 L 197.0383275261324 386.6586538461538 L 198.78048780487805 387.0192307692308 L 200.5226480836237 385.75721153846155 L 202.26480836236934 386.11778846153845 L 204.00696864111498 379.44711538461536 L 205.74912891986062 383.77403846153845 L 207.49128919860627 386.11778846153845 L 209.2334494773519 382.15144230769226 L 210.97560975609755 387.1995192307692 L 212.7177700348432 379.44711538461536 L 214.45993031358887 381.43028846153845 L 216.2020905923345 383.77403846153845 L 217.94425087108016 379.6274038461538 L 219.6864111498258 376.74278846153845 L 221.42857142857144 378.90625 L 223.1707317073171 386.47836538461536 L 224.91289198606273 394.2307692307692 L 226.65505226480838 394.77163461538464 L 228.39721254355402 395.85336538461536 L 230.13937282229966 395.3125 L 231.8815331010453 400 L 233.62369337979095 397.11538461538464 L 235.3658536585366 394.77163461538464 L 237.10801393728224 398.3774038461538 L 238.85017421602788 396.3942307692308 L 240.59233449477352 390.9855769230769 L 242.33449477351917 393.87019230769226 L 244.0766550522648 397.83653846153845 L 245.81881533101046 396.7548076923077 L 247.5609756097561 396.7548076923077 L 249.30313588850174 391.3461538461538 L 251.0452961672474 392.0673076923077 L 252.78745644599303 392.96875 L 254.52961672473867 391.8870192307692 L 256.2717770034843 393.3293269230769 L 258.01393728222996 393.3293269230769 L 259.7560975609756 391.3461538461538 L 261.49825783972125 389.3629807692308 L 263.2404181184669 384.13461538461536 L 264.98257839721254 380.8894230769231 L 266.7247386759582 378.0048076923077 L 268.4668989547038 373.8581730769231 L 270.20905923344947 376.2019230769231 L 271.9512195121951 376.2019230769231 L 273.69337979094075 377.6442307692308 L 275.4355400696864 379.9879807692308 L 277.17770034843204 383.9543269230769 L 278.9198606271777 381.25 L 280.6620209059233 375.6610576923077 L 282.40418118466897 368.4495192307692 L 284.1463414634146 367.72836538461536 L 285.88850174216026 361.2379807692308 L 287.6306620209059 353.4855769230769 L 289.37282229965155 352.2235576923077 L 291.1149825783972 350.60096153846155 L 292.85714285714283 344.1105769230769 L 294.5993031358885 340.6850961538462 L 296.3414634146342 345.1923076923077 L 298.08362369337976 343.75 L 299.82578397212546 346.8149038461538 L 301.56794425087105 349.33894230769226 L 303.31010452961675 353.30528846153845 L 305.05226480836234 353.4855769230769 L 306.79442508710804 346.8149038461538 L 308.5365853658536 355.64903846153845 L 310.2787456445993 357.8125 L 312.0209059233449 362.31971153846155 L 313.7630662020906 363.40144230769226 L 315.5052264808362 360.15625 L 317.2473867595819 361.4182692307692 L 318.9895470383275 363.40144230769226 L 320.7317073170732 363.04086538461536 L 322.4738675958188 366.4663461538462 L 324.2160278745645 361.7788461538462 L 325.95818815331006 359.0745192307692 L 327.70034843205576 356.7307692307692 L 329.44250871080135 352.4038461538462 L 331.18466898954705 350.24038461538464 L 332.92682926829264 343.20913461538464 L 334.66898954703834 345.0120192307692 L 336.4111498257839 337.4399038461538 L 338.1533101045296 335.0961538461538 L 339.8954703832752 335.4567307692308 L 341.6376306620209 332.3918269230769 L 343.3797909407665 328.7860576923077 L 345.1219512195122 323.3774038461538 L 346.86411149825784 319.0504807692308 L 348.6062717770035 320.85336538461536 L 350.34843205574913 322.47596153846155 L 352.0905923344948 314.1826923076923 L 353.8327526132404 310.5769230769231 L 355.57491289198606 299.21875 L 357.3170731707317 299.5793269230769 L 359.05923344947735 301.74278846153845 L 360.801393728223 291.1057692307692 L 362.54355400696863 289.12259615384613 L 364.2857142857143 283.53365384615387 L 366.0278745644599 286.0576923076923 L 367.77003484320556 286.2379807692308 L 369.5121951219512 286.95913461538464 L 371.25435540069685 284.61538461538464 L 372.9965156794425 288.4014423076923 L 374.73867595818814 281.00961538461536 L 376.4808362369338 283.53365384615387 L 378.2229965156794 289.30288461538464 L 379.96515679442507 269.6514423076923 L 381.7073170731707 261.17788461538464 L 383.44947735191636 262.9807692307692 L 385.191637630662 264.60336538461536 L 386.93379790940764 265.1442307692308 L 388.6759581881533 262.0793269230769 L 390.41811846689893 264.4230769230769 L 392.1602787456446 270.55288461538464 L 393.9024390243902 255.76923076923077 L 395.6445993031359 249.6394230769231 L 397.3867595818815 249.45913461538464 L 399.1289198606272 250 L 400.8710801393728 251.44230769230768 L 402.6132404181185 252.52403846153845 L 404.3554006968641 250.90144230769232 L 406.0975609756097 250.54086538461536 L 407.83972125435537 243.14903846153845 L 409.581881533101 240.08413461538464 L 411.32404181184666 237.01923076923077 L 413.0662020905923 230.52884615384613 L 414.80836236933794 227.64423076923077 L 416.5505226480836 226.2019230769231 L 418.29268292682923 228.36538461538464 L 420.0348432055749 218.44951923076923 L 421.7770034843206 214.4831730769231 L 423.5191637630662 211.23798076923077 L 425.26132404181186 204.74759615384613 L 427.0034843205575 206.73076923076923 L 428.74564459930315 202.22355769230768 L 430.4878048780488 197.53605769230768 L 432.22996515679444 188.7019230769231 L 433.9721254355401 185.45673076923077 L 435.7142857142857 186.17788461538464 L 437.45644599303137 173.73798076923077 L 439.198606271777 177.16346153846155 L 440.94076655052265 169.05048076923077 L 442.6829268292683 164.00240384615387 L 444.42508710801394 158.77403846153845 L 446.1672473867596 156.97115384615387 L 447.9094076655052 162.19951923076923 L 449.65156794425087 160.39663461538464 L 451.3937282229965 164.00240384615387 L 453.13588850174216 154.62740384615387 L 454.8780487804878 149.03846153846155 L 456.62020905923345 152.46394230769232 L 458.3623693379791 145.07211538461536 L 460.10452961672473 146.5144230769231 L 461.8466898954704 135.87740384615387 L 463.588850174216 134.25480769230768 L 465.33101045296166 129.92788461538464 L 467.0731707317073 121.99519230769232 L 468.81533101045295 125.06009615384613 L 470.5574912891986 121.4543269230769 L 472.29965156794424 120.01201923076923 L 474.0418118466899 127.94471153846155 L 475.7839721254355 110.81730769230768 L 477.52613240418117 106.49038461538464 L 479.2682926829268 102.34375 L 481.01045296167246 100 L 482.7526132404181 103.06490384615387 L 484.49477351916374 102.88461538461536 L 486.2369337979094 104.50721153846155 L 487.97909407665503 103.42548076923077 L 489.7212543554007 100.3605769230769 L 491.4634146341463 108.65384615384613 L 493.20557491289196 112.43990384615387 L 494.9477351916376 118.3894230769231 L 496.68989547038325 130.28846153846155 L 498.4320557491289 129.38701923076923 L 500.17421602787454 131.00961538461536 L 501.9163763066202 140.38461538461536 L 503.6585365853658 145.97355769230768 L 505.40069686411147 147.2355769230769 L 507.1428571428571 148.8581730769231 L 508.88501742160275 154.08653846153845 L 510.6271777003484 156.06971153846155 L 512.3693379790941 160.21634615384613 L 514.1114982578397 158.05288461538464 L 515.8536585365853 153.00480769230768 L 517.595818815331 158.59375 L 519.3379790940767 171.75480769230768 L 521.0801393728223 166.52644230769232 L 522.822299651568 171.57451923076923 L 524.5644599303137 171.75480769230768 L 526.3066202090592 178.24519230769232 L 528.0487804878048 183.83413461538464 L 529.7909407665505 189.78365384615387 L 531.5331010452962 183.65384615384613 L 533.2752613240418 191.40625 L 535.0174216027874 192.30769230769232 L 536.7595818815331 184.7355769230769 L 538.5017421602788 190.50480769230768 L 540.2439024390244 185.45673076923077 L 541.98606271777 192.48798076923077 L 543.7282229965157 187.98076923076923 L 545.4703832752614 190.50480769230768 L 547.212543554007 195.19230769230768 L 548.9547038327526 195.55288461538464 L 550.6968641114983 200.60096153846155 L 552.439024390244 204.92788461538464 L 554.1811846689895 214.66346153846155 L 555.9233449477351 209.43509615384613 L 557.6655052264808 207.8125 L 559.4076655052265 210.15625 L 561.1498257839721 210.15625 L 562.8919860627177 217.90865384615387 L 564.6341463414634 222.59615384615387 L 566.3763066202091 224.21875 L 568.1184668989547 227.64423076923077 L 569.8606271777003 225.12019230769232 L 571.602787456446 217.72836538461536 L 573.3449477351917 222.41586538461536 L 575.0871080139373 225.12019230769232 L 576.8292682926829 218.81009615384613 L 578.5714285714286 211.23798076923077 L 580.3135888501743 204.74759615384613 L 582.0557491289198 201.50240384615387 L 583.7979094076654 206.55048076923077 L 585.5400696864111 211.23798076923077 L 587.2822299651568 211.23798076923077 L 589.0243902439024 223.49759615384613 L 590.766550522648 231.06971153846155 L 592.5087108013937 236.11778846153845 L 594.2508710801394 234.13461538461536 L 595.993031358885 235.9375 L 597.7351916376306 227.82451923076923 L 599.4773519163763 226.74278846153845 L 601.219512195122 231.97115384615387 L 602.9616724738676 235.39663461538464 L 604.7038327526132 230.16826923076923 L 606.4459930313589 225.84134615384613 L 608.1881533101046 233.59375 L 609.9303135888501 241.34615384615387 L 611.6724738675957 249.81971153846155 L 613.4146341463414 252.34375 L 615.1567944250871 257.57211538461536 L 616.8989547038327 272.71634615384613 L 618.6411149825783 262.9807692307692 L 620.383275261324 280.64903846153845 L 622.1254355400697 281.9110576923077 L 623.8675958188153 290.2043269230769 L 625.609756097561 284.61538461538464 L 627.3519163763067 284.97596153846155 L 629.0940766550523 287.1394230769231 L 630.8362369337979 294.8918269230769 L 632.5783972125436 298.1370192307692 L 634.3205574912893 297.7764423076923 L 636.0627177700349 293.0889423076923 L 637.8048780487804 298.1370192307692 L 639.5470383275261 296.5144230769231 L 641.2891986062718 302.10336538461536 L 643.0313588850174 299.03846153846155 L 644.773519163763 303.0048076923077 L 646.5156794425087 306.6105769230769 L 648.2578397212544 306.25 L 650 310.75721153846155 L 650 400 Z" /><text  class="poloto_labels poloto_text poloto_title" alignment-baseline="start" text-anchor="middle" font-size="x-large" x="400" y="37.5" >Total players on 2021-06-15</text><text  class="poloto_labels poloto_text poloto_xname" alignment-baseline="start" text-anchor="middle" font-size="x-large" x="400" y="481.25" >Time</text><text  class="poloto_labels poloto_text poloto_yname" alignment-baseline="start" text-anchor="middle" font-size="x-large" transform="rotate(-90,37.5,250)" x="37.5" y="250" >Count</text><line  class="poloto_axis_lines" stroke="black" x1="208.0487804878049" x2="208.0487804878049" y1="400" y2="405" /><text  class="poloto_tick_labels poloto_text" alignment-baseline="start" text-anchor="middle" x="208.0487804878049" y="430" > 03:00</text><line  class="poloto_axis_lines" stroke="black" x1="266.1207897793264" x2="266.1207897793264" y1="400" y2="405" /><text  class="poloto_tick_labels poloto_text" alignment-baseline="start" text-anchor="middle" x="266.1207897793264" y="430" > 06:00</text><line  class="poloto_axis_lines" stroke="black" x1="324.19279907084785" x2="324.19279907084785" y1="400" y2="405" /><text  class="poloto_tick_labels poloto_text" alignment-baseline="start" text-anchor="middle" x="324.19279907084785" y="430" > 08:00</text><line  class="poloto_axis_lines" stroke="black" x1="382.2648083623693" x2="382.2648083623693" y1="400" y2="405" /><text  class="poloto_tick_labels poloto_text" alignment-baseline="start" text-anchor="middle" x="382.2648083623693" y="430" > 11:00</text><line  class="poloto_axis_lines" stroke="black" x1="440.3368176538908" x2="440.3368176538908" y1="400" y2="405" /><text  class="poloto_tick_labels poloto_text" alignment-baseline="start" text-anchor="middle" x="440.3368176538908" y="430" > 14:00</text><line  class="poloto_axis_lines" stroke="black" x1="498.4088269454123" x2="498.4088269454123" y1="400" y2="405" /><text  class="poloto_tick_labels poloto_text" alignment-baseline="start" text-anchor="middle" x="498.4088269454123" y="430" > 17:00</text><line  class="poloto_axis_lines" stroke="black" x1="556.4808362369338" x2="556.4808362369338" y1="400" y2="405" /><text  class="poloto_tick_labels poloto_text" alignment-baseline="start" text-anchor="middle" x="556.4808362369338" y="430" > 19:00</text><line  class="poloto_axis_lines" stroke="black" x1="614.5528455284552" x2="614.5528455284552" y1="400" y2="405" /><text  class="poloto_tick_labels poloto_text" alignment-baseline="start" text-anchor="middle" x="614.5528455284552" y="430" > 22:00</text><line  class="poloto_axis_lines" stroke="black" x1="150" x2="144" y1="394.4110576923077" y2="394.4110576923077" /><text  class="poloto_tick_labels poloto_text" alignment-baseline="middle" text-anchor="end" x="135" y="394.4110576923077" > 1000</text><line  class="poloto_axis_lines" stroke="black" x1="150" x2="144" y1="304.2668269230769" y2="304.2668269230769" /><text  class="poloto_tick_labels poloto_text" alignment-baseline="middle" text-anchor="end" x="135" y="304.2668269230769" > 1500</text><line  class="poloto_axis_lines" stroke="black" x1="150" x2="144" y1="214.12259615384613" y2="214.12259615384613" /><text  class="poloto_tick_labels poloto_text" alignment-baseline="middle" text-anchor="end" x="135" y="214.12259615384613" > 2000</text><line  class="poloto_axis_lines" stroke="black" x1="150" x2="144" y1="123.97836538461536" y2="123.97836538461536" /><text  class="poloto_tick_labels poloto_text" alignment-baseline="middle" text-anchor="end" x="135" y="123.97836538461536" > 2500</text><path  stroke="black" fill="none" class="poloto_axis_lines" style="stroke-dasharray:14.518002322880372;stroke-dashoffset:-58.04878048780488;" d=" M 150 400 L 650 400" /><path  stroke="black" fill="none" class="poloto_axis_lines" style="stroke-dasharray:9.014423076923077;stroke-dashoffset:-5.588942307692321;" d=" M 150 400 L 150 100" /></svg>