<svg class="poloto" width="800" height="500" viewBox="0 0 800 500" xmlns="http://www.w3.org/2000/svg"><style>.poloto { stroke-linecap:round; stroke-linejoin:round; font-family: 'Tahoma', sans-serif; background-color: AliceBlue;} .poloto_scatter{stroke-width:7} .poloto_line{stroke-width:2} .poloto_text{fill: black;} .poloto_axis_lines{stroke: black;stroke-width:3;fill:none;stroke-dasharray:none} .poloto0stroke{stroke:  blue;} .poloto1stroke{stroke:  red;} .poloto2stroke{stroke:  green;} .poloto3stroke{stroke:  gold;} .poloto4stroke{stroke:  aqua;} .poloto5stroke{stroke:  lime;} .poloto6stroke{stroke:  orange;} .poloto7stroke{stroke:  chocolate;} .poloto0fill{fill:blue;} .poloto1fill{fill:red;} .poloto2fill{fill:green;} .poloto3fill{fill:gold;} .poloto4fill{fill:aqua;} .poloto5fill{fill:lime;} .poloto6fill{fill:orange;} .poloto7fill{fill:chocolate;}</style><text  class="poloto_text poloto_legend_text" alignment-baseline="middle" text-anchor="start" font-size="large" x="675" y="100" ></text><path  class="poloto_linefill poloto0fill" d=" M 150 400 L 150 321.65259348612784 L 151.74216027874564 327.44270205066346 L 153.4843205574913 331.6043425814234 L 155.22648083623693 337.0325693606755 L 156.96864111498257 338.4800965018094 L 158.71080139372822 345.7177322074789 L 160.45296167247386 348.61278648974667 L 162.1951219512195 353.31724969843185 L 163.93728222996515 358.3835946924005 L 165.6794425087108 363.0880579010856 L 167.42160278745644 366.1640530759952 L 169.16376306620208 368.6972255729795 L 170.90592334494772 374.6682750301568 L 172.64808362369337 379.91556091676716 L 174.390243902439 384.9819059107358 L 176.13240418118465 400 L 177.8745644599303 387.15319662243667 L 179.61672473867597 373.76357056694815 L 181.3588850174216 383.3534378769602 L 183.10104529616726 385.524728588661 L 184.8432055749129 387.5150784077201 L 186.58536585365854 396.74306393244876 L 188.3275261324042 398.00965018094087 L 190.06968641114983 395.6574185765983 L 191.81184668989548 377.38238841978284 L 193.55400696864112 374.30639324487333 L 195.29616724738676 366.1640530759952 L 197.0383275261324 365.2593486127865 L 198.78048780487805 360.735826296743 L 200.5226480836237 365.80217129071167 L 202.26480836236934 365.9831121833534 L 204.00696864111498 363.4499396863691 L 205.74912891986062 357.4788902291918 L 207.49128919860627 356.0313630880579 L 209.2334494773519 345.3558504221954 L 210.97560975609755 348.0699638118215 L 212.7177700348432 345.17490952955364 L 214.45993031358887 337.5753920386007 L 216.2020905923345 343.18455971049457 L 217.94425087108016 341.0132689987937 L 219.6864111498258 333.77563329312426 L 221.42857142857144 329.61399276236426 L 223.1707317073171 329.2521109770808 L 224.91289198606273 321.83353437876957 L 226.65505226480838 320.20506634499395 L 228.39721254355402 316.40530759951747 L 230.13937282229966 317.12907117008444 L 231.8815331010453 316.94813027744266 L 233.62369337979095 314.2340168878166 L 235.3658536585366 315.1387213510253 L 237.10801393728224 306.99638118214716 L 238.85017421602788 308.6248492159228 L 240.59233449477352 306.81544028950543 L 242.33449477351917 304.46320868516284 L 244.0766550522648 302.65379975874544 L 245.81881533101046 303.73944511459587 L 247.5609756097561 302.65379975874544 L 249.30313588850174 303.1966224366707 L 251.0452961672474 311.8817852834741 L 252.78745644599303 307.1773220747889 L 254.52961672473867 310.79613992762364 L 256.2717770034843 313.5102533172497 L 258.01393728222996 306.4535585042219 L 259.7560975609756 308.6248492159228 L 261.49825783972125 311.51990349819056 L 263.2404181184669 313.6911942098914 L 264.98257839721254 314.77683956574185 L 266.7247386759582 314.9577804583836 L 268.4668989547038 306.2726176115802 L 270.20905923344947 303.73944511459587 L 271.9512195121951 304.1013268998794 L 273.69337979094075 298.4921592279855 L 275.4355400696864 293.6067551266586 L 277.17770034843204 286.7310012062726 L 278.91986062717774 282.56936067551266 L 280.6620209059233 279.31242460796136 L 282.404181184669 285.102533172497 L 284.1463414634146 286.55006031363087 L 285.8885017421603 279.13148371531963 L 287.6306620209059 275.1507840772014 L 289.3728222996516 272.6176115802171 L 291.1149825783972 273.5223160434258 L 292.8571428571429 268.0940892641737 L 294.5993031358885 269.7225572979493 L 296.3414634146342 263.02774427020506 L 298.08362369337976 272.6176115802171 L 299.82578397212546 266.465621230398 L 301.56794425087105 266.82750301568154 L 303.31010452961675 263.3896260554885 L 305.05226480836234 265.01809408926414 L 306.79442508710804 257.9613992762364 L 308.5365853658536 253.43787696019297 L 310.2787456445993 249.45717732207476 L 312.0209059233449 244.39083232810611 L 313.7630662020906 236.06755126658624 L 315.5052264808362 250 L 317.2473867595819 244.02895054282266 L 318.9895470383275 251.99034981905908 L 320.7317073170732 239.86731001206272 L 322.4738675958188 240.77201447527136 L 324.2160278745645 240.59107358262963 L 325.9581881533101 254.88540410132686 L 327.70034843205576 249.27623642943303 L 329.4425087108014 234.25814234016883 L 331.18466898954705 237.3341375150784 L 332.9268292682927 233.89626055488537 L 334.66898954703834 229.01085645355846 L 336.411149825784 221.59227985524728 L 338.1533101045296 221.773220747889 L 339.89547038327527 217.24969843184556 L 341.6376306620209 215.07840772014475 L 343.37979094076655 215.9831121833534 L 345.1219512195122 206.21230398069963 L 346.86411149825784 196.07961399276235 L 348.6062717770035 192.09891435464414 L 350.34843205574913 194.0892641737032 L 352.0905923344948 213.6308805790108 L 353.8327526132404 174.72858866103735 L 355.57491289198606 165.1387213510253 L 357.3170731707317 162.42460796139926 L 359.05923344947735 181.24246079613988 L 360.801393728223 167.67189384800963 L 362.54355400696863 163.69119420989142 L 364.2857142857143 160.2533172496984 L 366.0278745644599 162.78648974668272 L 367.77003484320556 164.41495778045834 L 369.5121951219512 168.9384800965018 L 371.25435540069685 157.9010856453558 L 372.9965156794425 183.232810615199 L 374.73867595818814 166.22436670687574 L 376.4808362369338 174.18576598311216 L 378.2229965156795 176.71893848009648 L 379.96515679442507 182.50904704463204 L 381.70731707317077 182.50904704463204 L 383.44947735191636 177.08082026537994 L 385.19163763066206 196.80337756332926 L 386.93379790940764 187.0325693606755 L 388.67595818815334 185.94692400482506 L 390.41811846689893 180.51869722557296 L 392.16027874564463 175.63329312424605 L 393.9024390243902 164.59589867310007 L 395.6445993031359 163.5102533172497 L 397.3867595818815 168.75753920386006 L 399.1289198606272 161.51990349819056 L 400.8710801393728 163.69119420989142 L 402.6132404181185 165.86248492159223 L 404.3554006968641 176.35705669481302 L 406.0975609756098 152.29191797346198 L 407.8397212543554 175.63329312424605 L 409.58188153310107 153.9203860072376 L 411.3240418118467 152.65379975874544 L 413.06620209059236 170.92882991556087 L 414.808362369338 158.44390832328105 L 416.55052264808364 163.14837153196618 L 418.2926829268293 154.46320868516284 L 420.03484320557493 146.50180940892636 L 421.7770034843206 162.0627261761158 L 423.5191637630662 145.416164053076 L 425.26132404181186 150.8443908323281 L 427.0034843205575 138.17852834740648 L 428.74564459930315 138.90229191797346 L 430.4878048780488 141.6164053075995 L 432.22996515679444 133.4740651387213 L 433.9721254355401 130.21712907117006 L 435.7142857142857 122.25572979493364 L 437.45644599303137 137.99758745476475 L 439.198606271777 116.82750301568149 L 440.94076655052265 117.73220747889019 L 442.6829268292683 119.90349819059105 L 444.42508710801394 123.88419782870926 L 446.1672473867596 124.78890229191796 L 447.9094076655052 119.17973462002408 L 449.65156794425087 118.09408926417365 L 451.3937282229965 134.01688781664654 L 453.13588850174216 118.81785283474062 L 454.8780487804878 115.3799758745476 L 456.62020905923345 123.5223160434258 L 458.3623693379791 121.17008443908321 L 460.10452961672473 109.9517490952955 L 461.8466898954704 99.99999999999994 L 463.588850174216 109.22798552472858 L 465.33101045296166 105.7901085645355 L 467.0731707317073 116.64656212303976 L 468.81533101045295 112.84680337756328 L 470.5574912891986 123.34137515078407 L 472.29965156794424 118.27503015681543 L 474.0418118466899 131.48371531966222 L 475.7839721254355 138.17852834740648 L 477.52613240418117 130.57901085645352 L 479.2682926829268 135.46441495778043 L 481.01045296167246 136.00723763570562 L 482.7526132404181 154.8250904704463 L 484.49477351916374 152.83474065138716 L 486.2369337979094 147.0446320868516 L 487.97909407665503 152.65379975874544 L 489.7212543554007 147.76839565741852 L 491.4634146341463 153.19662243667068 L 493.20557491289196 155.729794933655 L 494.9477351916376 164.59589867310007 L 496.68989547038325 172.55729794933654 L 498.4320557491289 179.43305186972253 L 500.17421602787454 184.6803377563329 L 501.91637630662024 186.1278648974668 L 503.6585365853659 189.92762364294327 L 505.4006968641115 194.45114595898673 L 507.14285714285717 194.8130277442702 L 508.8850174216028 197.3462002412545 L 510.62717770034845 197.16525934861278 L 512.3693379790941 197.3462002412545 L 514.1114982578397 204.94571773220747 L 515.8536585365854 207.4788902291918 L 517.5958188153311 219.42098914354642 L 519.3379790940767 215.4402895054282 L 521.0801393728223 219.42098914354642 L 522.822299651568 229.91556091676716 L 524.5644599303137 222.85886610373944 L 526.3066202090592 222.49698431845593 L 528.0487804878048 228.648974668275 L 529.7909407665505 233.89626055488537 L 531.5331010452962 234.0772014475271 L 533.2752613240418 239.5054282267792 L 535.0174216027874 230.82026537997587 L 536.7595818815331 238.96260554885401 L 538.5017421602788 235.70566948130278 L 540.2439024390244 234.25814234016883 L 541.98606271777 224.6682750301568 L 543.7282229965157 221.4113389626055 L 545.4703832752614 226.47768395657414 L 547.212543554007 235.8866103739445 L 548.9547038327526 233.53437876960191 L 550.6968641114983 242.94330518697222 L 552.439024390244 237.3341375150784 L 554.1811846689895 238.0579010856453 L 555.9233449477351 240.59107358262963 L 557.6655052264808 239.686369119421 L 559.4076655052265 243.48612786489747 L 561.1498257839721 235.34378769601926 L 562.8919860627177 221.95416164053074 L 564.6341463414634 223.94451145958982 L 566.3763066202091 225.21109770808198 L 568.1184668989547 234.80096501809408 L 569.8606271777003 247.82870928829914 L 571.602787456446 257.0566948130277 L 573.3449477351917 255.79010856453556 L 575.0871080139373 260.67551266586247 L 576.8292682926829 266.6465621230398 L 578.5714285714286 266.10373944511457 L 580.3135888501743 273.88419782870926 L 582.0557491289198 276.4173703256936 L 583.7979094076654 270.627261761158 L 585.5400696864111 284.55971049457173 L 587.2822299651568 287.99758745476475 L 589.0243902439024 291.6164053075995 L 590.766550522648 295.416164053076 L 592.5087108013937 291.25452352231605 L 594.2508710801394 297.0446320868516 L 595.993031358885 297.0446320868516 L 597.7351916376306 301.0253317249698 L 599.4773519163763 311.33896260554883 L 601.219512195122 314.2340168878166 L 602.9616724738676 322.3763570566948 L 604.7038327526133 328.3474065138721 L 606.445993031359 331.24246079613994 L 608.1881533101046 338.4800965018094 L 609.9303135888501 343.546441495778 L 611.6724738675958 350.2412545235223 L 613.4146341463415 348.9746682750301 L 615.1567944250871 351.145958986731 L 616.8989547038327 349.33655006031364 L 618.6411149825784 349.33655006031364 L 620.3832752613241 351.145958986731 L 622.1254355400697 354.583835946924 L 623.8675958188153 359.1073582629674 L 625.609756097561 363.0880579010856 L 627.3519163763067 364.3546441495778 L 629.0940766550523 365.80217129071167 L 630.8362369337979 370.50663449939685 L 632.5783972125436 372.3160434258142 L 634.3205574912893 375.93486127864895 L 636.0627177700349 378.8299155609168 L 637.8048780487804 380.82026537997587 L 639.5470383275261 382.81061519903494 L 641.2891986062718 382.4487334137515 L 643.0313588850174 385.524728588661 L 644.773519163763 387.15319662243667 L 646.5156794425087 390.77201447527136 L 648.2578397212544 391.85765983112185 L 650 398.55247285886605 L 650 400 Z" /><text  class="poloto_labels poloto_text poloto_title" alignment-baseline="start" text-anchor="middle" font-size="x-large" x="400" y="37.5" >Total players on 2021-10-31</text><text  class="poloto_labels poloto_text poloto_xname" alignment-baseline="start" text-anchor="middle" font-size="x-large" x="400" y="481.25" >Time</text><text  class="poloto_labels poloto_text poloto_yname" alignment-baseline="start" text-anchor="middle" font-size="x-large" transform="rotate(-90,37.5,250)" x="37.5" y="250" >Count</text><line  class="poloto_axis_lines" stroke="black" x1="150" x2="150" y1="400" y2="405" /><text  class="poloto_tick_labels poloto_text" alignment-baseline="start" text-anchor="middle" x="150" y="430" > 00:00:00</text><line  class="poloto_axis_lines" stroke="black" x1="266.14401858304296" x2="266.14401858304296" y1="400" y2="405" /><text  class="poloto_tick_labels poloto_text" alignment-baseline="start" text-anchor="middle" x="266.14401858304296" y="430" > 05:33:20</text><line  class="poloto_axis_lines" stroke="black" x1="382.2880371660859" x2="382.2880371660859" y1="400" y2="405" /><text  class="poloto_tick_labels poloto_text" alignment-baseline="start" text-anchor="middle" x="382.2880371660859" y="430" > 11:06:40</text><line  class="poloto_axis_lines" stroke="black" x1="498.4320557491289" x2="498.4320557491289" y1="400" y2="405" /><text  class="poloto_tick_labels poloto_text" alignment-baseline="start" text-anchor="middle" x="498.4320557491289" y="430" > 16:40:00</text><line  class="poloto_axis_lines" stroke="black" x1="614.5760743321719" x2="614.5760743321719" y1="400" y2="405" /><text  class="poloto_tick_labels poloto_text" alignment-baseline="start" text-anchor="middle" x="614.5760743321719" y="430" > 22:13:20</text><line  class="poloto_axis_lines" stroke="black" x1="150" x2="144" y1="352.2316043425814" y2="352.2316043425814" /><text  class="poloto_tick_labels poloto_text" alignment-baseline="middle" text-anchor="end" x="135" y="352.2316043425814" > 1500</text><line  class="poloto_axis_lines" stroke="black" x1="150" x2="144" y1="261.7611580217129" y2="261.7611580217129" /><text  class="poloto_tick_labels poloto_text" alignment-baseline="middle" text-anchor="end" x="135" y="261.7611580217129" > 2000</text><line  class="poloto_axis_lines" stroke="black" x1="150" x2="144" y1="171.29071170084438" y2="171.29071170084438" /><text  class="poloto_tick_labels poloto_text" alignment-baseline="middle" text-anchor="end" x="135" y="171.29071170084438" > 2500</text><path  stroke="black" fill="none" class="poloto_axis_lines" style="stroke-dasharray:14.518002322880372;stroke-dashoffset:-0;" d=" M 150 400 L 650 400" /><path  stroke="black" fill="none" class="poloto_axis_lines" style="stroke-dasharray:9.047044632086852;stroke-dashoffset:-47.76839565741858;" d=" M 150 400 L 150 100" /></svg>