<svg class="poloto" width="800" height="500" viewBox="0 0 800 500" xmlns="http://www.w3.org/2000/svg"><style>.poloto { stroke-linecap:round; stroke-linejoin:round; font-family: 'Tahoma', sans-serif; background-color: AliceBlue;} .poloto_scatter{stroke-width:7} .poloto_line{stroke-width:2} .poloto_text{fill: black;} .poloto_axis_lines{stroke: black;stroke-width:3;fill:none;stroke-dasharray:none} .poloto0stroke{stroke:  blue;} .poloto1stroke{stroke:  red;} .poloto2stroke{stroke:  green;} .poloto3stroke{stroke:  gold;} .poloto4stroke{stroke:  aqua;} .poloto5stroke{stroke:  lime;} .poloto6stroke{stroke:  orange;} .poloto7stroke{stroke:  chocolate;} .poloto0fill{fill:blue;} .poloto1fill{fill:red;} .poloto2fill{fill:green;} .poloto3fill{fill:gold;} .poloto4fill{fill:aqua;} .poloto5fill{fill:lime;} .poloto6fill{fill:orange;} .poloto7fill{fill:chocolate;}</style><text  class="poloto_text poloto_legend_text" alignment-baseline="middle" text-anchor="start" font-size="large" x="675" y="100" ></text><path  class="poloto_linefill poloto0fill" d=" M 150 400 L 150 337.91748526522593 L 151.74216027874564 335.55992141453834 L 153.4843205574913 340.2750491159136 L 155.22648083623693 346.56188605108053 L 156.96864111498257 338.1139489194499 L 158.71080139372822 337.524557956778 L 160.45296167247386 340.0785854616896 L 162.1951219512195 341.84675834970534 L 163.93728222996515 347.34774066797644 L 165.6794425087108 354.61689587426326 L 167.42160278745644 354.61689587426326 L 169.16376306620208 354.81335952848724 L 170.90592334494772 364.8330058939097 L 172.64808362369337 362.475442043222 L 174.390243902439 366.40471512770137 L 176.13240418118465 369.3516699410609 L 177.8745644599303 374.65618860510807 L 179.61672473867597 379.96070726915525 L 181.3588850174216 378.19253438113947 L 183.10104529616726 375.04911591355597 L 184.8432055749129 369.74459724950884 L 186.58536585365854 372.88801571709234 L 188.3275261324042 373.8703339882122 L 190.06968641114983 373.4774066797643 L 191.81184668989548 383.30058939096267 L 193.55400696864112 385.46168958742635 L 195.29616724738676 384.8722986247544 L 197.0383275261324 387.81925343811395 L 198.78048780487805 390.7662082514735 L 200.5226480836237 393.713163064833 L 202.26480836236934 391.74852652259335 L 204.00696864111498 396.6601178781925 L 205.74912891986062 395.08840864440083 L 207.49128919860627 400 L 209.2334494773519 399.803536345776 L 210.97560975609755 393.909626719057 L 212.7177700348432 389.3909626719057 L 214.45993031358887 391.74852652259335 L 216.2020905923345 389.5874263261297 L 217.94425087108016 390.3732809430255 L 219.6864111498258 392.9273084479371 L 221.42857142857144 388.60510805500985 L 223.1707317073171 388.60510805500985 L 224.91289198606273 382.9076620825148 L 226.65505226480838 387.426326129666 L 228.39721254355402 388.0157170923379 L 230.13937282229966 397.6424361493124 L 231.8815331010453 389.3909626719057 L 233.62369337979095 395.08840864440083 L 235.3658536585366 394.6954813359529 L 237.10801393728224 390.96267190569745 L 238.85017421602788 390.7662082514735 L 240.59233449477352 383.6935166994106 L 242.33449477351917 385.46168958742635 L 244.0766550522648 375.83497053045187 L 245.81881533101046 374.06679764243614 L 247.5609756097561 369.1552062868369 L 249.30313588850174 369.54813359528487 L 251.0452961672474 369.3516699410609 L 252.78745644599303 366.7976424361493 L 254.52961672473867 365.81532416502944 L 256.2717770034843 356.7779960707269 L 258.01393728222996 359.3320235756385 L 259.7560975609756 358.3497053045187 L 261.49825783972125 353.43811394891947 L 263.2404181184669 346.9548133595285 L 264.98257839721254 345.18664047151276 L 266.7247386759582 345.97249508840866 L 268.4668989547038 336.3457760314342 L 270.20905923344947 331.23772102161104 L 271.9512195121951 324.75442043222006 L 273.69337979094075 323.57563850687626 L 275.4355400696864 325.5402750491159 L 277.17770034843204 326.3261296660118 L 278.9198606271777 324.5579567779961 L 280.6620209059233 320.62868369351673 L 282.40418118466897 328.29076620825145 L 284.1463414634146 324.16502946954813 L 285.88850174216026 324.5579567779961 L 287.6306620209059 321.2180746561886 L 289.37282229965155 320.43222003929276 L 291.1149825783972 316.50294695481335 L 292.85714285714283 316.11001964636546 L 294.5993031358885 318.2711198428291 L 296.3414634146342 319.84282907662083 L 298.08362369337976 309.2337917485265 L 299.82578397212546 310.21611001964635 L 301.56794425087105 314.5383104125737 L 303.31010452961675 303.53634577603145 L 305.05226480836234 302.35756385068765 L 306.79442508710804 305.89390962671905 L 308.5365853658536 299.41060903732813 L 310.2787456445993 289.9803536345776 L 312.0209059233449 300.9823182711199 L 313.7630662020906 298.8212180746562 L 315.5052264808362 296.2671905697446 L 317.2473867595819 296.8565815324165 L 318.9895470383275 292.3379174852652 L 320.7317073170732 279.9607072691552 L 322.4738675958188 280.15717092337917 L 324.2160278745645 284.0864440078586 L 325.95818815331006 279.9607072691552 L 327.70034843205576 288.60510805500985 L 329.44250871080135 284.47937131630647 L 331.18466898954705 287.81925343811395 L 332.92682926829264 280.5500982318271 L 334.66898954703834 277.01375245579567 L 336.4111498257839 280.35363457760315 L 338.1533101045296 286.2475442043222 L 339.8954703832752 278.38899803536344 L 341.6376306620209 264.8330058939096 L 343.3797909407665 257.5638506876228 L 345.1219512195122 254.4204322200393 L 346.86411149825784 249.901768172888 L 348.6062717770035 244.4007858546169 L 350.34843205574913 234.9705304518664 L 352.0905923344948 235.7563850687623 L 353.8327526132404 237.1316306483301 L 355.57491289198606 233.20235756385068 L 357.3170731707317 239.68565815324166 L 359.05923344947735 237.52455795677798 L 360.801393728223 230.6483300589391 L 362.54355400696863 226.91552062868368 L 364.2857142857143 227.30844793713163 L 366.0278745644599 230.45186640471513 L 367.77003484320556 229.4695481335953 L 369.5121951219512 222.0039292730845 L 371.25435540069685 215.52062868369353 L 372.9965156794425 215.32416502946955 L 374.73867595818814 207.4656188605108 L 376.4808362369338 220.0392927308448 L 378.2229965156794 208.64440078585466 L 379.96515679442507 201.57170923379175 L 381.7073170731707 211.7878192534381 L 383.44947735191636 207.85854616895875 L 385.191637630662 202.94695481335953 L 386.93379790940764 216.8958742632613 L 388.6759581881533 209.23379174852653 L 390.41811846689893 223.77210216110024 L 392.1602787456446 212.77013752455798 L 393.9024390243902 215.12770137524558 L 395.6445993031359 208.2514734774067 L 397.3867595818815 209.23379174852653 L 399.1289198606272 203.73280943025543 L 400.8710801393728 204.51866404715128 L 402.6132404181185 209.23379174852653 L 404.3554006968641 194.69548133595288 L 406.0975609756097 232.41650294695484 L 407.83972125435537 192.5343811394892 L 409.581881533101 193.713163064833 L 411.32404181184666 196.8565815324165 L 413.0662020905923 197.44597249508843 L 414.80836236933794 185.65815324165033 L 416.5505226480836 196.26719056974463 L 418.29268292682923 186.44400785854617 L 420.0348432055749 190.37328094302558 L 421.7770034843206 193.90962671905697 L 423.5191637630662 208.05500982318273 L 425.26132404181186 201.17878192534386 L 427.0034843205575 190.96267190569745 L 428.74564459930315 180.55009823182712 L 430.4878048780488 182.51473477406682 L 432.22996515679444 185.26522593320237 L 433.9721254355401 174.26326129666012 L 435.7142857142857 177.21021611001964 L 437.45644599303137 163.26129666011792 L 439.198606271777 155.00982318271122 L 440.94076655052265 145.38310412573674 L 442.6829268292683 144.20432220039294 L 444.42508710801394 138.3104125736739 L 446.1672473867596 134.9705304518664 L 447.9094076655052 118.86051080550101 L 449.65156794425087 128.2907662082515 L 451.3937282229965 139.88212180746564 L 453.13588850174216 111.59135559921418 L 454.8780487804878 129.07662082514736 L 456.62020905923345 108.05500982318273 L 458.3623693379791 187.62278978388997 L 460.10452961672473 104.51866404715128 L 461.8466898954704 100 L 463.588850174216 122.78978388998036 L 465.33101045296166 131.434184675835 L 467.0731707317073 130.25540275049116 L 468.81533101045295 122.78978388998036 L 470.5574912891986 120.23575638506878 L 472.29965156794424 115.52062868369353 L 474.0418118466899 115.7170923379175 L 475.7839721254355 128.6836935166994 L 477.52613240418117 129.86247544204326 L 479.2682926829268 128.88015717092338 L 481.01045296167246 122.00392927308451 L 482.7526132404181 119.25343811394896 L 484.49477351916374 125.93320235756386 L 486.2369337979094 127.50491159135561 L 487.97909407665503 131.23772102161104 L 489.7212543554007 127.70137524557958 L 491.4634146341463 138.50687622789786 L 493.20557491289196 123.57563850687626 L 494.9477351916376 141.06090373280944 L 496.68989547038325 141.84675834970534 L 498.4320557491289 141.2573673870334 L 500.17421602787454 143.4184675834971 L 501.9163763066202 155.00982318271122 L 503.6585365853658 145.7760314341847 L 505.40069686411147 138.1139489194499 L 507.1428571428571 147.7406679764244 L 508.88501742160275 147.54420432220041 L 510.6271777003484 148.7229862475442 L 512.3693379790941 155.40275049115917 L 514.1114982578397 160.11787819253442 L 515.8536585365853 178.58546168958742 L 517.595818815331 183.8899803536346 L 519.3379790940767 195.08840864440083 L 521.0801393728223 185.0687622789784 L 522.822299651568 168.36935166994107 L 524.5644599303137 180.35363457760315 L 526.3066202090592 183.8899803536346 L 528.0487804878048 191.94499017681733 L 529.7909407665505 185.65815324165033 L 531.5331010452962 189.19449901768172 L 533.2752613240418 194.4990176817289 L 535.0174216027874 199.01768172888018 L 536.7595818815331 206.87622789783893 L 538.5017421602788 230.6483300589391 L 540.2439024390244 236.73870333988214 L 541.98606271777 224.16502946954813 L 543.7282229965157 226.3261296660118 L 545.4703832752614 222.3968565815324 L 547.212543554007 217.48526522593323 L 548.9547038327526 215.32416502946955 L 550.6968641114983 232.8094302554028 L 552.439024390244 221.41453831041258 L 554.1811846689895 222.78978388998036 L 555.9233449477351 240.86444007858546 L 557.6655052264808 242.6326129666012 L 559.4076655052265 243.614931237721 L 561.1498257839721 236.73870333988214 L 562.8919860627177 246.36542239685662 L 564.6341463414634 246.5618860510806 L 566.3763066202091 245.5795677799607 L 568.1184668989547 236.9351669941061 L 569.8606271777003 243.22200392927311 L 571.602787456446 241.84675834970534 L 573.3449477351917 243.614931237721 L 575.0871080139373 247.54420432220041 L 576.8292682926829 248.9194499017682 L 578.5714285714286 250.8840864440079 L 580.3135888501743 241.84675834970534 L 582.0557491289198 252.25933202357567 L 583.7979094076654 247.15127701375246 L 585.5400696864111 251.2770137524558 L 587.2822299651568 263.45776031434184 L 589.0243902439024 265.22593320235757 L 590.766550522648 263.8506876227898 L 592.5087108013937 263.8506876227898 L 594.2508710801394 271.51277013752457 L 595.993031358885 271.70923379174855 L 597.7351916376306 271.70923379174855 L 599.4773519163763 275.24557956778 L 601.219512195122 280.9430255402751 L 602.9616724738676 293.909626719057 L 604.7038327526132 284.47937131630647 L 606.4459930313589 290.96267190569745 L 608.1881533101046 284.67583497053045 L 609.9303135888501 281.53241650294694 L 611.6724738675957 279.9607072691552 L 613.4146341463414 279.5677799607073 L 615.1567944250871 278.7819253438114 L 616.8989547038327 302.75049115913555 L 618.6411149825783 289.78388998035365 L 620.383275261324 292.7308447937132 L 622.1254355400697 292.14145383104125 L 623.8675958188153 296.8565815324165 L 625.609756097561 295.6777996070727 L 627.3519163763067 300.5893909626719 L 629.0940766550523 310.01964636542243 L 630.8362369337979 308.2514734774067 L 632.5783972125436 313.35952848722985 L 634.3205574912893 312.573673870334 L 636.0627177700349 317.28880157170926 L 637.8048780487804 322.78978388998036 L 639.5470383275261 319.2534381139489 L 641.2891986062718 327.11198428290766 L 643.0313588850174 331.23772102161104 L 644.773519163763 340.4715127701375 L 646.5156794425087 343.41846758349703 L 648.2578397212544 343.614931237721 L 650 350.098231827112 L 650 400 Z" /><text  class="poloto_labels poloto_text poloto_title" alignment-baseline="start" text-anchor="middle" font-size="x-large" x="400" y="37.5" >Total players on 2021-07-11</text><text  class="poloto_labels poloto_text poloto_xname" alignment-baseline="start" text-anchor="middle" font-size="x-large" x="400" y="481.25" >Time</text><text  class="poloto_labels poloto_text poloto_yname" alignment-baseline="start" text-anchor="middle" font-size="x-large" transform="rotate(-90,37.5,250)" x="37.5" y="250" >Count</text><line  class="poloto_axis_lines" stroke="black" x1="208.0487804878049" x2="208.0487804878049" y1="400" y2="405" /><text  class="poloto_tick_labels poloto_text" alignment-baseline="start" text-anchor="middle" x="208.0487804878049" y="430" > 03:00</text><line  class="poloto_axis_lines" stroke="black" x1="266.1207897793264" x2="266.1207897793264" y1="400" y2="405" /><text  class="poloto_tick_labels poloto_text" alignment-baseline="start" text-anchor="middle" x="266.1207897793264" y="430" > 06:00</text><line  class="poloto_axis_lines" stroke="black" x1="324.19279907084785" x2="324.19279907084785" y1="400" y2="405" /><text  class="poloto_tick_labels poloto_text" alignment-baseline="start" text-anchor="middle" x="324.19279907084785" y="430" > 08:00</text><line  class="poloto_axis_lines" stroke="black" x1="382.2648083623693" x2="382.2648083623693" y1="400" y2="405" /><text  class="poloto_tick_labels poloto_text" alignment-baseline="start" text-anchor="middle" x="382.2648083623693" y="430" > 11:00</text><line  class="poloto_axis_lines" stroke="black" x1="440.3368176538908" x2="440.3368176538908" y1="400" y2="405" /><text  class="poloto_tick_labels poloto_text" alignment-baseline="start" text-anchor="middle" x="440.3368176538908" y="430" > 14:00</text><line  class="poloto_axis_lines" stroke="black" x1="498.4088269454123" x2="498.4088269454123" y1="400" y2="405" /><text  class="poloto_tick_labels poloto_text" alignment-baseline="start" text-anchor="middle" x="498.4088269454123" y="430" > 17:00</text><line  class="poloto_axis_lines" stroke="black" x1="556.4808362369338" x2="556.4808362369338" y1="400" y2="405" /><text  class="poloto_tick_labels poloto_text" alignment-baseline="start" text-anchor="middle" x="556.4808362369338" y="430" > 19:00</text><line  class="poloto_axis_lines" stroke="black" x1="614.5528455284552" x2="614.5528455284552" y1="400" y2="405" /><text  class="poloto_tick_labels poloto_text" alignment-baseline="start" text-anchor="middle" x="614.5528455284552" y="430" > 22:00</text><line  class="poloto_axis_lines" stroke="black" x1="150" x2="144" y1="373.0844793713163" y2="373.0844793713163" /><text  class="poloto_tick_labels poloto_text" alignment-baseline="middle" text-anchor="end" x="135" y="373.0844793713163" > 1200</text><line  class="poloto_axis_lines" stroke="black" x1="150" x2="144" y1="333.7917485265226" y2="333.7917485265226" /><text  class="poloto_tick_labels poloto_text" alignment-baseline="middle" text-anchor="end" x="135" y="333.7917485265226" > 1400</text><line  class="poloto_axis_lines" stroke="black" x1="150" x2="144" y1="294.4990176817289" y2="294.4990176817289" /><text  class="poloto_tick_labels poloto_text" alignment-baseline="middle" text-anchor="end" x="135" y="294.4990176817289" > 1600</text><line  class="poloto_axis_lines" stroke="black" x1="150" x2="144" y1="255.2062868369352" y2="255.2062868369352" /><text  class="poloto_tick_labels poloto_text" alignment-baseline="middle" text-anchor="end" x="135" y="255.2062868369352" > 1800</text><line  class="poloto_axis_lines" stroke="black" x1="150" x2="144" y1="215.91355599214148" y2="215.91355599214148" /><text  class="poloto_tick_labels poloto_text" alignment-baseline="middle" text-anchor="end" x="135" y="215.91355599214148" > 2000</text><line  class="poloto_axis_lines" stroke="black" x1="150" x2="144" y1="176.62082514734777" y2="176.62082514734777" /><text  class="poloto_tick_labels poloto_text" alignment-baseline="middle" text-anchor="end" x="135" y="176.62082514734777" > 2200</text><line  class="poloto_axis_lines" stroke="black" x1="150" x2="144" y1="137.32809430255406" y2="137.32809430255406" /><text  class="poloto_tick_labels poloto_text" alignment-baseline="middle" text-anchor="end" x="135" y="137.32809430255406" > 2400</text><path  stroke="black" fill="none" class="poloto_axis_lines" style="stroke-dasharray:14.518002322880372;stroke-dashoffset:-58.04878048780488;" d=" M 150 400 L 650 400" /><path  stroke="black" fill="none" class="poloto_axis_lines" style="stroke-dasharray:9.823182711198427;stroke-dashoffset:-26.91552062868368;" d=" M 150 400 L 150 100" /></svg>