<svg class="poloto" width="800" height="500" viewBox="0 0 800 500" xmlns="http://www.w3.org/2000/svg"><style>.poloto { stroke-linecap:round; stroke-linejoin:round; font-family: 'Tahoma', sans-serif; background-color: AliceBlue;} .poloto_scatter{stroke-width:7} .poloto_line{stroke-width:2} .poloto_text{fill: black;} .poloto_axis_lines{stroke: black;stroke-width:3;fill:none;stroke-dasharray:none} .poloto0stroke{stroke:  blue;} .poloto1stroke{stroke:  red;} .poloto2stroke{stroke:  green;} .poloto3stroke{stroke:  gold;} .poloto4stroke{stroke:  aqua;} .poloto5stroke{stroke:  lime;} .poloto6stroke{stroke:  orange;} .poloto7stroke{stroke:  chocolate;} .poloto0fill{fill:blue;} .poloto1fill{fill:red;} .poloto2fill{fill:green;} .poloto3fill{fill:gold;} .poloto4fill{fill:aqua;} .poloto5fill{fill:lime;} .poloto6fill{fill:orange;} .poloto7fill{fill:chocolate;}</style><text  class="poloto_text poloto_legend_text" alignment-baseline="middle" text-anchor="start" font-size="large" x="675" y="100" ></text><path  class="poloto_linefill poloto0fill" d=" M 150 400 L 150 344.89425981873114 L 151.74216027874564 349.96978851963746 L 153.4843205574913 353.77643504531727 L 155.22648083623693 359.03323262839876 L 156.96864111498257 356.49546827794563 L 158.71080139372822 361.20845921450154 L 160.45296167247386 365.7401812688822 L 162.1951219512195 366.8277945619335 L 163.93728222996515 368.4592145015106 L 165.6794425087108 370.4531722054381 L 167.42160278745644 378.42900302114805 L 169.16376306620208 377.52265861027195 L 170.90592334494772 379.5166163141994 L 172.64808362369337 377.52265861027195 L 174.390243902439 374.44108761329306 L 176.13240418118465 376.97885196374625 L 177.8745644599303 370.8157099697885 L 179.61672473867597 372.6283987915408 L 181.3588850174216 376.97885196374625 L 183.10104529616726 379.87915407854985 L 184.8432055749129 381.69184290030216 L 186.58536585365854 386.7673716012084 L 188.3275261324042 389.30513595166167 L 190.06968641114983 386.04229607250755 L 191.81184668989548 386.404833836858 L 193.55400696864112 385.13595166163145 L 195.29616724738676 387.8549848942598 L 197.0383275261324 386.404833836858 L 198.78048780487805 379.5166163141994 L 200.5226480836237 381.87311178247734 L 202.26480836236934 385.8610271903323 L 204.00696864111498 386.58610271903325 L 205.74912891986062 394.5619335347432 L 207.49128919860627 395.2870090634441 L 209.2334494773519 393.29305135951665 L 210.97560975609755 392.9305135951662 L 212.7177700348432 390.7552870090634 L 214.45993031358887 391.1178247734139 L 216.2020905923345 391.2990936555891 L 217.94425087108016 390.57401812688823 L 219.6864111498258 394.7432024169184 L 221.42857142857144 393.4743202416919 L 223.1707317073171 396.012084592145 L 224.91289198606273 394.9244712990936 L 226.65505226480838 396.73716012084594 L 228.39721254355402 398.5498489425982 L 230.13937282229966 397.8247734138973 L 231.8815331010453 397.8247734138973 L 233.62369337979095 400 L 235.3658536585366 396.012084592145 L 237.10801393728224 396.9184290030212 L 238.85017421602788 396.9184290030212 L 240.59233449477352 391.2990936555891 L 242.33449477351917 392.74924471299096 L 244.0766550522648 390.7552870090634 L 245.81881533101046 395.2870090634441 L 247.5609756097561 390.21148036253777 L 249.30313588850174 389.4864048338369 L 251.0452961672474 384.773413897281 L 252.78745644599303 384.4108761329305 L 254.52961672473867 389.66767371601213 L 256.2717770034843 393.1117824773414 L 258.01393728222996 390.7552870090634 L 259.7560975609756 388.03625377643505 L 261.49825783972125 384.9546827794562 L 263.2404181184669 381.51057401812693 L 264.98257839721254 376.0725075528701 L 266.7247386759582 377.1601208459215 L 268.4668989547038 370.8157099697885 L 270.20905923344947 364.29003021148037 L 271.9512195121951 360.8459214501511 L 273.69337979094075 356.3141993957704 L 275.4355400696864 350.1510574018127 L 277.17770034843204 353.2326283987916 L 278.91986062717774 352.6888217522659 L 280.6620209059233 351.7824773413897 L 282.404181184669 352.6888217522659 L 284.1463414634146 351.96374622356495 L 285.8885017421603 351.41993957703926 L 287.6306620209059 359.57703927492446 L 289.3728222996516 362.2960725075529 L 291.1149825783972 360.3021148036254 L 292.8571428571429 359.214501510574 L 294.5993031358885 361.9335347432024 L 296.3414634146342 356.67673716012087 L 298.08362369337976 363.56495468277944 L 299.82578397212546 356.13293051359517 L 301.56794425087105 353.77643504531727 L 303.31010452961675 357.76435045317226 L 305.05226480836234 359.214501510574 L 306.79442508710804 364.29003021148037 L 308.5365853658536 359.214501510574 L 310.2787456445993 356.13293051359517 L 312.0209059233449 354.3202416918429 L 313.7630662020906 349.2447129909366 L 315.5052264808362 344.89425981873114 L 317.2473867595819 342.9003021148036 L 318.9895470383275 344.1691842900302 L 320.7317073170732 347.4320241691843 L 322.4738675958188 342.9003021148036 L 324.2160278745645 338.5498489425982 L 325.9581881533101 340.90634441087616 L 327.70034843205576 340.18126888217523 L 329.4425087108014 346.34441087613294 L 331.18466898954705 347.25075528700904 L 332.9268292682927 339.09365558912384 L 334.66898954703834 336.9184290030212 L 336.411149825784 341.8126888217523 L 338.1533101045296 336.5558912386707 L 339.89547038327527 332.74924471299096 L 341.6376306620209 331.1178247734139 L 343.37979094076655 325.8610271903324 L 345.1219512195122 326.94864048338366 L 346.86411149825784 325.4984894259819 L 348.6062717770035 318.42900302114805 L 350.34843205574913 317.3413897280967 L 352.0905923344948 314.0785498489426 L 353.8327526132404 308.6404833836858 L 355.57491289198606 304.65256797583083 L 357.3170731707317 301.9335347432024 L 359.05923344947735 308.4592145015106 L 360.801393728223 309.0030211480363 L 362.54355400696863 313.35347432024173 L 364.2857142857143 302.65861027190334 L 366.0278745644599 291.05740181268885 L 367.77003484320556 288.33836858006043 L 369.5121951219512 289.2447129909366 L 371.25435540069685 288.51963746223566 L 372.9965156794425 273.29305135951665 L 374.73867595818814 266.2235649546828 L 376.4808362369338 273.8368580060423 L 378.2229965156795 266.9486404833837 L 379.96515679442507 264.773413897281 L 381.70731707317077 268.03625377643505 L 383.44947735191636 266.04229607250755 L 385.19163763066206 268.03625377643505 L 386.93379790940764 266.58610271903325 L 388.67595818815334 262.2356495468278 L 390.41811846689893 265.3172205438067 L 392.16027874564463 257.3413897280967 L 393.9024390243902 254.0785498489426 L 395.6445993031359 246.64652567975833 L 397.3867595818815 237.7643504531722 L 399.1289198606272 227.97583081570997 L 400.8710801393728 216.73716012084594 L 402.6132404181185 220.90634441087616 L 404.3554006968641 214.92447129909368 L 406.0975609756098 212.3867069486405 L 407.8397212543554 212.20543806646526 L 409.58188153310107 210.21148036253777 L 411.3240418118467 204.41087613293053 L 413.06620209059236 200.2416918429003 L 414.808362369338 197.52265861027195 L 416.55052264808364 194.44108761329306 L 418.2926829268293 191.35951661631424 L 420.03484320557493 187.9154078549849 L 421.7770034843206 189.00302114803628 L 423.5191637630662 191.35951661631424 L 425.26132404181186 180.3021148036254 L 427.0034843205575 175.4078549848943 L 428.74564459930315 176.8580060422961 L 430.4878048780488 174.8640483383686 L 432.22996515679444 168.88217522658613 L 433.9721254355401 172.14501510574019 L 435.7142857142857 167.06948640483387 L 437.45644599303137 160.5438066465257 L 439.198606271777 156.01208459214502 L 440.94076655052265 148.58006042296074 L 442.6829268292683 146.9486404833837 L 444.42508710801394 139.15407854984898 L 446.1672473867596 141.51057401812693 L 447.9094076655052 132.44712990936557 L 449.65156794425087 132.0845921450151 L 451.3937282229965 131.7220543806647 L 453.13588850174216 113.95770392749245 L 454.8780487804878 119.93957703927492 L 456.62020905923345 116.3141993957704 L 458.3623693379791 117.22054380664656 L 460.10452961672473 120.48338368580062 L 461.8466898954704 109.60725075528705 L 463.588850174216 115.77039274924476 L 465.33101045296166 107.7945619335348 L 467.0731707317073 105.8006042296073 L 468.81533101045295 106.7069486404834 L 470.5574912891986 100 L 472.29965156794424 102.17522658610272 L 474.0418118466899 108.88217522658613 L 475.7839721254355 106.52567975830817 L 477.52613240418117 115.4078549848943 L 479.2682926829268 130.09063444108762 L 481.01045296167246 125.9214501510574 L 482.7526132404181 128.27794561933536 L 484.49477351916374 138.06646525679758 L 486.2369337979094 146.58610271903325 L 487.97909407665503 142.05438066465257 L 489.7212543554007 145.31722054380668 L 491.4634146341463 150.75528700906347 L 493.20557491289196 156.37462235649548 L 494.9477351916376 162.5377643504532 L 496.68989547038325 169.60725075528705 L 498.4320557491289 177.03927492447133 L 500.17421602787454 178.3081570996979 L 501.91637630662024 175.7703927492447 L 503.6585365853659 183.38368580060427 L 505.4006968641115 185.19637462235653 L 507.14285714285717 198.42900302114805 L 508.8850174216028 197.52265861027195 L 510.62717770034845 206.9486404833837 L 512.3693379790941 208.9425981873112 L 514.1114982578397 208.58006042296074 L 515.8536585365854 214.01812688821752 L 517.5958188153311 213.8368580060423 L 519.3379790940767 216.91842900302117 L 521.0801393728223 220.18126888217523 L 522.822299651568 214.74320241691845 L 524.5644599303137 216.19335347432025 L 526.3066202090592 217.82477341389728 L 528.0487804878048 234.68277945619337 L 529.7909407665505 224.89425981873114 L 531.5331010452962 228.1570996978852 L 533.2752613240418 225.619335347432 L 535.0174216027874 220.36253776435046 L 536.7595818815331 220 L 538.5017421602788 223.26283987915411 L 540.2439024390244 226.7069486404834 L 541.98606271777 229.42598187311182 L 543.7282229965157 228.51963746223566 L 545.4703832752614 231.96374622356495 L 547.212543554007 235.95166163141994 L 548.9547038327526 228.88217522658613 L 550.6968641114983 231.96374622356495 L 552.439024390244 229.96978851963746 L 554.1811846689895 226.34441087613294 L 555.9233449477351 232.50755287009065 L 557.6655052264808 225.619335347432 L 559.4076655052265 226.7069486404834 L 561.1498257839721 227.97583081570997 L 562.8919860627177 226.1631419939577 L 564.6341463414634 223.26283987915411 L 566.3763066202091 229.2447129909366 L 568.1184668989547 237.94561933534743 L 569.8606271777003 235.04531722054384 L 571.602787456446 235.7703927492447 L 573.3449477351917 235.04531722054384 L 575.0871080139373 236.13293051359517 L 576.8292682926829 235.4078549848943 L 578.5714285714286 235.7703927492447 L 580.3135888501743 230.87613293051362 L 582.0557491289198 235.22658610271907 L 583.7979094076654 242.83987915407857 L 585.5400696864111 243.74622356495468 L 587.2822299651568 246.82779456193356 L 589.0243902439024 243.38368580060427 L 590.766550522648 255.70996978851963 L 592.5087108013937 257.1601208459215 L 594.2508710801394 262.59818731117826 L 595.993031358885 262.9607250755287 L 597.7351916376306 267.12990936555894 L 599.4773519163763 272.02416918429003 L 601.219512195122 271.11782477341393 L 602.9616724738676 275.1057401812689 L 604.7038327526133 275.1057401812689 L 606.445993031359 275.4682779456194 L 608.1881533101046 279.81873111782477 L 609.9303135888501 282.35649546827796 L 611.6724738675958 285.0755287009064 L 613.4146341463415 290.6948640483384 L 615.1567944250871 293.59516616314204 L 616.8989547038327 294.1389728096677 L 618.6411149825784 297.94561933534743 L 620.3832752613241 299.57703927492446 L 622.1254355400697 304.29003021148037 L 623.8675958188153 306.10271903323263 L 625.609756097561 305.7401812688822 L 627.3519163763067 304.10876132930514 L 629.0940766550523 304.29003021148037 L 630.8362369337979 305.9214501510574 L 632.5783972125436 311.9033232628399 L 634.3205574912893 314.44108761329306 L 636.0627177700349 319.5166163141994 L 637.8048780487804 322.2356495468278 L 639.5470383275261 326.94864048338366 L 641.2891986062718 333.83685800604235 L 643.0313588850174 336.5558912386707 L 644.773519163763 331.8429003021148 L 646.5156794425087 342.9003021148036 L 648.2578397212544 343.4441087613293 L 650 343.0815709969788 L 650 400 Z" /><text  class="poloto_labels poloto_text poloto_title" alignment-baseline="start" text-anchor="middle" font-size="x-large" x="400" y="37.5" >Total players on 2021-11-23</text><text  class="poloto_labels poloto_text poloto_xname" alignment-baseline="start" text-anchor="middle" font-size="x-large" x="400" y="481.25" >Time</text><text  class="poloto_labels poloto_text poloto_yname" alignment-baseline="start" text-anchor="middle" font-size="x-large" transform="rotate(-90,37.5,250)" x="37.5" y="250" >Count</text><line  class="poloto_axis_lines" stroke="black" x1="150" x2="150" y1="400" y2="405" /><text  class="poloto_tick_labels poloto_text" alignment-baseline="start" text-anchor="middle" x="150" y="430" > 00:00</text><line  class="poloto_axis_lines" stroke="black" x1="266.14401858304296" x2="266.14401858304296" y1="400" y2="405" /><text  class="poloto_tick_labels poloto_text" alignment-baseline="start" text-anchor="middle" x="266.14401858304296" y="430" > 06:00</text><line  class="poloto_axis_lines" stroke="black" x1="382.2880371660859" x2="382.2880371660859" y1="400" y2="405" /><text  class="poloto_tick_labels poloto_text" alignment-baseline="start" text-anchor="middle" x="382.2880371660859" y="430" > 11:00</text><line  class="poloto_axis_lines" stroke="black" x1="498.4320557491289" x2="498.4320557491289" y1="400" y2="405" /><text  class="poloto_tick_labels poloto_text" alignment-baseline="start" text-anchor="middle" x="498.4320557491289" y="430" > 17:00</text><line  class="poloto_axis_lines" stroke="black" x1="614.5760743321719" x2="614.5760743321719" y1="400" y2="405" /><text  class="poloto_tick_labels poloto_text" alignment-baseline="start" text-anchor="middle" x="614.5760743321719" y="430" > 22:00</text><line  class="poloto_axis_lines" stroke="black" x1="150" x2="144" y1="366.6465256797583" y2="366.6465256797583" /><text  class="poloto_tick_labels poloto_text" alignment-baseline="middle" text-anchor="end" x="135" y="366.6465256797583" > 1000</text><line  class="poloto_axis_lines" stroke="black" x1="150" x2="144" y1="276.012084592145" y2="276.012084592145" /><text  class="poloto_tick_labels poloto_text" alignment-baseline="middle" text-anchor="end" x="135" y="276.012084592145" > 1500</text><line  class="poloto_axis_lines" stroke="black" x1="150" x2="144" y1="185.37764350453176" y2="185.37764350453176" /><text  class="poloto_tick_labels poloto_text" alignment-baseline="middle" text-anchor="end" x="135" y="185.37764350453176" > 2000</text><path  stroke="black" fill="none" class="poloto_axis_lines" style="stroke-dasharray:14.518002322880372;stroke-dashoffset:-0;" d=" M 150 400 L 650 400" /><path  stroke="black" fill="none" class="poloto_axis_lines" style="stroke-dasharray:9.063444108761328;stroke-dashoffset:-33.35347432024167;" d=" M 150 400 L 150 100" /></svg>