<svg class="poloto" width="800" height="500" viewBox="0 0 800 500" xmlns="http://www.w3.org/2000/svg"><style>.poloto { stroke-linecap:round; stroke-linejoin:round; font-family: 'Tahoma', sans-serif; background-color: AliceBlue;} .poloto_scatter{stroke-width:7} .poloto_line{stroke-width:2} .poloto_text{fill: black;} .poloto_axis_lines{stroke: black;stroke-width:3;fill:none;stroke-dasharray:none} .poloto0stroke{stroke:  blue;} .poloto1stroke{stroke:  red;} .poloto2stroke{stroke:  green;} .poloto3stroke{stroke:  gold;} .poloto4stroke{stroke:  aqua;} .poloto5stroke{stroke:  lime;} .poloto6stroke{stroke:  orange;} .poloto7stroke{stroke:  chocolate;} .poloto0fill{fill:blue;} .poloto1fill{fill:red;} .poloto2fill{fill:green;} .poloto3fill{fill:gold;} .poloto4fill{fill:aqua;} .poloto5fill{fill:lime;} .poloto6fill{fill:orange;} .poloto7fill{fill:chocolate;}</style><text  class="poloto_text poloto_legend_text" alignment-baseline="middle" text-anchor="start" font-size="large" x="675" y="100" ></text><path  class="poloto_linefill poloto0fill" d=" M 150 400 L 150 364.7787610619469 L 151.74216027874564 365.1327433628319 L 153.4843205574913 366.01769911504425 L 155.22648083623693 367.2566371681416 L 156.96864111498257 377.5221238938053 L 158.71080139372822 372.56637168141594 L 160.45296167247386 372.212389380531 L 162.1951219512195 379.2920353982301 L 163.93728222996515 378.5840707964602 L 165.6794425087108 381.4159292035398 L 167.42160278745644 383.7168141592921 L 169.16376306620208 389.91150442477874 L 170.90592334494772 390.4424778761062 L 172.64808362369337 389.7345132743363 L 174.390243902439 392.56637168141594 L 176.13240418118465 389.3805309734513 L 177.8745644599303 393.4513274336283 L 179.61672473867597 392.3893805309734 L 181.3588850174216 400 L 183.10104529616726 399.2920353982301 L 184.8432055749129 396.283185840708 L 186.58536585365854 392.56637168141594 L 188.3275261324042 389.91150442477874 L 190.06968641114983 390.9734513274336 L 191.81184668989548 393.27433628318585 L 193.55400696864112 395.75221238938053 L 195.29616724738676 398.5840707964602 L 197.0383275261324 399.82300884955754 L 198.78048780487805 395.04424778761063 L 200.5226480836237 392.212389380531 L 202.26480836236934 394.15929203539827 L 204.00696864111498 392.0353982300885 L 205.74912891986062 390.79646017699116 L 207.49128919860627 392.7433628318584 L 209.2334494773519 395.04424778761063 L 210.97560975609755 396.1061946902655 L 212.7177700348432 395.57522123893807 L 214.45993031358887 394.8672566371681 L 216.2020905923345 396.8141592920354 L 217.94425087108016 390.79646017699116 L 219.6864111498258 392.212389380531 L 221.42857142857144 391.6814159292036 L 223.1707317073171 391.15044247787614 L 224.91289198606273 388.84955752212386 L 226.65505226480838 393.6283185840708 L 228.39721254355402 391.858407079646 L 230.13937282229966 393.27433628318585 L 231.8815331010453 389.0265486725664 L 233.62369337979095 389.7345132743363 L 235.3658536585366 389.3805309734513 L 237.10801393728224 387.2566371681416 L 238.85017421602788 390.2654867256637 L 240.59233449477352 387.6106194690266 L 242.33449477351917 391.15044247787614 L 244.0766550522648 392.3893805309734 L 245.81881533101046 390.79646017699116 L 247.5609756097561 388.3185840707965 L 249.30313588850174 383.7168141592921 L 251.0452961672474 387.6106194690266 L 252.78745644599303 388.67256637168146 L 254.52961672473867 391.15044247787614 L 256.2717770034843 390.6194690265487 L 258.01393728222996 388.84955752212386 L 259.7560975609756 384.60176991150445 L 261.49825783972125 381.0619469026549 L 263.2404181184669 380.88495575221236 L 264.98257839721254 381.4159292035398 L 266.7247386759582 386.01769911504425 L 268.4668989547038 386.3716814159292 L 270.20905923344947 387.9646017699115 L 271.9512195121951 382.3008849557522 L 273.69337979094075 381.5929203539823 L 275.4355400696864 388.84955752212386 L 277.17770034843204 386.3716814159292 L 278.91986062717774 388.3185840707965 L 280.6620209059233 387.2566371681416 L 282.404181184669 385.30973451327435 L 284.1463414634146 377.87610619469024 L 285.8885017421603 372.92035398230087 L 287.6306620209059 376.46017699115043 L 289.3728222996516 371.50442477876106 L 291.1149825783972 359.2920353982301 L 292.8571428571429 355.39823008849555 L 294.5993031358885 355.04424778761063 L 296.3414634146342 350.08849557522126 L 298.08362369337976 352.0353982300885 L 299.82578397212546 354.6902654867257 L 301.56794425087105 356.8141592920354 L 303.31010452961675 352.92035398230087 L 305.05226480836234 358.9380530973451 L 306.79442508710804 360 L 308.5365853658536 360.1769911504425 L 310.2787456445993 365.8407079646018 L 312.0209059233449 370.4424778761062 L 313.7630662020906 369.91150442477874 L 315.5052264808362 369.2035398230089 L 317.2473867595819 364.95575221238937 L 318.9895470383275 364.24778761061947 L 320.7317073170732 365.8407079646018 L 322.4738675958188 359.2920353982301 L 324.2160278745645 361.94690265486724 L 325.9581881533101 358.2300884955752 L 327.70034843205576 358.76106194690266 L 329.4425087108014 354.3362831858407 L 331.18466898954705 359.82300884955754 L 332.9268292682927 355.75221238938053 L 334.66898954703834 356.8141592920354 L 336.411149825784 352.212389380531 L 338.1533101045296 348.67256637168146 L 339.89547038327527 346.19469026548677 L 341.6376306620209 351.6814159292036 L 343.37979094076655 346.3716814159292 L 345.1219512195122 343.0088495575221 L 346.86411149825784 341.7699115044248 L 348.6062717770035 338.4070796460177 L 350.34843205574913 344.60176991150445 L 352.0905923344948 337.34513274336285 L 353.8327526132404 335.75221238938053 L 355.57491289198606 335.22123893805315 L 357.3170731707317 338.9380530973451 L 359.05923344947735 338.05309734513276 L 360.801393728223 327.43362831858406 L 362.54355400696863 324.070796460177 L 364.2857142857143 320.353982300885 L 366.0278745644599 315.3982300884956 L 367.77003484320556 311.50442477876106 L 369.5121951219512 308.6725663716814 L 371.25435540069685 308.8495575221239 L 372.9965156794425 306.72566371681415 L 374.73867595818814 300.17699115044246 L 376.4808362369338 301.94690265486724 L 378.2229965156795 296.63716814159295 L 379.96515679442507 301.94690265486724 L 381.70731707317077 311.6814159292035 L 383.44947735191636 315.04424778761063 L 385.19163763066206 311.15044247787614 L 386.93379790940764 308.6725663716814 L 388.67595818815334 301.5929203539823 L 390.41811846689893 298.40707964601773 L 392.16027874564463 292.21238938053096 L 393.9024390243902 291.85840707964604 L 395.6445993031359 284.42477876106193 L 397.3867595818815 281.23893805309734 L 399.1289198606272 284.7787610619469 L 400.8710801393728 281.7699115044248 L 402.6132404181185 286.01769911504425 L 404.3554006968641 284.60176991150445 L 406.0975609756098 283.0088495575221 L 407.8397212543554 279.2920353982301 L 409.58188153310107 278.5840707964602 L 411.3240418118467 271.15044247787614 L 413.06620209059236 270.2654867256637 L 414.808362369338 269.5575221238938 L 416.55052264808364 252.0353982300885 L 418.2926829268293 245.66371681415933 L 420.03484320557493 245.30973451327435 L 421.7770034843206 235.75221238938053 L 423.5191637630662 235.2212389380531 L 425.26132404181186 226.01769911504425 L 427.0034843205575 224.60176991150445 L 428.74564459930315 217.52212389380531 L 430.4878048780488 217.52212389380531 L 432.22996515679444 217.52212389380531 L 433.9721254355401 215.2212389380531 L 435.7142857142857 196.1061946902655 L 437.45644599303137 192.56637168141594 L 439.198606271777 187.78761061946904 L 440.94076655052265 191.68141592920352 L 442.6829268292683 187.61061946902657 L 444.42508710801394 181.59292035398232 L 446.1672473867596 178.93805309734512 L 447.9094076655052 165.30973451327435 L 449.65156794425087 160.7079646017699 L 451.3937282229965 155.929203539823 L 453.13588850174216 156.46017699115043 L 454.8780487804878 151.85840707964604 L 456.62020905923345 145.30973451327435 L 458.3623693379791 155.57522123893807 L 460.10452961672473 147.43362831858406 L 461.8466898954704 132.7433628318584 L 463.588850174216 133.98230088495575 L 465.33101045296166 134.33628318584073 L 467.0731707317073 142.6548672566372 L 468.81533101045295 136.63716814159295 L 470.5574912891986 134.33628318584073 L 472.29965156794424 138.40707964601773 L 474.0418118466899 121.06194690265488 L 475.7839721254355 116.63716814159295 L 477.52613240418117 118.93805309734512 L 479.2682926829268 118.76106194690266 L 481.01045296167246 117.52212389380531 L 482.7526132404181 124.24778761061947 L 484.49477351916374 100 L 486.2369337979094 112.92035398230092 L 487.97909407665503 106.90265486725667 L 489.7212543554007 117.69911504424778 L 491.4634146341463 109.20353982300884 L 493.20557491289196 110.6194690265487 L 494.9477351916376 118.5840707964602 L 496.68989547038325 119.11504424778764 L 498.4320557491289 119.11504424778764 L 500.17421602787454 116.99115044247787 L 501.91637630662024 117.8761061946903 L 503.6585365853659 119.82300884955754 L 505.4006968641115 117.52212389380531 L 507.14285714285717 126.01769911504425 L 508.8850174216028 136.28318584070797 L 510.62717770034845 137.8761061946903 L 512.3693379790941 139.11504424778764 L 514.1114982578397 138.5840707964602 L 515.8536585365854 146.37168141592923 L 517.5958188153311 145.66371681415933 L 519.3379790940767 143.53982300884957 L 521.0801393728223 141.59292035398232 L 522.822299651568 144.7787610619469 L 524.5644599303137 156.8141592920354 L 526.3066202090592 162.6548672566372 L 528.0487804878048 169.73451327433628 L 529.7909407665505 184.42477876106193 L 531.5331010452962 190.6194690265487 L 533.2752613240418 208.31858407079648 L 535.0174216027874 201.23893805309734 L 536.7595818815331 194.86725663716817 L 538.5017421602788 193.09734513274338 L 540.2439024390244 195.75221238938053 L 541.98606271777 198.23008849557522 L 543.7282229965157 195.57522123893807 L 545.4703832752614 193.27433628318585 L 547.212543554007 194.86725663716817 L 548.9547038327526 192.38938053097348 L 550.6968641114983 190.08849557522126 L 552.439024390244 186.37168141592923 L 554.1811846689895 196.8141592920354 L 555.9233449477351 189.38053097345136 L 557.6655052264808 193.8053097345133 L 559.4076655052265 200 L 561.1498257839721 201.23893805309734 L 562.8919860627177 204.42477876106193 L 564.6341463414634 199.11504424778764 L 566.3763066202091 201.59292035398232 L 568.1184668989547 210.6194690265487 L 569.8606271777003 216.99115044247787 L 571.602787456446 231.68141592920352 L 573.3449477351917 229.02654867256638 L 575.0871080139373 235.3982300884956 L 576.8292682926829 236.1061946902655 L 578.5714285714286 237.8761061946903 L 580.3135888501743 244.7787610619469 L 582.0557491289198 250.97345132743362 L 583.7979094076654 238.5840707964602 L 585.5400696864111 244.070796460177 L 587.2822299651568 236.63716814159295 L 589.0243902439024 232.0353982300885 L 590.766550522648 228.31858407079648 L 592.5087108013937 233.27433628318585 L 594.2508710801394 235.929203539823 L 595.993031358885 257.6991150442478 L 597.7351916376306 264.24778761061947 L 599.4773519163763 258.9380530973451 L 601.219512195122 270.9734513274336 L 602.9616724738676 269.38053097345136 L 604.7038327526133 278.5840707964602 L 606.445993031359 281.5929203539823 L 608.1881533101046 284.24778761061947 L 609.9303135888501 292.92035398230087 L 611.6724738675958 292.92035398230087 L 613.4146341463415 290.79646017699116 L 615.1567944250871 289.9115044247788 L 616.8989547038327 305.4867256637168 L 618.6411149825784 295.2212389380531 L 620.3832752613241 303.716814159292 L 622.1254355400697 303.0088495575221 L 623.8675958188153 308.3185840707965 L 625.609756097561 312.21238938053096 L 627.3519163763067 309.5575221238938 L 629.0940766550523 269.20353982300884 L 630.8362369337979 269.20353982300884 L 632.5783972125436 282.6548672566372 L 634.3205574912893 297.5221238938053 L 636.0627177700349 312.7433628318584 L 637.8048780487804 342.6548672566372 L 639.5470383275261 344.7787610619469 L 641.2891986062718 344.7787610619469 L 643.0313588850174 347.78761061946904 L 644.773519163763 348.67256637168146 L 646.5156794425087 350.4424778761062 L 648.2578397212544 352.7433628318584 L 650 353.6283185840708 L 650 400 Z" /><text  class="poloto_labels poloto_text poloto_title" alignment-baseline="start" text-anchor="middle" font-size="x-large" x="400" y="37.5" >Total players on 2021-09-07</text><text  class="poloto_labels poloto_text poloto_xname" alignment-baseline="start" text-anchor="middle" font-size="x-large" x="400" y="481.25" >Time</text><text  class="poloto_labels poloto_text poloto_yname" alignment-baseline="start" text-anchor="middle" font-size="x-large" transform="rotate(-90,37.5,250)" x="37.5" y="250" >Count</text><line  class="poloto_axis_lines" stroke="black" x1="150" x2="150" y1="400" y2="405" /><text  class="poloto_tick_labels poloto_text" alignment-baseline="start" text-anchor="middle" x="150" y="430" > 00:00:00</text><line  class="poloto_axis_lines" stroke="black" x1="266.14401858304296" x2="266.14401858304296" y1="400" y2="405" /><text  class="poloto_tick_labels poloto_text" alignment-baseline="start" text-anchor="middle" x="266.14401858304296" y="430" > 05:33:20</text><line  class="poloto_axis_lines" stroke="black" x1="382.2880371660859" x2="382.2880371660859" y1="400" y2="405" /><text  class="poloto_tick_labels poloto_text" alignment-baseline="start" text-anchor="middle" x="382.2880371660859" y="430" > 11:06:40</text><line  class="poloto_axis_lines" stroke="black" x1="498.4320557491289" x2="498.4320557491289" y1="400" y2="405" /><text  class="poloto_tick_labels poloto_text" alignment-baseline="start" text-anchor="middle" x="498.4320557491289" y="430" > 16:40:00</text><line  class="poloto_axis_lines" stroke="black" x1="614.5760743321719" x2="614.5760743321719" y1="400" y2="405" /><text  class="poloto_tick_labels poloto_text" alignment-baseline="start" text-anchor="middle" x="614.5760743321719" y="430" > 22:13:20</text><line  class="poloto_axis_lines" stroke="black" x1="150" x2="144" y1="316.283185840708" y2="316.283185840708" /><text  class="poloto_tick_labels poloto_text" alignment-baseline="middle" text-anchor="end" x="135" y="316.283185840708" > 1500</text><line  class="poloto_axis_lines" stroke="black" x1="150" x2="144" y1="227.78761061946904" y2="227.78761061946904" /><text  class="poloto_tick_labels poloto_text" alignment-baseline="middle" text-anchor="end" x="135" y="227.78761061946904" > 2000</text><line  class="poloto_axis_lines" stroke="black" x1="150" x2="144" y1="139.2920353982301" y2="139.2920353982301" /><text  class="poloto_tick_labels poloto_text" alignment-baseline="middle" text-anchor="end" x="135" y="139.2920353982301" > 2500</text><path  stroke="black" fill="none" class="poloto_axis_lines" style="stroke-dasharray:14.518002322880372;stroke-dashoffset:-0;" d=" M 150 400 L 650 400" /><path  stroke="black" fill="none" class="poloto_axis_lines" style="stroke-dasharray:8.849557522123893;stroke-dashoffset:-83.71681415929203;" d=" M 150 400 L 150 100" /></svg>