<svg class="poloto" width="800" height="500" viewBox="0 0 800 500" xmlns="http://www.w3.org/2000/svg"><style>.poloto { stroke-linecap:round; stroke-linejoin:round; font-family: 'Tahoma', sans-serif; background-color: AliceBlue;} .poloto_scatter{stroke-width:7} .poloto_line{stroke-width:2} .poloto_text{fill: black;} .poloto_axis_lines{stroke: black;stroke-width:3;fill:none;stroke-dasharray:none} .poloto0stroke{stroke:  blue;} .poloto1stroke{stroke:  red;} .poloto2stroke{stroke:  green;} .poloto3stroke{stroke:  gold;} .poloto4stroke{stroke:  aqua;} .poloto5stroke{stroke:  lime;} .poloto6stroke{stroke:  orange;} .poloto7stroke{stroke:  chocolate;} .poloto0fill{fill:blue;} .poloto1fill{fill:red;} .poloto2fill{fill:green;} .poloto3fill{fill:gold;} .poloto4fill{fill:aqua;} .poloto5fill{fill:lime;} .poloto6fill{fill:orange;} .poloto7fill{fill:chocolate;}</style><text  class="poloto_text poloto_legend_text" alignment-baseline="middle" text-anchor="start" font-size="large" x="675" y="100" ></text><path  class="poloto_linefill poloto0fill" d=" M 150 400 L 150 267.96754250386397 L 151.74216027874564 242.0015455950541 L 153.4843205574913 239.45131375579598 L 155.22648083623693 239.45131375579598 L 156.96864111498257 238.4080370942813 L 158.71080139372822 242.34930448222565 L 160.45296167247386 244.6676970633694 L 162.1951219512195 245.71097372488407 L 163.93728222996515 249.30448222565687 L 165.6794425087108 254.4049459041731 L 167.42160278745644 269.1267387944358 L 169.16376306620208 272.95208655332306 L 170.90592334494772 276.4296754250386 L 172.64808362369337 275.7341576506955 L 174.390243902439 277.241112828439 L 176.13240418118465 277.8207109737249 L 177.8745644599303 280.2550231839258 L 179.61672473867597 284.54404945904173 L 181.3588850174216 284.4281298299845 L 183.10104529616726 283.26893353941267 L 184.8432055749129 282.45749613601237 L 186.58536585365854 286.97836166924264 L 188.3275261324042 288.60123647604325 L 190.06968641114983 283.3848531684699 L 191.81184668989548 285.0077279752705 L 193.55400696864112 286.28284389489954 L 195.29616724738676 284.65996908809893 L 197.0383275261324 285.1236476043277 L 198.78048780487805 282.45749613601237 L 200.5226480836237 280.6027820710974 L 202.26480836236934 286.7465224111283 L 204.00696864111498 279.7913446676971 L 205.74912891986062 279.3276661514683 L 207.49128919860627 280.6027820710974 L 209.2334494773519 280.6027820710974 L 210.97560975609755 279.90726429675425 L 212.7177700348432 281.76197836166926 L 214.45993031358887 286.28284389489954 L 216.2020905923345 281.2982998454405 L 217.94425087108016 280.83462132921176 L 219.6864111498258 283.26893353941267 L 221.42857142857144 279.6754250386399 L 223.1707317073171 278.16846986089644 L 224.91289198606273 282.8052550231839 L 226.65505226480838 283.6166924265842 L 228.39721254355402 282.34157650695516 L 230.13937282229966 281.8778979907264 L 231.8815331010453 285.35548686244204 L 233.62369337979095 283.500772797527 L 235.3658536585366 283.6166924265842 L 237.10801393728224 282.45749613601237 L 238.85017421602788 280.2550231839258 L 240.59233449477352 279.4435857805255 L 242.33449477351917 283.26893353941267 L 244.0766550522648 285.935085007728 L 245.81881533101046 266.46058732612056 L 247.5609756097561 288.60123647604325 L 249.30313588850174 286.16692426584234 L 251.0452961672474 281.76197836166926 L 252.78745644599303 282.45749613601237 L 254.52961672473867 284.4281298299845 L 256.2717770034843 286.97836166924264 L 258.01393728222996 288.02163833075736 L 259.7560975609756 286.6306027820711 L 261.49825783972125 287.78979907264295 L 263.2404181184669 286.97836166924264 L 264.98257839721254 285.7032457496136 L 266.7247386759582 286.7465224111283 L 268.4668989547038 286.39876352395675 L 270.20905923344947 283.8485316846986 L 271.9512195121951 283.7326120556414 L 273.69337979094075 283.500772797527 L 275.4355400696864 279.09582689335394 L 277.17770034843204 276.7774343122102 L 278.9198606271777 276.8933539412674 L 280.6620209059233 261.12828438949 L 282.40418118466897 263.3307573415765 L 284.1463414634146 268.3153013910355 L 285.88850174216026 264.4899536321484 L 287.6306620209059 262.8670788253478 L 289.37282229965155 260.08500772797527 L 291.1149825783972 256.02782071097374 L 292.85714285714283 254.75270479134466 L 294.5993031358885 254.86862442040186 L 296.3414634146342 256.72333848531684 L 298.08362369337976 254.4049459041731 L 299.82578397212546 252.55023183925812 L 301.56794425087105 252.78207109737247 L 303.31010452961675 256.72333848531684 L 305.05226480836234 257.9984544049459 L 306.79442508710804 256.2596599690881 L 308.5365853658536 260.08500772797527 L 310.2787456445993 256.83925811437405 L 312.0209059233449 254.75270479134466 L 313.7630662020906 253.5935085007728 L 315.5052264808362 253.12982998454405 L 317.2473867595819 250.6955177743431 L 318.9895470383275 246.75425038639875 L 320.7317073170732 247.44976816074188 L 322.4738675958188 247.1020092735703 L 324.2160278745645 246.75425038639875 L 325.95818815331006 247.56568778979906 L 327.70034843205576 248.95672333848532 L 329.44250871080135 248.84080370942812 L 331.18466898954705 249.30448222565687 L 332.92682926829264 249.1885625965997 L 334.66898954703834 245.01545595054094 L 336.4111498257839 244.08809891808346 L 338.1533101045296 240.8423493044822 L 339.8954703832752 237.4806800618238 L 341.6376306620209 400 L 343.3797909407665 235.6259659969088 L 345.1219512195122 226.46831530139102 L 346.86411149825784 226.0046367851623 L 348.6062717770035 224.9613601236476 L 350.34843205574913 224.61360123647603 L 352.0905923344948 226.58423493044822 L 353.8327526132404 238.98763523956723 L 355.57491289198606 235.16228748068005 L 357.3170731707317 227.16383307573415 L 359.05923344947735 218.4698608964451 L 360.801393728223 217.31066460587326 L 362.54355400696863 214.99227202472952 L 364.2857142857143 215.919629057187 L 366.0278745644599 215.34003091190107 L 367.77003484320556 213.60123647604325 L 369.5121951219512 216.0355486862442 L 371.25435540069685 210.00772797527048 L 372.9965156794425 207.9211746522411 L 374.73867595818814 204.21174652241112 L 376.4808362369338 201.54559505409583 L 378.2229965156794 202.35703245749613 L 379.96515679442507 199.57496136012364 L 381.7073170731707 200.0386398763524 L 383.44947735191636 197.14064914992272 L 385.191637630662 196.4451313755796 L 386.93379790940764 197.14064914992272 L 388.6759581881533 196.09737248840804 L 390.41811846689893 195.2859350850077 L 392.1602787456446 192.8516228748068 L 393.9024390243902 189.02627511591962 L 395.6445993031359 190.30139103554868 L 397.3867595818815 187.05564142194743 L 399.1289198606272 183.23029366306028 L 400.8710801393728 184.96908809891806 L 402.6132404181185 180.68006182380216 L 404.3554006968641 181.2596599690881 L 406.0975609756097 179.2890262751159 L 407.83972125435537 177.43431221020091 L 409.581881533101 167.23338485316847 L 411.32404181184666 165.49459041731066 L 413.0662020905923 166.8856259659969 L 414.80836236933794 163.87171561051005 L 416.5505226480836 157.9598145285935 L 418.29268292682923 158.53941267387944 L 420.0348432055749 157.38021638330756 L 421.7770034843206 159.0030911901082 L 423.5191637630662 157.26429675425038 L 425.26132404181186 154.3663060278207 L 427.0034843205575 155.17774343122102 L 428.74564459930315 153.78670788253476 L 430.4878048780488 149.72952086553323 L 432.22996515679444 146.2519319938176 L 433.9721254355401 145.67233384853168 L 435.7142857142857 143.1221020092736 L 437.45644599303137 135.35548686244204 L 439.198606271777 138.6012364760433 L 440.94076655052265 136.9783616692427 L 442.6829268292683 138.4853168469861 L 444.42508710801394 135.00772797527048 L 446.1672473867596 134.65996908809893 L 447.9094076655052 130.95054095826896 L 449.65156794425087 126.42967542503868 L 451.3937282229965 120.74961360123649 L 453.13588850174216 121.21329211746524 L 454.8780487804878 140.10819165378672 L 456.62020905923345 139.1808346213292 L 458.3623693379791 134.54404945904173 L 460.10452961672473 131.2982998454405 L 461.8466898954704 123.99536321483771 L 463.588850174216 120.86553323029369 L 465.33101045296166 121.21329211746524 L 467.0731707317073 118.31530139103558 L 468.81533101045295 115.53323029366311 L 470.5574912891986 113.21483771251934 L 472.29965156794424 113.7944358578053 L 474.0418118466899 114.4899536321484 L 475.7839721254355 116.11282843894901 L 477.52613240418117 108.1143740340031 L 479.2682926829268 105.10046367851623 L 481.01045296167246 110.20092735703247 L 482.7526132404181 111.47604327666153 L 484.49477351916374 106.83925811437405 L 486.2369337979094 104.17310664605873 L 487.97909407665503 110.66460587326122 L 489.7212543554007 107.53477588871715 L 491.4634146341463 103.59350850077283 L 493.20557491289196 105.21638330757344 L 494.9477351916376 107.41885625966 L 496.68989547038325 107.88253477588876 L 498.4320557491289 101.39103554868626 L 500.17421602787454 103.70942812983003 L 501.9163763066202 100 L 503.6585365853658 103.47758887171562 L 505.40069686411147 106.02782071097374 L 507.1428571428571 106.72333848531684 L 508.88501742160275 112.17156105100463 L 510.6271777003484 118.66306027820713 L 512.3693379790941 126.08191653786707 L 514.1114982578397 125.61823802163838 L 515.8536585365853 128.0525502318393 L 517.595818815331 130.13910355486865 L 519.3379790940767 129.21174652241115 L 521.0801393728223 138.13755795981456 L 522.822299651568 139.52859350850082 L 524.5644599303137 143.46986089644514 L 526.3066202090592 142.4265842349305 L 528.0487804878048 146.71561051004636 L 529.7909407665505 146.94744976816074 L 531.5331010452962 149.8454404945904 L 533.2752613240418 151.35239567233384 L 535.0174216027874 149.0340030911901 L 536.7595818815331 149.14992272024728 L 538.5017421602788 149.0340030911901 L 540.2439024390244 149.14992272024728 L 541.98606271777 151.93199381761977 L 543.7282229965157 156.2210200927357 L 545.4703832752614 156.2210200927357 L 547.212543554007 158.6553323029366 L 548.9547038327526 158.42349304482224 L 550.6968641114983 157.14837712519318 L 552.439024390244 148.57032457496135 L 554.1811846689895 155.17774343122102 L 555.9233449477351 159.46676970633692 L 557.6655052264808 156.68469860896445 L 559.4076655052265 162.01700154559504 L 561.1498257839721 160.6259659969088 L 562.8919860627177 162.71251931993817 L 564.6341463414634 164.91499227202473 L 566.3763066202091 162.94435857805254 L 568.1184668989547 161.32148377125193 L 569.8606271777003 163.87171561051005 L 571.602787456446 172.44976816074188 L 573.3449477351917 175.34775888717155 L 575.0871080139373 172.79752704791343 L 576.8292682926829 167.92890262751158 L 578.5714285714286 169.89953632148377 L 580.3135888501743 174.53632148377125 L 582.0557491289198 152.27975270479135 L 583.7979094076654 157.9598145285935 L 585.5400696864111 153.20710973724883 L 587.2822299651568 155.06182380216381 L 589.0243902439024 152.04791344667697 L 590.766550522648 154.4822256568779 L 592.5087108013937 157.49613601236476 L 594.2508710801394 158.1916537867079 L 595.993031358885 151.93199381761977 L 597.7351916376306 153.5548686244204 L 599.4773519163763 157.61205564142193 L 601.219512195122 168.04482225656878 L 602.9616724738676 167.34930448222565 L 604.7038327526132 170.24729520865532 L 606.4459930313589 173.84080370942812 L 608.1881533101046 178.01391035548684 L 609.9303135888501 181.0278207109737 L 611.6724738675957 181.37557959814526 L 613.4146341463414 185.31684698608964 L 615.1567944250871 182.8825347758887 L 616.8989547038327 184.50540958268934 L 618.6411149825783 188.4466769706337 L 620.383275261324 190.0695517774343 L 622.1254355400697 196.4451313755796 L 623.8675958188153 195.98145285935084 L 625.609756097561 196.90880989180835 L 627.3519163763067 203.16846986089644 L 629.0940766550523 212.09428129829985 L 630.8362369337979 214.52859350850076 L 632.5783972125436 217.42658423493043 L 634.3205574912893 217.42658423493043 L 636.0627177700349 216.8469860896445 L 637.8048780487804 215.919629057187 L 639.5470383275261 221.2519319938176 L 641.2891986062718 224.0340030911901 L 643.0313588850174 230.87326120556412 L 644.773519163763 237.13292117465224 L 646.5156794425087 237.36476043276662 L 648.2578397212544 241.0741885625966 L 650 240.14683153013908 L 650 400 Z" /><text  class="poloto_labels poloto_text poloto_title" alignment-baseline="start" text-anchor="middle" font-size="x-large" x="400" y="37.5" >Total players on 2021-05-26</text><text  class="poloto_labels poloto_text poloto_xname" alignment-baseline="start" text-anchor="middle" font-size="x-large" x="400" y="481.25" >Time</text><text  class="poloto_labels poloto_text poloto_yname" alignment-baseline="start" text-anchor="middle" font-size="x-large" transform="rotate(-90,37.5,250)" x="37.5" y="250" >Count</text><line  class="poloto_axis_lines" stroke="black" x1="208.0487804878049" x2="208.0487804878049" y1="400" y2="405" /><text  class="poloto_tick_labels poloto_text" alignment-baseline="start" text-anchor="middle" x="208.0487804878049" y="430" > 03:00</text><line  class="poloto_axis_lines" stroke="black" x1="266.1207897793264" x2="266.1207897793264" y1="400" y2="405" /><text  class="poloto_tick_labels poloto_text" alignment-baseline="start" text-anchor="middle" x="266.1207897793264" y="430" > 06:00</text><line  class="poloto_axis_lines" stroke="black" x1="324.19279907084785" x2="324.19279907084785" y1="400" y2="405" /><text  class="poloto_tick_labels poloto_text" alignment-baseline="start" text-anchor="middle" x="324.19279907084785" y="430" > 08:00</text><line  class="poloto_axis_lines" stroke="black" x1="382.2648083623693" x2="382.2648083623693" y1="400" y2="405" /><text  class="poloto_tick_labels poloto_text" alignment-baseline="start" text-anchor="middle" x="382.2648083623693" y="430" > 11:00</text><line  class="poloto_axis_lines" stroke="black" x1="440.3368176538908" x2="440.3368176538908" y1="400" y2="405" /><text  class="poloto_tick_labels poloto_text" alignment-baseline="start" text-anchor="middle" x="440.3368176538908" y="430" > 14:00</text><line  class="poloto_axis_lines" stroke="black" x1="498.4088269454123" x2="498.4088269454123" y1="400" y2="405" /><text  class="poloto_tick_labels poloto_text" alignment-baseline="start" text-anchor="middle" x="498.4088269454123" y="430" > 17:00</text><line  class="poloto_axis_lines" stroke="black" x1="556.4808362369338" x2="556.4808362369338" y1="400" y2="405" /><text  class="poloto_tick_labels poloto_text" alignment-baseline="start" text-anchor="middle" x="556.4808362369338" y="430" > 19:00</text><line  class="poloto_axis_lines" stroke="black" x1="614.5528455284552" x2="614.5528455284552" y1="400" y2="405" /><text  class="poloto_tick_labels poloto_text" alignment-baseline="start" text-anchor="middle" x="614.5528455284552" y="430" > 22:00</text><line  class="poloto_axis_lines" stroke="black" x1="150" x2="144" y1="343.4312210200927" y2="343.4312210200927" /><text  class="poloto_tick_labels poloto_text" alignment-baseline="middle" text-anchor="end" x="135" y="343.4312210200927" > 500</text><line  class="poloto_axis_lines" stroke="black" x1="150" x2="144" y1="285.47140649149924" y2="285.47140649149924" /><text  class="poloto_tick_labels poloto_text" alignment-baseline="middle" text-anchor="end" x="135" y="285.47140649149924" > 1000</text><line  class="poloto_axis_lines" stroke="black" x1="150" x2="144" y1="227.5115919629057" y2="227.5115919629057" /><text  class="poloto_tick_labels poloto_text" alignment-baseline="middle" text-anchor="end" x="135" y="227.5115919629057" > 1500</text><line  class="poloto_axis_lines" stroke="black" x1="150" x2="144" y1="169.5517774343122" y2="169.5517774343122" /><text  class="poloto_tick_labels poloto_text" alignment-baseline="middle" text-anchor="end" x="135" y="169.5517774343122" > 2000</text><line  class="poloto_axis_lines" stroke="black" x1="150" x2="144" y1="111.59196290571873" y2="111.59196290571873" /><text  class="poloto_tick_labels poloto_text" alignment-baseline="middle" text-anchor="end" x="135" y="111.59196290571873" > 2500</text><path  stroke="black" fill="none" class="poloto_axis_lines" style="stroke-dasharray:14.518002322880372;stroke-dashoffset:-58.04878048780488;" d=" M 150 400 L 650 400" /><path  stroke="black" fill="none" class="poloto_axis_lines" style="stroke-dasharray:5.79598145285935;stroke-dashoffset:-56.56877897990726;" d=" M 150 400 L 150 100" /></svg>