<svg class="poloto" width="800" height="500" viewBox="0 0 800 500" xmlns="http://www.w3.org/2000/svg"><style>.poloto { stroke-linecap:round; stroke-linejoin:round; font-family: 'Tahoma', sans-serif; background-color: AliceBlue;} .poloto_scatter{stroke-width:7} .poloto_line{stroke-width:2} .poloto_text{fill: black;} .poloto_axis_lines{stroke: black;stroke-width:3;fill:none;stroke-dasharray:none} .poloto0stroke{stroke:  blue;} .poloto1stroke{stroke:  red;} .poloto2stroke{stroke:  green;} .poloto3stroke{stroke:  gold;} .poloto4stroke{stroke:  aqua;} .poloto5stroke{stroke:  lime;} .poloto6stroke{stroke:  orange;} .poloto7stroke{stroke:  chocolate;} .poloto0fill{fill:blue;} .poloto1fill{fill:red;} .poloto2fill{fill:green;} .poloto3fill{fill:gold;} .poloto4fill{fill:aqua;} .poloto5fill{fill:lime;} .poloto6fill{fill:orange;} .poloto7fill{fill:chocolate;}</style><text  class="poloto_text poloto_legend_text" alignment-baseline="middle" text-anchor="start" font-size="large" x="675" y="100" ></text><path  class="poloto_linefill poloto0fill" d=" M 150 400 L 150 313.25714285714287 L 151.74216027874564 313.25714285714287 L 153.4843205574913 323.54285714285714 L 155.22648083623693 329.54285714285714 L 156.96864111498257 334 L 158.71080139372822 338.1142857142857 L 160.45296167247386 344.1142857142857 L 162.1951219512195 345.65714285714284 L 163.93728222996515 345.1428571428571 L 165.6794425087108 348.2285714285714 L 167.42160278745644 346.34285714285716 L 169.16376306620208 343.9428571428571 L 170.90592334494772 352.1714285714286 L 172.64808362369337 354.74285714285713 L 174.390243902439 356.2857142857143 L 176.13240418118465 361.9428571428571 L 177.8745644599303 360.4 L 179.61672473867597 363.1428571428571 L 181.3588850174216 371.0285714285714 L 183.10104529616726 367.42857142857144 L 184.8432055749129 370.85714285714283 L 186.58536585365854 371.0285714285714 L 188.3275261324042 372.4 L 190.06968641114983 376.85714285714283 L 191.81184668989548 376.1714285714286 L 193.55400696864112 382 L 195.29616724738676 383.2 L 197.0383275261324 382 L 198.78048780487805 382.34285714285716 L 200.5226480836237 376.51428571428573 L 202.26480836236934 376.1714285714286 L 204.00696864111498 371.54285714285714 L 205.74912891986062 371.37142857142857 L 207.49128919860627 372.9142857142857 L 209.2334494773519 367.42857142857144 L 210.97560975609755 368.6285714285714 L 212.7177700348432 373.0857142857143 L 214.45993031358887 374.45714285714286 L 216.2020905923345 373.42857142857144 L 217.94425087108016 371.88571428571424 L 219.6864111498258 372.0571428571428 L 221.42857142857144 375.8285714285714 L 223.1707317073171 375.48571428571427 L 224.91289198606273 379.6 L 226.65505226480838 382.51428571428573 L 228.39721254355402 381.1428571428571 L 230.13937282229966 383.71428571428567 L 231.8815331010453 382 L 233.62369337979095 381.65714285714284 L 235.3658536585366 387.8285714285714 L 237.10801393728224 390.2285714285714 L 238.85017421602788 392.6285714285714 L 240.59233449477352 392.45714285714286 L 242.33449477351917 393.3142857142857 L 244.0766550522648 395.54285714285714 L 245.81881533101046 395.0285714285714 L 247.5609756097561 393.1428571428571 L 249.30313588850174 389.0285714285714 L 251.0452961672474 391.7714285714286 L 252.78745644599303 387.1428571428571 L 254.52961672473867 388.34285714285716 L 256.2717770034843 387.65714285714284 L 258.01393728222996 383.54285714285714 L 259.7560975609756 383.37142857142857 L 261.49825783972125 383.71428571428567 L 263.2404181184669 383.54285714285714 L 264.98257839721254 385.9428571428571 L 266.7247386759582 388.34285714285716 L 268.4668989547038 389.88571428571424 L 270.20905923344947 393.8285714285714 L 271.9512195121951 396.0571428571428 L 273.69337979094075 397.9428571428571 L 275.4355400696864 399.3142857142857 L 277.17770034843204 400 L 278.91986062717774 396.9142857142857 L 280.6620209059233 396.2285714285714 L 282.404181184669 395.0285714285714 L 284.1463414634146 388.1714285714286 L 285.8885017421603 381.8285714285714 L 287.6306620209059 376.1714285714286 L 289.3728222996516 373.25714285714287 L 291.1149825783972 365.88571428571424 L 292.8571428571429 367.6 L 294.5993031358885 370.34285714285716 L 296.3414634146342 367.25714285714287 L 298.08362369337976 371.0285714285714 L 299.82578397212546 368.2857142857143 L 301.56794425087105 368.79999999999995 L 303.31010452961675 365.54285714285714 L 305.05226480836234 364.34285714285716 L 306.79442508710804 366.57142857142856 L 308.5365853658536 366.0571428571428 L 310.2787456445993 369.65714285714284 L 312.0209059233449 366.0571428571428 L 313.7630662020906 361.42857142857144 L 315.5052264808362 361.42857142857144 L 317.2473867595819 361.7714285714286 L 318.9895470383275 364.6857142857143 L 320.7317073170732 362.2857142857143 L 322.4738675958188 363.1428571428571 L 324.2160278745645 363.65714285714284 L 325.9581881533101 360.2285714285714 L 327.70034843205576 358.34285714285716 L 329.4425087108014 357.3142857142857 L 331.18466898954705 359.88571428571424 L 332.9268292682927 360.4 L 334.66898954703834 360.2285714285714 L 336.411149825784 360.4 L 338.1533101045296 356.97142857142853 L 339.89547038327527 355.0857142857143 L 341.6376306620209 353.37142857142857 L 343.37979094076655 350.45714285714286 L 345.1219512195122 348.0571428571428 L 346.86411149825784 350.2857142857143 L 348.6062717770035 349.0857142857143 L 350.34843205574913 340.6857142857143 L 352.0905923344948 342.4 L 353.8327526132404 339.48571428571427 L 355.57491289198606 340.51428571428573 L 357.3170731707317 332.97142857142853 L 359.05923344947735 330.9142857142857 L 360.801393728223 332.1142857142857 L 362.54355400696863 321.3142857142857 L 364.2857142857143 320.97142857142853 L 366.0278745644599 315.3142857142857 L 367.77003484320556 311.54285714285714 L 369.5121951219512 311.2 L 371.25435540069685 310.1714285714286 L 372.9965156794425 309.3142857142857 L 374.73867595818814 297.1428571428571 L 376.4808362369338 298.85714285714283 L 378.2229965156795 319.0857142857143 L 379.96515679442507 292.34285714285716 L 381.70731707317077 289.42857142857144 L 383.44947735191636 288.0571428571428 L 385.19163763066206 286.85714285714283 L 386.93379790940764 279.3142857142857 L 388.67595818815334 274.34285714285716 L 390.41811846689893 283.6 L 392.16027874564463 272.11428571428576 L 393.9024390243902 278.1142857142857 L 395.6445993031359 266.11428571428576 L 397.3867595818815 277.6 L 399.1289198606272 273.3142857142857 L 400.8710801393728 272.79999999999995 L 402.6132404181185 269.3714285714285 L 404.3554006968641 265.25714285714287 L 406.0975609756098 265.0857142857143 L 407.8397212543554 280 L 409.58188153310107 258.0571428571428 L 411.3240418118467 258.0571428571428 L 413.06620209059236 257.5428571428571 L 414.808362369338 256.6857142857143 L 416.55052264808364 260.11428571428576 L 418.2926829268293 246.22857142857143 L 420.03484320557493 259.6 L 421.7770034843206 246.05714285714285 L 423.5191637630662 231.14285714285714 L 425.26132404181186 228.4 L 427.0034843205575 215.19999999999996 L 428.74564459930315 221.19999999999996 L 430.4878048780488 225.65714285714287 L 432.22996515679444 218.97142857142856 L 433.9721254355401 217.6 L 435.7142857142857 221.7142857142857 L 437.45644599303137 206.11428571428573 L 439.198606271777 200.79999999999998 L 440.94076655052265 195.99999999999997 L 442.6829268292683 194.6285714285714 L 444.42508710801394 192.22857142857143 L 446.1672473867596 185.37142857142854 L 447.9094076655052 175.77142857142857 L 449.65156794425087 179.7142857142857 L 451.3937282229965 171.14285714285714 L 453.13588850174216 169.94285714285715 L 454.8780487804878 162.4 L 456.62020905923345 150.22857142857143 L 458.3623693379791 151.42857142857142 L 460.10452961672473 151.6 L 461.8466898954704 139.25714285714287 L 463.588850174216 138.74285714285713 L 465.33101045296166 131.5428571428571 L 467.0731707317073 140.62857142857138 L 468.81533101045295 141.1428571428571 L 470.5574912891986 138.05714285714282 L 472.29965156794424 133.25714285714287 L 474.0418118466899 130.6857142857143 L 475.7839721254355 130.34285714285716 L 477.52613240418117 133.7714285714286 L 479.2682926829268 122.62857142857138 L 481.01045296167246 120.57142857142856 L 482.7526132404181 112.85714285714289 L 484.49477351916374 122.4571428571428 L 486.2369337979094 122.11428571428576 L 487.97909407665503 134.28571428571422 L 489.7212543554007 115.94285714285718 L 491.4634146341463 117.31428571428569 L 493.20557491289196 111.65714285714284 L 494.9477351916376 109.60000000000002 L 496.68989547038325 104.28571428571422 L 498.4320557491289 100.85714285714289 L 500.17421602787454 106.51428571428573 L 501.91637630662024 109.08571428571429 L 503.6585365853659 100 L 505.4006968641115 118.34285714285716 L 507.14285714285717 117.65714285714284 L 508.8850174216028 117.31428571428569 L 510.62717770034845 115.94285714285718 L 512.3693379790941 118 L 514.1114982578397 137.88571428571424 L 515.8536585365854 130.8571428571429 L 517.5958188153311 142.17142857142858 L 519.3379790940767 147.31428571428572 L 521.0801393728223 163.77142857142857 L 522.822299651568 161.19999999999996 L 524.5644599303137 165.14285714285714 L 526.3066202090592 165.65714285714287 L 528.0487804878048 172.85714285714286 L 529.7909407665505 177.14285714285714 L 531.5331010452962 175.25714285714284 L 533.2752613240418 176.45714285714283 L 535.0174216027874 185.19999999999996 L 536.7595818815331 188.45714285714283 L 538.5017421602788 191.19999999999996 L 540.2439024390244 206.6285714285714 L 541.98606271777 190.5142857142857 L 543.7282229965157 195.8285714285714 L 545.4703832752614 194.97142857142856 L 547.212543554007 198.7428571428571 L 548.9547038327526 218.45714285714283 L 550.6968641114983 218.11428571428573 L 552.439024390244 219.31428571428572 L 554.1811846689895 226.17142857142855 L 555.9233449477351 217.42857142857142 L 557.6655052264808 216.91428571428568 L 559.4076655052265 221.7142857142857 L 561.1498257839721 219.99999999999997 L 562.8919860627177 221.54285714285712 L 564.6341463414634 220.5142857142857 L 566.3763066202091 221.7142857142857 L 568.1184668989547 230.45714285714283 L 569.8606271777003 229.6 L 571.602787456446 228.7428571428571 L 573.3449477351917 225.14285714285714 L 575.0871080139373 235.94285714285715 L 576.8292682926829 240.91428571428568 L 578.5714285714286 240.7428571428571 L 580.3135888501743 244.68571428571428 L 582.0557491289198 244.5142857142857 L 583.7979094076654 259.6 L 585.5400696864111 249.8285714285714 L 587.2822299651568 246.7428571428571 L 589.0243902439024 249.8285714285714 L 590.766550522648 249.99999999999997 L 592.5087108013937 253.25714285714284 L 594.2508710801394 257.71428571428567 L 595.993031358885 242.97142857142856 L 597.7351916376306 243.99999999999997 L 599.4773519163763 243.65714285714287 L 601.219512195122 248.79999999999998 L 602.9616724738676 255.65714285714287 L 604.7038327526133 253.08571428571426 L 606.445993031359 252.22857142857143 L 608.1881533101046 257.02857142857147 L 609.9303135888501 259.7714285714286 L 611.6724738675958 260.11428571428576 L 613.4146341463415 268.8571428571429 L 615.1567944250871 274.51428571428573 L 616.8989547038327 266.97142857142853 L 618.6411149825784 271.42857142857144 L 620.3832752613241 269.02857142857147 L 622.1254355400697 272.2857142857142 L 623.8675958188153 278.45714285714286 L 625.609756097561 284.97142857142853 L 627.3519163763067 286.34285714285716 L 629.0940766550523 283.9428571428571 L 630.8362369337979 291.65714285714284 L 632.5783972125436 299.0285714285714 L 634.3205574912893 306.74285714285713 L 636.0627177700349 308.79999999999995 L 637.8048780487804 313.7714285714286 L 639.5470383275261 316.1714285714286 L 641.2891986062718 322 L 643.0313588850174 339.1428571428571 L 644.773519163763 342.4 L 646.5156794425087 344.2857142857143 L 648.2578397212544 342.0571428571428 L 650 350.2857142857143 L 650 400 Z" /><text  class="poloto_labels poloto_text poloto_title" alignment-baseline="start" text-anchor="middle" font-size="x-large" x="400" y="37.5" >Total players on 2021-10-19</text><text  class="poloto_labels poloto_text poloto_xname" alignment-baseline="start" text-anchor="middle" font-size="x-large" x="400" y="481.25" >Time</text><text  class="poloto_labels poloto_text poloto_yname" alignment-baseline="start" text-anchor="middle" font-size="x-large" transform="rotate(-90,37.5,250)" x="37.5" y="250" >Count</text><line  class="poloto_axis_lines" stroke="black" x1="150" x2="150" y1="400" y2="405" /><text  class="poloto_tick_labels poloto_text" alignment-baseline="start" text-anchor="middle" x="150" y="430" > 00:00</text><line  class="poloto_axis_lines" stroke="black" x1="266.14401858304296" x2="266.14401858304296" y1="400" y2="405" /><text  class="poloto_tick_labels poloto_text" alignment-baseline="start" text-anchor="middle" x="266.14401858304296" y="430" > 06:00</text><line  class="poloto_axis_lines" stroke="black" x1="382.2880371660859" x2="382.2880371660859" y1="400" y2="405" /><text  class="poloto_tick_labels poloto_text" alignment-baseline="start" text-anchor="middle" x="382.2880371660859" y="430" > 11:00</text><line  class="poloto_axis_lines" stroke="black" x1="498.4320557491289" x2="498.4320557491289" y1="400" y2="405" /><text  class="poloto_tick_labels poloto_text" alignment-baseline="start" text-anchor="middle" x="498.4320557491289" y="430" > 17:00</text><line  class="poloto_axis_lines" stroke="black" x1="614.5760743321719" x2="614.5760743321719" y1="400" y2="405" /><text  class="poloto_tick_labels poloto_text" alignment-baseline="start" text-anchor="middle" x="614.5760743321719" y="430" > 22:00</text><line  class="poloto_axis_lines" stroke="black" x1="150" x2="144" y1="361.0857142857143" y2="361.0857142857143" /><text  class="poloto_tick_labels poloto_text" alignment-baseline="middle" text-anchor="end" x="135" y="361.0857142857143" > 1000</text><line  class="poloto_axis_lines" stroke="black" x1="150" x2="144" y1="275.3714285714285" y2="275.3714285714285" /><text  class="poloto_tick_labels poloto_text" alignment-baseline="middle" text-anchor="end" x="135" y="275.3714285714285" > 1500</text><line  class="poloto_axis_lines" stroke="black" x1="150" x2="144" y1="189.65714285714284" y2="189.65714285714284" /><text  class="poloto_tick_labels poloto_text" alignment-baseline="middle" text-anchor="end" x="135" y="189.65714285714284" > 2000</text><line  class="poloto_axis_lines" stroke="black" x1="150" x2="144" y1="103.94285714285718" y2="103.94285714285718" /><text  class="poloto_tick_labels poloto_text" alignment-baseline="middle" text-anchor="end" x="135" y="103.94285714285718" > 2500</text><path  stroke="black" fill="none" class="poloto_axis_lines" style="stroke-dasharray:14.518002322880372;stroke-dashoffset:-0;" d=" M 150 400 L 650 400" /><path  stroke="black" fill="none" class="poloto_axis_lines" style="stroke-dasharray:8.571428571428571;stroke-dashoffset:-38.91428571428571;" d=" M 150 400 L 150 100" /></svg>