<svg class="poloto" width="800" height="500" viewBox="0 0 800 500" xmlns="http://www.w3.org/2000/svg"><style>.poloto { stroke-linecap:round; stroke-linejoin:round; font-family: 'Tahoma', sans-serif; background-color: AliceBlue;} .poloto_scatter{stroke-width:7} .poloto_line{stroke-width:2} .poloto_text{fill: black;} .poloto_axis_lines{stroke: black;stroke-width:3;fill:none;stroke-dasharray:none} .poloto0stroke{stroke:  blue;} .poloto1stroke{stroke:  red;} .poloto2stroke{stroke:  green;} .poloto3stroke{stroke:  gold;} .poloto4stroke{stroke:  aqua;} .poloto5stroke{stroke:  lime;} .poloto6stroke{stroke:  orange;} .poloto7stroke{stroke:  chocolate;} .poloto0fill{fill:blue;} .poloto1fill{fill:red;} .poloto2fill{fill:green;} .poloto3fill{fill:gold;} .poloto4fill{fill:aqua;} .poloto5fill{fill:lime;} .poloto6fill{fill:orange;} .poloto7fill{fill:chocolate;}</style><text  class="poloto_text poloto_legend_text" alignment-baseline="middle" text-anchor="start" font-size="large" x="675" y="100" ></text><path  class="poloto_linefill poloto0fill" d=" M 150 400 L 150 357.89186237028946 L 151.74216027874564 360.185690879301 L 153.4843205574913 367.06717640633536 L 155.22648083623693 365.75641725832884 L 156.96864111498257 365.9202621518296 L 158.71080139372822 364.1179683233206 L 160.45296167247386 364.1179683233206 L 162.1951219512195 364.44565811032226 L 163.93728222996515 364.1179683233206 L 165.6794425087108 365.10103768432555 L 167.42160278745644 369.52484980884765 L 169.16376306620208 369.68869470234847 L 170.90592334494772 376.57018022938286 L 172.64808362369337 381.15783724740584 L 174.390243902439 382.796286182414 L 176.13240418118465 381.9770617149099 L 177.8745644599303 382.6324412889132 L 179.61672473867597 384.92626979792465 L 181.3588850174216 384.92626979792465 L 183.10104529616726 380.8301474604042 L 184.8432055749129 383.61551064991806 L 186.58536585365854 384.7624249044238 L 188.3275261324042 383.61551064991806 L 190.06968641114983 387.54778809393775 L 191.81184668989548 386.5647187329329 L 193.55400696864112 386.40087383943205 L 195.29616724738676 383.9432004369197 L 197.0383275261324 386.5647187329329 L 198.78048780487805 385.58164937192794 L 200.5226480836237 382.30475150191154 L 202.26480836236934 379.68323320589843 L 204.00696864111498 382.796286182414 L 205.74912891986062 400 L 207.49128919860627 385.9093391589296 L 209.2334494773519 376.40633533588203 L 210.97560975609755 372.801747678864 L 212.7177700348432 374.9317312943747 L 214.45993031358887 375.9148006553796 L 216.2020905923345 374.9317312943747 L 217.94425087108016 375.42326597487715 L 219.6864111498258 376.8978700163845 L 221.42857142857144 374.9317312943747 L 223.1707317073171 376.57018022938286 L 224.91289198606273 377.7170944838886 L 226.65505226480838 376.40633533588203 L 228.39721254355402 383.2878208629164 L 230.13937282229966 385.74549426542876 L 231.8815331010453 388.0393227744402 L 233.62369337979095 384.92626979792465 L 235.3658536585366 386.23702894593123 L 237.10801393728224 385.74549426542876 L 238.85017421602788 382.1409066084107 L 240.59233449477352 381.64937192790825 L 242.33449477351917 378.0447842708902 L 244.0766550522648 373.94866193336975 L 245.81881533101046 367.5587110868378 L 247.5609756097561 366.4117968323321 L 249.30313588850174 370.5079191698526 L 251.0452961672474 368.5417804478427 L 252.78745644599303 363.9541234298198 L 254.52961672473867 365.9202621518296 L 256.2717770034843 376.24249044238127 L 258.01393728222996 375.0955761878755 L 259.7560975609756 375.587110868378 L 261.49825783972125 374.60404150737304 L 263.2404181184669 371.98252321135993 L 264.98257839721254 373.4571272528673 L 266.7247386759582 377.0617149098853 L 268.4668989547038 375.9148006553796 L 270.20905923344947 368.70562534134353 L 271.9512195121951 368.21409066084107 L 273.69337979094075 365.4287274713272 L 275.4355400696864 368.3779355543419 L 277.17770034843204 365.75641725832884 L 278.91986062717774 366.0841070453304 L 280.6620209059233 366.0841070453304 L 282.404181184669 362.15182960131074 L 284.1463414634146 356.74494811578376 L 285.8885017421603 347.0780993992354 L 287.6306620209059 349.04423812124526 L 289.3728222996516 346.75040961223374 L 291.1149825783972 342.8181321682141 L 292.8571428571429 341.83506280720917 L 294.5993031358885 342.32659748771164 L 296.3414634146342 342.8181321682141 L 298.08362369337976 342.32659748771164 L 299.82578397212546 350.5188421627526 L 301.56794425087105 342.6542872747133 L 303.31010452961675 345.4396504642272 L 305.05226480836234 350.19115237575096 L 306.79442508710804 353.30420535226654 L 308.5365853658536 354.77880939377394 L 310.2787456445993 356.2534134352813 L 312.0209059233449 355.598033861278 L 313.7630662020906 348.5527034407428 L 315.5052264808362 347.0780993992354 L 317.2473867595819 350.84653194975425 L 318.9895470383275 348.38885854724197 L 320.7317073170732 348.7165483342436 L 322.4738675958188 351.3380666302567 L 324.2160278745645 350.0273074822502 L 325.9581881533101 347.7334789732387 L 327.70034843205576 345.60349535772804 L 329.4425087108014 352.4849808847624 L 331.18466898954705 354.12342981977065 L 332.9268292682927 354.94265428727476 L 334.66898954703834 352.64882577826324 L 336.411149825784 354.2872747132715 L 338.1533101045296 344.2927362097215 L 339.89547038327527 339.37738940469694 L 341.6376306620209 338.8858547241945 L 343.37979094076655 338.8858547241945 L 345.1219512195122 333.64281813216826 L 346.86411149825784 337.5750955761879 L 348.6062717770035 330.5297651556527 L 350.34843205574913 320.8629164391043 L 352.0905923344948 319.7160021845986 L 353.8327526132404 315.4560349535773 L 355.57491289198606 314.9645002730748 L 357.3170731707317 313.48989623156746 L 359.05923344947735 309.8853085745494 L 360.801393728223 313.3260513380667 L 362.54355400696863 307.26379027853636 L 364.2857142857143 309.7214636810486 L 366.0278745644599 311.196067722556 L 367.77003484320556 307.75532495903883 L 369.5121951219512 308.5745494265429 L 371.25435540069685 304.96996176952484 L 372.9965156794425 301.6930638995085 L 374.73867595818814 294.4838885854724 L 376.4808362369338 292.35390496996183 L 378.2229965156795 295.9584926269798 L 379.96515679442507 295.1392681594757 L 381.70731707317077 282.3593664664118 L 383.44947735191636 282.195521572911 L 385.19163763066206 282.03167667941017 L 386.93379790940764 305.62534134352813 L 388.67595818815334 277.2801747678864 L 390.41811846689893 271.05406881485527 L 392.16027874564463 272.20098306936103 L 393.9024390243902 268.596395412343 L 395.6445993031359 275.64172583287825 L 397.3867595818815 278.75477880939377 L 399.1289198606272 268.26870562534134 L 400.8710801393728 272.8563626433643 L 402.6132404181185 274.00327689787 L 404.3554006968641 268.7602403058438 L 406.0975609756098 268.1048607318406 L 407.8397212543554 262.69797924631354 L 409.58188153310107 264.50027307482253 L 411.3240418118467 274.00327689787 L 413.06620209059236 265.1556526488258 L 414.808362369338 254.0141998907701 L 416.55052264808364 250.7373020207537 L 418.2926829268293 248.60731840524306 L 420.03484320557493 244.18350628072096 L 421.7770034843206 239.10431458219557 L 423.5191637630662 242.05352266521027 L 425.26132404181186 241.0704533042054 L 427.0034843205575 236.48279628618246 L 428.74564459930315 223.70289459311857 L 430.4878048780488 221.57291097760788 L 432.22996515679444 221.40906608410705 L 433.9721254355401 211.74221736755874 L 435.7142857142857 201.9115237575096 L 437.45644599303137 190.9339158929547 L 439.198606271777 187.32932823593666 L 440.94076655052265 189.62315674494812 L 442.6829268292683 186.18241398143095 L 444.42508710801394 181.92244675040962 L 446.1672473867596 198.79847078099402 L 447.9094076655052 172.2555980338613 L 449.65156794425087 173.07482250136542 L 451.3937282229965 155.70726379027855 L 453.13588850174216 150.62807209175315 L 454.8780487804878 177.82632441288916 L 456.62020905923345 144.0742763517204 L 458.3623693379791 139.9781540141999 L 460.10452961672473 132.60513380666305 L 461.8466898954704 129.81977061714912 L 463.588850174216 122.61059530311309 L 465.33101045296166 115.07373020207541 L 467.0731707317073 146.20425996723105 L 468.81533101045295 107.70070999453856 L 470.5574912891986 103.76843255051887 L 472.29965156794424 103.11305297651563 L 474.0418118466899 102.29382850901152 L 475.7839721254355 100.00000000000006 L 477.52613240418117 102.94920808301481 L 479.2682926829268 100.49153468050247 L 481.01045296167246 120.1529219006008 L 482.7526132404181 109.66684871654837 L 484.49477351916374 116.38448935008194 L 486.2369337979094 116.8760240305844 L 487.97909407665503 126.21518296013113 L 489.7212543554007 122.44675040961226 L 491.4634146341463 118.84216275259428 L 493.20557491289196 120.8083014746041 L 494.9477351916376 115.56526488257788 L 496.68989547038325 112.77990169306395 L 498.4320557491289 116.05679956308035 L 500.17421602787454 117.85909339158934 L 501.91637630662024 121.9552157291098 L 503.6585365853659 126.21518296013113 L 505.4006968641115 133.26051338066634 L 507.14285714285717 119.66138722009833 L 508.8850174216028 130.96668487165488 L 510.62717770034845 138.33970507919173 L 512.3693379790941 137.0289459311852 L 514.1114982578397 147.3511742217368 L 515.8536585365854 148.49808847624251 L 517.5958188153311 157.01802293828513 L 519.3379790940767 157.01802293828513 L 521.0801393728223 157.67340251228842 L 522.822299651568 163.7356635718187 L 524.5644599303137 178.64554888039328 L 526.3066202090592 184.05243036592032 L 528.0487804878048 191.26160567995635 L 529.7909407665505 205.5161114145276 L 531.5331010452962 207.48225013653746 L 533.2752613240418 214.6914254505735 L 535.0174216027874 206.17149098853088 L 536.7595818815331 205.5161114145276 L 538.5017421602788 206.3353358820317 L 540.2439024390244 211.08683779355545 L 541.98606271777 207.97378481703993 L 543.7282229965157 206.17149098853088 L 545.4703832752614 209.6122337520481 L 547.212543554007 217.47678864008742 L 548.9547038327526 225.50518842162757 L 550.6968641114983 231.56744948115784 L 552.439024390244 235.66357181867835 L 554.1811846689895 234.188967777171 L 555.9233449477351 233.04205352266524 L 557.6655052264808 235.49972692517753 L 559.4076655052265 245.00273074822502 L 561.1498257839721 243.36428181321685 L 562.8919860627177 243.85581649371932 L 564.6341463414634 242.70890223921356 L 566.3763066202091 250.7373020207537 L 568.1184668989547 253.68651010376846 L 569.8606271777003 257.94647733478973 L 571.602787456446 256.96340797378485 L 573.3449477351917 264.50027307482253 L 575.0871080139373 254.0141998907701 L 576.8292682926829 249.75423265974882 L 578.5714285714286 244.5111960677226 L 580.3135888501743 244.5111960677226 L 582.0557491289198 249.42654287274718 L 583.7979094076654 256.79956308028403 L 585.5400696864111 259.9126160567996 L 587.2822299651568 253.03113052976516 L 589.0243902439024 251.55652648825782 L 590.766550522648 248.27962861824142 L 592.5087108013937 251.55652648825782 L 594.2508710801394 254.83342435827421 L 595.993031358885 247.13271436373572 L 597.7351916376306 244.5111960677226 L 599.4773519163763 253.52266521026763 L 601.219512195122 262.3702894593119 L 602.9616724738676 263.84489350081924 L 604.7038327526133 267.28563626433646 L 606.445993031359 273.51174221736755 L 608.1881533101046 276.9524849808848 L 609.9303135888501 282.03167667941017 L 611.6724738675958 282.8509011469143 L 613.4146341463415 285.30857454942657 L 615.1567944250871 291.2069907154561 L 616.8989547038327 295.6308028399782 L 618.6411149825784 299.399235390497 L 620.3832752613241 305.62534134352813 L 622.1254355400697 314.9645002730748 L 623.8675958188153 317.2583287820863 L 625.609756097561 316.60294920808303 L 627.3519163763067 313.9814309120699 L 629.0940766550523 313.3260513380667 L 630.8362369337979 311.8514472965593 L 632.5783972125436 317.9137083560896 L 634.3205574912893 320.04369197160025 L 636.0627177700349 322.66521026761336 L 637.8048780487804 329.54669579464775 L 639.5470383275261 334.78973238667396 L 641.2891986062718 339.86892408519935 L 643.0313588850174 336.1004915346805 L 644.773519163763 343.3096668487166 L 646.5156794425087 343.96504642271987 L 648.2578397212544 350.84653194975425 L 650 349.3719279082469 L 650 400 Z" /><text  class="poloto_labels poloto_text poloto_title" alignment-baseline="start" text-anchor="middle" font-size="x-large" x="400" y="37.5" >Total players on 2021-09-22</text><text  class="poloto_labels poloto_text poloto_xname" alignment-baseline="start" text-anchor="middle" font-size="x-large" x="400" y="481.25" >Time</text><text  class="poloto_labels poloto_text poloto_yname" alignment-baseline="start" text-anchor="middle" font-size="x-large" transform="rotate(-90,37.5,250)" x="37.5" y="250" >Count</text><line  class="poloto_axis_lines" stroke="black" x1="150" x2="150" y1="400" y2="405" /><text  class="poloto_tick_labels poloto_text" alignment-baseline="start" text-anchor="middle" x="150" y="430" > 00:00:00</text><line  class="poloto_axis_lines" stroke="black" x1="266.14401858304296" x2="266.14401858304296" y1="400" y2="405" /><text  class="poloto_tick_labels poloto_text" alignment-baseline="start" text-anchor="middle" x="266.14401858304296" y="430" > 05:33:20</text><line  class="poloto_axis_lines" stroke="black" x1="382.2880371660859" x2="382.2880371660859" y1="400" y2="405" /><text  class="poloto_tick_labels poloto_text" alignment-baseline="start" text-anchor="middle" x="382.2880371660859" y="430" > 11:06:40</text><line  class="poloto_axis_lines" stroke="black" x1="498.4320557491289" x2="498.4320557491289" y1="400" y2="405" /><text  class="poloto_tick_labels poloto_text" alignment-baseline="start" text-anchor="middle" x="498.4320557491289" y="430" > 16:40:00</text><line  class="poloto_axis_lines" stroke="black" x1="614.5760743321719" x2="614.5760743321719" y1="400" y2="405" /><text  class="poloto_tick_labels poloto_text" alignment-baseline="start" text-anchor="middle" x="614.5760743321719" y="430" > 22:13:20</text><line  class="poloto_axis_lines" stroke="black" x1="150" x2="144" y1="383.61551064991806" y2="383.61551064991806" /><text  class="poloto_tick_labels poloto_text" alignment-baseline="middle" text-anchor="end" x="135" y="383.61551064991806" > 1000</text><line  class="poloto_axis_lines" stroke="black" x1="150" x2="144" y1="301.6930638995085" y2="301.6930638995085" /><text  class="poloto_tick_labels poloto_text" alignment-baseline="middle" text-anchor="end" x="135" y="301.6930638995085" > 1500</text><line  class="poloto_axis_lines" stroke="black" x1="150" x2="144" y1="219.77061714909888" y2="219.77061714909888" /><text  class="poloto_tick_labels poloto_text" alignment-baseline="middle" text-anchor="end" x="135" y="219.77061714909888" > 2000</text><line  class="poloto_axis_lines" stroke="black" x1="150" x2="144" y1="137.84817039868926" y2="137.84817039868926" /><text  class="poloto_tick_labels poloto_text" alignment-baseline="middle" text-anchor="end" x="135" y="137.84817039868926" > 2500</text><path  stroke="black" fill="none" class="poloto_axis_lines" style="stroke-dasharray:14.518002322880372;stroke-dashoffset:-0;" d=" M 150 400 L 650 400" /><path  stroke="black" fill="none" class="poloto_axis_lines" style="stroke-dasharray:8.19224467504096;stroke-dashoffset:-16.384489350081907;" d=" M 150 400 L 150 100" /></svg>