<svg class="poloto" width="800" height="500" viewBox="0 0 800 500" xmlns="http://www.w3.org/2000/svg"><style>.poloto { stroke-linecap:round; stroke-linejoin:round; font-family: 'Tahoma', sans-serif; background-color: AliceBlue;} .poloto_scatter{stroke-width:7} .poloto_line{stroke-width:2} .poloto_text{fill: black;} .poloto_axis_lines{stroke: black;stroke-width:3;fill:none;stroke-dasharray:none} .poloto0stroke{stroke:  blue;} .poloto1stroke{stroke:  red;} .poloto2stroke{stroke:  green;} .poloto3stroke{stroke:  gold;} .poloto4stroke{stroke:  aqua;} .poloto5stroke{stroke:  lime;} .poloto6stroke{stroke:  orange;} .poloto7stroke{stroke:  chocolate;} .poloto0fill{fill:blue;} .poloto1fill{fill:red;} .poloto2fill{fill:green;} .poloto3fill{fill:gold;} .poloto4fill{fill:aqua;} .poloto5fill{fill:lime;} .poloto6fill{fill:orange;} .poloto7fill{fill:chocolate;}</style><text  class="poloto_text poloto_legend_text" alignment-baseline="middle" text-anchor="start" font-size="large" x="675" y="100" ></text><path  class="poloto_linefill poloto0fill" d=" M 150 400 L 150 340.80717488789236 L 151.74216027874564 347.86995515695065 L 153.4843205574913 355.77354260089686 L 155.22648083623693 359.13677130044846 L 156.96864111498257 354.7645739910314 L 158.71080139372822 358.29596412556054 L 160.45296167247386 358.29596412556054 L 162.1951219512195 361.1547085201794 L 163.93728222996515 362.83632286995515 L 165.6794425087108 366.19955156950675 L 167.42160278745644 368.3856502242152 L 169.16376306620208 369.05829596412553 L 170.90592334494772 373.26233183856505 L 172.64808362369337 374.7757847533632 L 174.390243902439 374.1031390134529 L 176.13240418118465 369.89910313901345 L 177.8745644599303 369.89910313901345 L 179.61672473867597 373.4304932735426 L 181.3588850174216 373.4304932735426 L 183.10104529616726 379.65246636771303 L 184.8432055749129 379.3161434977578 L 186.58536585365854 382.84753363228697 L 188.3275261324042 386.7152466367713 L 190.06968641114983 386.7152466367713 L 191.81184668989548 386.21076233183857 L 193.55400696864112 394.2825112107623 L 195.29616724738676 395.45964125560533 L 197.0383275261324 397.4775784753363 L 198.78048780487805 394.786995515695 L 200.5226480836237 400 L 202.26480836236934 397.30941704035877 L 204.00696864111498 396.804932735426 L 205.74912891986062 392.0964125560538 L 207.49128919860627 391.4237668161435 L 209.2334494773519 386.5470852017937 L 210.97560975609755 383.3520179372197 L 212.7177700348432 389.57399103139016 L 214.45993031358887 391.9282511210762 L 216.2020905923345 392.6008968609865 L 217.94425087108016 391.08744394618833 L 219.6864111498258 394.95515695067263 L 221.42857142857144 396.13228699551564 L 223.1707317073171 398.9910313901345 L 224.91289198606273 398.9910313901345 L 226.65505226480838 394.4506726457399 L 228.39721254355402 390.9192825112108 L 230.13937282229966 390.7511210762332 L 231.8815331010453 394.2825112107623 L 233.62369337979095 394.2825112107623 L 235.3658536585366 387.72421524663673 L 237.10801393728224 381.50224215246635 L 238.85017421602788 378.30717488789236 L 240.59233449477352 381.8385650224215 L 242.33449477351917 377.4663677130045 L 244.0766550522648 376.457399103139 L 245.81881533101046 374.43946188340806 L 247.5609756097561 369.89910313901345 L 249.30313588850174 368.890134529148 L 251.0452961672474 360.14573991031386 L 252.78745644599303 364.8542600896861 L 254.52961672473867 365.19058295964123 L 256.2717770034843 361.4910313901345 L 258.01393728222996 362.3318385650224 L 259.7560975609756 366.19955156950675 L 261.49825783972125 371.0762331838565 L 263.2404181184669 373.59865470852014 L 264.98257839721254 374.60762331838566 L 266.7247386759582 376.28923766816143 L 268.4668989547038 374.60762331838566 L 270.20905923344947 379.3161434977578 L 271.9512195121951 377.1300448430493 L 273.69337979094075 378.97982062780267 L 275.4355400696864 384.02466367713004 L 277.17770034843204 384.3609865470852 L 278.91986062717774 383.6883408071749 L 280.6620209059233 378.1390134529148 L 282.404181184669 378.4753363228699 L 284.1463414634146 373.59865470852014 L 285.8885017421603 372.7578475336323 L 287.6306620209059 369.5627802690583 L 289.3728222996516 368.7219730941704 L 291.1149825783972 360.6502242152466 L 292.8571428571429 358.80044843049325 L 294.5993031358885 353.08295964125557 L 296.3414634146342 354.5964125560538 L 298.08362369337976 353.4192825112108 L 299.82578397212546 349.2152466367713 L 301.56794425087105 351.06502242152465 L 303.31010452961675 349.0470852017937 L 305.05226480836234 345.34753363228697 L 306.79442508710804 344.00224215246635 L 308.5365853658536 348.7107623318385 L 310.2787456445993 354.26008968609864 L 312.0209059233449 357.1188340807175 L 313.7630662020906 356.44618834080717 L 315.5052264808362 358.29596412556054 L 317.2473867595819 357.7914798206278 L 318.9895470383275 355.4372197309417 L 320.7317073170732 353.7556053811659 L 322.4738675958188 358.80044843049325 L 324.2160278745645 354.5964125560538 L 325.9581881533101 349.3834080717489 L 327.70034843205576 357.45515695067263 L 329.4425087108014 357.45515695067263 L 331.18466898954705 353.9237668161435 L 332.9268292682927 349.0470852017937 L 334.66898954703834 345.5156950672646 L 336.411149825784 339.7982062780269 L 338.1533101045296 337.44394618834076 L 339.89547038327527 338.2847533632287 L 341.6376306620209 341.47982062780267 L 343.37979094076655 338.2847533632287 L 345.1219512195122 336.26681614349775 L 346.86411149825784 331.390134529148 L 348.6062717770035 326.3452914798206 L 350.34843205574913 330.5493273542601 L 352.0905923344948 327.85874439461884 L 353.8327526132404 321.97309417040356 L 355.57491289198606 317.43273542600895 L 357.3170731707317 315.07847533632287 L 359.05923344947735 307.17488789237666 L 360.801393728223 307.34304932735427 L 362.54355400696863 303.30717488789236 L 364.2857142857143 305.82959641255604 L 366.0278745644599 308.0156950672646 L 367.77003484320556 306.50224215246635 L 369.5121951219512 303.97982062780267 L 371.25435540069685 299.7757847533632 L 372.9965156794425 293.7219730941704 L 374.73867595818814 295.4035874439462 L 376.4808362369338 293.0493273542601 L 378.2229965156795 291.70403587443946 L 379.96515679442507 287.66816143497755 L 381.70731707317077 283.4641255605381 L 383.44947735191636 277.41031390134526 L 385.19163763066206 277.41031390134526 L 386.93379790940764 276.4013452914798 L 388.67595818815334 274.3834080717489 L 390.41811846689893 277.0739910313901 L 392.16027874564463 275.5605381165919 L 393.9024390243902 279.09192825112103 L 395.6445993031359 284.1367713004484 L 397.3867595818815 282.95964125560533 L 399.1289198606272 269.67488789237666 L 400.8710801393728 269.50672645739905 L 402.6132404181185 266.6479820627803 L 404.3554006968641 264.7982062780269 L 406.0975609756098 263.78923766816143 L 407.8397212543554 266.47982062780267 L 409.58188153310107 261.77130044843045 L 411.3240418118467 259.4170403587444 L 413.06620209059236 254.372197309417 L 414.808362369338 250.33632286995515 L 416.55052264808364 239.91031390134526 L 418.2926829268293 237.89237668161434 L 420.03484320557493 239.06950672645735 L 421.7770034843206 229.48430493273543 L 423.5191637630662 181.05381165919277 L 425.26132404181186 211.15470852017933 L 427.0034843205575 204.76457399103134 L 428.74564459930315 206.61434977578472 L 430.4878048780488 201.2331838565022 L 432.22996515679444 199.04708520179372 L 433.9721254355401 189.7982062780269 L 435.7142857142857 249.49551569506724 L 437.45644599303137 181.72645739910308 L 439.198606271777 180.54932735426007 L 440.94076655052265 176.34529147982062 L 442.6829268292683 163.7331838565022 L 444.42508710801394 149.1031390134529 L 446.1672473867596 153.30717488789236 L 447.9094076655052 146.4125560538116 L 449.65156794425087 142.88116591928247 L 451.3937282229965 138.84529147982062 L 453.13588850174216 129.93273542600895 L 454.8780487804878 117.65695067264568 L 456.62020905923345 115.13452914798205 L 458.3623693379791 113.95739910313898 L 460.10452961672473 118.49775784753359 L 461.8466898954704 109.92152466367708 L 463.588850174216 112.44394618834076 L 465.33101045296166 104.03587443946185 L 467.0731707317073 117.82511210762328 L 468.81533101045295 110.59417040358738 L 470.5574912891986 108.2399103139013 L 472.29965156794424 107.90358744394615 L 474.0418118466899 111.26681614349775 L 475.7839721254355 116.14349775784751 L 477.52613240418117 116.98430493273537 L 479.2682926829268 115.97533632286991 L 481.01045296167246 107.7354260089686 L 482.7526132404181 112.94843049327352 L 484.49477351916374 111.4349775784753 L 486.2369337979094 114.46188340807174 L 487.97909407665503 112.94843049327352 L 489.7212543554007 118.83408071748875 L 491.4634146341463 121.86098654708519 L 493.20557491289196 118.49775784753359 L 494.9477351916376 111.6031390134529 L 496.68989547038325 110.25784753363223 L 498.4320557491289 101.17713004484301 L 500.17421602787454 109.58520179372192 L 501.91637630662024 101.51345291479817 L 503.6585365853659 99.99999999999994 L 505.4006968641115 116.14349775784751 L 507.14285714285717 113.78923766816138 L 508.8850174216028 116.31165919282506 L 510.62717770034845 128.92376681614348 L 512.3693379790941 123.54260089686096 L 514.1114982578397 128.58744394618833 L 515.8536585365854 130.7735426008968 L 517.5958188153311 135.65022421524662 L 519.3379790940767 132.95964125560533 L 521.0801393728223 150.28026905829591 L 522.822299651568 156.33408071748875 L 524.5644599303137 152.9708520179372 L 526.3066202090592 165.58295964125557 L 528.0487804878048 174.49551569506724 L 529.7909407665505 186.26681614349775 L 531.5331010452962 192.65695067264573 L 533.2752613240418 192.65695067264573 L 535.0174216027874 201.73766816143495 L 536.7595818815331 191.64798206278022 L 538.5017421602788 191.64798206278022 L 540.2439024390244 203.58744394618833 L 541.98606271777 201.4013452914798 L 543.7282229965157 206.44618834080717 L 545.4703832752614 213.677130044843 L 547.212543554007 202.0739910313901 L 548.9547038327526 201.2331838565022 L 550.6968641114983 214.01345291479817 L 552.439024390244 211.32286995515693 L 554.1811846689895 212.1636771300448 L 555.9233449477351 223.262331838565 L 557.6655052264808 214.01345291479817 L 559.4076655052265 227.2982062780269 L 561.1498257839721 227.8026905829596 L 562.8919860627177 225.95291479820628 L 564.6341463414634 228.6434977578475 L 566.3763066202091 234.02466367713004 L 568.1184668989547 236.37892376681611 L 569.8606271777003 237.72421524663673 L 571.602787456446 233.35201793721973 L 573.3449477351917 231.50224215246635 L 575.0871080139373 229.65246636771298 L 576.8292682926829 221.58071748878922 L 578.5714285714286 218.55381165919277 L 580.3135888501743 225.61659192825107 L 582.0557491289198 232.84753363228697 L 583.7979094076654 226.6255605381166 L 585.5400696864111 235.0336322869955 L 587.2822299651568 234.52914798206274 L 589.0243902439024 242.0964125560538 L 590.766550522648 247.3094170403587 L 592.5087108013937 256.72645739910314 L 594.2508710801394 257.23094170403584 L 595.993031358885 253.53139013452915 L 597.7351916376306 263.6210762331838 L 599.4773519163763 267.8251121076233 L 601.219512195122 275.0560538116592 L 602.9616724738676 278.7556053811659 L 604.7038327526133 283.96860986547085 L 606.445993031359 284.8094170403587 L 608.1881533101046 289.5179372197309 L 609.9303135888501 297.2533632286995 L 611.6724738675958 301.96188340807174 L 613.4146341463415 296.7488789237668 L 615.1567944250871 302.9708520179372 L 616.8989547038327 304.98878923766813 L 618.6411149825784 305.66143497757844 L 620.3832752613241 311.5470852017937 L 622.1254355400697 305.32511210762334 L 623.8675958188153 311.5470852017937 L 625.609756097561 315.58295964125557 L 627.3519163763067 317.7690582959641 L 629.0940766550523 321.6367713004484 L 630.8362369337979 325.16816143497755 L 632.5783972125436 327.3542600896861 L 634.3205574912893 331.2219730941704 L 636.0627177700349 334.2488789237668 L 637.8048780487804 340.80717488789236 L 639.5470383275261 339.6300448430493 L 641.2891986062718 346.52466367713004 L 643.0313588850174 347.3654708520179 L 644.773519163763 344.17040358744396 L 646.5156794425087 342.48878923766813 L 648.2578397212544 342.82511210762334 L 650 350.22421524663673 L 650 400 Z" /><text  class="poloto_labels poloto_text poloto_title" alignment-baseline="start" text-anchor="middle" font-size="x-large" x="400" y="37.5" >Total players on 2021-09-28</text><text  class="poloto_labels poloto_text poloto_xname" alignment-baseline="start" text-anchor="middle" font-size="x-large" x="400" y="481.25" >Time</text><text  class="poloto_labels poloto_text poloto_yname" alignment-baseline="start" text-anchor="middle" font-size="x-large" transform="rotate(-90,37.5,250)" x="37.5" y="250" >Count</text><line  class="poloto_axis_lines" stroke="black" x1="150" x2="150" y1="400" y2="405" /><text  class="poloto_tick_labels poloto_text" alignment-baseline="start" text-anchor="middle" x="150" y="430" > 00:00:00</text><line  class="poloto_axis_lines" stroke="black" x1="266.14401858304296" x2="266.14401858304296" y1="400" y2="405" /><text  class="poloto_tick_labels poloto_text" alignment-baseline="start" text-anchor="middle" x="266.14401858304296" y="430" > 05:33:20</text><line  class="poloto_axis_lines" stroke="black" x1="382.2880371660859" x2="382.2880371660859" y1="400" y2="405" /><text  class="poloto_tick_labels poloto_text" alignment-baseline="start" text-anchor="middle" x="382.2880371660859" y="430" > 11:06:40</text><line  class="poloto_axis_lines" stroke="black" x1="498.4320557491289" x2="498.4320557491289" y1="400" y2="405" /><text  class="poloto_tick_labels poloto_text" alignment-baseline="start" text-anchor="middle" x="498.4320557491289" y="430" > 16:40:00</text><line  class="poloto_axis_lines" stroke="black" x1="614.5760743321719" x2="614.5760743321719" y1="400" y2="405" /><text  class="poloto_tick_labels poloto_text" alignment-baseline="start" text-anchor="middle" x="614.5760743321719" y="430" > 22:13:20</text><line  class="poloto_axis_lines" stroke="black" x1="150" x2="144" y1="378.30717488789236" y2="378.30717488789236" /><text  class="poloto_tick_labels poloto_text" alignment-baseline="middle" text-anchor="end" x="135" y="378.30717488789236" > 1000</text><line  class="poloto_axis_lines" stroke="black" x1="150" x2="144" y1="294.2264573991031" y2="294.2264573991031" /><text  class="poloto_tick_labels poloto_text" alignment-baseline="middle" text-anchor="end" x="135" y="294.2264573991031" > 1500</text><line  class="poloto_axis_lines" stroke="black" x1="150" x2="144" y1="210.14573991031386" y2="210.14573991031386" /><text  class="poloto_tick_labels poloto_text" alignment-baseline="middle" text-anchor="end" x="135" y="210.14573991031386" > 2000</text><line  class="poloto_axis_lines" stroke="black" x1="150" x2="144" y1="126.06502242152465" y2="126.06502242152465" /><text  class="poloto_tick_labels poloto_text" alignment-baseline="middle" text-anchor="end" x="135" y="126.06502242152465" > 2500</text><path  stroke="black" fill="none" class="poloto_axis_lines" style="stroke-dasharray:14.518002322880372;stroke-dashoffset:-0;" d=" M 150 400 L 650 400" /><path  stroke="black" fill="none" class="poloto_axis_lines" style="stroke-dasharray:8.408071748878925;stroke-dashoffset:-21.69282511210764;" d=" M 150 400 L 150 100" /></svg>