<svg class="poloto" width="800" height="500" viewBox="0 0 800 500" xmlns="http://www.w3.org/2000/svg"><style>.poloto { stroke-linecap:round; stroke-linejoin:round; font-family: 'Tahoma', sans-serif; background-color: AliceBlue;} .poloto_scatter{stroke-width:7} .poloto_line{stroke-width:2} .poloto_text{fill: black;} .poloto_axis_lines{stroke: black;stroke-width:3;fill:none;stroke-dasharray:none} .poloto0stroke{stroke:  blue;} .poloto1stroke{stroke:  red;} .poloto2stroke{stroke:  green;} .poloto3stroke{stroke:  gold;} .poloto4stroke{stroke:  aqua;} .poloto5stroke{stroke:  lime;} .poloto6stroke{stroke:  orange;} .poloto7stroke{stroke:  chocolate;} .poloto0fill{fill:blue;} .poloto1fill{fill:red;} .poloto2fill{fill:green;} .poloto3fill{fill:gold;} .poloto4fill{fill:aqua;} .poloto5fill{fill:lime;} .poloto6fill{fill:orange;} .poloto7fill{fill:chocolate;}</style><text  class="poloto_text poloto_legend_text" alignment-baseline="middle" text-anchor="start" font-size="large" x="675" y="100" ></text><path  class="poloto_linefill poloto0fill" d=" M 150 400 L 150 334.1274951706375 L 151.74216027874564 338.76368319381845 L 153.4843205574913 337.9909851899549 L 155.22648083623693 342.43399871217 L 156.96864111498257 337.9909851899549 L 158.71080139372822 345.13844172569225 L 160.45296167247386 346.87701223438506 L 162.1951219512195 350.7405022537025 L 163.93728222996515 356.34256278171284 L 165.6794425087108 362.3309723116549 L 167.42160278745644 360.3992273019961 L 169.16376306620208 366.00128783000645 L 170.90592334494772 373.3419188667096 L 172.64808362369337 374.307791371539 L 174.390243902439 380.8757244043786 L 176.13240418118465 381.2620734063104 L 177.8745644599303 376.2395363811977 L 179.61672473867597 377.78493238892463 L 181.3588850174216 380.8757244043786 L 183.10104529616726 379.5235028976175 L 184.8432055749129 383.58016741790084 L 186.58536585365854 388.21635544108176 L 188.3275261324042 387.4436574372183 L 190.06968641114983 387.0573084352866 L 191.81184668989548 388.7958789439794 L 193.55400696864112 389.76175144880875 L 195.29616724738676 387.83000643915005 L 197.0383275261324 389.56857694784287 L 198.78048780487805 385.51191242755954 L 200.5226480836237 387.4436574372183 L 202.26480836236934 390.5344494526722 L 204.00696864111498 387.6368319381842 L 205.74912891986062 389.76175144880875 L 207.49128919860627 394.59111397295555 L 209.2334494773519 392.07984546039927 L 210.97560975609755 396.5228589826143 L 212.7177700348432 394.9774629748873 L 214.45993031358887 394.01159047005797 L 216.2020905923345 390.920798454604 L 217.94425087108016 390.3412749517064 L 219.6864111498258 396.3296844816484 L 221.42857142857144 392.65936896329686 L 223.1707317073171 395.75016097875084 L 224.91289198606273 400 L 226.65505226480838 396.5228589826143 L 228.39721254355402 396.7160334835802 L 230.13937282229966 397.8750804893754 L 231.8815331010453 389.1822279459111 L 233.62369337979095 392.65936896329686 L 235.3658536585366 388.21635544108176 L 237.10801393728224 390.3412749517064 L 238.85017421602788 390.920798454604 L 240.59233449477352 389.1822279459111 L 242.33449477351917 388.21635544108176 L 244.0766550522648 391.11397295556986 L 245.81881533101046 388.9890534449453 L 247.5609756097561 385.12556342562783 L 249.30313588850174 387.0573084352866 L 251.0452961672474 384.93238892466195 L 252.78745644599303 383.58016741790084 L 254.52961672473867 384.1596909207984 L 256.2717770034843 383.386992916935 L 258.01393728222996 387.0573084352866 L 259.7560975609756 383.00064391500325 L 261.49825783972125 384.1596909207984 L 263.2404181184669 379.5235028976175 L 264.98257839721254 376.0463618802318 L 266.7247386759582 365.80811332904057 L 268.4668989547038 362.3309723116549 L 270.20905923344947 361.75144880875723 L 271.9512195121951 356.34256278171284 L 273.69337979094075 351.32002575660016 L 275.4355400696864 349.00193174500964 L 277.17770034843204 350.35415325177075 L 278.9198606271777 352.4790727623954 L 280.6620209059233 351.89954925949775 L 282.40418118466897 352.2858982614295 L 284.1463414634146 352.67224726336127 L 285.88850174216026 355.1835157759176 L 287.6306620209059 354.4108177720541 L 289.37282229965155 353.6381197681906 L 291.1149825783972 346.6838377334192 L 292.85714285714283 347.07018673535094 L 294.5993031358885 340.3090792015454 L 296.3414634146342 336.05924018029623 L 298.08362369337976 330.4571796522859 L 299.82578397212546 329.49130714745655 L 301.56794425087105 326.9800386349002 L 303.31010452961675 327.5595621377978 L 305.05226480836234 325.820991629105 L 306.79442508710804 326.9800386349002 L 308.5365853658536 326.01416613007086 L 310.2787456445993 322.3438506117193 L 312.0209059233449 328.3322601416613 L 313.7630662020906 326.59368963296845 L 315.5052264808362 319.0598840952994 L 317.2473867595819 312.10560206052804 L 318.9895470383275 312.8783000643915 L 320.7317073170732 312.68512556342563 L 322.4738675958188 306.11719253058595 L 324.2160278745645 299.93560849967804 L 325.95818815331006 296.45846748229235 L 327.70034843205576 295.492594977463 L 329.44250871080135 294.33354797166777 L 331.18466898954705 288.73148744365744 L 332.92682926829264 293.56084996780424 L 334.66898954703834 290.6632324533162 L 336.4111498257839 294.52672247263365 L 338.1533101045296 290.856406954282 L 339.8954703832752 290.27688345138444 L 341.6376306620209 285.25434642627175 L 343.3797909407665 285.44752092723763 L 345.1219512195122 276.9478428847392 L 346.86411149825784 273.8570508692853 L 348.6062717770035 264.19832582099167 L 350.34843205574913 261.30070830650357 L 352.0905923344948 263.23245331616226 L 353.8327526132404 264.77784932388926 L 355.57491289198606 266.13007083065037 L 357.3170731707317 259.5621377978107 L 359.05923344947735 255.89182227945912 L 360.801393728223 254.1532517707663 L 362.54355400696863 252.02833226014167 L 364.2857142857143 247.00579523502898 L 366.0278745644599 237.92659368963297 L 367.77003484320556 240.6310367031552 L 369.5121951219512 238.6992916934965 L 371.25435540069685 243.14230521571153 L 372.9965156794425 235.02897617514492 L 374.73867595818814 229.04056664520283 L 376.4808362369338 226.91564713457825 L 378.2229965156794 217.06374758531877 L 379.96515679442507 219.18866709594334 L 381.7073170731707 211.8480360592402 L 383.44947735191636 202.76883451384418 L 385.191637630662 203.73470701867353 L 386.93379790940764 201.80296200901483 L 388.6759581881533 203.73470701867353 L 390.41811846689893 191.17836445589182 L 392.1602787456446 181.90598840952998 L 393.9024390243902 187.50804893754025 L 395.6445993031359 191.75788795878947 L 397.3867595818815 192.72376046361882 L 399.1289198606272 190.98518995492594 L 400.8710801393728 203.9278815196394 L 402.6132404181185 191.17836445589182 L 404.3554006968641 190.59884095299424 L 406.0975609756097 193.30328396651646 L 407.83972125435537 186.73535093367678 L 409.581881533101 182.09916291049586 L 411.32404181184666 184.03090792015456 L 413.0662020905923 173.9858338699292 L 414.80836236933794 172.24726336123632 L 416.5505226480836 168.9632968448165 L 418.29268292682923 172.24726336123632 L 420.0348432055749 167.6110753380554 L 421.7770034843206 159.3045717965229 L 423.5191637630662 159.11139729555703 L 425.26132404181186 151.38441725692212 L 427.0034843205575 156.79330328396657 L 428.74564459930315 162.20218931101095 L 430.4878048780488 149.64584674822925 L 432.22996515679444 150.80489375402448 L 433.9721254355401 143.27108821635545 L 435.7142857142857 151.77076625885388 L 437.45644599303137 138.63490019317453 L 439.198606271777 131.2942691564714 L 440.94076655052265 133.9987121699936 L 442.6829268292683 134.5782356728912 L 444.42508710801394 141.33934320669675 L 446.1672473867596 140.56664520283323 L 447.9094076655052 139.407598197038 L 449.65156794425087 139.60077269800388 L 451.3937282229965 140.18029620090152 L 453.13588850174216 121.63554410817773 L 454.8780487804878 123.3741146168706 L 456.62020905923345 123.3741146168706 L 458.3623693379791 126.07855763039282 L 460.10452961672473 120.4764971023825 L 461.8466898954704 130.71474565357374 L 463.588850174216 121.4423696072119 L 465.33101045296166 124.14681262073407 L 467.0731707317073 128.97617514488093 L 468.81533101045295 125.69220862846106 L 470.5574912891986 130.52157115260786 L 472.29965156794424 126.2717321313587 L 474.0418118466899 119.31745009658727 L 475.7839721254355 122.79459111397296 L 477.52613240418117 122.60141661300713 L 479.2682926829268 129.36252414681263 L 481.01045296167246 137.66902768834518 L 482.7526132404181 126.65808113329041 L 484.49477351916374 123.3741146168706 L 486.2369337979094 123.3741146168706 L 487.97909407665503 112.55634256278177 L 489.7212543554007 106.95428203477138 L 491.4634146341463 103.67031551835157 L 493.20557491289196 100 L 494.9477351916376 102.31809401159046 L 496.68989547038325 110.04507405022537 L 498.4320557491289 116.41983258209916 L 500.17421602787454 117.96522858982615 L 501.9163763066202 122.98776561493884 L 503.6585365853658 115.6471345782357 L 505.40069686411147 117.96522858982615 L 507.1428571428571 116.22665808113334 L 508.88501742160275 122.02189311010949 L 510.6271777003484 130.90792015453962 L 512.3693379790941 127.23760463618805 L 514.1114982578397 127.81712813908564 L 515.8536585365853 136.89632968448166 L 517.595818815331 132.26014166130074 L 519.3379790940767 147.3277527366388 L 521.0801393728223 146.36188023180944 L 522.822299651568 155.0547327752737 L 524.5644599303137 150.80489375402448 L 526.3066202090592 172.63361236316808 L 528.0487804878048 165.29298132646494 L 529.7909407665505 165.87250482936253 L 531.5331010452962 185.38312942691567 L 533.2752613240418 188.4739214423696 L 535.0174216027874 184.22408242112044 L 536.7595818815331 181.13329040566646 L 538.5017421602788 193.30328396651646 L 540.2439024390244 197.7462974887315 L 541.98606271777 194.8486799742434 L 543.7282229965157 196.2009014810045 L 545.4703832752614 189.8261429491307 L 547.212543554007 221.6999356084997 L 548.9547038327526 205.85962652929817 L 550.6968641114983 214.9388280746942 L 552.439024390244 220.34771410173857 L 554.1811846689895 217.06374758531877 L 555.9233449477351 221.31358660656798 L 557.6655052264808 224.79072762395367 L 559.4076655052265 226.72247263361237 L 561.1498257839721 226.33612363168066 L 562.8919860627177 225.75660012878302 L 564.6341463414634 230.39278815196394 L 566.3763066202091 240.4378622021893 L 568.1184668989547 223.82485511912432 L 569.8606271777003 230.97231165486158 L 571.602787456446 227.30199613651 L 573.3449477351917 241.21056020605283 L 575.0871080139373 234.44945267224728 L 576.8292682926829 233.6767546683838 L 578.5714285714286 237.73341918866714 L 580.3135888501743 235.99484867997427 L 582.0557491289198 240.0515132002576 L 583.7979094076654 241.79008370895042 L 585.5400696864111 246.4262717321314 L 587.2822299651568 239.0856406954282 L 589.0243902439024 241.9832582099163 L 590.766550522648 244.8808757244044 L 592.5087108013937 255.69864777849324 L 594.2508710801394 254.1532517707663 L 595.993031358885 252.22150676110755 L 597.7351916376306 258.0167417900837 L 599.4773519163763 264.3915003219575 L 601.219512195122 264.97102382485514 L 602.9616724738676 266.90276883451384 L 604.7038327526132 272.1184803605924 L 606.4459930313589 273.0843528654218 L 608.1881533101046 273.6638763683194 L 609.9303135888501 278.1068898905345 L 611.6724738675957 282.9362524146813 L 613.4146341463414 291.62910495814555 L 615.1567944250871 289.8905344494527 L 616.8989547038327 292.7881519639408 L 618.6411149825783 290.08370895041855 L 620.383275261324 296.8448164842241 L 622.1254355400697 302.0605280103027 L 623.8675958188153 301.8673535093368 L 625.609756097561 306.31036703155183 L 627.3519163763067 313.45782356728915 L 629.0940766550523 314.4236960721185 L 630.8362369337979 310.9465550547328 L 632.5783972125436 310.56020605280105 L 634.3205574912893 309.7875080489376 L 636.0627177700349 314.03734707018674 L 637.8048780487804 322.730199613651 L 639.5470383275261 328.13908564069544 L 641.2891986062718 325.4346426271732 L 643.0313588850174 331.809401159047 L 644.773519163763 338.76368319381845 L 646.5156794425087 340.50225370251127 L 648.2578397212544 344.7520927237605 L 650 345.13844172569225 L 650 400 Z" /><text  class="poloto_labels poloto_text poloto_title" alignment-baseline="start" text-anchor="middle" font-size="x-large" x="400" y="37.5" >Total players on 2021-06-19</text><text  class="poloto_labels poloto_text poloto_xname" alignment-baseline="start" text-anchor="middle" font-size="x-large" x="400" y="481.25" >Time</text><text  class="poloto_labels poloto_text poloto_yname" alignment-baseline="start" text-anchor="middle" font-size="x-large" transform="rotate(-90,37.5,250)" x="37.5" y="250" >Count</text><line  class="poloto_axis_lines" stroke="black" x1="208.0487804878049" x2="208.0487804878049" y1="400" y2="405" /><text  class="poloto_tick_labels poloto_text" alignment-baseline="start" text-anchor="middle" x="208.0487804878049" y="430" > 03:00</text><line  class="poloto_axis_lines" stroke="black" x1="266.1207897793264" x2="266.1207897793264" y1="400" y2="405" /><text  class="poloto_tick_labels poloto_text" alignment-baseline="start" text-anchor="middle" x="266.1207897793264" y="430" > 06:00</text><line  class="poloto_axis_lines" stroke="black" x1="324.19279907084785" x2="324.19279907084785" y1="400" y2="405" /><text  class="poloto_tick_labels poloto_text" alignment-baseline="start" text-anchor="middle" x="324.19279907084785" y="430" > 08:00</text><line  class="poloto_axis_lines" stroke="black" x1="382.2648083623693" x2="382.2648083623693" y1="400" y2="405" /><text  class="poloto_tick_labels poloto_text" alignment-baseline="start" text-anchor="middle" x="382.2648083623693" y="430" > 11:00</text><line  class="poloto_axis_lines" stroke="black" x1="440.3368176538908" x2="440.3368176538908" y1="400" y2="405" /><text  class="poloto_tick_labels poloto_text" alignment-baseline="start" text-anchor="middle" x="440.3368176538908" y="430" > 14:00</text><line  class="poloto_axis_lines" stroke="black" x1="498.4088269454123" x2="498.4088269454123" y1="400" y2="405" /><text  class="poloto_tick_labels poloto_text" alignment-baseline="start" text-anchor="middle" x="498.4088269454123" y="430" > 17:00</text><line  class="poloto_axis_lines" stroke="black" x1="556.4808362369338" x2="556.4808362369338" y1="400" y2="405" /><text  class="poloto_tick_labels poloto_text" alignment-baseline="start" text-anchor="middle" x="556.4808362369338" y="430" > 19:00</text><line  class="poloto_axis_lines" stroke="black" x1="614.5528455284552" x2="614.5528455284552" y1="400" y2="405" /><text  class="poloto_tick_labels poloto_text" alignment-baseline="start" text-anchor="middle" x="614.5528455284552" y="430" > 22:00</text><line  class="poloto_axis_lines" stroke="black" x1="150" x2="144" y1="334.1274951706375" y2="334.1274951706375" /><text  class="poloto_tick_labels poloto_text" alignment-baseline="middle" text-anchor="end" x="135" y="334.1274951706375" > 1500</text><line  class="poloto_axis_lines" stroke="black" x1="150" x2="144" y1="237.54024468770126" y2="237.54024468770126" /><text  class="poloto_tick_labels poloto_text" alignment-baseline="middle" text-anchor="end" x="135" y="237.54024468770126" > 2000</text><line  class="poloto_axis_lines" stroke="black" x1="150" x2="144" y1="140.952994204765" y2="140.952994204765" /><text  class="poloto_tick_labels poloto_text" alignment-baseline="middle" text-anchor="end" x="135" y="140.952994204765" > 2500</text><path  stroke="black" fill="none" class="poloto_axis_lines" style="stroke-dasharray:14.518002322880372;stroke-dashoffset:-58.04878048780488;" d=" M 150 400 L 650 400" /><path  stroke="black" fill="none" class="poloto_axis_lines" style="stroke-dasharray:9.658725048293624;stroke-dashoffset:-65.87250482936253;" d=" M 150 400 L 150 100" /></svg>