<svg class="poloto" width="800" height="500" viewBox="0 0 800 500" xmlns="http://www.w3.org/2000/svg"><style>.poloto { stroke-linecap:round; stroke-linejoin:round; font-family: 'Tahoma', sans-serif; background-color: AliceBlue;} .poloto_scatter{stroke-width:7} .poloto_line{stroke-width:2} .poloto_text{fill: black;} .poloto_axis_lines{stroke: black;stroke-width:3;fill:none;stroke-dasharray:none} .poloto0stroke{stroke:  blue;} .poloto1stroke{stroke:  red;} .poloto2stroke{stroke:  green;} .poloto3stroke{stroke:  gold;} .poloto4stroke{stroke:  aqua;} .poloto5stroke{stroke:  lime;} .poloto6stroke{stroke:  orange;} .poloto7stroke{stroke:  chocolate;} .poloto0fill{fill:blue;} .poloto1fill{fill:red;} .poloto2fill{fill:green;} .poloto3fill{fill:gold;} .poloto4fill{fill:aqua;} .poloto5fill{fill:lime;} .poloto6fill{fill:orange;} .poloto7fill{fill:chocolate;}</style><text  class="poloto_text poloto_legend_text" alignment-baseline="middle" text-anchor="start" font-size="large" x="675" y="100" ></text><path  class="poloto_linefill poloto0fill" d=" M 150 400 L 150 362.1451104100946 L 151.74216027874564 369.33753943217664 L 153.4843205574913 372.74447949526814 L 155.22648083623693 374.4479495268139 L 156.96864111498257 377.2870662460568 L 158.71080139372822 376.15141955835963 L 160.45296167247386 375.5835962145111 L 162.1951219512195 375.7728706624606 L 163.93728222996515 382.20820189274446 L 165.6794425087108 382.77602523659306 L 167.42160278745644 377.66561514195587 L 169.16376306620208 381.07255520504737 L 170.90592334494772 382.01892744479494 L 172.64808362369337 387.8864353312303 L 174.390243902439 386.75078864353316 L 176.13240418118465 386.56151419558364 L 177.8745644599303 384.1009463722397 L 179.61672473867597 380.8832807570978 L 181.3588850174216 377.47634069400635 L 183.10104529616726 378.0441640378549 L 184.8432055749129 385.42586750788644 L 186.58536585365854 386.37223974763407 L 188.3275261324042 388.0757097791798 L 190.06968641114983 388.2649842271294 L 191.81184668989548 385.80441640378547 L 193.55400696864112 387.1293375394322 L 195.29616724738676 380.8832807570978 L 197.0383275261324 379.3690851735016 L 198.78048780487805 375.5835962145111 L 200.5226480836237 374.25867507886437 L 202.26480836236934 375.205047318612 L 204.00696864111498 383.5331230283912 L 205.74912891986062 388.83280757097793 L 207.49128919860627 395.45741324921136 L 209.2334494773519 389.21135646687696 L 210.97560975609755 388.2649842271294 L 212.7177700348432 385.61514195583595 L 214.45993031358887 382.397476340694 L 216.2020905923345 383.7223974763407 L 217.94425087108016 376.7192429022082 L 219.6864111498258 382.01892744479494 L 221.42857142857144 378.801261829653 L 223.1707317073171 383.7223974763407 L 224.91289198606273 384.1009463722397 L 226.65505226480838 389.589905362776 L 228.39721254355402 390.9148264984227 L 230.13937282229966 388.2649842271294 L 231.8815331010453 393.9432176656152 L 233.62369337979095 393.5646687697161 L 235.3658536585366 390.7255520504732 L 237.10801393728224 391.4826498422713 L 238.85017421602788 393.186119873817 L 240.59233449477352 397.1608832807571 L 242.33449477351917 400 L 244.0766550522648 397.5394321766562 L 245.81881533101046 392.9968454258675 L 247.5609756097561 393.3753943217666 L 249.30313588850174 394.88958990536275 L 251.0452961672474 391.1041009463722 L 252.78745644599303 390.34700315457417 L 254.52961672473867 389.9684542586751 L 256.2717770034843 389.4006309148265 L 258.01393728222996 389.4006309148265 L 259.7560975609756 384.4794952681388 L 261.49825783972125 382.01892744479494 L 263.2404181184669 380.6940063091483 L 264.98257839721254 378.4227129337539 L 266.7247386759582 373.12302839116717 L 268.4668989547038 371.0410094637224 L 270.20905923344947 364.41640378548897 L 271.9512195121951 362.1451104100946 L 273.69337979094075 361.38801261829656 L 275.4355400696864 358.5488958990536 L 277.17770034843204 357.60252365930603 L 278.91986062717774 364.22712933753945 L 280.6620209059233 355.8990536277603 L 282.404181184669 354.57413249211356 L 284.1463414634146 353.05993690851733 L 285.8885017421603 352.11356466876975 L 287.6306620209059 353.05993690851733 L 289.3728222996516 350.410094637224 L 291.1149825783972 350.97791798107255 L 292.8571428571429 350.2208201892745 L 294.5993031358885 360.06309148264984 L 296.3414634146342 361.5772870662461 L 298.08362369337976 365.1735015772871 L 299.82578397212546 375.01577287066243 L 301.56794425087105 376.90851735015775 L 303.31010452961675 373.31230283911674 L 305.05226480836234 366.4984227129338 L 306.79442508710804 366.30914826498423 L 308.5365853658536 366.1198738170347 L 310.2787456445993 368.01261829653 L 312.0209059233449 367.06624605678235 L 313.7630662020906 359.8738170347003 L 315.5052264808362 360.25236593059935 L 317.2473867595819 352.30283911671927 L 318.9895470383275 349.0851735015773 L 320.7317073170732 350.410094637224 L 322.4738675958188 348.8958990536278 L 324.2160278745645 349.0851735015773 L 325.9581881533101 349.4637223974763 L 327.70034843205576 348.13880126182966 L 329.4425087108014 344.7318611987382 L 331.18466898954705 342.83911671924295 L 332.9268292682927 337.3501577287067 L 334.66898954703834 334.3217665615142 L 336.411149825784 329.77917981072557 L 338.1533101045296 327.1293375394322 L 339.89547038327527 330.34700315457417 L 341.6376306620209 325.42586750788644 L 343.37979094076655 337.9179810725552 L 345.1219512195122 335.6466876971609 L 346.86411149825784 328.0757097791798 L 348.6062717770035 318.4227129337539 L 350.34843205574913 317.8548895899054 L 352.0905923344948 315.0157728706625 L 353.8327526132404 308.7697160883281 L 355.57491289198606 317.8548895899054 L 357.3170731707317 312.74447949526814 L 359.05923344947735 319.1798107255521 L 360.801393728223 316.34069400630915 L 362.54355400696863 322.397476340694 L 364.2857142857143 318.61198738170344 L 366.0278745644599 318.4227129337539 L 367.77003484320556 306.4984227129338 L 369.5121951219512 307.06624605678235 L 371.25435540069685 301.9558359621451 L 372.9965156794425 304.60567823343854 L 374.73867595818814 299.8738170347003 L 376.4808362369338 300.4416403785489 L 378.2229965156795 294.9526813880126 L 379.96515679442507 296.4668769716088 L 381.70731707317077 288.51735015772874 L 383.44947735191636 285.11041009463725 L 385.19163763066206 276.97160883280753 L 386.93379790940764 267.3186119873817 L 388.67595818815334 252.36593059936908 L 390.41811846689893 265.993690851735 L 392.16027874564463 256.9085173501577 L 393.9024390243902 256.34069400630915 L 395.6445993031359 247.4447949526814 L 397.3867595818815 249.71608832807576 L 399.1289198606272 245.74132492113566 L 400.8710801393728 248.20189274447952 L 402.6132404181185 227.19242902208205 L 404.3554006968641 222.4605678233439 L 406.0975609756098 214.32176656151424 L 407.8397212543554 207.31861198738173 L 409.58188153310107 206.5615141955836 L 411.3240418118467 198.80126182965304 L 413.06620209059236 196.15141955835966 L 414.808362369338 193.50157728706628 L 416.55052264808364 194.06940063091483 L 418.2926829268293 173.05993690851736 L 420.03484320557493 188.76971608832812 L 421.7770034843206 161.8927444794953 L 423.5191637630662 169.84227129337543 L 425.26132404181186 155.45741324921138 L 427.0034843205575 161.8927444794953 L 428.74564459930315 156.78233438485805 L 430.4878048780488 149.211356466877 L 432.22996515679444 152.0504731861199 L 433.9721254355401 139.74763406940065 L 435.7142857142857 134.25867507886437 L 437.45644599303137 133.88012618296534 L 439.198606271777 131.60883280757105 L 440.94076655052265 142.01892744479494 L 442.6829268292683 151.48264984227134 L 444.42508710801394 125.74132492113563 L 446.1672473867596 124.79495268138805 L 447.9094076655052 117.60252365930603 L 449.65156794425087 115.89905362776028 L 451.3937282229965 107.57097791798105 L 453.13588850174216 106.43533123028396 L 454.8780487804878 106.05678233438493 L 456.62020905923345 104.16403785488967 L 458.3623693379791 111.35646687697158 L 460.10452961672473 106.62460567823348 L 461.8466898954704 102.46056782334392 L 463.588850174216 100 L 465.33101045296166 101.51419558359623 L 467.0731707317073 108.13880126182971 L 468.81533101045295 104.16403785488967 L 470.5574912891986 101.1356466876972 L 472.29965156794424 101.89274447949526 L 474.0418118466899 103.02839116719247 L 475.7839721254355 106.24605678233445 L 477.52613240418117 108.32807570977923 L 479.2682926829268 108.89589905362777 L 481.01045296167246 111.92429022082024 L 482.7526132404181 121.76656151419559 L 484.49477351916374 117.79179810725554 L 486.2369337979094 121.9558359621451 L 487.97909407665503 140.3154574132492 L 489.7212543554007 144.85804416403786 L 491.4634146341463 150.72555205047323 L 493.20557491289196 155.07886435331235 L 494.9477351916376 163.59621451104104 L 496.68989547038325 159.43217665615143 L 498.4320557491289 174.006309148265 L 500.17421602787454 165.86750788643533 L 501.91637630662024 169.08517350157732 L 503.6585365853659 174.7634069400631 L 505.4006968641115 176.46687697160885 L 507.14285714285717 176.46687697160885 L 508.8850174216028 188.01261829653 L 510.62717770034845 186.6876971608833 L 512.3693379790941 202.20820189274448 L 514.1114982578397 201.82965299684545 L 515.8536585365854 192.17665615141956 L 517.5958188153311 196.90851735015772 L 519.3379790940767 206.75078864353313 L 521.0801393728223 206.5615141955836 L 522.822299651568 199.9369085173502 L 524.5644599303137 208.26498422712936 L 526.3066202090592 192.36593059936908 L 528.0487804878048 199.9369085173502 L 529.7909407665505 198.04416403785493 L 531.5331010452962 207.69716088328076 L 533.2752613240418 202.01892744479497 L 535.0174216027874 202.9652996845426 L 536.7595818815331 199.3690851735016 L 538.5017421602788 206.18296529968458 L 540.2439024390244 202.01892744479497 L 541.98606271777 201.07255520504734 L 543.7282229965157 204.66876971608835 L 545.4703832752614 206.9400630914827 L 547.212543554007 206.18296529968458 L 548.9547038327526 207.50788643533124 L 550.6968641114983 216.2145110410095 L 552.439024390244 217.35015772870665 L 554.1811846689895 216.78233438485805 L 555.9233449477351 207.1293375394322 L 557.6655052264808 209.4006309148265 L 559.4076655052265 213.3753943217666 L 561.1498257839721 227.94952681388017 L 562.8919860627177 229.27444794952683 L 564.6341463414634 241.38801261829653 L 566.3763066202091 248.58044164037855 L 568.1184668989547 226.0567823343849 L 569.8606271777003 234.38485804416408 L 571.602787456446 235.89905362776025 L 573.3449477351917 243.09148264984228 L 575.0871080139373 237.9810725552051 L 576.8292682926829 243.65930599369088 L 578.5714285714286 239.68454258675078 L 580.3135888501743 240.82018927444798 L 582.0557491289198 244.79495268138803 L 583.7979094076654 243.2807570977918 L 585.5400696864111 248.76971608832807 L 587.2822299651568 250.0946372239748 L 589.0243902439024 244.98422712933754 L 590.766550522648 245.74132492113566 L 592.5087108013937 250.47318611987382 L 594.2508710801394 250.2839116719243 L 595.993031358885 250.2839116719243 L 597.7351916376306 250.2839116719243 L 599.4773519163763 259.55835962145113 L 601.219512195122 262.39747634069397 L 602.9616724738676 274.5110410094637 L 604.7038327526133 267.5078864353312 L 606.445993031359 271.1041009463722 L 608.1881533101046 273.37539432176663 L 609.9303135888501 280 L 611.6724738675958 277.5394321766562 L 613.4146341463415 286.813880126183 L 615.1567944250871 286.24605678233445 L 616.8989547038327 290.5993690851735 L 618.6411149825784 296.8454258675079 L 620.3832752613241 303.2807570977918 L 622.1254355400697 320.6940063091483 L 623.8675958188153 326.3722397476341 L 625.609756097561 315.5835962145111 L 627.3519163763067 323.15457413249214 L 629.0940766550523 329.9684542586751 L 630.8362369337979 330.34700315457417 L 632.5783972125436 333.3753943217666 L 634.3205574912893 338.48580441640377 L 636.0627177700349 340 L 637.8048780487804 343.4069400630915 L 639.5470383275261 347.94952681388014 L 641.2891986062718 347.57097791798105 L 643.0313588850174 348.51735015772874 L 644.773519163763 337.5394321766562 L 646.5156794425087 344.35331230283913 L 648.2578397212544 346.6246056782335 L 650 353.4384858044164 L 650 400 Z" /><text  class="poloto_labels poloto_text poloto_title" alignment-baseline="start" text-anchor="middle" font-size="x-large" x="400" y="37.5" >Total players on 2021-11-09</text><text  class="poloto_labels poloto_text poloto_xname" alignment-baseline="start" text-anchor="middle" font-size="x-large" x="400" y="481.25" >Time</text><text  class="poloto_labels poloto_text poloto_yname" alignment-baseline="start" text-anchor="middle" font-size="x-large" transform="rotate(-90,37.5,250)" x="37.5" y="250" >Count</text><line  class="poloto_axis_lines" stroke="black" x1="150" x2="150" y1="400" y2="405" /><text  class="poloto_tick_labels poloto_text" alignment-baseline="start" text-anchor="middle" x="150" y="430" > 00:00:00</text><line  class="poloto_axis_lines" stroke="black" x1="266.14401858304296" x2="266.14401858304296" y1="400" y2="405" /><text  class="poloto_tick_labels poloto_text" alignment-baseline="start" text-anchor="middle" x="266.14401858304296" y="430" > 05:33:20</text><line  class="poloto_axis_lines" stroke="black" x1="382.2880371660859" x2="382.2880371660859" y1="400" y2="405" /><text  class="poloto_tick_labels poloto_text" alignment-baseline="start" text-anchor="middle" x="382.2880371660859" y="430" > 11:06:40</text><line  class="poloto_axis_lines" stroke="black" x1="498.4320557491289" x2="498.4320557491289" y1="400" y2="405" /><text  class="poloto_tick_labels poloto_text" alignment-baseline="start" text-anchor="middle" x="498.4320557491289" y="430" > 16:40:00</text><line  class="poloto_axis_lines" stroke="black" x1="614.5760743321719" x2="614.5760743321719" y1="400" y2="405" /><text  class="poloto_tick_labels poloto_text" alignment-baseline="start" text-anchor="middle" x="614.5760743321719" y="430" > 22:13:20</text><line  class="poloto_axis_lines" stroke="black" x1="150" x2="144" y1="360.25236593059935" y2="360.25236593059935" /><text  class="poloto_tick_labels poloto_text" alignment-baseline="middle" text-anchor="end" x="135" y="360.25236593059935" > 1000</text><line  class="poloto_axis_lines" stroke="black" x1="150" x2="144" y1="265.61514195583595" y2="265.61514195583595" /><text  class="poloto_tick_labels poloto_text" alignment-baseline="middle" text-anchor="end" x="135" y="265.61514195583595" > 1500</text><line  class="poloto_axis_lines" stroke="black" x1="150" x2="144" y1="170.97791798107255" y2="170.97791798107255" /><text  class="poloto_tick_labels poloto_text" alignment-baseline="middle" text-anchor="end" x="135" y="170.97791798107255" > 2000</text><path  stroke="black" fill="none" class="poloto_axis_lines" style="stroke-dasharray:14.518002322880372;stroke-dashoffset:-0;" d=" M 150 400 L 650 400" /><path  stroke="black" fill="none" class="poloto_axis_lines" style="stroke-dasharray:9.46372239747634;stroke-dashoffset:-39.74763406940062;" d=" M 150 400 L 150 100" /></svg>