<svg class="poloto" width="800" height="500" viewBox="0 0 800 500" xmlns="http://www.w3.org/2000/svg"><style>.poloto { stroke-linecap:round; stroke-linejoin:round; font-family: 'Tahoma', sans-serif; background-color: AliceBlue;} .poloto_scatter{stroke-width:7} .poloto_line{stroke-width:2} .poloto_text{fill: black;} .poloto_axis_lines{stroke: black;stroke-width:3;fill:none;stroke-dasharray:none} .poloto0stroke{stroke:  blue;} .poloto1stroke{stroke:  red;} .poloto2stroke{stroke:  green;} .poloto3stroke{stroke:  gold;} .poloto4stroke{stroke:  aqua;} .poloto5stroke{stroke:  lime;} .poloto6stroke{stroke:  orange;} .poloto7stroke{stroke:  chocolate;} .poloto0fill{fill:blue;} .poloto1fill{fill:red;} .poloto2fill{fill:green;} .poloto3fill{fill:gold;} .poloto4fill{fill:aqua;} .poloto5fill{fill:lime;} .poloto6fill{fill:orange;} .poloto7fill{fill:chocolate;}</style><text  class="poloto_text poloto_legend_text" alignment-baseline="middle" text-anchor="start" font-size="large" x="675" y="100" ></text><path  class="poloto_linefill poloto0fill" d=" M 150 400 L 150 362.320230105465 L 151.74216027874564 367.2099712368169 L 153.4843205574913 371.95589645254074 L 155.22648083623693 372.09971236816875 L 156.96864111498257 374.8322147651007 L 158.71080139372822 378.71524448705657 L 160.45296167247386 380.00958772770855 L 162.1951219512195 380.4410354745925 L 163.93728222996515 381.3039309683605 L 165.6794425087108 379.14669223394054 L 167.42160278745644 383.02972195589643 L 169.16376306620208 383.17353787152445 L 170.90592334494772 383.89261744966444 L 172.64808362369337 380.4410354745925 L 174.390243902439 381.7353787152445 L 176.13240418118465 380.00958772770855 L 177.8745644599303 382.45445829338445 L 179.61672473867597 384.7555129434324 L 181.3588850174216 388.3509108341323 L 183.10104529616726 390.2205177372963 L 184.8432055749129 390.7957813998083 L 186.58536585365854 391.3710450623202 L 188.3275261324042 385.90604026845637 L 190.06968641114983 390.2205177372963 L 191.81184668989548 386.62511984659636 L 193.55400696864112 385.4745925215724 L 195.29616724738676 387.05656759348034 L 197.0383275261324 387.6318312559923 L 198.78048780487805 387.20038350910835 L 200.5226480836237 391.80249280920424 L 202.26480836236934 392.9530201342282 L 204.00696864111498 393.2406519654842 L 205.74912891986062 399.13710450623205 L 207.49128919860627 395.82933844678814 L 209.2334494773519 398.41802492809205 L 210.97560975609755 399.13710450623205 L 212.7177700348432 396.6922339405561 L 214.45993031358887 400 L 216.2020905923345 397.4113135186961 L 217.94425087108016 393.3844678811122 L 219.6864111498258 391.3710450623202 L 221.42857142857144 386.7689357622244 L 223.1707317073171 388.49472674976033 L 224.91289198606273 391.22722914669225 L 226.65505226480838 392.8092042186002 L 228.39721254355402 396.2607861936721 L 230.13937282229966 394.1035474592522 L 231.8815331010453 389.6452540747843 L 233.62369337979095 388.6385426653883 L 235.3658536585366 383.89261744966444 L 237.10801393728224 385.3307766059444 L 238.85017421602788 385.4745925215724 L 240.59233449477352 384.8993288590604 L 242.33449477351917 387.91946308724835 L 244.0766550522648 388.49472674976033 L 245.81881533101046 392.8092042186002 L 247.5609756097561 394.39117929050815 L 249.30313588850174 394.39117929050815 L 251.0452961672474 395.3978906999041 L 252.78745644599303 397.9865771812081 L 254.52961672473867 399.424736337488 L 256.2717770034843 392.9530201342282 L 258.01393728222996 390.50814956855226 L 259.7560975609756 388.49472674976033 L 261.49825783972125 389.2138063279003 L 263.2404181184669 387.77564717162034 L 264.98257839721254 391.6586768935762 L 266.7247386759582 383.89261744966444 L 268.4668989547038 376.9894534995206 L 270.20905923344947 374.9760306807287 L 271.9512195121951 377.7085330776606 L 273.69337979094075 373.9693192713327 L 275.4355400696864 370.66155321188876 L 277.17770034843204 371.52444870565677 L 278.91986062717774 373.6816874400767 L 280.6620209059233 376.12655800575266 L 282.404181184669 371.95589645254074 L 284.1463414634146 369.2233940556088 L 285.8885017421603 370.9491850431448 L 287.6306620209059 368.21668264621286 L 289.3728222996516 364.04602109300095 L 291.1149825783972 360.73825503355704 L 292.8571428571429 364.62128475551293 L 294.5993031358885 367.2099712368169 L 296.3414634146342 370.5177372962608 L 298.08362369337976 362.032598274209 L 299.82578397212546 368.36049856184087 L 301.56794425087105 368.79194630872485 L 303.31010452961675 367.35378715244485 L 305.05226480836234 369.36720997123683 L 306.79442508710804 365.6279961649089 L 308.5365853658536 367.6414189837009 L 310.2787456445993 366.3470757430489 L 312.0209059233449 364.18983700862896 L 313.7630662020906 361.60115052732505 L 315.5052264808362 361.313518696069 L 317.2473867595819 358.7248322147651 L 318.9895470383275 358.29338446788114 L 320.7317073170732 353.69127516778525 L 322.4738675958188 358.0057526366251 L 324.2160278745645 353.83509108341326 L 325.9581881533101 339.8849472674976 L 327.70034843205576 334.8513902205177 L 329.4425087108014 338.01534036433367 L 331.18466898954705 334.9952061361457 L 332.9268292682927 331.39980824544585 L 334.66898954703834 334.2761265580057 L 336.411149825784 332.5503355704698 L 338.1533101045296 327.08533077660593 L 339.89547038327527 324.352828379674 L 341.6376306620209 321.9079578139981 L 343.37979094076655 321.3326941514861 L 345.1219512195122 317.0182166826462 L 346.86411149825784 323.058485139022 L 348.6062717770035 324.209012464046 L 350.34843205574913 315.1486097794823 L 352.0905923344948 309.1083413231064 L 353.8327526132404 306.8072866730585 L 355.57491289198606 323.633748801534 L 357.3170731707317 298.7535953978907 L 359.05923344947735 293.00095877277084 L 360.801393728223 292.42569511025886 L 362.54355400696863 290.9875359539789 L 364.2857142857143 290.6999041227229 L 366.0278745644599 290.2684563758389 L 367.77003484320556 286.097794822627 L 369.5121951219512 288.255033557047 L 371.25435540069685 278.61936720997124 L 372.9965156794425 275.1677852348993 L 374.73867595818814 274.01725790987535 L 376.4808362369338 273.0105465004794 L 378.2229965156795 272.1476510067114 L 379.96515679442507 266.3950143815915 L 381.70731707317077 269.7027804410355 L 383.44947735191636 257.7660594439118 L 385.19163763066206 262.3681687440077 L 386.93379790940764 255.7526366251198 L 388.67595818815334 246.97986577181206 L 390.41811846689893 238.6385426653883 L 392.16027874564463 238.6385426653883 L 393.9024390243902 250.71907957813994 L 395.6445993031359 247.98657718120802 L 397.3867595818815 234.32406519654842 L 399.1289198606272 249.137104506232 L 400.8710801393728 227.5647171620326 L 402.6132404181185 216.05944391179287 L 404.3554006968641 215.34036433365293 L 406.0975609756098 215.0527325023969 L 407.8397212543554 206.13614573346115 L 409.58188153310107 201.67785234899327 L 411.3240418118467 204.26653883029718 L 413.06620209059236 199.08916586768936 L 414.808362369338 200.09587727708532 L 416.55052264808364 195.06232023010546 L 418.2926829268293 193.04889741131348 L 420.03484320557493 188.5906040268456 L 421.7770034843206 182.69415148609778 L 423.5191637630662 179.67401725790984 L 425.26132404181186 179.96164908916586 L 427.0034843205575 182.8379674017258 L 428.74564459930315 179.53020134228188 L 430.4878048780488 168.02492809204216 L 432.22996515679444 161.6970278044103 L 433.9721254355401 164.86097794822626 L 435.7142857142857 169.46308724832215 L 437.45644599303137 157.09491850431448 L 439.198606271777 150.33557046979865 L 440.94076655052265 145.58964525407475 L 442.6829268292683 139.8370086289549 L 444.42508710801394 139.54937679769893 L 446.1672473867596 137.96740172579098 L 447.9094076655052 134.37200383509105 L 449.65156794425087 127.18120805369125 L 451.3937282229965 119.41514860977946 L 453.13588850174216 124.30488974113132 L 454.8780487804878 122.00383509108337 L 456.62020905923345 124.8801534036433 L 458.3623693379791 106.90316395014378 L 460.10452961672473 111.79290508149569 L 461.8466898954704 116.68264621284754 L 463.588850174216 114.23777564717159 L 465.33101045296166 113.51869606903159 L 467.0731707317073 104.45829338446788 L 468.81533101045295 103.02013422818789 L 470.5574912891986 111.79290508149569 L 472.29965156794424 108.48513902205173 L 474.0418118466899 100 L 475.7839721254355 102.30105465004789 L 477.52613240418117 118.98370086289549 L 479.2682926829268 125.45541706615529 L 481.01045296167246 115.24448705656755 L 482.7526132404181 128.6193672099712 L 484.49477351916374 134.80345158197503 L 486.2369337979094 125.31160115052728 L 487.97909407665503 127.61265580057523 L 489.7212543554007 130.92042186001913 L 491.4634146341463 146.45254074784276 L 493.20557491289196 144.7267497603068 L 494.9477351916376 150.19175455417064 L 496.68989547038325 152.92425695110256 L 498.4320557491289 154.9376797698945 L 500.17421602787454 171.33269415148607 L 501.91637630662024 174.64046021092997 L 503.6585365853659 169.89453499520613 L 505.4006968641115 174.78427612655798 L 507.14285714285717 170.3259827420901 L 508.8850174216028 171.90795781399805 L 510.62717770034845 178.9549376797699 L 512.3693379790941 195.49376797698943 L 514.1114982578397 201.2464046021093 L 515.8536585365854 208.14956855225307 L 517.5958188153311 203.40364333652923 L 519.3379790940767 209.1562799616491 L 521.0801393728223 214.3336529242569 L 522.822299651568 215.19654841802492 L 524.5644599303137 220.3739213806328 L 526.3066202090592 224.97603068072863 L 528.0487804878048 226.8456375838926 L 529.7909407665505 230.58485139022048 L 531.5331010452962 233.4611697027804 L 533.2752613240418 236.04985618408438 L 535.0174216027874 233.17353787152445 L 536.7595818815331 225.98274209012465 L 538.5017421602788 231.30393096836048 L 540.2439024390244 235.4745925215724 L 541.98606271777 239.78906999041226 L 543.7282229965157 241.65867689357623 L 545.4703832752614 246.97986577181206 L 547.212543554007 239.35762224352828 L 548.9547038327526 240.6519654841802 L 550.6968641114983 251.15052732502397 L 552.439024390244 255.32118887823583 L 554.1811846689895 247.55512943432404 L 555.9233449477351 249.424736337488 L 557.6655052264808 251.43815915627994 L 559.4076655052265 253.8830297219559 L 561.1498257839721 256.3279002876318 L 562.8919860627177 261.36145733461166 L 564.6341463414634 266.68264621284754 L 566.3763066202091 268.4084372003835 L 568.1184668989547 265.24448705656755 L 569.8606271777003 268.8398849472675 L 571.602787456446 268.6960690316395 L 573.3449477351917 268.4084372003835 L 575.0871080139373 269.5589645254075 L 576.8292682926829 271.42857142857144 L 578.5714285714286 271.1409395973154 L 580.3135888501743 274.44870565675933 L 582.0557491289198 273.0105465004794 L 583.7979094076654 267.9769894534995 L 585.5400696864111 271.1409395973154 L 587.2822299651568 268.8398849472675 L 589.0243902439024 266.97027804410357 L 590.766550522648 265.38830297219556 L 592.5087108013937 266.68264621284754 L 594.2508710801394 267.8331735378715 L 595.993031358885 272.1476510067114 L 597.7351916376306 272.2914669223394 L 599.4773519163763 278.3317353787152 L 601.219512195122 278.9069990412272 L 602.9616724738676 277.4688398849473 L 604.7038327526133 280.3451581975072 L 606.445993031359 280.3451581975072 L 608.1881533101046 283.3652924256951 L 609.9303135888501 290.1246404602109 L 611.6724738675958 290.9875359539789 L 613.4146341463415 300.33557046979865 L 615.1567944250871 298.4659635666347 L 616.8989547038327 301.62991371045064 L 618.6411149825784 308.82070949185044 L 620.3832752613241 311.98465963566633 L 622.1254355400697 312.84755512943434 L 623.8675958188153 316.87440076701824 L 625.609756097561 316.15532118887825 L 627.3519163763067 320.6136145733461 L 629.0940766550523 321.4765100671141 L 630.8362369337979 323.92138063279003 L 632.5783972125436 326.65388302972195 L 634.3205574912893 329.24256951102586 L 636.0627177700349 327.94822627037394 L 637.8048780487804 328.3796740172579 L 639.5470383275261 332.1188878235858 L 641.2891986062718 334.56375838926175 L 643.0313588850174 338.7344199424736 L 644.773519163763 338.01534036433367 L 646.5156794425087 335.7142857142857 L 648.2578397212544 339.02205177372963 L 650 338.7344199424736 L 650 400 Z" /><text  class="poloto_labels poloto_text poloto_title" alignment-baseline="start" text-anchor="middle" font-size="x-large" x="400" y="37.5" >Total players on 2021-11-12</text><text  class="poloto_labels poloto_text poloto_xname" alignment-baseline="start" text-anchor="middle" font-size="x-large" x="400" y="481.25" >Time</text><text  class="poloto_labels poloto_text poloto_yname" alignment-baseline="start" text-anchor="middle" font-size="x-large" transform="rotate(-90,37.5,250)" x="37.5" y="250" >Count</text><line  class="poloto_axis_lines" stroke="black" x1="150" x2="150" y1="400" y2="405" /><text  class="poloto_tick_labels poloto_text" alignment-baseline="start" text-anchor="middle" x="150" y="430" > 00:00:00</text><line  class="poloto_axis_lines" stroke="black" x1="266.14401858304296" x2="266.14401858304296" y1="400" y2="405" /><text  class="poloto_tick_labels poloto_text" alignment-baseline="start" text-anchor="middle" x="266.14401858304296" y="430" > 05:33:20</text><line  class="poloto_axis_lines" stroke="black" x1="382.2880371660859" x2="382.2880371660859" y1="400" y2="405" /><text  class="poloto_tick_labels poloto_text" alignment-baseline="start" text-anchor="middle" x="382.2880371660859" y="430" > 11:06:40</text><line  class="poloto_axis_lines" stroke="black" x1="498.4320557491289" x2="498.4320557491289" y1="400" y2="405" /><text  class="poloto_tick_labels poloto_text" alignment-baseline="start" text-anchor="middle" x="498.4320557491289" y="430" > 16:40:00</text><line  class="poloto_axis_lines" stroke="black" x1="614.5760743321719" x2="614.5760743321719" y1="400" y2="405" /><text  class="poloto_tick_labels poloto_text" alignment-baseline="start" text-anchor="middle" x="614.5760743321719" y="430" > 22:13:20</text><line  class="poloto_axis_lines" stroke="black" x1="150" x2="144" y1="378.71524448705657" y2="378.71524448705657" /><text  class="poloto_tick_labels poloto_text" alignment-baseline="middle" text-anchor="end" x="135" y="378.71524448705657" > 1000</text><line  class="poloto_axis_lines" stroke="black" x1="150" x2="144" y1="306.8072866730585" y2="306.8072866730585" /><text  class="poloto_tick_labels poloto_text" alignment-baseline="middle" text-anchor="end" x="135" y="306.8072866730585" > 1500</text><line  class="poloto_axis_lines" stroke="black" x1="150" x2="144" y1="234.8993288590604" y2="234.8993288590604" /><text  class="poloto_tick_labels poloto_text" alignment-baseline="middle" text-anchor="end" x="135" y="234.8993288590604" > 2000</text><line  class="poloto_axis_lines" stroke="black" x1="150" x2="144" y1="162.9913710450623" y2="162.9913710450623" /><text  class="poloto_tick_labels poloto_text" alignment-baseline="middle" text-anchor="end" x="135" y="162.9913710450623" > 2500</text><path  stroke="black" fill="none" class="poloto_axis_lines" style="stroke-dasharray:14.518002322880372;stroke-dashoffset:-0;" d=" M 150 400 L 650 400" /><path  stroke="black" fill="none" class="poloto_axis_lines" style="stroke-dasharray:7.1907957813998085;stroke-dashoffset:-21.28475551294342;" d=" M 150 400 L 150 100" /></svg>