<svg class="poloto" width="800" height="500" viewBox="0 0 800 500" xmlns="http://www.w3.org/2000/svg"><style>.poloto { stroke-linecap:round; stroke-linejoin:round; font-family: 'Tahoma', sans-serif; background-color: AliceBlue;} .poloto_scatter{stroke-width:7} .poloto_line{stroke-width:2} .poloto_text{fill: black;} .poloto_axis_lines{stroke: black;stroke-width:3;fill:none;stroke-dasharray:none} .poloto0stroke{stroke:  blue;} .poloto1stroke{stroke:  red;} .poloto2stroke{stroke:  green;} .poloto3stroke{stroke:  gold;} .poloto4stroke{stroke:  aqua;} .poloto5stroke{stroke:  lime;} .poloto6stroke{stroke:  orange;} .poloto7stroke{stroke:  chocolate;} .poloto0fill{fill:blue;} .poloto1fill{fill:red;} .poloto2fill{fill:green;} .poloto3fill{fill:gold;} .poloto4fill{fill:aqua;} .poloto5fill{fill:lime;} .poloto6fill{fill:orange;} .poloto7fill{fill:chocolate;}</style><text  class="poloto_text poloto_legend_text" alignment-baseline="middle" text-anchor="start" font-size="large" x="675" y="100" ></text><path  class="poloto_linefill poloto0fill" d=" M 150 400 L 150 365.95394736842104 L 151.74216027874564 362.3355263157895 L 153.4843205574913 363.98026315789474 L 155.22648083623693 367.7631578947369 L 156.96864111498257 367.10526315789474 L 158.71080139372822 369.24342105263156 L 160.45296167247386 378.9473684210526 L 162.1951219512195 379.1118421052631 L 163.93728222996515 378.125 L 165.6794425087108 382.5657894736842 L 167.42160278745644 385.3618421052631 L 169.16376306620208 384.2105263157895 L 170.90592334494772 388.4868421052631 L 172.64808362369337 384.04605263157896 L 174.390243902439 388.4868421052631 L 176.13240418118465 396.0526315789474 L 177.8745644599303 394.5723684210526 L 179.61672473867597 392.7631578947369 L 181.3588850174216 396.875 L 183.10104529616726 395.0657894736842 L 184.8432055749129 390.95394736842104 L 186.58536585365854 386.6776315789474 L 188.3275261324042 388.98026315789474 L 190.06968641114983 389.47368421052636 L 191.81184668989548 392.9276315789474 L 193.55400696864112 390.29605263157896 L 195.29616724738676 389.8026315789474 L 197.0383275261324 392.59868421052636 L 198.78048780487805 395.8881578947369 L 200.5226480836237 399.8355263157895 L 202.26480836236934 397.8618421052631 L 204.00696864111498 399.8355263157895 L 205.74912891986062 400 L 207.49128919860627 396.54605263157896 L 209.2334494773519 396.875 L 210.97560975609755 393.9144736842105 L 212.7177700348432 393.9144736842105 L 214.45993031358887 394.4078947368421 L 216.2020905923345 395.5592105263158 L 217.94425087108016 396.54605263157896 L 219.6864111498258 392.59868421052636 L 221.42857142857144 388.98026315789474 L 223.17653890824624 383.2236842105263 L 224.91289198606273 382.0723684210526 L 226.65505226480838 378.125 L 228.39721254355402 377.4671052631579 L 230.13937282229966 377.9605263157895 L 231.8815331010453 371.7105263157895 L 233.62369337979095 365.625 L 235.3658536585366 372.6973684210526 L 237.10801393728224 373.35526315789474 L 238.85017421602788 373.35526315789474 L 240.59233449477352 370.23026315789474 L 242.33449477351917 374.0131578947369 L 244.0766550522648 375.32894736842104 L 245.81881533101046 366.9407894736842 L 247.5609756097561 366.2828947368421 L 249.30313588850174 358.2236842105263 L 251.0452961672474 357.0723684210526 L 252.78745644599303 355.2631578947369 L 254.52961672473867 359.375 L 256.2717770034843 356.57894736842104 L 258.01393728222996 356.0855263157895 L 259.7560975609756 357.73026315789474 L 261.49825783972125 360.0328947368421 L 263.2404181184669 356.4144736842105 L 264.98257839721254 354.9342105263158 L 266.7247386759582 348.6842105263158 L 268.4668989547038 350.1644736842105 L 270.20905923344947 346.05263157894734 L 271.9512195121951 344.4078947368421 L 273.69337979094075 347.6973684210526 L 275.4355400696864 355.2631578947369 L 277.17770034843204 354.60526315789474 L 278.9198606271777 358.3881578947369 L 280.6620209059233 353.7828947368421 L 282.40418118466897 352.9605263157895 L 284.1463414634146 354.9342105263158 L 285.88850174216026 356.0855263157895 L 287.6306620209059 357.0723684210526 L 289.37282229965155 353.9473684210526 L 291.1149825783972 357.0723684210526 L 292.85714285714283 355.5921052631579 L 294.5993031358885 356.0855263157895 L 296.3472706155633 351.3157894736842 L 298.08362369337976 343.0921052631579 L 299.82578397212546 334.70394736842104 L 301.56794425087105 327.1381578947368 L 303.31010452961675 322.8618421052632 L 305.05226480836234 315.4605263157895 L 306.79442508710804 312.6644736842105 L 308.5365853658536 311.5131578947368 L 310.2787456445993 304.76973684210526 L 312.0209059233449 305.75657894736844 L 313.7630662020906 306.9078947368421 L 315.5052264808362 302.1381578947368 L 317.2473867595819 299.34210526315786 L 318.9895470383275 297.6973684210526 L 320.7317073170732 300.8223684210526 L 322.4738675958188 299.50657894736844 L 324.2160278745645 301.3157894736842 L 325.95818815331006 295.8881578947368 L 327.70034843205576 296.7105263157895 L 329.44250871080135 298.8486842105263 L 331.18466898954705 297.6973684210526 L 332.92682926829264 296.875 L 334.66898954703834 292.4342105263158 L 336.4111498257839 295.5592105263158 L 338.1533101045296 291.4473684210526 L 339.8954703832752 291.7763157894737 L 341.6376306620209 293.5855263157895 L 343.3797909407665 288.3223684210526 L 345.1219512195122 287.99342105263156 L 346.86411149825784 287.5 L 348.6120789779326 287.17105263157896 L 350.34843205574913 287.6644736842105 L 352.0905923344948 280.42763157894734 L 353.8327526132404 273.1907894736842 L 355.57491289198606 272.20394736842104 L 357.3170731707317 273.6842105263158 L 359.05923344947735 267.92763157894734 L 360.801393728223 263.8157894736842 L 362.54355400696863 266.4473684210526 L 364.2857142857143 262.3355263157895 L 366.0278745644599 266.6118421052631 L 367.77003484320556 266.2828947368421 L 369.5121951219512 267.26973684210526 L 371.25435540069685 258.71710526315786 L 372.9965156794425 248.35526315789474 L 374.73867595818814 236.51315789473682 L 376.4808362369338 242.43421052631578 L 378.2229965156794 237.5 L 379.96515679442507 232.73026315789474 L 381.7073170731707 232.56578947368422 L 383.44947735191636 229.60526315789474 L 385.191637630662 238.3223684210526 L 386.93379790940764 232.89473684210526 L 388.6759581881533 235.36184210526312 L 390.41811846689893 226.9736842105263 L 392.1602787456446 227.46710526315786 L 393.9024390243902 220.39473684210526 L 395.6445993031359 224.17763157894734 L 397.3867595818815 220.88815789473682 L 399.1289198606272 219.40789473684208 L 400.8710801393728 220.39473684210526 L 402.6132404181185 223.35526315789474 L 404.3554006968641 227.13815789473682 L 406.0975609756097 236.01973684210526 L 407.83972125435537 227.30263157894734 L 409.581881533101 224.67105263157896 L 411.32404181184666 224.50657894736838 L 413.0662020905923 217.26973684210526 L 414.80836236933794 224.50657894736838 L 416.5505226480836 211.01973684210526 L 418.29268292682923 215.95394736842104 L 420.0348432055749 221.38157894736838 L 421.7770034843206 215.29605263157896 L 423.5191637630662 208.38815789473682 L 425.26132404181186 205.59210526315786 L 427.0034843205575 201.15131578947364 L 428.74564459930315 198.8486842105263 L 430.4878048780488 196.71052631578948 L 432.22996515679444 182.89473684210526 L 433.9721254355401 187.33552631578948 L 435.7142857142857 181.25 L 437.45644599303137 180.42763157894734 L 439.198606271777 175.49342105263156 L 440.94076655052265 169.5723684210526 L 442.6829268292683 158.05921052631578 L 444.42508710801394 153.78289473684208 L 446.1672473867596 154.27631578947364 L 447.9094076655052 142.5986842105263 L 449.65156794425087 142.26973684210526 L 451.3937282229965 135.36184210526312 L 453.13588850174216 132.89473684210526 L 454.8780487804878 128.28947368421052 L 456.62020905923345 122.53289473684208 L 458.3623693379791 122.03947368421052 L 460.10452961672473 117.92763157894734 L 461.8466898954704 123.51973684210526 L 463.588850174216 110.85526315789474 L 465.33101045296166 106.57894736842104 L 467.0731707317073 112.00657894736838 L 468.81533101045295 110.36184210526312 L 470.5574912891986 117.92763157894734 L 472.29965156794424 100 L 474.0418118466899 107.23684210526312 L 475.7839721254355 114.30921052631578 L 477.52613240418117 111.18421052631578 L 479.2682926829268 108.38815789473682 L 481.01045296167246 123.02631578947364 L 482.7526132404181 113.65131578947364 L 484.49477351916374 121.21710526315786 L 486.2369337979094 143.09210526315786 L 487.97909407665503 128.61842105263156 L 489.7212543554007 134.86842105263156 L 491.4634146341463 146.5460526315789 L 493.20557491289196 134.21052631578948 L 494.9477351916376 140.2960526315789 L 496.68989547038325 135.03289473684208 L 498.4320557491289 138.65131578947364 L 500.17421602787454 147.53289473684208 L 501.9163763066202 140.13157894736838 L 503.6585365853658 140.625 L 505.40069686411147 145.7236842105263 L 507.1428571428571 155.0986842105263 L 508.88501742160275 152.63157894736838 L 510.6271777003484 155.26315789473682 L 512.3693379790941 152.96052631578948 L 514.1114982578397 159.0460526315789 L 515.8536585365853 176.48026315789474 L 517.595818815331 182.23684210526312 L 519.3379790940767 183.2236842105263 L 521.0801393728223 190.13157894736838 L 522.822299651568 195.06578947368422 L 524.5644599303137 196.71052631578948 L 526.3124274099885 202.96052631578948 L 528.0487804878048 206.08552631578948 L 529.7909407665505 202.96052631578948 L 531.5331010452962 213.15789473684208 L 533.2752613240418 211.67763157894734 L 535.0174216027874 220.39473684210526 L 536.7595818815331 235.5263157894737 L 538.5017421602788 233.05921052631578 L 540.2439024390244 227.13815789473682 L 541.98606271777 234.04605263157896 L 543.7282229965157 241.4473684210526 L 545.4703832752614 246.38157894736838 L 547.212543554007 256.4144736842105 L 548.9547038327526 257.0723684210526 L 550.6968641114983 256.57894736842104 L 552.439024390244 260.85526315789474 L 554.1811846689895 258.0592105263158 L 555.9233449477351 257.0723684210526 L 557.6655052264808 258.0592105263158 L 559.4076655052265 260.6907894736842 L 561.1498257839721 265.7894736842105 L 562.8919860627177 264.80263157894734 L 564.6341463414634 265.7894736842105 L 566.3763066202091 267.10526315789474 L 568.1184668989547 263.6513157894737 L 569.8606271777003 268.75 L 571.602787456446 272.0394736842105 L 573.3449477351917 272.8618421052631 L 575.0871080139373 269.4078947368421 L 576.8292682926829 268.09210526315786 L 578.5772357723577 264.14473684210526 L 580.3135888501743 264.80263157894734 L 582.0557491289198 296.21710526315786 L 583.7979094076654 272.8618421052631 L 585.5400696864111 268.9144736842105 L 587.2822299651568 267.10526315789474 L 589.0301974448316 269.24342105263156 L 590.766550522648 273.0263157894737 L 592.5087108013937 271.54605263157896 L 594.2508710801394 265.13157894736844 L 595.993031358885 278.9473684210526 L 597.7351916376306 279.60526315789474 L 599.4773519163763 285.5263157894737 L 601.219512195122 284.86842105263156 L 602.9616724738676 288.4868421052632 L 604.7038327526132 293.5855263157895 L 606.4459930313589 292.4342105263158 L 608.1881533101046 300 L 609.9303135888501 307.2368421052632 L 611.6724738675957 308.71710526315786 L 613.4146341463414 310.6907894736842 L 615.1567944250871 311.01973684210526 L 616.8989547038327 309.5394736842105 L 618.6411149825783 309.375 L 620.383275261324 306.57894736842104 L 622.1254355400697 312.00657894736844 L 623.8675958188153 315.95394736842104 L 625.609756097561 314.6381578947368 L 627.3519163763067 317.5986842105263 L 629.0940766550523 327.1381578947368 L 630.8420441347271 327.9605263157895 L 632.5783972125436 322.20394736842104 L 634.3205574912893 319.9013157894737 L 636.0627177700349 325.9868421052632 L 637.8048780487804 328.2894736842105 L 639.5470383275261 336.01973684210526 L 641.2891986062718 336.1842105263158 L 643.0313588850174 333.55263157894734 L 644.773519163763 337.5 L 646.5156794425087 345.7236842105263 L 648.2578397212544 345.8881578947368 L 650 349.3421052631579 L 650 400 Z" /><text  class="poloto_labels poloto_text poloto_title" alignment-baseline="start" text-anchor="middle" font-size="x-large" x="400" y="37.5" >Total players on 2021-08-04</text><text  class="poloto_labels poloto_text poloto_xname" alignment-baseline="start" text-anchor="middle" font-size="x-large" x="400" y="481.25" >Time</text><text  class="poloto_labels poloto_text poloto_yname" alignment-baseline="start" text-anchor="middle" font-size="x-large" transform="rotate(-90,37.5,250)" x="37.5" y="250" >Count</text><line  class="poloto_axis_lines" stroke="black" x1="208.0487804878049" x2="208.0487804878049" y1="400" y2="405" /><text  class="poloto_tick_labels poloto_text" alignment-baseline="start" text-anchor="middle" x="208.0487804878049" y="430" > 03:00</text><line  class="poloto_axis_lines" stroke="black" x1="266.1207897793264" x2="266.1207897793264" y1="400" y2="405" /><text  class="poloto_tick_labels poloto_text" alignment-baseline="start" text-anchor="middle" x="266.1207897793264" y="430" > 06:00</text><line  class="poloto_axis_lines" stroke="black" x1="324.19279907084785" x2="324.19279907084785" y1="400" y2="405" /><text  class="poloto_tick_labels poloto_text" alignment-baseline="start" text-anchor="middle" x="324.19279907084785" y="430" > 08:00</text><line  class="poloto_axis_lines" stroke="black" x1="382.2648083623693" x2="382.2648083623693" y1="400" y2="405" /><text  class="poloto_tick_labels poloto_text" alignment-baseline="start" text-anchor="middle" x="382.2648083623693" y="430" > 11:00</text><line  class="poloto_axis_lines" stroke="black" x1="440.3368176538908" x2="440.3368176538908" y1="400" y2="405" /><text  class="poloto_tick_labels poloto_text" alignment-baseline="start" text-anchor="middle" x="440.3368176538908" y="430" > 14:00</text><line  class="poloto_axis_lines" stroke="black" x1="498.4088269454123" x2="498.4088269454123" y1="400" y2="405" /><text  class="poloto_tick_labels poloto_text" alignment-baseline="start" text-anchor="middle" x="498.4088269454123" y="430" > 17:00</text><line  class="poloto_axis_lines" stroke="black" x1="556.4808362369338" x2="556.4808362369338" y1="400" y2="405" /><text  class="poloto_tick_labels poloto_text" alignment-baseline="start" text-anchor="middle" x="556.4808362369338" y="430" > 19:00</text><line  class="poloto_axis_lines" stroke="black" x1="614.5528455284552" x2="614.5528455284552" y1="400" y2="405" /><text  class="poloto_tick_labels poloto_text" alignment-baseline="start" text-anchor="middle" x="614.5528455284552" y="430" > 22:00</text><line  class="poloto_axis_lines" stroke="black" x1="150" x2="144" y1="357.5657894736842" y2="357.5657894736842" /><text  class="poloto_tick_labels poloto_text" alignment-baseline="middle" text-anchor="end" x="135" y="357.5657894736842" > 1500</text><line  class="poloto_axis_lines" stroke="black" x1="150" x2="144" y1="275.32894736842104" y2="275.32894736842104" /><text  class="poloto_tick_labels poloto_text" alignment-baseline="middle" text-anchor="end" x="135" y="275.32894736842104" > 2000</text><line  class="poloto_axis_lines" stroke="black" x1="150" x2="144" y1="193.09210526315786" y2="193.09210526315786" /><text  class="poloto_tick_labels poloto_text" alignment-baseline="middle" text-anchor="end" x="135" y="193.09210526315786" > 2500</text><line  class="poloto_axis_lines" stroke="black" x1="150" x2="144" y1="110.85526315789474" y2="110.85526315789474" /><text  class="poloto_tick_labels poloto_text" alignment-baseline="middle" text-anchor="end" x="135" y="110.85526315789474" > 3000</text><path  stroke="black" fill="none" class="poloto_axis_lines" style="stroke-dasharray:14.518002322880372;stroke-dashoffset:-58.04878048780488;" d=" M 150 400 L 650 400" /><path  stroke="black" fill="none" class="poloto_axis_lines" style="stroke-dasharray:8.223684210526317;stroke-dashoffset:-42.43421052631578;" d=" M 150 400 L 150 100" /></svg>