<svg class="poloto" width="800" height="500" viewBox="0 0 800 500" xmlns="http://www.w3.org/2000/svg"><style>.poloto { stroke-linecap:round; stroke-linejoin:round; font-family: 'Tahoma', sans-serif; background-color: AliceBlue;} .poloto_scatter{stroke-width:7} .poloto_line{stroke-width:2} .poloto_text{fill: black;} .poloto_axis_lines{stroke: black;stroke-width:3;fill:none;stroke-dasharray:none} .poloto0stroke{stroke:  blue;} .poloto1stroke{stroke:  red;} .poloto2stroke{stroke:  green;} .poloto3stroke{stroke:  gold;} .poloto4stroke{stroke:  aqua;} .poloto5stroke{stroke:  lime;} .poloto6stroke{stroke:  orange;} .poloto7stroke{stroke:  chocolate;} .poloto0fill{fill:blue;} .poloto1fill{fill:red;} .poloto2fill{fill:green;} .poloto3fill{fill:gold;} .poloto4fill{fill:aqua;} .poloto5fill{fill:lime;} .poloto6fill{fill:orange;} .poloto7fill{fill:chocolate;}</style><text  class="poloto_text poloto_legend_text" alignment-baseline="middle" text-anchor="start" font-size="large" x="675" y="100" ></text><path  class="poloto_linefill poloto0fill" d=" M 150 400 L 150 327.7598450613299 L 151.74216027874564 342.2853453841188 L 153.4843205574913 349.838605551969 L 155.22648083623693 352.74370561652677 L 156.96864111498257 352.35635894125244 L 158.71080139372822 362.23369916074887 L 160.45296167247386 364.75145255003224 L 162.1951219512195 359.7159457714655 L 163.93728222996515 357.39186571981924 L 165.6794425087108 360.8779857972886 L 167.42160278745644 361.6526791478373 L 169.16376306620208 367.8502259522272 L 170.90592334494772 375.2098127824403 L 172.64808362369337 381.213686249193 L 174.390243902439 384.89347966429955 L 176.13240418118465 385.6681730148483 L 177.8745644599303 390.31633311814073 L 179.61672473867597 392.8340865074241 L 181.3588850174216 398.25693996126535 L 183.10104529616726 396.70755326016786 L 184.8432055749129 398.4506132989025 L 186.58536585365854 400 L 188.3275261324042 400 L 190.06968641114983 393.22143318269855 L 191.81184668989548 397.86959328599096 L 193.55400696864112 398.4506132989025 L 195.29616724738676 393.4151065203357 L 197.0383275261324 391.672046481601 L 198.78048780487805 390.8973531310523 L 200.5226480836237 386.6365397030342 L 202.26480836236934 385.2808263395739 L 204.00696864111498 391.28469980632667 L 205.74912891986062 390.5100064557779 L 207.49128919860627 384.5061329890252 L 209.2334494773519 381.213686249193 L 210.97560975609755 387.9922530664945 L 212.7177700348432 381.79470626210457 L 214.45993031358887 380.0516462233699 L 216.2020905923345 381.79470626210457 L 217.94425087108016 383.1504196255649 L 219.6864111498258 388.37959974176886 L 221.42857142857144 388.1859264041317 L 223.1707317073171 383.73143963847644 L 224.91289198606273 387.4112330535829 L 226.65505226480838 383.9251129761136 L 228.39721254355402 384.1187863137508 L 230.13937282229966 381.79470626210457 L 231.8815331010453 381.98837959974173 L 233.62369337979095 379.083279535184 L 235.3658536585366 376.952872821175 L 237.10801393728224 377.9212395093609 L 238.85017421602788 375.98450613298905 L 240.59233449477352 375.59715945771467 L 242.33449477351917 362.23369916074887 L 244.0766550522648 359.1349257585539 L 245.81881533101046 353.90574564234987 L 247.5609756097561 362.42737249838603 L 249.30313588850174 363.00839251129764 L 251.0452961672474 367.0755326016785 L 252.78745644599303 370.1743060038734 L 254.52961672473867 369.0122659780503 L 256.2717770034843 366.8818592640413 L 258.01393728222996 366.8818592640413 L 259.7560975609756 363.395739186572 L 261.49825783972125 363.9767591994836 L 263.2404181184669 366.3008392511298 L 264.98257839721254 363.395739186572 L 266.7247386759582 362.23369916074887 L 268.4668989547038 364.3641058747579 L 270.20905923344947 358.74757908327956 L 271.9512195121951 356.6171723692705 L 273.69337979094075 363.58941252420914 L 275.4355400696864 357.58553905745646 L 277.17770034843204 355.067785668173 L 278.9198606271777 350.41962556488056 L 280.6620209059233 354.4867656552615 L 282.40418118466897 349.4512588766946 L 284.1463414634146 348.6765655261459 L 285.88850174216026 349.0639122014203 L 287.6306620209059 343.6410587475791 L 289.37282229965155 344.4157520981278 L 291.1149825783972 345.5777921239509 L 292.85714285714283 346.93350548741125 L 294.5993031358885 343.8347320852163 L 296.3414634146342 341.70432537120723 L 298.08362369337976 345.5777921239509 L 299.82578397212546 337.0561652679148 L 301.56794425087105 336.6688185926404 L 303.31010452961675 338.99289864428664 L 305.05226480836234 328.34086507424144 L 306.79442508710804 327.9535183989671 L 308.5365853658536 333.95739186571984 L 310.2787456445993 334.3447385409942 L 312.0209059233449 340.15493867010974 L 313.7630662020906 330.0839251129761 L 315.5052264808362 325.62943834732084 L 317.2473867595819 329.69657843770176 L 318.9895470383275 327.5661717236927 L 320.7317073170732 327.9535183989671 L 322.4738675958188 326.79147837314395 L 324.2160278745645 328.14719173660427 L 325.95818815331006 332.6016785022595 L 327.70034843205576 330.85861846352486 L 329.44250871080135 325.24209167204646 L 331.18466898954705 316.1394448030988 L 332.92682926829264 318.26985151710784 L 334.66898954703834 321.56229825694 L 336.4111498257839 318.463524854745 L 338.1533101045296 308.9735313105229 L 339.8954703832752 305.1000645577792 L 341.6376306620209 305.68108457069076 L 343.3797909407665 308.39251129761135 L 345.1219512195122 307.23047127178825 L 346.86411149825784 301.4202711426727 L 348.6062717770035 301.80761781794706 L 350.34843205574913 304.90639122014204 L 352.0905923344948 297.3531310522918 L 353.8327526132404 293.6733376371853 L 355.57491289198606 289.21885087153004 L 357.3170731707317 288.2504841833441 L 359.05923344947735 289.21885087153004 L 360.801393728223 288.83150419625565 L 362.54355400696863 292.89864428663657 L 364.2857142857143 293.6733376371853 L 366.0278745644599 279.9225306649451 L 367.77003484320556 283.40865074241447 L 369.5121951219512 271.98192382182054 L 371.25435540069685 262.87927695287283 L 372.9965156794425 259.97417688831507 L 374.73867595818814 259.5868302130407 L 376.4808362369338 258.4247901872176 L 378.2229965156794 257.84377017430603 L 379.96515679442507 251.4525500322789 L 381.7073170731707 247.77275661717238 L 383.44947735191636 242.15622982569403 L 385.191637630662 248.16010329244676 L 386.93379790940764 242.73724983860558 L 388.6759581881533 236.34602969657846 L 390.41811846689893 235.18398967075535 L 392.1602787456446 238.4764364105875 L 393.9024390243902 237.12072304712717 L 395.6445993031359 232.27888960619754 L 397.3867595818815 229.95480955455133 L 399.1289198606272 222.4015493867011 L 400.8710801393728 221.239509360878 L 402.6132404181185 216.39767591994837 L 404.3554006968641 222.01420271142672 L 406.0975609756097 219.88379599741768 L 407.83972125435537 215.81665590703682 L 409.581881533101 212.52420916720467 L 411.32404181184666 203.8089089735313 L 413.0662020905923 200.32278889606198 L 414.80836236933794 204.0025823111685 L 416.5505226480836 195.6746287927695 L 418.29268292682923 186.18463524854747 L 420.0348432055749 184.82892188508714 L 421.7770034843206 181.92382182052938 L 423.5191637630662 184.4415752098128 L 425.26132404181186 182.6985151710781 L 427.0034843205575 180.95545513234345 L 428.74564459930315 175.53260167850226 L 430.4878048780488 168.94770819883797 L 432.22996515679444 168.1730148482892 L 433.9721254355401 167.59199483537765 L 435.7142857142857 162.750161394448 L 437.45644599303137 155.58424790187217 L 439.198606271777 155.00322788896062 L 440.94076655052265 146.48160103292446 L 442.6829268292683 136.21691413815364 L 444.42508710801394 130.40671400903807 L 446.1672473867596 130.6003873466753 L 447.9094076655052 131.95610071013556 L 449.65156794425087 131.375080697224 L 451.3937282229965 128.46998063266625 L 453.13588850174216 128.08263395739186 L 454.8780487804878 120.33570045190447 L 456.62020905923345 118.97998708844415 L 458.3623693379791 116.26856036152356 L 460.10452961672473 124.40284054228533 L 461.8466898954704 123.04712717882506 L 463.588850174216 113.3634602969658 L 465.33101045296166 106.77856681730151 L 467.0731707317073 106.58489347966429 L 468.81533101045295 102.71142672692059 L 470.5574912891986 105.0355067785668 L 472.29965156794424 114.33182698515174 L 474.0418118466899 115.49386701097484 L 475.7839721254355 114.5255003227889 L 477.52613240418117 111.23305358295676 L 479.2682926829268 108.327953518399 L 481.01045296167246 100.96836668818594 L 482.7526132404181 100 L 484.49477351916374 110.07101355713365 L 486.2369337979094 115.10652033570045 L 487.97909407665503 119.5610071013557 L 489.7212543554007 127.30794060684315 L 491.4634146341463 131.7624273724984 L 493.20557491289196 133.50548741123305 L 494.9477351916376 133.50548741123305 L 496.68989547038325 142.99548095545515 L 498.4320557491289 143.38282763072948 L 500.17421602787454 148.2246610716591 L 501.9163763066202 141.2524209167205 L 503.6585365853658 148.41833440929634 L 505.40069686411147 158.29567462879277 L 507.1428571428571 156.16526791478373 L 508.88501742160275 155.58424790187217 L 510.6271777003484 154.03486120077469 L 512.3693379790941 158.1020012911556 L 514.1114982578397 158.68302130406715 L 515.8536585365853 154.03486120077469 L 517.595818815331 164.2995480955455 L 519.3379790940767 161.5881213686249 L 521.0801393728223 156.5526145900581 L 522.822299651568 169.33505487411236 L 524.5644599303137 167.20464816010332 L 526.3066202090592 174.56423499031632 L 528.0487804878048 181.536475145255 L 529.7909407665505 189.28340865074244 L 531.5331010452962 188.12136862491928 L 533.2752613240418 184.63524854744998 L 535.0174216027874 195.28728211749518 L 536.7595818815331 198.7734021949645 L 538.5017421602788 193.7378954163977 L 540.2439024390244 196.44932214331828 L 541.98606271777 202.25952227243386 L 543.7282229965157 192.38218205293737 L 545.4703832752614 196.83666881859267 L 547.212543554007 197.99870884441577 L 548.9547038327526 202.45319561007102 L 550.6968641114983 204.97094899935445 L 552.439024390244 205.74564234990316 L 554.1811846689895 216.20400258231115 L 555.9233449477351 213.10522918011623 L 557.6655052264808 215.23563589412527 L 559.4076655052265 226.2750161394448 L 561.1498257839721 226.6623628147192 L 562.8919860627177 232.27888960619754 L 564.6341463414634 232.47256294383476 L 566.3763066202091 237.50806972240156 L 568.1184668989547 233.24725629438348 L 569.8606271777003 247.96642995480954 L 571.602787456446 222.20787604906394 L 573.3449477351917 224.53195610071015 L 575.0871080139373 240.99418979987087 L 576.8292682926829 233.0535829567463 L 578.5714285714286 233.44092963202064 L 580.3135888501743 230.53582956746288 L 582.0557491289198 235.7650096836669 L 583.7979094076654 236.34602969657846 L 585.5400696864111 232.27888960619754 L 587.2822299651568 229.56746287927695 L 589.0243902439024 231.697869593286 L 590.766550522648 229.95480955455133 L 592.5087108013937 235.57133634602968 L 594.2508710801394 236.92704970949 L 595.993031358885 241.57520981278242 L 597.7351916376306 246.9980632666236 L 599.4773519163763 239.44480309877338 L 601.219512195122 239.6384764364106 L 602.9616724738676 245.8360232408005 L 604.7038327526132 251.25887669464169 L 606.4459930313589 246.9980632666236 L 608.1881533101046 242.93092317624274 L 609.9303135888501 245.44867656552617 L 611.6724738675957 251.4525500322789 L 613.4146341463414 259.00581020012913 L 615.1567944250871 263.2666236281472 L 616.8989547038327 269.07682375726273 L 618.6411149825783 262.68560361523566 L 620.383275261324 266.171723692705 L 622.1254355400697 273.91865719819236 L 623.8675958188153 275.46804389928985 L 625.609756097561 281.4719173660426 L 627.3519163763067 283.60232408005163 L 629.0940766550523 289.21885087153004 L 630.8362369337979 289.0251775338928 L 632.5783972125436 287.088444157521 L 634.3205574912893 296.57843770174304 L 636.0627177700349 301.03292446739835 L 637.8048780487804 314.7837314396385 L 639.5470383275261 315.9457714654616 L 641.2891986062718 319.81923821820527 L 643.0313588850174 319.2382182052937 L 644.773519163763 320.98127824402843 L 646.5156794425087 321.36862491930276 L 648.2578397212544 318.26985151710784 L 650 320.98127824402843 L 650 400 Z" /><text  class="poloto_labels poloto_text poloto_title" alignment-baseline="start" text-anchor="middle" font-size="x-large" x="400" y="37.5" >Total players on 2021-06-28</text><text  class="poloto_labels poloto_text poloto_xname" alignment-baseline="start" text-anchor="middle" font-size="x-large" x="400" y="481.25" >Time</text><text  class="poloto_labels poloto_text poloto_yname" alignment-baseline="start" text-anchor="middle" font-size="x-large" transform="rotate(-90,37.5,250)" x="37.5" y="250" >Count</text><line  class="poloto_axis_lines" stroke="black" x1="208.0487804878049" x2="208.0487804878049" y1="400" y2="405" /><text  class="poloto_tick_labels poloto_text" alignment-baseline="start" text-anchor="middle" x="208.0487804878049" y="430" > 03:00</text><line  class="poloto_axis_lines" stroke="black" x1="266.1207897793264" x2="266.1207897793264" y1="400" y2="405" /><text  class="poloto_tick_labels poloto_text" alignment-baseline="start" text-anchor="middle" x="266.1207897793264" y="430" > 06:00</text><line  class="poloto_axis_lines" stroke="black" x1="324.19279907084785" x2="324.19279907084785" y1="400" y2="405" /><text  class="poloto_tick_labels poloto_text" alignment-baseline="start" text-anchor="middle" x="324.19279907084785" y="430" > 08:00</text><line  class="poloto_axis_lines" stroke="black" x1="382.2648083623693" x2="382.2648083623693" y1="400" y2="405" /><text  class="poloto_tick_labels poloto_text" alignment-baseline="start" text-anchor="middle" x="382.2648083623693" y="430" > 11:00</text><line  class="poloto_axis_lines" stroke="black" x1="440.3368176538908" x2="440.3368176538908" y1="400" y2="405" /><text  class="poloto_tick_labels poloto_text" alignment-baseline="start" text-anchor="middle" x="440.3368176538908" y="430" > 14:00</text><line  class="poloto_axis_lines" stroke="black" x1="498.4088269454123" x2="498.4088269454123" y1="400" y2="405" /><text  class="poloto_tick_labels poloto_text" alignment-baseline="start" text-anchor="middle" x="498.4088269454123" y="430" > 17:00</text><line  class="poloto_axis_lines" stroke="black" x1="556.4808362369338" x2="556.4808362369338" y1="400" y2="405" /><text  class="poloto_tick_labels poloto_text" alignment-baseline="start" text-anchor="middle" x="556.4808362369338" y="430" > 19:00</text><line  class="poloto_axis_lines" stroke="black" x1="614.5528455284552" x2="614.5528455284552" y1="400" y2="405" /><text  class="poloto_tick_labels poloto_text" alignment-baseline="start" text-anchor="middle" x="614.5528455284552" y="430" > 22:00</text><line  class="poloto_axis_lines" stroke="black" x1="150" x2="144" y1="395.7391865719819" y2="395.7391865719819" /><text  class="poloto_tick_labels poloto_text" alignment-baseline="middle" text-anchor="end" x="135" y="395.7391865719819" > 1000</text><line  class="poloto_axis_lines" stroke="black" x1="150" x2="144" y1="298.9025177533893" y2="298.9025177533893" /><text  class="poloto_tick_labels poloto_text" alignment-baseline="middle" text-anchor="end" x="135" y="298.9025177533893" > 1500</text><line  class="poloto_axis_lines" stroke="black" x1="150" x2="144" y1="202.06584893479663" y2="202.06584893479663" /><text  class="poloto_tick_labels poloto_text" alignment-baseline="middle" text-anchor="end" x="135" y="202.06584893479663" > 2000</text><line  class="poloto_axis_lines" stroke="black" x1="150" x2="144" y1="105.22918011620402" y2="105.22918011620402" /><text  class="poloto_tick_labels poloto_text" alignment-baseline="middle" text-anchor="end" x="135" y="105.22918011620402" > 2500</text><path  stroke="black" fill="none" class="poloto_axis_lines" style="stroke-dasharray:14.518002322880372;stroke-dashoffset:-58.04878048780488;" d=" M 150 400 L 650 400" /><path  stroke="black" fill="none" class="poloto_axis_lines" style="stroke-dasharray:9.683666881859263;stroke-dashoffset:-4.260813428018082;" d=" M 150 400 L 150 100" /></svg>