<svg class="poloto" width="800" height="500" viewBox="0 0 800 500" xmlns="http://www.w3.org/2000/svg"><style>.poloto { stroke-linecap:round; stroke-linejoin:round; font-family: 'Tahoma', sans-serif; background-color: AliceBlue;} .poloto_scatter{stroke-width:7} .poloto_line{stroke-width:2} .poloto_text{fill: black;} .poloto_axis_lines{stroke: black;stroke-width:3;fill:none;stroke-dasharray:none} .poloto0stroke{stroke:  blue;} .poloto1stroke{stroke:  red;} .poloto2stroke{stroke:  green;} .poloto3stroke{stroke:  gold;} .poloto4stroke{stroke:  aqua;} .poloto5stroke{stroke:  lime;} .poloto6stroke{stroke:  orange;} .poloto7stroke{stroke:  chocolate;} .poloto0fill{fill:blue;} .poloto1fill{fill:red;} .poloto2fill{fill:green;} .poloto3fill{fill:gold;} .poloto4fill{fill:aqua;} .poloto5fill{fill:lime;} .poloto6fill{fill:orange;} .poloto7fill{fill:chocolate;}</style><text  class="poloto_text poloto_legend_text" alignment-baseline="middle" text-anchor="start" font-size="large" x="675" y="100" ></text><path  class="poloto_linefill poloto0fill" d=" M 150 400 L 150 357.4503311258278 L 151.74216027874564 366.3907284768212 L 153.4843205574913 357.61589403973505 L 155.22648083623693 359.7682119205298 L 156.96864111498257 362.91390728476824 L 158.71080139372822 368.2119205298013 L 160.45296167247386 371.1920529801324 L 162.1951219512195 374.00662251655626 L 163.93728222996515 373.34437086092714 L 165.6794425087108 376.65562913907286 L 167.42160278745644 381.7880794701987 L 169.16376306620208 382.28476821192055 L 170.90592334494772 381.12582781456956 L 172.64808362369337 384.4370860927152 L 174.390243902439 381.95364238410593 L 176.13240418118465 384.2715231788079 L 177.8745644599303 385.5960264900662 L 179.61672473867597 386.42384105960264 L 181.3588850174216 392.3841059602649 L 183.10104529616726 391.8874172185431 L 184.8432055749129 394.53642384105956 L 186.58536585365854 397.5165562913907 L 188.3275261324042 395.36423841059604 L 190.06968641114983 393.5430463576159 L 191.81184668989548 396.6887417218543 L 193.55400696864112 397.682119205298 L 195.29616724738676 399.00662251655626 L 197.0383275261324 398.841059602649 L 198.78048780487805 399.66887417218544 L 200.5226480836237 396.02649006622516 L 202.26480836236934 395.5298013245033 L 204.00696864111498 395.19867549668874 L 205.74912891986062 395.36423841059604 L 207.49128919860627 398.1788079470199 L 209.2334494773519 393.7086092715232 L 210.97560975609755 395.6953642384106 L 212.7177700348432 400 L 214.45993031358887 395.19867549668874 L 216.2020905923345 392.2185430463576 L 217.94425087108016 392.5496688741722 L 219.6864111498258 392.05298013245033 L 221.42857142857144 396.52317880794703 L 223.1707317073171 393.2119205298013 L 224.91289198606273 393.87417218543044 L 226.65505226480838 387.5827814569536 L 228.39721254355402 388.41059602649005 L 230.13937282229966 385.4304635761589 L 231.8815331010453 382.7814569536424 L 233.62369337979095 390.0662251655629 L 235.3658536585366 385.0993377483444 L 237.10801393728224 386.0927152317881 L 238.85017421602788 387.5827814569536 L 240.59233449477352 386.42384105960264 L 242.33449477351917 388.7417218543046 L 244.0766550522648 386.75496688741725 L 245.81881533101046 383.7748344370861 L 247.5609756097561 377.64900662251654 L 249.30313588850174 381.95364238410593 L 251.0452961672474 380.6291390728477 L 252.78745644599303 377.317880794702 L 254.52961672473867 377.317880794702 L 256.2717770034843 378.1456953642384 L 258.01393728222996 376.158940397351 L 259.7560975609756 376.49006622516555 L 261.49825783972125 375.33112582781456 L 263.2404181184669 376.65562913907286 L 264.98257839721254 380.2980132450331 L 266.7247386759582 388.41059602649005 L 268.4668989547038 387.91390728476824 L 270.20905923344947 387.91390728476824 L 271.9512195121951 381.2913907284768 L 273.69337979094075 379.3046357615894 L 275.4355400696864 380.79470198675494 L 277.17770034843204 385.0993377483444 L 278.91986062717774 380.96026490066225 L 280.6620209059233 377.1523178807947 L 282.404181184669 368.5430463576159 L 284.1463414634146 366.8874172185431 L 285.8885017421603 366.8874172185431 L 287.6306620209059 363.57615894039736 L 289.3728222996516 365.72847682119203 L 291.1149825783972 365.2317880794702 L 292.8571428571429 365.89403973509934 L 294.5993031358885 365.0662251655629 L 296.3414634146342 366.7218543046357 L 298.08362369337976 364.73509933774835 L 299.82578397212546 362.5827814569536 L 301.56794425087105 363.0794701986755 L 303.31010452961675 358.9403973509934 L 305.05226480836234 355.96026490066225 L 306.79442508710804 356.12582781456956 L 308.5365853658536 356.6225165562914 L 310.2787456445993 356.95364238410593 L 312.0209059233449 360.0993377483444 L 313.7630662020906 355.1324503311258 L 315.5052264808362 363.24503311258275 L 317.2473867595819 364.2384105960265 L 318.9895470383275 366.2251655629139 L 320.7317073170732 368.2119205298013 L 322.4738675958188 367.3841059602649 L 324.2160278745645 371.02649006622516 L 325.9581881533101 377.317880794702 L 327.70034843205576 373.5099337748344 L 329.4425087108014 372.5165562913907 L 331.18466898954705 371.8543046357616 L 332.9268292682927 369.53642384105956 L 334.66898954703834 366.55629139072846 L 336.411149825784 377.9801324503311 L 338.1533101045296 359.6026490066225 L 339.89547038327527 362.91390728476824 L 341.6376306620209 357.61589403973505 L 343.37979094076655 358.9403973509934 L 345.1219512195122 354.63576158940396 L 346.86411149825784 356.7880794701987 L 348.6062717770035 350.16556291390725 L 350.34843205574913 347.18543046357615 L 352.0905923344948 347.8476821192053 L 353.8327526132404 346.02649006622516 L 355.57491289198606 342.2185430463576 L 357.3170731707317 335.5960264900662 L 359.05923344947735 343.37748344370857 L 360.801393728223 343.5430463576159 L 362.54355400696863 330.6291390728477 L 364.2857142857143 336.7549668874172 L 366.0278745644599 329.8013245033112 L 367.77003484320556 326.49006622516555 L 369.5121951219512 323.0132450331126 L 371.25435540069685 323.6754966887417 L 372.9965156794425 331.45695364238406 L 374.73867595818814 321.52317880794703 L 376.4808362369338 310.7615894039735 L 378.2229965156795 309.93377483443703 L 379.96515679442507 311.42384105960264 L 381.70731707317077 311.5894039735099 L 383.44947735191636 303.6423841059602 L 385.19163763066206 305.79470198675494 L 386.93379790940764 311.092715231788 L 388.67595818815334 307.4503311258278 L 390.41811846689893 302.48344370860923 L 392.16027874564463 302.9801324503311 L 393.9024390243902 303.3112582781457 L 395.6445993031359 302.317880794702 L 397.3867595818815 299.00662251655626 L 399.1289198606272 296.35761589403967 L 400.8710801393728 288.57615894039736 L 402.6132404181185 285.92715231788077 L 404.3554006968641 286.2582781456954 L 406.0975609756098 285.26490066225165 L 407.8397212543554 277.9801324503311 L 409.58188153310107 269.20529801324506 L 411.3240418118467 261.092715231788 L 413.06620209059236 249.6688741721854 L 414.808362369338 249.83443708609272 L 416.55052264808364 245.03311258278146 L 418.2926829268293 241.72185430463574 L 420.03484320557493 241.88741721854305 L 421.7770034843206 242.0529801324503 L 423.5191637630662 236.09271523178805 L 425.26132404181186 235.09933774834437 L 427.0034843205575 225.9933774834437 L 428.74564459930315 228.47682119205294 L 430.4878048780488 219.5364238410596 L 432.22996515679444 206.62251655629134 L 433.9721254355401 214.90066225165563 L 435.7142857142857 192.54966887417217 L 437.45644599303137 192.38410596026486 L 439.198606271777 174.17218543046354 L 440.94076655052265 173.01324503311255 L 442.6829268292683 176.82119205298014 L 444.42508710801394 174.0066225165563 L 446.1672473867596 182.1192052980132 L 447.9094076655052 167.0529801324503 L 449.65156794425087 167.0529801324503 L 451.3937282229965 158.2781456953642 L 453.13588850174216 154.96688741721854 L 454.8780487804878 153.9735099337748 L 456.62020905923345 151.82119205298008 L 458.3623693379791 151.9867549668874 L 460.10452961672473 145.52980132450327 L 461.8466898954704 142.5496688741722 L 463.588850174216 133.27814569536417 L 465.33101045296166 130.79470198675494 L 467.0731707317073 127.81456953642385 L 468.81533101045295 117.05298013245033 L 470.5574912891986 108.27814569536417 L 472.29965156794424 107.94701986754967 L 474.0418118466899 110.59602649006615 L 475.7839721254355 111.75496688741714 L 477.52613240418117 114.07284768211923 L 479.2682926829268 107.11920529801318 L 481.01045296167246 104.63576158940396 L 482.7526132404181 107.4503311258278 L 484.49477351916374 108.27814569536417 L 486.2369337979094 100 L 487.97909407665503 102.9801324503311 L 489.7212543554007 105.62913907284769 L 491.4634146341463 114.40397350993373 L 493.20557491289196 116.39072847682121 L 494.9477351916376 112.41721854304637 L 496.68989547038325 119.03973509933769 L 498.4320557491289 120.36423841059604 L 500.17421602787454 117.5496688741722 L 501.91637630662024 124.00662251655626 L 503.6585365853659 130.13245033112582 L 505.4006968641115 137.91390728476824 L 507.14285714285717 142.05298013245033 L 508.8850174216028 140.39735099337747 L 510.62717770034845 147.01986754966887 L 512.3693379790941 145.86092715231788 L 514.1114982578397 145.86092715231788 L 515.8536585365854 153.9735099337748 L 517.5958188153311 149.33774834437085 L 519.3379790940767 152.48344370860926 L 521.0801393728223 159.10596026490063 L 522.822299651568 163.57615894039733 L 524.5644599303137 169.70198675496684 L 526.3066202090592 180.46357615894036 L 528.0487804878048 179.63576158940393 L 529.7909407665505 184.6026490066225 L 531.5331010452962 192.0529801324503 L 533.2752613240418 190.2317880794702 L 535.0174216027874 196.02649006622514 L 536.7595818815331 205.79470198675497 L 538.5017421602788 211.58940397350992 L 540.2439024390244 215.72847682119206 L 541.98606271777 230.1324503311258 L 543.7282229965157 232.94701986754964 L 545.4703832752614 221.3576158940397 L 547.212543554007 221.85430463576157 L 548.9547038327526 226.82119205298014 L 550.6968641114983 233.77483443708607 L 552.439024390244 236.4238410596026 L 554.1811846689895 237.7483443708609 L 555.9233449477351 241.55629139072843 L 557.6655052264808 245.03311258278146 L 559.4076655052265 244.7019867549669 L 561.1498257839721 256.45695364238406 L 562.8919860627177 254.63576158940398 L 564.6341463414634 261.2582781456954 L 566.3763066202091 261.42384105960264 L 568.1184668989547 259.6026490066225 L 569.8606271777003 265.2317880794702 L 571.602787456446 266.22516556291384 L 573.3449477351917 265.2317880794702 L 575.0871080139373 263.41059602649 L 576.8292682926829 264.5695364238411 L 578.5714285714286 274.00662251655626 L 580.3135888501743 269.20529801324506 L 582.0557491289198 271.85430463576154 L 583.7979094076654 282.1192052980132 L 585.5400696864111 273.1788079470199 L 587.2822299651568 269.20529801324506 L 589.0243902439024 274.6688741721854 L 590.766550522648 275.6622516556291 L 592.5087108013937 277.317880794702 L 594.2508710801394 271.1920529801324 L 595.993031358885 278.6423841059602 L 597.7351916376306 270.69536423841055 L 599.4773519163763 274.50331125827813 L 601.219512195122 279.9668874172186 L 602.9616724738676 279.9668874172186 L 604.7038327526133 276.98675496688736 L 606.445993031359 289.2384105960265 L 608.1881533101046 291.3907284768212 L 609.9303135888501 296.02649006622516 L 611.6724738675958 298.67549668874176 L 613.4146341463415 303.14569536423835 L 615.1567944250871 304.1390728476821 L 616.8989547038327 312.91390728476824 L 618.6411149825784 322.0198675496689 L 620.3832752613241 321.6887417218543 L 622.1254355400697 325.6622516556291 L 623.8675958188153 325.99337748344374 L 625.609756097561 331.7880794701987 L 627.3519163763067 337.91390728476824 L 629.0940766550523 340.2317880794702 L 630.8362369337979 344.70198675496687 L 632.5783972125436 345.19867549668874 L 634.3205574912893 342.71523178807945 L 636.0627177700349 345.5298013245033 L 637.8048780487804 353.6423841059602 L 639.5470383275261 355.96026490066225 L 641.2891986062718 355.2980132450331 L 643.0313588850174 351.49006622516555 L 644.773519163763 352.9801324503311 L 646.5156794425087 363.24503311258275 L 648.2578397212544 366.3907284768212 L 650 368.37748344370857 L 650 400 Z" /><text  class="poloto_labels poloto_text poloto_title" alignment-baseline="start" text-anchor="middle" font-size="x-large" x="400" y="37.5" >Total players on 2021-09-13</text><text  class="poloto_labels poloto_text poloto_xname" alignment-baseline="start" text-anchor="middle" font-size="x-large" x="400" y="481.25" >Time</text><text  class="poloto_labels poloto_text poloto_yname" alignment-baseline="start" text-anchor="middle" font-size="x-large" transform="rotate(-90,37.5,250)" x="37.5" y="250" >Count</text><line  class="poloto_axis_lines" stroke="black" x1="150" x2="150" y1="400" y2="405" /><text  class="poloto_tick_labels poloto_text" alignment-baseline="start" text-anchor="middle" x="150" y="430" > 00:00:00</text><line  class="poloto_axis_lines" stroke="black" x1="266.14401858304296" x2="266.14401858304296" y1="400" y2="405" /><text  class="poloto_tick_labels poloto_text" alignment-baseline="start" text-anchor="middle" x="266.14401858304296" y="430" > 05:33:20</text><line  class="poloto_axis_lines" stroke="black" x1="382.2880371660859" x2="382.2880371660859" y1="400" y2="405" /><text  class="poloto_tick_labels poloto_text" alignment-baseline="start" text-anchor="middle" x="382.2880371660859" y="430" > 11:06:40</text><line  class="poloto_axis_lines" stroke="black" x1="498.4320557491289" x2="498.4320557491289" y1="400" y2="405" /><text  class="poloto_tick_labels poloto_text" alignment-baseline="start" text-anchor="middle" x="498.4320557491289" y="430" > 16:40:00</text><line  class="poloto_axis_lines" stroke="black" x1="614.5760743321719" x2="614.5760743321719" y1="400" y2="405" /><text  class="poloto_tick_labels poloto_text" alignment-baseline="start" text-anchor="middle" x="614.5760743321719" y="430" > 22:13:20</text><line  class="poloto_axis_lines" stroke="black" x1="150" x2="144" y1="325.33112582781456" y2="325.33112582781456" /><text  class="poloto_tick_labels poloto_text" alignment-baseline="middle" text-anchor="end" x="135" y="325.33112582781456" > 1500</text><line  class="poloto_axis_lines" stroke="black" x1="150" x2="144" y1="242.5496688741722" y2="242.5496688741722" /><text  class="poloto_tick_labels poloto_text" alignment-baseline="middle" text-anchor="end" x="135" y="242.5496688741722" > 2000</text><line  class="poloto_axis_lines" stroke="black" x1="150" x2="144" y1="159.76821192052978" y2="159.76821192052978" /><text  class="poloto_tick_labels poloto_text" alignment-baseline="middle" text-anchor="end" x="135" y="159.76821192052978" > 2500</text><path  stroke="black" fill="none" class="poloto_axis_lines" style="stroke-dasharray:14.518002322880372;stroke-dashoffset:-0;" d=" M 150 400 L 650 400" /><path  stroke="black" fill="none" class="poloto_axis_lines" style="stroke-dasharray:8.27814569536424;stroke-dashoffset:-74.66887417218544;" d=" M 150 400 L 150 100" /></svg>