<svg class="poloto" width="800" height="500" viewBox="0 0 800 500" xmlns="http://www.w3.org/2000/svg"><style>.poloto { stroke-linecap:round; stroke-linejoin:round; font-family: 'Tahoma', sans-serif; background-color: AliceBlue;} .poloto_scatter{stroke-width:7} .poloto_line{stroke-width:2} .poloto_text{fill: black;} .poloto_axis_lines{stroke: black;stroke-width:3;fill:none;stroke-dasharray:none} .poloto0stroke{stroke:  blue;} .poloto1stroke{stroke:  red;} .poloto2stroke{stroke:  green;} .poloto3stroke{stroke:  gold;} .poloto4stroke{stroke:  aqua;} .poloto5stroke{stroke:  lime;} .poloto6stroke{stroke:  orange;} .poloto7stroke{stroke:  chocolate;} .poloto0fill{fill:blue;} .poloto1fill{fill:red;} .poloto2fill{fill:green;} .poloto3fill{fill:gold;} .poloto4fill{fill:aqua;} .poloto5fill{fill:lime;} .poloto6fill{fill:orange;} .poloto7fill{fill:chocolate;}</style><text  class="poloto_text poloto_legend_text" alignment-baseline="middle" text-anchor="start" font-size="large" x="675" y="100" ></text><path  class="poloto_linefill poloto0fill" d=" M 150 400 L 150 368.0651221039449 L 151.74216027874564 375.0156543519098 L 153.4843205574913 376.14276768941767 L 155.22648083623693 378.0212899185974 L 156.96864111498257 383.0932999373826 L 158.71080139372822 386.4746399499061 L 160.45296167247386 386.2867877269881 L 162.1951219512195 395.3036944270507 L 163.93728222996515 394.36443331246085 L 165.6794425087108 393.23731997495304 L 167.42160278745644 396.05510331872256 L 169.16376306620208 390.7952410770194 L 170.90592334494772 389.85597996242956 L 172.64808362369337 389.4802755165936 L 174.390243902439 391.1709455228554 L 176.13240418118465 391.92235441452726 L 177.8745644599303 393.23731997495304 L 179.61672473867597 390.2316844082655 L 181.3588850174216 400 L 183.10104529616726 398.6850344395742 L 184.8432055749129 398.1214777708203 L 186.58536585365854 389.6681277395116 L 188.3275261324042 388.7288666249217 L 190.06968641114983 391.92235441452726 L 191.81184668989548 391.7345021916093 L 193.55400696864112 387.78960551033185 L 195.29616724738676 386.850344395742 L 197.0383275261324 383.28115216030056 L 198.78048780487805 375.39135879774574 L 200.5226480836237 376.33061991233564 L 202.26480836236934 378.7726988102693 L 204.00696864111498 370.6950532247965 L 205.74912891986062 373.1371321227301 L 207.49128919860627 369.5679398872887 L 209.2334494773519 371.4464621164684 L 210.97560975609755 372.7614276768942 L 212.7177700348432 364.1202254226675 L 214.45993031358887 367.12586098935503 L 216.2020905923345 361.11458985597994 L 217.94425087108016 355.2911709455228 L 219.6864111498258 354.9154664996869 L 221.42857142857144 350.9705698184095 L 223.1707317073171 352.4733876017533 L 224.91289198606273 351.72197871008143 L 226.65505226480838 355.8547276142767 L 228.39721254355402 356.04257983719475 L 230.13937282229966 351.72197871008143 L 231.8815331010453 351.1584220413275 L 233.62369337979095 347.777082028804 L 235.3658536585366 344.95929868503447 L 237.10801393728224 343.64433312460864 L 238.85017421602788 335.00313087038194 L 240.59233449477352 325.42266750156546 L 242.33449477351917 328.9918597370069 L 244.0766550522648 335.00313087038194 L 245.81881533101046 330.6825297432686 L 247.5609756097561 336.50594865372574 L 249.30313588850174 333.3124608641202 L 251.0452961672474 337.06950532247964 L 252.78745644599303 331.99749530369445 L 254.52961672473867 329.7432686286788 L 256.2717770034843 327.86474639949904 L 258.01393728222996 327.11333750782717 L 259.7560975609756 325.98622417031936 L 261.49825783972125 320.9142141515341 L 263.2404181184669 321.853475266124 L 264.98257839721254 324.1077019411396 L 266.7247386759582 319.59924859110833 L 268.4668989547038 320.16280525986224 L 270.20905923344947 317.34502191609266 L 271.9512195121951 311.89730745147153 L 273.69337979094075 307.9524107701941 L 275.4355400696864 308.14026299311206 L 277.17770034843204 304.5710707576706 L 278.91986062717774 309.64308077645586 L 280.6620209059233 302.69254852849093 L 282.404181184669 303.63180964308077 L 284.1463414634146 288.41577958672514 L 285.8885017421603 286.5372573575454 L 287.6306620209059 278.08390732623667 L 289.3728222996516 279.21102066374453 L 291.1149825783972 287.1008140262993 L 292.8571428571429 284.4708829054477 L 294.5993031358885 285.4101440200376 L 296.3414634146342 285.59799624295556 L 298.08362369337976 283.7194740137758 L 299.82578397212546 274.1390106449593 L 301.56794425087105 271.88478396994367 L 303.31010452961675 272.2604884157796 L 305.05226480836234 269.25485284909206 L 306.79442508710804 260.9893550407013 L 308.5365853658536 252.34815278647466 L 310.2787456445993 252.53600500939262 L 312.0209059233449 242.9555416405761 L 313.7630662020906 237.69567939887287 L 315.5052264808362 233.18722604884158 L 317.2473867595819 228.6787726988103 L 318.9895470383275 234.87789605510335 L 320.7317073170732 231.49655604257987 L 322.4738675958188 224.92172824045088 L 324.2160278745645 222.1039448966813 L 325.9581881533101 225.2974326862868 L 327.70034843205576 223.60676268002504 L 329.4425087108014 232.06011271133377 L 331.18466898954705 228.49092047589232 L 332.9268292682927 227.55165936130243 L 334.66898954703834 230.369442705072 L 336.411149825784 230.369442705072 L 338.1533101045296 230.9329993738259 L 339.89547038327527 232.24796493425174 L 341.6376306620209 237.88353162179084 L 343.37979094076655 238.4470882905448 L 345.1219512195122 231.12085159674388 L 346.86411149825784 228.1152160300564 L 348.6062717770035 222.29179711959927 L 350.34843205574913 224.92172824045088 L 352.0905923344948 217.40763932373198 L 353.8327526132404 217.21978710081402 L 355.57491289198606 210.64495929868502 L 357.3170731707317 220.0375704445836 L 359.05923344947735 218.91045710707579 L 360.801393728223 222.47964934251723 L 362.54355400696863 220.41327489041953 L 364.2857142857143 221.5403882279274 L 366.0278745644599 222.6675015654352 L 367.77003484320556 208.20288040075144 L 369.5121951219512 210.64495929868502 L 371.25435540069685 211.02066374452096 L 372.9965156794425 205.00939261114593 L 374.73867595818814 202.5673137132123 L 376.4808362369338 194.30181590482152 L 378.2229965156795 195.4289292423294 L 379.96515679442507 197.87100814026297 L 381.70731707317077 189.79336255479024 L 383.44947735191636 189.9812147777082 L 385.19163763066206 199.7495303694427 L 386.93379790940764 192.98685034439575 L 388.67595818815334 189.60551033187227 L 390.41811846689893 187.53913587977456 L 392.16027874564463 183.9699436443331 L 393.9024390243902 178.52222917971199 L 395.6445993031359 169.12961803381341 L 397.3867595818815 171.19599248591112 L 399.1289198606272 166.4996869129618 L 400.8710801393728 162.17908578584849 L 402.6132404181185 163.3061991233563 L 404.3554006968641 166.31183469004384 L 406.0975609756098 159.3613024420789 L 407.8397212543554 154.85284909204762 L 409.58188153310107 148.4658735128366 L 411.3240418118467 148.4658735128366 L 413.06620209059236 143.39386349405135 L 414.808362369338 139.63681903569193 L 416.55052264808364 126.67501565435191 L 418.2926829268293 121.97871008140265 L 420.03484320557493 119.91233562930495 L 421.7770034843206 117.09455228553537 L 423.5191637630662 118.97307451471511 L 425.26132404181186 123.10582341891046 L 427.0034843205575 129.4927989981215 L 428.74564459930315 133.06199123356294 L 430.4878048780488 133.43769567939887 L 432.22996515679444 135.3162179085786 L 433.9721254355401 130.99561678146523 L 435.7142857142857 134.18910457107074 L 437.45644599303137 131.74702567313716 L 439.198606271777 123.66938008766436 L 440.94076655052265 112.21039448966815 L 442.6829268292683 112.58609893550408 L 444.42508710801394 115.7795867251096 L 446.1672473867596 117.65810895428933 L 447.9094076655052 110.70757670632435 L 449.65156794425087 104.50845335003135 L 451.3937282229965 100 L 453.13588850174216 102.62993112085161 L 454.8780487804878 118.22166562304324 L 456.62020905923345 113.52536005009392 L 458.3623693379791 115.21603005635569 L 460.10452961672473 116.15529117094553 L 461.8466898954704 126.67501565435191 L 463.588850174216 120.85159674389479 L 465.33101045296166 124.0450845335003 L 467.0731707317073 130.24420788979336 L 468.81533101045295 135.50407013149658 L 470.5574912891986 139.63681903569193 L 472.29965156794424 145.46023794614905 L 474.0418118466899 137.38259236067626 L 475.7839721254355 143.76956793988728 L 477.52613240418117 141.13963681903573 L 479.2682926829268 138.50970569818412 L 481.01045296167246 140.01252348152786 L 482.7526132404181 149.40513462742643 L 484.49477351916374 159.3613024420789 L 486.2369337979094 164.99686912961806 L 487.97909407665503 157.10707576706324 L 489.7212543554007 159.73700688791484 L 491.4634146341463 163.49405134627426 L 493.20557491289196 173.0745147150908 L 494.9477351916376 174.95303694427054 L 496.68989547038325 181.90356919223547 L 498.4320557491289 185.47276142767691 L 500.17421602787454 185.09705698184098 L 501.91637630662024 195.61678146524736 L 503.6585365853659 196.18033813400126 L 505.4006968641115 194.86537257357548 L 507.14285714285717 199.7495303694427 L 508.8850174216028 201.06449592986849 L 510.62717770034845 198.81026925485287 L 512.3693379790941 205.38509705698186 L 514.1114982578397 209.89355040701315 L 515.8536585365854 223.60676268002504 L 517.5958188153311 219.84971822166563 L 519.3379790940767 224.54602379461488 L 521.0801393728223 224.17031934877895 L 522.822299651568 221.72824045084536 L 524.5644599303137 231.30870381966184 L 526.3066202090592 238.4470882905448 L 528.0487804878048 240.88916718847838 L 529.7909407665505 241.26487163431432 L 531.5331010452962 242.01628052598625 L 533.2752613240418 234.3143393863494 L 535.0174216027874 235.25360050093929 L 536.7595818815331 234.69004383218532 L 538.5017421602788 239.76205385097057 L 540.2439024390244 240.51346274264245 L 541.98606271777 243.33124608641202 L 543.7282229965157 238.25923606762683 L 545.4703832752614 241.07701941139635 L 547.212543554007 251.2210394489668 L 548.9547038327526 249.53036944270508 L 550.6968641114983 251.78459611772075 L 552.439024390244 251.59674389480278 L 554.1811846689895 256.48090169067 L 555.9233449477351 254.97808390732627 L 557.6655052264808 258.7351283656857 L 559.4076655052265 261.17720726361927 L 561.1498257839721 265.1221039448967 L 562.8919860627177 259.6743894802755 L 564.6341463414634 254.79023168440824 L 566.3763066202091 258.7351283656857 L 568.1184668989547 257.6080150281778 L 569.8606271777003 261.55291170945526 L 571.602787456446 262.4921728240451 L 573.3449477351917 264.1828428303068 L 575.0871080139373 266.62492172824045 L 576.8292682926829 268.1277395115842 L 578.5714285714286 276.7689417658109 L 580.3135888501743 276.39323731997496 L 582.0557491289198 274.8904195366312 L 583.7979094076654 273.76330619912335 L 585.5400696864111 274.1390106449593 L 587.2822299651568 279.02316844082657 L 589.0243902439024 281.2773951158422 L 590.766550522648 290.10644959298685 L 592.5087108013937 294.42705072010017 L 594.2508710801394 292.73638071383846 L 595.993031358885 298.5597996242956 L 597.7351916376306 295.742016280526 L 599.4773519163763 294.05134627426423 L 601.219512195122 304.0075140889167 L 602.9616724738676 309.2673763306199 L 604.7038327526133 307.57670632435816 L 606.445993031359 314.71509079524105 L 608.1881533101046 315.65435190983095 L 609.9303135888501 318.84783969943646 L 611.6724738675958 318.6599874765185 L 613.4146341463415 316.4057608015028 L 615.1567944250871 316.5936130244208 L 616.8989547038327 319.41139636819037 L 618.6411149825784 321.853475266124 L 620.3832752613241 319.59924859110833 L 622.1254355400697 324.1077019411396 L 623.8675958188153 321.665623043206 L 625.609756097561 329.93112085159675 L 627.3519163763067 334.627426424546 L 629.0940766550523 334.81527864746397 L 630.8362369337979 341.57795867251093 L 632.5783972125436 336.8816530995617 L 634.3205574912893 338.3844708829055 L 636.0627177700349 339.5115842204133 L 637.8048780487804 344.95929868503447 L 639.5470383275261 346.83782091421415 L 641.2891986062718 353.2247964934252 L 643.0313588850174 358.10895428929246 L 644.773519163763 356.4182842830307 L 646.5156794425087 356.2304320601127 L 648.2578397212544 360.55103318722604 L 650 363.3688165309956 L 650 400 Z" /><text  class="poloto_labels poloto_text poloto_title" alignment-baseline="start" text-anchor="middle" font-size="x-large" x="400" y="37.5" >Total players on 2021-12-26</text><text  class="poloto_labels poloto_text poloto_xname" alignment-baseline="start" text-anchor="middle" font-size="x-large" x="400" y="481.25" >Time</text><text  class="poloto_labels poloto_text poloto_yname" alignment-baseline="start" text-anchor="middle" font-size="x-large" transform="rotate(-90,37.5,250)" x="37.5" y="250" >Count</text><line  class="poloto_axis_lines" stroke="black" x1="150" x2="150" y1="400" y2="405" /><text  class="poloto_tick_labels poloto_text" alignment-baseline="start" text-anchor="middle" x="150" y="430" > 00:00:00</text><line  class="poloto_axis_lines" stroke="black" x1="266.14401858304296" x2="266.14401858304296" y1="400" y2="405" /><text  class="poloto_tick_labels poloto_text" alignment-baseline="start" text-anchor="middle" x="266.14401858304296" y="430" > 05:33:20</text><line  class="poloto_axis_lines" stroke="black" x1="382.2880371660859" x2="382.2880371660859" y1="400" y2="405" /><text  class="poloto_tick_labels poloto_text" alignment-baseline="start" text-anchor="middle" x="382.2880371660859" y="430" > 11:06:40</text><line  class="poloto_axis_lines" stroke="black" x1="498.4320557491289" x2="498.4320557491289" y1="400" y2="405" /><text  class="poloto_tick_labels poloto_text" alignment-baseline="start" text-anchor="middle" x="498.4320557491289" y="430" > 16:40:00</text><line  class="poloto_axis_lines" stroke="black" x1="614.5760743321719" x2="614.5760743321719" y1="400" y2="405" /><text  class="poloto_tick_labels poloto_text" alignment-baseline="start" text-anchor="middle" x="614.5760743321719" y="430" > 22:13:20</text><line  class="poloto_axis_lines" stroke="black" x1="150" x2="144" y1="399.81214777708203" y2="399.81214777708203" /><text  class="poloto_tick_labels poloto_text" alignment-baseline="middle" text-anchor="end" x="135" y="399.81214777708203" > 1000</text><line  class="poloto_axis_lines" stroke="black" x1="150" x2="144" y1="305.88603631809644" y2="305.88603631809644" /><text  class="poloto_tick_labels poloto_text" alignment-baseline="middle" text-anchor="end" x="135" y="305.88603631809644" > 1500</text><line  class="poloto_axis_lines" stroke="black" x1="150" x2="144" y1="211.95992485911086" y2="211.95992485911086" /><text  class="poloto_tick_labels poloto_text" alignment-baseline="middle" text-anchor="end" x="135" y="211.95992485911086" > 2000</text><line  class="poloto_axis_lines" stroke="black" x1="150" x2="144" y1="118.03381340012527" y2="118.03381340012527" /><text  class="poloto_tick_labels poloto_text" alignment-baseline="middle" text-anchor="end" x="135" y="118.03381340012527" > 2500</text><path  stroke="black" fill="none" class="poloto_axis_lines" style="stroke-dasharray:14.518002322880372;stroke-dashoffset:-0;" d=" M 150 400 L 650 400" /><path  stroke="black" fill="none" class="poloto_axis_lines" style="stroke-dasharray:9.39261114589856;stroke-dashoffset:-0.187852222917968;" d=" M 150 400 L 150 100" /></svg>