<svg class="poloto" width="800" height="500" viewBox="0 0 800 500" xmlns="http://www.w3.org/2000/svg"><style>.poloto { stroke-linecap:round; stroke-linejoin:round; font-family: 'Tahoma', sans-serif; background-color: AliceBlue;} .poloto_scatter{stroke-width:7} .poloto_line{stroke-width:2} .poloto_text{fill: black;} .poloto_axis_lines{stroke: black;stroke-width:3;fill:none;stroke-dasharray:none} .poloto0stroke{stroke:  blue;} .poloto1stroke{stroke:  red;} .poloto2stroke{stroke:  green;} .poloto3stroke{stroke:  gold;} .poloto4stroke{stroke:  aqua;} .poloto5stroke{stroke:  lime;} .poloto6stroke{stroke:  orange;} .poloto7stroke{stroke:  chocolate;} .poloto0fill{fill:blue;} .poloto1fill{fill:red;} .poloto2fill{fill:green;} .poloto3fill{fill:gold;} .poloto4fill{fill:aqua;} .poloto5fill{fill:lime;} .poloto6fill{fill:orange;} .poloto7fill{fill:chocolate;}</style><text  class="poloto_text poloto_legend_text" alignment-baseline="middle" text-anchor="start" font-size="large" x="675" y="100" ></text><path  class="poloto_linefill poloto0fill" d=" M 150 400 L 150 365.7191586128482 L 151.74216027874564 362.6492325184764 L 153.4843205574913 366.9130187606595 L 155.22648083623693 367.93632745878335 L 156.96864111498257 372.7117680500284 L 158.71080139372822 379.87492893689597 L 160.45296167247386 379.87492893689597 L 162.1951219512195 385.33257532689026 L 163.93728222996515 383.45650938032975 L 165.6794425087108 390.6196702671973 L 167.42160278745644 386.35588402501423 L 169.16376306620208 389.425810119386 L 170.90592334494772 392.83683911313244 L 172.64808362369337 397.1006253553155 L 174.390243902439 396.2478681068789 L 176.13240418118465 395.5656623081296 L 177.8745644599303 397.1006253553155 L 179.61672473867597 398.4650369528141 L 181.3588850174216 396.4184195565662 L 183.10104529616726 397.1006253553155 L 184.8432055749129 395.7362137578169 L 186.58536585365854 394.0306992609437 L 188.3275261324042 390.9607731665719 L 190.06968641114983 395.5656623081296 L 191.81184668989548 393.00739056281975 L 193.55400696864112 390.27856736782263 L 195.29616724738676 385.5031267765776 L 197.0383275261324 387.03808982376347 L 198.78048780487805 389.59636156907334 L 200.5226480836237 387.37919272313815 L 202.26480836236934 386.86753837407616 L 204.00696864111498 384.30926662876635 L 205.74912891986062 380.7276861853326 L 207.49128919860627 380.7276861853326 L 209.2334494773519 377.31665719158616 L 210.97560975609755 370.83570210346784 L 212.7177700348432 370.83570210346784 L 214.45993031358887 370.3240477544059 L 216.2020905923345 365.5486071631609 L 217.94425087108016 363.16088686753835 L 219.6864111498258 361.62592382035245 L 221.42857142857144 356.16827743035816 L 223.1707317073171 357.87379192723137 L 224.91289198606273 354.2922114837976 L 226.65505226480838 352.7572484366117 L 228.39721254355402 344.5707788516203 L 230.13937282229966 345.9351904491188 L 231.8815331010453 336.38430926662875 L 233.62369337979095 341.8419556566231 L 235.3658536585366 337.74872086412734 L 237.10801393728224 329.39169982944856 L 238.85017421602788 335.8726549175668 L 240.59233449477352 338.08982376350195 L 242.33449477351917 333.31438317225695 L 244.0766550522648 328.88004548038657 L 245.81881533101046 329.0505969300739 L 247.5609756097561 323.76350198976695 L 249.30313588850174 320.3524729960204 L 251.0452961672474 316.941444002274 L 252.78745644599303 313.01876065946556 L 254.52961672473867 315.4064809550881 L 256.2717770034843 316.7708925525867 L 258.01393728222996 314.55372370665145 L 259.7560975609756 313.8715179079022 L 261.49825783972125 308.41387151790786 L 263.2404181184669 313.3598635588403 L 264.98257839721254 308.41387151790786 L 266.7247386759582 312.3365548607163 L 268.4668989547038 310.2899374644685 L 270.20905923344947 307.90221716884594 L 271.9512195121951 307.0494599204093 L 273.69337979094075 303.12677657760094 L 275.4355400696864 298.52188743604324 L 277.17770034843204 295.79306424104607 L 278.91986062717774 288.4593519044912 L 280.6620209059233 290.84707220011376 L 282.404181184669 283.17225696418416 L 284.1463414634146 272.9391699829448 L 285.8885017421603 271.91586128482095 L 287.6306620209059 272.5980670835702 L 289.3728222996516 271.4042069357589 L 291.1149825783972 274.4741330301307 L 292.8571428571429 271.74530983513364 L 294.5993031358885 270.38089823763505 L 296.3414634146342 264.7527003979534 L 298.08362369337976 264.5821489482661 L 299.82578397212546 260.6594656054576 L 301.56794425087105 257.58953951108583 L 303.31010452961675 260.6594656054576 L 305.05226480836234 254.1785105173394 L 306.79442508710804 253.83740761796477 L 308.5365853658536 262.70608300170557 L 310.2787456445993 264.7527003979534 L 312.0209059233449 263.7293916998294 L 313.7630662020906 262.36498010233083 L 315.5052264808362 262.36498010233083 L 317.2473867595819 266.2876634451393 L 318.9895470383275 262.8766344513929 L 320.7317073170732 265.2643547470153 L 322.4738675958188 259.12450255827173 L 324.2160278745645 257.76009096077314 L 325.9581881533101 255.8840250142126 L 327.70034843205576 249.0619670267197 L 329.4425087108014 250.255827174531 L 331.18466898954705 250.76748152359298 L 332.9268292682927 247.8681068789085 L 334.66898954703834 249.91472427515632 L 336.411149825784 243.94542353610004 L 338.1533101045296 247.1859010801592 L 339.89547038327527 250.5969300739056 L 341.6376306620209 237.80557134735645 L 343.37979094076655 235.07674815235927 L 345.1219512195122 236.95281409891984 L 346.86411149825784 235.41785105173395 L 348.6062717770035 240.87549744172824 L 350.34843205574913 242.23990903922683 L 352.0905923344948 233.88288800454805 L 353.8327526132404 232.68902785673677 L 355.57491289198606 238.14667424673112 L 357.3170731707317 234.22399090392267 L 359.05923344947735 223.30869812393408 L 360.801393728223 216.6571915861285 L 362.54355400696863 218.3627060830017 L 364.2857142857143 217.85105173393973 L 366.0278745644599 229.61910176236498 L 367.77003484320556 226.8902785673678 L 369.5121951219512 226.54917566799318 L 371.25435540069685 220.23877202956223 L 372.9965156794425 210.00568504832293 L 374.73867595818814 207.10631040363845 L 376.4808362369338 205.57134735645255 L 378.2229965156795 205.91245025582717 L 379.96515679442507 201.13700966458217 L 381.70731707317077 192.0977828311541 L 383.44947735191636 204.54803865832858 L 385.19163763066206 196.8732234223991 L 386.93379790940764 200.28425241614556 L 388.67595818815334 203.52472996020467 L 390.41811846689893 203.18362706083005 L 392.16027874564463 193.2916429789653 L 393.9024390243902 194.14440022740192 L 395.6445993031359 192.2683342808414 L 397.3867595818815 192.2683342808414 L 399.1289198606272 185.10517339397384 L 400.8710801393728 184.93462194428653 L 402.6132404181185 189.36895963615692 L 404.3554006968641 185.10517339397384 L 406.0975609756098 182.20579874928936 L 407.8397212543554 173.16657191586128 L 409.58188153310107 161.05741898806141 L 411.3240418118467 160.03411028993744 L 413.06620209059236 156.96418419556565 L 414.808362369338 155.42922114837975 L 416.55052264808364 159.01080159181353 L 418.2926829268293 153.72370665150655 L 420.03484320557493 153.72370665150655 L 421.7770034843206 154.57646389994315 L 423.5191637630662 139.56793632745882 L 425.26132404181186 150.99488345650937 L 427.0034843205575 148.94826606026155 L 428.74564459930315 138.20352472996024 L 430.4878048780488 134.96304718590113 L 432.22996515679444 132.23422399090396 L 433.9721254355401 133.76918703808985 L 435.7142857142857 134.79249573621382 L 437.45644599303137 126.94712905059691 L 439.198606271777 129.8465036952814 L 440.94076655052265 124.21830585559974 L 442.6829268292683 128.82319499715743 L 444.42508710801394 117.39624786810691 L 446.1672473867596 116.03183627060832 L 447.9094076655052 121.48948266060268 L 449.65156794425087 122.34223990903922 L 451.3937282229965 118.41955656623077 L 453.13588850174216 120.80727686185332 L 454.8780487804878 116.03183627060832 L 456.62020905923345 121.48948266060268 L 458.3623693379791 118.07845366685615 L 460.10452961672473 121.48948266060268 L 461.8466898954704 108.69812393405346 L 463.588850174216 100 L 465.33101045296166 102.38772029562256 L 467.0731707317073 105.11654349061973 L 468.81533101045295 118.93121091529281 L 470.5574912891986 113.9852188743605 L 472.29965156794424 107.67481523592949 L 474.0418118466899 106.3104036384309 L 475.7839721254355 116.03183627060832 L 477.52613240418117 115.34963047185897 L 479.2682926829268 115.86128482092101 L 481.01045296167246 116.20238772029563 L 482.7526132404181 126.09437180216037 L 484.49477351916374 119.95451961341678 L 486.2369337979094 136.66856168277434 L 487.97909407665503 158.15804434337693 L 489.7212543554007 162.08072768618533 L 491.4634146341463 167.0267197271177 L 493.20557491289196 181.69414440022743 L 494.9477351916376 184.25241614553724 L 496.68989547038325 182.71745309835134 L 498.4320557491289 182.03524729960205 L 500.17421602787454 186.98123934053442 L 501.91637630662024 214.95167708925524 L 503.6585365853659 214.09891984081864 L 505.4006968641115 215.46333143831723 L 507.14285714285717 205.74189880613986 L 508.8850174216028 209.15292779988633 L 510.62717770034845 206.59465605457646 L 512.3693379790941 214.4400227401933 L 514.1114982578397 212.73450824332005 L 515.8536585365854 210.00568504832293 L 517.5958188153311 209.66458214894826 L 519.3379790940767 214.4400227401933 L 521.0801393728223 218.70380898237633 L 522.822299651568 212.39340534394543 L 524.5644599303137 210.85844229675953 L 526.3066202090592 217.5099488345651 L 528.0487804878048 225.69641841955658 L 529.7909407665505 226.7197271176805 L 531.5331010452962 236.27060830017055 L 533.2752613240418 237.46446844798183 L 535.0174216027874 241.38715179079023 L 536.7595818815331 254.1785105173394 L 538.5017421602788 251.7907902217169 L 540.2439024390244 265.77600909607736 L 541.98606271777 265.77600909607736 L 543.7282229965157 262.70608300170557 L 545.4703832752614 267.8226264923252 L 547.212543554007 275.667993177942 L 548.9547038327526 276.52075042637864 L 550.6968641114983 272.4275156338829 L 552.439024390244 273.28027288231954 L 554.1811846689895 274.1330301307561 L 555.9233449477351 274.4741330301307 L 557.6655052264808 282.4900511654349 L 559.4076655052265 275.15633882888005 L 561.1498257839721 275.15633882888005 L 562.8919860627177 275.8385446276293 L 564.6341463414634 283.34280841387147 L 566.3763066202091 284.36611711199544 L 568.1184668989547 289.14155770324044 L 569.8606271777003 286.5832859579307 L 571.602787456446 285.90108015918133 L 573.3449477351917 279.76122797043774 L 575.0871080139373 271.4042069357589 L 576.8292682926829 277.8851620238772 L 578.5714285714286 277.8851620238772 L 580.3135888501743 285.3894258101194 L 582.0557491289198 288.9710062535531 L 583.7979094076654 290.84707220011376 L 585.5400696864111 286.4127345082434 L 587.2822299651568 284.36611711199544 L 589.0243902439024 284.53666856168275 L 590.766550522648 291.6998294485503 L 592.5087108013937 301.080159181353 L 594.2508710801394 306.19670267197273 L 595.993031358885 311.31324616259235 L 597.7351916376306 308.41387151790786 L 599.4773519163763 309.43718021603183 L 601.219512195122 307.7316657191586 L 602.9616724738676 310.97214326321773 L 604.7038327526133 314.8948266060262 L 606.445993031359 314.55372370665145 L 608.1881533101046 320.1819215463331 L 609.9303135888501 323.76350198976695 L 611.6724738675958 330.41500852757247 L 613.4146341463415 339.45423536100054 L 615.1567944250871 342.353610005685 L 616.8989547038327 341.5008527572484 L 618.6411149825784 343.8885730528709 L 620.3832752613241 355.31552018192156 L 622.1254355400697 362.30812961910175 L 623.8675958188153 366.23081296191015 L 625.609756097561 362.4786810687891 L 627.3519163763067 355.14496873223425 L 629.0940766550523 357.3621375781694 L 630.8362369337979 357.70324047754406 L 632.5783972125436 362.13757816941444 L 634.3205574912893 370.66515065378053 L 636.0627177700349 373.2234223990904 L 637.8048780487804 369.4712905059693 L 639.5470383275261 376.1227970437749 L 641.2891986062718 379.02217168845937 L 643.0313588850174 380.21603183627064 L 644.773519163763 384.99147242751565 L 646.5156794425087 389.76691301876065 L 648.2578397212544 395.5656623081296 L 650 400 L 650 400 Z" /><text  class="poloto_labels poloto_text poloto_title" alignment-baseline="start" text-anchor="middle" font-size="x-large" x="400" y="37.5" >Total players on 2021-12-05</text><text  class="poloto_labels poloto_text poloto_xname" alignment-baseline="start" text-anchor="middle" font-size="x-large" x="400" y="481.25" >Time</text><text  class="poloto_labels poloto_text poloto_yname" alignment-baseline="start" text-anchor="middle" font-size="x-large" transform="rotate(-90,37.5,250)" x="37.5" y="250" >Count</text><line  class="poloto_axis_lines" stroke="black" x1="150" x2="150" y1="400" y2="405" /><text  class="poloto_tick_labels poloto_text" alignment-baseline="start" text-anchor="middle" x="150" y="430" > 00:00:00</text><line  class="poloto_axis_lines" stroke="black" x1="266.14401858304296" x2="266.14401858304296" y1="400" y2="405" /><text  class="poloto_tick_labels poloto_text" alignment-baseline="start" text-anchor="middle" x="266.14401858304296" y="430" > 05:33:20</text><line  class="poloto_axis_lines" stroke="black" x1="382.2880371660859" x2="382.2880371660859" y1="400" y2="405" /><text  class="poloto_tick_labels poloto_text" alignment-baseline="start" text-anchor="middle" x="382.2880371660859" y="430" > 11:06:40</text><line  class="poloto_axis_lines" stroke="black" x1="498.4320557491289" x2="498.4320557491289" y1="400" y2="405" /><text  class="poloto_tick_labels poloto_text" alignment-baseline="start" text-anchor="middle" x="498.4320557491289" y="430" > 16:40:00</text><line  class="poloto_axis_lines" stroke="black" x1="614.5760743321719" x2="614.5760743321719" y1="400" y2="405" /><text  class="poloto_tick_labels poloto_text" alignment-baseline="start" text-anchor="middle" x="614.5760743321719" y="430" > 22:13:20</text><line  class="poloto_axis_lines" stroke="black" x1="150" x2="144" y1="328.19783968163733" y2="328.19783968163733" /><text  class="poloto_tick_labels poloto_text" alignment-baseline="middle" text-anchor="end" x="135" y="328.19783968163733" > 1500</text><line  class="poloto_axis_lines" stroke="black" x1="150" x2="144" y1="242.9221148379761" y2="242.9221148379761" /><text  class="poloto_tick_labels poloto_text" alignment-baseline="middle" text-anchor="end" x="135" y="242.9221148379761" > 2000</text><line  class="poloto_axis_lines" stroke="black" x1="150" x2="144" y1="157.64638999431497" y2="157.64638999431497" /><text  class="poloto_tick_labels poloto_text" alignment-baseline="middle" text-anchor="end" x="135" y="157.64638999431497" > 2500</text><path  stroke="black" fill="none" class="poloto_axis_lines" style="stroke-dasharray:14.518002322880372;stroke-dashoffset:-0;" d=" M 150 400 L 650 400" /><path  stroke="black" fill="none" class="poloto_axis_lines" style="stroke-dasharray:8.527572484366116;stroke-dashoffset:-71.8021603183627;" d=" M 150 400 L 150 100" /></svg>