<svg class="poloto" width="800" height="500" viewBox="0 0 800 500" xmlns="http://www.w3.org/2000/svg"><style>.poloto { stroke-linecap:round; stroke-linejoin:round; font-family: 'Tahoma', sans-serif; background-color: AliceBlue;} .poloto_scatter{stroke-width:7} .poloto_line{stroke-width:2} .poloto_text{fill: black;} .poloto_axis_lines{stroke: black;stroke-width:3;fill:none;stroke-dasharray:none} .poloto0stroke{stroke:  blue;} .poloto1stroke{stroke:  red;} .poloto2stroke{stroke:  green;} .poloto3stroke{stroke:  gold;} .poloto4stroke{stroke:  aqua;} .poloto5stroke{stroke:  lime;} .poloto6stroke{stroke:  orange;} .poloto7stroke{stroke:  chocolate;} .poloto0fill{fill:blue;} .poloto1fill{fill:red;} .poloto2fill{fill:green;} .poloto3fill{fill:gold;} .poloto4fill{fill:aqua;} .poloto5fill{fill:lime;} .poloto6fill{fill:orange;} .poloto7fill{fill:chocolate;}</style><text  class="poloto_text poloto_legend_text" alignment-baseline="middle" text-anchor="start" font-size="large" x="675" y="100" ></text><path  class="poloto_linefill poloto0fill" d=" M 150 400 L 150 343.4622467771639 L 151.74216027874564 345.30386740331494 L 153.4843205574913 342.5414364640884 L 155.22648083623693 342.3572744014733 L 156.96864111498257 341.62062615101286 L 158.71080139372822 346.2246777163904 L 160.45296167247386 348.61878453038673 L 162.1951219512195 352.670349907919 L 163.93728222996515 345.8563535911602 L 165.6794425087108 346.77716390423575 L 167.42160278745644 354.51197053407 L 169.16376306620208 359.3001841620626 L 170.90592334494772 361.1418047882136 L 172.64808362369337 360.7734806629834 L 174.390243902439 360.2209944751381 L 176.13240418118465 364.82504604051564 L 177.8745644599303 369.61325966850825 L 179.61672473867597 368.50828729281767 L 181.3588850174216 365.56169429097605 L 183.10104529616726 371.6390423572744 L 184.8432055749129 372.9281767955801 L 186.58536585365854 370.902394106814 L 188.3275261324042 367.95580110497235 L 190.06968641114983 372.55985267034987 L 191.81184668989548 367.4033149171271 L 193.55400696864112 370.5340699815838 L 195.29616724738676 369.060773480663 L 197.0383275261324 371.8232044198895 L 198.78048780487805 374.21731123388577 L 200.5226480836237 376.42725598526704 L 202.26480836236934 380.29465930018415 L 204.00696864111498 377.90055248618785 L 205.74912891986062 383.0570902394107 L 207.49128919860627 384.16206261510126 L 209.2334494773519 383.609576427256 L 210.97560975609755 381.9521178637201 L 212.7177700348432 376.6114180478821 L 214.45993031358887 379.18968692449357 L 216.2020905923345 378.82136279926334 L 217.94425087108016 381.39963167587473 L 219.6864111498258 377.71639042357276 L 221.42857142857144 379.9263351749539 L 223.1707317073171 382.1362799263352 L 224.91289198606273 383.24125230202577 L 226.65505226480838 377.34806629834253 L 228.39721254355402 377.90055248618785 L 230.13937282229966 376.9797421731123 L 231.8815331010453 382.87292817679554 L 233.62369337979095 383.0570902394107 L 235.3658536585366 386.5561694290976 L 237.10801393728224 386.0036832412523 L 238.85017421602788 391.5285451197053 L 240.59233449477352 394.659300184162 L 242.33449477351917 400 L 244.0766550522648 398.158379373849 L 245.81881533101046 396.13259668508283 L 247.5609756097561 388.9502762430939 L 249.30313588850174 389.68692449355433 L 251.0452961672474 383.4254143646409 L 252.78745644599303 388.02946593001843 L 254.52961672473867 393.1860036832412 L 256.2717770034843 392.44935543278086 L 258.01393728222996 390.97605893186005 L 259.7560975609756 384.7145488029466 L 261.49825783972125 378.82136279926334 L 263.2404181184669 374.76979742173114 L 264.98257839721254 380.29465930018415 L 266.7247386759582 382.87292817679554 L 268.4668989547038 380.84714548802947 L 270.20905923344947 384.5303867403315 L 271.9512195121951 374.9539594843462 L 273.69337979094075 375.6906077348066 L 275.4355400696864 370.7182320441989 L 277.17770034843204 371.08655616942906 L 278.91986062717774 367.77163904235726 L 280.6620209059233 368.8766114180479 L 282.404181184669 362.98342541436466 L 284.1463414634146 364.64088397790056 L 285.8885017421603 360.03683241252304 L 287.6306620209059 363.5359116022099 L 289.3728222996516 362.2467771639042 L 291.1149825783972 363.720073664825 L 292.8571428571429 367.5874769797422 L 294.5993031358885 370.5340699815838 L 296.3414634146342 371.4548802946593 L 298.08362369337976 370.7182320441989 L 299.82578397212546 369.79742173112334 L 301.56794425087105 368.50828729281767 L 303.31010452961675 370.3499079189687 L 305.05226480836234 371.27071823204415 L 306.79442508710804 368.3241252302025 L 308.5365853658536 364.82504604051564 L 310.2787456445993 366.29834254143645 L 312.0209059233449 359.8526703499079 L 313.7630662020906 356.16942909760587 L 315.5052264808362 347.6979742173112 L 317.2473867595819 348.43462246777165 L 318.9895470383275 350.27624309392263 L 320.7317073170732 345.1197053406998 L 322.4738675958188 346.4088397790055 L 324.2160278745645 343.4622467771639 L 325.9581881533101 338.67403314917124 L 327.70034843205576 336.64825046040517 L 329.4425087108014 340.33149171270713 L 331.18466898954705 337.75322283609574 L 332.9268292682927 337.56906077348066 L 334.66898954703834 337.01657458563534 L 336.411149825784 332.4125230202578 L 338.1533101045296 332.9650092081031 L 339.89547038327527 332.22836095764274 L 341.6376306620209 324.6777163904236 L 343.37979094076655 323.75690607734805 L 345.1219512195122 326.3351749539595 L 346.86411149825784 325.59852670349903 L 348.6062717770035 321.91528545119706 L 350.34843205574913 329.2817679558011 L 352.0905923344948 328.1767955801105 L 353.8327526132404 324.49355432780845 L 355.57491289198606 323.57274401473296 L 357.3170731707317 317.31123388581955 L 359.05923344947735 312.33885819521174 L 360.801393728223 309.3922651933701 L 362.54355400696863 306.2615101289134 L 364.2857142857143 297.7900552486188 L 366.0278745644599 291.5285451197053 L 367.77003484320556 298.89502762430936 L 369.5121951219512 297.0534069981584 L 371.25435540069685 298.5267034990792 L 372.9965156794425 295.02762430939225 L 374.73867595818814 290.0552486187845 L 376.4808362369338 290.6077348066298 L 378.2229965156795 283.0570902394107 L 379.96515679442507 305.3406998158379 L 381.70731707317077 296.316758747698 L 383.44947735191636 290.7918968692449 L 385.19163763066206 277.5322283609576 L 386.93379790940764 265.37753222836096 L 388.67595818815334 257.6427255985267 L 390.41811846689893 250.09208103130754 L 392.16027874564463 241.62062615101286 L 393.9024390243902 233.88581952117863 L 395.6445993031359 230.939226519337 L 397.3867595818815 219.88950276243094 L 399.1289198606272 220.99447513812152 L 400.8710801393728 212.89134438305706 L 402.6132404181185 219.88950276243094 L 404.3554006968641 212.15469613259665 L 406.0975609756098 205.524861878453 L 407.8397212543554 199.2633517495396 L 409.58188153310107 190.0552486187845 L 411.3240418118467 191.71270718232046 L 413.06620209059236 185.2670349907919 L 414.808362369338 174.76979742173108 L 416.55052264808364 163.35174953959483 L 418.2926829268293 163.35174953959483 L 420.03484320557493 156.7219152854512 L 421.7770034843206 149.53959484346223 L 423.5191637630662 144.56721915285448 L 425.26132404181186 144.01473296500922 L 427.0034843205575 139.41068139963164 L 428.74564459930315 139.22651933701655 L 430.4878048780488 138.12154696132598 L 432.22996515679444 136.64825046040517 L 433.9721254355401 138.12154696132598 L 435.7142857142857 131.49171270718233 L 437.45644599303137 124.12523020257828 L 439.198606271777 122.46777163904233 L 440.94076655052265 112.3388581952118 L 442.6829268292683 113.25966850828729 L 444.42508710801394 116.57458563535909 L 446.1672473867596 120.99447513812152 L 447.9094076655052 127.62430939226516 L 449.65156794425087 122.09944751381215 L 451.3937282229965 117.31123388581949 L 453.13588850174216 117.31123388581949 L 454.8780487804878 115.6537753222836 L 456.62020905923345 113.44383057090238 L 458.3623693379791 107.73480662983422 L 460.10452961672473 110.12891344383058 L 461.8466898954704 113.81215469613261 L 463.588850174216 113.9963167587477 L 465.33101045296166 112.70718232044197 L 467.0731707317073 111.41804788213625 L 468.81533101045295 106.07734806629833 L 470.5574912891986 109.76058931860035 L 472.29965156794424 102.3941068139963 L 474.0418118466899 111.41804788213625 L 475.7839721254355 113.9963167587477 L 477.52613240418117 103.49907918968694 L 479.2682926829268 100 L 481.01045296167246 114.7329650092081 L 482.7526132404181 113.62799263351747 L 484.49477351916374 114.91712707182319 L 486.2369337979094 127.8084714548803 L 487.97909407665503 155.61694290976055 L 489.7212543554007 146.40883977900552 L 491.4634146341463 148.2504604051565 L 493.20557491289196 142.35727440147326 L 494.9477351916376 144.9355432780847 L 496.68989547038325 152.30202578268876 L 498.4320557491289 164.08839779005524 L 500.17421602787454 164.64088397790056 L 501.91637630662024 160.03683241252298 L 503.6585365853659 163.53591160220992 L 505.4006968641115 171.2707182320442 L 507.14285714285717 168.13996316758744 L 508.8850174216028 173.1123388581952 L 510.62717770034845 172.37569060773478 L 512.3693379790941 168.87661141804784 L 514.1114982578397 169.060773480663 L 515.8536585365854 172.1915285451197 L 517.5958188153311 180.66298342541432 L 519.3379790940767 176.2430939226519 L 521.0801393728223 183.05709023941068 L 522.822299651568 193.92265193370167 L 524.5644599303137 195.39594843462248 L 526.3066202090592 197.97421731123387 L 528.0487804878048 202.20994475138122 L 529.7909407665505 209.94475138121544 L 531.5331010452962 208.83977900552486 L 533.2752613240418 208.10313075506446 L 535.0174216027874 214.548802946593 L 536.7595818815331 210.68139963167584 L 538.5017421602788 214.548802946593 L 540.2439024390244 209.02394106813995 L 541.98606271777 209.76058931860035 L 543.7282229965157 208.83977900552486 L 545.4703832752614 208.10313075506446 L 547.212543554007 209.94475138121544 L 548.9547038327526 222.09944751381215 L 550.6968641114983 220.44198895027625 L 552.439024390244 222.46777163904233 L 554.1811846689895 215.4696132596685 L 555.9233449477351 216.75874769797423 L 557.6655052264808 219.88950276243094 L 559.4076655052265 223.94106813996314 L 561.1498257839721 220.44198895027625 L 562.8919860627177 225.78268876611418 L 564.6341463414634 223.94106813996314 L 566.3763066202091 228.17679558011048 L 568.1184668989547 230.3867403314917 L 569.8606271777003 240.3314917127072 L 571.602787456446 238.48987108655615 L 573.3449477351917 237.38489871086557 L 575.0871080139373 234.80662983425412 L 576.8292682926829 241.43646408839777 L 578.5714285714286 243.2780847145488 L 580.3135888501743 245.30386740331488 L 582.0557491289198 250.46040515653772 L 583.7979094076654 251.19705340699812 L 585.5400696864111 255.8011049723757 L 587.2822299651568 254.51197053406997 L 589.0243902439024 258.9318600368324 L 590.766550522648 262.2467771639042 L 592.5087108013937 269.060773480663 L 594.2508710801394 266.29834254143645 L 595.993031358885 271.2707182320442 L 597.7351916376306 278.82136279926334 L 599.4773519163763 274.7697974217311 L 601.219512195122 276.9797421731123 L 602.9616724738676 276.2430939226519 L 604.7038327526133 272.3756906077348 L 606.445993031359 275.5064456721915 L 608.1881533101046 279.1896869244935 L 609.9303135888501 279.1896869244935 L 611.6724738675958 283.0570902394107 L 613.4146341463415 281.76795580110496 L 615.1567944250871 287.8453038674033 L 616.8989547038327 290.97605893186005 L 618.6411149825784 291.16022099447514 L 620.3832752613241 292.08103130755063 L 622.1254355400697 289.50276243093924 L 623.8675958188153 297.9742173112339 L 625.609756097561 300.1841620626151 L 627.3519163763067 306.44567219152856 L 629.0940766550523 307.55064456721914 L 630.8362369337979 316.2062615101289 L 632.5783972125436 317.1270718232044 L 634.3205574912893 315.1012891344383 L 636.0627177700349 319.5211786372007 L 637.8048780487804 321.54696132596683 L 639.5470383275261 323.3885819521179 L 641.2891986062718 321.54696132596683 L 643.0313588850174 320.25782688766117 L 644.773519163763 324.8618784530387 L 646.5156794425087 332.4125230202578 L 648.2578397212544 329.2817679558011 L 650 334.4383057090239 L 650 400 Z" /><text  class="poloto_labels poloto_text poloto_title" alignment-baseline="start" text-anchor="middle" font-size="x-large" x="400" y="37.5" >Total players on 2021-12-28</text><text  class="poloto_labels poloto_text poloto_xname" alignment-baseline="start" text-anchor="middle" font-size="x-large" x="400" y="481.25" >Time</text><text  class="poloto_labels poloto_text poloto_yname" alignment-baseline="start" text-anchor="middle" font-size="x-large" transform="rotate(-90,37.5,250)" x="37.5" y="250" >Count</text><line  class="poloto_axis_lines" stroke="black" x1="150" x2="150" y1="400" y2="405" /><text  class="poloto_tick_labels poloto_text" alignment-baseline="start" text-anchor="middle" x="150" y="430" > 00:00</text><line  class="poloto_axis_lines" stroke="black" x1="266.14401858304296" x2="266.14401858304296" y1="400" y2="405" /><text  class="poloto_tick_labels poloto_text" alignment-baseline="start" text-anchor="middle" x="266.14401858304296" y="430" > 06:00</text><line  class="poloto_axis_lines" stroke="black" x1="382.2880371660859" x2="382.2880371660859" y1="400" y2="405" /><text  class="poloto_tick_labels poloto_text" alignment-baseline="start" text-anchor="middle" x="382.2880371660859" y="430" > 11:00</text><line  class="poloto_axis_lines" stroke="black" x1="498.4320557491289" x2="498.4320557491289" y1="400" y2="405" /><text  class="poloto_tick_labels poloto_text" alignment-baseline="start" text-anchor="middle" x="498.4320557491289" y="430" > 17:00</text><line  class="poloto_axis_lines" stroke="black" x1="614.5760743321719" x2="614.5760743321719" y1="400" y2="405" /><text  class="poloto_tick_labels poloto_text" alignment-baseline="start" text-anchor="middle" x="614.5760743321719" y="430" > 22:00</text><line  class="poloto_axis_lines" stroke="black" x1="150" x2="144" y1="380.6629834254144" y2="380.6629834254144" /><text  class="poloto_tick_labels poloto_text" alignment-baseline="middle" text-anchor="end" x="135" y="380.6629834254144" > 1000</text><line  class="poloto_axis_lines" stroke="black" x1="150" x2="144" y1="288.5819521178637" y2="288.5819521178637" /><text  class="poloto_tick_labels poloto_text" alignment-baseline="middle" text-anchor="end" x="135" y="288.5819521178637" > 1500</text><line  class="poloto_axis_lines" stroke="black" x1="150" x2="144" y1="196.50092081031306" y2="196.50092081031306" /><text  class="poloto_tick_labels poloto_text" alignment-baseline="middle" text-anchor="end" x="135" y="196.50092081031306" > 2000</text><line  class="poloto_axis_lines" stroke="black" x1="150" x2="144" y1="104.41988950276243" y2="104.41988950276243" /><text  class="poloto_tick_labels poloto_text" alignment-baseline="middle" text-anchor="end" x="135" y="104.41988950276243" > 2500</text><path  stroke="black" fill="none" class="poloto_axis_lines" style="stroke-dasharray:14.518002322880372;stroke-dashoffset:-0;" d=" M 150 400 L 650 400" /><path  stroke="black" fill="none" class="poloto_axis_lines" style="stroke-dasharray:9.208103130755065;stroke-dashoffset:-19.337016574585647;" d=" M 150 400 L 150 100" /></svg>