<svg class="poloto" width="800" height="500" viewBox="0 0 800 500" xmlns="http://www.w3.org/2000/svg"><style>.poloto { stroke-linecap:round; stroke-linejoin:round; font-family: 'Tahoma', sans-serif; background-color: AliceBlue;} .poloto_scatter{stroke-width:7} .poloto_line{stroke-width:2} .poloto_text{fill: black;} .poloto_axis_lines{stroke: black;stroke-width:3;fill:none;stroke-dasharray:none} .poloto0stroke{stroke:  blue;} .poloto1stroke{stroke:  red;} .poloto2stroke{stroke:  green;} .poloto3stroke{stroke:  gold;} .poloto4stroke{stroke:  aqua;} .poloto5stroke{stroke:  lime;} .poloto6stroke{stroke:  orange;} .poloto7stroke{stroke:  chocolate;} .poloto0fill{fill:blue;} .poloto1fill{fill:red;} .poloto2fill{fill:green;} .poloto3fill{fill:gold;} .poloto4fill{fill:aqua;} .poloto5fill{fill:lime;} .poloto6fill{fill:orange;} .poloto7fill{fill:chocolate;}</style><text  class="poloto_text poloto_legend_text" alignment-baseline="middle" text-anchor="start" font-size="large" x="675" y="100" ></text><path  class="poloto_linefill poloto0fill" d=" M 150 400 L 150 342.03220433092724 L 151.74216027874564 359.35591338145474 L 153.4843205574913 348.02887284841756 L 155.22648083623693 346.36313159355916 L 156.96864111498257 347.69572459744586 L 158.71080139372822 352.8595224875069 L 160.45296167247386 358.023320377568 L 162.1951219512195 360.3553581343698 L 163.93728222996515 366.35202665186006 L 165.6794425087108 365.51915602443086 L 167.42160278745644 365.85230427540256 L 169.16376306620208 370.1832315380344 L 170.90592334494772 375.3470294280955 L 172.64808362369337 375.18045530260963 L 174.390243902439 376.34647418101054 L 176.13240418118465 376.67962243198224 L 177.8745644599303 378.51193781232644 L 179.61672473867597 381.0105496946141 L 181.3588850174216 381.34369794558575 L 183.10104529616726 381.67684619655745 L 184.8432055749129 383.67573570238756 L 186.58536585365854 383.5091615769017 L 188.3275261324042 381.67684619655745 L 190.06968641114983 385.34147695724596 L 191.81184668989548 391.0049972237646 L 193.55400696864112 390.33870072182117 L 195.29616724738676 392.0044419766796 L 197.0383275261324 389.6724042198779 L 198.78048780487805 389.1726818434203 L 200.5226480836237 386.67406996113266 L 202.26480836236934 386.340921710161 L 204.00696864111498 392.3375902276513 L 205.74912891986062 387.50694058856186 L 207.49128919860627 387.50694058856186 L 209.2334494773519 388.67295946696277 L 210.97560975609755 387.84008883953356 L 212.7177700348432 392.1710161021655 L 214.45993031358887 390.6718489727929 L 216.2020905923345 388.50638534147697 L 217.94425087108016 390.33870072182117 L 219.6864111498258 390.0055524708495 L 221.42857142857144 394.6696279844531 L 223.1707317073171 391.17157134925037 L 224.91289198606273 392.83731260410883 L 226.65505226480838 395.1693503609106 L 228.39721254355402 400 L 230.13937282229966 395.1693503609106 L 231.8815331010453 394.8362021099389 L 233.62369337979095 392.83731260410883 L 235.3658536585366 394.50305385896723 L 237.10801393728224 394.6696279844531 L 238.85017421602788 390.1721265963354 L 240.59233449477352 392.1710161021655 L 242.33449477351917 393.5036091060522 L 244.0766550522648 394.3364797334814 L 245.81881533101046 395.5024986118823 L 247.5609756097561 386.17434758467516 L 249.30313588850174 383.17601332593006 L 251.0452961672474 383.17601332593006 L 252.78745644599303 387.67351471404777 L 254.52961672473867 386.67406996113266 L 256.2717770034843 387.1737923375902 L 258.01393728222996 390.0055524708495 L 259.7560975609756 389.00610771793447 L 261.49825783972125 391.0049972237646 L 263.2404181184669 390.1721265963354 L 264.98257839721254 391.3381454747363 L 266.7247386759582 392.0044419766796 L 268.4668989547038 389.6724042198779 L 270.20905923344947 390.33870072182117 L 271.9512195121951 389.00610771793447 L 273.69337979094075 392.3375902276513 L 275.4355400696864 392.83731260410883 L 277.17770034843204 389.50583009439197 L 278.91986062717774 383.00943920044415 L 280.6620209059233 384.84175458078846 L 282.404181184669 383.8423098278734 L 284.1463414634146 378.1787895613548 L 285.8885017421603 376.01332593003883 L 287.6306620209059 377.17934480843974 L 289.3728222996516 377.3459189339256 L 291.1149825783972 380.1776790671849 L 292.8571428571429 377.51249305941144 L 294.5993031358885 373.84786229872293 L 296.3414634146342 373.6812881732371 L 298.08362369337976 371.8489727928928 L 299.82578397212546 367.1848972792893 L 301.56794425087105 363.3536923931149 L 303.31010452961675 365.352581898945 L 305.05226480836234 362.8539700166574 L 306.79442508710804 355.5247084952804 L 308.5365853658536 355.8578567462521 L 310.2787456445993 358.8561910049972 L 312.0209059233449 360.5219322598556 L 313.7630662020906 365.1860077734592 L 315.5052264808362 366.0188784008884 L 317.2473867595819 363.5202665186008 L 318.9895470383275 369.516935036091 L 320.7317073170732 371.3492504164353 L 322.4738675958188 369.0172126596335 L 324.2160278745645 367.8511937812326 L 325.9581881533101 372.51526929483623 L 327.70034843205576 372.8484175458079 L 329.4425087108014 371.0161021654636 L 331.18466898954705 362.6873958911716 L 332.9268292682927 369.6835091615769 L 334.66898954703834 368.517490283176 L 336.411149825784 370.6829539144919 L 338.1533101045296 372.1821210438645 L 339.89547038327527 368.1843420322043 L 341.6376306620209 364.35313714603 L 343.37979094076655 359.6890616324264 L 345.1219512195122 358.3564686285397 L 346.86411149825784 355.8578567462521 L 348.6062717770035 353.3592448639645 L 350.34843205574913 353.0260966129928 L 352.0905923344948 350.19433647973347 L 353.8327526132404 345.36368684064405 L 355.57491289198606 342.69850083287065 L 357.3170731707317 340.69961132704054 L 359.05923344947735 341.3659078289839 L 360.801393728223 341.03275957801225 L 362.54355400696863 338.20099944475294 L 364.2857142857143 339.53359244863964 L 366.0278745644599 342.1987784564131 L 367.77003484320556 331.3714602998334 L 369.5121951219512 334.3697945585786 L 371.25435540069685 326.7073847862299 L 372.9965156794425 329.0394225430316 L 374.73867595818814 323.2093281510272 L 376.4808362369338 326.0410882842865 L 378.2229965156795 326.540810660744 L 379.96515679442507 331.2048861743476 L 381.70731707317077 323.37590227651305 L 383.44947735191636 308.05108273181565 L 385.19163763066206 310.38312048861746 L 386.93379790940764 308.71737923375906 L 388.67595818815334 309.8833981121599 L 390.41811846689893 308.2176568573015 L 392.16027874564463 306.05219322598555 L 393.9024390243902 296.7240421987784 L 395.6445993031359 298.22320932815103 L 397.3867595818815 303.55358134369794 L 399.1289198606272 298.55635757912273 L 400.8710801393728 294.058856191005 L 402.6132404181185 292.2265408106607 L 404.3554006968641 292.8928373126041 L 406.0975609756098 288.7284841754581 L 407.8397212543554 282.2320932815103 L 409.58188153310107 277.4014436424209 L 411.3240418118467 272.57079400333146 L 413.06620209059236 274.90283176013327 L 414.808362369338 259.5780122154358 L 416.55052264808364 259.24486396446423 L 418.2926829268293 267.24042198778454 L 420.03484320557493 254.91393670183234 L 421.7770034843206 269.23931149361465 L 423.5191637630662 273.07051637978896 L 425.26132404181186 238.2565241532482 L 427.0034843205575 229.09494725152692 L 428.74564459930315 224.5974458634092 L 430.4878048780488 217.43475846751804 L 432.22996515679444 212.93725707940033 L 433.9721254355401 211.77123820099942 L 435.7142857142857 203.9422543031649 L 437.45644599303137 202.776235424764 L 439.198606271777 200.77734591893395 L 440.94076655052265 192.61521377012772 L 442.6829268292683 189.28373126041086 L 444.42508710801394 188.78400888395336 L 446.1672473867596 184.61965574680735 L 447.9094076655052 181.1215991116047 L 449.65156794425087 178.62298722931703 L 451.3937282229965 163.1315935591338 L 453.13588850174216 155.63575791227098 L 454.8780487804878 153.13714602998337 L 456.62020905923345 156.13548028872847 L 458.3623693379791 148.80621876735145 L 460.10452961672473 161.63242642976124 L 461.8466898954704 147.47362576346475 L 463.588850174216 140.9772348695169 L 465.33101045296166 146.4741810105497 L 467.0731707317073 149.97223764575236 L 468.81533101045295 146.9739033870072 L 470.5574912891986 133.4813992226541 L 472.29965156794424 136.8128817323709 L 474.0418118466899 133.9811215991116 L 475.7839721254355 137.1460299833426 L 477.52613240418117 133.8145474736258 L 479.2682926829268 125.98556357579128 L 481.01045296167246 109.99444752915053 L 482.7526132404181 106.32981676846202 L 484.49477351916374 107.66240977234872 L 486.2369337979094 108.32870627429202 L 487.97909407665503 108.66185452526372 L 489.7212543554007 104.33092726263192 L 491.4634146341463 115.82454192115495 L 493.20557491289196 108.32870627429202 L 494.9477351916376 102.33203775680181 L 496.68989547038325 116.99056079955585 L 498.4320557491289 110.82731815657974 L 500.17421602787454 100 L 501.91637630662024 113.32593003886734 L 503.6585365853659 113.15935591338143 L 505.4006968641115 116.49083842309824 L 507.14285714285717 124.65297057190446 L 508.8850174216028 138.6451971127152 L 510.62717770034845 143.4758467518045 L 512.3693379790941 148.80621876735145 L 514.1114982578397 156.80177679067188 L 515.8536585365854 165.4636313159356 L 517.5958188153311 173.29261521377012 L 519.3379790940767 179.78900610771794 L 521.0801393728223 185.95224875069405 L 522.822299651568 186.28539700166576 L 524.5644599303137 192.78178789561358 L 526.3066202090592 196.44641865630203 L 528.0487804878048 207.2737368128817 L 529.7909407665505 190.94947251526932 L 531.5331010452962 187.95113825652416 L 533.2752613240418 195.11382565241533 L 535.0174216027874 197.61243753470293 L 536.7595818815331 195.94669627984453 L 538.5017421602788 208.77290394225432 L 540.2439024390244 205.44142143253745 L 541.98606271777 206.7740144364242 L 543.7282229965157 206.2742920599667 L 545.4703832752614 205.941143808995 L 547.212543554007 222.5985563575791 L 548.9547038327526 213.60355358134368 L 550.6968641114983 212.77068295391447 L 552.439024390244 217.43475846751804 L 554.1811846689895 243.2537479178234 L 555.9233449477351 212.93725707940033 L 557.6655052264808 210.77179344808442 L 559.4076655052265 213.93670183231538 L 561.1498257839721 215.76901721265963 L 562.8919860627177 215.26929483620214 L 564.6341463414634 213.77012770682953 L 566.3763066202091 214.76957245974458 L 568.1184668989547 211.43808995002777 L 569.8606271777003 210.43864519711272 L 571.602787456446 217.6013325930039 L 573.3449477351917 218.93392559689065 L 575.0871080139373 231.42698500832873 L 576.8292682926829 226.2631871182676 L 578.5714285714286 227.76235424764022 L 580.3135888501743 229.92781787895612 L 582.0557491289198 232.75957801221543 L 583.7979094076654 233.42587451415878 L 585.5400696864111 232.92615213770128 L 587.2822299651568 243.5868961687951 L 589.0243902439024 248.25097168239867 L 590.766550522648 249.58356468628537 L 592.5087108013937 236.75735702387564 L 594.2508710801394 235.59133814547474 L 595.993031358885 242.92059966685176 L 597.7351916376306 250.24986118822878 L 599.4773519163763 258.0788450860633 L 601.219512195122 266.07440310938364 L 602.9616724738676 259.41143808995 L 604.7038327526133 260.57745696835093 L 606.445993031359 265.40810660744035 L 608.1881533101046 267.90671848972795 L 609.9303135888501 272.40421987784566 L 611.6724738675958 273.57023875624657 L 613.4146341463415 274.7362576346475 L 615.1567944250871 270.90505274847305 L 616.8989547038327 273.57023875624657 L 618.6411149825784 273.40366463076066 L 620.3832752613241 279.400333148251 L 622.1254355400697 285.0638534147696 L 623.8675958188153 286.3964464186563 L 625.609756097561 291.5602443087174 L 627.3519163763067 295.5580233203776 L 629.0940766550523 298.55635757912273 L 630.8362369337979 301.55469183786784 L 632.5783972125436 302.5541365907829 L 634.3205574912893 307.8845086063298 L 636.0627177700349 309.0505274847307 L 637.8048780487804 306.2187673514714 L 639.5470383275261 306.71848972792895 L 641.2891986062718 314.71404775124927 L 643.0313588850174 322.2098833981122 L 644.773519163763 329.0394225430316 L 646.5156794425087 329.705719044975 L 648.2578397212544 321.71016102165464 L 650 319.5446973903387 L 650 400 Z" /><text  class="poloto_labels poloto_text poloto_title" alignment-baseline="start" text-anchor="middle" font-size="x-large" x="400" y="37.5" >Total players on 2021-10-18</text><text  class="poloto_labels poloto_text poloto_xname" alignment-baseline="start" text-anchor="middle" font-size="x-large" x="400" y="481.25" >Time</text><text  class="poloto_labels poloto_text poloto_yname" alignment-baseline="start" text-anchor="middle" font-size="x-large" transform="rotate(-90,37.5,250)" x="37.5" y="250" >Count</text><line  class="poloto_axis_lines" stroke="black" x1="150" x2="150" y1="400" y2="405" /><text  class="poloto_tick_labels poloto_text" alignment-baseline="start" text-anchor="middle" x="150" y="430" > 00:00:00</text><line  class="poloto_axis_lines" stroke="black" x1="266.14401858304296" x2="266.14401858304296" y1="400" y2="405" /><text  class="poloto_tick_labels poloto_text" alignment-baseline="start" text-anchor="middle" x="266.14401858304296" y="430" > 05:33:20</text><line  class="poloto_axis_lines" stroke="black" x1="382.2880371660859" x2="382.2880371660859" y1="400" y2="405" /><text  class="poloto_tick_labels poloto_text" alignment-baseline="start" text-anchor="middle" x="382.2880371660859" y="430" > 11:06:40</text><line  class="poloto_axis_lines" stroke="black" x1="498.4320557491289" x2="498.4320557491289" y1="400" y2="405" /><text  class="poloto_tick_labels poloto_text" alignment-baseline="start" text-anchor="middle" x="498.4320557491289" y="430" > 16:40:00</text><line  class="poloto_axis_lines" stroke="black" x1="614.5760743321719" x2="614.5760743321719" y1="400" y2="405" /><text  class="poloto_tick_labels poloto_text" alignment-baseline="start" text-anchor="middle" x="614.5760743321719" y="430" > 22:13:20</text><line  class="poloto_axis_lines" stroke="black" x1="150" x2="144" y1="367.8511937812326" y2="367.8511937812326" /><text  class="poloto_tick_labels poloto_text" alignment-baseline="middle" text-anchor="end" x="135" y="367.8511937812326" > 1000</text><line  class="poloto_axis_lines" stroke="black" x1="150" x2="144" y1="284.56413103831204" y2="284.56413103831204" /><text  class="poloto_tick_labels poloto_text" alignment-baseline="middle" text-anchor="end" x="135" y="284.56413103831204" > 1500</text><line  class="poloto_axis_lines" stroke="black" x1="150" x2="144" y1="201.27706829539147" y2="201.27706829539147" /><text  class="poloto_tick_labels poloto_text" alignment-baseline="middle" text-anchor="end" x="135" y="201.27706829539147" > 2000</text><line  class="poloto_axis_lines" stroke="black" x1="150" x2="144" y1="117.99000555247085" y2="117.99000555247085" /><text  class="poloto_tick_labels poloto_text" alignment-baseline="middle" text-anchor="end" x="135" y="117.99000555247085" > 2500</text><path  stroke="black" fill="none" class="poloto_axis_lines" style="stroke-dasharray:14.518002322880372;stroke-dashoffset:-0;" d=" M 150 400 L 650 400" /><path  stroke="black" fill="none" class="poloto_axis_lines" style="stroke-dasharray:8.32870627429206;stroke-dashoffset:-32.14880621876736;" d=" M 150 400 L 150 100" /></svg>