<svg class="poloto" width="800" height="500" viewBox="0 0 800 500" xmlns="http://www.w3.org/2000/svg"><style>.poloto { stroke-linecap:round; stroke-linejoin:round; font-family: 'Tahoma', sans-serif; background-color: AliceBlue;} .poloto_scatter{stroke-width:7} .poloto_line{stroke-width:2} .poloto_text{fill: black;} .poloto_axis_lines{stroke: black;stroke-width:3;fill:none;stroke-dasharray:none} .poloto0stroke{stroke:  blue;} .poloto1stroke{stroke:  red;} .poloto2stroke{stroke:  green;} .poloto3stroke{stroke:  gold;} .poloto4stroke{stroke:  aqua;} .poloto5stroke{stroke:  lime;} .poloto6stroke{stroke:  orange;} .poloto7stroke{stroke:  chocolate;} .poloto0fill{fill:blue;} .poloto1fill{fill:red;} .poloto2fill{fill:green;} .poloto3fill{fill:gold;} .poloto4fill{fill:aqua;} .poloto5fill{fill:lime;} .poloto6fill{fill:orange;} .poloto7fill{fill:chocolate;}</style><text  class="poloto_text poloto_legend_text" alignment-baseline="middle" text-anchor="start" font-size="large" x="675" y="100" ></text><path  class="poloto_linefill poloto0fill" d=" M 150 400 L 150 334.34410019775873 L 151.74216027874564 335.13513513513516 L 153.4843205574913 340.87013843111407 L 155.22648083623693 345.4185893210283 L 156.96864111498257 346.20962425840474 L 158.71080139372822 350.36255767963087 L 160.45296167247386 354.71324983520105 L 162.1951219512195 359.4594594594595 L 163.93728222996515 362.62359920896506 L 165.6794425087108 365.98549769281476 L 167.42160278745644 365.1944627554384 L 169.16376306620208 365.78773895847064 L 170.90592334494772 367.76532630191167 L 172.64808362369337 367.96308503625573 L 174.390243902439 374.291364535267 L 176.13240418118465 372.51153592617004 L 177.8745644599303 372.313777191826 L 179.61672473867597 371.7205009887937 L 181.3588850174216 379.8286090969018 L 183.10104529616726 385.3658536585366 L 184.8432055749129 387.5411997363217 L 186.58536585365854 383.98154251812787 L 188.3275261324042 387.7389584706658 L 190.06968641114983 385.7613711272248 L 191.81184668989548 384.5748187211602 L 193.55400696864112 385.5636123928807 L 195.29616724738676 389.7165458141068 L 197.0383275261324 392.88068556361236 L 198.78048780487805 395.05603164139745 L 200.5226480836237 400 L 202.26480836236934 399.0112063282795 L 204.00696864111498 397.8246539222149 L 205.74912891986062 397.2313777191826 L 207.49128919860627 395.2537903757416 L 209.2334494773519 394.2649967040211 L 210.97560975609755 393.0784442979565 L 212.7177700348432 396.24258404746206 L 214.45993031358887 391.2986156888596 L 216.2020905923345 387.5411997363217 L 217.94425087108016 384.5748187211602 L 219.6864111498258 391.69413315754775 L 221.42857142857144 384.179301252472 L 223.17653890824624 386.7501647989453 L 224.91289198606273 386.3546473302571 L 226.65505226480838 380.22412656559 L 228.39721254355402 376.66446934739616 L 230.13937282229966 373.30257086354646 L 231.8815331010453 373.30257086354646 L 233.62369337979095 375.6756756756757 L 235.3658536585366 367.76532630191167 L 237.10801393728224 372.70929466051416 L 238.85017421602788 365.5899802241266 L 240.59233449477352 360.6460118655241 L 242.33449477351917 360.84377059986815 L 244.0766550522648 360.25049439683585 L 245.81881533101046 362.62359920896506 L 247.5609756097561 362.03032300593276 L 249.30313588850174 361.43704680290045 L 251.0452961672474 353.92221489782463 L 252.78745644599303 354.31773236651287 L 254.52961672473867 349.17600527356626 L 256.2717770034843 349.17600527356626 L 258.01393728222996 350.56031641397493 L 259.7560975609756 342.25444957152274 L 261.49825783972125 340.27686222808177 L 263.2404181184669 345.02307185234014 L 264.98257839721254 348.38497033618984 L 266.7247386759582 350.36255767963087 L 268.4668989547038 348.97824653922214 L 270.20905923344947 348.58272907053396 L 271.9512195121951 346.40738299274886 L 273.69337979094075 344.42979564930783 L 275.4355400696864 349.17600527356626 L 277.17770034843204 341.4634146341463 L 278.9198606271777 345.61634805537244 L 280.6620209059233 344.42979564930783 L 282.40418118466897 342.45220830586686 L 284.1463414634146 340.07910349373765 L 285.88850174216026 332.95978905735006 L 287.6306620209059 326.63150955833885 L 289.37282229965155 327.81806196440346 L 291.1149825783972 328.6090969017798 L 292.85714285714283 322.4785761371127 L 294.5993031358885 318.72116018457484 L 296.3414634146342 317.53460777851024 L 298.08362369337976 320.1054713249835 L 299.82578397212546 315.5570204350692 L 301.56794425087105 315.35926170072514 L 303.31010452961675 312.59063941990775 L 305.05226480836234 316.54581410678975 L 306.79442508710804 313.7771918259723 L 308.5365853658536 325.8404746209624 L 310.2787456445993 320.30323005932763 L 312.0209059233449 320.30323005932763 L 313.7630662020906 316.7435728411338 L 315.5052264808362 312.98615688859593 L 317.2473867595819 312.59063941990775 L 318.9895470383275 320.50098879367175 L 320.7317073170732 312.3928806855636 L 322.4738675958188 306.26235992089653 L 324.2160278745645 307.0533948582729 L 325.95818815331006 305.6690837178642 L 327.70034843205576 310.0197758734344 L 329.44250871080135 313.18391562294 L 331.18466898954705 315.95253790375745 L 332.92682926829264 309.4264996704021 L 334.66898954703834 306.4601186552406 L 336.4111498257839 314.17270929466054 L 338.1533101045296 307.251153592617 L 339.8954703832752 298.5497692814766 L 341.6376306620209 298.5497692814766 L 343.3797909407665 296.5721819380356 L 345.1219512195122 292.0237310481213 L 346.86411149825784 295.5833882663151 L 348.6062717770035 293.6058009228741 L 350.34843205574913 284.1133816743573 L 352.0905923344948 276.7963085036256 L 353.8327526132404 288.6618325642716 L 355.57491289198606 269.4792353328939 L 357.3170731707317 265.5240606460119 L 359.05923344947735 256.62491760052734 L 360.801393728223 259.789057350033 L 362.54355400696863 252.86750164798946 L 364.2857142857143 257.41595253790376 L 366.0278745644599 270.0725115359262 L 367.77003484320556 268.49044166117335 L 369.5121951219512 245.35266974291363 L 371.25435540069685 236.65128543177326 L 372.9965156794425 244.75939353988133 L 374.73867595818814 248.31905075807515 L 376.4808362369338 247.92353328938697 L 378.2229965156794 238.82663150955835 L 379.96515679442507 255.83388266315097 L 381.7073170731707 237.04680290046144 L 383.44947735191636 240.80421885299933 L 385.191637630662 237.04680290046144 L 386.93379790940764 235.66249176005277 L 388.6759581881533 233.09162821357944 L 390.41811846689893 227.55438365194465 L 392.1602787456446 218.65524060646015 L 393.9024390243902 221.42386288727755 L 395.6445993031359 223.20369149637446 L 397.3867595818815 220.63282794990113 L 399.1289198606272 226.76334871456822 L 400.8710801393728 225.77455504284774 L 402.6132404181185 230.32300593276204 L 404.3554006968641 229.13645352669744 L 406.0975609756097 236.05800922874096 L 407.83972125435537 234.67369808833223 L 409.581881533101 241.39749505603163 L 411.32404181184666 227.15886618325646 L 413.0662020905923 229.72972972972974 L 414.80836236933794 239.41990771259066 L 416.5505226480836 223.59920896506264 L 418.29268292682923 214.70006591957815 L 420.0348432055749 215.68885959129864 L 421.7770034843206 222.61041529334216 L 423.5191637630662 202.04350692155572 L 425.26132404181186 199.0771259063942 L 427.0034843205575 194.1331575477917 L 428.74564459930315 188.9914304548451 L 430.4878048780488 184.83849703361898 L 432.22996515679444 188.9914304548451 L 433.9721254355401 186.81608437706 L 435.7142857142857 172.1819380355966 L 437.45644599303137 177.52142386288727 L 439.198606271777 176.33487145682267 L 440.94076655052265 172.1819380355966 L 442.6829268292683 167.23796967699406 L 444.42508710801394 203.23005932762032 L 446.1672473867596 165.06262359920896 L 447.9094076655052 167.23796967699406 L 449.65156794425087 162.49176005273569 L 451.3937282229965 156.9545154911009 L 453.13588850174216 146.47330257086355 L 454.8780487804878 146.07778510217537 L 456.62020905923345 140.34278180619646 L 458.3623693379791 157.35003295978908 L 460.10452961672473 132.82794990112063 L 461.8466898954704 130.25708635464736 L 463.588850174216 129.86156888595917 L 465.33101045296166 117.79828609096904 L 467.0731707317073 141.72709294660518 L 468.81533101045295 124.32432432432432 L 470.5574912891986 123.53328938694796 L 472.29965156794424 113.64535266974292 L 474.0418118466899 108.30586684245225 L 475.7839721254355 105.53724456163485 L 477.52613240418117 100 L 479.2682926829268 127.68622280817402 L 481.01045296167246 126.10415293342123 L 482.7526132404181 130.05932762030324 L 484.49477351916374 140.73829927488464 L 486.2369337979094 117.99604482531316 L 487.97909407665503 120.76466710613056 L 489.7212543554007 123.33553065260384 L 491.4634146341463 132.03691496374427 L 493.20557491289196 124.32432432432432 L 494.9477351916376 126.89518787079766 L 496.68989547038325 124.32432432432432 L 498.4320557491289 129.66381015161505 L 500.17421602787454 131.64139749505603 L 501.9163763066202 121.55570204350693 L 503.6585365853658 116.80949241924856 L 505.40069686411147 144.49571522742258 L 507.1428571428571 154.58141067897168 L 508.88501742160275 149.04416611733689 L 510.6271777003484 155.96572181938035 L 512.3693379790941 154.97692814765986 L 514.1114982578397 152.20830586684247 L 515.8536585365853 141.72709294660518 L 517.595818815331 150.2307185234015 L 519.3379790940767 153.79037574159526 L 521.0801393728223 149.24192485168095 L 522.822299651568 157.15227422544496 L 524.5644599303137 186.2228081740277 L 526.3066202090592 170.79762689518788 L 528.0487804878048 174.15952537903758 L 529.7909407665505 173.9617666446935 L 531.5331010452962 186.81608437706 L 533.2752613240418 194.1331575477917 L 535.0174216027874 194.33091628213583 L 536.7595818815331 216.67765326301912 L 538.5017421602788 209.55833882663154 L 540.2439024390244 209.7560975609756 L 541.98606271777 201.45023071852341 L 543.7282229965157 203.0323005932762 L 545.4703832752614 202.63678312458802 L 547.212543554007 201.45023071852341 L 548.9547038327526 202.24126565589984 L 550.6968641114983 208.37178642056693 L 552.439024390244 218.06196440342785 L 554.1811846689895 214.8978246539222 L 555.9233449477351 220.83058668424525 L 557.6655052264808 217.86420566908373 L 559.4076655052265 221.22610415293343 L 561.1498257839721 230.12524719841792 L 562.8919860627177 224.58800263678313 L 564.6341463414634 228.345418589321 L 566.3763066202091 228.93869479235332 L 568.1184668989547 229.13645352669744 L 569.8606271777003 233.09162821357944 L 571.602787456446 234.08042188529993 L 573.3449477351917 232.89386947923532 L 575.0871080139373 238.23335530652605 L 576.8292682926829 239.41990771259066 L 578.5714285714286 240.60646011865526 L 580.3135888501743 232.10283454185895 L 582.0557491289198 238.03559657218193 L 583.7979094076654 242.38628872775217 L 585.5400696864111 241.79301252471987 L 587.2822299651568 243.77059986816084 L 589.0243902439024 244.36387607119315 L 590.766550522648 248.91232696110745 L 592.5087108013937 246.34146341463418 L 594.2508710801394 248.91232696110745 L 595.993031358885 253.65853658536588 L 597.7351916376306 255.63612392880685 L 599.4773519163763 267.3038892551088 L 601.219512195122 262.1621621621622 L 602.9616724738676 264.9307844429796 L 604.7038327526132 259.3935398813448 L 606.4459930313589 264.13974950560316 L 608.1881533101046 269.8747528015821 L 609.9303135888501 272.2478576137113 L 611.6724738675957 273.8299274884641 L 613.4146341463414 284.1133816743573 L 615.1567944250871 281.1470006591958 L 616.8989547038327 289.452867501648 L 618.6411149825783 286.6842452208306 L 620.383275261324 290.0461437046803 L 622.1254355400697 283.520105471325 L 623.8675958188153 292.6170072511536 L 625.609756097561 298.1542518127884 L 627.3519163763067 288.6618325642716 L 629.0940766550523 277.1918259723138 L 630.8362369337979 295.7811470006592 L 632.5783972125436 279.7626895187871 L 634.3205574912893 288.6618325642716 L 636.0627177700349 291.8259723137772 L 637.8048780487804 293.0125247198418 L 639.5470383275261 294.3968358602505 L 641.2891986062718 300.5273566249176 L 643.0313588850174 308.8332234673698 L 644.773519163763 307.251153592617 L 646.5156794425087 319.116677653263 L 648.2578397212544 323.86288727752145 L 650 321.6875411997363 L 650 400 Z" /><text  class="poloto_labels poloto_text poloto_title" alignment-baseline="start" text-anchor="middle" font-size="x-large" x="400" y="37.5" >Total players on 2021-07-09</text><text  class="poloto_labels poloto_text poloto_xname" alignment-baseline="start" text-anchor="middle" font-size="x-large" x="400" y="481.25" >Time</text><text  class="poloto_labels poloto_text poloto_yname" alignment-baseline="start" text-anchor="middle" font-size="x-large" transform="rotate(-90,37.5,250)" x="37.5" y="250" >Count</text><line  class="poloto_axis_lines" stroke="black" x1="208.0487804878049" x2="208.0487804878049" y1="400" y2="405" /><text  class="poloto_tick_labels poloto_text" alignment-baseline="start" text-anchor="middle" x="208.0487804878049" y="430" > 03:00</text><line  class="poloto_axis_lines" stroke="black" x1="266.1207897793264" x2="266.1207897793264" y1="400" y2="405" /><text  class="poloto_tick_labels poloto_text" alignment-baseline="start" text-anchor="middle" x="266.1207897793264" y="430" > 06:00</text><line  class="poloto_axis_lines" stroke="black" x1="324.19279907084785" x2="324.19279907084785" y1="400" y2="405" /><text  class="poloto_tick_labels poloto_text" alignment-baseline="start" text-anchor="middle" x="324.19279907084785" y="430" > 08:00</text><line  class="poloto_axis_lines" stroke="black" x1="382.2648083623693" x2="382.2648083623693" y1="400" y2="405" /><text  class="poloto_tick_labels poloto_text" alignment-baseline="start" text-anchor="middle" x="382.2648083623693" y="430" > 11:00</text><line  class="poloto_axis_lines" stroke="black" x1="440.3368176538908" x2="440.3368176538908" y1="400" y2="405" /><text  class="poloto_tick_labels poloto_text" alignment-baseline="start" text-anchor="middle" x="440.3368176538908" y="430" > 14:00</text><line  class="poloto_axis_lines" stroke="black" x1="498.4088269454123" x2="498.4088269454123" y1="400" y2="405" /><text  class="poloto_tick_labels poloto_text" alignment-baseline="start" text-anchor="middle" x="498.4088269454123" y="430" > 17:00</text><line  class="poloto_axis_lines" stroke="black" x1="556.4808362369338" x2="556.4808362369338" y1="400" y2="405" /><text  class="poloto_tick_labels poloto_text" alignment-baseline="start" text-anchor="middle" x="556.4808362369338" y="430" > 19:00</text><line  class="poloto_axis_lines" stroke="black" x1="614.5528455284552" x2="614.5528455284552" y1="400" y2="405" /><text  class="poloto_tick_labels poloto_text" alignment-baseline="start" text-anchor="middle" x="614.5528455284552" y="430" > 22:00</text><line  class="poloto_axis_lines" stroke="black" x1="150" x2="144" y1="373.1048121292024" y2="373.1048121292024" /><text  class="poloto_tick_labels poloto_text" alignment-baseline="middle" text-anchor="end" x="135" y="373.1048121292024" > 1200</text><line  class="poloto_axis_lines" stroke="black" x1="150" x2="144" y1="333.5530652603823" y2="333.5530652603823" /><text  class="poloto_tick_labels poloto_text" alignment-baseline="middle" text-anchor="end" x="135" y="333.5530652603823" > 1400</text><line  class="poloto_axis_lines" stroke="black" x1="150" x2="144" y1="294.0013183915623" y2="294.0013183915623" /><text  class="poloto_tick_labels poloto_text" alignment-baseline="middle" text-anchor="end" x="135" y="294.0013183915623" > 1600</text><line  class="poloto_axis_lines" stroke="black" x1="150" x2="144" y1="254.44957152274225" y2="254.44957152274225" /><text  class="poloto_tick_labels poloto_text" alignment-baseline="middle" text-anchor="end" x="135" y="254.44957152274225" > 1800</text><line  class="poloto_axis_lines" stroke="black" x1="150" x2="144" y1="214.8978246539222" y2="214.8978246539222" /><text  class="poloto_tick_labels poloto_text" alignment-baseline="middle" text-anchor="end" x="135" y="214.8978246539222" > 2000</text><line  class="poloto_axis_lines" stroke="black" x1="150" x2="144" y1="175.34607778510218" y2="175.34607778510218" /><text  class="poloto_tick_labels poloto_text" alignment-baseline="middle" text-anchor="end" x="135" y="175.34607778510218" > 2200</text><line  class="poloto_axis_lines" stroke="black" x1="150" x2="144" y1="135.79433091628215" y2="135.79433091628215" /><text  class="poloto_tick_labels poloto_text" alignment-baseline="middle" text-anchor="end" x="135" y="135.79433091628215" > 2400</text><path  stroke="black" fill="none" class="poloto_axis_lines" style="stroke-dasharray:14.518002322880372;stroke-dashoffset:-58.04878048780488;" d=" M 150 400 L 650 400" /><path  stroke="black" fill="none" class="poloto_axis_lines" style="stroke-dasharray:9.88793671720501;stroke-dashoffset:-26.895187870797628;" d=" M 150 400 L 150 100" /></svg>