<svg class="poloto" width="800" height="500" viewBox="0 0 800 500" xmlns="http://www.w3.org/2000/svg"><style>.poloto { stroke-linecap:round; stroke-linejoin:round; font-family: 'Tahoma', sans-serif; background-color: AliceBlue;} .poloto_scatter{stroke-width:7} .poloto_line{stroke-width:2} .poloto_text{fill: black;} .poloto_axis_lines{stroke: black;stroke-width:3;fill:none;stroke-dasharray:none} .poloto0stroke{stroke:  blue;} .poloto1stroke{stroke:  red;} .poloto2stroke{stroke:  green;} .poloto3stroke{stroke:  gold;} .poloto4stroke{stroke:  aqua;} .poloto5stroke{stroke:  lime;} .poloto6stroke{stroke:  orange;} .poloto7stroke{stroke:  chocolate;} .poloto0fill{fill:blue;} .poloto1fill{fill:red;} .poloto2fill{fill:green;} .poloto3fill{fill:gold;} .poloto4fill{fill:aqua;} .poloto5fill{fill:lime;} .poloto6fill{fill:orange;} .poloto7fill{fill:chocolate;}</style><text  class="poloto_text poloto_legend_text" alignment-baseline="middle" text-anchor="start" font-size="large" x="675" y="100" ></text><path  class="poloto_linefill poloto0fill" d=" M 150 400 L 150 338.0228136882129 L 151.74216027874564 337.2623574144487 L 153.4843205574913 343.53612167300383 L 155.22648083623693 346.7680608365019 L 156.96864111498257 346.00760456273764 L 158.71080139372822 351.7110266159696 L 160.45296167247386 360.8365019011407 L 162.1951219512195 355.13307984790873 L 163.93728222996515 354.7528517110266 L 165.6794425087108 356.27376425855516 L 167.42160278745644 363.49809885931563 L 169.16376306620208 364.44866920152094 L 170.90592334494772 388.9733840304183 L 172.64808362369337 390.11406844106466 L 174.390243902439 391.4448669201521 L 176.13240418118465 392.20532319391634 L 177.8745644599303 392.3954372623574 L 179.61672473867597 392.3954372623574 L 181.3588850174216 396.5779467680608 L 183.10104529616726 400 L 184.8432055749129 396.1977186311787 L 186.58536585365854 397.33840304182513 L 188.3275261324042 385.9315589353612 L 190.06968641114983 386.6920152091255 L 191.81184668989548 386.5019011406844 L 193.55400696864112 390.8745247148289 L 195.29616724738676 395.6273764258555 L 197.0383275261324 389.5437262357415 L 198.78048780487805 385.55133079847906 L 200.5226480836237 376.04562737642584 L 202.26480836236934 380.4182509505704 L 204.00696864111498 385.17110266159693 L 205.74912891986062 382.319391634981 L 207.49128919860627 387.45247148288973 L 209.2334494773519 381.7490494296578 L 210.97560975609755 367.3003802281369 L 212.7177700348432 367.49049429657794 L 214.45993031358887 375.09505703422053 L 216.2020905923345 376.2357414448669 L 217.94425087108016 377.56653992395434 L 219.6864111498258 372.8136882129278 L 221.42857142857144 375.09505703422053 L 223.1707317073171 374.3346007604563 L 224.91289198606273 370.72243346007605 L 226.65505226480838 365.7794676806084 L 228.39721254355402 362.3574144486692 L 230.13937282229966 369.39163498098856 L 231.8815331010453 355.13307984790873 L 233.62369337979095 356.84410646387835 L 235.3658536585366 354.56273764258555 L 237.10801393728224 352.47148288973386 L 238.85017421602788 343.91634980988596 L 240.59233449477352 341.25475285171103 L 242.33449477351917 344.6768060836502 L 244.0766550522648 339.5437262357415 L 245.81881533101046 333.8403041825095 L 247.5609756097561 330.0380228136882 L 249.30313588850174 328.1368821292776 L 251.0452961672474 324.7148288973384 L 252.78745644599303 321.29277566539923 L 254.52961672473867 316.7300380228137 L 256.2717770034843 315.2091254752852 L 258.01393728222996 325.8555133079848 L 259.7560975609756 322.8136882129278 L 261.49825783972125 320.3422053231939 L 263.2404181184669 317.3003802281369 L 264.98257839721254 309.8859315589354 L 266.7247386759582 317.3003802281369 L 268.4668989547038 313.8783269961977 L 270.20905923344947 305.703422053232 L 271.9512195121951 316.1596958174905 L 273.69337979094075 310.07604562737646 L 275.4355400696864 309.6958174904943 L 277.17770034843204 310.2661596958175 L 278.91986062717774 313.68821292775664 L 280.6620209059233 308.93536121673003 L 282.404181184669 304.56273764258555 L 284.1463414634146 308.1749049429658 L 285.8885017421603 305.13307984790873 L 287.6306620209059 305.89353612167304 L 289.3728222996516 293.34600760456277 L 291.1149825783972 293.7262357414449 L 292.8571428571429 290.11406844106466 L 294.5993031358885 277.9467680608365 L 296.3414634146342 282.6996197718631 L 298.08362369337976 279.467680608365 L 299.82578397212546 275.09505703422053 L 301.56794425087105 269.77186311787074 L 303.31010452961675 266.7300380228137 L 305.05226480836234 259.31558935361215 L 306.79442508710804 261.9771863117871 L 308.5365853658536 259.1254752851711 L 310.2787456445993 258.93536121673003 L 312.0209059233449 262.7376425855513 L 313.7630662020906 266.1596958174905 L 315.5052264808362 261.787072243346 L 317.2473867595819 275.8555133079848 L 318.9895470383275 258.93536121673003 L 320.7317073170732 251.90114068441068 L 322.4738675958188 242.96577946768065 L 324.2160278745645 237.0722433460076 L 325.9581881533101 247.33840304182513 L 327.70034843205576 251.90114068441068 L 329.4425087108014 250.38022813688212 L 331.18466898954705 241.4448669201521 L 332.9268292682927 239.16349809885935 L 334.66898954703834 235.5513307984791 L 336.411149825784 229.84790874524714 L 338.1533101045296 232.50950570342206 L 339.89547038327527 234.41064638783268 L 341.6376306620209 235.93155893536124 L 343.37979094076655 229.46768060836501 L 345.1219512195122 224.33460076045628 L 346.86411149825784 224.52471482889734 L 348.6062717770035 220.15209125475286 L 350.34843205574913 219.3916349809886 L 352.0905923344948 217.30038022813687 L 353.8327526132404 216.34980988593156 L 355.57491289198606 214.82889733840307 L 357.3170731707317 212.54752851711027 L 359.05923344947735 213.87832699619776 L 360.801393728223 210.45627376425858 L 362.54355400696863 202.09125475285174 L 364.2857142857143 201.90114068441068 L 366.0278745644599 192.3954372623574 L 367.77003484320556 194.48669201520914 L 369.5121951219512 202.851711026616 L 371.25435540069685 202.2813688212928 L 372.9965156794425 205.70342205323198 L 374.73867595818814 203.61216730038024 L 376.4808362369338 208.17490494296578 L 378.2229965156795 203.8022813688213 L 379.96515679442507 201.14068441064643 L 381.70731707317077 202.09125475285174 L 383.44947735191636 199.4296577946768 L 385.19163763066206 198.66920152091257 L 386.93379790940764 199.80988593155894 L 388.67595818815334 199.4296577946768 L 390.41811846689893 206.27376425855516 L 392.16027874564463 205.32319391634985 L 393.9024390243902 193.91634980988596 L 395.6445993031359 194.10646387832702 L 397.3867595818815 187.6425855513308 L 399.1289198606272 183.46007604562737 L 400.8710801393728 186.88212927756655 L 402.6132404181185 183.07984790874525 L 404.3554006968641 184.98098859315593 L 406.0975609756098 184.6007604562738 L 407.8397212543554 179.65779467680608 L 409.58188153310107 178.13688212927758 L 411.3240418118467 180.60836501901144 L 413.06620209059236 177.37642585551333 L 414.808362369338 192.3954372623574 L 416.55052264808364 193.34600760456277 L 418.2926829268293 197.90874524714832 L 420.03484320557493 191.82509505703422 L 421.7770034843206 189.9239543726236 L 423.5191637630662 172.8136882129278 L 425.26132404181186 161.97718631178708 L 427.0034843205575 151.14068441064643 L 428.74564459930315 150.5703422053232 L 430.4878048780488 143.53612167300383 L 432.22996515679444 138.9733840304183 L 433.9721254355401 136.50190114068442 L 435.7142857142857 141.82509505703422 L 437.45644599303137 134.22053231939168 L 439.198606271777 153.42205323193917 L 440.94076655052265 129.0874524714829 L 442.6829268292683 126.80608365019015 L 444.42508710801394 121.48288973384035 L 446.1672473867596 126.99619771863121 L 447.9094076655052 145.81749049429658 L 449.65156794425087 126.61596958174908 L 451.3937282229965 116.92015209125475 L 453.13588850174216 112.54752851711027 L 454.8780487804878 110.45627376425858 L 456.62020905923345 102.4714828897338 L 458.3623693379791 100 L 460.10452961672473 105.13307984790879 L 461.8466898954704 101.5209125475285 L 463.588850174216 107.41444866920153 L 465.33101045296166 114.06844106463882 L 467.0731707317073 117.87072243346012 L 468.81533101045295 109.8859315589354 L 470.5574912891986 111.97718631178708 L 472.29965156794424 113.49809885931563 L 474.0418118466899 107.03422053231941 L 475.7839721254355 100.38022813688212 L 477.52613240418117 105.32319391634985 L 479.2682926829268 105.70342205323198 L 481.01045296167246 111.4068441064639 L 482.7526132404181 106.84410646387835 L 484.49477351916374 119.9619771863118 L 486.2369337979094 119.01140684410649 L 487.97909407665503 119.58174904942967 L 489.7212543554007 117.68060836501905 L 491.4634146341463 115.01901140684413 L 493.20557491289196 118.06083650190118 L 494.9477351916376 116.53992395437263 L 496.68989547038325 123.95437262357416 L 498.4320557491289 134.41064638783274 L 500.17421602787454 139.16349809885935 L 501.91637630662024 140.8745247148289 L 503.6585365853659 146.38783269961976 L 505.4006968641115 152.851711026616 L 507.14285714285717 168.4410646387833 L 508.8850174216028 160.45627376425858 L 510.62717770034845 167.68060836501905 L 512.3693379790941 169.9619771863118 L 514.1114982578397 183.8403041825095 L 515.8536585365854 178.89733840304183 L 517.5958188153311 183.07984790874525 L 519.3379790940767 186.6920152091255 L 521.0801393728223 187.0722433460076 L 522.822299651568 164.44866920152094 L 524.5644599303137 176.23574144486696 L 526.3066202090592 181.55893536121675 L 528.0487804878048 198.28897338403044 L 529.7909407665505 196.57794676806083 L 531.5331010452962 195.2471482889734 L 533.2752613240418 202.09125475285174 L 535.0174216027874 207.0342205323194 L 536.7595818815331 217.87072243346012 L 538.5017421602788 233.2699619771863 L 540.2439024390244 230.7984790874525 L 541.98606271777 246.95817490494295 L 543.7282229965157 229.46768060836501 L 545.4703832752614 237.0722433460076 L 547.212543554007 238.5931558935361 L 548.9547038327526 230.0380228136882 L 550.6968641114983 231.74904942965782 L 552.439024390244 238.78326996197723 L 554.1811846689895 251.71102661596962 L 555.9233449477351 265.5893536121673 L 557.6655052264808 253.2319391634981 L 559.4076655052265 247.5285171102662 L 561.1498257839721 258.36501901140684 L 562.8919860627177 258.93536121673003 L 564.6341463414634 257.79467680608366 L 566.3763066202091 265.2091254752852 L 568.1184668989547 273.57414448669203 L 569.8606271777003 280.22813688212926 L 571.602787456446 274.1444866920152 L 573.3449477351917 276.6159695817491 L 575.0871080139373 280.98859315589357 L 576.8292682926829 273.57414448669203 L 578.5714285714286 271.67300380228136 L 580.3135888501743 275.47528517110266 L 582.0557491289198 280.4182509505703 L 583.7979094076654 282.6996197718631 L 585.5400696864111 282.8897338403042 L 587.2822299651568 283.8403041825095 L 589.0243902439024 282.6996197718631 L 590.766550522648 278.5171102661597 L 592.5087108013937 279.6577946768061 L 594.2508710801394 278.1368821292776 L 595.993031358885 288.0228136882129 L 597.7351916376306 311.02661596958177 L 599.4773519163763 306.6539923954373 L 601.219512195122 309.5057034220532 L 602.9616724738676 304.7528517110266 L 604.7038327526133 298.8593155893536 L 606.445993031359 308.5551330798479 L 608.1881533101046 309.5057034220532 L 609.9303135888501 306.84410646387835 L 611.6724738675958 307.79467680608366 L 613.4146341463415 317.87072243346006 L 615.1567944250871 321.4828897338403 L 616.8989547038327 319.0114068441065 L 618.6411149825784 321.8631178707224 L 620.3832752613241 323.00380228136885 L 622.1254355400697 317.680608365019 L 623.8675958188153 320.72243346007605 L 625.609756097561 322.43346007604566 L 627.3519163763067 326.6159695817491 L 629.0940766550523 329.467680608365 L 630.8362369337979 335.171102661597 L 632.5783972125436 339.9239543726236 L 634.3205574912893 349.6197718631179 L 636.0627177700349 361.02661596958177 L 637.8048780487804 358.1749049429658 L 639.5470383275261 367.680608365019 L 641.2891986062718 369.39163498098856 L 643.0313588850174 373.384030418251 L 644.773519163763 381.9391634980989 L 646.5156794425087 391.25475285171103 L 648.2578397212544 392.3954372623574 L 650 394.86692015209127 L 650 400 Z" /><text  class="poloto_labels poloto_text poloto_title" alignment-baseline="start" text-anchor="middle" font-size="x-large" x="400" y="37.5" >Total players on 2021-10-17</text><text  class="poloto_labels poloto_text poloto_xname" alignment-baseline="start" text-anchor="middle" font-size="x-large" x="400" y="481.25" >Time</text><text  class="poloto_labels poloto_text poloto_yname" alignment-baseline="start" text-anchor="middle" font-size="x-large" transform="rotate(-90,37.5,250)" x="37.5" y="250" >Count</text><line  class="poloto_axis_lines" stroke="black" x1="150" x2="150" y1="400" y2="405" /><text  class="poloto_tick_labels poloto_text" alignment-baseline="start" text-anchor="middle" x="150" y="430" > 00:00</text><line  class="poloto_axis_lines" stroke="black" x1="266.14401858304296" x2="266.14401858304296" y1="400" y2="405" /><text  class="poloto_tick_labels poloto_text" alignment-baseline="start" text-anchor="middle" x="266.14401858304296" y="430" > 06:00</text><line  class="poloto_axis_lines" stroke="black" x1="382.2880371660859" x2="382.2880371660859" y1="400" y2="405" /><text  class="poloto_tick_labels poloto_text" alignment-baseline="start" text-anchor="middle" x="382.2880371660859" y="430" > 11:00</text><line  class="poloto_axis_lines" stroke="black" x1="498.4320557491289" x2="498.4320557491289" y1="400" y2="405" /><text  class="poloto_tick_labels poloto_text" alignment-baseline="start" text-anchor="middle" x="498.4320557491289" y="430" > 17:00</text><line  class="poloto_axis_lines" stroke="black" x1="614.5760743321719" x2="614.5760743321719" y1="400" y2="405" /><text  class="poloto_tick_labels poloto_text" alignment-baseline="start" text-anchor="middle" x="614.5760743321719" y="430" > 22:00</text><line  class="poloto_axis_lines" stroke="black" x1="150" x2="144" y1="332.319391634981" y2="332.319391634981" /><text  class="poloto_tick_labels poloto_text" alignment-baseline="middle" text-anchor="end" x="135" y="332.319391634981" > 1500</text><line  class="poloto_axis_lines" stroke="black" x1="150" x2="144" y1="237.26235741444867" y2="237.26235741444867" /><text  class="poloto_tick_labels poloto_text" alignment-baseline="middle" text-anchor="end" x="135" y="237.26235741444867" > 2000</text><line  class="poloto_axis_lines" stroke="black" x1="150" x2="144" y1="142.20532319391634" y2="142.20532319391634" /><text  class="poloto_tick_labels poloto_text" alignment-baseline="middle" text-anchor="end" x="135" y="142.20532319391634" > 2500</text><path  stroke="black" fill="none" class="poloto_axis_lines" style="stroke-dasharray:14.518002322880372;stroke-dashoffset:-0;" d=" M 150 400 L 650 400" /><path  stroke="black" fill="none" class="poloto_axis_lines" style="stroke-dasharray:9.505703422053232;stroke-dashoffset:-67.680608365019;" d=" M 150 400 L 150 100" /></svg>