<svg class="poloto" width="800" height="500" viewBox="0 0 800 500" xmlns="http://www.w3.org/2000/svg"><style>.poloto { stroke-linecap:round; stroke-linejoin:round; font-family: 'Tahoma', sans-serif; background-color: AliceBlue;} .poloto_scatter{stroke-width:7} .poloto_line{stroke-width:2} .poloto_text{fill: black;} .poloto_axis_lines{stroke: black;stroke-width:3;fill:none;stroke-dasharray:none} .poloto0stroke{stroke:  blue;} .poloto1stroke{stroke:  red;} .poloto2stroke{stroke:  green;} .poloto3stroke{stroke:  gold;} .poloto4stroke{stroke:  aqua;} .poloto5stroke{stroke:  lime;} .poloto6stroke{stroke:  orange;} .poloto7stroke{stroke:  chocolate;} .poloto0fill{fill:blue;} .poloto1fill{fill:red;} .poloto2fill{fill:green;} .poloto3fill{fill:gold;} .poloto4fill{fill:aqua;} .poloto5fill{fill:lime;} .poloto6fill{fill:orange;} .poloto7fill{fill:chocolate;}</style><text  class="poloto_text poloto_legend_text" alignment-baseline="middle" text-anchor="start" font-size="large" x="675" y="100" ></text><path  class="poloto_linefill poloto0fill" d=" M 150 400 L 150 364.48763250883394 L 151.74216027874564 366.34275618374556 L 153.4843205574913 376.01590106007063 L 155.22648083623693 372.5706713780919 L 156.96864111498257 374.5583038869258 L 158.71080139372822 378.93109540636044 L 160.45296167247386 386.7491166077739 L 162.1951219512195 385.9540636042403 L 163.93728222996515 389.7968197879859 L 165.6794425087108 389.9293286219081 L 167.42160278745644 390.9893992932862 L 169.16376306620208 390.85689045936397 L 170.90592334494772 394.69964664310953 L 172.64808362369337 395.4946996466431 L 174.390243902439 396.952296819788 L 176.13240418118465 400 L 177.8745644599303 396.81978798586573 L 179.61672473867597 398.2773851590106 L 181.3588850174216 399.86749116607774 L 183.10104529616726 398.6749116607774 L 184.8432055749129 396.15724381625444 L 186.58536585365854 395.8922261484099 L 188.3275261324042 395.0971731448763 L 190.06968641114983 396.42226148409895 L 191.81184668989548 398.6749116607774 L 193.55400696864112 395.7597173144876 L 195.29616724738676 390.59187279151945 L 197.0383275261324 386.08657243816253 L 198.78048780487805 385.68904593639576 L 200.5226480836237 386.7491166077739 L 202.26480836236934 380.3886925795053 L 204.00696864111498 376.5459363957597 L 205.74912891986062 376.41342756183747 L 207.49128919860627 374.5583038869258 L 209.2334494773519 366.7402826855124 L 210.97560975609755 370.8480565371025 L 212.7177700348432 369.5229681978799 L 214.45993031358887 374.4257950530035 L 216.2020905923345 375.7508833922261 L 217.94425087108016 379.4611307420495 L 219.6864111498258 377.07597173144876 L 221.42857142857144 372.9681978798586 L 223.1707317073171 381.1837455830389 L 224.91289198606273 372.17314487632507 L 226.65505226480838 371.90812720848055 L 228.39721254355402 366.8727915194346 L 230.13937282229966 361.57243816254413 L 231.8815331010453 363.1625441696113 L 233.62369337979095 361.83745583038865 L 235.3658536585366 352.4293286219081 L 237.10801393728224 352.1643109540636 L 238.85017421602788 352.1643109540636 L 240.59233449477352 347.12897526501763 L 242.33449477351917 341.9611307420495 L 244.0766550522648 337.9858657243816 L 245.81881533101046 340.23851590106005 L 247.5609756097561 336.79328621908127 L 249.30313588850174 329.2402826855124 L 251.0452961672474 331.095406360424 L 252.78745644599303 332.81802120141344 L 254.52961672473867 332.6855123674911 L 256.2717770034843 331.36042402826854 L 258.01393728222996 329.2402826855124 L 259.7560975609756 334.14310954063603 L 261.49825783972125 328.57773851590105 L 263.2404181184669 330.4328621908127 L 264.98257839721254 328.84275618374556 L 266.7247386759582 325.2650176678445 L 268.4668989547038 321.15724381625444 L 270.20905923344947 326.8551236749116 L 271.9512195121951 323.2773851590106 L 273.69337979094075 321.42226148409895 L 275.4355400696864 321.28975265017664 L 277.17770034843204 327.517667844523 L 278.91986062717774 326.7226148409894 L 280.6620209059233 328.18021201413427 L 282.404181184669 325.3975265017668 L 284.1463414634146 327.65017667844523 L 285.8885017421603 325.13250883392226 L 287.6306620209059 328.57773851590105 L 289.3728222996516 326.7226148409894 L 291.1149825783972 328.9752650176679 L 292.8571428571429 333.2155477031802 L 294.5993031358885 326.5901060070671 L 296.3414634146342 323.2773851590106 L 298.08362369337976 326.4575971731449 L 299.82578397212546 325.3975265017668 L 301.56794425087105 321.0247349823321 L 303.31010452961675 317.3144876325088 L 305.05226480836234 309.76148409893995 L 306.79442508710804 310.02650176678446 L 308.5365853658536 306.0512367491166 L 310.2787456445993 301.0159010600707 L 312.0209059233449 303.6660777385159 L 313.7630662020906 297.57067137809184 L 315.5052264808362 291.6077738515901 L 317.2473867595819 289.2226148409894 L 318.9895470383275 283.2597173144876 L 320.7317073170732 283.92226148409895 L 322.4738675958188 280.34452296819785 L 324.2160278745645 280.7420494699647 L 325.9581881533101 281.53710247349824 L 327.70034843205576 280.87455830388694 L 329.4425087108014 284.18727915194347 L 331.18466898954705 276.23674911660777 L 332.9268292682927 276.89929328621906 L 334.66898954703834 272.26148409893995 L 336.411149825784 272.26148409893995 L 338.1533101045296 268.68374558303884 L 339.89547038327527 262.19081272084804 L 341.6376306620209 257.4204946996466 L 343.37979094076655 255.8303886925795 L 345.1219512195122 259.2756183745583 L 346.86411149825784 265.5035335689046 L 348.6062717770035 254.77031802120143 L 350.34843205574913 252.51766784452298 L 352.0905923344948 246.952296819788 L 353.8327526132404 247.08480565371025 L 355.57491289198606 239.9293286219081 L 357.3170731707317 244.69964664310953 L 359.05923344947735 241.51943462897526 L 360.801393728223 239.9293286219081 L 362.54355400696863 231.71378091872793 L 364.2857142857143 233.03886925795052 L 366.0278745644599 229.726148409894 L 367.77003484320556 223.8957597173145 L 369.5121951219512 225.61837455830386 L 371.25435540069685 225.22084805653708 L 372.9965156794425 227.20848056537102 L 374.73867595818814 220.98056537102474 L 376.4808362369338 219.52296819787983 L 378.2229965156795 224.69081272084804 L 379.96515679442507 225.22084805653708 L 381.70731707317077 232.1113074204947 L 383.44947735191636 226.2809187279152 L 385.19163763066206 222.7031802120141 L 386.93379790940764 220.84805653710248 L 388.67595818815334 220.05300353356893 L 390.41811846689893 218.46289752650176 L 392.16027874564463 221.64310954063603 L 393.9024390243902 215.15017667844523 L 395.6445993031359 212.23498233215548 L 397.3867595818815 212.36749116607774 L 399.1289198606272 206.27208480565372 L 400.8710801393728 211.30742049469967 L 402.6132404181185 218.9929328621908 L 404.3554006968641 229.726148409894 L 406.0975609756098 237.6766784452297 L 407.8397212543554 235.02650176678446 L 409.58188153310107 235.82155477031802 L 411.3240418118467 225.75088339222617 L 413.06620209059236 219.12544169611306 L 414.808362369338 223.8957597173145 L 416.55052264808364 215.01766784452298 L 418.2926829268293 221.90812720848055 L 420.03484320557493 219.6554770318021 L 421.7770034843206 211.8374558303887 L 423.5191637630662 201.63427561837455 L 425.26132404181186 201.1042402826855 L 427.0034843205575 193.8162544169611 L 428.74564459930315 188.38339222614843 L 430.4878048780488 184.2756183745583 L 432.22996515679444 175.39752650176678 L 433.9721254355401 174.73498233215548 L 435.7142857142857 165.0618374558304 L 437.45644599303137 179.77031802120143 L 439.198606271777 157.90636042402826 L 440.94076655052265 149.160777385159 L 442.6829268292683 150.75088339222617 L 444.42508710801394 231.8462897526502 L 446.1672473867596 229.9911660777385 L 447.9094076655052 120.40636042402826 L 449.65156794425087 130.74204946996468 L 451.3937282229965 148.63074204946997 L 453.13588850174216 151.9434628975265 L 454.8780487804878 135.51236749116606 L 456.62020905923345 129.01943462897526 L 458.3623693379791 139.75265017667846 L 460.10452961672473 127.16431095406358 L 461.8466898954704 147.0406360424028 L 463.588850174216 140.68021201413427 L 465.33101045296166 138.95759717314485 L 467.0731707317073 136.43992932862193 L 468.81533101045295 132.72968197879857 L 470.5574912891986 143.3303886925795 L 472.29965156794424 170.36219081272083 L 474.0418118466899 146.64310954063603 L 475.7839721254355 138.1625441696113 L 477.52613240418117 132.99469964664308 L 479.2682926829268 188.11837455830386 L 481.01045296167246 167.57950530035333 L 482.7526132404181 183.48056537102474 L 484.49477351916374 153.40106007067135 L 486.2369337979094 121.06890459363956 L 487.97909407665503 122.12897526501769 L 489.7212543554007 122.52650176678446 L 491.4634146341463 147.30565371024733 L 493.20557491289196 128.48939929328623 L 494.9477351916376 109.14310954063603 L 496.68989547038325 107.81802120141344 L 498.4320557491289 105.8303886925795 L 500.17421602787454 100 L 501.91637630662024 106.36042402826854 L 503.6585365853659 104.3727915194346 L 505.4006968641115 129.81448763250881 L 507.14285714285717 128.09187279151945 L 508.8850174216028 123.85159010600705 L 510.62717770034845 121.20141342756182 L 512.3693379790941 123.58657243816253 L 514.1114982578397 145.71554770318022 L 515.8536585365854 179.10777385159008 L 517.5958188153311 184.14310954063603 L 519.3379790940767 182.02296819787983 L 521.0801393728223 189.04593639575972 L 522.822299651568 187.05830388692578 L 524.5644599303137 196.06890459363956 L 526.3066202090592 198.85159010600705 L 528.0487804878048 209.7173144876325 L 529.7909407665505 204.5494699646643 L 531.5331010452962 211.70494699646645 L 533.2752613240418 214.6201413427562 L 535.0174216027874 218.9929328621908 L 536.7595818815331 224.29328621908127 L 538.5017421602788 236.2190812720848 L 540.2439024390244 226.41342756183747 L 541.98606271777 231.05123674911658 L 543.7282229965157 234.6289752650177 L 545.4703832752614 237.54416961130744 L 547.212543554007 246.81978798586573 L 548.9547038327526 256.62544169611306 L 550.6968641114983 262.5883392226148 L 552.439024390244 256.62544169611306 L 554.1811846689895 270.14134275618375 L 555.9233449477351 262.9858657243816 L 557.6655052264808 265.63604240282683 L 559.4076655052265 272.52650176678446 L 561.1498257839721 266.1660777385159 L 562.8919860627177 272.52650176678446 L 564.6341463414634 270.0088339222615 L 566.3763066202091 266.69611307420496 L 568.1184668989547 270.40636042402826 L 569.8606271777003 275.4416961130742 L 571.602787456446 278.09187279151945 L 573.3449477351917 283.2597173144876 L 575.0871080139373 278.35689045936397 L 576.8292682926829 282.8621908127208 L 578.5714285714286 285.51236749116606 L 580.3135888501743 282.19964664310953 L 582.0557491289198 285.51236749116606 L 583.7979094076654 276.89929328621906 L 585.5400696864111 280.2120141342756 L 587.2822299651568 282.9946996466431 L 589.0243902439024 287.8975265017668 L 590.766550522648 294.3904593639576 L 592.5087108013937 304.3286219081272 L 594.2508710801394 299.69081272084804 L 595.993031358885 299.8233215547703 L 597.7351916376306 293.595406360424 L 599.4773519163763 305.25618374558303 L 601.219512195122 308.8339222614841 L 602.9616724738676 316.7844522968198 L 604.7038327526133 322.482332155477 L 606.445993031359 327.38515901060066 L 608.1881533101046 325.2650176678445 L 609.9303135888501 324.46996466431096 L 611.6724738675958 323.1448763250884 L 613.4146341463415 326.4575971731449 L 615.1567944250871 326.98763250883394 L 616.8989547038327 325.9275618374558 L 618.6411149825784 326.7226148409894 L 620.3832752613241 325.9275618374558 L 622.1254355400697 327.65017667844523 L 623.8675958188153 334.67314487632507 L 625.609756097561 334.8056537102474 L 627.3519163763067 340.23851590106005 L 629.0940766550523 334.40812720848055 L 630.8362369337979 345.9363957597173 L 632.5783972125436 340.3710247349823 L 634.3205574912893 344.21378091872793 L 636.0627177700349 345.14134275618375 L 637.8048780487804 342.62367491166077 L 639.5470383275261 347.92402826855124 L 641.2891986062718 356.80212014134275 L 643.0313588850174 357.5971731448763 L 644.773519163763 364.75265017667846 L 646.5156794425087 360.7773851590106 L 648.2578397212544 365.547703180212 L 650 365.68021201413427 L 650 400 Z" /><text  class="poloto_labels poloto_text poloto_title" alignment-baseline="start" text-anchor="middle" font-size="x-large" x="400" y="37.5" >Total players on 2021-08-25</text><text  class="poloto_labels poloto_text poloto_xname" alignment-baseline="start" text-anchor="middle" font-size="x-large" x="400" y="481.25" >Time</text><text  class="poloto_labels poloto_text poloto_yname" alignment-baseline="start" text-anchor="middle" font-size="x-large" transform="rotate(-90,37.5,250)" x="37.5" y="250" >Count</text><line  class="poloto_axis_lines" stroke="black" x1="150" x2="150" y1="400" y2="405" /><text  class="poloto_tick_labels poloto_text" alignment-baseline="start" text-anchor="middle" x="150" y="430" > 00:00:00</text><line  class="poloto_axis_lines" stroke="black" x1="266.14401858304296" x2="266.14401858304296" y1="400" y2="405" /><text  class="poloto_tick_labels poloto_text" alignment-baseline="start" text-anchor="middle" x="266.14401858304296" y="430" > 05:33:20</text><line  class="poloto_axis_lines" stroke="black" x1="382.2880371660859" x2="382.2880371660859" y1="400" y2="405" /><text  class="poloto_tick_labels poloto_text" alignment-baseline="start" text-anchor="middle" x="382.2880371660859" y="430" > 11:06:40</text><line  class="poloto_axis_lines" stroke="black" x1="498.4320557491289" x2="498.4320557491289" y1="400" y2="405" /><text  class="poloto_tick_labels poloto_text" alignment-baseline="start" text-anchor="middle" x="498.4320557491289" y="430" > 16:40:00</text><line  class="poloto_axis_lines" stroke="black" x1="614.5760743321719" x2="614.5760743321719" y1="400" y2="405" /><text  class="poloto_tick_labels poloto_text" alignment-baseline="start" text-anchor="middle" x="614.5760743321719" y="430" > 22:13:20</text><line  class="poloto_axis_lines" stroke="black" x1="150" x2="144" y1="371.90812720848055" y2="371.90812720848055" /><text  class="poloto_tick_labels poloto_text" alignment-baseline="middle" text-anchor="end" x="135" y="371.90812720848055" > 1500</text><line  class="poloto_axis_lines" stroke="black" x1="150" x2="144" y1="305.6537102473498" y2="305.6537102473498" /><text  class="poloto_tick_labels poloto_text" alignment-baseline="middle" text-anchor="end" x="135" y="305.6537102473498" > 2000</text><line  class="poloto_axis_lines" stroke="black" x1="150" x2="144" y1="239.39929328621906" y2="239.39929328621906" /><text  class="poloto_tick_labels poloto_text" alignment-baseline="middle" text-anchor="end" x="135" y="239.39929328621906" > 2500</text><line  class="poloto_axis_lines" stroke="black" x1="150" x2="144" y1="173.14487632508832" y2="173.14487632508832" /><text  class="poloto_tick_labels poloto_text" alignment-baseline="middle" text-anchor="end" x="135" y="173.14487632508832" > 3000</text><line  class="poloto_axis_lines" stroke="black" x1="150" x2="144" y1="106.89045936395758" y2="106.89045936395758" /><text  class="poloto_tick_labels poloto_text" alignment-baseline="middle" text-anchor="end" x="135" y="106.89045936395758" > 3500</text><path  stroke="black" fill="none" class="poloto_axis_lines" style="stroke-dasharray:14.518002322880372;stroke-dashoffset:-0;" d=" M 150 400 L 650 400" /><path  stroke="black" fill="none" class="poloto_axis_lines" style="stroke-dasharray:6.625441696113074;stroke-dashoffset:-28.09187279151945;" d=" M 150 400 L 150 100" /></svg>