<svg class="poloto" width="800" height="500" viewBox="0 0 800 500" xmlns="http://www.w3.org/2000/svg"><style>.poloto { stroke-linecap:round; stroke-linejoin:round; font-family: 'Tahoma', sans-serif; background-color: AliceBlue;} .poloto_scatter{stroke-width:7} .poloto_line{stroke-width:2} .poloto_text{fill: black;} .poloto_axis_lines{stroke: black;stroke-width:3;fill:none;stroke-dasharray:none} .poloto0stroke{stroke:  blue;} .poloto1stroke{stroke:  red;} .poloto2stroke{stroke:  green;} .poloto3stroke{stroke:  gold;} .poloto4stroke{stroke:  aqua;} .poloto5stroke{stroke:  lime;} .poloto6stroke{stroke:  orange;} .poloto7stroke{stroke:  chocolate;} .poloto0fill{fill:blue;} .poloto1fill{fill:red;} .poloto2fill{fill:green;} .poloto3fill{fill:gold;} .poloto4fill{fill:aqua;} .poloto5fill{fill:lime;} .poloto6fill{fill:orange;} .poloto7fill{fill:chocolate;}</style><text  class="poloto_text poloto_legend_text" alignment-baseline="middle" text-anchor="start" font-size="large" x="675" y="100" ></text><path  class="poloto_linefill poloto0fill" d=" M 150 400 L 150 362.07674943566593 L 151.74216027874564 362.4153498871332 L 153.4843205574913 362.07674943566593 L 155.22648083623693 365.293453724605 L 156.96864111498257 370.2031602708804 L 158.71080139372822 373.4198645598194 L 160.45296167247386 376.97516930022573 L 162.1951219512195 377.4830699774267 L 163.93728222996515 374.94356659142215 L 165.6794425087108 376.1286681715576 L 167.42160278745644 377.1444695259594 L 169.16376306620208 386.117381489842 L 170.90592334494772 384.5936794582393 L 172.64808362369337 383.2392776523702 L 174.390243902439 385.44018058690745 L 176.13240418118465 381.88487584650113 L 177.8745644599303 381.2076749435666 L 179.61672473867597 384.5936794582393 L 181.3588850174216 387.8103837471783 L 183.10104529616726 385.6094808126411 L 184.8432055749129 389.1647855530474 L 186.58536585365854 391.196388261851 L 188.3275261324042 388.99548532731376 L 190.06968641114983 391.5349887133183 L 191.81184668989548 390.34988713318285 L 193.55400696864112 391.196388261851 L 195.29616724738676 390.5191873589165 L 197.0383275261324 391.196388261851 L 198.78048780487805 388.8261851015801 L 200.5226480836237 393.7358916478555 L 202.26480836236934 395.25959367945825 L 204.00696864111498 393.7358916478555 L 205.74912891986062 394.4130925507901 L 207.49128919860627 391.5349887133183 L 209.2334494773519 394.75169300225735 L 210.97560975609755 395.0902934537246 L 212.7177700348432 394.0744920993228 L 214.45993031358887 390.5191873589165 L 216.2020905923345 394.5823927765237 L 217.94425087108016 395.4288939051919 L 219.6864111498258 399.15349887133186 L 221.42857142857144 400 L 223.1707317073171 388.6568848758465 L 224.91289198606273 387.13318284424383 L 226.65505226480838 381.37697516930024 L 228.39721254355402 380.3611738148984 L 230.13937282229966 380.53047404063204 L 231.8815331010453 385.6094808126411 L 233.62369337979095 381.038374717833 L 235.3658536585366 384.08577878103836 L 237.10801393728224 385.10158013544014 L 238.85017421602788 390.1805869074492 L 240.59233449477352 387.64108352144467 L 242.33449477351917 389.33408577878106 L 244.0766550522648 393.39729119638827 L 245.81881533101046 391.36568848758463 L 247.5609756097561 392.21218961625283 L 249.30313588850174 392.04288939051924 L 251.0452961672474 394.4130925507901 L 252.78745644599303 392.04288939051924 L 254.52961672473867 389.1647855530474 L 256.2717770034843 386.9638826185102 L 258.01393728222996 386.9638826185102 L 259.7560975609756 383.06997742663657 L 261.49825783972125 379.3453724604966 L 263.2404181184669 374.26636568848755 L 264.98257839721254 374.7742663656885 L 266.7247386759582 373.25056433408577 L 268.4668989547038 369.18735891647856 L 270.20905923344947 366.47855530474044 L 271.9512195121951 355.30474040632055 L 273.69337979094075 351.74943566591423 L 275.4355400696864 347.68623024830697 L 277.17770034843204 350.39503386004515 L 278.91986062717774 349.7178329571106 L 280.6620209059233 348.02483069977427 L 282.404181184669 346.83972911963883 L 284.1463414634146 347.3476297968397 L 285.8885017421603 348.02483069977427 L 287.6306620209059 346.33182844243794 L 289.3728222996516 342.77652370203157 L 291.1149825783972 354.4582392776524 L 292.8571428571429 356.65914221218964 L 294.5993031358885 363.0925507900677 L 296.3414634146342 364.6162528216704 L 298.08362369337976 370.71106094808124 L 299.82578397212546 367.3250564334086 L 301.56794425087105 365.63205417607224 L 303.31010452961675 361.23024830699774 L 305.05226480836234 357.5056433408578 L 306.79442508710804 356.32054176072234 L 308.5365853658536 358.1828442437923 L 310.2787456445993 359.0293453724605 L 312.0209059233449 358.1828442437923 L 313.7630662020906 355.30474040632055 L 315.5052264808362 355.64334085778785 L 317.2473867595819 353.6117381489842 L 318.9895470383275 350.9029345372461 L 320.7317073170732 355.1354401805869 L 322.4738675958188 354.4582392776524 L 324.2160278745645 355.9819413092551 L 325.9581881533101 351.74943566591423 L 327.70034843205576 343.7923250564334 L 329.4425087108014 349.548532731377 L 331.18466898954705 344.46952595936796 L 332.9268292682927 337.02031602708803 L 334.66898954703834 334.31151241534985 L 336.411149825784 327.3702031602709 L 338.1533101045296 321.4446952595937 L 339.89547038327527 317.7200902934537 L 341.6376306620209 316.5349887133183 L 343.37979094076655 317.21218961625283 L 345.1219512195122 319.24379232505646 L 346.86411149825784 314.84198645598195 L 348.6062717770035 311.6252821670429 L 350.34843205574913 320.25959367945825 L 352.0905923344948 313.31828442437927 L 353.8327526132404 311.117381489842 L 355.57491289198606 312.64108352144467 L 357.3170731707317 304.85327313769756 L 359.05923344947735 305.53047404063204 L 360.801393728223 296.7268623024831 L 362.54355400696863 293.34085778781036 L 364.2857142857143 291.13995485327314 L 366.0278745644599 290.63205417607224 L 367.77003484320556 290.63205417607224 L 369.5121951219512 290.4627539503386 L 371.25435540069685 289.9548532731377 L 372.9965156794425 287.5846501128668 L 374.73867595818814 283.6907449209932 L 376.4808362369338 277.765237020316 L 378.2229965156795 277.4266365688487 L 379.96515679442507 261.5124153498871 L 381.70731707317077 259.98871331828445 L 383.44947735191636 256.7720090293453 L 385.19163763066206 264.3905191873589 L 386.93379790940764 258.29571106094807 L 388.67595818815334 254.90970654627537 L 390.41811846689893 247.79909706546275 L 392.16027874564463 251.18510158013547 L 393.9024390243902 240.34988713318282 L 395.6445993031359 234.59367945823928 L 397.3867595818815 229.34537246049663 L 399.1289198606272 226.12866817155756 L 400.8710801393728 221.21896162528216 L 402.6132404181185 226.12866817155756 L 404.3554006968641 221.55756207674946 L 406.0975609756098 220.71106094808127 L 407.8397212543554 221.3882618510158 L 409.58188153310107 216.9864559819413 L 411.3240418118467 214.78555304740408 L 413.06620209059236 216.81715575620765 L 414.808362369338 219.69525959367948 L 416.55052264808364 209.87584650112868 L 418.2926829268293 206.48984198645596 L 420.03484320557493 199.71783295711063 L 421.7770034843206 202.42663656884875 L 423.5191637630662 195.82392776523702 L 425.26132404181186 189.39051918735893 L 427.0034843205575 187.52821670428895 L 428.74564459930315 173.4762979683973 L 430.4878048780488 264.7291196388262 L 432.22996515679444 171.95259593679455 L 433.9721254355401 176.1851015801354 L 435.7142857142857 175.33860045146727 L 437.45644599303137 170.7674943566591 L 439.198606271777 164.33408577878103 L 440.94076655052265 163.9954853273138 L 442.6829268292683 161.11738148984196 L 444.42508710801394 159.59367945823928 L 446.1672473867596 147.9119638826185 L 447.9094076655052 151.97516930022576 L 449.65156794425087 146.8961625282167 L 451.3937282229965 141.13995485327314 L 453.13588850174216 139.44695259593675 L 454.8780487804878 134.19864559819416 L 456.62020905923345 134.0293453724605 L 458.3623693379791 113.54401805869077 L 460.10452961672473 116.0835214446953 L 461.8466898954704 122.34762979683967 L 463.588850174216 123.02483069977427 L 465.33101045296166 114.7291196388262 L 467.0731707317073 101.35440180586909 L 468.81533101045295 100 L 470.5574912891986 106.26410835214449 L 472.29965156794424 111.51241534988708 L 474.0418118466899 112.69751693002252 L 475.7839721254355 110.66591422121894 L 477.52613240418117 111.68171557562073 L 479.2682926829268 115.06772009029339 L 481.01045296167246 120.82392776523704 L 482.7526132404181 124.20993227990971 L 484.49477351916374 125.2257336343115 L 486.2369337979094 133.3521444695259 L 487.97909407665503 137.24604966139952 L 489.7212543554007 141.98645598194128 L 491.4634146341463 145.54176072234762 L 493.20557491289196 153.49887133182844 L 494.9477351916376 152.99097065462755 L 496.68989547038325 156.20767494356662 L 498.4320557491289 161.45598194130926 L 500.17421602787454 163.31828442437924 L 501.91637630662024 161.6252821670429 L 503.6585365853659 160.60948081264107 L 505.4006968641115 164.84198645598192 L 507.14285714285717 172.1218961625282 L 508.8850174216028 189.55981941309253 L 510.62717770034845 179.23250564334083 L 512.3693379790941 183.2957110609481 L 514.1114982578397 188.03611738148985 L 515.8536585365854 188.88261851015804 L 517.5958188153311 197.51693002257335 L 519.3379790940767 193.96162528216703 L 521.0801393728223 199.88713318284422 L 522.822299651568 200.56433408577877 L 524.5644599303137 199.20993227990968 L 526.3066202090592 201.5801354401806 L 528.0487804878048 207.84424379232505 L 529.7909407665505 213.76975169300223 L 531.5331010452962 222.4040632054176 L 533.2752613240418 224.43566591422123 L 535.0174216027874 228.3295711060948 L 536.7595818815331 226.97516930022576 L 538.5017421602788 226.4672686230248 L 540.2439024390244 228.3295711060948 L 541.98606271777 229.85327313769753 L 543.7282229965157 233.5778781038375 L 545.4703832752614 231.54627539503386 L 547.212543554007 233.74717832957108 L 548.9547038327526 233.2392776523702 L 550.6968641114983 233.5778781038375 L 552.439024390244 232.90067720090295 L 554.1811846689895 231.20767494356662 L 555.9233449477351 232.2234762979684 L 557.6655052264808 229.85327313769753 L 559.4076655052265 231.3769751693002 L 561.1498257839721 233.2392776523702 L 562.8919860627177 235.77878103837472 L 564.6341463414634 237.3024830699774 L 566.3763066202091 244.75169300225733 L 568.1184668989547 245.76749435665917 L 569.8606271777003 264.89841986455986 L 571.602787456446 263.54401805869077 L 573.3449477351917 265.744920993228 L 575.0871080139373 263.3747178329571 L 576.8292682926829 260.8352144469526 L 578.5714285714286 258.1264108352144 L 580.3135888501743 252.20090293453725 L 582.0557491289198 250.33860045146727 L 583.7979094076654 261.34311512415354 L 585.5400696864111 254.57110609480813 L 587.2822299651568 258.803611738149 L 589.0243902439024 263.3747178329571 L 590.766550522648 269.13092550790066 L 592.5087108013937 264.0519187358916 L 594.2508710801394 263.88261851015807 L 595.993031358885 276.9187358916479 L 597.7351916376306 266.59142212189613 L 599.4773519163763 265.4063205417607 L 601.219512195122 268.45372460496617 L 602.9616724738676 272.0090293453725 L 604.7038327526133 277.4266365688487 L 606.445993031359 276.07223476297963 L 608.1881533101046 279.28893905191876 L 609.9303135888501 283.86004514672686 L 611.6724738675958 293.0022573363431 L 613.4146341463415 294.69525959367945 L 615.1567944250871 294.69525959367945 L 616.8989547038327 299.26636568848755 L 618.6411149825784 302.82167042889387 L 620.3832752613241 308.57787810383746 L 622.1254355400697 312.97968397291197 L 623.8675958188153 318.56659142212186 L 625.609756097561 328.0474040632054 L 627.3519163763067 327.7088036117382 L 629.0940766550523 326.18510158013544 L 630.8362369337979 331.43340857787814 L 632.5783972125436 334.14221218961626 L 634.3205574912893 356.32054176072234 L 636.0627177700349 340.4063205417607 L 637.8048780487804 337.528216704289 L 639.5470383275261 337.8668171557562 L 641.2891986062718 342.0993227990971 L 643.0313588850174 351.2415349887133 L 644.773519163763 371.7268623024831 L 646.5156794425087 358.35214446952597 L 648.2578397212544 357.6749435665914 L 650 355.9819413092551 L 650 400 Z" /><text  class="poloto_labels poloto_text poloto_title" alignment-baseline="start" text-anchor="middle" font-size="x-large" x="400" y="37.5" >Total players on 2021-12-14</text><text  class="poloto_labels poloto_text poloto_xname" alignment-baseline="start" text-anchor="middle" font-size="x-large" x="400" y="481.25" >Time</text><text  class="poloto_labels poloto_text poloto_yname" alignment-baseline="start" text-anchor="middle" font-size="x-large" transform="rotate(-90,37.5,250)" x="37.5" y="250" >Count</text><line  class="poloto_axis_lines" stroke="black" x1="150" x2="150" y1="400" y2="405" /><text  class="poloto_tick_labels poloto_text" alignment-baseline="start" text-anchor="middle" x="150" y="430" > 00:00</text><line  class="poloto_axis_lines" stroke="black" x1="266.14401858304296" x2="266.14401858304296" y1="400" y2="405" /><text  class="poloto_tick_labels poloto_text" alignment-baseline="start" text-anchor="middle" x="266.14401858304296" y="430" > 06:00</text><line  class="poloto_axis_lines" stroke="black" x1="382.2880371660859" x2="382.2880371660859" y1="400" y2="405" /><text  class="poloto_tick_labels poloto_text" alignment-baseline="start" text-anchor="middle" x="382.2880371660859" y="430" > 11:00</text><line  class="poloto_axis_lines" stroke="black" x1="498.4320557491289" x2="498.4320557491289" y1="400" y2="405" /><text  class="poloto_tick_labels poloto_text" alignment-baseline="start" text-anchor="middle" x="498.4320557491289" y="430" > 17:00</text><line  class="poloto_axis_lines" stroke="black" x1="614.5760743321719" x2="614.5760743321719" y1="400" y2="405" /><text  class="poloto_tick_labels poloto_text" alignment-baseline="start" text-anchor="middle" x="614.5760743321719" y="430" > 22:00</text><line  class="poloto_axis_lines" stroke="black" x1="150" x2="144" y1="372.0654627539503" y2="372.0654627539503" /><text  class="poloto_tick_labels poloto_text" alignment-baseline="middle" text-anchor="end" x="135" y="372.0654627539503" > 1000</text><line  class="poloto_axis_lines" stroke="black" x1="150" x2="144" y1="287.4153498871332" y2="287.4153498871332" /><text  class="poloto_tick_labels poloto_text" alignment-baseline="middle" text-anchor="end" x="135" y="287.4153498871332" > 1500</text><line  class="poloto_axis_lines" stroke="black" x1="150" x2="144" y1="202.76523702031602" y2="202.76523702031602" /><text  class="poloto_tick_labels poloto_text" alignment-baseline="middle" text-anchor="end" x="135" y="202.76523702031602" > 2000</text><line  class="poloto_axis_lines" stroke="black" x1="150" x2="144" y1="118.11512415349887" y2="118.11512415349887" /><text  class="poloto_tick_labels poloto_text" alignment-baseline="middle" text-anchor="end" x="135" y="118.11512415349887" > 2500</text><path  stroke="black" fill="none" class="poloto_axis_lines" style="stroke-dasharray:14.518002322880372;stroke-dashoffset:-0;" d=" M 150 400 L 650 400" /><path  stroke="black" fill="none" class="poloto_axis_lines" style="stroke-dasharray:8.465011286681715;stroke-dashoffset:-27.934537246049643;" d=" M 150 400 L 150 100" /></svg>