<svg class="poloto" width="800" height="500" viewBox="0 0 800 500" xmlns="http://www.w3.org/2000/svg"><style>.poloto { stroke-linecap:round; stroke-linejoin:round; font-family: 'Tahoma', sans-serif; background-color: AliceBlue;} .poloto_scatter{stroke-width:7} .poloto_line{stroke-width:2} .poloto_text{fill: black;} .poloto_axis_lines{stroke: black;stroke-width:3;fill:none;stroke-dasharray:none} .poloto0stroke{stroke:  blue;} .poloto1stroke{stroke:  red;} .poloto2stroke{stroke:  green;} .poloto3stroke{stroke:  gold;} .poloto4stroke{stroke:  aqua;} .poloto5stroke{stroke:  lime;} .poloto6stroke{stroke:  orange;} .poloto7stroke{stroke:  chocolate;} .poloto0fill{fill:blue;} .poloto1fill{fill:red;} .poloto2fill{fill:green;} .poloto3fill{fill:gold;} .poloto4fill{fill:aqua;} .poloto5fill{fill:lime;} .poloto6fill{fill:orange;} .poloto7fill{fill:chocolate;}</style><text  class="poloto_text poloto_legend_text" alignment-baseline="middle" text-anchor="start" font-size="large" x="675" y="100" ></text><path  class="poloto_linefill poloto0fill" d=" M 150 400 L 150 363.80165289256195 L 151.74216027874564 364.9586776859504 L 153.4843205574913 370.41322314049586 L 155.22648083623693 373.38842975206614 L 156.96864111498257 377.5206611570248 L 158.71080139372822 379.6694214876033 L 160.45296167247386 381.65289256198344 L 162.1951219512195 379.8347107438017 L 163.93728222996515 382.8099173553719 L 165.6794425087108 386.11570247933884 L 167.42160278745644 390.2479338842975 L 169.16376306620208 390.08264462809916 L 170.90592334494772 395.2066115702479 L 172.64808362369337 393.88429752066116 L 174.390243902439 397.5206611570248 L 176.13240418118465 398.8429752066116 L 177.8745644599303 397.8512396694215 L 179.61672473867597 400 L 181.3588850174216 397.1900826446281 L 183.10104529616726 398.8429752066116 L 184.8432055749129 393.38842975206614 L 186.58536585365854 394.7107438016529 L 188.3275261324042 396.19834710743805 L 190.06968641114983 396.5289256198347 L 191.81184668989548 395.3719008264463 L 193.55400696864112 393.88429752066116 L 195.29616724738676 392.89256198347107 L 197.0383275261324 391.5702479338843 L 198.78048780487805 389.42148760330576 L 200.5226480836237 384.9586776859504 L 202.26480836236934 382.1487603305785 L 204.00696864111498 376.19834710743805 L 205.74912891986062 381.9834710743802 L 207.49128919860627 382.97520661157023 L 209.2334494773519 385.6198347107438 L 210.97560975609755 385.4545454545455 L 212.7177700348432 383.80165289256195 L 214.45993031358887 387.10743801652893 L 216.2020905923345 394.3801652892562 L 217.94425087108016 394.21487603305786 L 219.6864111498258 392.56198347107437 L 221.42857142857144 390.08264462809916 L 223.1707317073171 391.23966942148763 L 224.91289198606273 393.22314049586777 L 226.65505226480838 390.57851239669424 L 228.39721254355402 392.2314049586777 L 230.13937282229966 389.25619834710744 L 231.8815331010453 387.43801652892563 L 233.62369337979095 388.09917355371897 L 235.3658536585366 387.43801652892563 L 237.10801393728224 386.9421487603306 L 238.85017421602788 387.27272727272725 L 240.59233449477352 388.59504132231405 L 242.33449477351917 385.12396694214874 L 244.0766550522648 384.9586776859504 L 245.81881533101046 385.4545454545455 L 247.5609756097561 382.1487603305785 L 249.30313588850174 378.8429752066116 L 251.0452961672474 379.8347107438017 L 252.78745644599303 380.1652892561983 L 254.52961672473867 374.7107438016529 L 256.2717770034843 377.3553719008264 L 258.01393728222996 374.04958677685954 L 259.7560975609756 371.40495867768595 L 261.49825783972125 377.02479338842977 L 263.2404181184669 378.8429752066116 L 264.98257839721254 380.6611570247934 L 266.7247386759582 382.1487603305785 L 268.4668989547038 383.9669421487603 L 270.20905923344947 387.7685950413223 L 271.9512195121951 388.4297520661157 L 273.69337979094075 385.12396694214874 L 275.4355400696864 386.9421487603306 L 277.17770034843204 387.10743801652893 L 278.91986062717774 385.4545454545455 L 280.6620209059233 387.7685950413223 L 282.404181184669 386.11570247933884 L 284.1463414634146 384.7933884297521 L 285.8885017421603 382.6446280991736 L 287.6306620209059 380.8264462809917 L 289.3728222996516 381.1570247933885 L 291.1149825783972 379.6694214876033 L 292.8571428571429 375.702479338843 L 294.5993031358885 376.8595041322314 L 296.3414634146342 372.56198347107437 L 298.08362369337976 369.91735537190084 L 299.82578397212546 370.74380165289256 L 301.56794425087105 369.7520661157025 L 303.31010452961675 367.603305785124 L 305.05226480836234 368.4297520661157 L 306.79442508710804 368.92561983471074 L 308.5365853658536 373.88429752066116 L 310.2787456445993 375.3719008264463 L 312.0209059233449 379.8347107438017 L 313.7630662020906 382.97520661157023 L 315.5052264808362 384.9586776859504 L 317.2473867595819 387.93388429752065 L 318.9895470383275 382.97520661157023 L 320.7317073170732 381.3223140495868 L 322.4738675958188 380.3305785123967 L 324.2160278745645 371.73553719008265 L 325.9581881533101 373.0578512396694 L 327.70034843205576 372.396694214876 L 329.4425087108014 372.396694214876 L 331.18466898954705 365.12396694214874 L 332.9268292682927 362.8099173553719 L 334.66898954703834 363.6363636363636 L 336.411149825784 360 L 338.1533101045296 360 L 339.89547038327527 360.4958677685951 L 341.6376306620209 353.0578512396694 L 343.37979094076655 343.3057851239669 L 345.1219512195122 350.9090909090909 L 346.86411149825784 346.44628099173553 L 348.6062717770035 346.2809917355372 L 350.34843205574913 344.46280991735534 L 352.0905923344948 342.97520661157023 L 353.8327526132404 343.6363636363636 L 355.57491289198606 335.8677685950413 L 357.3170731707317 330.74380165289256 L 359.05923344947735 332.2314049586777 L 360.801393728223 333.7190082644628 L 362.54355400696863 334.7107438016529 L 364.2857142857143 334.5454545454545 L 366.0278745644599 335.3719008264463 L 367.77003484320556 334.7107438016529 L 369.5121951219512 320.6611570247934 L 371.25435540069685 318.8429752066115 L 372.9965156794425 313.8842975206611 L 374.73867595818814 313.8842975206611 L 376.4808362369338 312.396694214876 L 378.2229965156795 308.09917355371897 L 379.96515679442507 303.9669421487604 L 381.70731707317077 306.61157024793386 L 383.44947735191636 300.8264462809917 L 385.19163763066206 301.3223140495868 L 386.93379790940764 299.00826446280996 L 388.67595818815334 300.33057851239664 L 390.41811846689893 293.2231404958677 L 392.16027874564463 294.5454545454545 L 393.9024390243902 294.5454545454545 L 395.6445993031359 301.4876033057851 L 397.3867595818815 290.08264462809916 L 399.1289198606272 291.0743801652892 L 400.8710801393728 287.10743801652893 L 402.6132404181185 295.37190082644634 L 404.3554006968641 279.66942148760336 L 406.0975609756098 272.2314049586777 L 407.8397212543554 274.5454545454545 L 409.58188153310107 269.42148760330576 L 411.3240418118467 272.2314049586777 L 413.06620209059236 268.09917355371897 L 414.808362369338 263.9669421487604 L 416.55052264808364 256.3636363636364 L 418.2926829268293 256.5289256198347 L 420.03484320557493 244.297520661157 L 421.7770034843206 244.297520661157 L 423.5191637630662 244.46280991735537 L 425.26132404181186 247.93388429752068 L 427.0034843205575 235.53719008264463 L 428.74564459930315 236.36363636363635 L 430.4878048780488 232.5619834710744 L 432.22996515679444 230.9090909090909 L 433.9721254355401 222.64462809917356 L 435.7142857142857 211.2396694214876 L 437.45644599303137 217.85123966942146 L 439.198606271777 199.50413223140495 L 440.94076655052265 183.80165289256198 L 442.6829268292683 185.12396694214877 L 444.42508710801394 178.84297520661156 L 446.1672473867596 175.86776859504133 L 447.9094076655052 170.2479338842975 L 449.65156794425087 174.0495867768595 L 451.3937282229965 167.60330578512398 L 453.13588850174216 154.54545454545453 L 454.8780487804878 156.85950413223142 L 456.62020905923345 150.2479338842975 L 458.3623693379791 158.67768595041323 L 460.10452961672473 145.2892561983471 L 461.8466898954704 150.2479338842975 L 463.588850174216 152.06611570247932 L 465.33101045296166 139.17355371900828 L 467.0731707317073 136.36363636363637 L 468.81533101045295 130.41322314049592 L 470.5574912891986 121.15702479338847 L 472.29965156794424 118.51239669421489 L 474.0418118466899 124.95867768595042 L 475.7839721254355 130.90909090909088 L 477.52613240418117 116.85950413223145 L 479.2682926829268 113.55371900826447 L 481.01045296167246 106.28099173553721 L 482.7526132404181 100 L 484.49477351916374 105.61983471074382 L 486.2369337979094 109.75206611570252 L 487.97909407665503 105.78512396694214 L 489.7212543554007 111.7355371900826 L 491.4634146341463 108.59504132231405 L 493.20557491289196 113.88429752066111 L 494.9477351916376 105.4545454545455 L 496.68989547038325 111.57024793388427 L 498.4320557491289 112.39669421487599 L 500.17421602787454 114.87603305785126 L 501.91637630662024 106.44628099173553 L 503.6585365853659 100.82644628099172 L 505.4006968641115 104.29752066115702 L 507.14285714285717 114.21487603305786 L 508.8850174216028 122.47933884297515 L 510.62717770034845 125.78512396694214 L 512.3693379790941 129.75206611570252 L 514.1114982578397 131.23966942148763 L 515.8536585365854 132.56198347107443 L 517.5958188153311 143.30578512396698 L 519.3379790940767 147.93388429752068 L 521.0801393728223 149.7520661157025 L 522.822299651568 155.53719008264463 L 524.5644599303137 172.2314049586777 L 526.3066202090592 183.63636363636365 L 528.0487804878048 190.2479338842975 L 529.7909407665505 194.3801652892562 L 531.5331010452962 198.67768595041323 L 533.2752613240418 209.9173553719008 L 535.0174216027874 208.92561983471072 L 536.7595818815331 200.49586776859505 L 538.5017421602788 200.16528925619835 L 540.2439024390244 206.94214876033058 L 541.98606271777 209.0909090909091 L 543.7282229965157 217.02479338842974 L 545.4703832752614 211.73553719008262 L 547.212543554007 219.50413223140495 L 548.9547038327526 216.19834710743802 L 550.6968641114983 212.72727272727272 L 552.439024390244 207.7685950413223 L 554.1811846689895 212.2314049586777 L 555.9233449477351 213.88429752066114 L 557.6655052264808 216.19834710743802 L 559.4076655052265 227.60330578512398 L 561.1498257839721 229.7520661157025 L 562.8919860627177 219.66942148760333 L 564.6341463414634 225.12396694214877 L 566.3763066202091 223.47107438016528 L 568.1184668989547 231.5702479338843 L 569.8606271777003 235.53719008264463 L 571.602787456446 235.0413223140496 L 573.3449477351917 235.20661157024793 L 575.0871080139373 238.51239669421486 L 576.8292682926829 244.79338842975207 L 578.5714285714286 248.7603305785124 L 580.3135888501743 245.9504132231405 L 582.0557491289198 284.1322314049587 L 583.7979094076654 248.92561983471072 L 585.5400696864111 256.694214876033 L 587.2822299651568 255.37190082644625 L 589.0243902439024 254.87603305785123 L 590.766550522648 258.34710743801656 L 592.5087108013937 268.9256198347107 L 594.2508710801394 261.65289256198344 L 595.993031358885 264.1322314049587 L 597.7351916376306 260.99173553719004 L 599.4773519163763 263.305785123967 L 601.219512195122 269.42148760330576 L 602.9616724738676 270.74380165289256 L 604.7038327526133 263.80165289256195 L 606.445993031359 263.6363636363636 L 608.1881533101046 263.9669421487604 L 609.9303135888501 300.8264462809917 L 611.6724738675958 283.80165289256195 L 613.4146341463415 285.95041322314046 L 615.1567944250871 294.04958677685954 L 616.8989547038327 288.59504132231405 L 618.6411149825784 294.21487603305786 L 620.3832752613241 295.8677685950413 L 622.1254355400697 298.6776859504132 L 623.8675958188153 300.33057851239664 L 625.609756097561 304.9586776859504 L 627.3519163763067 310.9090909090909 L 629.0940766550523 312.2314049586777 L 630.8362369337979 316.8595041322314 L 632.5783972125436 324.1322314049587 L 634.3205574912893 334.87603305785126 L 636.0627177700349 338.1818181818182 L 637.8048780487804 337.02479338842977 L 639.5470383275261 341.9834710743802 L 641.2891986062718 350.2479338842975 L 643.0313588850174 353.88429752066116 L 644.773519163763 353.38842975206614 L 646.5156794425087 357.02479338842977 L 648.2578397212544 360.3305785123967 L 650 363.4710743801653 L 650 400 Z" /><text  class="poloto_labels poloto_text poloto_title" alignment-baseline="start" text-anchor="middle" font-size="x-large" x="400" y="37.5" >Total players on 2021-09-08</text><text  class="poloto_labels poloto_text poloto_xname" alignment-baseline="start" text-anchor="middle" font-size="x-large" x="400" y="481.25" >Time</text><text  class="poloto_labels poloto_text poloto_yname" alignment-baseline="start" text-anchor="middle" font-size="x-large" transform="rotate(-90,37.5,250)" x="37.5" y="250" >Count</text><line  class="poloto_axis_lines" stroke="black" x1="150" x2="150" y1="400" y2="405" /><text  class="poloto_tick_labels poloto_text" alignment-baseline="start" text-anchor="middle" x="150" y="430" > 00:00</text><line  class="poloto_axis_lines" stroke="black" x1="266.14401858304296" x2="266.14401858304296" y1="400" y2="405" /><text  class="poloto_tick_labels poloto_text" alignment-baseline="start" text-anchor="middle" x="266.14401858304296" y="430" > 06:00</text><line  class="poloto_axis_lines" stroke="black" x1="382.2880371660859" x2="382.2880371660859" y1="400" y2="405" /><text  class="poloto_tick_labels poloto_text" alignment-baseline="start" text-anchor="middle" x="382.2880371660859" y="430" > 11:00</text><line  class="poloto_axis_lines" stroke="black" x1="498.4320557491289" x2="498.4320557491289" y1="400" y2="405" /><text  class="poloto_tick_labels poloto_text" alignment-baseline="start" text-anchor="middle" x="498.4320557491289" y="430" > 17:00</text><line  class="poloto_axis_lines" stroke="black" x1="614.5760743321719" x2="614.5760743321719" y1="400" y2="405" /><text  class="poloto_tick_labels poloto_text" alignment-baseline="start" text-anchor="middle" x="614.5760743321719" y="430" > 22:00</text><line  class="poloto_axis_lines" stroke="black" x1="150" x2="144" y1="323.6363636363636" y2="323.6363636363636" /><text  class="poloto_tick_labels poloto_text" alignment-baseline="middle" text-anchor="end" x="135" y="323.6363636363636" > 1500</text><line  class="poloto_axis_lines" stroke="black" x1="150" x2="144" y1="240.99173553719004" y2="240.99173553719004" /><text  class="poloto_tick_labels poloto_text" alignment-baseline="middle" text-anchor="end" x="135" y="240.99173553719004" > 2000</text><line  class="poloto_axis_lines" stroke="black" x1="150" x2="144" y1="158.34710743801656" y2="158.34710743801656" /><text  class="poloto_tick_labels poloto_text" alignment-baseline="middle" text-anchor="end" x="135" y="158.34710743801656" > 2500</text><path  stroke="black" fill="none" class="poloto_axis_lines" style="stroke-dasharray:14.518002322880372;stroke-dashoffset:-0;" d=" M 150 400 L 650 400" /><path  stroke="black" fill="none" class="poloto_axis_lines" style="stroke-dasharray:8.264462809917356;stroke-dashoffset:-76.36363636363637;" d=" M 150 400 L 150 100" /></svg>