<svg class="poloto" width="800" height="500" viewBox="0 0 800 500" xmlns="http://www.w3.org/2000/svg"><style>.poloto { stroke-linecap:round; stroke-linejoin:round; font-family: 'Tahoma', sans-serif; background-color: AliceBlue;} .poloto_scatter{stroke-width:7} .poloto_line{stroke-width:2} .poloto_text{fill: black;} .poloto_axis_lines{stroke: black;stroke-width:3;fill:none;stroke-dasharray:none} .poloto0stroke{stroke:  blue;} .poloto1stroke{stroke:  red;} .poloto2stroke{stroke:  green;} .poloto3stroke{stroke:  gold;} .poloto4stroke{stroke:  aqua;} .poloto5stroke{stroke:  lime;} .poloto6stroke{stroke:  orange;} .poloto7stroke{stroke:  chocolate;} .poloto0fill{fill:blue;} .poloto1fill{fill:red;} .poloto2fill{fill:green;} .poloto3fill{fill:gold;} .poloto4fill{fill:aqua;} .poloto5fill{fill:lime;} .poloto6fill{fill:orange;} .poloto7fill{fill:chocolate;}</style><text  class="poloto_text poloto_legend_text" alignment-baseline="middle" text-anchor="start" font-size="large" x="675" y="100" ></text><path  class="poloto_linefill poloto0fill" d=" M 150 400 L 150 339.0359168241966 L 151.74216027874564 348.2514177693762 L 153.4843205574913 351.937618147448 L 155.22648083623693 362.7126654064272 L 156.96864111498257 360.586011342155 L 158.71080139372822 359.02646502835535 L 160.45296167247386 359.02646502835535 L 162.1951219512195 357.3251417769376 L 163.93728222996515 360.586011342155 L 165.6794425087108 358.0340264650283 L 167.42160278745644 358.6011342155009 L 169.16376306620208 360.01890359168243 L 170.90592334494772 362.4291115311909 L 172.64808362369337 361.29489603024575 L 174.390243902439 362.4291115311909 L 176.13240418118465 365.83175803402645 L 177.8745644599303 368.95085066162574 L 179.61672473867597 372.06994328922497 L 181.3588850174216 374.76370510396976 L 183.10104529616726 371.6446124763705 L 184.8432055749129 378.4499054820416 L 186.58536585365854 379.01701323251416 L 188.3275261324042 382.1361058601134 L 190.06968641114983 383.55387523629486 L 191.81184668989548 386.10586011342156 L 193.55400696864112 389.7920604914934 L 195.29616724738676 389.7920604914934 L 197.0383275261324 386.67296786389414 L 198.78048780487805 389.9338374291115 L 200.5226480836237 387.66540642722117 L 202.26480836236934 387.24007561436673 L 204.00696864111498 388.79962192816635 L 205.74912891986062 380.86011342155007 L 207.49128919860627 383.1285444234404 L 209.2334494773519 381.14366729678636 L 210.97560975609755 383.27032136105856 L 212.7177700348432 384.68809073724003 L 214.45993031358887 382.4196597353497 L 216.2020905923345 383.83742911153115 L 217.94425087108016 384.8298676748582 L 219.6864111498258 386.95652173913044 L 221.42857142857144 387.0982986767486 L 223.1707317073171 390.5009451795841 L 224.91289198606273 395.88846880907374 L 226.65505226480838 396.7391304347826 L 228.39721254355402 397.73156899810965 L 230.13937282229966 400 L 231.8815331010453 399.1493383742911 L 233.62369337979095 394.187145557656 L 235.3658536585366 395.7466918714556 L 237.10801393728224 394.4706994328923 L 238.85017421602788 398.29867674858224 L 240.59233449477352 396.3137996219282 L 242.33449477351917 397.3062381852552 L 244.0766550522648 394.04536862003783 L 245.81881533101046 394.4706994328923 L 247.5609756097561 396.88090737240077 L 249.30313588850174 395.88846880907374 L 251.0452961672474 395.03780718336486 L 252.78745644599303 396.0302457466919 L 254.52961672473867 396.7391304347826 L 256.2717770034843 394.8960302457467 L 258.01393728222996 390.7844990548204 L 259.7560975609756 395.03780718336486 L 261.49825783972125 393.47826086956525 L 263.2404181184669 395.7466918714556 L 264.98257839721254 398.29867674858224 L 266.7247386759582 398.01512287334594 L 268.4668989547038 398.58223062381853 L 270.20905923344947 397.5897920604915 L 271.9512195121951 396.3137996219282 L 273.69337979094075 394.3289224952741 L 275.4355400696864 393.6200378071834 L 277.17770034843204 389.7920604914934 L 278.91986062717774 387.8071833648393 L 280.6620209059233 386.531190926276 L 282.404181184669 380.2930056710775 L 284.1463414634146 379.1587901701323 L 285.8885017421603 375.4725897920605 L 287.6306620209059 371.5028355387524 L 289.3728222996516 368.95085066162574 L 291.1149825783972 367.6748582230624 L 292.8571428571429 360.01890359168243 L 294.5993031358885 359.73534971644614 L 296.3414634146342 361.29489603024575 L 298.08362369337976 361.4366729678639 L 299.82578397212546 363.13799621928166 L 301.56794425087105 362.85444234404537 L 303.31010452961675 364.98109640831757 L 305.05226480836234 365.1228733459357 L 306.79442508710804 368.241965973535 L 308.5365853658536 369.23440453686203 L 310.2787456445993 370.9357277882798 L 312.0209059233449 373.062381852552 L 313.7630662020906 373.6294896030246 L 315.5052264808362 373.062381852552 L 317.2473867595819 373.7712665406427 L 318.9895470383275 378.5916824196597 L 320.7317073170732 376.7485822306238 L 322.4738675958188 377.45746691871454 L 324.2160278745645 374.48015122873346 L 325.9581881533101 372.63705103969755 L 327.70034843205576 369.23440453686203 L 329.4425087108014 367.53308128544427 L 331.18466898954705 365.1228733459357 L 332.9268292682927 370.51039697542535 L 334.66898954703834 370.22684310018906 L 336.411149825784 370.51039697542535 L 338.1533101045296 375.4725897920605 L 339.89547038327527 370.3686200378072 L 341.6376306620209 369.0926275992439 L 343.37979094076655 365.83175803402645 L 345.1219512195122 359.02646502835535 L 346.86411149825784 361.01134215500946 L 348.6062717770035 358.6011342155009 L 350.34843205574913 358.74291115311905 L 352.0905923344948 359.59357277882793 L 353.8327526132404 359.02646502835535 L 355.57491289198606 357.8922495274102 L 357.3170731707317 354.6313799621928 L 359.05923344947735 351.2287334593573 L 360.801393728223 350.6616257088847 L 362.54355400696863 347.4007561436673 L 364.2857142857143 343.4310018903592 L 366.0278745644599 343.57277882797734 L 367.77003484320556 339.3194706994329 L 369.5121951219512 332.5141776937618 L 371.25435540069685 329.96219281663514 L 372.9965156794425 326.2759924385633 L 374.73867595818814 318.3364839319471 L 376.4808362369338 318.9035916824197 L 378.2229965156795 310.82230623818526 L 379.96515679442507 307.56143667296783 L 381.70731707317077 307.4196597353497 L 383.44947735191636 306.99432892249524 L 385.19163763066206 304.86767485822304 L 386.93379790940764 297.2117202268431 L 388.67595818815334 293.241965973535 L 390.41811846689893 288.2797731568998 L 392.16027874564463 285.44423440453687 L 393.9024390243902 284.593572778828 L 395.6445993031359 277.2211720226843 L 397.3867595818815 274.10207939508507 L 399.1289198606272 268.57277882797734 L 400.8710801393728 266.5879017013233 L 402.6132404181185 271.5500945179584 L 404.3554006968641 267.01323251417773 L 406.0975609756098 263.8941398865785 L 407.8397212543554 261.05860113421545 L 409.58188153310107 252.83553875236296 L 411.3240418118467 250.70888468809076 L 413.06620209059236 244.18714555765595 L 414.808362369338 241.49338374291116 L 416.55052264808364 240.92627599243858 L 418.2926829268293 233.55387523629489 L 420.03484320557493 227.882797731569 L 421.7770034843206 228.4499054820416 L 423.5191637630662 220.79395085066162 L 425.26132404181186 216.68241965973536 L 427.0034843205575 211.15311909262758 L 428.74564459930315 204.20604914933838 L 430.4878048780488 199.81096408317583 L 432.22996515679444 195.13232514177693 L 433.9721254355401 199.52741020793954 L 435.7142857142857 192.15500945179585 L 437.45644599303137 190.73724007561438 L 439.198606271777 191.16257088846882 L 440.94076655052265 189.03591682419662 L 442.6829268292683 185.77504725897919 L 444.42508710801394 183.64839319470698 L 446.1672473867596 177.41020793950852 L 447.9094076655052 167.91115311909263 L 449.65156794425087 163.51606805293008 L 451.3937282229965 159.5463137996219 L 453.13588850174216 157.84499054820415 L 454.8780487804878 157.703213610586 L 456.62020905923345 154.15879017013233 L 458.3623693379791 153.4499054820416 L 460.10452961672473 154.30056710775048 L 461.8466898954704 146.3610586011342 L 463.588850174216 151.3232514177694 L 465.33101045296166 137.1455576559547 L 467.0731707317073 128.21361058601133 L 468.81533101045295 117.72211720226846 L 470.5574912891986 129.0642722117202 L 472.29965156794424 122.25897920604916 L 474.0418118466899 124.95274102079395 L 475.7839721254355 122.6843100189036 L 477.52613240418117 119.84877126654067 L 479.2682926829268 107.37240075614363 L 481.01045296167246 106.52173913043475 L 482.7526132404181 101.13421550094517 L 484.49477351916374 102.55198487712664 L 486.2369337979094 100 L 487.97909407665503 105.95463137996217 L 489.7212543554007 100.85066162570888 L 491.4634146341463 101.98487712665406 L 493.20557491289196 103.54442344045367 L 494.9477351916376 109.92438563327028 L 496.68989547038325 107.37240075614363 L 498.4320557491289 105.10396975425328 L 500.17421602787454 107.08884688090734 L 501.91637630662024 111.7674858223063 L 503.6585365853659 109.49905482041584 L 505.4006968641115 107.79773156899807 L 507.14285714285717 114.88657844990553 L 508.8850174216028 119.84877126654067 L 510.62717770034845 129.0642722117202 L 512.3693379790941 114.46124763705109 L 514.1114982578397 123.10964083175804 L 515.8536585365854 127.07939508506615 L 517.5958188153311 121.55009451795843 L 519.3379790940767 126.08695652173913 L 521.0801393728223 133.45935727788276 L 522.822299651568 130.62381852551982 L 524.5644599303137 151.0396975425331 L 526.3066202090592 142.10775047258983 L 528.0487804878048 145.22684310018903 L 529.7909407665505 149.1965973534972 L 531.5331010452962 153.4499054820416 L 533.2752613240418 156.99432892249527 L 535.0174216027874 164.5085066162571 L 536.7595818815331 169.3289224952741 L 538.5017421602788 175.99243856332706 L 540.2439024390244 174.14933837429115 L 541.98606271777 170.17958412098298 L 543.7282229965157 175.70888468809076 L 545.4703832752614 184.21550094517957 L 547.212543554007 189.74480151228735 L 548.9547038327526 198.53497164461245 L 550.6968641114983 197.40075614366728 L 552.439024390244 194.7069943289225 L 554.1811846689895 201.5122873345936 L 555.9233449477351 202.50472589792062 L 557.6655052264808 204.91493383742912 L 559.4076655052265 210.0189035916824 L 561.1498257839721 214.413988657845 L 562.8919860627177 213.1379962192817 L 564.6341463414634 207.75047258979205 L 566.3763066202091 215.68998109640833 L 568.1184668989547 212.14555765595466 L 569.8606271777003 215.12287334593574 L 571.602787456446 219.94328922495274 L 573.3449477351917 220.51039697542532 L 575.0871080139373 217.1077504725898 L 576.8292682926829 219.09262759924385 L 578.5714285714286 221.21928166351606 L 580.3135888501743 227.59924385633272 L 582.0557491289198 224.1965973534972 L 583.7979094076654 225.18903591682422 L 585.5400696864111 231.71077504725898 L 587.2822299651568 229.86767485822307 L 589.0243902439024 226.3232514177694 L 590.766550522648 235.53875236294894 L 592.5087108013937 233.55387523629489 L 594.2508710801394 237.9489603024575 L 595.993031358885 242.76937618147448 L 597.7351916376306 242.91115311909263 L 599.4773519163763 244.47069943289225 L 601.219512195122 251.55954631379964 L 602.9616724738676 245.32136105860113 L 604.7038327526133 238.51606805293008 L 606.445993031359 247.30623818525518 L 608.1881533101046 247.16446124763704 L 609.9303135888501 251.4177693761815 L 611.6724738675958 258.7901701323251 L 613.4146341463415 261.05860113421545 L 615.1567944250871 266.16257088846885 L 616.8989547038327 267.72211720226846 L 618.6411149825784 273.2514177693762 L 620.3832752613241 274.2438563327032 L 622.1254355400697 277.7882797731569 L 623.8675958188153 279.6313799621928 L 625.609756097561 281.4744801512287 L 627.3519163763067 284.73534971644614 L 629.0940766550523 296.36105860113423 L 630.8362369337979 300.1890359168242 L 632.5783972125436 305.86011342155007 L 634.3205574912893 309.4045368620038 L 636.0627177700349 309.82986767485824 L 637.8048780487804 310.82230623818526 L 639.5470383275261 312.66540642722117 L 641.2891986062718 316.35160680529304 L 643.0313588850174 319.4706994328923 L 644.773519163763 327.4102079395085 L 646.5156794425087 329.39508506616255 L 648.2578397212544 330.6710775047259 L 650 328.82797731568996 L 650 400 Z" /><text  class="poloto_labels poloto_text poloto_title" alignment-baseline="start" text-anchor="middle" font-size="x-large" x="400" y="37.5" >Total players on 2021-10-22</text><text  class="poloto_labels poloto_text poloto_xname" alignment-baseline="start" text-anchor="middle" font-size="x-large" x="400" y="481.25" >Time</text><text  class="poloto_labels poloto_text poloto_yname" alignment-baseline="start" text-anchor="middle" font-size="x-large" transform="rotate(-90,37.5,250)" x="37.5" y="250" >Count</text><line  class="poloto_axis_lines" stroke="black" x1="150" x2="150" y1="400" y2="405" /><text  class="poloto_tick_labels poloto_text" alignment-baseline="start" text-anchor="middle" x="150" y="430" > 00:00</text><line  class="poloto_axis_lines" stroke="black" x1="266.14401858304296" x2="266.14401858304296" y1="400" y2="405" /><text  class="poloto_tick_labels poloto_text" alignment-baseline="start" text-anchor="middle" x="266.14401858304296" y="430" > 06:00</text><line  class="poloto_axis_lines" stroke="black" x1="382.2880371660859" x2="382.2880371660859" y1="400" y2="405" /><text  class="poloto_tick_labels poloto_text" alignment-baseline="start" text-anchor="middle" x="382.2880371660859" y="430" > 11:00</text><line  class="poloto_axis_lines" stroke="black" x1="498.4320557491289" x2="498.4320557491289" y1="400" y2="405" /><text  class="poloto_tick_labels poloto_text" alignment-baseline="start" text-anchor="middle" x="498.4320557491289" y="430" > 17:00</text><line  class="poloto_axis_lines" stroke="black" x1="614.5760743321719" x2="614.5760743321719" y1="400" y2="405" /><text  class="poloto_tick_labels poloto_text" alignment-baseline="start" text-anchor="middle" x="614.5760743321719" y="430" > 22:00</text><line  class="poloto_axis_lines" stroke="black" x1="150" x2="144" y1="378.875236294896" y2="378.875236294896" /><text  class="poloto_tick_labels poloto_text" alignment-baseline="middle" text-anchor="end" x="135" y="378.875236294896" > 1000</text><line  class="poloto_axis_lines" stroke="black" x1="150" x2="144" y1="307.98676748582227" y2="307.98676748582227" /><text  class="poloto_tick_labels poloto_text" alignment-baseline="middle" text-anchor="end" x="135" y="307.98676748582227" > 1500</text><line  class="poloto_axis_lines" stroke="black" x1="150" x2="144" y1="237.09829867674864" y2="237.09829867674864" /><text  class="poloto_tick_labels poloto_text" alignment-baseline="middle" text-anchor="end" x="135" y="237.09829867674864" > 2000</text><line  class="poloto_axis_lines" stroke="black" x1="150" x2="144" y1="166.2098298676749" y2="166.2098298676749" /><text  class="poloto_tick_labels poloto_text" alignment-baseline="middle" text-anchor="end" x="135" y="166.2098298676749" > 2500</text><path  stroke="black" fill="none" class="poloto_axis_lines" style="stroke-dasharray:14.518002322880372;stroke-dashoffset:-0;" d=" M 150 400 L 650 400" /><path  stroke="black" fill="none" class="poloto_axis_lines" style="stroke-dasharray:7.088846880907371;stroke-dashoffset:-21.12476370510396;" d=" M 150 400 L 150 100" /></svg>