<svg class="poloto" width="800" height="500" viewBox="0 0 800 500" xmlns="http://www.w3.org/2000/svg"><style>.poloto { stroke-linecap:round; stroke-linejoin:round; font-family: 'Tahoma', sans-serif; background-color: AliceBlue;} .poloto_scatter{stroke-width:7} .poloto_line{stroke-width:2} .poloto_text{fill: black;} .poloto_axis_lines{stroke: black;stroke-width:3;fill:none;stroke-dasharray:none} .poloto0stroke{stroke:  blue;} .poloto1stroke{stroke:  red;} .poloto2stroke{stroke:  green;} .poloto3stroke{stroke:  gold;} .poloto4stroke{stroke:  aqua;} .poloto5stroke{stroke:  lime;} .poloto6stroke{stroke:  orange;} .poloto7stroke{stroke:  chocolate;} .poloto0fill{fill:blue;} .poloto1fill{fill:red;} .poloto2fill{fill:green;} .poloto3fill{fill:gold;} .poloto4fill{fill:aqua;} .poloto5fill{fill:lime;} .poloto6fill{fill:orange;} .poloto7fill{fill:chocolate;}</style><text  class="poloto_text poloto_legend_text" alignment-baseline="middle" text-anchor="start" font-size="large" x="675" y="100" ></text><path  class="poloto_linefill poloto0fill" d=" M 150 400 L 150 321.4052287581699 L 151.74216027874564 321.4052287581699 L 153.4843205574913 316.99346405228755 L 155.22648083623693 320.5882352941177 L 156.96864111498257 318.1372549019608 L 158.71080139372822 327.6143790849673 L 160.45296167247386 331.37254901960785 L 162.1951219512195 333.1699346405229 L 163.93728222996515 334.80392156862746 L 165.6794425087108 335.2941176470588 L 167.42160278745644 337.90849673202615 L 169.16376306620208 347.3856209150327 L 170.90592334494772 343.4640522875817 L 172.64808362369337 343.62745098039215 L 174.390243902439 351.6339869281046 L 176.13240418118465 353.92156862745094 L 177.8745644599303 353.92156862745094 L 179.61672473867597 358.4967320261438 L 181.3588850174216 359.640522875817 L 183.10104529616726 366.99346405228755 L 184.8432055749129 365.6862745098039 L 186.58536585365854 367.9738562091503 L 188.3275261324042 370.4248366013072 L 190.06968641114983 371.73202614379085 L 191.81184668989548 380.06535947712416 L 193.55400696864112 383.8235294117647 L 195.29616724738676 381.0457516339869 L 197.0383275261324 378.26797385620915 L 198.78048780487805 379.9019607843137 L 200.5226480836237 381.5359477124183 L 202.26480836236934 385.45751633986924 L 204.00696864111498 387.58169934640523 L 205.74912891986062 398.3660130718954 L 207.49128919860627 398.3660130718954 L 209.2334494773519 400 L 210.97560975609755 392.81045751633985 L 212.7177700348432 392.81045751633985 L 214.45993031358887 388.2352941176471 L 216.2020905923345 384.47712418300654 L 217.94425087108016 383.00653594771245 L 219.6864111498258 383.33333333333337 L 221.42857142857144 391.50326797385617 L 223.1707317073171 385.78431372549016 L 224.91289198606273 389.8692810457516 L 226.65505226480838 389.8692810457516 L 228.39721254355402 386.437908496732 L 230.13937282229966 386.1111111111111 L 231.8815331010453 390.8496732026144 L 233.62369337979095 388.2352941176471 L 235.3658536585366 383.1699346405229 L 237.10801393728224 383.66013071895424 L 238.85017421602788 384.640522875817 L 240.59233449477352 390.359477124183 L 242.33449477351917 381.8627450980392 L 244.0766550522648 374.6732026143791 L 245.81881533101046 376.6339869281046 L 247.5609756097561 378.4313725490196 L 249.30313588850174 382.67973856209153 L 251.0452961672474 384.1503267973856 L 252.78745644599303 381.2091503267974 L 254.52961672473867 381.2091503267974 L 256.2717770034843 379.9019607843137 L 258.01393728222996 378.92156862745094 L 259.7560975609756 379.5751633986928 L 261.49825783972125 382.0261437908497 L 263.2404181184669 378.92156862745094 L 264.98257839721254 383.4967320261438 L 266.7247386759582 383.4967320261438 L 268.4668989547038 389.0522875816994 L 270.20905923344947 386.1111111111111 L 271.9512195121951 384.640522875817 L 273.69337979094075 381.69934640522877 L 275.4355400696864 382.67973856209153 L 277.17770034843204 374.1830065359477 L 278.9198606271777 375 L 280.6620209059233 367.32026143790847 L 282.40418118466897 371.078431372549 L 284.1463414634146 368.7908496732026 L 285.88850174216026 370.0980392156863 L 287.6306620209059 368.9542483660131 L 289.37282229965155 370.26143790849676 L 291.1149825783972 366.01307189542484 L 292.85714285714283 366.01307189542484 L 294.5993031358885 365.359477124183 L 296.3414634146342 368.1372549019608 L 298.08362369337976 368.4640522875817 L 299.82578397212546 367.6470588235294 L 301.56794425087105 371.73202614379085 L 303.31010452961675 371.5686274509804 L 305.05226480836234 375.65359477124184 L 306.79442508710804 375 L 308.5365853658536 371.73202614379085 L 310.2787456445993 367.32026143790847 L 312.0209059233449 368.7908496732026 L 313.7630662020906 364.0522875816994 L 315.5052264808362 363.0718954248366 L 317.2473867595819 364.54248366013076 L 318.9895470383275 362.2549019607843 L 320.7317073170732 358.8235294117647 L 322.4738675958188 359.96732026143786 L 324.2160278745645 358.4967320261438 L 325.95818815331006 355.2287581699346 L 327.70034843205576 350.4901960784314 L 329.44250871080135 347.71241830065355 L 331.18466898954705 348.6928104575163 L 332.92682926829264 346.078431372549 L 334.66898954703834 344.44444444444446 L 336.4111498257839 341.01307189542484 L 338.1533101045296 331.37254901960785 L 339.8954703832752 331.8627450980392 L 341.6376306620209 330.718954248366 L 343.3797909407665 328.5947712418301 L 345.1219512195122 323.20261437908493 L 346.86411149825784 320.0980392156863 L 348.6062717770035 319.44444444444446 L 350.34843205574913 319.7712418300654 L 352.0905923344948 315.0326797385621 L 353.8327526132404 310.78431372549016 L 355.57491289198606 305.2287581699346 L 357.3170731707317 295.91503267973854 L 359.05923344947735 297.38562091503263 L 360.801393728223 289.54248366013076 L 362.54355400696863 291.0130718954248 L 364.2857142857143 290.5228758169934 L 366.0278745644599 286.7647058823529 L 367.77003484320556 282.843137254902 L 369.5121951219512 277.124183006536 L 371.25435540069685 275.4901960784314 L 372.9965156794425 276.3071895424837 L 374.73867595818814 273.52941176470586 L 376.4808362369338 272.71241830065355 L 378.2229965156794 273.3660130718954 L 379.96515679442507 265.8496732026143 L 381.7073170731707 267.48366013071893 L 383.44947735191636 271.07843137254906 L 385.191637630662 276.47058823529414 L 386.93379790940764 274.01960784313724 L 388.6759581881533 269.7712418300654 L 390.41811846689893 262.90849673202615 L 392.1602787456446 257.3529411764706 L 393.9024390243902 250.16339869281043 L 395.6445993031359 252.45098039215688 L 397.3867595818815 242.97385620915034 L 399.1289198606272 246.40522875816995 L 400.8710801393728 240.6862745098039 L 402.6132404181185 235.62091503267973 L 404.3554006968641 229.90196078431373 L 406.0975609756097 231.69934640522874 L 407.83972125435537 235.45751633986927 L 409.581881533101 230.8823529411765 L 411.32404181184666 228.92156862745097 L 413.0662020905923 220.58823529411765 L 414.80836236933794 216.99346405228758 L 416.5505226480836 216.01307189542482 L 418.29268292682923 205.0653594771242 L 420.0348432055749 201.1437908496732 L 421.7770034843206 203.59477124183005 L 423.5191637630662 203.92156862745097 L 425.26132404181186 198.36601307189542 L 427.0034843205575 192.15686274509804 L 428.74564459930315 187.90849673202612 L 430.4878048780488 188.3986928104575 L 432.22996515679444 191.5032679738562 L 433.9721254355401 185.2941176470588 L 435.7142857142857 186.76470588235296 L 437.45644599303137 168.62745098039213 L 439.198606271777 160.2941176470588 L 440.94076655052265 157.02614379084966 L 442.6829268292683 158.4967320261438 L 444.42508710801394 164.37908496732027 L 446.1672473867596 159.80392156862743 L 447.9094076655052 154.5751633986928 L 449.65156794425087 152.9411764705882 L 451.3937282229965 141.50326797385617 L 453.13588850174216 137.2549019607843 L 454.8780487804878 135.6209150326797 L 456.62020905923345 135.29411764705878 L 458.3623693379791 135.29411764705878 L 460.10452961672473 127.45098039215691 L 461.8466898954704 125.8169934640523 L 463.588850174216 125 L 465.33101045296166 130.55555555555554 L 467.0731707317073 131.86274509803923 L 468.81533101045295 120.26143790849676 L 470.5574912891986 122.54901960784309 L 472.29965156794424 125.32679738562092 L 474.0418118466899 118.13725490196077 L 475.7839721254355 109.47712418300648 L 477.52613240418117 106.69934640522877 L 479.2682926829268 108.16993464052291 L 481.01045296167246 108.00653594771245 L 482.7526132404181 112.58169934640523 L 484.49477351916374 114.70588235294122 L 486.2369337979094 122.87581699346401 L 487.97909407665503 122.87581699346401 L 489.7212543554007 117.81045751633985 L 491.4634146341463 110.45751633986924 L 493.20557491289196 109.47712418300648 L 494.9477351916376 104.73856209150324 L 496.68989547038325 100 L 498.4320557491289 110.45751633986924 L 500.17421602787454 113.39869281045753 L 501.9163763066202 111.60130718954247 L 503.6585365853658 116.50326797385617 L 505.40069686411147 111.27450980392155 L 507.1428571428571 125.32679738562092 L 508.88501742160275 122.05882352941171 L 510.6271777003484 127.45098039215691 L 512.3693379790941 127.45098039215691 L 514.1114982578397 135.13071895424832 L 515.8536585365853 130.39215686274508 L 517.595818815331 132.18954248366015 L 519.3379790940767 131.5359477124183 L 521.0801393728223 130.22875816993462 L 522.822299651568 129.9019607843137 L 524.5644599303137 131.37254901960785 L 526.3066202090592 137.7450980392157 L 528.0487804878048 148.20261437908496 L 529.7909407665505 151.47058823529412 L 531.5331010452962 154.2483660130719 L 533.2752613240418 159.80392156862743 L 535.0174216027874 159.64052287581697 L 536.7595818815331 171.2418300653595 L 538.5017421602788 177.28758169934642 L 540.2439024390244 182.18954248366012 L 541.98606271777 186.27450980392157 L 543.7282229965157 190.19607843137257 L 545.4703832752614 191.33986928104574 L 547.212543554007 193.46405228758167 L 548.9547038327526 194.1176470588235 L 550.6968641114983 195.7516339869281 L 552.439024390244 200.98039215686273 L 554.1811846689895 212.74509803921566 L 555.9233449477351 198.52941176470588 L 557.6655052264808 203.92156862745097 L 559.4076655052265 213.56209150326796 L 561.1498257839721 211.76470588235296 L 562.8919860627177 211.6013071895425 L 564.6341463414634 207.35294117647058 L 566.3763066202091 200.16339869281043 L 568.1184668989547 194.28104575163397 L 569.8606271777003 191.66666666666666 L 571.602787456446 203.7581699346405 L 573.3449477351917 208.82352941176472 L 575.0871080139373 214.2156862745098 L 576.8292682926829 209.80392156862743 L 578.5714285714286 204.08496732026143 L 580.3135888501743 211.6013071895425 L 582.0557491289198 208.82352941176472 L 583.7979094076654 204.08496732026143 L 585.5400696864111 211.43790849673204 L 587.2822299651568 214.54248366013073 L 589.0243902439024 216.83006535947712 L 590.766550522648 224.8366013071895 L 592.5087108013937 223.36601307189542 L 594.2508710801394 228.43137254901958 L 595.993031358885 229.73856209150327 L 597.7351916376306 224.99999999999997 L 599.4773519163763 234.64052287581697 L 601.219512195122 234.31372549019605 L 602.9616724738676 238.72549019607843 L 604.7038327526132 243.95424836601305 L 606.4459930313589 242.97385620915034 L 608.1881533101046 248.20261437908496 L 609.9303135888501 245.26143790849673 L 611.6724738675957 248.0392156862745 L 613.4146341463414 244.9346405228758 L 615.1567944250871 253.7581699346405 L 616.8989547038327 253.10457516339866 L 618.6411149825783 249.99999999999997 L 620.383275261324 261.437908496732 L 622.1254355400697 257.843137254902 L 623.8675958188153 243.7908496732026 L 625.609756097561 256.2091503267974 L 627.3519163763067 261.60130718954247 L 629.0940766550523 261.437908496732 L 630.8362369337979 269.7712418300654 L 632.5783972125436 275.3267973856209 L 634.3205574912893 276.79738562091507 L 636.0627177700349 283.49673202614383 L 637.8048780487804 289.0522875816994 L 639.5470383275261 289.54248366013076 L 641.2891986062718 296.4052287581699 L 643.0313588850174 293.1372549019608 L 644.773519163763 293.30065359477123 L 646.5156794425087 299.01960784313724 L 648.2578397212544 298.52941176470586 L 650 300.65359477124184 L 650 400 Z" /><text  class="poloto_labels poloto_text poloto_title" alignment-baseline="start" text-anchor="middle" font-size="x-large" x="400" y="37.5" >Total players on 2021-06-18</text><text  class="poloto_labels poloto_text poloto_xname" alignment-baseline="start" text-anchor="middle" font-size="x-large" x="400" y="481.25" >Time</text><text  class="poloto_labels poloto_text poloto_yname" alignment-baseline="start" text-anchor="middle" font-size="x-large" transform="rotate(-90,37.5,250)" x="37.5" y="250" >Count</text><line  class="poloto_axis_lines" stroke="black" x1="208.0487804878049" x2="208.0487804878049" y1="400" y2="405" /><text  class="poloto_tick_labels poloto_text" alignment-baseline="start" text-anchor="middle" x="208.0487804878049" y="430" > 02:46:40</text><line  class="poloto_axis_lines" stroke="black" x1="266.1207897793264" x2="266.1207897793264" y1="400" y2="405" /><text  class="poloto_tick_labels poloto_text" alignment-baseline="start" text-anchor="middle" x="266.1207897793264" y="430" > 05:33:20</text><line  class="poloto_axis_lines" stroke="black" x1="324.19279907084785" x2="324.19279907084785" y1="400" y2="405" /><text  class="poloto_tick_labels poloto_text" alignment-baseline="start" text-anchor="middle" x="324.19279907084785" y="430" > 08:20:00</text><line  class="poloto_axis_lines" stroke="black" x1="382.2648083623693" x2="382.2648083623693" y1="400" y2="405" /><text  class="poloto_tick_labels poloto_text" alignment-baseline="start" text-anchor="middle" x="382.2648083623693" y="430" > 11:06:40</text><line  class="poloto_axis_lines" stroke="black" x1="440.3368176538908" x2="440.3368176538908" y1="400" y2="405" /><text  class="poloto_tick_labels poloto_text" alignment-baseline="start" text-anchor="middle" x="440.3368176538908" y="430" > 13:53:20</text><line  class="poloto_axis_lines" stroke="black" x1="498.4088269454123" x2="498.4088269454123" y1="400" y2="405" /><text  class="poloto_tick_labels poloto_text" alignment-baseline="start" text-anchor="middle" x="498.4088269454123" y="430" > 16:40:00</text><line  class="poloto_axis_lines" stroke="black" x1="556.4808362369338" x2="556.4808362369338" y1="400" y2="405" /><text  class="poloto_tick_labels poloto_text" alignment-baseline="start" text-anchor="middle" x="556.4808362369338" y="430" > 19:26:40</text><line  class="poloto_axis_lines" stroke="black" x1="614.5528455284552" x2="614.5528455284552" y1="400" y2="405" /><text  class="poloto_tick_labels poloto_text" alignment-baseline="start" text-anchor="middle" x="614.5528455284552" y="430" > 22:13:20</text><line  class="poloto_axis_lines" stroke="black" x1="150" x2="144" y1="388.0718954248366" y2="388.0718954248366" /><text  class="poloto_tick_labels poloto_text" alignment-baseline="middle" text-anchor="end" x="135" y="388.0718954248366" > 1000</text><line  class="poloto_axis_lines" stroke="black" x1="150" x2="144" y1="306.37254901960785" y2="306.37254901960785" /><text  class="poloto_tick_labels poloto_text" alignment-baseline="middle" text-anchor="end" x="135" y="306.37254901960785" > 1500</text><line  class="poloto_axis_lines" stroke="black" x1="150" x2="144" y1="224.67320261437908" y2="224.67320261437908" /><text  class="poloto_tick_labels poloto_text" alignment-baseline="middle" text-anchor="end" x="135" y="224.67320261437908" > 2000</text><line  class="poloto_axis_lines" stroke="black" x1="150" x2="144" y1="142.9738562091503" y2="142.9738562091503" /><text  class="poloto_tick_labels poloto_text" alignment-baseline="middle" text-anchor="end" x="135" y="142.9738562091503" > 2500</text><path  stroke="black" fill="none" class="poloto_axis_lines" style="stroke-dasharray:14.518002322880372;stroke-dashoffset:-58.04878048780488;" d=" M 150 400 L 650 400" /><path  stroke="black" fill="none" class="poloto_axis_lines" style="stroke-dasharray:8.169934640522877;stroke-dashoffset:-11.928104575163417;" d=" M 150 400 L 150 100" /></svg>