<svg class="poloto" width="800" height="500" viewBox="0 0 800 500" xmlns="http://www.w3.org/2000/svg"><style>.poloto { stroke-linecap:round; stroke-linejoin:round; font-family: 'Tahoma', sans-serif; background-color: AliceBlue;} .poloto_scatter{stroke-width:7} .poloto_line{stroke-width:2} .poloto_text{fill: black;} .poloto_axis_lines{stroke: black;stroke-width:3;fill:none;stroke-dasharray:none} .poloto0stroke{stroke:  blue;} .poloto1stroke{stroke:  red;} .poloto2stroke{stroke:  green;} .poloto3stroke{stroke:  gold;} .poloto4stroke{stroke:  aqua;} .poloto5stroke{stroke:  lime;} .poloto6stroke{stroke:  orange;} .poloto7stroke{stroke:  chocolate;} .poloto0fill{fill:blue;} .poloto1fill{fill:red;} .poloto2fill{fill:green;} .poloto3fill{fill:gold;} .poloto4fill{fill:aqua;} .poloto5fill{fill:lime;} .poloto6fill{fill:orange;} .poloto7fill{fill:chocolate;}</style><text  class="poloto_text poloto_legend_text" alignment-baseline="middle" text-anchor="start" font-size="large" x="675" y="100" ></text><path  class="poloto_linefill poloto0fill" d=" M 150 400 L 150 323.0441724321447 L 151.74216027874564 324.8004257583821 L 153.4843205574913 324.00212879191054 L 155.22648083623693 324.9600851516764 L 156.96864111498257 324.6407663650878 L 158.71080139372822 324.6407663650878 L 160.45296167247386 325.59872272485364 L 162.1951219512195 323.5231506120276 L 163.93728222996515 327.9936136242682 L 165.6794425087108 333.102714209686 L 167.42160278745644 338.3714741883981 L 169.16376306620208 339.16977115486964 L 170.90592334494772 344.2788717402874 L 172.64808362369337 348.1106971793507 L 174.390243902439 351.3038850452368 L 176.13240418118465 354.81639169771154 L 177.8745644599303 356.2533262373603 L 179.61672473867597 360.7237892496008 L 181.3588850174216 369.5050558807876 L 183.10104529616726 367.58914316125595 L 184.8432055749129 371.10164981373066 L 186.58536585365854 372.857903139968 L 188.3275261324042 370.78233102714205 L 190.06968641114983 371.5806279936136 L 191.81184668989548 377.96700372538584 L 193.55400696864112 380.84087280468333 L 195.29616724738676 378.28632251197445 L 197.0383275261324 371.8999467802022 L 198.78048780487805 373.97551889302815 L 200.5226480836237 371.8999467802022 L 202.26480836236934 370.62267163384774 L 204.00696864111498 367.58914316125595 L 205.74912891986062 374.13517828632246 L 207.49128919860627 376.6897285790314 L 209.2334494773519 373.97551889302815 L 210.97560975609755 375.73177221926557 L 212.7177700348432 376.6897285790314 L 214.45993031358887 382.756785524215 L 216.2020905923345 377.80734433209153 L 217.94425087108016 382.756785524215 L 219.6864111498258 381.79882916444916 L 221.42857142857144 376.8493879723257 L 223.1707317073171 379.2442788717403 L 224.91289198606273 381.00053219797763 L 226.65505226480838 384.19372006386374 L 228.39721254355402 384.51303885045235 L 230.13937282229966 381.63916977115485 L 231.8815331010453 382.756785524215 L 233.62369337979095 388.3448642895157 L 235.3658536585366 385.9499733901011 L 237.10801393728224 389.9414582224588 L 238.85017421602788 384.67269824374665 L 240.59233449477352 386.7482703565726 L 242.33449477351917 383.3954230973922 L 244.0766550522648 380.3618946248004 L 245.81881533101046 383.3954230973922 L 247.5609756097561 382.11814795103777 L 249.30313588850174 379.4039382650346 L 251.0452961672474 382.9164449175093 L 252.78745644599303 385.15167642362957 L 254.52961672473867 385.7903139968068 L 256.2717770034843 387.5465673230442 L 258.01393728222996 383.8744012772751 L 259.7560975609756 384.19372006386374 L 261.49825783972125 385.3113358169239 L 263.2404181184669 400 L 264.98257839721254 383.0761043108036 L 266.7247386759582 381.31985098456624 L 268.4668989547038 385.6306546035125 L 270.20905923344947 393.1346460883449 L 271.9512195121951 395.05055880787654 L 273.69337979094075 396.0085151676424 L 275.4355400696864 395.21021820117085 L 277.17770034843204 391.85737094199044 L 278.91986062717774 392.65566790846196 L 280.6620209059233 387.5465673230442 L 282.404181184669 384.03406067056943 L 284.1463414634146 383.7147418839808 L 285.8885017421603 381.16019159127194 L 287.6306620209059 379.8829164449175 L 289.3728222996516 380.2022352315061 L 291.1149825783972 376.6897285790314 L 292.8571428571429 371.5806279936136 L 294.5993031358885 365.9925492283129 L 296.3414634146342 366.3118680149015 L 298.08362369337976 360.7237892496008 L 299.82578397212546 360.2448110697179 L 301.56794425087105 357.3709419904204 L 303.31010452961675 361.84140500266096 L 305.05226480836234 360.7237892496008 L 306.79442508710804 363.2783395423097 L 308.5365853658536 371.10164981373066 L 310.2787456445993 368.7067589143161 L 312.0209059233449 365.8328898350186 L 313.7630662020906 363.5976583288983 L 315.5052264808362 361.20276742948374 L 317.2473867595819 359.4465141032464 L 318.9895470383275 360.88344864289513 L 320.7317073170732 357.3709419904204 L 322.4738675958188 357.3709419904204 L 324.2160278745645 357.84992017030333 L 325.9581881533101 354.97605109100584 L 327.70034843205576 353.5391165513571 L 329.4425087108014 355.29536987759445 L 331.18466898954705 355.77434805747737 L 332.9268292682927 353.2197977647685 L 334.66898954703834 351.46354443853113 L 336.411149825784 350.8249068653539 L 338.1533101045296 351.62320383182544 L 339.89547038327527 351.46354443853113 L 341.6376306620209 353.2197977647685 L 343.37979094076655 350.1862692921767 L 345.1219512195122 347.7913783927621 L 346.86411149825784 348.270356572645 L 348.6062717770035 345.23682810005323 L 350.34843205574913 337.7328366152209 L 352.0905923344948 340.926024481107 L 353.8327526132404 337.4135178286323 L 355.57491289198606 332.14475784992015 L 357.3170731707317 328.95156998403405 L 359.05923344947735 321.12825971261304 L 360.801393728223 313.6242682277807 L 362.54355400696863 311.38903672166043 L 364.2857142857143 308.83448642895155 L 366.0278745644599 308.19584885577433 L 367.77003484320556 302.28845130388504 L 369.5121951219512 301.96913251729643 L 371.25435540069685 305.64129856306545 L 372.9965156794425 300.691857370942 L 374.73867595818814 299.41458222458755 L 376.4808362369338 300.691857370942 L 378.2229965156795 295.2634379989356 L 379.96515679442507 293.66684406599256 L 381.70731707317077 293.18786588610965 L 383.44947735191636 286.32251197445447 L 385.19163763066206 280.5747738158595 L 386.93379790940764 278.0202235231506 L 388.67595818815334 283.12932410856837 L 390.41811846689893 273.39010111761576 L 392.16027874564463 272.2724853645556 L 393.9024390243902 271.6338477913784 L 395.6445993031359 267.9616817456094 L 397.3867595818815 259.18041511442254 L 399.1289198606272 259.18041511442254 L 400.8710801393728 258.70143693453963 L 402.6132404181185 249.60085151676424 L 404.3554006968641 241.2985630654603 L 406.0975609756098 236.98775944651408 L 407.8397212543554 230.12240553485896 L 409.58188153310107 223.57637040979245 L 411.3240418118467 219.2655667908462 L 413.06620209059236 212.71953166577964 L 414.808362369338 209.04736562001062 L 416.55052264808364 201.06439595529537 L 418.2926829268293 201.38371474188398 L 420.03484320557493 199.1484832357637 L 421.7770034843206 198.8291644491751 L 423.5191637630662 198.9888238424694 L 425.26132404181186 194.19904204364025 L 427.0034843205575 195.9552953698776 L 428.74564459930315 193.56040447046303 L 430.4878048780488 191.96381053751992 L 432.22996515679444 185.89675359233632 L 433.9721254355401 190.20755721128256 L 435.7142857142857 187.01436934539646 L 437.45644599303137 183.50186269292175 L 439.198606271777 176.95582756785524 L 440.94076655052265 177.11548696114954 L 442.6829268292683 172.4853645556147 L 444.42508710801394 165.3006918573709 L 446.1672473867596 157.15806279936135 L 447.9094076655052 160.83022884513036 L 449.65156794425087 156.20010643959552 L 451.3937282229965 147.89781798829165 L 453.13588850174216 147.09952102182012 L 454.8780487804878 155.7211282597126 L 456.62020905923345 140.55348589675356 L 458.3623693379791 146.93986162852582 L 460.10452961672473 128.10005321979776 L 461.8466898954704 129.6966471527408 L 463.588850174216 121.23469930814264 L 465.33101045296166 116.60457690260779 L 467.0731707317073 113.25172964342732 L 468.81533101045295 109.419904204364 L 470.5574912891986 112.2937732836615 L 472.29965156794424 118.20117083555084 L 474.0418118466899 122.03299627461416 L 475.7839721254355 124.10856838744013 L 477.52613240418117 127.94039382650345 L 479.2682926829268 115.8062799361362 L 481.01045296167246 109.57956359765831 L 482.7526132404181 107.02501330494943 L 484.49477351916374 100 L 486.2369337979094 102.23523150612027 L 487.97909407665503 103.35284725918041 L 489.7212543554007 105.26875997871207 L 491.4634146341463 101.59659393294305 L 493.20557491289196 101.75625332623736 L 494.9477351916376 101.11761575306014 L 496.68989547038325 105.74773815859498 L 498.4320557491289 102.55455029270888 L 500.17421602787454 115.4869611495476 L 501.91637630662024 115.16764236295899 L 503.6585365853659 110.37786056412983 L 505.4006968641115 117.88185204896223 L 507.14285714285717 122.35231506120277 L 508.8850174216028 123.78924960085152 L 510.62717770034845 140.07450771687064 L 512.3693379790941 155.401809473124 L 514.1114982578397 157.79670037253857 L 515.8536585365854 163.70409792442786 L 517.5958188153311 161.46886641830758 L 519.3379790940767 154.28419372006385 L 521.0801393728223 168.65353911655137 L 522.822299651568 163.38477913783925 L 524.5644599303137 172.8046833422033 L 526.3066202090592 194.83767961681747 L 528.0487804878048 194.83767961681747 L 529.7909407665505 204.09792442788716 L 531.5331010452962 192.2831293241086 L 533.2752613240418 191.6444917509313 L 535.0174216027874 196.43427354976052 L 536.7595818815331 192.7621075039915 L 538.5017421602788 195.7956359765833 L 540.2439024390244 194.19904204364025 L 541.98606271777 206.17349654071313 L 543.7282229965157 199.78712080894093 L 545.4703832752614 209.20702501330493 L 547.212543554007 197.71154869611496 L 548.9547038327526 214.6354443853113 L 550.6968641114983 207.29111229377327 L 552.439024390244 207.9297498669505 L 554.1811846689895 207.13145290047896 L 555.9233449477351 210.96327833954228 L 557.6655052264808 214.3161255987227 L 559.4076655052265 216.39169771154866 L 561.1498257839721 225.1729643427355 L 562.8919860627177 223.57637040979245 L 564.6341463414634 229.80308674827035 L 566.3763066202091 223.73602980308675 L 568.1184668989547 231.2400212879191 L 569.8606271777003 229.32410856838743 L 571.602787456446 225.97126130920702 L 573.3449477351917 229.16444917509313 L 575.0871080139373 236.82810005321977 L 576.8292682926829 231.718999467802 L 578.5714285714286 225.4922831293241 L 580.3135888501743 228.046833422033 L 582.0557491289198 236.02980308674825 L 583.7979094076654 239.38265034592865 L 585.5400696864111 242.09686003193184 L 587.2822299651568 238.74401277275143 L 589.0243902439024 241.45822245875462 L 590.766550522648 243.37413517828634 L 592.5087108013937 241.93720063863753 L 594.2508710801394 245.1303885045237 L 595.993031358885 246.88664183076105 L 597.7351916376306 244.33209153805217 L 599.4773519163763 249.28153273017563 L 601.219512195122 248.4832357637041 L 602.9616724738676 251.5167642362959 L 604.7038327526133 251.5167642362959 L 606.445993031359 247.20596061734966 L 608.1881533101046 249.28153273017563 L 609.9303135888501 250.23948908994146 L 611.6724738675958 254.3906333155934 L 613.4146341463415 253.27301756253325 L 615.1567944250871 254.23097392229909 L 616.8989547038327 256.62586482171366 L 618.6411149825784 262.69292176689726 L 620.3832752613241 267.0037253858435 L 622.1254355400697 275.78499201703033 L 623.8675958188153 279.77647684938796 L 625.609756097561 280.5747738158595 L 627.3519163763067 279.29749866950505 L 629.0940766550523 277.5412453432677 L 630.8362369337979 281.0537519957424 L 632.5783972125436 284.2469398616285 L 634.3205574912893 281.8520489622139 L 636.0627177700349 282.65034592868545 L 637.8048780487804 285.04523682810003 L 639.5470383275261 289.99467802022355 L 641.2891986062718 294.7844598190527 L 643.0313588850174 300.05321979776477 L 644.773519163763 303.7253858435338 L 646.5156794425087 307.0782331027142 L 648.2578397212544 306.9185737094199 L 650 310.7503991484832 L 650 400 Z" /><text  class="poloto_labels poloto_text poloto_title" alignment-baseline="start" text-anchor="middle" font-size="x-large" x="400" y="37.5" >Total players on 2021-10-28</text><text  class="poloto_labels poloto_text poloto_xname" alignment-baseline="start" text-anchor="middle" font-size="x-large" x="400" y="481.25" >Time</text><text  class="poloto_labels poloto_text poloto_yname" alignment-baseline="start" text-anchor="middle" font-size="x-large" transform="rotate(-90,37.5,250)" x="37.5" y="250" >Count</text><line  class="poloto_axis_lines" stroke="black" x1="150" x2="150" y1="400" y2="405" /><text  class="poloto_tick_labels poloto_text" alignment-baseline="start" text-anchor="middle" x="150" y="430" > 00:00</text><line  class="poloto_axis_lines" stroke="black" x1="266.14401858304296" x2="266.14401858304296" y1="400" y2="405" /><text  class="poloto_tick_labels poloto_text" alignment-baseline="start" text-anchor="middle" x="266.14401858304296" y="430" > 06:00</text><line  class="poloto_axis_lines" stroke="black" x1="382.2880371660859" x2="382.2880371660859" y1="400" y2="405" /><text  class="poloto_tick_labels poloto_text" alignment-baseline="start" text-anchor="middle" x="382.2880371660859" y="430" > 11:00</text><line  class="poloto_axis_lines" stroke="black" x1="498.4320557491289" x2="498.4320557491289" y1="400" y2="405" /><text  class="poloto_tick_labels poloto_text" alignment-baseline="start" text-anchor="middle" x="498.4320557491289" y="430" > 17:00</text><line  class="poloto_axis_lines" stroke="black" x1="614.5760743321719" x2="614.5760743321719" y1="400" y2="405" /><text  class="poloto_tick_labels poloto_text" alignment-baseline="start" text-anchor="middle" x="614.5760743321719" y="430" > 22:00</text><line  class="poloto_axis_lines" stroke="black" x1="150" x2="144" y1="371.8999467802022" y2="371.8999467802022" /><text  class="poloto_tick_labels poloto_text" alignment-baseline="middle" text-anchor="end" x="135" y="371.8999467802022" > 1000</text><line  class="poloto_axis_lines" stroke="black" x1="150" x2="144" y1="292.0702501330495" y2="292.0702501330495" /><text  class="poloto_tick_labels poloto_text" alignment-baseline="middle" text-anchor="end" x="135" y="292.0702501330495" > 1500</text><line  class="poloto_axis_lines" stroke="black" x1="150" x2="144" y1="212.24055348589673" y2="212.24055348589673" /><text  class="poloto_tick_labels poloto_text" alignment-baseline="middle" text-anchor="end" x="135" y="212.24055348589673" > 2000</text><line  class="poloto_axis_lines" stroke="black" x1="150" x2="144" y1="132.410856838744" y2="132.410856838744" /><text  class="poloto_tick_labels poloto_text" alignment-baseline="middle" text-anchor="end" x="135" y="132.410856838744" > 2500</text><path  stroke="black" fill="none" class="poloto_axis_lines" style="stroke-dasharray:14.518002322880372;stroke-dashoffset:-0;" d=" M 150 400 L 650 400" /><path  stroke="black" fill="none" class="poloto_axis_lines" style="stroke-dasharray:7.982969664715275;stroke-dashoffset:-28.100053219797786;" d=" M 150 400 L 150 100" /></svg>