<svg class="poloto" width="800" height="500" viewBox="0 0 800 500" xmlns="http://www.w3.org/2000/svg"><style>.poloto { stroke-linecap:round; stroke-linejoin:round; font-family: 'Tahoma', sans-serif; background-color: AliceBlue;} .poloto_scatter{stroke-width:7} .poloto_line{stroke-width:2} .poloto_text{fill: black;} .poloto_axis_lines{stroke: black;stroke-width:3;fill:none;stroke-dasharray:none} .poloto0stroke{stroke:  blue;} .poloto1stroke{stroke:  red;} .poloto2stroke{stroke:  green;} .poloto3stroke{stroke:  gold;} .poloto4stroke{stroke:  aqua;} .poloto5stroke{stroke:  lime;} .poloto6stroke{stroke:  orange;} .poloto7stroke{stroke:  chocolate;} .poloto0fill{fill:blue;} .poloto1fill{fill:red;} .poloto2fill{fill:green;} .poloto3fill{fill:gold;} .poloto4fill{fill:aqua;} .poloto5fill{fill:lime;} .poloto6fill{fill:orange;} .poloto7fill{fill:chocolate;}</style><text  class="poloto_text poloto_legend_text" alignment-baseline="middle" text-anchor="start" font-size="large" x="675" y="100" ></text><path  class="poloto_linefill poloto0fill" d=" M 150 400 L 150 347.1473354231975 L 151.74216027874564 351.66144200626957 L 153.4843205574913 360.5015673981191 L 155.22648083623693 367.4608150470219 L 156.96864111498257 375.17241379310343 L 158.71080139372822 386.4576802507837 L 160.45296167247386 364.8275862068965 L 162.1951219512195 364.45141065830717 L 163.93728222996515 377.61755485893417 L 165.6794425087108 374.42006269592474 L 167.42160278745644 370.4702194357367 L 169.16376306620208 380.62695924764887 L 170.90592334494772 376.6771159874608 L 172.64808362369337 374.6081504702194 L 174.390243902439 377.05329153605015 L 176.13240418118465 381.7554858934169 L 177.8745644599303 384.3887147335423 L 179.61672473867597 390.0313479623824 L 181.3588850174216 393.0407523510971 L 183.10104529616726 386.83385579937305 L 184.8432055749129 392.66457680250784 L 186.58536585365854 398.1191222570533 L 188.3275261324042 400 L 190.06968641114983 394.7335423197492 L 191.81184668989548 396.0501567398119 L 193.55400696864112 383.0721003134796 L 195.29616724738676 388.33855799373043 L 197.0383275261324 388.33855799373043 L 198.78048780487805 390.40752351097177 L 200.5226480836237 395.1097178683385 L 202.26480836236934 390.9717868338558 L 204.00696864111498 389.27899686520374 L 205.74912891986062 384.20062695924764 L 207.49128919860627 383.2601880877743 L 209.2334494773519 380.81504702194354 L 210.97560975609755 378.18181818181813 L 212.7177700348432 381.7554858934169 L 214.45993031358887 383.8244514106583 L 216.2020905923345 388.15047021943576 L 217.94425087108016 383.8244514106583 L 219.6864111498258 378.9341692789968 L 221.42857142857144 380.2507836990595 L 223.1707317073171 376.1128526645768 L 224.91289198606273 370.09404388714734 L 226.65505226480838 369.90595611285266 L 228.39721254355402 367.83699059561127 L 230.13937282229966 370.282131661442 L 231.8815331010453 365.7680250783699 L 233.62369337979095 359.9373040752351 L 235.3658536585366 364.45141065830717 L 237.10801393728224 354.294670846395 L 238.85017421602788 352.2257053291536 L 240.59233449477352 346.9592476489028 L 242.33449477351917 341.88087774294667 L 244.0766550522648 338.6833855799373 L 245.81881533101046 340.1880877742947 L 247.5609756097561 332.2884012539185 L 249.30313588850174 340.1880877742947 L 251.0452961672474 341.12852664576803 L 252.78745644599303 335.2978056426332 L 254.52961672473867 335.8620689655172 L 256.2717770034843 332.66457680250784 L 258.01393728222996 335.48589341692787 L 259.7560975609756 353.3542319749216 L 261.49825783972125 354.294670846395 L 263.2404181184669 346.3949843260188 L 264.98257839721254 343.7617554858934 L 266.7247386759582 348.4639498432602 L 268.4668989547038 345.26645768025077 L 270.2148664343786 350.9090909090909 L 271.9512195121951 344.5141065830721 L 273.69337979094075 344.8902821316614 L 275.44134727061555 342.63322884012535 L 277.17770034843204 342.257053291536 L 278.9198606271777 340.94043887147336 L 280.6620209059233 338.30721003134795 L 282.40418118466897 334.35736677115983 L 284.1463414634146 330.0313479623824 L 285.88850174216026 327.5862068965517 L 287.6306620209059 330.40752351097177 L 289.37282229965155 332.1003134796238 L 291.1149825783972 326.4576802507837 L 292.85714285714283 315.3605015673981 L 294.5993031358885 308.9655172413793 L 296.3414634146342 309.5297805642633 L 298.08362369337976 312.35109717868335 L 299.82578397212546 311.974921630094 L 301.56794425087105 309.5297805642633 L 303.31010452961675 310.09404388714734 L 305.05226480836234 312.35109717868335 L 306.79442508710804 312.35109717868335 L 308.5365853658536 317.05329153605015 L 310.2787456445993 321.7554858934169 L 312.0209059233449 317.61755485893417 L 313.7630662020906 310.4702194357367 L 315.5052264808362 308.77742946708463 L 317.2473867595819 304.63949843260184 L 318.9895470383275 300.6896551724138 L 320.7317073170732 302.0062695924765 L 322.4738675958188 307.27272727272725 L 324.2160278745645 314.42006269592474 L 325.95818815331006 305.95611285266455 L 327.70034843205576 301.0658307210031 L 329.44250871080135 298.4326018808777 L 331.18466898954705 290.1567398119122 L 332.92682926829264 290.7210031347962 L 334.66898954703834 292.0376175548589 L 336.4111498257839 289.78056426332284 L 338.1533101045296 284.3260188087774 L 339.8954703832752 292.60188087774293 L 341.6376306620209 289.5924764890282 L 343.3797909407665 289.78056426332284 L 345.1219512195122 291.4733542319749 L 346.86411149825784 291.66144200626957 L 348.6062717770035 288.08777429467085 L 350.34843205574913 288.2758620689655 L 352.0905923344948 293.91849529780563 L 353.8327526132404 265.51724137931035 L 355.57491289198606 263.0721003134796 L 357.3170731707317 265.141065830721 L 359.05923344947735 270.7836990595611 L 360.801393728223 267.5862068965517 L 362.54355400696863 270.59561128526644 L 364.2857142857143 263.44827586206895 L 366.0278745644599 266.08150470219437 L 367.77003484320556 264.20062695924764 L 369.5121951219512 261.37931034482756 L 371.25435540069685 250.84639498432603 L 372.9965156794425 249.15360501567397 L 374.73867595818814 242.5705329153605 L 376.4808362369338 248.40125391849529 L 378.2229965156794 247.08463949843258 L 379.96515679442507 244.2633228840125 L 381.7073170731707 242.75862068965517 L 383.44947735191636 242.94670846394985 L 385.191637630662 248.58934169278996 L 386.93379790940764 234.1065830721003 L 388.6759581881533 225.45454545454544 L 390.41811846689893 220.37617554858934 L 392.1602787456446 225.26645768025077 L 393.9024390243902 220.18808777429467 L 395.6445993031359 216.99059561128524 L 397.3867595818815 219.05956112852664 L 399.1289198606272 211.15987460815046 L 400.8710801393728 219.62382445141066 L 402.6132404181185 210.2194357366771 L 404.3554006968641 209.65517241379308 L 406.0975609756097 209.09090909090907 L 407.83972125435537 207.77429467084636 L 409.581881533101 207.39811912225701 L 411.32404181184666 203.44827586206895 L 413.0662020905923 203.63636363636363 L 414.80836236933794 204.20062695924764 L 416.5505226480836 199.1222570532915 L 418.29268292682923 197.4294670846395 L 420.0348432055749 201.94357366771158 L 421.7770034843206 195.92476489028212 L 423.5191637630662 200.4388714733542 L 425.26132404181186 196.6771159874608 L 427.0034843205575 191.03448275862064 L 428.74564459930315 277.55485893416926 L 430.4878048780488 257.61755485893417 L 432.22996515679444 253.2915360501567 L 433.9721254355401 182.19435736677116 L 435.7142857142857 178.4326018808777 L 437.45644599303137 241.63009404388714 L 439.198606271777 211.72413793103448 L 440.94076655052265 222.63322884012535 L 442.6829268292683 165.45454545454544 L 444.42508710801394 155.67398119122254 L 446.1672473867596 150.59561128526644 L 447.9094076655052 151.91222570532915 L 449.65156794425087 140.62695924764887 L 451.3937282229965 182.75862068965517 L 453.13588850174216 143.63636363636363 L 454.8780487804878 197.05329153605015 L 456.62020905923345 193.47962382445138 L 458.3623693379791 187.27272727272725 L 460.10452961672473 130.47021943573662 L 461.8466898954704 126.14420062695922 L 463.588850174216 121.2539184952978 L 465.33101045296166 122.5705329153605 L 467.0731707317073 119.56112852664575 L 468.81533101045295 119.93730407523509 L 470.5574912891986 127.27272727272725 L 472.29965156794424 121.44200626959247 L 474.0418118466899 117.30407523510968 L 475.7839721254355 120.31347962382443 L 477.52613240418117 124.2633228840125 L 479.2682926829268 123.5109717868338 L 481.01045296167246 124.2633228840125 L 482.7526132404181 114.1065830721003 L 484.49477351916374 115.98746081504697 L 486.2369337979094 107.52351097178683 L 487.97909407665503 109.21630094043883 L 489.7212543554007 111.66144200626957 L 491.4634146341463 108.65203761755481 L 493.20557491289196 104.51410658307208 L 494.9477351916376 100 L 496.68989547038325 109.02821316614416 L 498.4320557491289 104.70219435736675 L 500.17421602787454 107.14733542319749 L 501.9163763066202 107.71159874608145 L 503.6585365853658 110.90909090909088 L 505.40069686411147 113.73040752351096 L 507.1428571428571 118.24451410658304 L 508.88501742160275 115.23510971786828 L 510.6271777003484 126.52037617554856 L 512.3693379790941 135.92476489028212 L 514.1114982578397 137.24137931034483 L 515.8536585365853 137.80564263322884 L 517.595818815331 146.64576802507833 L 519.3379790940767 160.18808777429467 L 521.0801393728223 156.80250783699057 L 522.822299651568 164.51410658307208 L 524.5644599303137 159.81191222570533 L 526.3124274099885 164.51410658307208 L 528.0487804878048 164.3260188087774 L 529.7909407665505 169.96865203761752 L 531.5331010452962 178.4326018808777 L 533.2752613240418 180.12539184952976 L 535.0174216027874 178.4326018808777 L 536.7595818815331 185.01567398119118 L 538.5017421602788 182.5705329153605 L 540.2439024390244 195.3605015673981 L 541.98606271777 197.99373040752351 L 543.7282229965157 211.72413793103448 L 545.4703832752614 199.1222570532915 L 547.212543554007 196.86520376175548 L 548.9547038327526 207.21003134796234 L 550.6968641114983 204.20062695924764 L 552.439024390244 211.91222570532915 L 554.1811846689895 211.34796238244513 L 555.9233449477351 210.03134796238243 L 557.6655052264808 217.17868338557992 L 559.4076655052265 210.59561128526644 L 561.1498257839721 218.30721003134795 L 562.8919860627177 219.2476489028213 L 564.6341463414634 228.4639498432602 L 566.3763066202091 225.0783699059561 L 568.1184668989547 270.2194357366771 L 569.8606271777003 258.55799373040753 L 571.602787456446 258.1818181818182 L 573.3449477351917 247.08463949843258 L 575.0871080139373 263.2601880877743 L 576.8292682926829 245.01567398119118 L 578.5714285714286 244.8275862068965 L 580.3135888501743 249.34169278996865 L 582.0557491289198 244.63949843260184 L 583.7979094076654 249.52978056426332 L 585.5400696864111 260.2507836990595 L 587.2822299651568 253.47962382445138 L 589.0243902439024 262.5078369905956 L 590.766550522648 269.27899686520374 L 592.5087108013937 273.4169278996865 L 594.2508710801394 261.0031347962382 L 595.993031358885 270.2194357366771 L 597.7351916376306 275.8620689655172 L 599.4773519163763 269.4670846394984 L 601.219512195122 262.69592476489026 L 602.9616724738676 262.5078369905956 L 604.7038327526132 267.5862068965517 L 606.4459930313589 269.4670846394984 L 608.1881533101046 271.15987460815046 L 609.9303135888501 266.269592476489 L 611.6724738675957 273.22884012539186 L 613.4146341463414 306.70846394984324 L 615.1567944250871 292.9780564263323 L 616.8989547038327 293.73040752351096 L 618.6411149825783 295.423197492163 L 620.383275261324 283.5736677115987 L 622.1254355400697 298.05642633228837 L 623.8675958188153 298.4326018808777 L 625.609756097561 301.8181818181818 L 627.3519163763067 309.34169278996865 L 629.0940766550523 314.42006269592474 L 630.8362369337979 319.6865203761755 L 632.5783972125436 321.1912225705329 L 634.3205574912893 322.13166144200625 L 636.0627177700349 327.77429467084636 L 637.8048780487804 333.22884012539186 L 639.5470383275261 339.62382445141066 L 641.2891986062718 346.3949843260188 L 643.0313588850174 349.78056426332284 L 644.773519163763 351.2852664576802 L 646.5156794425087 354.294670846395 L 648.2578397212544 351.66144200626957 L 650 354.48275862068965 L 650 400 Z" /><text  class="poloto_labels poloto_text poloto_title" alignment-baseline="start" text-anchor="middle" font-size="x-large" x="400" y="37.5" >Total players on 2021-07-21</text><text  class="poloto_labels poloto_text poloto_xname" alignment-baseline="start" text-anchor="middle" font-size="x-large" x="400" y="481.25" >Time</text><text  class="poloto_labels poloto_text poloto_yname" alignment-baseline="start" text-anchor="middle" font-size="x-large" transform="rotate(-90,37.5,250)" x="37.5" y="250" >Count</text><line  class="poloto_axis_lines" stroke="black" x1="208.0487804878049" x2="208.0487804878049" y1="400" y2="405" /><text  class="poloto_tick_labels poloto_text" alignment-baseline="start" text-anchor="middle" x="208.0487804878049" y="430" > 03:00</text><line  class="poloto_axis_lines" stroke="black" x1="266.1207897793264" x2="266.1207897793264" y1="400" y2="405" /><text  class="poloto_tick_labels poloto_text" alignment-baseline="start" text-anchor="middle" x="266.1207897793264" y="430" > 06:00</text><line  class="poloto_axis_lines" stroke="black" x1="324.19279907084785" x2="324.19279907084785" y1="400" y2="405" /><text  class="poloto_tick_labels poloto_text" alignment-baseline="start" text-anchor="middle" x="324.19279907084785" y="430" > 08:00</text><line  class="poloto_axis_lines" stroke="black" x1="382.2648083623693" x2="382.2648083623693" y1="400" y2="405" /><text  class="poloto_tick_labels poloto_text" alignment-baseline="start" text-anchor="middle" x="382.2648083623693" y="430" > 11:00</text><line  class="poloto_axis_lines" stroke="black" x1="440.3368176538908" x2="440.3368176538908" y1="400" y2="405" /><text  class="poloto_tick_labels poloto_text" alignment-baseline="start" text-anchor="middle" x="440.3368176538908" y="430" > 14:00</text><line  class="poloto_axis_lines" stroke="black" x1="498.4088269454123" x2="498.4088269454123" y1="400" y2="405" /><text  class="poloto_tick_labels poloto_text" alignment-baseline="start" text-anchor="middle" x="498.4088269454123" y="430" > 17:00</text><line  class="poloto_axis_lines" stroke="black" x1="556.4808362369338" x2="556.4808362369338" y1="400" y2="405" /><text  class="poloto_tick_labels poloto_text" alignment-baseline="start" text-anchor="middle" x="556.4808362369338" y="430" > 19:00</text><line  class="poloto_axis_lines" stroke="black" x1="614.5528455284552" x2="614.5528455284552" y1="400" y2="405" /><text  class="poloto_tick_labels poloto_text" alignment-baseline="start" text-anchor="middle" x="614.5528455284552" y="430" > 22:00</text><line  class="poloto_axis_lines" stroke="black" x1="150" x2="144" y1="327.77429467084636" y2="327.77429467084636" /><text  class="poloto_tick_labels poloto_text" alignment-baseline="middle" text-anchor="end" x="135" y="327.77429467084636" > 1500</text><line  class="poloto_axis_lines" stroke="black" x1="150" x2="144" y1="233.73040752351096" y2="233.73040752351096" /><text  class="poloto_tick_labels poloto_text" alignment-baseline="middle" text-anchor="end" x="135" y="233.73040752351096" > 2000</text><line  class="poloto_axis_lines" stroke="black" x1="150" x2="144" y1="139.6865203761755" y2="139.6865203761755" /><text  class="poloto_tick_labels poloto_text" alignment-baseline="middle" text-anchor="end" x="135" y="139.6865203761755" > 2500</text><path  stroke="black" fill="none" class="poloto_axis_lines" style="stroke-dasharray:14.518002322880372;stroke-dashoffset:-58.04878048780488;" d=" M 150 400 L 650 400" /><path  stroke="black" fill="none" class="poloto_axis_lines" style="stroke-dasharray:9.404388714733543;stroke-dashoffset:-72.22570532915364;" d=" M 150 400 L 150 100" /></svg>