<svg class="poloto" width="800" height="500" viewBox="0 0 800 500" xmlns="http://www.w3.org/2000/svg"><style>.poloto { stroke-linecap:round; stroke-linejoin:round; font-family: 'Tahoma', sans-serif; background-color: AliceBlue;} .poloto_scatter{stroke-width:7} .poloto_line{stroke-width:2} .poloto_text{fill: black;} .poloto_axis_lines{stroke: black;stroke-width:3;fill:none;stroke-dasharray:none} .poloto0stroke{stroke:  blue;} .poloto1stroke{stroke:  red;} .poloto2stroke{stroke:  green;} .poloto3stroke{stroke:  gold;} .poloto4stroke{stroke:  aqua;} .poloto5stroke{stroke:  lime;} .poloto6stroke{stroke:  orange;} .poloto7stroke{stroke:  chocolate;} .poloto0fill{fill:blue;} .poloto1fill{fill:red;} .poloto2fill{fill:green;} .poloto3fill{fill:gold;} .poloto4fill{fill:aqua;} .poloto5fill{fill:lime;} .poloto6fill{fill:orange;} .poloto7fill{fill:chocolate;}</style><text  class="poloto_text poloto_legend_text" alignment-baseline="middle" text-anchor="start" font-size="large" x="675" y="100" ></text><path  class="poloto_linefill poloto0fill" d=" M 150 400 L 150 336.61971830985914 L 151.74216027874564 343.16901408450707 L 153.4843205574913 331.9718309859155 L 155.22648083623693 337.46478873239437 L 156.96864111498257 343.80281690140845 L 158.71080139372822 357.9577464788733 L 160.45296167247386 357.11267605633805 L 162.1951219512195 360.7042253521127 L 163.93728222996515 343.16901408450707 L 165.6794425087108 348.4507042253521 L 167.42160278745644 346.5492957746479 L 169.16376306620208 349.29577464788736 L 170.90592334494772 355.2112676056338 L 172.64808362369337 366.40845070422534 L 174.390243902439 365.14084507042253 L 176.13240418118465 366.40845070422534 L 177.8745644599303 388.16901408450707 L 179.61672473867597 392.3943661971831 L 181.3588850174216 393.02816901408454 L 183.10104529616726 395.3521126760563 L 184.8432055749129 388.16901408450707 L 186.58536585365854 379.71830985915494 L 188.3275261324042 382.67605633802816 L 190.06968641114983 381.830985915493 L 191.81184668989548 391.5492957746479 L 193.55400696864112 392.1830985915493 L 195.29616724738676 383.0985915492958 L 197.0383275261324 387.9577464788733 L 198.78048780487805 391.5492957746479 L 200.5226480836237 390.9154929577465 L 202.26480836236934 392.3943661971831 L 204.00696864111498 397.46478873239437 L 205.74912891986062 399.7887323943662 L 207.49128919860627 398.0985915492958 L 209.2334494773519 388.59154929577466 L 210.97560975609755 394.29577464788736 L 212.7177700348432 396.19718309859155 L 214.45993031358887 399.3661971830986 L 216.2020905923345 399.1549295774648 L 217.94425087108016 394.71830985915494 L 219.6864111498258 392.6056338028169 L 221.42857142857144 400 L 223.1707317073171 388.38028169014086 L 224.91289198606273 384.5774647887324 L 226.65505226480838 362.8169014084507 L 228.39721254355402 380.14084507042253 L 230.13937282229966 374.2253521126761 L 231.8815331010453 376.5492957746479 L 233.62369337979095 375.28169014084506 L 235.3658536585366 372.53521126760563 L 237.10801393728224 380.5633802816902 L 238.85017421602788 372.53521126760563 L 240.59233449477352 371.69014084507046 L 242.33449477351917 363.6619718309859 L 244.0766550522648 373.16901408450707 L 245.81881533101046 368.3098591549296 L 247.5609756097561 357.7464788732394 L 249.30313588850174 356.4788732394366 L 251.0452961672474 352.2535211267606 L 252.78745644599303 358.80281690140845 L 254.52961672473867 356.2676056338028 L 256.2717770034843 353.3098591549296 L 258.01393728222996 352.67605633802816 L 259.7560975609756 348.8732394366197 L 261.49825783972125 353.7323943661972 L 263.2404181184669 349.71830985915494 L 264.98257839721254 352.887323943662 L 266.7247386759582 353.943661971831 L 268.4668989547038 360.4929577464789 L 270.20905923344947 360.7042253521127 L 271.9512195121951 361.7605633802817 L 273.69337979094075 358.38028169014086 L 275.4355400696864 356.4788732394366 L 277.17770034843204 355.84507042253523 L 278.9198606271777 350.14084507042253 L 280.6620209059233 345.7042253521127 L 282.40418118466897 345.7042253521127 L 284.1463414634146 335.98591549295776 L 285.88850174216026 333.4507042253521 L 287.6306620209059 325.42253521126764 L 289.37282229965155 315.28169014084506 L 291.1149825783972 312.53521126760563 L 292.85714285714283 304.50704225352115 L 294.5993031358885 304.92957746478874 L 296.3414634146342 303.02816901408454 L 298.08362369337976 300.7042253521127 L 299.82578397212546 303.23943661971833 L 301.56794425087105 299.4366197183099 L 303.31010452961675 295.42253521126764 L 305.05226480836234 293.7323943661972 L 306.79442508710804 295.63380281690144 L 308.5365853658536 288.02816901408454 L 310.2787456445993 283.16901408450707 L 312.0209059233449 292.67605633802816 L 313.7630662020906 285.7042253521127 L 315.5052264808362 275.14084507042253 L 317.2473867595819 277.0422535211268 L 318.9895470383275 280.2112676056338 L 320.7317073170732 281.90140845070425 L 322.4738675958188 280 L 324.2160278745645 273.02816901408454 L 325.95818815331006 281.2676056338028 L 327.70034843205576 280 L 329.44250871080135 283.38028169014086 L 331.18466898954705 285.4929577464789 L 332.92682926829264 284.4366197183099 L 334.66898954703834 281.2676056338028 L 336.4111498257839 281.90140845070425 L 338.1533101045296 279.5774647887324 L 339.8954703832752 273.6619718309859 L 341.6376306620209 275.98591549295776 L 343.3797909407665 270.7042253521127 L 345.1219512195122 275.5633802816902 L 346.86411149825784 274.29577464788736 L 348.6062717770035 262.0422535211268 L 350.34843205574913 255.4929577464789 L 352.0905923344948 247.25352112676057 L 353.8327526132404 246.830985915493 L 355.57491289198606 242.6056338028169 L 357.3170731707317 241.76056338028172 L 359.05923344947735 250.84507042253523 L 360.801393728223 232.887323943662 L 362.54355400696863 230.77464788732397 L 364.2857142857143 221.69014084507046 L 366.0278745644599 217.25352112676057 L 367.77003484320556 213.66197183098592 L 369.5121951219512 211.54929577464787 L 371.25435540069685 208.59154929577466 L 372.9965156794425 211.76056338028172 L 374.73867595818814 211.1267605633803 L 376.4808362369338 202.04225352112678 L 378.2229965156794 200.14084507042253 L 379.96515679442507 207.32394366197184 L 381.7073170731707 200.35211267605638 L 383.44947735191636 205.42253521126764 L 385.191637630662 211.54929577464787 L 386.93379790940764 206.90140845070425 L 388.6759581881533 200.35211267605638 L 390.41811846689893 197.6056338028169 L 392.1602787456446 186.6197183098592 L 393.9024390243902 177.11267605633805 L 395.6445993031359 185.35211267605638 L 397.3867595818815 190 L 399.1289198606272 193.16901408450707 L 400.8710801393728 193.59154929577466 L 402.6132404181185 198.8732394366197 L 404.3554006968641 200.77464788732397 L 406.0975609756097 179.85915492957747 L 407.83972125435537 195.7042253521127 L 409.581881533101 191.90140845070425 L 411.32404181184666 187.04225352112678 L 413.0662020905923 192.11267605633805 L 414.80836236933794 192.32394366197184 L 416.5505226480836 172.46478873239437 L 418.29268292682923 168.45070422535213 L 420.0348432055749 173.3098591549296 L 421.7770034843206 173.3098591549296 L 423.5191637630662 172.887323943662 L 425.26132404181186 168.8732394366197 L 427.0034843205575 167.3943661971831 L 428.74564459930315 160 L 430.4878048780488 171.19718309859155 L 432.22996515679444 157.25352112676057 L 433.9721254355401 150.4929577464789 L 435.7142857142857 139.9295774647888 L 437.45644599303137 136.33802816901408 L 439.198606271777 137.18309859154937 L 440.94076655052265 127.25352112676063 L 442.6829268292683 127.04225352112672 L 444.42508710801394 128.5211267605634 L 446.1672473867596 132.95774647887328 L 447.9094076655052 131.4788732394366 L 449.65156794425087 130.63380281690144 L 451.3937282229965 138.8732394366197 L 453.13588850174216 152.1830985915493 L 454.8780487804878 137.18309859154937 L 456.62020905923345 134.01408450704224 L 458.3623693379791 133.38028169014086 L 460.10452961672473 122.39436619718316 L 461.8466898954704 117.95774647887328 L 463.588850174216 122.18309859154937 L 465.33101045296166 120.07042253521132 L 467.0731707317073 112.46478873239442 L 468.81533101045295 133.59154929577466 L 470.5574912891986 127.04225352112672 L 472.29965156794424 143.73239436619718 L 474.0418118466899 129.15492957746477 L 475.7839721254355 122.60563380281695 L 477.52613240418117 115.63380281690144 L 479.2682926829268 105.49295774647891 L 481.01045296167246 124.50704225352109 L 482.7526132404181 120.07042253521132 L 484.49477351916374 131.05633802816902 L 486.2369337979094 135.28169014084511 L 487.97909407665503 134.01408450704224 L 489.7212543554007 122.39436619718316 L 491.4634146341463 132.95774647887328 L 493.20557491289196 116.9014084507042 L 494.9477351916376 117.11267605633799 L 496.68989547038325 114.15492957746477 L 498.4320557491289 116.47887323943661 L 500.17421602787454 119.43661971830983 L 501.9163763066202 100.00000000000006 L 503.6585365853658 113.73239436619718 L 505.40069686411147 131.9014084507042 L 507.1428571428571 124.92957746478879 L 508.88501742160275 128.5211267605634 L 510.6271777003484 119.01408450704224 L 512.3693379790941 133.16901408450707 L 514.1114982578397 134.64788732394362 L 515.8536585365853 136.33802816901408 L 517.595818815331 147.74647887323948 L 519.3379790940767 164.2253521126761 L 521.0801393728223 163.59154929577466 L 522.822299651568 153.23943661971833 L 524.5644599303137 152.81690140845075 L 526.3066202090592 163.16901408450707 L 528.0487804878048 157.25352112676057 L 529.7909407665505 179.64788732394368 L 531.5331010452962 188.0985915492958 L 533.2752613240418 186.40845070422534 L 535.0174216027874 192.32394366197184 L 536.7595818815331 205.2112676056338 L 538.5017421602788 213.02816901408454 L 540.2439024390244 210.07042253521126 L 541.98606271777 202.46478873239437 L 543.7282229965157 212.8169014084507 L 545.4703832752614 226.97183098591552 L 547.212543554007 221.4788732394366 L 548.9547038327526 239.01408450704224 L 550.6968641114983 235.84507042253523 L 552.439024390244 230.77464788732397 L 554.1811846689895 231.6197183098592 L 555.9233449477351 236.69014084507046 L 557.6655052264808 228.23943661971833 L 559.4076655052265 241.33802816901408 L 561.1498257839721 236.05633802816902 L 562.8919860627177 240.28169014084506 L 564.6341463414634 240.28169014084506 L 566.3763066202091 235.42253521126764 L 568.1184668989547 232.04225352112678 L 569.8606271777003 243.23943661971833 L 571.602787456446 239.85915492957747 L 573.3449477351917 252.11267605633805 L 575.0871080139373 254.43661971830988 L 576.8292682926829 253.59154929577466 L 578.5714285714286 252.32394366197184 L 580.3135888501743 260.77464788732397 L 582.0557491289198 270.4929577464789 L 583.7979094076654 262.46478873239437 L 585.5400696864111 270.4929577464789 L 587.2822299651568 264.3661971830986 L 589.0243902439024 265.2112676056338 L 590.766550522648 269.4366197183099 L 592.5087108013937 275.77464788732397 L 594.2508710801394 266.056338028169 L 595.993031358885 264.3661971830986 L 597.7351916376306 265.42253521126764 L 599.4773519163763 278.943661971831 L 601.219512195122 270.28169014084506 L 602.9616724738676 260.5633802816902 L 604.7038327526132 272.3943661971831 L 606.4459930313589 270.9154929577465 L 608.1881533101046 289.71830985915494 L 609.9303135888501 294.3661971830986 L 611.6724738675957 310.84507042253523 L 613.4146341463414 315.4929577464789 L 615.1567944250871 305.14084507042253 L 616.8989547038327 313.59154929577466 L 618.6411149825783 326.4788732394366 L 620.383275261324 312.9577464788733 L 622.1254355400697 313.16901408450707 L 623.8675958188153 309.1549295774648 L 625.609756097561 321.6197183098592 L 627.3519163763067 311.90140845070425 L 629.0940766550523 319.50704225352115 L 630.8362369337979 315.4929577464789 L 632.5783972125436 328.38028169014086 L 634.3205574912893 326.056338028169 L 636.0627177700349 326.90140845070425 L 637.8048780487804 328.16901408450707 L 639.5470383275261 346.9718309859155 L 641.2891986062718 346.9718309859155 L 643.0313588850174 355.63380281690144 L 644.773519163763 356.69014084507046 L 646.5156794425087 360.28169014084506 L 648.2578397212544 362.8169014084507 L 650 360.28169014084506 L 650 400 Z" /><text  class="poloto_labels poloto_text poloto_title" alignment-baseline="start" text-anchor="middle" font-size="x-large" x="400" y="37.5" >Total players on 2021-07-17</text><text  class="poloto_labels poloto_text poloto_xname" alignment-baseline="start" text-anchor="middle" font-size="x-large" x="400" y="481.25" >Time</text><text  class="poloto_labels poloto_text poloto_yname" alignment-baseline="start" text-anchor="middle" font-size="x-large" transform="rotate(-90,37.5,250)" x="37.5" y="250" >Count</text><line  class="poloto_axis_lines" stroke="black" x1="208.0487804878049" x2="208.0487804878049" y1="400" y2="405" /><text  class="poloto_tick_labels poloto_text" alignment-baseline="start" text-anchor="middle" x="208.0487804878049" y="430" > 02:46:40</text><line  class="poloto_axis_lines" stroke="black" x1="266.1207897793264" x2="266.1207897793264" y1="400" y2="405" /><text  class="poloto_tick_labels poloto_text" alignment-baseline="start" text-anchor="middle" x="266.1207897793264" y="430" > 05:33:20</text><line  class="poloto_axis_lines" stroke="black" x1="324.19279907084785" x2="324.19279907084785" y1="400" y2="405" /><text  class="poloto_tick_labels poloto_text" alignment-baseline="start" text-anchor="middle" x="324.19279907084785" y="430" > 08:20:00</text><line  class="poloto_axis_lines" stroke="black" x1="382.2648083623693" x2="382.2648083623693" y1="400" y2="405" /><text  class="poloto_tick_labels poloto_text" alignment-baseline="start" text-anchor="middle" x="382.2648083623693" y="430" > 11:06:40</text><line  class="poloto_axis_lines" stroke="black" x1="440.3368176538908" x2="440.3368176538908" y1="400" y2="405" /><text  class="poloto_tick_labels poloto_text" alignment-baseline="start" text-anchor="middle" x="440.3368176538908" y="430" > 13:53:20</text><line  class="poloto_axis_lines" stroke="black" x1="498.4088269454123" x2="498.4088269454123" y1="400" y2="405" /><text  class="poloto_tick_labels poloto_text" alignment-baseline="start" text-anchor="middle" x="498.4088269454123" y="430" > 16:40:00</text><line  class="poloto_axis_lines" stroke="black" x1="556.4808362369338" x2="556.4808362369338" y1="400" y2="405" /><text  class="poloto_tick_labels poloto_text" alignment-baseline="start" text-anchor="middle" x="556.4808362369338" y="430" > 19:26:40</text><line  class="poloto_axis_lines" stroke="black" x1="614.5528455284552" x2="614.5528455284552" y1="400" y2="405" /><text  class="poloto_tick_labels poloto_text" alignment-baseline="start" text-anchor="middle" x="614.5528455284552" y="430" > 22:13:20</text><line  class="poloto_axis_lines" stroke="black" x1="150" x2="144" y1="365.3521126760563" y2="365.3521126760563" /><text  class="poloto_tick_labels poloto_text" alignment-baseline="middle" text-anchor="end" x="135" y="365.3521126760563" > 1400</text><line  class="poloto_axis_lines" stroke="black" x1="150" x2="144" y1="323.0985915492958" y2="323.0985915492958" /><text  class="poloto_tick_labels poloto_text" alignment-baseline="middle" text-anchor="end" x="135" y="323.0985915492958" > 1600</text><line  class="poloto_axis_lines" stroke="black" x1="150" x2="144" y1="280.84507042253523" y2="280.84507042253523" /><text  class="poloto_tick_labels poloto_text" alignment-baseline="middle" text-anchor="end" x="135" y="280.84507042253523" > 1800</text><line  class="poloto_axis_lines" stroke="black" x1="150" x2="144" y1="238.59154929577466" y2="238.59154929577466" /><text  class="poloto_tick_labels poloto_text" alignment-baseline="middle" text-anchor="end" x="135" y="238.59154929577466" > 2000</text><line  class="poloto_axis_lines" stroke="black" x1="150" x2="144" y1="196.33802816901408" y2="196.33802816901408" /><text  class="poloto_tick_labels poloto_text" alignment-baseline="middle" text-anchor="end" x="135" y="196.33802816901408" > 2200</text><line  class="poloto_axis_lines" stroke="black" x1="150" x2="144" y1="154.08450704225356" y2="154.08450704225356" /><text  class="poloto_tick_labels poloto_text" alignment-baseline="middle" text-anchor="end" x="135" y="154.08450704225356" > 2400</text><line  class="poloto_axis_lines" stroke="black" x1="150" x2="144" y1="111.83098591549293" y2="111.83098591549293" /><text  class="poloto_tick_labels poloto_text" alignment-baseline="middle" text-anchor="end" x="135" y="111.83098591549293" > 2600</text><path  stroke="black" fill="none" class="poloto_axis_lines" style="stroke-dasharray:14.518002322880372;stroke-dashoffset:-58.04878048780488;" d=" M 150 400 L 650 400" /><path  stroke="black" fill="none" class="poloto_axis_lines" style="stroke-dasharray:10.56338028169014;stroke-dashoffset:-34.64788732394368;" d=" M 150 400 L 150 100" /></svg>