<svg class="poloto" width="800" height="500" viewBox="0 0 800 500" xmlns="http://www.w3.org/2000/svg"><style>.poloto { stroke-linecap:round; stroke-linejoin:round; font-family: 'Tahoma', sans-serif; background-color: AliceBlue;} .poloto_scatter{stroke-width:7} .poloto_line{stroke-width:2} .poloto_text{fill: black;} .poloto_axis_lines{stroke: black;stroke-width:3;fill:none;stroke-dasharray:none} .poloto0stroke{stroke:  blue;} .poloto1stroke{stroke:  red;} .poloto2stroke{stroke:  green;} .poloto3stroke{stroke:  gold;} .poloto4stroke{stroke:  aqua;} .poloto5stroke{stroke:  lime;} .poloto6stroke{stroke:  orange;} .poloto7stroke{stroke:  chocolate;} .poloto0fill{fill:blue;} .poloto1fill{fill:red;} .poloto2fill{fill:green;} .poloto3fill{fill:gold;} .poloto4fill{fill:aqua;} .poloto5fill{fill:lime;} .poloto6fill{fill:orange;} .poloto7fill{fill:chocolate;}</style><text  class="poloto_text poloto_legend_text" alignment-baseline="middle" text-anchor="start" font-size="large" x="675" y="100" ></text><path  class="poloto_linefill poloto0fill" d=" M 150 400 L 150 362.6323751891074 L 151.74216027874564 369.1376701966717 L 153.4843205574913 369.28895612708016 L 155.2322880371661 374.73524962178516 L 156.96864111498257 380.18154311649016 L 158.71080139372822 379.12254160363085 L 160.45296167247386 383.50983358547654 L 162.1951219512195 382.14826021180033 L 163.93728222996515 389.10741301059 L 165.6794425087108 382.45083207261723 L 167.42160278745644 388.04841149773074 L 169.16376306620208 387.5945537065053 L 170.90592334494772 391.8305597579425 L 172.64808362369337 392.73827534039333 L 174.390243902439 390.6202723146747 L 176.13240418118465 394.4024205748865 L 177.8745644599303 397.8819969742814 L 179.61672473867597 396.5204236006051 L 181.3588850174216 399.54614220877454 L 183.10104529616726 396.82299546142207 L 184.8432055749129 394.4024205748865 L 186.58536585365854 395.46142208774586 L 188.3275261324042 395.0075642965204 L 190.06968641114983 396.6717095310136 L 191.81765389082463 398.33585476550684 L 193.55400696864112 396.6717095310136 L 195.29616724738676 400 L 197.0383275261324 399.69742813918305 L 198.78048780487805 398.63842662632374 L 200.5226480836237 398.33585476550684 L 202.2706155632985 389.40998487140695 L 204.00696864111498 391.07413010590017 L 205.74912891986062 391.07413010590017 L 207.49128919860627 383.50983358547654 L 209.2334494773519 383.8124054462935 L 210.97560975609755 385.02269288956126 L 212.7177700348432 383.50983358547654 L 214.45993031358887 385.02269288956126 L 216.2020905923345 377.0045385779123 L 217.94425087108016 382.2995461422088 L 219.69221835075496 379.57639939485625 L 221.42857142857144 381.3918305597579 L 223.1707317073171 378.3661119515885 L 224.91289198606273 377.76096822995464 L 226.65505226480838 374.4326777609682 L 228.39721254355402 372.9198184568835 L 230.13937282229966 371.86081694402424 L 231.8815331010453 367.9273827534039 L 233.6295005807201 363.6913767019667 L 235.3658536585366 364.1452344931921 L 237.10801393728224 365.05295007564297 L 238.85017421602788 364.1452344931921 L 240.59233449477352 359.7579425113464 L 242.33449477351917 352.3449319213313 L 244.0766550522648 350.98335854765503 L 245.81881533101046 353.70650529500756 L 247.5609756097561 347.80635400907715 L 249.30313588850174 349.0166414523449 L 251.0452961672474 345.9909228441755 L 252.78745644599303 338.7291981845688 L 254.52961672473867 338.7291981845688 L 256.2717770034843 337.2163388804841 L 258.01393728222996 341.6036308623298 L 259.7560975609756 340.2420574886536 L 261.49825783972125 335.40090771558243 L 263.2404181184669 336.7624810892587 L 264.9883855981417 344.02420574886537 L 266.7247386759582 338.8804841149773 L 268.4668989547038 338.2753403933434 L 270.20905923344947 344.02420574886537 L 271.9512195121951 346.4447806354009 L 273.69337979094075 341.7549167927383 L 275.44134727061555 353.4039334341906 L 277.17770034843204 355.5219364599092 L 278.9198606271777 355.3706505295007 L 280.6620209059233 357.9425113464448 L 282.40418118466897 354.61422087745837 L 284.1463414634146 361.2708018154311 L 285.88850174216026 357.48865355521934 L 287.6306620209059 356.88350983358544 L 289.37282229965155 351.4372163388805 L 291.1149825783972 351.13464447806354 L 292.85714285714283 348.10892586989405 L 294.5993031358885 346.89863842662635 L 296.3472706155633 340.5446293494705 L 298.08362369337976 338.5779122541603 L 299.82578397212546 337.0650529500756 L 301.56794425087105 333.13161875945536 L 303.31010452961675 331.92133131618755 L 305.05226480836234 322.54160363086237 L 306.79442508710804 321.02874432677754 L 308.5365853658536 314.82602118003024 L 310.2787456445993 317.24659606656576 L 312.0209059233449 314.9773071104387 L 313.7630662020906 312.55673222390317 L 315.5052264808362 309.3797276853253 L 317.253193960511 304.0847201210287 L 318.9895470383275 304.23600605143724 L 320.7317073170732 306.35400907715587 L 322.4738675958188 305.2950075642965 L 324.2160278745645 291.981845688351 L 325.95818815331006 292.73827534039333 L 327.70034843205576 294.0998487140696 L 329.44250871080135 278.21482602118 L 331.18466898954705 282.2995461422088 L 332.92682926829264 277.76096822995464 L 334.66898954703834 276.5506807866868 L 336.4111498257839 267.0196671709531 L 338.1591173054587 264.59909228441757 L 339.8954703832752 262.0272314674735 L 341.6376306620209 265.80937972768527 L 343.3797909407665 269.59152798789717 L 345.1219512195122 264.4478063540091 L 346.86411149825784 266.4145234493192 L 348.6062717770035 264.59909228441757 L 350.34843205574913 259.7579425113464 L 352.0905923344948 250.0756429652042 L 353.8327526132404 249.01664145234494 L 355.57491289198606 242.36006051437212 L 357.3170731707317 239.9394856278366 L 359.0650406504065 236.30862329803327 L 360.801393728223 235.70347957639936 L 362.54355400696863 236.91376701966718 L 364.2857142857143 228.5930408472012 L 366.0278745644599 228.74432677760964 L 367.77003484320556 224.50832072617246 L 369.51800232288036 224.8108925869894 L 371.25435540069685 222.54160363086234 L 372.9965156794425 219.2133131618759 L 374.73867595818814 216.79273827534038 L 376.4808362369338 204.68986384266262 L 378.2229965156794 208.16944024205745 L 379.96515679442507 207.71558245083204 L 381.7073170731707 203.93343419062026 L 383.44947735191636 209.98487140695912 L 385.191637630662 201.6641452344932 L 386.93379790940764 207.26172465960664 L 388.6759581881533 201.6641452344932 L 390.41811846689893 206.9591527987897 L 392.1602787456446 213.0105900151286 L 393.9024390243902 206.65658093797273 L 395.6445993031359 202.42057488653555 L 397.3867595818815 204.99243570347957 L 399.1289198606272 209.83358547655067 L 400.8710801393728 210.13615733736762 L 402.6132404181185 209.0771558245083 L 404.3554006968641 207.71558245083204 L 406.0975609756097 207.4130105900151 L 407.83972125435537 201.51285930408469 L 409.581881533101 206.20272314674733 L 411.3298490127758 202.26928895612704 L 413.0662020905923 201.51285930408469 L 414.80836236933794 195.31013615733733 L 416.5505226480836 184.11497730711042 L 418.29268292682923 186.08169440242054 L 420.0348432055749 183.81240544629347 L 421.7770034843206 185.4765506807867 L 423.5191637630662 186.3842662632375 L 425.26132404181186 185.32526475037818 L 427.0034843205575 183.66111951588502 L 428.74564459930315 184.26626323751887 L 430.4878048780488 183.81240544629347 L 432.2357723577236 181.84568835098335 L 433.9721254355401 177.91225416036306 L 435.7142857142857 180.9379727685325 L 437.45644599303137 181.39183055975795 L 439.198606271777 177.1558245083207 L 440.94076655052265 176.2481089258699 L 442.6829268292683 172.91981845688352 L 444.42508710801394 169.28895612708018 L 446.1672473867596 164.9016641452345 L 447.9094076655052 159.9092284417549 L 449.65156794425087 156.88350983358546 L 451.3937282229965 152.34493192133132 L 453.1416957026713 145.08320726172465 L 454.8780487804878 146.2934947049924 L 456.62020905923345 132.22390317700456 L 458.3623693379791 131.4674735249622 L 460.10452961672473 135.24962178517399 L 461.8466898954704 129.65204236006048 L 463.5946573751452 132.98033282904692 L 465.33101045296166 121.1800302571861 L 467.0731707317073 122.99546142208771 L 468.81533101045295 116.33888048411495 L 470.5574912891986 110.2874432677761 L 472.29965156794424 105.44629349470495 L 474.04761904761904 103.78214826021178 L 475.7839721254355 100 L 477.52613240418117 101.36157337367626 L 479.2682926829268 100.75642965204236 L 481.01045296167246 108.01815431164903 L 482.7526132404181 105.14372163388805 L 484.49477351916374 105.5975794251134 L 486.2369337979094 101.36157337367626 L 487.97909407665503 109.98487140695909 L 489.7212543554007 107.86686838124058 L 491.4634146341463 116.1875945537065 L 493.20557491289196 115.5824508320726 L 494.9477351916376 115.12859304084714 L 496.68989547038325 119.96974281391829 L 498.4320557491289 115.12859304084714 L 500.17421602787454 124.81089258698944 L 501.9163763066202 130.55975794251128 L 503.6585365853658 132.82904689863835 L 505.4065040650406 145.2344931921331 L 507.1428571428571 144.62934947049925 L 508.88501742160275 151.285930408472 L 510.6271777003484 152.95007564296517 L 512.3693379790941 158.85022692889558 L 514.1114982578397 168.68381240544628 L 515.8536585365853 173.07110438729197 L 517.595818815331 167.01966717095306 L 519.3379790940767 188.3509833585476 L 521.0801393728223 186.68683812405445 L 522.822299651568 175.34039334341904 L 524.5644599303137 177.30711043872915 L 526.3066202090592 173.07110438729197 L 528.0487804878048 180.4841149773071 L 529.7909407665505 179.57639939485628 L 531.5331010452962 190.01512859304083 L 533.2752613240418 200.30257186081693 L 535.0174216027874 208.4720121028744 L 536.7595818815331 216.18759455370648 L 538.5017421602788 216.49016641452343 L 540.2439024390244 218.60816944024205 L 541.98606271777 228.74432677760964 L 543.7282229965157 234.34190620272315 L 545.4703832752614 239.18305597579425 L 547.212543554007 243.7216338880484 L 548.9547038327526 249.01664145234494 L 550.6968641114983 250.6807866868381 L 552.444831591173 252.79878971255673 L 554.1811846689895 246.74735249621781 L 555.9233449477351 251.89107413010586 L 557.6713124274099 249.31921331316184 L 559.4076655052265 254.6142208774584 L 561.1498257839721 257.3373676248109 L 562.8919860627177 256.732223903177 L 564.6341463414634 257.3373676248109 L 566.3763066202091 253.25264750378213 L 568.1184668989547 259.4553706505295 L 569.8606271777003 268.5325264750378 L 571.602787456446 264.90166414523446 L 573.3449477351917 265.50680786686837 L 575.0871080139373 271.1043872919819 L 576.8292682926829 281.9969742813918 L 578.5772357723577 283.35854765506804 L 580.3135888501743 281.391830559758 L 582.0557491289198 275.340393343419 L 583.7979094076654 271.86081694402424 L 585.5400696864111 275.9455370650529 L 587.2822299651568 277.45839636913763 L 589.0243902439024 279.27382753403936 L 590.766550522648 281.391830559758 L 592.5087108013937 284.7201210287443 L 594.2508710801394 290.0151285930408 L 595.993031358885 295.15885022692885 L 597.7351916376306 299.697428139183 L 599.4831591173054 304.23600605143724 L 601.219512195122 301.5128593040847 L 602.9616724738676 312.1028744326777 L 604.7038327526132 301.66414523449316 L 606.4459930313589 302.874432677761 L 608.1881533101046 300.3025718608169 L 609.9303135888501 298.94099848714063 L 611.6724738675957 299.3948562783661 L 613.4146341463414 305.74886535552196 L 615.1567944250871 300.6051437216339 L 616.8989547038327 303.0257186081694 L 618.6411149825783 302.26928895612707 L 620.3890824622531 299.24357034795764 L 622.1254355400697 308.4720121028744 L 623.8675958188153 310.13615733736765 L 625.609756097561 312.4054462934947 L 627.3519163763067 317.24659606656576 L 629.0940766550523 319.81845688350984 L 630.8420441347271 325.8698940998487 L 632.5783972125436 325.5673222390318 L 634.3205574912893 323.75189107413007 L 636.0627177700349 330.71104387291984 L 637.8048780487804 328.8956127080181 L 639.5470383275261 327.23146747352496 L 641.2891986062718 327.23146747352496 L 643.0313588850174 327.3827534039334 L 644.773519163763 328.7443267776097 L 646.5156794425087 334.6444780635401 L 648.2578397212544 337.2163388804841 L 650 344.7806354009077 L 650 400 Z" /><text  class="poloto_labels poloto_text poloto_title" alignment-baseline="start" text-anchor="middle" font-size="x-large" x="400" y="37.5" >Total players on 2021-08-13</text><text  class="poloto_labels poloto_text poloto_xname" alignment-baseline="start" text-anchor="middle" font-size="x-large" x="400" y="481.25" >Time</text><text  class="poloto_labels poloto_text poloto_yname" alignment-baseline="start" text-anchor="middle" font-size="x-large" transform="rotate(-90,37.5,250)" x="37.5" y="250" >Count</text><line  class="poloto_axis_lines" stroke="black" x1="208.0487804878049" x2="208.0487804878049" y1="400" y2="405" /><text  class="poloto_tick_labels poloto_text" alignment-baseline="start" text-anchor="middle" x="208.0487804878049" y="430" > 03:00</text><line  class="poloto_axis_lines" stroke="black" x1="266.1207897793264" x2="266.1207897793264" y1="400" y2="405" /><text  class="poloto_tick_labels poloto_text" alignment-baseline="start" text-anchor="middle" x="266.1207897793264" y="430" > 06:00</text><line  class="poloto_axis_lines" stroke="black" x1="324.19279907084785" x2="324.19279907084785" y1="400" y2="405" /><text  class="poloto_tick_labels poloto_text" alignment-baseline="start" text-anchor="middle" x="324.19279907084785" y="430" > 08:00</text><line  class="poloto_axis_lines" stroke="black" x1="382.2648083623693" x2="382.2648083623693" y1="400" y2="405" /><text  class="poloto_tick_labels poloto_text" alignment-baseline="start" text-anchor="middle" x="382.2648083623693" y="430" > 11:00</text><line  class="poloto_axis_lines" stroke="black" x1="440.3368176538908" x2="440.3368176538908" y1="400" y2="405" /><text  class="poloto_tick_labels poloto_text" alignment-baseline="start" text-anchor="middle" x="440.3368176538908" y="430" > 14:00</text><line  class="poloto_axis_lines" stroke="black" x1="498.4088269454123" x2="498.4088269454123" y1="400" y2="405" /><text  class="poloto_tick_labels poloto_text" alignment-baseline="start" text-anchor="middle" x="498.4088269454123" y="430" > 17:00</text><line  class="poloto_axis_lines" stroke="black" x1="556.4808362369338" x2="556.4808362369338" y1="400" y2="405" /><text  class="poloto_tick_labels poloto_text" alignment-baseline="start" text-anchor="middle" x="556.4808362369338" y="430" > 19:00</text><line  class="poloto_axis_lines" stroke="black" x1="614.5528455284552" x2="614.5528455284552" y1="400" y2="405" /><text  class="poloto_tick_labels poloto_text" alignment-baseline="start" text-anchor="middle" x="614.5528455284552" y="430" > 22:00</text><line  class="poloto_axis_lines" stroke="black" x1="150" x2="144" y1="361.1195158850227" y2="361.1195158850227" /><text  class="poloto_tick_labels poloto_text" alignment-baseline="middle" text-anchor="end" x="135" y="361.1195158850227" > 1500</text><line  class="poloto_axis_lines" stroke="black" x1="150" x2="144" y1="285.47655068078666" y2="285.47655068078666" /><text  class="poloto_tick_labels poloto_text" alignment-baseline="middle" text-anchor="end" x="135" y="285.47655068078666" > 2000</text><line  class="poloto_axis_lines" stroke="black" x1="150" x2="144" y1="209.83358547655064" y2="209.83358547655064" /><text  class="poloto_tick_labels poloto_text" alignment-baseline="middle" text-anchor="end" x="135" y="209.83358547655064" > 2500</text><line  class="poloto_axis_lines" stroke="black" x1="150" x2="144" y1="134.19062027231462" y2="134.19062027231462" /><text  class="poloto_tick_labels poloto_text" alignment-baseline="middle" text-anchor="end" x="135" y="134.19062027231462" > 3000</text><path  stroke="black" fill="none" class="poloto_axis_lines" style="stroke-dasharray:14.518002322880372;stroke-dashoffset:-58.04878048780488;" d=" M 150 400 L 650 400" /><path  stroke="black" fill="none" class="poloto_axis_lines" style="stroke-dasharray:7.564296520423601;stroke-dashoffset:-38.88048411497732;" d=" M 150 400 L 150 100" /></svg>