<svg class="poloto" width="800" height="500" viewBox="0 0 800 500" xmlns="http://www.w3.org/2000/svg"><style>.poloto { stroke-linecap:round; stroke-linejoin:round; font-family: 'Tahoma', sans-serif; background-color: AliceBlue;} .poloto_scatter{stroke-width:7} .poloto_line{stroke-width:2} .poloto_text{fill: black;} .poloto_axis_lines{stroke: black;stroke-width:3;fill:none;stroke-dasharray:none} .poloto0stroke{stroke:  blue;} .poloto1stroke{stroke:  red;} .poloto2stroke{stroke:  green;} .poloto3stroke{stroke:  gold;} .poloto4stroke{stroke:  aqua;} .poloto5stroke{stroke:  lime;} .poloto6stroke{stroke:  orange;} .poloto7stroke{stroke:  chocolate;} .poloto0fill{fill:blue;} .poloto1fill{fill:red;} .poloto2fill{fill:green;} .poloto3fill{fill:gold;} .poloto4fill{fill:aqua;} .poloto5fill{fill:lime;} .poloto6fill{fill:orange;} .poloto7fill{fill:chocolate;}</style><text  class="poloto_text poloto_legend_text" alignment-baseline="middle" text-anchor="start" font-size="large" x="675" y="100" ></text><path  class="poloto_linefill poloto0fill" d=" M 150 400 L 150 357.5062344139651 L 151.74216027874564 355.1122194513716 L 153.4843205574913 359.4513715710723 L 155.22648083623693 358.1047381546134 L 156.96864111498257 358.25436408977555 L 158.71080139372822 360.9476309226933 L 160.45296167247386 365.7356608478803 L 162.1951219512195 372.76807980049875 L 163.93728222996515 367.3815461346633 L 165.6794425087108 373.21695760598504 L 167.42160278745644 372.4688279301746 L 169.16376306620208 377.1072319201995 L 170.90592334494772 378.30423940149626 L 172.64808362369337 385.3366583541147 L 174.390243902439 390.42394014962593 L 176.13240418118465 383.3915211970075 L 177.8745644599303 384.28927680798006 L 179.61672473867597 381.29675810473816 L 181.3588850174216 382.9426433915212 L 183.10104529616726 386.68329177057353 L 184.8432055749129 389.52618453865335 L 186.58536585365854 389.82543640897757 L 188.3275261324042 388.0299251870324 L 190.06968641114983 398.354114713217 L 191.81184668989548 396.5586034912718 L 193.55400696864112 400 L 195.29616724738676 396.4089775561097 L 197.0383275261324 397.75561097256855 L 198.78048780487805 394.16458852867834 L 200.5226480836237 389.67581047381543 L 202.26480836236934 388.77805486284285 L 204.00696864111498 389.82543640897757 L 205.74912891986062 387.1321695760598 L 207.49128919860627 376.8079800498753 L 209.2334494773519 377.70573566084784 L 210.97560975609755 372.91770573566083 L 212.7177700348432 369.17705735660843 L 214.45993031358887 364.23940149625935 L 216.2020905923345 361.9950124688279 L 217.94425087108016 356.3092269326683 L 219.6864111498258 348.0798004987531 L 221.42857142857144 348.82793017456356 L 223.1707317073171 343.59102244389027 L 224.91289198606273 340.74812967581045 L 226.65505226480838 338.50374064837905 L 228.39721254355402 339.7007481296758 L 230.13937282229966 339.7007481296758 L 231.8815331010453 338.05486284289276 L 233.62369337979095 333.86533665835407 L 235.3658536585366 338.20448877805484 L 237.10801393728224 336.70822942643395 L 238.85017421602788 333.1172069825436 L 240.59233449477352 333.26683291770576 L 242.33449477351917 324.28927680798006 L 244.0766550522648 327.73067331670825 L 245.81881533101046 325.9351620947631 L 247.5609756097561 322.4937655860349 L 249.30313588850174 319.35162094763086 L 251.0452961672474 316.20947630922694 L 252.78745644599303 316.35910224438896 L 254.52961672473867 312.9177057356609 L 256.2717770034843 307.68079800498754 L 258.01393728222996 312.6184538653366 L 259.7560975609756 313.81546134663336 L 261.49825783972125 308.8778054862843 L 263.2404181184669 310.22443890274315 L 264.98257839721254 307.23192019950125 L 266.7247386759582 313.66583541147133 L 268.4668989547038 310.3740648379053 L 270.20905923344947 313.36658354114707 L 271.9512195121951 311.571072319202 L 273.69337979094075 309.925187032419 L 275.4355400696864 315.76059850374065 L 277.17770034843204 309.925187032419 L 278.91986062717774 314.4139650872818 L 280.6620209059233 320.5486284289277 L 282.404181184669 319.0523690773067 L 284.1463414634146 319.80049875311715 L 285.8885017421603 315.4613466334165 L 287.6306620209059 310.82294264339146 L 289.3728222996516 307.68079800498754 L 291.1149825783972 311.72069825436404 L 292.8571428571429 304.0897755610972 L 294.5993031358885 301.69576059850374 L 296.3414634146342 297.35660847880297 L 298.08362369337976 298.1047381546134 L 299.82578397212546 294.36408977556107 L 301.56794425087105 286.28428927680795 L 303.31010452961675 286.5835411471321 L 305.05226480836234 285.23690773067335 L 306.79442508710804 284.4887780548628 L 308.5365853658536 282.9925187032419 L 310.2787456445993 280 L 312.0209059233449 274.16458852867834 L 313.7630662020906 278.80299251870326 L 315.5052264808362 273.86533665835407 L 317.2473867595819 263.69077306733163 L 318.9895470383275 260.84788029925187 L 320.7317073170732 260.3990024937656 L 322.4738675958188 253.6658354114713 L 324.2160278745645 253.81546134663338 L 325.9581881533101 247.98004987531172 L 327.70034843205576 239.45137157107231 L 329.4425087108014 240.19950124688276 L 331.18466898954705 241.84538653366585 L 332.9268292682927 242.29426433915208 L 334.66898954703834 239.6009975062344 L 336.411149825784 239.1521197007481 L 338.1533101045296 239.00249376558602 L 339.89547038327527 238.10473815461344 L 341.6376306620209 241.24688279301742 L 343.37979094076655 244.98753117206982 L 345.1219512195122 241.24688279301742 L 346.86411149825784 239.00249376558602 L 348.6062717770035 238.40399002493766 L 350.34843205574913 239.1521197007481 L 352.0905923344948 236.6084788029925 L 353.8327526132404 234.21446384039896 L 355.57491289198606 224.48877805486282 L 357.3170731707317 224.33915211970074 L 359.05923344947735 229.72568578553617 L 360.801393728223 231.22194513715712 L 362.54355400696863 217.60598503740644 L 364.2857142857143 213.4164588528678 L 366.0278745644599 212.069825436409 L 367.77003484320556 213.71571072319202 L 369.5121951219512 205.78553615960098 L 371.25435540069685 198.30423940149623 L 372.9965156794425 198.75311720698252 L 374.73867595818814 199.6508728179551 L 376.4808362369338 194.41396508728175 L 378.2229965156795 199.95012468827926 L 379.96515679442507 196.6583541147132 L 381.70731707317077 185.73566084788027 L 383.44947735191636 192.16957605985036 L 385.19163763066206 189.17705735660846 L 386.93379790940764 187.53117206982543 L 388.67595818815334 189.32668329177054 L 390.41811846689893 188.1296758104738 L 392.16027874564463 186.03491271820448 L 393.9024390243902 177.05735660847878 L 395.6445993031359 179.9002493765586 L 397.3867595818815 177.05735660847878 L 399.1289198606272 175.7107231920199 L 400.8710801393728 174.66334164588525 L 402.6132404181185 179.9002493765586 L 404.3554006968641 175.26184538653362 L 406.0975609756098 180.19950124688276 L 407.8397212543554 173.9152119700748 L 409.58188153310107 180.3491271820449 L 411.3240418118467 183.79052369077303 L 413.06620209059236 187.23192019950122 L 414.808362369338 187.53117206982543 L 416.55052264808364 180.49875311720697 L 418.2926829268293 178.85286783042395 L 420.03484320557493 172.718204488778 L 421.7770034843206 178.55361596009973 L 423.5191637630662 166.58354114713214 L 425.26132404181186 158.05486284289273 L 427.0034843205575 161.04738154613463 L 428.74564459930315 156.70822942643392 L 430.4878048780488 149.0773067331671 L 432.22996515679444 152.21945137157107 L 433.9721254355401 155.06234413965083 L 435.7142857142857 156.4089775561097 L 437.45644599303137 154.6134663341646 L 439.198606271777 156.70822942643392 L 440.94076655052265 161.19700748129677 L 442.6829268292683 148.1795511221945 L 444.42508710801394 136.5087281795511 L 446.1672473867596 140.69825436408973 L 447.9094076655052 136.9576059850374 L 449.65156794425087 132.16957605985033 L 451.3937282229965 126.4837905236908 L 453.13588850174216 122.74314214463834 L 454.8780487804878 121.5461346633416 L 456.62020905923345 122.14463840399003 L 458.3623693379791 112.71820448877804 L 460.10452961672473 103.89027431421448 L 461.8466898954704 100.59850374064831 L 463.588850174216 105.83541147132166 L 465.33101045296166 103.14214463840392 L 467.0731707317073 100 L 468.81533101045295 103.74064837905235 L 470.5574912891986 113.0174563591022 L 472.29965156794424 108.5286783042394 L 474.0418118466899 112.41895261845389 L 475.7839721254355 110.77306733167086 L 477.52613240418117 111.67082294264333 L 479.2682926829268 108.82793017456356 L 481.01045296167246 104.48877805486279 L 482.7526132404181 105.38653366583537 L 484.49477351916374 104.93765586034908 L 486.2369337979094 114.21446384039893 L 487.97909407665503 111.9700748129676 L 489.7212543554007 111.67082294264333 L 491.4634146341463 122.89276807980048 L 493.20557491289196 122.29426433915205 L 494.9477351916376 117.80548628428926 L 496.68989547038325 123.64089775561092 L 498.4320557491289 135.0124688279302 L 500.17421602787454 136.35910224438896 L 501.91637630662024 147.431421446384 L 503.6585365853659 150.72319201995012 L 505.4006968641115 148.1795511221945 L 507.14285714285717 160.29925187032418 L 508.8850174216028 157.75561097256858 L 510.62717770034845 159.8503740648379 L 512.3693379790941 161.49625935162092 L 514.1114982578397 164.1895261845386 L 515.8536585365854 174.06483790523689 L 517.5958188153311 174.8129675810474 L 519.3379790940767 176.1596009975062 L 521.0801393728223 203.24189526184537 L 522.822299651568 175.11221945137154 L 524.5644599303137 179.75062344139647 L 526.3066202090592 182.8927680798005 L 528.0487804878048 186.18453865336656 L 529.7909407665505 198.00498753117208 L 531.5331010452962 193.6658354114713 L 533.2752613240418 200.24937655860347 L 535.0174216027874 202.04488778054863 L 536.7595818815331 200.39900249376555 L 538.5017421602788 202.94264339152116 L 540.2439024390244 205.3366583541147 L 541.98606271777 204.4389027431421 L 543.7282229965157 207.58104738154614 L 545.4703832752614 213.56608478802988 L 547.212543554007 218.65336658354116 L 548.9547038327526 218.35411471321694 L 550.6968641114983 218.9526184538653 L 552.439024390244 228.0798004987531 L 554.1811846689895 226.28428927680798 L 555.9233449477351 235.41147132169576 L 557.6655052264808 236.00997506234413 L 559.4076655052265 237.05735660847878 L 561.1498257839721 244.38902743142145 L 562.8919860627177 242.4438902743142 L 564.6341463414634 242.4438902743142 L 566.3763066202091 248.1296758104738 L 568.1184668989547 249.47630922693267 L 569.8606271777003 246.33416458852864 L 571.602787456446 261.89526184538647 L 573.3449477351917 258.0049875311721 L 575.0871080139373 259.9501246882793 L 576.8292682926829 262.0448877805486 L 578.5714285714286 266.5336658354115 L 580.3135888501743 271.0224438902743 L 582.0557491289198 270.87281795511217 L 583.7979094076654 268.77805486284285 L 585.5400696864111 274.9127182044888 L 587.2822299651568 279.70074812967584 L 589.0243902439024 284.18952618453864 L 590.766550522648 280.5985037406483 L 592.5087108013937 283.29177057356605 L 594.2508710801394 277.4563591022444 L 595.993031358885 279.5511221945137 L 597.7351916376306 281.645885286783 L 599.4773519163763 282.3940149625935 L 601.219512195122 283.8902743142145 L 602.9616724738676 286.1346633416458 L 604.7038327526133 286.73316708229424 L 606.445993031359 289.72568578553614 L 608.1881533101046 294.0648379052369 L 609.9303135888501 299.30174563591027 L 611.6724738675958 303.9401496259352 L 613.4146341463415 307.3815461346634 L 615.1567944250871 312.1695760598503 L 616.8989547038327 313.0673316708229 L 618.6411149825784 315.76059850374065 L 620.3832752613241 322.34413965087276 L 622.1254355400697 321.29675810473816 L 623.8675958188153 325.18703241895264 L 625.609756097561 324.1396508728179 L 627.3519163763067 331.62094763092273 L 629.0940766550523 337.30673316708226 L 630.8362369337979 334.61346633416457 L 632.5783972125436 337.30673316708226 L 634.3205574912893 343.29177057356605 L 636.0627177700349 348.37905236907727 L 637.8048780487804 345.3865336658354 L 639.5470383275261 350.9226932668329 L 641.2891986062718 351.2219451371571 L 643.0313588850174 349.1271820448878 L 644.773519163763 346.73316708229424 L 646.5156794425087 351.82044887780546 L 648.2578397212544 354.0648379052369 L 650 355.71072319201994 L 650 400 Z" /><text  class="poloto_labels poloto_text poloto_title" alignment-baseline="start" text-anchor="middle" font-size="x-large" x="400" y="37.5" >Total players on 2021-08-28</text><text  class="poloto_labels poloto_text poloto_xname" alignment-baseline="start" text-anchor="middle" font-size="x-large" x="400" y="481.25" >Time</text><text  class="poloto_labels poloto_text poloto_yname" alignment-baseline="start" text-anchor="middle" font-size="x-large" transform="rotate(-90,37.5,250)" x="37.5" y="250" >Count</text><line  class="poloto_axis_lines" stroke="black" x1="150" x2="150" y1="400" y2="405" /><text  class="poloto_tick_labels poloto_text" alignment-baseline="start" text-anchor="middle" x="150" y="430" > 00:00:00</text><line  class="poloto_axis_lines" stroke="black" x1="266.14401858304296" x2="266.14401858304296" y1="400" y2="405" /><text  class="poloto_tick_labels poloto_text" alignment-baseline="start" text-anchor="middle" x="266.14401858304296" y="430" > 05:33:20</text><line  class="poloto_axis_lines" stroke="black" x1="382.2880371660859" x2="382.2880371660859" y1="400" y2="405" /><text  class="poloto_tick_labels poloto_text" alignment-baseline="start" text-anchor="middle" x="382.2880371660859" y="430" > 11:06:40</text><line  class="poloto_axis_lines" stroke="black" x1="498.4320557491289" x2="498.4320557491289" y1="400" y2="405" /><text  class="poloto_tick_labels poloto_text" alignment-baseline="start" text-anchor="middle" x="498.4320557491289" y="430" > 16:40:00</text><line  class="poloto_axis_lines" stroke="black" x1="614.5760743321719" x2="614.5760743321719" y1="400" y2="405" /><text  class="poloto_tick_labels poloto_text" alignment-baseline="start" text-anchor="middle" x="614.5760743321719" y="430" > 22:13:20</text><line  class="poloto_axis_lines" stroke="black" x1="150" x2="144" y1="365.8852867830424" y2="365.8852867830424" /><text  class="poloto_tick_labels poloto_text" alignment-baseline="middle" text-anchor="end" x="135" y="365.8852867830424" > 1500</text><line  class="poloto_axis_lines" stroke="black" x1="150" x2="144" y1="291.072319201995" y2="291.072319201995" /><text  class="poloto_tick_labels poloto_text" alignment-baseline="middle" text-anchor="end" x="135" y="291.072319201995" > 2000</text><line  class="poloto_axis_lines" stroke="black" x1="150" x2="144" y1="216.25935162094765" y2="216.25935162094765" /><text  class="poloto_tick_labels poloto_text" alignment-baseline="middle" text-anchor="end" x="135" y="216.25935162094765" > 2500</text><line  class="poloto_axis_lines" stroke="black" x1="150" x2="144" y1="141.44638403990018" y2="141.44638403990018" /><text  class="poloto_tick_labels poloto_text" alignment-baseline="middle" text-anchor="end" x="135" y="141.44638403990018" > 3000</text><path  stroke="black" fill="none" class="poloto_axis_lines" style="stroke-dasharray:14.518002322880372;stroke-dashoffset:-0;" d=" M 150 400 L 650 400" /><path  stroke="black" fill="none" class="poloto_axis_lines" style="stroke-dasharray:7.4812967581047385;stroke-dashoffset:-34.114713216957625;" d=" M 150 400 L 150 100" /></svg>