<svg class="poloto" width="800" height="500" viewBox="0 0 800 500" xmlns="http://www.w3.org/2000/svg"><style>.poloto { stroke-linecap:round; stroke-linejoin:round; font-family: 'Tahoma', sans-serif; background-color: AliceBlue;} .poloto_scatter{stroke-width:7} .poloto_line{stroke-width:2} .poloto_text{fill: black;} .poloto_axis_lines{stroke: black;stroke-width:3;fill:none;stroke-dasharray:none} .poloto0stroke{stroke:  blue;} .poloto1stroke{stroke:  red;} .poloto2stroke{stroke:  green;} .poloto3stroke{stroke:  gold;} .poloto4stroke{stroke:  aqua;} .poloto5stroke{stroke:  lime;} .poloto6stroke{stroke:  orange;} .poloto7stroke{stroke:  chocolate;} .poloto0fill{fill:blue;} .poloto1fill{fill:red;} .poloto2fill{fill:green;} .poloto3fill{fill:gold;} .poloto4fill{fill:aqua;} .poloto5fill{fill:lime;} .poloto6fill{fill:orange;} .poloto7fill{fill:chocolate;}</style><text  class="poloto_text poloto_legend_text" alignment-baseline="middle" text-anchor="start" font-size="large" x="675" y="100" ></text><path  class="poloto_linefill poloto0fill" d=" M 150 400 L 150 355.94149908592317 L 151.74216027874564 360.8775137111517 L 153.4843205574913 365.26508226691044 L 155.22648083623693 371.4808043875686 L 156.96864111498257 371.4808043875686 L 158.71080139372822 376.7824497257769 L 160.45296167247386 376.05118829981717 L 162.1951219512195 371.6636197440585 L 163.93728222996515 376.2340036563071 L 165.6794425087108 377.8793418647166 L 167.42160278745644 377.14808043875684 L 169.16376306620208 374.4058500914077 L 170.90592334494772 373.49177330895793 L 172.64808362369337 396.16087751371117 L 174.390243902439 365.44789762340037 L 176.13240418118465 390.49360146252286 L 177.8745644599303 361.79159049360146 L 179.61672473867597 370.3839122486289 L 181.3588850174216 382.44972577696524 L 183.10104529616726 397.9890310786106 L 184.8432055749129 394.3327239488117 L 186.58536585365854 394.5155393053017 L 188.3275261324042 390.6764168190128 L 190.06968641114983 389.3967093235832 L 191.81184668989548 397.6234003656307 L 193.55400696864112 395.0639853747715 L 195.29616724738676 398.5374771480804 L 197.0383275261324 398.90310786106033 L 198.78048780487805 397.80621572212067 L 200.5226480836237 400 L 202.26480836236934 397.6234003656307 L 204.00696864111498 392.8702010968922 L 205.74912891986062 385.1919561243144 L 207.49128919860627 385.74040219378423 L 209.2334494773519 375.50274223034734 L 210.97560975609755 372.57769652650825 L 212.7177700348432 366.1791590493601 L 214.45993031358887 365.44789762340037 L 216.2020905923345 365.08226691042046 L 217.94425087108016 363.9853747714808 L 219.6864111498258 364.3510054844607 L 221.42857142857144 364.7166361974406 L 223.1707317073171 360.5118829981718 L 224.91289198606273 365.9963436928702 L 226.65505226480838 366.54478976234003 L 228.39721254355402 368.55575868372944 L 230.13937282229966 371.4808043875686 L 231.8815331010453 364.5338208409506 L 233.62369337979095 366.1791590493601 L 235.3658536585366 365.9963436928702 L 237.10801393728224 363.61974405850094 L 238.85017421602788 360.5118829981718 L 240.59233449477352 350.2742230347349 L 242.33449477351917 348.08043875685553 L 244.0766550522648 345.70383912248633 L 245.81881533101046 344.78976234003653 L 247.5609756097561 344.78976234003653 L 249.30313588850174 345.33820840950636 L 251.0452961672474 361.24314442413163 L 252.78745644599303 359.963436928702 L 254.52961672473867 348.4460694698355 L 256.2717770034843 343.14442413162703 L 258.01393728222996 347.3491773308958 L 259.7560975609756 342.4131627056672 L 261.49825783972125 342.7787934186472 L 263.2404181184669 336.745886654479 L 264.98257839721254 333.4552102376599 L 266.7247386759582 331.2614259597806 L 268.4668989547038 333.8208409506399 L 270.20905923344947 332.7239488117002 L 271.9512195121951 338.75685557586837 L 273.69337979094075 328.15356489945157 L 275.4355400696864 334.00365630712975 L 277.17770034843204 334.73491773308956 L 278.9198606271777 330.3473491773309 L 280.6620209059233 330.5301645338209 L 282.40418118466897 328.8848263254114 L 284.1463414634146 325.59414990859227 L 285.88850174216026 319.0127970749543 L 287.6306620209059 317.3674588665448 L 289.37282229965155 314.44241316270563 L 291.1149825783972 321.2065813528336 L 292.85714285714283 322.1206581352834 L 294.5993031358885 308.2266910420475 L 296.3414634146342 310.96892138939666 L 298.08362369337976 306.21572212065814 L 299.82578397212546 304.57038391224864 L 301.56794425087105 303.473491773309 L 303.31010452961675 301.4625228519195 L 305.05226480836234 306.03290676416816 L 306.79442508710804 302.5594149908592 L 308.5365853658536 299.45155393053017 L 310.2787456445993 295.7952468007312 L 312.0209059233449 296.709323583181 L 313.7630662020906 294.3327239488117 L 315.5052264808362 297.80621572212067 L 317.2473867595819 293.96709323583184 L 318.9895470383275 287.7513711151737 L 320.7317073170732 285.3747714808044 L 322.4738675958188 281.53564899451555 L 324.2160278745645 286.8372943327239 L 325.95818815331006 278.6106032906764 L 327.70034843205576 275.3199268738574 L 329.44250871080135 274.7714808043876 L 331.18466898954705 267.0932358318099 L 332.92682926829264 266.72760511882996 L 334.66898954703834 269.10420475319927 L 336.4111498257839 261.4259597806216 L 338.1533101045296 262.1572212065813 L 339.8954703832752 259.41499085923215 L 341.6376306620209 261.6087751371115 L 343.3797909407665 259.0493601462523 L 345.1219512195122 251.0054844606947 L 346.86411149825784 240.76782449725775 L 348.6062717770035 242.77879341864715 L 350.34843205574913 247.53199268738572 L 352.0905923344948 247.89762340036563 L 353.8327526132404 246.61791590493598 L 355.57491289198606 249.72577696526506 L 357.3170731707317 247.53199268738572 L 359.05923344947735 240.95063985374773 L 360.801393728223 240.58500914076782 L 362.54355400696863 237.11151736745884 L 364.2857142857143 255.21023765996344 L 366.0278745644599 248.9945155393053 L 367.77003484320556 240.58500914076782 L 369.5121951219512 232.17550274223035 L 371.25435540069685 231.44424131627053 L 372.9965156794425 230.16453382084094 L 374.73867595818814 232.72394881170018 L 376.4808362369338 221.38939670932356 L 378.2229965156794 218.09872029250457 L 379.9709639953542 212.9798903107861 L 381.7073170731707 221.9378427787934 L 383.44947735191636 216.45338208409507 L 385.191637630662 222.48628884826323 L 386.93379790940764 224.68007312614262 L 388.6759581881533 206.94698354661793 L 390.41811846689893 212.43144424131626 L 392.1602787456446 207.6782449725777 L 393.9024390243902 208.59232175502743 L 395.6445993031359 216.81901279707498 L 397.3867595818815 213.7111517367459 L 399.1289198606272 208.77513711151735 L 400.8710801393728 219.926873857404 L 402.6132404181185 205.85009140767826 L 404.3554006968641 203.29067641681903 L 406.0975609756097 214.80804387568557 L 407.83972125435537 208.22669104204752 L 409.581881533101 206.3985374771481 L 411.32404181184666 201.27970749542962 L 413.0662020905923 208.77513711151735 L 414.80836236933794 199.99999999999997 L 416.5505226480836 194.88117001828155 L 418.29268292682923 190.49360146252283 L 420.0348432055749 183.18098720292502 L 421.7770034843206 176.0511882998172 L 423.5191637630662 183.91224862888484 L 425.26132404181186 184.6435100548446 L 427.0034843205575 179.52468007312612 L 428.74564459930315 182.6325411334552 L 430.4878048780488 183.54661791590493 L 432.22996515679444 182.6325411334552 L 433.9721254355401 173.85740402193787 L 435.7142857142857 161.6087751371115 L 437.45644599303137 148.9945155393053 L 439.198606271777 135.83180987202923 L 440.94076655052265 138.02559414990856 L 442.6829268292683 150.6398537477148 L 444.42508710801394 138.39122486288852 L 446.1672473867596 143.87568555758685 L 447.9094076655052 141.31627056672755 L 449.65156794425087 131.9926873857404 L 451.3937282229965 125.95978062157224 L 453.13588850174216 127.0566727605119 L 454.8780487804878 132.17550274223038 L 456.62020905923345 124.86288848263257 L 458.3623693379791 118.0987202925046 L 460.10452961672473 109.50639853747714 L 461.8466898954704 110.6032906764168 L 463.588850174216 114.62522851919562 L 465.33101045296166 119.56124314442411 L 467.0731707317073 114.99085923217547 L 468.81533101045295 112.61425959780627 L 470.5574912891986 115.35648994515543 L 472.29965156794424 109.87202925045699 L 474.0418118466899 115.35648994515543 L 475.7839721254355 108.77513711151732 L 477.52613240418117 134.55210237659958 L 479.2682926829268 100 L 481.01045296167246 105.85009140767829 L 482.7526132404181 104.38756855575866 L 484.49477351916374 140.40219378427787 L 486.2369337979094 148.26325411334554 L 487.97909407665503 114.99085923217547 L 489.7212543554007 122.66910420475324 L 491.4634146341463 121.02376599634374 L 493.20557491289196 123.40036563071294 L 494.9477351916376 124.68007312614259 L 496.68989547038325 129.43327239488121 L 498.4320557491289 133.82084095063988 L 500.17421602787454 133.6380255941499 L 501.9163763066202 138.5740402193784 L 503.6585365853658 144.0585009140768 L 505.40069686411147 139.12248628884822 L 507.1428571428571 152.83363802559413 L 508.88501742160275 159.23217550274225 L 510.6271777003484 173.30895795246798 L 512.3693379790941 192.3217550274223 L 514.1114982578397 205.11882998171845 L 515.8536585365853 179.15904936014627 L 517.595818815331 176.23400365630712 L 519.3379790940767 180.6215722120658 L 521.0801393728223 178.9762340036563 L 522.822299651568 175.13711151736746 L 524.5644599303137 173.49177330895796 L 526.3066202090592 192.50457038391224 L 528.0487804878048 195.79524680073123 L 529.7909407665505 197.80621572212064 L 531.5331010452962 184.6435100548446 L 533.2752613240418 201.82815356489945 L 535.0174216027874 182.81535648994517 L 536.7595818815331 198.53747714808046 L 538.5017421602788 197.80621572212064 L 540.2439024390244 193.41864716636198 L 541.98606271777 198.9031078610603 L 543.7282229965157 213.7111517367459 L 545.4703832752614 207.49542961608776 L 547.212543554007 213.52833638025592 L 548.9547038327526 219.19561243144423 L 550.6968641114983 219.0127970749543 L 552.439024390244 223.9488117001828 L 554.1811846689895 227.42230347349178 L 555.9233449477351 232.72394881170018 L 557.6655052264808 241.13345521023766 L 559.4076655052265 238.3912248628885 L 561.1498257839721 260.8775137111518 L 562.8919860627177 244.97257769652649 L 564.6341463414634 261.06032906764165 L 566.3763066202091 249.90859232175504 L 568.1184668989547 253.19926873857403 L 569.8606271777003 263.8025594149908 L 571.602787456446 264.5338208409506 L 573.3449477351917 267.2760511882998 L 575.0871080139373 257.95246800731263 L 576.8292682926829 267.45886654478977 L 578.5714285714286 270.3839122486289 L 580.3135888501743 271.66361974405845 L 582.0557491289198 262.1572212065813 L 583.7979094076654 263.61974405850094 L 585.5400696864111 268.37294332723945 L 587.2822299651568 270.93235831809875 L 589.0243902439024 269.8354661791591 L 590.766550522648 279.3418647166362 L 592.5087108013937 278.0621572212066 L 594.2508710801394 277.8793418647166 L 595.993031358885 278.97623400365626 L 597.7351916376306 272.39488117001827 L 599.4773519163763 275.13711151736743 L 601.219512195122 278.7934186471664 L 602.9616724738676 277.33089579524676 L 604.7038327526132 281.7184643510054 L 606.4459930313589 274.40585009140773 L 608.1881533101046 275.13711151736743 L 609.9303135888501 279.89031078610606 L 611.6724738675957 283.5466179159049 L 613.4146341463414 280.80438756855574 L 615.1567944250871 282.44972577696524 L 616.8989547038327 284.09506398537474 L 618.6411149825783 284.2778793418647 L 620.383275261324 294.3327239488117 L 622.1254355400697 299.2687385740402 L 623.8675958188153 307.4954296160878 L 625.609756097561 308.59232175502746 L 627.3519163763067 313.52833638025595 L 629.0940766550523 311.5173674588665 L 630.8362369337979 324.6800731261426 L 632.5783972125436 334.00365630712975 L 634.3205574912893 324.86288848263257 L 636.0627177700349 321.2065813528336 L 637.8048780487804 322.3034734917733 L 639.5470383275261 326.69104204753194 L 641.2891986062718 343.14442413162703 L 643.0313588850174 353.9305301645338 L 644.773519163763 340.036563071298 L 646.5156794425087 342.7787934186472 L 648.2578397212544 351.0054844606947 L 650 350.6398537477148 L 650 400 Z" /><text  class="poloto_labels poloto_text poloto_title" alignment-baseline="start" text-anchor="middle" font-size="x-large" x="400" y="37.5" >Total players on 2021-07-20</text><text  class="poloto_labels poloto_text poloto_xname" alignment-baseline="start" text-anchor="middle" font-size="x-large" x="400" y="481.25" >Time</text><text  class="poloto_labels poloto_text poloto_yname" alignment-baseline="start" text-anchor="middle" font-size="x-large" transform="rotate(-90,37.5,250)" x="37.5" y="250" >Count</text><line  class="poloto_axis_lines" stroke="black" x1="208.0487804878049" x2="208.0487804878049" y1="400" y2="405" /><text  class="poloto_tick_labels poloto_text" alignment-baseline="start" text-anchor="middle" x="208.0487804878049" y="430" > 02:46:40</text><line  class="poloto_axis_lines" stroke="black" x1="266.1207897793264" x2="266.1207897793264" y1="400" y2="405" /><text  class="poloto_tick_labels poloto_text" alignment-baseline="start" text-anchor="middle" x="266.1207897793264" y="430" > 05:33:20</text><line  class="poloto_axis_lines" stroke="black" x1="324.19279907084785" x2="324.19279907084785" y1="400" y2="405" /><text  class="poloto_tick_labels poloto_text" alignment-baseline="start" text-anchor="middle" x="324.19279907084785" y="430" > 08:20:00</text><line  class="poloto_axis_lines" stroke="black" x1="382.2648083623693" x2="382.2648083623693" y1="400" y2="405" /><text  class="poloto_tick_labels poloto_text" alignment-baseline="start" text-anchor="middle" x="382.2648083623693" y="430" > 11:06:40</text><line  class="poloto_axis_lines" stroke="black" x1="440.3368176538908" x2="440.3368176538908" y1="400" y2="405" /><text  class="poloto_tick_labels poloto_text" alignment-baseline="start" text-anchor="middle" x="440.3368176538908" y="430" > 13:53:20</text><line  class="poloto_axis_lines" stroke="black" x1="498.4088269454123" x2="498.4088269454123" y1="400" y2="405" /><text  class="poloto_tick_labels poloto_text" alignment-baseline="start" text-anchor="middle" x="498.4088269454123" y="430" > 16:40:00</text><line  class="poloto_axis_lines" stroke="black" x1="556.4808362369338" x2="556.4808362369338" y1="400" y2="405" /><text  class="poloto_tick_labels poloto_text" alignment-baseline="start" text-anchor="middle" x="556.4808362369338" y="430" > 19:26:40</text><line  class="poloto_axis_lines" stroke="black" x1="614.5528455284552" x2="614.5528455284552" y1="400" y2="405" /><text  class="poloto_tick_labels poloto_text" alignment-baseline="start" text-anchor="middle" x="614.5528455284552" y="430" > 22:13:20</text><line  class="poloto_axis_lines" stroke="black" x1="150" x2="144" y1="329.79890310786107" y2="329.79890310786107" /><text  class="poloto_tick_labels poloto_text" alignment-baseline="middle" text-anchor="end" x="135" y="329.79890310786107" > 1500</text><line  class="poloto_axis_lines" stroke="black" x1="150" x2="144" y1="238.39122486288852" y2="238.39122486288852" /><text  class="poloto_tick_labels poloto_text" alignment-baseline="middle" text-anchor="end" x="135" y="238.39122486288852" > 2000</text><line  class="poloto_axis_lines" stroke="black" x1="150" x2="144" y1="146.9835466179159" y2="146.9835466179159" /><text  class="poloto_tick_labels poloto_text" alignment-baseline="middle" text-anchor="end" x="135" y="146.9835466179159" > 2500</text><path  stroke="black" fill="none" class="poloto_axis_lines" style="stroke-dasharray:14.518002322880372;stroke-dashoffset:-58.04878048780488;" d=" M 150 400 L 650 400" /><path  stroke="black" fill="none" class="poloto_axis_lines" style="stroke-dasharray:9.140767824497257;stroke-dashoffset:-70.20109689213896;" d=" M 150 400 L 150 100" /></svg>