<svg class="poloto" width="800" height="500" viewBox="0 0 800 500" xmlns="http://www.w3.org/2000/svg"><style>.poloto { stroke-linecap:round; stroke-linejoin:round; font-family: 'Tahoma', sans-serif; background-color: AliceBlue;} .poloto_scatter{stroke-width:7} .poloto_line{stroke-width:2} .poloto_text{fill: black;} .poloto_axis_lines{stroke: black;stroke-width:3;fill:none;stroke-dasharray:none} .poloto0stroke{stroke:  blue;} .poloto1stroke{stroke:  red;} .poloto2stroke{stroke:  green;} .poloto3stroke{stroke:  gold;} .poloto4stroke{stroke:  aqua;} .poloto5stroke{stroke:  lime;} .poloto6stroke{stroke:  orange;} .poloto7stroke{stroke:  chocolate;} .poloto0fill{fill:blue;} .poloto1fill{fill:red;} .poloto2fill{fill:green;} .poloto3fill{fill:gold;} .poloto4fill{fill:aqua;} .poloto5fill{fill:lime;} .poloto6fill{fill:orange;} .poloto7fill{fill:chocolate;}</style><text  class="poloto_text poloto_legend_text" alignment-baseline="middle" text-anchor="start" font-size="large" x="675" y="100" ></text><path  class="poloto_linefill poloto0fill" d=" M 150 400 L 150 350.02610966057443 L 151.74216027874564 355.0391644908616 L 153.4843205574913 356.6057441253264 L 155.22648083623693 359.11227154047 L 156.96864111498257 366.31853785900785 L 158.71080139372822 363.18537859007836 L 160.45296167247386 363.9686684073107 L 162.1951219512195 363.4986945169713 L 163.93728222996515 367.4151436031332 L 165.6794425087108 371.958224543081 L 167.42160278745644 373.68146214099215 L 169.16376306620208 372.42819843342033 L 170.90592334494772 369.13838120104435 L 172.64808362369337 371.4882506527415 L 174.390243902439 371.331592689295 L 176.13240418118465 369.9216710182768 L 177.8745644599303 371.8015665796345 L 179.61672473867597 373.2114882506528 L 181.3588850174216 374.3080939947781 L 183.10104529616726 376.0313315926893 L 184.8432055749129 373.83812010443864 L 186.58536585365854 378.85117493472586 L 188.3275261324042 380.5744125326371 L 190.06968641114983 385.27415143603133 L 191.81184668989548 389.3472584856397 L 193.55400696864112 389.1906005221932 L 195.29616724738676 392.0104438642298 L 197.0383275261324 398.9033942558747 L 198.78048780487805 397.023498694517 L 200.5226480836237 399.5300261096606 L 202.26480836236934 396.08355091383817 L 204.00696864111498 400 L 205.74912891986062 391.69712793733686 L 207.49128919860627 389.1906005221932 L 209.2334494773519 387.6240208877285 L 210.97560975609755 385.74412532637075 L 212.7177700348432 367.2584856396867 L 214.45993031358887 374.1514360313316 L 216.2020905923345 365.2219321148825 L 217.94425087108016 365.2219321148825 L 219.6864111498258 359.4255874673629 L 221.42857142857144 355.66579634464756 L 223.17653890824624 357.23237597911225 L 224.91289198606273 355.50913838120107 L 226.65505226480838 353.1592689295039 L 228.39721254355402 345.32637075718014 L 230.13937282229966 342.66318537859013 L 231.8815331010453 339.8433420365535 L 233.6295005807201 334.51697127937337 L 235.3658536585366 333.26370757180155 L 237.10801393728224 339.06005221932116 L 238.85017421602788 337.023498694517 L 240.59233449477352 334.3603133159269 L 242.33449477351917 333.8903394255875 L 244.0766550522648 329.6605744125327 L 245.81881533101046 334.04699738903395 L 247.5609756097561 334.04699738903395 L 249.30313588850174 331.3838120104439 L 251.0452961672474 331.69712793733686 L 252.78745644599303 335.1436031331593 L 254.52961672473867 333.57702349869453 L 256.2717770034843 328.2506527415144 L 258.01393728222996 326.99738903394257 L 259.7560975609756 326.99738903394257 L 261.49825783972125 331.3838120104439 L 263.2404181184669 328.56396866840737 L 264.9883855981417 327.7806788511749 L 266.7247386759582 324.8041775456919 L 268.4668989547038 326.5274151436031 L 270.20905923344947 333.26370757180155 L 271.9512195121951 329.97389033942557 L 273.69337979094075 326.05744125326373 L 275.4355400696864 323.8642297650131 L 277.17770034843204 325.74412532637075 L 278.9198606271777 322.61096605744126 L 280.6620209059233 322.45430809399477 L 282.40418118466897 322.76762402088775 L 284.1463414634146 322.92428198433424 L 285.88850174216026 322.61096605744126 L 287.6306620209059 319.3211488250653 L 289.37282229965155 315.5613577023498 L 291.1149825783972 311.644908616188 L 292.85714285714283 308.5117493472585 L 294.5993031358885 308.668407310705 L 296.3414634146342 305.2219321148825 L 298.08362369337976 303.34203655352485 L 299.82578397212546 294.56919060052223 L 301.56794425087105 291.7493472584856 L 303.31010452961675 295.66579634464756 L 305.05226480836234 288.9295039164491 L 306.79442508710804 284.3864229765013 L 308.5365853658536 288.45953002610963 L 310.2787456445993 289.39947780678847 L 312.0209059233449 281.87989556135767 L 313.7630662020906 282.03655352480416 L 315.5052264808362 275.4569190600522 L 317.2473867595819 277.1801566579635 L 318.9895470383275 271.0704960835509 L 320.7317073170732 263.08093994778073 L 322.4738675958188 260.2610966057441 L 324.2160278745645 263.8642297650131 L 325.95818815331006 265.2741514360314 L 327.70034843205576 258.06788511749346 L 329.44250871080135 256.97127937336813 L 331.18466898954705 255.24804177545693 L 332.92682926829264 251.33159268929504 L 334.66898954703834 254.46475195822453 L 336.4111498257839 249.92167101827678 L 338.1533101045296 248.66840731070496 L 339.8954703832752 242.40208877284599 L 341.6376306620209 238.79895561357702 L 343.3797909407665 240.67885117493475 L 345.1219512195122 240.99216710182768 L 346.86411149825784 242.55874673629242 L 348.6062717770035 241.61879895561358 L 350.34843205574913 241.9321148825065 L 352.0905923344948 234.5691906005222 L 353.8327526132404 235.03916449086162 L 355.57491289198606 229.71279373368148 L 357.3170731707317 224.54308093994777 L 359.0650406504065 221.8798955613577 L 360.801393728223 226.266318537859 L 362.54355400696863 229.556135770235 L 364.2857142857143 225.6396866840731 L 366.0278745644599 223.44647519582244 L 367.77003484320556 220.15665796344646 L 369.5121951219512 218.7467362924282 L 371.25435540069685 212.48041775456917 L 372.9965156794425 206.6840731070496 L 374.73867595818814 202.76762402088772 L 376.4808362369338 206.2140992167102 L 378.2229965156794 205.4308093994778 L 379.96515679442507 197.7545691906005 L 381.7073170731707 200.73107049608356 L 383.44947735191636 200.41775456919058 L 385.191637630662 201.20104438642298 L 386.93379790940764 198.0678851174935 L 388.6759581881533 201.20104438642298 L 390.41811846689893 195.71801566579634 L 392.1602787456446 193.9947780678851 L 393.9024390243902 193.21148825065276 L 395.6445993031359 192.11488250652744 L 397.3867595818815 190.70496083550913 L 399.1289198606272 187.72845953002613 L 400.876887340302 178.79895561357702 L 402.6132404181185 184.75195822454307 L 404.3554006968641 185.6919060052219 L 406.0975609756097 183.02872062663184 L 407.83972125435537 182.8720626631854 L 409.581881533101 179.11227154046995 L 411.3298490127758 174.7258485639687 L 413.0662020905923 175.50913838120104 L 414.80836236933794 170.3394255874674 L 416.5505226480836 168.30287206266317 L 418.29268292682923 164.38642297650128 L 420.0348432055749 165.7963446475196 L 421.7770034843206 154.67362924281983 L 423.5191637630662 154.67362924281983 L 425.26132404181186 152.32375979112274 L 427.0034843205575 146.37075718015663 L 428.74564459930315 146.52741514360312 L 430.4878048780488 146.8407310704961 L 432.22996515679444 149.1906005221932 L 433.9721254355401 147.93733681462143 L 435.7142857142857 152.32375979112274 L 437.45644599303137 150.28720626631852 L 439.198606271777 143.2375979112271 L 440.94076655052265 144.17754569190603 L 442.6829268292683 137.91122715404697 L 444.42508710801394 135.40469973890345 L 446.1672473867596 144.49086161879896 L 447.9094076655052 145.27415143603136 L 449.65156794425087 144.02088772845954 L 451.3937282229965 139.79112271540475 L 453.13588850174216 131.17493472584852 L 454.8780487804878 132.8981723237598 L 456.62020905923345 126.78851174934721 L 458.3623693379791 116.29242819843341 L 460.10452961672473 110.33942558746742 L 461.8466898954704 112.0626631853786 L 463.5946573751452 113.00261096605743 L 465.33101045296166 116.4490861618799 L 467.0731707317073 115.66579634464756 L 468.81533101045295 116.76240208877289 L 470.5574912891986 117.07571801566576 L 472.29965156794424 104.69973890339429 L 474.0418118466899 106.89295039164494 L 475.7839721254355 100 L 477.52613240418117 103.13315926892949 L 479.2682926829268 103.60313315926896 L 481.01045296167246 100.78328981723234 L 482.7526132404181 114.8825065274151 L 484.49477351916374 121.46214099216706 L 486.2369337979094 113.4725848563969 L 487.97909407665503 134.15143603133163 L 489.7212543554007 131.644908616188 L 491.4634146341463 124.59530026109655 L 493.20557491289196 127.41514360313317 L 494.9477351916376 128.19843342036552 L 496.68989547038325 131.4882506527415 L 498.4320557491289 142.92428198433424 L 500.17421602787454 141.35770234986944 L 501.9163763066202 137.12793733681463 L 503.6585365853658 139.0078328981723 L 505.4065040650406 141.51436031331593 L 507.1428571428571 150.443864229765 L 508.88501742160275 147.62402088772845 L 510.6271777003484 149.50391644908618 L 512.3693379790941 164.69973890339426 L 514.1114982578397 164.38642297650128 L 515.8536585365853 167.83289817232375 L 517.595818815331 176.29242819843344 L 519.3379790940767 179.26892950391644 L 521.0801393728223 178.3289817232376 L 522.822299651568 192.42819843342036 L 524.5644599303137 191.48825065274153 L 526.3066202090592 199.32114882506525 L 528.0487804878048 203.23759791122714 L 529.7909407665505 204.33420365535247 L 531.5331010452962 206.6840731070496 L 533.2752613240418 211.69712793733683 L 535.0174216027874 206.2140992167102 L 536.7595818815331 216.55352480417756 L 538.5017421602788 219.06005221932114 L 540.2439024390244 225.32637075718017 L 541.98606271777 224.69973890339426 L 543.7282229965157 230.49608355091382 L 545.4703832752614 232.06266318537857 L 547.212543554007 234.5691906005222 L 548.9547038327526 238.1723237597911 L 550.6968641114983 230.8093994778068 L 552.439024390244 235.97911227154046 L 554.1811846689895 235.82245430809402 L 555.9233449477351 240.52219321148826 L 557.6655052264808 236.91906005221935 L 559.4076655052265 232.84595300261097 L 561.1498257839721 244.12532637075716 L 562.8919860627177 250.3916449086162 L 564.6341463414634 258.22454308093995 L 566.3763066202091 256.81462140992164 L 568.1184668989547 255.09138381201043 L 569.8606271777003 260.7310704960836 L 571.602787456446 256.5013054830288 L 573.3449477351917 260.8877284595301 L 575.0929152148665 261.20104438642295 L 576.8292682926829 258.8511749347258 L 578.5772357723577 256.81462140992164 L 580.3135888501743 270.60052219321153 L 582.0557491289198 269.8172323759791 L 583.7979094076654 266.2140992167102 L 585.5400696864111 266.2140992167102 L 587.2822299651568 273.733681462141 L 589.0243902439024 278.12010443864233 L 590.766550522648 282.03655352480416 L 592.5087108013937 289.86945169712794 L 594.2508710801394 291.12271540469976 L 595.993031358885 292.3759791122716 L 597.7351916376306 294.09921671018276 L 599.4773519163763 300.36553524804174 L 601.219512195122 307.4151436031332 L 602.9616724738676 310.54830287206266 L 604.7038327526132 310.86161879895565 L 606.4459930313589 313.68146214099215 L 608.1881533101046 313.99477806788514 L 609.9303135888501 312.27154046997384 L 611.6724738675957 318.8511749347258 L 613.4146341463414 323.8642297650131 L 615.1567944250871 325.74412532637075 L 616.8989547038327 326.99738903394257 L 618.6411149825783 329.6605744125327 L 620.383275261324 329.5039164490862 L 622.1254355400697 327.9373368146214 L 623.8675958188153 333.1070496083551 L 625.6155632984901 335.9268929503917 L 627.3519163763067 338.2767624020888 L 629.0940766550523 337.3368146214099 L 630.8420441347271 345.48302872062663 L 632.5783972125436 346.89295039164494 L 634.3205574912893 344.3864229765013 L 636.0627177700349 349.24281984334203 L 637.8048780487804 346.89295039164494 L 639.5470383275261 346.73629242819845 L 641.2950058072009 349.0861618798956 L 643.0313588850174 355.1958224543081 L 644.773519163763 356.9190600522193 L 646.5156794425087 362.8720626631854 L 648.2578397212544 366.63185378590083 L 650 372.5848563968668 L 650 400 Z" /><text  class="poloto_labels poloto_text poloto_title" alignment-baseline="start" text-anchor="middle" font-size="x-large" x="400" y="37.5" >Total players on 2021-08-11</text><text  class="poloto_labels poloto_text poloto_xname" alignment-baseline="start" text-anchor="middle" font-size="x-large" x="400" y="481.25" >Time</text><text  class="poloto_labels poloto_text poloto_yname" alignment-baseline="start" text-anchor="middle" font-size="x-large" transform="rotate(-90,37.5,250)" x="37.5" y="250" >Count</text><line  class="poloto_axis_lines" stroke="black" x1="208.0487804878049" x2="208.0487804878049" y1="400" y2="405" /><text  class="poloto_tick_labels poloto_text" alignment-baseline="start" text-anchor="middle" x="208.0487804878049" y="430" > 02:46:40</text><line  class="poloto_axis_lines" stroke="black" x1="266.1207897793264" x2="266.1207897793264" y1="400" y2="405" /><text  class="poloto_tick_labels poloto_text" alignment-baseline="start" text-anchor="middle" x="266.1207897793264" y="430" > 05:33:20</text><line  class="poloto_axis_lines" stroke="black" x1="324.19279907084785" x2="324.19279907084785" y1="400" y2="405" /><text  class="poloto_tick_labels poloto_text" alignment-baseline="start" text-anchor="middle" x="324.19279907084785" y="430" > 08:20:00</text><line  class="poloto_axis_lines" stroke="black" x1="382.2648083623693" x2="382.2648083623693" y1="400" y2="405" /><text  class="poloto_tick_labels poloto_text" alignment-baseline="start" text-anchor="middle" x="382.2648083623693" y="430" > 11:06:40</text><line  class="poloto_axis_lines" stroke="black" x1="440.3368176538908" x2="440.3368176538908" y1="400" y2="405" /><text  class="poloto_tick_labels poloto_text" alignment-baseline="start" text-anchor="middle" x="440.3368176538908" y="430" > 13:53:20</text><line  class="poloto_axis_lines" stroke="black" x1="498.4088269454123" x2="498.4088269454123" y1="400" y2="405" /><text  class="poloto_tick_labels poloto_text" alignment-baseline="start" text-anchor="middle" x="498.4088269454123" y="430" > 16:40:00</text><line  class="poloto_axis_lines" stroke="black" x1="556.4808362369338" x2="556.4808362369338" y1="400" y2="405" /><text  class="poloto_tick_labels poloto_text" alignment-baseline="start" text-anchor="middle" x="556.4808362369338" y="430" > 19:26:40</text><line  class="poloto_axis_lines" stroke="black" x1="614.5528455284552" x2="614.5528455284552" y1="400" y2="405" /><text  class="poloto_tick_labels poloto_text" alignment-baseline="start" text-anchor="middle" x="614.5528455284552" y="430" > 22:13:20</text><line  class="poloto_axis_lines" stroke="black" x1="150" x2="144" y1="352.532637075718" y2="352.532637075718" /><text  class="poloto_tick_labels poloto_text" alignment-baseline="middle" text-anchor="end" x="135" y="352.532637075718" > 1500</text><line  class="poloto_axis_lines" stroke="black" x1="150" x2="144" y1="274.2036553524804" y2="274.2036553524804" /><text  class="poloto_tick_labels poloto_text" alignment-baseline="middle" text-anchor="end" x="135" y="274.2036553524804" > 2000</text><line  class="poloto_axis_lines" stroke="black" x1="150" x2="144" y1="195.8746736292428" y2="195.8746736292428" /><text  class="poloto_tick_labels poloto_text" alignment-baseline="middle" text-anchor="end" x="135" y="195.8746736292428" > 2500</text><line  class="poloto_axis_lines" stroke="black" x1="150" x2="144" y1="117.54569190600523" y2="117.54569190600523" /><text  class="poloto_tick_labels poloto_text" alignment-baseline="middle" text-anchor="end" x="135" y="117.54569190600523" > 3000</text><path  stroke="black" fill="none" class="poloto_axis_lines" style="stroke-dasharray:14.518002322880372;stroke-dashoffset:-58.04878048780488;" d=" M 150 400 L 650 400" /><path  stroke="black" fill="none" class="poloto_axis_lines" style="stroke-dasharray:7.832898172323761;stroke-dashoffset:-47.467362924281986;" d=" M 150 400 L 150 100" /></svg>