<svg class="poloto" width="800" height="500" viewBox="0 0 800 500" xmlns="http://www.w3.org/2000/svg"><style>.poloto { stroke-linecap:round; stroke-linejoin:round; font-family: 'Tahoma', sans-serif; background-color: AliceBlue;} .poloto_scatter{stroke-width:7} .poloto_line{stroke-width:2} .poloto_text{fill: black;} .poloto_axis_lines{stroke: black;stroke-width:3;fill:none;stroke-dasharray:none} .poloto0stroke{stroke:  blue;} .poloto1stroke{stroke:  red;} .poloto2stroke{stroke:  green;} .poloto3stroke{stroke:  gold;} .poloto4stroke{stroke:  aqua;} .poloto5stroke{stroke:  lime;} .poloto6stroke{stroke:  orange;} .poloto7stroke{stroke:  chocolate;} .poloto0fill{fill:blue;} .poloto1fill{fill:red;} .poloto2fill{fill:green;} .poloto3fill{fill:gold;} .poloto4fill{fill:aqua;} .poloto5fill{fill:lime;} .poloto6fill{fill:orange;} .poloto7fill{fill:chocolate;}</style><text  class="poloto_text poloto_legend_text" alignment-baseline="middle" text-anchor="start" font-size="large" x="675" y="100" ></text><path  class="poloto_linefill poloto0fill" d=" M 150 400 L 150 371.42011834319527 L 151.74216027874564 374.43786982248525 L 153.4843205574913 378.698224852071 L 155.22648083623693 385.26627218934914 L 156.96864111498257 389.1715976331361 L 158.71080139372822 388.46153846153845 L 160.45296167247386 389.3491124260355 L 162.1951219512195 395.38461538461536 L 163.93728222996515 393.96449704142015 L 165.6794425087108 392.5443786982248 L 167.42160278745644 393.43195266272187 L 169.16376306620208 393.96449704142015 L 170.90592334494772 389.1715976331361 L 172.64808362369337 389.5266272189349 L 174.390243902439 390.7692307692308 L 176.13240418118465 392.8994082840237 L 177.8745644599303 393.0769230769231 L 179.61672473867597 396.094674556213 L 181.3588850174216 395.38461538461536 L 183.10104529616726 389.8816568047337 L 184.8432055749129 393.43195266272187 L 186.58536585365854 388.8165680473373 L 188.3275261324042 391.1242603550296 L 190.06968641114983 393.43195266272187 L 191.81184668989548 390.9467455621302 L 193.55400696864112 388.28402366863907 L 195.29616724738676 396.4497041420118 L 197.0383275261324 396.8047337278107 L 198.78048780487805 395.38461538461536 L 200.5226480836237 396.8047337278107 L 202.26480836236934 392.8994082840237 L 204.00696864111498 394.4970414201183 L 205.74912891986062 395.0295857988166 L 207.49128919860627 393.7869822485207 L 209.2334494773519 395.0295857988166 L 210.97560975609755 393.2544378698225 L 212.7177700348432 394.14201183431953 L 214.45993031358887 393.0769230769231 L 216.2020905923345 392.01183431952666 L 217.94425087108016 387.75147928994085 L 219.6864111498258 386.1538461538462 L 221.42857142857144 388.46153846153845 L 223.1707317073171 389.5266272189349 L 224.91289198606273 392.72189349112426 L 226.65505226480838 395.38461538461536 L 228.39721254355402 392.36686390532543 L 230.13937282229966 393.2544378698225 L 231.8815331010453 395.91715976331363 L 233.62369337979095 400 L 235.3658536585366 395.0295857988166 L 237.10801393728224 391.6568047337278 L 238.85017421602788 390.05917159763317 L 240.59233449477352 388.99408284023673 L 242.33449477351917 389.5266272189349 L 244.0766550522648 392.5443786982248 L 245.81881533101046 389.8816568047337 L 247.5609756097561 385.7988165680473 L 249.30313588850174 387.04142011834324 L 251.0452961672474 389.8816568047337 L 252.78745644599303 387.2189349112426 L 254.52961672473867 388.46153846153845 L 256.2717770034843 384.9112426035503 L 258.01393728222996 381.53846153846155 L 259.7560975609756 382.603550295858 L 261.49825783972125 381.71597633136093 L 263.2404181184669 380.6508875739645 L 264.98257839721254 373.1952662721893 L 266.7247386759582 376.9230769230769 L 268.4668989547038 366.2721893491124 L 270.20905923344947 367.8698224852071 L 271.9512195121951 366.62721893491124 L 273.69337979094075 365.91715976331363 L 275.4355400696864 373.37278106508876 L 277.17770034843204 374.79289940828403 L 278.91986062717774 374.43786982248525 L 280.6620209059233 377.27810650887574 L 282.404181184669 377.4556213017752 L 284.1463414634146 381.71597633136093 L 285.8885017421603 377.63313609467457 L 287.6306620209059 376.56804733727813 L 289.3728222996516 368.0473372781065 L 291.1149825783972 366.094674556213 L 292.8571428571429 359.5266272189349 L 294.5993031358885 358.1065088757397 L 296.3414634146342 353.49112426035504 L 298.08362369337976 355.08875739644975 L 299.82578397212546 356.50887573964496 L 301.56794425087105 355.26627218934914 L 303.31010452961675 350.8284023668639 L 305.05226480836234 350.6508875739645 L 306.79442508710804 354.9112426035503 L 308.5365853658536 356.50887573964496 L 310.2787456445993 358.1065088757397 L 312.0209059233449 365.5621301775148 L 313.7630662020906 363.96449704142015 L 315.5052264808362 363.78698224852076 L 317.2473867595819 365.20710059171597 L 318.9895470383275 367.69230769230774 L 320.7317073170732 365.20710059171597 L 322.4738675958188 365.38461538461536 L 324.2160278745645 373.0177514792899 L 325.9581881533101 359.1715976331361 L 327.70034843205576 358.1065088757397 L 329.4425087108014 358.8165680473373 L 331.18466898954705 351.53846153846155 L 332.9268292682927 353.49112426035504 L 334.66898954703834 350.8284023668639 L 336.411149825784 357.2189349112426 L 338.1533101045296 366.8047337278107 L 339.89547038327527 354.9112426035503 L 341.6376306620209 352.7810650887574 L 343.37979094076655 346.03550295857985 L 345.1219512195122 340.1775147928994 L 346.86411149825784 344.9704142011834 L 348.6062717770035 336.44970414201185 L 350.34843205574913 335.38461538461536 L 352.0905923344948 335.0295857988166 L 353.8327526132404 329.70414201183434 L 355.57491289198606 325.97633136094674 L 357.3170731707317 326.6863905325444 L 359.05923344947735 340.1775147928994 L 360.801393728223 328.6390532544379 L 362.54355400696863 333.2544378698225 L 364.2857142857143 317.63313609467457 L 366.0278745644599 318.5207100591716 L 367.77003484320556 317.10059171597635 L 369.5121951219512 314.79289940828403 L 371.25435540069685 306.2721893491124 L 372.9965156794425 304.3195266272189 L 374.73867595818814 294.2011834319527 L 376.4808362369338 287.81065088757396 L 378.2229965156795 285.14792899408286 L 379.96515679442507 287.4556213017752 L 381.70731707317077 286.7455621301775 L 383.44947735191636 281.42011834319527 L 385.19163763066206 279.11242603550295 L 386.93379790940764 284.2603550295858 L 388.67595818815334 291.53846153846155 L 390.41811846689893 279.4674556213018 L 392.16027874564463 280.35502958579883 L 393.9024390243902 281.59763313609466 L 395.6445993031359 276.62721893491124 L 397.3867595818815 284.61538461538464 L 399.1289198606272 269.70414201183434 L 400.8710801393728 266.1538461538462 L 402.6132404181185 260.6508875739645 L 404.3554006968641 250.88757396449705 L 406.0975609756098 255.68047337278108 L 407.8397212543554 248.57988165680473 L 409.58188153310107 245.91715976331363 L 411.3240418118467 253.37278106508876 L 413.06620209059236 244.49704142011836 L 414.808362369338 238.81656804733728 L 416.55052264808364 233.66863905325442 L 418.2926829268293 234.02366863905326 L 420.03484320557493 235.79881656804736 L 421.7770034843206 238.81656804733728 L 423.5191637630662 229.40828402366867 L 425.26132404181186 218.75739644970417 L 427.0034843205575 208.6390532544379 L 428.74564459930315 202.60355029585799 L 430.4878048780488 199.76331360946745 L 432.22996515679444 201.89349112426038 L 433.9721254355401 197.27810650887574 L 435.7142857142857 195.68047337278108 L 437.45644599303137 201.18343195266272 L 439.198606271777 188.57988165680473 L 440.94076655052265 186.98224852071007 L 442.6829268292683 177.75147928994085 L 444.42508710801394 174.73372781065092 L 446.1672473867596 163.90532544378698 L 447.9094076655052 164.97041420118347 L 449.65156794425087 164.79289940828403 L 451.3937282229965 155.91715976331363 L 453.13588850174216 155.7396449704142 L 454.8780487804878 146.8639053254438 L 456.62020905923345 148.28402366863907 L 458.3623693379791 148.10650887573968 L 460.10452961672473 154.49704142011836 L 461.8466898954704 137.27810650887574 L 463.588850174216 128.22485207100596 L 465.33101045296166 132.4852071005917 L 467.0731707317073 122.54437869822488 L 468.81533101045295 124.67455621301775 L 470.5574912891986 118.10650887573968 L 472.29965156794424 116.50887573964496 L 474.0418118466899 113.84615384615387 L 475.7839721254355 120.414201183432 L 477.52613240418117 110.82840236686394 L 479.2682926829268 107.9881656804734 L 481.01045296167246 108.16568047337279 L 482.7526132404181 118.99408284023673 L 484.49477351916374 101.24260355029588 L 486.2369337979094 100.88757396449705 L 487.97909407665503 100 L 489.7212543554007 108.69822485207101 L 491.4634146341463 115.08875739644975 L 493.20557491289196 114.2011834319527 L 494.9477351916376 115.44378698224853 L 496.68989547038325 116.15384615384619 L 498.4320557491289 119.17159763313612 L 500.17421602787454 123.25443786982248 L 501.91637630662024 119.52662721893495 L 503.6585365853659 132.13017751479293 L 505.4006968641115 138.1656804733728 L 507.14285714285717 145.0887573964497 L 508.8850174216028 139.05325443786984 L 510.62717770034845 157.86982248520712 L 512.3693379790941 173.31360946745565 L 514.1114982578397 154.49704142011836 L 515.8536585365854 166.74556213017752 L 517.5958188153311 160 L 519.3379790940767 163.37278106508876 L 521.0801393728223 172.95857988165682 L 522.822299651568 177.92899408284023 L 524.5644599303137 178.99408284023673 L 526.3066202090592 170.4733727810651 L 528.0487804878048 175.79881656804736 L 529.7909407665505 181.47928994082844 L 531.5331010452962 178.81656804733728 L 533.2752613240418 189.11242603550295 L 535.0174216027874 202.78106508875743 L 536.7595818815331 193.7278106508876 L 538.5017421602788 204.02366863905326 L 540.2439024390244 206.6863905325444 L 541.98606271777 211.65680473372782 L 543.7282229965157 210.05917159763317 L 545.4703832752614 223.90532544378698 L 547.212543554007 224.61538461538464 L 548.9547038327526 225.5029585798817 L 550.6968641114983 229.58579881656806 L 552.439024390244 226.92307692307696 L 554.1811846689895 256.7455621301775 L 555.9233449477351 222.13017751479293 L 557.6655052264808 224.08284023668642 L 559.4076655052265 234.73372781065092 L 561.1498257839721 227.9881656804734 L 562.8919860627177 230.4733727810651 L 564.6341463414634 234.73372781065092 L 566.3763066202091 243.6094674556213 L 568.1184668989547 235.26627218934914 L 569.8606271777003 241.1242603550296 L 571.602787456446 239.52662721893495 L 573.3449477351917 243.43195266272193 L 575.0871080139373 245.20710059171597 L 576.8292682926829 242.72189349112426 L 578.5714285714286 243.6094674556213 L 580.3135888501743 243.43195266272193 L 582.0557491289198 246.98224852071007 L 583.7979094076654 246.62721893491124 L 585.5400696864111 245.02958579881658 L 587.2822299651568 250 L 589.0243902439024 254.61538461538464 L 590.766550522648 258.87573964497045 L 592.5087108013937 274.49704142011836 L 594.2508710801394 269.70414201183434 L 595.993031358885 281.06508875739644 L 597.7351916376306 284.79289940828403 L 599.4773519163763 284.61538461538464 L 601.219512195122 289.76331360946745 L 602.9616724738676 288.698224852071 L 604.7038327526133 293.6686390532544 L 606.445993031359 302.18934911242604 L 608.1881533101046 301.8343195266272 L 609.9303135888501 312.84023668639054 L 611.6724738675958 308.0473372781065 L 613.4146341463415 318.1656804733728 L 615.1567944250871 314.61538461538464 L 616.8989547038327 311.06508875739644 L 618.6411149825784 320.1183431952663 L 620.3832752613241 316.9230769230769 L 622.1254355400697 321.1834319526627 L 623.8675958188153 325.4437869822485 L 625.609756097561 329.70414201183434 L 627.3519163763067 329.8816568047337 L 629.0940766550523 331.6568047337278 L 630.8362369337979 331.6568047337278 L 632.5783972125436 339.11242603550295 L 634.3205574912893 342.84023668639054 L 636.0627177700349 345.14792899408286 L 637.8048780487804 349.94082840236683 L 639.5470383275261 358.1065088757397 L 641.2891986062718 372.66272189349115 L 643.0313588850174 373.905325443787 L 644.773519163763 389.3491124260355 L 646.5156794425087 377.4556213017752 L 648.2578397212544 380.2958579881657 L 650 381.53846153846155 L 650 400 Z" /><text  class="poloto_labels poloto_text poloto_title" alignment-baseline="start" text-anchor="middle" font-size="x-large" x="400" y="37.5" >Total players on 2021-09-14</text><text  class="poloto_labels poloto_text poloto_xname" alignment-baseline="start" text-anchor="middle" font-size="x-large" x="400" y="481.25" >Time</text><text  class="poloto_labels poloto_text poloto_yname" alignment-baseline="start" text-anchor="middle" font-size="x-large" transform="rotate(-90,37.5,250)" x="37.5" y="250" >Count</text><line  class="poloto_axis_lines" stroke="black" x1="150" x2="150" y1="400" y2="405" /><text  class="poloto_tick_labels poloto_text" alignment-baseline="start" text-anchor="middle" x="150" y="430" > 00:00</text><line  class="poloto_axis_lines" stroke="black" x1="266.14401858304296" x2="266.14401858304296" y1="400" y2="405" /><text  class="poloto_tick_labels poloto_text" alignment-baseline="start" text-anchor="middle" x="266.14401858304296" y="430" > 06:00</text><line  class="poloto_axis_lines" stroke="black" x1="382.2880371660859" x2="382.2880371660859" y1="400" y2="405" /><text  class="poloto_tick_labels poloto_text" alignment-baseline="start" text-anchor="middle" x="382.2880371660859" y="430" > 11:00</text><line  class="poloto_axis_lines" stroke="black" x1="498.4320557491289" x2="498.4320557491289" y1="400" y2="405" /><text  class="poloto_tick_labels poloto_text" alignment-baseline="start" text-anchor="middle" x="498.4320557491289" y="430" > 17:00</text><line  class="poloto_axis_lines" stroke="black" x1="614.5760743321719" x2="614.5760743321719" y1="400" y2="405" /><text  class="poloto_tick_labels poloto_text" alignment-baseline="start" text-anchor="middle" x="614.5760743321719" y="430" > 22:00</text><line  class="poloto_axis_lines" stroke="black" x1="150" x2="144" y1="319.58579881656806" y2="319.58579881656806" /><text  class="poloto_tick_labels poloto_text" alignment-baseline="middle" text-anchor="end" x="135" y="319.58579881656806" > 1500</text><line  class="poloto_axis_lines" stroke="black" x1="150" x2="144" y1="230.82840236686394" y2="230.82840236686394" /><text  class="poloto_tick_labels poloto_text" alignment-baseline="middle" text-anchor="end" x="135" y="230.82840236686394" > 2000</text><line  class="poloto_axis_lines" stroke="black" x1="150" x2="144" y1="142.07100591715977" y2="142.07100591715977" /><text  class="poloto_tick_labels poloto_text" alignment-baseline="middle" text-anchor="end" x="135" y="142.07100591715977" > 2500</text><path  stroke="black" fill="none" class="poloto_axis_lines" style="stroke-dasharray:14.518002322880372;stroke-dashoffset:-0;" d=" M 150 400 L 650 400" /><path  stroke="black" fill="none" class="poloto_axis_lines" style="stroke-dasharray:8.875739644970412;stroke-dashoffset:-80.41420118343194;" d=" M 150 400 L 150 100" /></svg>