<svg class="poloto" width="800" height="500" viewBox="0 0 800 500" xmlns="http://www.w3.org/2000/svg"><style>.poloto { stroke-linecap:round; stroke-linejoin:round; font-family: 'Tahoma', sans-serif; background-color: AliceBlue;} .poloto_scatter{stroke-width:7} .poloto_line{stroke-width:2} .poloto_text{fill: black;} .poloto_axis_lines{stroke: black;stroke-width:3;fill:none;stroke-dasharray:none} .poloto0stroke{stroke:  blue;} .poloto1stroke{stroke:  red;} .poloto2stroke{stroke:  green;} .poloto3stroke{stroke:  gold;} .poloto4stroke{stroke:  aqua;} .poloto5stroke{stroke:  lime;} .poloto6stroke{stroke:  orange;} .poloto7stroke{stroke:  chocolate;} .poloto0fill{fill:blue;} .poloto1fill{fill:red;} .poloto2fill{fill:green;} .poloto3fill{fill:gold;} .poloto4fill{fill:aqua;} .poloto5fill{fill:lime;} .poloto6fill{fill:orange;} .poloto7fill{fill:chocolate;}</style><text  class="poloto_text poloto_legend_text" alignment-baseline="middle" text-anchor="start" font-size="large" x="675" y="100" ></text><path  class="poloto_linefill poloto0fill" d=" M 150 400 L 150 324.55327597617475 L 151.74216027874564 328.92124420913296 L 153.4843205574913 324.75181998676373 L 155.22648083623693 326.1416280608868 L 156.96864111498257 331.89940436796826 L 158.71080139372822 330.9066843150232 L 160.45296167247386 334.67902051621445 L 162.1951219512195 341.62806088682987 L 163.93728222996515 342.22369291859695 L 165.6794425087108 344.0105890138981 L 167.42160278745644 348.3785572468564 L 169.16376306620208 351.9523494374586 L 170.90592334494772 357.51158173395106 L 172.64808362369337 362.47518199867636 L 174.390243902439 362.0780939774983 L 176.13240418118465 365.25479814692255 L 177.8745644599303 365.85043017868963 L 179.61672473867597 368.8285903375248 L 181.3588850174216 367.83587028457976 L 183.10104529616726 372.79947054930506 L 184.8432055749129 373.19655857048315 L 186.58536585365854 373.19655857048315 L 188.3275261324042 374.3878226340172 L 190.06968641114983 380.74123097286565 L 191.81184668989548 388.6829913964262 L 193.55400696864112 386.8960953011251 L 195.29616724738676 392.8524156187955 L 197.0383275261324 391.6611515552614 L 198.78048780487805 391.06551952349434 L 200.5226480836237 388.88153540701524 L 202.26480836236934 386.30046326935803 L 204.00696864111498 388.88153540701524 L 205.74912891986062 385.109199205824 L 207.49128919860627 384.11647915287887 L 209.2334494773519 390.4698874917273 L 210.97560975609755 396.42620780939774 L 212.7177700348432 396.0291197882197 L 214.45993031358887 399.4043679682329 L 216.2020905923345 400 L 217.94425087108016 391.4626075446724 L 219.6864111498258 390.0727994705493 L 221.42857142857144 388.4844473858372 L 223.1707317073171 396.0291197882197 L 224.91289198606273 398.41164791528786 L 226.65505226480838 392.4553275976175 L 228.39721254355402 388.28590337524815 L 230.13937282229966 386.69755129053607 L 231.8815331010453 382.92521508934476 L 233.62369337979095 385.50628722700196 L 235.3658536585366 383.9179351422899 L 237.10801393728224 380.3441429516876 L 238.85017421602788 380.54268696227666 L 240.59233449477352 377.1674387822634 L 242.33449477351917 363.07081403044344 L 244.0766550522648 362.0780939774983 L 245.81881533101046 360.8868299139642 L 247.5609756097561 361.6810059563203 L 249.30313588850174 357.90866975512904 L 251.0452961672474 367.63732627399077 L 252.78745644599303 363.07081403044344 L 254.52961672473867 370.2183984116479 L 256.2717770034843 368.8285903375248 L 258.01393728222996 361.6810059563203 L 259.7560975609756 356.1217736598279 L 261.49825783972125 359.4970218398412 L 263.2404181184669 356.717405691595 L 264.98257839721254 360.0926538716082 L 266.7247386759582 358.7028457974851 L 268.4668989547038 354.93050959629386 L 270.20905923344947 350.7610853739245 L 271.9512195121951 347.78292521508934 L 273.69337979094075 352.94506949040374 L 275.4355400696864 346.5916611515553 L 277.17770034843204 346.7902051621443 L 278.9198606271777 347.78292521508934 L 280.6620209059233 351.7538054268696 L 282.40418118466897 344.2091330244871 L 284.1463414634146 332.69358041032433 L 285.88850174216026 330.9066843150232 L 287.6306620209059 338.2528127068167 L 289.37282229965155 332.4950363997352 L 291.1149825783972 330.7081403044341 L 292.85714285714283 326.3401720714759 L 294.5993031358885 327.5314361350099 L 296.3414634146342 329.91396426207814 L 298.08362369337976 335.6717405691595 L 299.82578397212546 333.8848444738584 L 301.56794425087105 328.325612177366 L 303.31010452961675 326.3401720714759 L 305.05226480836234 325.3474520185308 L 306.79442508710804 322.17074784910653 L 308.5365853658536 320.3838517538054 L 310.2787456445993 319.19258769027135 L 312.0209059233449 322.5678358702846 L 313.7630662020906 323.95764394440766 L 315.5052264808362 316.61151555261415 L 317.2473867595819 320.5823957643944 L 318.9895470383275 318.1998676373263 L 320.7317073170732 315.6187954996691 L 322.4738675958188 320.9794837855725 L 324.2160278745645 314.62607544672403 L 325.95818815331006 310.8537392455328 L 327.70034843205576 310.8537392455328 L 329.44250871080135 311.25082726671076 L 331.18466898954705 317.6042356055592 L 332.92682926829264 312.8391793514229 L 334.66898954703834 316.2144275314362 L 336.4111498257839 308.0741230972866 L 338.1533101045296 301.52217074784915 L 339.8954703832752 297.3527465254798 L 341.6376306620209 301.9192587690271 L 343.3797909407665 302.7134348113832 L 345.1219512195122 304.8974189278623 L 346.86411149825784 299.3381866313699 L 348.6062717770035 299.13964262078093 L 350.34843205574913 299.933818663137 L 352.0905923344948 297.1542025148908 L 353.8327526132404 300.92653871608206 L 355.57491289198606 299.3381866313699 L 357.3170731707317 291.39642620780944 L 359.05923344947735 285.83719391131706 L 360.801393728223 277.2998014559894 L 362.54355400696863 275.51290536068825 L 364.2857142857143 274.3216412971542 L 366.0278745644599 271.740569159497 L 367.77003484320556 268.56386499007283 L 369.5121951219512 267.57114493712777 L 371.25435540069685 254.4672402382528 L 372.9965156794425 253.27597617471875 L 374.73867595818814 250.49636002647256 L 376.4808362369338 233.42157511581732 L 378.2229965156794 227.2667107875579 L 379.96515679442507 224.6856386499007 L 381.7073170731707 227.86234281932494 L 383.44947735191636 224.28855062872267 L 385.191637630662 219.52349437458636 L 386.93379790940764 214.36135009927202 L 388.6759581881533 211.38318994043678 L 390.41811846689893 207.0152217074785 L 392.1602787456446 205.42686962276636 L 393.9024390243902 199.47054930509594 L 395.6445993031359 197.88219722038386 L 397.3867595818815 206.02250165453344 L 399.1289198606272 207.2137657180675 L 400.8710801393728 209.99338186631368 L 402.6132404181185 216.14824619457315 L 404.3554006968641 212.3759099933819 L 406.0975609756097 209.7948378557247 L 407.83972125435537 204.83123759099934 L 409.581881533101 218.3322303110523 L 411.32404181184666 222.89874255459958 L 413.0662020905923 207.41230972865654 L 414.80836236933794 201.6545334215751 L 416.5505226480836 203.63997352746523 L 418.29268292682923 200.06618133686302 L 420.0348432055749 194.70549305095963 L 421.7770034843206 196.8894771674388 L 423.5191637630662 194.1098610191926 L 425.26132404181186 191.33024487094642 L 427.0034843205575 183.58702845797487 L 428.74564459930315 177.82925215089344 L 430.4878048780488 165.32097948378558 L 432.22996515679444 175.04963600264725 L 433.9721254355401 164.72534745201855 L 435.7142857142857 156.18795499669093 L 437.45644599303137 151.81998676373266 L 439.198606271777 151.22435473196558 L 440.94076655052265 141.89278623428197 L 442.6829268292683 126.80344142951685 L 444.42508710801394 125.41363335539381 L 446.1672473867596 118.86168100595637 L 447.9094076655052 115.68497683653209 L 449.65156794425087 120.4500330906684 L 451.3937282229965 119.25876902713435 L 453.13588850174216 121.64129715420256 L 454.8780487804878 114.29516876240905 L 456.62020905923345 111.31700860357375 L 458.3623693379791 108.33884844473857 L 460.10452961672473 105.75777630708137 L 461.8466898954704 108.14030443414958 L 463.588850174216 100.39708802117809 L 465.33101045296166 104.36796823295833 L 467.0731707317073 103.37524818001327 L 468.81533101045295 102.77961614824619 L 470.5574912891986 106.75049636002643 L 472.29965156794424 105.75777630708137 L 474.0418118466899 121.24420913302447 L 475.7839721254355 124.81800132362673 L 477.52613240418117 118.0675049636003 L 479.2682926829268 119.85440105890143 L 481.01045296167246 104.56651224354732 L 482.7526132404181 106.75049636002643 L 484.49477351916374 107.14758438120452 L 486.2369337979094 100.59563203176708 L 487.97909407665503 100 L 489.7212543554007 101.58835208471214 L 491.4634146341463 106.55195234943744 L 493.20557491289196 115.08934480476512 L 494.9477351916376 116.47915287888816 L 496.68989547038325 125.81072137657179 L 498.4320557491289 126.40635340833887 L 500.17421602787454 115.4864328259431 L 501.9163763066202 113.30244870946399 L 503.6585365853658 109.13302448709464 L 505.40069686411147 105.1621442753144 L 507.1428571428571 104.16942422236934 L 508.88501742160275 112.9053606882859 L 510.6271777003484 114.09662475181995 L 512.3693379790941 111.31700860357375 L 514.1114982578397 125.21508934480482 L 515.8536585365853 135.7379219060225 L 517.595818815331 152.81270681667772 L 519.3379790940767 158.96757114493712 L 521.0801393728223 144.2753143613501 L 522.822299651568 159.96029119788219 L 524.5644599303137 165.51952349437457 L 526.3124274099885 165.1224354731966 L 528.0487804878048 182.39576439444076 L 529.7909407665505 185.572468563865 L 531.5331010452962 181.99867637326273 L 533.2752613240418 186.56518861681005 L 535.0174216027874 183.78557246856386 L 536.7595818815331 184.38120450033094 L 538.5017421602788 192.12442091330243 L 540.2439024390244 193.51422898742553 L 541.98606271777 189.74189278623427 L 543.7282229965157 194.50694904037064 L 545.4703832752614 186.7637326273991 L 547.212543554007 192.12442091330243 L 548.9547038327526 204.2356055592323 L 550.6968641114983 205.02978160158838 L 552.439024390244 207.2137657180675 L 554.1811846689895 203.24288550628725 L 555.9233449477351 204.2356055592323 L 557.6655052264808 205.42686962276636 L 559.4076655052265 216.94242223692916 L 561.1498257839721 221.3103904698875 L 562.8919860627177 234.61283917935143 L 564.6341463414634 226.6710787557909 L 566.3763066202091 237.19391131700863 L 568.1184668989547 240.1720714758438 L 569.8606271777003 235.4070152217075 L 571.602787456446 235.20847121111845 L 573.3449477351917 231.03904698874916 L 575.0871080139373 226.6710787557909 L 576.8292682926829 228.85506287227 L 578.5714285714286 222.10456651224357 L 580.3135888501743 225.87690271343482 L 582.0557491289198 227.06816677696892 L 583.7979094076654 226.86962276637988 L 585.5400696864111 224.48709463931172 L 587.2822299651568 228.656518861681 L 589.0243902439024 240.1720714758438 L 590.766550522648 244.1429516876241 L 592.5087108013937 250.09927200529452 L 594.2508710801394 254.4672402382528 L 595.993031358885 257.64394440767705 L 597.7351916376306 260.02647253474515 L 599.4773519163763 254.86432825943083 L 601.219512195122 262.2104566512244 L 602.9616724738676 252.68034414295167 L 604.7038327526132 253.27597617471875 L 606.4459930313589 256.2541363335539 L 608.1881533101046 263.20317670416944 L 609.9303135888501 268.16677696889474 L 611.6724738675957 267.37260092653867 L 613.4146341463414 272.73328921244206 L 615.1567944250871 272.1376571806751 L 616.8989547038327 272.53474520185307 L 618.6411149825783 276.3070814030443 L 620.383275261324 285.043017868961 L 622.1254355400697 289.6095301125083 L 623.8675958188153 293.1833223031106 L 625.609756097561 294.3745863666446 L 627.3519163763067 297.7498345466579 L 629.0940766550523 300.330906684315 L 630.8362369337979 307.0814030443415 L 632.5783972125436 309.4639311714096 L 634.3205574912893 310.2581072137657 L 636.0627177700349 316.2144275314362 L 637.8048780487804 318.1998676373263 L 639.5470383275261 310.2581072137657 L 641.2891986062718 313.63335539377897 L 643.0313588850174 314.22898742554594 L 644.773519163763 320.3838517538054 L 646.5156794425087 321.57511581733945 L 648.2578397212544 327.7299801455989 L 650 333.4877564526803 L 650 400 Z" /><text  class="poloto_labels poloto_text poloto_title" alignment-baseline="start" text-anchor="middle" font-size="x-large" x="400" y="37.5" >Total players on 2021-06-30</text><text  class="poloto_labels poloto_text poloto_xname" alignment-baseline="start" text-anchor="middle" font-size="x-large" x="400" y="481.25" >Time</text><text  class="poloto_labels poloto_text poloto_yname" alignment-baseline="start" text-anchor="middle" font-size="x-large" transform="rotate(-90,37.5,250)" x="37.5" y="250" >Count</text><line  class="poloto_axis_lines" stroke="black" x1="208.0487804878049" x2="208.0487804878049" y1="400" y2="405" /><text  class="poloto_tick_labels poloto_text" alignment-baseline="start" text-anchor="middle" x="208.0487804878049" y="430" > 02:46:40</text><line  class="poloto_axis_lines" stroke="black" x1="266.1207897793264" x2="266.1207897793264" y1="400" y2="405" /><text  class="poloto_tick_labels poloto_text" alignment-baseline="start" text-anchor="middle" x="266.1207897793264" y="430" > 05:33:20</text><line  class="poloto_axis_lines" stroke="black" x1="324.19279907084785" x2="324.19279907084785" y1="400" y2="405" /><text  class="poloto_tick_labels poloto_text" alignment-baseline="start" text-anchor="middle" x="324.19279907084785" y="430" > 08:20:00</text><line  class="poloto_axis_lines" stroke="black" x1="382.2648083623693" x2="382.2648083623693" y1="400" y2="405" /><text  class="poloto_tick_labels poloto_text" alignment-baseline="start" text-anchor="middle" x="382.2648083623693" y="430" > 11:06:40</text><line  class="poloto_axis_lines" stroke="black" x1="440.3368176538908" x2="440.3368176538908" y1="400" y2="405" /><text  class="poloto_tick_labels poloto_text" alignment-baseline="start" text-anchor="middle" x="440.3368176538908" y="430" > 13:53:20</text><line  class="poloto_axis_lines" stroke="black" x1="498.4088269454123" x2="498.4088269454123" y1="400" y2="405" /><text  class="poloto_tick_labels poloto_text" alignment-baseline="start" text-anchor="middle" x="498.4088269454123" y="430" > 16:40:00</text><line  class="poloto_axis_lines" stroke="black" x1="556.4808362369338" x2="556.4808362369338" y1="400" y2="405" /><text  class="poloto_tick_labels poloto_text" alignment-baseline="start" text-anchor="middle" x="556.4808362369338" y="430" > 19:26:40</text><line  class="poloto_axis_lines" stroke="black" x1="614.5528455284552" x2="614.5528455284552" y1="400" y2="405" /><text  class="poloto_tick_labels poloto_text" alignment-baseline="start" text-anchor="middle" x="614.5528455284552" y="430" > 22:13:20</text><line  class="poloto_axis_lines" stroke="black" x1="150" x2="144" y1="369.0271343481138" y2="369.0271343481138" /><text  class="poloto_tick_labels poloto_text" alignment-baseline="middle" text-anchor="end" x="135" y="369.0271343481138" > 1200</text><line  class="poloto_axis_lines" stroke="black" x1="150" x2="144" y1="329.31833223031106" y2="329.31833223031106" /><text  class="poloto_tick_labels poloto_text" alignment-baseline="middle" text-anchor="end" x="135" y="329.31833223031106" > 1400</text><line  class="poloto_axis_lines" stroke="black" x1="150" x2="144" y1="289.6095301125083" y2="289.6095301125083" /><text  class="poloto_tick_labels poloto_text" alignment-baseline="middle" text-anchor="end" x="135" y="289.6095301125083" > 1600</text><line  class="poloto_axis_lines" stroke="black" x1="150" x2="144" y1="249.90072799470545" y2="249.90072799470545" /><text  class="poloto_tick_labels poloto_text" alignment-baseline="middle" text-anchor="end" x="135" y="249.90072799470545" > 1800</text><line  class="poloto_axis_lines" stroke="black" x1="150" x2="144" y1="210.1919258769027" y2="210.1919258769027" /><text  class="poloto_tick_labels poloto_text" alignment-baseline="middle" text-anchor="end" x="135" y="210.1919258769027" > 2000</text><line  class="poloto_axis_lines" stroke="black" x1="150" x2="144" y1="170.48312375909995" y2="170.48312375909995" /><text  class="poloto_tick_labels poloto_text" alignment-baseline="middle" text-anchor="end" x="135" y="170.48312375909995" > 2200</text><line  class="poloto_axis_lines" stroke="black" x1="150" x2="144" y1="130.7743216412972" y2="130.7743216412972" /><text  class="poloto_tick_labels poloto_text" alignment-baseline="middle" text-anchor="end" x="135" y="130.7743216412972" > 2400</text><path  stroke="black" fill="none" class="poloto_axis_lines" style="stroke-dasharray:14.518002322880372;stroke-dashoffset:-58.04878048780488;" d=" M 150 400 L 650 400" /><path  stroke="black" fill="none" class="poloto_axis_lines" style="stroke-dasharray:9.927200529450694;stroke-dashoffset:-30.972865651886167;" d=" M 150 400 L 150 100" /></svg>