<svg class="poloto" width="800" height="500" viewBox="0 0 800 500" xmlns="http://www.w3.org/2000/svg"><style>.poloto { stroke-linecap:round; stroke-linejoin:round; font-family: 'Tahoma', sans-serif; background-color: AliceBlue;} .poloto_scatter{stroke-width:7} .poloto_line{stroke-width:2} .poloto_text{fill: black;} .poloto_axis_lines{stroke: black;stroke-width:3;fill:none;stroke-dasharray:none} .poloto0stroke{stroke:  blue;} .poloto1stroke{stroke:  red;} .poloto2stroke{stroke:  green;} .poloto3stroke{stroke:  gold;} .poloto4stroke{stroke:  aqua;} .poloto5stroke{stroke:  lime;} .poloto6stroke{stroke:  orange;} .poloto7stroke{stroke:  chocolate;} .poloto0fill{fill:blue;} .poloto1fill{fill:red;} .poloto2fill{fill:green;} .poloto3fill{fill:gold;} .poloto4fill{fill:aqua;} .poloto5fill{fill:lime;} .poloto6fill{fill:orange;} .poloto7fill{fill:chocolate;}</style><text  class="poloto_text poloto_legend_text" alignment-baseline="middle" text-anchor="start" font-size="large" x="675" y="100" ></text><path  class="poloto_linefill poloto0fill" d=" M 150 400 L 150 364.37603078614626 L 151.74216027874564 368.499175371083 L 153.4843205574913 371.46783947223753 L 155.22648083623693 373.28202308960965 L 156.96864111498257 375.0962067069819 L 158.71080139372822 375.75590984057175 L 160.45296167247386 378.3947223749313 L 162.1951219512195 390.9290819131391 L 163.93728222996515 384.49697636063775 L 165.6794425087108 380.7036833424959 L 167.42160278745644 385.1566794942276 L 169.16376306620208 385.65145684442 L 170.90592334494772 384.6619021440352 L 172.64808362369337 385.1566794942276 L 174.390243902439 389.2798240791644 L 176.13240418118465 392.7432655305113 L 177.8745644599303 391.4238592633315 L 179.61672473867597 390.26937877954924 L 181.3588850174216 389.9395272127543 L 183.10104529616726 391.9186366135239 L 184.8432055749129 390.10445299615174 L 186.58536585365854 389.9395272127543 L 188.3275261324042 390.26937877954924 L 190.06968641114983 390.26937877954924 L 191.81184668989548 391.25893347993406 L 193.55400696864112 390.10445299615174 L 195.29616724738676 394.55744914788346 L 197.0383275261324 392.5783397471138 L 198.78048780487805 394.2275975810885 L 200.5226480836237 391.75371083012647 L 202.26480836236934 391.75371083012647 L 204.00696864111498 394.2275975810885 L 205.74912891986062 400 L 207.49128919860627 392.5783397471138 L 209.2334494773519 391.09400769653655 L 210.97560975609755 390.10445299615174 L 212.7177700348432 383.83727322704783 L 214.45993031358887 379.71412864211106 L 216.2020905923345 383.0126443100605 L 217.94425087108016 382.3529411764706 L 219.6864111498258 381.52831225948324 L 221.42857142857144 376.2506871907642 L 223.1707317073171 372.1275426058274 L 224.91289198606273 372.45739417262234 L 226.65505226480838 369.6536558548653 L 228.39721254355402 368.16932380428807 L 230.13937282229966 367.5096206706982 L 231.8815331010453 359.92303463441453 L 233.62369337979095 357.7789994502474 L 235.3658536585366 360.91258933479935 L 237.10801393728224 360.91258933479935 L 238.85017421602788 357.9439252336449 L 240.59233449477352 357.9439252336449 L 242.33449477351917 352.9961517317207 L 244.0766550522648 349.2028587135789 L 245.81881533101046 345.4095656954371 L 247.5609756097561 347.2237493128092 L 249.30313588850174 343.59538207806486 L 251.0452961672474 336.6684991753711 L 252.78745644599303 331.72072567344696 L 254.52961672473867 328.0923584387026 L 256.2717770034843 322.8147333699835 L 258.01393728222996 319.5162177020341 L 259.7560975609756 321.49532710280374 L 261.49825783972125 314.4035184167125 L 263.2404181184669 306.48708081363384 L 264.98257839721254 299.89004947773503 L 266.7247386759582 295.76690489279827 L 268.4668989547038 295.4370533260033 L 270.20905923344947 299.89004947773503 L 271.9512195121951 294.4474986256185 L 273.69337979094075 289.82957669048926 L 275.4355400696864 288.18031885651453 L 277.17770034843204 285.2116547553601 L 278.91986062717774 284.3870258383728 L 280.6620209059233 278.28477185266627 L 282.404181184669 272.6772952171523 L 284.1463414634146 265.09070918086866 L 285.8885017421603 268.8840021990104 L 287.6306620209059 267.2347443650358 L 289.3728222996516 266.5750412314459 L 291.1149825783972 270.36833424958775 L 292.8571428571429 267.2347443650358 L 294.5993031358885 264.10115448048384 L 296.3414634146342 260.6377130291369 L 298.08362369337976 259.81308411214957 L 299.82578397212546 255.19516217702036 L 301.56794425087105 261.9571192963167 L 303.31010452961675 261.6272677295217 L 305.05226480836234 260.9675645959319 L 306.79442508710804 257.33919736118753 L 308.5365853658536 257.33919736118753 L 310.2787456445993 255.36008796041781 L 312.0209059233449 244.63991203958219 L 313.7630662020906 244.47498625618474 L 315.5052264808362 244.14513468938978 L 317.2473867595819 249.25783397471142 L 318.9895470383275 250.08246289169873 L 320.7317073170732 242.66080263881256 L 322.4738675958188 233.7548103353491 L 324.2160278745645 225.67344694887302 L 325.9581881533101 224.35404068169325 L 327.70034843205576 218.25178669598685 L 329.4425087108014 212.47938427707535 L 331.18466898954705 215.77789994502476 L 332.9268292682927 220.56074766355144 L 334.66898954703834 221.05552501374385 L 336.411149825784 216.43760307861461 L 338.1533101045296 223.19956019791098 L 339.89547038327527 227.15777899945024 L 341.6376306620209 219.57119296316657 L 343.37979094076655 214.29356789444753 L 345.1219512195122 221.55030236393625 L 346.86411149825784 216.1077515118197 L 348.6062717770035 214.9532710280374 L 350.34843205574913 218.25178669598685 L 352.0905923344948 211.98460692688295 L 353.8327526132404 205.8823529411765 L 355.57491289198606 202.74876305662454 L 357.3170731707317 199.6151731720726 L 359.05923344947735 200.109950522265 L 360.801393728223 199.94502473886755 L 362.54355400696863 205.05772402418913 L 364.2857142857143 203.5733919736119 L 366.0278745644599 201.42935678944477 L 367.77003484320556 198.62561847168777 L 369.5121951219512 192.85321605277628 L 371.25435540069685 194.66739967014846 L 372.9965156794425 191.69873556899395 L 374.73867595818814 186.75096206706982 L 376.4808362369338 181.30841121495328 L 378.2229965156795 182.957669048928 L 379.96515679442507 182.62781748213305 L 381.70731707317077 181.63826278174824 L 383.44947735191636 183.61737218251787 L 385.19163763066206 182.4628916987356 L 386.93379790940764 176.36063771302915 L 388.67595818815334 177.51511819681147 L 390.41811846689893 167.1247938427708 L 392.16027874564463 160.52776250687194 L 393.9024390243902 155.74491478834526 L 395.6445993031359 150.46728971962617 L 397.3867595818815 147.66355140186917 L 399.1289198606272 147.3336998350742 L 400.8710801393728 147.82847718526668 L 402.6132404181185 137.27322704782853 L 404.3554006968641 134.30456294667397 L 406.0975609756098 132.49037932930185 L 407.8397212543554 140.40681693238048 L 409.58188153310107 132.82023089609675 L 411.3240418118467 132.82023089609675 L 413.06620209059236 131.66575041231454 L 414.808362369338 131.66575041231454 L 416.55052264808364 128.53216052776258 L 418.2926829268293 137.10830126443102 L 420.03484320557493 132.49037932930185 L 421.7770034843206 129.6866410115448 L 423.5191637630662 122.26498075865868 L 425.26132404181186 119.62616822429914 L 427.0034843205575 120.94557449147885 L 428.74564459930315 117.8119846069269 L 430.4878048780488 115.33809785596486 L 432.22996515679444 110.55525013743818 L 433.9721254355401 109.89554700384826 L 435.7142857142857 107.91643760307863 L 437.45644599303137 111.37987905442549 L 439.198606271777 108.57614073666855 L 440.94076655052265 100 L 442.6829268292683 111.2149532710281 L 444.42508710801394 109.40076965365586 L 446.1672473867596 109.56569543705336 L 447.9094076655052 108.41121495327104 L 449.65156794425087 111.7097306212205 L 451.3937282229965 117.15228147333698 L 453.13588850174216 126.05827377680043 L 454.8780487804878 125.23364485981313 L 456.62020905923345 120.94557449147885 L 458.3623693379791 111.37987905442549 L 460.10452961672473 112.86421110500282 L 461.8466898954704 113.19406267179772 L 463.588850174216 109.56569543705336 L 465.33101045296166 109.56569543705336 L 467.0731707317073 120.94557449147885 L 468.81533101045295 121.44035184167126 L 470.5574912891986 119.95601979109404 L 472.29965156794424 111.7097306212205 L 474.0418118466899 122.75975810885109 L 475.7839721254355 129.3567894447499 L 477.52613240418117 126.22319956019794 L 479.2682926829268 126.22319956019794 L 481.01045296167246 126.88290269378786 L 482.7526132404181 119.95601979109404 L 484.49477351916374 121.60527762506877 L 486.2369337979094 130.0164925783398 L 487.97909407665503 129.1918636613524 L 489.7212543554007 135.6239692138538 L 491.4634146341463 144.69488730071473 L 493.20557491289196 146.8389224848818 L 494.9477351916376 153.1061022539857 L 496.68989547038325 154.9202858713579 L 498.4320557491289 160.52776250687194 L 500.17421602787454 164.48598130841125 L 501.91637630662024 164.1561297416163 L 503.6585365853659 174.216602528862 L 505.4006968641115 161.3523914238593 L 507.14285714285717 168.11434854315561 L 508.8850174216028 178.66959868059374 L 510.62717770034845 182.13304013194065 L 512.3693379790941 183.61737218251787 L 514.1114982578397 190.04947773501928 L 515.8536585365854 187.90544255085214 L 517.5958188153311 183.94722374931283 L 519.3379790940767 192.68829026937883 L 521.0801393728223 200.109950522265 L 522.822299651568 192.0285871357889 L 524.5644599303137 192.85321605277628 L 526.3066202090592 195.65695437053327 L 528.0487804878048 199.6151731720726 L 529.7909407665505 207.69653655854867 L 531.5331010452962 211.98460692688295 L 533.2752613240418 219.07641561297416 L 535.0174216027874 219.07641561297416 L 536.7595818815331 227.32270478284775 L 538.5017421602788 229.63166575041234 L 540.2439024390244 230.2913688840022 L 541.98606271777 230.2913688840022 L 543.7282229965157 228.64211105002752 L 545.4703832752614 229.13688840021993 L 547.212543554007 236.0637713029137 L 548.9547038327526 238.37273227047828 L 550.6968641114983 240.68169323804293 L 552.439024390244 241.50632215503023 L 554.1811846689895 243.3205057724024 L 555.9233449477351 240.68169323804293 L 557.6655052264808 245.46454095656955 L 559.4076655052265 250.5772402418912 L 561.1498257839721 256.3496426608026 L 562.8919860627177 254.70038482682796 L 564.6341463414634 255.68993952721277 L 566.3763066202091 256.1847168774052 L 568.1184668989547 254.370533260033 L 569.8606271777003 254.70038482682796 L 571.602787456446 256.6794942275976 L 573.3449477351917 258.65860362836725 L 575.0871080139373 263.60637713029143 L 576.8292682926829 269.37877954920293 L 578.5714285714286 270.36833424958775 L 580.3135888501743 276.96536558548655 L 582.0557491289198 273.8317757009346 L 583.7979094076654 270.86311159978015 L 585.5400696864111 276.63551401869165 L 587.2822299651568 289.49972512369436 L 589.0243902439024 295.9318306761957 L 590.766550522648 292.9631665750412 L 592.5087108013937 291.9736118746564 L 594.2508710801394 291.1489829576691 L 595.993031358885 289.49972512369436 L 597.7351916376306 288.51017042330955 L 599.4773519163763 285.7064321055525 L 601.219512195122 294.61242440901594 L 602.9616724738676 286.6959868059373 L 604.7038327526133 288.18031885651453 L 606.445993031359 294.4474986256185 L 608.1881533101046 304.5079714128642 L 609.9303135888501 307.4766355140187 L 611.6724738675958 310.7751511819681 L 613.4146341463415 315.7229246838923 L 615.1567944250871 312.42440901594284 L 616.8989547038327 307.9714128642111 L 618.6411149825784 311.434854315558 L 620.3832752613241 312.42440901594284 L 622.1254355400697 311.92963166575043 L 623.8675958188153 313.57888949972516 L 625.609756097561 312.25948323254534 L 627.3519163763067 321.00054975261133 L 629.0940766550523 322.8147333699835 L 630.8362369337979 327.9274326553051 L 632.5783972125436 334.52446399120396 L 634.3205574912893 340.79164376030786 L 636.0627177700349 337.32820230896095 L 637.8048780487804 339.4722374931281 L 639.5470383275261 341.2864211105003 L 641.2891986062718 339.6371632765256 L 643.0313588850174 338.4826827927433 L 644.773519163763 334.8543155579989 L 646.5156794425087 342.11105002748764 L 648.2578397212544 346.2341946124244 L 650 351.5118196811435 L 650 400 Z" /><text  class="poloto_labels poloto_text poloto_title" alignment-baseline="start" text-anchor="middle" font-size="x-large" x="400" y="37.5" >Total players on 2021-12-25</text><text  class="poloto_labels poloto_text poloto_xname" alignment-baseline="start" text-anchor="middle" font-size="x-large" x="400" y="481.25" >Time</text><text  class="poloto_labels poloto_text poloto_yname" alignment-baseline="start" text-anchor="middle" font-size="x-large" transform="rotate(-90,37.5,250)" x="37.5" y="250" >Count</text><line  class="poloto_axis_lines" stroke="black" x1="150" x2="150" y1="400" y2="405" /><text  class="poloto_tick_labels poloto_text" alignment-baseline="start" text-anchor="middle" x="150" y="430" > 00:00</text><line  class="poloto_axis_lines" stroke="black" x1="266.14401858304296" x2="266.14401858304296" y1="400" y2="405" /><text  class="poloto_tick_labels poloto_text" alignment-baseline="start" text-anchor="middle" x="266.14401858304296" y="430" > 06:00</text><line  class="poloto_axis_lines" stroke="black" x1="382.2880371660859" x2="382.2880371660859" y1="400" y2="405" /><text  class="poloto_tick_labels poloto_text" alignment-baseline="start" text-anchor="middle" x="382.2880371660859" y="430" > 11:00</text><line  class="poloto_axis_lines" stroke="black" x1="498.4320557491289" x2="498.4320557491289" y1="400" y2="405" /><text  class="poloto_tick_labels poloto_text" alignment-baseline="start" text-anchor="middle" x="498.4320557491289" y="430" > 17:00</text><line  class="poloto_axis_lines" stroke="black" x1="614.5760743321719" x2="614.5760743321719" y1="400" y2="405" /><text  class="poloto_tick_labels poloto_text" alignment-baseline="start" text-anchor="middle" x="614.5760743321719" y="430" > 22:00</text><line  class="poloto_axis_lines" stroke="black" x1="150" x2="144" y1="380.5387575590984" y2="380.5387575590984" /><text  class="poloto_tick_labels poloto_text" alignment-baseline="middle" text-anchor="end" x="135" y="380.5387575590984" > 1000</text><line  class="poloto_axis_lines" stroke="black" x1="150" x2="144" y1="298.07586586036285" y2="298.07586586036285" /><text  class="poloto_tick_labels poloto_text" alignment-baseline="middle" text-anchor="end" x="135" y="298.07586586036285" > 1500</text><line  class="poloto_axis_lines" stroke="black" x1="150" x2="144" y1="215.61297416162733" y2="215.61297416162733" /><text  class="poloto_tick_labels poloto_text" alignment-baseline="middle" text-anchor="end" x="135" y="215.61297416162733" > 2000</text><line  class="poloto_axis_lines" stroke="black" x1="150" x2="144" y1="133.15008246289176" y2="133.15008246289176" /><text  class="poloto_tick_labels poloto_text" alignment-baseline="middle" text-anchor="end" x="135" y="133.15008246289176" > 2500</text><path  stroke="black" fill="none" class="poloto_axis_lines" style="stroke-dasharray:14.518002322880372;stroke-dashoffset:-0;" d=" M 150 400 L 650 400" /><path  stroke="black" fill="none" class="poloto_axis_lines" style="stroke-dasharray:8.246289169873556;stroke-dashoffset:-19.46124244090157;" d=" M 150 400 L 150 100" /></svg>