<svg class="poloto" width="800" height="500" viewBox="0 0 800 500" xmlns="http://www.w3.org/2000/svg"><style>.poloto { stroke-linecap:round; stroke-linejoin:round; font-family: 'Tahoma', sans-serif; background-color: AliceBlue;} .poloto_scatter{stroke-width:7} .poloto_line{stroke-width:2} .poloto_text{fill: black;} .poloto_axis_lines{stroke: black;stroke-width:3;fill:none;stroke-dasharray:none} .poloto0stroke{stroke:  blue;} .poloto1stroke{stroke:  red;} .poloto2stroke{stroke:  green;} .poloto3stroke{stroke:  gold;} .poloto4stroke{stroke:  aqua;} .poloto5stroke{stroke:  lime;} .poloto6stroke{stroke:  orange;} .poloto7stroke{stroke:  chocolate;} .poloto0fill{fill:blue;} .poloto1fill{fill:red;} .poloto2fill{fill:green;} .poloto3fill{fill:gold;} .poloto4fill{fill:aqua;} .poloto5fill{fill:lime;} .poloto6fill{fill:orange;} .poloto7fill{fill:chocolate;}</style><text  class="poloto_text poloto_legend_text" alignment-baseline="middle" text-anchor="start" font-size="large" x="675" y="100" ></text><path  class="poloto_linefill poloto0fill" d=" M 150 400 L 150 295.7395009129641 L 151.74216027874564 299.20876445526477 L 153.4843205574913 303.9561777236762 L 155.22648083623693 306.1472915398661 L 156.96864111498257 317.83323189287887 L 158.71080139372822 324.95435179549605 L 160.45296167247386 327.32805842970174 L 162.1951219512195 332.4406573341449 L 163.93728222996515 337.7358490566038 L 165.6794425087108 344.4917833231893 L 167.42160278745644 342.3006695069994 L 169.16376306620208 345.9525258673159 L 170.90592334494772 349.969567863664 L 172.64808362369337 349.42178940961657 L 174.390243902439 352.34327449786974 L 176.13240418118465 354.53438831405964 L 177.8745644599303 358.5514303104078 L 179.61672473867597 365.1247717589775 L 181.3588850174216 362.7510651247718 L 183.10104529616726 364.57699330493 L 184.8432055749129 362.9336579427876 L 186.58536585365854 360.37735849056605 L 188.3275261324042 362.56847230675595 L 190.06968641114983 362.56847230675595 L 191.81184668989548 358.368837492392 L 193.55400696864112 356.17772367620205 L 195.29616724738676 358.0036518563603 L 197.0383275261324 355.99513085818626 L 198.78048780487805 352.34327449786974 L 200.5226480836237 353.80401704199636 L 202.26480836236934 358.18624467437616 L 204.00696864111498 355.8125380401704 L 205.74912891986062 360.01217285453436 L 207.49128919860627 361.6555082166768 L 209.2334494773519 356.72550213024954 L 210.97560975609755 355.99513085818626 L 212.7177700348432 350.69993913572733 L 214.45993031358887 351.61290322580646 L 216.2020905923345 349.42178940961657 L 217.94425087108016 351.9780888618381 L 219.6864111498258 353.80401704199636 L 221.42857142857144 350.8825319537432 L 223.1707317073171 350.8825319537432 L 224.91289198606273 354.8995739500913 L 226.65505226480838 353.25623858794887 L 228.39721254355402 355.44735240413877 L 230.13937282229966 359.2818015824711 L 231.8815331010453 359.2818015824711 L 233.62369337979095 355.08216676810713 L 235.3658536585366 352.34327449786974 L 237.10801393728224 342.6658551430311 L 238.85017421602788 339.9269628727937 L 240.59233449477352 332.62325015216067 L 242.33449477351917 334.4491783323189 L 244.0766550522648 334.81436396835056 L 245.81881533101046 333.353621424224 L 247.5609756097561 330.97991479001826 L 249.30313588850174 331.8928788800974 L 251.0452961672474 328.24102251978087 L 252.78745644599303 323.31101643335364 L 254.52961672473867 326.59768715763846 L 256.2717770034843 326.9628727936701 L 258.01393728222996 321.6676810712112 L 259.7560975609756 317.83323189287887 L 261.49825783972125 313.4510042604991 L 263.2404181184669 313.6335970785149 L 264.98257839721254 321.30249543517954 L 266.7247386759582 316.0073037127206 L 268.4668989547038 317.83323189287887 L 270.20905923344947 313.08581862446744 L 271.9512195121951 313.6335970785149 L 273.69337979094075 302.8606208155812 L 275.4355400696864 304.13877054169205 L 277.17770034843204 309.4339622641509 L 278.9198606271777 307.97321972002436 L 280.6620209059233 306.1472915398661 L 282.40418118466897 303.9561777236762 L 284.1463414634146 298.29580036518564 L 285.88850174216026 302.13024954351795 L 287.6306620209059 300.3043213633597 L 289.37282229965155 295.7395009129641 L 291.1149825783972 300.66950699939133 L 292.85714285714283 301.2172854534388 L 294.5993031358885 297.930614729154 L 296.3414634146342 299.39135727328056 L 298.08362369337976 299.39135727328056 L 299.82578397212546 292.0876445526476 L 301.56794425087105 286.6098600121729 L 303.31010452961675 279.30614729153984 L 305.05226480836234 276.93244065733415 L 306.79442508710804 271.08947048082774 L 308.5365853658536 268.71576384662205 L 310.2787456445993 276.7498478393183 L 312.0209059233449 273.4631771150335 L 313.7630662020906 271.63724893487523 L 315.5052264808362 279.85392574558733 L 317.2473867595819 274.74132684114426 L 318.9895470383275 273.6457699330493 L 320.7317073170732 270.90687766281195 L 322.4738675958188 263.2379793061473 L 324.2160278745645 400 L 325.95818815331006 373.52404138770544 L 327.70034843205576 261.5946439440049 L 329.44250871080135 250.0912964090079 L 331.18466898954705 248.26536822884964 L 332.92682926829264 243.5179549604382 L 334.66898954703834 238.58794887401098 L 336.4111498257839 238.58794887401098 L 338.1533101045296 233.6579427875837 L 339.8954703832752 239.50091296409005 L 341.6376306620209 240.77906269020087 L 343.3797909407665 237.492391965916 L 345.1219512195122 240.96165550821667 L 346.86411149825784 234.02312842361533 L 348.6062717770035 233.47534996956784 L 350.34843205574913 227.81497261107728 L 352.0905923344948 231.83201460742544 L 353.8327526132404 235.48387096774195 L 355.57491289198606 231.10164333536216 L 357.3170731707317 225.80645161290323 L 359.05923344947735 225.25867315885574 L 360.801393728223 215.39866098600123 L 362.54355400696863 218.3201460742544 L 364.2857142857143 210.2860620815581 L 366.0278745644599 214.30310407790626 L 367.77003484320556 210.46865489957395 L 369.5121951219512 205.17346317711502 L 371.25435540069685 206.08642726719415 L 372.9965156794425 202.98234936092513 L 374.73867595818814 208.0949482653682 L 376.4808362369338 199.8782714546561 L 378.2229965156794 196.59160073037128 L 379.96515679442507 190.0182592818016 L 381.7073170731707 192.2093730979915 L 383.44947735191636 203.89531345100426 L 385.191637630662 188.9227023737066 L 386.93379790940764 192.57455873402313 L 388.6759581881533 189.65307364576995 L 390.41811846689893 185.8186244674376 L 392.1602787456446 184.54047474132682 L 393.9024390243902 180.34083992696287 L 395.6445993031359 180.88861838101036 L 397.3867595818815 179.42787583688374 L 399.1289198606272 185.0882531953743 L 400.8710801393728 185.6360316494218 L 402.6132404181185 185.8186244674376 L 404.3554006968641 224.71089470480825 L 406.0975609756097 216.8594035301278 L 407.83972125435537 213.20754716981133 L 409.581881533101 207.72976262933656 L 411.32404181184666 159.34266585514303 L 413.0662020905923 162.8119293974437 L 414.80836236933794 164.82045039561774 L 416.5505226480836 162.44674376141205 L 418.29268292682923 162.2641509433962 L 420.0348432055749 156.7863664029215 L 421.7770034843206 165.73341448569687 L 423.5191637630662 159.34266585514303 L 425.26132404181186 161.89896530736456 L 427.0034843205575 159.70785149117467 L 428.74564459930315 162.99452221545954 L 430.4878048780488 159.34266585514303 L 432.22996515679444 150.2130249543518 L 433.9721254355401 154.41265976871574 L 435.7142857142857 147.83931832014605 L 437.45644599303137 154.41265976871574 L 439.198606271777 139.8052343274498 L 440.94076655052265 134.14485696895923 L 442.6829268292683 149.6652465003043 L 444.42508710801394 143.8222763237979 L 446.1672473867596 145.10042604990872 L 447.9094076655052 144.1874619598296 L 449.65156794425087 130.12781497261108 L 451.3937282229965 128.11929397443697 L 453.13588850174216 133.04930006086425 L 454.8780487804878 131.223371880706 L 456.62020905923345 127.02373706634205 L 458.3623693379791 123.37188070602554 L 460.10452961672473 129.21485088253195 L 461.8466898954704 130.12781497261108 L 463.588850174216 126.8411442483262 L 465.33101045296166 121.18076688983564 L 467.0731707317073 117.34631771150333 L 468.81533101045295 115.88557516737671 L 470.5574912891986 100.73037127206328 L 472.29965156794424 104.93000608642728 L 474.0418118466899 106.39074863055384 L 475.7839721254355 103.46926354230067 L 477.52613240418117 110.95556908094949 L 479.2682926829268 103.10407790626903 L 481.01045296167246 100 L 482.7526132404181 104.19963481436395 L 484.49477351916374 106.93852708460133 L 486.2369337979094 108.76445526475959 L 487.97909407665503 116.06816798539256 L 489.7212543554007 124.46743761412051 L 491.4634146341463 118.25928180158246 L 493.20557491289196 125.56299452221543 L 494.9477351916376 120.815581253804 L 496.68989547038325 121.72854534388313 L 498.4320557491289 115.88557516737671 L 500.17421602787454 118.07668898356661 L 501.9163763066202 128.11929397443697 L 503.6585365853658 122.27632379793062 L 505.40069686411147 139.44004869141816 L 507.1428571428571 134.51004260499087 L 508.88501742160275 135.24041387705415 L 510.6271777003484 132.13633597078513 L 512.3693379790941 135.97078514911743 L 514.1114982578397 145.64820450395615 L 515.8536585365853 150.94339622641508 L 517.595818815331 157.15155203895313 L 519.3379790940767 158.4297017650639 L 521.0801393728223 190.38344491783323 L 522.822299651568 194.21789409616554 L 524.5644599303137 198.2349360925137 L 526.3066202090592 196.40900791235543 L 528.0487804878048 205.17346317711502 L 529.7909407665505 205.35605599513087 L 531.5331010452962 209.00791235544733 L 533.2752613240418 219.23311016433354 L 535.0174216027874 217.58977480219113 L 536.7595818815331 226.5368228849665 L 538.5017421602788 231.6494217894096 L 540.2439024390244 227.2671941570298 L 541.98606271777 232.56238587948872 L 543.7282229965157 231.28423615337795 L 545.4703832752614 245.5264759586123 L 547.212543554007 241.8746195982958 L 548.9547038327526 240.41387705416918 L 550.6968641114983 242.78758368837492 L 552.439024390244 230.00608642726718 L 554.1811846689895 234.57090687766282 L 555.9233449477351 230.55386488131467 L 557.6655052264808 238.77054169202677 L 559.4076655052265 247.16981132075472 L 561.1498257839721 241.3268411442483 L 562.8919860627177 239.50091296409005 L 564.6341463414634 250.63907486305538 L 566.3763066202091 253.19537431527692 L 568.1184668989547 254.4735240413877 L 569.8606271777003 252.64759586122943 L 571.602787456446 250.82166768107123 L 573.3449477351917 249.72611077297626 L 575.0871080139373 246.2568472306756 L 576.8292682926829 246.43944004869144 L 578.5714285714286 240.59646987218503 L 580.3135888501743 241.8746195982958 L 582.0557491289198 251.7346317711503 L 583.7979094076654 242.97017650639077 L 585.5400696864111 244.0657334144857 L 587.2822299651568 245.7090687766281 L 589.0243902439024 244.0657334144857 L 590.766550522648 244.79610468654897 L 592.5087108013937 248.26536822884964 L 594.2508710801394 244.79610468654897 L 595.993031358885 245.89166159464395 L 597.7351916376306 251.00426049908702 L 599.4773519163763 255.9342665855143 L 601.219512195122 259.58612294583077 L 602.9616724738676 257.02982349360923 L 604.7038327526132 261.5946439440049 L 606.4459930313589 263.2379793061473 L 608.1881533101046 262.6902008520998 L 609.9303135888501 267.0724284844796 L 611.6724738675957 274.74132684114426 L 613.4146341463414 278.9409616555082 L 615.1567944250871 281.6798539257456 L 616.8989547038327 277.66281192939744 L 618.6411149825783 281.31466828971395 L 620.383275261324 286.6098600121729 L 622.1254355400697 288.2531953743153 L 623.8675958188153 290.8094948265368 L 625.609756097561 295.7395009129641 L 627.3519163763067 300.1217285453439 L 629.0940766550523 299.0261716372489 L 630.8362369337979 298.84357881923313 L 632.5783972125436 318.1984175289105 L 634.3205574912893 318.56360316494215 L 636.0627177700349 330.0669506999391 L 637.8048780487804 334.63177115033477 L 639.5470383275261 339.01399878271457 L 641.2891986062718 341.5702982349361 L 643.0313588850174 350.69993913572733 L 644.773519163763 356.17772367620205 L 646.5156794425087 340.657334144857 L 648.2578397212544 341.0225197808886 L 650 344.67437614120513 L 650 400 Z" /><text  class="poloto_labels poloto_text poloto_title" alignment-baseline="start" text-anchor="middle" font-size="x-large" x="400" y="37.5" >Total players on 2021-05-30</text><text  class="poloto_labels poloto_text poloto_xname" alignment-baseline="start" text-anchor="middle" font-size="x-large" x="400" y="481.25" >Time</text><text  class="poloto_labels poloto_text poloto_yname" alignment-baseline="start" text-anchor="middle" font-size="x-large" transform="rotate(-90,37.5,250)" x="37.5" y="250" >Count</text><line  class="poloto_axis_lines" stroke="black" x1="208.0487804878049" x2="208.0487804878049" y1="400" y2="405" /><text  class="poloto_tick_labels poloto_text" alignment-baseline="start" text-anchor="middle" x="208.0487804878049" y="430" > 03:00</text><line  class="poloto_axis_lines" stroke="black" x1="266.1207897793264" x2="266.1207897793264" y1="400" y2="405" /><text  class="poloto_tick_labels poloto_text" alignment-baseline="start" text-anchor="middle" x="266.1207897793264" y="430" > 06:00</text><line  class="poloto_axis_lines" stroke="black" x1="324.19279907084785" x2="324.19279907084785" y1="400" y2="405" /><text  class="poloto_tick_labels poloto_text" alignment-baseline="start" text-anchor="middle" x="324.19279907084785" y="430" > 08:00</text><line  class="poloto_axis_lines" stroke="black" x1="382.2648083623693" x2="382.2648083623693" y1="400" y2="405" /><text  class="poloto_tick_labels poloto_text" alignment-baseline="start" text-anchor="middle" x="382.2648083623693" y="430" > 11:00</text><line  class="poloto_axis_lines" stroke="black" x1="440.3368176538908" x2="440.3368176538908" y1="400" y2="405" /><text  class="poloto_tick_labels poloto_text" alignment-baseline="start" text-anchor="middle" x="440.3368176538908" y="430" > 14:00</text><line  class="poloto_axis_lines" stroke="black" x1="498.4088269454123" x2="498.4088269454123" y1="400" y2="405" /><text  class="poloto_tick_labels poloto_text" alignment-baseline="start" text-anchor="middle" x="498.4088269454123" y="430" > 17:00</text><line  class="poloto_axis_lines" stroke="black" x1="556.4808362369338" x2="556.4808362369338" y1="400" y2="405" /><text  class="poloto_tick_labels poloto_text" alignment-baseline="start" text-anchor="middle" x="556.4808362369338" y="430" > 19:00</text><line  class="poloto_axis_lines" stroke="black" x1="614.5528455284552" x2="614.5528455284552" y1="400" y2="405" /><text  class="poloto_tick_labels poloto_text" alignment-baseline="start" text-anchor="middle" x="614.5528455284552" y="430" > 22:00</text><line  class="poloto_axis_lines" stroke="black" x1="150" x2="144" y1="324.0413877054169" y2="324.0413877054169" /><text  class="poloto_tick_labels poloto_text" alignment-baseline="middle" text-anchor="end" x="135" y="324.0413877054169" > 1500</text><line  class="poloto_axis_lines" stroke="black" x1="150" x2="144" y1="232.74497869750456" y2="232.74497869750456" /><text  class="poloto_tick_labels poloto_text" alignment-baseline="middle" text-anchor="end" x="135" y="232.74497869750456" > 2000</text><line  class="poloto_axis_lines" stroke="black" x1="150" x2="144" y1="141.4485696895922" y2="141.4485696895922" /><text  class="poloto_tick_labels poloto_text" alignment-baseline="middle" text-anchor="end" x="135" y="141.4485696895922" > 2500</text><path  stroke="black" fill="none" class="poloto_axis_lines" style="stroke-dasharray:14.518002322880372;stroke-dashoffset:-58.04878048780488;" d=" M 150 400 L 650 400" /><path  stroke="black" fill="none" class="poloto_axis_lines" style="stroke-dasharray:9.129640900791236;stroke-dashoffset:-75.95861229458308;" d=" M 150 400 L 150 100" /></svg>