<svg class="poloto" width="800" height="500" viewBox="0 0 800 500" xmlns="http://www.w3.org/2000/svg"><style>.poloto { stroke-linecap:round; stroke-linejoin:round; font-family: 'Tahoma', sans-serif; background-color: AliceBlue;} .poloto_scatter{stroke-width:7} .poloto_line{stroke-width:2} .poloto_text{fill: black;} .poloto_axis_lines{stroke: black;stroke-width:3;fill:none;stroke-dasharray:none} .poloto0stroke{stroke:  blue;} .poloto1stroke{stroke:  red;} .poloto2stroke{stroke:  green;} .poloto3stroke{stroke:  gold;} .poloto4stroke{stroke:  aqua;} .poloto5stroke{stroke:  lime;} .poloto6stroke{stroke:  orange;} .poloto7stroke{stroke:  chocolate;} .poloto0fill{fill:blue;} .poloto1fill{fill:red;} .poloto2fill{fill:green;} .poloto3fill{fill:gold;} .poloto4fill{fill:aqua;} .poloto5fill{fill:lime;} .poloto6fill{fill:orange;} .poloto7fill{fill:chocolate;}</style><text  class="poloto_text poloto_legend_text" alignment-baseline="middle" text-anchor="start" font-size="large" x="675" y="100" ></text><path  class="poloto_linefill poloto0fill" d=" M 150 400 L 150 325.2296387017759 L 151.74216027874564 331.47581139007957 L 153.4843205574913 332.76178812002445 L 155.22648083623693 339.3753827311696 L 156.96864111498257 342.6821800367422 L 158.71080139372822 346.9075321494182 L 160.45296167247386 350.9491733006736 L 162.1951219512195 355.9093692590325 L 163.93728222996515 353.8885486834048 L 165.6794425087108 354.07225964482546 L 167.42160278745644 356.09308022045315 L 169.16376306620208 354.6233925290876 L 170.90592334494772 358.2976117575015 L 172.64808362369337 354.6233925290876 L 174.390243902439 361.2369871402327 L 176.13240418118465 365.82976117575015 L 177.8745644599303 364.36007348438454 L 179.61672473867597 365.2786282914881 L 181.3588850174216 370.05511328842624 L 183.10104529616726 370.2388242498469 L 184.8432055749129 376.85241886099203 L 186.58536585365854 379.9755052051439 L 188.3275261324042 379.7917942437232 L 190.06968641114983 375.015309246785 L 191.81184668989548 376.66870789957136 L 193.55400696864112 373.9130434782609 L 195.29616724738676 380.34292712798526 L 197.0383275261324 386.22167789344763 L 198.78048780487805 381.81261481935087 L 200.5226480836237 389.8958971218616 L 202.26480836236934 394.48867115737903 L 204.00696864111498 392.10042865891 L 205.74912891986062 390.99816289038574 L 207.49128919860627 387.6913655848132 L 209.2334494773519 388.2424984690753 L 210.97560975609755 384.7519902020821 L 212.7177700348432 387.5076546233925 L 214.45993031358887 390.44703000612367 L 216.2020905923345 386.22167789344763 L 217.94425087108016 381.81261481935087 L 219.6864111498258 384.56827924066135 L 221.42857142857144 390.0796080832823 L 223.1707317073171 392.46785058175135 L 224.91289198606273 396.32578077158604 L 226.65505226480838 400 L 228.39721254355402 394.30496019595836 L 230.13937282229966 394.85609308022043 L 231.8815331010453 394.30496019595836 L 233.62369337979095 398.3466013472137 L 235.3658536585366 393.57011635027555 L 237.10801393728224 391.73300673606855 L 238.85017421602788 393.20269442743415 L 240.59233449477352 388.9773423147581 L 242.33449477351917 381.9963257807716 L 244.0766550522648 377.7709736680955 L 245.81881533101046 376.3012859767299 L 247.5609756097561 372.627066748316 L 249.30313588850174 368.7691365584813 L 251.0452961672474 362.5229638701776 L 252.78745644599303 362.1555419473362 L 254.52961672473867 363.9926515615432 L 256.2717770034843 365.2786282914881 L 258.01393728222996 363.07409675443967 L 259.7560975609756 366.0134721371709 L 261.49825783972125 364.72749540722594 L 263.2404181184669 370.05511328842624 L 264.98257839721254 370.6062461726883 L 266.7247386759582 371.3410900183711 L 268.4668989547038 374.2804654011022 L 270.20905923344947 373.9130434782609 L 271.9512195121951 373.72933251684015 L 273.69337979094075 378.68952847519904 L 275.4355400696864 376.85241886099203 L 277.17770034843204 378.1383955909369 L 278.9198606271777 371.70851194121246 L 280.6620209059233 375.56644213104715 L 282.40418118466897 383.09859154929575 L 284.1463414634146 377.40355174525416 L 285.88850174216026 375.7501530924678 L 287.6306620209059 369.6876913655848 L 289.37282229965155 366.7483159828536 L 291.1149825783972 360.8695652173913 L 292.85714285714283 360.68585425597064 L 294.5993031358885 352.96999387630126 L 296.3414634146342 354.80710349050827 L 298.08362369337976 358.66503368034296 L 299.82578397212546 348.9283527250459 L 301.56794425087105 353.52112676056333 L 303.31010452961675 359.5835884874464 L 305.05226480836234 353.70483772198406 L 306.79442508710804 349.1120636864666 L 308.5365853658536 351.6840171463564 L 310.2787456445993 357.0116350275566 L 312.0209059233449 356.2767911818738 L 313.7630662020906 361.2369871402327 L 315.5052264808362 360.3184323331292 L 317.2473867595819 359.0324556031843 L 318.9895470383275 360.68585425597064 L 320.7317073170732 358.84874464176363 L 322.4738675958188 358.48132271892223 L 324.2160278745645 357.19534598897735 L 325.95818815331006 357.19534598897735 L 327.70034843205576 354.99081445192894 L 329.44250871080135 353.70483772198406 L 331.18466898954705 344.88671157379054 L 332.92682926829264 338.2731169626454 L 334.66898954703834 334.0477648499694 L 336.4111498257839 334.96631965707286 L 338.1533101045296 337.9056950398041 L 339.8954703832752 334.4151867728108 L 341.6376306620209 332.2106552357624 L 343.3797909407665 329.08756889161054 L 345.1219512195122 329.6387017758726 L 346.86411149825784 327.06674831598286 L 348.6062717770035 329.08756889161054 L 350.34843205574913 325.9644825474587 L 352.0905923344948 318.24862216778934 L 353.8327526132404 317.881200244948 L 355.57491289198606 317.3300673606858 L 357.3170731707317 309.06307409675446 L 359.05923344947735 307.4096754439681 L 360.801393728223 299.1426821800368 L 362.54355400696863 296.75443968156765 L 364.2857142857143 291.4268218003674 L 366.0278745644599 288.6711573790569 L 367.77003484320556 293.81506429883655 L 369.5121951219512 296.5707287201469 L 371.25435540069685 299.69381506429886 L 372.9965156794425 288.6711573790569 L 374.73867595818814 280.95529699938766 L 376.4808362369338 282.24127372933253 L 378.2229965156794 278.75076546233925 L 379.96515679442507 274.1579914268218 L 381.7073170731707 276.72994488671156 L 383.44947735191636 275.6276791181874 L 385.191637630662 265.3398652786283 L 386.93379790940764 259.0936925903245 L 388.6759581881533 261.48193508879365 L 390.41811846689893 258.54255970606243 L 392.1602787456446 265.15615431720755 L 393.9024390243902 268.4629516227801 L 395.6445993031359 265.3398652786283 L 397.3867595818815 259.0936925903245 L 399.1289198606272 255.78689528475198 L 400.8710801393728 257.80771586037963 L 402.6132404181185 260.5633802816901 L 404.3554006968641 257.0728720146968 L 406.0975609756097 260.01224739742804 L 407.83972125435537 254.31720759338643 L 409.581881533101 242.0085731781996 L 411.32404181184666 242.74341702388242 L 413.0662020905923 241.82486221677894 L 414.80836236933794 232.08818126148194 L 416.5505226480836 240.35517452541333 L 418.29268292682923 239.62033067973053 L 420.0348432055749 239.06919779546845 L 421.7770034843206 230.43478260869566 L 423.5191637630662 228.41396203306797 L 425.26132404181186 219.96325780771585 L 427.0034843205575 222.16778934476426 L 428.74564459930315 218.30985915492957 L 430.4878048780488 203.98040416411513 L 432.22996515679444 201.77587262706678 L 433.9721254355401 197.18309859154928 L 435.7142857142857 194.24372320881812 L 437.45644599303137 192.77403551745252 L 439.198606271777 190.3857930189835 L 440.94076655052265 181.75137783221064 L 442.6829268292683 183.22106552357624 L 444.42508710801394 181.20024494794856 L 446.1672473867596 185.24188609920392 L 447.9094076655052 171.09614206981016 L 449.65156794425087 167.23821187997552 L 451.3937282229965 174.77036129822412 L 453.13588850174216 185.4255970606246 L 454.8780487804878 185.97672994488673 L 456.62020905923345 179.36313533374155 L 458.3623693379791 192.59032455603185 L 460.10452961672473 163.19657072872016 L 461.8466898954704 143.9069197795468 L 463.588850174216 146.11145131659524 L 465.33101045296166 138.7630128597673 L 467.0731707317073 135.63992651561546 L 468.81533101045295 122.9638701775873 L 470.5574912891986 119.10593998775266 L 472.29965156794424 134.72137170851192 L 474.0418118466899 135.63992651561546 L 475.7839721254355 124.61726883037352 L 477.52613240418117 123.51500306184937 L 479.2682926829268 120.39191671769754 L 481.01045296167246 118.7385180649112 L 482.7526132404181 113.41090018371096 L 484.49477351916374 108.81812614819353 L 486.2369337979094 116.16656460502145 L 487.97909407665503 110.65523576240048 L 489.7212543554007 113.5946111451317 L 491.4634146341463 104.22535211267609 L 493.20557491289196 102.02082057562768 L 494.9477351916376 100 L 496.68989547038325 113.41090018371096 L 498.4320557491289 107.34843845682792 L 500.17421602787454 105.51132884262097 L 501.9163763066202 107.16472749540719 L 503.6585365853658 104.59277403551744 L 505.40069686411147 100 L 507.1428571428571 107.71586037966938 L 508.88501742160275 111.39007960808328 L 510.6271777003484 118.55480710349048 L 512.3693379790941 123.33129210042864 L 514.1114982578397 128.8426209430496 L 515.8536585365853 124.4335578689529 L 517.595818815331 128.8426209430496 L 519.3379790940767 133.8028169014085 L 521.0801393728223 140.9675443968157 L 522.822299651568 147.9485609308022 L 524.5644599303137 153.27617881200243 L 526.3066202090592 152.17391304347828 L 528.0487804878048 151.07164727495407 L 529.7909407665505 153.82731169626456 L 531.5331010452962 167.60563380281693 L 533.2752613240418 169.6264543784446 L 535.0174216027874 181.56766687078996 L 536.7595818815331 189.6509491733007 L 538.5017421602788 179.36313533374155 L 540.2439024390244 176.056338028169 L 541.98606271777 172.19840783833436 L 543.7282229965157 176.056338028169 L 545.4703832752614 181.0165339865279 L 547.212543554007 193.32516840171465 L 548.9547038327526 204.5315370483772 L 550.6968641114983 192.22290263319044 L 552.439024390244 193.14145744029392 L 554.1811846689895 190.3857930189835 L 555.9233449477351 200.85731781996324 L 557.6655052264808 203.24556031843233 L 559.4076655052265 210.22657685241884 L 561.1498257839721 201.40845070422537 L 562.8919860627177 197.36680955297 L 564.6341463414634 193.69259032455605 L 566.3763066202091 194.7948560930802 L 568.1184668989547 191.48805878750764 L 569.8606271777003 191.48805878750764 L 571.602787456446 193.87630128597672 L 573.3449477351917 187.44641763625228 L 575.0871080139373 188.54868340477648 L 576.8292682926829 199.3876301285977 L 578.5714285714286 204.34782608695653 L 580.3135888501743 206.18493570116348 L 582.0557491289198 200.48989589712184 L 583.7979094076654 199.93876301285977 L 585.5400696864111 206.55235762400488 L 587.2822299651568 200.30618493570117 L 589.0243902439024 207.2872014696877 L 590.766550522648 198.46907532149416 L 592.5087108013937 203.06184935701165 L 594.2508710801394 194.4274341702388 L 595.993031358885 200.48989589712184 L 597.7351916376306 195.529699938763 L 599.4773519163763 215.003061849357 L 601.219512195122 198.83649724433556 L 602.9616724738676 212.43110838946725 L 604.7038327526132 219.22841396203304 L 606.4459930313589 225.2908756889161 L 608.1881533101046 228.96509491733005 L 609.9303135888501 237.2320881812615 L 611.6724738675957 248.6221677893448 L 613.4146341463414 251.3778322106552 L 615.1567944250871 253.94978567054503 L 616.8989547038327 251.3778322106552 L 618.6411149825783 260.19595835884877 L 620.383275261324 271.4023270055113 L 622.1254355400697 276.54623392529084 L 623.8675958188153 281.50642988364973 L 625.609756097561 287.0177587262707 L 627.3519163763067 296.9381506429884 L 629.0940766550523 301.16350275566447 L 630.8362369337979 297.48928352725045 L 632.5783972125436 303.5517452541335 L 634.3205574912893 313.47213717085117 L 636.0627177700349 316.96264543784446 L 637.8048780487804 316.5952235150031 L 639.5470383275261 322.2902633190447 L 641.2891986062718 321.37170851194116 L 643.0313588850174 333.680342927128 L 644.773519163763 332.57807715860383 L 646.5156794425087 333.49663196570725 L 648.2578397212544 336.8034292712798 L 650 345.07042253521126 L 650 400 Z" /><text  class="poloto_labels poloto_text poloto_title" alignment-baseline="start" text-anchor="middle" font-size="x-large" x="400" y="37.5" >Total players on 2021-06-01</text><text  class="poloto_labels poloto_text poloto_xname" alignment-baseline="start" text-anchor="middle" font-size="x-large" x="400" y="481.25" >Time</text><text  class="poloto_labels poloto_text poloto_yname" alignment-baseline="start" text-anchor="middle" font-size="x-large" transform="rotate(-90,37.5,250)" x="37.5" y="250" >Count</text><line  class="poloto_axis_lines" stroke="black" x1="208.0487804878049" x2="208.0487804878049" y1="400" y2="405" /><text  class="poloto_tick_labels poloto_text" alignment-baseline="start" text-anchor="middle" x="208.0487804878049" y="430" > 03:00</text><line  class="poloto_axis_lines" stroke="black" x1="266.1207897793264" x2="266.1207897793264" y1="400" y2="405" /><text  class="poloto_tick_labels poloto_text" alignment-baseline="start" text-anchor="middle" x="266.1207897793264" y="430" > 06:00</text><line  class="poloto_axis_lines" stroke="black" x1="324.19279907084785" x2="324.19279907084785" y1="400" y2="405" /><text  class="poloto_tick_labels poloto_text" alignment-baseline="start" text-anchor="middle" x="324.19279907084785" y="430" > 08:00</text><line  class="poloto_axis_lines" stroke="black" x1="382.2648083623693" x2="382.2648083623693" y1="400" y2="405" /><text  class="poloto_tick_labels poloto_text" alignment-baseline="start" text-anchor="middle" x="382.2648083623693" y="430" > 11:00</text><line  class="poloto_axis_lines" stroke="black" x1="440.3368176538908" x2="440.3368176538908" y1="400" y2="405" /><text  class="poloto_tick_labels poloto_text" alignment-baseline="start" text-anchor="middle" x="440.3368176538908" y="430" > 14:00</text><line  class="poloto_axis_lines" stroke="black" x1="498.4088269454123" x2="498.4088269454123" y1="400" y2="405" /><text  class="poloto_tick_labels poloto_text" alignment-baseline="start" text-anchor="middle" x="498.4088269454123" y="430" > 17:00</text><line  class="poloto_axis_lines" stroke="black" x1="556.4808362369338" x2="556.4808362369338" y1="400" y2="405" /><text  class="poloto_tick_labels poloto_text" alignment-baseline="start" text-anchor="middle" x="556.4808362369338" y="430" > 19:00</text><line  class="poloto_axis_lines" stroke="black" x1="614.5528455284552" x2="614.5528455284552" y1="400" y2="405" /><text  class="poloto_tick_labels poloto_text" alignment-baseline="start" text-anchor="middle" x="614.5528455284552" y="430" > 22:00</text><line  class="poloto_axis_lines" stroke="black" x1="150" x2="144" y1="312.00244947948556" y2="312.00244947948556" /><text  class="poloto_tick_labels poloto_text" alignment-baseline="middle" text-anchor="end" x="135" y="312.00244947948556" > 1500</text><line  class="poloto_axis_lines" stroke="black" x1="150" x2="144" y1="220.1469687691366" y2="220.1469687691366" /><text  class="poloto_tick_labels poloto_text" alignment-baseline="middle" text-anchor="end" x="135" y="220.1469687691366" > 2000</text><line  class="poloto_axis_lines" stroke="black" x1="150" x2="144" y1="128.29148805878754" y2="128.29148805878754" /><text  class="poloto_tick_labels poloto_text" alignment-baseline="middle" text-anchor="end" x="135" y="128.29148805878754" > 2500</text><path  stroke="black" fill="none" class="poloto_axis_lines" style="stroke-dasharray:14.518002322880372;stroke-dashoffset:-58.04878048780488;" d=" M 150 400 L 650 400" /><path  stroke="black" fill="none" class="poloto_axis_lines" style="stroke-dasharray:9.185548071034905;stroke-dashoffset:-87.99755052051441;" d=" M 150 400 L 150 100" /></svg>