<svg class="poloto" width="800" height="500" viewBox="0 0 800 500" xmlns="http://www.w3.org/2000/svg"><style>.poloto { stroke-linecap:round; stroke-linejoin:round; font-family: 'Tahoma', sans-serif; background-color: AliceBlue;} .poloto_scatter{stroke-width:7} .poloto_line{stroke-width:2} .poloto_text{fill: black;} .poloto_axis_lines{stroke: black;stroke-width:3;fill:none;stroke-dasharray:none} .poloto0stroke{stroke:  blue;} .poloto1stroke{stroke:  red;} .poloto2stroke{stroke:  green;} .poloto3stroke{stroke:  gold;} .poloto4stroke{stroke:  aqua;} .poloto5stroke{stroke:  lime;} .poloto6stroke{stroke:  orange;} .poloto7stroke{stroke:  chocolate;} .poloto0fill{fill:blue;} .poloto1fill{fill:red;} .poloto2fill{fill:green;} .poloto3fill{fill:gold;} .poloto4fill{fill:aqua;} .poloto5fill{fill:lime;} .poloto6fill{fill:orange;} .poloto7fill{fill:chocolate;}</style><text  class="poloto_text poloto_legend_text" alignment-baseline="middle" text-anchor="start" font-size="large" x="675" y="100" ></text><path  class="poloto_linefill poloto0fill" d=" M 150 400 L 150 313.16281971303806 L 151.74216027874564 320.64878353087965 L 153.4843205574913 327.19900187149096 L 155.22648083623693 332.0648783530879 L 156.96864111498257 336.5564566437929 L 158.71080139372822 344.6038677479726 L 160.45296167247386 348.34684965689337 L 162.1951219512195 352.65127885215225 L 163.93728222996515 350.9669369931379 L 165.6794425087108 349.65689332501563 L 167.42160278745644 353.3998752339364 L 169.16376306620208 353.02557704304434 L 170.90592334494772 358.07860262008734 L 172.64808362369337 364.2545227698066 L 174.390243902439 367.2489082969432 L 176.13240418118465 368.9332501559576 L 177.8745644599303 370.24329382407984 L 179.61672473867597 367.9975046787274 L 181.36469221835074 375.857766687461 L 183.10104529616726 373.98627573300064 L 184.8432055749129 376.0449157829071 L 186.58536585365854 371.17903930131 L 188.3275261324042 369.86899563318775 L 190.06968641114983 362.38303181534627 L 191.81184668989548 362.57018091079226 L 193.55400696864112 361.8215845290081 L 195.29616724738676 362.0087336244542 L 197.0383275261324 357.1428571428571 L 198.78048780487805 352.08983156581405 L 200.5226480836237 354.3356207111666 L 202.26480836236934 357.5171553337492 L 204.00696864111498 390.455396132252 L 205.74912891986062 364.2545227698066 L 207.49128919860627 393.2626325639426 L 209.2334494773519 373.05053025577047 L 210.97560975609755 377.9164067373674 L 212.7177700348432 385.402370555209 L 214.45993031358887 400 L 216.2020905923345 383.3437305053026 L 217.94425087108016 377.9164067373674 L 219.6864111498258 376.23206487835307 L 221.42857142857144 373.23767935121646 L 223.1707317073171 363.50592638802243 L 224.91289198606273 362.19588271990017 L 226.65505226480838 364.2545227698066 L 228.39721254355402 355.64566437928886 L 230.13937282229966 354.7099189020587 L 231.8815331010453 355.45851528384276 L 233.62369337979095 351.34123518403 L 235.3658536585366 348.90829694323145 L 237.10801393728224 344.41671865252647 L 238.85017421602788 355.27136618839677 L 240.59233449477352 350.0311915159077 L 242.33449477351917 329.2576419213974 L 244.0766550522648 331.87772925764193 L 245.81881533101046 339.3636930754835 L 247.5609756097561 339.5508421709295 L 249.30313588850174 329.0704928259513 L 251.0452961672474 326.6375545851529 L 252.78745644599303 326.2632563942608 L 254.52961672473867 320.64878353087965 L 256.2717770034843 321.21023081721773 L 258.01393728222996 324.76606363069243 L 259.76190476190476 328.13474734872113 L 261.49825783972125 330.38053649407357 L 263.2404181184669 333.7492202121023 L 264.98257839721254 331.87772925764193 L 266.7247386759582 334.12351840299436 L 268.4668989547038 332.6263256394261 L 270.20905923344947 334.31066749844047 L 271.9512195121951 335.6207111665627 L 273.69337979094075 336.5564566437929 L 275.44134727061555 337.3050530255771 L 277.17770034843204 342.9195258889582 L 278.9198606271777 344.41671865252647 L 280.6620209059233 339.5508421709295 L 282.40418118466897 339.5508421709295 L 284.1463414634146 341.0480349344979 L 285.88850174216026 340.6737367436058 L 287.6306620209059 338.61509669369934 L 289.37282229965155 340.2994385527137 L 291.1149825783972 337.117903930131 L 292.85714285714283 329.4447910168434 L 294.5993031358885 325.3275109170306 L 296.3414634146342 324.39176543980034 L 298.08362369337976 320.08733624454146 L 299.82578397212546 317.65439800374304 L 301.56794425087105 320.27448533998756 L 303.31010452961675 318.2158452900811 L 305.05226480836234 314.09856519026823 L 306.79442508710804 318.7772925764192 L 308.5365853658536 319.5258889582034 L 310.2787456445993 319.71303805364937 L 312.0209059233449 318.5901434809732 L 313.7630662020906 314.6600124766064 L 315.5052264808362 310.54273237679354 L 317.2473867595819 303.9925140361821 L 318.9895470383275 301.5595757953837 L 320.7317073170732 296.31940112289453 L 322.4738675958188 290.5177791640674 L 324.2160278745645 286.9619463505926 L 325.95818815331006 281.16032439176547 L 327.70034843205576 279.4759825327511 L 329.44250871080135 275.9201497192763 L 331.18466898954705 275.35870243293823 L 332.92682926829264 265.2526512788521 L 334.66898954703834 260.57392389270115 L 336.4111498257839 262.8197130380537 L 338.1533101045296 258.8895820336868 L 339.8954703832752 260.38677479725516 L 341.6376306620209 262.6325639426076 L 343.3797909407665 260.38677479725516 L 345.1219512195122 255.33374922021213 L 346.86411149825784 255.14660012476608 L 348.6062717770035 252.52651278852156 L 350.34843205574913 238.3031815346226 L 352.0905923344948 242.6076107298815 L 353.8327526132404 242.98190892077358 L 355.57491289198606 239.23892701185278 L 357.3170731707317 233.25015595757955 L 359.05923344947735 229.6943231441048 L 360.801393728223 223.33125389893948 L 362.54355400696863 223.14410480349343 L 364.2857142857143 242.04616344354335 L 366.0278745644599 240.7361197754211 L 367.77003484320556 242.04616344354335 L 369.5121951219512 245.6019962570181 L 371.25435540069685 242.79475982532753 L 372.9965156794425 248.78353087960076 L 374.73867595818814 233.99875233936373 L 376.4808362369338 222.3955084217093 L 378.2229965156794 220.5240174672489 L 379.96515679442507 213.22520274485342 L 381.7073170731707 225.95134123518406 L 383.44947735191636 214.90954460386777 L 385.191637630662 209.1079226450406 L 386.93379790940764 204.9906425452277 L 388.6759581881533 205.17779164067375 L 390.41811846689893 202.55770430442922 L 392.1602787456446 196.75608234560204 L 393.9024390243902 197.87897691827825 L 395.6445993031359 186.65003119151592 L 397.3867595818815 185.5271366188397 L 399.1289198606272 183.46849656893326 L 400.8710801393728 179.53836556456648 L 402.6132404181185 180.09981285090456 L 404.3554006968641 180.2869619463506 L 406.0975609756097 180.2869619463506 L 407.83972125435537 197.50467872738616 L 409.581881533101 203.68059887710544 L 411.32404181184666 176.73112913287585 L 413.0662020905923 181.22270742358083 L 414.80836236933794 178.60262008733625 L 416.5505226480836 170.3680598877106 L 418.29268292682923 171.30380536494076 L 420.0348432055749 178.22832189644416 L 421.7770034843206 177.66687461010608 L 423.5191637630662 177.85402370555212 L 425.26132404181186 175.4210854647536 L 427.0034843205575 185.90143480973174 L 428.74564459930315 166.81222707423584 L 430.4878048780488 158.01621958827198 L 432.22996515679444 146.60012476606366 L 433.9721254355401 154.46038677479729 L 435.7142857142857 138.73986275733 L 437.45644599303137 139.67560823456017 L 439.198606271777 138.552713661884 L 440.94076655052265 130.69245165315033 L 442.6829268292683 132.75109170305677 L 444.42508710801394 133.31253898939485 L 446.1672473867596 127.32376793512162 L 447.9094076655052 131.6281971303805 L 449.65156794425087 117.40486587648161 L 451.3937282229965 111.97754210854646 L 453.1416957026713 113.66188396756081 L 454.8780487804878 108.04741110417967 L 456.62020905923345 104.11728009981289 L 458.3623693379791 110.6674984404242 L 460.10452961672473 108.04741110417967 L 461.8466898954704 109.17030567685595 L 463.588850174216 110.10605115408612 L 465.33101045296166 105.24017467248905 L 467.0731707317073 103.18153462258272 L 468.81533101045295 108.79600748596386 L 470.5574912891986 106.36306924516532 L 472.29965156794424 108.23456019962578 L 474.0418118466899 111.97754210854646 L 475.7839721254355 108.04741110417967 L 477.52613240418117 117.03056768558952 L 479.2682926829268 108.60885839051775 L 481.01045296167246 110.10605115408612 L 482.7526132404181 110.8546475358703 L 484.49477351916374 110.48034934497821 L 486.2369337979094 111.79039301310047 L 487.97909407665503 112.35184029943855 L 489.7212543554007 106.55021834061142 L 491.4634146341463 104.86587648159707 L 493.20557491289196 111.04179663131629 L 494.9477351916376 100 L 496.68989547038325 102.99438552713661 L 498.4320557491289 108.23456019962578 L 500.17421602787454 110.8546475358703 L 501.9163763066202 111.97754210854646 L 503.6585365853658 112.53898939488465 L 505.40069686411147 111.79039301310047 L 507.1428571428571 118.71490954460387 L 508.88501742160275 151.27885215221463 L 510.6271777003484 153.52464129756706 L 512.3693379790941 172.05240174672488 L 514.1114982578397 165.31503431066753 L 515.8536585365853 148.47161572052406 L 517.595818815331 149.03306300686214 L 519.3379790940767 162.3206487835309 L 521.0801393728223 183.09419837804117 L 522.822299651568 187.21147847785406 L 524.5644599303137 194.13599500935746 L 526.3066202090592 204.24204616344358 L 528.0487804878048 210.04366812227076 L 529.7909407665505 213.41235184029946 L 531.5331010452962 218.83967560823456 L 533.2752613240418 223.33125389893948 L 535.0174216027874 228.1971303805365 L 536.7595818815331 233.0630068621335 L 538.5017421602788 236.8059887710543 L 540.2439024390244 234.5601996257018 L 541.98606271777 238.67747972551464 L 543.7282229965157 242.98190892077358 L 545.4703832752614 237.74173424828447 L 547.2183507549362 246.72489082969432 L 548.9547038327526 251.21646912039924 L 550.6968641114983 251.02932002495325 L 552.439024390244 245.41484716157206 L 554.1811846689895 251.40361821584528 L 555.9233449477351 250.28072364316907 L 557.6655052264808 251.21646912039924 L 559.4076655052265 252.71366188396755 L 561.1498257839721 247.28633811603245 L 562.8919860627177 251.59076731129133 L 564.6341463414634 256.64379288833436 L 566.3763066202091 255.52089831565817 L 568.1184668989547 256.64379288833436 L 569.8606271777003 258.3281347473487 L 571.602787456446 266.0012476606363 L 573.3449477351917 265.6269494697442 L 575.0871080139373 269.369931378665 L 576.8292682926829 266.0012476606363 L 578.5714285714286 270.86712414223337 L 580.3135888501743 263.56830941983776 L 582.0557491289198 269.7442295695571 L 583.7979094076654 268.6213349968808 L 585.5400696864111 270.67997504678726 L 587.2822299651568 275.7330006238303 L 589.0243902439024 276.2944479101684 L 590.766550522648 272.7386150966937 L 592.5087108013937 276.8558951965066 L 594.2508710801394 282.09606986899564 L 595.993031358885 283.967560823456 L 597.7351916376306 286.7747972551466 L 599.4773519163763 288.83343730505305 L 601.219512195122 289.20773549594514 L 602.9616724738676 292.95071740486594 L 604.7038327526132 295.94510293200256 L 606.4459930313589 303.8053649407361 L 608.1881533101046 313.34996880848405 L 609.9303135888501 316.71865252651276 L 611.6724738675957 316.71865252651276 L 613.4146341463414 323.45601996257017 L 615.1567944250871 314.28571428571433 L 616.8989547038327 309.60698689956337 L 618.6411149825783 331.12913287585775 L 620.383275261324 329.4447910168434 L 622.1254355400697 322.52027448534 L 623.8675958188153 319.5258889582034 L 625.609756097561 315.4086088583905 L 627.3519163763067 320.08733624454146 L 629.0940766550523 321.9588271990019 L 630.8362369337979 318.028696194635 L 632.5783972125436 318.2158452900811 L 634.3205574912893 323.83031815346226 L 636.0627177700349 321.9588271990019 L 637.8048780487804 326.0761072988147 L 639.5470383275261 332.43917654398 L 641.2891986062718 334.68496568933256 L 643.0313588850174 338.80224578914533 L 644.773519163763 335.6207111665627 L 646.5156794425087 342.7323767935121 L 648.2578397212544 343.4809731752963 L 650 345.35246412975675 L 650 400 Z" /><text  class="poloto_labels poloto_text poloto_title" alignment-baseline="start" text-anchor="middle" font-size="x-large" x="400" y="37.5" >Total players on 2021-07-29</text><text  class="poloto_labels poloto_text poloto_xname" alignment-baseline="start" text-anchor="middle" font-size="x-large" x="400" y="481.25" >Time</text><text  class="poloto_labels poloto_text poloto_yname" alignment-baseline="start" text-anchor="middle" font-size="x-large" transform="rotate(-90,37.5,250)" x="37.5" y="250" >Count</text><line  class="poloto_axis_lines" stroke="black" x1="208.0487804878049" x2="208.0487804878049" y1="400" y2="405" /><text  class="poloto_tick_labels poloto_text" alignment-baseline="start" text-anchor="middle" x="208.0487804878049" y="430" > 02:46:40</text><line  class="poloto_axis_lines" stroke="black" x1="266.1207897793264" x2="266.1207897793264" y1="400" y2="405" /><text  class="poloto_tick_labels poloto_text" alignment-baseline="start" text-anchor="middle" x="266.1207897793264" y="430" > 05:33:20</text><line  class="poloto_axis_lines" stroke="black" x1="324.19279907084785" x2="324.19279907084785" y1="400" y2="405" /><text  class="poloto_tick_labels poloto_text" alignment-baseline="start" text-anchor="middle" x="324.19279907084785" y="430" > 08:20:00</text><line  class="poloto_axis_lines" stroke="black" x1="382.2648083623693" x2="382.2648083623693" y1="400" y2="405" /><text  class="poloto_tick_labels poloto_text" alignment-baseline="start" text-anchor="middle" x="382.2648083623693" y="430" > 11:06:40</text><line  class="poloto_axis_lines" stroke="black" x1="440.3368176538908" x2="440.3368176538908" y1="400" y2="405" /><text  class="poloto_tick_labels poloto_text" alignment-baseline="start" text-anchor="middle" x="440.3368176538908" y="430" > 13:53:20</text><line  class="poloto_axis_lines" stroke="black" x1="498.4088269454123" x2="498.4088269454123" y1="400" y2="405" /><text  class="poloto_tick_labels poloto_text" alignment-baseline="start" text-anchor="middle" x="498.4088269454123" y="430" > 16:40:00</text><line  class="poloto_axis_lines" stroke="black" x1="556.4808362369338" x2="556.4808362369338" y1="400" y2="405" /><text  class="poloto_tick_labels poloto_text" alignment-baseline="start" text-anchor="middle" x="556.4808362369338" y="430" > 19:26:40</text><line  class="poloto_axis_lines" stroke="black" x1="614.5528455284552" x2="614.5528455284552" y1="400" y2="405" /><text  class="poloto_tick_labels poloto_text" alignment-baseline="start" text-anchor="middle" x="614.5528455284552" y="430" > 22:13:20</text><line  class="poloto_axis_lines" stroke="black" x1="150" x2="144" y1="331.12913287585775" y2="331.12913287585775" /><text  class="poloto_tick_labels poloto_text" alignment-baseline="middle" text-anchor="end" x="135" y="331.12913287585775" > 1500</text><line  class="poloto_axis_lines" stroke="black" x1="150" x2="144" y1="237.5545851528384" y2="237.5545851528384" /><text  class="poloto_tick_labels poloto_text" alignment-baseline="middle" text-anchor="end" x="135" y="237.5545851528384" > 2000</text><line  class="poloto_axis_lines" stroke="black" x1="150" x2="144" y1="143.98003742981916" y2="143.98003742981916" /><text  class="poloto_tick_labels poloto_text" alignment-baseline="middle" text-anchor="end" x="135" y="143.98003742981916" > 2500</text><path  stroke="black" fill="none" class="poloto_axis_lines" style="stroke-dasharray:14.518002322880372;stroke-dashoffset:-58.04878048780488;" d=" M 150 400 L 650 400" /><path  stroke="black" fill="none" class="poloto_axis_lines" style="stroke-dasharray:9.357454772301933;stroke-dashoffset:-68.87086712414222;" d=" M 150 400 L 150 100" /></svg>