<svg class="poloto" width="800" height="500" viewBox="0 0 800 500" xmlns="http://www.w3.org/2000/svg"><style>.poloto { stroke-linecap:round; stroke-linejoin:round; font-family: 'Tahoma', sans-serif; background-color: AliceBlue;} .poloto_scatter{stroke-width:7} .poloto_line{stroke-width:2} .poloto_text{fill: black;} .poloto_axis_lines{stroke: black;stroke-width:3;fill:none;stroke-dasharray:none} .poloto0stroke{stroke:  blue;} .poloto1stroke{stroke:  red;} .poloto2stroke{stroke:  green;} .poloto3stroke{stroke:  gold;} .poloto4stroke{stroke:  aqua;} .poloto5stroke{stroke:  lime;} .poloto6stroke{stroke:  orange;} .poloto7stroke{stroke:  chocolate;} .poloto0fill{fill:blue;} .poloto1fill{fill:red;} .poloto2fill{fill:green;} .poloto3fill{fill:gold;} .poloto4fill{fill:aqua;} .poloto5fill{fill:lime;} .poloto6fill{fill:orange;} .poloto7fill{fill:chocolate;}</style><text  class="poloto_text poloto_legend_text" alignment-baseline="middle" text-anchor="start" font-size="large" x="675" y="100" ></text><path  class="poloto_linefill poloto0fill" d=" M 150 400 L 150 375.1546882436935 L 151.74216027874564 375.58305568776774 L 153.4843205574913 374.7263207996192 L 155.22648083623693 377.86768205616374 L 156.96864111498257 381.151832460733 L 158.71080139372822 385.4355069014755 L 160.45296167247386 384.8643503093765 L 162.1951219512195 391.5754402665398 L 163.93728222996515 388.14850071394574 L 165.6794425087108 390.5759162303665 L 167.42160278745644 391.0042836744408 L 169.16376306620208 390.14754878629225 L 170.90592334494772 391.2898619704903 L 172.64808362369337 393.5744883388862 L 174.390243902439 398.7148976677772 L 176.13240418118465 397.85816277962874 L 177.8745644599303 394.5740123750595 L 179.61672473867597 400 L 181.3588850174216 393.28891004283673 L 183.10104529616726 390.290337934317 L 184.8432055749129 389.29081389814377 L 186.58536585365854 390.14754878629225 L 188.3275261324042 389.148024750119 L 190.06968641114983 392.14659685863876 L 191.81184668989548 398.00095192765355 L 193.55400696864112 397.00142789148026 L 195.29616724738676 396.28748215135647 L 197.0383275261324 393.43169919086154 L 198.78048780487805 396.8586387434555 L 200.5226480836237 391.0042836744408 L 202.26480836236934 392.43217515468825 L 204.00696864111498 394.5740123750595 L 205.74912891986062 397.28700618752976 L 207.49128919860627 396.4302712993813 L 209.2334494773519 393.14612089481204 L 210.97560975609755 394.14564493098527 L 212.7177700348432 394.71680152308426 L 214.45993031358887 392.86054259876255 L 216.2020905923345 385.149928605426 L 217.94425087108016 385.29271775345075 L 219.6864111498258 374.7263207996192 L 221.42857142857144 376.1542122798668 L 223.1707317073171 367.15849595430745 L 224.91289198606273 358.876725368872 L 226.65505226480838 354.1646834840552 L 228.39721254355402 352.59400285578295 L 230.13937282229966 354.5930509281295 L 231.8815331010453 357.02046644455027 L 233.62369337979095 357.16325559257496 L 235.3658536585366 358.876725368872 L 237.10801393728224 356.16373155640173 L 238.85017421602788 353.16515944788193 L 240.59233449477352 353.16515944788193 L 242.33449477351917 350.5949547834365 L 244.0766550522648 345.5973346025702 L 245.81881533101046 343.4554973821989 L 247.5609756097561 339.74297953355546 L 249.30313588850174 339.6001903855307 L 251.0452961672474 342.02760590195146 L 252.78745644599303 340.1713469776297 L 254.52961672473867 338.17229890528324 L 256.2717770034843 333.8886244645407 L 258.01393728222996 336.88719657306046 L 259.7560975609756 341.0280818657782 L 261.49825783972125 342.88434079009994 L 263.2404181184669 336.3160399809615 L 264.98257839721254 331.74678724416947 L 266.7247386759582 326.46358876725367 L 268.4668989547038 334.1742027605902 L 270.20905923344947 337.6011423131842 L 271.9512195121951 336.1732508329367 L 273.69337979094075 339.45740123750596 L 275.4355400696864 338.31508805330793 L 277.17770034843204 341.0280818657782 L 278.91986062717774 343.8838648262732 L 280.6620209059233 339.74297953355546 L 282.404181184669 333.7458353165159 L 284.1463414634146 332.7463112803427 L 285.8885017421603 331.60399809614466 L 287.6306620209059 334.4597810566397 L 289.3728222996516 325.17848643503095 L 291.1149825783972 318.75297477391723 L 292.8571428571429 314.8976677772489 L 294.5993031358885 307.47263207996195 L 296.3414634146342 310.0428367444074 L 298.08362369337976 308.04378867206094 L 299.82578397212546 307.61542122798664 L 301.56794425087105 314.4693003331747 L 303.31010452961675 304.3312708234174 L 305.05226480836234 306.1875297477392 L 306.79442508710804 306.6158971918135 L 308.5365853658536 299.7620180866254 L 310.2787456445993 298.04854831032844 L 312.0209059233449 297.47739171822946 L 313.7630662020906 296.1922893860067 L 315.5052264808362 295.0499762018087 L 317.2473867595819 292.90813898143745 L 318.9895470383275 288.7672536887196 L 320.7317073170732 285.3403141361257 L 322.4738675958188 297.19181342217996 L 324.2160278745645 299.9048072346502 L 325.9581881533101 293.19371727748694 L 327.70034843205576 282.48453117563065 L 329.4425087108014 275.2022846263684 L 331.18466898954705 275.2022846263684 L 332.9268292682927 261.78010471204186 L 334.66898954703834 263.06520704426464 L 336.411149825784 261.49452641599237 L 338.1533101045296 260.9233698238934 L 339.89547038327527 262.63683960019034 L 341.6376306620209 257.63921941932415 L 343.37979094076655 252.92717753450736 L 345.1219512195122 255.21180390290337 L 346.86411149825784 250.7853403141361 L 348.6062717770035 247.78676820561637 L 350.34843205574913 242.50356972870063 L 352.0905923344948 240.50452165635411 L 353.8327526132404 239.64778676820563 L 355.57491289198606 238.07710613993336 L 357.3170731707317 259.7810566396954 L 359.05923344947735 254.64064731080438 L 360.801393728223 238.2198952879581 L 362.54355400696863 238.64826273203235 L 364.2857142857143 244.93098524512138 L 366.0278745644599 237.93431699190862 L 367.77003484320556 233.0794859590671 L 369.5121951219512 226.9395525940029 L 371.25435540069685 219.3717277486911 L 372.9965156794425 220.22846263683962 L 374.73867595818814 219.94288434079013 L 376.4808362369338 218.5149928605426 L 378.2229965156795 221.0851975249881 L 379.96515679442507 224.36934792955734 L 381.70731707317077 218.2294145644931 L 383.44947735191636 215.37363160399812 L 385.19163763066206 207.52022846263682 L 386.93379790940764 202.23702998572108 L 388.67595818815334 194.66920514040933 L 390.41811846689893 200.95192765349836 L 392.16027874564463 203.6649214659686 L 393.9024390243902 206.09233698238936 L 395.6445993031359 200.23798191337457 L 397.3867595818815 205.9495478343646 L 399.1289198606272 187.38695859114708 L 400.8710801393728 184.67396477867683 L 402.6132404181185 180.53307948595906 L 404.3554006968641 185.67348881485006 L 406.0975609756098 183.10328415040456 L 407.8397212543554 186.8158019990481 L 409.58188153310107 204.09328891004284 L 411.3240418118467 194.2408376963351 L 413.06620209059236 189.24321751546884 L 414.808362369338 190.38553069966682 L 416.55052264808364 195.38315088053307 L 418.2926829268293 189.3860066634936 L 420.03484320557493 184.81675392670158 L 421.7770034843206 185.5306996668253 L 423.5191637630662 188.3864826273203 L 425.26132404181186 179.24797715373634 L 427.0034843205575 173.2508329366968 L 428.74564459930315 172.10851975249884 L 430.4878048780488 176.3921941932413 L 432.22996515679444 174.2503569728701 L 433.9721254355401 158.82912898619705 L 435.7142857142857 160.9709662065683 L 437.45644599303137 152.40361732508327 L 439.198606271777 149.54783436458828 L 440.94076655052265 150.6901475487863 L 442.6829268292683 147.97715373631607 L 444.42508710801394 155.68776772965256 L 446.1672473867596 146.83484055211804 L 447.9094076655052 145.26415992384577 L 449.65156794425087 138.83864826273202 L 451.3937282229965 140.8376963350786 L 453.13588850174216 131.27082341742027 L 454.8780487804878 141.40885292717758 L 456.62020905923345 131.98476915754406 L 458.3623693379791 131.12803426939558 L 460.10452961672473 129.12898619704902 L 461.8466898954704 120.99000475963828 L 463.588850174216 121.98952879581157 L 465.33101045296166 116.84911946692057 L 467.0731707317073 114.56449309852451 L 468.81533101045295 117.13469776297006 L 470.5574912891986 115.1356496906235 L 472.29965156794424 106.71108995716327 L 474.0418118466899 108.71013802950972 L 475.7839721254355 107.56782484531175 L 477.52613240418117 107.56782484531175 L 479.2682926829268 104.56925273679201 L 481.01045296167246 100 L 482.7526132404181 100.4283674440743 L 484.49477351916374 108.28177058543554 L 486.2369337979094 116.42075202284627 L 487.97909407665503 116.84911946692057 L 489.7212543554007 124.27415516420751 L 491.4634146341463 124.13136601618282 L 493.20557491289196 125.41646834840549 L 494.9477351916376 131.12803426939558 L 496.68989547038325 136.69681104236076 L 498.4320557491289 140.2665397429795 L 500.17421602787454 140.2665397429795 L 501.91637630662024 140.1237505949548 L 503.6585365853659 141.83722037125176 L 505.4006968641115 148.4055211803903 L 507.14285714285717 153.40314136125656 L 508.8850174216028 159.82865302237033 L 510.62717770034845 160.25702046644457 L 512.3693379790941 157.25844835792478 L 514.1114982578397 157.82960495002382 L 515.8536585365854 156.4017134697763 L 517.5958188153311 162.97001427891482 L 519.3379790940767 159.40028557829604 L 521.0801393728223 168.1104236078058 L 522.822299651568 175.10709186101857 L 524.5644599303137 177.53450737743933 L 526.3066202090592 179.81913374583533 L 528.0487804878048 185.10233222275107 L 529.7909407665505 185.95906711089955 L 531.5331010452962 184.38838648262734 L 533.2752613240418 186.67301285102334 L 535.0174216027874 188.1009043312708 L 536.7595818815331 192.52736792003807 L 538.5017421602788 197.09662065683008 L 540.2439024390244 190.95668729176586 L 541.98606271777 192.81294621608757 L 543.7282229965157 201.9514516896716 L 545.4703832752614 203.3793431699191 L 547.212543554007 204.37886720609234 L 548.9547038327526 208.94811994288435 L 550.6968641114983 208.5197524988101 L 552.439024390244 209.3764873869586 L 554.1811846689895 213.3745835316516 L 555.9233449477351 221.79914326511184 L 557.6655052264808 223.9409804854831 L 559.4076655052265 233.50785340314135 L 561.1498257839721 243.93146120894815 L 562.8919860627177 248.2151356496906 L 564.6341463414634 250.4997620180866 L 566.3763066202091 259.2099000475964 L 568.1184668989547 258.21037601142314 L 569.8606271777003 256.92527367920036 L 571.602787456446 260.9233698238934 L 573.3449477351917 271.3469776297002 L 575.0871080139373 269.4907187053784 L 576.8292682926829 269.6335078534031 L 578.5714285714286 272.63207996192295 L 580.3135888501743 276.2018086625417 L 582.0557491289198 278.34364588291294 L 583.7979094076654 281.48500713945737 L 585.5400696864111 280.3426939552594 L 587.2822299651568 278.62922417896243 L 589.0243902439024 283.6268443598286 L 590.766550522648 287.05378391242266 L 592.5087108013937 289.7667777248929 L 594.2508710801394 286.4826273203237 L 595.993031358885 287.19657306044746 L 597.7351916376306 295.0499762018087 L 599.4773519163763 291.62303664921467 L 601.219512195122 294.4788196097097 L 602.9616724738676 301.61827701094717 L 604.7038327526133 298.9052831984769 L 606.445993031359 301.189909566873 L 608.1881533101046 303.33174678724413 L 609.9303135888501 306.1875297477392 L 611.6724738675958 307.47263207996195 L 613.4146341463415 309.3288910042837 L 615.1567944250871 313.04140885292713 L 616.8989547038327 317.46787244169445 L 618.6411149825784 318.75297477391723 L 620.3832752613241 324.7501189909567 L 622.1254355400697 330.890052356021 L 623.8675958188153 328.31984769157543 L 625.609756097561 330.7472632079962 L 627.3519163763067 332.7463112803427 L 629.0940766550523 339.17182294145647 L 630.8362369337979 338.6006663493574 L 632.5783972125436 342.74155164207525 L 634.3205574912893 340.8852927177535 L 636.0627177700349 343.31270823417424 L 637.8048780487804 346.16849119466923 L 639.5470383275261 349.8810090433127 L 641.2891986062718 353.736316039981 L 643.0313588850174 350.7377439314612 L 644.773519163763 351.3089005235602 L 646.5156794425087 352.02284626368396 L 648.2578397212544 356.3065207044265 L 650 360.4474059971442 L 650 400 Z" /><text  class="poloto_labels poloto_text poloto_title" alignment-baseline="start" text-anchor="middle" font-size="x-large" x="400" y="37.5" >Total players on 2021-09-04</text><text  class="poloto_labels poloto_text poloto_xname" alignment-baseline="start" text-anchor="middle" font-size="x-large" x="400" y="481.25" >Time</text><text  class="poloto_labels poloto_text poloto_yname" alignment-baseline="start" text-anchor="middle" font-size="x-large" transform="rotate(-90,37.5,250)" x="37.5" y="250" >Count</text><line  class="poloto_axis_lines" stroke="black" x1="150" x2="150" y1="400" y2="405" /><text  class="poloto_tick_labels poloto_text" alignment-baseline="start" text-anchor="middle" x="150" y="430" > 00:00</text><line  class="poloto_axis_lines" stroke="black" x1="266.14401858304296" x2="266.14401858304296" y1="400" y2="405" /><text  class="poloto_tick_labels poloto_text" alignment-baseline="start" text-anchor="middle" x="266.14401858304296" y="430" > 06:00</text><line  class="poloto_axis_lines" stroke="black" x1="382.2880371660859" x2="382.2880371660859" y1="400" y2="405" /><text  class="poloto_tick_labels poloto_text" alignment-baseline="start" text-anchor="middle" x="382.2880371660859" y="430" > 11:00</text><line  class="poloto_axis_lines" stroke="black" x1="498.4320557491289" x2="498.4320557491289" y1="400" y2="405" /><text  class="poloto_tick_labels poloto_text" alignment-baseline="start" text-anchor="middle" x="498.4320557491289" y="430" > 17:00</text><line  class="poloto_axis_lines" stroke="black" x1="614.5760743321719" x2="614.5760743321719" y1="400" y2="405" /><text  class="poloto_tick_labels poloto_text" alignment-baseline="start" text-anchor="middle" x="614.5760743321719" y="430" > 22:00</text><line  class="poloto_axis_lines" stroke="black" x1="150" x2="144" y1="361.44693003331747" y2="361.44693003331747" /><text  class="poloto_tick_labels poloto_text" alignment-baseline="middle" text-anchor="end" x="135" y="361.44693003331747" > 1500</text><line  class="poloto_axis_lines" stroke="black" x1="150" x2="144" y1="290.0523560209424" y2="290.0523560209424" /><text  class="poloto_tick_labels poloto_text" alignment-baseline="middle" text-anchor="end" x="135" y="290.0523560209424" > 2000</text><line  class="poloto_axis_lines" stroke="black" x1="150" x2="144" y1="218.65778200856732" y2="218.65778200856732" /><text  class="poloto_tick_labels poloto_text" alignment-baseline="middle" text-anchor="end" x="135" y="218.65778200856732" > 2500</text><line  class="poloto_axis_lines" stroke="black" x1="150" x2="144" y1="147.26320799619228" y2="147.26320799619228" /><text  class="poloto_tick_labels poloto_text" alignment-baseline="middle" text-anchor="end" x="135" y="147.26320799619228" > 3000</text><path  stroke="black" fill="none" class="poloto_axis_lines" style="stroke-dasharray:14.518002322880372;stroke-dashoffset:-0;" d=" M 150 400 L 650 400" /><path  stroke="black" fill="none" class="poloto_axis_lines" style="stroke-dasharray:7.139457401237506;stroke-dashoffset:-38.55306996668253;" d=" M 150 400 L 150 100" /></svg>