<svg class="poloto" width="800" height="500" viewBox="0 0 800 500" xmlns="http://www.w3.org/2000/svg"><style>.poloto { stroke-linecap:round; stroke-linejoin:round; font-family: 'Tahoma', sans-serif; background-color: AliceBlue;} .poloto_scatter{stroke-width:7} .poloto_line{stroke-width:2} .poloto_text{fill: black;} .poloto_axis_lines{stroke: black;stroke-width:3;fill:none;stroke-dasharray:none} .poloto0stroke{stroke:  blue;} .poloto1stroke{stroke:  red;} .poloto2stroke{stroke:  green;} .poloto3stroke{stroke:  gold;} .poloto4stroke{stroke:  aqua;} .poloto5stroke{stroke:  lime;} .poloto6stroke{stroke:  orange;} .poloto7stroke{stroke:  chocolate;} .poloto0fill{fill:blue;} .poloto1fill{fill:red;} .poloto2fill{fill:green;} .poloto3fill{fill:gold;} .poloto4fill{fill:aqua;} .poloto5fill{fill:lime;} .poloto6fill{fill:orange;} .poloto7fill{fill:chocolate;}</style><text  class="poloto_text poloto_legend_text" alignment-baseline="middle" text-anchor="start" font-size="large" x="675" y="100" ></text><path  class="poloto_linefill poloto0fill" d=" M 150 400 L 150 347.8114478114478 L 151.73637324475314 349.66329966329965 L 153.47855375788336 354.88215488215485 L 155.2207342710136 366.16161616161617 L 156.96291478414383 364.1414141414141 L 158.70509529727406 364.3097643097643 L 160.4530830787814 360.2693602693603 L 162.18945632353453 366.16161616161617 L 163.93163683666478 367.3400673400673 L 165.6796246181721 374.074074074074 L 167.41599786292522 381.8181818181818 L 169.15817837605547 382.32323232323233 L 170.9003588891857 376.43097643097644 L 172.64253940231595 384.5117845117845 L 174.38471991544617 381.986531986532 L 176.1269004285764 377.6094276094276 L 177.86908094170664 375.4208754208754 L 179.61126145483686 379.6296296296296 L 181.35344196796711 384.5117845117845 L 183.09562248109734 391.9191919191919 L 184.8378029942276 390.9090909090909 L 186.5799835073578 395.1178451178451 L 188.32216402048806 400 L 190.06434453361828 397.64309764309763 L 191.81233231512562 394.6127946127946 L 193.54870555987875 394.7811447811448 L 195.29088607300898 394.6127946127946 L 197.03306658613923 393.26599326599325 L 198.77524709926945 391.2457912457912 L 200.51742761239967 389.3939393939394 L 202.25960812552992 388.047138047138 L 204.00178863866014 392.7609427609427 L 205.7439691517904 393.77104377104376 L 207.48614966492062 390.06734006734007 L 209.22833017805084 390.2356902356902 L 210.9705106911811 390.57239057239053 L 212.7126912043113 384.3434343434343 L 214.45487171744156 383.67003367003366 L 216.19705223057179 377.94612794612794 L 217.939232743702 375.08417508417506 L 219.68141325683226 367.84511784511784 L 221.4235937699625 372.5589225589225 L 223.17158155146984 370.2020202020202 L 224.91376206460006 379.9663299663299 L 226.65013530935317 370.53872053872055 L 228.39231582248343 370.53872053872055 L 230.13449633561368 363.6363636363636 L 231.8766768487439 365.8249158249158 L 233.61885736187412 364.64646464646466 L 235.36103787500434 361.7845117845118 L 237.1032183881346 359.4276094276094 L 238.84539890126484 354.7138047138047 L 240.58757941439507 353.030303030303 L 242.3297599275253 349.3265993265993 L 244.07774770903262 348.48484848484844 L 245.81412095378576 344.4444444444444 L 247.556301466916 341.9191919191919 L 249.29848198004623 343.6026936026936 L 251.04066249317646 342.9292929292929 L 252.78284300630668 344.9494949494949 L 254.530830787814 341.2457912457912 L 256.2672040325672 328.9562289562289 L 258.0093845456974 328.2828282828283 L 259.7515650588276 328.9562289562289 L 261.4937455719579 327.1043771043771 L 263.23592608508807 330.8080808080808 L 264.98391386659546 333.67003367003366 L 266.72028711134857 333.16498316498314 L 268.4624676244788 334.1750841750842 L 270.20464813760907 335.35353535353534 L 271.94682865073923 333.67003367003366 L 273.6890091638695 333.83838383838383 L 275.43699694537685 329.96632996632997 L 277.17337019012996 334.34343434343435 L 278.91555070326024 329.96632996632997 L 280.6577312163904 327.1043771043771 L 282.3999117295207 323.56902356902356 L 284.1420922426509 322.7272727272727 L 285.8842727557811 322.39057239057234 L 287.6264532689114 323.4006734006734 L 289.36863378204157 315.993265993266 L 291.11081429517185 313.973063973064 L 292.85299480830207 313.46801346801345 L 294.5951753214323 312.96296296296293 L 296.3373558345626 310.77441077441074 L 298.07953634769274 306.22895622895624 L 299.821716860823 302.1885521885522 L 301.56389737395324 305.050505050505 L 303.30607788708346 303.5353535353535 L 305.04825840021374 293.26599326599325 L 306.796246181721 281.986531986532 L 308.5326194264742 285.85858585858585 L 310.2747999396044 283.16498316498314 L 312.01698045273463 285.016835016835 L 313.7591609658649 285.85858585858585 L 315.5013414789951 288.38383838383834 L 317.24352199212535 277.77777777777777 L 318.9857025052556 269.5286195286195 L 320.7278830183858 273.4006734006734 L 322.4700635315161 270.70707070707067 L 324.2122440446463 275.75757575757575 L 325.9544245577765 267.5084175084175 L 327.70241233928385 264.30976430976426 L 329.43878558403696 268.68686868686865 L 331.18096609716724 268.5185185185185 L 332.92314661029747 261.7845117845118 L 334.6653271234277 280.30303030303025 L 336.4075076365579 261.1111111111111 L 338.14968814968813 257.2390572390572 L 339.8918686628184 253.53535353535352 L 341.63404917594863 246.29629629629625 L 343.37622968907885 242.0875420875421 L 345.1184102022091 241.91919191919192 L 346.8605907153393 241.75084175084174 L 348.6027712284696 237.54208754208753 L 350.3449517415998 236.02693602693603 L 352.08713225473 237.7104377104377 L 353.8293127678603 239.05723905723903 L 355.57149328099047 234.17508417508412 L 357.31367379412075 240.90909090909088 L 359.061661575628 223.56902356902356 L 360.7980348203812 224.91582491582489 L 362.54021533351147 225.92592592592592 L 364.28239584664163 225.92592592592592 L 366.0245763597719 224.2424242424242 L 367.76675687290214 219.52861952861952 L 369.51474465440947 209.4276094276094 L 371.25111789916264 211.6161616161616 L 372.9932984122928 216.49831649831646 L 374.7354789254231 215.65656565656565 L 376.4776594385533 210.10101010101005 L 378.2198399516835 206.22895622895618 L 379.9620204648138 205.72390572390572 L 381.70420097794397 207.9124579124579 L 383.44638149107425 201.01010101010098 L 385.18856200420447 196.80134680134677 L 386.9307425173347 192.08754208754203 L 388.672923030465 185.016835016835 L 390.42091081197225 186.02693602693597 L 392.1572840567254 187.20538720538718 L 393.89946456985564 182.32323232323228 L 395.64164508298586 191.91919191919192 L 397.38382559611614 191.91919191919192 L 399.1260061092463 187.54208754208753 L 400.8681866223766 190.7407407407407 L 402.6103671355068 191.07744107744105 L 404.352547648637 193.6026936026936 L 406.09472816176725 188.72053872053868 L 407.83690867489753 188.38383838383834 L 409.57908918802775 191.91919191919192 L 411.321269701158 186.86868686868684 L 413.0634502142882 185.18518518518516 L 414.8056307274184 181.8181818181818 L 416.5478112405487 185.85858585858585 L 418.2899917536789 190.06734006734 L 420.03217226680914 188.38383838383834 L 421.7801600483165 186.36363636363632 L 423.5165332930696 181.48148148148147 L 425.25871380619986 179.46127946127945 L 427.0008943193301 174.91582491582489 L 428.7430748324603 175.4208754208754 L 430.48525534559053 173.56902356902356 L 432.22743585872075 164.81481481481478 L 433.96961637185103 168.51851851851848 L 435.71179688498125 164.81481481481478 L 437.4539773981115 159.59595959595958 L 439.1961579112417 156.90235690235687 L 440.938338424372 150.16835016835012 L 442.6805189375022 150.3367003367003 L 444.4226994506324 147.3063973063973 L 446.16487996376264 134.51178451178447 L 447.90706047689287 134.84848484848482 L 449.6550482584002 130.30303030303025 L 451.39142150315337 124.91582491582489 L 453.1336020162836 128.61952861952858 L 454.8757825294138 125.08417508417506 L 456.61796304254403 121.71717171717171 L 458.3601435556743 119.86531986531986 L 460.10232406880453 114.14141414141409 L 461.84450458193476 115.15151515151513 L 463.5924923634421 110.10101010101005 L 465.3288656081952 119.86531986531986 L 467.0710461213255 120.5387205387205 L 468.8132266344557 125.4208754208754 L 470.5554071475859 126.59932659932656 L 472.29758766071615 129.1245791245791 L 474.0455754422235 124.24242424242419 L 475.78194868697665 121.38047138047136 L 477.52412920010687 121.54882154882154 L 479.2663097132371 104.88215488215485 L 481.0084902263673 102.02020202020202 L 482.75067073949754 102.35690235690237 L 484.4928512526278 106.7340067340067 L 486.23503176575804 103.36700336700329 L 487.97721227888826 106.060606060606 L 489.7193927920185 102.69360269360271 L 491.4615733051487 99.99999999999994 L 493.203753818279 107.40740740740739 L 494.9459343314092 106.060606060606 L 496.6881148445394 116.66666666666663 L 498.43029535766965 116.32996632996628 L 500.17247587079993 116.49831649831646 L 501.91465638393015 109.09090909090907 L 503.6568368970604 115.15151515151513 L 505.3990174101906 122.053872053872 L 507.1411979233208 135.85858585858585 L 508.8833784364511 135.016835016835 L 510.6255589495813 134.68013468013464 L 512.3677394627116 134.3434343434343 L 514.1099199758418 132.99663299663297 L 515.8521004889719 149.3265993265993 L 517.5942810021022 156.7340067340067 L 519.3364615152325 170.70707070707067 L 521.0786420283628 175.08417508417506 L 522.8208225414929 180.80808080808077 L 524.5630030546231 189.56228956228955 L 526.3051835677534 191.07744107744105 L 528.0473640808837 192.9292929292929 L 529.7895445940139 205.38720538720537 L 531.5317251071441 219.86531986531986 L 533.2739056202743 208.9225589225589 L 535.0160861334045 217.17171717171715 L 536.7640739149119 221.38047138047136 L 538.5004471596651 212.96296296296293 L 540.2426276727953 222.22222222222217 L 541.9848081859254 215.82491582491582 L 543.7269886990557 217.84511784511784 L 545.469169212186 222.55892255892252 L 547.2171569936934 225.58922558922558 L 548.9535302384464 231.3131313131313 L 550.6957107515766 231.48148148148147 L 552.4378912647069 230.97643097643095 L 554.1800717778372 225.92592592592592 L 555.9222522909674 230.13468013468008 L 557.6702400724747 229.1245791245791 L 559.4066133172278 228.28282828282823 L 561.148793830358 224.41077441077437 L 562.8909743434883 228.61952861952858 L 564.6331548566186 227.27272727272725 L 566.3753353697488 230.30303030303025 L 568.123323151256 228.28282828282823 L 569.8596963960092 225.92592592592592 L 571.6018769091395 218.68686868686865 L 573.3440574222698 221.2121212121212 L 575.0862379353999 224.2424242424242 L 576.8284184485302 233.5016835016835 L 578.5764062300375 241.24579124579122 L 580.3127794747907 243.6026936026936 L 582.0549599879209 251.34680134680133 L 583.7971405010511 260.4377104377104 L 585.5393210141814 261.27946127946126 L 587.2815015273115 263.8047138047138 L 589.0236820404418 266.49831649831646 L 590.7658625535721 267.84511784511784 L 592.5080430667023 264.6464646464646 L 594.2502235798326 269.6969696969697 L 595.9924040929627 268.68686868686865 L 597.734584606093 274.41077441077437 L 599.4767651192233 274.41077441077437 L 601.2189456323534 281.8181818181818 L 602.9611261454837 287.54208754208753 L 604.7033066586139 286.5319865319865 L 606.4454871717442 289.05723905723903 L 608.1876676848744 291.07744107744105 L 609.9356554663817 289.05723905723903 L 611.6720287111349 294.9494949494949 L 613.414209224265 301.5151515151515 L 615.1563897373953 301.3468013468013 L 616.8985702505256 303.5353535353535 L 618.6407507636558 312.4579124579124 L 620.388738545163 310.4377104377104 L 622.1251117899162 310.60606060606057 L 623.8672923030465 309.09090909090907 L 625.6094728161768 313.6363636363636 L 627.3516533293069 318.1818181818182 L 629.0938338424372 322.22222222222223 L 630.8360143555674 329.96632996632997 L 632.5781948686977 333.16498316498314 L 634.320375381828 332.99663299663297 L 636.0625558949582 334.51178451178447 L 637.8047364080884 337.8787878787879 L 639.5469169212186 344.1077441077441 L 641.294904702726 344.78114478114475 L 643.0312779474791 351.5151515151515 L 644.7734584606094 357.2390572390572 L 646.5156389737396 359.09090909090907 L 648.2578194868697 362.7946127946128 L 650 358.58585858585855 L 650 400 Z" /><text  class="poloto_labels poloto_text poloto_title" alignment-baseline="start" text-anchor="middle" font-size="x-large" x="400" y="37.5" >Total players on 2021-08-14</text><text  class="poloto_labels poloto_text poloto_xname" alignment-baseline="start" text-anchor="middle" font-size="x-large" x="400" y="481.25" >Time</text><text  class="poloto_labels poloto_text poloto_yname" alignment-baseline="start" text-anchor="middle" font-size="x-large" transform="rotate(-90,37.5,250)" x="37.5" y="250" >Count</text><line  class="poloto_axis_lines" stroke="black" x1="208.0436474291223" x2="208.0436474291223" y1="400" y2="405" /><text  class="poloto_tick_labels poloto_text" alignment-baseline="start" text-anchor="middle" x="208.0436474291223" y="430" > 02:46:40</text><line  class="poloto_axis_lines" stroke="black" x1="266.1163312001301" x2="266.1163312001301" y1="400" y2="405" /><text  class="poloto_tick_labels poloto_text" alignment-baseline="start" text-anchor="middle" x="266.1163312001301" y="430" > 05:33:20</text><line  class="poloto_axis_lines" stroke="black" x1="324.1890149711379" x2="324.1890149711379" y1="400" y2="405" /><text  class="poloto_tick_labels poloto_text" alignment-baseline="start" text-anchor="middle" x="324.1890149711379" y="430" > 08:20:00</text><line  class="poloto_axis_lines" stroke="black" x1="382.26169874214565" x2="382.26169874214565" y1="400" y2="405" /><text  class="poloto_tick_labels poloto_text" alignment-baseline="start" text-anchor="middle" x="382.26169874214565" y="430" > 11:06:40</text><line  class="poloto_axis_lines" stroke="black" x1="440.33438251315346" x2="440.33438251315346" y1="400" y2="405" /><text  class="poloto_tick_labels poloto_text" alignment-baseline="start" text-anchor="middle" x="440.33438251315346" y="430" > 13:53:20</text><line  class="poloto_axis_lines" stroke="black" x1="498.40706628416126" x2="498.40706628416126" y1="400" y2="405" /><text  class="poloto_tick_labels poloto_text" alignment-baseline="start" text-anchor="middle" x="498.40706628416126" y="430" > 16:40:00</text><line  class="poloto_axis_lines" stroke="black" x1="556.479750055169" x2="556.479750055169" y1="400" y2="405" /><text  class="poloto_tick_labels poloto_text" alignment-baseline="start" text-anchor="middle" x="556.479750055169" y="430" > 19:26:40</text><line  class="poloto_axis_lines" stroke="black" x1="614.5524338261769" x2="614.5524338261769" y1="400" y2="405" /><text  class="poloto_tick_labels poloto_text" alignment-baseline="start" text-anchor="middle" x="614.5524338261769" y="430" > 22:13:20</text><line  class="poloto_axis_lines" stroke="black" x1="150" x2="144" y1="363.46801346801345" y2="363.46801346801345" /><text  class="poloto_tick_labels poloto_text" alignment-baseline="middle" text-anchor="end" x="135" y="363.46801346801345" > 1500</text><line  class="poloto_axis_lines" stroke="black" x1="150" x2="144" y1="279.2929292929293" y2="279.2929292929293" /><text  class="poloto_tick_labels poloto_text" alignment-baseline="middle" text-anchor="end" x="135" y="279.2929292929293" > 2000</text><line  class="poloto_axis_lines" stroke="black" x1="150" x2="144" y1="195.1178451178451" y2="195.1178451178451" /><text  class="poloto_tick_labels poloto_text" alignment-baseline="middle" text-anchor="end" x="135" y="195.1178451178451" > 2500</text><line  class="poloto_axis_lines" stroke="black" x1="150" x2="144" y1="110.94276094276091" y2="110.94276094276091" /><text  class="poloto_tick_labels poloto_text" alignment-baseline="middle" text-anchor="end" x="135" y="110.94276094276091" > 3000</text><path  stroke="black" fill="none" class="poloto_axis_lines" style="stroke-dasharray:14.518170942751949;stroke-dashoffset:-58.043647429122295;" d=" M 150 400 L 650 400" /><path  stroke="black" fill="none" class="poloto_axis_lines" style="stroke-dasharray:8.417508417508419;stroke-dashoffset:-36.53198653198655;" d=" M 150 400 L 150 100" /></svg>