<svg class="poloto" width="800" height="500" viewBox="0 0 800 500" xmlns="http://www.w3.org/2000/svg"><style>.poloto { stroke-linecap:round; stroke-linejoin:round; font-family: 'Tahoma', sans-serif; background-color: AliceBlue;} .poloto_scatter{stroke-width:7} .poloto_line{stroke-width:2} .poloto_text{fill: black;} .poloto_axis_lines{stroke: black;stroke-width:3;fill:none;stroke-dasharray:none} .poloto0stroke{stroke:  blue;} .poloto1stroke{stroke:  red;} .poloto2stroke{stroke:  green;} .poloto3stroke{stroke:  gold;} .poloto4stroke{stroke:  aqua;} .poloto5stroke{stroke:  lime;} .poloto6stroke{stroke:  orange;} .poloto7stroke{stroke:  chocolate;} .poloto0fill{fill:blue;} .poloto1fill{fill:red;} .poloto2fill{fill:green;} .poloto3fill{fill:gold;} .poloto4fill{fill:aqua;} .poloto5fill{fill:lime;} .poloto6fill{fill:orange;} .poloto7fill{fill:chocolate;}</style><text  class="poloto_text poloto_legend_text" alignment-baseline="middle" text-anchor="start" font-size="large" x="675" y="100" ></text><path  class="poloto_linefill poloto0fill" d=" M 150 400 L 150 354.96296296296293 L 151.74216027874564 347.25925925925924 L 153.4843205574913 360.44444444444446 L 155.22648083623693 365.77777777777777 L 156.96864111498257 369.3333333333333 L 158.71080139372822 365.6296296296296 L 160.45296167247386 365.77777777777777 L 162.1951219512195 371.1111111111111 L 163.93728222996515 374.2222222222222 L 165.6794425087108 378.074074074074 L 167.42160278745644 373.77777777777777 L 169.16376306620208 379.1111111111111 L 170.90592334494772 384 L 172.64808362369337 387.55555555555554 L 174.390243902439 389.3333333333333 L 176.13240418118465 389.3333333333333 L 177.8745644599303 400 L 179.61672473867597 388.44444444444446 L 181.3588850174216 391.4074074074074 L 183.10104529616726 394.96296296296293 L 184.8432055749129 398.5185185185185 L 186.58536585365854 396.5925925925926 L 188.3275261324042 397.3333333333333 L 190.06968641114983 392.8888888888889 L 191.81184668989548 389.6296296296296 L 193.55400696864112 390.074074074074 L 195.29616724738676 396 L 197.0383275261324 390.96296296296293 L 198.78048780487805 394.074074074074 L 200.5226480836237 393.77777777777777 L 202.26480836236934 393.9259259259259 L 204.00696864111498 393.48148148148147 L 205.74912891986062 392.74074074074076 L 207.49128919860627 387.85185185185185 L 209.2334494773519 389.18518518518516 L 210.97560975609755 390.8148148148148 L 212.7177700348432 388.5925925925926 L 214.45993031358887 383.55555555555554 L 216.2020905923345 377.9259259259259 L 217.94425087108016 376.74074074074076 L 219.6864111498258 367.1111111111111 L 221.42857142857144 366.0740740740741 L 223.1707317073171 362.0740740740741 L 224.91289198606273 358.0740740740741 L 226.65505226480838 354.2222222222222 L 228.39721254355402 352.44444444444446 L 230.13937282229966 351.4074074074074 L 231.8815331010453 351.7037037037037 L 233.62369337979095 346.8148148148148 L 235.3658536585366 350.3703703703703 L 237.10801393728224 346.66666666666663 L 238.85017421602788 342.5185185185185 L 240.59233449477352 343.1111111111111 L 242.33449477351917 338.5185185185185 L 244.0766550522648 336.2962962962963 L 245.81881533101046 335.55555555555554 L 247.5609756097561 337.48148148148147 L 249.30313588850174 326.8148148148148 L 251.0452961672474 329.03703703703707 L 252.78745644599303 326.074074074074 L 254.52961672473867 322.8148148148148 L 256.2717770034843 326.2222222222222 L 258.01393728222996 323.55555555555554 L 259.7560975609756 325.92592592592587 L 261.49825783972125 328.44444444444446 L 263.2404181184669 333.03703703703707 L 264.98257839721254 325.03703703703707 L 266.7247386759582 326.074074074074 L 268.4668989547038 333.48148148148147 L 270.20905923344947 334.2222222222222 L 271.9512195121951 337.6296296296296 L 273.69337979094075 341.9259259259259 L 275.4355400696864 342.2222222222222 L 277.17770034843204 342.2222222222222 L 278.91986062717774 338.2222222222222 L 280.6620209059233 333.77777777777777 L 282.404181184669 331.55555555555554 L 284.1463414634146 339.7037037037037 L 285.8885017421603 336.44444444444446 L 287.6306620209059 328.74074074074076 L 289.3728222996516 345.3333333333333 L 291.1149825783972 349.9259259259259 L 292.8571428571429 343.25925925925924 L 294.5993031358885 334.66666666666663 L 296.3414634146342 327.1111111111111 L 298.08362369337976 319.25925925925924 L 299.82578397212546 315.4074074074074 L 301.56794425087105 332.2962962962963 L 303.31010452961675 352.74074074074076 L 305.05226480836234 297.7777777777777 L 306.79442508710804 309.7777777777777 L 308.5365853658536 302.074074074074 L 310.2787456445993 299.4074074074074 L 312.0209059233449 303.55555555555554 L 313.7630662020906 297.92592592592587 L 315.5052264808362 295.55555555555554 L 317.2473867595819 293.1851851851852 L 318.9895470383275 290.3703703703703 L 320.7317073170732 289.03703703703707 L 322.4738675958188 282.66666666666663 L 324.2160278745645 344 L 325.9581881533101 292.5925925925926 L 327.70034843205576 280.5925925925926 L 329.4425087108014 266.96296296296293 L 331.18466898954705 270.2222222222222 L 332.9268292682927 276 L 334.66898954703834 269.7777777777777 L 336.411149825784 318.66666666666663 L 338.1533101045296 265.7777777777778 L 339.89547038327527 269.33333333333337 L 341.6376306620209 276.74074074074076 L 343.37979094076655 286.66666666666663 L 345.1219512195122 268.14814814814815 L 346.86411149825784 268.5925925925926 L 348.6062717770035 262.074074074074 L 350.34843205574913 254.07407407407405 L 352.0905923344948 256.14814814814815 L 353.8327526132404 271.25925925925924 L 355.57491289198606 262.3703703703703 L 357.3170731707317 300.8888888888889 L 359.05923344947735 242.07407407407405 L 360.801393728223 232.44444444444443 L 362.54355400696863 222.96296296296296 L 364.2857142857143 221.9259259259259 L 366.0278745644599 224.29629629629628 L 367.77003484320556 214.07407407407405 L 369.5121951219512 213.4814814814815 L 371.25435540069685 234.07407407407405 L 372.9965156794425 228.88888888888889 L 374.73867595818814 214.37037037037035 L 376.4808362369338 205.33333333333334 L 378.2229965156795 209.9259259259259 L 379.96515679442507 199.99999999999997 L 381.70731707317077 218.2222222222222 L 383.44947735191636 205.33333333333334 L 385.19163763066206 200.14814814814812 L 386.93379790940764 221.4814814814815 L 388.67595818815334 228.14814814814812 L 390.41811846689893 207.99999999999997 L 392.16027874564463 206.66666666666666 L 393.9024390243902 211.99999999999997 L 395.6445993031359 234.5185185185185 L 397.3867595818815 235.25925925925927 L 399.1289198606272 289.4814814814815 L 400.8710801393728 275.7037037037037 L 402.6132404181185 237.33333333333334 L 404.3554006968641 226.5185185185185 L 406.0975609756098 217.9259259259259 L 407.8397212543554 221.03703703703704 L 409.58188153310107 211.70370370370372 L 411.3240418118467 212.44444444444443 L 413.06620209059236 216.44444444444443 L 414.808362369338 226.5185185185185 L 416.55052264808364 211.55555555555557 L 418.2926829268293 208.14814814814812 L 420.03484320557493 201.1851851851852 L 421.7770034843206 205.33333333333334 L 423.5191637630662 199.40740740740742 L 425.26132404181186 192.59259259259258 L 427.0034843205575 191.25925925925927 L 428.74564459930315 186.07407407407405 L 430.4878048780488 185.62962962962965 L 432.22996515679444 183.40740740740742 L 433.9721254355401 169.4814814814815 L 435.7142857142857 163.55555555555557 L 437.45644599303137 159.70370370370372 L 439.198606271777 157.4814814814815 L 440.94076655052265 145.1851851851852 L 442.6829268292683 145.1851851851852 L 444.42508710801394 140.44444444444446 L 446.1672473867596 160.44444444444443 L 447.9094076655052 131.1111111111111 L 449.65156794425087 131.25925925925924 L 451.3937282229965 120.14814814814815 L 453.13588850174216 133.18518518518522 L 454.8780487804878 132.74074074074076 L 456.62020905923345 132.14814814814815 L 458.3623693379791 139.7037037037037 L 460.10452961672473 122.07407407407402 L 461.8466898954704 121.33333333333337 L 463.588850174216 116.88888888888891 L 465.33101045296166 120.14814814814815 L 467.0731707317073 114.22222222222217 L 468.81533101045295 108.74074074074076 L 470.5574912891986 105.18518518518522 L 472.29965156794424 104.14814814814815 L 474.0418118466899 106.81481481481478 L 475.7839721254355 111.25925925925924 L 477.52613240418117 100 L 479.2682926829268 108.88888888888891 L 481.01045296167246 106.81481481481478 L 482.7526132404181 112.59259259259261 L 484.49477351916374 118.37037037037032 L 486.2369337979094 112.2962962962963 L 487.97909407665503 115.11111111111109 L 489.7212543554007 112.74074074074076 L 491.4634146341463 119.40740740740739 L 493.20557491289196 128 L 494.9477351916376 129.48148148148152 L 496.68989547038325 123.55555555555554 L 498.4320557491289 123.7037037037037 L 500.17421602787454 132.2962962962963 L 501.91637630662024 134.37037037037032 L 503.6585365853659 137.03703703703707 L 505.4006968641115 144.59259259259258 L 507.14285714285717 149.03703703703704 L 508.8850174216028 156.74074074074073 L 510.62717770034845 159.70370370370372 L 512.3693379790941 162.66666666666666 L 514.1114982578397 168.59259259259258 L 515.8536585365854 165.92592592592595 L 517.5958188153311 177.62962962962965 L 519.3379790940767 178.5185185185185 L 521.0801393728223 175.25925925925927 L 522.822299651568 175.25925925925927 L 524.5644599303137 171.40740740740742 L 526.3066202090592 179.40740740740742 L 528.0487804878048 182.8148148148148 L 529.7909407665505 179.70370370370372 L 531.5331010452962 185.4814814814815 L 533.2752613240418 194.8148148148148 L 535.0174216027874 196.59259259259258 L 536.7595818815331 203.99999999999997 L 538.5017421602788 209.4814814814815 L 540.2439024390244 209.03703703703704 L 541.98606271777 212.44444444444443 L 543.7282229965157 219.25925925925927 L 545.4703832752614 223.25925925925927 L 547.212543554007 226.5185185185185 L 548.9547038327526 228.74074074074073 L 550.6968641114983 238.2222222222222 L 552.439024390244 240.59259259259258 L 554.1811846689895 249.33333333333334 L 555.9233449477351 244.74074074074073 L 557.6655052264808 254.5185185185185 L 559.4076655052265 251.25925925925927 L 561.1498257839721 245.1851851851852 L 562.8919860627177 244.44444444444443 L 564.6341463414634 248.14814814814812 L 566.3763066202091 249.7777777777778 L 568.1184668989547 254.07407407407405 L 569.8606271777003 254.07407407407405 L 571.602787456446 259.25925925925924 L 573.3449477351917 262.2222222222222 L 575.0871080139373 265.03703703703707 L 576.8292682926829 264 L 578.5714285714286 268.74074074074076 L 580.3135888501743 269.33333333333337 L 582.0557491289198 281.1851851851852 L 583.7979094076654 285.6296296296297 L 585.5400696864111 282.5185185185185 L 587.2822299651568 288.8888888888889 L 589.0243902439024 293.6296296296297 L 590.766550522648 299.55555555555554 L 592.5087108013937 297.4814814814815 L 594.2508710801394 304.14814814814815 L 595.993031358885 312.8888888888889 L 597.7351916376306 309.1851851851852 L 599.4773519163763 314.5185185185185 L 601.219512195122 309.4814814814815 L 602.9616724738676 305.4814814814815 L 604.7038327526133 305.6296296296297 L 606.445993031359 307.55555555555554 L 608.1881533101046 318.5185185185185 L 609.9303135888501 326.96296296296293 L 611.6724738675958 319.7037037037037 L 613.4146341463415 321.33333333333337 L 615.1567944250871 324.74074074074076 L 616.8989547038327 332 L 618.6411149825784 331.4074074074074 L 620.3832752613241 332 L 622.1254355400697 333.03703703703707 L 623.8675958188153 338.96296296296293 L 625.609756097561 338.5185185185185 L 627.3519163763067 346.2222222222222 L 629.0940766550523 346.5185185185185 L 630.8362369337979 349.3333333333333 L 632.5783972125436 349.9259259259259 L 634.3205574912893 350.66666666666663 L 636.0627177700349 350.3703703703703 L 637.8048780487804 354.96296296296293 L 639.5470383275261 357.9259259259259 L 641.2891986062718 366.8148148148148 L 643.0313588850174 365.3333333333333 L 644.773519163763 365.03703703703707 L 646.5156794425087 369.77777777777777 L 648.2578397212544 361.3333333333333 L 650 369.03703703703707 L 650 400 Z" /><text  class="poloto_labels poloto_text poloto_title" alignment-baseline="start" text-anchor="middle" font-size="x-large" x="400" y="37.5" >Total players on 2021-08-26</text><text  class="poloto_labels poloto_text poloto_xname" alignment-baseline="start" text-anchor="middle" font-size="x-large" x="400" y="481.25" >Time</text><text  class="poloto_labels poloto_text poloto_yname" alignment-baseline="start" text-anchor="middle" font-size="x-large" transform="rotate(-90,37.5,250)" x="37.5" y="250" >Count</text><line  class="poloto_axis_lines" stroke="black" x1="150" x2="150" y1="400" y2="405" /><text  class="poloto_tick_labels poloto_text" alignment-baseline="start" text-anchor="middle" x="150" y="430" > 00:00:00</text><line  class="poloto_axis_lines" stroke="black" x1="266.14401858304296" x2="266.14401858304296" y1="400" y2="405" /><text  class="poloto_tick_labels poloto_text" alignment-baseline="start" text-anchor="middle" x="266.14401858304296" y="430" > 05:33:20</text><line  class="poloto_axis_lines" stroke="black" x1="382.2880371660859" x2="382.2880371660859" y1="400" y2="405" /><text  class="poloto_tick_labels poloto_text" alignment-baseline="start" text-anchor="middle" x="382.2880371660859" y="430" > 11:06:40</text><line  class="poloto_axis_lines" stroke="black" x1="498.4320557491289" x2="498.4320557491289" y1="400" y2="405" /><text  class="poloto_tick_labels poloto_text" alignment-baseline="start" text-anchor="middle" x="498.4320557491289" y="430" > 16:40:00</text><line  class="poloto_axis_lines" stroke="black" x1="614.5760743321719" x2="614.5760743321719" y1="400" y2="405" /><text  class="poloto_tick_labels poloto_text" alignment-baseline="start" text-anchor="middle" x="614.5760743321719" y="430" > 22:13:20</text><line  class="poloto_axis_lines" stroke="black" x1="150" x2="144" y1="365.9259259259259" y2="365.9259259259259" /><text  class="poloto_tick_labels poloto_text" alignment-baseline="middle" text-anchor="end" x="135" y="365.9259259259259" > 1500</text><line  class="poloto_axis_lines" stroke="black" x1="150" x2="144" y1="291.85185185185185" y2="291.85185185185185" /><text  class="poloto_tick_labels poloto_text" alignment-baseline="middle" text-anchor="end" x="135" y="291.85185185185185" > 2000</text><line  class="poloto_axis_lines" stroke="black" x1="150" x2="144" y1="217.77777777777783" y2="217.77777777777783" /><text  class="poloto_tick_labels poloto_text" alignment-baseline="middle" text-anchor="end" x="135" y="217.77777777777783" > 2500</text><line  class="poloto_axis_lines" stroke="black" x1="150" x2="144" y1="143.7037037037037" y2="143.7037037037037" /><text  class="poloto_tick_labels poloto_text" alignment-baseline="middle" text-anchor="end" x="135" y="143.7037037037037" > 3000</text><path  stroke="black" fill="none" class="poloto_axis_lines" style="stroke-dasharray:14.518002322880372;stroke-dashoffset:-0;" d=" M 150 400 L 650 400" /><path  stroke="black" fill="none" class="poloto_axis_lines" style="stroke-dasharray:7.407407407407407;stroke-dashoffset:-34.074074074074076;" d=" M 150 400 L 150 100" /></svg>