<svg class="poloto" width="800" height="500" viewBox="0 0 800 500" xmlns="http://www.w3.org/2000/svg"><style>.poloto { stroke-linecap:round; stroke-linejoin:round; font-family: 'Tahoma', sans-serif; background-color: AliceBlue;} .poloto_scatter{stroke-width:7} .poloto_line{stroke-width:2} .poloto_text{fill: black;} .poloto_axis_lines{stroke: black;stroke-width:3;fill:none;stroke-dasharray:none} .poloto0stroke{stroke:  blue;} .poloto1stroke{stroke:  red;} .poloto2stroke{stroke:  green;} .poloto3stroke{stroke:  gold;} .poloto4stroke{stroke:  aqua;} .poloto5stroke{stroke:  lime;} .poloto6stroke{stroke:  orange;} .poloto7stroke{stroke:  chocolate;} .poloto0fill{fill:blue;} .poloto1fill{fill:red;} .poloto2fill{fill:green;} .poloto3fill{fill:gold;} .poloto4fill{fill:aqua;} .poloto5fill{fill:lime;} .poloto6fill{fill:orange;} .poloto7fill{fill:chocolate;}</style><text  class="poloto_text poloto_legend_text" alignment-baseline="middle" text-anchor="start" font-size="large" x="675" y="100" ></text><path  class="poloto_linefill poloto0fill" d=" M 150 400 L 150 336.3000635727908 L 151.74216027874564 342.40305149396056 L 153.4843205574913 342.59376986649715 L 155.22648083623693 347.74316592498405 L 156.96864111498257 350.41322314049586 L 158.71080139372822 352.1296884933248 L 160.45296167247386 355.7533375715194 L 162.1951219512195 358.041958041958 L 163.93728222996515 357.2790845518118 L 165.6794425087108 361.0934520025429 L 167.42160278745644 358.80483153210423 L 169.16376306620208 362.04704386522565 L 170.90592334494772 366.624284806103 L 172.64808362369337 368.340750158932 L 174.390243902439 374.63445645263823 L 176.13240418118465 378.06738715829624 L 177.8745644599303 380.54672600127145 L 179.61672473867597 377.4952320406866 L 181.3588850174216 378.6395422759059 L 183.10104529616726 380.1652892561983 L 184.8432055749129 376.73235855054037 L 186.58536585365854 377.87666878575965 L 188.3275261324042 374.25301970756516 L 190.06968641114983 371.5829624920534 L 191.81184668989548 372.53655435473615 L 193.55400696864112 375.58804831532103 L 195.29616724738676 374.63445645263823 L 197.0383275261324 377.87666878575965 L 198.78048780487805 375.96948506039416 L 200.5226480836237 374.4437380801017 L 202.26480836236934 364.5263827082009 L 204.00696864111498 371.2015257469803 L 205.74912891986062 373.6808645899555 L 207.49128919860627 385.886840432295 L 209.2334494773519 382.453909726637 L 210.97560975609755 383.02606484424666 L 212.7177700348432 380.9281627463446 L 214.45993031358887 384.5518118245391 L 216.2020905923345 382.2631913541004 L 217.94425087108016 380.3560076287349 L 219.6864111498258 379.020979020979 L 221.42857142857144 380.1652892561983 L 223.1707317073171 386.4589955499046 L 224.91289198606273 387.60330578512395 L 226.65505226480838 384.5518118245391 L 228.39721254355402 389.1290527654164 L 230.13937282229966 394.850603941513 L 231.8815331010453 392.56198347107437 L 233.62369337979095 387.4125874125874 L 235.3658536585366 393.89701207883024 L 237.10801393728224 393.3248569612206 L 238.85017421602788 392.18054672600124 L 240.59233449477352 391.2269548633185 L 242.33449477351917 388.1754609027336 L 244.0766550522648 394.850603941513 L 245.81881533101046 400 L 247.5609756097561 397.5206611570248 L 249.30313588850174 395.61347743165925 L 251.0452961672474 389.7012078830261 L 252.78745644599303 391.9898283534647 L 254.52961672473867 386.2682771773681 L 256.2717770034843 384.9332485696122 L 258.01393728222996 385.6961220597584 L 259.7560975609756 386.84043229497775 L 261.49825783972125 380.737444373808 L 263.2404181184669 378.83026064844245 L 264.98257839721254 379.020979020979 L 266.7247386759582 376.1602034329307 L 268.4668989547038 376.9230769230769 L 270.20905923344947 375.01589319771136 L 271.9512195121951 372.1551176096631 L 273.69337979094075 372.3458359821996 L 275.4355400696864 371.01080737444374 L 277.17770034843204 370.4386522568341 L 278.91986062717774 370.6293706293706 L 280.6620209059233 371.5829624920534 L 282.404181184669 372.72727272727275 L 284.1463414634146 373.4901462174189 L 285.8885017421603 371.9643992371265 L 287.6306620209059 378.6395422759059 L 289.3728222996516 375.01589319771136 L 291.1149825783972 375.77876668785757 L 292.8571428571429 378.2581055308328 L 294.5993031358885 379.59313413858865 L 296.3414634146342 382.64462809917353 L 298.08362369337976 387.60330578512395 L 299.82578397212546 387.60330578512395 L 301.56794425087105 388.9383343928798 L 303.31010452961675 385.6961220597584 L 305.05226480836234 383.2167832167832 L 306.79442508710804 379.78385251112525 L 308.5365853658536 377.1137952956135 L 310.2787456445993 375.58804831532103 L 312.0209059233449 366.81500317863953 L 313.7630662020906 364.1449459631278 L 315.5052264808362 358.80483153210423 L 317.2473867595819 355.3719008264463 L 318.9895470383275 354.0368722186904 L 320.7317073170732 355.5626191989828 L 322.4738675958188 350.6039415130324 L 324.2160278745645 349.8410680228862 L 325.9581881533101 345.2638270820089 L 327.70034843205576 340.87730451366815 L 329.4425087108014 340.68658614113156 L 331.18466898954705 343.3566433566433 L 332.9268292682927 340.3051493960585 L 334.66898954703834 340.3051493960585 L 336.411149825784 333.63000635727906 L 338.1533101045296 329.2434837889383 L 339.89547038327527 329.2434837889383 L 341.6376306620209 330.7692307692307 L 343.37979094076655 322.1869040050858 L 345.1219512195122 323.9033693579148 L 346.86411149825784 313.7952956134774 L 348.6062717770035 305.97584233947873 L 350.34843205574913 308.0737444373808 L 352.0905923344948 290.3369357914812 L 353.8327526132404 295.8677685950413 L 355.57491289198606 284.0432294977749 L 357.3170731707317 284.6153846153846 L 359.05923344947735 281.94532739987284 L 360.801393728223 277.7495232040686 L 362.54355400696863 272.9815638906548 L 364.2857142857143 273.3630006357279 L 366.0278745644599 273.17228226319133 L 367.77003484320556 276.60521296884934 L 369.5121951219512 275.2701843610934 L 371.25435540069685 278.7031150667514 L 372.9965156794425 275.2701843610934 L 374.73867595818814 264.39923712650983 L 376.4808362369338 259.631277813096 L 378.2229965156795 254.29116338207245 L 379.96515679442507 253.52828989192625 L 381.70731707317077 250.47679593134137 L 383.44947735191636 244.37380801017162 L 385.19163763066206 245.89955499046408 L 386.93379790940764 248.56961220597583 L 388.67595818815334 242.46662428480607 L 390.41811846689893 243.6109345200254 L 392.16027874564463 235.41004450095357 L 393.9024390243902 228.5441830896376 L 395.6445993031359 229.30705657978382 L 397.3867595818815 230.64208518753975 L 399.1289198606272 224.92053401144307 L 400.8710801393728 225.49268912905274 L 402.6132404181185 220.53401144310232 L 404.3554006968641 220.15257469802924 L 406.0975609756098 216.14748887476156 L 407.8397212543554 211.1888111888112 L 409.58188153310107 210.9980928162746 L 411.3240418118467 198.6013986013986 L 413.06620209059236 214.24030514939602 L 414.808362369338 201.27145581691036 L 416.55052264808364 193.4520025429116 L 418.2926829268293 175.33375715193898 L 420.03484320557493 169.0400508582327 L 421.7770034843206 167.13286713286715 L 423.5191637630662 156.4526382708201 L 425.26132404181186 161.98347107438013 L 427.0034843205575 161.41131595677047 L 428.74564459930315 157.0247933884297 L 430.4878048780488 151.87539732994276 L 432.22996515679444 154.7361729179911 L 433.9721254355401 141.00445009535918 L 435.7142857142857 135.66433566433568 L 437.45644599303137 129.3706293706294 L 439.198606271777 124.98410680228864 L 440.94076655052265 114.68531468531467 L 442.6829268292683 119.26255562619195 L 444.42508710801394 114.30387794024159 L 446.1672473867596 107.62873490146217 L 447.9094076655052 104.57724094087729 L 449.65156794425087 107.0565797838525 L 451.3937282229965 106.67514303877937 L 453.13588850174216 113.54100445009533 L 454.8780487804878 103.24221233312142 L 456.62020905923345 110.29879211697391 L 458.3623693379791 104.57724094087729 L 460.10452961672473 104.76795931341383 L 461.8466898954704 107.0565797838525 L 463.588850174216 111.06166560712012 L 465.33101045296166 110.10807374443738 L 467.0731707317073 108.7730451366815 L 468.81533101045295 111.63382072472979 L 470.5574912891986 109.91735537190084 L 472.29965156794424 111.06166560712012 L 474.0418118466899 104.95867768595042 L 475.7839721254355 100 L 477.52613240418117 100.95359186268274 L 479.2682926829268 102.67005721551175 L 481.01045296167246 109.53591862682771 L 482.7526132404181 114.68531468531467 L 484.49477351916374 118.30896376350921 L 486.2369337979094 128.03560076287346 L 487.97909407665503 129.1799109980928 L 489.7212543554007 132.6128417037508 L 491.4634146341463 139.28798474253017 L 493.20557491289196 141.1951684678957 L 494.9477351916376 153.9732994278449 L 496.68989547038325 177.24094087730452 L 498.4320557491289 173.42657342657344 L 500.17421602787454 170.37507946598856 L 501.91637630662024 155.88048315321043 L 503.6585365853659 146.34456452638267 L 505.4006968641115 150.34965034965035 L 507.14285714285717 160.0762873490146 L 508.8850174216028 166.94214876033055 L 510.62717770034845 188.1118881118881 L 512.3693379790941 185.06039415130323 L 514.1114982578397 166.94214876033055 L 515.8536585365854 173.42657342657344 L 517.5958188153311 169.6122059758423 L 519.3379790940767 168.8493324856961 L 521.0801393728223 174.38016528925618 L 522.822299651568 190.40050858232678 L 524.5644599303137 170.5657978385251 L 526.3066202090592 179.52956134774314 L 528.0487804878048 172.0915448188175 L 529.7909407665505 177.05022250476793 L 531.5331010452962 168.27717736808643 L 533.2752613240418 178.95740623013347 L 535.0174216027874 181.62746344564528 L 536.7595818815331 186.77685950413223 L 538.5017421602788 188.8747616020343 L 540.2439024390244 200.31786395422756 L 541.98606271777 192.11697393515573 L 543.7282229965157 203.9415130324221 L 545.4703832752614 198.41068022886202 L 547.212543554007 190.59122695486332 L 548.9547038327526 195.35918626827714 L 550.6968641114983 202.60648442466623 L 552.439024390244 202.2250476795931 L 554.1811846689895 200.6993006993007 L 555.9233449477351 201.65289256198344 L 557.6655052264808 195.54990464081374 L 559.4076655052265 202.79720279720277 L 561.1498257839721 202.79720279720277 L 562.8919860627177 203.1786395422759 L 564.6341463414634 214.04958677685948 L 566.3763066202091 217.86395422759057 L 568.1184668989547 215.38461538461536 L 569.8606271777003 224.92053401144307 L 571.602787456446 216.71964399237123 L 573.3449477351917 226.255562619199 L 575.0871080139373 221.10616656071198 L 576.8292682926829 226.255562619199 L 578.5714285714286 231.40495867768595 L 580.3135888501743 236.36363636363637 L 582.0557491289198 231.21424030514936 L 583.7979094076654 226.44628099173553 L 585.5400696864111 223.5855054036872 L 587.2822299651568 222.05975842339478 L 589.0243902439024 232.3585505403687 L 590.766550522648 236.36363636363637 L 592.5087108013937 237.12650985378258 L 594.2508710801394 256.00762873490146 L 595.993031358885 258.48696757787667 L 597.7351916376306 256.38906547997453 L 599.4773519163763 257.34265734265733 L 601.219512195122 260.2034329307057 L 602.9616724738676 261.53846153846155 L 604.7038327526133 273.17228226319133 L 606.445993031359 261.7291799109981 L 608.1881533101046 263.4456452638271 L 609.9303135888501 273.3630006357279 L 611.6724738675958 264.78067387158296 L 613.4146341463415 267.0692943420216 L 615.1567944250871 260.0127145581691 L 616.8989547038327 263.4456452638271 L 618.6411149825784 264.39923712650983 L 620.3832752613241 264.58995549904637 L 622.1254355400697 264.39923712650983 L 623.8675958188153 271.83725365543546 L 625.609756097561 275.65162110616654 L 627.3519163763067 281.18245390972663 L 629.0940766550523 289.19262555626193 L 630.8362369337979 292.43483788938335 L 632.5783972125436 295.67705022250476 L 634.3205574912893 302.3521932612842 L 636.0627177700349 307.31087094723455 L 637.8048780487804 314.55816910362364 L 639.5470383275261 312.84170375079464 L 641.2891986062718 314.36745073108705 L 643.0313588850174 313.6045772409409 L 644.773519163763 311.50667514303876 L 646.5156794425087 316.27463445645265 L 648.2578397212544 319.13541004450093 L 650 327.5270184361093 L 650 400 Z" /><text  class="poloto_labels poloto_text poloto_title" alignment-baseline="start" text-anchor="middle" font-size="x-large" x="400" y="37.5" >Total players on 2021-11-04</text><text  class="poloto_labels poloto_text poloto_xname" alignment-baseline="start" text-anchor="middle" font-size="x-large" x="400" y="481.25" >Time</text><text  class="poloto_labels poloto_text poloto_yname" alignment-baseline="start" text-anchor="middle" font-size="x-large" transform="rotate(-90,37.5,250)" x="37.5" y="250" >Count</text><line  class="poloto_axis_lines" stroke="black" x1="150" x2="150" y1="400" y2="405" /><text  class="poloto_tick_labels poloto_text" alignment-baseline="start" text-anchor="middle" x="150" y="430" > 00:00:00</text><line  class="poloto_axis_lines" stroke="black" x1="266.14401858304296" x2="266.14401858304296" y1="400" y2="405" /><text  class="poloto_tick_labels poloto_text" alignment-baseline="start" text-anchor="middle" x="266.14401858304296" y="430" > 05:33:20</text><line  class="poloto_axis_lines" stroke="black" x1="382.2880371660859" x2="382.2880371660859" y1="400" y2="405" /><text  class="poloto_tick_labels poloto_text" alignment-baseline="start" text-anchor="middle" x="382.2880371660859" y="430" > 11:06:40</text><line  class="poloto_axis_lines" stroke="black" x1="498.4320557491289" x2="498.4320557491289" y1="400" y2="405" /><text  class="poloto_tick_labels poloto_text" alignment-baseline="start" text-anchor="middle" x="498.4320557491289" y="430" > 16:40:00</text><line  class="poloto_axis_lines" stroke="black" x1="614.5760743321719" x2="614.5760743321719" y1="400" y2="405" /><text  class="poloto_tick_labels poloto_text" alignment-baseline="start" text-anchor="middle" x="614.5760743321719" y="430" > 22:13:20</text><line  class="poloto_axis_lines" stroke="black" x1="150" x2="144" y1="370.4386522568341" y2="370.4386522568341" /><text  class="poloto_tick_labels poloto_text" alignment-baseline="middle" text-anchor="end" x="135" y="370.4386522568341" > 1000</text><line  class="poloto_axis_lines" stroke="black" x1="150" x2="144" y1="275.0794659885569" y2="275.0794659885569" /><text  class="poloto_tick_labels poloto_text" alignment-baseline="middle" text-anchor="end" x="135" y="275.0794659885569" > 1500</text><line  class="poloto_axis_lines" stroke="black" x1="150" x2="144" y1="179.72027972027973" y2="179.72027972027973" /><text  class="poloto_tick_labels poloto_text" alignment-baseline="middle" text-anchor="end" x="135" y="179.72027972027973" > 2000</text><path  stroke="black" fill="none" class="poloto_axis_lines" style="stroke-dasharray:14.518002322880372;stroke-dashoffset:-0;" d=" M 150 400 L 650 400" /><path  stroke="black" fill="none" class="poloto_axis_lines" style="stroke-dasharray:9.535918626827717;stroke-dashoffset:-29.561347743165925;" d=" M 150 400 L 150 100" /></svg>