<svg class="poloto" width="800" height="500" viewBox="0 0 800 500" xmlns="http://www.w3.org/2000/svg"><style>.poloto { stroke-linecap:round; stroke-linejoin:round; font-family: 'Tahoma', sans-serif; background-color: AliceBlue;} .poloto_scatter{stroke-width:7} .poloto_line{stroke-width:2} .poloto_text{fill: black;} .poloto_axis_lines{stroke: black;stroke-width:3;fill:none;stroke-dasharray:none} .poloto0stroke{stroke:  blue;} .poloto1stroke{stroke:  red;} .poloto2stroke{stroke:  green;} .poloto3stroke{stroke:  gold;} .poloto4stroke{stroke:  aqua;} .poloto5stroke{stroke:  lime;} .poloto6stroke{stroke:  orange;} .poloto7stroke{stroke:  chocolate;} .poloto0fill{fill:blue;} .poloto1fill{fill:red;} .poloto2fill{fill:green;} .poloto3fill{fill:gold;} .poloto4fill{fill:aqua;} .poloto5fill{fill:lime;} .poloto6fill{fill:orange;} .poloto7fill{fill:chocolate;}</style><text  class="poloto_text poloto_legend_text" alignment-baseline="middle" text-anchor="start" font-size="large" x="675" y="100" ></text><path  class="poloto_linefill poloto0fill" d=" M 150 400 L 150 373.290703393999 L 151.74216027874564 371.51992129857354 L 153.4843205574913 374.76635514018693 L 155.22648083623693 378.1603541564191 L 156.96864111498257 378.898180029513 L 158.71080139372822 380.07870142646334 L 160.45296167247386 380.8165272995573 L 162.1951219512195 384.2105263157895 L 163.93728222996515 382.14461387112647 L 165.6794425087108 381.70191834727007 L 167.42160278745644 383.32513526807674 L 169.16376306620208 381.99704869650765 L 170.90592334494772 379.04574520413183 L 172.64808362369337 381.25922282341367 L 174.390243902439 383.47270044269555 L 176.13240418118465 387.6045253320217 L 177.8745644599303 386.57156910969013 L 179.61672473867597 381.8494835218888 L 181.3588850174216 385.53861288735857 L 183.10104529616726 387.4569601574029 L 184.8432055749129 386.8666994589277 L 186.58536585365854 389.2277422528283 L 188.3275261324042 388.4899163797344 L 190.06968641114983 390.40826364977863 L 191.81184668989548 386.7191342843089 L 193.55400696864112 400 L 195.29616724738676 392.03148057058536 L 197.0383275261324 390.40826364977863 L 198.78048780487805 391.29365469749143 L 200.5226480836237 394.2449581898672 L 202.26480836236934 390.70339399901627 L 204.00696864111498 390.1131333005411 L 205.74912891986062 391.4412198721102 L 207.49128919860627 390.26069847515987 L 209.2334494773519 385.24348253812104 L 210.97560975609755 385.6861780619774 L 212.7177700348432 383.6202656173143 L 214.45993031358887 379.3408755533694 L 216.2020905923345 384.35809149040824 L 217.94425087108016 381.25922282341367 L 219.6864111498258 376.5371372356124 L 221.42857142857144 369.89670437776687 L 223.1707317073171 369.74913920314805 L 224.91289198606273 370.3393999016232 L 226.65505226480838 362.075750122971 L 228.39721254355402 364.14166256763406 L 230.13937282229966 360.74766355140184 L 231.8815331010453 360.74766355140184 L 233.62369337979095 359.41957697983275 L 235.3658536585366 357.64879488440727 L 237.10801393728224 353.81210034431876 L 238.85017421602788 352.63157894736844 L 240.59233449477352 352.18888342351204 L 242.33449477351917 351.7461878996557 L 244.0766550522648 345.10575504181014 L 245.81881533101046 340.97393015248406 L 247.5609756097561 337.4323659616331 L 249.30313588850174 339.6458435809149 L 251.0452961672474 338.02262666010824 L 252.78745644599303 337.57993113625184 L 254.52961672473867 333.8908017707821 L 256.2717770034843 335.07132316773243 L 258.01393728222996 338.170191834727 L 259.7560975609756 337.8750614854894 L 261.49825783972125 333.5956714215445 L 263.2404181184669 332.4151500245942 L 264.98257839721254 327.25036891293655 L 266.7247386759582 325.18445646827354 L 268.4668989547038 330.9394982784063 L 270.20905923344947 334.92375799311367 L 271.9512195121951 332.7102803738318 L 273.69337979094075 336.9896704377767 L 275.4355400696864 335.2188883423512 L 277.17770034843204 336.69454008853916 L 278.91986062717774 336.8421052631579 L 280.6620209059233 333.74323659616334 L 282.404181184669 333.00541072306936 L 284.1463414634146 324.29906542056074 L 285.8885017421603 329.46384653221844 L 287.6306620209059 328.8735858337433 L 289.3728222996516 325.7747171667487 L 291.1149825783972 321.3477619281849 L 292.8571428571429 314.85489424495825 L 294.5993031358885 304.6728971962617 L 296.3414634146342 305.5582882439744 L 298.08362369337976 304.8204623708805 L 299.82578397212546 299.0654205607477 L 301.56794425087105 297.8848991637974 L 303.31010452961675 295.376291195278 L 305.05226480836234 294.63846532218395 L 306.79442508710804 295.08116084604035 L 308.5365853658536 291.3920314805706 L 310.2787456445993 286.07968519429414 L 312.0209059233449 289.1785538612887 L 313.7630662020906 285.0467289719626 L 315.5052264808362 283.12838170191833 L 317.2473867595819 278.70142646335466 L 318.9895470383275 277.3733398917856 L 320.7317073170732 273.8317757009346 L 322.4738675958188 274.274471224791 L 324.2160278745645 270.8804722085588 L 325.9581881533101 270.2902115100836 L 327.70034843205576 267.92916871618297 L 329.4425087108014 262.91195277914414 L 331.18466898954705 263.0595179537629 L 332.9268292682927 261.7314313821938 L 334.66898954703834 258.63256271519924 L 336.411149825784 255.68125922282346 L 338.1533101045296 253.172651254304 L 339.89547038327527 251.69699950811608 L 341.6376306620209 249.0408263649779 L 343.37979094076655 250.0737825873094 L 345.1219512195122 242.25282833251353 L 346.86411149825784 238.12100344318745 L 348.6062717770035 238.5636989670438 L 350.34843205574913 245.20413182488934 L 352.0905923344948 242.5479586817511 L 353.8327526132404 248.89326119035908 L 355.57491289198606 235.02213477619281 L 357.3170731707317 234.57943925233647 L 359.05923344947735 224.84013772749634 L 360.801393728223 223.5120511559272 L 362.54355400696863 221.59370388588295 L 364.2857142857143 218.1997048696508 L 366.0278745644599 206.83718642400393 L 367.77003484320556 206.54205607476635 L 369.5121951219512 208.31283817019184 L 371.25435540069685 204.91883915395968 L 372.9965156794425 201.96753566158387 L 374.73867595818814 203.00049188391543 L 376.4808362369338 204.6237088047221 L 378.2229965156795 201.96753566158387 L 379.96515679442507 195.17953762911955 L 381.70731707317077 193.40875553369406 L 383.44947735191636 190.60501721593707 L 385.19163763066206 200.78701426463354 L 386.93379790940764 199.90162321692085 L 388.67595818815334 198.8686669945893 L 390.41811846689893 193.11362518445648 L 392.16027874564463 186.32562715199217 L 393.9024390243902 181.4559763895721 L 395.6445993031359 179.9803246433842 L 397.3867595818815 190.45745204131825 L 399.1289198606272 177.61928184948354 L 400.8710801393728 176.7338908017708 L 402.6132404181185 175.4058042302017 L 404.3554006968641 176.29119527791445 L 406.0975609756098 177.1765863256272 L 407.8397212543554 172.60206591244466 L 409.58188153310107 177.1765863256272 L 411.3240418118467 171.71667486473197 L 413.06620209059236 168.91293654697492 L 414.808362369338 163.6005902606985 L 416.55052264808364 164.9286768322676 L 418.2926829268293 161.38711264141662 L 420.03484320557493 158.28824397442204 L 421.7770034843206 158.28824397442204 L 423.5191637630662 150.90998524348257 L 425.26132404181186 149.13920314805708 L 427.0034843205575 149.2867683226759 L 428.74564459930315 142.9414658140679 L 430.4878048780488 139.99016232169208 L 432.22996515679444 136.30103295622234 L 433.9721254355401 139.69503197245456 L 435.7142857142857 154.30398425971472 L 437.45644599303137 127.8898180029513 L 439.198606271777 127.29955730447614 L 440.94076655052265 133.054599114609 L 442.6829268292683 133.054599114609 L 444.42508710801394 125.97147073290705 L 446.1672473867596 134.53025086079685 L 447.9094076655052 118.29808165272993 L 449.65156794425087 117.26512543039848 L 451.3937282229965 119.7737333989179 L 453.13588850174216 117.85538612887365 L 454.8780487804878 113.57599606492874 L 456.62020905923345 114.31382193802267 L 458.3623693379791 122.87260206591247 L 460.10452961672473 111.80521396950326 L 461.8466898954704 107.67338908017712 L 463.588850174216 106.34530250860803 L 465.33101045296166 102.21347761928189 L 467.0731707317073 105.75504181013287 L 468.81533101045295 101.77078209542549 L 470.5574912891986 103.24643384161345 L 472.29965156794424 105.45991146089523 L 474.0418118466899 104.13182488932614 L 475.7839721254355 115.78947368421052 L 477.52613240418117 105.60747663551399 L 479.2682926829268 100 L 481.01045296167246 105.31234628627647 L 482.7526132404181 103.68912936546974 L 484.49477351916374 107.96851942941464 L 486.2369337979094 107.67338908017712 L 487.97909407665503 104.42695523856378 L 489.7212543554007 105.31234628627647 L 491.4634146341463 105.1647811116577 L 493.20557491289196 105.60747663551399 L 494.9477351916376 110.03443187407777 L 496.68989547038325 111.06738809640922 L 498.4320557491289 110.18199704869653 L 500.17421602787454 112.98573536645358 L 501.91637630662024 112.69060501721594 L 503.6585365853659 115.494343334973 L 505.4006968641115 120.2164289227743 L 507.14285714285717 117.26512543039848 L 508.8850174216028 116.96999508116085 L 510.62717770034845 121.83964584358091 L 512.3693379790941 126.56173143138221 L 514.1114982578397 128.18494835218894 L 515.8536585365854 142.0560747663552 L 517.5958188153311 146.92572552877525 L 519.3379790940767 154.74667978357112 L 521.0801393728223 155.18937530742747 L 522.822299651568 160.35415641908511 L 524.5644599303137 170.978848991638 L 526.3066202090592 168.61780619773734 L 528.0487804878048 181.89867191342844 L 529.7909407665505 191.7855386128874 L 531.5331010452962 190.16232169208067 L 533.2752613240418 197.39301524840138 L 535.0174216027874 197.68814559763896 L 536.7595818815331 202.70536153467785 L 538.5017421602788 210.52631578947373 L 540.2439024390244 212.29709788489916 L 541.98606271777 207.5750122970979 L 543.7282229965157 209.3457943925234 L 545.4703832752614 212.00196753566158 L 547.212543554007 203.5907525823906 L 548.9547038327526 219.97048696507628 L 550.6968641114983 214.51057550418105 L 552.439024390244 217.7570093457944 L 554.1811846689895 218.05213969503197 L 555.9233449477351 212.00196753566158 L 557.6655052264808 213.6251844564683 L 559.4076655052265 211.26414166256765 L 561.1498257839721 216.28135759960654 L 562.8919860627177 217.16674864731928 L 564.6341463414634 218.9375307427447 L 566.3763066202091 219.6753566158387 L 568.1184668989547 224.24987702902118 L 569.8606271777003 223.06935563207085 L 571.602787456446 243.87604525332026 L 573.3449477351917 235.02213477619281 L 575.0871080139373 238.41613379242503 L 576.8292682926829 233.10378750614856 L 578.5714285714286 234.57943925233647 L 580.3135888501743 240.18691588785046 L 582.0557491289198 238.5636989670438 L 583.7979094076654 243.72848007870144 L 585.5400696864111 249.0408263649779 L 587.2822299651568 241.95769798327595 L 589.0243902439024 243.2857845548451 L 590.766550522648 250.368912936547 L 592.5087108013937 257.30447614363015 L 594.2508710801394 248.15543531726516 L 595.993031358885 256.5666502705361 L 597.7351916376306 262.1741269060502 L 599.4773519163763 263.9449090014757 L 601.219512195122 272.79881947860304 L 602.9616724738676 273.3890801770782 L 604.7038327526133 273.53664535169696 L 606.445993031359 279.7343826856862 L 608.1881533101046 281.35759960649284 L 609.9303135888501 286.52238071815054 L 611.6724738675958 288.73585833743243 L 613.4146341463415 286.3748155435318 L 615.1567944250871 289.7688145597639 L 616.8989547038327 293.01524840137733 L 618.6411149825784 299.9508116084604 L 620.3832752613241 297.14707329070336 L 622.1254355400697 301.86915887850466 L 623.8675958188153 304.6728971962617 L 625.609756097561 304.6728971962617 L 627.3519163763067 308.36202656173145 L 629.0940766550523 304.5253320216429 L 630.8362369337979 311.31333005410727 L 632.5783972125436 316.47811116576486 L 634.3205574912893 323.41367437284805 L 636.0627177700349 320.7575012297098 L 637.8048780487804 321.20019675356616 L 639.5470383275261 328.1357599606493 L 641.2891986062718 335.2188883423512 L 643.0313588850174 338.76045253320217 L 644.773519163763 345.9911460895229 L 646.5156794425087 344.81062469257256 L 648.2578397212544 346.7289719626168 L 650 344.9581898671913 L 650 400 Z" /><text  class="poloto_labels poloto_text poloto_title" alignment-baseline="start" text-anchor="middle" font-size="x-large" x="400" y="37.5" >Total players on 2021-10-23</text><text  class="poloto_labels poloto_text poloto_xname" alignment-baseline="start" text-anchor="middle" font-size="x-large" x="400" y="481.25" >Time</text><text  class="poloto_labels poloto_text poloto_yname" alignment-baseline="start" text-anchor="middle" font-size="x-large" transform="rotate(-90,37.5,250)" x="37.5" y="250" >Count</text><line  class="poloto_axis_lines" stroke="black" x1="150" x2="150" y1="400" y2="405" /><text  class="poloto_tick_labels poloto_text" alignment-baseline="start" text-anchor="middle" x="150" y="430" > 00:00</text><line  class="poloto_axis_lines" stroke="black" x1="266.14401858304296" x2="266.14401858304296" y1="400" y2="405" /><text  class="poloto_tick_labels poloto_text" alignment-baseline="start" text-anchor="middle" x="266.14401858304296" y="430" > 06:00</text><line  class="poloto_axis_lines" stroke="black" x1="382.2880371660859" x2="382.2880371660859" y1="400" y2="405" /><text  class="poloto_tick_labels poloto_text" alignment-baseline="start" text-anchor="middle" x="382.2880371660859" y="430" > 11:00</text><line  class="poloto_axis_lines" stroke="black" x1="498.4320557491289" x2="498.4320557491289" y1="400" y2="405" /><text  class="poloto_tick_labels poloto_text" alignment-baseline="start" text-anchor="middle" x="498.4320557491289" y="430" > 17:00</text><line  class="poloto_axis_lines" stroke="black" x1="614.5760743321719" x2="614.5760743321719" y1="400" y2="405" /><text  class="poloto_tick_labels poloto_text" alignment-baseline="start" text-anchor="middle" x="614.5760743321719" y="430" > 22:00</text><line  class="poloto_axis_lines" stroke="black" x1="150" x2="144" y1="337.2848007870143" y2="337.2848007870143" /><text  class="poloto_tick_labels poloto_text" alignment-baseline="middle" text-anchor="end" x="135" y="337.2848007870143" > 1500</text><line  class="poloto_axis_lines" stroke="black" x1="150" x2="144" y1="263.5022134776193" y2="263.5022134776193" /><text  class="poloto_tick_labels poloto_text" alignment-baseline="middle" text-anchor="end" x="135" y="263.5022134776193" > 2000</text><line  class="poloto_axis_lines" stroke="black" x1="150" x2="144" y1="189.7196261682243" y2="189.7196261682243" /><text  class="poloto_tick_labels poloto_text" alignment-baseline="middle" text-anchor="end" x="135" y="189.7196261682243" > 2500</text><line  class="poloto_axis_lines" stroke="black" x1="150" x2="144" y1="115.9370388588294" y2="115.9370388588294" /><text  class="poloto_tick_labels poloto_text" alignment-baseline="middle" text-anchor="end" x="135" y="115.9370388588294" > 3000</text><path  stroke="black" fill="none" class="poloto_axis_lines" style="stroke-dasharray:14.518002322880372;stroke-dashoffset:-0;" d=" M 150 400 L 650 400" /><path  stroke="black" fill="none" class="poloto_axis_lines" style="stroke-dasharray:7.378258730939498;stroke-dashoffset:-62.71519921298571;" d=" M 150 400 L 150 100" /></svg>