<svg class="poloto" width="800" height="500" viewBox="0 0 800 500" xmlns="http://www.w3.org/2000/svg"><style>.poloto { stroke-linecap:round; stroke-linejoin:round; font-family: 'Tahoma', sans-serif; background-color: AliceBlue;} .poloto_scatter{stroke-width:7} .poloto_line{stroke-width:2} .poloto_text{fill: black;} .poloto_axis_lines{stroke: black;stroke-width:3;fill:none;stroke-dasharray:none} .poloto0stroke{stroke:  blue;} .poloto1stroke{stroke:  red;} .poloto2stroke{stroke:  green;} .poloto3stroke{stroke:  gold;} .poloto4stroke{stroke:  aqua;} .poloto5stroke{stroke:  lime;} .poloto6stroke{stroke:  orange;} .poloto7stroke{stroke:  chocolate;} .poloto0fill{fill:blue;} .poloto1fill{fill:red;} .poloto2fill{fill:green;} .poloto3fill{fill:gold;} .poloto4fill{fill:aqua;} .poloto5fill{fill:lime;} .poloto6fill{fill:orange;} .poloto7fill{fill:chocolate;}</style><text  class="poloto_text poloto_legend_text" alignment-baseline="middle" text-anchor="start" font-size="large" x="675" y="100" ></text><path  class="poloto_linefill poloto0fill" d=" M 150 400 L 150 348.3985765124555 L 151.74216027874564 348.0427046263345 L 153.4843205574913 353.7366548042704 L 155.22648083623693 356.2277580071175 L 156.96864111498257 360.3202846975089 L 158.71080139372822 372.7758007117437 L 160.45296167247386 369.0391459074733 L 162.1951219512195 374.02135231316726 L 163.93728222996515 373.84341637010675 L 165.6794425087108 375.2669039145907 L 167.42160278745644 380.7829181494662 L 169.16376306620208 380.2491103202847 L 170.90592334494772 381.49466192170814 L 172.64808362369337 385.4092526690391 L 174.390243902439 390.0355871886121 L 176.13240418118465 393.06049822064057 L 177.8745644599303 391.2811387900356 L 179.61672473867597 398.57651245551597 L 181.3588850174216 399.4661921708185 L 183.10104529616726 392.70462633451956 L 184.8432055749129 397.3309608540925 L 186.58536585365854 400 L 188.3275261324042 399.8220640569395 L 190.06968641114983 395.729537366548 L 191.81184668989548 396.9750889679715 L 193.55400696864112 397.864768683274 L 195.29616724738676 394.48398576512454 L 197.0383275261324 393.2384341637011 L 198.78048780487805 388.43416370106763 L 200.5226480836237 388.6120996441281 L 202.26480836236934 388.79003558718864 L 204.00696864111498 386.6548042704626 L 205.74912891986062 386.29893238434164 L 207.49128919860627 379.7153024911032 L 209.2334494773519 381.85053380782915 L 210.97560975609755 380.6049822064057 L 212.7177700348432 377.9359430604982 L 214.45993031358887 374.02135231316726 L 216.2020905923345 376.15658362989325 L 217.94425087108016 372.2419928825623 L 219.6864111498258 371.88612099644126 L 221.42857142857144 374.7330960854092 L 223.1707317073171 369.3950177935943 L 224.91289198606273 360.4982206405694 L 226.65505226480838 348.3985765124555 L 228.39721254355402 350.1779359430605 L 230.13937282229966 350.1779359430605 L 231.8815331010453 350 L 233.62369337979095 344.66192170818505 L 235.3658536585366 342.17081850533805 L 237.10801393728224 342.70462633451956 L 238.85017421602788 337.3665480427046 L 240.59233449477352 338.0782918149466 L 242.33449477351917 332.9181494661922 L 244.0766550522648 329.3594306049822 L 245.81881533101046 337.3665480427046 L 247.5609756097561 329.7153024911032 L 249.30313588850174 317.43772241992883 L 251.0452961672474 313.87900355871886 L 252.78745644599303 309.6085409252669 L 254.52961672473867 306.0498220640569 L 256.2717770034843 302.31316725978644 L 258.01393728222996 296.61921708185054 L 259.7560975609756 297.153024911032 L 261.49825783972125 298.220640569395 L 263.2404181184669 296.44128113879003 L 264.98257839721254 306.5836298932384 L 266.7247386759582 305.69395017793596 L 268.4668989547038 300.53380782918146 L 270.20905923344947 304.0925266903914 L 271.9512195121951 301.423487544484 L 273.69337979094075 305.33807829181495 L 275.4355400696864 302.84697508896795 L 277.17770034843204 296.2633451957295 L 278.91986062717774 291.99288256227754 L 280.6620209059233 287.3665480427046 L 282.404181184669 289.3238434163701 L 284.1463414634146 293.06049822064057 L 285.8885017421603 281.85053380782915 L 287.6306620209059 281.4946619217082 L 289.3728222996516 282.56227758007117 L 291.1149825783972 271.88612099644126 L 292.8571428571429 265.30249110320284 L 294.5993031358885 261.20996441281136 L 296.3414634146342 254.44839857651243 L 298.08362369337976 259.0747330960854 L 299.82578397212546 247.6868327402135 L 301.56794425087105 255.33807829181495 L 303.31010452961675 259.6085409252669 L 305.05226480836234 251.77935943060498 L 306.79442508710804 253.38078291814946 L 308.5365853658536 257.4733096085409 L 310.2787456445993 255.33807829181495 L 312.0209059233449 258.7188612099644 L 313.7630662020906 262.0996441281139 L 315.5052264808362 258.7188612099644 L 317.2473867595819 252.84697508896795 L 318.9895470383275 250.1779359430605 L 320.7317073170732 255.8718861209964 L 322.4738675958188 254.62633451957294 L 324.2160278745645 256.2277580071174 L 325.9581881533101 254.27046263345193 L 327.70034843205576 246.26334519572953 L 329.4425087108014 243.23843416370107 L 331.18466898954705 238.61209964412808 L 332.9268292682927 234.51957295373666 L 334.66898954703834 238.79003558718858 L 336.411149825784 241.81494661921704 L 338.1533101045296 251.60142348754448 L 339.89547038327527 251.06761565836297 L 341.6376306620209 243.41637010676158 L 343.37979094076655 230.24911032028467 L 345.1219512195122 223.84341637010675 L 346.86411149825784 224.73309608540922 L 348.6062717770035 220.28469750889678 L 350.34843205574913 214.59074733096082 L 352.0905923344948 211.74377224199287 L 353.8327526132404 206.58362989323842 L 355.57491289198606 211.20996441281136 L 357.3170731707317 206.93950177935943 L 359.05923344947735 216.5480427046263 L 360.801393728223 211.92170818505338 L 362.54355400696863 225.26690391459073 L 364.2857142857143 221.88612099644126 L 366.0278745644599 214.41281138790032 L 367.77003484320556 219.75088967971527 L 369.5121951219512 208.71886120996442 L 371.25435540069685 201.42348754448398 L 372.9965156794425 195.01779359430606 L 374.73867595818814 191.81494661921704 L 376.4808362369338 188.9679715302491 L 378.2229965156795 182.91814946619218 L 379.96515679442507 181.85053380782915 L 381.70731707317077 183.98576512455514 L 383.44947735191636 186.29893238434164 L 385.19163763066206 182.38434163701066 L 386.93379790940764 180.60498220640568 L 388.67595818815334 179.3594306049822 L 390.41811846689893 172.95373665480423 L 392.16027874564463 167.25978647686833 L 393.9024390243902 172.24199288256227 L 395.6445993031359 301.6014234875445 L 397.3867595818815 175.26690391459073 L 399.1289198606272 173.30960854092524 L 400.8710801393728 163.52313167259786 L 402.6132404181185 153.91459074733092 L 404.3554006968641 152.13523131672594 L 406.0975609756098 163.70106761565836 L 407.8397212543554 162.98932384341634 L 409.58188153310107 153.91459074733092 L 411.3240418118467 160.85409252669035 L 413.06620209059236 156.93950177935943 L 414.808362369338 167.61565836298928 L 416.55052264808364 164.41281138790032 L 418.2926829268293 164.76868327402133 L 420.03484320557493 169.92882562277578 L 421.7770034843206 165.65836298932385 L 423.5191637630662 165.30249110320284 L 425.26132404181186 164.23487544483982 L 427.0034843205575 156.0498220640569 L 428.74564459930315 152.13523131672594 L 430.4878048780488 140.56939501779357 L 432.22996515679444 138.07829181494662 L 433.9721254355401 133.09608540925262 L 435.7142857142857 134.69750889679716 L 437.45644599303137 131.85053380782915 L 439.198606271777 139.3238434163701 L 440.94076655052265 127.40213523131672 L 442.6829268292683 121.17437722419925 L 444.42508710801394 122.95373665480423 L 446.1672473867596 123.13167259786474 L 447.9094076655052 122.41992882562278 L 449.65156794425087 128.8256227758007 L 451.3937282229965 114.59074733096082 L 453.13588850174216 118.3274021352313 L 454.8780487804878 107.65124555160139 L 456.62020905923345 109.25266903914587 L 458.3623693379791 110.4982206405694 L 460.10452961672473 107.65124555160139 L 461.8466898954704 102.31316725978644 L 463.588850174216 108.54092526690391 L 465.33101045296166 120.99644128113874 L 467.0731707317073 121.70818505338076 L 468.81533101045295 102.13523131672594 L 470.5574912891986 100 L 472.29965156794424 128.4697508896797 L 474.0418118466899 116.0142348754448 L 475.7839721254355 115.30249110320284 L 477.52613240418117 107.8291814946619 L 479.2682926829268 112.27758007117438 L 481.01045296167246 155.16014234875445 L 482.7526132404181 106.93950177935943 L 484.49477351916374 104.98220640569394 L 486.2369337979094 104.09252669039142 L 487.97909407665503 138.25622775800707 L 489.7212543554007 123.30960854092524 L 491.4634146341463 116.1921708185053 L 493.20557491289196 119.75088967971527 L 494.9477351916376 121.70818505338076 L 496.68989547038325 135.0533807829181 L 498.4320557491289 130.24911032028467 L 500.17421602787454 137.0106761565836 L 501.91637630662024 143.77224199288253 L 503.6585365853659 148.0427046263345 L 505.4006968641115 144.83985765124555 L 507.14285714285717 142.34875444839855 L 508.8850174216028 134.69750889679716 L 510.62717770034845 134.51957295373666 L 512.3693379790941 138.25622775800707 L 514.1114982578397 149.644128113879 L 515.8536585365854 158.0071174377224 L 517.5958188153311 152.66903914590745 L 519.3379790940767 155.6939501779359 L 521.0801393728223 160.67615658362985 L 522.822299651568 162.27758007117438 L 524.5644599303137 170.4626334519573 L 526.3066202090592 170.10676156583628 L 528.0487804878048 168.6832740213523 L 529.7909407665505 163.70106761565836 L 531.5331010452962 174.91103202846972 L 533.2752613240418 178.6476868327402 L 535.0174216027874 188.79003558718858 L 536.7595818815331 184.51957295373666 L 538.5017421602788 190.21352313167256 L 540.2439024390244 203.91459074733092 L 541.98606271777 199.28825622775798 L 543.7282229965157 199.8220640569395 L 545.4703832752614 206.76156583629893 L 547.212543554007 207.8291814946619 L 548.9547038327526 212.27758007117438 L 550.6968641114983 219.0391459074733 L 552.439024390244 213.87900355871886 L 554.1811846689895 213.70106761565836 L 555.9233449477351 211.92170818505338 L 557.6655052264808 215.12455516014234 L 559.4076655052265 211.03202846975086 L 561.1498257839721 216.90391459074732 L 562.8919860627177 213.87900355871886 L 564.6341463414634 215.65836298932385 L 566.3763066202091 216.5480427046263 L 568.1184668989547 214.59074733096082 L 569.8606271777003 215.12455516014234 L 571.602787456446 217.43772241992883 L 573.3449477351917 221.17437722419925 L 575.0871080139373 224.5551601423487 L 576.8292682926829 219.0391459074733 L 578.5714285714286 223.30960854092524 L 580.3135888501743 228.4697508896797 L 582.0557491289198 237.3665480427046 L 583.7979094076654 232.38434163701066 L 585.5400696864111 236.8327402135231 L 587.2822299651568 244.83985765124555 L 589.0243902439024 248.93238434163698 L 590.766550522648 251.06761565836297 L 592.5087108013937 256.93950177935943 L 594.2508710801394 259.4306049822064 L 595.993031358885 264.2348754448399 L 597.7351916376306 266.3701067615658 L 599.4773519163763 270.9964412811388 L 601.219512195122 276.33451957295375 L 602.9616724738676 277.2241992882562 L 604.7038327526133 278.8256227758007 L 606.445993031359 276.6903914590747 L 608.1881533101046 285.4092526690391 L 609.9303135888501 287.9003558718861 L 611.6724738675958 285.0533807829181 L 613.4146341463415 290.0355871886121 L 615.1567944250871 293.4163701067616 L 616.8989547038327 290.9252669039146 L 618.6411149825784 298.220640569395 L 620.3832752613241 298.0427046263345 L 622.1254355400697 302.49110320284694 L 623.8675958188153 305.8718861209964 L 625.609756097561 311.56583629893237 L 627.3519163763067 311.9217081850534 L 629.0940766550523 317.79359430604984 L 630.8362369337979 319.3950177935943 L 632.5783972125436 322.5978647686833 L 634.3205574912893 325.2669039145907 L 636.0627177700349 329.89323843416366 L 637.8048780487804 329.1814946619217 L 639.5470383275261 328.11387900355874 L 641.2891986062718 330.2491103202847 L 643.0313588850174 336.47686832740214 L 644.773519163763 338.43416370106763 L 646.5156794425087 340.2135231316726 L 648.2578397212544 341.1032028469751 L 650 345.017793594306 L 650 400 Z" /><text  class="poloto_labels poloto_text poloto_title" alignment-baseline="start" text-anchor="middle" font-size="x-large" x="400" y="37.5" >Total players on 2021-09-25</text><text  class="poloto_labels poloto_text poloto_xname" alignment-baseline="start" text-anchor="middle" font-size="x-large" x="400" y="481.25" >Time</text><text  class="poloto_labels poloto_text poloto_yname" alignment-baseline="start" text-anchor="middle" font-size="x-large" transform="rotate(-90,37.5,250)" x="37.5" y="250" >Count</text><line  class="poloto_axis_lines" stroke="black" x1="150" x2="150" y1="400" y2="405" /><text  class="poloto_tick_labels poloto_text" alignment-baseline="start" text-anchor="middle" x="150" y="430" > 00:00:00</text><line  class="poloto_axis_lines" stroke="black" x1="266.14401858304296" x2="266.14401858304296" y1="400" y2="405" /><text  class="poloto_tick_labels poloto_text" alignment-baseline="start" text-anchor="middle" x="266.14401858304296" y="430" > 05:33:20</text><line  class="poloto_axis_lines" stroke="black" x1="382.2880371660859" x2="382.2880371660859" y1="400" y2="405" /><text  class="poloto_tick_labels poloto_text" alignment-baseline="start" text-anchor="middle" x="382.2880371660859" y="430" > 11:06:40</text><line  class="poloto_axis_lines" stroke="black" x1="498.4320557491289" x2="498.4320557491289" y1="400" y2="405" /><text  class="poloto_tick_labels poloto_text" alignment-baseline="start" text-anchor="middle" x="498.4320557491289" y="430" > 16:40:00</text><line  class="poloto_axis_lines" stroke="black" x1="614.5760743321719" x2="614.5760743321719" y1="400" y2="405" /><text  class="poloto_tick_labels poloto_text" alignment-baseline="start" text-anchor="middle" x="614.5760743321719" y="430" > 22:13:20</text><line  class="poloto_axis_lines" stroke="black" x1="150" x2="144" y1="333.2740213523132" y2="333.2740213523132" /><text  class="poloto_tick_labels poloto_text" alignment-baseline="middle" text-anchor="end" x="135" y="333.2740213523132" > 1500</text><line  class="poloto_axis_lines" stroke="black" x1="150" x2="144" y1="244.30604982206404" y2="244.30604982206404" /><text  class="poloto_tick_labels poloto_text" alignment-baseline="middle" text-anchor="end" x="135" y="244.30604982206404" > 2000</text><line  class="poloto_axis_lines" stroke="black" x1="150" x2="144" y1="155.33807829181495" y2="155.33807829181495" /><text  class="poloto_tick_labels poloto_text" alignment-baseline="middle" text-anchor="end" x="135" y="155.33807829181495" > 2500</text><path  stroke="black" fill="none" class="poloto_axis_lines" style="stroke-dasharray:14.518002322880372;stroke-dashoffset:-0;" d=" M 150 400 L 650 400" /><path  stroke="black" fill="none" class="poloto_axis_lines" style="stroke-dasharray:8.896797153024911;stroke-dashoffset:-66.72597864768682;" d=" M 150 400 L 150 100" /></svg>