<svg class="poloto" width="800" height="500" viewBox="0 0 800 500" xmlns="http://www.w3.org/2000/svg"><style>.poloto { stroke-linecap:round; stroke-linejoin:round; font-family: 'Tahoma', sans-serif; background-color: AliceBlue;} .poloto_scatter{stroke-width:7} .poloto_line{stroke-width:2} .poloto_text{fill: black;} .poloto_axis_lines{stroke: black;stroke-width:3;fill:none;stroke-dasharray:none} .poloto0stroke{stroke:  blue;} .poloto1stroke{stroke:  red;} .poloto2stroke{stroke:  green;} .poloto3stroke{stroke:  gold;} .poloto4stroke{stroke:  aqua;} .poloto5stroke{stroke:  lime;} .poloto6stroke{stroke:  orange;} .poloto7stroke{stroke:  chocolate;} .poloto0fill{fill:blue;} .poloto1fill{fill:red;} .poloto2fill{fill:green;} .poloto3fill{fill:gold;} .poloto4fill{fill:aqua;} .poloto5fill{fill:lime;} .poloto6fill{fill:orange;} .poloto7fill{fill:chocolate;}</style><text  class="poloto_text poloto_legend_text" alignment-baseline="middle" text-anchor="start" font-size="large" x="675" y="100" ></text><path  class="poloto_linefill poloto0fill" d=" M 150 400 L 150 359.3059936908517 L 151.74205911387259 364.19558359621453 L 153.4841182277452 358.3596214511041 L 155.22617734161778 364.19558359621453 L 156.9682364554904 366.0883280757098 L 158.71029556936298 367.03470031545737 L 160.4581615469485 374.1324921135647 L 162.19441379710818 376.34069400630915 L 163.93647291098077 381.70347003154575 L 165.67853202485338 382.1766561514196 L 167.42059113872597 374.6056782334385 L 169.16265025259858 379.65299684542583 L 170.90470936647117 384.54258675078864 L 172.64676848034378 385.4889589905363 L 174.38882759421637 386.11987381703466 L 176.13088670808895 385.3312302839116 L 177.87294582196157 389.90536277602524 L 179.61500493583415 399.05362776025237 L 181.35706404970676 400 L 183.09912316357935 398.10725552050474 L 184.84118227745194 398.8958990536278 L 186.58324139132455 394.794952681388 L 188.32530050519713 391.48264984227126 L 190.06735961906975 390.06309148264984 L 191.80941873294233 391.9558359621451 L 193.55147784681492 391.00946372239747 L 195.29353696068753 396.0567823343848 L 197.03559607456015 395.58359621451103 L 198.77765518843273 393.3753943217665 L 200.51971430230532 389.1167192429022 L 202.26177341617793 390.8517350157729 L 204.00383253005052 391.48264984227126 L 205.74589164392313 391.00946372239747 L 207.48795075779572 384.06940063091486 L 209.2300098716683 378.5488958990536 L 210.97206898554091 376.97160883280753 L 212.7141280994135 374.6056782334385 L 214.4561872132861 373.186119873817 L 216.1982463271587 368.45425867507885 L 217.94030544103128 362.4605678233438 L 219.6823645549039 361.98738170347 L 221.4244236687765 363.7223974763407 L 223.172289646362 356.94006309148267 L 224.90854189652168 357.57097791798105 L 226.65060101039427 359.4637223974763 L 228.39266012426688 362.30283911671927 L 230.1347192381395 353.62776025236593 L 231.87677835201208 347.6340694006309 L 233.61883746588467 345.42586750788644 L 235.36089657975725 342.90220820189273 L 237.10295569362987 344.794952681388 L 238.84501480750248 346.0567823343848 L 240.58707392137507 337.22397476340694 L 242.32913303524765 335.1735015772871 L 244.07119214912026 336.9085173501577 L 245.81325126299288 334.06940063091486 L 247.55531037686546 334.2271293375394 L 249.29736949073805 333.2807570977918 L 251.03942860461063 334.06940063091486 L 252.78148771848325 336.11987381703466 L 254.52354683235586 333.2807570977918 L 256.26560594622845 337.06624605678235 L 258.00766506010103 339.90536277602524 L 259.7497241739736 338.1703470031546 L 261.49178328784626 332.33438485804413 L 263.23384240171885 335.4889589905363 L 264.97590151559143 332.807570977918 L 266.717960629464 331.70347003154575 L 268.4600197433366 324.6056782334384 L 270.20207885720924 325.2365930599369 L 271.94413797108183 323.02839116719247 L 273.6861970849544 327.2870662460567 L 275.428256198827 327.60252365930603 L 277.1703153126996 326.4984227129338 L 278.9123744265722 323.5015772870662 L 280.6544335404448 326.1829652996845 L 282.3964926543174 324.4479495268139 L 284.13855176819004 320.66246056782336 L 285.8806108820626 315.93059936908514 L 287.6226699959352 315.61514195583595 L 289.3647291098078 309.3059936908518 L 291.1067882236804 305.52050473186125 L 292.848847337553 305.993690851735 L 294.5909064514256 311.6719242902208 L 296.3329655652982 304.88958990536275 L 298.0750246791708 306.782334384858 L 299.81708379304337 304.4164037854889 L 301.559142906916 304.1009463722397 L 303.3012020207886 308.83280757097793 L 305.0432611346612 298.10725552050474 L 306.7853202485338 291.79810725552045 L 308.52737936240635 291.3249211356467 L 310.269438476279 292.74447949526814 L 312.0114975901516 287.8548895899054 L 313.75355670402416 287.8548895899054 L 315.4956158178968 283.2807570977918 L 317.23767493176933 273.8170347003155 L 318.979734045642 278.70662460567826 L 320.72179315951456 277.1293375394322 L 322.46385227338715 278.70662460567826 L 324.2059113872598 273.65930599369085 L 325.9479705011323 274.4479495268139 L 327.69002961500496 270.031545741325 L 329.43208872887755 271.1356466876972 L 331.17414784275013 273.97476340694004 L 332.9162069566228 267.8233438485804 L 334.6582660704953 266.7192429022082 L 336.40032518436794 270.031545741325 L 338.14819116195343 268.4542586750789 L 339.8844434121131 270.031545741325 L 341.62650252598576 267.8233438485804 L 343.36856163985834 271.29337539432174 L 345.1106207537309 268.4542586750789 L 346.8526798676035 261.3564668769716 L 348.5947389814761 254.5741324921136 L 350.33679809534874 253.3123028391167 L 352.0788572092213 253.4700315457413 L 353.8209163230939 256.782334384858 L 355.5629754369665 244.95268138801262 L 357.3050345508391 242.11356466876973 L 359.0470936647117 241.0094637223975 L 360.7891527785843 243.8485804416404 L 362.5312118924569 227.4447949526814 L 364.27327100632954 225.55205047318614 L 366.01533012020207 219.4006309148265 L 367.7573892340747 222.71293375394325 L 369.4994483479473 228.86435331230282 L 371.2415074618199 222.87066246056784 L 372.9835665756925 220.34700315457414 L 374.72562568956505 221.29337539432177 L 376.4676848034377 221.13564668769718 L 378.2097439173103 221.45110410094637 L 379.95180303118286 219.2429022082019 L 381.6938621450555 219.4006309148265 L 383.43592125892803 219.2429022082019 L 385.1779803728007 221.76656151419556 L 386.92003948667326 213.8801261829653 L 388.66209860054585 218.92744479495266 L 390.4041577144185 214.0378548895899 L 392.146216828291 215.45741324921138 L 393.88827594216366 219.5583596214511 L 395.63033505603624 227.2870662460568 L 397.37239416990883 223.34384858044163 L 399.1144532837815 217.82334384858044 L 400.856512397654 214.0378548895899 L 402.59857151152664 211.82965299684545 L 404.3406306253992 219.7160883280757 L 406.0826897392718 220.34700315457414 L 407.82474885314446 215.61514195583598 L 409.56680796701704 214.51104100946375 L 411.3088670808896 209.46372239747635 L 413.0509261947622 213.24921135646687 L 414.7929853086348 205.20504731861197 L 416.53504442250744 206.62460567823345 L 418.27710353638 202.20820189274448 L 420.0191626502526 198.73817034700315 L 421.7670286278381 194.006309148265 L 423.5032808779978 190.06309148264987 L 425.2453399918704 187.85488958990535 L 426.987399105743 174.9211356466877 L 428.7294582196156 175.39432176656155 L 430.4715173334882 167.50788643533124 L 432.2135764473608 157.72870662460568 L 433.9556355612334 153.62776025236596 L 435.697694675106 155.04731861198738 L 437.4397537889786 152.52365930599368 L 439.18181290285116 158.5173501577287 L 440.9238720167238 153.78548895899056 L 442.6659311305964 150.00000000000003 L 444.407990244469 151.41955835962145 L 446.15004935834156 145.11041009463722 L 447.89210847221415 137.223974763407 L 449.6341675860868 138.9589905362776 L 451.3762266999594 134.2271293375394 L 453.11828581383196 124.92113564668773 L 454.86615179141745 118.4542586750789 L 456.6024040415772 119.71608832807567 L 458.3444631554498 117.19242902208202 L 460.08652226932236 120.66246056782336 L 461.82858138319494 113.72239747634069 L 463.57064049706753 109.14826498422713 L 465.3126996109402 105.20504731861195 L 467.05475872481276 107.7287066246057 L 468.79681783868534 103.62776025236599 L 470.5388769525579 101.57728706624607 L 472.2809360664305 103.15457413249214 L 474.02299518030316 100 L 475.76505429417574 104.41640378548902 L 477.5071134080483 106.94006309148267 L 479.2491725219209 105.67823343848579 L 480.9912316357935 108.0441640378549 L 482.73329074966614 104.73186119873822 L 484.4753498635387 110.09463722397481 L 486.2174089774113 110.56782334384854 L 487.9594680912839 113.72239747634069 L 489.70152720515654 120.5047318611987 L 491.4435863190291 121.1356466876972 L 493.1856454329017 122.71293375394328 L 494.9335114104872 124.29022082018923 L 496.6697636606469 122.39747634069397 L 498.4118227745195 128.70662460567826 L 500.1538818883921 129.96845425867514 L 501.8959410022647 133.9116719242902 L 503.6380001161373 135.96214511041012 L 505.38005923000986 136.5930599369085 L 507.1221183438825 141.16719242902207 L 508.8641774577551 135.33123028391162 L 510.6062365716277 137.69716088328073 L 512.3482956855003 146.84542586750788 L 514.0903547993729 147.31861198738173 L 515.8324139132455 150.6309148264984 L 517.5744730271181 164.66876971608835 L 519.3165321409906 170.66246056782333 L 521.0585912548632 176.97160883280756 L 522.8006503687359 179.9684542586751 L 524.5427094826084 184.85804416403786 L 526.290575460194 181.38801261829653 L 528.0268277103537 195.58359621451106 L 529.7688868242262 192.11356466876973 L 531.5109459380989 193.21766561514195 L 533.2530050519715 188.801261829653 L 534.995064165844 194.79495268138803 L 536.7371232797166 199.52681388012618 L 538.4791823935892 212.14511041009465 L 540.2212415074619 216.24605678233436 L 541.9633006213344 219.8738170347003 L 543.705359735207 226.49842271293377 L 545.4474188490797 232.33438485804416 L 547.1894779629522 229.81072555205046 L 548.9315370768248 235.33123028391165 L 550.6735961906975 243.05993690851736 L 552.41565530457 244.32176656151418 L 554.1577144184425 250.47318611987382 L 555.8997735323153 251.57728706624604 L 557.6418326461878 255.67823343848582 L 559.3838917600604 258.9905362776025 L 561.125950873933 256.15141955835963 L 562.8680099878056 257.88643533123025 L 564.6100691016782 260.88328075709774 L 566.3521282155508 264.8264984227129 L 568.0941873294234 268.1388012618296 L 569.836246443296 268.61198738170344 L 571.5783055571686 277.76025236593057 L 573.3203646710413 274.4479495268139 L 575.0914581034783 273.8170347003155 L 576.8335172173508 278.70662460567826 L 578.5755763312236 278.07570977917976 L 580.3176354450961 275.2365930599369 L 582.0596945589687 274.29022082018923 L 583.8017536728413 274.4479495268139 L 585.5438127867139 279.1798107255521 L 587.2858719005865 282.01892744479494 L 589.0279310144591 285.01577287066243 L 590.7699901283318 281.2302839116719 L 592.5120492422043 286.9085173501577 L 594.2541083560769 280.75709779179806 L 595.9961674699496 281.5457413249211 L 597.7382265838221 283.9116719242902 L 599.4802856976946 292.5867507886435 L 601.2223448115673 288.9589905362776 L 602.9644039254399 297.6340694006309 L 604.7064630393124 292.74447949526814 L 606.4485221531851 297.3186119873817 L 608.1905812670577 300.9463722397476 L 609.9326403809303 298.7381703470031 L 611.6746994948029 305.52050473186125 L 613.4167586086755 307.88643533123025 L 615.1588177225481 311.0410094637224 L 616.9008768364206 315.4574132492113 L 618.6429359502933 313.56466876971604 L 620.3849950641659 314.3533123028391 L 622.1270541780384 311.0410094637224 L 623.869113291911 311.0410094637224 L 625.6111724057837 314.8264984227129 L 627.3532315196562 316.87697160883283 L 629.0952906335289 327.4447949526814 L 630.8373497474015 326.02523659305996 L 632.579408861274 329.4952681388013 L 634.3214679751466 330.9148264984227 L 636.0635270890193 332.6498422712933 L 637.8055862028918 335.80441640378547 L 639.5476453167644 342.1135646687697 L 641.289704430637 341.16719242902207 L 643.0317635445097 340.22082018927443 L 644.7738226583822 342.1135646687697 L 646.5158817722548 345.8990536277603 L 648.2579408861275 348.26498422712933 L 650 350.78864353312304 L 650 400 Z" /><text  class="poloto_labels poloto_text poloto_title" alignment-baseline="start" text-anchor="middle" font-size="x-large" x="400" y="37.5" >Total players on 2021-08-10</text><text  class="poloto_labels poloto_text poloto_xname" alignment-baseline="start" text-anchor="middle" font-size="x-large" x="400" y="481.25" >Time</text><text  class="poloto_labels poloto_text poloto_yname" alignment-baseline="start" text-anchor="middle" font-size="x-large" transform="rotate(-90,37.5,250)" x="37.5" y="250" >Count</text><line  class="poloto_axis_lines" stroke="black" x1="208.04540967423495" x2="208.04540967423495" y1="400" y2="405" /><text  class="poloto_tick_labels poloto_text" alignment-baseline="start" text-anchor="middle" x="208.04540967423495" y="430" > 02:46:40</text><line  class="poloto_axis_lines" stroke="black" x1="266.1140468033215" x2="266.1140468033215" y1="400" y2="405" /><text  class="poloto_tick_labels poloto_text" alignment-baseline="start" text-anchor="middle" x="266.1140468033215" y="430" > 05:33:20</text><line  class="poloto_axis_lines" stroke="black" x1="324.1826839324081" x2="324.1826839324081" y1="400" y2="405" /><text  class="poloto_tick_labels poloto_text" alignment-baseline="start" text-anchor="middle" x="324.1826839324081" y="430" > 08:20:00</text><line  class="poloto_axis_lines" stroke="black" x1="382.2513210614947" x2="382.2513210614947" y1="400" y2="405" /><text  class="poloto_tick_labels poloto_text" alignment-baseline="start" text-anchor="middle" x="382.2513210614947" y="430" > 11:06:40</text><line  class="poloto_axis_lines" stroke="black" x1="440.3199581905813" x2="440.3199581905813" y1="400" y2="405" /><text  class="poloto_tick_labels poloto_text" alignment-baseline="start" text-anchor="middle" x="440.3199581905813" y="430" > 13:53:20</text><line  class="poloto_axis_lines" stroke="black" x1="498.38859531966784" x2="498.38859531966784" y1="400" y2="405" /><text  class="poloto_tick_labels poloto_text" alignment-baseline="start" text-anchor="middle" x="498.38859531966784" y="430" > 16:40:00</text><line  class="poloto_axis_lines" stroke="black" x1="556.4572324487544" x2="556.4572324487544" y1="400" y2="405" /><text  class="poloto_tick_labels poloto_text" alignment-baseline="start" text-anchor="middle" x="556.4572324487544" y="430" > 19:26:40</text><line  class="poloto_axis_lines" stroke="black" x1="614.525869577841" x2="614.525869577841" y1="400" y2="405" /><text  class="poloto_tick_labels poloto_text" alignment-baseline="start" text-anchor="middle" x="614.525869577841" y="430" > 22:13:20</text><line  class="poloto_axis_lines" stroke="black" x1="150" x2="144" y1="355.993690851735" y2="355.993690851735" /><text  class="poloto_tick_labels poloto_text" alignment-baseline="middle" text-anchor="end" x="135" y="355.993690851735" > 1500</text><line  class="poloto_axis_lines" stroke="black" x1="150" x2="144" y1="277.1293375394322" y2="277.1293375394322" /><text  class="poloto_tick_labels poloto_text" alignment-baseline="middle" text-anchor="end" x="135" y="277.1293375394322" > 2000</text><line  class="poloto_axis_lines" stroke="black" x1="150" x2="144" y1="198.2649842271294" y2="198.2649842271294" /><text  class="poloto_tick_labels poloto_text" alignment-baseline="middle" text-anchor="end" x="135" y="198.2649842271294" > 2500</text><line  class="poloto_axis_lines" stroke="black" x1="150" x2="144" y1="119.40063091482648" y2="119.40063091482648" /><text  class="poloto_tick_labels poloto_text" alignment-baseline="middle" text-anchor="end" x="135" y="119.40063091482648" > 3000</text><path  stroke="black" fill="none" class="poloto_axis_lines" style="stroke-dasharray:14.517159282271646;stroke-dashoffset:-58.045409674234946;" d=" M 150 400 L 650 400" /><path  stroke="black" fill="none" class="poloto_axis_lines" style="stroke-dasharray:7.886435331230284;stroke-dashoffset:-44.00630914826499;" d=" M 150 400 L 150 100" /></svg>