<svg class="poloto" width="800" height="500" viewBox="0 0 800 500" xmlns="http://www.w3.org/2000/svg"><style>.poloto { stroke-linecap:round; stroke-linejoin:round; font-family: 'Tahoma', sans-serif; background-color: AliceBlue;} .poloto_scatter{stroke-width:7} .poloto_line{stroke-width:2} .poloto_text{fill: black;} .poloto_axis_lines{stroke: black;stroke-width:3;fill:none;stroke-dasharray:none} .poloto0stroke{stroke:  blue;} .poloto1stroke{stroke:  red;} .poloto2stroke{stroke:  green;} .poloto3stroke{stroke:  gold;} .poloto4stroke{stroke:  aqua;} .poloto5stroke{stroke:  lime;} .poloto6stroke{stroke:  orange;} .poloto7stroke{stroke:  chocolate;} .poloto0fill{fill:blue;} .poloto1fill{fill:red;} .poloto2fill{fill:green;} .poloto3fill{fill:gold;} .poloto4fill{fill:aqua;} .poloto5fill{fill:lime;} .poloto6fill{fill:orange;} .poloto7fill{fill:chocolate;}</style><text  class="poloto_text poloto_legend_text" alignment-baseline="middle" text-anchor="start" font-size="large" x="675" y="100" ></text><path  class="poloto_linefill poloto0fill" d=" M 150 400 L 150 374.1046831955923 L 151.74216027874564 376.85950413223145 L 153.4843205574913 373.8292011019284 L 155.22648083623693 373.55371900826447 L 156.96864111498257 376.9972451790634 L 158.71080139372822 376.9972451790634 L 160.45296167247386 381.5426997245179 L 162.1951219512195 382.5068870523416 L 163.93728222996515 382.6446280991736 L 165.6794425087108 379.06336088154274 L 167.42160278745644 380.71625344352617 L 169.16376306620208 387.32782369146 L 170.90592334494772 390.90909090909093 L 172.64808362369337 390.22038567493115 L 174.390243902439 393.1129476584022 L 176.13240418118465 395.0413223140496 L 177.8745644599303 396.969696969697 L 179.61672473867597 397.24517906336087 L 181.3588850174216 394.07713498622593 L 183.10104529616726 396.6942148760331 L 184.8432055749129 400 L 186.58536585365854 390.77134986225894 L 188.3275261324042 388.8429752066116 L 190.06968641114983 390.4958677685951 L 191.81184668989548 388.4297520661157 L 193.55400696864112 388.7052341597796 L 195.29616724738676 386.5013774104683 L 197.0383275261324 388.4297520661157 L 198.78048780487805 390.4958677685951 L 200.5226480836237 390.08264462809916 L 202.26480836236934 386.6391184573003 L 204.00696864111498 386.5013774104683 L 205.74912891986062 386.22589531680444 L 207.49128919860627 384.1597796143251 L 209.2334494773519 383.05785123966945 L 210.97560975609755 381.1294765840221 L 212.7177700348432 379.20110192837467 L 214.45993031358887 379.3388429752066 L 216.2020905923345 376.58402203856747 L 217.94425087108016 373.9669421487604 L 219.6864111498258 370.79889807162533 L 221.42857142857144 369.69696969696975 L 223.1707317073171 372.5895316804408 L 224.91289198606273 373.6914600550964 L 226.65505226480838 370.52341597796146 L 228.39721254355402 365.56473829201104 L 230.13937282229966 366.2534435261708 L 231.8815331010453 368.0440771349862 L 233.62369337979095 369.69696969696975 L 235.3658536585366 374.24242424242425 L 237.10801393728224 375.6198347107438 L 238.85017421602788 375.06887052341597 L 240.59233449477352 372.8650137741047 L 242.33449477351917 367.6308539944904 L 244.0766550522648 364.04958677685954 L 245.81881533101046 361.1570247933885 L 247.5609756097561 362.39669421487605 L 249.30313588850174 357.43801652892563 L 251.0452961672474 350.55096418732785 L 252.78745644599303 349.03581267217635 L 254.52961672473867 344.7658402203857 L 256.2717770034843 346.6942148760331 L 258.01393728222996 346.0055096418733 L 259.7560975609756 346.0055096418733 L 261.49825783972125 347.38292011019286 L 263.2404181184669 344.3526170798898 L 264.98257839721254 341.59779614325066 L 266.7247386759582 340.633608815427 L 268.4668989547038 340.77134986225894 L 270.20905923344947 336.77685950413223 L 271.9512195121951 332.92011019283746 L 273.69337979094075 327.8236914600551 L 275.4355400696864 323.6914600550964 L 277.17770034843204 317.4931129476584 L 278.91986062717774 315.702479338843 L 280.6620209059233 314.87603305785126 L 282.404181184669 309.504132231405 L 284.1463414634146 304.54545454545456 L 285.8885017421603 301.6528925619835 L 287.6306620209059 295.4545454545455 L 289.3728222996516 296.1432506887053 L 291.1149825783972 300.4132231404959 L 292.8571428571429 294.90358126721765 L 294.5993031358885 293.66391184573 L 296.3414634146342 291.5977961432507 L 298.08362369337976 285.53719008264466 L 299.82578397212546 291.5977961432507 L 301.56794425087105 285.39944903581267 L 303.31010452961675 284.7107438016529 L 305.05226480836234 283.4710743801653 L 306.79442508710804 281.40495867768595 L 308.5365853658536 283.74655647382923 L 310.2787456445993 285.6749311294766 L 312.0209059233449 281.267217630854 L 313.7630662020906 279.75206611570246 L 315.5052264808362 276.44628099173553 L 317.2473867595819 278.23691460055096 L 318.9895470383275 279.3388429752066 L 320.7317073170732 277.96143250688704 L 322.4738675958188 279.3388429752066 L 324.2160278745645 279.75206611570246 L 325.9581881533101 276.8595041322314 L 327.70034843205576 279.75206611570246 L 329.4425087108014 276.1707988980716 L 331.18466898954705 277.1349862258953 L 332.9268292682927 275.4820936639119 L 334.66898954703834 272.4517906336088 L 336.411149825784 273.0027548209367 L 338.1533101045296 271.07438016528926 L 339.89547038327527 264.60055096418733 L 341.6376306620209 263.6363636363636 L 343.37979094076655 261.9834710743802 L 345.1219512195122 259.6418732782369 L 346.86411149825784 255.78512396694214 L 348.6062717770035 253.85674931129478 L 350.34843205574913 248.76033057851242 L 352.0905923344948 247.79614325068871 L 353.8327526132404 242.8374655647383 L 355.57491289198606 238.42975206611573 L 357.3170731707317 236.5013774104683 L 359.05923344947735 239.1184573002755 L 360.801393728223 245.3168044077135 L 362.54355400696863 238.70523415977965 L 364.2857142857143 235.81267217630852 L 366.0278745644599 238.42975206611573 L 367.77003484320556 232.92011019283746 L 369.5121951219512 234.71074380165288 L 371.25435540069685 244.21487603305786 L 372.9965156794425 240.35812672176309 L 374.73867595818814 235.6749311294766 L 376.4808362369338 235.95041322314052 L 378.2229965156795 232.78236914600552 L 379.96515679442507 224.24242424242425 L 381.70731707317077 221.6253443526171 L 383.44947735191636 215.0137741046832 L 385.19163763066206 206.06060606060606 L 386.93379790940764 205.6473829201102 L 388.67595818815334 205.78512396694214 L 390.41811846689893 200.27548209366392 L 392.16027874564463 192.42424242424244 L 393.9024390243902 193.25068870523415 L 395.6445993031359 193.52617079889808 L 397.3867595818815 188.01652892561987 L 399.1289198606272 186.5013774104683 L 400.8710801393728 184.71074380165288 L 402.6132404181185 182.09366391184574 L 404.3554006968641 176.3085399449036 L 406.0975609756098 173.6914600550964 L 407.8397212543554 175.3443526170799 L 409.58188153310107 170.79889807162533 L 411.3240418118467 167.63085399449034 L 413.06620209059236 166.25344352617083 L 414.808362369338 162.39669421487605 L 416.55052264808364 156.74931129476585 L 418.2926829268293 152.4793388429752 L 420.03484320557493 150.55096418732785 L 421.7770034843206 153.03030303030306 L 423.5191637630662 150.82644628099172 L 425.26132404181186 152.20385674931129 L 427.0034843205575 142.97520661157023 L 428.74564459930315 149.17355371900828 L 430.4878048780488 143.52617079889808 L 432.22996515679444 153.168044077135 L 433.9721254355401 147.65840220385678 L 435.7142857142857 144.4903581267218 L 437.45644599303137 142.97520661157023 L 439.198606271777 140.49586776859502 L 440.94076655052265 142.42424242424244 L 442.6829268292683 135.95041322314052 L 444.42508710801394 129.3388429752066 L 446.1672473867596 128.37465564738295 L 447.9094076655052 123.96694214876032 L 449.65156794425087 105.50964187327827 L 451.3937282229965 108.40220385674934 L 453.13588850174216 106.74931129476585 L 454.8780487804878 101.5151515151515 L 456.62020905923345 100 L 458.3623693379791 100.96418732782371 L 460.10452961672473 103.44352617079892 L 461.8466898954704 105.92286501377413 L 463.588850174216 106.06060606060606 L 465.33101045296166 107.85123966942149 L 467.0731707317073 109.36639118457299 L 468.81533101045295 118.31955922865012 L 470.5574912891986 120.6611570247934 L 472.29965156794424 118.59504132231405 L 474.0418118466899 117.21763085399448 L 475.7839721254355 117.90633608815426 L 477.52613240418117 117.21763085399448 L 479.2682926829268 116.66666666666669 L 481.01045296167246 121.6253443526171 L 482.7526132404181 122.31404958677689 L 484.49477351916374 121.48760330578511 L 486.2369337979094 126.44628099173553 L 487.97909407665503 127.8236914600551 L 489.7212543554007 134.71074380165288 L 491.4634146341463 139.94490358126723 L 493.20557491289196 146.0055096418733 L 494.9477351916376 148.4848484848485 L 496.68989547038325 145.86776859504135 L 498.4320557491289 149.86225895316807 L 500.17421602787454 155.09641873278235 L 501.91637630662024 160.05509641873277 L 503.6585365853659 164.60055096418733 L 505.4006968641115 164.60055096418733 L 507.14285714285717 166.80440771349862 L 508.8850174216028 168.04407713498625 L 510.62717770034845 172.58953168044076 L 512.3693379790941 186.77685950413223 L 514.1114982578397 182.6446280991736 L 515.8536585365854 196.0055096418733 L 517.5958188153311 198.76033057851242 L 519.3379790940767 206.198347107438 L 521.0801393728223 201.23966942148763 L 522.822299651568 206.88705234159778 L 524.5644599303137 211.01928374655648 L 526.3066202090592 213.22314049586777 L 528.0487804878048 220.6611570247934 L 529.7909407665505 229.4765840220386 L 531.5331010452962 235.53719008264466 L 533.2752613240418 237.87878787878788 L 535.0174216027874 239.53168044077137 L 536.7595818815331 239.8071625344353 L 538.5017421602788 237.1900826446281 L 540.2439024390244 236.6391184573003 L 541.98606271777 240.08264462809916 L 543.7282229965157 242.8374655647383 L 545.4703832752614 251.6528925619835 L 547.212543554007 260.88154269972455 L 548.9547038327526 250.137741046832 L 550.6968641114983 265.2892561983471 L 552.439024390244 252.61707988980714 L 554.1811846689895 256.4738292011019 L 555.9233449477351 256.74931129476585 L 557.6655052264808 250.82644628099172 L 559.4076655052265 260.19283746556476 L 561.1498257839721 267.35537190082647 L 562.8919860627177 268.1818181818182 L 564.6341463414634 267.4931129476584 L 566.3763066202091 260.46831955922863 L 568.1184668989547 262.8099173553719 L 569.8606271777003 266.2534435261708 L 571.602787456446 267.90633608815426 L 573.3449477351917 269.55922865013775 L 575.0871080139373 272.58953168044076 L 576.8292682926829 273.1404958677686 L 578.5714285714286 280.57851239669424 L 580.3135888501743 284.8484848484849 L 582.0557491289198 284.9862258953168 L 583.7979094076654 291.04683195592287 L 585.5400696864111 290.633608815427 L 587.2822299651568 290.08264462809916 L 589.0243902439024 294.21487603305786 L 590.766550522648 295.0413223140496 L 592.5087108013937 297.38292011019286 L 594.2508710801394 299.3112947658402 L 595.993031358885 304.40771349862257 L 597.7351916376306 308.1267217630854 L 599.4773519163763 312.8099173553719 L 601.219512195122 315.8402203856749 L 602.9616724738676 316.1157024793389 L 604.7038327526133 319.00826446280996 L 606.445993031359 318.732782369146 L 608.1881533101046 316.9421487603306 L 609.9303135888501 323.2782369146006 L 611.6724738675958 325.3443526170799 L 613.4146341463415 325.8953168044077 L 615.1567944250871 325.75757575757575 L 616.8989547038327 326.58402203856747 L 618.6411149825784 324.3801652892562 L 620.3832752613241 328.7878787878788 L 622.1254355400697 336.08815426997245 L 623.8675958188153 334.1597796143251 L 625.609756097561 339.9449035812672 L 627.3519163763067 339.9449035812672 L 629.0940766550523 342.97520661157023 L 630.8362369337979 341.4600550964187 L 632.5783972125436 347.93388429752065 L 634.3205574912893 353.030303030303 L 636.0627177700349 359.22865013774106 L 637.8048780487804 361.2947658402204 L 639.5470383275261 362.25895316804406 L 641.2891986062718 368.3195592286502 L 643.0313588850174 369.1460055096419 L 644.773519163763 375.20661157024796 L 646.5156794425087 370.24793388429754 L 648.2578397212544 371.21212121212125 L 650 374.93112947658403 L 650 400 Z" /><text  class="poloto_labels poloto_text poloto_title" alignment-baseline="start" text-anchor="middle" font-size="x-large" x="400" y="37.5" >Total players on 2021-12-04</text><text  class="poloto_labels poloto_text poloto_xname" alignment-baseline="start" text-anchor="middle" font-size="x-large" x="400" y="481.25" >Time</text><text  class="poloto_labels poloto_text poloto_yname" alignment-baseline="start" text-anchor="middle" font-size="x-large" transform="rotate(-90,37.5,250)" x="37.5" y="250" >Count</text><line  class="poloto_axis_lines" stroke="black" x1="150" x2="150" y1="400" y2="405" /><text  class="poloto_tick_labels poloto_text" alignment-baseline="start" text-anchor="middle" x="150" y="430" > 00:00</text><line  class="poloto_axis_lines" stroke="black" x1="266.14401858304296" x2="266.14401858304296" y1="400" y2="405" /><text  class="poloto_tick_labels poloto_text" alignment-baseline="start" text-anchor="middle" x="266.14401858304296" y="430" > 06:00</text><line  class="poloto_axis_lines" stroke="black" x1="382.2880371660859" x2="382.2880371660859" y1="400" y2="405" /><text  class="poloto_tick_labels poloto_text" alignment-baseline="start" text-anchor="middle" x="382.2880371660859" y="430" > 11:00</text><line  class="poloto_axis_lines" stroke="black" x1="498.4320557491289" x2="498.4320557491289" y1="400" y2="405" /><text  class="poloto_tick_labels poloto_text" alignment-baseline="start" text-anchor="middle" x="498.4320557491289" y="430" > 17:00</text><line  class="poloto_axis_lines" stroke="black" x1="614.5760743321719" x2="614.5760743321719" y1="400" y2="405" /><text  class="poloto_tick_labels poloto_text" alignment-baseline="start" text-anchor="middle" x="614.5760743321719" y="430" > 22:00</text><line  class="poloto_axis_lines" stroke="black" x1="150" x2="144" y1="344.3526170798898" y2="344.3526170798898" /><text  class="poloto_tick_labels poloto_text" alignment-baseline="middle" text-anchor="end" x="135" y="344.3526170798898" > 1500</text><line  class="poloto_axis_lines" stroke="black" x1="150" x2="144" y1="275.4820936639119" y2="275.4820936639119" /><text  class="poloto_tick_labels poloto_text" alignment-baseline="middle" text-anchor="end" x="135" y="275.4820936639119" > 2000</text><line  class="poloto_axis_lines" stroke="black" x1="150" x2="144" y1="206.6115702479339" y2="206.6115702479339" /><text  class="poloto_tick_labels poloto_text" alignment-baseline="middle" text-anchor="end" x="135" y="206.6115702479339" > 2500</text><line  class="poloto_axis_lines" stroke="black" x1="150" x2="144" y1="137.74104683195594" y2="137.74104683195594" /><text  class="poloto_tick_labels poloto_text" alignment-baseline="middle" text-anchor="end" x="135" y="137.74104683195594" > 3000</text><path  stroke="black" fill="none" class="poloto_axis_lines" style="stroke-dasharray:14.518002322880372;stroke-dashoffset:-0;" d=" M 150 400 L 650 400" /><path  stroke="black" fill="none" class="poloto_axis_lines" style="stroke-dasharray:6.887052341597796;stroke-dashoffset:-55.647382920110175;" d=" M 150 400 L 150 100" /></svg>