<svg class="poloto" width="800" height="500" viewBox="0 0 800 500" xmlns="http://www.w3.org/2000/svg"><style>.poloto { stroke-linecap:round; stroke-linejoin:round; font-family: 'Tahoma', sans-serif; background-color: AliceBlue;} .poloto_scatter{stroke-width:7} .poloto_line{stroke-width:2} .poloto_text{fill: black;} .poloto_axis_lines{stroke: black;stroke-width:3;fill:none;stroke-dasharray:none} .poloto0stroke{stroke:  blue;} .poloto1stroke{stroke:  red;} .poloto2stroke{stroke:  green;} .poloto3stroke{stroke:  gold;} .poloto4stroke{stroke:  aqua;} .poloto5stroke{stroke:  lime;} .poloto6stroke{stroke:  orange;} .poloto7stroke{stroke:  chocolate;} .poloto0fill{fill:blue;} .poloto1fill{fill:red;} .poloto2fill{fill:green;} .poloto3fill{fill:gold;} .poloto4fill{fill:aqua;} .poloto5fill{fill:lime;} .poloto6fill{fill:orange;} .poloto7fill{fill:chocolate;}</style><text  class="poloto_text poloto_legend_text" alignment-baseline="middle" text-anchor="start" font-size="large" x="675" y="100" ></text><path  class="poloto_linefill poloto0fill" d=" M 150 400 L 150 339.5973154362416 L 151.74216027874564 331.7673378076063 L 153.4843205574913 329.08277404921705 L 155.22648083623693 328.18791946308727 L 156.96864111498257 333.1096196868009 L 158.71080139372822 341.1633109619687 L 160.45296167247386 340.71588366890376 L 162.1951219512195 346.08501118568233 L 163.93728222996515 349.4407158836689 L 165.6794425087108 355.0335570469799 L 167.42160278745644 356.37583892617454 L 169.16376306620208 363.7583892617449 L 170.90592334494772 378.7472035794184 L 172.64808362369337 357.9418344519016 L 174.390243902439 369.7986577181208 L 176.13240418118465 376.2863534675615 L 177.8745644599303 376.95749440715883 L 179.61672473867597 383.668903803132 L 181.3588850174216 388.8143176733781 L 183.10104529616726 389.26174496644296 L 184.8432055749129 385.68232662192395 L 186.58536585365854 387.6957494407159 L 188.3275261324042 384.34004474272933 L 190.06968641114983 383.2214765100671 L 191.81184668989548 390.3803131991051 L 193.55400696864112 396.1968680089485 L 195.29616724738676 390.3803131991051 L 197.0383275261324 376.510067114094 L 198.78048780487805 400 L 200.5226480836237 398.88143176733786 L 202.26480836236934 397.31543624161077 L 204.00696864111498 397.0917225950783 L 205.74912891986062 392.841163310962 L 207.49128919860627 395.97315436241615 L 209.2334494773519 394.63087248322154 L 210.97560975609755 392.17002237136467 L 212.72357723577235 390.3803131991051 L 214.45993031358887 393.73601789709176 L 216.2020905923345 392.841163310962 L 217.94425087108016 393.73601789709176 L 219.6864111498258 393.2885906040268 L 221.42857142857144 390.82774049217005 L 223.1707317073171 380.089485458613 L 224.91289198606273 385.01118568232664 L 226.65505226480838 381.6554809843401 L 228.39721254355402 377.62863534675614 L 230.13937282229966 378.29977628635345 L 231.8815331010453 377.40492170022367 L 233.62369337979095 379.4183445190157 L 235.3658536585366 373.82550335570465 L 237.10801393728224 371.58836689038037 L 238.85017421602788 366.66666666666663 L 240.59233449477352 364.42953020134235 L 242.33449477351917 361.744966442953 L 244.0766550522648 384.11633109619686 L 245.81881533101046 354.586129753915 L 247.5609756097561 358.61297539149894 L 249.30313588850174 350.5592841163311 L 251.0452961672474 348.99328859060404 L 252.78745644599303 351.00671140939596 L 254.52961672473867 342.5055928411633 L 256.2717770034843 336.9127516778524 L 258.01393728222996 335.1230425055928 L 259.7560975609756 342.95302013422815 L 261.49825783972125 336.2416107382551 L 263.2404181184669 337.13646532438474 L 264.9883855981417 332.66219239373606 L 266.7247386759582 339.8210290827741 L 268.4668989547038 342.0581655480985 L 270.20905923344947 344.51901565995524 L 271.9512195121951 339.5973154362416 L 273.69337979094075 336.6890380313199 L 275.4355400696864 338.4787472035795 L 277.17770034843204 334.675615212528 L 278.9198606271777 332.4384787472036 L 280.6620209059233 327.74049217002243 L 282.40418118466897 324.60850111856826 L 284.1463414634146 321.02908277404924 L 285.88850174216026 313.42281879194627 L 287.6306620209059 313.64653243847874 L 289.37282229965155 314.98881431767336 L 291.1149825783972 319.910514541387 L 292.85714285714283 322.8187919463087 L 294.5993031358885 317.22595078299776 L 296.3414634146342 314.765100671141 L 298.08362369337976 312.3042505592841 L 299.82578397212546 312.08053691275165 L 301.56794425087105 310.06711409395973 L 303.31010452961675 310.06711409395973 L 305.05226480836234 309.3959731543624 L 306.79442508710804 299.7762863534675 L 308.5365853658536 303.579418344519 L 310.2787456445993 302.2371364653244 L 312.0209059233449 297.7628635346756 L 313.7630662020906 295.5257270693512 L 315.5052264808362 279.64205816554806 L 317.2473867595819 270.4697986577181 L 318.9895470383275 273.3780760626398 L 320.7317073170732 269.1275167785235 L 322.4738675958188 269.1275167785235 L 324.2160278745645 274.2729306487696 L 325.95818815331006 268.4563758389262 L 327.70034843205576 272.2595078299777 L 329.44250871080135 271.81208053691273 L 331.18466898954705 274.2729306487696 L 332.92682926829264 268.68008948545867 L 334.66898954703834 264.42953020134235 L 336.4111498257839 264.42953020134235 L 338.1533101045296 258.38926174496646 L 339.8954703832752 252.57270693512308 L 341.6376306620209 251.90156599552571 L 343.3797909407665 250.33557046979868 L 345.1219512195122 255.0335570469799 L 346.86411149825784 246.5324384787472 L 348.6062717770035 244.7427293064877 L 350.34843205574913 249.4407158836689 L 352.0905923344948 253.0201342281879 L 353.8327526132404 271.3646532438479 L 355.57491289198606 248.3221476510067 L 357.3170731707317 253.4675615212528 L 359.05923344947735 229.97762863534675 L 360.801393728223 233.78076062639823 L 362.54355400696863 217.8970917225951 L 364.2857142857143 208.05369127516778 L 366.0278745644599 210.96196868008948 L 367.77003484320556 203.57941834451904 L 369.5121951219512 204.02684563758393 L 371.25435540069685 209.39597315436245 L 372.9965156794425 197.76286353467563 L 374.73867595818814 191.94630872483222 L 376.4808362369338 197.31543624161074 L 378.2229965156794 197.31543624161074 L 379.96515679442507 192.61744966442953 L 381.7073170731707 187.248322147651 L 383.44947735191636 192.61744966442953 L 385.191637630662 197.09172259507832 L 386.93379790940764 191.2751677852349 L 388.6759581881533 186.80089485458612 L 390.41811846689893 199.32885906040272 L 392.1602787456446 202.01342281879195 L 393.9024390243902 200.89485458612975 L 395.6445993031359 214.31767337807608 L 397.3867595818815 190.15659955257271 L 399.1289198606272 197.76286353467563 L 400.8710801393728 202.23713646532443 L 402.6132404181185 175.83892617449666 L 404.3554006968641 187.6957494407159 L 406.0975609756097 186.1297539149888 L 407.83972125435537 195.52572706935123 L 409.581881533101 189.03803131991052 L 411.32404181184666 192.61744966442953 L 413.0662020905923 189.70917225950782 L 414.80836236933794 190.15659955257271 L 416.5505226480836 181.4317673378076 L 418.29268292682923 170.46979865771814 L 420.0348432055749 165.54809843400452 L 421.7770034843206 168.90380313199105 L 423.5191637630662 174.49664429530205 L 425.26132404181186 174.04921700223716 L 427.0034843205575 177.8523489932886 L 428.74564459930315 185.4586129753915 L 430.4878048780488 179.19463087248326 L 432.22996515679444 153.2438478747204 L 433.9721254355401 144.96644295302016 L 435.7142857142857 159.7315436241611 L 437.45644599303137 144.7427293064877 L 439.198606271777 133.55704697986573 L 440.94076655052265 135.12304250559282 L 442.6829268292683 121.70022371364655 L 444.42508710801394 126.3982102908277 L 446.1672473867596 118.3445190156599 L 447.9094076655052 128.85906040268458 L 449.65156794425087 126.84563758389265 L 451.3937282229965 116.10738255033561 L 453.13588850174216 109.84340044742726 L 454.8780487804878 129.08277404921694 L 456.62020905923345 107.3825503355705 L 458.3623693379791 118.56823266219237 L 460.10452961672473 125.50335570469792 L 461.8466898954704 104.25055928411632 L 463.588850174216 102.2371364653244 L 465.33101045296166 107.82997762863533 L 467.0731707317073 123.26621923937364 L 468.81533101045295 104.4742729306488 L 470.5574912891986 109.6196868008949 L 472.29965156794424 119.91051454138699 L 474.0418118466899 124.16107382550331 L 475.7839721254355 110.51454138702456 L 477.52613240418117 101.78970917225945 L 479.2682926829268 105.81655480984341 L 481.01045296167246 110.51454138702456 L 482.7526132404181 119.23937360178968 L 484.49477351916374 140.04474272930645 L 486.2369337979094 116.77852348993292 L 487.97909407665503 117.67337807606259 L 489.7212543554007 108.72483221476512 L 491.4634146341463 106.48769574944072 L 493.20557491289196 117.00223713646528 L 494.9477351916376 108.50111856823264 L 496.68989547038325 108.94854586129748 L 498.4320557491289 110.96196868008951 L 500.17421602787454 100 L 501.9163763066202 109.39597315436242 L 503.6585365853658 122.37136465324386 L 505.40069686411147 125.05592841163309 L 507.1428571428571 132.4384787472036 L 508.88501742160275 144.7427293064877 L 510.6271777003484 139.14988814317667 L 512.3693379790941 172.93064876957496 L 514.1114982578397 171.58836689038034 L 515.8536585365853 172.48322147651007 L 517.595818815331 166.66666666666666 L 519.3379790940767 171.58836689038034 L 521.0801393728223 179.86577181208057 L 522.822299651568 181.8791946308725 L 524.5644599303137 221.70022371364652 L 526.3066202090592 184.7874720357942 L 528.0487804878048 191.49888143176733 L 529.7909407665505 206.26398210290827 L 531.5331010452962 215.2125279642058 L 533.2752613240418 220.1342281879195 L 535.0174216027874 214.09395973154366 L 536.7595818815331 214.5413870246085 L 538.5017421602788 204.92170022371366 L 540.2439024390244 202.90827740492173 L 541.98606271777 201.11856823266223 L 543.7282229965157 205.14541387024607 L 545.4703832752614 209.84340044742729 L 547.212543554007 224.8322147651007 L 548.9547038327526 220.58165548098438 L 550.6968641114983 244.51901565995527 L 552.439024390244 245.8612975391499 L 554.1811846689895 229.08277404921702 L 555.9233449477351 225.72706935123043 L 557.6655052264808 225.27964205816554 L 559.4076655052265 239.37360178970917 L 561.1498257839721 240.49217002237137 L 562.8919860627177 225.05592841163312 L 564.6341463414634 239.37360178970917 L 566.3763066202091 246.9798657718121 L 568.1184668989547 248.09843400447429 L 569.8606271777003 238.03131991051455 L 571.602787456446 243.17673378076066 L 573.3449477351917 242.05816554809846 L 575.0871080139373 241.16331096196868 L 576.8292682926829 241.16331096196868 L 578.5714285714286 250.5592841163311 L 580.3135888501743 224.8322147651007 L 582.0557491289198 232.43847874720362 L 583.7979094076654 230.87248322147653 L 585.5400696864111 253.69127516778522 L 587.2822299651568 250.5592841163311 L 589.0243902439024 240.49217002237137 L 590.766550522648 231.76733780760625 L 592.5087108013937 241.83445190156598 L 594.2508710801394 240.71588366890384 L 595.993031358885 257.71812080536915 L 597.7351916376306 258.61297539149894 L 599.4773519163763 273.3780760626398 L 601.219512195122 261.0738255033557 L 602.9616724738676 256.5995525727069 L 604.7038327526132 252.7964205816555 L 606.4459930313589 257.2706935123043 L 608.1881533101046 262.19239373601795 L 609.9303135888501 271.81208053691273 L 611.6724738675957 273.6017897091723 L 613.4146341463414 276.510067114094 L 615.1567944250871 284.5637583892618 L 616.8989547038327 290.15659955257274 L 618.6411149825783 285.2348993288591 L 620.383275261324 292.841163310962 L 622.1254355400697 290.15659955257274 L 623.8675958188153 293.5123042505593 L 625.609756097561 292.39373601789714 L 627.3519163763067 292.17002237136467 L 629.0940766550523 288.3668903803132 L 630.8362369337979 291.9463087248322 L 632.5783972125436 299.55257270693517 L 634.3205574912893 314.31767337807605 L 636.0627177700349 310.73825503355704 L 637.8048780487804 315.4362416107383 L 639.5470383275261 310.06711409395973 L 641.2891986062718 334.4519015659955 L 643.0313588850174 316.331096196868 L 644.773519163763 319.2393736017897 L 646.5156794425087 329.5302013422819 L 648.2578397212544 343.62416107382546 L 650 337.5838926174497 L 650 400 Z" /><text  class="poloto_labels poloto_text poloto_title" alignment-baseline="start" text-anchor="middle" font-size="x-large" x="400" y="37.5" >Total players on 2021-07-10</text><text  class="poloto_labels poloto_text poloto_xname" alignment-baseline="start" text-anchor="middle" font-size="x-large" x="400" y="481.25" >Time</text><text  class="poloto_labels poloto_text poloto_yname" alignment-baseline="start" text-anchor="middle" font-size="x-large" transform="rotate(-90,37.5,250)" x="37.5" y="250" >Count</text><line  class="poloto_axis_lines" stroke="black" x1="208.0487804878049" x2="208.0487804878049" y1="400" y2="405" /><text  class="poloto_tick_labels poloto_text" alignment-baseline="start" text-anchor="middle" x="208.0487804878049" y="430" > 03:00</text><line  class="poloto_axis_lines" stroke="black" x1="266.1207897793264" x2="266.1207897793264" y1="400" y2="405" /><text  class="poloto_tick_labels poloto_text" alignment-baseline="start" text-anchor="middle" x="266.1207897793264" y="430" > 06:00</text><line  class="poloto_axis_lines" stroke="black" x1="324.19279907084785" x2="324.19279907084785" y1="400" y2="405" /><text  class="poloto_tick_labels poloto_text" alignment-baseline="start" text-anchor="middle" x="324.19279907084785" y="430" > 08:00</text><line  class="poloto_axis_lines" stroke="black" x1="382.2648083623693" x2="382.2648083623693" y1="400" y2="405" /><text  class="poloto_tick_labels poloto_text" alignment-baseline="start" text-anchor="middle" x="382.2648083623693" y="430" > 11:00</text><line  class="poloto_axis_lines" stroke="black" x1="440.3368176538908" x2="440.3368176538908" y1="400" y2="405" /><text  class="poloto_tick_labels poloto_text" alignment-baseline="start" text-anchor="middle" x="440.3368176538908" y="430" > 14:00</text><line  class="poloto_axis_lines" stroke="black" x1="498.4088269454123" x2="498.4088269454123" y1="400" y2="405" /><text  class="poloto_tick_labels poloto_text" alignment-baseline="start" text-anchor="middle" x="498.4088269454123" y="430" > 17:00</text><line  class="poloto_axis_lines" stroke="black" x1="556.4808362369338" x2="556.4808362369338" y1="400" y2="405" /><text  class="poloto_tick_labels poloto_text" alignment-baseline="start" text-anchor="middle" x="556.4808362369338" y="430" > 19:00</text><line  class="poloto_axis_lines" stroke="black" x1="614.5528455284552" x2="614.5528455284552" y1="400" y2="405" /><text  class="poloto_tick_labels poloto_text" alignment-baseline="start" text-anchor="middle" x="614.5528455284552" y="430" > 22:00</text><line  class="poloto_axis_lines" stroke="black" x1="150" x2="144" y1="387.4720357941834" y2="387.4720357941834" /><text  class="poloto_tick_labels poloto_text" alignment-baseline="middle" text-anchor="end" x="135" y="387.4720357941834" > 1200</text><line  class="poloto_axis_lines" stroke="black" x1="150" x2="144" y1="342.7293064876958" y2="342.7293064876958" /><text  class="poloto_tick_labels poloto_text" alignment-baseline="middle" text-anchor="end" x="135" y="342.7293064876958" > 1400</text><line  class="poloto_axis_lines" stroke="black" x1="150" x2="144" y1="297.9865771812081" y2="297.9865771812081" /><text  class="poloto_tick_labels poloto_text" alignment-baseline="middle" text-anchor="end" x="135" y="297.9865771812081" > 1600</text><line  class="poloto_axis_lines" stroke="black" x1="150" x2="144" y1="253.24384787472036" y2="253.24384787472036" /><text  class="poloto_tick_labels poloto_text" alignment-baseline="middle" text-anchor="end" x="135" y="253.24384787472036" > 1800</text><line  class="poloto_axis_lines" stroke="black" x1="150" x2="144" y1="208.50111856823264" y2="208.50111856823264" /><text  class="poloto_tick_labels poloto_text" alignment-baseline="middle" text-anchor="end" x="135" y="208.50111856823264" > 2000</text><line  class="poloto_axis_lines" stroke="black" x1="150" x2="144" y1="163.75838926174504" y2="163.75838926174504" /><text  class="poloto_tick_labels poloto_text" alignment-baseline="middle" text-anchor="end" x="135" y="163.75838926174504" > 2200</text><line  class="poloto_axis_lines" stroke="black" x1="150" x2="144" y1="119.0156599552572" y2="119.0156599552572" /><text  class="poloto_tick_labels poloto_text" alignment-baseline="middle" text-anchor="end" x="135" y="119.0156599552572" > 2400</text><path  stroke="black" fill="none" class="poloto_axis_lines" style="stroke-dasharray:14.518002322880372;stroke-dashoffset:-58.04878048780488;" d=" M 150 400 L 650 400" /><path  stroke="black" fill="none" class="poloto_axis_lines" style="stroke-dasharray:11.185682326621924;stroke-dashoffset:-12.527964205816573;" d=" M 150 400 L 150 100" /></svg>