<svg class="poloto" width="800" height="500" viewBox="0 0 800 500" xmlns="http://www.w3.org/2000/svg"><style>.poloto { stroke-linecap:round; stroke-linejoin:round; font-family: 'Tahoma', sans-serif; background-color: AliceBlue;} .poloto_scatter{stroke-width:7} .poloto_line{stroke-width:2} .poloto_text{fill: black;} .poloto_axis_lines{stroke: black;stroke-width:3;fill:none;stroke-dasharray:none} .poloto0stroke{stroke:  blue;} .poloto1stroke{stroke:  red;} .poloto2stroke{stroke:  green;} .poloto3stroke{stroke:  gold;} .poloto4stroke{stroke:  aqua;} .poloto5stroke{stroke:  lime;} .poloto6stroke{stroke:  orange;} .poloto7stroke{stroke:  chocolate;} .poloto0fill{fill:blue;} .poloto1fill{fill:red;} .poloto2fill{fill:green;} .poloto3fill{fill:gold;} .poloto4fill{fill:aqua;} .poloto5fill{fill:lime;} .poloto6fill{fill:orange;} .poloto7fill{fill:chocolate;}</style><text  class="poloto_text poloto_legend_text" alignment-baseline="middle" text-anchor="start" font-size="large" x="675" y="100" ></text><path  class="poloto_linefill poloto0fill" d=" M 150 400 L 150 340.7068062827225 L 151.74216027874564 347.18586387434556 L 153.4843205574913 342.67015706806285 L 155.22648083623693 353.8612565445026 L 156.96864111498257 355.0392670157068 L 158.71080139372822 355.82460732984293 L 160.45296167247386 356.413612565445 L 162.1951219512195 356.413612565445 L 163.93728222996515 363.0890052356021 L 165.6794425087108 361.7146596858639 L 167.42160278745644 359.3586387434555 L 169.16376306620208 354.0575916230366 L 170.90592334494772 356.21727748691103 L 172.64808362369337 362.30366492146595 L 174.390243902439 364.2670157068063 L 176.13240418118465 371.72774869109946 L 177.8745644599303 369.7643979057592 L 179.61672473867597 377.22513089005236 L 181.3588850174216 376.83246073298426 L 183.10104529616726 372.90575916230364 L 184.8432055749129 370.9424083769634 L 186.58536585365854 368.586387434555 L 188.3275261324042 376.0471204188482 L 190.06968641114983 385.4712041884817 L 191.81184668989548 387.23821989528795 L 193.55400696864112 390.5759162303665 L 195.29616724738676 390.18324607329845 L 197.0383275261324 393.71727748691103 L 198.78048780487805 395.6806282722513 L 200.5226480836237 400 L 202.26480836236934 398.0366492146597 L 204.00696864111498 399.2146596858639 L 205.74912891986062 399.4109947643979 L 207.49128919860627 393.71727748691103 L 209.2334494773519 395.4842931937173 L 210.97560975609755 389.7905759162304 L 212.7177700348432 391.16492146596863 L 214.45993031358887 388.21989528795814 L 216.2020905923345 388.21989528795814 L 217.94425087108016 384.2931937172775 L 219.6864111498258 381.151832460733 L 221.42857142857144 385.27486910994764 L 223.1707317073171 380.9554973821989 L 224.91289198606273 383.9005235602094 L 226.65505226480838 378.9921465968587 L 228.39721254355402 379.9738219895288 L 230.13937282229966 376.4397905759163 L 231.8815331010453 381.151832460733 L 233.62369337979095 388.6125654450262 L 235.3658536585366 388.4162303664922 L 237.10801393728224 385.4712041884817 L 238.85017421602788 379.9738219895288 L 240.59233449477352 384.88219895287955 L 242.33449477351917 380.5628272251309 L 244.0766550522648 381.9371727748691 L 245.81881533101046 384.2931937172775 L 247.5609756097561 381.5445026178011 L 249.30313588850174 384.09685863874347 L 251.0452961672474 377.22513089005236 L 252.78745644599303 375.4581151832461 L 254.52961672473867 376.0471204188482 L 256.2717770034843 377.81413612565444 L 258.01393728222996 372.5130890052356 L 259.7560975609756 373.8874345549738 L 261.49825783972125 377.81413612565444 L 263.2404181184669 374.28010471204186 L 264.98257839721254 368.78272251308897 L 266.7247386759582 374.28010471204186 L 268.4668989547038 369.56806282722516 L 270.20905923344947 362.30366492146595 L 271.9512195121951 357.19895287958116 L 273.69337979094075 353.66492146596863 L 275.4355400696864 351.70157068062827 L 277.17770034843204 350.5235602094241 L 278.91986062717774 348.5602094240838 L 280.6620209059233 346.4005235602094 L 282.404181184669 349.3455497382199 L 284.1463414634146 350.32722513089004 L 285.8885017421603 344.63350785340316 L 287.6306620209059 346.2041884816754 L 289.3728222996516 352.2905759162304 L 291.1149825783972 355.6282722513089 L 292.8571428571429 359.5549738219895 L 294.5993031358885 359.9476439790576 L 296.3414634146342 356.80628272251306 L 298.08362369337976 354.0575916230366 L 299.82578397212546 351.70157068062827 L 301.56794425087105 348.9528795811518 L 303.31010452961675 350.5235602094241 L 305.05226480836234 346.0078534031413 L 306.79442508710804 349.934554973822 L 308.5365853658536 349.934554973822 L 310.2787456445993 346.0078534031413 L 312.0209059233449 342.27748691099475 L 313.7630662020906 340.5104712041885 L 315.5052264808362 342.0811518324607 L 317.2473867595819 338.35078534031413 L 318.9895470383275 336.78010471204186 L 320.7317073170732 335.0130890052356 L 322.4738675958188 332.6570680628272 L 324.2160278745645 331.479057591623 L 325.9581881533101 329.51570680628276 L 327.70034843205576 328.33769633507853 L 329.4425087108014 330.69371727748694 L 331.18466898954705 328.14136125654454 L 332.9268292682927 327.15968586387436 L 334.66898954703834 326.3743455497382 L 336.411149825784 325.3926701570681 L 338.1533101045296 320.28795811518324 L 339.89547038327527 319.5026178010471 L 341.6376306620209 313.61256544502623 L 343.37979094076655 306.151832460733 L 345.1219512195122 305.7591623036649 L 346.86411149825784 310.0785340314136 L 348.6062717770035 306.348167539267 L 350.34843205574913 300.45811518324604 L 352.0905923344948 304.1884816753927 L 353.8327526132404 301.6361256544502 L 355.57491289198606 297.90575916230364 L 357.3170731707317 291.62303664921467 L 359.05923344947735 287.1073298429319 L 360.801393728223 288.08900523560214 L 362.54355400696863 283.37696335078533 L 364.2857142857143 271.98952879581157 L 366.0278745644599 268.06282722513095 L 367.77003484320556 273.16753926701574 L 369.5121951219512 276.30890052356017 L 371.25435540069685 279.0575916230366 L 372.9965156794425 282.19895287958116 L 374.73867595818814 270.22251308900525 L 376.4808362369338 272.38219895287955 L 378.2229965156795 270.4188481675393 L 379.96515679442507 271.98952879581157 L 381.70731707317077 265.3141361256545 L 383.44947735191636 263.9397905759163 L 385.19163763066206 253.53403141361255 L 386.93379790940764 256.67539267015707 L 388.67595818815334 247.25130890052358 L 390.41811846689893 236.06020942408375 L 392.16027874564463 235.07853403141362 L 393.9024390243902 230.17015706806282 L 395.6445993031359 232.52617801047123 L 397.3867595818815 227.61780104712042 L 399.1289198606272 217.99738219895286 L 400.8710801393728 215.24869109947642 L 402.6132404181185 203.8612565445026 L 404.3554006968641 197.57853403141362 L 406.0975609756098 193.651832460733 L 407.8397212543554 190.31413612565447 L 409.58188153310107 184.03141361256544 L 411.3240418118467 177.35602094240838 L 413.06620209059236 172.25130890052353 L 414.808362369338 163.8089005235602 L 416.55052264808364 156.7408376963351 L 418.2926829268293 157.91884816753927 L 420.03484320557493 155.7591623036649 L 421.7770034843206 152.22513089005233 L 423.5191637630662 154.97382198952877 L 425.26132404181186 152.42146596858638 L 427.0034843205575 138.48167539267013 L 428.74564459930315 135.14397905759165 L 430.4878048780488 135.14397905759165 L 432.22996515679444 133.57329842931938 L 433.9721254355401 131.41361256544496 L 435.7142857142857 131.41361256544496 L 437.45644599303137 121.00785340314133 L 439.198606271777 116.88481675392666 L 440.94076655052265 113.35078534031413 L 442.6829268292683 119.82984293193715 L 444.42508710801394 120.22251308900525 L 446.1672473867596 116.29581151832463 L 447.9094076655052 121.40052356020942 L 449.65156794425087 116.49214659685867 L 451.3937282229965 109.62041884816756 L 453.13588850174216 107.2643979057591 L 454.8780487804878 106.08638743455492 L 456.62020905923345 109.62041884816756 L 458.3623693379791 106.87172774869111 L 460.10452961672473 107.6570680628272 L 461.8466898954704 110.40575916230364 L 463.588850174216 111.19109947643983 L 465.33101045296166 103.53403141361252 L 467.0731707317073 101.96335078534025 L 468.81533101045295 100 L 470.5574912891986 108.24607329842934 L 472.29965156794424 105.49738219895289 L 474.0418118466899 112.56544502617805 L 475.7839721254355 114.52879581151831 L 477.52613240418117 114.33246073298426 L 479.2682926829268 109.62041884816756 L 481.01045296167246 112.95811518324604 L 482.7526132404181 112.76178010471199 L 484.49477351916374 114.13612565445021 L 486.2369337979094 121.20418848167537 L 487.97909407665503 127.09424083769636 L 489.7212543554007 135.73298429319368 L 491.4634146341463 132.59162303664925 L 493.20557491289196 137.8926701570681 L 494.9477351916376 133.37696335078533 L 496.68989547038325 128.27225130890054 L 498.4320557491289 138.28534031413608 L 500.17421602787454 146.3350785340314 L 501.91637630662024 151.2434554973822 L 503.6585365853659 151.63612565445024 L 505.4006968641115 160.47120418848166 L 507.14285714285717 169.69895287958113 L 508.8850174216028 182.85340314136127 L 510.62717770034845 178.92670157068065 L 512.3693379790941 179.90837696335078 L 514.1114982578397 167.73560209424082 L 515.8536585365854 170.09162303664922 L 517.5958188153311 176.1780104712042 L 519.3379790940767 184.03141361256544 L 521.0801393728223 185.40575916230367 L 522.822299651568 189.3324607329843 L 524.5644599303137 191.49214659685865 L 526.3066202090592 184.2277486910995 L 528.0487804878048 190.11780104712042 L 529.7909407665505 205.03926701570683 L 531.5331010452962 200.7198952879581 L 533.2752613240418 210.14397905759162 L 535.0174216027874 187.36910994764398 L 536.7595818815331 184.81675392670158 L 538.5017421602788 174.01832460732984 L 540.2439024390244 194.63350785340313 L 541.98606271777 199.14921465968584 L 543.7282229965157 207.78795811518322 L 545.4703832752614 204.64659685863873 L 547.212543554007 198.56020942408375 L 548.9547038327526 200.32722513089007 L 550.6968641114983 209.55497382198953 L 552.439024390244 210.92931937172776 L 554.1811846689895 208.1806282722513 L 555.9233449477351 212.89267015706807 L 557.6655052264808 211.91099476439788 L 559.4076655052265 238.41623036649216 L 561.1498257839721 215.8376963350785 L 562.8919860627177 204.64659685863873 L 564.6341463414634 213.48167539267016 L 566.3763066202091 208.96596858638745 L 568.1184668989547 218.58638743455495 L 569.8606271777003 219.17539267015704 L 571.602787456446 218.1937172774869 L 573.3449477351917 216.2303664921466 L 575.0871080139373 223.49476439790575 L 576.8292682926829 221.1387434554974 L 578.5714285714286 211.51832460732984 L 580.3135888501743 212.10732984293193 L 582.0557491289198 216.2303664921466 L 583.7979094076654 218.58638743455495 L 585.5400696864111 217.40837696335078 L 587.2822299651568 218.1937172774869 L 589.0243902439024 211.51832460732984 L 590.766550522648 218.39005235602096 L 592.5087108013937 225.45811518324606 L 594.2508710801394 230.17015706806282 L 595.993031358885 230.95549738219896 L 597.7351916376306 232.52617801047123 L 599.4773519163763 237.82722513089007 L 601.219512195122 240.37958115183247 L 602.9616724738676 239.2015706806283 L 604.7038327526133 238.41623036649216 L 606.445993031359 250.39267015706807 L 608.1881533101046 253.53403141361255 L 609.9303135888501 248.2329842931937 L 611.6724738675958 254.12303664921464 L 613.4146341463415 255.6937172774869 L 615.1567944250871 266.0994764397906 L 616.8989547038327 265.90314136125653 L 618.6411149825784 270.61518324607334 L 620.3832752613241 277.6832460732984 L 622.1254355400697 272.9712041884817 L 623.8675958188153 279.0575916230366 L 625.609756097561 278.0759162303665 L 627.3519163763067 282.7879581151833 L 629.0940766550523 281.4136125654451 L 630.8362369337979 287.69633507853405 L 632.5783972125436 297.90575916230364 L 634.3205574912893 304.9738219895288 L 636.0627177700349 314.20157068062827 L 637.8048780487804 317.3429319371728 L 639.5470383275261 317.5392670157068 L 641.2891986062718 315.5759162303665 L 643.0313588850174 315.1832460732984 L 644.773519163763 319.30628272251306 L 646.5156794425087 328.33769633507853 L 648.2578397212544 325.19633507853405 L 650 332.06806282722516 L 650 400 Z" /><text  class="poloto_labels poloto_text poloto_title" alignment-baseline="start" text-anchor="middle" font-size="x-large" x="400" y="37.5" >Total players on 2021-12-27</text><text  class="poloto_labels poloto_text poloto_xname" alignment-baseline="start" text-anchor="middle" font-size="x-large" x="400" y="481.25" >Time</text><text  class="poloto_labels poloto_text poloto_yname" alignment-baseline="start" text-anchor="middle" font-size="x-large" transform="rotate(-90,37.5,250)" x="37.5" y="250" >Count</text><line  class="poloto_axis_lines" stroke="black" x1="150" x2="150" y1="400" y2="405" /><text  class="poloto_tick_labels poloto_text" alignment-baseline="start" text-anchor="middle" x="150" y="430" > 00:00:00</text><line  class="poloto_axis_lines" stroke="black" x1="266.14401858304296" x2="266.14401858304296" y1="400" y2="405" /><text  class="poloto_tick_labels poloto_text" alignment-baseline="start" text-anchor="middle" x="266.14401858304296" y="430" > 05:33:20</text><line  class="poloto_axis_lines" stroke="black" x1="382.2880371660859" x2="382.2880371660859" y1="400" y2="405" /><text  class="poloto_tick_labels poloto_text" alignment-baseline="start" text-anchor="middle" x="382.2880371660859" y="430" > 11:06:40</text><line  class="poloto_axis_lines" stroke="black" x1="498.4320557491289" x2="498.4320557491289" y1="400" y2="405" /><text  class="poloto_tick_labels poloto_text" alignment-baseline="start" text-anchor="middle" x="498.4320557491289" y="430" > 16:40:00</text><line  class="poloto_axis_lines" stroke="black" x1="614.5760743321719" x2="614.5760743321719" y1="400" y2="405" /><text  class="poloto_tick_labels poloto_text" alignment-baseline="start" text-anchor="middle" x="614.5760743321719" y="430" > 22:13:20</text><line  class="poloto_axis_lines" stroke="black" x1="150" x2="144" y1="375.6544502617801" y2="375.6544502617801" /><text  class="poloto_tick_labels poloto_text" alignment-baseline="middle" text-anchor="end" x="135" y="375.6544502617801" > 1000</text><line  class="poloto_axis_lines" stroke="black" x1="150" x2="144" y1="277.48691099476434" y2="277.48691099476434" /><text  class="poloto_tick_labels poloto_text" alignment-baseline="middle" text-anchor="end" x="135" y="277.48691099476434" > 1500</text><line  class="poloto_axis_lines" stroke="black" x1="150" x2="144" y1="179.31937172774872" y2="179.31937172774872" /><text  class="poloto_tick_labels poloto_text" alignment-baseline="middle" text-anchor="end" x="135" y="179.31937172774872" > 2000</text><path  stroke="black" fill="none" class="poloto_axis_lines" style="stroke-dasharray:14.518002322880372;stroke-dashoffset:-0;" d=" M 150 400 L 650 400" /><path  stroke="black" fill="none" class="poloto_axis_lines" style="stroke-dasharray:9.81675392670157;stroke-dashoffset:-24.345549738219887;" d=" M 150 400 L 150 100" /></svg>