<svg class="poloto" width="800" height="500" viewBox="0 0 800 500" xmlns="http://www.w3.org/2000/svg"><style>.poloto { stroke-linecap:round; stroke-linejoin:round; font-family: 'Tahoma', sans-serif; background-color: AliceBlue;} .poloto_scatter{stroke-width:7} .poloto_line{stroke-width:2} .poloto_text{fill: black;} .poloto_axis_lines{stroke: black;stroke-width:3;fill:none;stroke-dasharray:none} .poloto0stroke{stroke:  blue;} .poloto1stroke{stroke:  red;} .poloto2stroke{stroke:  green;} .poloto3stroke{stroke:  gold;} .poloto4stroke{stroke:  aqua;} .poloto5stroke{stroke:  lime;} .poloto6stroke{stroke:  orange;} .poloto7stroke{stroke:  chocolate;} .poloto0fill{fill:blue;} .poloto1fill{fill:red;} .poloto2fill{fill:green;} .poloto3fill{fill:gold;} .poloto4fill{fill:aqua;} .poloto5fill{fill:lime;} .poloto6fill{fill:orange;} .poloto7fill{fill:chocolate;}</style><text  class="poloto_text poloto_legend_text" alignment-baseline="middle" text-anchor="start" font-size="large" x="675" y="100" ></text><path  class="poloto_linefill poloto0fill" d=" M 150 400 L 150 340.56413700470114 L 151.74216027874564 349.02619207521826 L 153.4843205574913 360.3089321692411 L 155.22648083623693 361.5177971793149 L 156.96864111498257 361.9207521826729 L 158.71080139372822 364.94291470785765 L 160.45296167247386 369.5768972464741 L 162.1951219512195 369.9798522498321 L 163.93728222996515 375.21826729348555 L 165.6794425087108 379.4492948287441 L 167.42160278745644 374.8153122901276 L 169.16376306620208 371.39019476158495 L 170.90592334494772 371.59167226326394 L 172.64808362369337 373.2034922766958 L 174.390243902439 373.8079247817327 L 176.13240418118465 376.0241773002015 L 177.8745644599303 377.2330423102753 L 179.61672473867597 378.6433848220282 L 181.3588850174216 376.6286098052384 L 183.10104529616726 382.26997985224983 L 184.8432055749129 385.2921423774345 L 186.58536585365854 383.8817998656816 L 188.3275261324042 383.4788448623237 L 190.06968641114983 382.67293485560776 L 191.81184668989548 391.3364674278039 L 193.55400696864112 397.1793149764943 L 195.29616724738676 396.1719274680994 L 197.0383275261324 395.7689724647414 L 198.78048780487805 396.1719274680994 L 200.5226480836237 395.3660174613835 L 202.26480836236934 399.798522498321 L 204.00696864111498 399.798522498321 L 205.74912891986062 396.5748824714574 L 207.49128919860627 395.5674949630625 L 209.2334494773519 397.1793149764943 L 210.97560975609755 393.3512424445937 L 212.7177700348432 389.92612491605104 L 214.45993031358887 389.92612491605104 L 216.2020905923345 389.1202149093351 L 217.94425087108016 388.3143049026192 L 219.6864111498258 384.8891873740765 L 221.42857142857144 390.32907991940897 L 223.1707317073171 398.9926124916051 L 224.91289198606273 389.32169241101406 L 226.65505226480838 394.56010745466756 L 228.39721254355402 396.5748824714574 L 230.13937282229966 397.78374748153124 L 231.8815331010453 398.38817998656816 L 233.62369337979095 393.95567494963063 L 235.3658536585366 392.9482874412357 L 237.10801393728224 400 L 238.85017421602788 397.78374748153124 L 240.59233449477352 391.73942243116187 L 242.33449477351917 394.56010745466756 L 244.0766550522648 387.91134989926127 L 245.81881533101046 378.44190732034923 L 247.5609756097561 376.42713230355946 L 249.30313588850174 370.38280725319004 L 251.0452961672474 366.75621222296843 L 252.78745644599303 365.3458697112156 L 254.52961672473867 364.7414372061786 L 256.2717770034843 364.53995970449967 L 258.01393728222996 354.0631296171927 L 259.7560975609756 349.22766957689726 L 261.49825783972125 352.85426460711886 L 263.2404181184669 351.443922095366 L 264.98257839721254 350.0335795836132 L 266.7247386759582 348.22028206850234 L 268.4668989547038 346.2055070517126 L 270.20905923344947 351.645399597045 L 271.9512195121951 352.04835460040294 L 273.69337979094075 351.242444593687 L 275.4355400696864 353.4586971121558 L 277.17770034843204 354.2646071188717 L 278.9198606271777 354.6675621222297 L 280.6620209059233 348.6232370718603 L 282.40418118466897 352.85426460711886 L 284.1463414634146 354.6675621222297 L 285.88850174216026 354.0631296171927 L 287.6306620209059 352.24983210208194 L 289.37282229965155 344.99664204163867 L 291.1149825783972 346.8099395567495 L 292.85714285714283 356.88381464069846 L 294.5993031358885 344.59368703828073 L 296.3414634146342 345.19811954331766 L 298.08362369337976 347.0114170584285 L 299.82578397212546 349.8321020819342 L 301.56794425087105 347.6158495634654 L 303.31010452961675 346.0040295500336 L 305.05226480836234 345.19811954331766 L 306.79442508710804 345.19811954331766 L 308.5365853658536 348.01880456682335 L 310.2787456445993 339.1537944929483 L 312.0209059233449 341.16856950973806 L 313.7630662020906 341.16856950973806 L 315.5052264808362 345.8025520483546 L 317.2473867595819 348.82471457353927 L 318.9895470383275 355.0705171255876 L 320.7317073170732 345.8025520483546 L 322.4738675958188 343.18334452652783 L 324.2160278745645 339.7582269979852 L 325.95818815331006 339.1537944929483 L 327.70034843205576 334.3183344526528 L 329.44250871080135 334.9227669576897 L 331.18466898954705 330.0873069173942 L 332.92682926829264 336.33310946944255 L 334.66898954703834 332.70651443922094 L 336.4111498257839 326.05775688381465 L 338.1533101045296 328.2740094022834 L 339.8954703832752 327.8710543989254 L 341.6376306620209 329.68435191403626 L 343.3797909407665 326.05775688381465 L 345.1219512195122 325.65480188045666 L 346.86411149825784 333.91537944929485 L 348.6062717770035 334.9227669576897 L 350.34843205574913 329.88582941571525 L 352.0905923344948 325.85627938213565 L 353.8327526132404 323.4385493619879 L 355.57491289198606 316.3868368032236 L 357.3170731707317 300.6715916722633 L 359.05923344947735 301.8804566823371 L 360.801393728223 299.86568166554736 L 362.54355400696863 298.45533915379445 L 364.2857142857143 292.00805910006716 L 366.0278745644599 284.9563465413029 L 367.77003484320556 280.12088650100736 L 369.5121951219512 278.3075889858966 L 371.25435540069685 276.29281396910676 L 372.9965156794425 269.4425789120215 L 374.73867595818814 270.4499664204164 L 376.4808362369338 267.83075889858964 L 378.2229965156794 267.0248488918737 L 379.96515679442507 263.1967763599731 L 381.7073170731707 259.97313633310944 L 383.44947735191636 268.03223640026863 L 385.191637630662 263.1967763599731 L 386.93379790940764 262.18938885157826 L 388.6759581881533 259.5701813297515 L 390.41811846689893 274.076561450638 L 392.1602787456446 273.0691739422431 L 393.9024390243902 269.4425789120215 L 395.6445993031359 265.4130288784419 L 397.3867595818815 257.55540631296174 L 399.1289198606272 252.51846877098723 L 400.8710801393728 246.67562122229685 L 402.6132404181185 231.96776359973137 L 404.3554006968641 227.53525856279379 L 406.0975609756097 215.64808596373405 L 407.83972125435537 205.97716588314302 L 409.581881533101 207.99194089993284 L 411.32404181184666 209.4022834116857 L 413.0662020905923 204.56682337139017 L 414.80836236933794 197.7165883143049 L 416.5505226480836 190.8663532572196 L 418.29268292682923 181.19543317662863 L 420.0348432055749 191.47078576225653 L 421.7770034843206 194.29147078576227 L 423.5191637630662 193.08260577568836 L 425.26132404181186 200.53727333781057 L 427.0034843205575 188.24714573539285 L 428.74564459930315 183.81464069845532 L 430.4878048780488 175.95701813297512 L 432.22996515679444 181.19543317662863 L 433.9721254355401 178.77770315648087 L 435.7142857142857 181.59838817998656 L 437.45644599303137 184.41907320349225 L 439.198606271777 184.01611820013431 L 440.94076655052265 180.3895231699127 L 442.6829268292683 171.7259905977166 L 444.42508710801394 168.09939556749492 L 446.1672473867596 169.71121558092676 L 447.9094076655052 167.494963062458 L 449.65156794425087 163.26393552719946 L 451.3937282229965 157.62256548018803 L 453.13588850174216 155.40631296171927 L 454.8780487804878 161.0476830087307 L 456.62020905923345 143.31766286098053 L 458.3623693379791 126.39355271994629 L 460.10452961672473 121.9610476830087 L 461.8466898954704 119.341840161182 L 463.588850174216 126.99798522498321 L 465.33101045296166 123.57286769644054 L 467.0731707317073 117.93149764942916 L 468.81533101045295 119.94627266621893 L 470.5574912891986 115.11081262592342 L 472.29965156794424 113.09603760913365 L 474.0418118466899 115.71524513096034 L 475.7839721254355 114.70785762256548 L 477.52613240418117 118.33445265278709 L 479.2682926829268 115.31229012760241 L 481.01045296167246 104.83546004029552 L 482.7526132404181 112.49160510409672 L 484.49477351916374 107.25319006044322 L 486.2369337979094 100 L 487.97909407665503 109.87239758226997 L 489.7212543554007 114.90933512424442 L 491.4634146341463 107.6561450638012 L 493.20557491289196 117.32706514439218 L 494.9477351916376 125.38616521155137 L 496.68989547038325 116.11820013431833 L 498.4320557491289 115.31229012760241 L 500.17421602787454 120.55070517125586 L 501.9163763066202 117.93149764942916 L 503.6585365853658 121.9610476830087 L 505.40069686411147 124.58025520483545 L 507.1428571428571 129.01276024177298 L 508.88501742160275 130.8260577568838 L 510.6271777003484 131.22901276024174 L 512.3693379790941 136.06447280053726 L 514.1114982578397 147.14573539288114 L 515.8536585365853 141.5043653458697 L 517.595818815331 152.38415043653458 L 519.3379790940767 170.31564808596374 L 521.0801393728223 162.65950302216254 L 522.822299651568 164.06984553391538 L 524.5644599303137 161.45063801208863 L 526.3066202090592 172.73337810611145 L 528.0487804878048 169.10678307588984 L 529.7909407665505 170.31564808596374 L 531.5331010452962 171.7259905977166 L 533.2752613240418 177.77031564808595 L 535.0174216027874 183.2102081934184 L 536.7595818815331 183.81464069845532 L 538.5017421602788 180.79247817327064 L 540.2439024390244 184.01611820013431 L 541.98606271777 179.98656816655472 L 543.7282229965157 178.57622565480187 L 545.4703832752614 183.0087306917394 L 547.212543554007 182.0013431833445 L 548.9547038327526 192.07521826729345 L 550.6968641114983 187.44123572867693 L 552.439024390244 188.44862323707184 L 554.1811846689895 194.29147078576227 L 555.9233449477351 196.10476830087305 L 557.6655052264808 208.19341840161184 L 559.4076655052265 205.3727333781061 L 561.1498257839721 207.38750839489592 L 562.8919860627177 214.64069845533913 L 564.6341463414634 217.0584284754869 L 566.3763066202091 222.29684351914034 L 568.1184668989547 229.14707857622562 L 569.8606271777003 232.97515110812623 L 571.602787456446 235.79583613163197 L 573.3449477351917 240.0268636668905 L 575.0871080139373 230.35594358629953 L 576.8292682926829 233.78106111484215 L 578.5714285714286 237.4076561450638 L 580.3135888501743 237.20617864338482 L 582.0557491289198 248.2874412357287 L 583.7979094076654 255.33915379449292 L 585.5400696864111 263.3982538616521 L 587.2822299651568 255.5406312961719 L 589.0243902439024 254.33176628609806 L 590.766550522648 256.34654130288783 L 592.5087108013937 261.78643384822027 L 594.2508710801394 260.98052384150435 L 595.993031358885 259.5701813297515 L 597.7351916376306 250.9066487575554 L 599.4773519163763 251.9140362659503 L 601.219512195122 249.89926124916047 L 602.9616724738676 249.89926124916047 L 604.7038327526132 247.8844862323707 L 606.4459930313589 246.27266621893887 L 608.1881533101046 248.0859637340497 L 609.9303135888501 260.98052384150435 L 611.6724738675957 263.5997313633311 L 613.4146341463414 267.83075889858964 L 615.1567944250871 273.2706514439221 L 616.8989547038327 269.84553391537946 L 618.6411149825783 269.2411014103425 L 620.383275261324 265.21155137676294 L 622.1254355400697 272.46474143720616 L 623.8675958188153 279.51645399597044 L 625.609756097561 281.9341840161182 L 627.3519163763067 282.1356615177972 L 629.0940766550523 285.3593015446608 L 630.8362369337979 291.00067159167224 L 632.5783972125436 290.1947615849563 L 634.3205574912893 294.82874412357285 L 636.0627177700349 299.46272666218937 L 637.8048780487804 295.03022162525184 L 639.5470383275261 311.14842175957017 L 641.2891986062718 306.1114842175957 L 643.0313588850174 311.55137676292816 L 644.773519163763 319.6104768300873 L 646.5156794425087 312.558764271323 L 648.2578397212544 323.2370718603089 L 650 331.0946944257891 L 650 400 Z" /><text  class="poloto_labels poloto_text poloto_title" alignment-baseline="start" text-anchor="middle" font-size="x-large" x="400" y="37.5" >Total players on 2021-07-01</text><text  class="poloto_labels poloto_text poloto_xname" alignment-baseline="start" text-anchor="middle" font-size="x-large" x="400" y="481.25" >Time</text><text  class="poloto_labels poloto_text poloto_yname" alignment-baseline="start" text-anchor="middle" font-size="x-large" transform="rotate(-90,37.5,250)" x="37.5" y="250" >Count</text><line  class="poloto_axis_lines" stroke="black" x1="208.0487804878049" x2="208.0487804878049" y1="400" y2="405" /><text  class="poloto_tick_labels poloto_text" alignment-baseline="start" text-anchor="middle" x="208.0487804878049" y="430" > 03:00</text><line  class="poloto_axis_lines" stroke="black" x1="266.1207897793264" x2="266.1207897793264" y1="400" y2="405" /><text  class="poloto_tick_labels poloto_text" alignment-baseline="start" text-anchor="middle" x="266.1207897793264" y="430" > 06:00</text><line  class="poloto_axis_lines" stroke="black" x1="324.19279907084785" x2="324.19279907084785" y1="400" y2="405" /><text  class="poloto_tick_labels poloto_text" alignment-baseline="start" text-anchor="middle" x="324.19279907084785" y="430" > 08:00</text><line  class="poloto_axis_lines" stroke="black" x1="382.2648083623693" x2="382.2648083623693" y1="400" y2="405" /><text  class="poloto_tick_labels poloto_text" alignment-baseline="start" text-anchor="middle" x="382.2648083623693" y="430" > 11:00</text><line  class="poloto_axis_lines" stroke="black" x1="440.3368176538908" x2="440.3368176538908" y1="400" y2="405" /><text  class="poloto_tick_labels poloto_text" alignment-baseline="start" text-anchor="middle" x="440.3368176538908" y="430" > 14:00</text><line  class="poloto_axis_lines" stroke="black" x1="498.4088269454123" x2="498.4088269454123" y1="400" y2="405" /><text  class="poloto_tick_labels poloto_text" alignment-baseline="start" text-anchor="middle" x="498.4088269454123" y="430" > 17:00</text><line  class="poloto_axis_lines" stroke="black" x1="556.4808362369338" x2="556.4808362369338" y1="400" y2="405" /><text  class="poloto_tick_labels poloto_text" alignment-baseline="start" text-anchor="middle" x="556.4808362369338" y="430" > 19:00</text><line  class="poloto_axis_lines" stroke="black" x1="614.5528455284552" x2="614.5528455284552" y1="400" y2="405" /><text  class="poloto_tick_labels poloto_text" alignment-baseline="start" text-anchor="middle" x="614.5528455284552" y="430" > 22:00</text><line  class="poloto_axis_lines" stroke="black" x1="150" x2="144" y1="374.8153122901276" y2="374.8153122901276" /><text  class="poloto_tick_labels poloto_text" alignment-baseline="middle" text-anchor="end" x="135" y="374.8153122901276" > 1200</text><line  class="poloto_axis_lines" stroke="black" x1="150" x2="144" y1="334.5198119543318" y2="334.5198119543318" /><text  class="poloto_tick_labels poloto_text" alignment-baseline="middle" text-anchor="end" x="135" y="334.5198119543318" > 1400</text><line  class="poloto_axis_lines" stroke="black" x1="150" x2="144" y1="294.2243116185359" y2="294.2243116185359" /><text  class="poloto_tick_labels poloto_text" alignment-baseline="middle" text-anchor="end" x="135" y="294.2243116185359" > 1600</text><line  class="poloto_axis_lines" stroke="black" x1="150" x2="144" y1="253.92881128274007" y2="253.92881128274007" /><text  class="poloto_tick_labels poloto_text" alignment-baseline="middle" text-anchor="end" x="135" y="253.92881128274007" > 1800</text><line  class="poloto_axis_lines" stroke="black" x1="150" x2="144" y1="213.63331094694422" y2="213.63331094694422" /><text  class="poloto_tick_labels poloto_text" alignment-baseline="middle" text-anchor="end" x="135" y="213.63331094694422" > 2000</text><line  class="poloto_axis_lines" stroke="black" x1="150" x2="144" y1="173.33781061114843" y2="173.33781061114843" /><text  class="poloto_tick_labels poloto_text" alignment-baseline="middle" text-anchor="end" x="135" y="173.33781061114843" > 2200</text><line  class="poloto_axis_lines" stroke="black" x1="150" x2="144" y1="133.04231027535258" y2="133.04231027535258" /><text  class="poloto_tick_labels poloto_text" alignment-baseline="middle" text-anchor="end" x="135" y="133.04231027535258" > 2400</text><path  stroke="black" fill="none" class="poloto_axis_lines" style="stroke-dasharray:14.518002322880372;stroke-dashoffset:-58.04878048780488;" d=" M 150 400 L 650 400" /><path  stroke="black" fill="none" class="poloto_axis_lines" style="stroke-dasharray:10.073875083948959;stroke-dashoffset:-25.184687709872406;" d=" M 150 400 L 150 100" /></svg>