<svg class="poloto" width="800" height="500" viewBox="0 0 800 500" xmlns="http://www.w3.org/2000/svg"><style>.poloto { stroke-linecap:round; stroke-linejoin:round; font-family: 'Tahoma', sans-serif; background-color: AliceBlue;} .poloto_scatter{stroke-width:7} .poloto_line{stroke-width:2} .poloto_text{fill: black;} .poloto_axis_lines{stroke: black;stroke-width:3;fill:none;stroke-dasharray:none} .poloto0stroke{stroke:  blue;} .poloto1stroke{stroke:  red;} .poloto2stroke{stroke:  green;} .poloto3stroke{stroke:  gold;} .poloto4stroke{stroke:  aqua;} .poloto5stroke{stroke:  lime;} .poloto6stroke{stroke:  orange;} .poloto7stroke{stroke:  chocolate;} .poloto0fill{fill:blue;} .poloto1fill{fill:red;} .poloto2fill{fill:green;} .poloto3fill{fill:gold;} .poloto4fill{fill:aqua;} .poloto5fill{fill:lime;} .poloto6fill{fill:orange;} .poloto7fill{fill:chocolate;}</style><text  class="poloto_text poloto_legend_text" alignment-baseline="middle" text-anchor="start" font-size="large" x="675" y="100" ></text><path  class="poloto_linefill poloto0fill" d=" M 150 400 L 150 308.3018867924528 L 151.74216027874564 311.0512129380054 L 153.4843205574913 318.97574123989216 L 155.22648083623693 319.29919137466305 L 156.96864111498257 322.0485175202156 L 158.71080139372822 322.85714285714283 L 160.45296167247386 321.8867924528302 L 162.1951219512195 320.59299191374663 L 163.93728222996515 320.4312668463612 L 165.6794425087108 320.1078167115903 L 167.42160278745644 318.49056603773585 L 169.16376306620208 323.8274932614555 L 170.90592334494772 327.2237196765499 L 172.64808362369337 324.1509433962264 L 174.390243902439 324.9595687331536 L 176.13240418118465 329.32614555256066 L 177.8745644599303 333.8544474393531 L 179.61672473867597 334.50134770889485 L 181.3588850174216 334.66307277628033 L 183.10104529616726 337.088948787062 L 184.8432055749129 345.822102425876 L 186.58536585365854 350.35040431266845 L 188.3275261324042 345.98382749326146 L 190.06968641114983 350.02695417789755 L 191.81184668989548 348.08625336927224 L 193.55400696864112 348.08625336927224 L 195.29616724738676 347.11590296495956 L 197.0383275261324 348.08625336927224 L 198.78048780487805 346.95417789757414 L 200.5226480836237 348.89487870619945 L 202.26480836236934 344.0431266846361 L 204.00696864111498 344.366576819407 L 205.74912891986062 345.0134770889488 L 207.49128919860627 344.366576819407 L 209.2334494773519 344.0431266846361 L 210.97560975609755 352.2911051212938 L 212.7177700348432 351.644204851752 L 214.45993031358887 350.99730458221023 L 216.2020905923345 350.8355795148248 L 217.94425087108016 345.66037735849056 L 219.6864111498258 346.95417789757414 L 221.42857142857144 348.57142857142856 L 223.1707317073171 351.4824797843666 L 224.91289198606273 351.1590296495957 L 226.65505226480838 353.2614555256065 L 228.39721254355402 355.8490566037736 L 230.13937282229966 354.55525606469 L 231.8815331010453 350.02695417789755 L 233.62369337979095 351.644204851752 L 235.3658536585366 347.76280323450135 L 237.10801393728224 347.76280323450135 L 238.85017421602788 347.11590296495956 L 240.59233449477352 345.0134770889488 L 242.33449477351917 349.54177897574124 L 244.0766550522648 349.54177897574124 L 245.81881533101046 348.08625336927224 L 247.5609756097561 347.60107816711593 L 249.30313588850174 346.46900269541777 L 251.0452961672474 349.0566037735849 L 252.78745644599303 346.63072776280325 L 254.52961672473867 351.80592991913744 L 256.2717770034843 353.099730458221 L 258.01393728222996 350.8355795148248 L 259.7560975609756 355.5256064690027 L 261.49825783972125 354.7169811320755 L 263.2404181184669 352.6145552560647 L 264.98257839721254 352.2911051212938 L 266.7247386759582 353.9083557951482 L 268.4668989547038 355.0404312668464 L 270.20905923344947 350.188679245283 L 271.9512195121951 350.35040431266845 L 273.69337979094075 351.80592991913744 L 275.4355400696864 357.7897574123989 L 277.17770034843204 353.4231805929919 L 278.9198606271777 351.644204851752 L 280.6620209059233 349.54177897574124 L 282.40418118466897 346.1455525606469 L 284.1463414634146 340.9703504043127 L 285.88850174216026 337.7358490566038 L 287.6306620209059 334.50134770889485 L 289.37282229965155 333.20754716981133 L 291.1149825783972 333.53099730458223 L 292.85714285714283 333.53099730458223 L 294.5993031358885 327.87061994609167 L 296.3414634146342 327.3854447439353 L 298.08362369337976 326.41509433962267 L 299.82578397212546 328.5175202156334 L 301.56794425087105 344.6900269541779 L 303.31010452961675 326.7385444743935 L 305.05226480836234 323.1805929919137 L 306.79442508710804 319.62264150943395 L 308.5365853658536 400 L 310.2787456445993 320.59299191374663 L 312.0209059233449 325.7681940700809 L 313.7630662020906 326.41509433962267 L 315.5052264808362 330.45822102425876 L 317.2473867595819 329.811320754717 L 318.9895470383275 329.1644204851752 L 320.7317073170732 327.2237196765499 L 322.4738675958188 324.7978436657682 L 324.2160278745645 323.6657681940701 L 325.95818815331006 327.2237196765499 L 327.70034843205576 328.8409703504043 L 329.44250871080135 325.2830188679245 L 331.18466898954705 319.62264150943395 L 332.92682926829264 318.81401617250674 L 334.66898954703834 314.12398921832886 L 336.4111498257839 310.4043126684636 L 338.1533101045296 310.2425876010782 L 339.8954703832752 312.66846361185986 L 341.6376306620209 312.8301886792453 L 343.3797909407665 301.50943396226415 L 345.1219512195122 300.37735849056605 L 346.86411149825784 296.8194070080863 L 348.6062717770035 301.6711590296496 L 350.34843205574913 296.9811320754717 L 352.0905923344948 290.8355795148248 L 353.8327526132404 287.76280323450135 L 355.57491289198606 286.95417789757414 L 357.3170731707317 290.5121293800539 L 359.05923344947735 285.17520215633425 L 360.801393728223 279.8382749326146 L 362.54355400696863 291.8059299191375 L 364.2857142857143 283.2345013477089 L 366.0278745644599 283.2345013477089 L 367.77003484320556 282.5876010781671 L 369.5121951219512 279.3530997304582 L 371.25435540069685 275.3099730458221 L 372.9965156794425 271.26684636118597 L 374.73867595818814 269.1644204851752 L 376.4808362369338 255.90296495956875 L 378.2229965156794 253.6388140161725 L 379.96515679442507 249.2722371967655 L 381.7073170731707 247.00808625336924 L 383.44947735191636 248.30188679245282 L 385.191637630662 246.68463611859835 L 386.93379790940764 244.58221024258762 L 388.6759581881533 243.93530997304583 L 390.41811846689893 245.71428571428572 L 392.1602787456446 245.87601078167114 L 393.9024390243902 245.87601078167114 L 395.6445993031359 238.76010781671158 L 397.3867595818815 239.2452830188679 L 399.1289198606272 237.466307277628 L 400.8710801393728 236.49595687331538 L 402.6132404181185 233.7466307277628 L 404.3554006968641 236.6576819407008 L 406.0975609756097 228.73315363881403 L 407.83972125435537 225.98382749326146 L 409.581881533101 221.7789757412399 L 411.32404181184666 216.92722371967653 L 413.0662020905923 211.75202156334234 L 414.80836236933794 215.95687331536385 L 416.5505226480836 206.5768194070081 L 418.29268292682923 204.1509433962264 L 420.0348432055749 199.78436657681942 L 421.7770034843206 205.1212938005391 L 423.5191637630662 190.56603773584908 L 425.26132404181186 198.81401617250674 L 427.0034843205575 198.65229110512126 L 428.74564459930315 195.57951482479785 L 430.4878048780488 194.44743935309975 L 432.22996515679444 183.12668463611857 L 433.9721254355401 186.52291105121293 L 435.7142857142857 188.6253369272237 L 437.45644599303137 186.3611859838275 L 439.198606271777 180.05390835579516 L 440.94076655052265 176.49595687331538 L 442.6829268292683 175.8490566037736 L 444.42508710801394 177.62803234501348 L 446.1672473867596 177.62803234501348 L 447.9094076655052 165.17520215633425 L 449.65156794425087 164.0431266846361 L 451.3937282229965 158.38274932614553 L 453.13588850174216 156.92722371967653 L 454.8780487804878 155.79514824797843 L 456.62020905923345 154.82479784366575 L 458.3623693379791 151.91374663072776 L 460.10452961672473 143.3423180592992 L 461.8466898954704 135.25606469002696 L 463.588850174216 141.5633423180593 L 465.33101045296166 141.5633423180593 L 467.0731707317073 138.16711590296495 L 468.81533101045295 132.83018867924528 L 470.5574912891986 127.8167115902965 L 472.29965156794424 123.28840970350404 L 474.0418118466899 116.81940700808627 L 475.7839721254355 111.64420485175202 L 477.52613240418117 107.76280323450135 L 479.2682926829268 107.60107816711593 L 481.01045296167246 101.77897574123989 L 482.7526132404181 100.97035040431268 L 484.49477351916374 100 L 486.2369337979094 105.33692722371967 L 487.97909407665503 104.20485175202157 L 489.7212543554007 110.35040431266845 L 491.4634146341463 108.08625336927224 L 493.20557491289196 106.79245283018867 L 494.9477351916376 111.4824797843666 L 496.68989547038325 117.14285714285717 L 498.4320557491289 117.95148247978437 L 500.17421602787454 112.12938005390833 L 501.9163763066202 109.21832884097034 L 503.6585365853658 125.22911051212941 L 505.40069686411147 128.7870619946092 L 507.1428571428571 131.3746630727763 L 508.88501742160275 124.42048517520215 L 510.6271777003484 131.2129380053908 L 512.3693379790941 134.28571428571428 L 514.1114982578397 142.533692722372 L 515.8536585365853 136.54986522911054 L 517.595818815331 137.68194070080864 L 519.3379790940767 139.13746630727763 L 521.0801393728223 140.75471698113205 L 522.822299651568 148.5175202156334 L 524.5644599303137 154.33962264150944 L 526.3066202090592 158.2210242587601 L 528.0487804878048 161.29380053908358 L 529.7909407665505 168.57142857142856 L 531.5331010452962 172.9380053908356 L 533.2752613240418 173.2614555256065 L 535.0174216027874 170.35040431266845 L 536.7595818815331 175.04043126684638 L 538.5017421602788 177.95148247978437 L 540.2439024390244 179.5687331536388 L 541.98606271777 180.05390835579516 L 543.7282229965157 181.83288409703505 L 545.4703832752614 183.93530997304583 L 547.212543554007 191.0512129380054 L 548.9547038327526 190.88948787061992 L 550.6968641114983 193.3153638814016 L 552.439024390244 192.34501347708897 L 554.1811846689895 193.15363881401618 L 555.9233449477351 194.7708894878706 L 557.6655052264808 178.92183288409706 L 559.4076655052265 180.86253369272237 L 561.1498257839721 185.06738544474393 L 562.8919860627177 177.7897574123989 L 564.6341463414634 189.11051212938003 L 566.3763066202091 188.7870619946092 L 568.1184668989547 191.0512129380054 L 569.8606271777003 204.95956873315362 L 571.602787456446 207.87061994609167 L 573.3449477351917 212.56064690026955 L 575.0871080139373 206.90026954177898 L 576.8292682926829 211.10512129380055 L 578.5714285714286 210.45822102425876 L 580.3135888501743 217.89757412398922 L 582.0557491289198 227.27762803234504 L 583.7979094076654 232.9380053908356 L 585.5400696864111 228.89487870619945 L 587.2822299651568 224.69002695417788 L 589.0243902439024 224.85175202156336 L 590.766550522648 223.55795148247978 L 592.5087108013937 227.11590296495956 L 594.2508710801394 226.30727762803235 L 595.993031358885 227.60107816711587 L 597.7351916376306 229.21832884097034 L 599.4773519163763 225.98382749326146 L 601.219512195122 228.73315363881403 L 602.9616724738676 232.2911051212938 L 604.7038327526132 232.9380053908356 L 606.4459930313589 243.61185983827494 L 608.1881533101046 238.4366576819407 L 609.9303135888501 238.59838274932616 L 611.6724738675957 246.84636118598382 L 613.4146341463414 242.96495956873315 L 615.1567944250871 248.1401617250674 L 616.8989547038327 252.02156334231807 L 618.6411149825783 258.00539083557953 L 620.383275261324 256.38814016172506 L 622.1254355400697 264.9595687331536 L 623.8675958188153 267.0619946091644 L 625.609756097561 271.91374663072776 L 627.3519163763067 270.29649595687334 L 629.0940766550523 277.2506738544474 L 630.8362369337979 279.0296495956873 L 632.5783972125436 280.1617250673855 L 634.3205574912893 280.4851752021563 L 636.0627177700349 284.85175202156336 L 637.8048780487804 286.79245283018867 L 639.5470383275261 285.98382749326146 L 641.2891986062718 294.2318059299191 L 643.0313588850174 299.5687331536388 L 644.773519163763 302.64150943396226 L 646.5156794425087 332.07547169811323 L 648.2578397212544 331.42857142857144 L 650 332.39892183288407 L 650 400 Z" /><text  class="poloto_labels poloto_text poloto_title" alignment-baseline="start" text-anchor="middle" font-size="x-large" x="400" y="37.5" >Total players on 2021-05-25</text><text  class="poloto_labels poloto_text poloto_xname" alignment-baseline="start" text-anchor="middle" font-size="x-large" x="400" y="481.25" >Time</text><text  class="poloto_labels poloto_text poloto_yname" alignment-baseline="start" text-anchor="middle" font-size="x-large" transform="rotate(-90,37.5,250)" x="37.5" y="250" >Count</text><line  class="poloto_axis_lines" stroke="black" x1="208.0487804878049" x2="208.0487804878049" y1="400" y2="405" /><text  class="poloto_tick_labels poloto_text" alignment-baseline="start" text-anchor="middle" x="208.0487804878049" y="430" > 02:46:40</text><line  class="poloto_axis_lines" stroke="black" x1="266.1207897793264" x2="266.1207897793264" y1="400" y2="405" /><text  class="poloto_tick_labels poloto_text" alignment-baseline="start" text-anchor="middle" x="266.1207897793264" y="430" > 05:33:20</text><line  class="poloto_axis_lines" stroke="black" x1="324.19279907084785" x2="324.19279907084785" y1="400" y2="405" /><text  class="poloto_tick_labels poloto_text" alignment-baseline="start" text-anchor="middle" x="324.19279907084785" y="430" > 08:20:00</text><line  class="poloto_axis_lines" stroke="black" x1="382.2648083623693" x2="382.2648083623693" y1="400" y2="405" /><text  class="poloto_tick_labels poloto_text" alignment-baseline="start" text-anchor="middle" x="382.2648083623693" y="430" > 11:06:40</text><line  class="poloto_axis_lines" stroke="black" x1="440.3368176538908" x2="440.3368176538908" y1="400" y2="405" /><text  class="poloto_tick_labels poloto_text" alignment-baseline="start" text-anchor="middle" x="440.3368176538908" y="430" > 13:53:20</text><line  class="poloto_axis_lines" stroke="black" x1="498.4088269454123" x2="498.4088269454123" y1="400" y2="405" /><text  class="poloto_tick_labels poloto_text" alignment-baseline="start" text-anchor="middle" x="498.4088269454123" y="430" > 16:40:00</text><line  class="poloto_axis_lines" stroke="black" x1="556.4808362369338" x2="556.4808362369338" y1="400" y2="405" /><text  class="poloto_tick_labels poloto_text" alignment-baseline="start" text-anchor="middle" x="556.4808362369338" y="430" > 19:26:40</text><line  class="poloto_axis_lines" stroke="black" x1="614.5528455284552" x2="614.5528455284552" y1="400" y2="405" /><text  class="poloto_tick_labels poloto_text" alignment-baseline="start" text-anchor="middle" x="614.5528455284552" y="430" > 22:13:20</text><line  class="poloto_axis_lines" stroke="black" x1="150" x2="144" y1="360.2156334231806" y2="360.2156334231806" /><text  class="poloto_tick_labels poloto_text" alignment-baseline="middle" text-anchor="end" x="135" y="360.2156334231806" > 1000</text><line  class="poloto_axis_lines" stroke="black" x1="150" x2="144" y1="279.3530997304582" y2="279.3530997304582" /><text  class="poloto_tick_labels poloto_text" alignment-baseline="middle" text-anchor="end" x="135" y="279.3530997304582" > 1500</text><line  class="poloto_axis_lines" stroke="black" x1="150" x2="144" y1="198.49056603773585" y2="198.49056603773585" /><text  class="poloto_tick_labels poloto_text" alignment-baseline="middle" text-anchor="end" x="135" y="198.49056603773585" > 2000</text><line  class="poloto_axis_lines" stroke="black" x1="150" x2="144" y1="117.62803234501348" y2="117.62803234501348" /><text  class="poloto_tick_labels poloto_text" alignment-baseline="middle" text-anchor="end" x="135" y="117.62803234501348" > 2500</text><path  stroke="black" fill="none" class="poloto_axis_lines" style="stroke-dasharray:14.518002322880372;stroke-dashoffset:-58.04878048780488;" d=" M 150 400 L 650 400" /><path  stroke="black" fill="none" class="poloto_axis_lines" style="stroke-dasharray:8.086253369272237;stroke-dashoffset:-39.78436657681941;" d=" M 150 400 L 150 100" /></svg>