<svg class="poloto" width="800" height="500" viewBox="0 0 800 500" xmlns="http://www.w3.org/2000/svg"><style>.poloto { stroke-linecap:round; stroke-linejoin:round; font-family: 'Tahoma', sans-serif; background-color: AliceBlue;} .poloto_scatter{stroke-width:7} .poloto_line{stroke-width:2} .poloto_text{fill: black;} .poloto_axis_lines{stroke: black;stroke-width:3;fill:none;stroke-dasharray:none} .poloto0stroke{stroke:  blue;} .poloto1stroke{stroke:  red;} .poloto2stroke{stroke:  green;} .poloto3stroke{stroke:  gold;} .poloto4stroke{stroke:  aqua;} .poloto5stroke{stroke:  lime;} .poloto6stroke{stroke:  orange;} .poloto7stroke{stroke:  chocolate;} .poloto0fill{fill:blue;} .poloto1fill{fill:red;} .poloto2fill{fill:green;} .poloto3fill{fill:gold;} .poloto4fill{fill:aqua;} .poloto5fill{fill:lime;} .poloto6fill{fill:orange;} .poloto7fill{fill:chocolate;}</style><text  class="poloto_text poloto_legend_text" alignment-baseline="middle" text-anchor="start" font-size="large" x="675" y="100" ></text><path  class="poloto_linefill poloto0fill" d=" M 150 400 L 150 342.32835820895525 L 151.74216027874564 350.02985074626866 L 153.4843205574913 360.4179104477612 L 155.22648083623693 365.43283582089555 L 156.96864111498257 368.65671641791045 L 158.71080139372822 372.23880597014926 L 160.45296167247386 373.67164179104475 L 162.1951219512195 373.4925373134329 L 163.93728222996515 372.4179104477612 L 165.6794425087108 377.07462686567163 L 167.42160278745644 380.11940298507466 L 169.16376306620208 376.8955223880597 L 170.90592334494772 376.53731343283584 L 172.64808362369337 380.11940298507466 L 174.390243902439 383.70149253731347 L 176.13240418118465 387.2835820895523 L 177.8745644599303 389.43283582089555 L 179.61672473867597 386.74626865671644 L 181.3588850174216 388.7164179104478 L 183.10104529616726 394.6268656716418 L 184.8432055749129 391.94029850746267 L 186.58536585365854 391.04477611940297 L 188.3275261324042 396.4179104477612 L 190.06968641114983 394.6268656716418 L 191.81184668989548 396.95522388059703 L 193.55400696864112 398.2089552238806 L 195.29616724738676 397.67164179104475 L 197.0383275261324 397.3134328358209 L 198.78048780487805 393.01492537313436 L 200.5226480836237 393.7313432835821 L 202.26480836236934 394.98507462686564 L 204.00696864111498 392.65671641791045 L 205.74912891986062 394.80597014925377 L 207.49128919860627 393.7313432835821 L 209.2334494773519 394.6268656716418 L 210.97560975609755 394.80597014925377 L 212.7177700348432 395.88059701492534 L 214.45993031358887 396.05970149253733 L 216.2020905923345 398.2089552238806 L 217.94425087108016 396.05970149253733 L 219.6864111498258 394.44776119402985 L 221.42857142857144 388.53731343283584 L 223.1707317073171 387.1044776119403 L 224.91289198606273 384.05970149253733 L 226.65505226480838 385.3134328358209 L 228.39721254355402 390.32835820895525 L 230.13937282229966 392.11940298507466 L 231.8815331010453 393.3731343283582 L 233.62369337979095 395.34328358208955 L 235.3658536585366 391.5820895522388 L 237.10801393728224 385.4925373134329 L 238.85017421602788 384.95522388059703 L 240.59233449477352 389.07462686567163 L 242.33449477351917 391.22388059701495 L 244.0766550522648 392.11940298507466 L 245.81881533101046 394.2686567164179 L 247.5609756097561 395.1641791044776 L 249.30313588850174 400 L 251.0452961672474 399.1044776119403 L 252.78745644599303 398.3880597014926 L 254.52961672473867 396.23880597014926 L 256.2717770034843 397.4925373134329 L 258.01393728222996 393.3731343283582 L 259.7560975609756 392.4776119402985 L 261.49825783972125 384.23880597014926 L 263.2404181184669 379.04477611940297 L 264.98257839721254 373.85074626865674 L 266.7247386759582 371.88059701492534 L 268.4668989547038 367.5820895522388 L 270.20905923344947 365.97014925373134 L 271.9512195121951 357.01492537313436 L 273.69337979094075 357.55223880597015 L 275.4355400696864 353.97014925373134 L 277.17770034843204 356.29850746268653 L 278.91986062717774 354.86567164179104 L 280.6620209059233 362.2089552238806 L 282.404181184669 355.94029850746267 L 284.1463414634146 360.5970149253732 L 285.8885017421603 354.5074626865672 L 287.6306620209059 356.8358208955224 L 289.3728222996516 360.23880597014926 L 291.1149825783972 365.7910447761194 L 292.8571428571429 367.76119402985074 L 294.5993031358885 366.32835820895525 L 296.3414634146342 365.07462686567163 L 298.08362369337976 366.14925373134326 L 299.82578397212546 374.3880597014926 L 301.56794425087105 377.25373134328356 L 303.31010452961675 378.14925373134326 L 305.05226480836234 374.56716417910445 L 306.79442508710804 375.64179104477614 L 308.5365853658536 371.70149253731347 L 310.2787456445993 369.55223880597015 L 312.0209059233449 364.7164179104478 L 313.7630662020906 361.85074626865674 L 315.5052264808362 365.6119402985075 L 317.2473867595819 363.1044776119403 L 318.9895470383275 353.25373134328356 L 320.7317073170732 354.86567164179104 L 322.4738675958188 351.2835820895523 L 324.2160278745645 353.6119402985075 L 325.9581881533101 341.6119402985075 L 327.70034843205576 341.6119402985075 L 329.4425087108014 338.56716417910445 L 331.18466898954705 337.13432835820896 L 332.9268292682927 331.4029850746269 L 334.66898954703834 323.1641791044776 L 336.411149825784 339.82089552238807 L 338.1533101045296 322.2686567164179 L 339.89547038327527 319.76119402985074 L 341.6376306620209 322.98507462686564 L 343.37979094076655 319.04477611940297 L 345.1219512195122 323.88059701492534 L 346.86411149825784 317.97014925373134 L 348.6062717770035 311.5223880597015 L 350.34843205574913 303.2835820895523 L 352.0905923344948 298.80597014925377 L 353.8327526132404 296.11940298507466 L 355.57491289198606 290.56716417910445 L 357.3170731707317 288.95522388059703 L 359.05923344947735 288.2388059701493 L 360.801393728223 286.2686567164179 L 362.54355400696863 283.7611940298508 L 364.2857142857143 278.3880597014926 L 366.0278745644599 279.1044776119403 L 367.77003484320556 276.05970149253733 L 369.5121951219512 271.5820895522388 L 371.25435540069685 270.14925373134326 L 372.9965156794425 267.1044776119403 L 374.73867595818814 261.7313432835821 L 376.4808362369338 256.53731343283584 L 378.2229965156795 255.28358208955225 L 379.96515679442507 250.6268656716418 L 381.70731707317077 250.08955223880596 L 383.44947735191636 252.955223880597 L 385.19163763066206 256.179104477612 L 386.93379790940764 236.8358208955224 L 388.67595818815334 232.71641791044775 L 390.41811846689893 225.7313432835821 L 392.16027874564463 224.47761194029854 L 393.9024390243902 232.53731343283582 L 395.6445993031359 226.80597014925374 L 397.3867595818815 236.47761194029854 L 399.1289198606272 231.8208955223881 L 400.8710801393728 224.29850746268656 L 402.6132404181185 219.8208955223881 L 404.3554006968641 200.65671641791047 L 406.0975609756098 210.68656716417914 L 407.8397212543554 209.79104477611943 L 409.58188153310107 204.77611940298507 L 411.3240418118467 190.98507462686567 L 413.06620209059236 192.41791044776122 L 414.808362369338 183.6417910447761 L 416.55052264808364 182.38805970149255 L 418.2926829268293 177.55223880597018 L 420.03484320557493 166.6268656716418 L 421.7770034843206 165.91044776119404 L 423.5191637630662 161.6119402985075 L 425.26132404181186 158.9253731343284 L 427.0034843205575 163.58208955223884 L 428.74564459930315 160.89552238805973 L 430.4878048780488 149.2537313432836 L 432.22996515679444 143.88059701492534 L 433.9721254355401 142.26865671641792 L 435.7142857142857 140.6567164179105 L 437.45644599303137 148.00000000000003 L 439.198606271777 147.10447761194033 L 440.94076655052265 146.0298507462687 L 442.6829268292683 129.91044776119406 L 444.42508710801394 133.3134328358209 L 446.1672473867596 126.32835820895525 L 447.9094076655052 122.02985074626872 L 449.65156794425087 120.59701492537317 L 451.3937282229965 118.26865671641792 L 453.13588850174216 113.61194029850753 L 454.8780487804878 116.6567164179105 L 456.62020905923345 110.56716417910445 L 458.3623693379791 114.32835820895525 L 460.10452961672473 111.46268656716416 L 461.8466898954704 113.97014925373139 L 463.588850174216 106.98507462686564 L 465.33101045296166 103.58208955223881 L 467.0731707317073 102.8656716417911 L 468.81533101045295 117.37313432835822 L 470.5574912891986 116.29850746268653 L 472.29965156794424 108.59701492537317 L 474.0418118466899 105.01492537313436 L 475.7839721254355 100 L 477.52613240418117 105.01492537313436 L 479.2682926829268 120.23880597014931 L 481.01045296167246 108.05970149253733 L 482.7526132404181 107.88059701492534 L 484.49477351916374 126.32835820895525 L 486.2369337979094 118.98507462686564 L 487.97909407665503 129.19402985074623 L 489.7212543554007 141.19402985074623 L 491.4634146341463 148.53731343283582 L 493.20557491289196 150.1492537313433 L 494.9477351916376 146.56716417910448 L 496.68989547038325 159.10447761194033 L 498.4320557491289 165.7313432835821 L 500.17421602787454 163.9402985074627 L 501.91637630662024 168.0597014925373 L 503.6585365853659 174.68656716417914 L 505.4006968641115 180.41791044776122 L 507.14285714285717 185.61194029850745 L 508.8850174216028 187.58208955223884 L 510.62717770034845 195.8208955223881 L 512.3693379790941 203.34328358208958 L 514.1114982578397 205.134328358209 L 515.8536585365854 212.65671641791047 L 517.5958188153311 216.77611940298507 L 519.3379790940767 216.77611940298507 L 521.0801393728223 213.37313432835825 L 522.822299651568 213.91044776119404 L 524.5644599303137 211.9402985074627 L 526.3066202090592 213.37313432835825 L 528.0487804878048 216.77611940298507 L 529.7909407665505 217.134328358209 L 531.5331010452962 214.44776119402988 L 533.2752613240418 216.77611940298507 L 535.0174216027874 216.955223880597 L 536.7595818815331 215.70149253731344 L 538.5017421602788 211.40298507462686 L 540.2439024390244 212.8358208955224 L 541.98606271777 210.1492537313433 L 543.7282229965157 213.19402985074626 L 545.4703832752614 212.47761194029854 L 547.212543554007 208.00000000000003 L 548.9547038327526 211.22388059701493 L 550.6968641114983 206.38805970149255 L 552.439024390244 204.59701492537314 L 554.1811846689895 210.32835820895522 L 555.9233449477351 214.44776119402988 L 557.6655052264808 224.8358208955224 L 559.4076655052265 218.56716417910448 L 561.1498257839721 220.17910447761196 L 562.8919860627177 212.65671641791047 L 564.6341463414634 219.46268656716418 L 566.3763066202091 221.43283582089552 L 568.1184668989547 227.70149253731344 L 569.8606271777003 230.38805970149255 L 571.602787456446 224.65671641791047 L 573.3449477351917 225.55223880597018 L 575.0871080139373 235.40298507462686 L 576.8292682926829 219.6417910447761 L 578.5714285714286 221.2537313432836 L 580.3135888501743 223.9402985074627 L 582.0557491289198 223.76119402985077 L 583.7979094076654 226.08955223880596 L 585.5400696864111 226.6268656716418 L 587.2822299651568 231.10447761194033 L 589.0243902439024 234.1492537313433 L 590.766550522648 243.28358208955225 L 592.5087108013937 243.28358208955225 L 594.2508710801394 248.29850746268656 L 595.993031358885 256 L 597.7351916376306 263.3432835820896 L 599.4773519163763 269.0746268656717 L 601.219512195122 268.8955223880597 L 602.9616724738676 270.8656716417911 L 604.7038327526133 277.134328358209 L 606.445993031359 279.820895522388 L 608.1881533101046 289.4925373134329 L 609.9303135888501 293.43283582089555 L 611.6724738675958 299.70149253731347 L 613.4146341463415 296.8358208955224 L 615.1567944250871 301.67164179104475 L 616.8989547038327 304.53731343283584 L 618.6411149825784 306.14925373134326 L 620.3832752613241 314.92537313432837 L 622.1254355400697 312.4179104477612 L 623.8675958188153 315.64179104477614 L 625.609756097561 314.2089552238806 L 627.3519163763067 324.95522388059703 L 629.0940766550523 326.74626865671644 L 630.8362369337979 329.97014925373134 L 632.5783972125436 333.01492537313436 L 634.3205574912893 332.11940298507466 L 636.0627177700349 333.01492537313436 L 637.8048780487804 337.13432835820896 L 639.5470383275261 338.92537313432837 L 641.2891986062718 336.05970149253733 L 643.0313588850174 338.2089552238806 L 644.773519163763 347.70149253731347 L 646.5156794425087 348.5970149253732 L 648.2578397212544 349.67164179104475 L 650 354.6865671641791 L 650 400 Z" /><text  class="poloto_labels poloto_text poloto_title" alignment-baseline="start" text-anchor="middle" font-size="x-large" x="400" y="37.5" >Total players on 2021-12-13</text><text  class="poloto_labels poloto_text poloto_xname" alignment-baseline="start" text-anchor="middle" font-size="x-large" x="400" y="481.25" >Time</text><text  class="poloto_labels poloto_text poloto_yname" alignment-baseline="start" text-anchor="middle" font-size="x-large" transform="rotate(-90,37.5,250)" x="37.5" y="250" >Count</text><line  class="poloto_axis_lines" stroke="black" x1="150" x2="150" y1="400" y2="405" /><text  class="poloto_tick_labels poloto_text" alignment-baseline="start" text-anchor="middle" x="150" y="430" > 00:00:00</text><line  class="poloto_axis_lines" stroke="black" x1="266.14401858304296" x2="266.14401858304296" y1="400" y2="405" /><text  class="poloto_tick_labels poloto_text" alignment-baseline="start" text-anchor="middle" x="266.14401858304296" y="430" > 05:33:20</text><line  class="poloto_axis_lines" stroke="black" x1="382.2880371660859" x2="382.2880371660859" y1="400" y2="405" /><text  class="poloto_tick_labels poloto_text" alignment-baseline="start" text-anchor="middle" x="382.2880371660859" y="430" > 11:06:40</text><line  class="poloto_axis_lines" stroke="black" x1="498.4320557491289" x2="498.4320557491289" y1="400" y2="405" /><text  class="poloto_tick_labels poloto_text" alignment-baseline="start" text-anchor="middle" x="498.4320557491289" y="430" > 16:40:00</text><line  class="poloto_axis_lines" stroke="black" x1="614.5760743321719" x2="614.5760743321719" y1="400" y2="405" /><text  class="poloto_tick_labels poloto_text" alignment-baseline="start" text-anchor="middle" x="614.5760743321719" y="430" > 22:13:20</text><line  class="poloto_axis_lines" stroke="black" x1="150" x2="144" y1="370.08955223880594" y2="370.08955223880594" /><text  class="poloto_tick_labels poloto_text" alignment-baseline="middle" text-anchor="end" x="135" y="370.08955223880594" > 1000</text><line  class="poloto_axis_lines" stroke="black" x1="150" x2="144" y1="280.53731343283584" y2="280.53731343283584" /><text  class="poloto_tick_labels poloto_text" alignment-baseline="middle" text-anchor="end" x="135" y="280.53731343283584" > 1500</text><line  class="poloto_axis_lines" stroke="black" x1="150" x2="144" y1="190.98507462686564" y2="190.98507462686564" /><text  class="poloto_tick_labels poloto_text" alignment-baseline="middle" text-anchor="end" x="135" y="190.98507462686564" > 2000</text><line  class="poloto_axis_lines" stroke="black" x1="150" x2="144" y1="101.43283582089555" y2="101.43283582089555" /><text  class="poloto_tick_labels poloto_text" alignment-baseline="middle" text-anchor="end" x="135" y="101.43283582089555" > 2500</text><path  stroke="black" fill="none" class="poloto_axis_lines" style="stroke-dasharray:14.518002322880372;stroke-dashoffset:-0;" d=" M 150 400 L 650 400" /><path  stroke="black" fill="none" class="poloto_axis_lines" style="stroke-dasharray:8.955223880597014;stroke-dashoffset:-29.910447761194035;" d=" M 150 400 L 150 100" /></svg>