<svg class="poloto" width="800" height="500" viewBox="0 0 800 500" xmlns="http://www.w3.org/2000/svg"><style>.poloto { stroke-linecap:round; stroke-linejoin:round; font-family: 'Tahoma', sans-serif; background-color: AliceBlue;} .poloto_scatter{stroke-width:7} .poloto_line{stroke-width:2} .poloto_text{fill: black;} .poloto_axis_lines{stroke: black;stroke-width:3;fill:none;stroke-dasharray:none} .poloto0stroke{stroke:  blue;} .poloto1stroke{stroke:  red;} .poloto2stroke{stroke:  green;} .poloto3stroke{stroke:  gold;} .poloto4stroke{stroke:  aqua;} .poloto5stroke{stroke:  lime;} .poloto6stroke{stroke:  orange;} .poloto7stroke{stroke:  chocolate;} .poloto0fill{fill:blue;} .poloto1fill{fill:red;} .poloto2fill{fill:green;} .poloto3fill{fill:gold;} .poloto4fill{fill:aqua;} .poloto5fill{fill:lime;} .poloto6fill{fill:orange;} .poloto7fill{fill:chocolate;}</style><text  class="poloto_text poloto_legend_text" alignment-baseline="middle" text-anchor="start" font-size="large" x="675" y="100" ></text><path  class="poloto_linefill poloto0fill" d=" M 150 400 L 150 319.66824644549763 L 151.74216027874564 320.20142180094786 L 153.4843205574913 321.978672985782 L 155.22648083623693 324.6445497630332 L 156.96864111498257 332.64218009478674 L 158.71080139372822 340.8175355450237 L 160.45296167247386 340.6398104265403 L 162.1951219512195 344.37203791469193 L 163.93728222996515 346.5047393364929 L 165.6794425087108 367.65402843601896 L 167.42160278745644 363.38862559241704 L 169.16376306620208 373.51895734597156 L 170.90592334494772 376.89573459715643 L 172.64808362369337 378.6729857819905 L 174.390243902439 378.3175355450237 L 176.13240418118465 384.89336492890993 L 177.8745644599303 382.04976303317534 L 179.61672473867597 376.36255924170615 L 181.3588850174216 382.5829383886256 L 183.10104529616726 381.6943127962085 L 184.8432055749129 382.93838862559244 L 186.58536585365854 380.9834123222749 L 188.3275261324042 382.5829383886256 L 190.06968641114983 382.76066350710903 L 191.81184668989548 385.42654028436016 L 193.55400696864112 387.5592417061612 L 195.29616724738676 388.4478672985782 L 197.0383275261324 388.0924170616114 L 198.78048780487805 391.29146919431275 L 200.5226480836237 392.18009478672985 L 202.26480836236934 398.75592417061614 L 204.00696864111498 400 L 205.74912891986062 398.04502369668245 L 207.49128919860627 395.7345971563981 L 209.2334494773519 391.4691943127962 L 210.97560975609755 386.6706161137441 L 212.7177700348432 384.89336492890993 L 214.45993031358887 384.89336492890993 L 216.2020905923345 389.15876777251185 L 217.94425087108016 387.5592417061612 L 219.6864111498258 394.84597156398104 L 221.42857142857144 395.37914691943126 L 223.1707317073171 394.3127962085308 L 224.91289198606273 390.2251184834123 L 226.65505226480838 384.7156398104265 L 228.39721254355402 386.13744075829385 L 230.13937282229966 385.60426540284357 L 231.8815331010453 392.00236966824644 L 233.62369337979095 390.7582938388625 L 235.3658536585366 390.93601895734594 L 237.10801393728224 398.2227488151659 L 238.85017421602788 395.5568720379147 L 240.59233449477352 394.84597156398104 L 242.33449477351917 392.53554502369667 L 244.0766550522648 391.29146919431275 L 245.81881533101046 389.51421800947867 L 247.5609756097561 395.37914691943126 L 249.30313588850174 395.20142180094786 L 251.0452961672474 396.978672985782 L 252.78745644599303 395.9123222748815 L 254.52961672473867 393.24644549763036 L 256.2717770034843 393.06872037914695 L 258.01393728222996 391.11374407582935 L 259.7560975609756 392.35781990521326 L 261.49825783972125 395.7345971563981 L 263.2404181184669 391.6469194312796 L 264.98257839721254 391.6469194312796 L 266.7247386759582 387.914691943128 L 268.4668989547038 389.8696682464455 L 270.20905923344947 384.7156398104265 L 271.9512195121951 387.7369668246446 L 273.69337979094075 394.1350710900474 L 275.4355400696864 395.7345971563981 L 277.17770034843204 388.2701421800948 L 278.9198606271777 390.0473933649289 L 280.6620209059233 387.5592417061612 L 282.40418118466897 378.3175355450237 L 284.1463414634146 378.1398104265403 L 285.88850174216026 374.2298578199052 L 287.6306620209059 374.0521327014218 L 289.37282229965155 377.42890995260666 L 291.1149825783972 373.16350710900474 L 292.85714285714283 374.585308056872 L 294.5993031358885 373.34123222748815 L 296.3414634146342 370.8530805687204 L 298.08362369337976 369.78672985781986 L 299.82578397212546 369.07582938388623 L 301.56794425087105 368.7203791469194 L 303.31010452961675 365.8767772511848 L 305.05226480836234 368.542654028436 L 306.79442508710804 368.7203791469194 L 308.5365853658536 365.8767772511848 L 310.2787456445993 363.92180094786727 L 312.0209059233449 363.38862559241704 L 313.7630662020906 362.1445497630332 L 315.5052264808362 367.65402843601896 L 317.2473867595819 370.67535545023696 L 318.9895470383275 375.4739336492891 L 320.7317073170732 373.69668246445497 L 322.4738675958188 373.34123222748815 L 324.2160278745645 368.542654028436 L 325.95818815331006 360.54502369668245 L 327.70034843205576 354.68009478672985 L 329.44250871080135 344.0165876777251 L 331.18466898954705 337.9739336492891 L 332.92682926829264 337.2630331753554 L 334.66898954703834 339.39573459715643 L 336.4111498257839 333.7085308056872 L 338.1533101045296 332.99763033175356 L 339.8954703832752 324.11137440758296 L 341.6376306620209 327.6658767772512 L 343.3797909407665 322.68957345971563 L 345.1219512195122 326.24407582938386 L 346.86411149825784 329.2654028436019 L 348.6062717770035 331.75355450236964 L 350.34843205574913 334.06398104265406 L 352.0905923344948 324.6445497630332 L 353.8327526132404 318.7796208530806 L 355.57491289198606 320.7345971563981 L 357.3170731707317 309.5379146919431 L 359.05923344947735 307.22748815165875 L 360.801393728223 306.5165876777251 L 362.54355400696863 303.8507109004739 L 364.2857142857143 307.93838862559244 L 366.0278745644599 302.4289099526066 L 367.77003484320556 301.71800947867297 L 369.5121951219512 295.49763033175356 L 371.25435540069685 291.76540284360186 L 372.9965156794425 282.16824644549763 L 374.73867595818814 276.30331753554503 L 376.4808362369338 266.1729857819905 L 378.2229965156794 265.9952606635071 L 379.96515679442507 264.21800947867297 L 381.7073170731707 266.52843601895734 L 383.44947735191636 265.10663507109007 L 385.191637630662 263.3293838862559 L 386.93379790940764 259.7748815165877 L 388.6759581881533 257.81990521327015 L 390.41811846689893 253.021327014218 L 392.1602787456446 253.90995260663504 L 393.9024390243902 252.48815165876778 L 395.6445993031359 250.71090047393363 L 397.3867595818815 250.88862559241704 L 399.1289198606272 252.48815165876778 L 400.8710801393728 253.021327014218 L 402.6132404181185 252.13270142180096 L 404.3554006968641 242.35781990521326 L 406.0975609756097 235.07109004739334 L 407.83972125435537 238.62559241706163 L 409.581881533101 235.42654028436016 L 411.32404181184666 233.47156398104266 L 413.0662020905923 230.27251184834125 L 414.80836236933794 234.0047393364929 L 416.5505226480836 230.80568720379148 L 418.29268292682923 232.93838862559244 L 420.0348432055749 222.63033175355451 L 421.7770034843206 225.2962085308057 L 423.5191637630662 216.40995260663504 L 425.26132404181186 210.72274881516586 L 427.0034843205575 213.21090047393363 L 428.74564459930315 205.21327014218008 L 430.4878048780488 202.19194312796208 L 432.22996515679444 194.37203791469193 L 433.9721254355401 194.72748815165875 L 435.7142857142857 179.97630331753555 L 437.45644599303137 174.11137440758296 L 439.198606271777 178.021327014218 L 440.94076655052265 174.64454976303318 L 442.6829268292683 163.62559241706163 L 444.42508710801394 163.80331753554503 L 446.1672473867596 163.98104265402844 L 447.9094076655052 151.71800947867297 L 449.65156794425087 151.54028436018956 L 451.3937282229965 141.40995260663504 L 453.13588850174216 139.98815165876778 L 454.8780487804878 135.18957345971563 L 456.62020905923345 128.96919431279622 L 458.3623693379791 125.94786729857822 L 460.10452961672473 121.8601895734597 L 461.8466898954704 127.7251184834123 L 463.588850174216 130.03554502369667 L 465.33101045296166 134.3009478672986 L 467.0731707317073 125.77014218009475 L 468.81533101045295 131.99052132701422 L 470.5574912891986 123.28199052132703 L 472.29965156794424 125.41469194312793 L 474.0418118466899 122.57109004739334 L 475.7839721254355 123.10426540284357 L 477.52613240418117 122.92654028436016 L 479.2682926829268 108.17535545023696 L 481.01045296167246 107.64218009478674 L 482.7526132404181 102.66587677725119 L 484.49477351916374 109.063981042654 L 486.2369337979094 102.48815165876778 L 487.97909407665503 106.93127962085305 L 489.7212543554007 105.8649289099526 L 491.4634146341463 112.44075829383883 L 493.20557491289196 116.17298578199052 L 494.9477351916376 104.62085308056874 L 496.68989547038325 106.042654028436 L 498.4320557491289 106.22037914691941 L 500.17421602787454 107.81990521327015 L 501.9163763066202 100 L 503.6585365853658 101.06635071090045 L 505.40069686411147 111.01895734597156 L 507.1428571428571 114.04028436018956 L 508.88501742160275 115.46208530805688 L 510.6271777003484 128.08056872037912 L 512.3693379790941 130.21327014218008 L 514.1114982578397 133.5900473933649 L 515.8536585365853 142.29857819905214 L 517.595818815331 146.2085308056872 L 519.3379790940767 138.92180094786727 L 521.0801393728223 142.83175355450237 L 522.822299651568 149.2298578199052 L 524.5644599303137 153.67298578199052 L 526.3066202090592 146.3862559241706 L 528.0487804878048 161.84834123222748 L 529.7909407665505 172.51184834123222 L 531.5331010452962 177.66587677725119 L 533.2752613240418 178.1990521327014 L 535.0174216027874 183.7085308056872 L 536.7595818815331 189.9289099526066 L 538.5017421602788 195.61611374407585 L 540.2439024390244 197.57109004739334 L 541.98606271777 197.03791469194312 L 543.7282229965157 199.8815165876777 L 545.4703832752614 193.12796208530807 L 547.212543554007 191.52843601895734 L 548.9547038327526 194.37203791469193 L 550.6968641114983 202.19194312796208 L 552.439024390244 203.25829383886253 L 554.1811846689895 199.5260663507109 L 555.9233449477351 196.6824644549763 L 557.6655052264808 200.23696682464453 L 559.4076655052265 204.68009478672985 L 561.1498257839721 206.10189573459712 L 562.8919860627177 203.96919431279622 L 564.6341463414634 207.34597156398104 L 566.3763066202091 214.81042654028437 L 568.1184668989547 210.36729857819904 L 569.8606271777003 213.56635071090045 L 571.602787456446 228.85071090047393 L 573.3449477351917 228.67298578199052 L 575.0871080139373 228.4952606635071 L 576.8292682926829 229.56161137440756 L 578.5714285714286 227.07345971563979 L 580.3135888501743 226.36255924170615 L 582.0557491289198 222.4526066350711 L 583.7979094076654 214.81042654028437 L 585.5400696864111 214.09952606635068 L 587.2822299651568 223.51895734597156 L 589.0243902439024 259.59715639810423 L 590.766550522648 230.0947867298578 L 592.5087108013937 230.45023696682466 L 594.2508710801394 226.71800947867297 L 595.993031358885 231.1611374407583 L 597.7351916376306 249.64454976303318 L 599.4773519163763 238.98104265402844 L 601.219512195122 278.0805687203791 L 602.9616724738676 248.04502369668245 L 604.7038327526132 245.20142180094786 L 606.4459930313589 254.26540284360186 L 608.1881533101046 253.37677725118482 L 609.9303135888501 253.73222748815164 L 611.6724738675957 256.3981042654028 L 613.4146341463414 255.33175355450237 L 615.1567944250871 255.50947867298578 L 616.8989547038327 259.9526066350711 L 618.6411149825783 255.33175355450237 L 620.383275261324 263.1516587677725 L 622.1254355400697 270.260663507109 L 623.8675958188153 274.3483412322275 L 625.609756097561 279.50236966824644 L 627.3519163763067 286.78909952606637 L 629.0940766550523 293.8981042654028 L 630.8362369337979 298.8744075829384 L 632.5783972125436 300.2962085308057 L 634.3205574912893 300.8293838862559 L 636.0627177700349 295.31990521327015 L 637.8048780487804 303.6729857819905 L 639.5470383275261 306.3388625592417 L 641.2891986062718 299.2298578199052 L 643.0313588850174 303.3175355450237 L 644.773519163763 302.9620853080569 L 646.5156794425087 307.760663507109 L 648.2578397212544 312.3815165876777 L 650 314.8696682464455 L 650 400 Z" /><text  class="poloto_labels poloto_text poloto_title" alignment-baseline="start" text-anchor="middle" font-size="x-large" x="400" y="37.5" >Total players on 2021-06-22</text><text  class="poloto_labels poloto_text poloto_xname" alignment-baseline="start" text-anchor="middle" font-size="x-large" x="400" y="481.25" >Time</text><text  class="poloto_labels poloto_text poloto_yname" alignment-baseline="start" text-anchor="middle" font-size="x-large" transform="rotate(-90,37.5,250)" x="37.5" y="250" >Count</text><line  class="poloto_axis_lines" stroke="black" x1="208.0487804878049" x2="208.0487804878049" y1="400" y2="405" /><text  class="poloto_tick_labels poloto_text" alignment-baseline="start" text-anchor="middle" x="208.0487804878049" y="430" > 03:00</text><line  class="poloto_axis_lines" stroke="black" x1="266.1207897793264" x2="266.1207897793264" y1="400" y2="405" /><text  class="poloto_tick_labels poloto_text" alignment-baseline="start" text-anchor="middle" x="266.1207897793264" y="430" > 06:00</text><line  class="poloto_axis_lines" stroke="black" x1="324.19279907084785" x2="324.19279907084785" y1="400" y2="405" /><text  class="poloto_tick_labels poloto_text" alignment-baseline="start" text-anchor="middle" x="324.19279907084785" y="430" > 08:00</text><line  class="poloto_axis_lines" stroke="black" x1="382.2648083623693" x2="382.2648083623693" y1="400" y2="405" /><text  class="poloto_tick_labels poloto_text" alignment-baseline="start" text-anchor="middle" x="382.2648083623693" y="430" > 11:00</text><line  class="poloto_axis_lines" stroke="black" x1="440.3368176538908" x2="440.3368176538908" y1="400" y2="405" /><text  class="poloto_tick_labels poloto_text" alignment-baseline="start" text-anchor="middle" x="440.3368176538908" y="430" > 14:00</text><line  class="poloto_axis_lines" stroke="black" x1="498.4088269454123" x2="498.4088269454123" y1="400" y2="405" /><text  class="poloto_tick_labels poloto_text" alignment-baseline="start" text-anchor="middle" x="498.4088269454123" y="430" > 17:00</text><line  class="poloto_axis_lines" stroke="black" x1="556.4808362369338" x2="556.4808362369338" y1="400" y2="405" /><text  class="poloto_tick_labels poloto_text" alignment-baseline="start" text-anchor="middle" x="556.4808362369338" y="430" > 19:00</text><line  class="poloto_axis_lines" stroke="black" x1="614.5528455284552" x2="614.5528455284552" y1="400" y2="405" /><text  class="poloto_tick_labels poloto_text" alignment-baseline="start" text-anchor="middle" x="614.5528455284552" y="430" > 22:00</text><line  class="poloto_axis_lines" stroke="black" x1="150" x2="144" y1="318.2464454976303" y2="318.2464454976303" /><text  class="poloto_tick_labels poloto_text" alignment-baseline="middle" text-anchor="end" x="135" y="318.2464454976303" > 1500</text><line  class="poloto_axis_lines" stroke="black" x1="150" x2="144" y1="229.38388625592415" y2="229.38388625592415" /><text  class="poloto_tick_labels poloto_text" alignment-baseline="middle" text-anchor="end" x="135" y="229.38388625592415" > 2000</text><line  class="poloto_axis_lines" stroke="black" x1="150" x2="144" y1="140.521327014218" y2="140.521327014218" /><text  class="poloto_tick_labels poloto_text" alignment-baseline="middle" text-anchor="end" x="135" y="140.521327014218" > 2500</text><path  stroke="black" fill="none" class="poloto_axis_lines" style="stroke-dasharray:14.518002322880372;stroke-dashoffset:-58.04878048780488;" d=" M 150 400 L 650 400" /><path  stroke="black" fill="none" class="poloto_axis_lines" style="stroke-dasharray:8.886255924170616;stroke-dashoffset:-81.7535545023697;" d=" M 150 400 L 150 100" /></svg>