<svg class="poloto" width="800" height="500" viewBox="0 0 800 500" xmlns="http://www.w3.org/2000/svg"><style>.poloto { stroke-linecap:round; stroke-linejoin:round; font-family: 'Tahoma', sans-serif; background-color: AliceBlue;} .poloto_scatter{stroke-width:7} .poloto_line{stroke-width:2} .poloto_text{fill: black;} .poloto_axis_lines{stroke: black;stroke-width:3;fill:none;stroke-dasharray:none} .poloto0stroke{stroke:  blue;} .poloto1stroke{stroke:  red;} .poloto2stroke{stroke:  green;} .poloto3stroke{stroke:  gold;} .poloto4stroke{stroke:  aqua;} .poloto5stroke{stroke:  lime;} .poloto6stroke{stroke:  orange;} .poloto7stroke{stroke:  chocolate;} .poloto0fill{fill:blue;} .poloto1fill{fill:red;} .poloto2fill{fill:green;} .poloto3fill{fill:gold;} .poloto4fill{fill:aqua;} .poloto5fill{fill:lime;} .poloto6fill{fill:orange;} .poloto7fill{fill:chocolate;}</style><text  class="poloto_text poloto_legend_text" alignment-baseline="middle" text-anchor="start" font-size="large" x="675" y="100" ></text><path  class="poloto_linefill poloto0fill" d=" M 150 400 L 150 361.7098133654425 L 151.74216027874564 365.14148103552077 L 153.4843205574913 367.30885009030703 L 155.22648083623693 367.6700782661047 L 156.96864111498257 367.30885009030703 L 158.71080139372822 371.101745936183 L 160.45296167247386 376.88139674894643 L 162.1951219512195 382.11920529801324 L 163.93728222996515 385.55087296809154 L 165.6794425087108 386.8151715833835 L 167.42160278745644 384.46718844069835 L 169.16376306620208 385.55087296809154 L 170.90592334494772 389.1631547260686 L 172.64808362369337 383.56411800120406 L 174.390243902439 385.7314870559904 L 176.13240418118465 390.78868151715835 L 177.8745644599303 390.0662251655629 L 179.61672473867597 388.9825406381698 L 181.3588850174216 389.3437688139675 L 183.10104529616726 386.8151715833835 L 184.8432055749129 384.10596026490066 L 186.58536585365854 380.85490668272126 L 188.3275261324042 379.0487658037327 L 190.06968641114983 386.6345574954846 L 191.81184668989548 390.42745334136066 L 193.55400696864112 392.414208308248 L 195.29616724738676 393.13666465984346 L 197.0383275261324 391.14990969295604 L 198.78048780487805 391.33052378085495 L 200.5226480836237 395.6652618904275 L 202.26480836236934 395.48464780252857 L 204.00696864111498 396.38771824202286 L 205.74912891986062 395.6652618904275 L 207.49128919860627 396.56833232992176 L 209.2334494773519 400 L 210.97560975609755 396.92956050571945 L 212.7177700348432 397.29078868151714 L 214.45993031358887 395.6652618904275 L 216.2020905923345 390.9692956050572 L 217.94425087108016 389.3437688139675 L 219.6864111498258 391.14990969295604 L 221.42857142857144 389.88561107766407 L 223.1707317073171 393.3172787477423 L 224.91289198606273 393.67850692354006 L 226.65505226480838 393.13666465984346 L 228.39721254355402 392.9560505719446 L 230.13937282229966 393.13666465984346 L 231.8815331010453 393.3172787477423 L 233.62369337979095 397.83263094521374 L 235.3658536585366 395.1234196267309 L 237.10801393728224 394.94280553883203 L 238.85017421602788 392.414208308248 L 240.59233449477352 391.33052378085495 L 242.33449477351917 392.05298013245033 L 244.0766550522648 389.1631547260686 L 245.81881533101046 390.0662251655629 L 247.5609756097561 390.9692956050572 L 249.30313588850174 396.38771824202286 L 251.0452961672474 398.5550872968091 L 252.78745644599303 394.94280553883203 L 254.52961672473867 393.8591210114389 L 256.2717770034843 397.1101745936183 L 258.01393728222996 391.14990969295604 L 259.7560975609756 390.0662251655629 L 261.49825783972125 384.28657435279956 L 263.2404181184669 379.59060806742923 L 264.98257839721254 372.36604455147506 L 266.7247386759582 369.1149909692956 L 268.4668989547038 361.7098133654425 L 270.20905923344947 364.4190246839254 L 271.9512195121951 362.0710415412402 L 273.69337979094075 357.91691751956654 L 275.4355400696864 361.8904274533414 L 277.17770034843204 357.5556893437688 L 278.91986062717774 358.2781456953643 L 280.6620209059233 361.5291992775436 L 282.404181184669 355.56893437688143 L 284.1463414634146 356.6526189042745 L 285.8885017421603 356.8332329921734 L 287.6306620209059 354.30463576158945 L 289.3728222996516 354.846478025286 L 291.1149825783972 360.44551475015055 L 292.8571428571429 367.6700782661047 L 294.5993031358885 362.0710415412402 L 296.3414634146342 364.05779650812764 L 298.08362369337976 360.9873570138471 L 299.82578397212546 355.56893437688143 L 301.56794425087105 364.7802528597231 L 303.31010452961675 360.80674292594824 L 305.05226480836234 358.8199879590608 L 306.79442508710804 356.2913907284768 L 308.5365853658536 357.37507525587 L 310.2787456445993 359.00060204695967 L 312.0209059233449 353.40156532209517 L 313.7630662020906 355.56893437688143 L 315.5052264808362 350.6923540036123 L 317.2473867595819 350.5117399157134 L 318.9895470383275 350.1505117399157 L 320.7317073170732 355.02709211318484 L 322.4738675958188 357.1944611679711 L 324.2160278745645 358.8199879590608 L 325.9581881533101 354.66586393738714 L 327.70034843205576 357.91691751956654 L 329.4425087108014 356.8332329921734 L 331.18466898954705 355.2077062010837 L 332.9268292682927 359.54244431065626 L 334.66898954703834 356.11077664057797 L 336.411149825784 349.96989765201687 L 338.1533101045296 345.99638771824203 L 339.89547038327527 346.3576158940398 L 341.6376306620209 348.88621312462374 L 343.37979094076655 342.38410596026495 L 345.1219512195122 344.9127031908489 L 346.86411149825784 337.5075255869958 L 348.6062717770035 333.7146297411198 L 350.34843205574913 328.47682119205297 L 352.0905923344948 324.8645394340758 L 353.8327526132404 324.14208308248044 L 355.57491289198606 322.51655629139077 L 357.3170731707317 317.63997591812165 L 359.05923344947735 309.8735701384708 L 360.801393728223 308.42865743527994 L 362.54355400696863 304.9969897652017 L 364.2857142857143 303.0102347983143 L 366.0278745644599 308.06742925948225 L 367.77003484320556 308.7898856110777 L 369.5121951219512 301.92655027092115 L 371.25435540069685 301.2040939193257 L 372.9965156794425 288.3804936785069 L 374.73867595818814 285.3100541842264 L 376.4808362369338 290.1866345574955 L 378.2229965156795 286.3937387116195 L 379.96515679442507 288.56110776640577 L 381.70731707317077 285.1294400963275 L 383.44947735191636 280.794701986755 L 385.19163763066206 276.0987357013847 L 386.93379790940764 272.6670680313064 L 388.67595818815334 275.3762793497893 L 390.41811846689893 266.16496086694764 L 392.16027874564463 264.1782059000602 L 393.9024390243902 288.3804936785069 L 395.6445993031359 258.21794099939797 L 397.3867595818815 253.5219747140277 L 399.1289198606272 266.16496086694764 L 400.8710801393728 243.76881396748945 L 402.6132404181185 235.0993377483444 L 404.3554006968641 231.48705599036725 L 406.0975609756098 229.13907284768214 L 407.8397212543554 217.57977122215533 L 409.58188153310107 213.2450331125828 L 411.3240418118467 209.4521372667068 L 413.06620209059236 206.02046959662857 L 414.808362369338 204.39494280553885 L 416.55052264808364 195.1836243226972 L 418.2926829268293 191.3907284768212 L 420.03484320557493 184.88862131246236 L 421.7770034843206 173.50993377483445 L 423.5191637630662 172.24563515954247 L 425.26132404181186 170.62010836845275 L 427.0034843205575 168.63335340156533 L 428.74564459930315 170.25888019265506 L 430.4878048780488 172.96809151113786 L 432.22996515679444 169.8976520168573 L 433.9721254355401 166.46598434677907 L 435.7142857142857 164.6598434677905 L 437.45644599303137 161.58940397350995 L 439.198606271777 166.10475617098137 L 440.94076655052265 161.7700180614088 L 442.6829268292683 157.6158940397351 L 444.42508710801394 148.22396146899462 L 446.1672473867596 139.5544852498495 L 447.9094076655052 145.51475015051176 L 449.65156794425087 133.7748344370861 L 451.3937282229965 134.1360626128838 L 453.13588850174216 125.46658639373874 L 454.8780487804878 124.2022877784467 L 456.62020905923345 118.42263696568335 L 458.3623693379791 122.03491872366044 L 460.10452961672473 119.14509331727874 L 461.8466898954704 115.1715833835039 L 463.588850174216 116.61649608669478 L 465.33101045296166 111.9205298013245 L 467.0731707317073 113.00421432871764 L 468.81533101045295 110.29500301023484 L 470.5574912891986 111.73991571342566 L 472.29965156794424 116.25526791089709 L 474.0418118466899 114.81035520770621 L 475.7839721254355 110.83684527393137 L 477.52613240418117 107.22456351595423 L 479.2682926829268 110.11438892233593 L 481.01045296167246 109.39193257074055 L 482.7526132404181 100 L 484.49477351916374 103.79289584587599 L 486.2369337979094 106.1408789885611 L 487.97909407665503 128.5370258880193 L 489.7212543554007 124.2022877784467 L 491.4634146341463 139.0126429861529 L 493.20557491289196 134.3166767007827 L 494.9477351916376 138.83202889825407 L 496.68989547038325 142.8055388320289 L 498.4320557491289 143.7086092715232 L 500.17421602787454 149.66887417218544 L 501.91637630662024 154.54545454545456 L 503.6585365853659 159.24142083082484 L 505.4006968641115 165.56291390728478 L 507.14285714285717 180.373269114991 L 508.8850174216028 190.84888621312462 L 510.62717770034845 197.35099337748346 L 512.3693379790941 198.79590608067429 L 514.1114982578397 206.74292594822396 L 515.8536585365854 211.98073449729083 L 517.5958188153311 214.87055990367247 L 519.3379790940767 222.99819385912105 L 521.0801393728223 223.1788079470199 L 522.822299651568 220.65021071643588 L 524.5644599303137 221.55328115593016 L 526.3066202090592 227.51354605659242 L 528.0487804878048 227.69416014449126 L 529.7909407665505 228.4166164960867 L 531.5331010452962 224.26249247441302 L 533.2752613240418 222.6369656833233 L 535.0174216027874 222.6369656833233 L 536.7595818815331 222.09512341962676 L 538.5017421602788 222.2757375075256 L 540.2439024390244 223.54003612281758 L 541.98606271777 224.80433473810956 L 543.7282229965157 231.84828416616494 L 545.4703832752614 237.0860927152318 L 547.212543554007 239.25346177001808 L 548.9547038327526 240.15653220951236 L 550.6968641114983 241.42083082480434 L 552.439024390244 245.93618302227577 L 554.1811846689895 252.79951836243225 L 555.9233449477351 249.18723660445517 L 557.6655052264808 246.65863937387115 L 559.4076655052265 245.75556893437687 L 561.1498257839721 254.60565924142082 L 562.8919860627177 257.4954846478025 L 564.6341463414634 254.42504515352198 L 566.3763066202091 255.86995785671286 L 568.1184668989547 249.7290788681517 L 569.8606271777003 262.01083684527396 L 571.602787456446 260.38531005418423 L 573.3449477351917 259.8434677904877 L 575.0871080139373 261.46899458157736 L 576.8292682926829 265.62311860325104 L 578.5714285714286 261.8302227573751 L 580.3135888501743 262.91390728476824 L 582.0557491289198 268.51294400963275 L 583.7979094076654 271.94461167971104 L 585.5400696864111 277.001806140879 L 587.2822299651568 274.29259482239615 L 589.0243902439024 279.53040337146297 L 590.766550522648 271.04154124021676 L 592.5087108013937 275.0150511739916 L 594.2508710801394 277.3630343166767 L 595.993031358885 285.67128236002407 L 597.7351916376306 280.97531607465385 L 599.4773519163763 287.11619506321495 L 601.219512195122 293.9795304033715 L 602.9616724738676 293.61830222757374 L 604.7038327526133 296.6887417218543 L 606.445993031359 298.13365442504517 L 608.1881533101046 298.13365442504517 L 609.9303135888501 302.28777844671885 L 611.6724738675958 297.7724262492475 L 613.4146341463415 299.93979530403374 L 615.1567944250871 306.08067429259484 L 616.8989547038327 311.86032510535824 L 618.6411149825784 317.09813365442506 L 620.3832752613241 315.47260686333533 L 622.1254355400697 316.73690547862736 L 623.8675958188153 316.0144491270319 L 625.609756097561 322.51655629139077 L 627.3519163763067 324.68392534617703 L 629.0940766550523 328.47682119205297 L 630.8362369337979 333.534015653221 L 632.5783972125436 333.8952438290187 L 634.3205574912893 330.82480433473813 L 636.0627177700349 333.8952438290187 L 637.8048780487804 335.15954244431066 L 639.5470383275261 341.48103552077066 L 641.2891986062718 350.87296809151115 L 643.0313588850174 350.87296809151115 L 644.773519163763 354.30463576158945 L 646.5156794425087 361.8904274533414 L 648.2578397212544 365.50270921131846 L 650 379.22937989163154 L 650 400 Z" /><text  class="poloto_labels poloto_text poloto_title" alignment-baseline="start" text-anchor="middle" font-size="x-large" x="400" y="37.5" >Total players on 2021-12-23</text><text  class="poloto_labels poloto_text poloto_xname" alignment-baseline="start" text-anchor="middle" font-size="x-large" x="400" y="481.25" >Time</text><text  class="poloto_labels poloto_text poloto_yname" alignment-baseline="start" text-anchor="middle" font-size="x-large" transform="rotate(-90,37.5,250)" x="37.5" y="250" >Count</text><line  class="poloto_axis_lines" stroke="black" x1="150" x2="150" y1="400" y2="405" /><text  class="poloto_tick_labels poloto_text" alignment-baseline="start" text-anchor="middle" x="150" y="430" > 00:00</text><line  class="poloto_axis_lines" stroke="black" x1="266.14401858304296" x2="266.14401858304296" y1="400" y2="405" /><text  class="poloto_tick_labels poloto_text" alignment-baseline="start" text-anchor="middle" x="266.14401858304296" y="430" > 06:00</text><line  class="poloto_axis_lines" stroke="black" x1="382.2880371660859" x2="382.2880371660859" y1="400" y2="405" /><text  class="poloto_tick_labels poloto_text" alignment-baseline="start" text-anchor="middle" x="382.2880371660859" y="430" > 11:00</text><line  class="poloto_axis_lines" stroke="black" x1="498.4320557491289" x2="498.4320557491289" y1="400" y2="405" /><text  class="poloto_tick_labels poloto_text" alignment-baseline="start" text-anchor="middle" x="498.4320557491289" y="430" > 17:00</text><line  class="poloto_axis_lines" stroke="black" x1="614.5760743321719" x2="614.5760743321719" y1="400" y2="405" /><text  class="poloto_tick_labels poloto_text" alignment-baseline="start" text-anchor="middle" x="614.5760743321719" y="430" > 22:00</text><line  class="poloto_axis_lines" stroke="black" x1="150" x2="144" y1="396.7489464178206" y2="396.7489464178206" /><text  class="poloto_tick_labels poloto_text" alignment-baseline="middle" text-anchor="end" x="135" y="396.7489464178206" > 1000</text><line  class="poloto_axis_lines" stroke="black" x1="150" x2="144" y1="306.4419024683925" y2="306.4419024683925" /><text  class="poloto_tick_labels poloto_text" alignment-baseline="middle" text-anchor="end" x="135" y="306.4419024683925" > 1500</text><line  class="poloto_axis_lines" stroke="black" x1="150" x2="144" y1="216.1348585189645" y2="216.1348585189645" /><text  class="poloto_tick_labels poloto_text" alignment-baseline="middle" text-anchor="end" x="135" y="216.1348585189645" > 2000</text><line  class="poloto_axis_lines" stroke="black" x1="150" x2="144" y1="125.82781456953643" y2="125.82781456953643" /><text  class="poloto_tick_labels poloto_text" alignment-baseline="middle" text-anchor="end" x="135" y="125.82781456953643" > 2500</text><path  stroke="black" fill="none" class="poloto_axis_lines" style="stroke-dasharray:14.518002322880372;stroke-dashoffset:-0;" d=" M 150 400 L 650 400" /><path  stroke="black" fill="none" class="poloto_axis_lines" style="stroke-dasharray:9.030704394942806;stroke-dashoffset:-3.251053582179395;" d=" M 150 400 L 150 100" /></svg>