<svg class="poloto" width="800" height="500" viewBox="0 0 800 500" xmlns="http://www.w3.org/2000/svg"><style>.poloto { stroke-linecap:round; stroke-linejoin:round; font-family: 'Tahoma', sans-serif; background-color: AliceBlue;} .poloto_scatter{stroke-width:7} .poloto_line{stroke-width:2} .poloto_text{fill: black;} .poloto_axis_lines{stroke: black;stroke-width:3;fill:none;stroke-dasharray:none} .poloto0stroke{stroke:  blue;} .poloto1stroke{stroke:  red;} .poloto2stroke{stroke:  green;} .poloto3stroke{stroke:  gold;} .poloto4stroke{stroke:  aqua;} .poloto5stroke{stroke:  lime;} .poloto6stroke{stroke:  orange;} .poloto7stroke{stroke:  chocolate;} .poloto0fill{fill:blue;} .poloto1fill{fill:red;} .poloto2fill{fill:green;} .poloto3fill{fill:gold;} .poloto4fill{fill:aqua;} .poloto5fill{fill:lime;} .poloto6fill{fill:orange;} .poloto7fill{fill:chocolate;}</style><text  class="poloto_text poloto_legend_text" alignment-baseline="middle" text-anchor="start" font-size="large" x="675" y="100" ></text><path  class="poloto_linefill poloto0fill" d=" M 150 400 L 150 390.1202300052274 L 151.74216027874564 391.2179822268688 L 153.4843205574913 394.04077365394664 L 155.22648083623693 394.511238891793 L 156.96864111498257 392.31573444851017 L 158.71080139372822 394.8248823836905 L 160.45296167247386 394.3544171458442 L 162.1951219512195 396.54992158912705 L 163.93728222996515 396.8635650810246 L 165.6794425087108 397.1772085729221 L 167.42160278745644 400 L 169.16376306620208 399.5295347621537 L 170.90592334494772 395.92263460533195 L 172.64808362369337 397.6476738107684 L 174.390243902439 399.05906952430735 L 176.13240418118465 393.2566649242028 L 177.8745644599303 399.3727130162049 L 179.61672473867597 397.3340303188709 L 181.3588850174216 398.11813904861475 L 183.10104529616726 396.07945635128067 L 184.8432055749129 391.2179822268688 L 186.58536585365854 392.15891270256145 L 188.3275261324042 394.8248823836905 L 190.06968641114983 394.8248823836905 L 191.81184668989548 390.5906952430737 L 193.55400696864112 387.4542603240983 L 195.29616724738676 383.69053842132774 L 197.0383275261324 389.8065865133299 L 198.78048780487805 391.8452692106639 L 200.5226480836237 396.3930998431782 L 202.26480836236934 398.9022477783586 L 204.00696864111498 398.9022477783586 L 205.74912891986062 398.5886042864611 L 207.49128919860627 396.8635650810246 L 209.2334494773519 395.7658128593832 L 210.97560975609755 391.53162571876635 L 212.7177700348432 387.14061683220075 L 214.45993031358887 383.69053842132774 L 216.2020905923345 382.5927861996863 L 217.94425087108016 382.12232096184005 L 219.6864111498258 378.51542080501827 L 221.42857142857144 378.6722425509671 L 223.1707317073171 385.7292211186618 L 224.91289198606273 379.29952953476214 L 226.65505226480838 376.7903815995818 L 228.39721254355402 372.55619445896497 L 230.13937282229966 374.4380554103502 L 231.8815331010453 374.12441191845267 L 233.62369337979095 368.94929430214324 L 235.3658536585366 369.57658128593835 L 237.10801393728224 370.98797699947727 L 238.85017421602788 365.96968112911657 L 240.59233449477352 359.6968112911657 L 242.33449477351917 357.34448510193414 L 244.0766550522648 356.71719811813904 L 245.81881533101046 354.678515420805 L 247.5609756097561 359.8536330371145 L 249.30313588850174 363.14688970203866 L 251.0452961672474 362.04913748039723 L 252.78745644599303 352.79665446941976 L 254.52961672473867 349.6602195504443 L 256.2717770034843 352.4830109775222 L 258.01393728222996 351.8557239937271 L 259.7560975609756 353.5807631991636 L 261.49825783972125 356.089911134344 L 263.2404181184669 347.3078933612128 L 264.98257839721254 346.52378463146886 L 266.7247386759582 343.38734971249346 L 268.4668989547038 337.4281233664401 L 270.20905923344947 333.0371144798745 L 271.9512195121951 333.8212232096184 L 273.69337979094075 328.64610559330896 L 275.4355400696864 325.6664924202823 L 277.17770034843204 321.43230527966546 L 278.91986062717774 314.21850496602195 L 280.6620209059233 312.17982226868793 L 282.404181184669 309.35703084161 L 284.1463414634146 302.61369576581285 L 285.8885017421603 305.9069524307371 L 287.6306620209059 308.25927861996865 L 289.3728222996516 304.80920020909565 L 291.1149825783972 306.6910611604809 L 292.8571428571429 307.4751698902248 L 294.5993031358885 309.0433873497125 L 296.3414634146342 304.9660219550444 L 298.08362369337976 304.3387349712493 L 299.82578397212546 307.318348144276 L 301.56794425087105 307.1615263983272 L 303.31010452961675 309.0433873497125 L 305.05226480836234 307.00470465237845 L 306.79442508710804 303.868269733403 L 308.5365853658536 301.829587036069 L 310.2787456445993 295.0862519602718 L 312.0209059233449 294.6157867224255 L 313.7630662020906 290.5384213277574 L 315.5052264808362 295.0862519602718 L 317.2473867595819 289.9111343439624 L 318.9895470383275 289.9111343439624 L 320.7317073170732 293.3612127548353 L 322.4738675958188 288.4997386304234 L 324.2160278745645 290.38159958180864 L 325.9581881533101 288.18609513852584 L 327.70034843205576 288.02927339257707 L 329.4425087108014 289.44066910611605 L 331.18466898954705 284.1087297438578 L 332.9268292682927 281.2859383167799 L 334.66898954703834 285.04966021955045 L 336.411149825784 288.81338212232095 L 338.1533101045296 289.1270256142185 L 339.89547038327527 285.363303711448 L 341.6376306620209 279.87454260324097 L 343.37979094076655 280.1881860951385 L 345.1219512195122 277.5222164140094 L 346.86411149825784 273.44485101934134 L 348.6062717770035 262.31050705697857 L 350.34843205574913 266.85833768949294 L 352.0905923344948 265.13329848405647 L 353.8327526132404 254.7830632514375 L 355.57491289198606 256.1944589649765 L 357.3170731707317 249.29430214323054 L 359.05923344947735 260.4286461055933 L 360.801393728223 261.21275483533714 L 362.54355400696863 259.01725039205434 L 364.2857142857143 256.508102456874 L 366.0278745644599 261.21275483533714 L 367.77003484320556 251.33298484056456 L 369.5121951219512 248.1965499215891 L 371.25435540069685 252.27391531625716 L 372.9965156794425 231.5734448510193 L 374.73867595818814 241.29639309984316 L 376.4808362369338 246.47151071615264 L 378.2229965156795 239.57135389440668 L 379.96515679442507 242.08050182958704 L 381.70731707317077 232.98484056455828 L 383.44947735191636 229.3779404077365 L 385.19163763066206 235.33716675378986 L 386.93379790940764 228.4370099320439 L 388.67595818815334 227.49607945635125 L 390.41811846689893 218.55723993727128 L 392.16027874564463 219.18452692106638 L 393.9024390243902 213.3821223209618 L 395.6445993031359 210.8729743857815 L 397.3867595818815 208.0501829587036 L 399.1289198606272 204.12963930998433 L 400.8710801393728 195.19079979090435 L 402.6132404181185 195.34762153685307 L 404.3554006968641 194.72033455305802 L 406.0975609756098 189.70203868269732 L 407.8397212543554 186.4087820177731 L 409.58188153310107 172.92211186617874 L 411.3240418118467 174.33350757971772 L 413.06620209059236 166.6492420282279 L 414.808362369338 172.45164662833247 L 416.55052264808364 169.4720334553058 L 418.2926829268293 163.82645060115 L 420.03484320557493 157.0831155253528 L 421.7770034843206 155.82854155776266 L 423.5191637630662 149.86931521170936 L 425.26132404181186 158.337689492943 L 427.0034843205575 158.4945112388918 L 428.74564459930315 156.76947203345526 L 430.4878048780488 151.59435441714584 L 432.22996515679444 155.35807631991634 L 433.9721254355401 151.1238891792995 L 435.7142857142857 144.06691061160478 L 437.45644599303137 140.46001045478306 L 439.198606271777 135.59853633037113 L 440.94076655052265 130.26659696811288 L 442.6829268292683 128.38473601672763 L 444.42508710801394 129.01202300052273 L 446.1672473867596 125.24830109775218 L 447.9094076655052 122.42550967067433 L 449.65156794425087 132.14845791949813 L 451.3937282229965 134.97124934657603 L 453.13588850174216 130.58024046001043 L 454.8780487804878 109.7229482488238 L 456.62020905923345 112.85938316779925 L 458.3623693379791 107.37062205959222 L 460.10452961672473 106.5865133298484 L 461.8466898954704 115.83899634082593 L 463.588850174216 119.1322530057501 L 465.33101045296166 121.3277574490329 L 467.0731707317073 122.73915316257188 L 468.81533101045295 117.5640355462624 L 470.5574912891986 114.58442237323572 L 472.29965156794424 120.85729221118658 L 474.0418118466899 113.95713538944062 L 475.7839721254355 107.527443805541 L 477.52613240418117 100 L 479.2682926829268 100.3136434918975 L 481.01045296167246 100.47046523784627 L 482.7526132404181 100.78410872974382 L 484.49477351916374 110.3502352326189 L 486.2369337979094 120.3868269733403 L 487.97909407665503 123.36644014636693 L 489.7212543554007 127.13016204913748 L 491.4634146341463 138.10768426555148 L 493.20557491289196 137.79404077365393 L 494.9477351916376 144.22373235755356 L 496.68989547038325 156.76947203345526 L 498.4320557491289 162.72869837950861 L 500.17421602787454 163.82645060115 L 501.91637630662024 167.74699424986932 L 503.6585365853659 174.4903293256665 L 505.4006968641115 185.62467328802927 L 507.14285714285717 196.28855201254572 L 508.8850174216028 199.58180867746995 L 510.62717770034845 204.6001045478306 L 512.3693379790941 216.2049137480397 L 514.1114982578397 217.92995295347617 L 515.8536585365854 217.92995295347617 L 517.5958188153311 226.39832723470988 L 519.3379790940767 232.8280188186095 L 521.0801393728223 238.00313643491899 L 522.822299651568 248.35337166753789 L 524.5644599303137 248.03972817564033 L 526.3066202090592 246.94197595399896 L 528.0487804878048 249.7647673810768 L 529.7909407665505 246.31468897020386 L 531.5331010452962 247.569262937794 L 533.2752613240418 246.94197595399896 L 535.0174216027874 245.84422373235753 L 536.7595818815331 246.6283324621014 L 538.5017421602788 255.5671719811814 L 540.2439024390244 258.7036069001568 L 541.98606271777 258.7036069001568 L 543.7282229965157 261.84004181913224 L 545.4703832752614 261.5263983272347 L 547.212543554007 270.1515943544171 L 548.9547038327526 275.3267119707266 L 550.6968641114983 280.65865133298485 L 552.439024390244 277.9926816518557 L 554.1811846689895 277.3653946680606 L 555.9233449477351 269.8379508625196 L 557.6655052264808 279.0904338734971 L 559.4076655052265 275.7971772085729 L 561.1498257839721 272.19027705175114 L 562.8919860627177 266.3878724516466 L 564.6341463414634 264.9764767381077 L 566.3763066202091 284.5791949817041 L 568.1184668989547 296.340825927862 L 569.8606271777003 278.30632514375327 L 571.602787456446 282.69733403031887 L 573.3449477351917 283.4814427600627 L 575.0871080139373 282.69733403031887 L 576.8292682926829 285.99059069524304 L 578.5714285714286 291.9498170412964 L 580.3135888501743 300.1045478306325 L 582.0557491289198 304.4955567171981 L 583.7979094076654 308.1024568740199 L 585.5400696864111 305.43648719289075 L 587.2822299651568 311.2388917929953 L 589.0243902439024 311.5525352848928 L 590.766550522648 317.35493988499735 L 592.5087108013937 316.7276529012023 L 594.2508710801394 314.6889702038683 L 595.993031358885 316.57083115525353 L 597.7351916376306 323.4709879769995 L 599.4773519163763 325.5096706743335 L 601.219512195122 319.8640878201777 L 602.9616724738676 317.19811813904863 L 604.7038327526133 324.8823836905384 L 606.445993031359 325.98013591217983 L 608.1881533101046 332.40982749607946 L 609.9303135888501 337.74176685833766 L 611.6724738675958 339.7804495556717 L 613.4146341463415 341.0350235232619 L 615.1567944250871 342.13277574490326 L 616.8989547038327 340.25091479351806 L 618.6411149825784 343.2305279665447 L 620.3832752613241 351.6989022477784 L 622.1254355400697 357.18766335598536 L 623.8675958188153 360.32409827496076 L 625.609756097561 362.20595922634607 L 627.3519163763067 362.3627809722948 L 629.0940766550523 365.49921589127024 L 630.8362369337979 365.96968112911657 L 632.5783972125436 368.16518557239937 L 634.3205574912893 369.57658128593835 L 636.0627177700349 367.69472033455304 L 637.8048780487804 366.7537898588604 L 639.5470383275261 367.69472033455304 L 641.2891986062718 366.2833246210141 L 643.0313588850174 369.10611604809196 L 644.773519163763 374.4380554103502 L 646.5156794425087 370.98797699947727 L 648.2578397212544 373.96759017250395 L 650 372.71301620491374 L 650 400 Z" /><text  class="poloto_labels poloto_text poloto_title" alignment-baseline="start" text-anchor="middle" font-size="x-large" x="400" y="37.5" >Total players on 2021-11-13</text><text  class="poloto_labels poloto_text poloto_xname" alignment-baseline="start" text-anchor="middle" font-size="x-large" x="400" y="481.25" >Time</text><text  class="poloto_labels poloto_text poloto_yname" alignment-baseline="start" text-anchor="middle" font-size="x-large" transform="rotate(-90,37.5,250)" x="37.5" y="250" >Count</text><line  class="poloto_axis_lines" stroke="black" x1="150" x2="150" y1="400" y2="405" /><text  class="poloto_tick_labels poloto_text" alignment-baseline="start" text-anchor="middle" x="150" y="430" > 00:00</text><line  class="poloto_axis_lines" stroke="black" x1="266.14401858304296" x2="266.14401858304296" y1="400" y2="405" /><text  class="poloto_tick_labels poloto_text" alignment-baseline="start" text-anchor="middle" x="266.14401858304296" y="430" > 06:00</text><line  class="poloto_axis_lines" stroke="black" x1="382.2880371660859" x2="382.2880371660859" y1="400" y2="405" /><text  class="poloto_tick_labels poloto_text" alignment-baseline="start" text-anchor="middle" x="382.2880371660859" y="430" > 11:00</text><line  class="poloto_axis_lines" stroke="black" x1="498.4320557491289" x2="498.4320557491289" y1="400" y2="405" /><text  class="poloto_tick_labels poloto_text" alignment-baseline="start" text-anchor="middle" x="498.4320557491289" y="430" > 17:00</text><line  class="poloto_axis_lines" stroke="black" x1="614.5760743321719" x2="614.5760743321719" y1="400" y2="405" /><text  class="poloto_tick_labels poloto_text" alignment-baseline="start" text-anchor="middle" x="614.5760743321719" y="430" > 22:00</text><line  class="poloto_axis_lines" stroke="black" x1="150" x2="144" y1="350.13068478829064" y2="350.13068478829064" /><text  class="poloto_tick_labels poloto_text" alignment-baseline="middle" text-anchor="end" x="135" y="350.13068478829064" > 1500</text><line  class="poloto_axis_lines" stroke="black" x1="150" x2="144" y1="271.71981181390487" y2="271.71981181390487" /><text  class="poloto_tick_labels poloto_text" alignment-baseline="middle" text-anchor="end" x="135" y="271.71981181390487" > 2000</text><line  class="poloto_axis_lines" stroke="black" x1="150" x2="144" y1="193.30893883951904" y2="193.30893883951904" /><text  class="poloto_tick_labels poloto_text" alignment-baseline="middle" text-anchor="end" x="135" y="193.30893883951904" > 2500</text><line  class="poloto_axis_lines" stroke="black" x1="150" x2="144" y1="114.89806586513328" y2="114.89806586513328" /><text  class="poloto_tick_labels poloto_text" alignment-baseline="middle" text-anchor="end" x="135" y="114.89806586513328" > 3000</text><path  stroke="black" fill="none" class="poloto_axis_lines" style="stroke-dasharray:14.518002322880372;stroke-dashoffset:-0;" d=" M 150 400 L 650 400" /><path  stroke="black" fill="none" class="poloto_axis_lines" style="stroke-dasharray:7.841087297438579;stroke-dashoffset:-49.86931521170936;" d=" M 150 400 L 150 100" /></svg>