<svg class="poloto" width="800" height="500" viewBox="0 0 800 500" xmlns="http://www.w3.org/2000/svg"><style>.poloto { stroke-linecap:round; stroke-linejoin:round; font-family: 'Tahoma', sans-serif; background-color: AliceBlue;} .poloto_scatter{stroke-width:7} .poloto_line{stroke-width:2} .poloto_text{fill: black;} .poloto_axis_lines{stroke: black;stroke-width:3;fill:none;stroke-dasharray:none} .poloto0stroke{stroke:  blue;} .poloto1stroke{stroke:  red;} .poloto2stroke{stroke:  green;} .poloto3stroke{stroke:  gold;} .poloto4stroke{stroke:  aqua;} .poloto5stroke{stroke:  lime;} .poloto6stroke{stroke:  orange;} .poloto7stroke{stroke:  chocolate;} .poloto0fill{fill:blue;} .poloto1fill{fill:red;} .poloto2fill{fill:green;} .poloto3fill{fill:gold;} .poloto4fill{fill:aqua;} .poloto5fill{fill:lime;} .poloto6fill{fill:orange;} .poloto7fill{fill:chocolate;}</style><text  class="poloto_text poloto_legend_text" alignment-baseline="middle" text-anchor="start" font-size="large" x="675" y="100" ></text><path  class="poloto_linefill poloto0fill" d=" M 150 400 L 150 366.966966966967 L 151.74216027874564 368.91891891891896 L 153.4843205574913 374.77477477477476 L 155.22648083623693 380.3303303303303 L 156.96864111498257 380.3303303303303 L 158.71080139372822 381.0810810810811 L 160.45296167247386 383.93393393393393 L 162.1951219512195 383.033033033033 L 163.93728222996515 381.5315315315315 L 165.6794425087108 384.38438438438436 L 167.42160278745644 389.18918918918916 L 169.16376306620208 387.38738738738743 L 170.90592334494772 393.2432432432432 L 172.64808362369337 393.84384384384384 L 174.390243902439 394.29429429429433 L 176.13240418118465 397.4474474474474 L 177.8745644599303 399.54954954954957 L 179.61672473867597 398.1981981981982 L 181.3588850174216 395.3453453453453 L 183.10104529616726 397.5975975975976 L 184.8432055749129 399.69969969969975 L 186.58536585365854 400 L 188.3275261324042 393.84384384384384 L 190.06968641114983 394.14414414414415 L 191.81184668989548 386.0360360360361 L 193.55400696864112 385.5855855855856 L 195.29616724738676 384.984984984985 L 197.0383275261324 383.93393393393393 L 198.78048780487805 380.7807807807808 L 200.5226480836237 382.43243243243245 L 202.26480836236934 385.43543543543547 L 204.00696864111498 378.0780780780781 L 205.74912891986062 381.68168168168165 L 207.49128919860627 383.6336336336336 L 209.2334494773519 374.4744744744745 L 210.97560975609755 374.17417417417414 L 212.7177700348432 365.16516516516515 L 214.45993031358887 364.4144144144144 L 216.2020905923345 358.55855855855856 L 217.94425087108016 356.9069069069069 L 219.6864111498258 356.3063063063063 L 221.42857142857144 355.2552552552553 L 223.1707317073171 356.15615615615616 L 224.91289198606273 354.50450450450455 L 226.65505226480838 352.1021021021021 L 228.39721254355402 347.8978978978979 L 230.13937282229966 345.94594594594594 L 231.8815331010453 348.94894894894895 L 233.62369337979095 339.33933933933935 L 235.3658536585366 337.987987987988 L 237.10801393728224 344.29429429429433 L 238.85017421602788 343.3933933933934 L 240.59233449477352 336.63663663663664 L 242.33449477351917 334.6846846846847 L 244.0766550522648 335.1351351351351 L 245.81881533101046 334.23423423423424 L 247.5609756097561 332.28228228228227 L 249.30313588850174 333.4834834834835 L 251.0452961672474 333.6336336336336 L 252.78745644599303 335.1351351351351 L 254.52961672473867 332.43243243243245 L 256.2717770034843 333.7837837837838 L 258.01393728222996 335.8858858858859 L 259.7560975609756 332.58258258258263 L 261.49825783972125 330.9309309309309 L 263.2404181184669 328.0780780780781 L 264.98257839721254 328.52852852852857 L 266.7247386759582 332.13213213213214 L 268.4668989547038 326.87687687687685 L 270.20905923344947 321.02102102102106 L 271.9512195121951 319.6696696696697 L 273.69337979094075 323.12312312312315 L 275.4355400696864 321.3213213213213 L 277.17770034843204 325.0750750750751 L 278.91986062717774 324.17417417417414 L 280.6620209059233 321.7717717717718 L 282.404181184669 321.3213213213213 L 284.1463414634146 319.5195195195196 L 285.8885017421603 315.3153153153153 L 287.6306620209059 320.57057057057057 L 289.3728222996516 314.8648648648649 L 291.1149825783972 306.15615615615616 L 292.8571428571429 304.3543543543543 L 294.5993031358885 300.4504504504505 L 296.3414634146342 291.29129129129126 L 298.08362369337976 298.948948948949 L 299.82578397212546 288.2882882882883 L 301.56794425087105 289.7897897897898 L 303.31010452961675 295.1951951951952 L 305.05226480836234 286.1861861861862 L 306.79442508710804 293.99399399399397 L 308.5365853658536 291.4414414414415 L 310.2787456445993 289.03903903903904 L 312.0209059233449 285.43543543543547 L 313.7630662020906 278.6786786786787 L 315.5052264808362 277.0270270270271 L 317.2473867595819 280.48048048048054 L 318.9895470383275 271.7717717717718 L 320.7317073170732 264.11411411411416 L 322.4738675958188 268.6186186186186 L 324.2160278745645 264.4144144144144 L 325.9581881533101 259.4594594594595 L 327.70034843205576 258.1081081081081 L 329.4425087108014 258.70870870870874 L 331.18466898954705 257.057057057057 L 332.9268292682927 246.24624624624627 L 334.66898954703834 249.3993993993994 L 336.411149825784 251.35135135135138 L 338.1533101045296 249.24924924924923 L 339.89547038327527 252.55255255255256 L 341.6376306620209 237.3873873873874 L 343.37979094076655 236.33633633633636 L 345.1219512195122 234.23423423423426 L 346.86411149825784 223.42342342342343 L 348.6062717770035 225.6756756756757 L 350.34843205574913 356.9069069069069 L 352.0905923344948 235.73573573573574 L 353.8327526132404 227.4774774774775 L 355.57491289198606 226.12612612612614 L 357.3170731707317 222.5225225225225 L 359.05923344947735 222.82282282282281 L 360.801393728223 224.17417417417417 L 362.54355400696863 222.6726726726727 L 364.2857142857143 227.7777777777778 L 366.0278745644599 218.61861861861863 L 367.77003484320556 220.8708708708709 L 369.5121951219512 216.96696696696696 L 371.25435540069685 215.015015015015 L 372.9965156794425 205.7057057057057 L 374.73867595818814 196.84684684684683 L 376.4808362369338 202.85285285285286 L 378.2229965156795 202.70270270270268 L 379.96515679442507 200.00000000000003 L 381.70731707317077 198.04804804804806 L 383.44947735191636 191.2912912912913 L 385.19163763066206 198.34834834834837 L 386.93379790940764 191.74174174174172 L 388.67595818815334 188.58858858858858 L 390.41811846689893 193.84384384384387 L 392.16027874564463 187.83783783783784 L 393.9024390243902 180.78078078078076 L 395.6445993031359 182.1321321321321 L 397.3867595818815 176.12612612612614 L 399.1289198606272 172.972972972973 L 400.8710801393728 175.82582582582583 L 402.6132404181185 177.7777777777778 L 404.3554006968641 186.33633633633636 L 406.0975609756098 178.97897897897897 L 407.8397212543554 177.7777777777778 L 409.58188153310107 188.58858858858858 L 411.3240418118467 196.3963963963964 L 413.06620209059236 196.0960960960961 L 414.808362369338 189.03903903903907 L 416.55052264808364 175.82582582582583 L 418.2926829268293 171.32132132132134 L 420.03484320557493 167.26726726726727 L 421.7770034843206 166.51651651651653 L 423.5191637630662 160.8108108108108 L 425.26132404181186 156.1561561561562 L 427.0034843205575 150.15015015015015 L 428.74564459930315 155.7057057057057 L 430.4878048780488 150.15015015015015 L 432.22996515679444 146.54654654654658 L 433.9721254355401 143.5435435435436 L 435.7142857142857 132.28228228228227 L 437.45644599303137 134.38438438438436 L 439.198606271777 132.28228228228227 L 440.94076655052265 134.0840840840841 L 442.6829268292683 133.933933933934 L 444.42508710801394 130.7807807807808 L 446.1672473867596 128.97897897897894 L 447.9094076655052 131.3813813813814 L 449.65156794425087 137.98798798798805 L 451.3937282229965 126.5765765765766 L 453.13588850174216 120.57057057057057 L 454.8780487804878 121.62162162162167 L 456.62020905923345 112.46246246246244 L 458.3623693379791 108.70870870870874 L 460.10452961672473 112.7627627627628 L 461.8466898954704 106.00600600600603 L 463.588850174216 113.21321321321318 L 465.33101045296166 108.70870870870874 L 467.0731707317073 102.70270270270271 L 468.81533101045295 100.45045045045049 L 470.5574912891986 100 L 472.29965156794424 114.11411411411416 L 474.0418118466899 103.60360360360357 L 475.7839721254355 100.30030030030025 L 477.52613240418117 107.35735735735739 L 479.2682926829268 106.30630630630628 L 481.01045296167246 108.55855855855862 L 482.7526132404181 102.1021021021021 L 484.49477351916374 105.40540540540542 L 486.2369337979094 104.20420420420419 L 487.97909407665503 105.40540540540542 L 489.7212543554007 102.40240240240246 L 491.4634146341463 101.50150150150148 L 493.20557491289196 101.95195195195197 L 494.9477351916376 105.10510510510505 L 496.68989547038325 100.30030030030025 L 498.4320557491289 104.35435435435431 L 500.17421602787454 103.90390390390394 L 501.91637630662024 113.66366366366367 L 503.6585365853659 113.66366366366367 L 505.4006968641115 124.62462462462463 L 507.14285714285717 122.82282282282279 L 508.8850174216028 127.02702702702709 L 510.62717770034845 131.3813813813814 L 512.3693379790941 122.82282282282279 L 514.1114982578397 134.38438438438436 L 515.8536585365854 128.37837837837833 L 517.5958188153311 131.68168168168165 L 519.3379790940767 131.8318318318319 L 521.0801393728223 131.68168168168165 L 522.822299651568 135.5855855855856 L 524.5644599303137 135.28528528528534 L 526.3066202090592 149.0990990990991 L 528.0487804878048 154.20420420420422 L 529.7909407665505 162.9129129129129 L 531.5331010452962 166.96696696696696 L 533.2752613240418 170.8708708708709 L 535.0174216027874 178.37837837837836 L 536.7595818815331 184.23423423423426 L 538.5017421602788 176.57657657657657 L 540.2439024390244 183.03303303303304 L 541.98606271777 189.1891891891892 L 543.7282229965157 198.04804804804806 L 545.4703832752614 196.6966966966967 L 547.212543554007 207.8078078078078 L 548.9547038327526 203.45345345345348 L 550.6968641114983 213.2132132132132 L 552.439024390244 212.76276276276278 L 554.1811846689895 220.72072072072072 L 555.9233449477351 224.62462462462466 L 557.6655052264808 227.02702702702706 L 559.4076655052265 224.02402402402404 L 561.1498257839721 229.8798798798799 L 562.8919860627177 227.3273273273273 L 564.6341463414634 229.27927927927928 L 566.3763066202091 231.68168168168168 L 568.1184668989547 233.48348348348347 L 569.8606271777003 243.39339339339338 L 571.602787456446 247.14714714714714 L 573.3449477351917 247.44744744744744 L 575.0871080139373 248.7987987987988 L 576.8292682926829 253.75375375375378 L 578.5714285714286 250.30030030030028 L 580.3135888501743 252.40240240240243 L 582.0557491289198 248.64864864864867 L 583.7979094076654 251.5015015015015 L 585.5400696864111 248.19819819819818 L 587.2822299651568 252.85285285285286 L 589.0243902439024 255.7057057057057 L 590.766550522648 260.96096096096096 L 592.5087108013937 263.2132132132132 L 594.2508710801394 263.06306306306305 L 595.993031358885 265.61561561561564 L 597.7351916376306 269.96996996996995 L 599.4773519163763 268.4684684684685 L 601.219512195122 277.32732732732734 L 602.9616724738676 283.933933933934 L 604.7038327526133 273.4234234234234 L 606.445993031359 268.6186186186186 L 608.1881533101046 273.8738738738739 L 609.9303135888501 275.0750750750751 L 611.6724738675958 270.7207207207207 L 613.4146341463415 279.1291291291292 L 615.1567944250871 285.88588588588584 L 616.8989547038327 289.63963963963965 L 618.6411149825784 293.84384384384384 L 620.3832752613241 302.7027027027027 L 622.1254355400697 306.15615615615616 L 623.8675958188153 305.55555555555554 L 625.609756097561 311.8618618618618 L 627.3519163763067 309.1591591591591 L 629.0940766550523 317.86786786786786 L 630.8362369337979 320.1201201201201 L 632.5783972125436 328.2282282282282 L 634.3205574912893 326.4264264264265 L 636.0627177700349 331.83183183183183 L 637.8048780487804 338.1381381381382 L 639.5470383275261 343.6936936936937 L 641.2891986062718 339.18918918918916 L 643.0313588850174 343.2432432432432 L 644.773519163763 346.6966966966967 L 646.5156794425087 345.4954954954955 L 648.2578397212544 348.64864864864865 L 650 352.7027027027027 L 650 400 Z" /><text  class="poloto_labels poloto_text poloto_title" alignment-baseline="start" text-anchor="middle" font-size="x-large" x="400" y="37.5" >Total players on 2021-09-11</text><text  class="poloto_labels poloto_text poloto_xname" alignment-baseline="start" text-anchor="middle" font-size="x-large" x="400" y="481.25" >Time</text><text  class="poloto_labels poloto_text poloto_yname" alignment-baseline="start" text-anchor="middle" font-size="x-large" transform="rotate(-90,37.5,250)" x="37.5" y="250" >Count</text><line  class="poloto_axis_lines" stroke="black" x1="150" x2="150" y1="400" y2="405" /><text  class="poloto_tick_labels poloto_text" alignment-baseline="start" text-anchor="middle" x="150" y="430" > 00:00:00</text><line  class="poloto_axis_lines" stroke="black" x1="266.14401858304296" x2="266.14401858304296" y1="400" y2="405" /><text  class="poloto_tick_labels poloto_text" alignment-baseline="start" text-anchor="middle" x="266.14401858304296" y="430" > 05:33:20</text><line  class="poloto_axis_lines" stroke="black" x1="382.2880371660859" x2="382.2880371660859" y1="400" y2="405" /><text  class="poloto_tick_labels poloto_text" alignment-baseline="start" text-anchor="middle" x="382.2880371660859" y="430" > 11:06:40</text><line  class="poloto_axis_lines" stroke="black" x1="498.4320557491289" x2="498.4320557491289" y1="400" y2="405" /><text  class="poloto_tick_labels poloto_text" alignment-baseline="start" text-anchor="middle" x="498.4320557491289" y="430" > 16:40:00</text><line  class="poloto_axis_lines" stroke="black" x1="614.5760743321719" x2="614.5760743321719" y1="400" y2="405" /><text  class="poloto_tick_labels poloto_text" alignment-baseline="start" text-anchor="middle" x="614.5760743321719" y="430" > 22:13:20</text><line  class="poloto_axis_lines" stroke="black" x1="150" x2="144" y1="353.3033033033033" y2="353.3033033033033" /><text  class="poloto_tick_labels poloto_text" alignment-baseline="middle" text-anchor="end" x="135" y="353.3033033033033" > 1500</text><line  class="poloto_axis_lines" stroke="black" x1="150" x2="144" y1="278.2282282282282" y2="278.2282282282282" /><text  class="poloto_tick_labels poloto_text" alignment-baseline="middle" text-anchor="end" x="135" y="278.2282282282282" > 2000</text><line  class="poloto_axis_lines" stroke="black" x1="150" x2="144" y1="203.1531531531532" y2="203.1531531531532" /><text  class="poloto_tick_labels poloto_text" alignment-baseline="middle" text-anchor="end" x="135" y="203.1531531531532" > 2500</text><line  class="poloto_axis_lines" stroke="black" x1="150" x2="144" y1="128.07807807807808" y2="128.07807807807808" /><text  class="poloto_tick_labels poloto_text" alignment-baseline="middle" text-anchor="end" x="135" y="128.07807807807808" > 3000</text><path  stroke="black" fill="none" class="poloto_axis_lines" style="stroke-dasharray:14.518002322880372;stroke-dashoffset:-0;" d=" M 150 400 L 650 400" /><path  stroke="black" fill="none" class="poloto_axis_lines" style="stroke-dasharray:7.5075075075075075;stroke-dashoffset:-46.69669669669668;" d=" M 150 400 L 150 100" /></svg>