<svg class="poloto" width="800" height="500" viewBox="0 0 800 500" xmlns="http://www.w3.org/2000/svg"><style>.poloto { stroke-linecap:round; stroke-linejoin:round; font-family: 'Tahoma', sans-serif; background-color: AliceBlue;} .poloto_scatter{stroke-width:7} .poloto_line{stroke-width:2} .poloto_text{fill: black;} .poloto_axis_lines{stroke: black;stroke-width:3;fill:none;stroke-dasharray:none} .poloto0stroke{stroke:  blue;} .poloto1stroke{stroke:  red;} .poloto2stroke{stroke:  green;} .poloto3stroke{stroke:  gold;} .poloto4stroke{stroke:  aqua;} .poloto5stroke{stroke:  lime;} .poloto6stroke{stroke:  orange;} .poloto7stroke{stroke:  chocolate;} .poloto0fill{fill:blue;} .poloto1fill{fill:red;} .poloto2fill{fill:green;} .poloto3fill{fill:gold;} .poloto4fill{fill:aqua;} .poloto5fill{fill:lime;} .poloto6fill{fill:orange;} .poloto7fill{fill:chocolate;}</style><text  class="poloto_text poloto_legend_text" alignment-baseline="middle" text-anchor="start" font-size="large" x="675" y="100" ></text><path  class="poloto_linefill poloto0fill" d=" M 150 400 L 150 339.18918918918916 L 151.74216027874564 339.18918918918916 L 153.4843205574913 343.79606879606877 L 155.22648083623693 344.3488943488943 L 156.96864111498257 340.2948402948403 L 158.71080139372822 338.26781326781327 L 160.45296167247386 346.92874692874693 L 162.1951219512195 352.27272727272725 L 163.93728222996515 353.9312039312039 L 165.6794425087108 354.8525798525799 L 167.42160278745644 356.14250614250614 L 169.16376306620208 356.3267813267813 L 170.90592334494772 354.1154791154791 L 172.64808362369337 355.7739557739558 L 174.390243902439 357.985257985258 L 176.13240418118465 358.35380835380835 L 177.8745644599303 357.4324324324324 L 179.61672473867597 363.3292383292383 L 181.3588850174216 359.0909090909091 L 183.10104529616726 360.3808353808354 L 184.8432055749129 364.987714987715 L 186.58536585365854 365.35626535626534 L 188.3275261324042 362.96068796068795 L 190.06968641114983 366.27764127764124 L 191.81184668989548 372.54299754299757 L 193.55400696864112 370.1474201474201 L 195.29616724738676 373.46437346437347 L 197.0383275261324 371.43734643734643 L 198.78048780487805 376.965601965602 L 200.5226480836237 374.7542997542997 L 202.26480836236934 378.4398034398034 L 204.00696864111498 380.8353808353808 L 205.74912891986062 386.9164619164619 L 207.49128919860627 386.3636363636364 L 209.2334494773519 385.81081081081084 L 210.97560975609755 390.23341523341526 L 212.7177700348432 391.5233415233415 L 214.45993031358887 388.75921375921376 L 216.2020905923345 389.8648648648649 L 217.94425087108016 388.94348894348894 L 219.6864111498258 391.8918918918919 L 221.42857142857144 392.26044226044223 L 223.1707317073171 390.41769041769044 L 224.91289198606273 392.4447174447174 L 226.65505226480838 392.07616707616705 L 228.39721254355402 384.8894348894349 L 230.13937282229966 384.5208845208845 L 231.8815331010453 384.8894348894349 L 233.62369337979095 385.995085995086 L 235.3658536585366 389.4963144963145 L 237.10801393728224 390.970515970516 L 238.85017421602788 386.1793611793612 L 240.59233449477352 384.7051597051597 L 242.33449477351917 386.54791154791155 L 244.0766550522648 392.07616707616705 L 245.81881533101046 393.1818181818182 L 247.5609756097561 385.4422604422605 L 249.30313588850174 387.46928746928745 L 251.0452961672474 390.6019656019656 L 252.78745644599303 392.6289926289926 L 254.52961672473867 394.84029484029486 L 256.2717770034843 394.84029484029486 L 258.01393728222996 393.9189189189189 L 259.7560975609756 389.68058968058966 L 261.49825783972125 390.6019656019656 L 263.2404181184669 387.46928746928745 L 264.98257839721254 391.8918918918919 L 266.7247386759582 391.8918918918919 L 268.4668989547038 390.0491400491401 L 270.20905923344947 400 L 271.9512195121951 385.25798525798524 L 273.69337979094075 381.01965601965605 L 275.4355400696864 376.4127764127764 L 277.17770034843204 378.8083538083538 L 278.91986062717774 380.0982800982801 L 280.6620209059233 370.5159705159705 L 282.404181184669 371.068796068796 L 284.1463414634146 368.85749385749386 L 285.8885017421603 365.9090909090909 L 287.6306620209059 364.0663390663391 L 289.3728222996516 364.6191646191646 L 291.1149825783972 356.14250614250614 L 292.8571428571429 348.9557739557739 L 294.5993031358885 359.4594594594595 L 296.3414634146342 355.22113022113024 L 298.08362369337976 362.96068796068795 L 299.82578397212546 362.5921375921376 L 301.56794425087105 356.3267813267813 L 303.31010452961675 352.27272727272725 L 305.05226480836234 350.42997542997546 L 306.79442508710804 351.1670761670762 L 308.5365853658536 355.95823095823096 L 310.2787456445993 352.45700245700243 L 312.0209059233449 347.66584766584765 L 313.7630662020906 346.00737100737103 L 315.5052264808362 346.92874692874693 L 317.2473867595819 347.85012285012283 L 318.9895470383275 349.87714987714986 L 320.7317073170732 346.1916461916462 L 322.4738675958188 347.48157248157247 L 324.2160278745645 345.0859950859951 L 325.9581881533101 344.1646191646191 L 327.70034843205576 342.5061425061425 L 329.4425087108014 342.5061425061425 L 331.18466898954705 337.7149877149877 L 332.9268292682927 328.8697788697789 L 334.66898954703834 337.53071253071255 L 336.411149825784 332.37100737100735 L 338.1533101045296 327.02702702702703 L 339.89547038327527 332.1867321867322 L 341.6376306620209 326.28992628992626 L 343.37979094076655 327.76412776412775 L 345.1219512195122 322.6044226044226 L 346.86411149825784 321.3144963144963 L 348.6062717770035 318.36609336609337 L 350.34843205574913 310.995085995086 L 352.0905923344948 310.25798525798524 L 353.8327526132404 305.46683046683046 L 355.57491289198606 305.65110565110564 L 357.3170731707317 307.3095823095823 L 359.05923344947735 301.4127764127764 L 360.801393728223 298.0958230958231 L 362.54355400696863 300.85995085995086 L 364.2857142857143 300.3071253071253 L 366.0278745644599 297.35872235872233 L 367.77003484320556 295.8845208845209 L 369.5121951219512 295.1474201474201 L 371.25435540069685 294.96314496314494 L 372.9965156794425 288.8820638820639 L 374.73867595818814 290.17199017199016 L 376.4808362369338 294.04176904176904 L 378.2229965156795 285.9336609336609 L 379.96515679442507 282.8009828009828 L 381.70731707317077 270.6388206388206 L 383.44947735191636 262.16216216216213 L 385.19163763066206 262.16216216216213 L 386.93379790940764 261.7936117936118 L 388.67595818815334 262.7149877149877 L 390.41811846689893 262.3464373464373 L 392.16027874564463 252.2113022113022 L 393.9024390243902 249.26289926289928 L 395.6445993031359 238.3906633906634 L 397.3867595818815 240.60196560196562 L 399.1289198606272 230.28255528255528 L 400.8710801393728 227.51842751842753 L 402.6132404181185 221.25307125307125 L 404.3554006968641 219.96314496314494 L 406.0975609756098 213.14496314496313 L 407.8397212543554 200.982800982801 L 409.58188153310107 199.32432432432432 L 411.3240418118467 188.45208845208845 L 413.06620209059236 195.63882063882062 L 414.808362369338 196.74447174447175 L 416.55052264808364 188.26781326781327 L 418.2926829268293 183.66093366093367 L 420.03484320557493 179.97542997542996 L 421.7770034843206 182.7395577395577 L 423.5191637630662 174.26289926289928 L 425.26132404181186 172.6044226044226 L 427.0034843205575 167.62899262899265 L 428.74564459930315 164.3120393120393 L 430.4878048780488 158.59950859950857 L 432.22996515679444 149.20147420147418 L 433.9721254355401 146.25307125307125 L 435.7142857142857 146.43734643734643 L 437.45644599303137 152.8869778869779 L 439.198606271777 150.4914004914005 L 440.94076655052265 153.07125307125307 L 442.6829268292683 144.22604422604422 L 444.42508710801394 152.51842751842753 L 446.1672473867596 141.2776412776413 L 447.9094076655052 137.22358722358723 L 449.65156794425087 143.1203931203931 L 451.3937282229965 133.7223587223587 L 453.13588850174216 131.32678132678132 L 454.8780487804878 138.5135135135135 L 456.62020905923345 134.64373464373466 L 458.3623693379791 139.61916461916462 L 460.10452961672473 135.38083538083538 L 461.8466898954704 144.96314496314494 L 463.588850174216 144.4103194103194 L 465.33101045296166 142.1990171990172 L 467.0731707317073 133.90663390663389 L 468.81533101045295 128.1941031941032 L 470.5574912891986 131.5110565110565 L 472.29965156794424 123.40294840294843 L 474.0418118466899 123.03439803439801 L 475.7839721254355 120.27027027027026 L 477.52613240418117 114.00491400491399 L 479.2682926829268 103.13267813267811 L 481.01045296167246 102.57985257985257 L 482.7526132404181 103.6855036855037 L 484.49477351916374 100 L 486.2369337979094 104.42260442260442 L 487.97909407665503 107.37100737100735 L 489.7212543554007 119.16461916461918 L 491.4634146341463 124.32432432432432 L 493.20557491289196 130.95823095823096 L 494.9477351916376 138.14496314496313 L 496.68989547038325 144.04176904176904 L 498.4320557491289 145.3316953316953 L 500.17421602787454 144.4103194103194 L 501.91637630662024 155.0982800982801 L 503.6585365853659 165.60196560196562 L 505.4006968641115 167.62899262899265 L 507.14285714285717 169.65601965601962 L 508.8850174216028 176.4742014742015 L 510.62717770034845 175.36855036855036 L 512.3693379790941 175.36855036855036 L 514.1114982578397 181.0810810810811 L 515.8536585365854 183.10810810810813 L 517.5958188153311 184.2137592137592 L 519.3379790940767 198.034398034398 L 521.0801393728223 194.71744471744472 L 522.822299651568 193.980343980344 L 524.5644599303137 197.2972972972973 L 526.3066202090592 190.84766584766584 L 528.0487804878048 186.24078624078624 L 529.7909407665505 188.0835380835381 L 531.5331010452962 194.16461916461918 L 533.2752613240418 199.69287469287468 L 535.0174216027874 207.24815724815727 L 536.7595818815331 206.32678132678132 L 538.5017421602788 199.32432432432432 L 540.2439024390244 200.06142506142504 L 541.98606271777 196.1916461916462 L 543.7282229965157 196.56019656019657 L 545.4703832752614 195.45454545454544 L 547.212543554007 200.982800982801 L 548.9547038327526 213.14496314496313 L 550.6968641114983 213.14496314496313 L 552.439024390244 215.90909090909088 L 554.1811846689895 218.4889434889435 L 555.9233449477351 216.64619164619165 L 557.6655052264808 214.06633906633908 L 559.4076655052265 223.2800982800983 L 561.1498257839721 226.96560196560193 L 562.8919860627177 228.6240786240786 L 564.6341463414634 223.64864864864865 L 566.3763066202091 229.72972972972974 L 568.1184668989547 233.7837837837838 L 569.8606271777003 234.7051597051597 L 571.602787456446 233.4152334152334 L 573.3449477351917 232.4938574938575 L 575.0871080139373 227.33415233415235 L 576.8292682926829 221.25307125307125 L 578.5714285714286 216.64619164619165 L 580.3135888501743 222.35872235872233 L 582.0557491289198 224.017199017199 L 583.7979094076654 239.86486486486484 L 585.5400696864111 250.36855036855036 L 587.2822299651568 243.36609336609337 L 589.0243902439024 244.10319410319408 L 590.766550522648 255.89680589680592 L 592.5087108013937 254.6068796068796 L 594.2508710801394 252.02702702702703 L 595.993031358885 252.2113022113022 L 597.7351916376306 257.002457002457 L 599.4773519163763 256.44963144963145 L 601.219512195122 253.1326781326781 L 602.9616724738676 259.2137592137592 L 604.7038327526133 260.5036855036855 L 606.445993031359 266.2162162162162 L 608.1881533101046 270.27027027027026 L 609.9303135888501 265.2948402948403 L 611.6724738675958 266.031941031941 L 613.4146341463415 268.98034398034395 L 615.1567944250871 274.14004914004914 L 616.8989547038327 271.74447174447175 L 618.6411149825784 268.79606879606877 L 620.3832752613241 269.34889434889436 L 622.1254355400697 266.2162162162162 L 623.8675958188153 263.26781326781327 L 625.609756097561 271.5601965601966 L 627.3519163763067 276.53562653562653 L 629.0940766550523 281.5110565110565 L 630.8362369337979 286.1179361179361 L 632.5783972125436 291.64619164619165 L 634.3205574912893 291.83046683046683 L 636.0627177700349 298.2800982800983 L 637.8048780487804 304.9140049140049 L 639.5470383275261 303.8083538083538 L 641.2891986062718 307.67813267813267 L 643.0313588850174 304.72972972972974 L 644.773519163763 306.38820638820636 L 646.5156794425087 308.7837837837838 L 648.2578397212544 309.7051597051597 L 650 315.23341523341526 L 650 400 Z" /><text  class="poloto_labels poloto_text poloto_title" alignment-baseline="start" text-anchor="middle" font-size="x-large" x="400" y="37.5" >Total players on 2021-12-29</text><text  class="poloto_labels poloto_text poloto_xname" alignment-baseline="start" text-anchor="middle" font-size="x-large" x="400" y="481.25" >Time</text><text  class="poloto_labels poloto_text poloto_yname" alignment-baseline="start" text-anchor="middle" font-size="x-large" transform="rotate(-90,37.5,250)" x="37.5" y="250" >Count</text><line  class="poloto_axis_lines" stroke="black" x1="150" x2="150" y1="400" y2="405" /><text  class="poloto_tick_labels poloto_text" alignment-baseline="start" text-anchor="middle" x="150" y="430" > 00:00</text><line  class="poloto_axis_lines" stroke="black" x1="266.14401858304296" x2="266.14401858304296" y1="400" y2="405" /><text  class="poloto_tick_labels poloto_text" alignment-baseline="start" text-anchor="middle" x="266.14401858304296" y="430" > 06:00</text><line  class="poloto_axis_lines" stroke="black" x1="382.2880371660859" x2="382.2880371660859" y1="400" y2="405" /><text  class="poloto_tick_labels poloto_text" alignment-baseline="start" text-anchor="middle" x="382.2880371660859" y="430" > 11:00</text><line  class="poloto_axis_lines" stroke="black" x1="498.4320557491289" x2="498.4320557491289" y1="400" y2="405" /><text  class="poloto_tick_labels poloto_text" alignment-baseline="start" text-anchor="middle" x="498.4320557491289" y="430" > 17:00</text><line  class="poloto_axis_lines" stroke="black" x1="614.5760743321719" x2="614.5760743321719" y1="400" y2="405" /><text  class="poloto_tick_labels poloto_text" alignment-baseline="start" text-anchor="middle" x="614.5760743321719" y="430" > 22:00</text><line  class="poloto_axis_lines" stroke="black" x1="150" x2="144" y1="381.5724815724816" y2="381.5724815724816" /><text  class="poloto_tick_labels poloto_text" alignment-baseline="middle" text-anchor="end" x="135" y="381.5724815724816" > 1000</text><line  class="poloto_axis_lines" stroke="black" x1="150" x2="144" y1="289.43488943488944" y2="289.43488943488944" /><text  class="poloto_tick_labels poloto_text" alignment-baseline="middle" text-anchor="end" x="135" y="289.43488943488944" > 1500</text><line  class="poloto_axis_lines" stroke="black" x1="150" x2="144" y1="197.2972972972973" y2="197.2972972972973" /><text  class="poloto_tick_labels poloto_text" alignment-baseline="middle" text-anchor="end" x="135" y="197.2972972972973" > 2000</text><line  class="poloto_axis_lines" stroke="black" x1="150" x2="144" y1="105.15970515970514" y2="105.15970515970514" /><text  class="poloto_tick_labels poloto_text" alignment-baseline="middle" text-anchor="end" x="135" y="105.15970515970514" > 2500</text><path  stroke="black" fill="none" class="poloto_axis_lines" style="stroke-dasharray:14.518002322880372;stroke-dashoffset:-0;" d=" M 150 400 L 650 400" /><path  stroke="black" fill="none" class="poloto_axis_lines" style="stroke-dasharray:9.213759213759214;stroke-dashoffset:-18.427518427518436;" d=" M 150 400 L 150 100" /></svg>