<svg class="poloto" width="800" height="500" viewBox="0 0 800 500" xmlns="http://www.w3.org/2000/svg"><style>.poloto { stroke-linecap:round; stroke-linejoin:round; font-family: 'Tahoma', sans-serif; background-color: AliceBlue;} .poloto_scatter{stroke-width:7} .poloto_line{stroke-width:2} .poloto_text{fill: black;} .poloto_axis_lines{stroke: black;stroke-width:3;fill:none;stroke-dasharray:none} .poloto0stroke{stroke:  blue;} .poloto1stroke{stroke:  red;} .poloto2stroke{stroke:  green;} .poloto3stroke{stroke:  gold;} .poloto4stroke{stroke:  aqua;} .poloto5stroke{stroke:  lime;} .poloto6stroke{stroke:  orange;} .poloto7stroke{stroke:  chocolate;} .poloto0fill{fill:blue;} .poloto1fill{fill:red;} .poloto2fill{fill:green;} .poloto3fill{fill:gold;} .poloto4fill{fill:aqua;} .poloto5fill{fill:lime;} .poloto6fill{fill:orange;} .poloto7fill{fill:chocolate;}</style><text  class="poloto_text poloto_legend_text" alignment-baseline="middle" text-anchor="start" font-size="large" x="675" y="100" ></text><path  class="poloto_linefill poloto0fill" d=" M 150 400 L 150 341.726618705036 L 151.74216027874564 339.0287769784173 L 153.4843205574913 347.30215827338134 L 155.22648083623693 344.7841726618705 L 156.96864111498257 345.68345323741005 L 158.71080139372822 340.8273381294964 L 160.45296167247386 351.43884892086334 L 162.1951219512195 347.1223021582734 L 163.93728222996515 345.68345323741005 L 165.6794425087108 349.28057553956836 L 167.42160278745644 349.6402877697842 L 169.16376306620208 356.4748201438849 L 170.90592334494772 364.7482014388489 L 172.64808362369337 371.22302158273385 L 174.390243902439 372.30215827338134 L 176.13240418118465 378.41726618705036 L 177.8745644599303 382.37410071942446 L 179.61672473867597 382.9136690647482 L 181.3588850174216 382.0143884892086 L 183.10104529616726 387.9496402877698 L 184.8432055749129 391.36690647482015 L 186.58536585365854 389.38848920863313 L 188.3275261324042 390.8273381294964 L 190.06968641114983 389.568345323741 L 191.81184668989548 389.7482014388489 L 193.55400696864112 393.705035971223 L 195.29616724738676 392.44604316546764 L 197.0383275261324 396.76258992805754 L 198.78048780487805 400 L 200.5226480836237 395.32374100719426 L 202.26480836236934 391.1870503597122 L 204.00696864111498 387.76978417266184 L 205.74912891986062 391.0071942446043 L 207.49128919860627 391.5467625899281 L 209.2334494773519 391.726618705036 L 210.97560975609755 386.6906474820144 L 212.7177700348432 377.8776978417267 L 214.45993031358887 378.59712230215825 L 216.2020905923345 375 L 217.94425087108016 379.49640287769785 L 219.6864111498258 379.31654676258995 L 221.42857142857144 383.9928057553957 L 223.1707317073171 379.49640287769785 L 224.91289198606273 376.9784172661871 L 226.65505226480838 377.6978417266187 L 228.39721254355402 377.8776978417267 L 230.13937282229966 376.9784172661871 L 231.8815331010453 368.884892086331 L 233.62369337979095 370.14388489208636 L 235.3658536585366 361.51079136690646 L 237.10801393728224 359.1726618705036 L 238.85017421602788 351.9784172661871 L 240.59233449477352 356.8345323741007 L 242.33449477351917 347.66187050359713 L 244.0766550522648 344.6043165467626 L 245.81881533101046 342.6258992805756 L 247.5609756097561 338.66906474820144 L 249.30313588850174 331.6546762589928 L 251.0452961672474 332.9136690647482 L 252.78745644599303 336.6906474820144 L 254.52961672473867 330.0359712230216 L 256.2717770034843 329.49640287769785 L 258.01393728222996 333.9928057553957 L 259.7560975609756 336.15107913669067 L 261.49825783972125 329.49640287769785 L 263.2404181184669 323.7410071942446 L 264.98257839721254 323.2014388489209 L 266.7247386759582 324.28057553956836 L 268.4668989547038 321.58273381294964 L 270.20905923344947 318.52517985611513 L 271.9512195121951 316.54676258992805 L 273.69337979094075 314.38848920863313 L 275.4355400696864 319.24460431654677 L 277.17770034843204 321.0431654676259 L 278.9198606271777 319.6043165467626 L 280.6620209059233 321.0431654676259 L 282.40418118466897 321.22302158273385 L 284.1463414634146 325.7194244604317 L 285.88850174216026 324.8201438848921 L 287.6306620209059 327.33812949640287 L 289.37282229965155 319.9640287769784 L 291.1149825783972 320.14388489208636 L 292.85714285714283 311.33093525179856 L 294.5993031358885 308.27338129496405 L 296.3414634146342 310.6115107913669 L 298.08362369337976 314.2086330935252 L 299.82578397212546 312.41007194244605 L 301.56794425087105 305.2158273381295 L 303.31010452961675 304.49640287769785 L 305.05226480836234 294.24460431654677 L 306.79442508710804 296.58273381294964 L 308.5365853658536 285.7913669064748 L 310.2787456445993 278.05755395683457 L 312.0209059233449 276.61870503597123 L 313.7630662020906 278.41726618705036 L 315.5052264808362 285.2517985611511 L 317.2473867595819 287.7697841726619 L 318.9895470383275 280.75539568345323 L 320.7317073170732 282.7338129496403 L 322.4738675958188 281.294964028777 L 324.2160278745645 275.35971223021585 L 325.95818815331006 270.863309352518 L 327.70034843205576 279.49640287769785 L 329.44250871080135 263.30935251798564 L 331.18466898954705 262.41007194244605 L 332.92682926829264 262.23021582733816 L 334.66898954703834 260.9712230215828 L 336.4111498257839 255.39568345323744 L 338.1533101045296 249.8201438848921 L 339.8954703832752 249.8201438848921 L 341.6376306620209 251.43884892086334 L 343.3797909407665 241.54676258992805 L 345.1219512195122 247.66187050359713 L 346.86411149825784 247.84172661870508 L 348.6062717770035 247.30215827338134 L 350.34843205574913 248.02158273381298 L 352.0905923344948 241.9064748201439 L 353.8327526132404 240.64748201438852 L 355.57491289198606 234.71223021582733 L 357.3170731707317 227.87769784172662 L 359.05923344947735 227.51798561151082 L 360.801393728223 226.61870503597123 L 362.54355400696863 226.43884892086334 L 364.2857142857143 219.60431654676262 L 366.0278745644599 217.0863309352518 L 367.77003484320556 214.92805755395688 L 369.5121951219512 214.02877697841728 L 371.25435540069685 210.97122302158277 L 372.9965156794425 208.09352517985616 L 374.73867595818814 196.40287769784175 L 376.4808362369338 205.21582733812954 L 378.2229965156794 198.9208633093525 L 379.96515679442507 198.74100719424462 L 381.7073170731707 198.56115107913672 L 383.44947735191636 183.6330935251799 L 385.191637630662 183.27338129496405 L 386.93379790940764 186.8705035971223 L 388.6759581881533 180.93525179856118 L 390.41811846689893 175 L 392.1602787456446 178.41726618705036 L 393.9024390243902 192.26618705035975 L 395.6445993031359 185.79136690647482 L 397.3867595818815 182.5539568345324 L 399.1289198606272 180.57553956834533 L 400.8710801393728 183.6330935251799 L 402.6132404181185 177.51798561151082 L 404.3554006968641 179.49640287769785 L 406.0975609756097 179.13669064748206 L 407.83972125435537 205.7553956834533 L 409.581881533101 216.726618705036 L 411.32404181184666 197.30215827338134 L 413.0662020905923 234.35251798561154 L 414.80836236933794 168.52517985611513 L 416.5505226480836 176.79856115107918 L 418.29268292682923 168.34532374100723 L 420.0348432055749 164.02877697841728 L 421.7770034843206 155.7553956834533 L 423.5191637630662 169.60431654676262 L 425.26132404181186 160.79136690647482 L 427.0034843205575 157.7338129496403 L 428.74564459930315 148.02158273381298 L 430.4878048780488 200.17985611510795 L 432.22996515679444 159.17266187050365 L 433.9721254355401 142.26618705035975 L 435.7142857142857 144.60431654676262 L 437.45644599303137 148.92086330935257 L 439.198606271777 139.56834532374103 L 440.94076655052265 139.20863309352518 L 442.6829268292683 142.44604316546764 L 444.42508710801394 144.24460431654677 L 446.1672473867596 136.33093525179856 L 447.9094076655052 137.589928057554 L 449.65156794425087 137.41007194244605 L 451.3937282229965 136.8705035971223 L 453.13588850174216 118.70503597122303 L 454.8780487804878 130.93525179856118 L 456.62020905923345 119.60431654676262 L 458.3623693379791 116.9064748201439 L 460.10452961672473 135.79136690647482 L 461.8466898954704 115.64748201438852 L 463.588850174216 115.28776978417267 L 465.33101045296166 123.02158273381298 L 467.0731707317073 113.84892086330939 L 468.81533101045295 112.589928057554 L 470.5574912891986 110.43165467625903 L 472.29965156794424 100 L 474.0418118466899 114.92805755395688 L 475.7839721254355 110.07194244604318 L 477.52613240418117 112.23021582733816 L 479.2682926829268 112.41007194244605 L 481.01045296167246 110.79136690647482 L 482.7526132404181 118.70503597122303 L 484.49477351916374 113.30935251798564 L 486.2369337979094 110.07194244604318 L 487.97909407665503 108.45323741007195 L 489.7212543554007 107.73381294964031 L 491.4634146341463 107.55395683453241 L 493.20557491289196 117.08633093525185 L 494.9477351916376 118.70503597122303 L 496.68989547038325 113.12949640287775 L 498.4320557491289 124.28057553956836 L 500.17421602787454 146.0431654676259 L 501.9163763066202 139.02877697841728 L 503.6585365853658 147.30215827338134 L 505.40069686411147 143.16546762589928 L 507.1428571428571 216.726618705036 L 508.88501742160275 139.92805755395688 L 510.6271777003484 142.26618705035975 L 512.3693379790941 148.92086330935257 L 514.1114982578397 161.15107913669067 L 515.8536585365853 162.7697841726619 L 517.595818815331 161.6906474820144 L 519.3379790940767 174.8201438848921 L 521.0801393728223 183.09352517985616 L 522.822299651568 196.7625899280576 L 524.5644599303137 191.18705035971226 L 526.3066202090592 203.5971223021583 L 528.0487804878048 192.62589928057554 L 529.7909407665505 194.24460431654677 L 531.5331010452962 199.46043165467626 L 533.2752613240418 207.19424460431657 L 535.0174216027874 209.71223021582733 L 536.7595818815331 214.38848920863313 L 538.5017421602788 208.6330935251799 L 540.2439024390244 201.79856115107918 L 541.98606271777 212.05035971223026 L 543.7282229965157 199.8201438848921 L 545.4703832752614 203.5971223021583 L 547.212543554007 216.18705035971226 L 548.9547038327526 211.15107913669067 L 550.6968641114983 218.34532374100723 L 552.439024390244 228.41726618705036 L 554.1811846689895 224.6402877697842 L 555.9233449477351 231.29496402877697 L 557.6655052264808 246.9424460431655 L 559.4076655052265 241.36690647482015 L 561.1498257839721 232.7338129496403 L 562.8919860627177 230.39568345323744 L 564.6341463414634 240.10791366906477 L 566.3763066202091 250.53956834532374 L 568.1184668989547 250.35971223021585 L 569.8606271777003 248.56115107913672 L 571.602787456446 248.9208633093525 L 573.3449477351917 254.6762589928058 L 575.0871080139373 251.61870503597123 L 576.8292682926829 250.35971223021585 L 578.5714285714286 251.79856115107913 L 580.3135888501743 262.05035971223026 L 582.0557491289198 260.7913669064748 L 583.7979094076654 259.71223021582733 L 585.5400696864111 251.79856115107913 L 587.2822299651568 244.06474820143887 L 589.0243902439024 247.66187050359713 L 590.766550522648 249.28057553956836 L 592.5087108013937 257.5539568345324 L 594.2508710801394 246.58273381294964 L 595.993031358885 245.50359712230215 L 597.7351916376306 246.40287769784175 L 599.4773519163763 244.7841726618705 L 601.219512195122 268.1654676258993 L 602.9616724738676 274.6402877697842 L 604.7038327526132 272.66187050359713 L 606.4459930313589 275 L 608.1881533101046 273.021582733813 L 609.9303135888501 275.53956834532374 L 611.6724738675957 285.2517985611511 L 613.4146341463414 277.158273381295 L 615.1567944250871 282.19424460431657 L 616.8989547038327 290.4676258992806 L 618.6411149825783 299.28057553956836 L 620.383275261324 305.9352517985612 L 622.1254355400697 300.7194244604317 L 623.8675958188153 302.33812949640287 L 625.609756097561 300.17985611510795 L 627.3519163763067 306.4748201438849 L 629.0940766550523 311.15107913669067 L 630.8362369337979 310.0719424460432 L 632.5783972125436 314.0287769784173 L 634.3205574912893 313.1294964028777 L 636.0627177700349 317.0863309352518 L 637.8048780487804 317.9856115107914 L 639.5470383275261 322.1223021582734 L 641.2891986062718 325.7194244604317 L 643.0313588850174 330.57553956834533 L 644.773519163763 330.57553956834533 L 646.5156794425087 330.9352517985612 L 648.2578397212544 335.9712230215828 L 650 335.6115107913669 L 650 400 Z" /><text  class="poloto_labels poloto_text poloto_title" alignment-baseline="start" text-anchor="middle" font-size="x-large" x="400" y="37.5" >Total players on 2021-07-18</text><text  class="poloto_labels poloto_text poloto_xname" alignment-baseline="start" text-anchor="middle" font-size="x-large" x="400" y="481.25" >Time</text><text  class="poloto_labels poloto_text poloto_yname" alignment-baseline="start" text-anchor="middle" font-size="x-large" transform="rotate(-90,37.5,250)" x="37.5" y="250" >Count</text><line  class="poloto_axis_lines" stroke="black" x1="208.0487804878049" x2="208.0487804878049" y1="400" y2="405" /><text  class="poloto_tick_labels poloto_text" alignment-baseline="start" text-anchor="middle" x="208.0487804878049" y="430" > 02:46:40</text><line  class="poloto_axis_lines" stroke="black" x1="266.1207897793264" x2="266.1207897793264" y1="400" y2="405" /><text  class="poloto_tick_labels poloto_text" alignment-baseline="start" text-anchor="middle" x="266.1207897793264" y="430" > 05:33:20</text><line  class="poloto_axis_lines" stroke="black" x1="324.19279907084785" x2="324.19279907084785" y1="400" y2="405" /><text  class="poloto_tick_labels poloto_text" alignment-baseline="start" text-anchor="middle" x="324.19279907084785" y="430" > 08:20:00</text><line  class="poloto_axis_lines" stroke="black" x1="382.2648083623693" x2="382.2648083623693" y1="400" y2="405" /><text  class="poloto_tick_labels poloto_text" alignment-baseline="start" text-anchor="middle" x="382.2648083623693" y="430" > 11:06:40</text><line  class="poloto_axis_lines" stroke="black" x1="440.3368176538908" x2="440.3368176538908" y1="400" y2="405" /><text  class="poloto_tick_labels poloto_text" alignment-baseline="start" text-anchor="middle" x="440.3368176538908" y="430" > 13:53:20</text><line  class="poloto_axis_lines" stroke="black" x1="498.4088269454123" x2="498.4088269454123" y1="400" y2="405" /><text  class="poloto_tick_labels poloto_text" alignment-baseline="start" text-anchor="middle" x="498.4088269454123" y="430" > 16:40:00</text><line  class="poloto_axis_lines" stroke="black" x1="556.4808362369338" x2="556.4808362369338" y1="400" y2="405" /><text  class="poloto_tick_labels poloto_text" alignment-baseline="start" text-anchor="middle" x="556.4808362369338" y="430" > 19:26:40</text><line  class="poloto_axis_lines" stroke="black" x1="614.5528455284552" x2="614.5528455284552" y1="400" y2="405" /><text  class="poloto_tick_labels poloto_text" alignment-baseline="start" text-anchor="middle" x="614.5528455284552" y="430" > 22:13:20</text><line  class="poloto_axis_lines" stroke="black" x1="150" x2="144" y1="327.33812949640287" y2="327.33812949640287" /><text  class="poloto_tick_labels poloto_text" alignment-baseline="middle" text-anchor="end" x="135" y="327.33812949640287" > 1500</text><line  class="poloto_axis_lines" stroke="black" x1="150" x2="144" y1="237.41007194244605" y2="237.41007194244605" /><text  class="poloto_tick_labels poloto_text" alignment-baseline="middle" text-anchor="end" x="135" y="237.41007194244605" > 2000</text><line  class="poloto_axis_lines" stroke="black" x1="150" x2="144" y1="147.48201438848923" y2="147.48201438848923" /><text  class="poloto_tick_labels poloto_text" alignment-baseline="middle" text-anchor="end" x="135" y="147.48201438848923" > 2500</text><path  stroke="black" fill="none" class="poloto_axis_lines" style="stroke-dasharray:14.518002322880372;stroke-dashoffset:-58.04878048780488;" d=" M 150 400 L 650 400" /><path  stroke="black" fill="none" class="poloto_axis_lines" style="stroke-dasharray:8.992805755395683;stroke-dashoffset:-72.66187050359713;" d=" M 150 400 L 150 100" /></svg>