<svg class="poloto" width="800" height="500" viewBox="0 0 800 500" xmlns="http://www.w3.org/2000/svg"><style>.poloto { stroke-linecap:round; stroke-linejoin:round; font-family: 'Tahoma', sans-serif; background-color: AliceBlue;} .poloto_scatter{stroke-width:7} .poloto_line{stroke-width:2} .poloto_text{fill: black;} .poloto_axis_lines{stroke: black;stroke-width:3;fill:none;stroke-dasharray:none} .poloto0stroke{stroke:  blue;} .poloto1stroke{stroke:  red;} .poloto2stroke{stroke:  green;} .poloto3stroke{stroke:  gold;} .poloto4stroke{stroke:  aqua;} .poloto5stroke{stroke:  lime;} .poloto6stroke{stroke:  orange;} .poloto7stroke{stroke:  chocolate;} .poloto0fill{fill:blue;} .poloto1fill{fill:red;} .poloto2fill{fill:green;} .poloto3fill{fill:gold;} .poloto4fill{fill:aqua;} .poloto5fill{fill:lime;} .poloto6fill{fill:orange;} .poloto7fill{fill:chocolate;}</style><text  class="poloto_text poloto_legend_text" alignment-baseline="middle" text-anchor="start" font-size="large" x="675" y="100" ></text><path  class="poloto_linefill poloto0fill" d=" M 150 400 L 150 350.6234413965087 L 151.74216027874564 357.1695760598504 L 153.4843205574913 360.7231920199501 L 155.22648083623693 363.71571072319205 L 156.96864111498257 367.64339152119703 L 158.71080139372822 370.074812967581 L 160.45296167247386 370.26184538653365 L 162.1951219512195 369.70074812967584 L 163.93728222996515 373.62842892768083 L 165.6794425087108 374.3765586034913 L 167.42160278745644 377.18204488778053 L 169.16376306620208 376.24688279301745 L 170.90592334494772 378.4912718204489 L 172.64808362369337 379.0523690773067 L 174.390243902439 385.59850374064837 L 176.13240418118465 389.33915211970077 L 177.8745644599303 393.0798004987531 L 179.61672473867597 394.76309226932665 L 181.3588850174216 397.56857855361596 L 183.10104529616726 395.32418952618457 L 184.8432055749129 395.1371571072319 L 186.58536585365854 396.82044887780546 L 188.3275261324042 398.8778054862843 L 190.06968641114983 400 L 191.81184668989548 393.45386533665834 L 193.55400696864112 389.713216957606 L 195.29616724738676 386.7206982543641 L 197.0383275261324 382.4189526184539 L 198.78048780487805 380.9226932668329 L 200.5226480836237 381.1097256857855 L 202.26480836236934 384.6633416458853 L 204.00696864111498 381.85785536159597 L 205.74912891986062 387.4688279301746 L 207.49128919860627 382.60598503740647 L 209.2334494773519 376.8079800498753 L 210.97560975609755 370.8229426433915 L 212.72357723577235 367.8304239401496 L 214.45993031358887 367.8304239401496 L 216.2020905923345 368.5785536159601 L 217.94425087108016 366.5211970074813 L 219.6864111498258 364.27680798004985 L 221.42857142857144 362.78054862842896 L 223.1707317073171 364.65087281795513 L 224.91289198606273 362.4064837905237 L 226.65505226480838 357.73067331670825 L 228.39721254355402 360.91022443890273 L 230.13937282229966 361.4713216957606 L 231.8815331010453 360.91022443890273 L 233.62369337979095 366.8952618453865 L 235.3658536585366 369.70074812967584 L 237.10801393728224 362.96758104738154 L 238.85017421602788 366.70822942643395 L 240.59233449477352 361.09725685785537 L 242.33449477351917 357.5436408977556 L 244.0766550522648 354.73815461346635 L 245.81881533101046 357.35660847880297 L 247.5609756097561 356.4214463840399 L 249.30313588850174 353.99002493765585 L 251.0452961672474 354.36408977556107 L 252.78745644599303 352.1197007481297 L 254.52961672473867 354.92518703241893 L 256.2717770034843 345.94763092269324 L 258.01393728222996 344.07730673316706 L 259.7560975609756 345.76059850374065 L 261.49825783972125 344.82543640897757 L 263.2404181184669 336.9700748129676 L 264.98257839721254 340.5236907730673 L 266.7247386759582 343.5162094763092 L 268.4668989547038 341.45885286783044 L 270.20905923344947 345.94763092269324 L 271.9512195121951 339.77556109725685 L 273.69337979094075 334.53865336658356 L 275.4355400696864 328.927680798005 L 277.17770034843204 333.2294264339152 L 278.9198606271777 334.3516209476309 L 280.6620209059233 334.72568578553614 L 282.40418118466897 332.66832917705733 L 284.1463414634146 331.9201995012469 L 285.88850174216026 336.9700748129676 L 287.6306620209059 329.48877805486285 L 289.37282229965155 329.8628428927681 L 291.1149825783972 326.68329177057353 L 292.85714285714283 319.20199501246884 L 294.5993031358885 312.84289276807976 L 296.3414634146342 311.9077306733167 L 298.08362369337976 311.9077306733167 L 299.82578397212546 311.9077306733167 L 301.56794425087105 309.1022443890274 L 303.31010452961675 308.16708229426433 L 305.05226480836234 302.55610972568576 L 306.79442508710804 303.8653366583541 L 308.5365853658536 306.857855361596 L 310.2787456445993 302.55610972568576 L 312.0209059233449 303.30423940149626 L 313.7630662020906 302.18204488778053 L 315.5052264808362 298.6284289276808 L 317.2473867595819 296.7581047381546 L 318.9895470383275 295.074812967581 L 320.7317073170732 300.6857855361596 L 322.4738675958188 297.6932668329177 L 324.2160278745645 296.94513715710724 L 325.95818815331006 292.4563591022444 L 327.70034843205576 286.4713216957606 L 329.44250871080135 281.98254364089775 L 331.18466898954705 281.7955112219451 L 332.92682926829264 273.75311720698255 L 334.66898954703834 278.05486284289276 L 336.4111498257839 267.5810473815461 L 338.1533101045296 265.5236907730673 L 339.8954703832752 265.1496259351621 L 341.6376306620209 259.5386533665835 L 343.3797909407665 259.9127182044888 L 345.1219512195122 255.0498753117207 L 346.86411149825784 258.41645885286783 L 348.6062717770035 258.9775561097257 L 350.34843205574913 268.70324189526184 L 352.0905923344948 262.9052369077307 L 353.8327526132404 261.40897755610973 L 355.57491289198606 260.286783042394 L 357.3170731707317 262.1571072319202 L 359.05923344947735 261.2219451371571 L 360.801393728223 266.83291770573567 L 362.54355400696863 250.74812967581045 L 364.2857142857143 253.55361596009976 L 366.0278745644599 253.36658354114712 L 367.77003484320556 249.2518703241895 L 369.5121951219512 244.20199501246884 L 371.25435540069685 248.50374064837905 L 372.9965156794425 246.63341645885288 L 374.73867595818814 251.49625935162095 L 376.4808362369338 252.43142144638404 L 378.2229965156794 245.51122194513715 L 379.96515679442507 244.9501246882793 L 381.7073170731707 226.4339152119701 L 383.44947735191636 234.10224438902742 L 385.191637630662 228.11720698254362 L 386.93379790940764 235.41147132169573 L 388.6759581881533 218.95261845386534 L 390.41811846689893 212.40648379052368 L 392.1602787456446 203.99002493765585 L 393.9024390243902 207.16957605985039 L 395.6445993031359 204.92518703241893 L 397.3867595818815 201.1845386533666 L 399.1289198606272 202.68079800498754 L 400.876887340302 215.39900249376558 L 402.6132404181185 223.25436408977555 L 404.3554006968641 231.48379052369074 L 406.0975609756097 212.59351620947632 L 407.83972125435537 212.21945137157104 L 409.581881533101 203.2418952618454 L 411.32404181184666 213.715710723192 L 413.0662020905923 214.27680798004985 L 414.80836236933794 202.30673316708226 L 416.5505226480836 198.37905236907727 L 418.29268292682923 193.14214463840398 L 420.0348432055749 183.2294264339152 L 421.7770034843206 178.36658354114712 L 423.5191637630662 174.43890274314214 L 425.26132404181186 174.0648379052369 L 427.0034843205575 172.19451371571068 L 428.74564459930315 165.08728179551122 L 430.4878048780488 166.58354114713217 L 432.22996515679444 163.59102244389027 L 433.9721254355401 151.9950124688279 L 435.7142857142857 165.2743142144638 L 437.45644599303137 157.41895261845383 L 439.198606271777 157.7930174563591 L 440.94076655052265 147.50623441396505 L 442.6829268292683 156.48379052369074 L 444.42508710801394 140.02493765586036 L 446.1672473867596 159.10224438902742 L 447.9094076655052 131.60847880299252 L 449.65156794425087 125.99750623441395 L 451.3937282229965 128.8029925187032 L 453.13588850174216 128.42892768079798 L 454.8780487804878 128.99002493765585 L 456.62020905923345 126.55860349127181 L 458.3623693379791 203.05486284289276 L 460.10452961672473 136.4713216957606 L 461.8466898954704 137.21945137157104 L 463.588850174216 125.62344139650872 L 465.33101045296166 117.58104738154611 L 467.0731707317073 117.39401496259347 L 468.81533101045295 119.45137157107229 L 470.5574912891986 114.02743142144635 L 472.29965156794424 110.84788029925187 L 474.0418118466899 105.61097256857852 L 475.7839721254355 115.33665835411472 L 477.52613240418117 106.73316708229424 L 479.2682926829268 106.92019950124688 L 481.01045296167246 117.76807980049875 L 482.7526132404181 102.9925187032419 L 484.49477351916374 111.78304239401496 L 486.2369337979094 112.15710723192018 L 487.97909407665503 109.35162094763092 L 489.7212543554007 108.2294264339152 L 491.4634146341463 100 L 493.20557491289196 100.93516209476309 L 494.9477351916376 103.36658354114707 L 496.68989547038325 109.35162094763092 L 498.4320557491289 112.34413965087282 L 500.17421602787454 106.73316708229424 L 501.9163763066202 118.89027431421442 L 503.6585365853658 128.61596009975062 L 505.40069686411147 136.4713216957606 L 507.1428571428571 128.61596009975062 L 508.88501742160275 133.29177057356605 L 510.6271777003484 140.58603491271816 L 512.3693379790941 141.89526184538653 L 514.1114982578397 141.5211970074813 L 515.8536585365853 142.64339152119697 L 517.595818815331 146.94513715710724 L 519.3379790940767 159.28927680798006 L 521.0801393728223 165.2743142144638 L 522.822299651568 171.44638403990024 L 524.5644599303137 194.2643391521197 L 526.3066202090592 190.89775561097258 L 528.0487804878048 200.43640897755608 L 529.7909407665505 199.68827930174564 L 531.5331010452962 209.03990024937656 L 533.2752613240418 193.70324189526184 L 535.0174216027874 206.98254364089775 L 536.7595818815331 221.38403990024938 L 538.5017421602788 199.68827930174564 L 540.2439024390244 198.75311720698255 L 541.98606271777 200.8104738154613 L 543.7282229965157 219.88778054862843 L 545.4703832752614 212.96758104738154 L 547.212543554007 214.65087281795508 L 548.9547038327526 220.074812967581 L 550.6968641114983 231.10972568578552 L 552.439024390244 222.31920199501246 L 554.1811846689895 220.26184538653365 L 555.9233449477351 224.002493765586 L 557.6655052264808 234.47630922693264 L 559.4076655052265 237.65586034912718 L 561.1498257839721 244.57605985037407 L 562.8919860627177 249.43890274314214 L 564.6341463414634 251.12219451371573 L 566.3763066202091 246.44638403990024 L 568.1184668989547 259.9127182044888 L 569.8606271777003 267.39401496259353 L 571.602787456446 245.3241895261845 L 573.3449477351917 253.74064837905235 L 575.0871080139373 256.1720698254364 L 576.8292682926829 252.2443890274314 L 578.5714285714286 261.03491271820445 L 580.3135888501743 266.08478802992516 L 582.0557491289198 250.37406483790522 L 583.7979094076654 251.87032418952617 L 585.5400696864111 249.62593516209478 L 587.2822299651568 254.11471321695757 L 589.0243902439024 262.3441396508728 L 590.766550522648 258.2294264339152 L 592.5087108013937 265.8977556109726 L 594.2508710801394 258.0423940149626 L 595.993031358885 258.41645885286783 L 597.7351916376306 258.0423940149626 L 599.4773519163763 263.84039900249377 L 601.219512195122 265.3366583541147 L 602.9616724738676 253.74064837905235 L 604.7038327526132 251.49625935162095 L 606.4459930313589 260.09975062344137 L 608.1881533101046 263.09226932668327 L 609.9303135888501 271.69576059850374 L 611.6724738675957 276.1845386533666 L 613.4146341463414 272.81795511221947 L 615.1567944250871 277.8678304239401 L 616.8989547038327 280.1122194513716 L 618.6411149825783 286.28428927680795 L 620.383275261324 292.643391521197 L 622.1254355400697 294.7007481296758 L 623.8675958188153 296.94513715710724 L 625.609756097561 297.6932668329177 L 627.3519163763067 307.0448877805486 L 629.0940766550523 308.7281795511222 L 630.8362369337979 315.0872817955112 L 632.5783972125436 333.41645885286783 L 634.3205574912893 332.85536159600997 L 636.0627177700349 344.4513715710723 L 637.8048780487804 351.1845386533666 L 639.5470383275261 343.3291770573566 L 641.2891986062718 348.5660847880299 L 643.0313588850174 357.5436408977556 L 644.773519163763 360.91022443890273 L 646.5156794425087 364.27680798004985 L 648.2578397212544 368.95261845386534 L 650 370.63591022443893 L 650 400 Z" /><text  class="poloto_labels poloto_text poloto_title" alignment-baseline="start" text-anchor="middle" font-size="x-large" x="400" y="37.5" >Total players on 2021-07-19</text><text  class="poloto_labels poloto_text poloto_xname" alignment-baseline="start" text-anchor="middle" font-size="x-large" x="400" y="481.25" >Time</text><text  class="poloto_labels poloto_text poloto_yname" alignment-baseline="start" text-anchor="middle" font-size="x-large" transform="rotate(-90,37.5,250)" x="37.5" y="250" >Count</text><line  class="poloto_axis_lines" stroke="black" x1="208.0487804878049" x2="208.0487804878049" y1="400" y2="405" /><text  class="poloto_tick_labels poloto_text" alignment-baseline="start" text-anchor="middle" x="208.0487804878049" y="430" > 03:00</text><line  class="poloto_axis_lines" stroke="black" x1="266.1207897793264" x2="266.1207897793264" y1="400" y2="405" /><text  class="poloto_tick_labels poloto_text" alignment-baseline="start" text-anchor="middle" x="266.1207897793264" y="430" > 06:00</text><line  class="poloto_axis_lines" stroke="black" x1="324.19279907084785" x2="324.19279907084785" y1="400" y2="405" /><text  class="poloto_tick_labels poloto_text" alignment-baseline="start" text-anchor="middle" x="324.19279907084785" y="430" > 08:00</text><line  class="poloto_axis_lines" stroke="black" x1="382.2648083623693" x2="382.2648083623693" y1="400" y2="405" /><text  class="poloto_tick_labels poloto_text" alignment-baseline="start" text-anchor="middle" x="382.2648083623693" y="430" > 11:00</text><line  class="poloto_axis_lines" stroke="black" x1="440.3368176538908" x2="440.3368176538908" y1="400" y2="405" /><text  class="poloto_tick_labels poloto_text" alignment-baseline="start" text-anchor="middle" x="440.3368176538908" y="430" > 14:00</text><line  class="poloto_axis_lines" stroke="black" x1="498.4088269454123" x2="498.4088269454123" y1="400" y2="405" /><text  class="poloto_tick_labels poloto_text" alignment-baseline="start" text-anchor="middle" x="498.4088269454123" y="430" > 17:00</text><line  class="poloto_axis_lines" stroke="black" x1="556.4808362369338" x2="556.4808362369338" y1="400" y2="405" /><text  class="poloto_tick_labels poloto_text" alignment-baseline="start" text-anchor="middle" x="556.4808362369338" y="430" > 19:00</text><line  class="poloto_axis_lines" stroke="black" x1="614.5528455284552" x2="614.5528455284552" y1="400" y2="405" /><text  class="poloto_tick_labels poloto_text" alignment-baseline="start" text-anchor="middle" x="614.5528455284552" y="430" > 22:00</text><line  class="poloto_axis_lines" stroke="black" x1="150" x2="144" y1="336.5960099750623" y2="336.5960099750623" /><text  class="poloto_tick_labels poloto_text" alignment-baseline="middle" text-anchor="end" x="135" y="336.5960099750623" > 1500</text><line  class="poloto_axis_lines" stroke="black" x1="150" x2="144" y1="243.07980049875312" y2="243.07980049875312" /><text  class="poloto_tick_labels poloto_text" alignment-baseline="middle" text-anchor="end" x="135" y="243.07980049875312" > 2000</text><line  class="poloto_axis_lines" stroke="black" x1="150" x2="144" y1="149.56359102244386" y2="149.56359102244386" /><text  class="poloto_tick_labels poloto_text" alignment-baseline="middle" text-anchor="end" x="135" y="149.56359102244386" > 2500</text><path  stroke="black" fill="none" class="poloto_axis_lines" style="stroke-dasharray:14.518002322880372;stroke-dashoffset:-58.04878048780488;" d=" M 150 400 L 650 400" /><path  stroke="black" fill="none" class="poloto_axis_lines" style="stroke-dasharray:9.351620947630924;stroke-dashoffset:-63.403990024937684;" d=" M 150 400 L 150 100" /></svg>