<svg class="poloto" width="800" height="500" viewBox="0 0 800 500" xmlns="http://www.w3.org/2000/svg"><style>.poloto { stroke-linecap:round; stroke-linejoin:round; font-family: 'Tahoma', sans-serif; background-color: AliceBlue;} .poloto_scatter{stroke-width:7} .poloto_line{stroke-width:2} .poloto_text{fill: black;} .poloto_axis_lines{stroke: black;stroke-width:3;fill:none;stroke-dasharray:none} .poloto0stroke{stroke:  blue;} .poloto1stroke{stroke:  red;} .poloto2stroke{stroke:  green;} .poloto3stroke{stroke:  gold;} .poloto4stroke{stroke:  aqua;} .poloto5stroke{stroke:  lime;} .poloto6stroke{stroke:  orange;} .poloto7stroke{stroke:  chocolate;} .poloto0fill{fill:blue;} .poloto1fill{fill:red;} .poloto2fill{fill:green;} .poloto3fill{fill:gold;} .poloto4fill{fill:aqua;} .poloto5fill{fill:lime;} .poloto6fill{fill:orange;} .poloto7fill{fill:chocolate;}</style><text  class="poloto_text poloto_legend_text" alignment-baseline="middle" text-anchor="start" font-size="large" x="675" y="100" ></text><path  class="poloto_linefill poloto0fill" d=" M 150 400 L 150 374.7058823529412 L 151.74216027874564 378.52941176470586 L 153.4843205574913 383.52941176470586 L 155.22648083623693 389.2647058823529 L 156.96864111498257 390.44117647058823 L 158.71080139372822 389.2647058823529 L 160.45296167247386 389.11764705882354 L 162.1951219512195 389.2647058823529 L 163.93728222996515 391.02941176470586 L 165.6794425087108 388.38235294117646 L 167.42160278745644 391.7647058823529 L 169.16376306620208 388.52941176470586 L 170.90592334494772 393.0882352941177 L 172.64808362369337 396.9117647058823 L 174.390243902439 400 L 176.13240418118465 399.7058823529412 L 177.8745644599303 399.4117647058823 L 179.61672473867597 396.32352941176475 L 181.3588850174216 395 L 183.10104529616726 396.32352941176475 L 184.8432055749129 394.7058823529412 L 186.58536585365854 393.82352941176475 L 188.3275261324042 391.47058823529414 L 190.06968641114983 398.38235294117646 L 191.81184668989548 398.0882352941177 L 193.55400696864112 398.82352941176475 L 195.29616724738676 399.11764705882354 L 197.0383275261324 396.47058823529414 L 198.78048780487805 393.6764705882353 L 200.5226480836237 397.05882352941177 L 202.26480836236934 393.6764705882353 L 204.00696864111498 387.94117647058823 L 205.74912891986062 385.44117647058823 L 207.49128919860627 384.55882352941177 L 209.2334494773519 383.6764705882353 L 210.97560975609755 381.32352941176475 L 212.7177700348432 379.55882352941177 L 214.45993031358887 374.55882352941177 L 216.2020905923345 376.1764705882353 L 217.94425087108016 370.1470588235294 L 219.6864111498258 362.05882352941177 L 221.42857142857144 366.32352941176475 L 223.1707317073171 366.1764705882353 L 224.91289198606273 366.7647058823529 L 226.65505226480838 364.2647058823529 L 228.39721254355402 360.29411764705884 L 230.13937282229966 357.3529411764706 L 231.8815331010453 358.0882352941177 L 233.62369337979095 358.2352941176471 L 235.3658536585366 349.11764705882354 L 237.10801393728224 348.38235294117646 L 238.85017421602788 347.3529411764706 L 240.59233449477352 345 L 242.33449477351917 343.2352941176471 L 244.0766550522648 337.6470588235294 L 245.81881533101046 331.61764705882354 L 247.5609756097561 323.82352941176475 L 249.30313588850174 324.55882352941177 L 251.0452961672474 323.38235294117646 L 252.78745644599303 325.5882352941177 L 254.52961672473867 324.8529411764706 L 256.2717770034843 320.1470588235294 L 258.01393728222996 319.8529411764706 L 259.7560975609756 318.0882352941177 L 261.49825783972125 317.2058823529412 L 263.2404181184669 315.1470588235294 L 264.98257839721254 315.1470588235294 L 266.7247386759582 309.8529411764706 L 268.4668989547038 307.3529411764706 L 270.20905923344947 307.0588235294118 L 271.9512195121951 307.5 L 273.69337979094075 303.52941176470586 L 275.4355400696864 308.0882352941177 L 277.17770034843204 301.61764705882354 L 278.91986062717774 301.47058823529414 L 280.6620209059233 303.2352941176471 L 282.404181184669 301.02941176470586 L 284.1463414634146 302.5 L 285.8885017421603 297.2058823529412 L 287.6306620209059 295.5882352941177 L 289.3728222996516 298.2352941176471 L 291.1149825783972 295.4411764705883 L 292.8571428571429 287.6470588235294 L 294.5993031358885 289.8529411764706 L 296.3414634146342 290.2941176470588 L 298.08362369337976 291.17647058823525 L 299.82578397212546 287.5 L 301.56794425087105 284.5588235294118 L 303.31010452961675 279.4117647058823 L 305.05226480836234 287.6470588235294 L 306.79442508710804 282.3529411764706 L 308.5365853658536 274.7058823529412 L 310.2787456445993 278.0882352941177 L 312.0209059233449 283.97058823529414 L 313.7630662020906 283.2352941176471 L 315.5052264808362 282.7941176470588 L 317.2473867595819 287.0588235294118 L 318.9895470383275 276.02941176470586 L 320.7317073170732 274.7058823529412 L 322.4738675958188 272.0588235294118 L 324.2160278745645 277.9411764705883 L 325.9581881533101 281.32352941176475 L 327.70034843205576 272.7941176470588 L 329.4425087108014 273.38235294117646 L 331.18466898954705 266.32352941176475 L 332.9268292682927 262.6470588235294 L 334.66898954703834 261.17647058823525 L 336.411149825784 262.5 L 338.1533101045296 259.11764705882354 L 339.89547038327527 252.0588235294118 L 341.6376306620209 253.67647058823528 L 343.37979094076655 247.64705882352942 L 345.1219512195122 253.3823529411765 L 346.86411149825784 251.76470588235296 L 348.6062717770035 255.44117647058826 L 350.34843205574913 239.1176470588235 L 352.0905923344948 234.41176470588235 L 353.8327526132404 231.76470588235296 L 355.57491289198606 232.2058823529412 L 357.3170731707317 230.14705882352942 L 359.05923344947735 228.3823529411765 L 360.801393728223 235.58823529411765 L 362.54355400696863 230.2941176470588 L 364.2857142857143 225.44117647058826 L 366.0278745644599 224.85294117647058 L 367.77003484320556 233.3823529411765 L 369.5121951219512 219.55882352941174 L 371.25435540069685 218.08823529411765 L 372.9965156794425 214.41176470588235 L 374.73867595818814 206.76470588235296 L 376.4808362369338 206.47058823529412 L 378.2229965156795 194.85294117647058 L 379.96515679442507 195.2941176470588 L 381.70731707317077 199.26470588235296 L 383.44947735191636 192.2058823529412 L 385.19163763066206 191.17647058823528 L 386.93379790940764 188.82352941176472 L 388.67595818815334 178.52941176470588 L 390.41811846689893 178.82352941176472 L 392.16027874564463 174.41176470588235 L 393.9024390243902 177.35294117647058 L 395.6445993031359 177.64705882352942 L 397.3867595818815 178.82352941176472 L 399.1289198606272 176.76470588235296 L 400.8710801393728 179.26470588235296 L 402.6132404181185 181.6176470588235 L 404.3554006968641 173.82352941176472 L 406.0975609756098 172.50000000000003 L 407.8397212543554 163.52941176470588 L 409.58188153310107 165.2941176470588 L 411.3240418118467 174.7058823529412 L 413.06620209059236 171.91176470588235 L 414.808362369338 233.52941176470588 L 416.55052264808364 176.6176470588235 L 418.2926829268293 178.23529411764704 L 420.03484320557493 177.64705882352942 L 421.7770034843206 173.23529411764704 L 423.5191637630662 170.14705882352942 L 425.26132404181186 164.55882352941174 L 427.0034843205575 157.94117647058826 L 428.74564459930315 154.55882352941174 L 430.4878048780488 156.6176470588235 L 432.22996515679444 165.00000000000003 L 433.9721254355401 157.64705882352942 L 435.7142857142857 152.94117647058826 L 437.45644599303137 141.02941176470586 L 439.198606271777 145.44117647058826 L 440.94076655052265 145.14705882352942 L 442.6829268292683 145.00000000000003 L 444.42508710801394 145.00000000000003 L 446.1672473867596 155.44117647058826 L 447.9094076655052 158.82352941176472 L 449.65156794425087 148.52941176470588 L 451.3937282229965 149.26470588235296 L 453.13588850174216 143.23529411764707 L 454.8780487804878 137.5 L 456.62020905923345 136.32352941176475 L 458.3623693379791 137.6470588235294 L 460.10452961672473 128.67647058823525 L 461.8466898954704 130.88235294117646 L 463.588850174216 119.85294117647061 L 465.33101045296166 120.29411764705878 L 467.0731707317073 111.02941176470586 L 468.81533101045295 108.52941176470586 L 470.5574912891986 117.79411764705878 L 472.29965156794424 105.14705882352939 L 474.0418118466899 119.41176470588232 L 475.7839721254355 109.85294117647061 L 477.52613240418117 100 L 479.2682926829268 105.58823529411768 L 481.01045296167246 107.5 L 482.7526132404181 106.61764705882354 L 484.49477351916374 107.79411764705878 L 486.2369337979094 112.79411764705878 L 487.97909407665503 111.17647058823525 L 489.7212543554007 110.73529411764707 L 491.4634146341463 106.32352941176475 L 493.20557491289196 105 L 494.9477351916376 111.76470588235293 L 496.68989547038325 114.85294117647061 L 498.4320557491289 112.5 L 500.17421602787454 114.11764705882354 L 501.91637630662024 112.05882352941171 L 503.6585365853659 114.70588235294122 L 505.4006968641115 124.85294117647061 L 507.14285714285717 122.20588235294122 L 508.8850174216028 125.58823529411768 L 510.62717770034845 131.91176470588232 L 512.3693379790941 140.73529411764707 L 514.1114982578397 151.76470588235296 L 515.8536585365854 165.2941176470588 L 517.5958188153311 163.3823529411765 L 519.3379790940767 168.23529411764704 L 521.0801393728223 165.2941176470588 L 522.822299651568 170.00000000000003 L 524.5644599303137 178.97058823529412 L 526.3066202090592 172.2058823529412 L 528.0487804878048 183.97058823529412 L 529.7909407665505 193.23529411764704 L 531.5331010452962 192.7941176470588 L 533.2752613240418 193.3823529411765 L 535.0174216027874 193.67647058823528 L 536.7595818815331 201.91176470588235 L 538.5017421602788 200.44117647058826 L 540.2439024390244 201.91176470588235 L 541.98606271777 198.23529411764704 L 543.7282229965157 203.08823529411765 L 545.4703832752614 206.32352941176472 L 547.212543554007 199.7058823529412 L 548.9547038327526 203.67647058823528 L 550.6968641114983 208.82352941176472 L 552.439024390244 210.44117647058826 L 554.1811846689895 212.94117647058826 L 555.9233449477351 214.7058823529412 L 557.6655052264808 215.58823529411765 L 559.4076655052265 218.97058823529412 L 561.1498257839721 228.52941176470588 L 562.8919860627177 240.2941176470588 L 564.6341463414634 245.14705882352942 L 566.3763066202091 252.50000000000003 L 568.1184668989547 242.7941176470588 L 569.8606271777003 251.6176470588235 L 571.602787456446 266.32352941176475 L 573.3449477351917 259.5588235294118 L 575.0871080139373 285.7352941176471 L 576.8292682926829 266.17647058823525 L 578.5714285714286 290.2941176470588 L 580.3135888501743 299.8529411764706 L 582.0557491289198 274.4117647058823 L 583.7979094076654 276.7647058823529 L 585.5400696864111 299.5588235294118 L 587.2822299651568 299.2647058823529 L 589.0243902439024 302.6470588235294 L 590.766550522648 304.5588235294118 L 592.5087108013937 307.3529411764706 L 594.2508710801394 306.9117647058823 L 595.993031358885 310.7352941176471 L 597.7351916376306 312.3529411764706 L 599.4773519163763 316.7647058823529 L 601.219512195122 330.44117647058823 L 602.9616724738676 327.94117647058823 L 604.7038327526133 332.05882352941177 L 606.445993031359 333.82352941176475 L 608.1881533101046 336.02941176470586 L 609.9303135888501 338.6764705882353 L 611.6724738675958 342.3529411764706 L 613.4146341463415 342.05882352941177 L 615.1567944250871 349.55882352941177 L 616.8989547038327 353.2352941176471 L 618.6411149825784 352.94117647058823 L 620.3832752613241 379.8529411764706 L 622.1254355400697 364.7058823529412 L 623.8675958188153 360.7352941176471 L 625.609756097561 369.55882352941177 L 627.3519163763067 374.2647058823529 L 629.0940766550523 373.82352941176475 L 630.8362369337979 376.7647058823529 L 632.5783972125436 378.2352941176471 L 634.3205574912893 381.7647058823529 L 636.0627177700349 385.88235294117646 L 637.8048780487804 386.47058823529414 L 639.5470383275261 390.1470588235294 L 641.2891986062718 388.82352941176475 L 643.0313588850174 390.29411764705884 L 644.773519163763 392.2058823529412 L 646.5156794425087 394.55882352941177 L 648.2578397212544 395.88235294117646 L 650 396.32352941176475 L 650 400 Z" /><text  class="poloto_labels poloto_text poloto_title" alignment-baseline="start" text-anchor="middle" font-size="x-large" x="400" y="37.5" >Total players on 2021-09-19</text><text  class="poloto_labels poloto_text poloto_xname" alignment-baseline="start" text-anchor="middle" font-size="x-large" x="400" y="481.25" >Time</text><text  class="poloto_labels poloto_text poloto_yname" alignment-baseline="start" text-anchor="middle" font-size="x-large" transform="rotate(-90,37.5,250)" x="37.5" y="250" >Count</text><line  class="poloto_axis_lines" stroke="black" x1="150" x2="150" y1="400" y2="405" /><text  class="poloto_tick_labels poloto_text" alignment-baseline="start" text-anchor="middle" x="150" y="430" > 00:00:00</text><line  class="poloto_axis_lines" stroke="black" x1="266.14401858304296" x2="266.14401858304296" y1="400" y2="405" /><text  class="poloto_tick_labels poloto_text" alignment-baseline="start" text-anchor="middle" x="266.14401858304296" y="430" > 05:33:20</text><line  class="poloto_axis_lines" stroke="black" x1="382.2880371660859" x2="382.2880371660859" y1="400" y2="405" /><text  class="poloto_tick_labels poloto_text" alignment-baseline="start" text-anchor="middle" x="382.2880371660859" y="430" > 11:06:40</text><line  class="poloto_axis_lines" stroke="black" x1="498.4320557491289" x2="498.4320557491289" y1="400" y2="405" /><text  class="poloto_tick_labels poloto_text" alignment-baseline="start" text-anchor="middle" x="498.4320557491289" y="430" > 16:40:00</text><line  class="poloto_axis_lines" stroke="black" x1="614.5760743321719" x2="614.5760743321719" y1="400" y2="405" /><text  class="poloto_tick_labels poloto_text" alignment-baseline="start" text-anchor="middle" x="614.5760743321719" y="430" > 22:13:20</text><line  class="poloto_axis_lines" stroke="black" x1="150" x2="144" y1="358.6764705882353" y2="358.6764705882353" /><text  class="poloto_tick_labels poloto_text" alignment-baseline="middle" text-anchor="end" x="135" y="358.6764705882353" > 1500</text><line  class="poloto_axis_lines" stroke="black" x1="150" x2="144" y1="285.1470588235294" y2="285.1470588235294" /><text  class="poloto_tick_labels poloto_text" alignment-baseline="middle" text-anchor="end" x="135" y="285.1470588235294" > 2000</text><line  class="poloto_axis_lines" stroke="black" x1="150" x2="144" y1="211.61764705882354" y2="211.61764705882354" /><text  class="poloto_tick_labels poloto_text" alignment-baseline="middle" text-anchor="end" x="135" y="211.61764705882354" > 2500</text><line  class="poloto_axis_lines" stroke="black" x1="150" x2="144" y1="138.08823529411768" y2="138.08823529411768" /><text  class="poloto_tick_labels poloto_text" alignment-baseline="middle" text-anchor="end" x="135" y="138.08823529411768" > 3000</text><path  stroke="black" fill="none" class="poloto_axis_lines" style="stroke-dasharray:14.518002322880372;stroke-dashoffset:-0;" d=" M 150 400 L 650 400" /><path  stroke="black" fill="none" class="poloto_axis_lines" style="stroke-dasharray:7.352941176470589;stroke-dashoffset:-41.323529411764696;" d=" M 150 400 L 150 100" /></svg>