<svg class="poloto" width="800" height="500" viewBox="0 0 800 500" xmlns="http://www.w3.org/2000/svg"><style>.poloto { stroke-linecap:round; stroke-linejoin:round; font-family: 'Tahoma', sans-serif; background-color: AliceBlue;} .poloto_scatter{stroke-width:7} .poloto_line{stroke-width:2} .poloto_text{fill: black;} .poloto_axis_lines{stroke: black;stroke-width:3;fill:none;stroke-dasharray:none} .poloto0stroke{stroke:  blue;} .poloto1stroke{stroke:  red;} .poloto2stroke{stroke:  green;} .poloto3stroke{stroke:  gold;} .poloto4stroke{stroke:  aqua;} .poloto5stroke{stroke:  lime;} .poloto6stroke{stroke:  orange;} .poloto7stroke{stroke:  chocolate;} .poloto0fill{fill:blue;} .poloto1fill{fill:red;} .poloto2fill{fill:green;} .poloto3fill{fill:gold;} .poloto4fill{fill:aqua;} .poloto5fill{fill:lime;} .poloto6fill{fill:orange;} .poloto7fill{fill:chocolate;}</style><text  class="poloto_text poloto_legend_text" alignment-baseline="middle" text-anchor="start" font-size="large" x="675" y="100" ></text><path  class="poloto_linefill poloto0fill" d=" M 150 400 L 150 373.4435797665369 L 151.74216027874564 376.21595330739297 L 153.4843205574913 377.9669260700389 L 155.22648083623693 378.4046692607004 L 156.96864111498257 379.4260700389105 L 158.71080139372822 384.38715953307394 L 160.45296167247386 386.72178988326846 L 162.1951219512195 382.05252918287937 L 163.93728222996515 385.7003891050583 L 165.6794425087108 388.03501945525295 L 167.42160278745644 388.9105058365759 L 169.16376306620208 389.6400778210117 L 170.90592334494772 393.1420233463035 L 172.64808362369337 394.6011673151751 L 174.390243902439 400 L 176.13240418118465 397.6653696498054 L 177.8745644599303 397.08171206225677 L 179.61672473867597 399.12451361867704 L 181.3588850174216 394.6011673151751 L 183.10104529616726 397.9571984435797 L 184.8432055749129 396.2062256809338 L 186.58536585365854 396.78988326848247 L 188.3275261324042 391.6828793774319 L 190.06968641114983 393.28793774319064 L 191.81184668989548 392.99610894941634 L 193.55400696864112 399.12451361867704 L 195.29616724738676 395.47665369649803 L 197.0383275261324 393.1420233463035 L 198.78048780487805 390.80739299610894 L 200.5226480836237 389.20233463035015 L 202.26480836236934 384.82490272373536 L 204.00696864111498 382.49027237354085 L 205.74912891986062 379.5719844357976 L 207.49128919860627 378.11284046692606 L 209.2334494773519 369.50389105058366 L 210.97560975609755 370.6712062256809 L 212.7177700348432 371.8385214007782 L 214.45993031358887 365.4182879377432 L 216.2020905923345 359.43579766536965 L 217.94425087108016 360.89494163424126 L 219.6864111498258 358.5603112840467 L 221.42857142857144 364.10505836575874 L 223.1707317073171 356.07976653696494 L 224.91289198606273 351.9941634241245 L 226.65505226480838 352.2859922178988 L 228.39721254355402 346.011673151751 L 230.13937282229966 344.99027237354085 L 231.8815331010453 343.82295719844353 L 233.62369337979095 340.4669260700389 L 235.3658536585366 345.2821011673152 L 237.10801393728224 338.71595330739297 L 238.85017421602788 341.7801556420234 L 240.59233449477352 339.2996108949416 L 242.33449477351917 338.42412451361866 L 244.0766550522648 335.21400778210113 L 245.81881533101046 334.0466926070039 L 247.5609756097561 332.14980544747084 L 249.30313588850174 334.7762645914397 L 251.0452961672474 333.0252918287938 L 252.78745644599303 334.0466926070039 L 254.52961672473867 330.3988326848249 L 256.2717770034843 326.02140077821014 L 258.01393728222996 332.4416342412451 L 259.7560975609756 336.0894941634241 L 261.49825783972125 326.8968871595331 L 263.2404181184669 328.2101167315175 L 264.98257839721254 328.50194552529183 L 266.7247386759582 332.00389105058366 L 268.4668989547038 330.54474708171205 L 270.20905923344947 333.31712062256804 L 271.9512195121951 340.1750972762646 L 273.69337979094075 335.7976653696498 L 275.4355400696864 339.7373540856031 L 277.17770034843204 337.1108949416342 L 278.91986062717774 330.9824902723735 L 280.6620209059233 331.8579766536965 L 282.404181184669 333.1712062256809 L 284.1463414634146 329.2315175097276 L 285.8885017421603 319.74708171206225 L 287.6306620209059 314.34824902723733 L 289.3728222996516 315.66147859922177 L 291.1149825783972 308.9494163424124 L 292.8571428571429 306.32295719844353 L 294.5993031358885 305.1556420233463 L 296.3414634146342 302.3832684824903 L 298.08362369337976 298.73540856031127 L 299.82578397212546 294.9416342412451 L 301.56794425087105 295.5252918287938 L 303.31010452961675 296.2548638132296 L 305.05226480836234 294.50389105058366 L 306.79442508710804 283.852140077821 L 308.5365853658536 278.30739299610894 L 310.2787456445993 283.4143968871595 L 312.0209059233449 283.7062256809338 L 313.7630662020906 281.6634241245136 L 315.5052264808362 278.59922178988325 L 317.2473867595819 275.8268482490272 L 318.9895470383275 277.2859922178988 L 320.7317073170732 277.14007782101163 L 322.4738675958188 278.16147859922177 L 324.2160278745645 276.70233463035015 L 325.9581881533101 276.9941634241245 L 327.70034843205576 284.28988326848247 L 329.4425087108014 282.24708171206225 L 331.18466898954705 279.1828793774319 L 332.9268292682927 275.2431906614786 L 334.66898954703834 273.2003891050583 L 336.411149825784 267.94747081712063 L 338.1533101045296 259.48443579766536 L 339.89547038327527 269.99027237354085 L 341.6376306620209 269.26070038910507 L 343.37979094076655 268.53112840466923 L 345.1219512195122 266.34241245136184 L 346.86411149825784 265.1750972762646 L 348.6062717770035 262.6945525291829 L 350.34843205574913 261.8190661478599 L 352.0905923344948 262.1108949416342 L 353.8327526132404 258.9007782101167 L 355.57491289198606 254.2315175097276 L 357.3170731707317 250.5836575875486 L 359.05923344947735 255.54474708171205 L 360.801393728223 253.64785992217895 L 362.54355400696863 244.01750972762642 L 364.2857142857143 248.24902723735408 L 366.0278745644599 251.60505836575874 L 367.77003484320556 238.61867704280155 L 369.5121951219512 233.80350194552528 L 371.25435540069685 235.5544747081712 L 372.9965156794425 232.1984435797665 L 374.73867595818814 231.32295719844353 L 376.4808362369338 228.69649805447472 L 378.2229965156795 224.02723735408557 L 379.96515679442507 221.1089494163424 L 381.70731707317077 221.54669260700388 L 383.44947735191636 223.44357976653697 L 385.19163763066206 225.0486381322957 L 386.93379790940764 224.61089494163423 L 388.67595818815334 227.38326848249028 L 390.41811846689893 236.86770428015564 L 392.16027874564463 229.7178988326848 L 393.9024390243902 388.4727626459144 L 395.6445993031359 232.49027237354085 L 397.3867595818815 232.34435797665367 L 399.1289198606272 231.4688715953307 L 400.8710801393728 236.1381322957198 L 402.6132404181185 237.01361867704276 L 404.3554006968641 234.38715953307388 L 406.0975609756098 235.40856031128402 L 407.8397212543554 235.99221789883268 L 409.58188153310107 227.96692607003888 L 411.3240418118467 224.90272373540853 L 413.06620209059236 226.65369649805444 L 414.808362369338 225.34046692607 L 416.55052264808364 218.19066147859922 L 418.2926829268293 207.83073929961085 L 420.03484320557493 207.10116731517508 L 421.7770034843206 203.45330739299607 L 423.5191637630662 196.30350194552528 L 425.26132404181186 195.57392996108945 L 427.0034843205575 191.9260700389105 L 428.74564459930315 196.4494163424124 L 430.4878048780488 192.36381322957197 L 432.22996515679444 188.2782101167315 L 433.9721254355401 188.71595330739297 L 435.7142857142857 177.04280155642022 L 437.45644599303137 172.8112840466926 L 439.198606271777 169.1634241245136 L 440.94076655052265 161.57587548638128 L 442.6829268292683 165.5155642023346 L 444.42508710801394 170.9143968871595 L 446.1672473867596 169.74708171206225 L 447.9094076655052 174.41634241245134 L 449.65156794425087 164.34824902723733 L 451.3937282229965 150.92412451361866 L 453.13588850174216 143.920233463035 L 454.8780487804878 132.39299610894938 L 456.62020905923345 130.64202334630346 L 458.3623693379791 133.4143968871595 L 460.10452961672473 135.01945525291825 L 461.8466898954704 131.3715953307393 L 463.588850174216 126.55642023346303 L 465.33101045296166 125.8268482490272 L 467.0731707317073 113.57003891050579 L 468.81533101045295 119.26070038910501 L 470.5574912891986 112.40272373540853 L 472.29965156794424 105.83657587548635 L 474.0418118466899 105.69066147859917 L 475.7839721254355 110.94357976653691 L 477.52613240418117 104.81517509727621 L 479.2682926829268 110.79766536964979 L 481.01045296167246 100.72957198443578 L 482.7526132404181 100 L 484.49477351916374 109.04669260700388 L 486.2369337979094 113.13229571984431 L 487.97909407665503 119.84435797665367 L 489.7212543554007 118.38521400778205 L 491.4634146341463 128.16147859922177 L 493.20557491289196 125.97276264591437 L 494.9477351916376 119.84435797665367 L 496.68989547038325 120.42801556420233 L 498.4320557491289 124.95136186770424 L 500.17421602787454 130.49610894941634 L 501.91637630662024 130.93385214007782 L 503.6585365853659 130.93385214007782 L 505.4006968641115 134.28988326848247 L 507.14285714285717 142.0233463035019 L 508.8850174216028 133.7062256809338 L 510.62717770034845 138.52140077821008 L 512.3693379790941 136.04085603112838 L 514.1114982578397 143.19066147859922 L 515.8536585365854 139.10505836575874 L 517.5958188153311 145.08754863813226 L 519.3379790940767 148.4435797665369 L 521.0801393728223 151.21595330739297 L 522.822299651568 153.40466926070036 L 524.5644599303137 157.49027237354085 L 526.3066202090592 156.9066147859922 L 528.0487804878048 153.69649805447466 L 529.7909407665505 159.24124513618676 L 531.5331010452962 166.6828793774319 L 533.2752613240418 177.91828793774317 L 535.0174216027874 188.42412451361866 L 536.7595818815331 188.71595330739297 L 538.5017421602788 211.47859922178986 L 540.2439024390244 211.04085603112838 L 541.98606271777 203.30739299610894 L 543.7282229965157 192.07198443579762 L 545.4703832752614 205.05836575875486 L 547.212543554007 206.9552529182879 L 548.9547038327526 215.56420233463035 L 550.6968641114983 211.62451361867704 L 552.439024390244 218.6284046692607 L 554.1811846689895 217.31517509727627 L 555.9233449477351 217.60700389105057 L 557.6655052264808 225.4863813229572 L 559.4076655052265 225.34046692607 L 561.1498257839721 226.65369649805444 L 562.8919860627177 227.38326848249028 L 564.6341463414634 238.61867704280155 L 566.3763066202091 231.9066147859922 L 568.1184668989547 237.15953307392994 L 569.8606271777003 249.56225680933852 L 571.602787456446 239.7859922178988 L 573.3449477351917 242.70428015564198 L 575.0871080139373 239.34824902723733 L 576.8292682926829 255.69066147859922 L 578.5714285714286 253.06420233463035 L 580.3135888501743 256.7120622568093 L 582.0557491289198 260.21400778210113 L 583.7979094076654 263.2782101167315 L 585.5400696864111 263.71595330739297 L 587.2822299651568 263.57003891050584 L 589.0243902439024 260.6517509727626 L 590.766550522648 269.1147859922179 L 592.5087108013937 273.6381322957198 L 594.2508710801394 278.7451361867704 L 595.993031358885 277.7237354085603 L 597.7351916376306 279.4747081712062 L 599.4773519163763 284.8735408560311 L 601.219512195122 286.0408560311284 L 602.9616724738676 293.4824902723735 L 604.7038327526133 299.46498054474705 L 606.445993031359 310.9922178988327 L 608.1881533101046 309.97081712062254 L 609.9303135888501 310.408560311284 L 611.6724738675958 318.4338521400778 L 613.4146341463415 326.60505836575874 L 615.1567944250871 328.647859922179 L 616.8989547038327 333.0252918287938 L 618.6411149825784 337.2568093385214 L 620.3832752613241 336.81906614785987 L 622.1254355400697 340.3210116731517 L 623.8675958188153 337.1108949416342 L 625.609756097561 343.9688715953307 L 627.3519163763067 349.5136186770428 L 629.0940766550523 354.1828793774319 L 630.8362369337979 359.43579766536965 L 632.5783972125436 354.328793774319 L 634.3205574912893 360.7490272373541 L 636.0627177700349 362.20817120622564 L 637.8048780487804 364.8346303501945 L 639.5470383275261 369.3579766536965 L 641.2891986062718 370.81712062256804 L 643.0313588850174 373.0058365758755 L 644.773519163763 380.8852140077821 L 646.5156794425087 380.30155642023345 L 648.2578397212544 383.9494163424124 L 650 386.5758754863813 L 650 400 Z" /><text  class="poloto_labels poloto_text poloto_title" alignment-baseline="start" text-anchor="middle" font-size="x-large" x="400" y="37.5" >Total players on 2021-10-05</text><text  class="poloto_labels poloto_text poloto_xname" alignment-baseline="start" text-anchor="middle" font-size="x-large" x="400" y="481.25" >Time</text><text  class="poloto_labels poloto_text poloto_yname" alignment-baseline="start" text-anchor="middle" font-size="x-large" transform="rotate(-90,37.5,250)" x="37.5" y="250" >Count</text><line  class="poloto_axis_lines" stroke="black" x1="150" x2="150" y1="400" y2="405" /><text  class="poloto_tick_labels poloto_text" alignment-baseline="start" text-anchor="middle" x="150" y="430" > 00:00</text><line  class="poloto_axis_lines" stroke="black" x1="266.14401858304296" x2="266.14401858304296" y1="400" y2="405" /><text  class="poloto_tick_labels poloto_text" alignment-baseline="start" text-anchor="middle" x="266.14401858304296" y="430" > 06:00</text><line  class="poloto_axis_lines" stroke="black" x1="382.2880371660859" x2="382.2880371660859" y1="400" y2="405" /><text  class="poloto_tick_labels poloto_text" alignment-baseline="start" text-anchor="middle" x="382.2880371660859" y="430" > 11:00</text><line  class="poloto_axis_lines" stroke="black" x1="498.4320557491289" x2="498.4320557491289" y1="400" y2="405" /><text  class="poloto_tick_labels poloto_text" alignment-baseline="start" text-anchor="middle" x="498.4320557491289" y="430" > 17:00</text><line  class="poloto_axis_lines" stroke="black" x1="614.5760743321719" x2="614.5760743321719" y1="400" y2="405" /><text  class="poloto_tick_labels poloto_text" alignment-baseline="start" text-anchor="middle" x="614.5760743321719" y="430" > 22:00</text><line  class="poloto_axis_lines" stroke="black" x1="150" x2="144" y1="331.1284046692607" y2="331.1284046692607" /><text  class="poloto_tick_labels poloto_text" alignment-baseline="middle" text-anchor="end" x="135" y="331.1284046692607" > 1500</text><line  class="poloto_axis_lines" stroke="black" x1="150" x2="144" y1="258.1712062256809" y2="258.1712062256809" /><text  class="poloto_tick_labels poloto_text" alignment-baseline="middle" text-anchor="end" x="135" y="258.1712062256809" > 2000</text><line  class="poloto_axis_lines" stroke="black" x1="150" x2="144" y1="185.21400778210113" y2="185.21400778210113" /><text  class="poloto_tick_labels poloto_text" alignment-baseline="middle" text-anchor="end" x="135" y="185.21400778210113" > 2500</text><line  class="poloto_axis_lines" stroke="black" x1="150" x2="144" y1="112.25680933852135" y2="112.25680933852135" /><text  class="poloto_tick_labels poloto_text" alignment-baseline="middle" text-anchor="end" x="135" y="112.25680933852135" > 3000</text><path  stroke="black" fill="none" class="poloto_axis_lines" style="stroke-dasharray:14.518002322880372;stroke-dashoffset:-0;" d=" M 150 400 L 650 400" /><path  stroke="black" fill="none" class="poloto_axis_lines" style="stroke-dasharray:7.295719844357977;stroke-dashoffset:-68.87159533073932;" d=" M 150 400 L 150 100" /></svg>