<svg class="poloto" width="800" height="500" viewBox="0 0 800 500" xmlns="http://www.w3.org/2000/svg"><style>.poloto { stroke-linecap:round; stroke-linejoin:round; font-family: 'Tahoma', sans-serif; background-color: AliceBlue;} .poloto_scatter{stroke-width:7} .poloto_line{stroke-width:2} .poloto_text{fill: black;} .poloto_axis_lines{stroke: black;stroke-width:3;fill:none;stroke-dasharray:none} .poloto0stroke{stroke:  blue;} .poloto1stroke{stroke:  red;} .poloto2stroke{stroke:  green;} .poloto3stroke{stroke:  gold;} .poloto4stroke{stroke:  aqua;} .poloto5stroke{stroke:  lime;} .poloto6stroke{stroke:  orange;} .poloto7stroke{stroke:  chocolate;} .poloto0fill{fill:blue;} .poloto1fill{fill:red;} .poloto2fill{fill:green;} .poloto3fill{fill:gold;} .poloto4fill{fill:aqua;} .poloto5fill{fill:lime;} .poloto6fill{fill:orange;} .poloto7fill{fill:chocolate;}</style><text  class="poloto_text poloto_legend_text" alignment-baseline="middle" text-anchor="start" font-size="large" x="675" y="100" ></text><path  class="poloto_linefill poloto0fill" d=" M 150 400 L 150 336.4963503649635 L 151.74216027874564 336.0982083609821 L 153.4843205574913 349.0378234903783 L 155.22648083623693 341.67219641672193 L 156.96864111498257 345.4545454545455 L 158.71080139372822 348.4406104844061 L 160.45296167247386 345.2554744525547 L 162.1951219512195 348.63968148639685 L 163.93728222996515 349.83410749834104 L 165.6794425087108 353.2183145321832 L 167.42160278745644 358.9913735899138 L 169.16376306620208 356.40345056403453 L 170.90592334494772 356.0053085600531 L 172.64808362369337 356.80159256801596 L 174.390243902439 361.57929661579294 L 176.13240418118465 365.7597876575979 L 177.8745644599303 369.74120769741205 L 179.61672473867597 365.56071665560717 L 181.3588850174216 376.5096217650962 L 183.10104529616726 374.7179827471798 L 184.8432055749129 384.8706038487061 L 186.58536585365854 390.64366290643665 L 188.3275261324042 381.6854678168547 L 190.06968641114983 385.4678168546782 L 191.81184668989548 383.0789648307897 L 193.55400696864112 389.05109489051097 L 195.29616724738676 386.26410086264104 L 197.0383275261324 384.47246184472465 L 198.78048780487805 392.0371599203716 L 200.5226480836237 391.041804910418 L 202.26480836236934 386.06502986065027 L 204.00696864111498 392.8334439283344 L 205.74912891986062 391.43994691439946 L 207.49128919860627 382.0836098208361 L 209.2334494773519 390.0464499004645 L 210.97560975609755 400 L 212.7177700348432 392.8334439283344 L 214.45993031358887 385.4678168546782 L 216.2020905923345 386.4631718646317 L 217.94425087108016 386.26410086264104 L 219.6864111498258 379.69475779694756 L 221.42857142857144 379.4956867949569 L 223.1707317073171 371.53284671532845 L 224.91289198606273 370.1393497013935 L 226.65505226480838 367.94956867949566 L 228.39721254355402 377.5049767750498 L 230.13937282229966 383.0789648307897 L 231.8815331010453 386.86131386861314 L 233.62369337979095 391.041804910418 L 235.3658536585366 394.8241539482416 L 237.10801393728224 394.8241539482416 L 238.85017421602788 396.0185799601858 L 240.59233449477352 395.02322495023225 L 242.33449477351917 386.6622428666225 L 244.0766550522648 383.27803583278035 L 245.81881533101046 383.0789648307897 L 247.5609756097561 377.30590577305907 L 249.30313588850174 378.699402786994 L 251.0452961672474 376.1114797611148 L 252.78745644599303 374.7179827471798 L 254.52961672473867 370.1393497013935 L 256.2717770034843 361.3802256138023 L 258.01393728222996 366.75514266755147 L 259.7560975609756 361.9774386197744 L 261.49825783972125 351.4266755142668 L 263.2404181184669 357.0006635700066 L 264.98257839721254 361.57929661579294 L 266.7247386759582 362.17650962176515 L 268.4668989547038 365.3616456536165 L 270.20905923344947 368.94492368944924 L 271.9512195121951 368.14863968148643 L 273.69337979094075 372.3291307232913 L 275.4355400696864 369.3430656934307 L 277.17770034843204 368.94492368944924 L 278.9198606271777 372.72727272727275 L 280.6620209059233 369.74120769741205 L 282.40418118466897 361.18115461181156 L 284.1463414634146 362.17650962176515 L 285.88850174216026 353.0192435301924 L 287.6306620209059 352.6211015262111 L 289.37282229965155 349.83410749834104 L 291.1149825783972 340.27869940278697 L 292.85714285714283 329.1307232913073 L 294.5993031358885 333.31121433311216 L 296.3414634146342 323.7558062375581 L 298.08362369337976 325.5474452554745 L 299.82578397212546 324.9502322495024 L 301.56794425087105 322.16323822163235 L 303.31010452961675 317.98274717982747 L 305.05226480836234 314.9966821499669 L 306.79442508710804 316.5892501658925 L 308.5365853658536 314.200398142004 L 310.2787456445993 311.4134041141341 L 312.0209059233449 315.3948241539482 L 313.7630662020906 309.0245520902455 L 315.5052264808362 305.4412740544127 L 317.2473867595819 304.8440610484406 L 318.9895470383275 295.88586595885863 L 320.7317073170732 285.9323158593231 L 322.4738675958188 280.9555408095554 L 324.2160278745645 287.52488387524886 L 325.95818815331006 286.33045786330456 L 327.70034843205576 290.7100199071002 L 329.44250871080135 288.32116788321173 L 331.18466898954705 293.2979429329795 L 332.92682926829264 288.9183808891838 L 334.66898954703834 288.32116788321173 L 336.4111498257839 287.1267418712674 L 338.1533101045296 283.7425348374254 L 339.8954703832752 286.728599867286 L 341.6376306620209 284.9369608493696 L 343.3797909407665 275.3815527538155 L 345.1219512195122 269.0112806901128 L 346.86411149825784 267.4187126741872 L 348.6062717770035 265.0298606502986 L 350.34843205574913 264.63171864631715 L 352.0905923344948 258.26144658261444 L 353.8327526132404 257.863304578633 L 355.57491289198606 256.46980756469804 L 357.3170731707317 253.085600530856 L 359.05923344947735 254.8772395487724 L 360.801393728223 254.47909754479102 L 362.54355400696863 250.09953550099536 L 364.2857142857143 241.93762441937625 L 366.0278745644599 238.1552753815528 L 367.77003484320556 244.3264764432648 L 369.5121951219512 246.51625746516257 L 371.25435540069685 243.3311214333112 L 372.9965156794425 249.70139349701392 L 374.73867595818814 244.5255474452555 L 376.4808362369338 235.36828135368282 L 378.2229965156794 235.56735235567353 L 379.96515679442507 236.9608493696085 L 381.7073170731707 241.73855341738553 L 383.44947735191636 236.76177836761778 L 385.191637630662 237.1599203715992 L 386.93379790940764 228.40079628400795 L 388.6759581881533 223.62309223623092 L 390.41811846689893 215.4611811546118 L 392.1602787456446 209.48905109489053 L 393.9024390243902 206.7020570670206 L 395.6445993031359 209.48905109489053 L 397.3867595818815 205.10948905109493 L 399.1289198606272 210.08626410086268 L 400.8710801393728 200.13271400132717 L 402.6132404181185 202.12342402123429 L 404.3554006968641 202.12342402123429 L 406.0975609756097 187.19309887193103 L 407.83972125435537 193.1652289316523 L 409.581881533101 185.99867285998673 L 411.32404181184666 188.586595885866 L 413.0662020905923 181.2209688122097 L 414.80836236933794 170.47113470471137 L 416.5505226480836 177.43861977438624 L 418.29268292682923 180.02654280026545 L 420.0348432055749 170.27206370272066 L 421.7770034843206 168.28135368281355 L 423.5191637630662 169.87392169873922 L 425.26132404181186 172.26277372262777 L 427.0034843205575 172.4618447246185 L 428.74564459930315 161.71201061712011 L 430.4878048780488 155.3417385534174 L 432.22996515679444 148.77239548772397 L 433.9721254355401 149.56867949568684 L 435.7142857142857 148.9714664897147 L 437.45644599303137 149.9668214996682 L 439.198606271777 147.1798274717983 L 440.94076655052265 145.5872594558726 L 442.6829268292683 134.43928334439283 L 444.42508710801394 136.62906436629066 L 446.1672473867596 138.8188453881885 L 447.9094076655052 132.249502322495 L 449.65156794425087 131.85136031851357 L 451.3937282229965 130.0597213005973 L 453.13588850174216 134.83742534837427 L 454.8780487804878 124.48573324485733 L 456.62020905923345 129.46250829462508 L 458.3623693379791 126.27737226277372 L 460.10452961672473 122.89316522893171 L 461.8466898954704 125.48108825481086 L 463.588850174216 128.46715328467155 L 465.33101045296166 129.66157929661586 L 467.0731707317073 133.4439283344393 L 468.81533101045295 132.8467153284672 L 470.5574912891986 129.86065029860652 L 472.29965156794424 123.88852023888523 L 474.0418118466899 114.93032514930326 L 475.7839721254355 108.56005308560054 L 477.52613240418117 114.93032514930326 L 479.2682926829268 110.94890510948903 L 481.01045296167246 110.35169210351694 L 482.7526132404181 102.58792302587926 L 484.49477351916374 100 L 486.2369337979094 105.37491705374919 L 487.97909407665503 108.16191108161911 L 489.7212543554007 112.14333112143333 L 491.4634146341463 118.11546118115461 L 493.20557491289196 118.91174518911748 L 494.9477351916376 113.33775713337764 L 496.68989547038325 101.1944260119443 L 498.4320557491289 114.53218314532182 L 500.17421602787454 113.73589913735907 L 501.9163763066202 117.71731917717318 L 503.6585365853658 115.92568015925679 L 505.40069686411147 114.93032514930326 L 507.1428571428571 125.08294625082954 L 508.88501742160275 125.2820172528202 L 510.6271777003484 126.67551426675516 L 512.3693379790941 129.26343729263442 L 514.1114982578397 136.82813536828132 L 515.8536585365853 142.60119442601194 L 517.595818815331 155.54080955540812 L 519.3379790940767 159.52222959522234 L 521.0801393728223 153.94824153948244 L 522.822299651568 154.34638354346387 L 524.5644599303137 153.74917053749172 L 526.3066202090592 164.4990046449901 L 528.0487804878048 161.71201061712011 L 529.7909407665505 177.6376907763769 L 531.5331010452962 169.87392169873922 L 533.2752613240418 178.43397478433977 L 535.0174216027874 185.60053085600535 L 536.7595818815331 196.94757796947582 L 538.5017421602788 193.96151293961518 L 540.2439024390244 200.53085600530855 L 541.98606271777 204.51227604512277 L 543.7282229965157 206.90112806901132 L 545.4703832752614 208.29462508294628 L 547.212543554007 207.89648307896485 L 548.9547038327526 205.90577305905774 L 550.6968641114983 209.68812209688124 L 552.439024390244 216.05839416058396 L 554.1811846689895 216.6556071665561 L 555.9233449477351 219.44260119442603 L 557.6655052264808 227.007299270073 L 559.4076655052265 240.5441274054413 L 561.1498257839721 238.35434638354346 L 562.8919860627177 232.38221632382218 L 564.6341463414634 230.98871930988722 L 566.3763066202091 231.58593231585937 L 568.1184668989547 229.39615129396154 L 569.8606271777003 228.00265428002658 L 571.602787456446 238.7524883875249 L 573.3449477351917 236.56270736562706 L 575.0871080139373 241.93762441937625 L 576.8292682926829 242.13669542136697 L 578.5714285714286 247.51161247511615 L 580.3135888501743 259.0577305905773 L 582.0557491289198 259.6549435965494 L 583.7979094076654 256.2707365627074 L 585.5400696864111 261.64565361645657 L 587.2822299651568 263.8354346383544 L 589.0243902439024 263.2382216323822 L 590.766550522648 259.6549435965494 L 592.5087108013937 256.46980756469804 L 594.2508710801394 259.0577305905773 L 595.993031358885 261.84472461844723 L 597.7351916376306 255.0763105507631 L 599.4773519163763 258.85865958858665 L 601.219512195122 264.23357664233583 L 602.9616724738676 267.4187126741872 L 604.7038327526132 270.00663570006634 L 606.4459930313589 259.6549435965494 L 608.1881533101046 258.6595885865959 L 609.9303135888501 270.60384870603855 L 611.6724738675957 271.00199071001987 L 613.4146341463414 282.34903782349045 L 615.1567944250871 287.3258128732581 L 616.8989547038327 297.47843397478437 L 618.6411149825783 303.6496350364964 L 620.383275261324 308.02919708029196 L 622.1254355400697 308.82548108825483 L 623.8675958188153 316.5892501658925 L 625.609756097561 318.3808891838089 L 627.3519163763067 314.3994691439947 L 629.0940766550523 313.40411413404115 L 630.8362369337979 316.39017916390185 L 632.5783972125436 306.0384870603849 L 634.3205574912893 313.2050431320505 L 636.0627177700349 313.8022561380226 L 637.8048780487804 312.4087591240876 L 639.5470383275261 320.37159920371596 L 641.2891986062718 321.56602521566026 L 643.0313588850174 327.53815527538154 L 644.773519163763 325.9455872594559 L 646.5156794425087 329.1307232913073 L 648.2578397212544 328.3344392833444 L 650 329.32979429329794 L 650 400 Z" /><text  class="poloto_labels poloto_text poloto_title" alignment-baseline="start" text-anchor="middle" font-size="x-large" x="400" y="37.5" >Total players on 2021-06-26</text><text  class="poloto_labels poloto_text poloto_xname" alignment-baseline="start" text-anchor="middle" font-size="x-large" x="400" y="481.25" >Time</text><text  class="poloto_labels poloto_text poloto_yname" alignment-baseline="start" text-anchor="middle" font-size="x-large" transform="rotate(-90,37.5,250)" x="37.5" y="250" >Count</text><line  class="poloto_axis_lines" stroke="black" x1="208.0487804878049" x2="208.0487804878049" y1="400" y2="405" /><text  class="poloto_tick_labels poloto_text" alignment-baseline="start" text-anchor="middle" x="208.0487804878049" y="430" > 03:00</text><line  class="poloto_axis_lines" stroke="black" x1="266.1207897793264" x2="266.1207897793264" y1="400" y2="405" /><text  class="poloto_tick_labels poloto_text" alignment-baseline="start" text-anchor="middle" x="266.1207897793264" y="430" > 06:00</text><line  class="poloto_axis_lines" stroke="black" x1="324.19279907084785" x2="324.19279907084785" y1="400" y2="405" /><text  class="poloto_tick_labels poloto_text" alignment-baseline="start" text-anchor="middle" x="324.19279907084785" y="430" > 08:00</text><line  class="poloto_axis_lines" stroke="black" x1="382.2648083623693" x2="382.2648083623693" y1="400" y2="405" /><text  class="poloto_tick_labels poloto_text" alignment-baseline="start" text-anchor="middle" x="382.2648083623693" y="430" > 11:00</text><line  class="poloto_axis_lines" stroke="black" x1="440.3368176538908" x2="440.3368176538908" y1="400" y2="405" /><text  class="poloto_tick_labels poloto_text" alignment-baseline="start" text-anchor="middle" x="440.3368176538908" y="430" > 14:00</text><line  class="poloto_axis_lines" stroke="black" x1="498.4088269454123" x2="498.4088269454123" y1="400" y2="405" /><text  class="poloto_tick_labels poloto_text" alignment-baseline="start" text-anchor="middle" x="498.4088269454123" y="430" > 17:00</text><line  class="poloto_axis_lines" stroke="black" x1="556.4808362369338" x2="556.4808362369338" y1="400" y2="405" /><text  class="poloto_tick_labels poloto_text" alignment-baseline="start" text-anchor="middle" x="556.4808362369338" y="430" > 19:00</text><line  class="poloto_axis_lines" stroke="black" x1="614.5528455284552" x2="614.5528455284552" y1="400" y2="405" /><text  class="poloto_tick_labels poloto_text" alignment-baseline="start" text-anchor="middle" x="614.5528455284552" y="430" > 22:00</text><line  class="poloto_axis_lines" stroke="black" x1="150" x2="144" y1="376.708692767087" y2="376.708692767087" /><text  class="poloto_tick_labels poloto_text" alignment-baseline="middle" text-anchor="end" x="135" y="376.708692767087" > 1200</text><line  class="poloto_axis_lines" stroke="black" x1="150" x2="144" y1="336.89449236894495" y2="336.89449236894495" /><text  class="poloto_tick_labels poloto_text" alignment-baseline="middle" text-anchor="end" x="135" y="336.89449236894495" > 1400</text><line  class="poloto_axis_lines" stroke="black" x1="150" x2="144" y1="297.08029197080293" y2="297.08029197080293" /><text  class="poloto_tick_labels poloto_text" alignment-baseline="middle" text-anchor="end" x="135" y="297.08029197080293" > 1600</text><line  class="poloto_axis_lines" stroke="black" x1="150" x2="144" y1="257.2660915726609" y2="257.2660915726609" /><text  class="poloto_tick_labels poloto_text" alignment-baseline="middle" text-anchor="end" x="135" y="257.2660915726609" > 1800</text><line  class="poloto_axis_lines" stroke="black" x1="150" x2="144" y1="217.4518911745189" y2="217.4518911745189" /><text  class="poloto_tick_labels poloto_text" alignment-baseline="middle" text-anchor="end" x="135" y="217.4518911745189" > 2000</text><line  class="poloto_axis_lines" stroke="black" x1="150" x2="144" y1="177.63769077637687" y2="177.63769077637687" /><text  class="poloto_tick_labels poloto_text" alignment-baseline="middle" text-anchor="end" x="135" y="177.63769077637687" > 2200</text><line  class="poloto_axis_lines" stroke="black" x1="150" x2="144" y1="137.82349037823496" y2="137.82349037823496" /><text  class="poloto_tick_labels poloto_text" alignment-baseline="middle" text-anchor="end" x="135" y="137.82349037823496" > 2400</text><path  stroke="black" fill="none" class="poloto_axis_lines" style="stroke-dasharray:14.518002322880372;stroke-dashoffset:-58.04878048780488;" d=" M 150 400 L 650 400" /><path  stroke="black" fill="none" class="poloto_axis_lines" style="stroke-dasharray:9.9535500995355;stroke-dashoffset:-23.291307232913056;" d=" M 150 400 L 150 100" /></svg>