<svg class="poloto" width="800" height="500" viewBox="0 0 800 500" xmlns="http://www.w3.org/2000/svg"><style>.poloto { stroke-linecap:round; stroke-linejoin:round; font-family: 'Tahoma', sans-serif; background-color: AliceBlue;} .poloto_scatter{stroke-width:7} .poloto_line{stroke-width:2} .poloto_text{fill: black;} .poloto_axis_lines{stroke: black;stroke-width:3;fill:none;stroke-dasharray:none} .poloto0stroke{stroke:  blue;} .poloto1stroke{stroke:  red;} .poloto2stroke{stroke:  green;} .poloto3stroke{stroke:  gold;} .poloto4stroke{stroke:  aqua;} .poloto5stroke{stroke:  lime;} .poloto6stroke{stroke:  orange;} .poloto7stroke{stroke:  chocolate;} .poloto0fill{fill:blue;} .poloto1fill{fill:red;} .poloto2fill{fill:green;} .poloto3fill{fill:gold;} .poloto4fill{fill:aqua;} .poloto5fill{fill:lime;} .poloto6fill{fill:orange;} .poloto7fill{fill:chocolate;}</style><text  class="poloto_text poloto_legend_text" alignment-baseline="middle" text-anchor="start" font-size="large" x="675" y="100" ></text><path  class="poloto_linefill poloto0fill" d=" M 150 400 L 150 322.8122662677637 L 151.74216027874564 323.9341810022438 L 153.4843205574913 321.4659685863875 L 155.22648083623693 325.5048616305161 L 156.96864111498257 327.2999252056843 L 158.71080139372822 331.338818249813 L 160.45296167247386 340.3141361256544 L 162.1951219512195 336.2752430815258 L 163.93728222996515 339.19222139117426 L 165.6794425087108 340.7629020194465 L 167.42160278745644 341.4360508601346 L 169.16376306620208 336.9483919222139 L 170.90592334494772 335.15332834704566 L 172.64808362369337 339.6409872849663 L 174.390243902439 349.96260284218397 L 176.13240418118465 363.8743455497382 L 177.8745644599303 362.30366492146595 L 179.61672473867597 362.528047868362 L 181.3588850174216 367.01570680628276 L 183.10104529616726 369.70830216903516 L 184.8432055749129 375.31787584143603 L 186.58536585365854 380.4786836200449 L 188.3275261324042 379.8055347793568 L 190.06968641114983 379.8055347793568 L 191.81184668989548 380.70306656694095 L 193.55400696864112 379.8055347793568 L 195.29616724738676 376.8885564697083 L 197.0383275261324 374.869109947644 L 198.78048780487805 375.5422587883321 L 200.5226480836237 384.9663425579656 L 202.26480836236934 387.21017202692593 L 204.00696864111498 393.49289454001496 L 205.74912891986062 400 L 207.49128919860627 398.42931937172773 L 209.2334494773519 398.42931937172773 L 210.97560975609755 397.9805534779357 L 212.7177700348432 395.51234106207926 L 214.45993031358887 388.5564697083022 L 216.2020905923345 388.3320867614061 L 217.94425087108016 386.76140613313385 L 219.6864111498258 384.9663425579656 L 221.42857142857144 386.76140613313385 L 223.1707317073171 388.5564697083022 L 224.91289198606273 387.8833208676141 L 226.65505226480838 382.9468960359012 L 228.39721254355402 384.2931937172775 L 230.13937282229966 378.2348541510845 L 231.8815331010453 376.66417352281223 L 233.62369337979095 380.70306656694095 L 235.3658536585366 375.76664173522806 L 237.10801393728224 373.5228122662678 L 238.85017421602788 369.9326851159311 L 240.59233449477352 369.70830216903516 L 242.33449477351917 357.59162303664925 L 244.0766550522648 362.0792819745699 L 245.81881533101046 362.528047868362 L 247.5609756097561 364.32311144353025 L 249.30313588850174 359.3866866118175 L 251.0452961672474 351.53328347045624 L 252.78745644599303 354.22587883320864 L 254.52961672473867 352.20643231114434 L 256.2717770034843 355.1234106207928 L 258.01393728222996 353.7771129394166 L 259.7560975609756 356.6940912490651 L 261.49825783972125 347.27000747943157 L 263.2404181184669 346.8212415856394 L 264.98257839721254 345.4749439042632 L 266.7247386759582 350.86013462976814 L 268.4668989547038 349.96260284218397 L 270.20905923344947 351.98204936424827 L 271.9512195121951 346.59685863874347 L 273.69337979094075 340.9872849663426 L 275.4355400696864 334.48017950635756 L 277.17770034843204 339.86537023186236 L 278.9198606271777 339.19222139117426 L 280.6620209059233 337.17277486910996 L 282.40418118466897 331.338818249813 L 284.1463414634146 333.80703066566934 L 285.88850174216026 329.9925205684368 L 287.6306620209059 332.6851159311892 L 289.37282229965155 325.5048616305161 L 291.1149825783972 314.5100972326103 L 292.85714285714283 316.30516080777863 L 294.5993031358885 312.939416604338 L 296.3414634146342 305.0860134629768 L 298.08362369337976 310.2468212415856 L 299.82578397212546 304.1884816753926 L 301.56794425087105 298.35452505609567 L 303.31010452961675 292.29618548990277 L 305.05226480836234 292.0718025430067 L 306.79442508710804 280.4038893044128 L 308.5365853658536 281.0770381451009 L 310.2787456445993 275.018698578908 L 312.0209059233449 268.511593118923 L 313.7630662020906 261.10695587135376 L 315.5052264808362 248.7658937920718 L 317.2473867595819 255.04861630516078 L 318.9895470383275 248.54151084517574 L 320.7317073170732 245.17576664173524 L 322.4738675958188 241.13687359760658 L 324.2160278745645 235.75168287210172 L 325.95818815331006 228.57142857142853 L 327.70034843205576 222.06432311144349 L 329.44250871080135 224.75691847419594 L 331.18466898954705 225.87883320867613 L 332.92682926829264 228.1226626776365 L 334.66898954703834 227.89827973074043 L 336.4111498257839 235.30291697830964 L 338.1533101045296 228.3470456245325 L 339.8954703832752 230.1421091997008 L 341.6376306620209 226.55198204936423 L 343.3797909407665 220.71802543006729 L 345.1219512195122 220.94240837696336 L 346.86411149825784 215.55721765145844 L 348.6062717770035 213.98653702318623 L 350.34843205574913 211.74270755422586 L 352.0905923344948 207.0306656694091 L 353.8327526132404 204.78683620044873 L 355.57491289198606 204.11368735976063 L 357.3170731707317 207.25504861630512 L 359.05923344947735 207.0306656694091 L 360.801393728223 211.06955871353776 L 362.54355400696863 200.29917726252805 L 364.2857142857143 201.19670905011216 L 366.0278745644599 202.76738967838443 L 367.77003484320556 203.21615557217652 L 369.5121951219512 205.45998504113683 L 371.25435540069685 207.0306656694091 L 372.9965156794425 199.17726252804786 L 374.73867595818814 209.72326103216156 L 376.4808362369338 202.09424083769633 L 378.2229965156794 195.8115183246073 L 379.96515679442507 186.6118175018698 L 381.7073170731707 186.3874345549738 L 383.44947735191636 191.32385938668656 L 385.191637630662 186.6118175018698 L 386.93379790940764 185.7142857142857 L 388.6759581881533 176.96335078534028 L 390.41811846689893 180.32909498878084 L 392.1602787456446 173.59760658189973 L 393.9024390243902 171.3537771129394 L 395.6445993031359 176.96335078534028 L 397.3867595818815 178.30964846671648 L 399.1289198606272 174.0463724756918 L 400.8710801393728 171.80254300673144 L 402.6132404181185 167.76364996260284 L 404.3554006968641 163.5003739715781 L 406.0975609756097 162.37845923709799 L 407.83972125435537 167.09050112191468 L 409.581881533101 165.51982049364247 L 411.32404181184666 167.76364996260284 L 413.0662020905923 161.9296933433059 L 414.80836236933794 167.31488406881076 L 416.5505226480836 163.2759910246821 L 418.29268292682923 163.72475691847418 L 420.0348432055749 167.98803290949886 L 421.7770034843206 159.01271503365743 L 423.5191637630662 158.56394913986534 L 425.26132404181186 153.62752430815257 L 427.0034843205575 144.42782348541508 L 428.74564459930315 145.32535527299925 L 430.4878048780488 135.00373971578153 L 432.22996515679444 140.83769633507848 L 433.9721254355401 136.79880329094988 L 435.7142857142857 130.96484667165294 L 437.45644599303137 124.00897531787575 L 439.198606271777 117.27748691099475 L 440.94076655052265 114.80927449513831 L 442.6829268292683 113.68735976065818 L 444.42508710801394 107.4046372475691 L 446.1672473867596 114.80927449513831 L 447.9094076655052 105.16080777860873 L 449.65156794425087 107.85340314136124 L 451.3937282229965 106.731488406881 L 453.13588850174216 105.60957367240087 L 454.8780487804878 109.19970082273744 L 456.62020905923345 116.15557217651451 L 458.3623693379791 123.33582647718765 L 460.10452961672473 121.09199700822728 L 461.8466898954704 117.50186985789071 L 463.588850174216 120.41884816753918 L 465.33101045296166 119.52131637995512 L 467.0731707317073 120.19446522064322 L 468.81533101045295 106.731488406881 L 470.5574912891986 105.3851907255048 L 472.29965156794424 115.25804038893034 L 474.0418118466899 112.78982797307401 L 475.7839721254355 114.36050860134628 L 477.52613240418117 108.52655198204934 L 479.2682926829268 102.91697830964836 L 481.01045296167246 110.09723261032161 L 482.7526132404181 110.54599850411364 L 484.49477351916374 110.99476439790567 L 486.2369337979094 105.16080777860873 L 487.97909407665503 100 L 489.7212543554007 110.77038145100971 L 491.4634146341463 107.85340314136124 L 493.20557491289196 106.95587135377707 L 494.9477351916376 107.85340314136124 L 496.68989547038325 107.18025430067314 L 498.4320557491289 102.91697830964836 L 500.17421602787454 114.58489154824224 L 501.9163763066202 116.37995512341058 L 503.6585365853658 120.41884816753918 L 505.40069686411147 134.5549738219895 L 507.1428571428571 141.95961106955872 L 508.88501742160275 135.9012715033657 L 510.6271777003484 139.94016454749442 L 512.3693379790941 145.32535527299925 L 514.1114982578397 156.32011967090497 L 515.8536585365853 157.21765145848914 L 517.595818815331 160.13462976813761 L 519.3379790940767 158.11518324607326 L 521.0801393728223 161.9296933433059 L 522.822299651568 159.68586387434553 L 524.5644599303137 163.9491398653702 L 526.3066202090592 169.33433059087506 L 528.0487804878048 173.3732236350037 L 529.7909407665505 169.78309648466714 L 531.5331010452962 172.4756918474196 L 533.2752613240418 180.55347793567685 L 535.0174216027874 191.99700822737472 L 536.7595818815331 189.52879581151828 L 538.5017421602788 194.68960359012712 L 540.2439024390244 199.85041136873596 L 541.98606271777 201.19670905011216 L 543.7282229965157 208.1525804038893 L 545.4703832752614 209.94764397905757 L 547.212543554007 211.06955871353776 L 548.9547038327526 208.60134629768137 L 550.6968641114983 213.76215407629016 L 552.439024390244 221.39117427075539 L 554.1811846689895 217.35228122662673 L 555.9233449477351 220.49364248317127 L 557.6655052264808 218.2498130142109 L 559.4076655052265 215.78160059835452 L 561.1498257839721 214.65968586387433 L 562.8919860627177 217.5766641735228 L 564.6341463414634 231.93717277486908 L 566.3763066202091 233.95661929693344 L 568.1184668989547 230.59087509349288 L 569.8606271777003 231.488406881077 L 571.602787456446 229.4689603590127 L 573.3449477351917 228.7958115183246 L 575.0871080139373 223.18623784592367 L 576.8292682926829 223.85938668661177 L 578.5714285714286 217.35228122662673 L 580.3135888501743 224.75691847419594 L 582.0557491289198 225.65445026178006 L 583.7979094076654 234.40538519072547 L 585.5400696864111 234.85415108451755 L 587.2822299651568 231.71278982797307 L 589.0243902439024 238.8930441286462 L 590.766550522648 242.93193717277487 L 592.5087108013937 246.97083021690352 L 594.2508710801394 254.15108451757666 L 595.993031358885 259.5362752430815 L 597.7351916376306 253.70231862378458 L 599.4773519163763 253.9267015706806 L 601.219512195122 252.8047868362004 L 602.9616724738676 248.54151084517574 L 604.7038327526132 253.47793567688856 L 606.4459930313589 244.05385190725505 L 608.1881533101046 244.50261780104708 L 609.9303135888501 254.37546746447268 L 611.6724738675957 254.37546746447268 L 613.4146341463414 266.71652954375463 L 615.1567944250871 270.5310396409873 L 616.8989547038327 268.73597606581893 L 618.6411149825783 272.10172026925954 L 620.383275261324 270.9798055347793 L 622.1254355400697 272.10172026925954 L 623.8675958188153 275.018698578908 L 625.609756097561 286.4622288706058 L 627.3519163763067 288.4816753926701 L 629.0940766550523 291.8474195961106 L 630.8362369337979 304.63724756918475 L 632.5783972125436 302.3934181002244 L 634.3205574912893 303.5153328347045 L 636.0627177700349 308.4517576664173 L 637.8048780487804 312.2662677636499 L 639.5470383275261 316.5295437546746 L 641.2891986062718 323.03664921465963 L 643.0313588850174 329.9925205684368 L 644.773519163763 326.40239341810025 L 646.5156794425087 329.3193717277487 L 648.2578397212544 329.9925205684368 L 650 334.0314136125654 L 650 400 Z" /><text  class="poloto_labels poloto_text poloto_title" alignment-baseline="start" text-anchor="middle" font-size="x-large" x="400" y="37.5" >Total players on 2021-06-27</text><text  class="poloto_labels poloto_text poloto_xname" alignment-baseline="start" text-anchor="middle" font-size="x-large" x="400" y="481.25" >Time</text><text  class="poloto_labels poloto_text poloto_yname" alignment-baseline="start" text-anchor="middle" font-size="x-large" transform="rotate(-90,37.5,250)" x="37.5" y="250" >Count</text><line  class="poloto_axis_lines" stroke="black" x1="208.0487804878049" x2="208.0487804878049" y1="400" y2="405" /><text  class="poloto_tick_labels poloto_text" alignment-baseline="start" text-anchor="middle" x="208.0487804878049" y="430" > 03:00</text><line  class="poloto_axis_lines" stroke="black" x1="266.1207897793264" x2="266.1207897793264" y1="400" y2="405" /><text  class="poloto_tick_labels poloto_text" alignment-baseline="start" text-anchor="middle" x="266.1207897793264" y="430" > 06:00</text><line  class="poloto_axis_lines" stroke="black" x1="324.19279907084785" x2="324.19279907084785" y1="400" y2="405" /><text  class="poloto_tick_labels poloto_text" alignment-baseline="start" text-anchor="middle" x="324.19279907084785" y="430" > 08:00</text><line  class="poloto_axis_lines" stroke="black" x1="382.2648083623693" x2="382.2648083623693" y1="400" y2="405" /><text  class="poloto_tick_labels poloto_text" alignment-baseline="start" text-anchor="middle" x="382.2648083623693" y="430" > 11:00</text><line  class="poloto_axis_lines" stroke="black" x1="440.3368176538908" x2="440.3368176538908" y1="400" y2="405" /><text  class="poloto_tick_labels poloto_text" alignment-baseline="start" text-anchor="middle" x="440.3368176538908" y="430" > 14:00</text><line  class="poloto_axis_lines" stroke="black" x1="498.4088269454123" x2="498.4088269454123" y1="400" y2="405" /><text  class="poloto_tick_labels poloto_text" alignment-baseline="start" text-anchor="middle" x="498.4088269454123" y="430" > 17:00</text><line  class="poloto_axis_lines" stroke="black" x1="556.4808362369338" x2="556.4808362369338" y1="400" y2="405" /><text  class="poloto_tick_labels poloto_text" alignment-baseline="start" text-anchor="middle" x="556.4808362369338" y="430" > 19:00</text><line  class="poloto_axis_lines" stroke="black" x1="614.5528455284552" x2="614.5528455284552" y1="400" y2="405" /><text  class="poloto_tick_labels poloto_text" alignment-baseline="start" text-anchor="middle" x="614.5528455284552" y="430" > 22:00</text><line  class="poloto_axis_lines" stroke="black" x1="150" x2="144" y1="371.27898279730744" y2="371.27898279730744" /><text  class="poloto_tick_labels poloto_text" alignment-baseline="middle" text-anchor="end" x="135" y="371.27898279730744" > 1200</text><line  class="poloto_axis_lines" stroke="black" x1="150" x2="144" y1="326.40239341810025" y2="326.40239341810025" /><text  class="poloto_tick_labels poloto_text" alignment-baseline="middle" text-anchor="end" x="135" y="326.40239341810025" > 1400</text><line  class="poloto_axis_lines" stroke="black" x1="150" x2="144" y1="281.52580403889306" y2="281.52580403889306" /><text  class="poloto_tick_labels poloto_text" alignment-baseline="middle" text-anchor="end" x="135" y="281.52580403889306" > 1600</text><line  class="poloto_axis_lines" stroke="black" x1="150" x2="144" y1="236.64921465968587" y2="236.64921465968587" /><text  class="poloto_tick_labels poloto_text" alignment-baseline="middle" text-anchor="end" x="135" y="236.64921465968587" > 1800</text><line  class="poloto_axis_lines" stroke="black" x1="150" x2="144" y1="191.77262528047868" y2="191.77262528047868" /><text  class="poloto_tick_labels poloto_text" alignment-baseline="middle" text-anchor="end" x="135" y="191.77262528047868" > 2000</text><line  class="poloto_axis_lines" stroke="black" x1="150" x2="144" y1="146.89603590127146" y2="146.89603590127146" /><text  class="poloto_tick_labels poloto_text" alignment-baseline="middle" text-anchor="end" x="135" y="146.89603590127146" > 2200</text><line  class="poloto_axis_lines" stroke="black" x1="150" x2="144" y1="102.0194465220643" y2="102.0194465220643" /><text  class="poloto_tick_labels poloto_text" alignment-baseline="middle" text-anchor="end" x="135" y="102.0194465220643" > 2400</text><path  stroke="black" fill="none" class="poloto_axis_lines" style="stroke-dasharray:14.518002322880372;stroke-dashoffset:-58.04878048780488;" d=" M 150 400 L 650 400" /><path  stroke="black" fill="none" class="poloto_axis_lines" style="stroke-dasharray:11.219147344801796;stroke-dashoffset:-28.721017202692593;" d=" M 150 400 L 150 100" /></svg>