<svg class="poloto" width="800" height="500" viewBox="0 0 800 500" xmlns="http://www.w3.org/2000/svg"><style>.poloto { stroke-linecap:round; stroke-linejoin:round; font-family: 'Tahoma', sans-serif; background-color: AliceBlue;} .poloto_scatter{stroke-width:7} .poloto_line{stroke-width:2} .poloto_text{fill: black;} .poloto_axis_lines{stroke: black;stroke-width:3;fill:none;stroke-dasharray:none} .poloto0stroke{stroke:  blue;} .poloto1stroke{stroke:  red;} .poloto2stroke{stroke:  green;} .poloto3stroke{stroke:  gold;} .poloto4stroke{stroke:  aqua;} .poloto5stroke{stroke:  lime;} .poloto6stroke{stroke:  orange;} .poloto7stroke{stroke:  chocolate;} .poloto0fill{fill:blue;} .poloto1fill{fill:red;} .poloto2fill{fill:green;} .poloto3fill{fill:gold;} .poloto4fill{fill:aqua;} .poloto5fill{fill:lime;} .poloto6fill{fill:orange;} .poloto7fill{fill:chocolate;}</style><text  class="poloto_text poloto_legend_text" alignment-baseline="middle" text-anchor="start" font-size="large" x="675" y="100" ></text><path  class="poloto_linefill poloto0fill" d=" M 150 400 L 150 342.4334140435835 L 151.74216027874564 346.42857142857144 L 153.4843205574913 344.24939467312345 L 155.22648083623693 347.6997578692494 L 156.96864111498257 354.4188861985472 L 158.71080139372822 360.23002421307507 L 160.45296167247386 364.4067796610169 L 162.1951219512195 365.31476997578693 L 163.93728222996515 369.49152542372883 L 165.6794425087108 377.4818401937046 L 167.42160278745644 381.1138014527845 L 169.16376306620208 383.47457627118644 L 170.90592334494772 382.3849878934625 L 172.64808362369337 383.29297820823246 L 174.390243902439 385.2905569007264 L 176.13240418118465 388.01452784503635 L 177.8745644599303 387.65133171912834 L 179.61672473867597 390.3753026634382 L 181.3588850174216 387.65133171912834 L 183.10104529616726 389.2857142857143 L 184.8432055749129 387.2881355932203 L 186.58536585365854 385.4721549636804 L 188.3275261324042 384.7457627118644 L 190.06968641114983 384.9273607748184 L 191.81184668989548 389.6489104116223 L 193.55400696864112 389.6489104116223 L 195.29616724738676 384.3825665859564 L 197.0383275261324 385.4721549636804 L 198.78048780487805 384.3825665859564 L 200.5226480836237 384.2009685230024 L 202.26480836236934 380.38740920096853 L 204.00696864111498 378.0266343825666 L 205.74912891986062 375.8474576271186 L 207.49128919860627 377.6634382566586 L 209.2334494773519 373.66828087167073 L 210.97560975609755 368.40193704600483 L 212.7177700348432 370.9443099273608 L 214.45993031358887 374.0314769975787 L 216.2020905923345 369.30992736077485 L 217.94425087108016 372.21549636803877 L 219.6864111498258 375.1210653753027 L 221.42857142857144 378.0266343825666 L 223.1707317073171 372.57869249394673 L 224.91289198606273 375.1210653753027 L 226.65505226480838 380.5690072639225 L 228.39721254355402 378.9346246973366 L 230.13937282229966 378.3898305084746 L 231.8815331010453 384.2009685230024 L 233.62369337979095 386.38014527845036 L 235.3658536585366 386.5617433414044 L 237.10801393728224 390.19370460048424 L 238.85017421602788 386.01694915254234 L 240.59233449477352 385.2905569007264 L 242.33449477351917 378.0266343825666 L 244.0766550522648 378.3898305084746 L 245.81881533101046 381.1138014527845 L 247.5609756097561 384.01937046004844 L 249.30313588850174 385.83535108958836 L 251.0452961672474 384.5641646489104 L 252.78745644599303 384.7457627118644 L 254.52961672473867 382.74818401937046 L 256.2717770034843 394.18886198547216 L 258.01393728222996 396.3680387409201 L 259.7560975609756 400 L 261.49825783972125 397.0944309927361 L 263.2404181184669 396.0048426150121 L 264.98257839721254 391.10169491525426 L 266.7247386759582 388.01452784503635 L 268.4668989547038 383.83777239709445 L 270.20905923344947 376.75544794188863 L 271.9512195121951 379.84261501210653 L 273.69337979094075 383.47457627118644 L 275.4355400696864 384.3825665859564 L 277.17770034843204 383.1113801452784 L 278.9198606271777 386.1985472154964 L 280.6620209059233 383.1113801452784 L 282.40418118466897 383.1113801452784 L 284.1463414634146 377.4818401937046 L 285.88850174216026 367.49394673123487 L 287.6306620209059 368.7651331719128 L 289.37282229965155 367.13075060532685 L 291.1149825783972 363.31719128329297 L 292.85714285714283 364.76997578692493 L 294.5993031358885 352.96610169491527 L 296.3414634146342 352.0581113801453 L 298.08362369337976 352.96610169491527 L 299.82578397212546 360.04842615012103 L 301.56794425087105 352.78450363196123 L 303.31010452961675 353.14769975786925 L 305.05226480836234 356.4164648910412 L 306.79442508710804 355.50847457627117 L 308.5365853658536 354.2372881355932 L 310.2787456445993 360.41162227602905 L 312.0209059233449 362.22760290556903 L 313.7630662020906 361.864406779661 L 315.5052264808362 360.04842615012103 L 317.2473867595819 357.32445520581115 L 318.9895470383275 355.69007263922515 L 320.7317073170732 356.2348668280872 L 322.4738675958188 354.4188861985472 L 324.2160278745645 355.3268765133172 L 325.95818815331006 354.4188861985472 L 327.70034843205576 351.8765133171913 L 329.44250871080135 347.15496368038737 L 331.18466898954705 348.60774818401933 L 332.92682926829264 343.7046004842615 L 334.66898954703834 344.61259079903147 L 336.4111498257839 344.4309927360775 L 338.1533101045296 339.89104116222757 L 339.8954703832752 332.62711864406776 L 341.6376306620209 331.71912832929786 L 343.3797909407665 328.0871670702179 L 345.1219512195122 324.818401937046 L 346.86411149825784 324.818401937046 L 348.6062717770035 324.818401937046 L 350.34843205574913 321.1864406779661 L 352.0905923344948 313.19612590799034 L 353.8327526132404 317.1912832929782 L 355.57491289198606 313.19612590799034 L 357.3170731707317 305.7506053268765 L 359.05923344947735 299.0314769975787 L 360.801393728223 292.13075060532685 L 362.54355400696863 287.953995157385 L 364.2857142857143 282.14285714285717 L 366.0278745644599 278.8740920096852 L 367.77003484320556 276.5133171912833 L 369.5121951219512 279.6004842615012 L 371.25435540069685 276.5133171912833 L 372.9965156794425 275.06053268765135 L 374.73867595818814 272.3365617433414 L 376.4808362369338 273.42615012106535 L 378.2229965156794 269.4309927360775 L 379.96515679442507 267.07021791767556 L 381.7073170731707 263.8014527845036 L 383.44947735191636 262.89346246973366 L 385.191637630662 258.17191283292976 L 386.93379790940764 253.26876513317188 L 388.6759581881533 257.8087167070218 L 390.41811846689893 265.98062953995156 L 392.1602787456446 256.7191283292978 L 393.9024390243902 251.81598062953992 L 395.6445993031359 248.00242130750604 L 397.3867595818815 247.27602905569006 L 399.1289198606272 242.7360774818402 L 400.8710801393728 237.65133171912834 L 402.6132404181185 231.2953995157385 L 404.3554006968641 227.1186440677966 L 406.0975609756097 228.02663438256656 L 407.83972125435537 227.6634382566586 L 409.581881533101 225.12106537530263 L 411.32404181184666 225.66585956416463 L 413.0662020905923 221.48910411622273 L 414.80836236933794 217.85714285714283 L 416.5505226480836 215.4963680387409 L 418.29268292682923 210.95641646489105 L 420.0348432055749 201.33171912832927 L 421.7770034843206 197.8813559322034 L 423.5191637630662 196.2469733656174 L 425.26132404181186 195.52058111380143 L 427.0034843205575 184.98789346246974 L 428.74564459930315 184.07990314769972 L 430.4878048780488 181.90072639225178 L 432.22996515679444 172.63922518159808 L 433.9721254355401 176.45278450363196 L 435.7142857142857 170.64164648910412 L 437.45644599303137 167.7360774818402 L 439.198606271777 166.28329297820824 L 440.94076655052265 156.47699757869248 L 442.6829268292683 164.83050847457628 L 444.42508710801394 160.10895883777238 L 446.1672473867596 157.38498789346244 L 447.9094076655052 156.65859564164646 L 449.65156794425087 151.5738498789346 L 451.3937282229965 142.49394673123487 L 453.13588850174216 140.85956416464893 L 454.8780487804878 137.590799031477 L 456.62020905923345 137.95399515738495 L 458.3623693379791 127.60290556900725 L 460.10452961672473 122.51815980629539 L 461.8466898954704 125.60532687651329 L 463.588850174216 125.42372881355931 L 465.33101045296166 117.97820823244552 L 467.0731707317073 123.60774818401939 L 468.81533101045295 121.06537530266343 L 470.5574912891986 116.88861985472153 L 472.29965156794424 116.16222760290555 L 474.0418118466899 119.43099273607749 L 475.7839721254355 114.70944309927359 L 477.52613240418117 118.34140435835349 L 479.2682926829268 112.89346246973366 L 481.01045296167246 118.1598062953995 L 482.7526132404181 109.8062953995157 L 484.49477351916374 106.35593220338984 L 486.2369337979094 108.35351089588374 L 487.97909407665503 100 L 489.7212543554007 101.99757869249396 L 491.4634146341463 114.70944309927359 L 493.20557491289196 121.42857142857144 L 494.9477351916376 119.97578692493948 L 496.68989547038325 113.9830508474576 L 498.4320557491289 112.71186440677963 L 500.17421602787454 126.15012106537529 L 501.9163763066202 132.6876513317191 L 503.6585365853658 134.5036319612591 L 505.40069686411147 140.6779661016949 L 507.1428571428571 141.7675544794189 L 508.88501742160275 139.04358353510895 L 510.6271777003484 137.590799031477 L 512.3693379790941 145.3995157384988 L 514.1114982578397 157.20338983050846 L 515.8536585365853 161.19854721549638 L 517.595818815331 169.00726392251818 L 519.3379790940767 169.00726392251818 L 521.0801393728223 178.45036319612592 L 522.822299651568 177.72397094430994 L 524.5644599303137 184.8062953995157 L 526.3066202090592 189.89104116222762 L 528.0487804878048 193.7046004842615 L 529.7909407665505 191.88861985472153 L 531.5331010452962 189.16464891041164 L 533.2752613240418 189.89104116222762 L 535.0174216027874 191.70702179176754 L 536.7595818815331 190.0726392251816 L 538.5017421602788 198.0629539951574 L 540.2439024390244 195.70217917675546 L 541.98606271777 193.88619854721549 L 543.7282229965157 202.2397094430993 L 545.4703832752614 210.23002421307507 L 547.212543554007 218.5835351089588 L 548.9547038327526 230.93220338983048 L 550.6968641114983 212.046004842615 L 552.439024390244 208.2324455205811 L 554.1811846689895 210.95641646489105 L 555.9233449477351 212.046004842615 L 557.6655052264808 210.23002421307507 L 559.4076655052265 214.22518159806293 L 561.1498257839721 212.953995157385 L 562.8919860627177 214.40677966101697 L 564.6341463414634 215.13317191283295 L 566.3763066202091 222.2154963680387 L 568.1184668989547 222.39709443099275 L 569.8606271777003 216.5859564164649 L 571.602787456446 225.12106537530263 L 573.3449477351917 221.12590799031477 L 575.0871080139373 217.67554479418885 L 576.8292682926829 216.7675544794189 L 578.5714285714286 219.3099273607748 L 580.3135888501743 232.02179176755448 L 582.0557491289198 236.56174334140434 L 583.7979094076654 240.73849878934624 L 585.5400696864111 243.82566585956414 L 587.2822299651568 248.72881355932202 L 589.0243902439024 243.09927360774816 L 590.766550522648 244.18886198547216 L 592.5087108013937 240.73849878934624 L 594.2508710801394 233.29297820823246 L 595.993031358885 236.56174334140434 L 597.7351916376306 231.65859564164646 L 599.4773519163763 226.02905569007265 L 601.219512195122 228.75302663438254 L 602.9616724738676 232.92978208232444 L 604.7038327526132 232.92978208232444 L 606.4459930313589 241.82808716707024 L 608.1881533101046 253.45036319612592 L 609.9303135888501 253.26876513317188 L 611.6724738675957 229.29782082324454 L 613.4146341463414 230.7506053268765 L 615.1567944250871 232.20338983050846 L 616.8989547038327 252.5423728813559 L 618.6411149825783 254.1767554479419 L 620.383275261324 253.26876513317188 L 622.1254355400697 260.8958837772397 L 623.8675958188153 266.8886198547215 L 625.609756097561 271.2469733656174 L 627.3519163763067 273.78934624697337 L 629.0940766550523 275.4237288135593 L 630.8362369337979 274.51573849878935 L 632.5783972125436 280.6900726392252 L 634.3205574912893 283.2324455205811 L 636.0627177700349 293.76513317191285 L 637.8048780487804 293.94673123486683 L 639.5470383275261 297.7602905569007 L 641.2891986062718 298.6682808716707 L 643.0313588850174 302.3002421307506 L 644.773519163763 299.93946731234865 L 646.5156794425087 311.92493946731236 L 648.2578397212544 311.56174334140434 L 650 313.3777239709443 L 650 400 Z" /><text  class="poloto_labels poloto_text poloto_title" alignment-baseline="start" text-anchor="middle" font-size="x-large" x="400" y="37.5" >Total players on 2021-06-21</text><text  class="poloto_labels poloto_text poloto_xname" alignment-baseline="start" text-anchor="middle" font-size="x-large" x="400" y="481.25" >Time</text><text  class="poloto_labels poloto_text poloto_yname" alignment-baseline="start" text-anchor="middle" font-size="x-large" transform="rotate(-90,37.5,250)" x="37.5" y="250" >Count</text><line  class="poloto_axis_lines" stroke="black" x1="208.0487804878049" x2="208.0487804878049" y1="400" y2="405" /><text  class="poloto_tick_labels poloto_text" alignment-baseline="start" text-anchor="middle" x="208.0487804878049" y="430" > 02:46:40</text><line  class="poloto_axis_lines" stroke="black" x1="266.1207897793264" x2="266.1207897793264" y1="400" y2="405" /><text  class="poloto_tick_labels poloto_text" alignment-baseline="start" text-anchor="middle" x="266.1207897793264" y="430" > 05:33:20</text><line  class="poloto_axis_lines" stroke="black" x1="324.19279907084785" x2="324.19279907084785" y1="400" y2="405" /><text  class="poloto_tick_labels poloto_text" alignment-baseline="start" text-anchor="middle" x="324.19279907084785" y="430" > 08:20:00</text><line  class="poloto_axis_lines" stroke="black" x1="382.2648083623693" x2="382.2648083623693" y1="400" y2="405" /><text  class="poloto_tick_labels poloto_text" alignment-baseline="start" text-anchor="middle" x="382.2648083623693" y="430" > 11:06:40</text><line  class="poloto_axis_lines" stroke="black" x1="440.3368176538908" x2="440.3368176538908" y1="400" y2="405" /><text  class="poloto_tick_labels poloto_text" alignment-baseline="start" text-anchor="middle" x="440.3368176538908" y="430" > 13:53:20</text><line  class="poloto_axis_lines" stroke="black" x1="498.4088269454123" x2="498.4088269454123" y1="400" y2="405" /><text  class="poloto_tick_labels poloto_text" alignment-baseline="start" text-anchor="middle" x="498.4088269454123" y="430" > 16:40:00</text><line  class="poloto_axis_lines" stroke="black" x1="556.4808362369338" x2="556.4808362369338" y1="400" y2="405" /><text  class="poloto_tick_labels poloto_text" alignment-baseline="start" text-anchor="middle" x="556.4808362369338" y="430" > 19:26:40</text><line  class="poloto_axis_lines" stroke="black" x1="614.5528455284552" x2="614.5528455284552" y1="400" y2="405" /><text  class="poloto_tick_labels poloto_text" alignment-baseline="start" text-anchor="middle" x="614.5528455284552" y="430" > 22:13:20</text><line  class="poloto_axis_lines" stroke="black" x1="150" x2="144" y1="309.9273607748184" y2="309.9273607748184" /><text  class="poloto_tick_labels poloto_text" alignment-baseline="middle" text-anchor="end" x="135" y="309.9273607748184" > 1500</text><line  class="poloto_axis_lines" stroke="black" x1="150" x2="144" y1="219.1283292978208" y2="219.1283292978208" /><text  class="poloto_tick_labels poloto_text" alignment-baseline="middle" text-anchor="end" x="135" y="219.1283292978208" > 2000</text><line  class="poloto_axis_lines" stroke="black" x1="150" x2="144" y1="128.32929782082323" y2="128.32929782082323" /><text  class="poloto_tick_labels poloto_text" alignment-baseline="middle" text-anchor="end" x="135" y="128.32929782082323" > 2500</text><path  stroke="black" fill="none" class="poloto_axis_lines" style="stroke-dasharray:14.518002322880372;stroke-dashoffset:-58.04878048780488;" d=" M 150 400 L 650 400" /><path  stroke="black" fill="none" class="poloto_axis_lines" style="stroke-dasharray:9.079903147699758;stroke-dashoffset:-90.0726392251816;" d=" M 150 400 L 150 100" /></svg>