<svg class="poloto" width="800" height="500" viewBox="0 0 800 500" xmlns="http://www.w3.org/2000/svg"><style>.poloto { stroke-linecap:round; stroke-linejoin:round; font-family: 'Tahoma', sans-serif; background-color: AliceBlue;} .poloto_scatter{stroke-width:7} .poloto_line{stroke-width:2} .poloto_text{fill: black;} .poloto_axis_lines{stroke: black;stroke-width:3;fill:none;stroke-dasharray:none} .poloto0stroke{stroke:  blue;} .poloto1stroke{stroke:  red;} .poloto2stroke{stroke:  green;} .poloto3stroke{stroke:  gold;} .poloto4stroke{stroke:  aqua;} .poloto5stroke{stroke:  lime;} .poloto6stroke{stroke:  orange;} .poloto7stroke{stroke:  chocolate;} .poloto0fill{fill:blue;} .poloto1fill{fill:red;} .poloto2fill{fill:green;} .poloto3fill{fill:gold;} .poloto4fill{fill:aqua;} .poloto5fill{fill:lime;} .poloto6fill{fill:orange;} .poloto7fill{fill:chocolate;}</style><text  class="poloto_text poloto_legend_text" alignment-baseline="middle" text-anchor="start" font-size="large" x="675" y="100" ></text><path  class="poloto_linefill poloto0fill" d=" M 150 400 L 150 356.6047212456052 L 151.74216027874564 358.71421396283273 L 153.4843205574913 357.8101456554495 L 155.22648083623693 360.2209944751381 L 156.96864111498257 359.0155700652938 L 158.71080139372822 365.6454043194375 L 160.45296167247386 368.2069311903566 L 162.1951219512195 371.97388247112 L 163.93728222996515 373.7820190858865 L 165.6794425087108 373.32998493219486 L 167.42160278745644 372.1245605223506 L 169.16376306620208 375.891511803114 L 170.90592334494772 377.2476142641888 L 172.64808362369337 380.4118533400301 L 174.390243902439 379.5077850326469 L 176.13240418118465 380.4118533400301 L 177.8745644599303 387.7950778503265 L 179.61672473867597 388.3977900552486 L 181.3588850174216 386.13761928679054 L 183.10104529616726 383.87744851833247 L 184.8432055749129 383.27473631341036 L 186.58536585365854 382.069311903566 L 188.3275261324042 381.01456554495223 L 190.06968641114983 387.4937217478654 L 191.81184668989548 389.90457056755395 L 193.55400696864112 390.95931692616773 L 195.29616724738676 390.6579608237067 L 197.0383275261324 390.3566047212456 L 198.78048780487805 394.123556002009 L 200.5226480836237 396.9864389753892 L 202.26480836236934 400 L 204.00696864111498 397.58915118031143 L 205.74912891986062 397.58915118031143 L 207.49128919860627 392.16474133601207 L 209.2334494773519 388.6991461577097 L 210.97560975609755 382.069311903566 L 212.7177700348432 387.945755901557 L 214.45993031358887 384.48016072325464 L 216.2020905923345 383.87744851833247 L 217.94425087108016 382.97338021094924 L 219.6864111498258 383.4254143646409 L 221.42857142857144 380.86388749372173 L 223.1707317073171 378.3023606228026 L 224.91289198606273 375.74083375188343 L 226.65505226480838 371.37117026619785 L 228.39721254355402 372.5765946760422 L 230.13937282229966 368.35760924158717 L 231.8815331010453 363.23455549974886 L 233.62369337979095 357.3581115017579 L 235.3658536585366 348.61878453038673 L 237.10801393728224 349.824208940231 L 238.85017421602788 351.18031140130586 L 240.59233449477352 347.4133601205424 L 242.33449477351917 347.7147162230035 L 244.0766550522648 351.0296333500753 L 245.81881533101046 343.0436966348568 L 247.5609756097561 339.57810145655446 L 249.30313588850174 340.03013561024613 L 251.0452961672474 337.769964841788 L 252.78745644599303 338.5233550979407 L 254.52961672473867 330.53741838272225 L 256.2717770034843 326.92114515318934 L 258.01393728222996 324.6609743847313 L 259.7560975609756 322.70215971873426 L 261.49825783972125 321.49673530889 L 263.2404181184669 315.9216474133601 L 264.98257839721254 315.77096936212956 L 266.7247386759582 315.620291310899 L 268.4668989547038 316.52435961828223 L 270.20905923344947 319.6885986941235 L 271.9512195121951 316.0723254645906 L 273.69337979094075 311.2506278252134 L 275.4355400696864 307.93571069814163 L 277.17770034843204 311.0999497739829 L 278.91986062717774 311.70266197890504 L 280.6620209059233 307.93571069814163 L 282.404181184669 305.0728277247614 L 284.1463414634146 299.94977398292315 L 285.8885017421603 301.15519839276743 L 287.6306620209059 298.5936715218483 L 289.3728222996516 298.5936715218483 L 291.1149825783972 296.4841788046208 L 292.8571428571429 290.00502260170765 L 294.5993031358885 292.8679055750879 L 296.3414634146342 296.33350075339024 L 298.08362369337976 291.05976896032143 L 299.82578397212546 283.8272225012556 L 301.56794425087105 282.3204419889503 L 303.31010452961675 284.12857860371673 L 305.05226480836234 280.2109492717227 L 306.79442508710804 272.3756906077348 L 308.5365853658536 271.7729784028126 L 310.2787456445993 274.18382722250124 L 312.0209059233449 270.86891009542944 L 313.7630662020906 271.1702661978905 L 315.5052264808362 266.0472124560522 L 317.2473867595819 259.71873430436966 L 318.9895470383275 258.81466599698643 L 320.7317073170732 254.2943244600703 L 322.4738675958188 254.89703666499247 L 324.2160278745645 253.08890005022602 L 325.9581881533101 256.10246107483675 L 327.70034843205576 260.1707684580613 L 329.4425087108014 260.7734806629834 L 331.18466898954705 256.4038171772978 L 332.9268292682927 258.21195379206426 L 334.66898954703834 253.23957810145652 L 336.411149825784 257.6092415871421 L 338.1533101045296 246.91109994977398 L 339.89547038327527 242.6921145153189 L 341.6376306620209 246.45906579608237 L 343.37979094076655 250.07533902561522 L 345.1219512195122 241.18533400301357 L 346.86411149825784 238.62380713209438 L 348.6062717770035 236.81567051732793 L 350.34843205574913 239.97990959316922 L 352.0905923344948 236.36363636363632 L 353.8327526132404 234.2541436464088 L 355.57491289198606 225.06278252134604 L 357.3170731707317 216.7754897036665 L 359.05923344947735 214.0632847815168 L 360.801393728223 210.14565544952285 L 362.54355400696863 219.78905072827723 L 364.2857142857143 215.41938724259165 L 366.0278745644599 213.91260673028626 L 367.77003484320556 217.67955801104972 L 369.5121951219512 215.57006529382215 L 371.25435540069685 208.3375188347564 L 372.9965156794425 213.00853842290303 L 374.73867595818814 207.58412857860367 L 376.4808362369338 201.40632847815164 L 378.2229965156795 197.94073329984928 L 379.96515679442507 192.81767955801104 L 381.70731707317077 205.32395781014566 L 383.44947735191636 199.8995479658463 L 385.19163763066206 200.20090406830735 L 386.93379790940764 197.18734304369661 L 388.67595818815334 205.1732797589151 L 390.41811846689893 204.26921145153187 L 392.16027874564463 203.5158211953792 L 393.9024390243902 204.41988950276243 L 395.6445993031359 201.25565042692114 L 397.3867595818815 200.5022601707684 L 399.1289198606272 195.98191863385233 L 400.8710801393728 194.6258161727775 L 402.6132404181185 201.85836263184325 L 404.3554006968641 197.33802109492717 L 406.0975609756098 190.2561526870919 L 407.8397212543554 187.39326971371167 L 409.58188153310107 193.5710698141637 L 411.3240418118467 206.68006027122044 L 413.06620209059236 197.63937719738823 L 414.808362369338 200.95429432446002 L 416.55052264808364 202.46107483676542 L 418.2926829268293 197.18734304369661 L 420.03484320557493 193.1190356604721 L 421.7770034843206 187.99598191863384 L 423.5191637630662 180.61275740833747 L 425.26132404181186 177.29784028126568 L 427.0034843205575 179.70868910095425 L 428.74564459930315 183.32496233048715 L 430.4878048780488 176.544450025113 L 432.22996515679444 177.44851833249623 L 433.9721254355401 162.68206931190355 L 435.7142857142857 160.57257659467604 L 437.45644599303137 164.49020592667 L 439.198606271777 165.0929181315921 L 440.94076655052265 157.25765946760419 L 442.6829268292683 156.35359116022096 L 444.42508710801394 147.76494224008036 L 446.1672473867596 140.6830738322451 L 447.9094076655052 128.7795077850326 L 449.65156794425087 136.31341034655946 L 451.3937282229965 129.2315419387242 L 453.13588850174216 127.42340532395781 L 454.8780487804878 124.10848819688596 L 456.62020905923345 126.06730286288297 L 458.3623693379791 121.39628327473628 L 460.10452961672473 119.73882471120038 L 461.8466898954704 116.87594173782014 L 463.588850174216 111.45153189352084 L 465.33101045296166 117.0266197890507 L 467.0731707317073 109.94475138121544 L 468.81533101045295 104.21898543445502 L 470.5574912891986 100.30135610246106 L 472.29965156794424 100.75339025615267 L 474.0418118466899 113.41034655951779 L 475.7839721254355 104.52034153691608 L 477.52613240418117 99.99999999999994 L 479.2682926829268 101.95881466599695 L 481.01045296167246 105.2737317930688 L 482.7526132404181 101.8081366147664 L 484.49477351916374 111.60220994475134 L 486.2369337979094 105.57508789552986 L 487.97909407665503 107.68458061275737 L 489.7212543554007 103.91762933199396 L 491.4634146341463 110.39678553490705 L 493.20557491289196 120.94424912104466 L 494.9477351916376 116.87594173782014 L 496.68989547038325 131.03967855349066 L 498.4320557491289 144.14866901054745 L 500.17421602787454 129.68357609241582 L 501.91637630662024 131.49171270718227 L 503.6585365853659 141.58714213962833 L 505.4006968641115 138.12154696132592 L 507.14285714285717 136.61476644902058 L 508.8850174216028 140.8337518834756 L 510.62717770034845 144.14866901054745 L 512.3693379790941 157.25765946760419 L 514.1114982578397 166.90105474635857 L 515.8536585365854 161.02461074836765 L 517.5958188153311 157.7096936212958 L 519.3379790940767 164.33952787543944 L 521.0801393728223 164.33952787543944 L 522.822299651568 167.95580110497235 L 524.5644599303137 172.77749874434954 L 526.3066202090592 179.25665494726263 L 528.0487804878048 187.8453038674033 L 529.7909407665505 193.42039176293315 L 531.5331010452962 196.88598694123556 L 533.2752613240418 201.70768458061275 L 535.0174216027874 213.00853842290303 L 536.7595818815331 215.7207433450527 L 538.5017421602788 221.29583124058257 L 540.2439024390244 220.24108488196885 L 541.98606271777 223.40532395781014 L 543.7282229965157 227.47363134103466 L 545.4703832752614 230.6378704168759 L 547.212543554007 235.4595680562531 L 548.9547038327526 244.50025113008536 L 550.6968641114983 240.28126569563034 L 552.439024390244 236.9663485685585 L 554.1811846689895 244.3495730788548 L 555.9233449477351 245.55499748869914 L 557.6655052264808 252.1848317428428 L 559.4076655052265 254.14364640883974 L 561.1498257839721 255.04771471622297 L 562.8919860627177 253.54093420391763 L 564.6341463414634 258.81466599698643 L 566.3763066202091 255.9517830236062 L 568.1184668989547 260.1707684580613 L 569.8606271777003 259.41737820190855 L 571.602787456446 260.3214465092918 L 573.3449477351917 261.97890507282773 L 575.0871080139373 265.2938221998995 L 576.8292682926829 267.101958814666 L 578.5714285714286 275.3892516323455 L 580.3135888501743 272.2250125565042 L 582.0557491289198 270.7182320441989 L 583.7979094076654 266.0472124560522 L 585.5400696864111 277.6494224008036 L 587.2822299651568 269.060773480663 L 589.0243902439024 267.5539929683576 L 590.766550522648 272.52636865896534 L 592.5087108013937 274.63586137619285 L 594.2508710801394 274.4851833249623 L 595.993031358885 281.2656956303365 L 597.7351916376306 283.6765444500251 L 599.4773519163763 284.12857860371673 L 601.219512195122 291.8131592164741 L 602.9616724738676 295.429432446007 L 604.7038327526133 298.74434957307886 L 606.445993031359 303.26469110999494 L 608.1881533101046 300.55248618784526 L 609.9303135888501 299.94977398292315 L 611.6724738675958 305.8262179809141 L 613.4146341463415 307.0316423907584 L 615.1567944250871 303.11401305876444 L 616.8989547038327 299.6484178804621 L 618.6411149825784 303.8674033149171 L 620.3832752613241 310.04520341536914 L 622.1254355400697 312.45605223505777 L 623.8675958188153 321.3460572576594 L 625.609756097561 327.0718232044199 L 627.3519163763067 325.5650426921145 L 629.0940766550523 329.7840281265695 L 630.8362369337979 331.8935208437971 L 632.5783972125436 336.4138623807132 L 634.3205574912893 337.92064289301857 L 636.0627177700349 339.57810145655446 L 637.8048780487804 342.59166248116526 L 639.5470383275261 347.7147162230035 L 641.2891986062718 346.20793571069817 L 643.0313588850174 346.96132596685084 L 644.773519163763 352.0843797086891 L 646.5156794425087 349.6735308890005 L 648.2578397212544 353.741838272225 L 650 358.4128578603717 L 650 400 Z" /><text  class="poloto_labels poloto_text poloto_title" alignment-baseline="start" text-anchor="middle" font-size="x-large" x="400" y="37.5" >Total players on 2021-08-29</text><text  class="poloto_labels poloto_text poloto_xname" alignment-baseline="start" text-anchor="middle" font-size="x-large" x="400" y="481.25" >Time</text><text  class="poloto_labels poloto_text poloto_yname" alignment-baseline="start" text-anchor="middle" font-size="x-large" transform="rotate(-90,37.5,250)" x="37.5" y="250" >Count</text><line  class="poloto_axis_lines" stroke="black" x1="150" x2="150" y1="400" y2="405" /><text  class="poloto_tick_labels poloto_text" alignment-baseline="start" text-anchor="middle" x="150" y="430" > 00:00:00</text><line  class="poloto_axis_lines" stroke="black" x1="266.14401858304296" x2="266.14401858304296" y1="400" y2="405" /><text  class="poloto_tick_labels poloto_text" alignment-baseline="start" text-anchor="middle" x="266.14401858304296" y="430" > 05:33:20</text><line  class="poloto_axis_lines" stroke="black" x1="382.2880371660859" x2="382.2880371660859" y1="400" y2="405" /><text  class="poloto_tick_labels poloto_text" alignment-baseline="start" text-anchor="middle" x="382.2880371660859" y="430" > 11:06:40</text><line  class="poloto_axis_lines" stroke="black" x1="498.4320557491289" x2="498.4320557491289" y1="400" y2="405" /><text  class="poloto_tick_labels poloto_text" alignment-baseline="start" text-anchor="middle" x="498.4320557491289" y="430" > 16:40:00</text><line  class="poloto_axis_lines" stroke="black" x1="614.5760743321719" x2="614.5760743321719" y1="400" y2="405" /><text  class="poloto_tick_labels poloto_text" alignment-baseline="start" text-anchor="middle" x="614.5760743321719" y="430" > 22:13:20</text><line  class="poloto_axis_lines" stroke="black" x1="150" x2="144" y1="364.2893018583626" y2="364.2893018583626" /><text  class="poloto_tick_labels poloto_text" alignment-baseline="middle" text-anchor="end" x="135" y="364.2893018583626" > 1500</text><line  class="poloto_axis_lines" stroke="black" x1="150" x2="144" y1="288.9502762430939" y2="288.9502762430939" /><text  class="poloto_tick_labels poloto_text" alignment-baseline="middle" text-anchor="end" x="135" y="288.9502762430939" > 2000</text><line  class="poloto_axis_lines" stroke="black" x1="150" x2="144" y1="213.6112506278252" y2="213.6112506278252" /><text  class="poloto_tick_labels poloto_text" alignment-baseline="middle" text-anchor="end" x="135" y="213.6112506278252" > 2500</text><line  class="poloto_axis_lines" stroke="black" x1="150" x2="144" y1="138.27222501255648" y2="138.27222501255648" /><text  class="poloto_tick_labels poloto_text" alignment-baseline="middle" text-anchor="end" x="135" y="138.27222501255648" > 3000</text><path  stroke="black" fill="none" class="poloto_axis_lines" style="stroke-dasharray:14.518002322880372;stroke-dashoffset:-0;" d=" M 150 400 L 650 400" /><path  stroke="black" fill="none" class="poloto_axis_lines" style="stroke-dasharray:7.533902561526871;stroke-dashoffset:-35.71069814163738;" d=" M 150 400 L 150 100" /></svg>