<svg class="poloto" width="800" height="500" viewBox="0 0 800 500" xmlns="http://www.w3.org/2000/svg"><style>.poloto { stroke-linecap:round; stroke-linejoin:round; font-family: 'Tahoma', sans-serif; background-color: AliceBlue;} .poloto_scatter{stroke-width:7} .poloto_line{stroke-width:2} .poloto_text{fill: black;} .poloto_axis_lines{stroke: black;stroke-width:3;fill:none;stroke-dasharray:none} .poloto0stroke{stroke:  blue;} .poloto1stroke{stroke:  red;} .poloto2stroke{stroke:  green;} .poloto3stroke{stroke:  gold;} .poloto4stroke{stroke:  aqua;} .poloto5stroke{stroke:  lime;} .poloto6stroke{stroke:  orange;} .poloto7stroke{stroke:  chocolate;} .poloto0fill{fill:blue;} .poloto1fill{fill:red;} .poloto2fill{fill:green;} .poloto3fill{fill:gold;} .poloto4fill{fill:aqua;} .poloto5fill{fill:lime;} .poloto6fill{fill:orange;} .poloto7fill{fill:chocolate;}</style><text  class="poloto_text poloto_legend_text" alignment-baseline="middle" text-anchor="start" font-size="large" x="675" y="100" ></text><path  class="poloto_linefill poloto0fill" d=" M 150 400 L 150 365.4174573055028 L 151.74216027874564 366.8406072106262 L 153.4843205574913 371.39468690702085 L 155.22648083623693 371.5370018975332 L 156.96864111498257 371.96394686907024 L 158.71080139372822 371.1100569259962 L 160.45296167247386 367.9791271347249 L 162.1951219512195 370.6831119544592 L 163.93728222996515 370.6831119544592 L 165.6794425087108 370.8254269449715 L 167.42160278745644 374.8102466793169 L 169.16376306620208 376.8026565464896 L 170.90592334494772 388.472485768501 L 172.64808362369337 390.46489563567366 L 174.390243902439 393.7381404174573 L 176.13240418118465 395.8728652751423 L 177.8745644599303 395.4459203036053 L 179.61672473867597 399.8576850094877 L 181.3588850174216 400 L 183.10104529616726 398.86148007590134 L 184.8432055749129 392.741935483871 L 186.58536585365854 391.1764705882353 L 188.3275261324042 395.1612903225806 L 190.06968641114983 395.8728652751423 L 191.81184668989548 399.00379506641366 L 193.55400696864112 391.6034155597723 L 195.29616724738676 390.8918406072106 L 197.0383275261324 387.61859582542695 L 198.78048780487805 391.74573055028463 L 200.5226480836237 389.04174573055025 L 202.26480836236934 382.2106261859583 L 204.00696864111498 382.2106261859583 L 205.74912891986062 381.0721062618596 L 207.49128919860627 374.95256166982927 L 209.2334494773519 371.1100569259962 L 210.97560975609755 367.12523719165085 L 212.7177700348432 361.7172675521822 L 214.45993031358887 358.30170777988616 L 216.2020905923345 354.6015180265655 L 217.94425087108016 353.17836812144213 L 219.6864111498258 353.17836812144213 L 221.42857142857144 347.34345351043646 L 223.1707317073171 349.33586337760914 L 224.91289198606273 344.6394686907021 L 226.65505226480838 344.49715370018976 L 228.39721254355402 341.93548387096774 L 230.13937282229966 337.38140417457305 L 231.8815331010453 336.6698292220114 L 233.62369337979095 332.1157495256167 L 235.3658536585366 331.2618595825427 L 237.10801393728224 332.68500948766604 L 238.85017421602788 335.38899430740037 L 240.59233449477352 332.5426944971537 L 242.33449477351917 327.561669829222 L 244.0766550522648 323.86148007590134 L 245.81881533101046 318.3111954459203 L 247.5609756097561 306.4990512333966 L 249.30313588850174 303.79506641366225 L 251.0452961672474 309.9146110056926 L 252.78745644599303 311.6223908918406 L 254.52961672473867 306.0721062618596 L 256.2717770034843 306.9259962049336 L 258.01393728222996 311.337760910816 L 259.7560975609756 305.92979127134726 L 261.49825783972125 305.2182163187856 L 263.2404181184669 303.9373814041746 L 264.98257839721254 300.80645161290323 L 266.7247386759582 306.7836812144213 L 268.4668989547038 308.6337760910816 L 270.20905923344947 315.607210626186 L 271.9512195121951 318.88045540796963 L 273.69337979094075 318.0265654648956 L 275.4355400696864 317.45730550284634 L 277.17770034843204 318.88045540796963 L 278.91986062717774 319.1650853889943 L 280.6620209059233 318.595825426945 L 282.404181184669 319.30740037950665 L 284.1463414634146 315.03795066413664 L 285.8885017421603 313.04554079696396 L 287.6306620209059 315.03795066413664 L 289.3728222996516 316.1764705882353 L 291.1149825783972 313.04554079696396 L 292.8571428571429 307.4952561669829 L 294.5993031358885 301.8026565464896 L 296.3414634146342 302.5142314990512 L 298.08362369337976 299.52561669829225 L 299.82578397212546 301.37571157495256 L 301.56794425087105 304.22201138519927 L 303.31010452961675 296.96394686907024 L 305.05226480836234 293.6907020872865 L 306.79442508710804 293.1214421252372 L 308.5365853658536 297.53320683111957 L 310.2787456445993 299.8102466793169 L 312.0209059233449 294.68690702087287 L 313.7630662020906 290.7020872865275 L 315.5052264808362 284.86717267552183 L 317.2473867595819 283.01707779886146 L 318.9895470383275 277.7514231499051 L 320.7317073170732 270.20872865275146 L 322.4738675958188 263.2352941176471 L 324.2160278745645 259.392789373814 L 325.9581881533101 253.13092979127134 L 327.70034843205576 253.98481973434536 L 329.4425087108014 255.55028462998104 L 331.18466898954705 253.55787476280835 L 332.9268292682927 248.43453510436433 L 334.66898954703834 245.73055028463 L 336.411149825784 253.55787476280835 L 338.1533101045296 258.6812144212524 L 339.89547038327527 256.831119544592 L 341.6376306620209 251.13851992409866 L 343.37979094076655 250.99620493358634 L 345.1219512195122 256.831119544592 L 346.86411149825784 248.1499051233397 L 348.6062717770035 252.134724857685 L 350.34843205574913 243.168880455408 L 352.0905923344948 246.157495256167 L 353.8327526132404 239.32637571157494 L 355.57491289198606 233.49146110056927 L 357.3170731707317 230.50284629981024 L 359.05923344947735 225.2371916508539 L 360.801393728223 226.37571157495256 L 362.54355400696863 221.96394686907024 L 364.2857142857143 223.81404174573055 L 366.0278745644599 225.09487666034158 L 367.77003484320556 220.9677419354839 L 369.5121951219512 219.97153700189756 L 371.25435540069685 216.4136622390892 L 372.9965156794425 206.59392789373817 L 374.73867595818814 209.86717267552183 L 376.4808362369338 199.05123339658445 L 378.2229965156795 193.0740037950664 L 379.96515679442507 184.67741935483872 L 381.70731707317077 184.2504743833017 L 383.44947735191636 178.27324478178372 L 385.19163763066206 177.98861480075902 L 386.93379790940764 182.96963946869073 L 388.67595818815334 189.37381404174573 L 390.41811846689893 189.65844402277042 L 392.16027874564463 187.80834914611006 L 393.9024390243902 194.07020872865274 L 395.6445993031359 186.3851992409867 L 397.3867595818815 185.95825426944975 L 399.1289198606272 184.1081593927894 L 400.8710801393728 191.93548387096774 L 402.6132404181185 194.78178368121445 L 404.3554006968641 201.61290322580646 L 406.0975609756098 184.81973434535104 L 407.8397212543554 178.13092979127134 L 409.58188153310107 186.9544592030361 L 411.3240418118467 187.0967741935484 L 413.06620209059236 187.95066413662238 L 414.808362369338 195.35104364326378 L 416.55052264808364 195.35104364326378 L 418.2926829268293 194.35483870967744 L 420.03484320557493 193.7855787476281 L 421.7770034843206 190.22770398481975 L 423.5191637630662 187.38140417457305 L 425.26132404181186 181.11954459203037 L 427.0034843205575 179.5540796963947 L 428.74564459930315 174.43074003795067 L 430.4878048780488 165.46489563567366 L 432.22996515679444 164.75332068311195 L 433.9721254355401 169.44971537001896 L 435.7142857142857 161.9070208728653 L 437.45644599303137 167.59962049335866 L 439.198606271777 154.5066413662239 L 440.94076655052265 148.3870967741936 L 442.6829268292683 149.09867172675524 L 444.42508710801394 144.97153700189756 L 446.1672473867596 135.72106261859585 L 447.9094076655052 136.4326375711575 L 449.65156794425087 128.03605313092982 L 451.3937282229965 125.7590132827325 L 453.13588850174216 124.76280834914616 L 454.8780487804878 125.04743833017079 L 456.62020905923345 119.21252371916512 L 458.3623693379791 108.53889943074006 L 460.10452961672473 111.9544592030361 L 461.8466898954704 112.66603415559774 L 463.588850174216 109.10815939278939 L 465.33101045296166 103.13092979127134 L 467.0731707317073 100 L 468.81533101045295 108.68121442125238 L 470.5574912891986 113.23529411764707 L 472.29965156794424 104.12713472485768 L 474.0418118466899 101.56546489563567 L 475.7839721254355 107.82732447817841 L 477.52613240418117 102.27703984819738 L 479.2682926829268 103.55787476280835 L 481.01045296167246 116.93548387096774 L 482.7526132404181 127.18216318785579 L 484.49477351916374 129.3168880455408 L 486.2369337979094 139.1366223908919 L 487.97909407665503 131.02466793168884 L 489.7212543554007 129.03225806451616 L 491.4634146341463 130.88235294117646 L 493.20557491289196 134.15559772296018 L 494.9477351916376 133.58633776091085 L 496.68989547038325 138.70967741935488 L 498.4320557491289 136.57495256166987 L 500.17421602787454 143.5483870967742 L 501.91637630662024 149.52561669829225 L 503.6585365853659 151.51802656546494 L 505.4006968641115 158.20683111954463 L 507.14285714285717 165.32258064516128 L 508.8850174216028 166.46110056926 L 510.62717770034845 165.60721062618597 L 512.3693379790941 169.16508538899433 L 514.1114982578397 169.59203036053134 L 515.8536585365854 175.99620493358634 L 517.5958188153311 182.4003795066414 L 519.3379790940767 174.85768500948768 L 521.0801393728223 187.23908918406073 L 522.822299651568 182.4003795066414 L 524.5644599303137 186.6698292220114 L 526.3066202090592 191.6508538899431 L 528.0487804878048 188.09297912713475 L 529.7909407665505 195.4933586337761 L 531.5331010452962 203.60531309297915 L 533.2752613240418 209.2979127134725 L 535.0174216027874 212.99810246679317 L 536.7595818815331 213.5673624288425 L 538.5017421602788 215.27514231499055 L 540.2439024390244 217.97912713472488 L 541.98606271777 220.82542694497153 L 543.7282229965157 220.6831119544592 L 545.4703832752614 220.9677419354839 L 547.212543554007 223.1024667931689 L 548.9547038327526 224.9525616698292 L 550.6968641114983 228.79506641366225 L 552.439024390244 230.07590132827323 L 554.1811846689895 232.06831119544592 L 555.9233449477351 236.9070208728653 L 557.6655052264808 242.17267552182165 L 559.4076655052265 245.73055028463 L 561.1498257839721 245.303605313093 L 562.8919860627177 253.27324478178372 L 564.6341463414634 251.13851992409866 L 566.3763066202091 255.83491461100573 L 568.1184668989547 253.13092979127134 L 569.8606271777003 261.6698292220114 L 571.602787456446 263.6622390891841 L 573.3449477351917 259.6774193548387 L 575.0871080139373 260.38899430740037 L 576.8292682926829 262.9506641366224 L 578.5714285714286 263.9468690702087 L 580.3135888501743 264.0891840607211 L 582.0557491289198 260.38899430740037 L 583.7979094076654 266.6508538899431 L 585.5400696864111 269.2125237191651 L 587.2822299651568 274.7628083491461 L 589.0243902439024 275.4743833017078 L 590.766550522648 278.32068311195445 L 592.5087108013937 272.4857685009488 L 594.2508710801394 287.42884250474384 L 595.993031358885 283.72865275142317 L 597.7351916376306 295.8254269449715 L 599.4773519163763 300.3795066413662 L 601.219512195122 302.2296015180266 L 602.9616724738676 300.0948766603416 L 604.7038327526133 308.06451612903226 L 606.445993031359 311.9070208728653 L 608.1881533101046 314.4686907020873 L 609.9303135888501 311.337760910816 L 611.6724738675958 313.7571157495256 L 613.4146341463415 310.05692599620494 L 615.1567944250871 314.32637571157494 L 616.8989547038327 315.46489563567366 L 618.6411149825784 327.2770398481973 L 620.3832752613241 321.15749525616695 L 622.1254355400697 326.42314990512335 L 623.8675958188153 327.8462998102467 L 625.609756097561 334.1081593927894 L 627.3519163763067 324.146110056926 L 629.0940766550523 325.7115749525617 L 630.8362369337979 321.584440227704 L 632.5783972125436 336.6698292220114 L 634.3205574912893 335.8159392789374 L 636.0627177700349 332.40037950664134 L 637.8048780487804 332.258064516129 L 639.5470383275261 332.258064516129 L 641.2891986062718 341.2239089184061 L 643.0313588850174 342.7893738140417 L 644.773519163763 344.35483870967744 L 646.5156794425087 340.9392789373814 L 648.2578397212544 343.2163187855788 L 650 344.49715370018976 L 650 400 Z" /><text  class="poloto_labels poloto_text poloto_title" alignment-baseline="start" text-anchor="middle" font-size="x-large" x="400" y="37.5" >Total players on 2021-08-24</text><text  class="poloto_labels poloto_text poloto_xname" alignment-baseline="start" text-anchor="middle" font-size="x-large" x="400" y="481.25" >Time</text><text  class="poloto_labels poloto_text poloto_yname" alignment-baseline="start" text-anchor="middle" font-size="x-large" transform="rotate(-90,37.5,250)" x="37.5" y="250" >Count</text><line  class="poloto_axis_lines" stroke="black" x1="150" x2="150" y1="400" y2="405" /><text  class="poloto_tick_labels poloto_text" alignment-baseline="start" text-anchor="middle" x="150" y="430" > 00:00</text><line  class="poloto_axis_lines" stroke="black" x1="266.14401858304296" x2="266.14401858304296" y1="400" y2="405" /><text  class="poloto_tick_labels poloto_text" alignment-baseline="start" text-anchor="middle" x="266.14401858304296" y="430" > 06:00</text><line  class="poloto_axis_lines" stroke="black" x1="382.2880371660859" x2="382.2880371660859" y1="400" y2="405" /><text  class="poloto_tick_labels poloto_text" alignment-baseline="start" text-anchor="middle" x="382.2880371660859" y="430" > 11:00</text><line  class="poloto_axis_lines" stroke="black" x1="498.4320557491289" x2="498.4320557491289" y1="400" y2="405" /><text  class="poloto_tick_labels poloto_text" alignment-baseline="start" text-anchor="middle" x="498.4320557491289" y="430" > 17:00</text><line  class="poloto_axis_lines" stroke="black" x1="614.5760743321719" x2="614.5760743321719" y1="400" y2="405" /><text  class="poloto_tick_labels poloto_text" alignment-baseline="start" text-anchor="middle" x="614.5760743321719" y="430" > 22:00</text><line  class="poloto_axis_lines" stroke="black" x1="150" x2="144" y1="358.72865275142317" y2="358.72865275142317" /><text  class="poloto_tick_labels poloto_text" alignment-baseline="middle" text-anchor="end" x="135" y="358.72865275142317" > 1500</text><line  class="poloto_axis_lines" stroke="black" x1="150" x2="144" y1="287.57115749525616" y2="287.57115749525616" /><text  class="poloto_tick_labels poloto_text" alignment-baseline="middle" text-anchor="end" x="135" y="287.57115749525616" > 2000</text><line  class="poloto_axis_lines" stroke="black" x1="150" x2="144" y1="216.4136622390892" y2="216.4136622390892" /><text  class="poloto_tick_labels poloto_text" alignment-baseline="middle" text-anchor="end" x="135" y="216.4136622390892" > 2500</text><line  class="poloto_axis_lines" stroke="black" x1="150" x2="144" y1="145.2561669829222" y2="145.2561669829222" /><text  class="poloto_tick_labels poloto_text" alignment-baseline="middle" text-anchor="end" x="135" y="145.2561669829222" > 3000</text><path  stroke="black" fill="none" class="poloto_axis_lines" style="stroke-dasharray:14.518002322880372;stroke-dashoffset:-0;" d=" M 150 400 L 650 400" /><path  stroke="black" fill="none" class="poloto_axis_lines" style="stroke-dasharray:7.115749525616698;stroke-dashoffset:-41.27134724857686;" d=" M 150 400 L 150 100" /></svg>