<svg class="poloto" width="800" height="500" viewBox="0 0 800 500" xmlns="http://www.w3.org/2000/svg"><style>.poloto { stroke-linecap:round; stroke-linejoin:round; font-family: 'Tahoma', sans-serif; background-color: AliceBlue;} .poloto_scatter{stroke-width:7} .poloto_line{stroke-width:2} .poloto_text{fill: black;} .poloto_axis_lines{stroke: black;stroke-width:3;fill:none;stroke-dasharray:none} .poloto0stroke{stroke:  blue;} .poloto1stroke{stroke:  red;} .poloto2stroke{stroke:  green;} .poloto3stroke{stroke:  gold;} .poloto4stroke{stroke:  aqua;} .poloto5stroke{stroke:  lime;} .poloto6stroke{stroke:  orange;} .poloto7stroke{stroke:  chocolate;} .poloto0fill{fill:blue;} .poloto1fill{fill:red;} .poloto2fill{fill:green;} .poloto3fill{fill:gold;} .poloto4fill{fill:aqua;} .poloto5fill{fill:lime;} .poloto6fill{fill:orange;} .poloto7fill{fill:chocolate;}</style><text  class="poloto_text poloto_legend_text" alignment-baseline="middle" text-anchor="start" font-size="large" x="675" y="100" ></text><path  class="poloto_linefill poloto0fill" d=" M 150 400 L 150 342.48251748251744 L 151.73637324475314 342.1328671328671 L 153.47855375788336 343.7062937062937 L 155.2207342710136 339.16083916083915 L 156.96291478414383 338.986013986014 L 158.70509529727406 345.1048951048951 L 160.4472758104043 349.3006993006993 L 162.18945632353453 371.8531468531469 L 163.93163683666478 361.53846153846155 L 165.673817349795 358.3916083916084 L 167.41599786292522 357.16783216783216 L 169.15817837605547 355.2447552447552 L 170.9003588891857 352.4475524475524 L 172.64253940231595 352.27272727272725 L 174.38471991544617 356.8181818181818 L 176.1269004285764 361.3636363636364 L 177.86908094170664 363.1118881118881 L 179.61126145483686 375.34965034965035 L 181.35344196796711 375 L 183.09562248109734 381.64335664335664 L 184.8378029942276 381.8181818181818 L 186.5799835073578 384.965034965035 L 188.32216402048806 385.6643356643357 L 190.06434453361828 389.68531468531467 L 191.8065250467485 392.48251748251744 L 193.54870555987875 395.1048951048951 L 195.29088607300898 393.7062937062937 L 197.03306658613923 394.2307692307692 L 198.77524709926945 393.00699300699296 L 200.51742761239967 390.38461538461536 L 202.25960812552992 400 L 204.00178863866014 396.3286713286713 L 205.7439691517904 386.013986013986 L 207.48614966492062 386.8881118881119 L 209.22833017805084 386.1888111888112 L 210.9705106911811 387.06293706293707 L 212.7126912043113 383.56643356643355 L 214.45487171744156 381.46853146853147 L 216.19705223057179 378.67132867132864 L 217.939232743702 374.8251748251748 L 219.68141325683226 368.53146853146853 L 221.4235937699625 363.1118881118881 L 223.16577428309273 361.7132867132867 L 224.90795479622295 364.5104895104895 L 226.65013530935317 357.86713286713285 L 228.39231582248343 357.86713286713285 L 230.13449633561368 357.5174825174825 L 231.8766768487439 361.8881118881119 L 233.61885736187412 360.31468531468533 L 235.36103787500434 354.7202797202797 L 237.1032183881346 349.8251748251748 L 238.84539890126484 353.1468531468531 L 240.58757941439507 356.2937062937063 L 242.3297599275253 356.1188811188811 L 244.0719404406555 346.6783216783217 L 245.81412095378576 341.08391608391605 L 247.5621087352931 336.013986013986 L 249.29848198004623 335.83916083916085 L 251.04066249317646 334.61538461538464 L 252.78284300630668 331.99300699300693 L 254.52502351943693 331.4685314685314 L 256.2672040325672 333.5664335664336 L 258.0093845456974 336.013986013986 L 259.7515650588276 340.55944055944053 L 261.4937455719579 348.6013986013986 L 263.23592608508807 336.1888111888112 L 264.98391386659546 335.31468531468533 L 266.72028711134857 340.55944055944053 L 268.4624676244788 339.86013986013984 L 270.20464813760907 333.5664335664336 L 271.94682865073923 331.11888111888106 L 273.6890091638695 330.9440559440559 L 275.43699694537685 328.67132867132864 L 277.17337019012996 332.1678321678322 L 278.91555070326024 335.4895104895105 L 280.6577312163904 337.93706293706293 L 282.3999117295207 334.7902097902098 L 284.1420922426509 326.74825174825173 L 285.8842727557811 323.7762237762238 L 287.6264532689114 317.48251748251744 L 289.36863378204157 319.055944055944 L 291.11081429517185 322.3776223776224 L 292.85299480830207 311.8881118881119 L 294.5951753214323 308.39160839160843 L 296.3373558345626 306.4685314685314 L 298.07953634769274 301.9230769230769 L 299.821716860823 303.49650349650346 L 301.56389737395324 301.04895104895104 L 303.30607788708346 293.8811188811188 L 305.04825840021374 297.02797202797206 L 306.7904389133439 291.60839160839157 L 308.5326194264742 299.8251748251748 L 310.2747999396044 301.9230769230769 L 312.01698045273463 303.49650349650346 L 313.7591609658649 302.97202797202794 L 315.5013414789951 294.23076923076917 L 317.24352199212535 297.5524475524476 L 318.9857025052556 297.3776223776224 L 320.7278830183858 298.0769230769231 L 322.4700635315161 297.3776223776224 L 324.2122440446463 295.4545454545455 L 325.9544245577765 287.4125874125874 L 327.69660507090674 285.31468531468533 L 329.43878558403696 287.76223776223776 L 331.18096609716724 287.76223776223776 L 332.92314661029747 283.91608391608395 L 334.6653271234277 283.5664335664336 L 336.4075076365579 281.81818181818176 L 338.14968814968813 278.3216783216783 L 339.8918686628184 278.3216783216783 L 341.63404917594863 272.9020979020979 L 343.37622968907885 264.86013986013984 L 345.1184102022091 265.2097902097902 L 346.8605907153393 274.12587412587413 L 348.6027712284696 265.2097902097902 L 350.3449517415998 263.46153846153845 L 352.08713225473 265.55944055944053 L 353.8293127678603 266.08391608391605 L 355.57149328099047 261.53846153846155 L 357.31367379412075 267.1328671328671 L 359.05585430725097 261.53846153846155 L 360.7980348203812 255.76923076923075 L 362.54021533351147 255.94405594405592 L 364.28239584664163 246.67832167832168 L 366.0245763597719 250.17482517482514 L 367.76675687290214 249.30069930069928 L 369.50893738603236 247.37762237762237 L 371.25111789916264 247.02797202797203 L 372.9932984122928 250.34965034965032 L 374.7354789254231 247.72727272727272 L 376.4776594385533 242.8321678321678 L 378.2198399516835 236.53846153846152 L 379.9620204648138 231.99300699300701 L 381.70420097794397 230.4195804195804 L 383.44638149107425 228.84615384615384 L 385.18856200420447 221.5034965034965 L 386.9307425173347 230.06993006993005 L 388.672923030465 230.76923076923075 L 390.41510354359514 226.39860139860141 L 392.1572840567254 215.9090909090909 L 393.89946456985564 205.24475524475523 L 395.64164508298586 213.46153846153848 L 397.38382559611614 222.9020979020979 L 399.1260061092463 214.51048951048952 L 400.8681866223766 205.76923076923075 L 402.6103671355068 199.47552447552445 L 404.352547648637 207.6923076923077 L 406.09472816176725 211.013986013986 L 407.83690867489753 206.64335664335667 L 409.57908918802775 206.1188811188811 L 411.321269701158 203.67132867132867 L 413.0634502142882 203.84615384615384 L 414.8056307274184 200.69930069930072 L 416.5478112405487 198.95104895104893 L 418.2899917536789 194.75524475524477 L 420.03217226680914 193.35664335664333 L 421.7801600483165 182.86713286713288 L 423.5165332930696 181.4685314685315 L 425.25871380619986 176.92307692307693 L 427.0008943193301 175.8741258741259 L 428.7430748324603 167.13286713286712 L 430.48525534559053 180.24475524475523 L 432.22743585872075 167.13286713286712 L 433.96961637185103 170.8041958041958 L 435.71179688498125 169.40559440559443 L 437.4539773981115 165.03496503496504 L 439.1961579112417 163.986013986014 L 440.938338424372 151.5734265734266 L 442.6805189375022 149.99999999999997 L 444.4226994506324 149.8251748251748 L 446.16487996376264 150.34965034965037 L 447.90706047689287 137.4125874125874 L 449.64924099002315 138.1118881118881 L 451.39142150315337 151.5734265734266 L 453.1336020162836 154.89510489510488 L 454.8757825294138 152.62237762237763 L 456.61796304254403 141.4335664335664 L 458.36595082405137 137.4125874125874 L 460.10232406880453 129.89510489510485 L 461.84450458193476 125.87412587412587 L 463.5924923634421 134.965034965035 L 465.3288656081952 138.1118881118881 L 467.0710461213255 127.79720279720277 L 468.8132266344557 112.41258741258741 L 470.5554071475859 122.55244755244757 L 472.29758766071615 105.94405594405589 L 474.03976817384637 108.5664335664336 L 475.78194868697665 108.91608391608395 L 477.52412920010687 100 L 479.2663097132371 106.46853146853152 L 481.0084902263673 104.89510489510485 L 482.75067073949754 103.49650349650346 L 484.4928512526278 110.66433566433568 L 486.23503176575804 110.66433566433568 L 487.97721227888826 109.09090909090912 L 489.7193927920185 113.63636363636363 L 491.4615733051487 118.18181818181813 L 493.203753818279 121.50349650349654 L 494.9459343314092 121.15384615384619 L 496.6881148445394 130.9440559440559 L 498.43029535766965 140.55944055944053 L 500.17247587079993 133.5664335664336 L 501.91465638393015 139.5104895104895 L 503.6568368970604 139.16083916083915 L 505.4048246785677 135.13986013986016 L 507.1411979233208 141.60839160839157 L 508.8833784364511 147.2027972027972 L 510.6255589495813 153.67132867132867 L 512.3677394627116 155.06993006993005 L 514.1099199758418 162.2377622377622 L 515.8521004889719 172.9020979020979 L 517.5942810021022 175.8741258741259 L 519.3364615152325 181.1188811188811 L 521.0786420283628 192.3076923076923 L 522.8208225414929 200.8741258741259 L 524.5630030546231 202.62237762237763 L 526.3109908361305 205.59440559440557 L 528.0473640808837 201.74825174825176 L 529.7895445940139 199.30069930069928 L 531.5317251071441 203.84615384615384 L 533.2739056202743 202.7972027972028 L 535.0160861334045 199.30069930069928 L 536.7640739149119 212.76223776223773 L 538.5004471596651 210.3146853146853 L 540.2426276727953 209.26573426573427 L 541.9848081859254 218.00699300699299 L 543.7269886990557 221.85314685314685 L 545.469169212186 223.77622377622376 L 547.2113497253163 225.34965034965032 L 548.9535302384464 221.15384615384616 L 550.6957107515766 220.979020979021 L 552.4378912647069 227.7972027972028 L 554.1800717778372 221.15384615384616 L 555.9222522909674 223.60139860139859 L 557.6644328040976 227.0979020979021 L 559.4066133172278 238.986013986014 L 561.148793830358 235.66433566433565 L 562.8909743434883 231.81818181818184 L 564.6331548566186 240.3846153846154 L 566.3753353697488 231.46853146853144 L 568.117515882879 239.86013986013987 L 569.8596963960092 240.73426573426573 L 571.6018769091395 241.78321678321677 L 573.3440574222698 238.46153846153848 L 575.0862379353999 236.18881118881117 L 576.8284184485302 240.2097902097902 L 578.5705989616604 261.7132867132867 L 580.3127794747907 266.78321678321674 L 582.0549599879209 257.69230769230774 L 583.7971405010511 242.48251748251747 L 585.5393210141814 255.76923076923075 L 587.2815015273115 252.7972027972028 L 589.0236820404418 252.0979020979021 L 590.7658625535721 270.80419580419584 L 592.5080430667023 249.99999999999997 L 594.2502235798326 244.75524475524477 L 595.9924040929627 245.2797202797203 L 597.734584606093 262.06293706293707 L 599.4767651192233 244.75524475524477 L 601.2189456323534 257.51748251748256 L 602.9611261454837 256.29370629370624 L 604.7033066586139 257.8671328671329 L 606.4454871717442 270.10489510489515 L 608.1876676848744 261.8881118881119 L 609.9298481980046 266.9580419580419 L 611.6720287111349 271.32867132867136 L 613.414209224265 281.11888111888106 L 615.1563897373953 280.2447552447552 L 616.8985702505256 277.97202797202794 L 618.6407507636558 286.3636363636364 L 620.382931276786 289.5104895104895 L 622.1251117899162 320.80419580419584 L 623.8672923030465 295.2797202797203 L 625.6094728161768 296.8531468531469 L 627.3516533293069 296.32867132867136 L 629.0938338424372 296.8531468531469 L 630.8360143555674 303.67132867132864 L 632.5781948686977 295.10489510489515 L 634.320375381828 308.91608391608395 L 636.0625558949582 305.06993006993 L 637.8047364080884 304.19580419580416 L 639.5469169212186 305.06993006993 L 641.2890974343488 308.39160839160843 L 643.0312779474791 311.8881118881119 L 644.7734584606094 311.7132867132867 L 646.5156389737396 316.78321678321674 L 648.2578194868697 318.18181818181813 L 650 320.4545454545455 L 650 400 Z" /><text  class="poloto_labels poloto_text poloto_title" alignment-baseline="start" text-anchor="middle" font-size="x-large" x="400" y="37.5" >Total players on 2021-07-28</text><text  class="poloto_labels poloto_text poloto_xname" alignment-baseline="start" text-anchor="middle" font-size="x-large" x="400" y="481.25" >Time</text><text  class="poloto_labels poloto_text poloto_yname" alignment-baseline="start" text-anchor="middle" font-size="x-large" transform="rotate(-90,37.5,250)" x="37.5" y="250" >Count</text><line  class="poloto_axis_lines" stroke="black" x1="208.0436474291223" x2="208.0436474291223" y1="400" y2="405" /><text  class="poloto_tick_labels poloto_text" alignment-baseline="start" text-anchor="middle" x="208.0436474291223" y="430" > 03:00</text><line  class="poloto_axis_lines" stroke="black" x1="266.1163312001301" x2="266.1163312001301" y1="400" y2="405" /><text  class="poloto_tick_labels poloto_text" alignment-baseline="start" text-anchor="middle" x="266.1163312001301" y="430" > 06:00</text><line  class="poloto_axis_lines" stroke="black" x1="324.1890149711379" x2="324.1890149711379" y1="400" y2="405" /><text  class="poloto_tick_labels poloto_text" alignment-baseline="start" text-anchor="middle" x="324.1890149711379" y="430" > 08:00</text><line  class="poloto_axis_lines" stroke="black" x1="382.26169874214565" x2="382.26169874214565" y1="400" y2="405" /><text  class="poloto_tick_labels poloto_text" alignment-baseline="start" text-anchor="middle" x="382.26169874214565" y="430" > 11:00</text><line  class="poloto_axis_lines" stroke="black" x1="440.33438251315346" x2="440.33438251315346" y1="400" y2="405" /><text  class="poloto_tick_labels poloto_text" alignment-baseline="start" text-anchor="middle" x="440.33438251315346" y="430" > 14:00</text><line  class="poloto_axis_lines" stroke="black" x1="498.40706628416126" x2="498.40706628416126" y1="400" y2="405" /><text  class="poloto_tick_labels poloto_text" alignment-baseline="start" text-anchor="middle" x="498.40706628416126" y="430" > 17:00</text><line  class="poloto_axis_lines" stroke="black" x1="556.479750055169" x2="556.479750055169" y1="400" y2="405" /><text  class="poloto_tick_labels poloto_text" alignment-baseline="start" text-anchor="middle" x="556.479750055169" y="430" > 19:00</text><line  class="poloto_axis_lines" stroke="black" x1="614.5524338261769" x2="614.5524338261769" y1="400" y2="405" /><text  class="poloto_tick_labels poloto_text" alignment-baseline="start" text-anchor="middle" x="614.5524338261769" y="430" > 22:00</text><line  class="poloto_axis_lines" stroke="black" x1="150" x2="144" y1="336.8881118881119" y2="336.8881118881119" /><text  class="poloto_tick_labels poloto_text" alignment-baseline="middle" text-anchor="end" x="135" y="336.8881118881119" > 1500</text><line  class="poloto_axis_lines" stroke="black" x1="150" x2="144" y1="249.47552447552448" y2="249.47552447552448" /><text  class="poloto_tick_labels poloto_text" alignment-baseline="middle" text-anchor="end" x="135" y="249.47552447552448" > 2000</text><line  class="poloto_axis_lines" stroke="black" x1="150" x2="144" y1="162.06293706293707" y2="162.06293706293707" /><text  class="poloto_tick_labels poloto_text" alignment-baseline="middle" text-anchor="end" x="135" y="162.06293706293707" > 2500</text><path  stroke="black" fill="none" class="poloto_axis_lines" style="stroke-dasharray:14.518170942751949;stroke-dashoffset:-58.043647429122295;" d=" M 150 400 L 650 400" /><path  stroke="black" fill="none" class="poloto_axis_lines" style="stroke-dasharray:8.741258741258742;stroke-dashoffset:-63.111888111888135;" d=" M 150 400 L 150 100" /></svg>