<svg class="poloto" width="800" height="500" viewBox="0 0 800 500" xmlns="http://www.w3.org/2000/svg"><style>.poloto { stroke-linecap:round; stroke-linejoin:round; font-family: 'Tahoma', sans-serif; background-color: AliceBlue;} .poloto_scatter{stroke-width:7} .poloto_line{stroke-width:2} .poloto_text{fill: black;} .poloto_axis_lines{stroke: black;stroke-width:3;fill:none;stroke-dasharray:none} .poloto0stroke{stroke:  blue;} .poloto1stroke{stroke:  red;} .poloto2stroke{stroke:  green;} .poloto3stroke{stroke:  gold;} .poloto4stroke{stroke:  aqua;} .poloto5stroke{stroke:  lime;} .poloto6stroke{stroke:  orange;} .poloto7stroke{stroke:  chocolate;} .poloto0fill{fill:blue;} .poloto1fill{fill:red;} .poloto2fill{fill:green;} .poloto3fill{fill:gold;} .poloto4fill{fill:aqua;} .poloto5fill{fill:lime;} .poloto6fill{fill:orange;} .poloto7fill{fill:chocolate;}</style><text  class="poloto_text poloto_legend_text" alignment-baseline="middle" text-anchor="start" font-size="large" x="675" y="100" ></text><path  class="poloto_linefill poloto0fill" d=" M 150 400 L 150 326.74418604651163 L 151.74216027874564 331.87414500683997 L 153.4843205574913 332.2845417236662 L 155.22648083623693 335.15731874145007 L 156.96864111498257 334.7469220246238 L 158.71080139372822 337.00410396716825 L 160.45876887340302 338.8508891928865 L 162.1951219512195 345.4172366621067 L 163.93728222996515 353.4199726402189 L 165.6794425087108 361.42270861833106 L 167.42160278745644 364.50068399452806 L 169.16376306620208 376.60738714090286 L 170.90592334494772 364.2954856361149 L 172.64808362369337 365.7318741450068 L 174.390243902439 372.093023255814 L 176.13240418118465 375.17099863201094 L 177.8745644599303 378.24897400820794 L 179.61672473867597 380.3009575923393 L 181.3588850174216 385.22571819425445 L 183.10104529616726 385.6361149110807 L 184.8432055749129 384.1997264021888 L 186.58536585365854 377.01778385772917 L 188.3275261324042 385.0205198358413 L 190.06968641114983 393.4336525307798 L 191.81184668989548 396.7168262653899 L 193.55400696864112 394.66484268125856 L 195.29616724738676 393.6388508891929 L 197.0383275261324 400 L 198.78048780487805 388.7140902872777 L 200.5226480836237 379.890560875513 L 202.26480836236934 378.86456908344735 L 204.00696864111498 376.1969904240766 L 205.74912891986062 380.0957592339261 L 207.49128919860627 383.78932968536253 L 209.2334494773519 389.5348837209302 L 210.97560975609755 386.04651162790697 L 212.7177700348432 394.4596443228454 L 214.45993031358887 385.4309165526676 L 216.2020905923345 380.71135430916553 L 217.94425087108016 382.5581395348837 L 219.6864111498258 379.68536251709986 L 221.42857142857144 377.22298221614227 L 223.17653890824624 377.6333789329685 L 224.91289198606273 374.14500683994527 L 226.65505226480838 376.40218878248976 L 228.39721254355402 372.9138166894665 L 230.13937282229966 373.93980848153217 L 231.8815331010453 361.6279069767442 L 233.62369337979095 355.88235294117646 L 235.3658536585366 362.24350205198357 L 237.10801393728224 364.50068399452806 L 238.85017421602788 358.5499316005472 L 240.59233449477352 352.3939808481532 L 242.33449477351917 347.6744186046512 L 244.0766550522648 357.3187414500684 L 245.81881533101046 350.7523939808482 L 247.5609756097561 343.16005471956225 L 249.30313588850174 338.6456908344733 L 251.0452961672474 336.593707250342 L 252.78745644599303 333.10533515731873 L 254.52961672473867 333.3105335157319 L 256.2717770034843 335.15731874145007 L 258.01393728222996 342.749658002736 L 259.7560975609756 336.3885088919289 L 261.49825783972125 329.6169630642955 L 263.2404181184669 324.6922024623803 L 264.9883855981417 324.89740082079345 L 266.7247386759582 324.4870041039672 L 268.4668989547038 328.5909712722298 L 270.20905923344947 329.4117647058824 L 271.9512195121951 325.3077975376197 L 273.69337979094075 327.7701778385773 L 275.44134727061555 333.515731874145 L 277.17770034843204 328.18057455540355 L 278.9198606271777 326.9493844049248 L 280.6620209059233 334.33652530779756 L 282.40418118466897 329.0013679890561 L 284.1463414634146 330.43775649794804 L 285.88850174216026 327.97537619699045 L 287.6306620209059 331.4637482900137 L 289.37282229965155 329.4117647058824 L 291.1149825783972 322.0246238030096 L 292.85714285714283 329.6169630642955 L 294.5993031358885 325.3077975376197 L 296.3472706155633 315.0478796169631 L 298.08362369337976 307.6607387140903 L 299.82578397212546 302.530779753762 L 301.56794425087105 297.19562243502054 L 303.31010452961675 281.3953488372093 L 305.05226480836234 284.2681258549932 L 306.79442508710804 284.06292749658 L 308.5365853658536 286.11491108071135 L 310.2787456445993 288.9876880984952 L 312.0209059233449 286.73050615595076 L 313.7630662020906 282.421340629275 L 315.5052264808362 278.93296853625174 L 317.2473867595819 271.13543091655265 L 318.9895470383275 274.21340629274965 L 320.7317073170732 275.6497948016416 L 322.4738675958188 267.4418604651163 L 324.2160278745645 266.6210670314638 L 325.95818815331006 270.10943912448704 L 327.70034843205576 262.5170998632011 L 329.44250871080135 256.56634746922026 L 331.18466898954705 246.51162790697674 L 332.92682926829264 247.74281805745557 L 334.66898954703834 251.23119015047882 L 336.4111498257839 241.1764705882353 L 338.1533101045296 243.02325581395348 L 339.8954703832752 240.3556771545828 L 341.6376306620209 236.25170998632012 L 343.3797909407665 226.81258549931601 L 345.1219512195122 225.3761969904241 L 346.86411149825784 222.70861833105334 L 348.6062717770035 222.50341997264024 L 350.34843205574913 215.52667578659373 L 352.0905923344948 217.98905608755132 L 353.8327526132404 222.70861833105334 L 355.57491289198606 220.4514363885089 L 357.3170731707317 217.57865937072506 L 359.0650406504065 216.14227086183314 L 360.801393728223 207.1135430916553 L 362.54355400696863 211.21751025991796 L 364.2857142857143 202.3939808481532 L 366.0278745644599 202.80437756497952 L 367.77003484320556 195.62243502051984 L 369.5121951219512 203.62517099863203 L 371.25435540069685 187.82489740082082 L 372.9965156794425 181.25854993160056 L 374.73867595818814 179.20656634746922 L 376.4808362369338 182.07934336525307 L 378.2229965156794 177.5649794801642 L 379.96515679442507 187.41450068399456 L 381.7073170731707 211.0123119015048 L 383.44947735191636 172.84541723666212 L 385.191637630662 174.89740082079345 L 386.93379790940764 176.94938440492479 L 388.6759581881533 169.7674418604651 L 390.41811846689893 172.0246238030096 L 392.1602787456446 162.17510259917924 L 393.9024390243902 159.09712722298224 L 395.6445993031359 193.3652530779754 L 397.3867595818815 161.76470588235293 L 399.1289198606272 175.3077975376197 L 400.8710801393728 188.44049247606023 L 402.6132404181185 187.82489740082082 L 404.3554006968641 169.97264021887827 L 406.0975609756097 168.53625170998635 L 407.83972125435537 175.92339261285912 L 409.581881533101 164.84268125854993 L 411.32404181184666 161.35430916552667 L 413.0662020905923 160.1231190150479 L 414.80836236933794 177.97537619699045 L 416.5505226480836 161.14911080711357 L 418.29268292682923 167.51025991792068 L 420.0348432055749 168.9466484268126 L 421.7828106852497 177.35978112175104 L 423.5191637630662 166.07387140902875 L 425.26132404181186 159.91792065663475 L 427.0034843205575 157.25034199726406 L 428.74564459930315 158.89192886456908 L 430.4878048780488 148.2216142270862 L 432.22996515679444 142.0656634746922 L 433.9721254355401 139.6032831737346 L 435.7142857142857 144.93844049247605 L 437.45644599303137 145.34883720930236 L 439.198606271777 130.57455540355681 L 440.94076655052265 131.19015047879623 L 442.6829268292683 122.36662106703147 L 444.42508710801394 120.31463748290014 L 446.1672473867596 124.62380300957591 L 447.9094076655052 116.21067031463747 L 449.65156794425087 113.13269493844052 L 451.3937282229965 105.12995896032828 L 453.13588850174216 106.5663474692202 L 454.8780487804878 115.38987688098496 L 456.62020905923345 100 L 458.3623693379791 107.79753761969903 L 460.10452961672473 104.10396716826267 L 461.8466898954704 106.155950752394 L 463.588850174216 106.155950752394 L 465.33101045296166 121.95622435020516 L 467.0731707317073 117.8522571819426 L 468.81533101045295 106.77154582763342 L 470.5574912891986 110.25991792065668 L 472.29965156794424 103.48837209302326 L 474.04761904761904 108.41313269493844 L 475.7839721254355 115.59507523939806 L 477.52613240418117 112.72229822161421 L 479.2682926829268 121.54582763337896 L 481.01045296167246 117.23666210670319 L 482.7526132404181 115.80027359781127 L 484.49477351916374 107.38714090287283 L 486.2369337979094 102.25718194254443 L 487.97909407665503 105.12995896032828 L 489.7212543554007 107.18194254445962 L 491.4634146341463 118.67305061559512 L 493.20557491289196 122.36662106703147 L 494.9477351916376 124.62380300957591 L 496.68989547038325 120.31463748290014 L 498.4320557491289 130.3693570451436 L 500.17421602787454 133.03693570451435 L 501.9163763066202 140.21887824897402 L 503.6585365853658 136.11491108071135 L 505.40069686411147 133.2421340629275 L 507.1428571428571 140.42407660738718 L 508.88501742160275 144.5280437756498 L 510.6271777003484 150.6839945280438 L 512.3693379790941 145.55403556771546 L 514.1114982578397 151.91518467852256 L 515.8536585365853 152.53077975376198 L 517.595818815331 160.328317373461 L 519.3379790940767 172.0246238030096 L 521.0801393728223 175.51299589603286 L 522.822299651568 176.33378932968537 L 524.5644599303137 178.79616963064296 L 526.3066202090592 179.00136798905612 L 528.0487804878048 177.15458276333788 L 529.7909407665505 178.79616963064296 L 531.5331010452962 179.41176470588238 L 533.2752613240418 177.7701778385773 L 535.0174216027874 185.36251709986323 L 536.7595818815331 192.54445964432284 L 538.5017421602788 199.1108071135431 L 540.2439024390244 212.44870041039673 L 541.98606271777 207.52393980848154 L 543.7282229965157 210.1915184678523 L 545.4703832752614 215.73187414500683 L 547.212543554007 223.1190150478796 L 548.9547038327526 229.06976744186045 L 550.6968641114983 229.89056087551302 L 552.439024390244 229.2749658002736 L 554.1811846689895 230.09575923392612 L 555.9233449477351 228.24897400820794 L 557.6655052264808 229.89056087551302 L 559.4076655052265 236.86730506155953 L 561.1498257839721 249.58960328317374 L 562.8919860627177 249.3844049247606 L 564.6341463414634 256.3611491108071 L 566.3763066202091 251.84678522571818 L 568.1184668989547 256.56634746922026 L 569.8606271777003 259.84952120383036 L 571.602787456446 262.31190150478795 L 573.3449477351917 269.9042407660739 L 575.0871080139373 266.4158686730506 L 576.8292682926829 270.93023255813955 L 578.5772357723577 269.6990424076607 L 580.3135888501743 268.0574555403557 L 582.0557491289198 271.9562243502052 L 583.7979094076654 270.5198358413133 L 585.5400696864111 266.6210670314638 L 587.2822299651568 263.3378932968536 L 589.0243902439024 263.7482900136799 L 590.766550522648 262.7222982216142 L 592.5087108013937 261.2859097127223 L 594.2508710801394 258.41313269493844 L 595.993031358885 264.56908344733245 L 597.7351916376306 258.6183310533516 L 599.4773519163763 256.7715458276334 L 601.219512195122 250 L 602.9616724738676 274.4186046511628 L 604.7038327526132 271.54582763337896 L 606.4459930313589 258.8235294117647 L 608.1881533101046 287.75649794801643 L 609.9303135888501 288.7824897400821 L 611.6724738675957 269.4938440492476 L 613.4146341463414 262.31190150478795 L 615.1567944250871 272.3666210670315 L 616.8989547038327 277.4965800273598 L 618.6411149825783 275.85499316005473 L 620.383275261324 280.98495212038307 L 622.1254355400697 280.57455540355676 L 623.8675958188153 284.06292749658 L 625.609756097561 286.3201094391245 L 627.3519163763067 280.7797537619699 L 629.0940766550523 290.01367989056087 L 630.8420441347271 290.218878248974 L 632.5783972125436 301.70998632010946 L 634.3205574912893 310.9439124487004 L 636.0627177700349 310.328317373461 L 637.8048780487804 317.5102599179207 L 639.5470383275261 319.97264021887827 L 641.2891986062718 324.28180574555404 L 643.0313588850174 327.56497948016414 L 644.773519163763 330.8481532147743 L 646.5156794425087 338.44049247606023 L 648.2578397212544 340.2872777017784 L 650 342.33926128590974 L 650 400 Z" /><text  class="poloto_labels poloto_text poloto_title" alignment-baseline="start" text-anchor="middle" font-size="x-large" x="400" y="37.5" >Total players on 2021-08-01</text><text  class="poloto_labels poloto_text poloto_xname" alignment-baseline="start" text-anchor="middle" font-size="x-large" x="400" y="481.25" >Time</text><text  class="poloto_labels poloto_text poloto_yname" alignment-baseline="start" text-anchor="middle" font-size="x-large" transform="rotate(-90,37.5,250)" x="37.5" y="250" >Count</text><line  class="poloto_axis_lines" stroke="black" x1="208.0487804878049" x2="208.0487804878049" y1="400" y2="405" /><text  class="poloto_tick_labels poloto_text" alignment-baseline="start" text-anchor="middle" x="208.0487804878049" y="430" > 03:00</text><line  class="poloto_axis_lines" stroke="black" x1="266.1207897793264" x2="266.1207897793264" y1="400" y2="405" /><text  class="poloto_tick_labels poloto_text" alignment-baseline="start" text-anchor="middle" x="266.1207897793264" y="430" > 06:00</text><line  class="poloto_axis_lines" stroke="black" x1="324.19279907084785" x2="324.19279907084785" y1="400" y2="405" /><text  class="poloto_tick_labels poloto_text" alignment-baseline="start" text-anchor="middle" x="324.19279907084785" y="430" > 08:00</text><line  class="poloto_axis_lines" stroke="black" x1="382.2648083623693" x2="382.2648083623693" y1="400" y2="405" /><text  class="poloto_tick_labels poloto_text" alignment-baseline="start" text-anchor="middle" x="382.2648083623693" y="430" > 11:00</text><line  class="poloto_axis_lines" stroke="black" x1="440.3368176538908" x2="440.3368176538908" y1="400" y2="405" /><text  class="poloto_tick_labels poloto_text" alignment-baseline="start" text-anchor="middle" x="440.3368176538908" y="430" > 14:00</text><line  class="poloto_axis_lines" stroke="black" x1="498.4088269454123" x2="498.4088269454123" y1="400" y2="405" /><text  class="poloto_tick_labels poloto_text" alignment-baseline="start" text-anchor="middle" x="498.4088269454123" y="430" > 17:00</text><line  class="poloto_axis_lines" stroke="black" x1="556.4808362369338" x2="556.4808362369338" y1="400" y2="405" /><text  class="poloto_tick_labels poloto_text" alignment-baseline="start" text-anchor="middle" x="556.4808362369338" y="430" > 19:00</text><line  class="poloto_axis_lines" stroke="black" x1="614.5528455284552" x2="614.5528455284552" y1="400" y2="405" /><text  class="poloto_tick_labels poloto_text" alignment-baseline="start" text-anchor="middle" x="614.5528455284552" y="430" > 22:00</text><line  class="poloto_axis_lines" stroke="black" x1="150" x2="144" y1="336.79890560875515" y2="336.79890560875515" /><text  class="poloto_tick_labels poloto_text" alignment-baseline="middle" text-anchor="end" x="135" y="336.79890560875515" > 1500</text><line  class="poloto_axis_lines" stroke="black" x1="150" x2="144" y1="234.1997264021888" y2="234.1997264021888" /><text  class="poloto_tick_labels poloto_text" alignment-baseline="middle" text-anchor="end" x="135" y="234.1997264021888" > 2000</text><line  class="poloto_axis_lines" stroke="black" x1="150" x2="144" y1="131.60054719562243" y2="131.60054719562243" /><text  class="poloto_tick_labels poloto_text" alignment-baseline="middle" text-anchor="end" x="135" y="131.60054719562243" > 2500</text><path  stroke="black" fill="none" class="poloto_axis_lines" style="stroke-dasharray:14.518002322880372;stroke-dashoffset:-58.04878048780488;" d=" M 150 400 L 650 400" /><path  stroke="black" fill="none" class="poloto_axis_lines" style="stroke-dasharray:10.259917920656635;stroke-dashoffset:-63.20109439124485;" d=" M 150 400 L 150 100" /></svg>