<svg class="poloto" width="800" height="500" viewBox="0 0 800 500" xmlns="http://www.w3.org/2000/svg"><style>.poloto { stroke-linecap:round; stroke-linejoin:round; font-family: 'Tahoma', sans-serif; background-color: AliceBlue;} .poloto_scatter{stroke-width:7} .poloto_line{stroke-width:2} .poloto_text{fill: black;} .poloto_axis_lines{stroke: black;stroke-width:3;fill:none;stroke-dasharray:none} .poloto0stroke{stroke:  blue;} .poloto1stroke{stroke:  red;} .poloto2stroke{stroke:  green;} .poloto3stroke{stroke:  gold;} .poloto4stroke{stroke:  aqua;} .poloto5stroke{stroke:  lime;} .poloto6stroke{stroke:  orange;} .poloto7stroke{stroke:  chocolate;} .poloto0fill{fill:blue;} .poloto1fill{fill:red;} .poloto2fill{fill:green;} .poloto3fill{fill:gold;} .poloto4fill{fill:aqua;} .poloto5fill{fill:lime;} .poloto6fill{fill:orange;} .poloto7fill{fill:chocolate;}</style><text  class="poloto_text poloto_legend_text" alignment-baseline="middle" text-anchor="start" font-size="large" x="675" y="100" ></text><path  class="poloto_linefill poloto0fill" d=" M 150 400 L 150 369.162605228179 L 151.74216027874564 371.55516171909613 L 153.4843205574913 370.4918032786885 L 155.22648083623693 370.2259636685866 L 156.96864111498257 379.39743021710234 L 158.71080139372822 384.5813026140895 L 160.45296167247386 388.70181657066905 L 162.1951219512195 389.23349579087284 L 163.93728222996515 389.63225520602566 L 165.6794425087108 395.4807266282676 L 167.42160278745644 392.1577315019938 L 169.16376306620208 396.0124058484714 L 170.90592334494772 393.7527691626052 L 172.64808362369337 397.20868409393 L 174.390243902439 395.7465662383695 L 176.13240418118465 400 L 177.8745644599303 396.27824545857334 L 179.61672473867597 395.2148870181657 L 181.3588850174216 395.4807266282676 L 183.10104529616726 394.55028799291097 L 184.8432055749129 392.68941072219764 L 186.58536585365854 390.69561364643334 L 188.3275261324042 391.3602126716881 L 190.06968641114983 393.4869295525033 L 191.81184668989548 389.7651750110766 L 193.55400696864112 384.1825431989366 L 195.29616724738676 382.0558263181214 L 197.0383275261324 383.11918475852906 L 198.78048780487805 382.0558263181214 L 200.5226480836237 378.0682321665928 L 202.26480836236934 379.39743021710234 L 204.00696864111498 379.5303500221533 L 205.74912891986062 378.7328311918476 L 207.49128919860627 377.8023925564909 L 209.2334494773519 376.87195392113426 L 210.97560975609755 374.745237040319 L 212.7177700348432 373.81479840496235 L 214.45993031358887 371.28932210899427 L 216.2020905923345 364.6433318564466 L 217.94425087108016 365.17501107665043 L 219.6864111498258 355.8706247230837 L 221.42857142857144 351.8830305715552 L 223.1707317073171 351.35135135135135 L 224.91289198606273 347.2308373947718 L 226.65505226480838 347.76251661497565 L 228.39721254355402 343.3761630482942 L 230.13937282229966 340.18608772707137 L 231.8815331010453 341.3823659725299 L 233.62369337979095 341.116526362428 L 235.3658536585366 340.7177669472751 L 237.10801393728224 339.52148870181657 L 238.85017421602788 335.1351351351351 L 240.59233449477352 333.67301727957465 L 242.33449477351917 333.1413380593708 L 244.0766550522648 331.2804607886575 L 245.81881533101046 327.2928666371289 L 247.5609756097561 320.1151971643775 L 249.30313588850174 317.58972086840936 L 251.0452961672474 321.311475409836 L 252.78745644599303 319.84935755427557 L 254.52961672473867 317.7226406734603 L 256.2717770034843 314.5325653522375 L 258.01393728222996 314.1338059370846 L 259.7560975609756 315.33008418254315 L 261.49825783972125 308.41825431989366 L 263.2404181184669 307.0890562693841 L 264.98257839721254 306.2915374390784 L 266.7247386759582 306.9561364643332 L 268.4668989547038 306.42445724412937 L 270.20905923344947 306.0256978289765 L 271.9512195121951 307.35489587948604 L 273.69337979094075 311.74124944616744 L 275.4355400696864 308.6840939299956 L 277.17770034843204 309.3486929552503 L 278.91986062717774 313.070447496677 L 280.6620209059233 304.696499778467 L 282.404181184669 313.3362871067789 L 284.1463414634146 314.66548515728846 L 285.8885017421603 326.09658839167037 L 287.6306620209059 306.42445724412937 L 289.3728222996516 304.2977403633141 L 291.1149825783972 301.90518387239695 L 292.8571428571429 298.31634913602124 L 294.5993031358885 296.32255206025695 L 296.3414634146342 289.8094816127603 L 298.08362369337976 283.69517058041646 L 299.82578397212546 291.8032786885246 L 301.56794425087105 284.89144882587505 L 303.31010452961675 283.0305715551617 L 305.05226480836234 277.84669915817454 L 306.79442508710804 274.52370403190076 L 308.5365853658536 263.8901196278245 L 310.2787456445993 264.5547186530793 L 312.0209059233449 266.9472751439964 L 313.7630662020906 270.5361098803722 L 315.5052264808362 268.143553389455 L 317.2473867595819 268.67523260965885 L 318.9895470383275 271.86530793088167 L 320.7317073170732 274.3907842268498 L 322.4738675958188 271.06778910057596 L 324.2160278745645 273.1945059813912 L 325.9581881533101 270.66902968542314 L 327.70034843205576 265.48515728843597 L 329.4425087108014 262.95968099246784 L 331.18466898954705 262.42800177226405 L 332.9268292682927 258.57332742578643 L 334.66898954703834 258.7062472308374 L 336.411149825784 258.83916703588835 L 338.1533101045296 258.44040762073547 L 339.89547038327527 257.5099689853788 L 341.6376306620209 256.4466105449712 L 343.37979094076655 254.85157288435977 L 345.1219512195122 257.1112095702259 L 346.86411149825784 247.80682321665927 L 348.6062717770035 244.8825875055383 L 350.34843205574913 242.49003101462114 L 352.0905923344948 244.21798848028357 L 353.8327526132404 238.76827647319448 L 355.57491289198606 236.90739920248114 L 357.3170731707317 231.32476739034115 L 359.05923344947735 230.26140894993353 L 360.801393728223 235.4452813469207 L 362.54355400696863 237.8378378378378 L 364.2857142857143 232.52104563579974 L 366.0278745644599 229.9955693398316 L 367.77003484320556 231.72352680549398 L 369.5121951219512 230.7930881701373 L 371.25435540069685 232.25520602569782 L 372.9965156794425 231.72352680549398 L 374.73867595818814 229.06513070447494 L 376.4808362369338 223.88125830748777 L 378.2229965156795 240.09747452370402 L 379.96515679442507 218.83030571555162 L 381.70731707317077 214.975631369074 L 383.44947735191636 208.06380150642445 L 385.19163763066206 209.12715994683208 L 386.93379790940764 209.39299955693394 L 388.67595818815334 203.81036774479395 L 390.41811846689893 203.01284891448825 L 392.16027874564463 206.60168365086395 L 393.9024390243902 205.80416482055824 L 395.6445993031359 203.01284891448825 L 397.3867595818815 212.45015507310586 L 399.1289198606272 210.19051838723965 L 400.8710801393728 207.5321222862206 L 402.6132404181185 206.86752326096587 L 404.3554006968641 208.32964111652632 L 406.0975609756098 215.1085511741249 L 407.8397212543554 209.79175897208682 L 409.58188153310107 205.53832521045632 L 411.3240418118467 204.4749667700487 L 413.06620209059236 203.01284891448825 L 414.808362369338 200.75321222862203 L 416.55052264808364 201.55073105892774 L 418.2926829268293 208.06380150642445 L 420.03484320557493 206.33584404076203 L 421.7770034843206 213.1147540983606 L 423.5191637630662 206.07000443066016 L 425.26132404181186 201.81657066902966 L 427.0034843205575 205.9370846256092 L 428.74564459930315 203.27868852459017 L 430.4878048780488 200.886132033673 L 432.22996515679444 197.96189632255204 L 433.9721254355401 190.2525476295968 L 435.7142857142857 187.19539211342487 L 437.45644599303137 179.48604342046963 L 439.198606271777 180.0177226406734 L 440.94076655052265 170.048737261852 L 442.6829268292683 174.70093043863534 L 444.42508710801394 169.51705804164817 L 446.1672473867596 172.1754541426672 L 447.9094076655052 156.88967656180768 L 449.65156794425087 147.85112981834288 L 451.3937282229965 146.25609215773147 L 453.13588850174216 148.64864864864865 L 454.8780487804878 133.49579087284002 L 456.62020905923345 129.37527691626047 L 458.3623693379791 130.03987594151528 L 460.10452961672473 128.8435976960567 L 461.8466898954704 114.08949933540094 L 463.588850174216 113.55782011519716 L 465.33101045296166 121.66592822330523 L 467.0731707317073 121.00132919805048 L 468.81533101045295 112.62738147984044 L 470.5574912891986 110.36774479397428 L 472.29965156794424 113.29198050509524 L 474.0418118466899 115.5516171909614 L 475.7839721254355 114.08949933540094 L 477.52613240418117 106.77891005759852 L 479.2682926829268 104.91803278688519 L 481.01045296167246 102.65839610101904 L 482.7526132404181 102.25963668586616 L 484.49477351916374 105.31679220203807 L 486.2369337979094 101.19627824545853 L 487.97909407665503 99.99999999999994 L 489.7212543554007 105.98139122729282 L 491.4634146341463 103.45591493132474 L 493.20557491289196 106.64599025254762 L 494.9477351916376 114.48825875055383 L 496.68989547038325 113.82365972529902 L 498.4320557491289 119.14045192733715 L 500.17421602787454 116.2162162162162 L 501.91637630662024 118.74169251218427 L 503.6585365853659 134.55914931324764 L 505.4006968641115 125.52060256978285 L 507.14285714285717 128.71067789100573 L 508.8850174216028 133.2299512627381 L 510.62717770034845 138.81258307487815 L 512.3693379790941 143.59769605671244 L 514.1114982578397 142.5343376163048 L 515.8536585365854 138.54674346477623 L 517.5958188153311 142.93309703145763 L 519.3379790940767 145.8573327425786 L 521.0801393728223 154.49712007089056 L 522.822299651568 157.55427558706242 L 524.5644599303137 159.01639344262293 L 526.3066202090592 170.44749667700484 L 528.0487804878048 173.6375719982277 L 529.7909407665505 170.44749667700484 L 531.5331010452962 171.3779353123615 L 533.2752613240418 186.13203367301725 L 535.0174216027874 180.4164820558263 L 536.7595818815331 192.11342490031012 L 538.5017421602788 196.23393885688967 L 540.2439024390244 209.5259193619849 L 541.98606271777 214.84271156402303 L 543.7282229965157 208.32964111652632 L 545.4703832752614 209.39299955693394 L 547.212543554007 214.04519273371733 L 548.9547038327526 222.68498006202924 L 550.6968641114983 226.53965440850686 L 552.439024390244 217.89986708019495 L 554.1811846689895 220.29242357111207 L 555.9233449477351 219.09614532565348 L 557.6655052264808 229.06513070447494 L 559.4076655052265 224.28001772264065 L 561.1498257839721 227.47009304386353 L 562.8919860627177 233.85024368630923 L 564.6341463414634 235.5782011519716 L 566.3763066202091 235.97696056712448 L 568.1184668989547 236.37571998227736 L 569.8606271777003 241.69251218431543 L 571.602787456446 246.21178555604786 L 573.3449477351917 247.6739034116083 L 575.0871080139373 250.4652193176783 L 576.8292682926829 253.2565352237483 L 578.5714285714286 249.53478068232164 L 580.3135888501743 249.6677004873726 L 582.0557491289198 250.4652193176783 L 583.7979094076654 250.33229951262734 L 585.5400696864111 247.6739034116083 L 587.2822299651568 257.64288879042977 L 589.0243902439024 262.82676118741693 L 590.766550522648 265.21931767833405 L 592.5087108013937 280.23925564909166 L 594.2508710801394 275.32122286220647 L 595.993031358885 269.6056712450155 L 597.7351916376306 277.84669915817454 L 599.4773519163763 280.7709348692955 L 601.219512195122 284.6256092157731 L 602.9616724738676 281.70137350465217 L 604.7038327526133 284.22684980062024 L 606.445993031359 287.15108551174126 L 608.1881533101046 286.88524590163934 L 609.9303135888501 289.8094816127603 L 611.6724738675958 301.772264067346 L 613.4146341463415 299.6455471865308 L 615.1567944250871 302.96854231280463 L 616.8989547038327 304.56357997341604 L 618.6411149825784 305.89277802392553 L 620.3832752613241 320.3810367744794 L 622.1254355400697 318.5201595037661 L 623.8675958188153 318.25431989366416 L 625.609756097561 320.77979618963224 L 627.3519163763067 327.6916260522818 L 629.0940766550523 336.5972529906956 L 630.8362369337979 339.92024811696945 L 632.5783972125436 340.0531679220204 L 634.3205574912893 348.0283562250775 L 636.0627177700349 352.0159503766061 L 637.8048780487804 352.68054940186084 L 639.5470383275261 355.33894550287994 L 641.2891986062718 363.97873283119185 L 643.0313588850174 369.42844483828094 L 644.773519163763 371.6880815241471 L 646.5156794425087 369.42844483828094 L 648.2578397212544 366.6371289322109 L 650 370.4918032786885 L 650 400 Z" /><text  class="poloto_labels poloto_text poloto_title" alignment-baseline="start" text-anchor="middle" font-size="x-large" x="400" y="37.5" >Total players on 2021-09-20</text><text  class="poloto_labels poloto_text poloto_xname" alignment-baseline="start" text-anchor="middle" font-size="x-large" x="400" y="481.25" >Time</text><text  class="poloto_labels poloto_text poloto_yname" alignment-baseline="start" text-anchor="middle" font-size="x-large" transform="rotate(-90,37.5,250)" x="37.5" y="250" >Count</text><line  class="poloto_axis_lines" stroke="black" x1="150" x2="150" y1="400" y2="405" /><text  class="poloto_tick_labels poloto_text" alignment-baseline="start" text-anchor="middle" x="150" y="430" > 00:00</text><line  class="poloto_axis_lines" stroke="black" x1="266.14401858304296" x2="266.14401858304296" y1="400" y2="405" /><text  class="poloto_tick_labels poloto_text" alignment-baseline="start" text-anchor="middle" x="266.14401858304296" y="430" > 06:00</text><line  class="poloto_axis_lines" stroke="black" x1="382.2880371660859" x2="382.2880371660859" y1="400" y2="405" /><text  class="poloto_tick_labels poloto_text" alignment-baseline="start" text-anchor="middle" x="382.2880371660859" y="430" > 11:00</text><line  class="poloto_axis_lines" stroke="black" x1="498.4320557491289" x2="498.4320557491289" y1="400" y2="405" /><text  class="poloto_tick_labels poloto_text" alignment-baseline="start" text-anchor="middle" x="498.4320557491289" y="430" > 17:00</text><line  class="poloto_axis_lines" stroke="black" x1="614.5760743321719" x2="614.5760743321719" y1="400" y2="405" /><text  class="poloto_tick_labels poloto_text" alignment-baseline="start" text-anchor="middle" x="614.5760743321719" y="430" > 22:00</text><line  class="poloto_axis_lines" stroke="black" x1="150" x2="144" y1="336.1984935755428" y2="336.1984935755428" /><text  class="poloto_tick_labels poloto_text" alignment-baseline="middle" text-anchor="end" x="135" y="336.1984935755428" > 1500</text><line  class="poloto_axis_lines" stroke="black" x1="150" x2="144" y1="269.7385910500664" y2="269.7385910500664" /><text  class="poloto_tick_labels poloto_text" alignment-baseline="middle" text-anchor="end" x="135" y="269.7385910500664" > 2000</text><line  class="poloto_axis_lines" stroke="black" x1="150" x2="144" y1="203.27868852459017" y2="203.27868852459017" /><text  class="poloto_tick_labels poloto_text" alignment-baseline="middle" text-anchor="end" x="135" y="203.27868852459017" > 2500</text><line  class="poloto_axis_lines" stroke="black" x1="150" x2="144" y1="136.81878599911386" y2="136.81878599911386" /><text  class="poloto_tick_labels poloto_text" alignment-baseline="middle" text-anchor="end" x="135" y="136.81878599911386" > 3000</text><path  stroke="black" fill="none" class="poloto_axis_lines" style="stroke-dasharray:14.518002322880372;stroke-dashoffset:-0;" d=" M 150 400 L 650 400" /><path  stroke="black" fill="none" class="poloto_axis_lines" style="stroke-dasharray:6.645990252547631;stroke-dashoffset:-63.801506424457244;" d=" M 150 400 L 150 100" /></svg>