<svg class="poloto" width="800" height="500" viewBox="0 0 800 500" xmlns="http://www.w3.org/2000/svg"><style>.poloto { stroke-linecap:round; stroke-linejoin:round; font-family: 'Tahoma', sans-serif; background-color: AliceBlue;} .poloto_scatter{stroke-width:7} .poloto_line{stroke-width:2} .poloto_text{fill: black;} .poloto_axis_lines{stroke: black;stroke-width:3;fill:none;stroke-dasharray:none} .poloto0stroke{stroke:  blue;} .poloto1stroke{stroke:  red;} .poloto2stroke{stroke:  green;} .poloto3stroke{stroke:  gold;} .poloto4stroke{stroke:  aqua;} .poloto5stroke{stroke:  lime;} .poloto6stroke{stroke:  orange;} .poloto7stroke{stroke:  chocolate;} .poloto0fill{fill:blue;} .poloto1fill{fill:red;} .poloto2fill{fill:green;} .poloto3fill{fill:gold;} .poloto4fill{fill:aqua;} .poloto5fill{fill:lime;} .poloto6fill{fill:orange;} .poloto7fill{fill:chocolate;}</style><text  class="poloto_text poloto_legend_text" alignment-baseline="middle" text-anchor="start" font-size="large" x="675" y="100" ></text><path  class="poloto_linefill poloto0fill" d=" M 150 400 L 150 369.2745376955903 L 151.74216027874564 372.97297297297297 L 153.4843205574913 370.9815078236131 L 155.22648083623693 372.68847795163583 L 156.97444831591173 372.68847795163583 L 158.71660859465737 376.2446657183499 L 160.45296167247386 373.8264580369844 L 162.1951219512195 374.11095305832146 L 163.9430894308943 374.25320056899 L 165.6794425087108 372.11948790896156 L 167.42160278745644 372.4039829302987 L 169.16376306620208 377.6671408250355 L 170.90592334494772 376.6714082503556 L 172.64808362369337 380.79658605974396 L 174.390243902439 384.49502133712656 L 176.13240418118465 384.2105263157895 L 177.8745644599303 383.49928876244667 L 179.61672473867597 386.3442389758179 L 181.3588850174216 387.33997155049786 L 183.10104529616726 387.0554765291607 L 184.8432055749129 389.0469416785206 L 186.58536585365854 389.4736842105263 L 188.3275261324042 394.0256045519203 L 190.06968641114983 394.7368421052631 L 191.81184668989548 397.15504978662875 L 193.55400696864112 400 L 195.29616724738676 395.3058321479374 L 197.0383275261324 391.74964438122333 L 198.78048780487805 390.7539118065434 L 200.5226480836237 391.3229018492176 L 202.26480836236934 388.47795163584635 L 204.00696864111498 387.9089615931721 L 205.74912891986062 390.3271692745377 L 207.49128919860627 382.3613086770981 L 209.2334494773519 388.6201991465149 L 210.97560975609755 380.9388335704125 L 212.7177700348432 381.22332859174963 L 214.45993031358887 379.08961593172114 L 216.2020905923345 377.0981507823613 L 217.94425087108016 378.37837837837833 L 219.69221835075496 368.9900426742532 L 221.42857142857144 370.12802275960166 L 223.17653890824624 365.57610241820765 L 224.91289198606273 369.70128022759604 L 226.65505226480838 363.72688477951635 L 228.39721254355402 363.8691322901849 L 230.13937282229966 361.5931721194879 L 231.8815331010453 359.74395448079656 L 233.62369337979095 356.8990042674253 L 235.3658536585366 356.7567567567568 L 237.10801393728224 352.9160739687055 L 238.85017421602788 351.77809388335703 L 240.59233449477352 347.7951635846373 L 242.33449477351917 352.06258890469417 L 244.0766550522648 348.9331436699857 L 245.81881533101046 345.0924608819346 L 247.5609756097561 346.5149359886202 L 249.30313588850174 341.25177809388333 L 251.0452961672474 338.69132290184916 L 252.78745644599303 338.69132290184916 L 254.53542392566783 334.56614509246083 L 256.2717770034843 334.28165007112375 L 258.01393728222996 330.1564722617354 L 259.7560975609756 325.32005689900427 L 261.49825783972125 327.59601706970125 L 263.2404181184669 322.3328591749644 L 264.9883855981417 321.6216216216216 L 266.7247386759582 323.18634423897583 L 268.4668989547038 325.4623044096728 L 270.20905923344947 325.74679943100995 L 271.9512195121951 331.00995732574677 L 273.69337979094075 337.55334281650073 L 275.44134727061555 334.850640113798 L 277.17770034843204 332.71692745376953 L 278.9198606271777 338.12233285917495 L 280.6620209059233 340.68278805120906 L 282.40418118466897 347.93741109530583 L 284.1463414634146 342.8165007112375 L 285.88850174216026 342.5320056899004 L 287.6306620209059 339.8293029871977 L 289.37282229965155 333.7126600284495 L 291.1149825783972 328.87624466571833 L 292.85714285714283 325.32005689900427 L 294.5993031358885 330.5832147937411 L 296.3414634146342 329.302987197724 L 298.08362369337976 326.0312944523471 L 299.82578397212546 325.4623044096728 L 301.56794425087105 324.60881934566146 L 303.31010452961675 318.34992887624463 L 305.05226480836234 316.7852062588904 L 306.79442508710804 315.647226173542 L 308.5365853658536 319.7724039829303 L 310.2787456445993 316.0739687055476 L 312.0209059233449 316.2162162162162 L 313.7630662020906 314.93598862019917 L 315.5052264808362 309.81507823613083 L 317.2473867595819 301.7069701280227 L 318.9895470383275 299.7155049786628 L 320.7317073170732 296.3015647226173 L 322.4738675958188 295.16358463726885 L 324.2160278745645 291.6073968705548 L 325.95818815331006 284.49502133712656 L 327.70034843205576 280.6543385490754 L 329.44250871080135 283.6415362731152 L 331.18466898954705 280.6543385490754 L 332.92682926829264 276.81365576102417 L 334.66898954703834 279.08961593172114 L 336.4111498257839 280.79658605974396 L 338.1533101045296 277.524893314367 L 339.8954703832752 275.39118065433854 L 341.6376306620209 274.82219061166427 L 343.3797909407665 277.9516358463727 L 345.1219512195122 271.977240398293 L 346.86411149825784 267.9943100995732 L 348.6062717770035 266.00284495021333 L 350.34843205574913 266.71408250355614 L 352.0905923344948 262.5889046941678 L 353.8327526132404 263.3001422475106 L 355.57491289198606 261.4509246088194 L 357.3170731707317 257.8947368421052 L 359.05923344947735 259.03271692745375 L 360.801393728223 256.33001422475104 L 362.54355400696863 254.9075391180654 L 364.2857142857143 257.1834992887624 L 366.0278745644599 251.63584637268846 L 367.77003484320556 247.79516358463727 L 369.51800232288036 240.82503556187763 L 371.25435540069685 240.82503556187763 L 372.9965156794425 238.54907539118065 L 374.73867595818814 240.11379800853481 L 376.4808362369338 227.31152204836414 L 378.2229965156794 221.76386913229018 L 379.96515679442507 217.3541963015647 L 381.7073170731707 215.64722617354195 L 383.44947735191636 211.37980085348502 L 385.191637630662 204.40967283072544 L 386.93379790940764 205.68990042674253 L 388.6759581881533 211.37980085348502 L 390.4239256678281 215.22048364153622 L 392.1602787456446 217.92318634423893 L 393.9024390243902 214.651493598862 L 395.6445993031359 214.79374110953054 L 397.3867595818815 219.3456614509246 L 399.1289198606272 214.5092460881934 L 400.876887340302 215.7894736842105 L 402.6132404181185 225.60455192034138 L 404.3554006968641 208.96159317211945 L 406.0975609756097 212.80227596017065 L 407.83972125435537 207.11237553342815 L 409.581881533101 209.2460881934566 L 411.32404181184666 205.9743954480796 L 413.0662020905923 207.3968705547653 L 414.80836236933794 192.8876244665718 L 416.5505226480836 193.0298719772404 L 418.29268292682923 187.9089615931721 L 420.0348432055749 181.3655761024182 L 421.7770034843206 190.75391180654336 L 423.5191637630662 182.64580369843523 L 425.26132404181186 181.50782361308674 L 427.0034843205575 184.21052631578945 L 428.74564459930315 182.78805120910383 L 430.4878048780488 181.08108108108107 L 432.2357723577236 185.2062588904694 L 433.9721254355401 178.6628733997155 L 435.7142857142857 177.09815078236127 L 437.45644599303137 171.977240398293 L 439.198606271777 165.4338549075391 L 440.94076655052265 162.44665718349924 L 442.68873403019745 162.01991465149356 L 444.42508710801394 156.89900426742528 L 446.1672473867596 153.0583214793741 L 447.9094076655052 147.36842105263153 L 449.65156794425087 144.38122332859174 L 451.3937282229965 144.66571834992882 L 453.1416957026713 144.52347083926028 L 454.8780487804878 149.50213371266003 L 456.62020905923345 144.95021337126596 L 458.3623693379791 141.67852062588906 L 460.10452961672473 132.85917496443813 L 461.8466898954704 127.59601706970125 L 463.588850174216 124.75106685633 L 465.33101045296166 125.46230440967281 L 467.0731707317073 125.32005689900427 L 468.81533101045295 124.60881934566146 L 470.5574912891986 128.7339971550498 L 472.29965156794424 123.89758179231865 L 474.0418118466899 115.22048364153625 L 475.7839721254355 110.66856330014218 L 477.52613240418117 105.40540540540542 L 479.2682926829268 102.13371266002844 L 481.01045296167246 100.28449502133708 L 482.7526132404181 100 L 484.49477351916374 106.68563300142239 L 486.2369337979094 109.53058321479375 L 487.97909407665503 118.63442389758177 L 489.7212543554007 118.91891891891885 L 491.4634146341463 120.62588904694167 L 493.20557491289196 129.01849217638687 L 494.95354239256676 135.1351351351351 L 496.68989547038325 135.70412517780937 L 498.4320557491289 138.8335704125177 L 500.17421602787454 137.126600284495 L 501.9163763066202 135.56187766714083 L 503.6585365853658 138.26458036984354 L 505.4065040650406 145.09246088193456 L 507.1428571428571 152.4893314366998 L 508.88501742160275 159.88620199146513 L 510.6271777003484 168.99004267425315 L 512.3693379790941 168.56330014224747 L 514.1114982578397 173.82645803698435 L 515.8594657375145 179.08961593172117 L 517.595818815331 181.93456614509242 L 519.3379790940767 189.0469416785206 L 521.0801393728223 189.47368421052627 L 522.822299651568 188.76244665718346 L 524.5644599303137 195.44807965860596 L 526.3066202090592 207.53911806543383 L 528.0487804878048 213.65576102418206 L 529.7909407665505 219.48790896159315 L 531.5331010452962 218.20768136557606 L 533.2752613240418 227.16927453769554 L 535.0174216027874 233.85490753911805 L 536.7595818815331 231.578947368421 L 538.5017421602788 239.26031294452346 L 540.2439024390244 239.5448079658606 L 541.98606271777 242.67425320056898 L 543.7282229965157 241.3940256045519 L 545.4703832752614 238.83357041251773 L 547.212543554007 238.40682788051205 L 548.9547038327526 239.26031294452346 L 550.6968641114983 243.2432432432432 L 552.439024390244 244.66571834992888 L 554.1811846689895 245.2347083926031 L 555.9233449477351 252.34708392603127 L 557.6655052264808 249.9288762446657 L 559.4076655052265 248.36415362731148 L 561.1498257839721 251.9203413940256 L 562.8919860627177 257.1834992887624 L 564.6341463414634 286.77098150782365 L 566.3763066202091 265.00711237553344 L 568.1184668989547 265.8605974395448 L 569.8606271777003 270.69701280227594 L 571.602787456446 270.5547652916074 L 573.3449477351917 270.8392603129445 L 575.0871080139373 269.41678520625885 L 576.8292682926829 266.42958748221906 L 578.5772357723577 270.981507823613 L 580.3135888501743 273.2574679943101 L 582.0557491289198 275.5334281650071 L 583.7979094076654 275.9601706970128 L 585.5400696864111 280.2275960170697 L 587.2822299651568 275.39118065433854 L 589.0243902439024 279.2318634423897 L 590.766550522648 280.6543385490754 L 592.5087108013937 279.6586059743954 L 594.2508710801394 282.50355618776666 L 595.993031358885 280.79658605974396 L 597.7351916376306 280.6543385490754 L 599.4773519163763 278.9473684210526 L 601.219512195122 280.51209103840677 L 602.9616724738676 288.1934566145093 L 604.7038327526132 291.18065433854906 L 606.4459930313589 297.43954480796583 L 608.1881533101046 300.14224751066854 L 609.9303135888501 305.83214793741104 L 611.6724738675957 308.1081081081081 L 613.4146341463414 311.52204836415365 L 615.1567944250871 307.82361308677093 L 616.8989547038327 305.54765291607396 L 618.6411149825783 311.0953058321479 L 620.383275261324 312.375533428165 L 622.1254355400697 314.08250355618776 L 623.8675958188153 314.3669985775249 L 625.609756097561 317.6386913229018 L 627.3519163763067 326.60028449502136 L 629.0940766550523 326.1735419630156 L 630.8362369337979 326.31578947368416 L 632.5783972125436 329.302987197724 L 634.3205574912893 325.60455192034135 L 636.0627177700349 324.60881934566146 L 637.8048780487804 331.4366998577525 L 639.5470383275261 337.8378378378378 L 641.2950058072009 339.54480796586057 L 643.0313588850174 341.39402560455187 L 644.773519163763 342.67425320056896 L 646.5156794425087 346.0881934566145 L 648.2578397212544 351.35135135135135 L 650 351.35135135135135 L 650 400 Z" /><text  class="poloto_labels poloto_text poloto_title" alignment-baseline="start" text-anchor="middle" font-size="x-large" x="400" y="37.5" >Total players on 2021-08-12</text><text  class="poloto_labels poloto_text poloto_xname" alignment-baseline="start" text-anchor="middle" font-size="x-large" x="400" y="481.25" >Time</text><text  class="poloto_labels poloto_text poloto_yname" alignment-baseline="start" text-anchor="middle" font-size="x-large" transform="rotate(-90,37.5,250)" x="37.5" y="250" >Count</text><line  class="poloto_axis_lines" stroke="black" x1="208.0487804878049" x2="208.0487804878049" y1="400" y2="405" /><text  class="poloto_tick_labels poloto_text" alignment-baseline="start" text-anchor="middle" x="208.0487804878049" y="430" > 02:46:40</text><line  class="poloto_axis_lines" stroke="black" x1="266.1207897793264" x2="266.1207897793264" y1="400" y2="405" /><text  class="poloto_tick_labels poloto_text" alignment-baseline="start" text-anchor="middle" x="266.1207897793264" y="430" > 05:33:20</text><line  class="poloto_axis_lines" stroke="black" x1="324.19279907084785" x2="324.19279907084785" y1="400" y2="405" /><text  class="poloto_tick_labels poloto_text" alignment-baseline="start" text-anchor="middle" x="324.19279907084785" y="430" > 08:20:00</text><line  class="poloto_axis_lines" stroke="black" x1="382.2648083623693" x2="382.2648083623693" y1="400" y2="405" /><text  class="poloto_tick_labels poloto_text" alignment-baseline="start" text-anchor="middle" x="382.2648083623693" y="430" > 11:06:40</text><line  class="poloto_axis_lines" stroke="black" x1="440.3368176538908" x2="440.3368176538908" y1="400" y2="405" /><text  class="poloto_tick_labels poloto_text" alignment-baseline="start" text-anchor="middle" x="440.3368176538908" y="430" > 13:53:20</text><line  class="poloto_axis_lines" stroke="black" x1="498.4088269454123" x2="498.4088269454123" y1="400" y2="405" /><text  class="poloto_tick_labels poloto_text" alignment-baseline="start" text-anchor="middle" x="498.4088269454123" y="430" > 16:40:00</text><line  class="poloto_axis_lines" stroke="black" x1="556.4808362369338" x2="556.4808362369338" y1="400" y2="405" /><text  class="poloto_tick_labels poloto_text" alignment-baseline="start" text-anchor="middle" x="556.4808362369338" y="430" > 19:26:40</text><line  class="poloto_axis_lines" stroke="black" x1="614.5528455284552" x2="614.5528455284552" y1="400" y2="405" /><text  class="poloto_tick_labels poloto_text" alignment-baseline="start" text-anchor="middle" x="614.5528455284552" y="430" > 22:13:20</text><line  class="poloto_axis_lines" stroke="black" x1="150" x2="144" y1="354.6230440967283" y2="354.6230440967283" /><text  class="poloto_tick_labels poloto_text" alignment-baseline="middle" text-anchor="end" x="135" y="354.6230440967283" > 1500</text><line  class="poloto_axis_lines" stroke="black" x1="150" x2="144" y1="283.49928876244667" y2="283.49928876244667" /><text  class="poloto_tick_labels poloto_text" alignment-baseline="middle" text-anchor="end" x="135" y="283.49928876244667" > 2000</text><line  class="poloto_axis_lines" stroke="black" x1="150" x2="144" y1="212.375533428165" y2="212.375533428165" /><text  class="poloto_tick_labels poloto_text" alignment-baseline="middle" text-anchor="end" x="135" y="212.375533428165" > 2500</text><line  class="poloto_axis_lines" stroke="black" x1="150" x2="144" y1="141.25177809388333" y2="141.25177809388333" /><text  class="poloto_tick_labels poloto_text" alignment-baseline="middle" text-anchor="end" x="135" y="141.25177809388333" > 3000</text><path  stroke="black" fill="none" class="poloto_axis_lines" style="stroke-dasharray:14.518002322880372;stroke-dashoffset:-58.04878048780488;" d=" M 150 400 L 650 400" /><path  stroke="black" fill="none" class="poloto_axis_lines" style="stroke-dasharray:7.112375533428166;stroke-dashoffset:-45.37695590327172;" d=" M 150 400 L 150 100" /></svg>