<svg class="poloto" width="800" height="500" viewBox="0 0 800 500" xmlns="http://www.w3.org/2000/svg"><style>.poloto { stroke-linecap:round; stroke-linejoin:round; font-family: 'Tahoma', sans-serif; background-color: AliceBlue;} .poloto_scatter{stroke-width:7} .poloto_line{stroke-width:2} .poloto_text{fill: black;} .poloto_axis_lines{stroke: black;stroke-width:3;fill:none;stroke-dasharray:none} .poloto0stroke{stroke:  blue;} .poloto1stroke{stroke:  red;} .poloto2stroke{stroke:  green;} .poloto3stroke{stroke:  gold;} .poloto4stroke{stroke:  aqua;} .poloto5stroke{stroke:  lime;} .poloto6stroke{stroke:  orange;} .poloto7stroke{stroke:  chocolate;} .poloto0fill{fill:blue;} .poloto1fill{fill:red;} .poloto2fill{fill:green;} .poloto3fill{fill:gold;} .poloto4fill{fill:aqua;} .poloto5fill{fill:lime;} .poloto6fill{fill:orange;} .poloto7fill{fill:chocolate;}</style><text  class="poloto_text poloto_legend_text" alignment-baseline="middle" text-anchor="start" font-size="large" x="675" y="100" ></text><path  class="poloto_linefill poloto0fill" d=" M 150 400 L 150 319.89342806394313 L 151.74216027874564 324.5115452930728 L 153.4843205574913 327.886323268206 L 155.22648083623693 326.2877442273534 L 156.96864111498257 329.30728241563054 L 158.71080139372822 337.3001776198934 L 160.45296167247386 339.7868561278863 L 162.1951219512195 341.20781527531085 L 163.93728222996515 342.6287744227353 L 165.6794425087108 344.40497335701593 L 167.42160278745644 351.33214920071043 L 169.16376306620208 353.64120781527527 L 170.90592334494772 352.753108348135 L 172.64808362369337 357.01598579040854 L 174.390243902439 354.1740674955595 L 176.13240418118465 366.0746003552398 L 177.8745644599303 365.18650088809943 L 179.61672473867597 363.23268206039074 L 181.3588850174216 362.16696269982236 L 183.10104529616726 368.9165186500888 L 184.8432055749129 366.25222024866787 L 186.58536585365854 365.71936056838365 L 188.3275261324042 366.25222024866787 L 190.06968641114983 366.78507992895203 L 191.81184668989548 372.291296625222 L 193.55400696864112 368.20603907637656 L 195.29616724738676 368.20603907637656 L 197.0383275261324 375.3108348134991 L 198.78048780487805 368.9165186500888 L 200.5226480836237 366.78507992895203 L 202.26480836236934 366.60746003552396 L 204.00696864111498 370.87033747779753 L 205.74912891986062 372.11367673179393 L 207.49128919860627 369.8046181172291 L 209.2334494773519 368.7388987566608 L 210.97560975609755 372.11367673179393 L 212.7177700348432 372.4689165186501 L 214.45993031358887 374.60035523978684 L 216.2020905923345 375.4884547069272 L 217.94425087108016 374.2451154529307 L 219.6864111498258 377.97513321492005 L 221.42857142857144 379.04085257548843 L 223.1707317073171 380.10657193605687 L 224.91289198606273 387.2113676731794 L 226.65505226480838 390.0532859680284 L 228.39721254355402 390.4085257548845 L 230.13937282229966 392.0071047957371 L 231.8815331010453 394.1385435168739 L 233.62369337979095 393.42806394316165 L 235.3658536585366 394.67140319715804 L 237.10801393728224 396.4476021314387 L 238.85017421602788 400 L 240.59233449477352 398.75666074600355 L 242.33449477351917 393.6056838365897 L 244.0766550522648 394.67140319715804 L 245.81881533101046 394.8490230905861 L 247.5609756097561 395.0266429840142 L 249.30313588850174 396.8028419182948 L 251.0452961672474 394.67140319715804 L 252.78745644599303 397.15808170515095 L 254.52961672473867 394.67140319715804 L 256.2717770034843 397.69094138543517 L 258.01393728222996 392.0071047957371 L 259.7560975609756 389.5204262877442 L 261.49825783972125 385.2575488454707 L 263.2404181184669 375.8436944937833 L 264.98257839721254 371.58081705150977 L 266.7247386759582 374.2451154529307 L 268.4668989547038 371.7584369449378 L 270.20905923344947 366.42984014209594 L 271.9512195121951 366.25222024866787 L 273.69337979094075 357.72646536412077 L 275.4355400696864 360.74600355239784 L 277.17770034843204 363.76554174067496 L 278.91986062717774 360.2131438721137 L 280.6620209059233 362.16696269982236 L 282.404181184669 360.3907637655417 L 284.1463414634146 360.0355239786856 L 285.8885017421603 359.32504440497337 L 287.6306620209059 354.8845470692718 L 289.3728222996516 356.12788632326817 L 291.1149825783972 355.23978685612786 L 292.8571428571429 358.436944937833 L 294.5993031358885 355.772646536412 L 296.3414634146342 355.9502664298401 L 298.08362369337976 352.0426287744227 L 299.82578397212546 352.93072824156303 L 301.56794425087105 354.52930728241563 L 303.31010452961675 355.772646536412 L 305.05226480836234 354.52930728241563 L 306.79442508710804 352.57548845470694 L 308.5365853658536 354.52930728241563 L 310.2787456445993 345.47069271758437 L 312.0209059233449 348.13499111900535 L 313.7630662020906 344.2273534635879 L 315.5052264808362 347.9573712255773 L 317.2473867595819 341.740674955595 L 318.9895470383275 340.49733570159856 L 320.7317073170732 337.4777975133215 L 322.4738675958188 336.05683836589697 L 324.2160278745645 329.84014209591476 L 325.9581881533101 330.550621669627 L 327.70034843205576 331.79396092362344 L 329.4425087108014 327.708703374778 L 331.18466898954705 327.1758436944938 L 332.9268292682927 325.2220248667851 L 334.66898954703834 326.1101243339254 L 336.411149825784 321.1367673179396 L 338.1533101045296 329.6625222024867 L 339.89547038327527 327.886323268206 L 341.6376306620209 325.5772646536412 L 343.37979094076655 319.89342806394313 L 345.1219512195122 316.696269982238 L 346.86411149825784 314.56483126110123 L 348.6062717770035 310.30195381882766 L 350.34843205574913 311.190053285968 L 352.0905923344948 303.19715808170514 L 353.8327526132404 298.04618117229126 L 355.57491289198606 302.841918294849 L 357.3170731707317 298.22380106571933 L 359.05923344947735 294.8490230905861 L 360.801393728223 290.5861456483126 L 362.54355400696863 285.0799289520426 L 364.2857142857143 279.7513321492007 L 366.0278745644599 278.3303730017762 L 367.77003484320556 280.1065719360568 L 369.5121951219512 274.60035523978684 L 371.25435540069685 276.19893428063943 L 372.9965156794425 280.639431616341 L 374.73867595818814 279.7513321492007 L 376.4808362369338 277.797513321492 L 378.2229965156795 272.11367673179393 L 379.96515679442507 272.8241563055062 L 381.70731707317077 269.98223801065717 L 383.44947735191636 271.2255772646536 L 385.19163763066206 270.15985790408524 L 386.93379790940764 270.15985790408524 L 388.67595818815334 270.15985790408524 L 390.41811846689893 270.15985790408524 L 392.16027874564463 270.15985790408524 L 393.9024390243902 270.15985790408524 L 395.6445993031359 270.15985790408524 L 397.3867595818815 270.15985790408524 L 399.1289198606272 270.15985790408524 L 400.8710801393728 270.15985790408524 L 402.6132404181185 270.15985790408524 L 404.3554006968641 270.15985790408524 L 406.0975609756098 270.15985790408524 L 407.8397212543554 270.15985790408524 L 409.58188153310107 270.15985790408524 L 411.3240418118467 270.15985790408524 L 413.06620209059236 270.15985790408524 L 414.808362369338 270.15985790408524 L 416.55052264808364 270.15985790408524 L 418.2926829268293 270.15985790408524 L 420.03484320557493 270.15985790408524 L 421.7770034843206 270.15985790408524 L 423.5191637630662 270.15985790408524 L 425.26132404181186 270.15985790408524 L 427.0034843205575 270.15985790408524 L 428.74564459930315 270.15985790408524 L 430.4878048780488 270.15985790408524 L 432.22996515679444 270.15985790408524 L 433.9721254355401 270.15985790408524 L 435.7142857142857 270.15985790408524 L 437.45644599303137 270.15985790408524 L 439.198606271777 270.15985790408524 L 440.94076655052265 270.15985790408524 L 442.6829268292683 270.15985790408524 L 444.42508710801394 270.15985790408524 L 446.1672473867596 270.15985790408524 L 447.9094076655052 270.15985790408524 L 449.65156794425087 270.15985790408524 L 451.3937282229965 270.15985790408524 L 453.13588850174216 270.15985790408524 L 454.8780487804878 270.15985790408524 L 456.62020905923345 270.15985790408524 L 458.3623693379791 270.15985790408524 L 460.10452961672473 270.15985790408524 L 461.8466898954704 270.15985790408524 L 463.588850174216 270.15985790408524 L 465.33101045296166 270.15985790408524 L 467.0731707317073 129.12966252220247 L 468.81533101045295 128.24156305506216 L 470.5574912891986 117.93960923623445 L 472.29965156794424 107.46003552397866 L 474.0418118466899 105.86145648312612 L 475.7839721254355 100 L 477.52613240418117 107.10479573712252 L 479.2682926829268 105.15097690941383 L 481.01045296167246 114.03197158081701 L 482.7526132404181 112.2557726465364 L 484.49477351916374 116.51865008880992 L 486.2369337979094 126.1101243339254 L 487.97909407665503 131.4387211367673 L 489.7212543554007 138.01065719360565 L 491.4634146341463 140.49733570159856 L 493.20557491289196 139.07637655417403 L 494.9477351916376 133.74777975133213 L 496.68989547038325 140.31971580817049 L 498.4320557491289 141.91829484902308 L 500.17421602787454 146.71403197158082 L 501.91637630662024 147.42451154529306 L 503.6585365853659 158.61456483126108 L 505.4006968641115 160.56838365896976 L 507.14285714285717 168.56127886323264 L 508.8850174216028 170.87033747779748 L 510.62717770034845 169.62699822380102 L 512.3693379790941 178.3303730017762 L 514.1114982578397 179.39609236234458 L 515.8536585365854 184.36944937833033 L 517.5958188153311 191.1190053285968 L 519.3379790940767 190.23090586145645 L 521.0801393728223 189.6980461811723 L 522.822299651568 188.0994671403197 L 524.5644599303137 185.2575488454707 L 526.3066202090592 191.82948490230905 L 528.0487804878048 190.05328596802838 L 529.7909407665505 196.09236234458257 L 531.5331010452962 194.67140319715804 L 533.2752613240418 196.26998223801064 L 535.0174216027874 201.42095914742447 L 536.7595818815331 205.3285968028419 L 538.5017421602788 214.38721136767316 L 540.2439024390244 211.01243339253995 L 541.98606271777 209.59147424511542 L 543.7282229965157 214.7424511545293 L 545.4703832752614 209.23623445825933 L 547.212543554007 207.46003552397866 L 548.9547038327526 209.05861456483126 L 550.6968641114983 211.54529307282417 L 552.439024390244 202.30905861456483 L 554.1811846689895 211.54529307282417 L 555.9233449477351 212.78863232682056 L 557.6655052264808 211.3676731793961 L 559.4076655052265 215.98579040852576 L 561.1498257839721 221.31438721136766 L 562.8919860627177 227.17584369449378 L 564.6341463414634 233.9253996447602 L 566.3763066202091 232.14920071047953 L 568.1184668989547 232.50444049733568 L 569.8606271777003 237.83303730017758 L 571.602787456446 241.740674955595 L 573.3449477351917 244.04973357015984 L 575.0871080139373 247.42451154529306 L 576.8292682926829 250.97690941385434 L 578.5714285714286 250.79928952042627 L 580.3135888501743 252.75310834813496 L 582.0557491289198 252.75310834813496 L 583.7979094076654 249.02309058614566 L 585.5400696864111 247.0692717584369 L 587.2822299651568 243.3392539964476 L 589.0243902439024 243.3392539964476 L 590.766550522648 241.38543516873887 L 592.5087108013937 242.45115452930725 L 594.2508710801394 247.95737122557728 L 595.993031358885 253.64120781527532 L 597.7351916376306 253.64120781527532 L 599.4773519163763 253.81882770870334 L 601.219512195122 254.35168738898756 L 602.9616724738676 259.68028419182946 L 604.7038327526133 259.32504440497337 L 606.445993031359 256.12788632326817 L 608.1881533101046 262.8774422735346 L 609.9303135888501 267.1403197158082 L 611.6724738675958 270.69271758436946 L 613.4146341463415 274.0674955595027 L 615.1567944250871 275.48845470692714 L 616.8989547038327 280.9946714031971 L 618.6411149825784 279.3960923623446 L 620.3832752613241 281.1722912966252 L 622.1254355400697 286.85612788632324 L 623.8675958188153 285.43516873889877 L 625.609756097561 282.7708703374778 L 627.3519163763067 287.2113676731794 L 629.0940766550523 291.4742451154529 L 630.8362369337979 290.23090586145645 L 632.5783972125436 292.71758436944936 L 634.3205574912893 294.8490230905861 L 636.0627177700349 301.0657193605684 L 637.8048780487804 301.2433392539964 L 639.5470383275261 302.664298401421 L 641.2891986062718 304.79573712255774 L 643.0313588850174 305.68383658969805 L 644.773519163763 305.50621669627 L 646.5156794425087 307.28241563055064 L 648.2578397212544 309.7690941385435 L 650 314.9200710479573 L 650 400 Z" /><text  class="poloto_labels poloto_text poloto_title" alignment-baseline="start" text-anchor="middle" font-size="x-large" x="400" y="37.5" >Total players on 2021-12-30</text><text  class="poloto_labels poloto_text poloto_xname" alignment-baseline="start" text-anchor="middle" font-size="x-large" x="400" y="481.25" >Time</text><text  class="poloto_labels poloto_text poloto_yname" alignment-baseline="start" text-anchor="middle" font-size="x-large" transform="rotate(-90,37.5,250)" x="37.5" y="250" >Count</text><line  class="poloto_axis_lines" stroke="black" x1="150" x2="150" y1="400" y2="405" /><text  class="poloto_tick_labels poloto_text" alignment-baseline="start" text-anchor="middle" x="150" y="430" > 00:00:00</text><line  class="poloto_axis_lines" stroke="black" x1="266.14401858304296" x2="266.14401858304296" y1="400" y2="405" /><text  class="poloto_tick_labels poloto_text" alignment-baseline="start" text-anchor="middle" x="266.14401858304296" y="430" > 05:33:20</text><line  class="poloto_axis_lines" stroke="black" x1="382.2880371660859" x2="382.2880371660859" y1="400" y2="405" /><text  class="poloto_tick_labels poloto_text" alignment-baseline="start" text-anchor="middle" x="382.2880371660859" y="430" > 11:06:40</text><line  class="poloto_axis_lines" stroke="black" x1="498.4320557491289" x2="498.4320557491289" y1="400" y2="405" /><text  class="poloto_tick_labels poloto_text" alignment-baseline="start" text-anchor="middle" x="498.4320557491289" y="430" > 16:40:00</text><line  class="poloto_axis_lines" stroke="black" x1="614.5760743321719" x2="614.5760743321719" y1="400" y2="405" /><text  class="poloto_tick_labels poloto_text" alignment-baseline="start" text-anchor="middle" x="614.5760743321719" y="430" > 22:13:20</text><line  class="poloto_axis_lines" stroke="black" x1="150" x2="144" y1="376.7317939609236" y2="376.7317939609236" /><text  class="poloto_tick_labels poloto_text" alignment-baseline="middle" text-anchor="end" x="135" y="376.7317939609236" > 1000</text><line  class="poloto_axis_lines" stroke="black" x1="150" x2="144" y1="287.9218472468916" y2="287.9218472468916" /><text  class="poloto_tick_labels poloto_text" alignment-baseline="middle" text-anchor="end" x="135" y="287.9218472468916" > 1500</text><line  class="poloto_axis_lines" stroke="black" x1="150" x2="144" y1="199.11190053285964" y2="199.11190053285964" /><text  class="poloto_tick_labels poloto_text" alignment-baseline="middle" text-anchor="end" x="135" y="199.11190053285964" > 2000</text><line  class="poloto_axis_lines" stroke="black" x1="150" x2="144" y1="110.30195381882771" y2="110.30195381882771" /><text  class="poloto_tick_labels poloto_text" alignment-baseline="middle" text-anchor="end" x="135" y="110.30195381882771" > 2500</text><path  stroke="black" fill="none" class="poloto_axis_lines" style="stroke-dasharray:14.518002322880372;stroke-dashoffset:-0;" d=" M 150 400 L 650 400" /><path  stroke="black" fill="none" class="poloto_axis_lines" style="stroke-dasharray:8.880994671403197;stroke-dashoffset:-23.268206039076404;" d=" M 150 400 L 150 100" /></svg>