<svg class="poloto" width="800" height="500" viewBox="0 0 800 500" xmlns="http://www.w3.org/2000/svg"><style>.poloto { stroke-linecap:round; stroke-linejoin:round; font-family: 'Tahoma', sans-serif; background-color: AliceBlue;} .poloto_scatter{stroke-width:7} .poloto_line{stroke-width:2} .poloto_text{fill: black;} .poloto_axis_lines{stroke: black;stroke-width:3;fill:none;stroke-dasharray:none} .poloto0stroke{stroke:  blue;} .poloto1stroke{stroke:  red;} .poloto2stroke{stroke:  green;} .poloto3stroke{stroke:  gold;} .poloto4stroke{stroke:  aqua;} .poloto5stroke{stroke:  lime;} .poloto6stroke{stroke:  orange;} .poloto7stroke{stroke:  chocolate;} .poloto0fill{fill:blue;} .poloto1fill{fill:red;} .poloto2fill{fill:green;} .poloto3fill{fill:gold;} .poloto4fill{fill:aqua;} .poloto5fill{fill:lime;} .poloto6fill{fill:orange;} .poloto7fill{fill:chocolate;}</style><text  class="poloto_text poloto_legend_text" alignment-baseline="middle" text-anchor="start" font-size="large" x="675" y="100" ></text><path  class="poloto_linefill poloto0fill" d=" M 150 400 L 150 321.875 L 151.74216027874564 321.3541666666667 L 153.4843205574913 322.56944444444446 L 155.22648083623693 327.08333333333337 L 156.96864111498257 329.5138888888889 L 158.71080139372822 337.3263888888889 L 160.45296167247386 348.78472222222223 L 162.1951219512195 343.40277777777777 L 163.93728222996515 353.125 L 165.6794425087108 357.2916666666667 L 167.42160278745644 358.50694444444446 L 169.16376306620208 355.7291666666667 L 170.90592334494772 361.9791666666667 L 172.64808362369337 362.3263888888889 L 174.390243902439 363.02083333333337 L 176.13240418118465 361.28472222222223 L 177.8745644599303 360.06944444444446 L 179.61672473867597 359.72222222222223 L 181.3588850174216 369.61805555555554 L 183.10104529616726 371.5277777777778 L 184.8432055749129 376.3888888888889 L 186.58536585365854 375.69444444444446 L 188.3275261324042 381.4236111111111 L 190.06968641114983 383.15972222222223 L 191.81184668989548 380.9027777777778 L 193.55400696864112 387.3263888888889 L 195.29616724738676 386.1111111111111 L 197.0383275261324 387.84722222222223 L 198.78048780487805 382.6388888888889 L 200.5226480836237 383.8541666666667 L 202.26480836236934 384.0277777777778 L 204.00696864111498 382.9861111111111 L 205.74912891986062 383.50694444444446 L 207.49128919860627 388.8888888888889 L 209.2334494773519 387.6736111111111 L 210.97560975609755 388.36805555555554 L 212.7177700348432 384.89583333333337 L 214.45993031358887 382.4652777777778 L 216.2020905923345 380.7291666666667 L 217.94425087108016 385.06944444444446 L 219.6864111498258 388.8888888888889 L 221.42857142857144 393.9236111111111 L 223.1707317073171 389.93055555555554 L 224.91289198606273 388.36805555555554 L 226.65505226480838 379.3402777777778 L 228.39721254355402 376.3888888888889 L 230.13937282229966 374.6527777777778 L 231.8815331010453 375.34722222222223 L 233.62369337979095 370.1388888888889 L 235.3658536585366 369.44444444444446 L 237.10801393728224 368.4027777777778 L 238.85017421602788 366.49305555555554 L 240.59233449477352 367.88194444444446 L 242.33449477351917 365.2777777777778 L 244.0766550522648 369.44444444444446 L 245.81881533101046 365.97222222222223 L 247.5609756097561 361.63194444444446 L 249.30313588850174 366.8402777777778 L 251.0452961672474 361.45833333333337 L 252.78745644599303 368.05555555555554 L 254.52961672473867 365.1041666666667 L 256.2717770034843 360.7638888888889 L 258.01393728222996 357.2916666666667 L 259.7560975609756 348.95833333333337 L 261.49825783972125 343.92361111111114 L 263.2404181184669 348.95833333333337 L 264.98257839721254 342.1875 L 266.7247386759582 339.75694444444446 L 268.4668989547038 342.36111111111114 L 270.20905923344947 346.18055555555554 L 271.9512195121951 343.05555555555554 L 273.69337979094075 343.40277777777777 L 275.4355400696864 351.0416666666667 L 277.17770034843204 345.83333333333337 L 278.9198606271777 342.88194444444446 L 280.6620209059233 347.22222222222223 L 282.40418118466897 342.88194444444446 L 284.1463414634146 339.23611111111114 L 285.88850174216026 333.50694444444446 L 287.6306620209059 334.02777777777777 L 289.37282229965155 336.9791666666667 L 291.1149825783972 332.6388888888889 L 292.85714285714283 333.33333333333337 L 294.5993031358885 336.63194444444446 L 296.3414634146342 325.17361111111114 L 298.08362369337976 326.21527777777777 L 299.82578397212546 328.81944444444446 L 301.56794425087105 319.6180555555556 L 303.31010452961675 317.53472222222223 L 305.05226480836234 312.3263888888889 L 306.79442508710804 313.02083333333337 L 308.5365853658536 306.0763888888889 L 310.2787456445993 306.42361111111114 L 312.0209059233449 310.9375 L 313.7630662020906 303.81944444444446 L 315.5052264808362 302.25694444444446 L 317.2473867595819 298.95833333333337 L 318.9895470383275 303.9930555555556 L 320.7317073170732 302.08333333333337 L 322.4738675958188 297.9166666666667 L 324.2160278745645 297.9166666666667 L 325.95818815331006 307.46527777777777 L 327.70034843205576 306.25 L 329.44250871080135 296.1805555555556 L 331.18466898954705 296.875 L 332.92682926829264 296.00694444444446 L 334.66898954703834 298.4375 L 336.4111498257839 292.36111111111114 L 338.1533101045296 286.11111111111114 L 339.8954703832752 293.75 L 341.6376306620209 292.88194444444446 L 343.3797909407665 291.14583333333337 L 345.1219512195122 285.2430555555556 L 346.86411149825784 278.125 L 348.6062717770035 277.6041666666667 L 350.34843205574913 269.96527777777777 L 352.0905923344948 396.875 L 353.8327526132404 395.1388888888889 L 355.57491289198606 260.06944444444446 L 357.3170731707317 252.9513888888889 L 359.05923344947735 400 L 360.801393728223 395.83333333333337 L 362.54355400696863 243.5763888888889 L 364.2857142857143 239.9305555555556 L 366.0278745644599 243.75 L 367.77003484320556 231.59722222222223 L 369.5121951219512 225.17361111111114 L 371.25435540069685 224.8263888888889 L 372.9965156794425 223.09027777777777 L 374.73867595818814 217.88194444444446 L 376.4808362369338 219.27083333333337 L 378.2229965156794 215.4513888888889 L 379.96515679442507 215.79861111111114 L 381.7073170731707 227.25694444444446 L 383.44947735191636 225.17361111111114 L 385.191637630662 233.15972222222223 L 386.93379790940764 226.04166666666669 L 388.6759581881533 217.88194444444446 L 390.41811846689893 221.7013888888889 L 392.1602787456446 223.61111111111114 L 393.9024390243902 223.61111111111114 L 395.6445993031359 220.48611111111114 L 397.3867595818815 216.31944444444446 L 399.1289198606272 214.9305555555556 L 400.8710801393728 206.0763888888889 L 402.6132404181185 207.29166666666669 L 404.3554006968641 208.85416666666669 L 406.0975609756097 200 L 407.83972125435537 206.94444444444446 L 409.581881533101 208.33333333333337 L 411.32404181184666 204.86111111111114 L 413.0662020905923 196.875 L 414.80836236933794 192.36111111111114 L 416.5505226480836 188.19444444444446 L 418.29268292682923 188.02083333333337 L 420.0348432055749 192.36111111111114 L 421.7770034843206 184.89583333333337 L 423.5191637630662 188.02083333333337 L 425.26132404181186 187.67361111111114 L 427.0034843205575 180.38194444444446 L 428.74564459930315 189.0625 L 430.4878048780488 175.52083333333337 L 432.22996515679444 171.52777777777777 L 433.9721254355401 164.58333333333337 L 435.7142857142857 165.10416666666669 L 437.45644599303137 164.9305555555556 L 439.198606271777 177.25694444444446 L 440.94076655052265 174.65277777777777 L 442.6829268292683 160.9375 L 444.42508710801394 166.66666666666669 L 446.1672473867596 161.63194444444446 L 447.9094076655052 162.67361111111114 L 449.65156794425087 146.875 L 451.3937282229965 153.29861111111114 L 453.13588850174216 146.00694444444446 L 454.8780487804878 143.0555555555556 L 456.62020905923345 136.45833333333337 L 458.3623693379791 132.8125 L 460.10452961672473 139.9305555555556 L 461.8466898954704 134.375 L 463.588850174216 134.54861111111114 L 465.33101045296166 138.71527777777783 L 467.0731707317073 129.86111111111114 L 468.81533101045295 129.34027777777783 L 470.5574912891986 114.40972222222223 L 472.29965156794424 122.7430555555556 L 474.0418118466899 121.875 L 475.7839721254355 127.25694444444446 L 477.52613240418117 121.875 L 479.2682926829268 132.1180555555556 L 481.01045296167246 130.20833333333337 L 482.7526132404181 125.52083333333337 L 484.49477351916374 134.375 L 486.2369337979094 122.56944444444446 L 487.97909407665503 122.22222222222223 L 489.7212543554007 117.53472222222223 L 491.4634146341463 107.98611111111114 L 493.20557491289196 115.79861111111114 L 494.9477351916376 107.63888888888891 L 496.68989547038325 103.125 L 498.4320557491289 100 L 500.17421602787454 101.73611111111114 L 501.9163763066202 107.1180555555556 L 503.6585365853658 106.59722222222223 L 505.40069686411147 112.84722222222223 L 507.1428571428571 109.54861111111114 L 508.88501742160275 109.54861111111114 L 510.6271777003484 113.02083333333337 L 512.3693379790941 117.1875 L 514.1114982578397 121.52777777777783 L 515.8536585365853 131.59722222222223 L 517.595818815331 136.28472222222223 L 519.3379790940767 139.0625 L 521.0801393728223 140.625 L 522.822299651568 143.5763888888889 L 524.5644599303137 137.67361111111114 L 526.3066202090592 160.2430555555556 L 528.0487804878048 164.40972222222223 L 529.7909407665505 157.98611111111114 L 531.5331010452962 163.3680555555556 L 533.2752613240418 171.00694444444446 L 535.0174216027874 169.09722222222223 L 536.7595818815331 167.88194444444446 L 538.5017421602788 171.7013888888889 L 540.2439024390244 175.34722222222223 L 541.98606271777 173.2638888888889 L 543.7282229965157 174.3055555555556 L 545.4703832752614 179.5138888888889 L 547.212543554007 184.375 L 548.9547038327526 187.84722222222223 L 550.6968641114983 185.41666666666669 L 552.439024390244 185.7638888888889 L 554.1811846689895 186.11111111111114 L 555.9233449477351 185.2430555555556 L 557.6655052264808 183.15972222222223 L 559.4076655052265 193.0555555555556 L 561.1498257839721 189.9305555555556 L 562.8919860627177 202.25694444444446 L 564.6341463414634 200.52083333333337 L 566.3763066202091 211.28472222222223 L 568.1184668989547 219.79166666666669 L 569.8606271777003 229.6875 L 571.602787456446 235.59027777777777 L 573.3449477351917 236.11111111111114 L 575.0871080139373 232.1180555555556 L 576.8292682926829 235.41666666666669 L 578.5714285714286 243.40277777777777 L 580.3135888501743 240.4513888888889 L 582.0557491289198 243.75 L 583.7979094076654 243.0555555555556 L 585.5400696864111 242.70833333333337 L 587.2822299651568 244.96527777777777 L 589.0243902439024 240.4513888888889 L 590.766550522648 238.8888888888889 L 592.5087108013937 242.1875 L 594.2508710801394 238.19444444444446 L 595.993031358885 245.48611111111114 L 597.7351916376306 240.97222222222223 L 599.4773519163763 257.1180555555556 L 601.219512195122 257.2916666666667 L 602.9616724738676 255.03472222222223 L 604.7038327526132 258.15972222222223 L 606.4459930313589 257.46527777777777 L 608.1881533101046 263.02083333333337 L 609.9303135888501 264.58333333333337 L 611.6724738675957 271.00694444444446 L 613.4146341463414 273.2638888888889 L 615.1567944250871 280.03472222222223 L 616.8989547038327 284.375 L 618.6411149825783 286.28472222222223 L 620.383275261324 286.8055555555556 L 622.1254355400697 295.65972222222223 L 623.8675958188153 305.7291666666667 L 625.609756097561 311.8055555555556 L 627.3519163763067 315.625 L 629.0940766550523 306.0763888888889 L 630.8362369337979 307.6388888888889 L 632.5783972125436 312.67361111111114 L 634.3205574912893 317.88194444444446 L 636.0627177700349 314.9305555555556 L 637.8048780487804 320.1388888888889 L 639.5470383275261 322.7430555555556 L 641.2891986062718 323.4375 L 643.0313588850174 322.56944444444446 L 644.773519163763 322.9166666666667 L 646.5156794425087 323.61111111111114 L 648.2578397212544 321.1805555555556 L 650 318.92361111111114 L 650 400 Z" /><text  class="poloto_labels poloto_text poloto_title" alignment-baseline="start" text-anchor="middle" font-size="x-large" x="400" y="37.5" >Total players on 2021-06-05</text><text  class="poloto_labels poloto_text poloto_xname" alignment-baseline="start" text-anchor="middle" font-size="x-large" x="400" y="481.25" >Time</text><text  class="poloto_labels poloto_text poloto_yname" alignment-baseline="start" text-anchor="middle" font-size="x-large" transform="rotate(-90,37.5,250)" x="37.5" y="250" >Count</text><line  class="poloto_axis_lines" stroke="black" x1="208.0487804878049" x2="208.0487804878049" y1="400" y2="405" /><text  class="poloto_tick_labels poloto_text" alignment-baseline="start" text-anchor="middle" x="208.0487804878049" y="430" > 02:46:40</text><line  class="poloto_axis_lines" stroke="black" x1="266.1207897793264" x2="266.1207897793264" y1="400" y2="405" /><text  class="poloto_tick_labels poloto_text" alignment-baseline="start" text-anchor="middle" x="266.1207897793264" y="430" > 05:33:20</text><line  class="poloto_axis_lines" stroke="black" x1="324.19279907084785" x2="324.19279907084785" y1="400" y2="405" /><text  class="poloto_tick_labels poloto_text" alignment-baseline="start" text-anchor="middle" x="324.19279907084785" y="430" > 08:20:00</text><line  class="poloto_axis_lines" stroke="black" x1="382.2648083623693" x2="382.2648083623693" y1="400" y2="405" /><text  class="poloto_tick_labels poloto_text" alignment-baseline="start" text-anchor="middle" x="382.2648083623693" y="430" > 11:06:40</text><line  class="poloto_axis_lines" stroke="black" x1="440.3368176538908" x2="440.3368176538908" y1="400" y2="405" /><text  class="poloto_tick_labels poloto_text" alignment-baseline="start" text-anchor="middle" x="440.3368176538908" y="430" > 13:53:20</text><line  class="poloto_axis_lines" stroke="black" x1="498.4088269454123" x2="498.4088269454123" y1="400" y2="405" /><text  class="poloto_tick_labels poloto_text" alignment-baseline="start" text-anchor="middle" x="498.4088269454123" y="430" > 16:40:00</text><line  class="poloto_axis_lines" stroke="black" x1="556.4808362369338" x2="556.4808362369338" y1="400" y2="405" /><text  class="poloto_tick_labels poloto_text" alignment-baseline="start" text-anchor="middle" x="556.4808362369338" y="430" > 19:26:40</text><line  class="poloto_axis_lines" stroke="black" x1="614.5528455284552" x2="614.5528455284552" y1="400" y2="405" /><text  class="poloto_tick_labels poloto_text" alignment-baseline="start" text-anchor="middle" x="614.5528455284552" y="430" > 22:13:20</text><line  class="poloto_axis_lines" stroke="black" x1="150" x2="144" y1="339.93055555555554" y2="339.93055555555554" /><text  class="poloto_tick_labels poloto_text" alignment-baseline="middle" text-anchor="end" x="135" y="339.93055555555554" > 1500</text><line  class="poloto_axis_lines" stroke="black" x1="150" x2="144" y1="253.125" y2="253.125" /><text  class="poloto_tick_labels poloto_text" alignment-baseline="middle" text-anchor="end" x="135" y="253.125" > 2000</text><line  class="poloto_axis_lines" stroke="black" x1="150" x2="144" y1="166.31944444444446" y2="166.31944444444446" /><text  class="poloto_tick_labels poloto_text" alignment-baseline="middle" text-anchor="end" x="135" y="166.31944444444446" > 2500</text><path  stroke="black" fill="none" class="poloto_axis_lines" style="stroke-dasharray:14.518002322880372;stroke-dashoffset:-58.04878048780488;" d=" M 150 400 L 650 400" /><path  stroke="black" fill="none" class="poloto_axis_lines" style="stroke-dasharray:8.680555555555555;stroke-dashoffset:-60.06944444444446;" d=" M 150 400 L 150 100" /></svg>