<svg class="poloto" width="800" height="500" viewBox="0 0 800 500" xmlns="http://www.w3.org/2000/svg"><style>.poloto { stroke-linecap:round; stroke-linejoin:round; font-family: 'Tahoma', sans-serif; background-color: AliceBlue;} .poloto_scatter{stroke-width:7} .poloto_line{stroke-width:2} .poloto_text{fill: black;} .poloto_axis_lines{stroke: black;stroke-width:3;fill:none;stroke-dasharray:none} .poloto0stroke{stroke:  blue;} .poloto1stroke{stroke:  red;} .poloto2stroke{stroke:  green;} .poloto3stroke{stroke:  gold;} .poloto4stroke{stroke:  aqua;} .poloto5stroke{stroke:  lime;} .poloto6stroke{stroke:  orange;} .poloto7stroke{stroke:  chocolate;} .poloto0fill{fill:blue;} .poloto1fill{fill:red;} .poloto2fill{fill:green;} .poloto3fill{fill:gold;} .poloto4fill{fill:aqua;} .poloto5fill{fill:lime;} .poloto6fill{fill:orange;} .poloto7fill{fill:chocolate;}</style><text  class="poloto_text poloto_legend_text" alignment-baseline="middle" text-anchor="start" font-size="large" x="675" y="100" ></text><path  class="poloto_linefill poloto0fill" d=" M 150 400 L 150 344.38860971524286 L 151.74216027874564 346.73366834170855 L 153.4843205574913 345.05862646566163 L 155.22648083623693 345.393634840871 L 156.96864111498257 349.41373534338356 L 158.71080139372822 352.59631490787274 L 160.45296167247386 350.25125628140705 L 162.1951219512195 350.7537688442211 L 163.93728222996515 344.7236180904523 L 165.6794425087108 347.06867671691793 L 167.42160278745644 350.92127303182576 L 169.16376306620208 352.7638190954774 L 170.90592334494772 357.7889447236181 L 172.64808362369337 359.46398659966496 L 174.390243902439 363.65159128978223 L 176.13240418118465 364.8241206030151 L 177.8745644599303 369.0117252931324 L 179.61672473867597 368.67671691792293 L 181.3588850174216 365.32663316582915 L 183.10104529616726 369.8492462311558 L 184.8432055749129 366.3316582914573 L 186.58536585365854 367.67169179229484 L 188.3275261324042 366.49916247906197 L 190.06968641114983 360.46901172529317 L 191.81184668989548 364.48911222780566 L 193.55400696864112 367.8391959798995 L 195.29616724738676 373.70184254606363 L 197.0383275261324 373.86934673366835 L 198.78048780487805 379.73199329983254 L 200.5226480836237 380.06700167504187 L 202.26480836236934 384.9246231155779 L 204.00696864111498 385.427135678392 L 205.74912891986062 400 L 207.49128919860627 383.91959798994975 L 209.2334494773519 385.427135678392 L 210.97560975609755 382.5795644891123 L 212.7177700348432 371.52428810720266 L 214.45993031358887 364.6566164154104 L 216.2020905923345 365.49413735343387 L 217.94425087108016 364.6566164154104 L 219.6864111498258 359.2964824120603 L 221.42857142857144 357.286432160804 L 223.1707317073171 351.92629815745397 L 224.91289198606273 354.94137353433837 L 226.65505226480838 369.3467336683417 L 228.39721254355402 366.49916247906197 L 230.13937282229966 363.9865996649917 L 231.8815331010453 361.64154103852593 L 233.62369337979095 354.2713567839196 L 235.3658536585366 354.94137353433837 L 237.10801393728224 353.0988274706868 L 238.85017421602788 366.83417085427135 L 240.59233449477352 355.94639865996646 L 242.33449477351917 351.59128978224453 L 244.0766550522648 344.89112227805697 L 245.81881533101046 349.748743718593 L 247.5609756097561 348.9112227805695 L 249.30313588850174 338.19095477386935 L 251.0452961672474 337.85594639865997 L 252.78745644599303 334.33835845896147 L 254.52961672473867 338.6934673366834 L 256.2717770034843 341.0385259631491 L 258.01393728222996 342.88107202680067 L 259.7560975609756 345.393634840871 L 261.49825783972125 341.37353433835847 L 263.2404181184669 335.51088777219434 L 264.98257839721254 338.19095477386935 L 266.7247386759582 332.4958123953099 L 268.4668989547038 332.99832495812393 L 270.20905923344947 328.81072026800666 L 271.9512195121951 331.99329983249584 L 273.69337979094075 335.1758793969849 L 275.4355400696864 340.53601340033504 L 277.17770034843204 339.5309882747069 L 278.9198606271777 338.02345058626463 L 280.6620209059233 339.86599664991627 L 282.40418118466897 336.8509212730319 L 284.1463414634146 330.48576214405364 L 285.88850174216026 324.6231155778894 L 287.6306620209059 322.4455611390284 L 289.37282229965155 323.1155778894472 L 291.1149825783972 327.80569514237857 L 292.85714285714283 329.48073701842543 L 294.5993031358885 330.9882747068677 L 296.3472706155633 324.28810720268007 L 298.08362369337976 325.29313232830816 L 299.82578397212546 318.0904522613065 L 301.56794425087105 324.45561139028473 L 303.31010452961675 315.74539363484087 L 305.05226480836234 309.7152428810721 L 306.79442508710804 309.7152428810721 L 308.5365853658536 303.5175879396985 L 310.2787456445993 298.9949748743719 L 312.0209059233449 299.4974874371859 L 313.7630662020906 292.4623115577889 L 315.5052264808362 296.4824120603015 L 317.2473867595819 291.1222780569515 L 318.9895470383275 290.2847571189279 L 320.7317073170732 295.9798994974874 L 322.4738675958188 292.964824120603 L 324.2160278745645 293.9698492462312 L 325.95818815331006 293.29983249581244 L 327.70034843205576 294.80737018425464 L 329.44250871080135 290.4522613065327 L 331.18466898954705 288.10720268006696 L 332.92682926829264 282.24455611390283 L 334.66898954703834 279.22948073701843 L 336.4111498257839 277.3869346733668 L 338.1533101045296 268.1742043551088 L 339.8954703832752 271.356783919598 L 341.6376306620209 270.51926298157457 L 343.3797909407665 275.04187604690117 L 345.1219512195122 271.8592964824121 L 346.86411149825784 271.52428810720266 L 348.6062717770035 270.3517587939698 L 350.34843205574913 275.04187604690117 L 352.0905923344948 272.3618090452261 L 353.8327526132404 266.16415410385264 L 355.57491289198606 272.69681742043554 L 357.3170731707317 267.67169179229484 L 359.05923344947735 257.7889447236181 L 360.801393728223 258.45896147403687 L 362.54355400696863 249.4137353433836 L 364.2857142857143 246.56616415410386 L 366.0278745644599 241.87604690117254 L 367.77003484320556 241.37353433835844 L 369.5121951219512 233.16582914572862 L 371.25435540069685 232.99832495812396 L 372.9965156794425 233.8358458961474 L 374.73867595818814 220.7705192629816 L 376.4808362369338 225.2931323283082 L 378.2229965156794 221.7755443886097 L 379.96515679442507 235.0083752093802 L 381.7073170731707 231.15577889447238 L 383.44947735191636 240.3685092127303 L 385.191637630662 229.9832495812395 L 386.93379790940764 226.46566164154106 L 388.6759581881533 225.96314907872696 L 390.41811846689893 221.10552763819098 L 392.1602787456446 224.62311557788942 L 393.9024390243902 222.44556113902846 L 395.6445993031359 219.9329983249581 L 397.3867595818815 225.2931323283082 L 399.1289198606272 224.28810720268004 L 400.8710801393728 228.8107202680067 L 402.6132404181185 221.10552763819098 L 404.3554006968641 216.750418760469 L 406.0975609756097 228.8107202680067 L 407.83972125435537 225.62814070351757 L 409.581881533101 219.26298157453934 L 411.32404181184666 222.61306532663318 L 413.0662020905923 229.31323283082074 L 414.80836236933794 208.87772194304856 L 416.5505226480836 202.17755443886094 L 418.29268292682923 198.82747068676716 L 420.0348432055749 202.51256281407032 L 421.7770034843206 198.6599664991625 L 423.5191637630662 193.96984924623112 L 425.26132404181186 195.97989949748742 L 427.0034843205575 179.89949748743717 L 428.74564459930315 177.7219430485762 L 430.4878048780488 174.03685092127304 L 432.22996515679444 171.1892797319933 L 433.9721254355401 167.6716917922948 L 435.7142857142857 164.32160804020097 L 437.45644599303137 173.70184254606366 L 439.198606271777 163.48408710217754 L 440.94076655052265 152.428810720268 L 442.6829268292683 151.25628140703517 L 444.42508710801394 146.56616415410386 L 446.1672473867596 150.25125628140702 L 447.9094076655052 152.9313232830821 L 449.65156794425087 152.26130653266333 L 451.3937282229965 143.04857621440533 L 453.13588850174216 141.87604690117257 L 454.8780487804878 148.07370184254606 L 456.62020905923345 145.0586264656616 L 458.3623693379791 136.85092127303176 L 460.10452961672473 139.86599664991627 L 461.8466898954704 140.53601340033504 L 463.588850174216 137.6884422110553 L 465.33101045296166 141.87604690117257 L 467.0731707317073 136.6834170854271 L 468.81533101045295 138.02345058626463 L 470.5574912891986 137.6884422110553 L 472.29965156794424 125.29313232830816 L 474.0418118466899 119.5979899497487 L 475.7839721254355 122.6130653266332 L 477.52613240418117 114.070351758794 L 479.2682926829268 113.73534338358456 L 481.01045296167246 111.5577889447236 L 482.7526132404181 108.87772194304853 L 484.49477351916374 101.0050251256281 L 486.2369337979094 115.74539363484087 L 487.97909407665503 117.0854271356784 L 489.7212543554007 109.88274706867674 L 491.4634146341463 105.36013400335003 L 493.20557491289196 100 L 494.9477351916376 108.20770519262976 L 496.68989547038325 111.72529313232826 L 498.4320557491289 114.74036850921277 L 500.17421602787454 125.46063651591294 L 501.9163763066202 116.0804020100502 L 503.6585365853658 120.43551088777212 L 505.4065040650406 124.95812395309883 L 507.1428571428571 136.1809045226131 L 508.88501742160275 145.8961474036851 L 510.6271777003484 142.713567839196 L 512.3693379790941 144.3886097152429 L 514.1114982578397 148.24120603015072 L 515.8536585365853 160.9715242881072 L 517.595818815331 163.81909547738692 L 519.3379790940767 153.09882747068676 L 521.0801393728223 161.47403685092124 L 522.822299651568 176.71691792294806 L 524.5644599303137 166.66666666666666 L 526.3066202090592 172.5293132328308 L 528.0487804878048 190.1172529313233 L 529.7909407665505 201.50753768844223 L 531.5331010452962 195.81239530988276 L 533.2752613240418 209.04522613065328 L 535.0174216027874 205.69514237855944 L 536.7595818815331 207.8726968174204 L 538.5017421602788 206.8676716917923 L 540.2439024390244 205.52763819095478 L 541.98606271777 209.54773869346732 L 543.7282229965157 215.74539363484084 L 545.4703832752614 212.73031825795644 L 547.212543554007 213.4003350083752 L 548.9547038327526 217.08542713567837 L 550.6968641114983 216.4154103852596 L 552.439024390244 218.25795644891124 L 554.1811846689895 222.94807370184256 L 555.9233449477351 220.60301507537687 L 557.6655052264808 242.21105527638193 L 559.4076655052265 229.31323283082074 L 561.1498257839721 234.0033500837521 L 562.8919860627177 235.17587939698493 L 564.6399535423925 235.8458961474037 L 566.3763066202091 234.0033500837521 L 568.1184668989547 236.51591289782246 L 569.8606271777003 238.02345058626466 L 571.602787456446 244.3886097152429 L 573.3449477351917 253.60134003350086 L 575.0871080139373 257.7889447236181 L 576.8292682926829 257.11892797319933 L 578.5714285714286 257.286432160804 L 580.3135888501743 260.46901172529317 L 582.0557491289198 263.48408710217757 L 583.7979094076654 260.97152428810716 L 585.5400696864111 254.27135678391957 L 587.2822299651568 256.95142378559467 L 589.0243902439024 256.61641541038523 L 590.766550522648 259.2964824120603 L 592.5087108013937 261.47403685092127 L 594.2508710801394 263.3165829145729 L 595.993031358885 271.02177554438856 L 597.7351916376306 276.54941373534336 L 599.4773519163763 268.3417085427136 L 601.219512195122 265.8291457286432 L 602.9616724738676 261.13902847571194 L 604.7038327526132 265.15912897822443 L 606.4459930313589 264.8241206030151 L 608.1881533101046 264.321608040201 L 609.9303135888501 276.716917922948 L 611.6724738675957 263.9865996649917 L 613.4146341463414 267.67169179229484 L 615.1567944250871 272.3618090452261 L 616.8989547038327 270.3517587939698 L 618.6411149825783 277.72194304857624 L 620.383275261324 272.5293132328309 L 622.1254355400697 283.08207705192626 L 623.8675958188153 273.8693467336683 L 625.609756097561 276.8844221105528 L 627.3519163763067 280.9045226130653 L 629.0940766550523 290.61976549413737 L 630.8362369337979 297.31993299832493 L 632.5783972125436 299.6649916247907 L 634.3205574912893 307.5376884422111 L 636.0627177700349 313.73534338358456 L 637.8048780487804 320.43551088777224 L 639.5470383275261 320.77051926298157 L 641.2891986062718 318.0904522613065 L 643.0313588850174 323.1155778894472 L 644.773519163763 328.9782244556114 L 646.5156794425087 329.98324958123953 L 648.2578397212544 334.50586264656613 L 650 335.00837520938023 L 650 400 Z" /><text  class="poloto_labels poloto_text poloto_title" alignment-baseline="start" text-anchor="middle" font-size="x-large" x="400" y="37.5" >Total players on 2021-07-27</text><text  class="poloto_labels poloto_text poloto_xname" alignment-baseline="start" text-anchor="middle" font-size="x-large" x="400" y="481.25" >Time</text><text  class="poloto_labels poloto_text poloto_yname" alignment-baseline="start" text-anchor="middle" font-size="x-large" transform="rotate(-90,37.5,250)" x="37.5" y="250" >Count</text><line  class="poloto_axis_lines" stroke="black" x1="208.0487804878049" x2="208.0487804878049" y1="400" y2="405" /><text  class="poloto_tick_labels poloto_text" alignment-baseline="start" text-anchor="middle" x="208.0487804878049" y="430" > 03:00</text><line  class="poloto_axis_lines" stroke="black" x1="266.1207897793264" x2="266.1207897793264" y1="400" y2="405" /><text  class="poloto_tick_labels poloto_text" alignment-baseline="start" text-anchor="middle" x="266.1207897793264" y="430" > 06:00</text><line  class="poloto_axis_lines" stroke="black" x1="324.19279907084785" x2="324.19279907084785" y1="400" y2="405" /><text  class="poloto_tick_labels poloto_text" alignment-baseline="start" text-anchor="middle" x="324.19279907084785" y="430" > 08:00</text><line  class="poloto_axis_lines" stroke="black" x1="382.2648083623693" x2="382.2648083623693" y1="400" y2="405" /><text  class="poloto_tick_labels poloto_text" alignment-baseline="start" text-anchor="middle" x="382.2648083623693" y="430" > 11:00</text><line  class="poloto_axis_lines" stroke="black" x1="440.3368176538908" x2="440.3368176538908" y1="400" y2="405" /><text  class="poloto_tick_labels poloto_text" alignment-baseline="start" text-anchor="middle" x="440.3368176538908" y="430" > 14:00</text><line  class="poloto_axis_lines" stroke="black" x1="498.4088269454123" x2="498.4088269454123" y1="400" y2="405" /><text  class="poloto_tick_labels poloto_text" alignment-baseline="start" text-anchor="middle" x="498.4088269454123" y="430" > 17:00</text><line  class="poloto_axis_lines" stroke="black" x1="556.4808362369338" x2="556.4808362369338" y1="400" y2="405" /><text  class="poloto_tick_labels poloto_text" alignment-baseline="start" text-anchor="middle" x="556.4808362369338" y="430" > 19:00</text><line  class="poloto_axis_lines" stroke="black" x1="614.5528455284552" x2="614.5528455284552" y1="400" y2="405" /><text  class="poloto_tick_labels poloto_text" alignment-baseline="start" text-anchor="middle" x="614.5528455284552" y="430" > 22:00</text><line  class="poloto_axis_lines" stroke="black" x1="150" x2="144" y1="331.99329983249584" y2="331.99329983249584" /><text  class="poloto_tick_labels poloto_text" alignment-baseline="middle" text-anchor="end" x="135" y="331.99329983249584" > 1500</text><line  class="poloto_axis_lines" stroke="black" x1="150" x2="144" y1="248.2412060301508" y2="248.2412060301508" /><text  class="poloto_tick_labels poloto_text" alignment-baseline="middle" text-anchor="end" x="135" y="248.2412060301508" > 2000</text><line  class="poloto_axis_lines" stroke="black" x1="150" x2="144" y1="164.48911222780566" y2="164.48911222780566" /><text  class="poloto_tick_labels poloto_text" alignment-baseline="middle" text-anchor="end" x="135" y="164.48911222780566" > 2500</text><path  stroke="black" fill="none" class="poloto_axis_lines" style="stroke-dasharray:14.518002322880372;stroke-dashoffset:-58.04878048780488;" d=" M 150 400 L 650 400" /><path  stroke="black" fill="none" class="poloto_axis_lines" style="stroke-dasharray:8.375209380234505;stroke-dashoffset:-68.00670016750419;" d=" M 150 400 L 150 100" /></svg>