<svg class="poloto" width="800" height="500" viewBox="0 0 800 500" xmlns="http://www.w3.org/2000/svg"><style>.poloto { stroke-linecap:round; stroke-linejoin:round; font-family: 'Tahoma', sans-serif; background-color: AliceBlue;} .poloto_scatter{stroke-width:7} .poloto_line{stroke-width:2} .poloto_text{fill: black;} .poloto_axis_lines{stroke: black;stroke-width:3;fill:none;stroke-dasharray:none} .poloto0stroke{stroke:  blue;} .poloto1stroke{stroke:  red;} .poloto2stroke{stroke:  green;} .poloto3stroke{stroke:  gold;} .poloto4stroke{stroke:  aqua;} .poloto5stroke{stroke:  lime;} .poloto6stroke{stroke:  orange;} .poloto7stroke{stroke:  chocolate;} .poloto0fill{fill:blue;} .poloto1fill{fill:red;} .poloto2fill{fill:green;} .poloto3fill{fill:gold;} .poloto4fill{fill:aqua;} .poloto5fill{fill:lime;} .poloto6fill{fill:orange;} .poloto7fill{fill:chocolate;}</style><text  class="poloto_text poloto_legend_text" alignment-baseline="middle" text-anchor="start" font-size="large" x="675" y="100" ></text><path  class="poloto_linefill poloto0fill" d=" M 150 400 L 150 338.7201034259858 L 151.74216027874564 332.1266968325792 L 153.4843205574913 335.0355526826115 L 155.22648083623693 337.3626373626373 L 156.96864111498257 343.7621202327085 L 158.71080139372822 345.1195862960569 L 160.45296167247386 349.5798319327731 L 162.1951219512195 361.60310277957336 L 163.93728222996515 367.808661926309 L 165.6794425087108 370.9114414996768 L 167.42160278745644 372.8506787330317 L 169.16376306620208 373.4324499030381 L 170.90592334494772 369.3600517129929 L 172.64808362369337 368.9722042663219 L 174.390243902439 371.2992889463478 L 176.13240418118465 374.2081447963801 L 177.8745644599303 374.78991596638656 L 179.61672473867597 380.2197802197802 L 181.3588850174216 380.4137039431157 L 183.10104529616726 394.37621202327085 L 184.8432055749129 379.63800904977376 L 186.58536585365854 400 L 188.3275261324042 376.7291531997414 L 190.06968641114983 370.7175177763413 L 191.81184668989548 368.39043309631546 L 193.55400696864112 371.8810601163542 L 195.29616724738676 371.49321266968326 L 197.0383275261324 376.53522947640596 L 198.78048780487805 379.4440853264383 L 200.5226480836237 379.0562378797673 L 202.26480836236934 373.4324499030381 L 204.00696864111498 376.9230769230769 L 205.74912891986062 372.4628312863607 L 207.49128919860627 374.98383968972206 L 209.2334494773519 373.04460245636716 L 210.97560975609755 370.3296703296703 L 212.7177700348432 370.3296703296703 L 214.45993031358887 373.4324499030381 L 216.2020905923345 371.1053652230123 L 217.94425087108016 367.6147382029735 L 219.6864111498258 371.8810601163542 L 221.42857142857144 369.74789915966386 L 223.1707317073171 372.0749838396897 L 224.91289198606273 367.6147382029735 L 226.65505226480838 368.39043309631546 L 228.39721254355402 365.8694246929541 L 230.13937282229966 368.19650937297996 L 231.8815331010453 365.4815772462831 L 233.62369337979095 367.6147382029735 L 235.3658536585366 363.7362637362637 L 237.10801393728224 361.0213316095669 L 238.85017421602788 359.082094376212 L 240.59233449477352 354.2340012928248 L 242.33449477351917 348.6102133160957 L 244.0766550522648 352.6826115061409 L 245.81881533101046 345.3135100193924 L 247.5609756097561 342.40465416936 L 249.30313588850174 343.568196509373 L 251.0452961672474 343.3742727860375 L 252.78745644599303 349.1919844861021 L 254.52961672473867 350.743374272786 L 256.2717770034843 349.9676793794441 L 258.01393728222996 344.3438914027149 L 259.7560975609756 340.8532643826761 L 261.49825783972125 336.0051712992889 L 263.2404181184669 335.229476405947 L 264.98257839721254 335.4234001292825 L 266.7247386759582 333.4841628959276 L 268.4668989547038 328.82999353587593 L 270.20905923344947 336.0051712992889 L 271.9512195121951 335.229476405947 L 273.69337979094075 328.2482223658694 L 275.4355400696864 330.7692307692307 L 277.17770034843204 328.82999353587593 L 278.9198606271777 328.6360698125404 L 280.6620209059233 331.1570782159017 L 282.40418118466897 329.2178409825468 L 284.1463414634146 335.8112475759534 L 285.88850174216026 332.1266968325792 L 287.6306620209059 330.7692307692307 L 289.37282229965155 325.3393665158371 L 291.1149825783972 326.6968325791855 L 292.85714285714283 322.6244343891402 L 294.5993031358885 314.4796380090497 L 296.3414634146342 321.4608920491273 L 298.08362369337976 320.2973497091144 L 299.82578397212546 316.8067226890756 L 301.56794425087105 318.3581124757595 L 303.31010452961675 317.38849385908213 L 305.05226480836234 307.30446024563673 L 306.79442508710804 305.94699418228834 L 308.5365853658536 311.7647058823529 L 310.2787456445993 313.3160956690368 L 312.0209059233449 313.89786683904333 L 313.7630662020906 308.85585003232063 L 315.5052264808362 308.2740788623141 L 317.2473867595819 309.24369747899163 L 318.9895470383275 308.2740788623141 L 320.7317073170732 307.11053652230123 L 322.4738675958188 299.35358758888174 L 324.2160278745645 295.47511312217193 L 325.95818815331006 298.57789269553973 L 327.70034843205576 293.34195216548153 L 329.44250871080135 290.62702003878474 L 331.18466898954705 285.19715578539103 L 332.92682926829264 280.93083387201034 L 334.66898954703834 281.51260504201684 L 336.4111498257839 278.21590174531354 L 338.1533101045296 279.76729153199744 L 339.8954703832752 278.60374919198443 L 341.6376306620209 280.15513897866845 L 343.3797909407665 283.64576599870713 L 345.1219512195122 277.82805429864254 L 346.86411149825784 275.69489334195214 L 348.6062717770035 277.82805429864254 L 350.34843205574913 278.79767291531994 L 352.0905923344948 289.65740142210734 L 353.8327526132404 268.71363930187465 L 355.57491289198606 277.63413057530704 L 357.3170731707317 258.62960568842925 L 359.05923344947735 252.61797026502907 L 360.801393728223 249.70911441499678 L 362.54355400696863 244.86102133160958 L 364.2857142857143 245.83063994828703 L 366.0278745644599 237.68584356819653 L 367.77003484320556 237.29799612152553 L 369.5121951219512 242.14608920491273 L 371.25435540069685 230.51066580478343 L 372.9965156794425 228.18358112475758 L 374.73867595818814 225.4686489980608 L 376.4808362369338 230.70458952811893 L 378.2229965156794 234.97091144149968 L 379.96515679442507 227.98965740142214 L 381.7073170731707 222.75371687136393 L 383.44947735191636 216.54815772462834 L 385.191637630662 222.94764059469944 L 386.93379790940764 200.25856496444734 L 388.6759581881533 195.21654815772465 L 390.41811846689893 196.96186166774405 L 392.1602787456446 198.7071751777634 L 393.9024390243902 194.2469295410472 L 395.6445993031359 199.0950226244344 L 397.3867595818815 196.76793794440854 L 399.1289198606272 202.0038784744667 L 400.8710801393728 202.0038784744667 L 402.6132404181185 204.71881060116354 L 404.3554006968641 198.31932773109244 L 406.0975609756097 198.9010989010989 L 407.83972125435537 200.4524886877828 L 409.581881533101 206.07627666451194 L 411.32404181184666 207.0458952811894 L 413.0662020905923 198.12540400775694 L 414.80836236933794 191.53199741435034 L 416.5505226480836 192.6955397543633 L 418.29268292682923 184.1628959276018 L 420.0348432055749 183.58112475759535 L 421.7770034843206 178.92695539754365 L 423.5191637630662 196.76793794440854 L 425.26132404181186 180.67226890756305 L 427.0034843205575 173.88493859082095 L 428.74564459930315 179.3148028442146 L 430.4878048780488 176.5998707175178 L 432.22996515679444 175.43632837750485 L 433.9721254355401 161.2798965740142 L 435.7142857142857 156.819650937298 L 437.45644599303137 158.3710407239819 L 439.198606271777 149.45054945054946 L 440.94076655052265 137.23335488041369 L 442.6829268292683 149.64447317388496 L 444.42508710801394 133.9366515837104 L 446.1672473867596 138.59082094376208 L 447.9094076655052 129.0885585003232 L 449.65156794425087 127.92501616031029 L 451.3937282229965 125.2100840336135 L 453.13588850174216 121.9133807369102 L 454.8780487804878 123.65869424692949 L 456.62020905923345 117.25921137685839 L 458.3623693379791 120.74983839689719 L 460.10452961672473 117.065287653523 L 461.8466898954704 119.7802197802198 L 463.5946573751452 123.85261797026499 L 465.33101045296166 125.40400775694889 L 467.0731707317073 125.016160310278 L 468.81533101045295 120.36199095022619 L 470.5574912891986 109.11441499676789 L 472.29965156794424 106.7873303167421 L 474.0418118466899 110.0840336134454 L 475.7839721254355 107.950872656755 L 477.52613240418117 104.4602456367162 L 479.2682926829268 102.7149321266968 L 481.01045296167246 121.9133807369102 L 482.7526132404181 120.1680672268908 L 484.49477351916374 103.8784744667098 L 486.2369337979094 110.2779573367809 L 487.97909407665503 107.1751777634131 L 489.7212543554007 100 L 491.4634146341463 100.1939237233355 L 493.20557491289196 106.9812540400776 L 494.9477351916376 104.07239819004519 L 496.68989547038325 106.9812540400776 L 498.4320557491289 113.3807369101487 L 500.17421602787454 121.9133807369102 L 501.9163763066202 121.9133807369102 L 503.6585365853658 114.5442792501616 L 505.40069686411147 124.43438914027149 L 507.1428571428571 123.4647705235941 L 508.88501742160275 121.3316095669037 L 510.6271777003484 135.10019392372328 L 512.3693379790941 143.43891402714928 L 514.1114982578397 150.2262443438914 L 515.8536585365853 163.60698125404005 L 517.595818815331 151.00193923723336 L 519.3379790940767 155.85003232062056 L 521.0801393728223 166.3219133807369 L 522.822299651568 180.8661926308985 L 524.5644599303137 174.07886231415645 L 526.3066202090592 189.39883645766 L 528.0487804878048 186.87782805429865 L 529.7909407665505 195.4104718810601 L 531.5331010452962 185.9082094376212 L 533.2752613240418 183.9689722042663 L 535.0174216027874 186.87782805429865 L 536.7595818815331 187.8474466709761 L 538.5017421602788 191.72592113768584 L 540.2439024390244 189.98060762766644 L 541.98606271777 195.6043956043956 L 543.7282229965157 200.6464124111183 L 545.4703832752614 199.67679379444084 L 547.212543554007 208.9851325145443 L 548.9547038327526 208.01551389786684 L 550.6968641114983 210.14867485455719 L 552.439024390244 214.027149321267 L 554.1811846689895 212.0879120879121 L 555.9233449477351 220.81447963800903 L 557.6655052264808 220.03878474466708 L 559.4076655052265 214.80284421460894 L 561.1498257839721 220.6205559146736 L 562.8919860627177 227.02003878474468 L 564.6341463414634 227.40788623141563 L 566.3763066202091 216.16031027795734 L 568.1184668989547 215.3846153846154 L 569.8606271777003 218.8752424046542 L 571.602787456446 225.08080155138978 L 573.3449477351917 230.31674208144798 L 575.0871080139373 234.38914027149323 L 576.8292682926829 222.94764059469944 L 578.5714285714286 221.78409825468648 L 580.3135888501743 212.86360698125404 L 582.0557491289198 214.027149321267 L 583.7979094076654 213.05753070458954 L 585.5400696864111 227.21396250808013 L 587.2822299651568 210.92436974789914 L 589.0243902439024 216.35423400129284 L 590.766550522648 223.14156431803488 L 592.5087108013937 212.2818358112476 L 594.2508710801394 221.20232708468004 L 595.993031358885 224.69295410471884 L 597.7351916376306 224.88687782805428 L 599.4773519163763 221.78409825468648 L 601.219512195122 221.39625080801554 L 602.9616724738676 226.05042016806723 L 604.7038327526132 231.48028442146088 L 606.4459930313589 231.86813186813188 L 608.1881533101046 229.54104718810603 L 609.9303135888501 233.61344537815128 L 611.6724738675957 238.65546218487393 L 613.4146341463414 242.92178409825468 L 615.1567944250871 248.15772462831288 L 616.8989547038327 253.58758888170652 L 618.6411149825783 253.78151260504202 L 620.383275261324 262.50808015513894 L 622.1254355400697 275.11312217194575 L 623.8675958188153 268.71363930187465 L 625.609756097561 267.74402068519714 L 627.3519163763067 263.86554621848745 L 629.0940766550523 271.42857142857144 L 630.8362369337979 284.03361344537814 L 632.5783972125436 278.02197802197804 L 634.3205574912893 288.29993535875894 L 636.0627177700349 290.43309631544923 L 637.8048780487804 298.1900452488687 L 639.5470383275261 302.45636716224953 L 641.2891986062718 301.87459599224303 L 643.0313588850174 299.35358758888174 L 644.773519163763 311.95862960568843 L 646.5156794425087 318.552036199095 L 648.2578397212544 320.1034259857789 L 650 322.43051066580483 L 650 400 Z" /><text  class="poloto_labels poloto_text poloto_title" alignment-baseline="start" text-anchor="middle" font-size="x-large" x="400" y="37.5" >Total players on 2021-07-15</text><text  class="poloto_labels poloto_text poloto_xname" alignment-baseline="start" text-anchor="middle" font-size="x-large" x="400" y="481.25" >Time</text><text  class="poloto_labels poloto_text poloto_yname" alignment-baseline="start" text-anchor="middle" font-size="x-large" transform="rotate(-90,37.5,250)" x="37.5" y="250" >Count</text><line  class="poloto_axis_lines" stroke="black" x1="208.0487804878049" x2="208.0487804878049" y1="400" y2="405" /><text  class="poloto_tick_labels poloto_text" alignment-baseline="start" text-anchor="middle" x="208.0487804878049" y="430" > 03:00</text><line  class="poloto_axis_lines" stroke="black" x1="266.1207897793264" x2="266.1207897793264" y1="400" y2="405" /><text  class="poloto_tick_labels poloto_text" alignment-baseline="start" text-anchor="middle" x="266.1207897793264" y="430" > 06:00</text><line  class="poloto_axis_lines" stroke="black" x1="324.19279907084785" x2="324.19279907084785" y1="400" y2="405" /><text  class="poloto_tick_labels poloto_text" alignment-baseline="start" text-anchor="middle" x="324.19279907084785" y="430" > 08:00</text><line  class="poloto_axis_lines" stroke="black" x1="382.2648083623693" x2="382.2648083623693" y1="400" y2="405" /><text  class="poloto_tick_labels poloto_text" alignment-baseline="start" text-anchor="middle" x="382.2648083623693" y="430" > 11:00</text><line  class="poloto_axis_lines" stroke="black" x1="440.3368176538908" x2="440.3368176538908" y1="400" y2="405" /><text  class="poloto_tick_labels poloto_text" alignment-baseline="start" text-anchor="middle" x="440.3368176538908" y="430" > 14:00</text><line  class="poloto_axis_lines" stroke="black" x1="498.4088269454123" x2="498.4088269454123" y1="400" y2="405" /><text  class="poloto_tick_labels poloto_text" alignment-baseline="start" text-anchor="middle" x="498.4088269454123" y="430" > 17:00</text><line  class="poloto_axis_lines" stroke="black" x1="556.4808362369338" x2="556.4808362369338" y1="400" y2="405" /><text  class="poloto_tick_labels poloto_text" alignment-baseline="start" text-anchor="middle" x="556.4808362369338" y="430" > 19:00</text><line  class="poloto_axis_lines" stroke="black" x1="614.5528455284552" x2="614.5528455284552" y1="400" y2="405" /><text  class="poloto_tick_labels poloto_text" alignment-baseline="start" text-anchor="middle" x="614.5528455284552" y="430" > 22:00</text><line  class="poloto_axis_lines" stroke="black" x1="150" x2="144" y1="318.3581124757595" y2="318.3581124757595" /><text  class="poloto_tick_labels poloto_text" alignment-baseline="middle" text-anchor="end" x="135" y="318.3581124757595" > 1500</text><line  class="poloto_axis_lines" stroke="black" x1="150" x2="144" y1="221.39625080801557" y2="221.39625080801557" /><text  class="poloto_tick_labels poloto_text" alignment-baseline="middle" text-anchor="end" x="135" y="221.39625080801557" > 2000</text><line  class="poloto_axis_lines" stroke="black" x1="150" x2="144" y1="124.43438914027149" y2="124.43438914027149" /><text  class="poloto_tick_labels poloto_text" alignment-baseline="middle" text-anchor="end" x="135" y="124.43438914027149" > 2500</text><path  stroke="black" fill="none" class="poloto_axis_lines" style="stroke-dasharray:14.518002322880372;stroke-dashoffset:-58.04878048780488;" d=" M 150 400 L 650 400" /><path  stroke="black" fill="none" class="poloto_axis_lines" style="stroke-dasharray:9.696186166774401;stroke-dashoffset:-81.64188752424045;" d=" M 150 400 L 150 100" /></svg>