<svg class="poloto" width="800" height="500" viewBox="0 0 800 500" xmlns="http://www.w3.org/2000/svg"><style>.poloto { stroke-linecap:round; stroke-linejoin:round; font-family: 'Tahoma', sans-serif; background-color: AliceBlue;} .poloto_scatter{stroke-width:7} .poloto_line{stroke-width:2} .poloto_text{fill: black;} .poloto_axis_lines{stroke: black;stroke-width:3;fill:none;stroke-dasharray:none} .poloto0stroke{stroke:  blue;} .poloto1stroke{stroke:  red;} .poloto2stroke{stroke:  green;} .poloto3stroke{stroke:  gold;} .poloto4stroke{stroke:  aqua;} .poloto5stroke{stroke:  lime;} .poloto6stroke{stroke:  orange;} .poloto7stroke{stroke:  chocolate;} .poloto0fill{fill:blue;} .poloto1fill{fill:red;} .poloto2fill{fill:green;} .poloto3fill{fill:gold;} .poloto4fill{fill:aqua;} .poloto5fill{fill:lime;} .poloto6fill{fill:orange;} .poloto7fill{fill:chocolate;}</style><text  class="poloto_text poloto_legend_text" alignment-baseline="middle" text-anchor="start" font-size="large" x="675" y="100" ></text><path  class="poloto_linefill poloto0fill" d=" M 150 400 L 150 363.43115124153496 L 151.74216027874564 365.80135440180584 L 153.4843205574913 368.34085778781036 L 155.22648083623693 367.3250564334086 L 156.96864111498257 369.69525959367945 L 158.71080139372822 363.9390519187359 L 160.45296167247386 362.2460496613995 L 162.1951219512195 362.5846501128668 L 163.93728222996515 368.8487584650113 L 165.6794425087108 367.3250564334086 L 167.42160278745644 371.2189616252822 L 169.16376306620208 370.71106094808124 L 170.90592334494772 369.01805869074497 L 172.64808362369337 373.9277652370203 L 174.390243902439 374.09706546275396 L 176.13240418118465 376.97516930022573 L 177.8745644599303 386.6252821670429 L 179.61672473867597 387.3024830699774 L 181.3588850174216 389.6726862302483 L 183.10104529616726 392.5507900677201 L 184.8432055749129 393.56659142212186 L 186.58536585365854 394.5823927765237 L 188.3275261324042 389.33408577878106 L 190.06968641114983 386.45598194130923 L 191.81184668989548 384.76297968397296 L 193.55400696864112 386.6252821670429 L 195.29616724738676 387.4717832957111 L 197.0383275261324 380.86907449209934 L 198.78048780487805 384.93227990970655 L 200.5226480836237 382.9006772009029 L 202.26480836236934 379.6839729119639 L 204.00696864111498 388.31828442437927 L 205.74912891986062 389.33408577878106 L 207.49128919860627 386.6252821670429 L 209.2334494773519 386.79458239277653 L 210.97560975609755 385.77878103837475 L 212.7177700348432 385.77878103837475 L 214.45993031358887 387.8103837471783 L 216.2020905923345 390.01128668171555 L 217.94425087108016 386.28668171557564 L 219.6864111498258 379.00677200902936 L 221.42857142857144 378.16027088036117 L 223.1707317073171 385.9480812641084 L 224.91289198606273 392.21218961625283 L 226.65505226480838 388.6568848758465 L 228.39721254355402 385.77878103837475 L 230.13937282229966 387.64108352144467 L 231.8815331010453 393.058690744921 L 233.62369337979095 393.058690744921 L 235.3658536585366 393.90519187358916 L 237.10801393728224 395.0902934537246 L 238.85017421602788 396.61399548532734 L 240.59233449477352 396.61399548532734 L 242.33449477351917 395.76749435665914 L 244.0766550522648 398.47629796839726 L 245.81881533101046 392.3814898419864 L 247.5609756097561 395.25959367945825 L 249.30313588850174 395.0902934537246 L 251.0452961672474 394.4130925507901 L 252.78745644599303 395.9367945823928 L 254.52961672473867 398.6455981941309 L 256.2717770034843 396.9525959367946 L 258.01393728222996 396.1060948081264 L 259.7560975609756 395.76749435665914 L 261.49825783972125 398.47629796839726 L 263.2404181184669 397.7990970654628 L 264.98257839721254 396.9525959367946 L 266.7247386759582 400 L 268.4668989547038 398.13769751693 L 270.20905923344947 394.5823927765237 L 271.9512195121951 397.7990970654628 L 273.69337979094075 395.4288939051919 L 275.4355400696864 391.8735891647856 L 277.17770034843204 393.2279909706547 L 278.91986062717774 393.39729119638827 L 280.6620209059233 388.48758465011286 L 282.404181184669 387.97968397291197 L 284.1463414634146 382.392776523702 L 285.8885017421603 384.93227990970655 L 287.6306620209059 377.31376975169303 L 289.3728222996516 373.9277652370203 L 291.1149825783972 374.60496613995485 L 292.8571428571429 371.04966139954854 L 294.5993031358885 369.69525959367945 L 296.3414634146342 369.8645598194131 L 298.08362369337976 367.4943566591422 L 299.82578397212546 365.80135440180584 L 301.56794425087105 367.3250564334086 L 303.31010452961675 367.4943566591422 L 305.05226480836234 367.8329571106095 L 306.79442508710804 363.9390519187359 L 308.5365853658536 368.510158013544 L 310.2787456445993 365.63205417607224 L 312.0209059233449 368.1715575620767 L 313.7630662020906 371.2189616252822 L 315.5052264808362 366.9864559819413 L 317.2473867595819 370.03386004514675 L 318.9895470383275 369.18735891647856 L 320.7317073170732 370.372460496614 L 322.4738675958188 368.8487584650113 L 324.2160278745645 369.18735891647856 L 325.9581881533101 370.71106094808124 L 327.70034843205576 368.0022573363431 L 329.4425087108014 363.6004514672686 L 331.18466898954705 363.9390519187359 L 332.9268292682927 358.6907449209932 L 334.66898954703834 358.86004514672686 L 336.411149825784 358.35214446952597 L 338.1533101045296 356.489841986456 L 339.89547038327527 354.79683972911965 L 341.6376306620209 356.9977426636569 L 343.37979094076655 352.765237020316 L 345.1219512195122 347.68623024830697 L 346.86411149825784 340.57562076749434 L 348.6062717770035 338.3747178329571 L 350.34843205574913 334.14221218961626 L 352.0905923344948 331.7720090293454 L 353.8327526132404 329.06320541760726 L 355.57491289198606 325.16930022573365 L 357.3170731707317 326.69300225733633 L 359.05923344947735 319.4130925507901 L 360.801393728223 314.5033860045147 L 362.54355400696863 313.48758465011286 L 364.2857142857143 307.9006772009029 L 366.0278745644599 304.0067720090293 L 367.77003484320556 298.7584650112867 L 369.5121951219512 299.7742663656885 L 371.25435540069685 299.7742663656885 L 372.9965156794425 293.67945823927766 L 374.73867595818814 289.9548532731377 L 376.4808362369338 287.92325056433407 L 378.2229965156795 290.4627539503386 L 379.96515679442507 296.38826185101584 L 381.70731707317077 377.6523702031603 L 383.44947735191636 287.2460496613995 L 385.19163763066206 285.21444695259595 L 386.93379790940764 284.5372460496614 L 388.67595818815334 290.4627539503386 L 390.41811846689893 289.4469525959368 L 392.16027874564463 287.4153498871332 L 393.9024390243902 284.70654627539506 L 395.6445993031359 277.9345372460497 L 397.3867595818815 270.1467268623025 L 399.1289198606272 265.57562076749434 L 400.8710801393728 267.9458239277652 L 402.6132404181185 262.35891647855533 L 404.3554006968641 260.66591422121894 L 406.0975609756098 258.29571106094807 L 407.8397212543554 250 L 409.58188153310107 244.2437923250564 L 411.3240418118467 246.1060948081264 L 413.06620209059236 245.4288939051919 L 414.808362369338 235.7787810383747 L 416.55052264808364 219.0180586907449 L 418.2926829268293 223.75846501128666 L 420.03484320557493 221.89616252821668 L 421.7770034843206 212.58465011286683 L 423.5191637630662 211.56884875846498 L 425.26132404181186 211.56884875846498 L 427.0034843205575 209.5372460496614 L 428.74564459930315 226.80586907449208 L 430.4878048780488 201.41083521444693 L 432.22996515679444 198.8713318284424 L 433.9721254355401 194.3002257336343 L 435.7142857142857 193.11512415349887 L 437.45644599303137 185.15801354401805 L 439.198606271777 190.06772009029345 L 440.94076655052265 183.80361173814896 L 442.6829268292683 188.20541760722347 L 444.42508710801394 183.80361173814896 L 446.1672473867596 176.52370203160268 L 447.9094076655052 181.43340857787808 L 449.65156794425087 184.9887133182844 L 451.3937282229965 177.37020316027088 L 453.13588850174216 171.61399548532734 L 454.8780487804878 162.13318284424378 L 456.62020905923345 152.99097065462752 L 458.3623693379791 153.66817155756206 L 460.10452961672473 154.6839729119639 L 461.8466898954704 170.5981941309255 L 463.588850174216 146.38826185101578 L 465.33101045296166 144.69525959367945 L 467.0731707317073 136.23024830699774 L 468.81533101045295 138.09255079006772 L 470.5574912891986 138.76975169300226 L 472.29965156794424 127.08803611738148 L 474.0418118466899 121.67042889390518 L 475.7839721254355 118.45372460496611 L 477.52613240418117 124.7178329571106 L 479.2682926829268 114.55981941309255 L 481.01045296167246 109.4808126410835 L 482.7526132404181 101.18510158013544 L 484.49477351916374 100 L 486.2369337979094 103.72460496613996 L 487.97909407665503 130.4740406320542 L 489.7212543554007 125.73363431151239 L 491.4634146341463 129.2889390519187 L 493.20557491289196 129.79683972911965 L 494.9477351916376 126.74943566591423 L 496.68989547038325 134.87584650112865 L 498.4320557491289 145.372460496614 L 500.17421602787454 152.14446952595938 L 501.91637630662024 151.29796839729119 L 503.6585365853659 146.89616252821668 L 505.4006968641115 149.26636568848755 L 507.14285714285717 151.6365688487585 L 508.8850174216028 148.58916478555307 L 510.62717770034845 151.97516930022573 L 512.3693379790941 152.14446952595938 L 514.1114982578397 154.3453724604966 L 515.8536585365854 157.56207674943568 L 517.5958188153311 154.6839729119639 L 519.3379790940767 155.86907449209934 L 521.0801393728223 163.65688487584652 L 522.822299651568 163.99548532731376 L 524.5644599303137 165.5191873589165 L 526.3066202090592 163.99548532731376 L 528.0487804878048 174.4920993227991 L 529.7909407665505 173.6455981941309 L 531.5331010452962 171.95259593679458 L 533.2752613240418 180.4176072234763 L 535.0174216027874 183.63431151241537 L 536.7595818815331 180.75620767494354 L 538.5017421602788 190.91422121896164 L 540.2439024390244 191.42212189616254 L 541.98606271777 196.67042889390518 L 543.7282229965157 200.39503386004515 L 545.4703832752614 192.26862302483067 L 547.212543554007 199.54853273137695 L 548.9547038327526 201.41083521444693 L 550.6968641114983 209.87584650112865 L 552.439024390244 225.45146726862305 L 554.1811846689895 200.0564334085779 L 555.9233449477351 190.4063205417607 L 557.6655052264808 206.82844243792323 L 559.4076655052265 206.99774266365688 L 561.1498257839721 220.372460496614 L 562.8919860627177 226.97516930022573 L 564.6341463414634 223.08126410835212 L 566.3763066202091 218.51015801354401 L 568.1184668989547 217.15575620767493 L 569.8606271777003 224.7742663656885 L 571.602787456446 219.8645598194131 L 573.3449477351917 225.7900677200903 L 575.0871080139373 224.4356659142212 L 576.8292682926829 223.75846501128666 L 578.5714285714286 248.47629796839726 L 580.3135888501743 226.6365688487585 L 582.0557491289198 216.64785553047403 L 583.7979094076654 226.97516930022573 L 585.5400696864111 221.72686230248308 L 587.2822299651568 216.64785553047403 L 589.0243902439024 217.66365688487582 L 590.766550522648 227.82167042889392 L 592.5087108013937 225.7900677200903 L 594.2508710801394 237.30248306997743 L 595.993031358885 249.66139954853276 L 597.7351916376306 256.94130925507903 L 599.4773519163763 252.53950338600453 L 601.219512195122 261.8510158013544 L 602.9616724738676 260.66591422121894 L 604.7038327526133 264.3905191873589 L 606.445993031359 262.35891647855533 L 608.1881533101046 261.51241534988714 L 609.9303135888501 261.51241534988714 L 611.6724738675958 266.7607223476298 L 613.4146341463415 273.7020316027088 L 615.1567944250871 278.6117381489842 L 616.8989547038327 276.5801354401806 L 618.6411149825784 282.3363431151242 L 620.3832752613241 284.36794582392776 L 622.1254355400697 287.2460496613995 L 623.8675958188153 287.7539503386005 L 625.609756097561 292.83295711060947 L 627.3519163763067 292.83295711060947 L 629.0940766550523 297.234762979684 L 630.8362369337979 301.46726862302484 L 632.5783972125436 306.88487584650113 L 634.3205574912893 315.01128668171555 L 636.0627177700349 318.90519187358916 L 637.8048780487804 324.83069977426635 L 639.5470383275261 328.38600451467266 L 641.2891986062718 331.7720090293454 L 643.0313588850174 322.12189616252823 L 644.773519163763 324.32279909706546 L 646.5156794425087 332.4492099322799 L 648.2578397212544 334.98871331828445 L 650 332.4492099322799 L 650 400 Z" /><text  class="poloto_labels poloto_text poloto_title" alignment-baseline="start" text-anchor="middle" font-size="x-large" x="400" y="37.5" >Total players on 2021-10-26</text><text  class="poloto_labels poloto_text poloto_xname" alignment-baseline="start" text-anchor="middle" font-size="x-large" x="400" y="481.25" >Time</text><text  class="poloto_labels poloto_text poloto_yname" alignment-baseline="start" text-anchor="middle" font-size="x-large" transform="rotate(-90,37.5,250)" x="37.5" y="250" >Count</text><line  class="poloto_axis_lines" stroke="black" x1="150" x2="150" y1="400" y2="405" /><text  class="poloto_tick_labels poloto_text" alignment-baseline="start" text-anchor="middle" x="150" y="430" > 00:00</text><line  class="poloto_axis_lines" stroke="black" x1="266.14401858304296" x2="266.14401858304296" y1="400" y2="405" /><text  class="poloto_tick_labels poloto_text" alignment-baseline="start" text-anchor="middle" x="266.14401858304296" y="430" > 06:00</text><line  class="poloto_axis_lines" stroke="black" x1="382.2880371660859" x2="382.2880371660859" y1="400" y2="405" /><text  class="poloto_tick_labels poloto_text" alignment-baseline="start" text-anchor="middle" x="382.2880371660859" y="430" > 11:00</text><line  class="poloto_axis_lines" stroke="black" x1="498.4320557491289" x2="498.4320557491289" y1="400" y2="405" /><text  class="poloto_tick_labels poloto_text" alignment-baseline="start" text-anchor="middle" x="498.4320557491289" y="430" > 17:00</text><line  class="poloto_axis_lines" stroke="black" x1="614.5760743321719" x2="614.5760743321719" y1="400" y2="405" /><text  class="poloto_tick_labels poloto_text" alignment-baseline="start" text-anchor="middle" x="614.5760743321719" y="430" > 22:00</text><line  class="poloto_axis_lines" stroke="black" x1="150" x2="144" y1="379.00677200902936" y2="379.00677200902936" /><text  class="poloto_tick_labels poloto_text" alignment-baseline="middle" text-anchor="end" x="135" y="379.00677200902936" > 1000</text><line  class="poloto_axis_lines" stroke="black" x1="150" x2="144" y1="294.35665914221215" y2="294.35665914221215" /><text  class="poloto_tick_labels poloto_text" alignment-baseline="middle" text-anchor="end" x="135" y="294.35665914221215" > 1500</text><line  class="poloto_axis_lines" stroke="black" x1="150" x2="144" y1="209.70654627539506" y2="209.70654627539506" /><text  class="poloto_tick_labels poloto_text" alignment-baseline="middle" text-anchor="end" x="135" y="209.70654627539506" > 2000</text><line  class="poloto_axis_lines" stroke="black" x1="150" x2="144" y1="125.05643340857785" y2="125.05643340857785" /><text  class="poloto_tick_labels poloto_text" alignment-baseline="middle" text-anchor="end" x="135" y="125.05643340857785" > 2500</text><path  stroke="black" fill="none" class="poloto_axis_lines" style="stroke-dasharray:14.518002322880372;stroke-dashoffset:-0;" d=" M 150 400 L 650 400" /><path  stroke="black" fill="none" class="poloto_axis_lines" style="stroke-dasharray:8.465011286681715;stroke-dashoffset:-20.993227990970638;" d=" M 150 400 L 150 100" /></svg>