<svg class="poloto" width="800" height="500" viewBox="0 0 800 500" xmlns="http://www.w3.org/2000/svg"><style>.poloto { stroke-linecap:round; stroke-linejoin:round; font-family: 'Tahoma', sans-serif; background-color: AliceBlue;} .poloto_scatter{stroke-width:7} .poloto_line{stroke-width:2} .poloto_text{fill: black;} .poloto_axis_lines{stroke: black;stroke-width:3;fill:none;stroke-dasharray:none} .poloto0stroke{stroke:  blue;} .poloto1stroke{stroke:  red;} .poloto2stroke{stroke:  green;} .poloto3stroke{stroke:  gold;} .poloto4stroke{stroke:  aqua;} .poloto5stroke{stroke:  lime;} .poloto6stroke{stroke:  orange;} .poloto7stroke{stroke:  chocolate;} .poloto0fill{fill:blue;} .poloto1fill{fill:red;} .poloto2fill{fill:green;} .poloto3fill{fill:gold;} .poloto4fill{fill:aqua;} .poloto5fill{fill:lime;} .poloto6fill{fill:orange;} .poloto7fill{fill:chocolate;}</style><text  class="poloto_text poloto_legend_text" alignment-baseline="middle" text-anchor="start" font-size="large" x="675" y="100" ></text><path  class="poloto_linefill poloto0fill" d=" M 150 400 L 150 352.4047470331043 L 151.74216027874564 357.2767020612117 L 153.4843205574913 359.525296689569 L 155.22648083623693 358.9631480324797 L 156.96864111498257 369.8313554028732 L 158.71080139372822 364.20986883198 L 160.45296167247386 368.5196752029981 L 162.1951219512195 374.51592754528417 L 163.93728222996515 382.01124297314175 L 165.6794425087108 384.0724547158026 L 167.42160278745644 380.69956277326673 L 169.16376306620208 384.4472204871955 L 170.91173054587688 387.07058088694566 L 172.64808362369337 388.38226108682073 L 174.390243902439 388.00749531542783 L 176.13240418118465 386.69581511555276 L 177.8745644599303 391.1930043722673 L 179.61672473867597 391.3803872579638 L 181.3588850174216 397.5640224859463 L 183.10104529616726 400 L 184.8432055749129 397.00187382885696 L 186.58536585365854 396.2523422860712 L 188.3275261324042 395.315427857589 L 190.06968641114983 392.31730168644594 L 191.81765389082463 389.31917551530296 L 193.55400696864112 387.2579637726421 L 195.29616724738676 395.315427857589 L 197.0383275261324 385.57151780137417 L 198.78048780487805 381.0743285446596 L 200.5226480836237 388.75702685821364 L 202.26480836236934 382.76077451592755 L 204.00696864111498 379.2004996876952 L 205.74912891986062 381.6364772017489 L 207.49128919860627 374.3285446595877 L 209.2334494773519 371.3304184884447 L 210.97560975609755 369.45658963148026 L 212.7177700348432 377.3266708307308 L 214.45993031358887 371.5178013741412 L 216.2020905923345 367.7701436602124 L 217.94425087108016 364.39725171767645 L 219.6864111498258 361.39912554653336 L 221.42857142857144 370.20612117426606 L 223.1707317073171 364.58463460337293 L 224.91289198606273 357.65146783260457 L 226.65505226480838 354.4659587757651 L 228.39721254355402 361.58650843222983 L 230.13937282229966 361.9612742036227 L 231.8815331010453 359.1505309181762 L 233.62369337979095 361.211742660837 L 235.3658536585366 363.0855715178013 L 237.10801393728224 362.7108057464085 L 238.85017421602788 357.65146783260457 L 240.59233449477352 354.84072454715806 L 242.33449477351917 361.9612742036227 L 244.08246225319397 358.7757651467832 L 245.81881533101046 355.9650218613366 L 247.5609756097561 349.03185509056834 L 249.30313588850174 351.28044971892564 L 251.0452961672474 345.6589631480325 L 252.78745644599303 346.4084946908182 L 254.52961672473867 346.22111180512184 L 256.2717770034843 345.6589631480325 L 258.01393728222996 350.34353529044347 L 259.7560975609756 348.844472204872 L 261.49825783972125 344.9094316052467 L 263.2404181184669 343.03560274828226 L 264.98257839721254 345.8463460337289 L 266.7247386759582 341.1617738913179 L 268.4668989547038 333.104309806371 L 270.20905923344947 335.72767020612116 L 271.9512195121951 340.4122423485321 L 273.69337979094075 336.102435977514 L 275.44134727061555 339.28794503435347 L 277.17770034843204 345.28419737663955 L 278.9198606271777 343.97251717676454 L 280.6620209059233 346.78326046221105 L 282.40418118466897 347.158026233604 L 284.1463414634146 341.72392254840724 L 285.88850174216026 342.6608369768894 L 287.6306620209059 343.78513429106806 L 289.37282229965155 343.4103685196752 L 291.1149825783972 337.788881948782 L 292.85714285714283 336.47720174890696 L 294.5993031358885 335.16552154903184 L 296.3472706155633 329.5440349781386 L 298.08362369337976 326.35852592129913 L 299.82578397212546 320.9244222361024 L 301.56794425087105 318.11367895065587 L 303.31010452961675 318.30106183635223 L 305.05226480836234 323.36039975015615 L 306.79442508710804 318.11367895065587 L 308.5365853658536 316.80199875078074 L 310.2787456445993 313.4291068082448 L 312.0209059233449 312.30480949406615 L 313.7630662020906 310.80574640849466 L 315.5052264808362 306.683322923173 L 317.2473867595819 305.9337913803872 L 318.9895470383275 310.24359775140533 L 320.7317073170732 300.49968769519046 L 322.4738675958188 297.1267957526545 L 324.2160278745645 294.316052467208 L 325.95818815331006 299.18800749531545 L 327.70034843205576 296.75202998126167 L 329.44250871080135 293.0043722673329 L 331.18466898954705 296.75202998126167 L 332.92682926829264 291.88007495315424 L 334.66898954703834 292.8169893816364 L 336.4111498257839 290.7557776389756 L 338.1533101045296 290.38101186758274 L 339.8954703832752 293.94128669581505 L 341.6376306620209 288.3198001249219 L 343.3797909407665 281.1992504684572 L 345.1219512195122 273.3291692692068 L 346.86411149825784 276.51467832604624 L 348.6120789779326 271.0805746408495 L 350.34843205574913 278.76327295440353 L 352.0905923344948 281.1992504684572 L 353.8327526132404 280.07495315427855 L 355.57491289198606 272.9544034978138 L 357.3170731707317 268.8319800124922 L 359.05923344947735 263.77264209868827 L 360.801393728223 255.3404122423485 L 362.54355400696863 244.84697064334787 L 364.2857142857143 246.72079950031227 L 366.0278745644599 248.59462835727666 L 367.77003484320556 248.96939412866956 L 369.5121951219512 245.4091193004372 L 371.25435540069685 242.97314178638348 L 372.9965156794425 240.91193004372266 L 374.73867595818814 222.9231730168644 L 376.4808362369338 223.6727045596502 L 378.2229965156794 225.35915053091813 L 379.96515679442507 218.42598376014988 L 381.7073170731707 224.23485321673954 L 383.44947735191636 218.05121798875703 L 385.191637630662 218.80074953154278 L 386.93379790940764 215.42785758900683 L 388.6759581881533 210.5559025608994 L 390.41811846689893 206.05871330418486 L 392.1602787456446 201.18675827607743 L 393.9024390243902 213.74141161773886 L 395.6445993031359 233.6039975015615 L 397.3867595818815 204.7470331043098 L 399.1289198606272 206.99562773266703 L 400.8710801393728 209.80637101811365 L 402.6132404181185 197.81386633354148 L 404.3554006968641 202.68582136164892 L 406.0975609756097 200.2498438475952 L 407.83972125435537 205.12179887570264 L 409.581881533101 202.68582136164892 L 411.32404181184666 199.87507807620236 L 413.0662020905923 199.68769519050593 L 414.80836236933794 194.8157401623985 L 416.5505226480836 193.12929419113053 L 418.29268292682923 193.69144284821985 L 420.0348432055749 182.261086820737 L 421.7770034843206 188.06995627732667 L 423.5191637630662 192.5671455340412 L 425.26132404181186 197.81386633354148 L 427.0034843205575 193.87882573391627 L 428.74564459930315 198.00124921923796 L 430.4878048780488 183.01061836352275 L 432.22996515679444 180.0124921923797 L 433.9721254355401 180.1998750780762 L 435.7142857142857 177.76389756402247 L 437.45644599303137 174.95315427857585 L 439.198606271777 166.33354153653963 L 440.94076655052265 171.01811367895064 L 442.6829268292683 178.70081199250464 L 444.42508710801394 167.83260462211118 L 446.1672473867596 167.27045596502185 L 447.9094076655052 164.83447845096813 L 449.65156794425087 163.33541536539659 L 451.3937282229965 161.08682073703935 L 453.13588850174216 155.6527170518426 L 454.8780487804878 146.47095565271704 L 456.62020905923345 149.2816989381636 L 458.3623693379791 140.47470331043098 L 460.10452961672473 132.2298563397876 L 461.8466898954704 133.54153653966273 L 463.588850174216 133.16677076826977 L 465.33101045296166 126.420986883198 L 467.0731707317073 115.55277951280448 L 468.81533101045295 120.98688319800124 L 470.5574912891986 123.61024359775138 L 472.29965156794424 117.05184259837597 L 474.0418118466899 116.48969394128665 L 475.7839721254355 116.67707682698313 L 477.52613240418117 117.23922548407245 L 479.2682926829268 116.48969394128665 L 481.01045296167246 120.61211742660828 L 482.7526132404181 109.18176139912543 L 484.49477351916374 111.80512179887569 L 486.2369337979094 104.12242348532163 L 487.97909407665503 117.23922548407245 L 489.7212543554007 99.99999999999989 L 491.4634146341463 109.74391005621476 L 493.20557491289196 118.92567145534031 L 494.9477351916376 113.8663335415365 L 496.68989547038325 119.30043722673327 L 498.4320557491289 133.91630231105557 L 500.17421602787454 147.7826358525921 L 501.9163763066202 138.2261086820737 L 503.6585365853658 135.04059962523422 L 505.40069686411147 137.10181136789504 L 507.1428571428571 140.09993753903802 L 508.88501742160275 142.72329793878828 L 510.6271777003484 143.47282948157397 L 512.3693379790941 150.21861336664583 L 514.1114982578397 151.71767645221732 L 515.8536585365853 159.5877576514678 L 517.595818815331 163.7101811367895 L 519.3379790940767 156.02748282323543 L 521.0801393728223 165.7713928794503 L 522.822299651568 171.9550281074328 L 524.5644599303137 172.7045596502186 L 526.3066202090592 177.9512804497189 L 528.0487804878048 180.0124921923797 L 529.7909407665505 186.57089319175512 L 531.5331010452962 193.31667707682695 L 533.2752613240418 194.25359150530917 L 535.0174216027874 197.81386633354148 L 536.7595818815331 204.7470331043098 L 538.5017421602788 212.99188007495312 L 540.2439024390244 214.11617738913176 L 541.98606271777 214.49094316052467 L 543.7282229965157 217.86383510306055 L 545.4703832752614 216.17738913179258 L 547.212543554007 218.80074953154278 L 548.9547038327526 224.23485321673954 L 550.6968641114983 228.16989381636475 L 552.439024390244 233.79138038725793 L 554.1811846689895 238.10118675827604 L 555.9233449477351 243.1605246720799 L 557.6713124274099 238.8507183010618 L 559.4076655052265 248.78201124297314 L 561.1498257839721 242.97314178638348 L 562.8919860627177 264.70955652717055 L 564.6341463414634 254.77826358525917 L 566.3763066202091 252.71705184259835 L 568.1184668989547 257.0268582136165 L 569.8606271777003 261.89881324172393 L 571.602787456446 276.7020612117426 L 573.3449477351917 266.20861961274204 L 575.0871080139373 263.21049344159894 L 576.8292682926829 266.20861961274204 L 578.5714285714286 275.9525296689569 L 580.3135888501743 261.89881324172393 L 582.0557491289198 265.45908806995624 L 583.7979094076654 260.96189881324176 L 585.5400696864111 264.8969394128669 L 587.2822299651568 270.7058088694565 L 589.0243902439024 270.51842598376015 L 590.766550522648 272.2048719550281 L 592.5087108013937 278.01374141161773 L 594.2508710801394 279.88757026858207 L 595.993031358885 291.5053091817614 L 597.7351916376306 283.07307932542165 L 599.4773519163763 286.4459712679575 L 601.219512195122 289.2567145534041 L 602.9616724738676 290.94316052467207 L 604.7038327526132 298.43847595252964 L 606.4459930313589 309.681449094316 L 608.1881533101046 297.8763272954403 L 609.9303135888501 301.43660212367274 L 611.6724738675957 310.80574640849466 L 613.4146341463414 308.1823860087445 L 615.1567944250871 315.30293566520925 L 616.8989547038327 315.30293566520925 L 618.6411149825783 313.24172392254843 L 620.383275261324 319.2379762648345 L 622.1254355400697 322.7982510930668 L 623.8675958188153 322.9856339787633 L 625.609756097561 337.41411617738913 L 627.3519163763067 334.0412242348532 L 629.0940766550523 336.47720174890696 L 630.8362369337979 335.72767020612116 L 632.5783972125436 334.0412242348532 L 634.3205574912893 331.6052467207995 L 636.0627177700349 332.16739537788885 L 637.8048780487804 328.0449718925671 L 639.5470383275261 326.35852592129913 L 641.2891986062718 329.16926920674575 L 643.0313588850174 329.91880074953156 L 644.773519163763 331.7926296064959 L 646.5156794425087 334.97813866333536 L 648.2578397212544 335.5402873204247 L 650 338.72579637726415 L 650 400 Z" /><text  class="poloto_labels poloto_text poloto_title" alignment-baseline="start" text-anchor="middle" font-size="x-large" x="400" y="37.5" >Total players on 2021-07-31</text><text  class="poloto_labels poloto_text poloto_xname" alignment-baseline="start" text-anchor="middle" font-size="x-large" x="400" y="481.25" >Time</text><text  class="poloto_labels poloto_text poloto_yname" alignment-baseline="start" text-anchor="middle" font-size="x-large" transform="rotate(-90,37.5,250)" x="37.5" y="250" >Count</text><line  class="poloto_axis_lines" stroke="black" x1="208.0487804878049" x2="208.0487804878049" y1="400" y2="405" /><text  class="poloto_tick_labels poloto_text" alignment-baseline="start" text-anchor="middle" x="208.0487804878049" y="430" > 03:00</text><line  class="poloto_axis_lines" stroke="black" x1="266.1207897793264" x2="266.1207897793264" y1="400" y2="405" /><text  class="poloto_tick_labels poloto_text" alignment-baseline="start" text-anchor="middle" x="266.1207897793264" y="430" > 06:00</text><line  class="poloto_axis_lines" stroke="black" x1="324.19279907084785" x2="324.19279907084785" y1="400" y2="405" /><text  class="poloto_tick_labels poloto_text" alignment-baseline="start" text-anchor="middle" x="324.19279907084785" y="430" > 08:00</text><line  class="poloto_axis_lines" stroke="black" x1="382.2648083623693" x2="382.2648083623693" y1="400" y2="405" /><text  class="poloto_tick_labels poloto_text" alignment-baseline="start" text-anchor="middle" x="382.2648083623693" y="430" > 11:00</text><line  class="poloto_axis_lines" stroke="black" x1="440.3368176538908" x2="440.3368176538908" y1="400" y2="405" /><text  class="poloto_tick_labels poloto_text" alignment-baseline="start" text-anchor="middle" x="440.3368176538908" y="430" > 14:00</text><line  class="poloto_axis_lines" stroke="black" x1="498.4088269454123" x2="498.4088269454123" y1="400" y2="405" /><text  class="poloto_tick_labels poloto_text" alignment-baseline="start" text-anchor="middle" x="498.4088269454123" y="430" > 17:00</text><line  class="poloto_axis_lines" stroke="black" x1="556.4808362369338" x2="556.4808362369338" y1="400" y2="405" /><text  class="poloto_tick_labels poloto_text" alignment-baseline="start" text-anchor="middle" x="556.4808362369338" y="430" > 19:00</text><line  class="poloto_axis_lines" stroke="black" x1="614.5528455284552" x2="614.5528455284552" y1="400" y2="405" /><text  class="poloto_tick_labels poloto_text" alignment-baseline="start" text-anchor="middle" x="614.5528455284552" y="430" > 22:00</text><line  class="poloto_axis_lines" stroke="black" x1="150" x2="144" y1="353.52904434728293" y2="353.52904434728293" /><text  class="poloto_tick_labels poloto_text" alignment-baseline="middle" text-anchor="end" x="135" y="353.52904434728293" > 1500</text><line  class="poloto_axis_lines" stroke="black" x1="150" x2="144" y1="259.8376014990631" y2="259.8376014990631" /><text  class="poloto_tick_labels poloto_text" alignment-baseline="middle" text-anchor="end" x="135" y="259.8376014990631" > 2000</text><line  class="poloto_axis_lines" stroke="black" x1="150" x2="144" y1="166.14615865084318" y2="166.14615865084318" /><text  class="poloto_tick_labels poloto_text" alignment-baseline="middle" text-anchor="end" x="135" y="166.14615865084318" > 2500</text><path  stroke="black" fill="none" class="poloto_axis_lines" style="stroke-dasharray:14.518002322880372;stroke-dashoffset:-58.04878048780488;" d=" M 150 400 L 650 400" /><path  stroke="black" fill="none" class="poloto_axis_lines" style="stroke-dasharray:9.369144284821987;stroke-dashoffset:-46.47095565271704;" d=" M 150 400 L 150 100" /></svg>