<svg class="poloto" width="800" height="500" viewBox="0 0 800 500" xmlns="http://www.w3.org/2000/svg"><style>.poloto { stroke-linecap:round; stroke-linejoin:round; font-family: 'Tahoma', sans-serif; background-color: AliceBlue;} .poloto_scatter{stroke-width:7} .poloto_line{stroke-width:2} .poloto_text{fill: black;} .poloto_axis_lines{stroke: black;stroke-width:3;fill:none;stroke-dasharray:none} .poloto0stroke{stroke:  blue;} .poloto1stroke{stroke:  red;} .poloto2stroke{stroke:  green;} .poloto3stroke{stroke:  gold;} .poloto4stroke{stroke:  aqua;} .poloto5stroke{stroke:  lime;} .poloto6stroke{stroke:  orange;} .poloto7stroke{stroke:  chocolate;} .poloto0fill{fill:blue;} .poloto1fill{fill:red;} .poloto2fill{fill:green;} .poloto3fill{fill:gold;} .poloto4fill{fill:aqua;} .poloto5fill{fill:lime;} .poloto6fill{fill:orange;} .poloto7fill{fill:chocolate;}</style><text  class="poloto_text poloto_legend_text" alignment-baseline="middle" text-anchor="start" font-size="large" x="675" y="100" ></text><path  class="poloto_linefill poloto0fill" d=" M 150 400 L 150 345.3950953678474 L 151.74216027874564 345.558583106267 L 153.4843205574913 352.75204359673023 L 155.22648083623693 353.2425068119891 L 156.96864111498257 355.6948228882834 L 158.71080139372822 362.23433242506815 L 160.45296167247386 361.5803814713896 L 162.1951219512195 367.4659400544959 L 163.93728222996515 373.1880108991826 L 165.6794425087108 375.3133514986376 L 167.42160278745644 379.7275204359673 L 169.16376306620208 375.4768392370572 L 170.90592334494772 382.6702997275204 L 172.64808362369337 386.59400544959124 L 174.390243902439 390.1907356948229 L 176.13240418118465 395.4223433242507 L 177.8745644599303 393.133514986376 L 179.61672473867597 393.7874659400545 L 181.3588850174216 394.7683923705722 L 183.10104529616726 393.6239782016348 L 184.8432055749129 392.64305177111714 L 186.58536585365854 391.66212534059946 L 188.3275261324042 394.60490463215257 L 190.06968641114983 390.5177111716621 L 191.81184668989548 386.43051771117166 L 193.55400696864112 392.8065395095368 L 195.29616724738676 391.3351498637602 L 197.0383275261324 395.25885558583104 L 198.78048780487805 397.22070844686647 L 200.5226480836237 395.9128065395095 L 202.26480836236934 396.7302452316076 L 204.00696864111498 397.3841961852861 L 205.74912891986062 400 L 207.49128919860627 398.0381471389646 L 209.2334494773519 398.3651226158038 L 210.97560975609755 393.6239782016348 L 212.7177700348432 388.3923705722071 L 214.45993031358887 387.7384196185286 L 216.2020905923345 388.7193460490463 L 217.94425087108016 383.3242506811989 L 219.6864111498258 378.58310626702996 L 221.42857142857144 374.9863760217984 L 223.1707317073171 372.53405994550405 L 224.91289198606273 371.38964577656674 L 226.65505226480838 365.0136239782016 L 228.39721254355402 364.5231607629428 L 230.13937282229966 368.283378746594 L 231.8815331010453 365.0136239782016 L 233.62369337979095 365.6675749318801 L 235.3658536585366 364.1961852861035 L 237.10801393728224 362.724795640327 L 238.85017421602788 357.8201634877384 L 240.59233449477352 353.0790190735695 L 242.33449477351917 354.38692098092645 L 244.0766550522648 351.117166212534 L 245.81881533101046 344.90463215258853 L 247.5609756097561 345.2316076294278 L 249.30313588850174 341.30790190735695 L 251.0452961672474 337.3841961852861 L 252.78745644599303 336.07629427792915 L 254.52961672473867 335.25885558583104 L 256.2717770034843 334.9318801089918 L 258.01393728222996 335.25885558583104 L 259.7560975609756 337.22070844686647 L 261.49825783972125 329.04632152588556 L 263.2404181184669 319.56403269754765 L 264.98257839721254 319.2370572207084 L 266.7247386759582 315.8038147138965 L 268.4668989547038 315.31335149863764 L 270.20905923344947 305.9945504087193 L 271.9512195121951 304.03269754768394 L 273.69337979094075 304.03269754768394 L 275.4355400696864 304.03269754768394 L 277.17770034843204 301.9073569482289 L 278.91986062717774 298.80108991825614 L 280.6620209059233 295.36784741144413 L 282.404181184669 297.1662125340599 L 284.1463414634146 297.98365122615803 L 285.8885017421603 298.3106267029973 L 287.6306620209059 298.63760217983645 L 289.3728222996516 297.1662125340599 L 291.1149825783972 295.04087193460487 L 292.8571428571429 292.2615803814714 L 294.5993031358885 285.8855585831062 L 296.3414634146342 275.7493188010899 L 298.08362369337976 266.9209809264305 L 299.82578397212546 323.16076294277923 L 301.56794425087105 315.6403269754768 L 303.31010452961675 277.5476839237057 L 305.05226480836234 273.46049046321525 L 306.79442508710804 266.7574931880109 L 308.5365853658536 254.33242506811987 L 310.2787456445993 246.15803814713897 L 312.0209059233449 236.51226158038148 L 313.7630662020906 240.92643051771117 L 315.5052264808362 227.35694822888283 L 317.2473867595819 227.68392370572204 L 318.9895470383275 225.06811989100814 L 320.7317073170732 214.1144414168937 L 322.4738675958188 208.71934604904632 L 324.2160278745645 204.9591280653951 L 325.9581881533101 203.3242506811989 L 327.70034843205576 202.17983651226157 L 329.4425087108014 202.67029972752042 L 331.18466898954705 206.7574931880109 L 332.9268292682927 210.5177111716621 L 334.66898954703834 216.89373297002723 L 336.411149825784 212.97002724795638 L 338.1533101045296 223.1062670299727 L 339.89547038327527 221.47138964577655 L 341.6376306620209 220.9809264305177 L 343.37979094076655 217.5476839237057 L 345.1219512195122 219.99999999999997 L 346.86411149825784 221.9618528610354 L 348.6062717770035 224.2506811989101 L 350.34843205574913 227.35694822888283 L 352.0905923344948 219.8365122615804 L 353.8327526132404 214.9318801089918 L 355.57491289198606 216.23978201634876 L 357.3170731707317 214.1144414168937 L 359.05923344947735 207.73841961852858 L 360.801393728223 189.10081743869208 L 362.54355400696863 187.30245231607628 L 364.2857142857143 194.65940054495914 L 366.0278745644599 182.07084468664848 L 367.77003484320556 170.13623978201636 L 369.5121951219512 184.68664850136238 L 371.25435540069685 171.28065395095368 L 372.9965156794425 162.61580381471387 L 374.73867595818814 163.1062670299727 L 376.4808362369338 162.7792915531335 L 378.2229965156795 177.32970027247953 L 379.96515679442507 175.20435967302453 L 381.70731707317077 166.04904632152588 L 383.44947735191636 166.04904632152588 L 385.19163763066206 160.65395095367845 L 386.93379790940764 162.12534059945503 L 388.67595818815334 157.5476839237057 L 390.41811846689893 160.65395095367845 L 392.16027874564463 159.0190735694823 L 393.9024390243902 151.00817438692096 L 395.6445993031359 164.5776566757493 L 397.3867595818815 171.93460490463215 L 399.1289198606272 174.2234332425068 L 400.8710801393728 159.50953678474113 L 402.6132404181185 158.69209809264302 L 404.3554006968641 158.03814713896455 L 406.0975609756098 167.35694822888283 L 407.8397212543554 166.70299727520435 L 409.58188153310107 168.8283378746594 L 411.3240418118467 169.31880108991825 L 413.06620209059236 162.4523160762943 L 414.808362369338 160.9809264305177 L 416.55052264808364 162.28882833787466 L 418.2926829268293 159.3460490463215 L 420.03484320557493 161.47138964577655 L 421.7770034843206 156.89373297002723 L 423.5191637630662 147.41144414168937 L 425.26132404181186 143.32425068119892 L 427.0034843205575 140.38147138964575 L 428.74564459930315 140.70844686648502 L 430.4878048780488 144.30517711171663 L 432.22996515679444 152.47956403269754 L 433.9721254355401 147.574931880109 L 435.7142857142857 145.28610354223432 L 437.45644599303137 139.8910081743869 L 439.198606271777 132.69754768392374 L 440.94076655052265 125.66757493188015 L 442.6829268292683 120.59945504087193 L 444.42508710801394 119.1280653950954 L 446.1672473867596 113.56948228882834 L 447.9094076655052 132.86103542234332 L 449.65156794425087 128.6103542234332 L 451.3937282229965 136.78474114441417 L 453.13588850174216 128.7738419618529 L 454.8780487804878 136.4577656675749 L 456.62020905923345 127.62942779291552 L 458.3623693379791 121.08991825613077 L 460.10452961672473 125.01362397820162 L 461.8466898954704 128.7738419618529 L 463.588850174216 125.66757493188015 L 465.33101045296166 114.38692098092645 L 467.0731707317073 104.57765667574927 L 468.81533101045295 100 L 470.5574912891986 107.19346049046317 L 472.29965156794424 106.70299727520432 L 474.0418118466899 105.88555858310622 L 475.7839721254355 102.45231607629432 L 477.52613240418117 111.11716621253402 L 479.2682926829268 118.14713896457761 L 481.01045296167246 114.38692098092645 L 482.7526132404181 122.72479564032699 L 484.49477351916374 136.6212534059946 L 486.2369337979094 121.58038147138961 L 487.97909407665503 121.25340599455035 L 489.7212543554007 130.73569482288826 L 491.4634146341463 125.83106267029973 L 493.20557491289196 128.7738419618529 L 494.9477351916376 129.10081743869205 L 496.68989547038325 130.08174386920984 L 498.4320557491289 134.6594005449591 L 500.17421602787454 130.89918256130784 L 501.91637630662024 132.37057220708448 L 503.6585365853659 126.48501362397815 L 505.4006968641115 129.91825613079016 L 507.14285714285717 133.0245231607629 L 508.8850174216028 135.8038147138965 L 510.62717770034845 144.9591280653951 L 512.3693379790941 155.09536784741144 L 514.1114982578397 155.91280653950955 L 515.8536585365854 157.71117166212534 L 517.5958188153311 161.30790190735692 L 519.3379790940767 166.70299727520435 L 521.0801393728223 166.04904632152588 L 522.822299651568 172.58855585831063 L 524.5644599303137 175.0408719346049 L 526.3066202090592 178.8010899182561 L 528.0487804878048 183.37874659400543 L 529.7909407665505 191.22615803814713 L 531.5331010452962 197.76566757493188 L 533.2752613240418 197.1117166212534 L 535.0174216027874 202.17983651226157 L 536.7595818815331 206.92098092643053 L 538.5017421602788 209.700272479564 L 540.2439024390244 213.95095367847412 L 541.98606271777 219.8365122615804 L 543.7282229965157 218.69209809264302 L 545.4703832752614 226.04904632152588 L 547.212543554007 231.4441416893733 L 548.9547038327526 236.02179836512258 L 550.6968641114983 240.92643051771117 L 552.439024390244 243.05177111716623 L 554.1811846689895 247.13896457765665 L 555.9233449477351 243.54223433242507 L 557.6655052264808 244.52316076294275 L 559.4076655052265 243.37874659400543 L 561.1498257839721 242.07084468664848 L 562.8919860627177 247.13896457765665 L 564.6341463414634 250.40871934604903 L 566.3763066202091 253.6784741144414 L 568.1184668989547 254.98637602179835 L 569.8606271777003 260.2179836512262 L 571.602787456446 254.65940054495914 L 573.3449477351917 259.40054495912807 L 575.0871080139373 273.2970027247957 L 576.8292682926829 280.1634877384196 L 578.5714285714286 271.1716621253406 L 580.3135888501743 277.5476839237057 L 582.0557491289198 263.97820163487734 L 583.7979094076654 263.81471389645776 L 585.5400696864111 261.0354223433243 L 587.2822299651568 263.6512261580382 L 589.0243902439024 273.46049046321525 L 590.766550522648 274.27792915531336 L 592.5087108013937 284.0871934604904 L 594.2508710801394 288.8283378746594 L 595.993031358885 298.9645776566757 L 597.7351916376306 294.38692098092645 L 599.4773519163763 293.56948228882834 L 601.219512195122 290.79019073569486 L 602.9616724738676 289.80926430517707 L 604.7038327526133 291.4441416893733 L 606.445993031359 293.2425068119891 L 608.1881533101046 291.77111716621255 L 609.9303135888501 294.7138964577656 L 611.6724738675958 297.98365122615803 L 613.4146341463415 305.1771117166212 L 615.1567944250871 310.408719346049 L 616.8989547038327 313.1880108991826 L 618.6411149825784 312.53405994550405 L 620.3832752613241 316.78474114441417 L 622.1254355400697 325.449591280654 L 623.8675958188153 331.1716621253406 L 625.609756097561 334.44141689373294 L 627.3519163763067 343.10626702997274 L 629.0940766550523 347.68392370572207 L 630.8362369337979 348.8283378746594 L 632.5783972125436 352.42506811989097 L 634.3205574912893 353.4059945504087 L 636.0627177700349 355.6948228882834 L 637.8048780487804 356.83923705722066 L 639.5470383275261 364.03269754768394 L 641.2891986062718 374.49591280653954 L 643.0313588850174 373.35149863760216 L 644.773519163763 374.16893732970027 L 646.5156794425087 376.78474114441417 L 648.2578397212544 381.36239782016344 L 650 381.85286103542234 L 650 400 Z" /><text  class="poloto_labels poloto_text poloto_title" alignment-baseline="start" text-anchor="middle" font-size="x-large" x="400" y="37.5" >Total players on 2021-10-10</text><text  class="poloto_labels poloto_text poloto_xname" alignment-baseline="start" text-anchor="middle" font-size="x-large" x="400" y="481.25" >Time</text><text  class="poloto_labels poloto_text poloto_yname" alignment-baseline="start" text-anchor="middle" font-size="x-large" transform="rotate(-90,37.5,250)" x="37.5" y="250" >Count</text><line  class="poloto_axis_lines" stroke="black" x1="150" x2="150" y1="400" y2="405" /><text  class="poloto_tick_labels poloto_text" alignment-baseline="start" text-anchor="middle" x="150" y="430" > 00:00:00</text><line  class="poloto_axis_lines" stroke="black" x1="266.14401858304296" x2="266.14401858304296" y1="400" y2="405" /><text  class="poloto_tick_labels poloto_text" alignment-baseline="start" text-anchor="middle" x="266.14401858304296" y="430" > 05:33:20</text><line  class="poloto_axis_lines" stroke="black" x1="382.2880371660859" x2="382.2880371660859" y1="400" y2="405" /><text  class="poloto_tick_labels poloto_text" alignment-baseline="start" text-anchor="middle" x="382.2880371660859" y="430" > 11:06:40</text><line  class="poloto_axis_lines" stroke="black" x1="498.4320557491289" x2="498.4320557491289" y1="400" y2="405" /><text  class="poloto_tick_labels poloto_text" alignment-baseline="start" text-anchor="middle" x="498.4320557491289" y="430" > 16:40:00</text><line  class="poloto_axis_lines" stroke="black" x1="614.5760743321719" x2="614.5760743321719" y1="400" y2="405" /><text  class="poloto_tick_labels poloto_text" alignment-baseline="start" text-anchor="middle" x="614.5760743321719" y="430" > 22:13:20</text><line  class="poloto_axis_lines" stroke="black" x1="150" x2="144" y1="336.2397820163487" y2="336.2397820163487" /><text  class="poloto_tick_labels poloto_text" alignment-baseline="middle" text-anchor="end" x="135" y="336.2397820163487" > 1500</text><line  class="poloto_axis_lines" stroke="black" x1="150" x2="144" y1="254.49591280653954" y2="254.49591280653954" /><text  class="poloto_tick_labels poloto_text" alignment-baseline="middle" text-anchor="end" x="135" y="254.49591280653954" > 2000</text><line  class="poloto_axis_lines" stroke="black" x1="150" x2="144" y1="172.75204359673023" y2="172.75204359673023" /><text  class="poloto_tick_labels poloto_text" alignment-baseline="middle" text-anchor="end" x="135" y="172.75204359673023" > 2500</text><path  stroke="black" fill="none" class="poloto_axis_lines" style="stroke-dasharray:14.518002322880372;stroke-dashoffset:-0;" d=" M 150 400 L 650 400" /><path  stroke="black" fill="none" class="poloto_axis_lines" style="stroke-dasharray:8.174386920980925;stroke-dashoffset:-63.760217983651245;" d=" M 150 400 L 150 100" /></svg>