<svg class="poloto" width="800" height="500" viewBox="0 0 800 500" xmlns="http://www.w3.org/2000/svg"><style>.poloto { stroke-linecap:round; stroke-linejoin:round; font-family: 'Tahoma', sans-serif; background-color: AliceBlue;} .poloto_scatter{stroke-width:7} .poloto_line{stroke-width:2} .poloto_text{fill: black;} .poloto_axis_lines{stroke: black;stroke-width:3;fill:none;stroke-dasharray:none} .poloto0stroke{stroke:  blue;} .poloto1stroke{stroke:  red;} .poloto2stroke{stroke:  green;} .poloto3stroke{stroke:  gold;} .poloto4stroke{stroke:  aqua;} .poloto5stroke{stroke:  lime;} .poloto6stroke{stroke:  orange;} .poloto7stroke{stroke:  chocolate;} .poloto0fill{fill:blue;} .poloto1fill{fill:red;} .poloto2fill{fill:green;} .poloto3fill{fill:gold;} .poloto4fill{fill:aqua;} .poloto5fill{fill:lime;} .poloto6fill{fill:orange;} .poloto7fill{fill:chocolate;}</style><text  class="poloto_text poloto_legend_text" alignment-baseline="middle" text-anchor="start" font-size="large" x="675" y="100" ></text><path  class="poloto_linefill poloto0fill" d=" M 150 400 L 150 352.09471766848816 L 151.74216027874564 352.6411657559198 L 153.4843205574913 353.3697632058288 L 155.22648083623693 357.92349726775956 L 156.96864111498257 367.0309653916211 L 158.71080139372822 359.74499089253186 L 160.45296167247386 363.57012750455374 L 162.1951219512195 369.03460837887064 L 163.93728222996515 378.14207650273227 L 165.6794425087108 377.77777777777777 L 167.42160278745644 373.58834244080145 L 169.16376306620208 373.40619307832424 L 170.90592334494772 372.1311475409836 L 172.64808362369337 372.4954462659381 L 174.390243902439 368.8524590163934 L 176.13240418118465 361.02003642987245 L 177.8745644599303 359.92714025500914 L 179.61672473867597 363.023679417122 L 181.3588850174216 361.74863387978144 L 183.10104529616726 364.2987249544626 L 184.8432055749129 363.023679417122 L 186.58536585365854 369.7632058287796 L 188.3275261324042 368.48816029143893 L 190.06968641114983 366.120218579235 L 191.81184668989548 362.4772313296903 L 193.55400696864112 366.8488160291439 L 195.29616724738676 366.66666666666663 L 197.0383275261324 367.75956284153006 L 198.78048780487805 366.120218579235 L 200.5226480836237 363.2058287795993 L 202.26480836236934 358.8342440801457 L 204.00696864111498 353.0054644808743 L 205.74912891986062 355.3734061930783 L 207.49128919860627 351.54826958105645 L 209.2334494773519 350.8196721311475 L 210.97560975609755 349.36247723132965 L 212.7177700348432 346.6302367941712 L 214.45993031358887 347.90528233151184 L 216.2020905923345 348.816029143898 L 217.94425087108016 345.3551912568306 L 219.6864111498258 343.35154826958103 L 221.42857142857144 339.1621129326047 L 223.1707317073171 338.43351548269584 L 224.91289198606273 337.70491803278685 L 226.65505226480838 328.77959927140256 L 228.39721254355402 331.511839708561 L 230.13937282229966 331.1475409836066 L 231.8815331010453 332.6047358834244 L 233.62369337979095 327.68670309653913 L 235.3658536585366 322.7686703096539 L 237.10801393728224 319.4899817850637 L 238.85017421602788 319.1256830601093 L 240.59233449477352 318.76138433515484 L 242.33449477351917 312.2040072859745 L 244.0766550522648 312.93260473588344 L 245.81881533101046 310.0182149362477 L 247.5609756097561 314.0255009107468 L 249.30313588850174 309.471766848816 L 251.0452961672474 303.4608378870674 L 252.78745644599303 309.8360655737705 L 254.52961672473867 303.09653916211295 L 256.2717770034843 304.73588342440803 L 258.01393728222996 303.6429872495446 L 259.7560975609756 305.6466302367942 L 261.49825783972125 307.8324225865209 L 263.2404181184669 307.103825136612 L 264.98257839721254 304.91803278688525 L 266.7247386759582 300.72859744990893 L 268.4668989547038 298.54280510018214 L 270.20905923344947 293.07832422586523 L 271.9512195121951 287.06739526411656 L 273.69337979094075 286.88524590163934 L 275.4355400696864 283.7887067395264 L 277.17770034843204 281.60291438979965 L 278.91986062717774 279.5992714025501 L 280.6620209059233 269.03460837887064 L 282.404181184669 264.4808743169399 L 284.1463414634146 265.0273224043716 L 285.8885017421603 268.1238615664845 L 287.6306620209059 268.30601092896177 L 289.3728222996516 270.856102003643 L 291.1149825783972 270.3096539162113 L 292.8571428571429 266.8488160291439 L 294.5993031358885 257.5591985428051 L 296.3414634146342 260.2914389799636 L 298.08362369337976 259.3806921675774 L 299.82578397212546 251.91256830601094 L 301.56794425087105 252.09471766848816 L 303.31010452961675 244.9908925318761 L 305.05226480836234 238.43351548269578 L 306.79442508710804 236.7941712204007 L 308.5365853658536 241.71220400728595 L 310.2787456445993 236.7941712204007 L 312.0209059233449 236.06557377049182 L 313.7630662020906 231.69398907103823 L 315.5052264808362 232.24043715846994 L 317.2473867595819 233.1511839708561 L 318.9895470383275 226.95810564663026 L 320.7317073170732 231.511839708561 L 322.4738675958188 233.33333333333331 L 324.2160278745645 228.23315118397085 L 325.9581881533101 225.6830601092896 L 327.70034843205576 226.04735883424405 L 329.4425087108014 229.87249544626593 L 331.18466898954705 221.85792349726773 L 332.9268292682927 212.56830601092895 L 334.66898954703834 213.66120218579238 L 336.411149825784 207.6502732240437 L 338.1533101045296 214.75409836065575 L 339.89547038327527 215.3005464480874 L 341.6376306620209 212.56830601092895 L 343.37979094076655 211.47540983606558 L 345.1219512195122 206.55737704918033 L 346.86411149825784 206.19307832422584 L 348.6062717770035 205.64663023679418 L 350.34843205574913 205.64663023679418 L 352.0905923344948 201.09289617486337 L 353.8327526132404 203.82513661202188 L 355.57491289198606 203.46083788706738 L 357.3170731707317 189.43533697632057 L 359.05923344947735 189.79963570127507 L 360.801393728223 200.36429872495444 L 362.54355400696863 195.4462659380692 L 364.2857142857143 192.89617486338796 L 366.0278745644599 187.9781420765027 L 367.77003484320556 189.25318761384335 L 369.5121951219512 185.42805100182147 L 371.25435540069685 185.06375227686704 L 372.9965156794425 185.9744990892532 L 374.73867595818814 188.52459016393442 L 376.4808362369338 185.79234972677597 L 378.2229965156795 188.3424408014572 L 379.96515679442507 190.528233151184 L 381.70731707317077 199.63570127504556 L 383.44947735191636 182.87795992714024 L 385.19163763066206 179.96357012750457 L 386.93379790940764 190.89253187613843 L 388.67595818815334 183.06010928961751 L 390.41811846689893 182.87795992714024 L 392.16027874564463 181.23861566484516 L 393.9024390243902 170.67395264116578 L 395.6445993031359 167.57741347905284 L 397.3867595818815 160.10928961748635 L 399.1289198606272 161.20218579234972 L 400.8710801393728 162.8415300546448 L 402.6132404181185 154.6448087431694 L 404.3554006968641 160.29143897996357 L 406.0975609756098 172.1311475409836 L 407.8397212543554 175.77413479052825 L 409.58188153310107 168.30601092896177 L 411.3240418118467 167.03096539162112 L 413.06620209059236 174.13479052823317 L 414.808362369338 161.93078324225866 L 416.55052264808364 150.6375227686703 L 418.2926829268293 143.3515482695811 L 420.03484320557493 137.1584699453552 L 421.7770034843206 126.22950819672133 L 423.5191637630662 130.05464480874315 L 425.26132404181186 125.31876138433518 L 427.0034843205575 131.3296903460838 L 428.74564459930315 118.39708561020035 L 430.4878048780488 126.22950819672133 L 432.22996515679444 116.93989071038254 L 433.9721254355401 120.21857923497271 L 435.7142857142857 121.4936247723133 L 437.45644599303137 115.11839708561018 L 439.198606271777 109.28961748633878 L 440.94076655052265 111.11111111111114 L 442.6829268292683 113.29690346083788 L 444.42508710801394 112.20400728597451 L 446.1672473867596 112.38615664845173 L 447.9094076655052 113.11475409836066 L 449.65156794425087 112.56830601092895 L 451.3937282229965 109.10746812386157 L 453.13588850174216 112.56830601092895 L 454.8780487804878 117.66848816029142 L 456.62020905923345 117.8506375227687 L 458.3623693379791 112.0218579234973 L 460.10452961672473 105.8287795992714 L 461.8466898954704 102.91438979963573 L 463.588850174216 100 L 465.33101045296166 102.55009107468123 L 467.0731707317073 102.55009107468123 L 468.81533101045295 108.19672131147541 L 470.5574912891986 114.93624772313296 L 472.29965156794424 116.02914389799633 L 474.0418118466899 111.83970856102002 L 475.7839721254355 113.66120218579238 L 477.52613240418117 145.53734061930783 L 479.2682926829268 152.64116575591987 L 481.01045296167246 140.25500910746814 L 482.7526132404181 137.1584699453552 L 484.49477351916374 162.11293260473587 L 486.2369337979094 151.0018214936248 L 487.97909407665503 176.50273224043718 L 489.7212543554007 188.3424408014572 L 491.4634146341463 179.59927140255007 L 493.20557491289196 173.22404371584702 L 494.9477351916376 173.58834244080145 L 496.68989547038325 194.89981785063753 L 498.4320557491289 176.86703096539162 L 500.17421602787454 176.3205828779599 L 501.91637630662024 180.327868852459 L 503.6585365853659 180.1457194899818 L 505.4006968641115 197.44990892531877 L 507.14285714285717 191.62112932604737 L 508.8850174216028 198.36065573770492 L 510.62717770034845 206.55737704918033 L 512.3693379790941 222.40437158469945 L 514.1114982578397 230.05464480874315 L 515.8536585365854 234.06193078324225 L 517.5958188153311 225.6830601092896 L 519.3379790940767 226.04735883424405 L 521.0801393728223 226.22950819672133 L 522.822299651568 230.60109289617486 L 524.5644599303137 230.60109289617486 L 526.3066202090592 222.040072859745 L 528.0487804878048 226.95810564663026 L 529.7909407665505 234.24408014571947 L 531.5331010452962 230.9653916211293 L 533.2752613240418 237.7049180327869 L 535.0174216027874 236.06557377049182 L 536.7595818815331 245.3551912568306 L 538.5017421602788 247.35883424408013 L 540.2439024390244 242.25865209471766 L 541.98606271777 246.81238615664847 L 543.7282229965157 250.8196721311475 L 545.4703832752614 250.27322404371586 L 547.212543554007 254.09836065573768 L 548.9547038327526 256.8306010928962 L 550.6968641114983 252.4590163934426 L 552.439024390244 250.27322404371586 L 554.1811846689895 251.73041894353372 L 555.9233449477351 257.1948998178506 L 557.6655052264808 254.8269581056466 L 559.4076655052265 256.8306010928962 L 561.1498257839721 251.183970856102 L 562.8919860627177 257.0127504553734 L 564.6341463414634 261.2021857923497 L 566.3763066202091 261.93078324225866 L 568.1184668989547 266.120218579235 L 569.8606271777003 272.6775956284153 L 571.602787456446 271.40255009107466 L 573.3449477351917 271.9489981785064 L 575.0871080139373 271.40255009107466 L 576.8292682926829 268.488160291439 L 578.5714285714286 278.6885245901639 L 580.3135888501743 272.3132969034608 L 582.0557491289198 273.40619307832424 L 583.7979094076654 282.5136612021858 L 585.5400696864111 290.89253187613843 L 587.2822299651568 293.8069216757741 L 589.0243902439024 300.36429872495444 L 590.766550522648 303.09653916211295 L 592.5087108013937 300.91074681238615 L 594.2508710801394 300.72859744990893 L 595.993031358885 306.19307832422584 L 597.7351916376306 311.6575591985428 L 599.4773519163763 316.75774134790527 L 601.219512195122 321.1293260473588 L 602.9616724738676 317.304189435337 L 604.7038327526133 319.8542805100182 L 606.445993031359 320.21857923497265 L 608.1881533101046 328.41530054644807 L 609.9303135888501 334.42622950819674 L 611.6724738675958 338.7978142076503 L 613.4146341463415 338.43351548269584 L 615.1567944250871 344.99089253187617 L 616.8989547038327 344.08014571948996 L 618.6411149825784 355.3734061930783 L 620.3832752613241 357.37704918032784 L 622.1254355400697 357.0127504553734 L 623.8675958188153 359.56284153005464 L 625.609756097561 365.0273224043716 L 627.3519163763067 365.0273224043716 L 629.0940766550523 374.3169398907104 L 630.8362369337979 370.6739526411658 L 632.5783972125436 373.7704918032787 L 634.3205574912893 375.9562841530054 L 636.0627177700349 378.3242258652094 L 637.8048780487804 383.60655737704917 L 639.5470383275261 382.51366120218574 L 641.2891986062718 385.9744990892532 L 643.0313588850174 385.61020036429875 L 644.773519163763 386.3387978142076 L 646.5156794425087 384.1530054644809 L 648.2578397212544 390.89253187613843 L 650 400 L 650 400 Z" /><text  class="poloto_labels poloto_text poloto_title" alignment-baseline="start" text-anchor="middle" font-size="x-large" x="400" y="37.5" >Total players on 2021-11-14</text><text  class="poloto_labels poloto_text poloto_xname" alignment-baseline="start" text-anchor="middle" font-size="x-large" x="400" y="481.25" >Time</text><text  class="poloto_labels poloto_text poloto_yname" alignment-baseline="start" text-anchor="middle" font-size="x-large" transform="rotate(-90,37.5,250)" x="37.5" y="250" >Count</text><line  class="poloto_axis_lines" stroke="black" x1="150" x2="150" y1="400" y2="405" /><text  class="poloto_tick_labels poloto_text" alignment-baseline="start" text-anchor="middle" x="150" y="430" > 00:00:00</text><line  class="poloto_axis_lines" stroke="black" x1="266.14401858304296" x2="266.14401858304296" y1="400" y2="405" /><text  class="poloto_tick_labels poloto_text" alignment-baseline="start" text-anchor="middle" x="266.14401858304296" y="430" > 05:33:20</text><line  class="poloto_axis_lines" stroke="black" x1="382.2880371660859" x2="382.2880371660859" y1="400" y2="405" /><text  class="poloto_tick_labels poloto_text" alignment-baseline="start" text-anchor="middle" x="382.2880371660859" y="430" > 11:06:40</text><line  class="poloto_axis_lines" stroke="black" x1="498.4320557491289" x2="498.4320557491289" y1="400" y2="405" /><text  class="poloto_tick_labels poloto_text" alignment-baseline="start" text-anchor="middle" x="498.4320557491289" y="430" > 16:40:00</text><line  class="poloto_axis_lines" stroke="black" x1="614.5760743321719" x2="614.5760743321719" y1="400" y2="405" /><text  class="poloto_tick_labels poloto_text" alignment-baseline="start" text-anchor="middle" x="614.5760743321719" y="430" > 22:13:20</text><line  class="poloto_axis_lines" stroke="black" x1="150" x2="144" y1="319.672131147541" y2="319.672131147541" /><text  class="poloto_tick_labels poloto_text" alignment-baseline="middle" text-anchor="end" x="135" y="319.672131147541" > 1500</text><line  class="poloto_axis_lines" stroke="black" x1="150" x2="144" y1="228.59744990892534" y2="228.59744990892534" /><text  class="poloto_tick_labels poloto_text" alignment-baseline="middle" text-anchor="end" x="135" y="228.59744990892534" > 2000</text><line  class="poloto_axis_lines" stroke="black" x1="150" x2="144" y1="137.52276867030963" y2="137.52276867030963" /><text  class="poloto_tick_labels poloto_text" alignment-baseline="middle" text-anchor="end" x="135" y="137.52276867030963" > 2500</text><path  stroke="black" fill="none" class="poloto_axis_lines" style="stroke-dasharray:14.518002322880372;stroke-dashoffset:-0;" d=" M 150 400 L 650 400" /><path  stroke="black" fill="none" class="poloto_axis_lines" style="stroke-dasharray:9.107468123861565;stroke-dashoffset:-80.327868852459;" d=" M 150 400 L 150 100" /></svg>