<svg class="poloto" width="800" height="500" viewBox="0 0 800 500" xmlns="http://www.w3.org/2000/svg"><style>.poloto { stroke-linecap:round; stroke-linejoin:round; font-family: 'Tahoma', sans-serif; background-color: AliceBlue;} .poloto_scatter{stroke-width:7} .poloto_line{stroke-width:2} .poloto_text{fill: black;} .poloto_axis_lines{stroke: black;stroke-width:3;fill:none;stroke-dasharray:none} .poloto0stroke{stroke:  blue;} .poloto1stroke{stroke:  red;} .poloto2stroke{stroke:  green;} .poloto3stroke{stroke:  gold;} .poloto4stroke{stroke:  aqua;} .poloto5stroke{stroke:  lime;} .poloto6stroke{stroke:  orange;} .poloto7stroke{stroke:  chocolate;} .poloto0fill{fill:blue;} .poloto1fill{fill:red;} .poloto2fill{fill:green;} .poloto3fill{fill:gold;} .poloto4fill{fill:aqua;} .poloto5fill{fill:lime;} .poloto6fill{fill:orange;} .poloto7fill{fill:chocolate;}</style><text  class="poloto_text poloto_legend_text" alignment-baseline="middle" text-anchor="start" font-size="large" x="675" y="100" ></text><path  class="poloto_linefill poloto0fill" d=" M 150 400 L 150 251.44620131122252 L 151.74216027874564 248.55379868877748 L 153.4843205574913 249.4793675279599 L 155.22648083623693 252.37177015040493 L 156.96864111498257 253.76012340917856 L 158.71080139372822 251.2148091014269 L 160.45296167247386 253.64442730428075 L 162.1951219512195 255.9583494022368 L 163.93728222996515 257.92518318549946 L 165.6794425087108 257.6937909757038 L 167.42160278745644 257.92518318549946 L 169.16376306620208 258.73505591978403 L 170.90592334494772 262.6687234863093 L 172.64808362369337 263.0158118010027 L 174.390243902439 263.3629001156961 L 176.13240418118465 261.9745468569225 L 177.8745644599303 265.90821442344776 L 179.61672473867597 266.25530273814115 L 181.3588850174216 264.75125337446974 L 183.10104529616726 265.09834168916314 L 184.8432055749129 265.2140377940609 L 186.58536585365854 266.37099884303893 L 188.3275261324042 267.75935210181257 L 190.06968641114983 266.1396066332434 L 191.81184668989548 262.6687234863093 L 193.55400696864112 268.3378326263016 L 195.29616724738676 266.02391052834554 L 197.0383275261324 267.75935210181257 L 198.78048780487805 271.6930196683378 L 200.5226480836237 270.998843038951 L 202.26480836236934 273.19706903200927 L 204.00696864111498 269.95757809487077 L 205.74912891986062 269.841881989973 L 207.49128919860627 266.02391052834554 L 209.2334494773519 266.7180871577324 L 210.97560975609755 266.7180871577324 L 212.7177700348432 266.25530273814115 L 214.45993031358887 266.94947936752794 L 216.2020905923345 266.83378326263016 L 217.94425087108016 265.67682221365214 L 219.6864111498258 262.6687234863093 L 221.42857142857144 261.8588507520247 L 223.1707317073171 263.2472040107983 L 224.91289198606273 266.94947936752794 L 226.65505226480838 262.7844195912071 L 228.39721254355402 266.60239105283455 L 230.13937282229966 264.40416505977635 L 231.8815331010453 261.5117624373313 L 233.62369337979095 260.8175858079445 L 235.3658536585366 261.16467412263785 L 237.10801393728224 256.18974161203244 L 238.85017421602788 253.52873119938295 L 240.59233449477352 248.43810258387967 L 242.33449477351917 248.7851908985731 L 244.0766550522648 246.35557269571925 L 245.81881533101046 249.5950636328577 L 247.5609756097561 249.8264558426533 L 249.30313588850174 253.41303509448517 L 251.0452961672474 251.33050520632472 L 252.78745644599303 248.20671037408408 L 254.52961672473867 248.43810258387967 L 256.2717770034843 246.23987659082144 L 258.01393728222996 247.51253374469727 L 259.7560975609756 244.62013112225222 L 261.49825783972125 249.4793675279599 L 263.2404181184669 248.9008870034709 L 264.98257839721254 247.16544543000387 L 266.7247386759582 245.77709217123024 L 268.4668989547038 244.38873891245663 L 270.20905923344947 245.54569996143462 L 271.9512195121951 245.43000385653684 L 273.69337979094075 243.81025838796762 L 275.4355400696864 240.80215966062477 L 277.17770034843204 240.45507134593134 L 278.9198606271777 240.45507134593134 L 280.6620209059233 239.18241419205555 L 282.40418118466897 240.68646355572696 L 284.1463414634146 242.19051291939837 L 285.88850174216026 237.7940609332819 L 287.6306620209059 236.98418819899732 L 289.37282229965155 234.67026610104128 L 291.1149825783972 231.54647126880062 L 292.85714285714283 230.3895102198226 L 294.5993031358885 229.8110296953336 L 296.3414634146342 226.80293096799076 L 298.08362369337976 229.23254917084458 L 299.82578397212546 228.65406864635557 L 301.56794425087105 222.98495950636328 L 303.31010452961675 223.7948322406479 L 305.05226480836234 226.34014654839953 L 306.79442508710804 229.4639413806402 L 308.5365853658536 226.68723486309295 L 310.2787456445993 222.98495950636328 L 312.0209059233449 222.17508677207869 L 313.7630662020906 217.66293868106442 L 315.5052264808362 217.89433089086 L 317.2473867595819 222.98495950636328 L 318.9895470383275 221.13382182799847 L 320.7317073170732 224.0262244504435 L 322.4738675958188 224.0262244504435 L 324.2160278745645 226.10875433860394 L 325.95818815331006 224.1419205553413 L 327.70034843205576 223.9105283455457 L 329.44250871080135 221.13382182799847 L 331.18466898954705 219.16698804473583 L 332.92682926829264 216.15888931739298 L 334.66898954703834 212.1095256459699 L 336.4111498257839 215.11762437331276 L 338.1533101045296 216.15888931739298 L 339.8954703832752 218.81989973004244 L 341.6376306620209 212.34091785576553 L 343.3797909407665 213.72927111453916 L 345.1219512195122 206.44041650597762 L 346.86411149825784 207.94446586964906 L 348.6062717770035 211.41534901658312 L 350.34843205574913 203.08522946394137 L 352.0905923344948 201.81257231006558 L 353.8327526132404 197.4161203239491 L 355.57491289198606 198.45738526802933 L 357.3170731707317 196.49055148476668 L 359.05923344947735 195.21789433089086 L 360.801393728223 190.9371384496722 L 362.54355400696863 190.9371384496722 L 364.2857142857143 187.35055919784034 L 366.0278745644599 186.30929425376013 L 367.77003484320556 183.41689163131508 L 369.5121951219512 177.7477824913228 L 371.25435540069685 179.13613575009643 L 372.9965156794425 176.70651754724258 L 374.73867595818814 177.632086386425 L 376.4808362369338 176.9379097570382 L 378.2229965156794 176.8222136521404 L 379.96515679442507 174.04550713459315 L 381.7073170731707 174.27689934438874 L 383.44947735191636 176.12803702275357 L 385.191637630662 177.51639028152718 L 386.93379790940764 175.54955649826456 L 388.6759581881533 172.5414577709217 L 390.41811846689893 172.5414577709217 L 392.1602787456446 168.26070188970306 L 393.9024390243902 172.77284998071733 L 395.6445993031359 162.24450443501735 L 397.3867595818815 168.26070188970306 L 399.1289198606272 167.10374084072504 L 400.8710801393728 160.04627844195912 L 402.6132404181185 161.31893559583494 L 404.3554006968641 159.23640570767452 L 406.0975609756097 160.27767065175473 L 407.83972125435537 158.8893173929811 L 409.581881533101 160.39336675665254 L 411.32404181184666 162.36020053991516 L 413.0662020905923 158.4265329733899 L 414.80836236933794 155.88121866563827 L 416.5505226480836 157.5009641342075 L 418.29268292682923 152.7574238333976 L 420.0348432055749 153.68299267258004 L 421.7770034843206 157.8480524489009 L 423.5191637630662 155.76552256074046 L 425.26132404181186 150.44350173544157 L 427.0034843205575 159.0050134978789 L 428.74564459930315 151.2533744697262 L 430.4878048780488 148.70806016197454 L 432.22996515679444 157.8480524489009 L 433.9721254355401 151.8318549942152 L 435.7142857142857 141.99768607790207 L 437.45644599303137 152.2946394138064 L 439.198606271777 153.10451214809103 L 440.94076655052265 150.32780563054376 L 442.6829268292683 141.76629386810646 L 444.42508710801394 400 L 446.1672473867596 138.75819514076358 L 447.9094076655052 127.88276128037023 L 449.65156794425087 134.59313536444273 L 451.3937282229965 127.53567296567684 L 453.13588850174216 129.15541843424603 L 454.8780487804878 118.16428846895491 L 456.62020905923345 120.01542614731972 L 458.3623693379791 124.64327034323179 L 460.10452961672473 119.08985730813731 L 461.8466898954704 124.99035865792519 L 463.588850174216 116.77593521018127 L 465.33101045296166 115.27188584650986 L 467.0731707317073 117.12302352487467 L 468.81533101045295 110.41264944080217 L 470.5574912891986 112.49517932896259 L 472.29965156794424 107.17315850366373 L 474.0418118466899 100 L 475.7839721254355 110.06556112610878 L 477.52613240418117 110.41264944080217 L 479.2682926829268 117.23871962977245 L 481.01045296167246 117.35441573467028 L 482.7526132404181 113.65214037794061 L 484.49477351916374 117.35441573467028 L 486.2369337979094 114.11492479753184 L 487.97909407665503 114.11492479753184 L 489.7212543554007 114.80910142691863 L 491.4634146341463 120.7096027767065 L 493.20557491289196 122.56074045507137 L 494.9477351916376 123.37061318935599 L 496.68989547038325 121.63517161588896 L 498.4320557491289 126.26301581180098 L 500.17421602787454 124.06478981874278 L 501.9163763066202 125.33744697261858 L 503.6585365853658 121.51947551099113 L 505.40069686411147 124.99035865792519 L 507.1428571428571 120.59390667180872 L 508.88501742160275 126.61010412649443 L 510.6271777003484 135.75009641342075 L 512.3693379790941 129.27111453914387 L 514.1114982578397 133.32047821056693 L 515.8536585365853 131.2379483224065 L 517.595818815331 134.47743925954495 L 519.3379790940767 132.5106054762823 L 521.0801393728223 131.81642884689552 L 522.822299651568 130.89086000771306 L 524.5644599303137 127.419976860779 L 526.3066202090592 130.89086000771306 L 528.0487804878048 135.98148862321636 L 529.7909407665505 141.99768607790207 L 531.5331010452962 154.03008098727344 L 533.2752613240418 156.57539529502506 L 535.0174216027874 144.08021596606247 L 536.7595818815331 159.4677979174701 L 538.5017421602788 151.369070574624 L 540.2439024390244 152.52603162360202 L 541.98606271777 161.55032780563056 L 543.7282229965157 162.24450443501735 L 545.4703832752614 159.1207096027767 L 547.212543554007 157.8480524489009 L 548.9547038327526 159.69919012726572 L 550.6968641114983 161.78172001542615 L 552.439024390244 160.04627844195912 L 554.1811846689895 157.73235634400308 L 555.9233449477351 160.39336675665254 L 557.6655052264808 162.59159274971077 L 559.4076655052265 164.4427304280756 L 561.1498257839721 161.31893559583494 L 562.8919860627177 163.05437716930197 L 564.6341463414634 170.4589278827613 L 566.3763066202091 162.59159274971077 L 568.1184668989547 170.6903200925569 L 569.8606271777003 167.45082915541843 L 571.602787456446 168.95487851908987 L 573.3449477351917 161.78172001542615 L 575.0871080139373 163.40146548399537 L 576.8292682926829 168.95487851908987 L 578.5714285714286 169.64905514847666 L 580.3135888501743 171.0374084072503 L 582.0557491289198 175.66525260316237 L 583.7979094076654 174.27689934438874 L 585.5400696864111 174.85537986887775 L 587.2822299651568 177.05360586193598 L 589.0243902439024 183.76397994600848 L 590.766550522648 176.47512533744697 L 592.5087108013937 173.0042421905129 L 594.2508710801394 178.3262630158118 L 595.993031358885 181.91284226764367 L 597.7351916376306 183.87967605090628 L 599.4773519163763 187.69764751253376 L 601.219512195122 187.46625530273815 L 602.9616724738676 195.33359043578866 L 604.7038327526132 191.8627072888546 L 606.4459930313589 191.1685306594678 L 608.1881533101046 187.35055919784034 L 609.9303135888501 193.59814886232164 L 611.6724738675957 191.97840339375242 L 613.4146341463414 192.67258002313923 L 615.1567944250871 193.48245275742383 L 616.8989547038327 201.34978789047435 L 618.6411149825783 202.15966062475897 L 620.383275261324 210.1426918627073 L 622.1254355400697 204.473582722715 L 623.8675958188153 206.90320092556885 L 625.609756097561 205.63054377169303 L 627.3519163763067 203.4323177786348 L 629.0940766550523 208.75433860393366 L 630.8362369337979 211.41534901658312 L 632.5783972125436 210.8368684920941 L 634.3205574912893 216.15888931739298 L 636.0627177700349 215.11762437331276 L 637.8048780487804 218.472811415349 L 639.5470383275261 223.2163517161589 L 641.2891986062718 221.13382182799847 L 643.0313588850174 222.05939066718088 L 644.773519163763 220.90242961820286 L 646.5156794425087 222.05939066718088 L 648.2578397212544 226.91862707288854 L 650 229.9267258002314 L 650 400 Z" /><text  class="poloto_labels poloto_text poloto_title" alignment-baseline="start" text-anchor="middle" font-size="x-large" x="400" y="37.5" >Total players on 2021-07-12</text><text  class="poloto_labels poloto_text poloto_xname" alignment-baseline="start" text-anchor="middle" font-size="x-large" x="400" y="481.25" >Time</text><text  class="poloto_labels poloto_text poloto_yname" alignment-baseline="start" text-anchor="middle" font-size="x-large" transform="rotate(-90,37.5,250)" x="37.5" y="250" >Count</text><line  class="poloto_axis_lines" stroke="black" x1="208.0487804878049" x2="208.0487804878049" y1="400" y2="405" /><text  class="poloto_tick_labels poloto_text" alignment-baseline="start" text-anchor="middle" x="208.0487804878049" y="430" > 03:00</text><line  class="poloto_axis_lines" stroke="black" x1="266.1207897793264" x2="266.1207897793264" y1="400" y2="405" /><text  class="poloto_tick_labels poloto_text" alignment-baseline="start" text-anchor="middle" x="266.1207897793264" y="430" > 06:00</text><line  class="poloto_axis_lines" stroke="black" x1="324.19279907084785" x2="324.19279907084785" y1="400" y2="405" /><text  class="poloto_tick_labels poloto_text" alignment-baseline="start" text-anchor="middle" x="324.19279907084785" y="430" > 08:00</text><line  class="poloto_axis_lines" stroke="black" x1="382.2648083623693" x2="382.2648083623693" y1="400" y2="405" /><text  class="poloto_tick_labels poloto_text" alignment-baseline="start" text-anchor="middle" x="382.2648083623693" y="430" > 11:00</text><line  class="poloto_axis_lines" stroke="black" x1="440.3368176538908" x2="440.3368176538908" y1="400" y2="405" /><text  class="poloto_tick_labels poloto_text" alignment-baseline="start" text-anchor="middle" x="440.3368176538908" y="430" > 14:00</text><line  class="poloto_axis_lines" stroke="black" x1="498.4088269454123" x2="498.4088269454123" y1="400" y2="405" /><text  class="poloto_tick_labels poloto_text" alignment-baseline="start" text-anchor="middle" x="498.4088269454123" y="430" > 17:00</text><line  class="poloto_axis_lines" stroke="black" x1="556.4808362369338" x2="556.4808362369338" y1="400" y2="405" /><text  class="poloto_tick_labels poloto_text" alignment-baseline="start" text-anchor="middle" x="556.4808362369338" y="430" > 19:00</text><line  class="poloto_axis_lines" stroke="black" x1="614.5528455284552" x2="614.5528455284552" y1="400" y2="405" /><text  class="poloto_tick_labels poloto_text" alignment-baseline="start" text-anchor="middle" x="614.5528455284552" y="430" > 22:00</text><line  class="poloto_axis_lines" stroke="black" x1="150" x2="144" y1="400" y2="400" /><text  class="poloto_tick_labels poloto_text" alignment-baseline="middle" text-anchor="end" x="135" y="400" > 0</text><line  class="poloto_axis_lines" stroke="black" x1="150" x2="144" y1="342.1519475510991" y2="342.1519475510991" /><text  class="poloto_tick_labels poloto_text" alignment-baseline="middle" text-anchor="end" x="135" y="342.1519475510991" > 500</text><line  class="poloto_axis_lines" stroke="black" x1="150" x2="144" y1="284.3038951021982" y2="284.3038951021982" /><text  class="poloto_tick_labels poloto_text" alignment-baseline="middle" text-anchor="end" x="135" y="284.3038951021982" > 1000</text><line  class="poloto_axis_lines" stroke="black" x1="150" x2="144" y1="226.45584265329734" y2="226.45584265329734" /><text  class="poloto_tick_labels poloto_text" alignment-baseline="middle" text-anchor="end" x="135" y="226.45584265329734" > 1500</text><line  class="poloto_axis_lines" stroke="black" x1="150" x2="144" y1="168.60779020439645" y2="168.60779020439645" /><text  class="poloto_tick_labels poloto_text" alignment-baseline="middle" text-anchor="end" x="135" y="168.60779020439645" > 2000</text><line  class="poloto_axis_lines" stroke="black" x1="150" x2="144" y1="110.75973775549556" y2="110.75973775549556" /><text  class="poloto_tick_labels poloto_text" alignment-baseline="middle" text-anchor="end" x="135" y="110.75973775549556" > 2500</text><path  stroke="black" fill="none" class="poloto_axis_lines" style="stroke-dasharray:14.518002322880372;stroke-dashoffset:-58.04878048780488;" d=" M 150 400 L 650 400" /><path  stroke="black" fill="none" class="poloto_axis_lines" style="stroke-dasharray:5.784805244890089;stroke-dashoffset:-0;" d=" M 150 400 L 150 100" /></svg>