<svg class="poloto" width="800" height="500" viewBox="0 0 800 500" xmlns="http://www.w3.org/2000/svg"><style>.poloto { stroke-linecap:round; stroke-linejoin:round; font-family: 'Tahoma', sans-serif; background-color: AliceBlue;} .poloto_scatter{stroke-width:7} .poloto_line{stroke-width:2} .poloto_text{fill: black;} .poloto_axis_lines{stroke: black;stroke-width:3;fill:none;stroke-dasharray:none} .poloto0stroke{stroke:  blue;} .poloto1stroke{stroke:  red;} .poloto2stroke{stroke:  green;} .poloto3stroke{stroke:  gold;} .poloto4stroke{stroke:  aqua;} .poloto5stroke{stroke:  lime;} .poloto6stroke{stroke:  orange;} .poloto7stroke{stroke:  chocolate;} .poloto0fill{fill:blue;} .poloto1fill{fill:red;} .poloto2fill{fill:green;} .poloto3fill{fill:gold;} .poloto4fill{fill:aqua;} .poloto5fill{fill:lime;} .poloto6fill{fill:orange;} .poloto7fill{fill:chocolate;}</style><text  class="poloto_text poloto_legend_text" alignment-baseline="middle" text-anchor="start" font-size="large" x="675" y="100" ></text><path  class="poloto_linefill poloto0fill" d=" M 150 400 L 150 339.45102260495156 L 151.74216027874564 344.6178686759957 L 153.4843205574913 347.8471474703982 L 155.22648083623693 350.75349838536056 L 156.96864111498257 354.951560818084 L 158.71080139372822 361.248654467169 L 160.45296167247386 359.7954790096878 L 162.1951219512195 362.8632938643703 L 163.93728222996515 363.0247578040904 L 165.6794425087108 367.06135629709365 L 167.42160278745644 372.8740581270183 L 169.16376306620208 375.4574811625404 L 170.90592334494772 384.33799784714745 L 172.64808362369337 391.280947255113 L 174.390243902439 392.73412271259417 L 176.13240418118465 387.4058127018299 L 177.8745644599303 400 L 179.61672473867597 393.05705059203444 L 181.3588850174216 391.7653390742734 L 183.10104529616726 391.92680301399355 L 184.8432055749129 392.4111948331539 L 186.58536585365854 388.8589881593111 L 188.3275261324042 392.73412271259417 L 190.06968641114983 392.73412271259417 L 191.81184668989548 397.09364908503767 L 193.55400696864112 392.4111948331539 L 195.29616724738676 393.3799784714747 L 197.0383275261324 389.82777179763184 L 198.78048780487805 394.0258342303552 L 200.5226480836237 394.3487621097955 L 202.26480836236934 389.82777179763184 L 204.00696864111498 392.73412271259417 L 205.74912891986062 390.63509149623246 L 207.49128919860627 387.72874058127013 L 209.2334494773519 386.75995694294943 L 210.97560975609755 383.8536060279871 L 212.7177700348432 386.75995694294943 L 214.45993031358887 382.7233584499462 L 216.2020905923345 384.0150699677072 L 217.94425087108016 381.59311087190525 L 219.6864111498258 387.4058127018299 L 221.42857142857144 385.46824542518834 L 223.1707317073171 380.94725511302477 L 224.91289198606273 372.06673842841764 L 226.65505226480838 368.8374596340151 L 228.39721254355402 368.99892357373517 L 230.13937282229966 370.7750269106566 L 231.8815331010453 370.29063509149626 L 233.62369337979095 368.8374596340151 L 235.3658536585366 374.97308934337997 L 237.10801393728224 372.55113024757804 L 238.85017421602788 371.25941872981696 L 240.59233449477352 369.32185145317544 L 242.33449477351917 362.0559741657696 L 244.0766550522648 364.6393972012917 L 245.81881533101046 363.1862217438105 L 247.5609756097561 352.3681377825619 L 249.30313588850174 351.8837459634015 L 251.0452961672474 346.55543595263725 L 252.78745644599303 350.5920344456405 L 254.52961672473867 355.7588805166846 L 256.2717770034843 354.1442411194833 L 258.01393728222996 353.4983853606028 L 259.7560975609756 351.23789020452097 L 261.49825783972125 349.3003229278794 L 263.2404181184669 348.6544671689989 L 264.98257839721254 344.2949407965554 L 266.7247386759582 340.2583423035522 L 268.4668989547038 340.2583423035522 L 270.20905923344947 339.6124865446717 L 271.9512195121951 347.20129171151774 L 273.69337979094075 348.1700753498385 L 275.4355400696864 350.5920344456405 L 277.17770034843204 349.62325080731966 L 278.91986062717774 347.0398277717976 L 280.6620209059233 349.62325080731966 L 282.404181184669 347.3627556512379 L 284.1463414634146 348.9773950484392 L 285.8885017421603 344.7793326157158 L 287.6306620209059 341.3885898815931 L 289.3728222996516 334.4456404736275 L 291.1149825783972 332.99246501614635 L 292.8571428571429 327.0182992465016 L 294.5993031358885 322.82023681377825 L 296.3414634146342 327.0182992465016 L 298.08362369337976 322.82023681377825 L 299.82578397212546 320.07534983853606 L 301.56794425087105 322.33584499461784 L 303.31010452961675 321.8514531754575 L 305.05226480836234 322.33584499461784 L 306.79442508710804 313.45532831001077 L 308.5365853658536 320.5597416576964 L 310.2787456445993 316.5231431646932 L 312.0209059233449 317.65339074273413 L 313.7630662020906 312.3250807319698 L 315.5052264808362 308.61141011840687 L 317.2473867595819 305.70505920344453 L 318.9895470383275 303.44456404736275 L 320.7317073170732 307.6426264800861 L 322.4738675958188 306.0279870828848 L 324.2160278745645 307.1582346609257 L 325.9581881533101 300.69967707212055 L 327.70034843205576 303.44456404736275 L 329.4425087108014 305.70505920344453 L 331.18466898954705 301.82992465016144 L 332.9268292682927 303.44456404736275 L 334.66898954703834 296.82454251883746 L 336.411149825784 293.59526372443486 L 338.1533101045296 290.6889128094725 L 339.89547038327527 285.5220667384284 L 341.6376306620209 278.740581270183 L 343.37979094076655 271.79763186221743 L 345.1219512195122 273.41227125941873 L 346.86411149825784 266.4693218514532 L 348.6062717770035 265.3390742734123 L 350.34843205574913 263.4015069967707 L 352.0905923344948 277.9332615715823 L 353.8327526132404 259.20344456404735 L 355.57491289198606 252.2604951560818 L 357.3170731707317 253.71367061356295 L 359.05923344947735 249.83853606027986 L 360.801393728223 244.18729817007534 L 362.54355400696863 252.7448869752422 L 364.2857142857143 242.24973089343376 L 366.0278745644599 235.14531754574807 L 367.77003484320556 231.7545748116254 L 369.5121951219512 218.51453175457482 L 371.25435540069685 217.06135629709365 L 372.9965156794425 228.68675995694292 L 374.73867595818814 220.93649085037674 L 376.4808362369338 218.6759956942949 L 378.2229965156795 211.57158234660926 L 379.96515679442507 200.9149623250807 L 381.70731707317077 199.7847147470398 L 383.44947735191636 215.9311087190527 L 385.19163763066206 205.11302475780406 L 386.93379790940764 203.49838536060275 L 388.67595818815334 203.98277717976316 L 390.41811846689893 210.1184068891281 L 392.16027874564463 209.6340150699677 L 393.9024390243902 205.43595263724433 L 395.6445993031359 203.17545748116254 L 397.3867595818815 216.25403659849297 L 399.1289198606272 206.8891280947255 L 400.8710801393728 207.85791173304625 L 402.6132404181185 210.27987082884823 L 404.3554006968641 213.50914962325078 L 406.0975609756098 214.8008611410118 L 407.8397212543554 216.25403659849297 L 409.58188153310107 212.0559741657696 L 411.3240418118467 204.95156081808392 L 413.06620209059236 194.45640473627554 L 414.808362369338 190.58127018299245 L 416.55052264808364 194.77933261571582 L 418.2926829268293 186.22174381054896 L 420.03484320557493 191.5500538213132 L 421.7770034843206 185.09149623250806 L 423.5191637630662 175.56512378902045 L 425.26132404181186 167.0075349838536 L 427.0034843205575 167.8148546824542 L 428.74564459930315 162.97093649085036 L 430.4878048780488 166.03875134553283 L 432.22996515679444 162.80947255113023 L 433.9721254355401 156.83530678148543 L 435.7142857142857 149.73089343379974 L 437.45644599303137 149.40796555435952 L 439.198606271777 147.79332615715822 L 440.94076655052265 139.8815931108719 L 442.6829268292683 142.78794402583424 L 444.42508710801394 132.7771797631862 L 446.1672473867596 129.38643702906347 L 447.9094076655052 125.18837459634011 L 449.65156794425087 117.59956942949407 L 451.3937282229965 118.24542518837455 L 453.13588850174216 117.43810548977393 L 454.8780487804878 115.82346609257263 L 456.62020905923345 112.10979547900968 L 458.3623693379791 109.04198062432721 L 460.10452961672473 114.5317545748116 L 461.8466898954704 116.63078579117325 L 463.588850174216 106.62002152852529 L 465.33101045296166 103.39074273412268 L 467.0731707317073 101.77610333692138 L 468.81533101045295 100 L 470.5574912891986 112.59418729817003 L 472.29965156794424 110.33369214208824 L 474.0418118466899 112.27125941872981 L 475.7839721254355 118.40688912809469 L 477.52613240418117 110.81808396124865 L 479.2682926829268 111.302475780409 L 481.01045296167246 114.69321851453174 L 482.7526132404181 110.65662002152851 L 484.49477351916374 110.81808396124865 L 486.2369337979094 116.1463939720129 L 487.97909407665503 118.56835306781483 L 489.7212543554007 119.69860064585572 L 491.4634146341463 127.61033369214209 L 493.20557491289196 131.96986006458553 L 494.9477351916376 122.92787944025832 L 496.68989547038325 123.57373519913881 L 498.4320557491289 130.6781485468245 L 500.17421602787454 136.1679224973089 L 501.91637630662024 143.59526372443486 L 503.6585365853659 141.49623250807315 L 505.4006968641115 160.71044133476857 L 507.14285714285717 154.57481162540364 L 508.8850174216028 161.84068891280947 L 510.62717770034845 166.20021528525297 L 512.3693379790941 171.20559741657695 L 514.1114982578397 174.27341227125942 L 515.8536585365854 185.09149623250806 L 517.5958188153311 188.64370290635088 L 519.3379790940767 193.16469321851451 L 521.0801393728223 187.9978471474704 L 522.822299651568 195.74811625403657 L 524.5644599303137 187.9978471474704 L 526.3066202090592 192.3573735199139 L 528.0487804878048 197.0398277717976 L 529.7909407665505 201.56081808396124 L 531.5331010452962 212.70182992465016 L 533.2752613240418 214.8008611410118 L 535.0174216027874 220.12917115177606 L 536.7595818815331 220.45209903121633 L 538.5017421602788 216.57696447793325 L 540.2439024390244 223.35844994617867 L 541.98606271777 227.8794402583423 L 543.7282229965157 234.33799784714745 L 545.4703832752614 239.98923573735198 L 547.212543554007 240.1506996770721 L 548.9547038327526 239.18191603875135 L 550.6968641114983 239.6663078579117 L 552.439024390244 247.57804090419802 L 554.1811846689895 248.3853606027987 L 555.9233449477351 242.57265877287404 L 557.6655052264808 250.96878363832076 L 559.4076655052265 249.03121636167918 L 561.1498257839721 253.8751345532831 L 562.8919860627177 254.3595263724435 L 564.6341463414634 253.0678148546824 L 566.3763066202091 262.1097954790097 L 568.1184668989547 270.1829924650161 L 569.8606271777003 271.95909580193756 L 571.602787456446 269.6986006458557 L 573.3449477351917 264.20882669537133 L 575.0871080139373 263.07857911733043 L 576.8292682926829 261.7868675995694 L 578.5714285714286 262.5941872981701 L 580.3135888501743 271.313240043057 L 582.0557491289198 279.8708288482239 L 583.7979094076654 277.9332615715823 L 585.5400696864111 295.85575888051665 L 587.2822299651568 286.81377825618944 L 589.0243902439024 292.46501614639396 L 590.766550522648 294.8869752421959 L 592.5087108013937 287.29817007534984 L 594.2508710801394 291.98062432723356 L 595.993031358885 295.3713670613563 L 597.7351916376306 298.2777179763186 L 599.4773519163763 304.8977395048439 L 601.219512195122 303.1216361679225 L 602.9616724738676 305.70505920344453 L 604.7038327526133 303.92895586652315 L 606.445993031359 308.44994617868673 L 608.1881533101046 312.48654467168996 L 609.9303135888501 315.3928955866523 L 611.6724738675958 319.2680301399354 L 613.4146341463415 332.99246501614635 L 615.1567944250871 329.11733046286326 L 616.8989547038327 335.09149623250806 L 618.6411149825784 329.6017222820237 L 620.3832752613241 327.17976318622175 L 622.1254355400697 333.6383207750269 L 623.8675958188153 329.2787944025834 L 625.609756097561 331.7007534983853 L 627.3519163763067 335.73735199138855 L 629.0940766550523 341.22712594187294 L 630.8362369337979 340.2583423035522 L 632.5783972125436 345.9095801937567 L 634.3205574912893 353.8213132400431 L 636.0627177700349 352.529601722282 L 637.8048780487804 359.47255113024755 L 639.5470383275261 360.44133476856837 L 641.2891986062718 366.4155005382131 L 643.0313588850174 368.19160387513455 L 644.773519163763 371.58234660925723 L 646.5156794425087 372.8740581270183 L 648.2578397212544 373.1969860064586 L 650 376.91065662002154 L 650 400 Z" /><text  class="poloto_labels poloto_text poloto_title" alignment-baseline="start" text-anchor="middle" font-size="x-large" x="400" y="37.5" >Total players on 2021-08-31</text><text  class="poloto_labels poloto_text poloto_xname" alignment-baseline="start" text-anchor="middle" font-size="x-large" x="400" y="481.25" >Time</text><text  class="poloto_labels poloto_text poloto_yname" alignment-baseline="start" text-anchor="middle" font-size="x-large" transform="rotate(-90,37.5,250)" x="37.5" y="250" >Count</text><line  class="poloto_axis_lines" stroke="black" x1="150" x2="150" y1="400" y2="405" /><text  class="poloto_tick_labels poloto_text" alignment-baseline="start" text-anchor="middle" x="150" y="430" > 00:00:00</text><line  class="poloto_axis_lines" stroke="black" x1="266.14401858304296" x2="266.14401858304296" y1="400" y2="405" /><text  class="poloto_tick_labels poloto_text" alignment-baseline="start" text-anchor="middle" x="266.14401858304296" y="430" > 05:33:20</text><line  class="poloto_axis_lines" stroke="black" x1="382.2880371660859" x2="382.2880371660859" y1="400" y2="405" /><text  class="poloto_tick_labels poloto_text" alignment-baseline="start" text-anchor="middle" x="382.2880371660859" y="430" > 11:06:40</text><line  class="poloto_axis_lines" stroke="black" x1="498.4320557491289" x2="498.4320557491289" y1="400" y2="405" /><text  class="poloto_tick_labels poloto_text" alignment-baseline="start" text-anchor="middle" x="498.4320557491289" y="430" > 16:40:00</text><line  class="poloto_axis_lines" stroke="black" x1="614.5760743321719" x2="614.5760743321719" y1="400" y2="405" /><text  class="poloto_tick_labels poloto_text" alignment-baseline="start" text-anchor="middle" x="614.5760743321719" y="430" > 22:13:20</text><line  class="poloto_axis_lines" stroke="black" x1="150" x2="144" y1="360.1184068891281" y2="360.1184068891281" /><text  class="poloto_tick_labels poloto_text" alignment-baseline="middle" text-anchor="end" x="135" y="360.1184068891281" > 1500</text><line  class="poloto_axis_lines" stroke="black" x1="150" x2="144" y1="279.3864370290635" y2="279.3864370290635" /><text  class="poloto_tick_labels poloto_text" alignment-baseline="middle" text-anchor="end" x="135" y="279.3864370290635" > 2000</text><line  class="poloto_axis_lines" stroke="black" x1="150" x2="144" y1="198.6544671689989" y2="198.6544671689989" /><text  class="poloto_tick_labels poloto_text" alignment-baseline="middle" text-anchor="end" x="135" y="198.6544671689989" > 2500</text><line  class="poloto_axis_lines" stroke="black" x1="150" x2="144" y1="117.92249730893434" y2="117.92249730893434" /><text  class="poloto_tick_labels poloto_text" alignment-baseline="middle" text-anchor="end" x="135" y="117.92249730893434" > 3000</text><path  stroke="black" fill="none" class="poloto_axis_lines" style="stroke-dasharray:14.518002322880372;stroke-dashoffset:-0;" d=" M 150 400 L 650 400" /><path  stroke="black" fill="none" class="poloto_axis_lines" style="stroke-dasharray:8.07319698600646;stroke-dashoffset:-39.881593110871904;" d=" M 150 400 L 150 100" /></svg>