<svg class="poloto" width="800" height="500" viewBox="0 0 800 500" xmlns="http://www.w3.org/2000/svg"><style>.poloto { stroke-linecap:round; stroke-linejoin:round; font-family: 'Tahoma', sans-serif; background-color: AliceBlue;} .poloto_scatter{stroke-width:7} .poloto_line{stroke-width:2} .poloto_text{fill: black;} .poloto_axis_lines{stroke: black;stroke-width:3;fill:none;stroke-dasharray:none} .poloto0stroke{stroke:  blue;} .poloto1stroke{stroke:  red;} .poloto2stroke{stroke:  green;} .poloto3stroke{stroke:  gold;} .poloto4stroke{stroke:  aqua;} .poloto5stroke{stroke:  lime;} .poloto6stroke{stroke:  orange;} .poloto7stroke{stroke:  chocolate;} .poloto0fill{fill:blue;} .poloto1fill{fill:red;} .poloto2fill{fill:green;} .poloto3fill{fill:gold;} .poloto4fill{fill:aqua;} .poloto5fill{fill:lime;} .poloto6fill{fill:orange;} .poloto7fill{fill:chocolate;}</style><text  class="poloto_text poloto_legend_text" alignment-baseline="middle" text-anchor="start" font-size="large" x="675" y="100" ></text><path  class="poloto_linefill poloto0fill" d=" M 150 400 L 150 355.956678700361 L 151.74216027874564 362.9963898916967 L 153.4843205574913 364.25992779783394 L 155.22648083623693 372.9241877256318 L 156.96864111498257 372.7436823104693 L 158.71080139372822 371.2996389891697 L 160.45296167247386 369.1335740072202 L 162.1951219512195 370.9386281588447 L 163.93728222996515 370.57761732851986 L 165.6794425087108 372.9241877256318 L 167.42160278745644 366.06498194945846 L 169.16376306620208 370.21660649819495 L 170.90592334494772 375.99277978339353 L 172.64808362369337 380.14440433212997 L 174.390243902439 382.6714801444043 L 176.13240418118465 385.37906137184115 L 177.8745644599303 382.4909747292419 L 179.61672473867597 389.16967509025267 L 181.3588850174216 388.086642599278 L 183.10104529616726 385.37906137184115 L 184.8432055749129 387.72563176895306 L 186.58536585365854 391.1552346570397 L 188.3275261324042 388.2671480144404 L 190.06968641114983 391.33574007220216 L 191.81184668989548 391.5162454873646 L 193.55400696864112 389.8916967509025 L 195.29616724738676 388.086642599278 L 197.0383275261324 392.057761732852 L 198.78048780487805 390.4332129963899 L 200.5226480836237 390.97472924187724 L 202.26480836236934 386.101083032491 L 204.00696864111498 385.19855595667866 L 205.74912891986062 385.55956678700363 L 207.49128919860627 380.14440433212997 L 209.2334494773519 376.7148014440433 L 210.97560975609755 377.79783393501805 L 212.7177700348432 379.78339350180505 L 214.45993031358887 383.39350180505414 L 216.2020905923345 384.47653429602883 L 217.94425087108016 385.37906137184115 L 219.6864111498258 390.79422382671476 L 221.42857142857144 391.33574007220216 L 223.1707317073171 392.59927797833933 L 224.91289198606273 392.59927797833933 L 226.65505226480838 395.6678700361011 L 228.39721254355402 392.41877256317684 L 230.13937282229966 387.90613718411555 L 231.8815331010453 389.35018050541515 L 233.62369337979095 385.74007220216606 L 235.3658536585366 391.87725631768956 L 237.10801393728224 396.7509025270758 L 238.85017421602788 394.76534296028876 L 240.59233449477352 393.1407942238267 L 242.33449477351917 391.5162454873646 L 244.0766550522648 389.53068592057764 L 245.81881533101046 392.96028880866425 L 247.5609756097561 393.6823104693141 L 249.30313588850174 393.50180505415165 L 251.0452961672474 400 L 252.78745644599303 389.35018050541515 L 254.52961672473867 384.8375451263538 L 256.2717770034843 385.19855595667866 L 258.01393728222996 383.2129963898917 L 259.7560975609756 387.90613718411555 L 261.49825783972125 387.1841155234657 L 263.2404181184669 382.85198555956674 L 264.98257839721254 383.0324909747292 L 266.7247386759582 385.37906137184115 L 268.4668989547038 385.01805054151623 L 270.20905923344947 384.47653429602883 L 271.9512195121951 378.88086642599274 L 273.69337979094075 377.0758122743682 L 275.4355400696864 372.20216606498195 L 277.17770034843204 374.00722021660647 L 278.91986062717774 370.03610108303246 L 280.6620209059233 375.0902527075812 L 282.404181184669 374.7292418772563 L 284.1463414634146 373.28519855595664 L 285.8885017421603 372.20216606498195 L 287.6306620209059 366.60649819494586 L 289.3728222996516 367.1480144404332 L 291.1149825783972 365.7039711191336 L 292.8571428571429 366.60649819494586 L 294.5993031358885 361.7328519855596 L 296.3414634146342 360.1083032490975 L 298.08362369337976 360.6498194945848 L 299.82578397212546 353.7906137184116 L 301.56794425087105 355.956678700361 L 303.31010452961675 356.85920577617327 L 305.05226480836234 355.41516245487367 L 306.79442508710804 358.8447653429603 L 308.5365853658536 356.6787003610108 L 310.2787456445993 353.2490974729242 L 312.0209059233449 354.51263537906135 L 313.7630662020906 359.74729241877253 L 315.5052264808362 362.8158844765343 L 317.2473867595819 367.5090252707581 L 318.9895470383275 364.6209386281588 L 320.7317073170732 367.3285198555957 L 322.4738675958188 365.884476534296 L 324.2160278745645 372.20216606498195 L 325.9581881533101 365.7039711191336 L 327.70034843205576 362.45487364620936 L 329.4425087108014 362.63537906137185 L 331.18466898954705 363.898916967509 L 332.9268292682927 362.09386281588445 L 334.66898954703834 357.03971119133575 L 336.411149825784 357.942238267148 L 338.1533101045296 355.41516245487367 L 339.89547038327527 352.7075812274368 L 341.6376306620209 352.88808664259926 L 343.37979094076655 355.2346570397112 L 345.1219512195122 345.84837545126356 L 346.86411149825784 340.97472924187724 L 348.6062717770035 338.086642599278 L 350.34843205574913 332.4909747292419 L 352.0905923344948 331.76895306859205 L 353.8327526132404 336.2815884476534 L 355.57491289198606 333.0324909747292 L 357.3170731707317 339.16967509025267 L 359.05923344947735 334.8375451263538 L 360.801393728223 334.115523465704 L 362.54355400696863 330.14440433212997 L 364.2857142857143 324.7292418772563 L 366.0278745644599 322.9241877256318 L 367.77003484320556 322.3826714801444 L 369.5121951219512 316.2454873646209 L 371.25435540069685 318.5920577617328 L 372.9965156794425 299.4584837545126 L 374.73867595818814 302.1660649819495 L 376.4808362369338 288.44765342960284 L 378.2229965156795 285.19855595667866 L 379.96515679442507 285.01805054151623 L 381.70731707317077 282.1299638989169 L 383.44947735191636 278.88086642599274 L 385.19163763066206 274.54873646209387 L 386.93379790940764 271.841155234657 L 388.67595818815334 269.49458483754506 L 390.41811846689893 273.46570397111907 L 392.16027874564463 272.0216606498195 L 393.9024390243902 270.2166064981949 L 395.6445993031359 269.1335740072202 L 397.3867595818815 265.1624548736462 L 399.1289198606272 266.4259927797834 L 400.8710801393728 262.09386281588445 L 402.6132404181185 258.3032490974729 L 404.3554006968641 251.08303249097472 L 406.0975609756098 247.47292418772562 L 407.8397212543554 242.23826714801444 L 409.58188153310107 248.01444043321297 L 411.3240418118467 244.22382671480145 L 413.06620209059236 236.28158844765343 L 414.808362369338 237.90613718411552 L 416.55052264808364 237.90613718411552 L 418.2926829268293 224.54873646209384 L 420.03484320557493 222.56317689530684 L 421.7770034843206 222.74368231046927 L 423.5191637630662 224.90974729241876 L 425.26132404181186 226.35379061371842 L 427.0034843205575 220.3971119133574 L 428.74564459930315 209.74729241877256 L 430.4878048780488 201.08303249097472 L 432.22996515679444 197.29241877256314 L 433.9721254355401 191.33574007220213 L 435.7142857142857 189.1696750902527 L 437.45644599303137 185.1985559566787 L 439.198606271777 182.85198555956677 L 440.94076655052265 177.25631768953068 L 442.6829268292683 170.75812274368226 L 444.42508710801394 172.92418772563175 L 446.1672473867596 161.37184115523465 L 447.9094076655052 173.4657039711191 L 449.65156794425087 161.913357400722 L 451.3937282229965 162.81588447653425 L 453.13588850174216 154.87364620938624 L 454.8780487804878 152.52707581227432 L 456.62020905923345 148.19494584837545 L 458.3623693379791 147.1119133574007 L 460.10452961672473 141.51624548736459 L 461.8466898954704 142.23826714801442 L 463.588850174216 139.3501805054151 L 465.33101045296166 134.8375451263538 L 467.0731707317073 135.74007220216606 L 468.81533101045295 132.31046931407934 L 470.5574912891986 129.60288808664257 L 472.29965156794424 138.8086642599278 L 474.0418118466899 116.96750902527072 L 475.7839721254355 112.45487364620931 L 477.52613240418117 119.1335740072202 L 479.2682926829268 125.81227436823099 L 481.01045296167246 115.88447653429603 L 482.7526132404181 112.27436823104688 L 484.49477351916374 101.44404332129966 L 486.2369337979094 100 L 487.97909407665503 104.87364620938627 L 489.7212543554007 109.0252707581227 L 491.4634146341463 114.6209386281588 L 493.20557491289196 115.34296028880863 L 494.9477351916376 103.4296028880866 L 496.68989547038325 119.85559566787003 L 498.4320557491289 100.54151624548729 L 500.17421602787454 103.61010830324904 L 501.91637630662024 106.85920577617321 L 503.6585365853659 114.07942238267151 L 505.4006968641115 122.92418772563178 L 507.14285714285717 130.14440433212997 L 508.8850174216028 134.11552346570397 L 510.62717770034845 128.51985559566788 L 512.3693379790941 134.2960288808664 L 514.1114982578397 128.51985559566788 L 515.8536585365854 149.45848375451263 L 517.5958188153311 148.5559566787003 L 519.3379790940767 152.16606498194946 L 521.0801393728223 145.48736462093862 L 522.822299651568 148.7364620938628 L 524.5644599303137 146.93140794223822 L 526.3066202090592 148.01444043321297 L 528.0487804878048 156.85920577617324 L 529.7909407665505 155.95667870036098 L 531.5331010452962 164.44043321299634 L 533.2752613240418 175.0902527075812 L 535.0174216027874 173.4657039711191 L 536.7595818815331 173.4657039711191 L 538.5017421602788 181.0469314079422 L 540.2439024390244 189.1696750902527 L 541.98606271777 195.66787003610105 L 543.7282229965157 185.92057761732852 L 545.4703832752614 188.9891696750902 L 547.212543554007 188.26714801444044 L 548.9547038327526 189.5306859205776 L 550.6968641114983 195.66787003610105 L 552.439024390244 194.94584837545122 L 554.1811846689895 206.85920577617324 L 555.9233449477351 195.30685920577614 L 557.6655052264808 199.45848375451263 L 559.4076655052265 202.16606498194946 L 561.1498257839721 205.23465703971115 L 562.8919860627177 207.94223826714799 L 564.6341463414634 208.12274368231047 L 566.3763066202091 206.13718411552347 L 568.1184668989547 212.63537906137182 L 569.8606271777003 216.96750902527074 L 571.602787456446 216.4259927797834 L 573.3449477351917 212.2743682310469 L 575.0871080139373 208.84476534296024 L 576.8292682926829 209.927797833935 L 578.5714285714286 224.18772563176893 L 580.3135888501743 223.10469314079418 L 582.0557491289198 228.70036101083028 L 583.7979094076654 232.85198555956677 L 585.5400696864111 236.46209386281586 L 587.2822299651568 229.78339350180502 L 589.0243902439024 243.32129963898913 L 590.766550522648 241.1552346570397 L 592.5087108013937 253.06859205776172 L 594.2508710801394 243.32129963898913 L 595.993031358885 260.6498194945848 L 597.7351916376306 252.52707581227438 L 599.4773519163763 251.62454873646206 L 601.219512195122 255.05415162454872 L 602.9616724738676 266.4259927797834 L 604.7038327526133 261.01083032490976 L 606.445993031359 266.2454873646209 L 608.1881533101046 266.06498194945846 L 609.9303135888501 267.14801444043314 L 611.6724738675958 271.841155234657 L 613.4146341463415 285.19855595667866 L 615.1567944250871 277.25631768953065 L 616.8989547038327 292.7797833935018 L 618.6411149825784 299.4584837545126 L 620.3832752613241 289.8916967509025 L 622.1254355400697 292.2382671480144 L 623.8675958188153 294.9458483754512 L 625.609756097561 303.61010830324904 L 627.3519163763067 307.7617328519856 L 629.0940766550523 319.31407942238263 L 630.8362369337979 325.0902527075812 L 632.5783972125436 329.96389891696754 L 634.3205574912893 328.88086642599274 L 636.0627177700349 329.78339350180505 L 637.8048780487804 337.36462093862815 L 639.5470383275261 343.50180505415165 L 641.2891986062718 348.73646209386277 L 643.0313588850174 350 L 644.773519163763 352.7075812274368 L 646.5156794425087 361.01083032490976 L 648.2578397212544 358.12274368231044 L 650 366.06498194945846 L 650 400 Z" /><text  class="poloto_labels poloto_text poloto_title" alignment-baseline="start" text-anchor="middle" font-size="x-large" x="400" y="37.5" >Total players on 2021-10-12</text><text  class="poloto_labels poloto_text poloto_xname" alignment-baseline="start" text-anchor="middle" font-size="x-large" x="400" y="481.25" >Time</text><text  class="poloto_labels poloto_text poloto_yname" alignment-baseline="start" text-anchor="middle" font-size="x-large" transform="rotate(-90,37.5,250)" x="37.5" y="250" >Count</text><line  class="poloto_axis_lines" stroke="black" x1="150" x2="150" y1="400" y2="405" /><text  class="poloto_tick_labels poloto_text" alignment-baseline="start" text-anchor="middle" x="150" y="430" > 00:00:00</text><line  class="poloto_axis_lines" stroke="black" x1="266.14401858304296" x2="266.14401858304296" y1="400" y2="405" /><text  class="poloto_tick_labels poloto_text" alignment-baseline="start" text-anchor="middle" x="266.14401858304296" y="430" > 05:33:20</text><line  class="poloto_axis_lines" stroke="black" x1="382.2880371660859" x2="382.2880371660859" y1="400" y2="405" /><text  class="poloto_tick_labels poloto_text" alignment-baseline="start" text-anchor="middle" x="382.2880371660859" y="430" > 11:06:40</text><line  class="poloto_axis_lines" stroke="black" x1="498.4320557491289" x2="498.4320557491289" y1="400" y2="405" /><text  class="poloto_tick_labels poloto_text" alignment-baseline="start" text-anchor="middle" x="498.4320557491289" y="430" > 16:40:00</text><line  class="poloto_axis_lines" stroke="black" x1="614.5760743321719" x2="614.5760743321719" y1="400" y2="405" /><text  class="poloto_tick_labels poloto_text" alignment-baseline="start" text-anchor="middle" x="614.5760743321719" y="430" > 22:13:20</text><line  class="poloto_axis_lines" stroke="black" x1="150" x2="144" y1="379.60288808664257" y2="379.60288808664257" /><text  class="poloto_tick_labels poloto_text" alignment-baseline="middle" text-anchor="end" x="135" y="379.60288808664257" > 1000</text><line  class="poloto_axis_lines" stroke="black" x1="150" x2="144" y1="289.3501805054151" y2="289.3501805054151" /><text  class="poloto_tick_labels poloto_text" alignment-baseline="middle" text-anchor="end" x="135" y="289.3501805054151" > 1500</text><line  class="poloto_axis_lines" stroke="black" x1="150" x2="144" y1="199.09747292418774" y2="199.09747292418774" /><text  class="poloto_tick_labels poloto_text" alignment-baseline="middle" text-anchor="end" x="135" y="199.09747292418774" > 2000</text><line  class="poloto_axis_lines" stroke="black" x1="150" x2="144" y1="108.84476534296027" y2="108.84476534296027" /><text  class="poloto_tick_labels poloto_text" alignment-baseline="middle" text-anchor="end" x="135" y="108.84476534296027" > 2500</text><path  stroke="black" fill="none" class="poloto_axis_lines" style="stroke-dasharray:14.518002322880372;stroke-dashoffset:-0;" d=" M 150 400 L 650 400" /><path  stroke="black" fill="none" class="poloto_axis_lines" style="stroke-dasharray:9.025270758122744;stroke-dashoffset:-20.397111913357406;" d=" M 150 400 L 150 100" /></svg>