<svg class="poloto" width="800" height="500" viewBox="0 0 800 500" xmlns="http://www.w3.org/2000/svg"><style>.poloto { stroke-linecap:round; stroke-linejoin:round; font-family: 'Tahoma', sans-serif; background-color: AliceBlue;} .poloto_scatter{stroke-width:7} .poloto_line{stroke-width:2} .poloto_text{fill: black;} .poloto_axis_lines{stroke: black;stroke-width:3;fill:none;stroke-dasharray:none} .poloto0stroke{stroke:  blue;} .poloto1stroke{stroke:  red;} .poloto2stroke{stroke:  green;} .poloto3stroke{stroke:  gold;} .poloto4stroke{stroke:  aqua;} .poloto5stroke{stroke:  lime;} .poloto6stroke{stroke:  orange;} .poloto7stroke{stroke:  chocolate;} .poloto0fill{fill:blue;} .poloto1fill{fill:red;} .poloto2fill{fill:green;} .poloto3fill{fill:gold;} .poloto4fill{fill:aqua;} .poloto5fill{fill:lime;} .poloto6fill{fill:orange;} .poloto7fill{fill:chocolate;}</style><text  class="poloto_text poloto_legend_text" alignment-baseline="middle" text-anchor="start" font-size="large" x="675" y="100" ></text><path  class="poloto_linefill poloto0fill" d=" M 150 400 L 150 354.5676599902296 L 151.74216027874564 360.13678553981435 L 153.4843205574913 361.89545676599903 L 155.22648083623693 367.6111382510992 L 156.96864111498257 369.3698094772838 L 158.71080139372822 369.6629213483146 L 160.45296167247386 371.42159257449924 L 162.1951219512195 375.81827063996093 L 163.93728222996515 378.7493893502687 L 165.6794425087108 378.3097215437225 L 167.42160278745644 374.352711284807 L 169.16376306620208 372.7405959941378 L 170.90592334494772 374.9389350268686 L 172.64808362369337 379.9218368343918 L 174.390243902439 379.3356130923302 L 176.13240418118465 381.82706399609185 L 177.8745644599303 390.0341963849536 L 179.61672473867597 386.95652173913044 L 181.3588850174216 388.4220810942843 L 183.10104529616726 388.2755251587689 L 184.8432055749129 384.904738641915 L 186.58536585365854 384.4650708353688 L 188.3275261324042 390.32730825598435 L 190.06968641114983 392.67220322423054 L 191.81184668989548 395.60332193453837 L 193.55400696864112 393.4049829018075 L 195.29616724738676 389.8876404494382 L 197.0383275261324 390.47386419149973 L 198.78048780487805 388.8617489008305 L 200.5226480836237 388.4220810942843 L 202.26480836236934 388.7151929653151 L 204.00696864111498 391.35319980459207 L 205.74912891986062 392.818759159746 L 207.49128919860627 395.31021006350755 L 209.2334494773519 394.13776257938446 L 210.97560975609755 393.8446507083537 L 212.7177700348432 391.0600879335613 L 214.45993031358887 392.67220322423054 L 216.2020905923345 397.2154372252076 L 217.94425087108016 397.94821690278457 L 219.6864111498258 396.0429897410845 L 221.42857142857144 399.12066438690766 L 223.1707317073171 400 L 224.91289198606273 398.09477283829995 L 226.65505226480838 399.4137762579384 L 228.39721254355402 396.1895456765999 L 230.13937282229966 399.12066438690766 L 231.8815331010453 395.0170981924768 L 233.62369337979095 395.0170981924768 L 235.3658536585366 398.2413287738153 L 237.10801393728224 395.89643380556913 L 238.85017421602788 393.55153883732294 L 240.59233449477352 390.9135319980459 L 242.33449477351917 395.31021006350755 L 244.0766550522648 390.18075232046897 L 245.81881533101046 391.6463116756229 L 247.5609756097561 390.9135319980459 L 249.30313588850174 392.085979482169 L 251.0452961672474 390.47386419149973 L 252.78745644599303 389.30141670737663 L 254.52961672473867 392.52564728871516 L 256.2717770034843 389.74108451392283 L 258.01393728222996 389.00830483634587 L 259.7560975609756 385.34440644846114 L 261.49825783972125 386.37029799706886 L 263.2404181184669 381.53395212506103 L 264.98257839721254 373.4733756717147 L 266.7247386759582 372.5940400586224 L 268.4668989547038 367.90425012212995 L 270.20905923344947 360.57645334636055 L 271.9512195121951 361.0161211529067 L 273.69337979094075 355.8866634098681 L 275.4355400696864 355.4469956033219 L 277.17770034843204 359.990229604299 L 278.91986062717774 357.93844650708354 L 280.6620209059233 362.0420127015144 L 282.404181184669 359.11089399120664 L 284.1463414634146 358.8177821201759 L 285.8885017421603 358.2315583781143 L 287.6306620209059 359.990229604299 L 289.3728222996516 360.4298974108451 L 291.1149825783972 356.76599902296044 L 292.8571428571429 360.72300928187593 L 294.5993031358885 365.11968734733756 L 296.3414634146342 360.57645334636055 L 298.08362369337976 362.0420127015144 L 299.82578397212546 360.28334147532973 L 301.56794425087105 367.171470444553 L 303.31010452961675 370.8353688324377 L 305.05226480836234 369.5163654127992 L 306.79442508710804 373.3268197361993 L 308.5365853658536 367.46458231558375 L 310.2787456445993 370.3957010258915 L 312.0209059233449 367.46458231558375 L 313.7630662020906 363.50757205666827 L 315.5052264808362 360.28334147532973 L 317.2473867595819 362.1885686370298 L 318.9895470383275 360.72300928187593 L 320.7317073170732 359.990229604299 L 322.4738675958188 356.61944308744506 L 324.2160278745645 354.2745481191988 L 325.9581881533101 353.2486565705911 L 327.70034843205576 356.0332193453835 L 329.4425087108014 348.41231069858327 L 331.18466898954705 345.18808011724474 L 332.9268292682927 341.52418172936 L 334.66898954703834 338.1533952125061 L 336.411149825784 336.3947239863214 L 338.1533101045296 331.5583781143136 L 339.89547038327527 329.3600390815828 L 341.6376306620209 327.30825598436735 L 343.37979094076655 324.0840254030288 L 345.1219512195122 320.2735710796287 L 346.86411149825784 322.9115779189057 L 348.6062717770035 316.3165608207132 L 350.34843205574913 317.34245236932094 L 352.0905923344948 312.79921836834393 L 353.8327526132404 308.1094284318515 L 355.57491289198606 304.5920859794822 L 357.3170731707317 302.3937469467513 L 359.05923344947735 299.46262823644355 L 360.801393728223 294.77283829995116 L 362.54355400696863 296.5315095261358 L 364.2857142857143 294.0400586223742 L 366.0278745644599 289.49682462139714 L 367.77003484320556 285.83292623351247 L 369.5121951219512 284.51392281387393 L 371.25435540069685 281.5828041035662 L 372.9965156794425 287.8847093307279 L 374.73867595818814 283.78114313629703 L 376.4808362369338 278.21201758671225 L 378.2229965156795 279.9706888128969 L 379.96515679442507 277.18612603810453 L 381.70731707317077 268.09965803615046 L 383.44947735191636 265.6082071323889 L 385.19163763066206 263.9960918417196 L 386.93379790940764 254.90962383976552 L 388.67595818815334 255.3492916463117 L 390.41811846689893 246.84904738641916 L 392.16027874564463 240.10747435271128 L 393.9024390243902 236.1504640937958 L 395.6445993031359 232.92623351245726 L 397.3867595818815 234.53834880312655 L 399.1289198606272 234.9780166096727 L 400.8710801393728 226.77088422081096 L 402.6132404181185 235.4176844162189 L 404.3554006968641 229.70200293111873 L 406.0975609756098 225.74499267220324 L 407.8397212543554 217.97752808988764 L 409.58188153310107 214.8998534440645 L 411.3240418118467 212.99462628236444 L 413.06620209059236 206.83927699071813 L 414.808362369338 198.1924767953102 L 416.55052264808364 191.89057156814852 L 418.2926829268293 183.97655105031754 L 420.03484320557493 182.95065950170982 L 421.7770034843206 185.00244259892526 L 423.5191637630662 177.96775769418662 L 425.26132404181186 167.85539814362483 L 427.0034843205575 162.43282852955548 L 428.74564459930315 165.8036150464094 L 430.4878048780488 162.13971665852466 L 432.22996515679444 165.8036150464094 L 433.9721254355401 170.20029311187102 L 435.7142857142857 156.71714704445532 L 437.45644599303137 147.923790913532 L 439.198606271777 143.67366878358575 L 440.94076655052265 139.1304347826087 L 442.6829268292683 141.18221787982412 L 444.42508710801394 134.73375671714706 L 446.1672473867596 133.70786516853934 L 447.9094076655052 137.8114313629702 L 449.65156794425087 141.03566194430874 L 451.3937282229965 128.72496336101614 L 453.13588850174216 124.76795310210065 L 454.8780487804878 117.73326819736201 L 456.62020905923345 117.44015632633125 L 458.3623693379791 116.26770884220815 L 460.10452961672473 116.26770884220815 L 461.8466898954704 112.16414264777723 L 463.588850174216 108.35368832437717 L 465.33101045296166 107.03468490473864 L 467.0731707317073 103.81045432340011 L 468.81533101045295 105.12945774303859 L 470.5574912891986 104.39667806546169 L 472.29965156794424 103.51734245236935 L 474.0418118466899 105.71568148510016 L 475.7839721254355 103.81045432340011 L 477.52613240418117 100.87933561309234 L 479.2682926829268 101.90522716170005 L 481.01045296167246 100 L 482.7526132404181 100.87933561309234 L 484.49477351916374 113.04347826086956 L 486.2369337979094 114.65559355153886 L 487.97909407665503 119.3453834880313 L 489.7212543554007 121.6902784562775 L 491.4634146341463 120.81094284318516 L 493.20557491289196 130.6301905227162 L 494.9477351916376 132.68197361993163 L 496.68989547038325 134.73375671714706 L 498.4320557491289 138.10454323400097 L 500.17421602787454 139.1304347826087 L 501.91637630662024 148.65657059110896 L 503.6585365853659 149.97557401074744 L 505.4006968641115 152.9066927210552 L 507.14285714285717 152.02735710796287 L 508.8850174216028 160.6741573033708 L 510.62717770034845 175.03663898387885 L 512.3693379790941 169.02784562774792 L 514.1114982578397 176.20908646800194 L 515.8536585365854 174.45041524181732 L 517.5958188153311 180.752320468979 L 519.3379790940767 184.85588666340988 L 521.0801393728223 185.8817782120176 L 522.822299651568 189.83878847093308 L 524.5644599303137 198.6321446018564 L 526.3066202090592 211.82217879824134 L 528.0487804878048 208.1582804103566 L 529.7909407665505 210.35661944308748 L 531.5331010452962 214.60674157303373 L 533.2752613240418 200.68392769907183 L 535.0174216027874 200.09770395701025 L 536.7595818815331 206.83927699071813 L 538.5017421602788 202.58915486077188 L 540.2439024390244 214.8998534440645 L 541.98606271777 210.64973131411824 L 543.7282229965157 210.21006350757204 L 545.4703832752614 224.27943331704938 L 547.212543554007 216.21885686370297 L 548.9547038327526 218.12408402540302 L 550.6968641114983 219.44308744504156 L 552.439024390244 222.0810942843185 L 554.1811846689895 225.59843673668786 L 555.9233449477351 222.6673180263801 L 557.6655052264808 238.20224719101122 L 559.4076655052265 238.05569125549584 L 561.1498257839721 240.84025403028824 L 562.8919860627177 240.25403028822666 L 564.6341463414634 244.65070835368834 L 566.3763066202091 243.9179286761114 L 568.1184668989547 241.133365901319 L 569.8606271777003 251.5388373229116 L 571.602787456446 256.81485100146557 L 573.3449477351917 252.56472887151932 L 575.0871080139373 247.58182706399612 L 576.8292682926829 248.31460674157307 L 578.5714285714286 245.23693209574986 L 580.3135888501743 242.01270151441133 L 582.0557491289198 242.01270151441133 L 583.7979094076654 248.9008304836346 L 585.5400696864111 243.9179286761114 L 587.2822299651568 249.04738641914997 L 589.0243902439024 254.323400097704 L 590.766550522648 261.7977528089888 L 592.5087108013937 266.3409868099658 L 594.2508710801394 263.409868099658 L 595.993031358885 262.53053248656573 L 597.7351916376306 268.9789936492428 L 599.4773519163763 267.2203224230581 L 601.219512195122 267.8065461651197 L 602.9616724738676 268.9789936492428 L 604.7038327526133 267.3668783585735 L 606.445993031359 273.3756717147044 L 608.1881533101046 270.44455300439665 L 609.9303135888501 267.9531021006351 L 611.6724738675958 275.2808988764045 L 613.4146341463415 277.03957010258915 L 615.1567944250871 279.0913531998046 L 616.8989547038327 286.5657059110894 L 618.6411149825784 289.49682462139714 L 620.3832752613241 294.47972642892034 L 622.1254355400697 297.4108451392281 L 623.8675958188153 300.1954079140205 L 625.609756097561 307.23009281875915 L 627.3519163763067 288.0312652662433 L 629.0940766550523 293.0141670737665 L 630.8362369337979 294.1866145578896 L 632.5783972125436 293.4538348803126 L 634.3205574912893 300.92818759159746 L 636.0627177700349 300.1954079140205 L 637.8048780487804 304.7386419149976 L 639.5470383275261 312.79921836834393 L 641.2891986062718 318.95456765999023 L 643.0313588850174 326.428920371275 L 644.773519163763 323.49780166096724 L 646.5156794425087 327.60136785539817 L 648.2578397212544 321.4460185637518 L 650 322.76502198339034 L 650 400 Z" /><text  class="poloto_labels poloto_text poloto_title" alignment-baseline="start" text-anchor="middle" font-size="x-large" x="400" y="37.5" >Total players on 2021-12-03</text><text  class="poloto_labels poloto_text poloto_xname" alignment-baseline="start" text-anchor="middle" font-size="x-large" x="400" y="481.25" >Time</text><text  class="poloto_labels poloto_text poloto_yname" alignment-baseline="start" text-anchor="middle" font-size="x-large" transform="rotate(-90,37.5,250)" x="37.5" y="250" >Count</text><line  class="poloto_axis_lines" stroke="black" x1="150" x2="150" y1="400" y2="405" /><text  class="poloto_tick_labels poloto_text" alignment-baseline="start" text-anchor="middle" x="150" y="430" > 00:00</text><line  class="poloto_axis_lines" stroke="black" x1="266.14401858304296" x2="266.14401858304296" y1="400" y2="405" /><text  class="poloto_tick_labels poloto_text" alignment-baseline="start" text-anchor="middle" x="266.14401858304296" y="430" > 06:00</text><line  class="poloto_axis_lines" stroke="black" x1="382.2880371660859" x2="382.2880371660859" y1="400" y2="405" /><text  class="poloto_tick_labels poloto_text" alignment-baseline="start" text-anchor="middle" x="382.2880371660859" y="430" > 11:00</text><line  class="poloto_axis_lines" stroke="black" x1="498.4320557491289" x2="498.4320557491289" y1="400" y2="405" /><text  class="poloto_tick_labels poloto_text" alignment-baseline="start" text-anchor="middle" x="498.4320557491289" y="430" > 17:00</text><line  class="poloto_axis_lines" stroke="black" x1="614.5760743321719" x2="614.5760743321719" y1="400" y2="405" /><text  class="poloto_tick_labels poloto_text" alignment-baseline="start" text-anchor="middle" x="614.5760743321719" y="430" > 22:00</text><line  class="poloto_axis_lines" stroke="black" x1="150" x2="144" y1="368.3439179286761" y2="368.3439179286761" /><text  class="poloto_tick_labels poloto_text" alignment-baseline="middle" text-anchor="end" x="135" y="368.3439179286761" > 1000</text><line  class="poloto_axis_lines" stroke="black" x1="150" x2="144" y1="295.0659501709819" y2="295.0659501709819" /><text  class="poloto_tick_labels poloto_text" alignment-baseline="middle" text-anchor="end" x="135" y="295.0659501709819" > 1500</text><line  class="poloto_axis_lines" stroke="black" x1="150" x2="144" y1="221.78798241328775" y2="221.78798241328775" /><text  class="poloto_tick_labels poloto_text" alignment-baseline="middle" text-anchor="end" x="135" y="221.78798241328775" > 2000</text><line  class="poloto_axis_lines" stroke="black" x1="150" x2="144" y1="148.51001465559358" y2="148.51001465559358" /><text  class="poloto_tick_labels poloto_text" alignment-baseline="middle" text-anchor="end" x="135" y="148.51001465559358" > 2500</text><path  stroke="black" fill="none" class="poloto_axis_lines" style="stroke-dasharray:14.518002322880372;stroke-dashoffset:-0;" d=" M 150 400 L 650 400" /><path  stroke="black" fill="none" class="poloto_axis_lines" style="stroke-dasharray:7.327796775769419;stroke-dashoffset:-31.656082071323894;" d=" M 150 400 L 150 100" /></svg>