<svg class="poloto" width="800" height="500" viewBox="0 0 800 500" xmlns="http://www.w3.org/2000/svg"><style>.poloto { stroke-linecap:round; stroke-linejoin:round; font-family: 'Tahoma', sans-serif; background-color: AliceBlue;} .poloto_scatter{stroke-width:7} .poloto_line{stroke-width:2} .poloto_text{fill: black;} .poloto_axis_lines{stroke: black;stroke-width:3;fill:none;stroke-dasharray:none} .poloto0stroke{stroke:  blue;} .poloto1stroke{stroke:  red;} .poloto2stroke{stroke:  green;} .poloto3stroke{stroke:  gold;} .poloto4stroke{stroke:  aqua;} .poloto5stroke{stroke:  lime;} .poloto6stroke{stroke:  orange;} .poloto7stroke{stroke:  chocolate;} .poloto0fill{fill:blue;} .poloto1fill{fill:red;} .poloto2fill{fill:green;} .poloto3fill{fill:gold;} .poloto4fill{fill:aqua;} .poloto5fill{fill:lime;} .poloto6fill{fill:orange;} .poloto7fill{fill:chocolate;}</style><text  class="poloto_text poloto_legend_text" alignment-baseline="middle" text-anchor="start" font-size="large" x="675" y="100" ></text><path  class="poloto_linefill poloto0fill" d=" M 150 400 L 150 351.53707052441234 L 151.74216027874564 355.5153707052441 L 153.4843205574913 362.2061482820977 L 155.22648083623693 367.0886075949367 L 156.96864111498257 372.875226039783 L 158.71080139372822 374.6835443037975 L 160.45296167247386 373.2368896925859 L 162.1951219512195 371.24773960217 L 163.93728222996515 376.13019891500903 L 165.6794425087108 383.5443037974684 L 167.42160278745644 383.90596745027125 L 169.16376306620208 379.2043399638336 L 170.90592334494772 375.0452079566004 L 172.64808362369337 378.84267631103074 L 174.390243902439 383.36347197106693 L 176.13240418118465 382.6401446654611 L 177.8745644599303 375.40687160940325 L 179.61672473867597 379.38517179023506 L 181.3588850174216 380.6509945750452 L 183.10104529616726 378.84267631103074 L 184.8432055749129 378.11934900542497 L 186.58536585365854 380.28933092224236 L 188.3275261324042 382.09764918625683 L 190.06968641114983 381.0126582278481 L 191.81184668989548 381.374321880651 L 193.55400696864112 386.25678119349004 L 195.29616724738676 380.8318264014467 L 197.0383275261324 379.38517179023506 L 198.78048780487805 379.5660036166365 L 200.5226480836237 377.3960216998192 L 202.26480836236934 373.9602169981917 L 204.00696864111498 375.76853526220617 L 205.74912891986062 376.13019891500903 L 207.49128919860627 378.11934900542497 L 209.2334494773519 380.28933092224236 L 210.97560975609755 379.38517179023506 L 212.7177700348432 379.38517179023506 L 214.45993031358887 381.0126582278481 L 216.2020905923345 380.1084990958409 L 217.94425087108016 383.36347197106693 L 219.6864111498258 384.44846292947557 L 221.42857142857144 393.3092224231465 L 223.1707317073171 394.03254972875226 L 224.91289198606273 396.0216998191682 L 226.65505226480838 400 L 228.39721254355402 394.03254972875226 L 230.13937282229966 391.68173598553346 L 231.8815331010453 385.7142857142857 L 233.62369337979095 386.7992766726944 L 235.3658536585366 383.72513562386985 L 237.10801393728224 381.55515370705245 L 238.85017421602788 384.44846292947557 L 240.59233449477352 389.873417721519 L 242.33449477351917 392.40506329113924 L 244.0766550522648 390.9584086799277 L 245.81881533101046 389.5117540687161 L 247.5609756097561 390.5967450271248 L 249.30313588850174 396.5641952983725 L 251.0452961672474 396.74502712477397 L 252.78745644599303 396.74502712477397 L 254.52961672473867 396.2025316455696 L 256.2717770034843 391.32007233273055 L 258.01393728222996 392.0433996383364 L 259.7560975609756 393.128390596745 L 261.49825783972125 391.1392405063291 L 263.2404181184669 390.5967450271248 L 264.98257839721254 388.0650994575045 L 266.7247386759582 388.42676311030743 L 268.4668989547038 384.629294755877 L 270.20905923344947 388.0650994575045 L 271.9512195121951 381.374321880651 L 273.69337979094075 377.5768535262206 L 275.4355400696864 375.5877034358047 L 277.17770034843204 375.0452079566004 L 278.91986062717774 372.69439421338154 L 280.6620209059233 365.6419529837251 L 282.404181184669 368.1735985533454 L 284.1463414634146 369.80108499095843 L 285.8885017421603 367.8119349005425 L 287.6306620209059 371.9710669077758 L 289.3728222996516 375.9493670886076 L 291.1149825783972 377.3960216998192 L 292.8571428571429 377.9385171790235 L 294.5993031358885 381.19349005424954 L 296.3414634146342 379.38517179023506 L 298.08362369337976 376.6726943942134 L 299.82578397212546 380.28933092224236 L 301.56794425087105 379.2043399638336 L 303.31010452961675 384.26763110307417 L 305.05226480836234 379.38517179023506 L 306.79442508710804 373.77938517179024 L 308.5365853658536 374.32188065099456 L 310.2787456445993 375.5877034358047 L 312.0209059233449 377.75768535262205 L 313.7630662020906 377.3960216998192 L 315.5052264808362 373.9602169981917 L 317.2473867595819 371.9710669077758 L 318.9895470383275 365.4611211573237 L 320.7317073170732 362.0253164556962 L 322.4738675958188 355.877034358047 L 324.2160278745645 354.06871609403254 L 325.9581881533101 358.22784810126586 L 327.70034843205576 353.5262206148282 L 329.4425087108014 356.4195298372514 L 331.18466898954705 353.7070524412297 L 332.9268292682927 353.8878842676311 L 334.66898954703834 356.60036166365285 L 336.411149825784 352.9837251356239 L 338.1533101045296 352.26039783001806 L 339.89547038327527 336.8896925858951 L 341.6376306620209 333.4538878842676 L 343.37979094076655 332.5497287522604 L 345.1219512195122 341.59132007233273 L 346.86411149825784 327.124773960217 L 348.6062717770035 318.80650994575046 L 350.34843205574913 320.07233273056056 L 352.0905923344948 318.9873417721519 L 353.8327526132404 316.09403254972875 L 355.57491289198606 311.03074141048825 L 357.3170731707317 309.22242314647383 L 359.05923344947735 304.3399638336347 L 360.801393728223 315.00904159132006 L 362.54355400696863 301.2658227848101 L 364.2857142857143 298.55334538878844 L 366.0278745644599 300.90415913200724 L 367.77003484320556 295.84086799276673 L 369.5121951219512 300.90415913200724 L 371.25435540069685 298.55334538878844 L 372.9965156794425 298.372513562387 L 374.73867595818814 298.7341772151899 L 376.4808362369338 292.5858951175407 L 378.2229965156795 290.5967450271248 L 379.96515679442507 282.45931283905963 L 381.70731707317077 287.16094032549734 L 383.44947735191636 278.11934900542497 L 385.19163763066206 278.8426763110308 L 386.93379790940764 274.1410488245931 L 388.67595818815334 263.29113924050637 L 390.41811846689893 264.55696202531647 L 392.16027874564463 254.6112115732369 L 393.9024390243902 255.69620253164558 L 395.6445993031359 255.51537070524412 L 397.3867595818815 243.7613019891501 L 399.1289198606272 256.23869801084993 L 400.8710801393728 242.85714285714286 L 402.6132404181185 236.88969258589512 L 404.3554006968641 226.94394213381557 L 406.0975609756098 218.08318264014466 L 407.8397212543554 208.67992766726942 L 409.58188153310107 216.6365280289331 L 411.3240418118467 212.47739602169983 L 413.06620209059236 193.12839059674505 L 414.808362369338 203.79746835443038 L 416.55052264808364 184.26763110307414 L 418.2926829268293 186.25678119349007 L 420.03484320557493 171.24773960217001 L 421.7770034843206 163.4719710669078 L 423.5191637630662 161.48282097649187 L 425.26132404181186 163.83363471971066 L 427.0034843205575 161.3019891500904 L 428.74564459930315 158.58951175406875 L 430.4878048780488 153.70705244122965 L 432.22996515679444 162.74864376130202 L 433.9721254355401 146.4737793851718 L 435.7142857142857 165.46112115732367 L 437.45644599303137 156.0578661844485 L 439.198606271777 152.2603978300181 L 440.94076655052265 136.16636528028937 L 442.6829268292683 136.8896925858951 L 444.42508710801394 147.92043399638337 L 446.1672473867596 135.08137432188062 L 447.9094076655052 135.623869801085 L 449.65156794425087 134.53887884267635 L 451.3937282229965 129.6564195298373 L 453.13588850174216 144.12296564195302 L 454.8780487804878 119.71066907775764 L 456.62020905923345 125.13562386980107 L 458.3623693379791 105.60578661844488 L 460.10452961672473 104.88245931283905 L 461.8466898954704 103.43580470162749 L 463.588850174216 114.4665461121158 L 465.33101045296166 119.5298372513563 L 467.0731707317073 107.2332730560579 L 468.81533101045295 112.47739602169986 L 470.5574912891986 107.05244122965644 L 472.29965156794424 105.9674502712478 L 474.0418118466899 106.50994575045206 L 475.7839721254355 110.66907775768539 L 477.52613240418117 127.48643761301992 L 479.2682926829268 116.45569620253161 L 481.01045296167246 100 L 482.7526132404181 103.7974683544304 L 484.49477351916374 118.26401446654609 L 486.2369337979094 123.86980108499097 L 487.97909407665503 161.66365280289332 L 489.7212543554007 177.0343580470163 L 491.4634146341463 183.72513562386982 L 493.20557491289196 185.17179023508137 L 494.9477351916376 183.3634719710669 L 496.68989547038325 188.60759493670886 L 498.4320557491289 182.45931283905966 L 500.17421602787454 193.67088607594937 L 501.91637630662024 202.89330922242314 L 503.6585365853659 203.79746835443038 L 505.4006968641115 198.73417721518987 L 507.14285714285717 204.88245931283907 L 508.8850174216028 207.23327305605787 L 510.62717770034845 222.06148282097652 L 512.3693379790941 221.51898734177215 L 514.1114982578397 223.68896925858954 L 515.8536585365854 223.14647377938516 L 517.5958188153311 224.77396021699818 L 519.3379790940767 236.70886075949366 L 521.0801393728223 225.1356238698011 L 522.822299651568 237.4321880650995 L 524.5644599303137 235.2622061482821 L 526.3066202090592 238.51717902350813 L 528.0487804878048 238.87884267631105 L 529.7909407665505 231.64556962025316 L 531.5331010452962 228.39059674502712 L 533.2752613240418 223.68896925858954 L 535.0174216027874 225.6781193490054 L 536.7595818815331 225.497287522604 L 538.5017421602788 230.01808318264014 L 540.2439024390244 231.46473779385175 L 541.98606271777 233.09222423146477 L 543.7282229965157 256.05786618444847 L 545.4703832752614 227.30560578661843 L 547.212543554007 227.4864376130199 L 548.9547038327526 245.20795660036165 L 550.6968641114983 230.74141048824592 L 552.439024390244 234.53887884267633 L 554.1811846689895 230.01808318264014 L 555.9233449477351 233.27305605786617 L 557.6655052264808 224.59312839059677 L 559.4076655052265 231.82640144665461 L 561.1498257839721 232.36889692585893 L 562.8919860627177 226.94394213381557 L 564.6341463414634 229.29475587703436 L 566.3763066202091 230.74141048824592 L 568.1184668989547 233.45388788426763 L 569.8606271777003 237.07052441229658 L 571.602787456446 233.45388788426763 L 573.3449477351917 238.6980108499096 L 575.0871080139373 240.3254972875226 L 576.8292682926829 241.95298372513562 L 578.5714285714286 237.6130198915009 L 580.3135888501743 241.22965641952985 L 582.0557491289198 243.94213381555156 L 583.7979094076654 248.8245931283906 L 585.5400696864111 261.66365280289335 L 587.2822299651568 262.02531645569616 L 589.0243902439024 263.29113924050637 L 590.766550522648 264.55696202531647 L 592.5087108013937 261.121157323689 L 594.2508710801394 262.92947558770345 L 595.993031358885 264.19529837251355 L 597.7351916376306 269.25858951175405 L 599.4773519163763 260.03616636528034 L 601.219512195122 263.29113924050637 L 602.9616724738676 262.02531645569616 L 604.7038327526133 275.0452079566004 L 606.445993031359 280.4701627486438 L 608.1881533101046 282.2784810126583 L 609.9303135888501 285.5334538878843 L 611.6724738675958 288.9692585895118 L 613.4146341463415 304.3399638336347 L 615.1567944250871 304.5207956600362 L 616.8989547038327 310.84990958408684 L 618.6411149825784 298.372513562387 L 620.3832752613241 303.25497287522603 L 622.1254355400697 303.61663652802895 L 623.8675958188153 308.499095840868 L 625.609756097561 307.9566003616637 L 627.3519163763067 312.8390596745027 L 629.0940766550523 317.7215189873418 L 630.8362369337979 323.3273056057866 L 632.5783972125436 331.6455696202532 L 634.3205574912893 334.53887884267635 L 636.0627177700349 339.78300180831826 L 637.8048780487804 340.86799276672696 L 639.5470383275261 345.2079566003617 L 641.2891986062718 346.1121157323689 L 643.0313588850174 351.53707052441234 L 644.773519163763 359.6745027124774 L 646.5156794425087 365.09945750452084 L 648.2578397212544 366.90777576853526 L 650 363.8336347197107 L 650 400 Z" /><text  class="poloto_labels poloto_text poloto_title" alignment-baseline="start" text-anchor="middle" font-size="x-large" x="400" y="37.5" >Total players on 2021-11-08</text><text  class="poloto_labels poloto_text poloto_xname" alignment-baseline="start" text-anchor="middle" font-size="x-large" x="400" y="481.25" >Time</text><text  class="poloto_labels poloto_text poloto_yname" alignment-baseline="start" text-anchor="middle" font-size="x-large" transform="rotate(-90,37.5,250)" x="37.5" y="250" >Count</text><line  class="poloto_axis_lines" stroke="black" x1="150" x2="150" y1="400" y2="405" /><text  class="poloto_tick_labels poloto_text" alignment-baseline="start" text-anchor="middle" x="150" y="430" > 00:00</text><line  class="poloto_axis_lines" stroke="black" x1="266.14401858304296" x2="266.14401858304296" y1="400" y2="405" /><text  class="poloto_tick_labels poloto_text" alignment-baseline="start" text-anchor="middle" x="266.14401858304296" y="430" > 06:00</text><line  class="poloto_axis_lines" stroke="black" x1="382.2880371660859" x2="382.2880371660859" y1="400" y2="405" /><text  class="poloto_tick_labels poloto_text" alignment-baseline="start" text-anchor="middle" x="382.2880371660859" y="430" > 11:00</text><line  class="poloto_axis_lines" stroke="black" x1="498.4320557491289" x2="498.4320557491289" y1="400" y2="405" /><text  class="poloto_tick_labels poloto_text" alignment-baseline="start" text-anchor="middle" x="498.4320557491289" y="430" > 17:00</text><line  class="poloto_axis_lines" stroke="black" x1="614.5760743321719" x2="614.5760743321719" y1="400" y2="405" /><text  class="poloto_tick_labels poloto_text" alignment-baseline="start" text-anchor="middle" x="614.5760743321719" y="430" > 22:00</text><line  class="poloto_axis_lines" stroke="black" x1="150" x2="144" y1="366.36528028933094" y2="366.36528028933094" /><text  class="poloto_tick_labels poloto_text" alignment-baseline="middle" text-anchor="end" x="135" y="366.36528028933094" > 1000</text><line  class="poloto_axis_lines" stroke="black" x1="150" x2="144" y1="275.9493670886076" y2="275.9493670886076" /><text  class="poloto_tick_labels poloto_text" alignment-baseline="middle" text-anchor="end" x="135" y="275.9493670886076" > 1500</text><line  class="poloto_axis_lines" stroke="black" x1="150" x2="144" y1="185.53345388788432" y2="185.53345388788432" /><text  class="poloto_tick_labels poloto_text" alignment-baseline="middle" text-anchor="end" x="135" y="185.53345388788432" > 2000</text><path  stroke="black" fill="none" class="poloto_axis_lines" style="stroke-dasharray:14.518002322880372;stroke-dashoffset:-0;" d=" M 150 400 L 650 400" /><path  stroke="black" fill="none" class="poloto_axis_lines" style="stroke-dasharray:9.041591320072332;stroke-dashoffset:-33.63471971066906;" d=" M 150 400 L 150 100" /></svg>