<svg class="poloto" width="800" height="500" viewBox="0 0 800 500" xmlns="http://www.w3.org/2000/svg"><style>.poloto { stroke-linecap:round; stroke-linejoin:round; font-family: 'Tahoma', sans-serif; background-color: AliceBlue;} .poloto_scatter{stroke-width:7} .poloto_line{stroke-width:2} .poloto_text{fill: black;} .poloto_axis_lines{stroke: black;stroke-width:3;fill:none;stroke-dasharray:none} .poloto0stroke{stroke:  blue;} .poloto1stroke{stroke:  red;} .poloto2stroke{stroke:  green;} .poloto3stroke{stroke:  gold;} .poloto4stroke{stroke:  aqua;} .poloto5stroke{stroke:  lime;} .poloto6stroke{stroke:  orange;} .poloto7stroke{stroke:  chocolate;} .poloto0fill{fill:blue;} .poloto1fill{fill:red;} .poloto2fill{fill:green;} .poloto3fill{fill:gold;} .poloto4fill{fill:aqua;} .poloto5fill{fill:lime;} .poloto6fill{fill:orange;} .poloto7fill{fill:chocolate;}</style><text  class="poloto_text poloto_legend_text" alignment-baseline="middle" text-anchor="start" font-size="large" x="675" y="100" ></text><path  class="poloto_linefill poloto0fill" d=" M 150 400 L 150 315.2830188679245 L 151.74216027874564 319.433962264151 L 153.4843205574913 321.3207547169811 L 155.22648083623693 323.0188679245283 L 156.96864111498257 327.7358490566038 L 158.71080139372822 325.66037735849056 L 160.45296167247386 330.37735849056605 L 162.1951219512195 322.45283018867923 L 163.93728222996515 332.07547169811323 L 165.6794425087108 334.90566037735846 L 167.42160278745644 335.2830188679245 L 169.16376306620208 340.18867924528297 L 170.90592334494772 339.0566037735849 L 172.64808362369337 343.2075471698113 L 174.390243902439 344.33962264150944 L 176.13240418118465 347.92452830188677 L 177.8745644599303 353.2075471698113 L 179.61672473867597 354.7169811320755 L 181.3588850174216 353.39622641509436 L 183.10104529616726 358.49056603773585 L 184.8432055749129 359.62264150943395 L 186.58536585365854 358.6792452830189 L 188.3275261324042 360.37735849056605 L 190.06968641114983 361.1320754716981 L 191.81184668989548 369.811320754717 L 193.55400696864112 370.7547169811321 L 195.29616724738676 369.2452830188679 L 197.0383275261324 368.1132075471698 L 198.78048780487805 367.5471698113207 L 200.5226480836237 373.39622641509436 L 202.26480836236934 373.77358490566036 L 204.00696864111498 376.60377358490564 L 205.74912891986062 374.7169811320755 L 207.49128919860627 376.60377358490564 L 209.2334494773519 377.1698113207547 L 210.97560975609755 373.0188679245283 L 212.7177700348432 373.2075471698113 L 214.45993031358887 383.0188679245283 L 216.2020905923345 382.64150943396226 L 217.94425087108016 379.62264150943395 L 219.6864111498258 380 L 221.42857142857144 383.77358490566036 L 223.1707317073171 384.5283018867924 L 224.91289198606273 388.49056603773585 L 226.65505226480838 393.39622641509436 L 228.39721254355402 392.2641509433962 L 230.13937282229966 400 L 231.8815331010453 391.6981132075472 L 233.62369337979095 391.50943396226415 L 235.3658536585366 392.07547169811323 L 237.10801393728224 393.9622641509434 L 238.85017421602788 395.2830188679245 L 240.59233449477352 395.09433962264154 L 242.33449477351917 395.2830188679245 L 244.0766550522648 388.86792452830184 L 245.81881533101046 385.47169811320754 L 247.5609756097561 386.41509433962267 L 249.30313588850174 390.37735849056605 L 251.0452961672474 389.62264150943395 L 252.78745644599303 392.2641509433962 L 254.52961672473867 386.9811320754717 L 256.2717770034843 386.79245283018867 L 258.01393728222996 385.47169811320754 L 259.7560975609756 383.77358490566036 L 261.49825783972125 384.5283018867924 L 263.2404181184669 384.90566037735846 L 264.98257839721254 380.566037735849 L 266.7247386759582 382.8301886792453 L 268.4668989547038 371.6981132075472 L 270.20905923344947 374.5283018867924 L 271.9512195121951 374.1509433962264 L 273.69337979094075 370.37735849056605 L 275.4355400696864 366.9811320754717 L 277.17770034843204 367.5471698113207 L 278.9198606271777 362.2641509433962 L 280.6620209059233 356.60377358490564 L 282.40418118466897 356.41509433962267 L 284.1463414634146 348.49056603773585 L 285.88850174216026 348.1132075471698 L 287.6306620209059 345.84905660377353 L 289.37282229965155 346.2264150943396 L 291.1149825783972 343.2075471698113 L 292.85714285714283 344.5283018867924 L 294.5993031358885 344.33962264150944 L 296.3414634146342 344.33962264150944 L 298.08362369337976 343.77358490566036 L 299.82578397212546 342.45283018867923 L 301.56794425087105 345.09433962264154 L 303.31010452961675 346.9811320754717 L 305.05226480836234 353.0188679245283 L 306.79442508710804 359.62264150943395 L 308.5365853658536 365.47169811320754 L 310.2787456445993 367.7358490566038 L 312.0209059233449 368.49056603773585 L 313.7630662020906 364.90566037735846 L 315.5052264808362 357.92452830188677 L 317.2473867595819 360.566037735849 L 318.9895470383275 358.3018867924528 L 320.7317073170732 359.811320754717 L 322.4738675958188 358.1132075471698 L 324.2160278745645 353.2075471698113 L 325.95818815331006 345.09433962264154 L 327.70034843205576 342.2641509433962 L 329.44250871080135 343.2075471698113 L 331.18466898954705 340.9433962264151 L 332.92682926829264 335.84905660377353 L 334.66898954703834 344.1509433962264 L 336.4111498257839 322.2641509433962 L 338.1533101045296 323.9622641509434 L 339.8954703832752 316.9811320754717 L 341.6376306620209 314.90566037735846 L 343.3797909407665 316.7924528301887 L 345.1219512195122 309.0566037735849 L 346.86411149825784 311.3207547169811 L 348.6062717770035 310 L 350.34843205574913 304.5283018867924 L 352.0905923344948 304.90566037735846 L 353.8327526132404 296.41509433962267 L 355.57491289198606 296.7924528301887 L 357.3170731707317 295.09433962264154 L 359.05923344947735 295.4716981132075 L 360.801393728223 292.8301886792452 L 362.54355400696863 287.5471698113207 L 364.2857142857143 286.9811320754717 L 366.0278745644599 287.5471698113207 L 367.77003484320556 283.58490566037733 L 369.5121951219512 279.62264150943395 L 371.25435540069685 286.9811320754717 L 372.9965156794425 276.7924528301886 L 374.73867595818814 275.2830188679245 L 376.4808362369338 276.9811320754717 L 378.2229965156794 268.11320754716985 L 379.96515679442507 259.62264150943395 L 381.7073170731707 259.433962264151 L 383.44947735191636 260.18867924528297 L 385.191637630662 251.69811320754715 L 386.93379790940764 248.3018867924528 L 388.6759581881533 245.0943396226415 L 390.41811846689893 244.71698113207546 L 392.1602787456446 237.9245283018868 L 393.9024390243902 241.13207547169807 L 395.6445993031359 241.69811320754715 L 397.3867595818815 237.73584905660377 L 399.1289198606272 229.99999999999997 L 400.8710801393728 226.0377358490566 L 402.6132404181185 221.69811320754715 L 404.3554006968641 223.01886792452828 L 406.0975609756097 221.13207547169807 L 407.83972125435537 218.86792452830187 L 409.581881533101 221.13207547169807 L 411.32404181184666 222.64150943396223 L 413.0662020905923 219.62264150943392 L 414.80836236933794 211.3207547169811 L 416.5505226480836 212.64150943396223 L 418.29268292682923 202.83018867924525 L 420.0348432055749 199.43396226415095 L 421.7770034843206 193.2075471698113 L 423.5191637630662 190.37735849056602 L 425.26132404181186 190.94339622641505 L 427.0034843205575 183.39622641509433 L 428.74564459930315 173.01886792452828 L 430.4878048780488 170.56603773584905 L 432.22996515679444 166.98113207547166 L 433.9721254355401 169.0566037735849 L 435.7142857142857 159.99999999999997 L 437.45644599303137 159.0566037735849 L 439.198606271777 154.71698113207546 L 440.94076655052265 155.4716981132075 L 442.6829268292683 155.66037735849054 L 444.42508710801394 152.64150943396223 L 446.1672473867596 159.4339622641509 L 447.9094076655052 150.75471698113208 L 449.65156794425087 146.6037735849056 L 451.3937282229965 149.0566037735849 L 453.13588850174216 149.62264150943392 L 454.8780487804878 148.11320754716976 L 456.62020905923345 148.86792452830187 L 458.3623693379791 136.41509433962267 L 460.10452961672473 130.56603773584902 L 461.8466898954704 153.96226415094335 L 463.588850174216 147.73584905660377 L 465.33101045296166 143.96226415094338 L 467.0731707317073 143.0188679245283 L 468.81533101045295 139.2452830188679 L 470.5574912891986 130.94339622641508 L 472.29965156794424 124.90566037735846 L 474.0418118466899 121.69811320754718 L 475.7839721254355 117.92452830188677 L 477.52613240418117 116.22641509433959 L 479.2682926829268 115.09433962264143 L 481.01045296167246 120 L 482.7526132404181 111.32075471698113 L 484.49477351916374 100 L 486.2369337979094 106.41509433962267 L 487.97909407665503 104.90566037735846 L 489.7212543554007 109.05660377358492 L 491.4634146341463 108.86792452830184 L 493.20557491289196 114.33962264150944 L 494.9477351916376 109.62264150943395 L 496.68989547038325 113.7735849056603 L 498.4320557491289 112.07547169811323 L 500.17421602787454 112.2641509433962 L 501.9163763066202 108.67924528301887 L 503.6585365853658 113.20754716981128 L 505.40069686411147 111.32075471698113 L 507.1428571428571 113.58490566037733 L 508.88501742160275 111.13207547169804 L 510.6271777003484 115.09433962264143 L 512.3693379790941 120 L 514.1114982578397 122.45283018867917 L 515.8536585365853 122.83018867924523 L 517.595818815331 131.69811320754718 L 519.3379790940767 126.60377358490564 L 521.0801393728223 123.96226415094338 L 522.822299651568 123.20754716981128 L 524.5644599303137 125.28301886792451 L 526.3066202090592 137.7358490566038 L 528.0487804878048 144.52830188679243 L 529.7909407665505 145.84905660377356 L 531.5331010452962 153.2075471698113 L 533.2752613240418 151.3207547169811 L 535.0174216027874 165.66037735849054 L 536.7595818815331 165.84905660377356 L 538.5017421602788 173.39622641509433 L 540.2439024390244 179.81132075471695 L 541.98606271777 180.188679245283 L 543.7282229965157 175.0943396226415 L 545.4703832752614 178.3018867924528 L 547.212543554007 185.28301886792448 L 548.9547038327526 188.49056603773582 L 550.6968641114983 188.3018867924528 L 552.439024390244 189.24528301886792 L 554.1811846689895 187.35849056603772 L 555.9233449477351 189.99999999999997 L 557.6655052264808 194.52830188679243 L 559.4076655052265 205.4716981132075 L 561.1498257839721 207.9245283018868 L 562.8919860627177 209.24528301886792 L 564.6341463414634 205.0943396226415 L 566.3763066202091 204.9056603773585 L 568.1184668989547 213.58490566037736 L 569.8606271777003 213.58490566037736 L 571.602787456446 220.56603773584905 L 573.3449477351917 219.62264150943392 L 575.0871080139373 220.56603773584905 L 576.8292682926829 225.4716981132075 L 578.5714285714286 224.3396226415094 L 580.3135888501743 216.98113207547166 L 582.0557491289198 210.188679245283 L 583.7979094076654 205.28301886792448 L 585.5400696864111 209.43396226415095 L 587.2822299651568 211.50943396226413 L 589.0243902439024 213.39622641509433 L 590.766550522648 224.15094339622638 L 592.5087108013937 215.84905660377356 L 594.2508710801394 220.188679245283 L 595.993031358885 214.15094339622638 L 597.7351916376306 214.9056603773585 L 599.4773519163763 225.28301886792448 L 601.219512195122 235.84905660377356 L 602.9616724738676 244.9056603773585 L 604.7038327526132 239.99999999999997 L 606.4459930313589 238.11320754716982 L 608.1881533101046 243.58490566037736 L 609.9303135888501 241.69811320754715 L 611.6724738675957 243.77358490566039 L 613.4146341463414 238.11320754716982 L 615.1567944250871 243.39622641509433 L 616.8989547038327 249.99999999999997 L 618.6411149825783 258.86792452830184 L 620.383275261324 258.3018867924528 L 622.1254355400697 263.7735849056604 L 623.8675958188153 263.2075471698113 L 625.609756097561 268.6792452830189 L 627.3519163763067 271.6981132075472 L 629.0940766550523 273.39622641509436 L 630.8362369337979 275.66037735849056 L 632.5783972125436 276.0377358490566 L 634.3205574912893 277.5471698113207 L 636.0627177700349 278.86792452830184 L 637.8048780487804 280 L 639.5470383275261 286.7924528301886 L 641.2891986062718 285.2830188679245 L 643.0313588850174 289.2452830188679 L 644.773519163763 294.7169811320755 L 646.5156794425087 297.5471698113207 L 648.2578397212544 300.9433962264151 L 650 309.62264150943395 L 650 400 Z" /><text  class="poloto_labels poloto_text poloto_title" alignment-baseline="start" text-anchor="middle" font-size="x-large" x="400" y="37.5" >Total players on 2021-06-10</text><text  class="poloto_labels poloto_text poloto_xname" alignment-baseline="start" text-anchor="middle" font-size="x-large" x="400" y="481.25" >Time</text><text  class="poloto_labels poloto_text poloto_yname" alignment-baseline="start" text-anchor="middle" font-size="x-large" transform="rotate(-90,37.5,250)" x="37.5" y="250" >Count</text><line  class="poloto_axis_lines" stroke="black" x1="208.0487804878049" x2="208.0487804878049" y1="400" y2="405" /><text  class="poloto_tick_labels poloto_text" alignment-baseline="start" text-anchor="middle" x="208.0487804878049" y="430" > 02:46:40</text><line  class="poloto_axis_lines" stroke="black" x1="266.1207897793264" x2="266.1207897793264" y1="400" y2="405" /><text  class="poloto_tick_labels poloto_text" alignment-baseline="start" text-anchor="middle" x="266.1207897793264" y="430" > 05:33:20</text><line  class="poloto_axis_lines" stroke="black" x1="324.19279907084785" x2="324.19279907084785" y1="400" y2="405" /><text  class="poloto_tick_labels poloto_text" alignment-baseline="start" text-anchor="middle" x="324.19279907084785" y="430" > 08:20:00</text><line  class="poloto_axis_lines" stroke="black" x1="382.2648083623693" x2="382.2648083623693" y1="400" y2="405" /><text  class="poloto_tick_labels poloto_text" alignment-baseline="start" text-anchor="middle" x="382.2648083623693" y="430" > 11:06:40</text><line  class="poloto_axis_lines" stroke="black" x1="440.3368176538908" x2="440.3368176538908" y1="400" y2="405" /><text  class="poloto_tick_labels poloto_text" alignment-baseline="start" text-anchor="middle" x="440.3368176538908" y="430" > 13:53:20</text><line  class="poloto_axis_lines" stroke="black" x1="498.4088269454123" x2="498.4088269454123" y1="400" y2="405" /><text  class="poloto_tick_labels poloto_text" alignment-baseline="start" text-anchor="middle" x="498.4088269454123" y="430" > 16:40:00</text><line  class="poloto_axis_lines" stroke="black" x1="556.4808362369338" x2="556.4808362369338" y1="400" y2="405" /><text  class="poloto_tick_labels poloto_text" alignment-baseline="start" text-anchor="middle" x="556.4808362369338" y="430" > 19:26:40</text><line  class="poloto_axis_lines" stroke="black" x1="614.5528455284552" x2="614.5528455284552" y1="400" y2="405" /><text  class="poloto_tick_labels poloto_text" alignment-baseline="start" text-anchor="middle" x="614.5528455284552" y="430" > 22:13:20</text><line  class="poloto_axis_lines" stroke="black" x1="150" x2="144" y1="387.92452830188677" y2="387.92452830188677" /><text  class="poloto_tick_labels poloto_text" alignment-baseline="middle" text-anchor="end" x="135" y="387.92452830188677" > 1000</text><line  class="poloto_axis_lines" stroke="black" x1="150" x2="144" y1="293.58490566037733" y2="293.58490566037733" /><text  class="poloto_tick_labels poloto_text" alignment-baseline="middle" text-anchor="end" x="135" y="293.58490566037733" > 1500</text><line  class="poloto_axis_lines" stroke="black" x1="150" x2="144" y1="199.2452830188679" y2="199.2452830188679" /><text  class="poloto_tick_labels poloto_text" alignment-baseline="middle" text-anchor="end" x="135" y="199.2452830188679" > 2000</text><line  class="poloto_axis_lines" stroke="black" x1="150" x2="144" y1="104.90566037735846" y2="104.90566037735846" /><text  class="poloto_tick_labels poloto_text" alignment-baseline="middle" text-anchor="end" x="135" y="104.90566037735846" > 2500</text><path  stroke="black" fill="none" class="poloto_axis_lines" style="stroke-dasharray:14.518002322880372;stroke-dashoffset:-58.04878048780488;" d=" M 150 400 L 650 400" /><path  stroke="black" fill="none" class="poloto_axis_lines" style="stroke-dasharray:9.433962264150944;stroke-dashoffset:-12.075471698113205;" d=" M 150 400 L 150 100" /></svg>