<svg class="poloto" width="800" height="500" viewBox="0 0 800 500" xmlns="http://www.w3.org/2000/svg"><style>.poloto { stroke-linecap:round; stroke-linejoin:round; font-family: 'Tahoma', sans-serif; background-color: AliceBlue;} .poloto_scatter{stroke-width:7} .poloto_line{stroke-width:2} .poloto_text{fill: black;} .poloto_axis_lines{stroke: black;stroke-width:3;fill:none;stroke-dasharray:none} .poloto0stroke{stroke:  blue;} .poloto1stroke{stroke:  red;} .poloto2stroke{stroke:  green;} .poloto3stroke{stroke:  gold;} .poloto4stroke{stroke:  aqua;} .poloto5stroke{stroke:  lime;} .poloto6stroke{stroke:  orange;} .poloto7stroke{stroke:  chocolate;} .poloto0fill{fill:blue;} .poloto1fill{fill:red;} .poloto2fill{fill:green;} .poloto3fill{fill:gold;} .poloto4fill{fill:aqua;} .poloto5fill{fill:lime;} .poloto6fill{fill:orange;} .poloto7fill{fill:chocolate;}</style><text  class="poloto_text poloto_legend_text" alignment-baseline="middle" text-anchor="start" font-size="large" x="675" y="100" ></text><path  class="poloto_linefill poloto0fill" d=" M 150 400 L 150 276.1227786752827 L 151.74216027874564 277.8675282714055 L 153.4843205574913 276.4135702746365 L 155.22648083623693 278.7399030694669 L 156.96864111498257 279.9030694668821 L 158.71080139372822 279.32148626817445 L 160.45296167247386 282.4232633279483 L 162.1951219512195 284.5557350565428 L 163.93728222996515 284.36187399030695 L 165.6794425087108 285.04038772213244 L 167.42160278745644 286.0096930533118 L 169.16376306620208 285.1373182552504 L 170.90592334494772 288.7237479806139 L 172.64808362369337 291.05008077544426 L 174.390243902439 287.65751211631664 L 176.13240418118465 286.39741518578353 L 177.8745644599303 287.9483037156704 L 179.61672473867597 292.6978998384491 L 181.3588850174216 293.5702746365105 L 183.10104529616726 294.8303715670436 L 184.8432055749129 293.95799676898224 L 186.58536585365854 292.6978998384491 L 188.3275261324042 294.5395799676898 L 190.06968641114983 295.79967689822297 L 191.81184668989548 298.3198707592892 L 193.55400696864112 299.6768982229402 L 195.29616724738676 300.064620355412 L 197.0383275261324 297.25363489499193 L 198.78048780487805 295.9935379644588 L 200.5226480836237 295.60581583198706 L 202.26480836236934 295.3150242326333 L 204.00696864111498 296.09046849757675 L 205.74912891986062 293.08562197092084 L 207.49128919860627 294.8303715670436 L 209.2334494773519 307.23747980613894 L 210.97560975609755 290.5654281098546 L 212.7177700348432 294.248788368336 L 214.45993031358887 289.2084006462036 L 216.2020905923345 290.08077544426493 L 217.94425087108016 290.66235864297255 L 219.6864111498258 290.17770597738286 L 221.42857142857144 286.9789983844911 L 223.1707317073171 286.1066235864297 L 224.91289198606273 282.907915993538 L 226.65505226480838 283.3925686591276 L 228.39721254355402 282.5201938610662 L 230.13937282229966 282.0355411954766 L 231.8815331010453 285.62197092084006 L 233.62369337979095 286.9789983844911 L 235.3658536585366 286.6882067851373 L 237.10801393728224 293.5702746365105 L 238.85017421602788 293.76413570274633 L 240.59233449477352 287.8513731825525 L 242.33449477351917 283.3925686591276 L 244.0766550522648 285.62197092084006 L 245.81881533101046 284.264943457189 L 247.5609756097561 281.7447495961228 L 249.30313588850174 281.55088852988695 L 251.0452961672474 279.6122778675283 L 252.78745644599303 279.1276252019386 L 254.52961672473867 281.93861066235866 L 256.2717770034843 282.5201938610662 L 258.01393728222996 284.264943457189 L 259.7560975609756 283.6833602584814 L 261.49825783972125 282.7140549273021 L 263.2404181184669 286.1066235864297 L 264.98257839721254 285.8158319870759 L 266.7247386759582 284.6526655896607 L 268.4668989547038 285.52504038772213 L 270.20905923344947 286.2035541195477 L 271.9512195121951 287.36672051696286 L 273.69337979094075 288.52988691437804 L 275.4355400696864 286.39741518578353 L 277.17770034843204 287.5605815831987 L 278.91986062717774 286.5912762520194 L 280.6620209059233 287.26978998384493 L 282.404181184669 290.4684975767367 L 284.1463414634146 288.52988691437804 L 285.8885017421603 284.74959612277866 L 287.6306620209059 286.0096930533118 L 289.3728222996516 282.907915993538 L 291.1149825783972 282.5201938610662 L 292.8571428571429 281.45395799676896 L 294.5993031358885 280.4846526655897 L 296.3414634146342 282.81098546042006 L 298.08362369337976 281.2600969305331 L 299.82578397212546 281.6478190630048 L 301.56794425087105 279.6122778675283 L 303.31010452961675 277.77059773828756 L 305.05226480836234 276.31663974151854 L 306.79442508710804 273.0210016155089 L 308.5365853658536 272.63327948303714 L 310.2787456445993 272.73021001615507 L 312.0209059233449 274.76575121163165 L 313.7630662020906 276.02584814216476 L 315.5052264808362 273.6995153473344 L 317.2473867595819 272.9240710823909 L 318.9895470383275 273.60258481421647 L 320.7317073170732 270.4038772213247 L 322.4738675958188 271.1793214862682 L 324.2160278745645 267.59289176090465 L 325.9581881533101 268.94991922455574 L 327.70034843205576 269.82229402261714 L 329.4425087108014 268.94991922455574 L 331.18466898954705 269.919224555735 L 332.9268292682927 270.21001615508885 L 334.66898954703834 268.7560581583199 L 336.411149825784 265.65428109854605 L 338.1533101045296 264.0064620355412 L 339.89547038327527 263.8126009693053 L 341.6376306620209 262.84329563812605 L 343.37979094076655 263.8126009693053 L 345.1219512195122 261.6801292407108 L 346.86411149825784 261.09854604200325 L 348.6062717770035 261.38933764135703 L 350.34843205574913 262.2617124394184 L 352.0905923344948 260.1292407108239 L 353.8327526132404 261.6801292407108 L 355.57491289198606 258.86914378029076 L 357.3170731707317 263.8126009693053 L 359.05923344947735 253.92568659127625 L 360.801393728223 253.34410339256866 L 362.54355400696863 254.70113085621972 L 364.2857142857143 246.55896607431342 L 366.0278745644599 247.140549273021 L 367.77003484320556 241.421647819063 L 369.5121951219512 242.0032310177706 L 371.25435540069685 249.07915993537964 L 372.9965156794425 232.21324717285944 L 374.73867595818814 232.1163166397415 L 376.4808362369338 237.15670436187398 L 378.2229965156795 233.2794830371567 L 379.96515679442507 233.66720516962843 L 381.70731707317077 230.08077544426493 L 383.44947735191636 232.6978998384491 L 385.19163763066206 230.95315024232633 L 386.93379790940764 230.8562197092084 L 388.67595818815334 229.88691437802908 L 390.41811846689893 229.78998384491115 L 392.16027874564463 231.53473344103392 L 393.9024390243902 228.23909531502423 L 395.6445993031359 227.07592891760905 L 397.3867595818815 226.20355411954765 L 399.1289198606272 221.64781906300485 L 400.8710801393728 221.16316639741518 L 402.6132404181185 217.47980613893375 L 404.3554006968641 210.79159935379644 L 406.0975609756098 211.8578352180937 L 407.8397212543554 209.04684975767367 L 409.58188153310107 205.07269789983846 L 411.3240418118467 200.03231017770597 L 413.06620209059236 195.37964458804524 L 414.808362369338 197.22132471728594 L 416.55052264808364 195.8642972536349 L 418.2926829268293 193.92568659127625 L 420.03484320557493 195.5735056542811 L 421.7770034843206 196.2520193861066 L 423.5191637630662 186.17124394184168 L 425.26132404181186 180.45234248788367 L 427.0034843205575 181.7124394184168 L 428.74564459930315 176.6720516962843 L 430.4878048780488 171.34087237479807 L 432.22996515679444 165.23424878836835 L 433.9721254355401 181.32471728594507 L 435.7142857142857 163.10177705977384 L 437.45644599303137 160.48465266558966 L 439.198606271777 154.95961227786754 L 440.94076655052265 154.5718901453958 L 442.6829268292683 149.82229402261711 L 444.42508710801394 144.3941841680129 L 446.1672473867596 144.9757673667205 L 447.9094076655052 137.51211631663972 L 449.65156794425087 133.4410339256866 L 451.3937282229965 134.6042003231018 L 453.13588850174216 133.05331179321485 L 454.8780487804878 135.18578352180936 L 456.62020905923345 132.47172859450728 L 458.3623693379791 126.75282714054924 L 460.10452961672473 120.16155088852986 L 461.8466898954704 120.16155088852986 L 463.588850174216 125.97738287560583 L 465.33101045296166 117.44749596122779 L 467.0731707317073 114.92730210016157 L 468.81533101045295 119.0953150242326 L 470.5574912891986 117.156704361874 L 472.29965156794424 117.44749596122779 L 474.0418118466899 116.2843295638126 L 475.7839721254355 112.31017770597737 L 477.52613240418117 105.23424878836835 L 479.2682926829268 108.82067851373182 L 481.01045296167246 104.5557350565428 L 482.7526132404181 101.16316639741518 L 484.49477351916374 103.29563812600969 L 486.2369337979094 101.06623586429725 L 487.97909407665503 100 L 489.7212543554007 110.95315024232633 L 491.4634146341463 117.73828756058157 L 493.20557491289196 115.99353796445882 L 494.9477351916376 115.12116316639742 L 496.68989547038325 119.0953150242326 L 498.4320557491289 117.8352180936995 L 500.17421602787454 118.61066235864297 L 501.91637630662024 116.67205169628431 L 503.6585365853659 117.25363489499193 L 505.4006968641115 123.55411954765754 L 507.14285714285717 131.40549273021003 L 508.8850174216028 134.6042003231018 L 510.62717770034845 133.7318255250404 L 512.3693379790941 133.53796445880454 L 514.1114982578397 135.18578352180936 L 515.8536585365854 136.93053311793216 L 517.5958188153311 137.31825525040387 L 519.3379790940767 141.77705977382874 L 521.0801393728223 143.4248788368336 L 522.822299651568 149.24071082390952 L 524.5644599303137 161.06623586429725 L 526.3066202090592 146.33279483037157 L 528.0487804878048 153.50565428109854 L 529.7909407665505 152.7302100161551 L 531.5331010452962 150.9854604200323 L 533.2752613240418 148.36833602584815 L 535.0174216027874 146.13893376413571 L 536.7595818815331 147.39903069466882 L 538.5017421602788 148.562197092084 L 540.2439024390244 142.74636510500807 L 541.98606271777 148.2714054927302 L 543.7282229965157 154.281098546042 L 545.4703832752614 157.57673667205168 L 547.212543554007 159.61227786752826 L 548.9547038327526 162.03554119547658 L 550.6968641114983 163.2956381260097 L 552.439024390244 167.07592891760905 L 554.1811846689895 169.69305331179322 L 555.9233449477351 167.07592891760905 L 557.6655052264808 170.66235864297252 L 559.4076655052265 167.94830371567045 L 561.1498257839721 174.05492730210017 L 562.8919860627177 173.76413570274636 L 564.6341463414634 175.9935379644588 L 566.3763066202091 171.34087237479807 L 568.1184668989547 174.53957996768983 L 569.8606271777003 176.76898222940227 L 571.602787456446 178.1260096930533 L 573.3449477351917 400 L 575.0871080139373 400 L 576.8292682926829 196.93053311793216 L 578.5714285714286 195.47657512116317 L 580.3135888501743 195.67043618739902 L 582.0557491289198 195.67043618739902 L 583.7979094076654 199.8384491114701 L 585.5400696864111 203.32794830371566 L 587.2822299651568 205.07269789983846 L 589.0243902439024 206.7205169628433 L 590.766550522648 205.8481421647819 L 592.5087108013937 205.2665589660743 L 594.2508710801394 204.3941841680129 L 595.993031358885 205.75121163166398 L 597.7351916376306 210.11308562197092 L 599.4773519163763 212.82714054927303 L 601.219512195122 215.05654281098546 L 602.9616724738676 219.7092084006462 L 604.7038327526133 219.03069466882067 L 606.445993031359 218.93376413570275 L 608.1881533101046 220 L 609.9303135888501 224.1680129240711 L 611.6724738675958 224.94345718901454 L 613.4146341463415 229.01453957996767 L 615.1567944250871 230.75928917609048 L 616.8989547038327 230.8562197092084 L 618.6411149825784 235.79967689822294 L 620.3832752613241 238.02907915993538 L 622.1254355400697 234.8303715670436 L 623.8675958188153 230.95315024232633 L 625.609756097561 236.96284329563812 L 627.3519163763067 237.93214862681745 L 629.0940766550523 241.421647819063 L 630.8362369337979 245.29886914378028 L 632.5783972125436 249.27302100161552 L 634.3205574912893 248.20678513731826 L 636.0627177700349 251.0177705977383 L 637.8048780487804 251.21163166397415 L 639.5470383275261 251.40549273021003 L 641.2891986062718 251.40549273021003 L 643.0313588850174 256.4458804523425 L 644.773519163763 258.6752827140549 L 646.5156794425087 258.6752827140549 L 648.2578397212544 261.5831987075929 L 650 262.4555735056543 L 650 400 Z" /><text  class="poloto_labels poloto_text poloto_title" alignment-baseline="start" text-anchor="middle" font-size="x-large" x="400" y="37.5" >Total players on 2021-09-03</text><text  class="poloto_labels poloto_text poloto_xname" alignment-baseline="start" text-anchor="middle" font-size="x-large" x="400" y="481.25" >Time</text><text  class="poloto_labels poloto_text poloto_yname" alignment-baseline="start" text-anchor="middle" font-size="x-large" transform="rotate(-90,37.5,250)" x="37.5" y="250" >Count</text><line  class="poloto_axis_lines" stroke="black" x1="150" x2="150" y1="400" y2="405" /><text  class="poloto_tick_labels poloto_text" alignment-baseline="start" text-anchor="middle" x="150" y="430" > 00:00</text><line  class="poloto_axis_lines" stroke="black" x1="266.14401858304296" x2="266.14401858304296" y1="400" y2="405" /><text  class="poloto_tick_labels poloto_text" alignment-baseline="start" text-anchor="middle" x="266.14401858304296" y="430" > 06:00</text><line  class="poloto_axis_lines" stroke="black" x1="382.2880371660859" x2="382.2880371660859" y1="400" y2="405" /><text  class="poloto_tick_labels poloto_text" alignment-baseline="start" text-anchor="middle" x="382.2880371660859" y="430" > 11:00</text><line  class="poloto_axis_lines" stroke="black" x1="498.4320557491289" x2="498.4320557491289" y1="400" y2="405" /><text  class="poloto_tick_labels poloto_text" alignment-baseline="start" text-anchor="middle" x="498.4320557491289" y="430" > 17:00</text><line  class="poloto_axis_lines" stroke="black" x1="614.5760743321719" x2="614.5760743321719" y1="400" y2="405" /><text  class="poloto_tick_labels poloto_text" alignment-baseline="start" text-anchor="middle" x="614.5760743321719" y="430" > 22:00</text><line  class="poloto_axis_lines" stroke="black" x1="150" x2="144" y1="400" y2="400" /><text  class="poloto_tick_labels poloto_text" alignment-baseline="middle" text-anchor="end" x="135" y="400" > 0</text><line  class="poloto_axis_lines" stroke="black" x1="150" x2="144" y1="303.06946688206784" y2="303.06946688206784" /><text  class="poloto_tick_labels poloto_text" alignment-baseline="middle" text-anchor="end" x="135" y="303.06946688206784" > 1000</text><line  class="poloto_axis_lines" stroke="black" x1="150" x2="144" y1="206.1389337641357" y2="206.1389337641357" /><text  class="poloto_tick_labels poloto_text" alignment-baseline="middle" text-anchor="end" x="135" y="206.1389337641357" > 2000</text><line  class="poloto_axis_lines" stroke="black" x1="150" x2="144" y1="109.20840064620353" y2="109.20840064620353" /><text  class="poloto_tick_labels poloto_text" alignment-baseline="middle" text-anchor="end" x="135" y="109.20840064620353" > 3000</text><path  stroke="black" fill="none" class="poloto_axis_lines" style="stroke-dasharray:14.518002322880372;stroke-dashoffset:-0;" d=" M 150 400 L 650 400" /><path  stroke="black" fill="none" class="poloto_axis_lines" style="stroke-dasharray:12.116316639741518;stroke-dashoffset:-0;" d=" M 150 400 L 150 100" /></svg>