<svg class="poloto" width="800" height="500" viewBox="0 0 800 500" xmlns="http://www.w3.org/2000/svg"><style>.poloto { stroke-linecap:round; stroke-linejoin:round; font-family: 'Tahoma', sans-serif; background-color: AliceBlue;} .poloto_scatter{stroke-width:7} .poloto_line{stroke-width:2} .poloto_text{fill: black;} .poloto_axis_lines{stroke: black;stroke-width:3;fill:none;stroke-dasharray:none} .poloto0stroke{stroke:  blue;} .poloto1stroke{stroke:  red;} .poloto2stroke{stroke:  green;} .poloto3stroke{stroke:  gold;} .poloto4stroke{stroke:  aqua;} .poloto5stroke{stroke:  lime;} .poloto6stroke{stroke:  orange;} .poloto7stroke{stroke:  chocolate;} .poloto0fill{fill:blue;} .poloto1fill{fill:red;} .poloto2fill{fill:green;} .poloto3fill{fill:gold;} .poloto4fill{fill:aqua;} .poloto5fill{fill:lime;} .poloto6fill{fill:orange;} .poloto7fill{fill:chocolate;}</style><text  class="poloto_text poloto_legend_text" alignment-baseline="middle" text-anchor="start" font-size="large" x="675" y="100" ></text><path  class="poloto_linefill poloto0fill" d=" M 150 400 L 150 340.5405405405405 L 151.74216027874564 343.8867438867439 L 153.4843205574913 340.92664092664097 L 155.22648083623693 342.98584298584296 L 156.96864111498257 344.6589446589447 L 158.71080139372822 345.0450450450451 L 160.45296167247386 349.6782496782497 L 162.1951219512195 353.2818532818533 L 163.93728222996515 349.54954954954957 L 165.6794425087108 347.23294723294725 L 167.42160278745644 347.23294723294725 L 169.16376306620208 344.7876447876448 L 170.90592334494772 346.975546975547 L 172.64808362369337 346.33204633204633 L 174.390243902439 346.46074646074646 L 176.13240418118465 345.17374517374515 L 177.8745644599303 343.8867438867439 L 179.61672473867597 344.015444015444 L 181.3588850174216 347.6190476190476 L 183.10104529616726 344.7876447876448 L 184.8432055749129 345.4311454311454 L 186.58536585365854 342.34234234234236 L 188.3275261324042 344.4015444015444 L 190.06968641114983 339.8970398970399 L 191.81184668989548 336.2934362934363 L 193.55400696864112 333.0759330759331 L 195.29616724738676 335.1351351351351 L 197.0383275261324 338.0952380952381 L 198.78048780487805 335.52123552123555 L 200.5226480836237 333.33333333333337 L 202.26480836236934 333.7194337194337 L 204.00696864111498 331.5315315315315 L 205.74912891986062 331.4028314028314 L 207.49128919860627 334.23423423423424 L 209.2334494773519 329.2149292149292 L 210.97560975609755 334.4916344916345 L 212.7177700348432 330.8880308880309 L 214.45993031358887 328.056628056628 L 216.2020905923345 331.27413127413126 L 217.94425087108016 326.64092664092664 L 219.6864111498258 324.83912483912485 L 221.42857142857144 320.0772200772201 L 223.1707317073171 315.958815958816 L 224.91289198606273 313.7709137709138 L 226.65505226480838 306.69240669240673 L 228.39721254355402 306.43500643500647 L 230.13937282229966 302.3166023166023 L 231.8815331010453 296.78249678249676 L 233.62369337979095 299.87129987129987 L 235.3658536585366 297.94079794079795 L 237.10801393728224 296.26769626769624 L 238.85017421602788 292.66409266409266 L 240.59233449477352 290.8622908622909 L 242.33449477351917 296.26769626769624 L 244.0766550522648 296.26769626769624 L 245.81881533101046 292.66409266409266 L 247.5609756097561 290.8622908622909 L 249.30313588850174 286.7438867438867 L 251.0452961672474 284.8133848133848 L 252.78745644599303 283.011583011583 L 254.52961672473867 281.3384813384813 L 256.2717770034843 280.3088803088803 L 258.01393728222996 282.2393822393823 L 259.7560975609756 284.94208494208493 L 261.49825783972125 285.7142857142857 L 263.2404181184669 287.12998712998717 L 264.98257839721254 286.8725868725869 L 266.7247386759582 283.6550836550837 L 268.4668989547038 282.1106821106821 L 270.20905923344947 286.48648648648646 L 271.9512195121951 289.7039897039897 L 273.69337979094075 288.2882882882883 L 275.4355400696864 286.7438867438867 L 277.17770034843204 288.03088803088804 L 278.91986062717774 282.8828828828829 L 280.6620209059233 288.15958815958817 L 282.404181184669 287.25868725868725 L 284.1463414634146 289.4465894465894 L 285.8885017421603 287.64478764478764 L 287.6306620209059 285.84298584298585 L 289.3728222996516 285.7142857142857 L 291.1149825783972 286.61518661518664 L 292.8571428571429 277.86357786357786 L 294.5993031358885 274.5173745173745 L 296.3414634146342 280.43758043758044 L 298.08362369337976 272.97297297297297 L 299.82578397212546 274.25997425997423 L 301.56794425087105 269.88416988416986 L 303.31010452961675 264.60746460746464 L 305.05226480836234 264.7361647361647 L 306.79442508710804 262.5482625482625 L 308.5365853658536 267.82496782496787 L 310.2787456445993 259.8455598455598 L 312.0209059233449 258.55855855855856 L 313.7630662020906 261.9047619047619 L 315.5052264808362 261.13256113256114 L 317.2473867595819 260.36036036036035 L 318.9895470383275 261.77606177606174 L 320.7317073170732 265.76576576576576 L 322.4738675958188 262.1621621621622 L 324.2160278745645 257.7863577863578 L 325.9581881533101 257.01415701415704 L 327.70034843205576 262.29086229086226 L 329.4425087108014 260.74646074646074 L 331.18466898954705 260.23166023166027 L 332.9268292682927 258.0437580437581 L 334.66898954703834 258.4298584298584 L 336.411149825784 251.22265122265122 L 338.1533101045296 248.9060489060489 L 339.89547038327527 249.8069498069498 L 341.6376306620209 246.07464607464607 L 343.37979094076655 241.05534105534105 L 345.1219512195122 241.18404118404118 L 346.86411149825784 235.26383526383526 L 348.6062717770035 237.06563706563705 L 350.34843205574913 236.42213642213645 L 352.0905923344948 238.8674388674389 L 353.8327526132404 234.74903474903473 L 355.57491289198606 232.04633204633203 L 357.3170731707317 232.68983268983268 L 359.05923344947735 229.60102960102958 L 360.801393728223 227.28442728442727 L 362.54355400696863 230.37323037323037 L 364.2857142857143 231.9176319176319 L 366.0278745644599 229.98712998712998 L 367.77003484320556 227.54182754182753 L 369.5121951219512 221.62162162162164 L 371.25435540069685 221.75032175032177 L 372.9965156794425 220.2059202059202 L 374.73867595818814 223.16602316602317 L 376.4808362369338 226.51222651222653 L 378.2229965156795 227.92792792792793 L 379.96515679442507 219.30501930501933 L 381.70731707317077 220.07722007722006 L 383.44947735191636 221.4929214929215 L 385.19163763066206 216.21621621621622 L 386.93379790940764 218.4041184041184 L 388.67595818815334 219.1763191763192 L 390.41811846689893 211.71171171171173 L 392.16027874564463 211.84041184041186 L 393.9024390243902 218.53281853281854 L 395.6445993031359 207.20720720720723 L 397.3867595818815 217.50321750321748 L 399.1289198606272 213.8996138996139 L 400.8710801393728 218.14671814671814 L 402.6132404181185 218.7902187902188 L 404.3554006968641 220.2059202059202 L 406.0975609756098 219.94851994851993 L 407.8397212543554 214.6718146718147 L 409.58188153310107 216.73101673101675 L 411.3240418118467 210.03861003861002 L 413.06620209059236 210.8108108108108 L 414.808362369338 202.96010296010294 L 416.55052264808364 199.74259974259977 L 418.2926829268293 203.08880308880308 L 420.03484320557493 193.3075933075933 L 421.7770034843206 194.85199485199487 L 423.5191637630662 192.40669240669243 L 425.26132404181186 188.67438867438867 L 427.0034843205575 191.37709137709138 L 428.74564459930315 189.96138996138998 L 430.4878048780488 178.37837837837836 L 432.22996515679444 174.25997425997426 L 433.9721254355401 168.98326898326897 L 435.7142857142857 160.23166023166024 L 437.45644599303137 154.82625482625483 L 439.198606271777 162.16216216216216 L 440.94076655052265 147.1042471042471 L 442.6829268292683 142.7284427284427 L 444.42508710801394 151.35135135135133 L 446.1672473867596 148.13384813384815 L 447.9094076655052 143.11454311454315 L 449.65156794425087 145.3024453024453 L 451.3937282229965 139.63963963963965 L 453.13588850174216 131.016731016731 L 454.8780487804878 127.15572715572716 L 456.62020905923345 122.13642213642208 L 458.3623693379791 123.80952380952385 L 460.10452961672473 119.43371943371949 L 461.8466898954704 119.04761904761904 L 463.588850174216 117.2458172458172 L 465.33101045296166 113.12741312741309 L 467.0731707317073 103.86100386100384 L 468.81533101045295 102.57400257400252 L 470.5574912891986 105.53410553410549 L 472.29965156794424 105.92020592020594 L 474.0418118466899 102.44530244530245 L 475.7839721254355 108.88030888030892 L 477.52613240418117 108.62290862290865 L 479.2682926829268 112.22651222651223 L 481.01045296167246 105.66280566280568 L 482.7526132404181 102.96010296010297 L 484.49477351916374 100 L 486.2369337979094 100.90090090090087 L 487.97909407665503 107.07850707850707 L 489.7212543554007 119.56241956241956 L 491.4634146341463 108.10810810810813 L 493.20557491289196 106.69240669240673 L 494.9477351916376 107.72200772200767 L 496.68989547038325 131.016731016731 L 498.4320557491289 104.50450450450455 L 500.17421602787454 112.09781209781215 L 501.91637630662024 120.72072072072069 L 503.6585365853659 124.06692406692412 L 505.4006968641115 122.39382239382235 L 507.14285714285717 120.59202059202062 L 508.8850174216028 129.6010296010296 L 510.62717770034845 129.98712998712995 L 512.3693379790941 132.04633204633205 L 514.1114982578397 129.34362934362935 L 515.8536585365854 126.76962676962683 L 517.5958188153311 124.58172458172453 L 519.3379790940767 128.57142857142856 L 521.0801393728223 129.6010296010296 L 522.822299651568 133.97683397683397 L 524.5644599303137 137.32303732303728 L 526.3066202090592 146.7181467181467 L 528.0487804878048 147.74774774774775 L 529.7909407665505 156.11325611325614 L 531.5331010452962 158.5585585585586 L 533.2752613240418 155.85585585585588 L 535.0174216027874 154.44015444015443 L 536.7595818815331 159.2020592020592 L 538.5017421602788 161.1325611325611 L 540.2439024390244 168.98326898326897 L 541.98606271777 171.42857142857142 L 543.7282229965157 173.35907335907334 L 545.4703832752614 179.7940797940798 L 547.212543554007 182.8828828828829 L 548.9547038327526 176.7052767052767 L 550.6968641114983 176.7052767052767 L 552.439024390244 177.34877734877736 L 554.1811846689895 189.83268983268985 L 555.9233449477351 199.22779922779924 L 557.6655052264808 197.94079794079792 L 559.4076655052265 198.84169884169884 L 561.1498257839721 201.93050193050195 L 562.8919860627177 205.79150579150578 L 564.6341463414634 202.96010296010294 L 566.3763066202091 209.90990990990989 L 568.1184668989547 209.39510939510942 L 569.8606271777003 216.21621621621622 L 571.602787456446 208.4942084942085 L 573.3449477351917 207.7220077220077 L 575.0871080139373 208.36550836550836 L 576.8292682926829 207.46460746460744 L 578.5714285714286 214.80051480051478 L 580.3135888501743 218.91891891891893 L 582.0557491289198 223.16602316602317 L 583.7979094076654 226.12612612612614 L 585.5400696864111 227.4131274131274 L 587.2822299651568 228.70012870012872 L 589.0243902439024 231.14543114543116 L 590.766550522648 236.93693693693692 L 592.5087108013937 242.0849420849421 L 594.2508710801394 238.99613899613902 L 595.993031358885 240.28314028314028 L 597.7351916376306 244.4015444015444 L 599.4773519163763 250.83655083655083 L 601.219512195122 248.9060489060489 L 602.9616724738676 249.54954954954954 L 604.7038327526133 253.53925353925354 L 606.445993031359 257.1428571428571 L 608.1881533101046 265.63706563706563 L 609.9303135888501 265.76576576576576 L 611.6724738675958 267.5675675675676 L 613.4146341463415 272.4581724581725 L 615.1567944250871 273.1016731016731 L 616.8989547038327 275.1608751608752 L 618.6411149825784 270.65637065637065 L 620.3832752613241 276.1904761904762 L 622.1254355400697 273.4877734877735 L 623.8675958188153 279.9227799227799 L 625.609756097561 275.8043758043758 L 627.3519163763067 282.8828828828829 L 629.0940766550523 285.7142857142857 L 630.8362369337979 400 L 632.5783972125436 311.1969111969112 L 634.3205574912893 296.5250965250965 L 636.0627177700349 295.62419562419564 L 637.8048780487804 306.69240669240673 L 639.5470383275261 306.8211068211068 L 641.2891986062718 306.3063063063063 L 643.0313588850174 308.49420849420846 L 644.773519163763 308.2368082368082 L 646.5156794425087 307.2072072072072 L 648.2578397212544 314.15701415701415 L 650 317.1171171171171 L 650 400 Z" /><text  class="poloto_labels poloto_text poloto_title" alignment-baseline="start" text-anchor="middle" font-size="x-large" x="400" y="37.5" >Total players on 2021-10-01</text><text  class="poloto_labels poloto_text poloto_xname" alignment-baseline="start" text-anchor="middle" font-size="x-large" x="400" y="481.25" >Time</text><text  class="poloto_labels poloto_text poloto_yname" alignment-baseline="start" text-anchor="middle" font-size="x-large" transform="rotate(-90,37.5,250)" x="37.5" y="250" >Count</text><line  class="poloto_axis_lines" stroke="black" x1="150" x2="150" y1="400" y2="405" /><text  class="poloto_tick_labels poloto_text" alignment-baseline="start" text-anchor="middle" x="150" y="430" > 00:00:00</text><line  class="poloto_axis_lines" stroke="black" x1="266.14401858304296" x2="266.14401858304296" y1="400" y2="405" /><text  class="poloto_tick_labels poloto_text" alignment-baseline="start" text-anchor="middle" x="266.14401858304296" y="430" > 05:33:20</text><line  class="poloto_axis_lines" stroke="black" x1="382.2880371660859" x2="382.2880371660859" y1="400" y2="405" /><text  class="poloto_tick_labels poloto_text" alignment-baseline="start" text-anchor="middle" x="382.2880371660859" y="430" > 11:06:40</text><line  class="poloto_axis_lines" stroke="black" x1="498.4320557491289" x2="498.4320557491289" y1="400" y2="405" /><text  class="poloto_tick_labels poloto_text" alignment-baseline="start" text-anchor="middle" x="498.4320557491289" y="430" > 16:40:00</text><line  class="poloto_axis_lines" stroke="black" x1="614.5760743321719" x2="614.5760743321719" y1="400" y2="405" /><text  class="poloto_tick_labels poloto_text" alignment-baseline="start" text-anchor="middle" x="614.5760743321719" y="430" > 22:13:20</text><line  class="poloto_axis_lines" stroke="black" x1="150" x2="144" y1="367.95366795366795" y2="367.95366795366795" /><text  class="poloto_tick_labels poloto_text" alignment-baseline="middle" text-anchor="end" x="135" y="367.95366795366795" > 1000</text><line  class="poloto_axis_lines" stroke="black" x1="150" x2="144" y1="303.6036036036036" y2="303.6036036036036" /><text  class="poloto_tick_labels poloto_text" alignment-baseline="middle" text-anchor="end" x="135" y="303.6036036036036" > 1500</text><line  class="poloto_axis_lines" stroke="black" x1="150" x2="144" y1="239.2535392535392" y2="239.2535392535392" /><text  class="poloto_tick_labels poloto_text" alignment-baseline="middle" text-anchor="end" x="135" y="239.2535392535392" > 2000</text><line  class="poloto_axis_lines" stroke="black" x1="150" x2="144" y1="174.90347490347494" y2="174.90347490347494" /><text  class="poloto_tick_labels poloto_text" alignment-baseline="middle" text-anchor="end" x="135" y="174.90347490347494" > 2500</text><line  class="poloto_axis_lines" stroke="black" x1="150" x2="144" y1="110.55341055341057" y2="110.55341055341057" /><text  class="poloto_tick_labels poloto_text" alignment-baseline="middle" text-anchor="end" x="135" y="110.55341055341057" > 3000</text><path  stroke="black" fill="none" class="poloto_axis_lines" style="stroke-dasharray:14.518002322880372;stroke-dashoffset:-0;" d=" M 150 400 L 650 400" /><path  stroke="black" fill="none" class="poloto_axis_lines" style="stroke-dasharray:6.435006435006436;stroke-dashoffset:-32.046332046332054;" d=" M 150 400 L 150 100" /></svg>