<svg class="poloto" width="800" height="500" viewBox="0 0 800 500" xmlns="http://www.w3.org/2000/svg"><style>.poloto { stroke-linecap:round; stroke-linejoin:round; font-family: 'Tahoma', sans-serif; background-color: AliceBlue;} .poloto_scatter{stroke-width:7} .poloto_line{stroke-width:2} .poloto_text{fill: black;} .poloto_axis_lines{stroke: black;stroke-width:3;fill:none;stroke-dasharray:none} .poloto0stroke{stroke:  blue;} .poloto1stroke{stroke:  red;} .poloto2stroke{stroke:  green;} .poloto3stroke{stroke:  gold;} .poloto4stroke{stroke:  aqua;} .poloto5stroke{stroke:  lime;} .poloto6stroke{stroke:  orange;} .poloto7stroke{stroke:  chocolate;} .poloto0fill{fill:blue;} .poloto1fill{fill:red;} .poloto2fill{fill:green;} .poloto3fill{fill:gold;} .poloto4fill{fill:aqua;} .poloto5fill{fill:lime;} .poloto6fill{fill:orange;} .poloto7fill{fill:chocolate;}</style><text  class="poloto_text poloto_legend_text" alignment-baseline="middle" text-anchor="start" font-size="large" x="675" y="100" ></text><path  class="poloto_linefill poloto0fill" d=" M 150 400 L 150 360.27944111776446 L 151.74216027874564 370.25948103792416 L 153.4843205574913 374.05189620758483 L 155.22648083623693 378.8423153692615 L 156.96864111498257 382.43512974051896 L 158.71080139372822 375.0499001996008 L 160.45296167247386 378.6427145708583 L 162.1951219512195 381.6367265469062 L 163.93728222996515 379.2415169660679 L 165.6794425087108 377.8443113772455 L 167.42160278745644 377.0459081836327 L 169.16376306620208 384.8303393213573 L 170.90592334494772 383.23353293413174 L 172.64808362369337 385.2295409181637 L 174.390243902439 381.83632734530937 L 176.13240418118465 389.42115768463077 L 177.8745644599303 388.622754491018 L 179.61672473867597 391.0179640718563 L 181.3588850174216 390.4191616766467 L 183.10104529616726 389.42115768463077 L 184.8432055749129 395.20958083832335 L 186.58536585365854 399.4011976047904 L 188.3275261324042 399.6007984031936 L 190.06968641114983 397.8043912175649 L 191.81184668989548 392.21556886227546 L 193.55400696864112 389.6207584830339 L 195.29616724738676 388.0239520958084 L 197.0383275261324 391.0179640718563 L 198.78048780487805 399.0019960079841 L 200.5226480836237 398.00399201596804 L 202.26480836236934 394.810379241517 L 204.00696864111498 397.20558882235525 L 205.74912891986062 396.6067864271457 L 207.49128919860627 396.4071856287425 L 209.2334494773519 400 L 210.97560975609755 394.0119760479042 L 212.7177700348432 398.8023952095808 L 214.45993031358887 396.4071856287425 L 216.2020905923345 395.40918163672654 L 217.94425087108016 394.810379241517 L 219.6864111498258 389.82035928143716 L 221.42857142857144 387.0259481037924 L 223.1707317073171 388.42315369261473 L 224.91289198606273 382.43512974051896 L 226.65505226480838 386.626746506986 L 228.39721254355402 390.6187624750499 L 230.13937282229966 384.23153692614767 L 231.8815331010453 380.8383233532934 L 233.62369337979095 384.23153692614767 L 235.3658536585366 379.4411177644711 L 237.10801393728224 372.65469061876246 L 238.85017421602788 367.8642714570858 L 240.59233449477352 364.4710578842315 L 242.33449477351917 367.0658682634731 L 244.0766550522648 366.0678642714571 L 245.81881533101046 360.87824351297405 L 247.5609756097561 365.4690618762475 L 249.30313588850174 357.68463073852297 L 251.0452961672474 351.89620758483034 L 252.78745644599303 356.2874251497006 L 254.52961672473867 350.29940119760477 L 256.2717770034843 342.5149700598802 L 258.01393728222996 336.92614770459085 L 259.7560975609756 344.9101796407186 L 261.49825783972125 347.3053892215569 L 263.2404181184669 348.30339321357286 L 264.98257839721254 351.29740518962075 L 266.7247386759582 347.3053892215569 L 268.4668989547038 351.89620758483034 L 270.20905923344947 353.0938123752495 L 271.9512195121951 346.5069860279441 L 273.69337979094075 349.10179640718565 L 275.4355400696864 349.70059880239523 L 277.17770034843204 353.2934131736527 L 278.9198606271777 349.30139720558884 L 280.6620209059233 350.29940119760477 L 282.40418118466897 364.07185628742513 L 284.1463414634146 358.88223552894215 L 285.88850174216026 364.8702594810379 L 287.6306620209059 351.69660678642714 L 289.37282229965155 351.09780439121755 L 291.1149825783972 341.1177644710579 L 292.85714285714283 341.5169660678643 L 294.5993031358885 341.91616766467064 L 296.3414634146342 337.7245508982036 L 298.08362369337976 325.748502994012 L 299.82578397212546 321.3572854291417 L 301.56794425087105 319.1616766467066 L 303.31010452961675 317.56487025948104 L 305.05226480836234 313.373253493014 L 306.79442508710804 305.98802395209583 L 308.5365853658536 306.98602794411175 L 310.2787456445993 307.78443113772454 L 312.0209059233449 304.79041916167665 L 313.7630662020906 301.59680638722557 L 315.5052264808362 299.6007984031936 L 317.2473867595819 296.8063872255489 L 318.9895470383275 299.4011976047904 L 320.7317073170732 299.8003992015968 L 322.4738675958188 299.8003992015968 L 324.2160278745645 293.01397205588825 L 325.95818815331006 289.2215568862276 L 327.70034843205576 283.23353293413174 L 329.44250871080135 279.0419161676647 L 331.18466898954705 275.8483033932136 L 332.92682926829264 271.45708582834334 L 334.66898954703834 268.8622754491018 L 336.4111498257839 269.2614770459082 L 338.1533101045296 265.4690618762475 L 339.8954703832752 269.86027944111777 L 341.6376306620209 277.6447105788423 L 343.3797909407665 275.8483033932136 L 345.1219512195122 268.6626746506986 L 346.86411149825784 264.8702594810379 L 348.6062717770035 259.6806387225549 L 350.34843205574913 268.063872255489 L 352.0905923344948 259.0818363273453 L 353.8327526132404 246.9061876247505 L 355.57491289198606 235.52894211576847 L 357.3170731707317 248.50299401197606 L 359.05923344947735 256.4870259481038 L 360.801393728223 259.2814371257485 L 362.54355400696863 253.8922155688623 L 364.2857142857143 260.87824351297405 L 366.0278745644599 253.2934131736527 L 367.77003484320556 245.50898203592817 L 369.5121951219512 244.1117764471058 L 371.25435540069685 234.7305389221557 L 372.9965156794425 236.92614770459085 L 374.73867595818814 227.94411177644713 L 376.4808362369338 241.5169660678643 L 378.2229965156794 230.13972055888223 L 379.96515679442507 226.14770459081836 L 381.7073170731707 232.93413173652692 L 383.44947735191636 228.74251497005986 L 385.191637630662 223.15369261477048 L 386.93379790940764 224.1516966067864 L 388.6759581881533 218.76247504990022 L 390.41811846689893 211.7764471057884 L 392.1602787456446 209.1816367265469 L 393.9024390243902 201.39720558882237 L 395.6445993031359 198.80239520958082 L 397.3867595818815 201.19760479041918 L 399.1289198606272 191.81636726546907 L 400.8710801393728 222.75449101796409 L 402.6132404181185 221.3572854291417 L 404.3554006968641 211.377245508982 L 406.0975609756097 214.77045908183635 L 407.83972125435537 232.93413173652692 L 409.581881533101 232.73453093812378 L 411.32404181184666 230.53892215568862 L 413.0662020905923 238.72255489021956 L 414.80836236933794 241.5169660678643 L 416.5505226480836 243.313373253493 L 418.29268292682923 245.30938123752497 L 420.0348432055749 234.3313373253493 L 421.7770034843206 225.54890219560878 L 423.5191637630662 221.5568862275449 L 425.26132404181186 215.76846307385227 L 427.0034843205575 214.97005988023955 L 428.74564459930315 214.97005988023955 L 430.4878048780488 181.0379241516966 L 432.22996515679444 185.22954091816365 L 433.9721254355401 183.63273453093814 L 435.7142857142857 179.24151696606788 L 437.45644599303137 174.85029940119762 L 439.198606271777 166.0678642714571 L 440.94076655052265 171.85628742514973 L 442.6829268292683 156.2874251497006 L 444.42508710801394 147.70459081836327 L 446.1672473867596 146.1077844311377 L 447.9094076655052 139.72055888223554 L 449.65156794425087 137.72455089820357 L 451.3937282229965 132.73453093812378 L 453.13588850174216 121.7564870259481 L 454.8780487804878 115.56886227544913 L 456.62020905923345 122.35528942115769 L 458.3623693379791 121.7564870259481 L 460.10452961672473 113.77245508982031 L 461.8466898954704 122.35528942115769 L 463.588850174216 119.3612774451098 L 465.33101045296166 112.17564870259486 L 467.0731707317073 112.77445109780439 L 468.81533101045295 114.5708582834331 L 470.5574912891986 101.19760479041912 L 472.29965156794424 100.00000000000006 L 474.0418118466899 105.38922155688618 L 475.7839721254355 109.58083832335325 L 477.52613240418117 100.79840319361273 L 479.2682926829268 105.18962075848304 L 481.01045296167246 107.98403193612779 L 482.7526132404181 111.37724550898207 L 484.49477351916374 111.17764471057882 L 486.2369337979094 114.77045908183635 L 487.97909407665503 114.5708582834331 L 489.7212543554007 115.56886227544913 L 491.4634146341463 119.16167664670661 L 493.20557491289196 115.56886227544913 L 494.9477351916376 119.16167664670661 L 496.68989547038325 121.9560878243513 L 498.4320557491289 128.34331337325352 L 500.17421602787454 132.73453093812378 L 501.9163763066202 137.12574850299404 L 503.6585365853658 132.3353293413174 L 505.40069686411147 116.16766467065867 L 507.1428571428571 124.95009980039919 L 508.88501742160275 128.54291417165666 L 510.6271777003484 139.72055888223554 L 512.3693379790941 157.48502994011977 L 514.1114982578397 152.09580838323353 L 515.8536585365853 156.88622754491018 L 517.595818815331 152.49500998003992 L 519.3379790940767 148.90219560878245 L 521.0801393728223 154.0918163672655 L 522.822299651568 160.67864271457086 L 524.5644599303137 175.4491017964072 L 526.3066202090592 175.8483033932136 L 528.0487804878048 176.84630738522952 L 529.7909407665505 192.61477045908185 L 531.5331010452962 183.03393213572855 L 533.2752613240418 203.19361277445108 L 535.0174216027874 198.0039920159681 L 536.7595818815331 200.1996007984032 L 538.5017421602788 205.38922155688624 L 540.2439024390244 207.58483033932134 L 541.98606271777 212.7744510978044 L 543.7282229965157 215.96806387225547 L 545.4703832752614 220.35928143712573 L 547.212543554007 211.17764471057882 L 548.9547038327526 214.37125748502996 L 550.6968641114983 207.98403193612774 L 552.439024390244 218.36327345309383 L 554.1811846689895 218.16367265469063 L 555.9233449477351 218.76247504990022 L 557.6655052264808 219.3612774451098 L 559.4076655052265 225.74850299401197 L 561.1498257839721 227.14570858283435 L 562.8919860627177 225.14970059880238 L 564.6341463414634 224.750499001996 L 566.3763066202091 233.33333333333331 L 568.1184668989547 228.94211576846305 L 569.8606271777003 234.3313373253493 L 571.602787456446 245.10978043912178 L 573.3449477351917 232.5349301397206 L 575.0871080139373 243.313373253493 L 576.8292682926829 248.30339321357286 L 578.5714285714286 246.3073852295409 L 580.3135888501743 244.311377245509 L 582.0557491289198 248.30339321357286 L 583.7979094076654 247.30538922155688 L 585.5400696864111 245.50898203592817 L 587.2822299651568 249.70059880239523 L 589.0243902439024 255.28942115768461 L 590.766550522648 269.4610778443114 L 592.5087108013937 263.87225548902194 L 594.2508710801394 264.27145708582833 L 595.993031358885 268.063872255489 L 597.7351916376306 261.67664670658684 L 599.4773519163763 272.05588822355287 L 601.219512195122 274.4510978043912 L 602.9616724738676 273.45309381237524 L 604.7038327526132 276.8463073852295 L 606.4459930313589 281.6367265469062 L 608.1881533101046 284.2315369261477 L 609.9303135888501 289.2215568862276 L 611.6724738675957 291.6167664670659 L 613.4146341463414 291.6167664670659 L 615.1567944250871 297.6047904191617 L 616.8989547038327 304.79041916167665 L 618.6411149825783 304.39121756487026 L 620.383275261324 305.98802395209583 L 622.1254355400697 310.3792415169661 L 623.8675958188153 307.98403193612774 L 625.609756097561 311.5768463073852 L 627.3519163763067 306.98602794411175 L 629.0940766550523 311.1776447105788 L 630.8362369337979 336.92614770459085 L 632.5783972125436 314.97005988023955 L 634.3205574912893 309.7804391217565 L 636.0627177700349 311.377245508982 L 637.8048780487804 326.74650698602795 L 639.5470383275261 329.54091816367264 L 641.2891986062718 331.1377245508982 L 643.0313588850174 333.9321357285429 L 644.773519163763 338.92215568862275 L 646.5156794425087 345.70858283433137 L 648.2578397212544 345.50898203592817 L 650 341.91616766467064 L 650 400 Z" /><text  class="poloto_labels poloto_text poloto_title" alignment-baseline="start" text-anchor="middle" font-size="x-large" x="400" y="37.5" >Total players on 2021-07-22</text><text  class="poloto_labels poloto_text poloto_xname" alignment-baseline="start" text-anchor="middle" font-size="x-large" x="400" y="481.25" >Time</text><text  class="poloto_labels poloto_text poloto_yname" alignment-baseline="start" text-anchor="middle" font-size="x-large" transform="rotate(-90,37.5,250)" x="37.5" y="250" >Count</text><line  class="poloto_axis_lines" stroke="black" x1="208.0487804878049" x2="208.0487804878049" y1="400" y2="405" /><text  class="poloto_tick_labels poloto_text" alignment-baseline="start" text-anchor="middle" x="208.0487804878049" y="430" > 02:46:40</text><line  class="poloto_axis_lines" stroke="black" x1="266.1207897793264" x2="266.1207897793264" y1="400" y2="405" /><text  class="poloto_tick_labels poloto_text" alignment-baseline="start" text-anchor="middle" x="266.1207897793264" y="430" > 05:33:20</text><line  class="poloto_axis_lines" stroke="black" x1="324.19279907084785" x2="324.19279907084785" y1="400" y2="405" /><text  class="poloto_tick_labels poloto_text" alignment-baseline="start" text-anchor="middle" x="324.19279907084785" y="430" > 08:20:00</text><line  class="poloto_axis_lines" stroke="black" x1="382.2648083623693" x2="382.2648083623693" y1="400" y2="405" /><text  class="poloto_tick_labels poloto_text" alignment-baseline="start" text-anchor="middle" x="382.2648083623693" y="430" > 11:06:40</text><line  class="poloto_axis_lines" stroke="black" x1="440.3368176538908" x2="440.3368176538908" y1="400" y2="405" /><text  class="poloto_tick_labels poloto_text" alignment-baseline="start" text-anchor="middle" x="440.3368176538908" y="430" > 13:53:20</text><line  class="poloto_axis_lines" stroke="black" x1="498.4088269454123" x2="498.4088269454123" y1="400" y2="405" /><text  class="poloto_tick_labels poloto_text" alignment-baseline="start" text-anchor="middle" x="498.4088269454123" y="430" > 16:40:00</text><line  class="poloto_axis_lines" stroke="black" x1="556.4808362369338" x2="556.4808362369338" y1="400" y2="405" /><text  class="poloto_tick_labels poloto_text" alignment-baseline="start" text-anchor="middle" x="556.4808362369338" y="430" > 19:26:40</text><line  class="poloto_axis_lines" stroke="black" x1="614.5528455284552" x2="614.5528455284552" y1="400" y2="405" /><text  class="poloto_tick_labels poloto_text" alignment-baseline="start" text-anchor="middle" x="614.5528455284552" y="430" > 22:13:20</text><line  class="poloto_axis_lines" stroke="black" x1="150" x2="144" y1="331.3373253493014" y2="331.3373253493014" /><text  class="poloto_tick_labels poloto_text" alignment-baseline="middle" text-anchor="end" x="135" y="331.3373253493014" > 1500</text><line  class="poloto_axis_lines" stroke="black" x1="150" x2="144" y1="231.5369261477046" y2="231.5369261477046" /><text  class="poloto_tick_labels poloto_text" alignment-baseline="middle" text-anchor="end" x="135" y="231.5369261477046" > 2000</text><line  class="poloto_axis_lines" stroke="black" x1="150" x2="144" y1="131.7365269461078" y2="131.7365269461078" /><text  class="poloto_tick_labels poloto_text" alignment-baseline="middle" text-anchor="end" x="135" y="131.7365269461078" > 2500</text><path  stroke="black" fill="none" class="poloto_axis_lines" style="stroke-dasharray:14.518002322880372;stroke-dashoffset:-58.04878048780488;" d=" M 150 400 L 650 400" /><path  stroke="black" fill="none" class="poloto_axis_lines" style="stroke-dasharray:9.98003992015968;stroke-dashoffset:-68.66267465069859;" d=" M 150 400 L 150 100" /></svg>