<svg class="poloto" width="800" height="500" viewBox="0 0 800 500" xmlns="http://www.w3.org/2000/svg"><style>.poloto { stroke-linecap:round; stroke-linejoin:round; font-family: 'Tahoma', sans-serif; background-color: AliceBlue;} .poloto_scatter{stroke-width:7} .poloto_line{stroke-width:2} .poloto_text{fill: black;} .poloto_axis_lines{stroke: black;stroke-width:3;fill:none;stroke-dasharray:none} .poloto0stroke{stroke:  blue;} .poloto1stroke{stroke:  red;} .poloto2stroke{stroke:  green;} .poloto3stroke{stroke:  gold;} .poloto4stroke{stroke:  aqua;} .poloto5stroke{stroke:  lime;} .poloto6stroke{stroke:  orange;} .poloto7stroke{stroke:  chocolate;} .poloto0fill{fill:blue;} .poloto1fill{fill:red;} .poloto2fill{fill:green;} .poloto3fill{fill:gold;} .poloto4fill{fill:aqua;} .poloto5fill{fill:lime;} .poloto6fill{fill:orange;} .poloto7fill{fill:chocolate;}</style><text  class="poloto_text poloto_legend_text" alignment-baseline="middle" text-anchor="start" font-size="large" x="675" y="100" ></text><path  class="poloto_linefill poloto0fill" d=" M 150 400 L 150 347.5587703435805 L 151.74216027874564 352.9837251356239 L 153.4843205574913 355.33453887884264 L 155.22648083623693 360.39783001808314 L 156.96864111498257 360.75949367088606 L 158.71080139372822 366.7269439421338 L 160.45296167247386 369.80108499095843 L 162.1951219512195 372.875226039783 L 163.93728222996515 376.6726943942134 L 165.6794425087108 378.84267631103074 L 167.42160278745644 375.40687160940325 L 169.16376306620208 380.47016274864376 L 170.90592334494772 379.92766726943944 L 172.64808362369337 380.47016274864376 L 174.390243902439 387.52260397830014 L 176.13240418118465 384.8101265822785 L 177.8745644599303 385.53345388788426 L 179.61672473867597 389.5117540687161 L 181.3588850174216 387.52260397830014 L 183.10104529616726 385.1717902350814 L 184.8432055749129 384.629294755877 L 186.58536585365854 390.2350813743219 L 188.3275261324042 393.49005424954794 L 190.06968641114983 396.02169981916813 L 191.81184668989548 400 L 193.55400696864112 399.6383363471971 L 195.29616724738676 396.02169981916813 L 197.0383275261324 399.81916817359854 L 198.78048780487805 394.21338155515366 L 200.5226480836237 390.59674502712477 L 202.26480836236934 397.46835443037975 L 204.00696864111498 395.11754068716095 L 205.74912891986062 389.3309222423146 L 207.49128919860627 393.8517179023508 L 209.2334494773519 396.2025316455696 L 210.97560975609755 392.7667269439421 L 212.7177700348432 396.5641952983725 L 214.45993031358887 393.49005424954794 L 216.2020905923345 392.2242314647378 L 217.94425087108016 391.500904159132 L 219.6864111498258 383.54430379746833 L 221.42857142857144 375.40687160940325 L 223.1707317073171 385.71428571428567 L 224.91289198606273 383.001808318264 L 226.65505226480838 383.36347197106693 L 228.39721254355402 381.7359855334539 L 230.13937282229966 380.47016274864376 L 231.8815331010453 383.18264014466547 L 233.62369337979095 388.0650994575045 L 235.3658536585366 385.53345388788426 L 237.10801393728224 379.5660036166365 L 238.85017421602788 374.1410488245931 L 240.59233449477352 370.7052441229656 L 242.33449477351917 370.52441229656415 L 244.0766550522648 367.4502712477396 L 245.81881533101046 360.39783001808314 L 247.5609756097561 360.21699819168174 L 249.30313588850174 359.13200723327304 L 251.0452961672474 359.8553345388788 L 252.78745644599303 359.3128390596745 L 254.52961672473867 362.02531645569616 L 256.2717770034843 356.96202531645565 L 258.01393728222996 354.06871609403254 L 259.7560975609756 354.7920433996383 L 261.49825783972125 362.748643761302 L 263.2404181184669 361.4828209764919 L 264.98257839721254 368.5352622061483 L 266.7247386759582 364.7377938517179 L 268.4668989547038 363.47197106690777 L 270.20905923344947 364.0144665461121 L 271.9512195121951 367.4502712477396 L 273.69337979094075 370.52441229656415 L 275.4355400696864 368.7160940325497 L 277.17770034843204 363.1103074141049 L 278.91986062717774 362.2061482820976 L 280.6620209059233 358.7703435804701 L 282.404181184669 364.9186256781193 L 284.1463414634146 359.8553345388788 L 285.8885017421603 355.33453887884264 L 287.6306620209059 350.0904159132007 L 289.3728222996516 353.34538878842676 L 291.1149825783972 349.00542495479203 L 292.8571428571429 344.84629294755877 L 294.5993031358885 341.4104882459313 L 296.3414634146342 334.3580470162749 L 298.08362369337976 333.8155515370705 L 299.82578397212546 334.71971066907776 L 301.56794425087105 335.0813743218806 L 303.31010452961675 342.13381555153705 L 305.05226480836234 336.34719710669077 L 306.79442508710804 336.8896925858951 L 308.5365853658536 342.85714285714283 L 310.2787456445993 340.6871609403255 L 312.0209059233449 341.9529837251356 L 313.7630662020906 347.73960216998194 L 315.5052264808362 347.0162748643761 L 317.2473867595819 346.83544303797464 L 318.9895470383275 348.6437613019891 L 320.7317073170732 343.5804701627486 L 322.4738675958188 339.6021699819168 L 324.2160278745645 339.96383363471966 L 325.9581881533101 339.4213381555154 L 327.70034843205576 333.63471971066906 L 329.4425087108014 332.9113924050633 L 331.18466898954705 339.0596745027125 L 332.9268292682927 335.0813743218806 L 334.66898954703834 332.9113924050633 L 336.411149825784 332.36889692585896 L 338.1533101045296 331.28390596745027 L 339.89547038327527 327.6672694394213 L 341.6376306620209 328.9330922242315 L 343.37979094076655 318.9873417721519 L 345.1219512195122 319.8915009041591 L 346.86411149825784 312.11573236889694 L 348.6062717770035 305.7866184448463 L 350.34843205574913 306.6907775768535 L 352.0905923344948 310.4882459312839 L 353.8327526132404 310.8499095840868 L 355.57491289198606 309.4032549728752 L 357.3170731707317 308.67992766726945 L 359.05923344947735 309.58408679927663 L 360.801393728223 307.4141048824593 L 362.54355400696863 298.1916817359855 L 364.2857142857143 298.372513562387 L 366.0278745644599 296.92585895117537 L 367.77003484320556 302.8933092224231 L 369.5121951219512 283.7251356238698 L 371.25435540069685 284.0867992766727 L 372.9965156794425 279.0235081374322 L 374.73867595818814 273.05605786618446 L 376.4808362369338 273.5985533453888 L 378.2229965156795 273.9602169981917 L 379.96515679442507 278.30018083182637 L 381.70731707317077 267.8119349005425 L 383.44947735191636 258.2278481012658 L 385.19163763066206 252.26039783001806 L 386.93379790940764 244.30379746835445 L 388.67595818815334 242.3146473779385 L 390.41811846689893 246.11211573236886 L 392.16027874564463 242.49547920433997 L 393.9024390243902 242.3146473779385 L 395.6445993031359 237.79385171790233 L 397.3867595818815 251.71790235081374 L 399.1289198606272 245.56962025316454 L 400.8710801393728 237.79385171790233 L 402.6132404181185 243.76130198915007 L 404.3554006968641 241.04882459312836 L 406.0975609756098 235.08137432188062 L 407.8397212543554 234.5388788426763 L 409.58188153310107 235.08137432188062 L 411.3240418118467 227.48643761301986 L 413.06620209059236 230.0180831826401 L 414.808362369338 226.76311030741408 L 416.55052264808364 226.76311030741408 L 418.2926829268293 210.30741410488247 L 420.03484320557493 207.23327305605784 L 421.7770034843206 208.13743218806508 L 423.5191637630662 214.46654611211574 L 425.26132404181186 221.15732368896926 L 427.0034843205575 215.37070524412297 L 428.74564459930315 211.03074141048825 L 430.4878048780488 209.40325497287523 L 432.22996515679444 193.49005424954788 L 433.9721254355401 191.500904159132 L 435.7142857142857 184.62929475587703 L 437.45644599303137 184.44846292947557 L 439.198606271777 178.66184448462928 L 440.94076655052265 175.2260397830018 L 442.6829268292683 169.98191681735983 L 444.42508710801394 162.748643761302 L 446.1672473867596 156.23869801084987 L 447.9094076655052 160.75949367088606 L 449.65156794425087 162.0253164556962 L 451.3937282229965 155.877034358047 L 453.13588850174216 154.61121157323686 L 454.8780487804878 144.48462929475585 L 456.62020905923345 143.5804701627486 L 458.3623693379791 139.05967450271248 L 460.10452961672473 126.58227848101262 L 461.8466898954704 121.88065099457503 L 463.588850174216 114.6473779385172 L 465.33101045296166 113.92405063291136 L 467.0731707317073 109.04159132007231 L 468.81533101045295 117.17902350813745 L 470.5574912891986 115.9132007233273 L 472.29965156794424 106.50994575045206 L 474.0418118466899 105.42495479204337 L 475.7839721254355 110.48824593128387 L 477.52613240418117 107.59493670886076 L 479.2682926829268 102.3508137432188 L 481.01045296167246 103.43580470162749 L 482.7526132404181 103.25497287522603 L 484.49477351916374 100 L 486.2369337979094 104.15913200723327 L 487.97909407665503 103.07414104882457 L 489.7212543554007 110.84990958408679 L 491.4634146341463 108.67992766726945 L 493.20557491289196 107.4141048824593 L 494.9477351916376 105.96745027124774 L 496.68989547038325 105.0632911392405 L 498.4320557491289 111.93490054249548 L 500.17421602787454 112.65822784810126 L 501.91637630662024 108.13743218806508 L 503.6585365853659 111.2115732368897 L 505.4006968641115 113.01989150090412 L 507.14285714285717 119.52983725135624 L 508.8850174216028 142.49547920433997 L 510.62717770034845 131.28390596745027 L 512.3693379790941 132.1880650994575 L 514.1114982578397 135.80470162748645 L 515.8536585365854 141.9529837251356 L 517.5958188153311 144.6654611211573 L 519.3379790940767 149.00542495479203 L 521.0801393728223 145.750452079566 L 522.822299651568 147.19710669077756 L 524.5644599303137 155.5153707052441 L 526.3066202090592 156.9620253164557 L 528.0487804878048 167.63110307414104 L 529.7909407665505 179.2043399638336 L 531.5331010452962 184.2676311030741 L 533.2752613240418 185.71428571428572 L 535.0174216027874 194.9367088607595 L 536.7595818815331 195.29837251356236 L 538.5017421602788 201.44665461121156 L 540.2439024390244 203.79746835443035 L 541.98606271777 209.5840867992767 L 543.7282229965157 208.86075949367086 L 545.4703832752614 211.2115732368897 L 547.212543554007 199.45750452079562 L 548.9547038327526 202.8933092224231 L 550.6968641114983 210.8499095840868 L 552.439024390244 224.59312839059675 L 554.1811846689895 232.00723327305604 L 555.9233449477351 220.61482820976488 L 557.6655052264808 219.34900542495478 L 559.4076655052265 221.15732368896926 L 561.1498257839721 223.3273056057866 L 562.8919860627177 226.40144665461122 L 564.6341463414634 223.86980108499097 L 566.3763066202091 222.0614828209765 L 568.1184668989547 225.13562386980107 L 569.8606271777003 223.6889692585895 L 571.602787456446 222.0614828209765 L 573.3449477351917 227.84810126582278 L 575.0871080139373 238.3363471971067 L 576.8292682926829 229.4755877034358 L 578.5714285714286 229.29475587703433 L 580.3135888501743 228.93309222423147 L 582.0557491289198 227.84810126582278 L 583.7979094076654 226.22061482820976 L 585.5400696864111 235.44303797468353 L 587.2822299651568 243.21880650994575 L 589.0243902439024 240.14466546112112 L 590.766550522648 242.13381555153705 L 592.5087108013937 248.64376130198912 L 594.2508710801394 259.3128390596745 L 595.993031358885 251.17540687160937 L 597.7351916376306 258.04701627486435 L 599.4773519163763 264.73779385171787 L 601.219512195122 264.9186256781193 L 602.9616724738676 267.63110307414104 L 604.7038327526133 278.84267631103074 L 606.445993031359 267.63110307414104 L 608.1881533101046 269.0777576853526 L 609.9303135888501 270.88607594936707 L 611.6724738675958 267.8119349005425 L 613.4146341463415 272.69439421338154 L 615.1567944250871 275.04520795660034 L 616.8989547038327 280.10849909584084 L 618.6411149825784 286.25678119349004 L 620.3832752613241 293.128390596745 L 622.1254355400697 291.500904159132 L 623.8675958188153 291.1392405063291 L 625.609756097561 286.4376130198915 L 627.3519163763067 292.94755877034356 L 629.0940766550523 299.6383363471971 L 630.8362369337979 304.52079566003613 L 632.5783972125436 314.4665461121157 L 634.3205574912893 316.81735985533453 L 636.0627177700349 320.4339963833635 L 637.8048780487804 328.0289330922242 L 639.5470383275261 335.9855334538879 L 641.2891986062718 339.4213381555154 L 643.0313588850174 347.9204339963834 L 644.773519163763 351.89873417721515 L 646.5156794425087 353.7070524412296 L 648.2578397212544 354.7920433996383 L 650 356.05786618444847 L 650 400 Z" /><text  class="poloto_labels poloto_text poloto_title" alignment-baseline="start" text-anchor="middle" font-size="x-large" x="400" y="37.5" >Total players on 2021-10-11</text><text  class="poloto_labels poloto_text poloto_xname" alignment-baseline="start" text-anchor="middle" font-size="x-large" x="400" y="481.25" >Time</text><text  class="poloto_labels poloto_text poloto_yname" alignment-baseline="start" text-anchor="middle" font-size="x-large" transform="rotate(-90,37.5,250)" x="37.5" y="250" >Count</text><line  class="poloto_axis_lines" stroke="black" x1="150" x2="150" y1="400" y2="405" /><text  class="poloto_tick_labels poloto_text" alignment-baseline="start" text-anchor="middle" x="150" y="430" > 00:00:00</text><line  class="poloto_axis_lines" stroke="black" x1="266.14401858304296" x2="266.14401858304296" y1="400" y2="405" /><text  class="poloto_tick_labels poloto_text" alignment-baseline="start" text-anchor="middle" x="266.14401858304296" y="430" > 05:33:20</text><line  class="poloto_axis_lines" stroke="black" x1="382.2880371660859" x2="382.2880371660859" y1="400" y2="405" /><text  class="poloto_tick_labels poloto_text" alignment-baseline="start" text-anchor="middle" x="382.2880371660859" y="430" > 11:06:40</text><line  class="poloto_axis_lines" stroke="black" x1="498.4320557491289" x2="498.4320557491289" y1="400" y2="405" /><text  class="poloto_tick_labels poloto_text" alignment-baseline="start" text-anchor="middle" x="498.4320557491289" y="430" > 16:40:00</text><line  class="poloto_axis_lines" stroke="black" x1="614.5760743321719" x2="614.5760743321719" y1="400" y2="405" /><text  class="poloto_tick_labels poloto_text" alignment-baseline="start" text-anchor="middle" x="614.5760743321719" y="430" > 22:13:20</text><line  class="poloto_axis_lines" stroke="black" x1="150" x2="144" y1="384.2676311030741" y2="384.2676311030741" /><text  class="poloto_tick_labels poloto_text" alignment-baseline="middle" text-anchor="end" x="135" y="384.2676311030741" > 1000</text><line  class="poloto_axis_lines" stroke="black" x1="150" x2="144" y1="293.8517179023508" y2="293.8517179023508" /><text  class="poloto_tick_labels poloto_text" alignment-baseline="middle" text-anchor="end" x="135" y="293.8517179023508" > 1500</text><line  class="poloto_axis_lines" stroke="black" x1="150" x2="144" y1="203.4358047016275" y2="203.4358047016275" /><text  class="poloto_tick_labels poloto_text" alignment-baseline="middle" text-anchor="end" x="135" y="203.4358047016275" > 2000</text><line  class="poloto_axis_lines" stroke="black" x1="150" x2="144" y1="113.01989150090412" y2="113.01989150090412" /><text  class="poloto_tick_labels poloto_text" alignment-baseline="middle" text-anchor="end" x="135" y="113.01989150090412" > 2500</text><path  stroke="black" fill="none" class="poloto_axis_lines" style="stroke-dasharray:14.518002322880372;stroke-dashoffset:-0;" d=" M 150 400 L 650 400" /><path  stroke="black" fill="none" class="poloto_axis_lines" style="stroke-dasharray:9.041591320072332;stroke-dashoffset:-15.732368896925863;" d=" M 150 400 L 150 100" /></svg>