<svg class="poloto" width="800" height="500" viewBox="0 0 800 500" xmlns="http://www.w3.org/2000/svg"><style>.poloto { stroke-linecap:round; stroke-linejoin:round; font-family: 'Tahoma', sans-serif; background-color: AliceBlue;} .poloto_scatter{stroke-width:7} .poloto_line{stroke-width:2} .poloto_text{fill: black;} .poloto_axis_lines{stroke: black;stroke-width:3;fill:none;stroke-dasharray:none} .poloto0stroke{stroke:  blue;} .poloto1stroke{stroke:  red;} .poloto2stroke{stroke:  green;} .poloto3stroke{stroke:  gold;} .poloto4stroke{stroke:  aqua;} .poloto5stroke{stroke:  lime;} .poloto6stroke{stroke:  orange;} .poloto7stroke{stroke:  chocolate;} .poloto0fill{fill:blue;} .poloto1fill{fill:red;} .poloto2fill{fill:green;} .poloto3fill{fill:gold;} .poloto4fill{fill:aqua;} .poloto5fill{fill:lime;} .poloto6fill{fill:orange;} .poloto7fill{fill:chocolate;}</style><text  class="poloto_text poloto_legend_text" alignment-baseline="middle" text-anchor="start" font-size="large" x="675" y="100" ></text><path  class="poloto_linefill poloto0fill" d=" M 150 400 L 150 347.7650727650728 L 151.74216027874564 349.3243243243243 L 153.4843205574913 355.4054054054054 L 155.22648083623693 360.70686070686065 L 156.96864111498257 368.97089397089394 L 158.71080139372822 370.3742203742204 L 160.45296167247386 370.06237006237006 L 162.1951219512195 371.9334719334719 L 163.93728222996515 373.18087318087316 L 165.6794425087108 373.8045738045738 L 167.42160278745644 373.64864864864865 L 169.16376306620208 378.01455301455303 L 170.90592334494772 387.5259875259875 L 172.64808362369337 385.1871101871102 L 174.390243902439 384.7193347193347 L 176.13240418118465 388.3056133056133 L 177.8745644599303 388.46153846153845 L 179.61672473867597 392.04781704781703 L 181.3588850174216 392.6715176715177 L 183.10104529616726 390.9563409563409 L 184.8432055749129 389.86486486486484 L 186.58536585365854 390.64449064449065 L 188.3275261324042 392.04781704781703 L 190.06968641114983 391.11226611226607 L 191.81184668989548 389.70893970893974 L 193.55400696864112 389.3970893970894 L 195.29616724738676 396.4137214137214 L 197.0383275261324 400 L 198.78048780487805 398.59667359667355 L 200.5226480836237 398.12889812889813 L 202.26480836236934 394.3866943866944 L 204.00696864111498 389.5530145530146 L 205.74912891986062 390.64449064449065 L 207.49128919860627 395.16632016632013 L 209.2334494773519 394.07484407484407 L 210.97560975609755 388.92931392931393 L 212.7177700348432 385.6548856548857 L 214.45993031358887 386.27858627858626 L 216.2020905923345 384.7193347193347 L 217.94425087108016 378.48232848232846 L 219.6864111498258 381.7567567567568 L 221.42857142857144 376.9230769230769 L 223.1707317073171 377.07900207900207 L 224.91289198606273 375.2079002079002 L 226.65505226480838 377.7027027027027 L 228.39721254355402 379.1060291060291 L 230.13937282229966 381.6008316008316 L 231.8815331010453 384.09563409563407 L 233.62369337979095 385.1871101871102 L 235.3658536585366 383.4719334719334 L 237.10801393728224 385.966735966736 L 238.85017421602788 387.5259875259875 L 240.59233449477352 389.3970893970894 L 242.33449477351917 382.5363825363825 L 244.0766550522648 379.41787941787936 L 245.81881533101046 377.2349272349272 L 247.5609756097561 377.7027027027027 L 249.30313588850174 375.36382536382536 L 251.0452961672474 372.08939708939704 L 252.78745644599303 374.1164241164241 L 254.52961672473867 370.2182952182952 L 256.2717770034843 372.7130977130977 L 258.01393728222996 373.024948024948 L 259.7560975609756 369.5945945945946 L 261.49825783972125 369.75051975051974 L 263.2404181184669 369.1268191268191 L 264.98257839721254 370.3742203742204 L 266.7247386759582 369.9064449064449 L 268.4668989547038 376.1434511434511 L 270.20905923344947 382.0686070686071 L 271.9512195121951 380.66528066528065 L 273.69337979094075 383.78378378378375 L 275.4355400696864 385.34303534303535 L 277.17770034843204 387.68191268191265 L 278.91986062717774 388.7733887733888 L 280.6620209059233 390.64449064449065 L 282.404181184669 385.4989604989605 L 284.1463414634146 384.25155925155923 L 285.8885017421603 380.5093555093555 L 287.6306620209059 376.76715176715174 L 289.3728222996516 370.3742203742204 L 291.1149825783972 366.3201663201663 L 292.8571428571429 368.50311850311846 L 294.5993031358885 370.53014553014555 L 296.3414634146342 367.0997920997921 L 298.08362369337976 364.2931392931393 L 299.82578397212546 369.5945945945946 L 301.56794425087105 360.55093555093555 L 303.31010452961675 360.8627858627858 L 305.05226480836234 361.3305613305613 L 306.79442508710804 360.2390852390852 L 308.5365853658536 361.6424116424116 L 310.2787456445993 363.98128898128897 L 312.0209059233449 366.008316008316 L 313.7630662020906 364.13721413721413 L 315.5052264808362 362.73388773388774 L 317.2473867595819 357.7442827442827 L 318.9895470383275 361.95426195426194 L 320.7317073170732 361.3305613305613 L 322.4738675958188 358.2120582120582 L 324.2160278745645 360.3950103950104 L 325.9581881533101 358.36798336798336 L 327.70034843205576 356.3409563409563 L 329.4425087108014 360.8627858627858 L 331.18466898954705 352.5987525987526 L 332.9268292682927 352.5987525987526 L 334.66898954703834 349.79209979209975 L 336.411149825784 353.06652806652806 L 338.1533101045296 354.15800415800413 L 339.89547038327527 350.57172557172555 L 341.6376306620209 347.45322245322245 L 343.37979094076655 350.10395010395007 L 345.1219512195122 346.98544698544697 L 346.86411149825784 344.4906444906445 L 348.6062717770035 343.55509355509355 L 350.34843205574913 334.3555093555093 L 352.0905923344948 333.7318087318087 L 353.8327526132404 329.98960498960497 L 355.57491289198606 327.8066528066528 L 357.3170731707317 325.9355509355509 L 359.05923344947735 325.62370062370064 L 360.801393728223 326.8711018711018 L 362.54355400696863 325.7796257796258 L 364.2857142857143 327.96257796257794 L 366.0278745644599 333.57588357588355 L 367.77003484320556 332.7962577962578 L 369.5121951219512 329.8336798336798 L 371.25435540069685 329.3659043659044 L 372.9965156794425 321.8814968814969 L 374.73867595818814 319.2307692307692 L 376.4808362369338 320.6340956340956 L 378.2229965156795 310.34303534303535 L 379.96515679442507 301.6112266112266 L 381.70731707317077 298.8045738045738 L 383.44947735191636 298.18087318087316 L 385.19163763066206 290.5405405405405 L 386.93379790940764 291.7879417879418 L 388.67595818815334 294.1268191268191 L 390.41811846689893 288.51351351351354 L 392.16027874564463 289.4490644490644 L 393.9024390243902 286.018711018711 L 395.6445993031359 282.9002079002079 L 397.3867595818815 281.1850311850312 L 399.1289198606272 274.4802494802494 L 400.8710801393728 276.1954261954262 L 402.6132404181185 273.3887733887734 L 404.3554006968641 274.1683991683991 L 406.0975609756098 271.3617463617463 L 407.8397212543554 263.5654885654885 L 409.58188153310107 260.6029106029106 L 411.3240418118467 257.4844074844075 L 413.06620209059236 251.55925155925152 L 414.808362369338 244.07484407484404 L 416.55052264808364 244.85446985446984 L 418.2926829268293 230.66528066528062 L 420.03484320557493 225.8316008316008 L 421.7770034843206 226.2993762993763 L 423.5191637630662 224.27234927234926 L 425.26132404181186 218.8149688149688 L 427.0034843205575 211.9542619542619 L 428.74564459930315 214.29313929313926 L 430.4878048780488 207.74428274428274 L 432.22996515679444 208.5239085239085 L 433.9721254355401 192.46361746361745 L 435.7142857142857 192.15176715176713 L 437.45644599303137 184.8232848232848 L 439.198606271777 182.95218295218294 L 440.94076655052265 176.87110187110184 L 442.6829268292683 177.33887733887732 L 444.42508710801394 176.09147609147604 L 446.1672473867596 175.6237006237006 L 447.9094076655052 173.28482328482326 L 449.65156794425087 161.90228690228687 L 451.3937282229965 164.08523908523907 L 453.13588850174216 159.40748440748436 L 454.8780487804878 153.48232848232848 L 456.62020905923345 159.40748440748436 L 458.3623693379791 158.93970893970894 L 460.10452961672473 153.17047817047816 L 461.8466898954704 154.7297297297297 L 463.588850174216 148.96049896049894 L 465.33101045296166 146.1538461538461 L 467.0731707317073 136.3305613305613 L 468.81533101045295 132.90020790020787 L 470.5574912891986 131.6528066528066 L 472.29965156794424 130.24948024948026 L 474.0418118466899 126.03950103950103 L 475.7839721254355 118.71101871101871 L 477.52613240418117 114.50103950103949 L 479.2682926829268 115.43659043659045 L 481.01045296167246 114.34511434511433 L 482.7526132404181 111.07068607068607 L 484.49477351916374 106.08108108108104 L 486.2369337979094 102.18295218295214 L 487.97909407665503 100 L 489.7212543554007 101.09147609147601 L 491.4634146341463 102.96257796257794 L 493.20557491289196 114.65696465696465 L 494.9477351916376 112.62993762993756 L 496.68989547038325 106.2370062370062 L 498.4320557491289 109.19958419958414 L 500.17421602787454 113.09771309771304 L 501.91637630662024 114.18918918918916 L 503.6585365853659 119.95841995841988 L 505.4006968641115 119.95841995841988 L 507.14285714285717 124.94802494802491 L 508.8850174216028 124.79209979209975 L 510.62717770034845 122.45322245322245 L 512.3693379790941 130.71725571725574 L 514.1114982578397 134.30353430353432 L 515.8536585365854 133.36798336798336 L 517.5958188153311 143.97089397089394 L 519.3379790940767 142.72349272349265 L 521.0801393728223 143.3471933471933 L 522.822299651568 147.08939708939707 L 524.5644599303137 146.30977130977126 L 526.3066202090592 152.39085239085236 L 528.0487804878048 167.67151767151765 L 529.7909407665505 168.13929313929313 L 531.5331010452962 171.4137214137214 L 533.2752613240418 171.4137214137214 L 535.0174216027874 188.25363825363823 L 536.7595818815331 167.20374220374217 L 538.5017421602788 184.35550935550933 L 540.2439024390244 183.26403326403326 L 541.98606271777 183.41995841995842 L 543.7282229965157 183.1081081081081 L 545.4703832752614 180.9251559251559 L 547.212543554007 193.2432432432432 L 548.9547038327526 199.94802494802494 L 550.6968641114983 201.35135135135133 L 552.439024390244 212.26611226611223 L 554.1811846689895 212.88981288981287 L 555.9233449477351 223.18087318087314 L 557.6655052264808 214.9168399168399 L 559.4076655052265 216.00831600831597 L 561.1498257839721 227.07900207900204 L 562.8919860627177 226.76715176715177 L 564.6341463414634 238.30561330561326 L 566.3763066202091 244.07484407484404 L 568.1184668989547 243.45114345114345 L 569.8606271777003 242.8274428274428 L 571.602787456446 245.32224532224532 L 573.3449477351917 246.10187110187107 L 575.0871080139373 238.1496881496881 L 576.8292682926829 237.37006237006236 L 578.5714285714286 234.25155925155926 L 580.3135888501743 238.77338877338875 L 582.0557491289198 242.35966735966733 L 583.7979094076654 245.47817047817048 L 585.5400696864111 250.93555093555094 L 587.2822299651568 249.5322245322245 L 589.0243902439024 250.6237006237006 L 590.766550522648 254.98960498960494 L 592.5087108013937 254.67775467775468 L 594.2508710801394 256.2370062370062 L 595.993031358885 262.62993762993756 L 597.7351916376306 260.9147609147609 L 599.4773519163763 263.5654885654885 L 601.219512195122 266.0602910602911 L 602.9616724738676 262.31808731808735 L 604.7038327526133 274.1683991683991 L 606.445993031359 270.42619542619536 L 608.1881533101046 273.23284823284826 L 609.9303135888501 280.24948024948026 L 611.6724738675958 282.9002079002079 L 613.4146341463415 285.70686070686065 L 615.1567944250871 293.97089397089394 L 616.8989547038327 295.06237006237006 L 618.6411149825784 296.7775467775467 L 620.3832752613241 296.7775467775467 L 622.1254355400697 304.5738045738045 L 623.8675958188153 300.36382536382536 L 625.609756097561 302.3908523908524 L 627.3519163763067 304.1060291060291 L 629.0940766550523 309.7193347193347 L 630.8362369337979 314.0852390852391 L 632.5783972125436 316.58004158004155 L 634.3205574912893 316.11226611226607 L 636.0627177700349 322.5051975051975 L 637.8048780487804 322.03742203742206 L 639.5470383275261 320.47817047817045 L 641.2891986062718 321.8814968814969 L 643.0313588850174 321.72557172557174 L 644.773519163763 327.6507276507276 L 646.5156794425087 332.17255717255716 L 648.2578397212544 333.7318087318087 L 650 330.7692307692307 L 650 400 Z" /><text  class="poloto_labels poloto_text poloto_title" alignment-baseline="start" text-anchor="middle" font-size="x-large" x="400" y="37.5" >Total players on 2021-10-08</text><text  class="poloto_labels poloto_text poloto_xname" alignment-baseline="start" text-anchor="middle" font-size="x-large" x="400" y="481.25" >Time</text><text  class="poloto_labels poloto_text poloto_yname" alignment-baseline="start" text-anchor="middle" font-size="x-large" transform="rotate(-90,37.5,250)" x="37.5" y="250" >Count</text><line  class="poloto_axis_lines" stroke="black" x1="150" x2="150" y1="400" y2="405" /><text  class="poloto_tick_labels poloto_text" alignment-baseline="start" text-anchor="middle" x="150" y="430" > 00:00:00</text><line  class="poloto_axis_lines" stroke="black" x1="266.14401858304296" x2="266.14401858304296" y1="400" y2="405" /><text  class="poloto_tick_labels poloto_text" alignment-baseline="start" text-anchor="middle" x="266.14401858304296" y="430" > 05:33:20</text><line  class="poloto_axis_lines" stroke="black" x1="382.2880371660859" x2="382.2880371660859" y1="400" y2="405" /><text  class="poloto_tick_labels poloto_text" alignment-baseline="start" text-anchor="middle" x="382.2880371660859" y="430" > 11:06:40</text><line  class="poloto_axis_lines" stroke="black" x1="498.4320557491289" x2="498.4320557491289" y1="400" y2="405" /><text  class="poloto_tick_labels poloto_text" alignment-baseline="start" text-anchor="middle" x="498.4320557491289" y="430" > 16:40:00</text><line  class="poloto_axis_lines" stroke="black" x1="614.5760743321719" x2="614.5760743321719" y1="400" y2="405" /><text  class="poloto_tick_labels poloto_text" alignment-baseline="start" text-anchor="middle" x="614.5760743321719" y="430" > 22:13:20</text><line  class="poloto_axis_lines" stroke="black" x1="150" x2="144" y1="389.24116424116426" y2="389.24116424116426" /><text  class="poloto_tick_labels poloto_text" alignment-baseline="middle" text-anchor="end" x="135" y="389.24116424116426" > 1000</text><line  class="poloto_axis_lines" stroke="black" x1="150" x2="144" y1="311.27858627858626" y2="311.27858627858626" /><text  class="poloto_tick_labels poloto_text" alignment-baseline="middle" text-anchor="end" x="135" y="311.27858627858626" > 1500</text><line  class="poloto_axis_lines" stroke="black" x1="150" x2="144" y1="233.31600831600826" y2="233.31600831600826" /><text  class="poloto_tick_labels poloto_text" alignment-baseline="middle" text-anchor="end" x="135" y="233.31600831600826" > 2000</text><line  class="poloto_axis_lines" stroke="black" x1="150" x2="144" y1="155.35343035343035" y2="155.35343035343035" /><text  class="poloto_tick_labels poloto_text" alignment-baseline="middle" text-anchor="end" x="135" y="155.35343035343035" > 2500</text><path  stroke="black" fill="none" class="poloto_axis_lines" style="stroke-dasharray:14.518002322880372;stroke-dashoffset:-0;" d=" M 150 400 L 650 400" /><path  stroke="black" fill="none" class="poloto_axis_lines" style="stroke-dasharray:7.796257796257796;stroke-dashoffset:-10.758835758835772;" d=" M 150 400 L 150 100" /></svg>