<svg class="poloto" width="800" height="500" viewBox="0 0 800 500" xmlns="http://www.w3.org/2000/svg"><style>.poloto { stroke-linecap:round; stroke-linejoin:round; font-family: 'Tahoma', sans-serif; background-color: AliceBlue;} .poloto_scatter{stroke-width:7} .poloto_line{stroke-width:2} .poloto_text{fill: black;} .poloto_axis_lines{stroke: black;stroke-width:3;fill:none;stroke-dasharray:none} .poloto0stroke{stroke:  blue;} .poloto1stroke{stroke:  red;} .poloto2stroke{stroke:  green;} .poloto3stroke{stroke:  gold;} .poloto4stroke{stroke:  aqua;} .poloto5stroke{stroke:  lime;} .poloto6stroke{stroke:  orange;} .poloto7stroke{stroke:  chocolate;} .poloto0fill{fill:blue;} .poloto1fill{fill:red;} .poloto2fill{fill:green;} .poloto3fill{fill:gold;} .poloto4fill{fill:aqua;} .poloto5fill{fill:lime;} .poloto6fill{fill:orange;} .poloto7fill{fill:chocolate;}</style><text  class="poloto_text poloto_legend_text" alignment-baseline="middle" text-anchor="start" font-size="large" x="675" y="100" ></text><path  class="poloto_linefill poloto0fill" d=" M 150 400 L 150 339.8153846153846 L 151.74216027874564 361.04615384615386 L 153.4843205574913 354.5846153846154 L 155.22648083623693 352 L 156.96864111498257 348.86153846153843 L 158.71080139372822 346.6461538461539 L 160.45296167247386 352.9230769230769 L 162.1951219512195 355.13846153846157 L 163.93728222996515 341.6615384615385 L 165.6794425087108 364 L 167.42160278745644 360.12307692307695 L 169.16376306620208 361.96923076923076 L 170.90592334494772 361.96923076923076 L 172.64808362369337 364.36923076923074 L 174.390243902439 367.5076923076923 L 176.13240418118465 369.7230769230769 L 177.8745644599303 369.1692307692308 L 179.61672473867597 367.87692307692305 L 181.3588850174216 364.73846153846154 L 183.10104529616726 372.4923076923077 L 184.8432055749129 369.7230769230769 L 186.58536585365854 376.36923076923074 L 188.3275261324042 377.4769230769231 L 190.06968641114983 379.3230769230769 L 191.81184668989548 379.13846153846157 L 193.55400696864112 378.5846153846154 L 195.29616724738676 387.63076923076926 L 197.0383275261324 390.7692307692308 L 198.78048780487805 388.73846153846154 L 200.5226480836237 385.96923076923076 L 202.26480836236934 383.75384615384615 L 204.00696864111498 383.0153846153846 L 205.74912891986062 383.75384615384615 L 207.49128919860627 381.3538461538461 L 209.2334494773519 381.53846153846155 L 210.97560975609755 386.89230769230767 L 212.7177700348432 389.8461538461538 L 214.45993031358887 384.86153846153843 L 216.2020905923345 385.04615384615386 L 217.94425087108016 382.0923076923077 L 219.6864111498258 383.0153846153846 L 221.42857142857144 381.53846153846155 L 223.1707317073171 381.3538461538461 L 224.91289198606273 380.0615384615385 L 226.65505226480838 378.03076923076924 L 228.39721254355402 375.81538461538463 L 230.13937282229966 377.4769230769231 L 231.8815331010453 374.1538461538462 L 233.62369337979095 372.86153846153843 L 235.3658536585366 377.2923076923077 L 237.10801393728224 380.4307692307692 L 238.85017421602788 381.9076923076923 L 240.59233449477352 383.38461538461536 L 242.33449477351917 380.24615384615385 L 244.0766550522648 378.5846153846154 L 245.81881533101046 387.81538461538463 L 247.5609756097561 371.75384615384615 L 249.30313588850174 397.7846153846154 L 251.0452961672474 400 L 252.78745644599303 398.89230769230767 L 254.52961672473867 372.4923076923077 L 256.2717770034843 374.1538461538462 L 258.01393728222996 374.3384615384615 L 259.7560975609756 376.73846153846154 L 261.49825783972125 377.4769230769231 L 263.2404181184669 377.10769230769233 L 264.98257839721254 379.87692307692305 L 266.7247386759582 381.9076923076923 L 268.4668989547038 380.9846153846154 L 270.20905923344947 380.61538461538464 L 271.9512195121951 379.3230769230769 L 273.69337979094075 383.38461538461536 L 275.4355400696864 393.9076923076923 L 277.17770034843204 376.73846153846154 L 278.9198606271777 369.3538461538461 L 280.6620209059233 370.2769230769231 L 282.40418118466897 369.1692307692308 L 284.1463414634146 366.4 L 285.88850174216026 360.3076923076923 L 287.6306620209059 357.7230769230769 L 289.37282229965155 359.75384615384615 L 291.1149825783972 353.8461538461538 L 292.85714285714283 350.3384615384615 L 294.5993031358885 348.12307692307695 L 296.3414634146342 347.0153846153846 L 298.08362369337976 344.61538461538464 L 299.82578397212546 342.5846153846154 L 301.56794425087105 344.61538461538464 L 303.31010452961675 343.5076923076923 L 305.05226480836234 346.0923076923077 L 306.79442508710804 345.7230769230769 L 308.5365853658536 355.3230769230769 L 310.2787456445993 355.87692307692305 L 312.0209059233449 352.9230769230769 L 313.7630662020906 350.1538461538462 L 315.5052264808362 352 L 317.2473867595819 348.6769230769231 L 318.9895470383275 346.0923076923077 L 320.7317073170732 338.7076923076923 L 322.4738675958188 338.1538461538462 L 324.2160278745645 341.10769230769233 L 325.95818815331006 335.38461538461536 L 327.70034843205576 338.89230769230767 L 329.44250871080135 336.6769230769231 L 331.18466898954705 336.86153846153843 L 332.92682926829264 332.24615384615385 L 334.66898954703834 332.9846153846154 L 336.4111498257839 330.5846153846154 L 338.1533101045296 331.13846153846157 L 339.8954703832752 331.13846153846157 L 341.6376306620209 337.96923076923076 L 343.3797909407665 329.10769230769233 L 345.1219512195122 329.10769230769233 L 346.86411149825784 325.2307692307692 L 348.6062717770035 333.1692307692308 L 350.34843205574913 337.2307692307692 L 352.0905923344948 337.04615384615386 L 353.8327526132404 335.38461538461536 L 355.57491289198606 333.9076923076923 L 357.3170731707317 339.0769230769231 L 359.05923344947735 333.3538461538461 L 360.801393728223 333.53846153846155 L 362.54355400696863 330.4 L 364.2857142857143 328.9230769230769 L 366.0278745644599 314.5230769230769 L 367.77003484320556 313.4153846153846 L 369.5121951219512 311.5692307692308 L 371.25435540069685 308.9846153846154 L 372.9965156794425 311.9384615384615 L 374.73867595818814 312.30769230769226 L 376.4808362369338 305.10769230769233 L 378.2229965156794 305.29230769230765 L 379.96515679442507 304.1846153846154 L 381.7073170731707 301.04615384615386 L 383.44947735191636 299.5692307692308 L 385.191637630662 298.46153846153845 L 386.93379790940764 298.276923076923 L 388.6759581881533 297.53846153846155 L 390.41811846689893 298.6461538461539 L 392.1602787456446 297.3538461538461 L 393.9024390243902 292.9230769230769 L 395.6445993031359 289.6 L 397.3867595818815 287.5692307692308 L 399.1289198606272 283.87692307692305 L 400.8710801393728 279.44615384615383 L 402.6132404181185 282.21538461538466 L 404.3554006968641 274.46153846153845 L 406.0975609756097 274.6461538461539 L 407.83972125435537 265.78461538461534 L 409.581881533101 256.9230769230769 L 411.32404181184666 251.75384615384613 L 413.0662020905923 242.8923076923077 L 414.80836236933794 228.12307692307692 L 416.5505226480836 226.64615384615385 L 418.29268292682923 228.12307692307692 L 420.0348432055749 232.1846153846154 L 421.7770034843206 230.15384615384616 L 423.5191637630662 226.83076923076922 L 425.26132404181186 225.35384615384615 L 427.0034843205575 222.4 L 428.74564459930315 220.36923076923077 L 430.4878048780488 217.78461538461536 L 432.22996515679444 211.3230769230769 L 433.9721254355401 212.98461538461535 L 435.7142857142857 206.70769230769233 L 437.45644599303137 203.93846153846155 L 439.198606271777 193.78461538461536 L 440.94076655052265 189.7230769230769 L 442.6829268292683 186.21538461538458 L 444.42508710801394 180.3076923076923 L 446.1672473867596 176.43076923076924 L 447.9094076655052 164.6153846153846 L 449.65156794425087 157.2307692307692 L 451.3937282229965 152.24615384615382 L 453.13588850174216 153.53846153846152 L 454.8780487804878 155.56923076923076 L 456.62020905923345 149.84615384615384 L 458.3623693379791 151.13846153846154 L 460.10452961672473 147.44615384615386 L 461.8466898954704 146.15384615384616 L 463.588850174216 143.38461538461536 L 465.33101045296166 140.2461538461538 L 467.0731707317073 145.96923076923073 L 468.81533101045295 145.6 L 470.5574912891986 138.03076923076924 L 472.29965156794424 140.79999999999995 L 474.0418118466899 130.64615384615388 L 475.7839721254355 134.3384615384615 L 477.52613240418117 124.55384615384617 L 479.2682926829268 119.38461538461536 L 481.01045296167246 117.53846153846155 L 482.7526132404181 118.27692307692303 L 484.49477351916374 111.81538461538457 L 486.2369337979094 114.5846153846154 L 487.97909407665503 113.29230769230765 L 489.7212543554007 108.86153846153843 L 491.4634146341463 105.16923076923081 L 493.20557491289196 100.18461538461543 L 494.9477351916376 102.95384615384614 L 496.68989547038325 110.15384615384619 L 498.4320557491289 109.4153846153846 L 500.17421602787454 112.36923076923074 L 501.9163763066202 100.73846153846148 L 503.6585365853658 100 L 505.40069686411147 108.49230769230769 L 507.1428571428571 113.47692307692307 L 508.88501742160275 118.64615384615388 L 510.6271777003484 115.50769230769231 L 512.3693379790941 126.95384615384614 L 514.1114982578397 133.60000000000002 L 515.8536585365853 141.1692307692308 L 517.595818815331 151.87692307692308 L 519.3379790940767 151.50769230769228 L 521.0801393728223 152.79999999999998 L 522.822299651568 156.49230769230766 L 524.5644599303137 153.53846153846152 L 526.3066202090592 166.27692307692305 L 528.0487804878048 164.24615384615382 L 529.7909407665505 169.6 L 531.5331010452962 174.76923076923075 L 533.2752613240418 177.7230769230769 L 535.0174216027874 178.64615384615385 L 536.7595818815331 175.13846153846154 L 538.5017421602788 180.3076923076923 L 540.2439024390244 177.35384615384615 L 541.98606271777 185.1076923076923 L 543.7282229965157 192.3076923076923 L 545.4703832752614 189.53846153846152 L 547.212543554007 200.06153846153845 L 548.9547038327526 198.76923076923075 L 550.6968641114983 207.63076923076923 L 552.439024390244 203.3846153846154 L 554.1811846689895 204.3076923076923 L 555.9233449477351 201.53846153846152 L 557.6655052264808 200.06153846153845 L 559.4076655052265 195.07692307692307 L 561.1498257839721 197.84615384615384 L 562.8919860627177 211.13846153846154 L 564.6341463414634 209.84615384615384 L 566.3763066202091 208.7384615384615 L 568.1184668989547 213.90769230769232 L 569.8606271777003 218.33846153846153 L 571.602787456446 225.53846153846152 L 573.3449477351917 227.93846153846155 L 575.0871080139373 227.56923076923076 L 576.8292682926829 227.93846153846155 L 578.5714285714286 234.21538461538464 L 580.3135888501743 225.90769230769232 L 582.0557491289198 226.83076923076922 L 583.7979094076654 228.3076923076923 L 585.5400696864111 219.26153846153844 L 587.2822299651568 215.0153846153846 L 589.0243902439024 222.0307692307692 L 590.766550522648 225.90769230769232 L 592.5087108013937 220.92307692307693 L 594.2508710801394 224.43076923076924 L 595.993031358885 220.55384615384614 L 597.7351916376306 219.26153846153844 L 599.4773519163763 226.46153846153848 L 601.219512195122 229.2307692307692 L 602.9616724738676 226.83076923076922 L 604.7038327526132 231.99999999999997 L 606.4459930313589 246.76923076923075 L 608.1881533101046 244.55384615384614 L 609.9303135888501 248.79999999999998 L 611.6724738675957 249.35384615384615 L 613.4146341463414 253.6 L 615.1567944250871 253.9692307692308 L 616.8989547038327 262.0923076923077 L 618.6411149825783 268.9230769230769 L 620.383275261324 270.03076923076924 L 622.1254355400697 273.723076923077 L 623.8675958188153 278.1538461538462 L 625.609756097561 277.04615384615386 L 627.3519163763067 281.29230769230765 L 629.0940766550523 287.0153846153846 L 630.8362369337979 290.5230769230769 L 632.5783972125436 294.03076923076924 L 634.3205574912893 293.4769230769231 L 636.0627177700349 294.95384615384614 L 637.8048780487804 297.1692307692308 L 639.5470383275261 303.63076923076926 L 641.2891986062718 300.6769230769231 L 643.0313588850174 308.0615384615385 L 644.773519163763 309.9076923076923 L 646.5156794425087 313.4153846153846 L 648.2578397212544 322.0923076923077 L 650 331.3230769230769 L 650 400 Z" /><text  class="poloto_labels poloto_text poloto_title" alignment-baseline="start" text-anchor="middle" font-size="x-large" x="400" y="37.5" >Total players on 2021-05-20</text><text  class="poloto_labels poloto_text poloto_xname" alignment-baseline="start" text-anchor="middle" font-size="x-large" x="400" y="481.25" >Time</text><text  class="poloto_labels poloto_text poloto_yname" alignment-baseline="start" text-anchor="middle" font-size="x-large" transform="rotate(-90,37.5,250)" x="37.5" y="250" >Count</text><line  class="poloto_axis_lines" stroke="black" x1="208.0487804878049" x2="208.0487804878049" y1="400" y2="405" /><text  class="poloto_tick_labels poloto_text" alignment-baseline="start" text-anchor="middle" x="208.0487804878049" y="430" > 03:00</text><line  class="poloto_axis_lines" stroke="black" x1="266.1207897793264" x2="266.1207897793264" y1="400" y2="405" /><text  class="poloto_tick_labels poloto_text" alignment-baseline="start" text-anchor="middle" x="266.1207897793264" y="430" > 06:00</text><line  class="poloto_axis_lines" stroke="black" x1="324.19279907084785" x2="324.19279907084785" y1="400" y2="405" /><text  class="poloto_tick_labels poloto_text" alignment-baseline="start" text-anchor="middle" x="324.19279907084785" y="430" > 08:00</text><line  class="poloto_axis_lines" stroke="black" x1="382.2648083623693" x2="382.2648083623693" y1="400" y2="405" /><text  class="poloto_tick_labels poloto_text" alignment-baseline="start" text-anchor="middle" x="382.2648083623693" y="430" > 11:00</text><line  class="poloto_axis_lines" stroke="black" x1="440.3368176538908" x2="440.3368176538908" y1="400" y2="405" /><text  class="poloto_tick_labels poloto_text" alignment-baseline="start" text-anchor="middle" x="440.3368176538908" y="430" > 14:00</text><line  class="poloto_axis_lines" stroke="black" x1="498.4088269454123" x2="498.4088269454123" y1="400" y2="405" /><text  class="poloto_tick_labels poloto_text" alignment-baseline="start" text-anchor="middle" x="498.4088269454123" y="430" > 17:00</text><line  class="poloto_axis_lines" stroke="black" x1="556.4808362369338" x2="556.4808362369338" y1="400" y2="405" /><text  class="poloto_tick_labels poloto_text" alignment-baseline="start" text-anchor="middle" x="556.4808362369338" y="430" > 19:00</text><line  class="poloto_axis_lines" stroke="black" x1="614.5528455284552" x2="614.5528455284552" y1="400" y2="405" /><text  class="poloto_tick_labels poloto_text" alignment-baseline="start" text-anchor="middle" x="614.5528455284552" y="430" > 22:00</text><line  class="poloto_axis_lines" stroke="black" x1="150" x2="144" y1="387.81538461538463" y2="387.81538461538463" /><text  class="poloto_tick_labels poloto_text" alignment-baseline="middle" text-anchor="end" x="135" y="387.81538461538463" > 1000</text><line  class="poloto_axis_lines" stroke="black" x1="150" x2="144" y1="295.5076923076923" y2="295.5076923076923" /><text  class="poloto_tick_labels poloto_text" alignment-baseline="middle" text-anchor="end" x="135" y="295.5076923076923" > 1500</text><line  class="poloto_axis_lines" stroke="black" x1="150" x2="144" y1="203.20000000000005" y2="203.20000000000005" /><text  class="poloto_tick_labels poloto_text" alignment-baseline="middle" text-anchor="end" x="135" y="203.20000000000005" > 2000</text><line  class="poloto_axis_lines" stroke="black" x1="150" x2="144" y1="110.89230769230767" y2="110.89230769230767" /><text  class="poloto_tick_labels poloto_text" alignment-baseline="middle" text-anchor="end" x="135" y="110.89230769230767" > 2500</text><path  stroke="black" fill="none" class="poloto_axis_lines" style="stroke-dasharray:14.518002322880372;stroke-dashoffset:-58.04878048780488;" d=" M 150 400 L 650 400" /><path  stroke="black" fill="none" class="poloto_axis_lines" style="stroke-dasharray:9.23076923076923;stroke-dashoffset:-12.18461538461537;" d=" M 150 400 L 150 100" /></svg>