<svg class="poloto" width="800" height="500" viewBox="0 0 800 500" xmlns="http://www.w3.org/2000/svg"><style>.poloto { stroke-linecap:round; stroke-linejoin:round; font-family: 'Tahoma', sans-serif; background-color: AliceBlue;} .poloto_scatter{stroke-width:7} .poloto_line{stroke-width:2} .poloto_text{fill: black;} .poloto_axis_lines{stroke: black;stroke-width:3;fill:none;stroke-dasharray:none} .poloto0stroke{stroke:  blue;} .poloto1stroke{stroke:  red;} .poloto2stroke{stroke:  green;} .poloto3stroke{stroke:  gold;} .poloto4stroke{stroke:  aqua;} .poloto5stroke{stroke:  lime;} .poloto6stroke{stroke:  orange;} .poloto7stroke{stroke:  chocolate;} .poloto0fill{fill:blue;} .poloto1fill{fill:red;} .poloto2fill{fill:green;} .poloto3fill{fill:gold;} .poloto4fill{fill:aqua;} .poloto5fill{fill:lime;} .poloto6fill{fill:orange;} .poloto7fill{fill:chocolate;}</style><text  class="poloto_text poloto_legend_text" alignment-baseline="middle" text-anchor="start" font-size="large" x="675" y="100" ></text><path  class="poloto_linefill poloto0fill" d=" M 150 400 L 150 385.32423208191125 L 151.74216027874564 392.66211604095565 L 153.4843205574913 391.29692832764505 L 155.22648083623693 394.19795221843003 L 156.96864111498257 392.66211604095565 L 158.71080139372822 387.2013651877133 L 160.45296167247386 386.8600682593857 L 162.1951219512195 391.8088737201365 L 163.93728222996515 394.19795221843003 L 165.6794425087108 394.8805460750853 L 167.42160278745644 397.9522184300341 L 169.16376306620208 400 L 170.90592334494772 398.4641638225256 L 172.64808362369337 392.15017064846415 L 174.390243902439 391.63822525597266 L 176.13240418118465 386.0068259385665 L 177.8745644599303 384.641638225256 L 179.61672473867597 388.90784982935156 L 181.3588850174216 390.1023890784983 L 183.10104529616726 393.1740614334471 L 184.8432055749129 386.68941979522185 L 186.58536585365854 395.5631399317406 L 188.3275261324042 394.70989761092153 L 190.06968641114983 398.80546075085323 L 191.81184668989548 394.19795221843003 L 193.55400696864112 384.641638225256 L 195.29616724738676 384.1296928327645 L 197.0383275261324 384.3003412969283 L 198.78048780487805 383.61774744027304 L 200.5226480836237 389.419795221843 L 202.26480836236934 380.0341296928327 L 204.00696864111498 375.938566552901 L 205.74912891986062 375.25597269624575 L 207.49128919860627 369.79522184300345 L 209.2334494773519 373.03754266211604 L 210.97560975609755 371.84300341296927 L 212.7177700348432 369.28327645051195 L 214.45993031358887 369.28327645051195 L 216.2020905923345 370.8191126279863 L 217.94425087108016 369.4539249146758 L 219.6864111498258 361.60409556313994 L 221.42857142857144 356.8259385665529 L 223.1707317073171 354.2662116040956 L 224.91289198606273 359.7269624573379 L 226.65505226480838 359.7269624573379 L 228.39721254355402 358.5324232081911 L 230.13937282229966 353.9249146757679 L 231.8815331010453 350.85324232081905 L 233.62369337979095 346.41638225255974 L 235.3658536585366 348.976109215017 L 237.10801393728224 347.4402730375426 L 238.85017421602788 352.5597269624573 L 240.59233449477352 347.9522184300341 L 242.33449477351917 350.68259385665533 L 244.0766550522648 349.82935153583617 L 245.81881533101046 346.7576791808874 L 247.5609756097561 341.8088737201365 L 249.30313588850174 344.19795221843003 L 251.0452961672474 336.17747440273035 L 252.78745644599303 335.494880546075 L 254.52961672473867 335.66552901023886 L 256.2717770034843 339.0784982935154 L 258.01393728222996 341.9795221843003 L 259.7560975609756 342.8327645051195 L 261.49825783972125 339.93174061433444 L 263.2404181184669 338.0546075085324 L 264.98257839721254 336.0068259385665 L 266.7247386759582 329.01023890784984 L 268.4668989547038 328.1569965870307 L 270.20905923344947 324.0614334470989 L 271.9512195121951 320.98976109215016 L 273.69337979094075 318.4300341296928 L 275.4355400696864 317.06484641638224 L 277.17770034843204 343.85665529010237 L 278.91986062717774 311.09215017064844 L 280.6620209059233 310.9215017064846 L 282.404181184669 309.3856655290102 L 284.1463414634146 311.09215017064844 L 285.8885017421603 314.6757679180887 L 287.6306620209059 312.457337883959 L 289.3728222996516 309.04436860068256 L 291.1149825783972 309.8976109215017 L 292.8571428571429 315.1877133105802 L 294.5993031358885 314.6757679180887 L 296.3414634146342 314.1638225255973 L 298.08362369337976 313.9931740614335 L 299.82578397212546 309.7269624573379 L 301.56794425087105 305.29010238907847 L 303.31010452961675 304.4368600682594 L 305.05226480836234 299.31740614334467 L 306.79442508710804 298.8054607508533 L 308.5365853658536 296.5870307167236 L 310.2787456445993 295.90443686006824 L 312.0209059233449 298.4641638225256 L 313.7630662020906 296.7576791808874 L 315.5052264808362 297.9522184300341 L 317.2473867595819 301.0238907849829 L 318.9895470383275 293.68600682593853 L 320.7317073170732 286.68941979522185 L 322.4738675958188 282.0819112627986 L 324.2160278745645 284.1296928327645 L 325.9581881533101 279.52218430034134 L 327.70034843205576 276.79180887372013 L 329.4425087108014 272.6962457337884 L 331.18466898954705 270.8191126279863 L 332.9268292682927 267.57679180887374 L 334.66898954703834 268.0887372013651 L 336.411149825784 268.25938566552895 L 338.1533101045296 262.6279863481228 L 339.89547038327527 261.4334470989761 L 341.6376306620209 251.70648464163818 L 343.37979094076655 255.46075085324233 L 345.1219512195122 250.51194539249147 L 346.86411149825784 252.73037542662112 L 348.6062717770035 247.098976109215 L 350.34843205574913 255.97269624573377 L 352.0905923344948 234.4709897610921 L 353.8327526132404 237.0307167235495 L 355.57491289198606 233.617747440273 L 357.3170731707317 233.78839590443684 L 359.05923344947735 248.4641638225256 L 360.801393728223 226.96245733788393 L 362.54355400696863 219.9658703071672 L 364.2857142857143 235.15358361774744 L 366.0278745644599 226.27986348122866 L 367.77003484320556 216.2116040955631 L 369.5121951219512 227.3037542662116 L 371.25435540069685 219.62457337883959 L 372.9965156794425 210.23890784982936 L 374.73867595818814 206.4846416382252 L 376.4808362369338 200.85324232081908 L 378.2229965156795 205.97269624573377 L 379.96515679442507 209.3856655290102 L 381.70731707317077 207.50853242320815 L 383.44947735191636 199.99999999999997 L 385.19163763066206 202.5597269624573 L 386.93379790940764 202.04778156996585 L 388.67595818815334 202.5597269624573 L 390.41811846689893 206.4846416382252 L 392.16027874564463 194.36860068259384 L 393.9024390243902 193.68600682593856 L 395.6445993031359 195.22184300341294 L 397.3867595818815 192.4914675767918 L 399.1289198606272 186.518771331058 L 400.8710801393728 175.0853242320819 L 402.6132404181185 168.94197952218425 L 404.3554006968641 154.43686006825934 L 406.0975609756098 172.01365187713307 L 407.8397212543554 156.1433447098976 L 409.58188153310107 150.51194539249147 L 411.3240418118467 142.15017064846415 L 413.06620209059236 147.098976109215 L 414.808362369338 136.86006825938568 L 416.55052264808364 127.30375426621163 L 418.2926829268293 129.3515358361775 L 420.03484320557493 132.93515358361776 L 421.7770034843206 134.47098976109214 L 423.5191637630662 145.22184300341294 L 425.26132404181186 134.64163822525597 L 427.0034843205575 141.12627986348116 L 428.74564459930315 129.3515358361775 L 430.4878048780488 145.22184300341294 L 432.22996515679444 127.98634812286684 L 433.9721254355401 129.01023890784984 L 435.7142857142857 128.15699658703068 L 437.45644599303137 138.73720136518773 L 439.198606271777 132.93515358361776 L 440.94076655052265 137.88395904436857 L 442.6829268292683 130.54607508532422 L 444.42508710801394 121.50170648464166 L 446.1672473867596 112.62798634812282 L 447.9094076655052 109.04436860068256 L 449.65156794425087 112.45733788395899 L 451.3937282229965 116.21160409556308 L 453.13588850174216 124.06143344709892 L 454.8780487804878 119.11262798634812 L 456.62020905923345 115.52901023890786 L 458.3623693379791 117.57679180887374 L 460.10452961672473 123.89078498293509 L 461.8466898954704 122.8668941979522 L 463.588850174216 109.55631399317406 L 465.33101045296166 100 L 467.0731707317073 101.53583617747438 L 468.81533101045295 112.62798634812282 L 470.5574912891986 111.4334470989761 L 472.29965156794424 102.7303754266211 L 474.0418118466899 102.38907849829354 L 475.7839721254355 111.26279863481227 L 477.52613240418117 105.29010238907847 L 479.2682926829268 113.99317406143336 L 481.01045296167246 119.79522184300333 L 482.7526132404181 134.47098976109214 L 484.49477351916374 121.67235494880549 L 486.2369337979094 129.18088737201367 L 487.97909407665503 123.03754266211604 L 489.7212543554007 122.01365187713304 L 491.4634146341463 120.47781569965866 L 493.20557491289196 122.69624573378837 L 494.9477351916376 125.76791808873713 L 496.68989547038325 143.17406143344704 L 498.4320557491289 133.1058020477816 L 500.17421602787454 133.2764505119453 L 501.91637630662024 151.53583617747435 L 503.6585365853659 161.94539249146757 L 505.4006968641115 160.2389078498293 L 507.14285714285717 158.02047781569965 L 508.8850174216028 168.4300341296928 L 510.62717770034845 175.42662116040955 L 512.3693379790941 189.0784982935153 L 514.1114982578397 197.78156996587026 L 515.8536585365854 200.34129692832764 L 517.5958188153311 200.34129692832764 L 519.3379790940767 203.9249146757679 L 521.0801393728223 221.50170648464163 L 522.822299651568 215.18771331058016 L 524.5644599303137 222.35494880546074 L 526.3066202090592 214.33447098976106 L 528.0487804878048 224.91467576791806 L 529.7909407665505 226.7918088737201 L 531.5331010452962 222.52559726962457 L 533.2752613240418 234.30034129692834 L 535.0174216027874 233.95904436860067 L 536.7595818815331 234.64163822525595 L 538.5017421602788 244.02730375426617 L 540.2439024390244 255.80204778156994 L 541.98606271777 248.4641638225256 L 543.7282229965157 248.8054607508532 L 545.4703832752614 252.90102389078496 L 547.212543554007 246.24573378839588 L 548.9547038327526 255.97269624573377 L 550.6968641114983 248.8054607508532 L 552.439024390244 247.78156996587032 L 554.1811846689895 255.2901023890785 L 555.9233449477351 250.1706484641638 L 557.6655052264808 250.6825938566553 L 559.4076655052265 251.0238907849829 L 561.1498257839721 252.73037542662112 L 562.8919860627177 254.94880546075083 L 564.6341463414634 258.8737201365187 L 566.3763066202091 256.9965870307167 L 568.1184668989547 259.7269624573379 L 569.8606271777003 255.6313993174061 L 571.602787456446 256.4846416382252 L 573.3449477351917 260.9215017064846 L 575.0871080139373 259.7269624573379 L 576.8292682926829 259.55631399317406 L 578.5714285714286 258.1911262798635 L 580.3135888501743 266.2116040955631 L 582.0557491289198 275.5972696245734 L 583.7979094076654 282.0819112627986 L 585.5400696864111 277.815699658703 L 587.2822299651568 281.22866894197955 L 589.0243902439024 279.01023890784984 L 590.766550522648 283.617747440273 L 592.5087108013937 282.76450511945393 L 594.2508710801394 284.47098976109214 L 595.993031358885 289.0784982935154 L 597.7351916376306 294.70989761092153 L 599.4773519163763 294.19795221843003 L 601.219512195122 295.5631399317406 L 602.9616724738676 292.8327645051195 L 604.7038327526133 296.41638225255974 L 606.445993031359 303.9249146757679 L 608.1881533101046 308.53242320819106 L 609.9303135888501 313.1399317406143 L 611.6724738675958 321.160409556314 L 613.4146341463415 326.79180887372013 L 615.1567944250871 326.79180887372013 L 616.8989547038327 333.1058020477816 L 618.6411149825784 340.1023890784983 L 620.3832752613241 343.85665529010237 L 622.1254355400697 334.641638225256 L 623.8675958188153 333.95904436860064 L 625.609756097561 334.3003412969283 L 627.3519163763067 333.1058020477816 L 629.0940766550523 334.3003412969283 L 630.8362369337979 340.1023890784983 L 632.5783972125436 337.37201365187707 L 634.3205574912893 337.5426621160409 L 636.0627177700349 338.73720136518773 L 637.8048780487804 344.5392491467577 L 639.5470383275261 351.7064846416382 L 641.2891986062718 353.4129692832764 L 643.0313588850174 361.77474402730377 L 644.773519163763 363.1399317406143 L 646.5156794425087 362.2866894197952 L 648.2578397212544 366.0409556313993 L 650 368.9419795221843 L 650 400 Z" /><text  class="poloto_labels poloto_text poloto_title" alignment-baseline="start" text-anchor="middle" font-size="x-large" x="400" y="37.5" >Total players on 2021-11-06</text><text  class="poloto_labels poloto_text poloto_xname" alignment-baseline="start" text-anchor="middle" font-size="x-large" x="400" y="481.25" >Time</text><text  class="poloto_labels poloto_text poloto_yname" alignment-baseline="start" text-anchor="middle" font-size="x-large" transform="rotate(-90,37.5,250)" x="37.5" y="250" >Count</text><line  class="poloto_axis_lines" stroke="black" x1="150" x2="150" y1="400" y2="405" /><text  class="poloto_tick_labels poloto_text" alignment-baseline="start" text-anchor="middle" x="150" y="430" > 00:00:00</text><line  class="poloto_axis_lines" stroke="black" x1="266.14401858304296" x2="266.14401858304296" y1="400" y2="405" /><text  class="poloto_tick_labels poloto_text" alignment-baseline="start" text-anchor="middle" x="266.14401858304296" y="430" > 05:33:20</text><line  class="poloto_axis_lines" stroke="black" x1="382.2880371660859" x2="382.2880371660859" y1="400" y2="405" /><text  class="poloto_tick_labels poloto_text" alignment-baseline="start" text-anchor="middle" x="382.2880371660859" y="430" > 11:06:40</text><line  class="poloto_axis_lines" stroke="black" x1="498.4320557491289" x2="498.4320557491289" y1="400" y2="405" /><text  class="poloto_tick_labels poloto_text" alignment-baseline="start" text-anchor="middle" x="498.4320557491289" y="430" > 16:40:00</text><line  class="poloto_axis_lines" stroke="black" x1="614.5760743321719" x2="614.5760743321719" y1="400" y2="405" /><text  class="poloto_tick_labels poloto_text" alignment-baseline="start" text-anchor="middle" x="614.5760743321719" y="430" > 22:13:20</text><line  class="poloto_axis_lines" stroke="black" x1="150" x2="144" y1="352.38907849829354" y2="352.38907849829354" /><text  class="poloto_tick_labels poloto_text" alignment-baseline="middle" text-anchor="end" x="135" y="352.38907849829354" > 1500</text><line  class="poloto_axis_lines" stroke="black" x1="150" x2="144" y1="267.06484641638224" y2="267.06484641638224" /><text  class="poloto_tick_labels poloto_text" alignment-baseline="middle" text-anchor="end" x="135" y="267.06484641638224" > 2000</text><line  class="poloto_axis_lines" stroke="black" x1="150" x2="144" y1="181.74061433447093" y2="181.74061433447093" /><text  class="poloto_tick_labels poloto_text" alignment-baseline="middle" text-anchor="end" x="135" y="181.74061433447093" > 2500</text><path  stroke="black" fill="none" class="poloto_axis_lines" style="stroke-dasharray:14.518002322880372;stroke-dashoffset:-0;" d=" M 150 400 L 650 400" /><path  stroke="black" fill="none" class="poloto_axis_lines" style="stroke-dasharray:8.532423208191128;stroke-dashoffset:-47.610921501706486;" d=" M 150 400 L 150 100" /></svg>