<svg class="poloto" width="800" height="500" viewBox="0 0 800 500" xmlns="http://www.w3.org/2000/svg"><style>.poloto { stroke-linecap:round; stroke-linejoin:round; font-family: 'Tahoma', sans-serif; background-color: AliceBlue;} .poloto_scatter{stroke-width:7} .poloto_line{stroke-width:2} .poloto_text{fill: black;} .poloto_axis_lines{stroke: black;stroke-width:3;fill:none;stroke-dasharray:none} .poloto0stroke{stroke:  blue;} .poloto1stroke{stroke:  red;} .poloto2stroke{stroke:  green;} .poloto3stroke{stroke:  gold;} .poloto4stroke{stroke:  aqua;} .poloto5stroke{stroke:  lime;} .poloto6stroke{stroke:  orange;} .poloto7stroke{stroke:  chocolate;} .poloto0fill{fill:blue;} .poloto1fill{fill:red;} .poloto2fill{fill:green;} .poloto3fill{fill:gold;} .poloto4fill{fill:aqua;} .poloto5fill{fill:lime;} .poloto6fill{fill:orange;} .poloto7fill{fill:chocolate;}</style><text  class="poloto_text poloto_legend_text" alignment-baseline="middle" text-anchor="start" font-size="large" x="675" y="100" ></text><path  class="poloto_linefill poloto0fill" d=" M 150 400 L 150 351.52386428982174 L 151.74216027874564 353.2489936745256 L 153.4843205574913 354.45658424381827 L 155.22648083623693 363.94479585968946 L 156.96864111498257 366.87751581368605 L 158.71080139372822 373.60552041403105 L 160.45296167247386 377.05577918343874 L 162.1951219512195 383.09373202990224 L 163.93728222996515 386.54399079930994 L 165.6794425087108 391.7193789534215 L 167.42160278745644 393.96204715353656 L 169.16376306620208 393.96204715353656 L 170.90592334494772 394.4795859689477 L 172.64808362369337 400 L 174.390243902439 396.2047153536515 L 176.13240418118465 392.58194364577344 L 177.8745644599303 390.5117883841288 L 179.61672473867597 394.1345600920069 L 181.3588850174216 397.92984473835537 L 183.10104529616726 394.4795859689477 L 184.8432055749129 395.1696377228292 L 186.58536585365854 398.61989649223693 L 188.3275261324042 399.8274870615296 L 190.06968641114983 393.96204715353656 L 191.81184668989548 392.9269695227142 L 193.55400696864112 396.03220241518113 L 195.29616724738676 391.2018401380103 L 197.0383275261324 389.13168487636574 L 198.78048780487805 387.5790684301322 L 200.5226480836237 384.3013225991949 L 202.26480836236934 381.5411155836688 L 204.00696864111498 377.05577918343874 L 205.74912891986062 371.8803910293272 L 207.49128919860627 375.5031627372053 L 209.2334494773519 380.16101207590566 L 210.97560975609755 377.22829212190913 L 212.7177700348432 377.22829212190913 L 214.45993031358887 376.5382403680276 L 216.2020905923345 380.50603795284644 L 217.94425087108016 381.3686026451984 L 219.6864111498258 368.0851063829787 L 221.42857142857144 367.05002875215644 L 223.1707317073171 372.3979298447383 L 224.91289198606273 365.8424381828637 L 226.65505226480838 366.0149511213341 L 228.39721254355402 356.6992524439333 L 230.13937282229966 351.0063254744106 L 231.8815331010453 349.97124784358823 L 233.62369337979095 346.0034502587694 L 235.3658536585366 342.3806785508913 L 237.10801393728224 343.07073030477284 L 238.85017421602788 343.4157561817136 L 240.59233449477352 339.27544565842436 L 242.33449477351917 334.9626221966647 L 244.0766550522648 330.6497987349051 L 245.81881533101046 329.09718228867166 L 247.5609756097561 333.06497987349053 L 249.30313588850174 332.2024151811386 L 251.0452961672474 330.13225991949395 L 252.78745644599303 332.37492811960897 L 254.52961672473867 329.9597469810236 L 256.2717770034843 326.16446233467514 L 258.01393728222996 325.64692351926396 L 259.7560975609756 327.37205290396776 L 261.49825783972125 326.85451408855664 L 263.2404181184669 321.5066129959747 L 264.98257839721254 322.19666474985627 L 266.7247386759582 319.43645773433 L 268.4668989547038 320.98907418056353 L 270.20905923344947 327.54456584243815 L 271.9512195121951 325.1293847038528 L 273.69337979094075 325.64692351926396 L 275.4355400696864 329.26969522714205 L 277.17770034843204 329.9597469810236 L 278.91986062717774 329.9597469810236 L 280.6620209059233 325.3018976423232 L 282.404181184669 324.43933294997123 L 284.1463414634146 320.47153536515236 L 285.8885017421603 314.7786083956297 L 287.6306620209059 304.6003450258769 L 289.3728222996516 305.11788384128806 L 291.1149825783972 305.46290971822884 L 292.8571428571429 303.73778033352505 L 294.5993031358885 300.28752156411736 L 296.3414634146342 298.21736630247267 L 298.08362369337976 292.00690051753884 L 299.82578397212546 288.9016676250719 L 301.56794425087105 276.13571017826337 L 303.31010452961675 275.100632547441 L 305.05226480836234 275.963197239793 L 306.79442508710804 272.85796434732606 L 308.5365853658536 275.7906843013226 L 310.2787456445993 277.6883266244969 L 312.0209059233449 277.5158136860265 L 313.7630662020906 274.75560667050024 L 315.5052264808362 269.92524439332954 L 317.2473867595819 263.887291546866 L 318.9895470383275 264.74985623921793 L 320.7317073170732 262.50718803910297 L 322.4738675958188 266.9925244393329 L 324.2160278745645 268.8901667625072 L 325.9581881533101 269.0626797009776 L 327.70034843205576 268.7176538240368 L 329.4425087108014 265.2673950546291 L 331.18466898954705 264.40483036227715 L 332.9268292682927 263.5422656699252 L 334.66898954703834 260.6095457159287 L 336.411149825784 258.1943645773433 L 338.1533101045296 259.22944220816555 L 339.89547038327527 265.7849338700403 L 341.6376306620209 263.3697527314548 L 343.37979094076655 256.12420931569864 L 345.1219512195122 257.84933870040254 L 346.86411149825784 259.0569292696953 L 348.6062717770035 256.6417481311098 L 350.34843205574913 257.33179988499137 L 352.0905923344948 256.12420931569864 L 353.8327526132404 247.6710753306498 L 355.57491289198606 250.25876940770556 L 357.3170731707317 254.39907993099482 L 359.05923344947735 251.2938470385279 L 360.801393728223 252.50143760782058 L 362.54355400696863 250.77630822311673 L 364.2857142857143 249.22369177688327 L 366.0278745644599 246.2909718228867 L 367.77003484320556 242.4956871765382 L 369.5121951219512 250.60379528464634 L 371.25435540069685 245.4284071305348 L 372.9965156794425 242.32317423806782 L 374.73867595818814 236.45773433007477 L 376.4808362369338 235.25014376078204 L 378.2229965156795 240.59804485336397 L 379.96515679442507 251.4663599769983 L 381.70731707317077 245.77343300747557 L 383.44947735191636 243.70327774583095 L 385.19163763066206 244.56584243818284 L 386.93379790940764 240.77055779183436 L 388.67595818815334 241.63312248418632 L 390.41811846689893 270.615296147211 L 392.16027874564463 251.2938470385279 L 393.9024390243902 249.91374353076478 L 395.6445993031359 240.59804485336397 L 397.3867595818815 239.2179413456009 L 399.1289198606272 242.4956871765382 L 400.8710801393728 239.5629672225417 L 402.6132404181185 246.80851063829786 L 404.3554006968641 245.94594594594597 L 406.0975609756098 234.56009200690053 L 407.8397212543554 230.76480736055206 L 409.58188153310107 231.28234617596317 L 411.3240418118467 232.14491086831512 L 413.06620209059236 229.38470385278893 L 414.808362369338 221.62162162162159 L 416.55052264808364 219.20644048303623 L 418.2926829268293 212.82346175963195 L 420.03484320557493 209.89074180563543 L 421.7770034843206 201.09258194364574 L 423.5191637630662 199.0224266820011 L 425.26132404181186 197.12478435882687 L 427.0034843205575 190.0517538815411 L 428.74564459930315 182.11615871190335 L 430.4878048780488 184.87636572742954 L 432.22996515679444 188.32662449683724 L 433.9721254355401 178.66589994249566 L 435.7142857142857 186.94652098907417 L 437.45644599303137 172.11040828062104 L 439.198606271777 153.99654974123055 L 440.94076655052265 154.8591144335825 L 442.6829268292683 147.9585968947671 L 444.42508710801394 145.88844163312248 L 446.1672473867596 147.26854514088555 L 447.9094076655052 156.06670500287518 L 449.65156794425087 144.33582518688902 L 451.3937282229965 143.81828637147783 L 453.13588850174216 147.26854514088555 L 454.8780487804878 138.987924094307 L 456.62020905923345 141.40310523289247 L 458.3623693379791 135.19263944795853 L 460.10452961672473 129.67222541690626 L 461.8466898954704 124.66935020126505 L 463.588850174216 120.01150086256473 L 465.33101045296166 119.66647498562395 L 467.0731707317073 111.55836687751582 L 468.81533101045295 123.28924669350204 L 470.5574912891986 112.93847038527883 L 472.29965156794424 112.075905692927 L 474.0418118466899 111.55836687751582 L 475.7839721254355 115.87119033927547 L 477.52613240418117 108.6256469235193 L 479.2682926829268 118.6313973548016 L 481.01045296167246 104.83036227717082 L 482.7526132404181 100.69005175388156 L 484.49477351916374 100 L 486.2369337979094 102.07015526164457 L 487.97909407665503 105.69292696952266 L 489.7212543554007 103.2777458309373 L 491.4634146341463 106.21046578493383 L 493.20557491289196 110.69580218516387 L 494.9477351916376 118.11385853939043 L 496.68989547038325 120.18401380103501 L 498.4320557491289 119.66647498562395 L 500.17421602787454 116.56124209315692 L 501.91637630662024 123.97929844738348 L 503.6585365853659 130.36227717078782 L 505.4006968641115 140.36802760207013 L 507.14285714285717 141.23059229442208 L 508.8850174216028 155.8941920644048 L 510.62717770034845 149.33870040253018 L 512.3693379790941 154.16906267970094 L 514.1114982578397 158.4818861414606 L 515.8536585365854 158.3093732029902 L 517.5958188153311 166.9350201265095 L 519.3379790940767 171.59286946520987 L 521.0801393728223 175.21564117308796 L 522.822299651568 173.31799884991372 L 524.5644599303137 187.98159861989646 L 526.3066202090592 194.19206440483035 L 528.0487804878048 186.94652098907417 L 529.7909407665505 194.8821161587119 L 531.5331010452962 202.8177113283496 L 533.2752613240418 213.16848763657273 L 535.0174216027874 228.34962622196664 L 536.7595818815331 236.45773433007477 L 538.5017421602788 229.9022426682001 L 540.2439024390244 230.41978148361127 L 541.98606271777 227.83208740655547 L 543.7282229965157 230.59229442208166 L 545.4703832752614 236.45773433007477 L 547.212543554007 250.08625646923517 L 548.9547038327526 252.84646348476136 L 550.6968641114983 228.17711328349625 L 552.439024390244 229.9022426682001 L 554.1811846689895 240.42553191489358 L 555.9233449477351 254.39907993099482 L 557.6655052264808 248.36112708453132 L 559.4076655052265 252.3289246693502 L 561.1498257839721 248.7061529614721 L 562.8919860627177 258.3668775158137 L 564.6341463414634 259.57446808510633 L 566.3763066202091 259.0569292696953 L 568.1184668989547 253.88154111558364 L 569.8606271777003 265.7849338700403 L 571.602787456446 272.1679125934445 L 573.3449477351917 265.4399079930995 L 575.0871080139373 265.95744680851067 L 576.8292682926829 265.6124209315699 L 578.5714285714286 271.13283496262216 L 580.3135888501743 268.372627947096 L 582.0557491289198 283.55376653248993 L 583.7979094076654 278.37837837837833 L 585.5400696864111 277.86083956296727 L 587.2822299651568 273.20299022426684 L 589.0243902439024 269.92524439332954 L 590.766550522648 272.68545140885567 L 592.5087108013937 274.92811960897063 L 594.2508710801394 282.1736630247268 L 595.993031358885 287.0040253018976 L 597.7351916376306 286.31397354801607 L 599.4773519163763 295.45715928694653 L 601.219512195122 294.2495687176538 L 602.9616724738676 296.4922369177689 L 604.7038327526133 297.3548016101207 L 606.445993031359 303.73778033352505 L 608.1881533101046 304.4278320874065 L 609.9303135888501 310.46578493387005 L 611.6724738675958 327.1995399654974 L 613.4146341463415 328.5796434732605 L 615.1567944250871 332.54744105807936 L 616.8989547038327 325.3018976423232 L 618.6411149825784 327.02702702702703 L 620.3832752613241 332.54744105807936 L 622.1254355400697 332.37492811960897 L 623.8675958188153 331.512363427257 L 625.609756097561 334.9626221966647 L 627.3519163763067 340.1380103507763 L 629.0940766550523 337.7228292121909 L 630.8362369337979 345.14088556641747 L 632.5783972125436 346.34847613571014 L 634.3205574912893 348.24611845888444 L 636.0627177700349 349.7987349051179 L 637.8048780487804 348.41863139735483 L 639.5470383275261 350.316273720529 L 641.2891986062718 355.664174813111 L 643.0313588850174 360.3220241518114 L 644.773519163763 361.1845888441633 L 646.5156794425087 353.9390454284071 L 648.2578397212544 355.8366877515814 L 650 359.97699827487065 L 650 400 Z" /><text  class="poloto_labels poloto_text poloto_title" alignment-baseline="start" text-anchor="middle" font-size="x-large" x="400" y="37.5" >Total players on 2021-10-07</text><text  class="poloto_labels poloto_text poloto_xname" alignment-baseline="start" text-anchor="middle" font-size="x-large" x="400" y="481.25" >Time</text><text  class="poloto_labels poloto_text poloto_yname" alignment-baseline="start" text-anchor="middle" font-size="x-large" transform="rotate(-90,37.5,250)" x="37.5" y="250" >Count</text><line  class="poloto_axis_lines" stroke="black" x1="150" x2="150" y1="400" y2="405" /><text  class="poloto_tick_labels poloto_text" alignment-baseline="start" text-anchor="middle" x="150" y="430" > 00:00:00</text><line  class="poloto_axis_lines" stroke="black" x1="266.14401858304296" x2="266.14401858304296" y1="400" y2="405" /><text  class="poloto_tick_labels poloto_text" alignment-baseline="start" text-anchor="middle" x="266.14401858304296" y="430" > 05:33:20</text><line  class="poloto_axis_lines" stroke="black" x1="382.2880371660859" x2="382.2880371660859" y1="400" y2="405" /><text  class="poloto_tick_labels poloto_text" alignment-baseline="start" text-anchor="middle" x="382.2880371660859" y="430" > 11:06:40</text><line  class="poloto_axis_lines" stroke="black" x1="498.4320557491289" x2="498.4320557491289" y1="400" y2="405" /><text  class="poloto_tick_labels poloto_text" alignment-baseline="start" text-anchor="middle" x="498.4320557491289" y="430" > 16:40:00</text><line  class="poloto_axis_lines" stroke="black" x1="614.5760743321719" x2="614.5760743321719" y1="400" y2="405" /><text  class="poloto_tick_labels poloto_text" alignment-baseline="start" text-anchor="middle" x="614.5760743321719" y="430" > 22:13:20</text><line  class="poloto_axis_lines" stroke="black" x1="150" x2="144" y1="317.02127659574467" y2="317.02127659574467" /><text  class="poloto_tick_labels poloto_text" alignment-baseline="middle" text-anchor="end" x="135" y="317.02127659574467" > 1500</text><line  class="poloto_axis_lines" stroke="black" x1="150" x2="144" y1="230.76480736055203" y2="230.76480736055203" /><text  class="poloto_tick_labels poloto_text" alignment-baseline="middle" text-anchor="end" x="135" y="230.76480736055203" > 2000</text><line  class="poloto_axis_lines" stroke="black" x1="150" x2="144" y1="144.50833812535936" y2="144.50833812535936" /><text  class="poloto_tick_labels poloto_text" alignment-baseline="middle" text-anchor="end" x="135" y="144.50833812535936" > 2500</text><path  stroke="black" fill="none" class="poloto_axis_lines" style="stroke-dasharray:14.518002322880372;stroke-dashoffset:-0;" d=" M 150 400 L 650 400" /><path  stroke="black" fill="none" class="poloto_axis_lines" style="stroke-dasharray:8.625646923519264;stroke-dashoffset:-82.9787234042553;" d=" M 150 400 L 150 100" /></svg>