<svg class="poloto" width="800" height="500" viewBox="0 0 800 500" xmlns="http://www.w3.org/2000/svg"><style>.poloto { stroke-linecap:round; stroke-linejoin:round; font-family: 'Tahoma', sans-serif; background-color: AliceBlue;} .poloto_scatter{stroke-width:7} .poloto_line{stroke-width:2} .poloto_text{fill: black;} .poloto_axis_lines{stroke: black;stroke-width:3;fill:none;stroke-dasharray:none} .poloto0stroke{stroke:  blue;} .poloto1stroke{stroke:  red;} .poloto2stroke{stroke:  green;} .poloto3stroke{stroke:  gold;} .poloto4stroke{stroke:  aqua;} .poloto5stroke{stroke:  lime;} .poloto6stroke{stroke:  orange;} .poloto7stroke{stroke:  chocolate;} .poloto0fill{fill:blue;} .poloto1fill{fill:red;} .poloto2fill{fill:green;} .poloto3fill{fill:gold;} .poloto4fill{fill:aqua;} .poloto5fill{fill:lime;} .poloto6fill{fill:orange;} .poloto7fill{fill:chocolate;}</style><text  class="poloto_text poloto_legend_text" alignment-baseline="middle" text-anchor="start" font-size="large" x="675" y="100" ></text><path  class="poloto_linefill poloto0fill" d=" M 150 400 L 150 378.7722586691659 L 151.7400180961882 376.6635426429241 L 153.4800361923764 375.67947516401125 L 155.2200542885646 378.7722586691659 L 156.9600723847528 388.19119025304593 L 158.70009048094101 384.95782567947515 L 160.4401085771292 380.3186504217432 L 162.1801266733174 382.14620431115276 L 163.9201447695056 384.53608247422676 L 165.6601628656938 386.3636363636364 L 167.400180961882 389.03467666354265 L 169.1401990580702 389.73758200562327 L 170.8802171542584 390.8622305529522 L 172.6202352504466 387.7694470477976 L 174.3602533466348 391.28397375820055 L 176.10027144282301 395.6419868791003 L 177.8402895390112 400 L 179.5803076351994 396.7666354264293 L 181.3203257313876 396.485473289597 L 183.06034382757582 395.78256794751644 L 184.800361923764 394.5173383317713 L 186.5403800199522 396.2043111527647 L 188.28039811614042 394.5173383317713 L 190.0204162123286 393.6738519212746 L 191.7604343085168 387.4882849109653 L 193.50045240470502 389.5970009372071 L 195.2404705008932 388.19119025304593 L 196.9804885970814 387.3477038425492 L 198.7205066932696 391.28397375820055 L 200.46052478945782 397.89128397375816 L 202.200542885646 395.07966260543583 L 203.9405609818342 392.8303655107779 L 205.68057907802242 387.91002811621365 L 207.42059717421063 384.81724461105904 L 209.1606152703988 385.2389878163074 L 210.90063336658702 381.7244611059044 L 212.64065146277522 379.75632614807876 L 214.3806695589634 380.5998125585754 L 216.1206876551516 382.9896907216495 L 217.86070575133982 377.0852858481725 L 219.600723847528 376.38238050609186 L 221.3407419437162 372.16494845360825 L 223.08076003990442 372.02436738519214 L 224.8207781360926 369.77507029053425 L 226.56079623228084 362.74601686972824 L 228.30081432846902 361.0590440487348 L 230.04083242465722 366.6822867853796 L 231.78085052084543 364.9953139643861 L 233.5208686170336 360.4967197750703 L 235.26088671322182 358.95032802249295 L 237.00090480941003 354.4517338331771 L 238.7409229055982 355.1546391752577 L 240.48094100178642 354.311152764761 L 242.22095909797463 345.59512652296155 L 243.9609771941628 339.83130271790066 L 245.70099529035102 356.2792877225867 L 247.44101338653923 337.4414245548266 L 249.1810314827274 334.6298031865042 L 250.92104957891564 339.69072164948454 L 252.66106767510382 339.5501405810684 L 254.401085771292 338.4254920337395 L 256.14110386748024 331.1152764761012 L 257.8811219636684 331.6776007497657 L 259.62114005985666 326.7572633552015 L 261.36115815604484 328.1630740393627 L 263.101176252233 335.4732895970009 L 264.84119434842125 334.4892221180881 L 266.58121244460943 327.03842549203375 L 268.3212305407976 327.03842549203375 L 270.06124863698585 326.47610121836925 L 271.80126673317403 320.5716963448922 L 273.5412848293622 315.7919400187441 L 275.28130292555045 317.9006560449859 L 277.02132102173863 319.0253045923149 L 278.7613391179268 319.44704779756324 L 280.50135721411505 319.58762886597935 L 282.2413753103033 319.58762886597935 L 283.9813934064914 320.00937207122774 L 285.72141150267964 323.9456419868791 L 287.4614295988679 324.3673851921275 L 289.20144769505606 317.33833177132146 L 290.94146579124424 317.19775070290535 L 292.6814838874325 314.6672914714152 L 294.42150198362066 312.2774133083411 L 296.16152007980884 314.6672914714152 L 297.9015381759971 315.0890346766635 L 299.64155627218526 311.9962511715089 L 301.38157436837344 308.622305529522 L 303.1215924645617 309.3252108716026 L 304.86161056074985 305.5295220243674 L 306.60162865693803 299.90627928772255 L 308.34164675312627 294.4236176194939 L 310.08166484931445 296.39175257731955 L 311.82168294550263 294.70477975632616 L 313.56170104169087 292.4554826616682 L 315.30171913787905 288.2380506091846 L 317.0475372943879 294.70477975632616 L 318.78175533025546 279.94376757263353 L 320.52177342644364 281.7713214620431 L 322.2617915226318 283.3177132146204 L 324.00180961882006 282.3336457357076 L 325.74182771500824 278.53795688847237 L 327.4876458715171 276.99156513589503 L 329.22186390738466 271.50890346766636 L 330.9618820035729 266.0262417994377 L 332.701900099761 264.33926897844424 L 334.44191819594926 265.6044985941893 L 336.1819362921375 259.9812558575445 L 337.9219543883256 255.62324273664478 L 339.66197248451385 257.1696344892221 L 341.4019905807021 253.93626991565134 L 343.14200867689027 253.79568884723523 L 344.88202677307845 251.96813495782567 L 346.6220448692667 251.54639175257728 L 348.36206296545487 248.03186504217433 L 350.10208106164305 243.5332708528585 L 351.8420991578313 248.875351452671 L 353.58211725401947 242.12746016869727 L 355.32213535020765 238.61293345829426 L 357.0621534463959 230.74039362699153 L 358.80217154258406 223.14901593252108 L 360.54218963877224 222.8678537956888 L 362.2822077349605 222.58669165885658 L 364.02222583114866 220.3373945641987 L 365.76224392733684 222.16494845360825 L 367.5022620235251 222.30552952202436 L 369.24228011971326 219.49390815370197 L 370.98229821590144 226.8041237113402 L 372.7223163120897 223.00843486410497 L 374.46233440827785 224.69540768509842 L 376.20235250446603 221.46204311152763 L 377.9423706006543 220.0562324273664 L 379.6823886968425 219.7750702905342 L 381.42240679303063 221.04029990627924 L 383.16242488921887 218.36925960637296 L 384.9024429854071 223.4301780693533 L 386.64246108159523 216.68228678537957 L 388.38247917778347 223.8519212746017 L 390.1224972739717 223.14901593252108 L 391.8625153701599 227.92877225866914 L 393.60253346634806 226.52296157450797 L 395.3425515625363 223.8519212746017 L 397.0825696587245 214.85473289597002 L 398.82258775491266 215.55763823805057 L 400.5626058511009 210.0749765698219 L 402.3026239472891 215.55763823805057 L 404.04264204347726 209.51265229615746 L 405.7826601396655 206.27928772258667 L 407.5226782358537 209.3720712277413 L 409.26269633204186 209.79381443298968 L 411.0027144282301 214.1518275538894 L 412.7427325244183 209.51265229615746 L 414.48275062060645 208.38800374882845 L 416.2285687771153 211.90253045923146 L 417.96278681298287 207.6850984067479 L 419.70280490917105 203.88940955951261 L 421.4428230053593 201.35895032802244 L 423.18284110154747 204.87347703842545 L 424.9228591977357 199.39081537019678 L 426.6628772939239 201.64011246485472 L 428.40289539011206 192.92408622305527 L 430.1429134863003 187.16026241799437 L 431.8829315824885 184.20805998125581 L 434.23775607266316 179.70946579193998 L 435.9777741688514 185.75445173383315 L 437.7177922650396 189.97188378631677 L 439.45781036122776 188.70665417057165 L 441.197828457416 182.09934395501404 L 442.9378465536042 179.14714151827553 L 444.67786464979235 175.07029053420803 L 446.4178827459806 176.05435801312086 L 448.1579008421688 164.52671040299902 L 449.897918938357 162.55857544517335 L 451.6379370345452 160.59044048734768 L 453.37795513073337 155.107778819119 L 455.1179732269216 150.8903467666354 L 456.8579913231098 149.76569821930644 L 458.59800941929797 150.46860356138706 L 460.3380275154862 144.98594189315838 L 462.0780456116744 136.12933458294282 L 463.81806370786256 131.9119025304592 L 465.5580818040508 131.9119025304592 L 467.298099900239 132.75538894095592 L 469.03811799642716 123.61761949390814 L 470.7781360926154 128.11621368322398 L 472.5181541888036 108.85660731021551 L 474.2581722849918 101.26522961574506 L 475.99819038118 99.99999999999994 L 477.7382084773682 112.2305529522024 L 479.4782265735564 108.43486410496718 L 481.2182446697446 110.26241799437673 L 482.9582627659328 109.2783505154639 L 484.698280862121 119.40018744142452 L 486.4382989583092 111.66822867853796 L 488.17831705449737 113.91752577319585 L 489.9183351506856 125.16401124648547 L 491.6583532468738 129.1002811621368 L 493.39837134306197 137.25398313027176 L 495.1383894392502 134.8641049671977 L 496.8784075354384 134.58294283036548 L 498.61842563162656 138.8003748828491 L 500.3584437278148 149.20337394564194 L 502.098461824003 154.68603561387062 L 503.8384799201912 160.8716026241799 L 505.5784980163794 162.27741330834112 L 507.3185161125676 165.93252108716024 L 509.0585342087558 174.50796626054358 L 510.798552304944 170.43111527647608 L 512.5385704011321 174.50796626054358 L 514.2785884973205 183.22399250234298 L 516.0186065935086 187.01968134957826 L 517.7586246896967 189.12839737582004 L 519.4986427858851 186.31677600749765 L 521.2386608820732 193.48641049671977 L 522.9786789782613 198.96907216494844 L 524.7186970744497 193.2052483598875 L 526.4587151706378 199.10965323336455 L 528.198733266826 209.51265229615746 L 529.9387513630143 211.76194939081535 L 531.6787694592024 217.6663542642924 L 533.4187875553906 217.6663542642924 L 535.1588056515789 226.66354264292409 L 536.898823747767 230.88097469540764 L 538.6388418439552 237.76944704779754 L 540.3788599401435 244.09559512652294 L 542.1188780363316 243.5332708528585 L 543.8588961325198 249.71883786316772 L 545.598914228708 250.1405810684161 L 547.3389323248962 252.2492970946579 L 549.0789504210844 250.56232427366444 L 550.8189685172727 253.0927835051546 L 552.5589866134608 254.35801312089973 L 554.299004709649 255.904404873477 L 556.0390228058372 255.48266166822867 L 557.7790409020254 260.26241799437673 L 559.5190589982136 262.6522961574508 L 561.2590770944018 263.3552014995314 L 562.99909519059 266.8697282099344 L 564.7391132867782 272.0712277413308 L 566.4791313829664 273.05529522024364 L 568.2191494791546 275.3045923149016 L 569.9591675753428 275.5857544517338 L 571.699185671531 272.2118088097469 L 573.4392037677192 267.99437675726335 L 575.1792218639074 268.2755388940956 L 576.9192399600956 271.9306466729147 L 578.6592580562838 274.46110590440486 L 580.399276152472 276.56982193064664 L 582.1392942486602 280.3655107778819 L 583.8793123448484 286.1293345829428 L 585.6193304410366 282.7553889409559 L 587.3593485372248 288.0974695407685 L 589.099366633413 287.53514526710404 L 590.8393847296012 294.8453608247423 L 592.5794028257894 297.09465791940016 L 594.3194209219776 299.06279287722583 L 596.0594390181658 305.107778819119 L 597.799457114354 304.9671977507029 L 599.5394752105422 303.28022492970945 L 601.2794933067305 310.5904404873477 L 603.0195114029186 317.4789128397376 L 604.7595294991067 313.54264292408624 L 606.4995475952951 317.33833177132146 L 608.2395656914832 314.5267104029991 L 609.9795837876713 317.0571696344892 L 611.7196018838597 320.29053420805997 L 613.4596199800478 324.2268041237113 L 615.1996380762359 325.4920337394564 L 616.9396561724243 326.0543580131209 L 618.6796742686124 324.7891283973758 L 620.4196923648005 330.13120899718837 L 622.1597104609889 328.7253983130272 L 623.899728557177 333.0834114339269 L 625.6397466533653 326.19493908153703 L 627.3797647495535 328.8659793814433 L 629.1197828457416 335.3327085285848 L 630.8598009419298 341.09653233364577 L 632.5998190381181 344.7516401124649 L 634.3398371343062 346.5791940018744 L 636.0798552304944 348.1255857544517 L 637.8198733266827 353.04592314901595 L 639.5598914228708 356.70103092783506 L 641.299909519059 360.3561387066542 L 643.0399276152473 364.85473289597 L 644.7799457114354 368.22867853795685 L 646.5199638076236 375.9606373008435 L 648.2599819038119 380.7403936269916 L 650 378.7722586691659 L 650 400 Z" /><text  class="poloto_labels poloto_text poloto_title" alignment-baseline="start" text-anchor="middle" font-size="x-large" x="400" y="37.5" >Total players on 2021-08-19</text><text  class="poloto_labels poloto_text poloto_xname" alignment-baseline="start" text-anchor="middle" font-size="x-large" x="400" y="481.25" >Time</text><text  class="poloto_labels poloto_text poloto_yname" alignment-baseline="start" text-anchor="middle" font-size="x-large" transform="rotate(-90,37.5,250)" x="37.5" y="250" >Count</text><line  class="poloto_axis_lines" stroke="black" x1="207.97740296499083" x2="207.97740296499083" y1="400" y2="405" /><text  class="poloto_tick_labels poloto_text" alignment-baseline="start" text-anchor="middle" x="207.97740296499083" y="430" > 02:46:40</text><line  class="poloto_axis_lines" stroke="black" x1="265.97800617126416" x2="265.97800617126416" y1="400" y2="405" /><text  class="poloto_tick_labels poloto_text" alignment-baseline="start" text-anchor="middle" x="265.97800617126416" y="430" > 05:33:20</text><line  class="poloto_axis_lines" stroke="black" x1="323.9786093775375" x2="323.9786093775375" y1="400" y2="405" /><text  class="poloto_tick_labels poloto_text" alignment-baseline="start" text-anchor="middle" x="323.9786093775375" y="430" > 08:20:00</text><line  class="poloto_axis_lines" stroke="black" x1="381.97921258381086" x2="381.97921258381086" y1="400" y2="405" /><text  class="poloto_tick_labels poloto_text" alignment-baseline="start" text-anchor="middle" x="381.97921258381086" y="430" > 11:06:40</text><line  class="poloto_axis_lines" stroke="black" x1="439.9798157900842" x2="439.9798157900842" y1="400" y2="405" /><text  class="poloto_tick_labels poloto_text" alignment-baseline="start" text-anchor="middle" x="439.9798157900842" y="430" > 13:53:20</text><line  class="poloto_axis_lines" stroke="black" x1="497.98041899635757" x2="497.98041899635757" y1="400" y2="405" /><text  class="poloto_tick_labels poloto_text" alignment-baseline="start" text-anchor="middle" x="497.98041899635757" y="430" > 16:40:00</text><line  class="poloto_axis_lines" stroke="black" x1="555.9810222026309" x2="555.9810222026309" y1="400" y2="405" /><text  class="poloto_tick_labels poloto_text" alignment-baseline="start" text-anchor="middle" x="555.9810222026309" y="430" > 19:26:40</text><line  class="poloto_axis_lines" stroke="black" x1="613.9816254089043" x2="613.9816254089043" y1="400" y2="405" /><text  class="poloto_tick_labels poloto_text" alignment-baseline="start" text-anchor="middle" x="613.9816254089043" y="430" > 22:13:20</text><line  class="poloto_axis_lines" stroke="black" x1="150" x2="144" y1="377.5070290534208" y2="377.5070290534208" /><text  class="poloto_tick_labels poloto_text" alignment-baseline="middle" text-anchor="end" x="135" y="377.5070290534208" > 1500</text><line  class="poloto_axis_lines" stroke="black" x1="150" x2="144" y1="307.21649484536084" y2="307.21649484536084" /><text  class="poloto_tick_labels poloto_text" alignment-baseline="middle" text-anchor="end" x="135" y="307.21649484536084" > 2000</text><line  class="poloto_axis_lines" stroke="black" x1="150" x2="144" y1="236.92596063730082" y2="236.92596063730082" /><text  class="poloto_tick_labels poloto_text" alignment-baseline="middle" text-anchor="end" x="135" y="236.92596063730082" > 2500</text><line  class="poloto_axis_lines" stroke="black" x1="150" x2="144" y1="166.63542642924085" y2="166.63542642924085" /><text  class="poloto_tick_labels poloto_text" alignment-baseline="middle" text-anchor="end" x="135" y="166.63542642924085" > 3000</text><path  stroke="black" fill="none" class="poloto_axis_lines" style="stroke-dasharray:14.500150801568337;stroke-dashoffset:-57.97740296499084;" d=" M 150 400 L 650 400" /><path  stroke="black" fill="none" class="poloto_axis_lines" style="stroke-dasharray:7.029053420805998;stroke-dashoffset:-22.49297094657919;" d=" M 150 400 L 150 100" /></svg>