<svg class="poloto" width="800" height="500" viewBox="0 0 800 500" xmlns="http://www.w3.org/2000/svg"><style>.poloto { stroke-linecap:round; stroke-linejoin:round; font-family: 'Tahoma', sans-serif; background-color: AliceBlue;} .poloto_scatter{stroke-width:7} .poloto_line{stroke-width:2} .poloto_text{fill: black;} .poloto_axis_lines{stroke: black;stroke-width:3;fill:none;stroke-dasharray:none} .poloto0stroke{stroke:  blue;} .poloto1stroke{stroke:  red;} .poloto2stroke{stroke:  green;} .poloto3stroke{stroke:  gold;} .poloto4stroke{stroke:  aqua;} .poloto5stroke{stroke:  lime;} .poloto6stroke{stroke:  orange;} .poloto7stroke{stroke:  chocolate;} .poloto0fill{fill:blue;} .poloto1fill{fill:red;} .poloto2fill{fill:green;} .poloto3fill{fill:gold;} .poloto4fill{fill:aqua;} .poloto5fill{fill:lime;} .poloto6fill{fill:orange;} .poloto7fill{fill:chocolate;}</style><text  class="poloto_text poloto_legend_text" alignment-baseline="middle" text-anchor="start" font-size="large" x="675" y="100" ></text><path  class="poloto_linefill poloto0fill" d=" M 150 400 L 150 349.56575682382135 L 151.74216027874564 352.9156327543424 L 153.4843205574913 355.893300248139 L 155.22648083623693 363.5235732009926 L 156.96864111498257 359.42928039702235 L 158.71080139372822 359.0570719602978 L 160.45296167247386 359.24317617866006 L 162.1951219512195 367.43176178660053 L 163.93728222996515 369.6650124069479 L 165.6794425087108 374.87593052109185 L 167.42160278745644 372.8287841191067 L 169.16376306620208 379.3424317617866 L 170.90592334494772 386.9727047146402 L 172.64808362369337 385.66997518610424 L 174.390243902439 390.50868486352357 L 176.13240418118465 389.2059553349876 L 177.8745644599303 392.5558312655087 L 179.61672473867597 392.1836228287841 L 181.3588850174216 394.7890818858561 L 183.10104529616726 389.0198511166253 L 184.8432055749129 381.7617866004963 L 186.58536585365854 381.01736972704714 L 188.3275261324042 376.1786600496278 L 190.06968641114983 375.80645161290323 L 191.81184668989548 379.90074441687347 L 193.55400696864112 385.66997518610424 L 195.29616724738676 380.272952853598 L 197.0383275261324 381.7617866004963 L 198.78048780487805 389.3920595533499 L 200.5226480836237 383.6228287841191 L 202.26480836236934 383.43672456575683 L 204.00696864111498 383.99503722084364 L 205.74912891986062 389.2059553349876 L 207.49128919860627 386.9727047146402 L 209.2334494773519 386.0421836228288 L 210.97560975609755 392.741935483871 L 212.7177700348432 392.3697270471464 L 214.45993031358887 395.5334987593052 L 216.2020905923345 388.46153846153845 L 217.94425087108016 380.08684863523575 L 219.6864111498258 381.2034739454094 L 221.42857142857144 381.2034739454094 L 223.1707317073171 379.7146401985112 L 224.91289198606273 385.1116625310174 L 226.65505226480838 386.9727047146402 L 228.39721254355402 384.5533498759305 L 230.13937282229966 389.3920595533499 L 231.8815331010453 386.0421836228288 L 233.62369337979095 385.1116625310174 L 235.3658536585366 389.7642679900745 L 237.10801393728224 391.62531017369724 L 238.85017421602788 390.88089330024815 L 240.59233449477352 390.13647642679905 L 242.33449477351917 399.44168734491313 L 244.0766550522648 396.8362282878412 L 245.81881533101046 397.0223325062035 L 247.5609756097561 398.88337468982627 L 249.30313588850174 400 L 251.0452961672474 397.2084367245658 L 252.78745644599303 398.69727047146404 L 254.52961672473867 395.3473945409429 L 256.2717770034843 397.3945409429281 L 258.01393728222996 396.8362282878412 L 259.7560975609756 394.4168734491315 L 261.49825783972125 395.5334987593052 L 263.2404181184669 389.0198511166253 L 264.98257839721254 384.7394540942928 L 266.7247386759582 383.06451612903226 L 268.4668989547038 381.3895781637717 L 270.20905923344947 373.9454094292804 L 271.9512195121951 369.6650124069479 L 273.69337979094075 369.2928039702233 L 275.4355400696864 364.454094292804 L 277.17770034843204 369.106699751861 L 278.91986062717774 369.2928039702233 L 280.6620209059233 367.6178660049628 L 282.404181184669 366.6873449131514 L 284.1463414634146 365.75682382133994 L 285.8885017421603 367.6178660049628 L 287.6306620209059 370.03722084367246 L 289.3728222996516 370.5955334987593 L 291.1149825783972 369.85111662531017 L 292.8571428571429 372.8287841191067 L 294.5993031358885 375.06203473945413 L 296.3414634146342 374.68982630272956 L 298.08362369337976 372.45657568238215 L 299.82578397212546 372.0843672456576 L 301.56794425087105 369.2928039702233 L 303.31010452961675 368.17617866004963 L 305.05226480836234 363.89578163771716 L 306.79442508710804 364.64019851116626 L 308.5365853658536 366.3151364764268 L 310.2787456445993 364.454094292804 L 312.0209059233449 355.893300248139 L 313.7630662020906 356.6377171215881 L 315.5052264808362 353.4739454094293 L 317.2473867595819 352.9156327543424 L 318.9895470383275 355.14888337468983 L 320.7317073170732 351.0545905707196 L 322.4738675958188 358.8709677419355 L 324.2160278745645 346.029776674938 L 325.9581881533101 342.67990074441684 L 327.70034843205576 340.0744416873449 L 329.4425087108014 337.0967741935484 L 331.18466898954705 330.0248138957817 L 332.9268292682927 341.37717121588094 L 334.66898954703834 334.6774193548387 L 336.411149825784 334.863523573201 L 338.1533101045296 330.3970223325062 L 339.89547038327527 323.32506203473946 L 341.6376306620209 319.6029776674938 L 343.37979094076655 317.1836228287841 L 345.1219512195122 309.3672456575682 L 346.86411149825784 308.06451612903226 L 348.6062717770035 308.06451612903226 L 350.34843205574913 304.1563275434243 L 352.0905923344948 301.9230769230769 L 353.8327526132404 289.0818858560794 L 355.57491289198606 280.893300248139 L 357.3170731707317 290.57071960297765 L 359.05923344947735 282.19602977667495 L 360.801393728223 277.54342431761785 L 362.54355400696863 275.1240694789082 L 364.2857142857143 275.8684863523573 L 366.0278745644599 275.49627791563273 L 367.77003484320556 270.6575682382134 L 369.5121951219512 271.7741935483871 L 371.25435540069685 268.6104218362283 L 372.9965156794425 263.58560794044666 L 374.73867595818814 261.35235732009926 L 376.4808362369338 259.30521091811414 L 378.2229965156795 260.0496277915633 L 379.96515679442507 252.04714640198512 L 381.70731707317077 255.02481389578162 L 383.44947735191636 248.32506203473946 L 385.19163763066206 242.92803970223326 L 386.93379790940764 248.51116625310175 L 388.67595818815334 249.06947890818861 L 390.41811846689893 239.3920595533499 L 392.16027874564463 238.83374689826303 L 393.9024390243902 243.67245657568236 L 395.6445993031359 269.16873449131515 L 397.3867595818815 225.80645161290323 L 399.1289198606272 225.43424317617865 L 400.8710801393728 232.13399503722087 L 402.6132404181185 219.4789081885856 L 404.3554006968641 214.45409429280397 L 406.0975609756098 209.61538461538464 L 407.8397212543554 205.89330024813898 L 409.58188153310107 198.6352357320099 L 411.3240418118467 195.4714640198511 L 413.06620209059236 199.56575682382135 L 414.808362369338 193.98263027295286 L 416.55052264808364 187.28287841191064 L 418.2926829268293 185.0496277915633 L 420.03484320557493 214.26799007444168 L 421.7770034843206 182.6302729528536 L 423.5191637630662 182.8163771712159 L 425.26132404181186 169.6029776674938 L 427.0034843205575 164.3920595533499 L 428.74564459930315 162.9032258064516 L 430.4878048780488 160.85607940446653 L 432.22996515679444 152.85359801488835 L 433.9721254355401 154.71464019851118 L 435.7142857142857 149.8759305210918 L 437.45644599303137 149.8759305210918 L 439.198606271777 150.06203473945408 L 440.94076655052265 142.05955334987596 L 442.6829268292683 144.10669975186102 L 444.42508710801394 136.1042183622829 L 446.1672473867596 133.4987593052109 L 447.9094076655052 125.68238213399502 L 449.65156794425087 128.287841191067 L 451.3937282229965 118.61042183622828 L 453.13588850174216 113.95781637717118 L 454.8780487804878 123.0769230769231 L 456.62020905923345 118.98263027295286 L 458.3623693379791 118.424317617866 L 460.10452961672473 120.6575682382134 L 461.8466898954704 113.21339950372209 L 463.588850174216 116.0049627791563 L 465.33101045296166 112.09677419354836 L 467.0731707317073 123.44913151364761 L 468.81533101045295 118.05210918114142 L 470.5574912891986 112.84119106699751 L 472.29965156794424 102.60545905707198 L 474.0418118466899 105.3970223325062 L 475.7839721254355 103.72208436724566 L 477.52613240418117 103.53598014888337 L 479.2682926829268 103.16377171215879 L 481.01045296167246 100 L 482.7526132404181 108.00248138957818 L 484.49477351916374 107.81637717121589 L 486.2369337979094 112.84119106699751 L 487.97909407665503 113.21339950372209 L 489.7212543554007 114.88833746898263 L 491.4634146341463 120.09925558312653 L 493.20557491289196 125.49627791563273 L 494.9477351916376 140.75682382133994 L 496.68989547038325 150.06203473945408 L 498.4320557491289 148.75930521091811 L 500.17421602787454 145.59553349875932 L 501.91637630662024 159.92555831265508 L 503.6585365853659 158.43672456575683 L 505.4006968641115 159.92555831265508 L 507.14285714285717 166.25310173697272 L 508.8850174216028 164.76426799007442 L 510.62717770034845 167.5558312655087 L 512.3693379790941 170.3473945409429 L 514.1114982578397 173.13895781637717 L 515.8536585365854 180.2109181141439 L 517.5958188153311 182.8163771712159 L 519.3379790940767 180.58312655086849 L 521.0801393728223 188.77171215880895 L 522.822299651568 188.77171215880895 L 524.5644599303137 191.1910669975186 L 526.3066202090592 190.81885856079407 L 528.0487804878048 187.46898263027293 L 529.7909407665505 195.4714640198511 L 531.5331010452962 207.19602977667495 L 533.2752613240418 196.77419354838707 L 535.0174216027874 191.56327543424317 L 536.7595818815331 184.863523573201 L 538.5017421602788 176.48883374689825 L 540.2439024390244 177.60545905707198 L 541.98606271777 177.60545905707198 L 543.7282229965157 172.0223325062035 L 545.4703832752614 180.58312655086849 L 547.212543554007 178.1637717121588 L 548.9547038327526 188.39950372208438 L 550.6968641114983 191.74937965260546 L 552.439024390244 191.74937965260546 L 554.1811846689895 180.95533498759306 L 555.9233449477351 179.6526054590571 L 557.6655052264808 186.53846153846155 L 559.4076655052265 194.91315136476425 L 561.1498257839721 207.7543424317618 L 562.8919860627177 204.96277915632754 L 564.6341463414634 206.82382133995037 L 566.3763066202091 217.05955334987596 L 568.1184668989547 218.92059553349878 L 569.8606271777003 231.7617866004963 L 571.602787456446 227.48138957816377 L 573.3449477351917 222.64267990074444 L 575.0871080139373 224.31761786600498 L 576.8292682926829 223.01488833746896 L 578.5714285714286 221.712158808933 L 580.3135888501743 230.27295285359804 L 582.0557491289198 222.08436724565757 L 583.7979094076654 228.03970223325064 L 585.5400696864111 226.55086848635239 L 587.2822299651568 227.29528535980148 L 589.0243902439024 235.29776674937966 L 590.766550522648 238.27543424317616 L 592.5087108013937 243.11414392059555 L 594.2508710801394 246.09181141439205 L 595.993031358885 247.2084367245658 L 597.7351916376306 251.11662531017367 L 599.4773519163763 257.8163771712159 L 601.219512195122 257.8163771712159 L 602.9616724738676 268.98263027295286 L 604.7038327526133 266.00496277915636 L 606.445993031359 268.6104218362283 L 608.1881533101046 273.2630272952854 L 609.9303135888501 274.0074441687345 L 611.6724738675958 273.2630272952854 L 613.4146341463415 279.2183622828784 L 615.1567944250871 274.19354838709677 L 616.8989547038327 276.61290322580646 L 618.6411149825784 283.8709677419355 L 620.3832752613241 294.1066997518611 L 622.1254355400697 291.1290322580645 L 623.8675958188153 288.7096774193548 L 625.609756097561 293.17617866004963 L 627.3519163763067 303.59801488833745 L 629.0940766550523 306.01736972704714 L 630.8362369337979 308.6228287841191 L 632.5783972125436 314.0198511166253 L 634.3205574912893 313.0893300248139 L 636.0627177700349 319.044665012407 L 637.8048780487804 319.6029776674938 L 639.5470383275261 327.4193548387097 L 641.2891986062718 334.863523573201 L 643.0313588850174 336.16625310173697 L 644.773519163763 342.67990074441684 L 646.5156794425087 343.6104218362283 L 648.2578397212544 342.67990074441684 L 650 344.9131513647643 L 650 400 Z" /><text  class="poloto_labels poloto_text poloto_title" alignment-baseline="start" text-anchor="middle" font-size="x-large" x="400" y="37.5" >Total players on 2021-11-02</text><text  class="poloto_labels poloto_text poloto_xname" alignment-baseline="start" text-anchor="middle" font-size="x-large" x="400" y="481.25" >Time</text><text  class="poloto_labels poloto_text poloto_yname" alignment-baseline="start" text-anchor="middle" font-size="x-large" transform="rotate(-90,37.5,250)" x="37.5" y="250" >Count</text><line  class="poloto_axis_lines" stroke="black" x1="150" x2="150" y1="400" y2="405" /><text  class="poloto_tick_labels poloto_text" alignment-baseline="start" text-anchor="middle" x="150" y="430" > 00:00:00</text><line  class="poloto_axis_lines" stroke="black" x1="266.14401858304296" x2="266.14401858304296" y1="400" y2="405" /><text  class="poloto_tick_labels poloto_text" alignment-baseline="start" text-anchor="middle" x="266.14401858304296" y="430" > 05:33:20</text><line  class="poloto_axis_lines" stroke="black" x1="382.2880371660859" x2="382.2880371660859" y1="400" y2="405" /><text  class="poloto_tick_labels poloto_text" alignment-baseline="start" text-anchor="middle" x="382.2880371660859" y="430" > 11:06:40</text><line  class="poloto_axis_lines" stroke="black" x1="498.4320557491289" x2="498.4320557491289" y1="400" y2="405" /><text  class="poloto_tick_labels poloto_text" alignment-baseline="start" text-anchor="middle" x="498.4320557491289" y="430" > 16:40:00</text><line  class="poloto_axis_lines" stroke="black" x1="614.5760743321719" x2="614.5760743321719" y1="400" y2="405" /><text  class="poloto_tick_labels poloto_text" alignment-baseline="start" text-anchor="middle" x="614.5760743321719" y="430" > 22:13:20</text><line  class="poloto_axis_lines" stroke="black" x1="150" x2="144" y1="373.7593052109181" y2="373.7593052109181" /><text  class="poloto_tick_labels poloto_text" alignment-baseline="middle" text-anchor="end" x="135" y="373.7593052109181" > 1000</text><line  class="poloto_axis_lines" stroke="black" x1="150" x2="144" y1="280.7071960297767" y2="280.7071960297767" /><text  class="poloto_tick_labels poloto_text" alignment-baseline="middle" text-anchor="end" x="135" y="280.7071960297767" > 1500</text><line  class="poloto_axis_lines" stroke="black" x1="150" x2="144" y1="187.65508684863522" y2="187.65508684863522" /><text  class="poloto_tick_labels poloto_text" alignment-baseline="middle" text-anchor="end" x="135" y="187.65508684863522" > 2000</text><path  stroke="black" fill="none" class="poloto_axis_lines" style="stroke-dasharray:14.518002322880372;stroke-dashoffset:-0;" d=" M 150 400 L 650 400" /><path  stroke="black" fill="none" class="poloto_axis_lines" style="stroke-dasharray:9.305210918114145;stroke-dashoffset:-26.240694789081886;" d=" M 150 400 L 150 100" /></svg>