<svg class="poloto" width="800" height="500" viewBox="0 0 800 500" xmlns="http://www.w3.org/2000/svg"><style>.poloto { stroke-linecap:round; stroke-linejoin:round; font-family: 'Tahoma', sans-serif; background-color: AliceBlue;} .poloto_scatter{stroke-width:7} .poloto_line{stroke-width:2} .poloto_text{fill: black;} .poloto_axis_lines{stroke: black;stroke-width:3;fill:none;stroke-dasharray:none} .poloto0stroke{stroke:  blue;} .poloto1stroke{stroke:  red;} .poloto2stroke{stroke:  green;} .poloto3stroke{stroke:  gold;} .poloto4stroke{stroke:  aqua;} .poloto5stroke{stroke:  lime;} .poloto6stroke{stroke:  orange;} .poloto7stroke{stroke:  chocolate;} .poloto0fill{fill:blue;} .poloto1fill{fill:red;} .poloto2fill{fill:green;} .poloto3fill{fill:gold;} .poloto4fill{fill:aqua;} .poloto5fill{fill:lime;} .poloto6fill{fill:orange;} .poloto7fill{fill:chocolate;}</style><text  class="poloto_text poloto_legend_text" alignment-baseline="middle" text-anchor="start" font-size="large" x="675" y="100" ></text><path  class="poloto_linefill poloto0fill" d=" M 150 400 L 150 354.91245136186774 L 151.74216027874564 358.852140077821 L 153.4843205574913 359.43579766536965 L 155.22648083623693 357.5389105058366 L 156.96864111498257 361.7704280155642 L 158.71080139372822 358.852140077821 L 160.45296167247386 360.4571984435798 L 162.1951219512195 360.3112840466926 L 163.93728222996515 365.56420233463035 L 165.6794425087108 369.94163424124514 L 167.42160278745644 375.04863813229576 L 169.16376306620208 376.9455252918288 L 170.90592334494772 382.636186770428 L 172.64808362369337 381.3229571984436 L 174.390243902439 383.3657587548638 L 176.13240418118465 385.55447470817126 L 177.8745644599303 387.30544747081717 L 179.61672473867597 387.4513618677043 L 181.3588850174216 385.4085603112841 L 183.10104529616726 383.80350194552534 L 184.8432055749129 381.0311284046693 L 186.58536585365854 378.6964980544747 L 188.3275261324042 376.9455252918288 L 190.06968641114983 376.07003891050584 L 191.81184668989548 381.6147859922179 L 193.55400696864112 386.13813229571986 L 195.29616724738676 386.4299610894942 L 197.0383275261324 387.15953307393 L 198.78048780487805 387.0136186770428 L 200.5226480836237 382.7821011673152 L 202.26480836236934 385.8463035019455 L 204.00696864111498 383.2198443579766 L 205.74912891986062 383.0739299610895 L 207.49128919860627 381.4688715953307 L 209.2334494773519 382.19844357976655 L 210.97560975609755 384.6789883268483 L 212.7177700348432 385.2626459143969 L 214.45993031358887 387.5972762645914 L 216.2020905923345 391.2451361867704 L 217.94425087108016 385.4085603112841 L 219.6864111498258 385.8463035019455 L 221.42857142857144 388.76459143968873 L 223.1707317073171 392.5583657587549 L 224.91289198606273 394.6011673151751 L 226.65505226480838 400 L 228.39721254355402 399.12451361867704 L 230.13937282229966 397.6653696498055 L 231.8815331010453 393.579766536965 L 233.62369337979095 392.5583657587549 L 235.3658536585366 391.68287937743196 L 237.10801393728224 391.68287937743196 L 238.85017421602788 391.8287937743191 L 240.59233449477352 390.807392996109 L 242.33449477351917 392.41245136186774 L 244.0766550522648 391.09922178988325 L 245.81881533101046 389.34824902723733 L 247.5609756097561 388.32684824902725 L 249.30313588850174 392.70428015564204 L 251.0452961672474 393.2879377431907 L 252.78745644599303 392.85019455252916 L 254.52961672473867 393.4338521400778 L 256.2717770034843 389.4941634241245 L 258.01393728222996 386.86770428015564 L 259.7560975609756 379.5719844357977 L 261.49825783972125 382.7821011673152 L 263.2404181184669 383.65758754863816 L 264.98257839721254 383.65758754863816 L 266.7247386759582 379.42607003891055 L 268.4668989547038 376.5077821011673 L 270.20905923344947 374.1731517509728 L 271.9512195121951 371.1089494163424 L 273.69337979094075 371.54669260700393 L 275.4355400696864 375.04863813229576 L 277.17770034843204 372.13035019455253 L 278.91986062717774 373.88132295719845 L 280.6620209059233 373.29766536964985 L 282.404181184669 371.8385214007782 L 284.1463414634146 374.46498054474705 L 285.8885017421603 373.73540856031127 L 287.6306620209059 378.6964980544747 L 289.3728222996516 383.80350194552534 L 291.1149825783972 384.5330739299611 L 292.8571428571429 390.51556420233464 L 294.5993031358885 387.30544747081717 L 296.3414634146342 388.9105058365759 L 298.08362369337976 385.7003891050584 L 299.82578397212546 382.19844357976655 L 301.56794425087105 382.49027237354085 L 303.31010452961675 385.1167315175097 L 305.05226480836234 387.30544747081717 L 306.79442508710804 387.4513618677043 L 308.5365853658536 381.3229571984436 L 310.2787456445993 388.03501945525295 L 312.0209059233449 380.44747081712063 L 313.7630662020906 382.19844357976655 L 315.5052264808362 379.5719844357977 L 317.2473867595819 378.11284046692606 L 318.9895470383275 372.2762645914397 L 320.7317073170732 372.8599221789883 L 322.4738675958188 369.64980544747084 L 324.2160278745645 368.1906614785992 L 325.9581881533101 365.41828793774323 L 327.70034843205576 363.52140077821014 L 329.4425087108014 358.41439688715957 L 331.18466898954705 352.28599221789887 L 332.9268292682927 354.4747081712062 L 334.66898954703834 344.99027237354085 L 336.411149825784 340.32101167315176 L 338.1533101045296 342.94747081712063 L 339.89547038327527 337.2568093385214 L 341.6376306620209 333.90077821011675 L 343.37979094076655 331.2743190661479 L 345.1219512195122 333.90077821011675 L 346.86411149825784 333.0252918287938 L 348.6062717770035 325.7295719844358 L 350.34843205574913 318.2879377431907 L 352.0905923344948 317.1206225680934 L 353.8327526132404 312.7431906614786 L 355.57491289198606 311.57587548638134 L 357.3170731707317 308.511673151751 L 359.05923344947735 307.34435797665367 L 360.801393728223 304.1342412451362 L 362.54355400696863 299.9027237354086 L 364.2857142857143 302.0914396887159 L 366.0278745644599 303.4046692607004 L 367.77003484320556 299.7568093385214 L 369.5121951219512 292.16926070038915 L 371.25435540069685 287.79182879377436 L 372.9965156794425 280.9338521400778 L 374.73867595818814 279.3287937743191 L 376.4808362369338 267.9474708171206 L 378.2229965156795 262.2568093385214 L 379.96515679442507 264.7373540856031 L 381.70731707317077 266.19649805447466 L 383.44947735191636 263.27821011673154 L 385.19163763066206 255.83657587548637 L 386.93379790940764 250.875486381323 L 388.67595818815334 254.96108949416342 L 390.41811846689893 253.06420233463038 L 392.16027874564463 241.24513618677045 L 393.9024390243902 250.58365758754863 L 395.6445993031359 239.20233463035018 L 397.3867595818815 239.49416342412454 L 399.1289198606272 234.8249027237354 L 400.8710801393728 226.65369649805447 L 402.6132404181185 221.25486381322955 L 404.3554006968641 215.27237354085602 L 406.0975609756098 214.10505836575877 L 407.8397212543554 201.84824902723736 L 409.58188153310107 200.38910505836574 L 411.3240418118467 188.4241245136187 L 413.06620209059236 188.27821011673151 L 414.808362369338 185.79766536964982 L 416.55052264808364 184.0466926070039 L 418.2926829268293 184.19260700389103 L 420.03484320557493 179.08560311284046 L 421.7770034843206 174.85408560311285 L 423.5191637630662 178.06420233463032 L 425.26132404181186 181.42023346303503 L 427.0034843205575 165.9533073929961 L 428.74564459930315 161.86770428015566 L 430.4878048780488 166.24513618677045 L 432.22996515679444 156.76070038910504 L 433.9721254355401 151.07003891050582 L 435.7142857142857 148.7354085603113 L 437.45644599303137 142.89883268482492 L 439.198606271777 130.35019455252916 L 440.94076655052265 135.6031128404669 L 442.6829268292683 131.07976653696494 L 444.42508710801394 125.53501945525295 L 446.1672473867596 113.27821011673154 L 447.9094076655052 109.04669260700393 L 449.65156794425087 102.77237354085605 L 451.3937282229965 110.06809338521396 L 453.13588850174216 103.79377431906619 L 454.8780487804878 100 L 456.62020905923345 103.0642023346303 L 458.3623693379791 105.98249027237352 L 460.10452961672473 104.23151750972761 L 461.8466898954704 105.69066147859917 L 463.588850174216 108.31712062256804 L 465.33101045296166 109.48443579766536 L 467.0731707317073 109.77626459143971 L 468.81533101045295 114.1536964980545 L 470.5574912891986 104.66926070038915 L 472.29965156794424 100.72957198443578 L 474.0418118466899 135.31128404669255 L 475.7839721254355 128.8910505836576 L 477.52613240418117 108.75486381322958 L 479.2682926829268 107.00389105058366 L 481.01045296167246 112.40272373540859 L 482.7526132404181 114.00778210116732 L 484.49477351916374 114.1536964980545 L 486.2369337979094 115.75875486381324 L 487.97909407665503 133.2684824902724 L 489.7212543554007 108.6089494163424 L 491.4634146341463 111.23540856031127 L 493.20557491289196 107.00389105058366 L 494.9477351916376 120.71984435797663 L 496.68989547038325 125.8268482490272 L 498.4320557491289 134.87354085603113 L 500.17421602787454 142.75291828793775 L 501.91637630662024 149.61089494163426 L 503.6585365853659 153.6964980544747 L 505.4006968641115 165.9533073929961 L 507.14285714285717 167.8501945525292 L 508.8850174216028 177.62645914396884 L 510.62717770034845 177.9182879377432 L 512.3693379790941 179.23151750972764 L 514.1114982578397 181.56614785992215 L 515.8536585365854 179.96108949416342 L 517.5958188153311 176.60505836575877 L 519.3379790940767 181.27431906614785 L 521.0801393728223 182.1498054474708 L 522.822299651568 185.50583657587546 L 524.5644599303137 206.95525291828793 L 526.3066202090592 202.72373540856032 L 528.0487804878048 201.84824902723736 L 529.7909407665505 212.79182879377433 L 531.5331010452962 212.79182879377433 L 533.2752613240418 217.02334630350194 L 535.0174216027874 212.79182879377433 L 536.7595818815331 220.52529182879377 L 538.5017421602788 223.7354085603113 L 540.2439024390244 223.88132295719842 L 541.98606271777 222.85992217898834 L 543.7282229965157 227.6750972762646 L 545.4703832752614 234.67898832684827 L 547.212543554007 233.8035019455253 L 548.9547038327526 236.13813229571983 L 550.6968641114983 242.99610894941637 L 552.439024390244 242.26653696498053 L 554.1811846689895 246.7898832684825 L 555.9233449477351 247.37354085603116 L 557.6655052264808 247.37354085603116 L 559.4076655052265 245.62256809338524 L 561.1498257839721 255.83657587548637 L 562.8919860627177 265.75875486381324 L 564.6341463414634 261.5272373540856 L 566.3763066202091 259.192607003891 L 568.1184668989547 256.8579766536965 L 569.8606271777003 262.2568093385214 L 571.602787456446 253.2101167315175 L 573.3449477351917 253.93968871595334 L 575.0871080139373 264.2996108949417 L 576.8292682926829 264.44552529182874 L 578.5714285714286 262.2568093385214 L 580.3135888501743 265.61284046692606 L 582.0557491289198 271.4494163424124 L 583.7979094076654 267.363813229572 L 585.5400696864111 272.0330739299611 L 587.2822299651568 271.88715953307394 L 589.0243902439024 279.3287937743191 L 590.766550522648 273.2003891050583 L 592.5087108013937 270.136186770428 L 594.2508710801394 271.011673151751 L 595.993031358885 267.9474708171206 L 597.7351916376306 268.67704280155647 L 599.4773519163763 271.4494163424124 L 601.219512195122 270.8657587548638 L 602.9616724738676 278.59922178988325 L 604.7038327526133 279.1828793774319 L 606.445993031359 279.1828793774319 L 608.1881533101046 287.79182879377436 L 609.9303135888501 293.7743190661479 L 611.6724738675958 298.29766536964985 L 613.4146341463415 292.4610894941634 L 615.1567944250871 292.16926070038915 L 616.8989547038327 291.58560311284043 L 618.6411149825784 293.33657587548635 L 620.3832752613241 294.3579766536965 L 622.1254355400697 300.04863813229576 L 623.8675958188153 302.0914396887159 L 625.609756097561 298.44357976653697 L 627.3519163763067 305.3015564202335 L 629.0940766550523 307.19844357976655 L 630.8362369337979 306.0311284046693 L 632.5783972125436 309.0953307392996 L 634.3205574912893 311.57587548638134 L 636.0627177700349 335.65175097276267 L 637.8048780487804 334.3385214007782 L 639.5470383275261 339.5914396887159 L 641.2891986062718 337.1108949416342 L 643.0313588850174 334.7762645914397 L 644.773519163763 329.08560311284043 L 646.5156794425087 341.488326848249 L 648.2578397212544 344.99027237354085 L 650 341.6342412451362 L 650 400 Z" /><text  class="poloto_labels poloto_text poloto_title" alignment-baseline="start" text-anchor="middle" font-size="x-large" x="400" y="37.5" >Total players on 2021-11-05</text><text  class="poloto_labels poloto_text poloto_xname" alignment-baseline="start" text-anchor="middle" font-size="x-large" x="400" y="481.25" >Time</text><text  class="poloto_labels poloto_text poloto_yname" alignment-baseline="start" text-anchor="middle" font-size="x-large" transform="rotate(-90,37.5,250)" x="37.5" y="250" >Count</text><line  class="poloto_axis_lines" stroke="black" x1="150" x2="150" y1="400" y2="405" /><text  class="poloto_tick_labels poloto_text" alignment-baseline="start" text-anchor="middle" x="150" y="430" > 00:00</text><line  class="poloto_axis_lines" stroke="black" x1="266.14401858304296" x2="266.14401858304296" y1="400" y2="405" /><text  class="poloto_tick_labels poloto_text" alignment-baseline="start" text-anchor="middle" x="266.14401858304296" y="430" > 06:00</text><line  class="poloto_axis_lines" stroke="black" x1="382.2880371660859" x2="382.2880371660859" y1="400" y2="405" /><text  class="poloto_tick_labels poloto_text" alignment-baseline="start" text-anchor="middle" x="382.2880371660859" y="430" > 11:00</text><line  class="poloto_axis_lines" stroke="black" x1="498.4320557491289" x2="498.4320557491289" y1="400" y2="405" /><text  class="poloto_tick_labels poloto_text" alignment-baseline="start" text-anchor="middle" x="498.4320557491289" y="430" > 17:00</text><line  class="poloto_axis_lines" stroke="black" x1="614.5760743321719" x2="614.5760743321719" y1="400" y2="405" /><text  class="poloto_tick_labels poloto_text" alignment-baseline="start" text-anchor="middle" x="614.5760743321719" y="430" > 22:00</text><line  class="poloto_axis_lines" stroke="black" x1="150" x2="144" y1="385.7003891050584" y2="385.7003891050584" /><text  class="poloto_tick_labels poloto_text" alignment-baseline="middle" text-anchor="end" x="135" y="385.7003891050584" > 1000</text><line  class="poloto_axis_lines" stroke="black" x1="150" x2="144" y1="312.7431906614786" y2="312.7431906614786" /><text  class="poloto_tick_labels poloto_text" alignment-baseline="middle" text-anchor="end" x="135" y="312.7431906614786" > 1500</text><line  class="poloto_axis_lines" stroke="black" x1="150" x2="144" y1="239.78599221789887" y2="239.78599221789887" /><text  class="poloto_tick_labels poloto_text" alignment-baseline="middle" text-anchor="end" x="135" y="239.78599221789887" > 2000</text><line  class="poloto_axis_lines" stroke="black" x1="150" x2="144" y1="166.82879377431902" y2="166.82879377431902" /><text  class="poloto_tick_labels poloto_text" alignment-baseline="middle" text-anchor="end" x="135" y="166.82879377431902" > 2500</text><path  stroke="black" fill="none" class="poloto_axis_lines" style="stroke-dasharray:14.518002322880372;stroke-dashoffset:-0;" d=" M 150 400 L 650 400" /><path  stroke="black" fill="none" class="poloto_axis_lines" style="stroke-dasharray:7.295719844357977;stroke-dashoffset:-14.299610894941623;" d=" M 150 400 L 150 100" /></svg>