<svg class="poloto" width="800" height="500" viewBox="0 0 800 500" xmlns="http://www.w3.org/2000/svg"><style>.poloto { stroke-linecap:round; stroke-linejoin:round; font-family: 'Tahoma', sans-serif; background-color: AliceBlue;} .poloto_scatter{stroke-width:7} .poloto_line{stroke-width:2} .poloto_text{fill: black;} .poloto_axis_lines{stroke: black;stroke-width:3;fill:none;stroke-dasharray:none} .poloto0stroke{stroke:  blue;} .poloto1stroke{stroke:  red;} .poloto2stroke{stroke:  green;} .poloto3stroke{stroke:  gold;} .poloto4stroke{stroke:  aqua;} .poloto5stroke{stroke:  lime;} .poloto6stroke{stroke:  orange;} .poloto7stroke{stroke:  chocolate;} .poloto0fill{fill:blue;} .poloto1fill{fill:red;} .poloto2fill{fill:green;} .poloto3fill{fill:gold;} .poloto4fill{fill:aqua;} .poloto5fill{fill:lime;} .poloto6fill{fill:orange;} .poloto7fill{fill:chocolate;}</style><text  class="poloto_text poloto_legend_text" alignment-baseline="middle" text-anchor="start" font-size="large" x="675" y="100" ></text><path  class="poloto_linefill poloto0fill" d=" M 150 400 L 150 352.3255813953488 L 151.74216027874564 355.3779069767442 L 153.4843205574913 361.6279069767442 L 155.22648083623693 366.4244186046512 L 156.96864111498257 366.1337209302326 L 158.71080139372822 367.58720930232556 L 160.45296167247386 369.62209302325584 L 162.1951219512195 373.4011627906977 L 163.93728222996515 369.91279069767444 L 165.6794425087108 368.4593023255814 L 167.42160278745644 368.6046511627907 L 169.16376306620208 367.4418604651163 L 170.90592334494772 367.7325581395349 L 172.64808362369337 375.2906976744186 L 174.390243902439 380.2325581395349 L 176.13240418118465 377.6162790697675 L 177.8745644599303 375.87209302325584 L 179.61672473867597 376.16279069767444 L 181.3588850174216 376.45348837209303 L 183.10104529616726 378.9244186046512 L 184.8432055749129 380.6686046511628 L 186.58536585365854 380.6686046511628 L 188.3275261324042 380.2325581395349 L 190.06968641114983 385.31976744186045 L 191.81184668989548 387.7906976744186 L 193.55400696864112 388.8081395348837 L 195.29616724738676 394.62209302325584 L 197.0383275261324 398.4011627906977 L 198.78048780487805 396.3662790697674 L 200.5226480836237 393.8953488372093 L 202.26480836236934 395.49418604651163 L 204.00696864111498 394.0406976744186 L 205.74912891986062 392.87790697674416 L 207.49128919860627 395.63953488372096 L 209.2334494773519 397.23837209302326 L 210.97560975609755 397.6744186046512 L 212.7177700348432 400 L 214.45993031358887 396.51162790697674 L 216.2020905923345 396.94767441860466 L 217.94425087108016 396.0755813953489 L 219.6864111498258 392.00581395348837 L 221.42857142857144 389.97093023255815 L 223.1707317073171 391.4244186046512 L 224.91289198606273 390.40697674418607 L 226.65505226480838 389.8255813953489 L 228.39721254355402 392.7325581395349 L 230.13937282229966 389.09883720930236 L 231.8815331010453 386.04651162790697 L 233.62369337979095 385.02906976744185 L 235.3658536585366 386.1918604651163 L 237.10801393728224 385.02906976744185 L 238.85017421602788 386.04651162790697 L 240.59233449477352 380.8139534883721 L 242.33449477351917 378.9244186046512 L 244.0766550522648 381.9767441860465 L 245.81881533101046 382.5581395348837 L 247.5609756097561 378.9244186046512 L 249.30313588850174 381.5406976744186 L 251.0452961672474 382.41279069767444 L 252.78745644599303 384.8837209302326 L 254.52961672473867 382.8488372093023 L 256.2717770034843 379.50581395348837 L 258.01393728222996 375.87209302325584 L 259.7560975609756 375.1453488372093 L 261.49825783972125 368.8953488372093 L 263.2404181184669 364.68023255813955 L 264.98257839721254 367.58720930232556 L 266.7247386759582 365.69767441860466 L 268.4668989547038 362.2093023255814 L 270.20905923344947 362.0639534883721 L 271.9512195121951 363.37209302325584 L 273.69337979094075 370.20348837209303 L 275.4355400696864 369.3313953488372 L 277.17770034843204 363.5174418604651 L 278.91986062717774 357.12209302325584 L 280.6620209059233 353.34302325581393 L 282.404181184669 356.1046511627907 L 284.1463414634146 356.3953488372093 L 285.8885017421603 356.6860465116279 L 287.6306620209059 358.8662790697675 L 289.3728222996516 355.8139534883721 L 291.1149825783972 359.8837209302326 L 292.8571428571429 354.06976744186045 L 294.5993031358885 354.3604651162791 L 296.3414634146342 350.4360465116279 L 298.08362369337976 348.11046511627904 L 299.82578397212546 348.25581395348837 L 301.56794425087105 348.54651162790697 L 303.31010452961675 346.65697674418607 L 305.05226480836234 350.4360465116279 L 306.79442508710804 344.62209302325584 L 308.5365853658536 339.68023255813955 L 310.2787456445993 343.4593023255814 L 312.0209059233449 339.97093023255815 L 313.7630662020906 345.49418604651163 L 315.5052264808362 345.20348837209303 L 317.2473867595819 346.94767441860466 L 318.9895470383275 347.6744186046512 L 320.7317073170732 346.22093023255815 L 322.4738675958188 341.56976744186045 L 324.2160278745645 338.0813953488372 L 325.9581881533101 337.5 L 327.70034843205576 339.5348837209302 L 329.4425087108014 335.31976744186045 L 331.18466898954705 332.5581395348837 L 332.9268292682927 329.6511627906977 L 334.66898954703834 327.76162790697674 L 336.411149825784 323.6918604651163 L 338.1533101045296 330.5232558139535 L 339.89547038327527 326.88953488372096 L 341.6376306620209 326.16279069767444 L 343.37979094076655 324.7093023255814 L 345.1219512195122 320.93023255813955 L 346.86411149825784 315.26162790697674 L 348.6062717770035 310.61046511627904 L 350.34843205574913 307.70348837209303 L 352.0905923344948 305.5232558139535 L 353.8327526132404 302.76162790697674 L 355.57491289198606 294.0406976744186 L 357.3170731707317 288.66279069767444 L 359.05923344947735 289.97093023255815 L 360.801393728223 284.15697674418607 L 362.54355400696863 281.8313953488372 L 364.2857142857143 280.37790697674416 L 366.0278745644599 277.18023255813955 L 367.77003484320556 278.77906976744185 L 369.5121951219512 273.54651162790697 L 371.25435540069685 267.4418604651163 L 372.9965156794425 270.63953488372096 L 374.73867595818814 262.5 L 376.4808362369338 261.4825581395349 L 378.2229965156795 254.79651162790697 L 379.96515679442507 260.61046511627904 L 381.70731707317077 252.1802325581395 L 383.44947735191636 253.05232558139534 L 385.19163763066206 242.7325581395349 L 386.93379790940764 235.75581395348837 L 388.67595818815334 231.68604651162786 L 390.41811846689893 234.73837209302326 L 392.16027874564463 232.8488372093023 L 393.9024390243902 225.72674418604652 L 395.6445993031359 220.3488372093023 L 397.3867595818815 217.29651162790697 L 399.1289198606272 218.60465116279067 L 400.8710801393728 213.3720930232558 L 402.6132404181185 213.5174418604651 L 404.3554006968641 202.32558139534882 L 406.0975609756098 200.14534883720927 L 407.8397212543554 191.86046511627904 L 409.58188153310107 186.33720930232556 L 411.3240418118467 187.5 L 413.06620209059236 186.19186046511624 L 414.808362369338 182.99418604651163 L 416.55052264808364 179.94186046511624 L 418.2926829268293 174.41860465116275 L 420.03484320557493 171.07558139534882 L 421.7770034843206 170.6395348837209 L 423.5191637630662 168.02325581395348 L 425.26132404181186 156.8313953488372 L 427.0034843205575 153.92441860465112 L 428.74564459930315 147.67441860465112 L 430.4878048780488 150.14534883720927 L 432.22996515679444 146.07558139534882 L 433.9721254355401 143.16860465116275 L 435.7142857142857 135.17441860465112 L 437.45644599303137 139.82558139534882 L 439.198606271777 131.39534883720927 L 440.94076655052265 121.07558139534882 L 442.6829268292683 123.69186046511624 L 444.42508710801394 117.58720930232556 L 446.1672473867596 111.77325581395348 L 447.9094076655052 109.15697674418601 L 449.65156794425087 113.51744186046511 L 451.3937282229965 110.31976744186045 L 453.13588850174216 118.60465116279067 L 454.8780487804878 115.84302325581393 L 456.62020905923345 116.13372093023253 L 458.3623693379791 116.71511627906972 L 460.10452961672473 114.6802325581395 L 461.8466898954704 108.86627906976742 L 463.588850174216 107.8488372093023 L 465.33101045296166 102.90697674418601 L 467.0731707317073 102.47093023255809 L 468.81533101045295 100 L 470.5574912891986 104.50581395348837 L 472.29965156794424 104.36046511627904 L 474.0418118466899 101.74418604651163 L 475.7839721254355 109.01162790697674 L 477.52613240418117 111.48255813953483 L 479.2682926829268 113.51744186046511 L 481.01045296167246 111.33720930232556 L 482.7526132404181 123.25581395348837 L 484.49477351916374 120.49418604651163 L 486.2369337979094 126.01744186046511 L 487.97909407665503 132.41279069767438 L 489.7212543554007 128.34302325581393 L 491.4634146341463 124.85465116279067 L 493.20557491289196 126.74418604651163 L 494.9477351916376 133.86627906976742 L 496.68989547038325 137.35465116279067 L 498.4320557491289 143.89534883720927 L 500.17421602787454 142.44186046511624 L 501.91637630662024 143.45930232558135 L 503.6585365853659 153.05232558139534 L 505.4006968641115 155.52325581395348 L 507.14285714285717 156.5406976744186 L 508.8850174216028 158.7209302325581 L 510.62717770034845 165.6976744186046 L 512.3693379790941 166.86046511627904 L 514.1114982578397 169.47674418604652 L 515.8536585365854 182.2674418604651 L 517.5958188153311 187.64534883720927 L 519.3379790940767 181.68604651162786 L 521.0801393728223 197.81976744186045 L 522.822299651568 196.656976744186 L 524.5644599303137 198.83720930232556 L 526.3066202090592 200.43604651162786 L 528.0487804878048 210.46511627906978 L 529.7909407665505 212.64534883720927 L 531.5331010452962 215.6976744186046 L 533.2752613240418 212.64534883720927 L 535.0174216027874 211.62790697674416 L 536.7595818815331 210.17441860465112 L 538.5017421602788 212.2093023255814 L 540.2439024390244 217.15116279069764 L 541.98606271777 219.6220930232558 L 543.7282229965157 215.55232558139534 L 545.4703832752614 218.16860465116275 L 547.212543554007 212.35465116279067 L 548.9547038327526 208.28488372093022 L 550.6968641114983 209.156976744186 L 552.439024390244 213.3720930232558 L 554.1811846689895 214.97093023255815 L 555.9233449477351 226.3081395348837 L 557.6655052264808 233.1395348837209 L 559.4076655052265 229.06976744186045 L 561.1498257839721 226.5988372093023 L 562.8919860627177 233.72093023255815 L 564.6341463414634 237.93604651162786 L 566.3763066202091 235.02906976744185 L 568.1184668989547 239.24418604651163 L 569.8606271777003 244.7674418604651 L 571.602787456446 252.32558139534882 L 573.3449477351917 256.1046511627907 L 575.0871080139373 253.92441860465112 L 576.8292682926829 269.1860465116279 L 578.5714285714286 267.58720930232556 L 580.3135888501743 267.4418604651163 L 582.0557491289198 257.70348837209303 L 583.7979094076654 237.5 L 585.5400696864111 239.0988372093023 L 587.2822299651568 247.67441860465112 L 589.0243902439024 253.05232558139534 L 590.766550522648 259.8837209302325 L 592.5087108013937 257.5581395348837 L 594.2508710801394 256.68604651162786 L 595.993031358885 270.20348837209303 L 597.7351916376306 279.2151162790698 L 599.4773519163763 279.6511627906977 L 601.219512195122 276.74418604651163 L 602.9616724738676 278.34302325581393 L 604.7038327526133 274.4186046511628 L 606.445993031359 278.6337209302326 L 608.1881533101046 280.2325581395349 L 609.9303135888501 283.5755813953488 L 611.6724738675958 285.9011627906977 L 613.4146341463415 288.0813953488372 L 615.1567944250871 287.5 L 616.8989547038327 287.9360465116279 L 618.6411149825784 283.2848837209302 L 620.3832752613241 282.99418604651163 L 622.1254355400697 287.6453488372093 L 623.8675958188153 293.4593023255814 L 625.609756097561 291.7151162790698 L 627.3519163763067 290.1162790697674 L 629.0940766550523 292.1511627906977 L 630.8362369337979 293.8953488372093 L 632.5783972125436 293.3139534883721 L 634.3205574912893 294.4767441860465 L 636.0627177700349 294.0406976744186 L 637.8048780487804 295.49418604651163 L 639.5470383275261 298.11046511627904 L 641.2891986062718 306.9767441860465 L 643.0313588850174 312.3546511627907 L 644.773519163763 310.4651162790698 L 646.5156794425087 310.31976744186045 L 648.2578397212544 315.69767441860466 L 650 320.49418604651163 L 650 400 Z" /><text  class="poloto_labels poloto_text poloto_title" alignment-baseline="start" text-anchor="middle" font-size="x-large" x="400" y="37.5" >Total players on 2021-12-10</text><text  class="poloto_labels poloto_text poloto_xname" alignment-baseline="start" text-anchor="middle" font-size="x-large" x="400" y="481.25" >Time</text><text  class="poloto_labels poloto_text poloto_yname" alignment-baseline="start" text-anchor="middle" font-size="x-large" transform="rotate(-90,37.5,250)" x="37.5" y="250" >Count</text><line  class="poloto_axis_lines" stroke="black" x1="150" x2="150" y1="400" y2="405" /><text  class="poloto_tick_labels poloto_text" alignment-baseline="start" text-anchor="middle" x="150" y="430" > 00:00</text><line  class="poloto_axis_lines" stroke="black" x1="266.14401858304296" x2="266.14401858304296" y1="400" y2="405" /><text  class="poloto_tick_labels poloto_text" alignment-baseline="start" text-anchor="middle" x="266.14401858304296" y="430" > 06:00</text><line  class="poloto_axis_lines" stroke="black" x1="382.2880371660859" x2="382.2880371660859" y1="400" y2="405" /><text  class="poloto_tick_labels poloto_text" alignment-baseline="start" text-anchor="middle" x="382.2880371660859" y="430" > 11:00</text><line  class="poloto_axis_lines" stroke="black" x1="498.4320557491289" x2="498.4320557491289" y1="400" y2="405" /><text  class="poloto_tick_labels poloto_text" alignment-baseline="start" text-anchor="middle" x="498.4320557491289" y="430" > 17:00</text><line  class="poloto_axis_lines" stroke="black" x1="614.5760743321719" x2="614.5760743321719" y1="400" y2="405" /><text  class="poloto_tick_labels poloto_text" alignment-baseline="start" text-anchor="middle" x="614.5760743321719" y="430" > 22:00</text><line  class="poloto_axis_lines" stroke="black" x1="150" x2="144" y1="371.65697674418607" y2="371.65697674418607" /><text  class="poloto_tick_labels poloto_text" alignment-baseline="middle" text-anchor="end" x="135" y="371.65697674418607" > 1000</text><line  class="poloto_axis_lines" stroke="black" x1="150" x2="144" y1="298.9825581395349" y2="298.9825581395349" /><text  class="poloto_tick_labels poloto_text" alignment-baseline="middle" text-anchor="end" x="135" y="298.9825581395349" > 1500</text><line  class="poloto_axis_lines" stroke="black" x1="150" x2="144" y1="226.3081395348837" y2="226.3081395348837" /><text  class="poloto_tick_labels poloto_text" alignment-baseline="middle" text-anchor="end" x="135" y="226.3081395348837" > 2000</text><line  class="poloto_axis_lines" stroke="black" x1="150" x2="144" y1="153.63372093023253" y2="153.63372093023253" /><text  class="poloto_tick_labels poloto_text" alignment-baseline="middle" text-anchor="end" x="135" y="153.63372093023253" > 2500</text><path  stroke="black" fill="none" class="poloto_axis_lines" style="stroke-dasharray:14.518002322880372;stroke-dashoffset:-0;" d=" M 150 400 L 650 400" /><path  stroke="black" fill="none" class="poloto_axis_lines" style="stroke-dasharray:7.267441860465117;stroke-dashoffset:-28.343023255813947;" d=" M 150 400 L 150 100" /></svg>