<svg class="poloto" width="800" height="500" viewBox="0 0 800 500" xmlns="http://www.w3.org/2000/svg"><style>.poloto { stroke-linecap:round; stroke-linejoin:round; font-family: 'Tahoma', sans-serif; background-color: AliceBlue;} .poloto_scatter{stroke-width:7} .poloto_line{stroke-width:2} .poloto_text{fill: black;} .poloto_axis_lines{stroke: black;stroke-width:3;fill:none;stroke-dasharray:none} .poloto0stroke{stroke:  blue;} .poloto1stroke{stroke:  red;} .poloto2stroke{stroke:  green;} .poloto3stroke{stroke:  gold;} .poloto4stroke{stroke:  aqua;} .poloto5stroke{stroke:  lime;} .poloto6stroke{stroke:  orange;} .poloto7stroke{stroke:  chocolate;} .poloto0fill{fill:blue;} .poloto1fill{fill:red;} .poloto2fill{fill:green;} .poloto3fill{fill:gold;} .poloto4fill{fill:aqua;} .poloto5fill{fill:lime;} .poloto6fill{fill:orange;} .poloto7fill{fill:chocolate;}</style><text  class="poloto_text poloto_legend_text" alignment-baseline="middle" text-anchor="start" font-size="large" x="675" y="100" ></text><path  class="poloto_linefill poloto0fill" d=" M 150 400 L 150 352.3839397741531 L 151.74216027874564 346.5495608531995 L 153.4843205574913 349.5608531994981 L 155.22648083623693 352.57214554579673 L 156.96864111498257 352.1957340025094 L 158.71080139372822 351.44291091593476 L 160.45296167247386 357.2772898368884 L 162.1951219512195 357.0890840652447 L 163.93728222996515 359.159347553325 L 165.6794425087108 371.7691342534505 L 167.42160278745644 370.26348808030116 L 169.16376306620208 375.3450439146801 L 170.90592334494772 378.35633626097865 L 172.64808362369337 377.97992471769135 L 174.390243902439 375.53324968632376 L 176.13240418118465 375.7214554579674 L 177.8745644599303 380.426599749059 L 179.61672473867597 379.4855708908407 L 181.3588850174216 377.4153074027604 L 183.10104529616726 375.1568381430364 L 184.8432055749129 373.0865746549561 L 186.58536585365854 377.22710163111674 L 188.3275261324042 373.0865746549561 L 190.06968641114983 373.27478042659976 L 191.81184668989548 372.71016311166875 L 193.55400696864112 373.6511919698871 L 195.29616724738676 375.7214554579674 L 197.0383275261324 377.03889585947303 L 198.78048780487805 377.22710163111674 L 200.5226480836237 374.40401505646173 L 202.26480836236934 373.8393977415308 L 204.00696864111498 374.40401505646173 L 205.74912891986062 371.2045169385195 L 207.49128919860627 376.0978670012547 L 209.2334494773519 370.63989962358846 L 210.97560975609755 374.96863237139274 L 212.7177700348432 380.426599749059 L 214.45993031358887 380.2383939774153 L 216.2020905923345 378.168130489335 L 217.94425087108016 373.8393977415308 L 219.6864111498258 368.9460476787955 L 221.42857142857144 365.9347553324969 L 223.1707317073171 360.4767879548306 L 224.91289198606273 355.0188205771644 L 226.65505226480838 358.030112923463 L 228.39721254355402 352.9485570890841 L 230.13937282229966 350.3136762860728 L 231.8815331010453 348.2434127979925 L 233.62369337979095 348.9962358845671 L 235.3658536585366 346.7377666248432 L 237.10801393728224 347.30238393977413 L 238.85017421602788 326.03513174404014 L 240.59233449477352 321.1417816813049 L 242.33449477351917 324.1530740276035 L 244.0766550522648 322.0828105395232 L 245.81881533101046 327.3525721455458 L 247.5609756097561 318.88331242158097 L 249.30313588850174 319.0715181932246 L 251.0452961672474 316.624843161857 L 252.78745644599303 313.4253450439147 L 254.52961672473867 325.4705144291092 L 256.2717770034843 318.88331242158097 L 258.01393728222996 317.37766624843164 L 259.7560975609756 330.1756587202008 L 261.49825783972125 329.9874529485571 L 263.2404181184669 331.86951066499375 L 264.98257839721254 329.61104140526976 L 266.7247386759582 322.8356336260979 L 268.4668989547038 316.24843161856967 L 270.20905923344947 313.04893350062736 L 271.9512195121951 307.96737766624847 L 273.69337979094075 307.02634880803015 L 275.4355400696864 306.83814303638644 L 277.17770034843204 302.13299874529486 L 278.91986062717774 300.43914680050193 L 280.6620209059233 303.82685069008784 L 282.404181184669 295.54579673776664 L 284.1463414634146 317.5658720200753 L 285.8885017421603 297.9924717691343 L 287.6306620209059 295.54579673776664 L 289.3728222996516 286.13550815558347 L 291.1149825783972 280.86574654956087 L 292.8571428571429 277.85445420326226 L 294.5993031358885 273.33751568381433 L 296.3414634146342 265.6210790464241 L 298.08362369337976 253.57590966122962 L 299.82578397212546 251.69385194479298 L 301.56794425087105 248.11794228356337 L 303.31010452961675 253.76411543287333 L 305.05226480836234 252.82308657465495 L 306.79442508710804 254.8933500627353 L 308.5365853658536 249.6235884567127 L 310.2787456445993 242.2835633626098 L 312.0209059233449 240.02509410288587 L 313.7630662020906 248.30614805520707 L 315.5052264808362 240.9661229611042 L 317.2473867595819 244.9184441656211 L 318.9895470383275 249.05897114178168 L 320.7317073170732 246.04767879548308 L 322.4738675958188 247.9297365119197 L 324.2160278745645 248.87076537013803 L 325.9581881533101 237.39021329987457 L 327.70034843205576 231.3676286072773 L 329.4425087108014 231.55583437892096 L 331.18466898954705 224.96863237139274 L 332.9268292682927 223.0865746549561 L 334.66898954703834 223.65119196988712 L 336.411149825784 228.92095357590966 L 338.1533101045296 224.02760351317443 L 339.89547038327527 216.12296110414053 L 341.6376306620209 221.7691342534505 L 343.37979094076655 225.1568381430364 L 345.1219512195122 218.94604767879548 L 346.86411149825784 220.4516938519448 L 348.6062717770035 222.1455457967378 L 350.34843205574913 219.69887076537015 L 352.0905923344948 217.25219573400256 L 353.8327526132404 220.82810539523217 L 355.57491289198606 221.58092848180678 L 357.3170731707317 218.94604767879548 L 359.05923344947735 211.41781681304894 L 360.801393728223 212.35884567126726 L 362.54355400696863 215.93475533249688 L 364.2857142857143 217.06398996235885 L 366.0278745644599 205.39523212045174 L 367.77003484320556 207.65370138017568 L 369.5121951219512 207.84190715181933 L 371.25435540069685 209.5357590966123 L 372.9965156794425 206.71267252195736 L 374.73867595818814 207.27728983688837 L 376.4808362369338 202.00752823086577 L 378.2229965156795 202.9485570890841 L 379.96515679442507 197.11417816813054 L 381.70731707317077 195.79673776662486 L 383.44947735191636 190.3387703889586 L 385.19163763066206 192.40903387703895 L 386.93379790940764 193.53826850690092 L 388.67595818815334 189.20953575909664 L 390.41811846689893 176.0351317440402 L 392.16027874564463 175.28230865746553 L 393.9024390243902 181.6813048933501 L 395.6445993031359 170.7653701380176 L 397.3867595818815 167.37766624843164 L 399.1289198606272 161.54328732747808 L 400.8710801393728 153.45043914680053 L 402.6132404181185 150.25094102885822 L 404.3554006968641 152.88582183186952 L 406.0975609756098 145.922208281054 L 407.8397212543554 146.2986198243413 L 409.58188153310107 137.6411543287328 L 411.3240418118467 140.0878293601004 L 413.06620209059236 135.19447929736515 L 414.808362369338 132.3713927227102 L 416.55052264808364 122.02007528230871 L 418.2926829268293 120.32622333751573 L 420.03484320557493 115.43287327478043 L 421.7770034843206 112.04516938519453 L 423.5191637630662 100.00000000000006 L 425.26132404181186 105.45796737766631 L 427.0034843205575 110.16311166875789 L 428.74564459930315 108.09284818067755 L 430.4878048780488 105.08155583437895 L 432.22996515679444 108.65746549560856 L 433.9721254355401 112.60978670012548 L 435.7142857142857 106.02258469259726 L 437.45644599303137 113.5508155583438 L 439.198606271777 119.57340025094106 L 440.94076655052265 110.9159347553325 L 442.6829268292683 112.42158092848183 L 444.42508710801394 113.36260978670015 L 446.1672473867596 109.59849435382688 L 447.9094076655052 107.34002509410294 L 449.65156794425087 110.35131744040154 L 451.3937282229965 115.8092848180678 L 453.13588850174216 118.4441656210791 L 454.8780487804878 160.79046424090342 L 456.62020905923345 103.19949811794231 L 458.3623693379791 113.73902132998751 L 460.10452961672473 110.5395232120452 L 461.8466898954704 113.5508155583438 L 463.588850174216 111.29234629861986 L 465.33101045296166 124.84316185696366 L 467.0731707317073 112.98619824341284 L 468.81533101045295 111.29234629861986 L 470.5574912891986 118.06775407779173 L 472.29965156794424 101.88205771643669 L 474.0418118466899 118.25595984943544 L 475.7839721254355 117.87954830614808 L 477.52613240418117 117.12672521957342 L 479.2682926829268 124.65495608532001 L 481.01045296167246 114.30363864491846 L 482.7526132404181 110.72772898368885 L 484.49477351916374 111.10414052697621 L 486.2369337979094 116.1856963613551 L 487.97909407665503 125.21957340025097 L 489.7212543554007 132.9360100376412 L 491.4634146341463 142.34629861982438 L 493.20557491289196 142.34629861982438 L 494.9477351916376 157.96737766624847 L 496.68989547038325 156.46173149309914 L 498.4320557491289 158.34378920953577 L 500.17421602787454 162.67252195734005 L 501.91637630662024 163.23713927227107 L 503.6585365853659 170.7653701380176 L 505.4006968641115 176.4115432873275 L 507.14285714285717 191.65621079046429 L 508.8850174216028 200.50188205771644 L 510.62717770034845 199.37264742785447 L 512.3693379790941 209.72396486825596 L 514.1114982578397 217.4404015056462 L 515.8536585365854 221.58092848180678 L 517.5958188153311 212.1706398996236 L 519.3379790940767 214.05269761606024 L 521.0801393728223 218.00501882057716 L 522.822299651568 218.56963613550818 L 524.5644599303137 222.89836888331246 L 526.3066202090592 223.83939774153077 L 528.0487804878048 221.58092848180678 L 529.7909407665505 230.8030112923463 L 531.5331010452962 221.7691342534505 L 533.2752613240418 226.47427854454207 L 535.0174216027874 225.7214554579674 L 536.7595818815331 234.19071518193226 L 538.5017421602788 242.47176913425346 L 540.2439024390244 239.83688833124216 L 541.98606271777 241.53074027603515 L 543.7282229965157 241.15432873274784 L 545.4703832752614 242.65997490589712 L 547.212543554007 242.84818067754082 L 548.9547038327526 252.44667503136765 L 550.6968641114983 257.3400250941029 L 552.439024390244 257.71643663739025 L 554.1811846689895 257.3400250941029 L 555.9233449477351 248.49435382685073 L 557.6655052264808 252.07026348808034 L 559.4076655052265 261.1041405269762 L 561.1498257839721 260.35131744040154 L 562.8919860627177 262.0451693851945 L 564.6341463414634 266.37390213299875 L 566.3763066202091 269.7616060225847 L 568.1184668989547 262.6097867001255 L 569.8606271777003 269.94981179422837 L 571.602787456446 268.2559598494354 L 573.3449477351917 276.91342534504395 L 575.0871080139373 269.57340025094106 L 576.8292682926829 272.96110414052697 L 578.5714285714286 277.4780426599749 L 580.3135888501743 274.4667503136763 L 582.0557491289198 280.1129234629862 L 583.7979094076654 286.3237139272271 L 585.5400696864111 285.7590966122961 L 587.2822299651568 288.77038895859476 L 589.0243902439024 290.6524466750314 L 590.766550522648 286.13550815558347 L 592.5087108013937 287.82936010037645 L 594.2508710801394 287.82936010037645 L 595.993031358885 288.9585947302384 L 597.7351916376306 293.85194479297365 L 599.4773519163763 294.79297365119197 L 601.219512195122 302.13299874529486 L 602.9616724738676 304.5796737766625 L 604.7038327526133 303.6386449184442 L 606.445993031359 311.1668757841907 L 608.1881533101046 311.1668757841907 L 609.9303135888501 314.930991217064 L 611.6724738675958 311.3550815558344 L 613.4146341463415 313.237139272271 L 615.1567944250871 315.8720200752823 L 616.8989547038327 319.4479297365119 L 618.6411149825784 326.22333751568385 L 620.3832752613241 335.44542032622337 L 622.1254355400697 334.1279799247177 L 623.8675958188153 342.78544542032625 L 625.609756097561 342.0326223337516 L 627.3519163763067 346.7377666248432 L 629.0940766550523 352.0075282308658 L 630.8362369337979 352.0075282308658 L 632.5783972125436 357.0890840652447 L 634.3205574912893 364.61731493099126 L 636.0627177700349 367.62860727728986 L 637.8048780487804 373.0865746549561 L 639.5470383275261 380.80301129234635 L 641.2891986062718 383.62609786700125 L 643.0313588850174 393.0363864491844 L 644.773519163763 393.6010037641155 L 646.5156794425087 395.6712672521958 L 648.2578397212544 400 L 650 396.80050188205774 L 650 400 Z" /><text  class="poloto_labels poloto_text poloto_title" alignment-baseline="start" text-anchor="middle" font-size="x-large" x="400" y="37.5" >Total players on 2021-12-19</text><text  class="poloto_labels poloto_text poloto_xname" alignment-baseline="start" text-anchor="middle" font-size="x-large" x="400" y="481.25" >Time</text><text  class="poloto_labels poloto_text poloto_yname" alignment-baseline="start" text-anchor="middle" font-size="x-large" transform="rotate(-90,37.5,250)" x="37.5" y="250" >Count</text><line  class="poloto_axis_lines" stroke="black" x1="150" x2="150" y1="400" y2="405" /><text  class="poloto_tick_labels poloto_text" alignment-baseline="start" text-anchor="middle" x="150" y="430" > 00:00:00</text><line  class="poloto_axis_lines" stroke="black" x1="266.14401858304296" x2="266.14401858304296" y1="400" y2="405" /><text  class="poloto_tick_labels poloto_text" alignment-baseline="start" text-anchor="middle" x="266.14401858304296" y="430" > 05:33:20</text><line  class="poloto_axis_lines" stroke="black" x1="382.2880371660859" x2="382.2880371660859" y1="400" y2="405" /><text  class="poloto_tick_labels poloto_text" alignment-baseline="start" text-anchor="middle" x="382.2880371660859" y="430" > 11:06:40</text><line  class="poloto_axis_lines" stroke="black" x1="498.4320557491289" x2="498.4320557491289" y1="400" y2="405" /><text  class="poloto_tick_labels poloto_text" alignment-baseline="start" text-anchor="middle" x="498.4320557491289" y="430" > 16:40:00</text><line  class="poloto_axis_lines" stroke="black" x1="614.5760743321719" x2="614.5760743321719" y1="400" y2="405" /><text  class="poloto_tick_labels poloto_text" alignment-baseline="start" text-anchor="middle" x="614.5760743321719" y="430" > 22:13:20</text><line  class="poloto_axis_lines" stroke="black" x1="150" x2="144" y1="318.88331242158097" y2="318.88331242158097" /><text  class="poloto_tick_labels poloto_text" alignment-baseline="middle" text-anchor="end" x="135" y="318.88331242158097" > 1500</text><line  class="poloto_axis_lines" stroke="black" x1="150" x2="144" y1="224.7804265997491" y2="224.7804265997491" /><text  class="poloto_tick_labels poloto_text" alignment-baseline="middle" text-anchor="end" x="135" y="224.7804265997491" > 2000</text><line  class="poloto_axis_lines" stroke="black" x1="150" x2="144" y1="130.67754077791722" y2="130.67754077791722" /><text  class="poloto_tick_labels poloto_text" alignment-baseline="middle" text-anchor="end" x="135" y="130.67754077791722" > 2500</text><path  stroke="black" fill="none" class="poloto_axis_lines" style="stroke-dasharray:14.518002322880372;stroke-dashoffset:-0;" d=" M 150 400 L 650 400" /><path  stroke="black" fill="none" class="poloto_axis_lines" style="stroke-dasharray:9.410288582183187;stroke-dashoffset:-81.11668757841903;" d=" M 150 400 L 150 100" /></svg>