<svg class="poloto" width="800" height="500" viewBox="0 0 800 500" xmlns="http://www.w3.org/2000/svg"><style>.poloto { stroke-linecap:round; stroke-linejoin:round; font-family: 'Tahoma', sans-serif; background-color: AliceBlue;} .poloto_scatter{stroke-width:7} .poloto_line{stroke-width:2} .poloto_text{fill: black;} .poloto_axis_lines{stroke: black;stroke-width:3;fill:none;stroke-dasharray:none} .poloto0stroke{stroke:  blue;} .poloto1stroke{stroke:  red;} .poloto2stroke{stroke:  green;} .poloto3stroke{stroke:  gold;} .poloto4stroke{stroke:  aqua;} .poloto5stroke{stroke:  lime;} .poloto6stroke{stroke:  orange;} .poloto7stroke{stroke:  chocolate;} .poloto0fill{fill:blue;} .poloto1fill{fill:red;} .poloto2fill{fill:green;} .poloto3fill{fill:gold;} .poloto4fill{fill:aqua;} .poloto5fill{fill:lime;} .poloto6fill{fill:orange;} .poloto7fill{fill:chocolate;}</style><text  class="poloto_text poloto_legend_text" alignment-baseline="middle" text-anchor="start" font-size="large" x="675" y="100" ></text><path  class="poloto_linefill poloto0fill" d=" M 150 400 L 150 326.4054514480409 L 151.74216027874564 331.00511073253836 L 153.4843205574913 330.4940374787053 L 155.22648083623693 337.8194207836457 L 156.96864111498257 336.96763202725725 L 158.71080139372822 344.12265758091996 L 160.45296167247386 347.18909710391824 L 162.1951219512195 348.7223168654174 L 163.93728222996515 349.40374787052815 L 165.6794425087108 351.78875638841566 L 167.42160278745644 348.7223168654174 L 169.16376306620208 350.9369676320273 L 170.90592334494772 355.5366269165247 L 172.64808362369337 363.8841567291312 L 174.390243902439 366.0988074957411 L 176.13240418118465 372.7427597955707 L 177.8745644599303 370.18739352640546 L 179.61672473867597 371.5502555366269 L 181.3588850174216 376.83134582623507 L 183.10104529616726 381.2606473594549 L 184.8432055749129 381.43100511073254 L 186.58536585365854 381.43100511073254 L 188.3275261324042 380.5792163543441 L 190.06968641114983 382.282793867121 L 191.81184668989548 382.45315161839864 L 193.55400696864112 381.09028960817716 L 195.29616724738676 387.2231686541738 L 197.0383275261324 385.8603066439523 L 198.78048780487805 384.32708688245316 L 200.5226480836237 387.9045996592845 L 202.26480836236934 388.9267461669506 L 204.00696864111498 394.7189097103918 L 205.74912891986062 388.9267461669506 L 207.49128919860627 383.9863713798978 L 209.2334494773519 385.6899488926746 L 210.97560975609755 387.2231686541738 L 212.7177700348432 390.4599659284497 L 214.45993031358887 387.7342419080068 L 216.2020905923345 386.2010221465076 L 217.94425087108016 386.37137989778535 L 219.6864111498258 386.03066439523 L 221.42857142857144 389.0971039182283 L 223.1707317073171 395.57069846678024 L 224.91289198606273 394.0374787052811 L 226.65505226480838 392.84497444633735 L 228.39721254355402 393.526405451448 L 230.13937282229966 390.97103918228277 L 231.8815331010453 383.6456558773424 L 233.62369337979095 385.519591141397 L 235.3658536585366 389.26746166950596 L 237.10801393728224 385.519591141397 L 238.85017421602788 383.9863713798978 L 240.59233449477352 383.13458262350935 L 242.33449477351917 381.2606473594549 L 244.0766550522648 380.74957410562183 L 245.81881533101046 378.1942078364566 L 247.5609756097561 377.17206132879045 L 249.30313588850174 373.5945485519591 L 251.0452961672474 373.9352640545145 L 252.78745644599303 376.83134582623507 L 254.52961672473867 379.557069846678 L 256.2717770034843 379.045996592845 L 258.01393728222996 380.2385008517888 L 259.7560975609756 398.1260647359455 L 261.49825783972125 400 L 263.2404181184669 382.45315161839864 L 264.98257839721254 381.6013628620102 L 266.7247386759582 378.5349233390119 L 268.4668989547038 378.0238500851789 L 270.20905923344947 381.6013628620102 L 271.9512195121951 382.9642248722317 L 273.69337979094075 382.6235093696763 L 275.4355400696864 377.85349233390116 L 277.17770034843204 378.1942078364566 L 278.9198606271777 370.8688245315162 L 280.6620209059233 361.66950596252127 L 282.40418118466897 365.24701873935265 L 284.1463414634146 362.35093696763204 L 285.88850174216026 355.87734241908004 L 287.6306620209059 355.5366269165247 L 289.37282229965155 347.7001703577513 L 291.1149825783972 347.18909710391824 L 292.85714285714283 351.618398637138 L 294.5993031358885 350.0851788756388 L 296.3414634146342 347.18909710391824 L 298.08362369337976 345.82623509369677 L 299.82578397212546 347.87052810902895 L 301.56794425087105 350.42589437819424 L 303.31010452961675 350.9369676320273 L 305.05226480836234 352.81090289608176 L 306.79442508710804 349.9148211243612 L 308.5365853658536 354.85519591141394 L 310.2787456445993 361.1584327086882 L 312.0209059233449 362.5212947189097 L 313.7630662020906 358.7734241908007 L 315.5052264808362 359.11413969335604 L 317.2473867595819 352.6405451448041 L 318.9895470383275 351.44804088586034 L 320.7317073170732 354.17376490630323 L 322.4738675958188 355.1959114139693 L 324.2160278745645 345.82623509369677 L 325.95818815331006 344.4633730834753 L 327.70034843205576 344.8040885860307 L 329.44250871080135 343.95229982964224 L 331.18466898954705 340.3747870528109 L 332.92682926829264 335.09369676320273 L 334.66898954703834 335.6047700170358 L 336.4111498257839 339.01192504258944 L 338.1533101045296 337.4787052810903 L 339.8954703832752 335.26405451448045 L 341.6376306620209 328.1090289608177 L 343.3797909407665 324.0204429301533 L 345.1219512195122 320.1022146507666 L 346.86411149825784 319.25042589437817 L 348.6062717770035 316.86541737649065 L 350.34843205574913 314.3100511073254 L 352.0905923344948 311.41396933560475 L 353.8327526132404 308.34752981260647 L 355.57491289198606 309.8807495741056 L 357.3170731707317 305.45144804088585 L 359.05923344947735 303.236797274276 L 360.801393728223 298.80749574105624 L 362.54355400696863 300 L 364.2857142857143 297.1039182282794 L 366.0278745644599 298.2964224872232 L 367.77003484320556 290.9710391822828 L 369.5121951219512 287.56388415672916 L 371.25435540069685 284.8381601362862 L 372.9965156794425 285.00851788756387 L 374.73867595818814 281.6013628620102 L 376.4808362369338 277.34241908006817 L 378.2229965156794 272.572402044293 L 379.96515679442507 270.18739352640546 L 381.7073170731707 268.4838160136286 L 383.44947735191636 262.5212947189097 L 385.191637630662 261.32879045996594 L 386.93379790940764 262.35093696763204 L 388.6759581881533 260.30664395229985 L 390.41811846689893 254.855195911414 L 392.1602787456446 258.09199318568994 L 393.9024390243902 251.78875638841566 L 395.6445993031359 252.98126064735948 L 397.3867595818815 251.10732538330495 L 399.1289198606272 251.95911413969338 L 400.8710801393728 250.9369676320273 L 402.6132404181185 249.23339011925043 L 404.3554006968641 238.84156729131178 L 406.0975609756097 236.4565587734242 L 407.83972125435537 244.29301533219763 L 409.581881533101 247.87052810902895 L 411.32404181184666 363.8841567291312 L 413.0662020905923 338.67120954003406 L 414.80836236933794 252.81090289608176 L 416.5505226480836 331.3458262350937 L 418.29268292682923 333.9011925042589 L 420.0348432055749 203.236797274276 L 421.7770034843206 208.00681431005114 L 423.5191637630662 206.47359454855194 L 425.26132404181186 201.53321976149914 L 427.0034843205575 203.06643952299828 L 428.74564459930315 208.68824531516185 L 430.4878048780488 199.65928449744462 L 432.22996515679444 195.57069846678024 L 433.9721254355401 331.3458262350937 L 435.7142857142857 318.3986371379898 L 437.45644599303137 310.73253833049404 L 439.198606271777 196.0817717206133 L 440.94076655052265 193.3560477001704 L 442.6829268292683 185.1788756388416 L 444.42508710801394 179.72742759795574 L 446.1672473867596 178.19420783645654 L 447.9094076655052 176.49063032367974 L 449.65156794425087 286.541737649063 L 451.3937282229965 187.56388415672916 L 453.13588850174216 198.9778534923339 L 454.8780487804878 160.4770017035775 L 456.62020905923345 155.70698466780237 L 458.3623693379791 157.2402044293015 L 460.10452961672473 158.94378194207837 L 461.8466898954704 150.42589437819424 L 463.588850174216 156.38841567291314 L 465.33101045296166 163.03236797274275 L 467.0731707317073 164.39522998296422 L 468.81533101045295 165.7580919931857 L 470.5574912891986 151.10732538330495 L 472.29965156794424 150.76660988074957 L 474.0418118466899 152.2998296422487 L 475.7839721254355 138.67120954003406 L 477.52613240418117 133.73083475298125 L 479.2682926829268 128.62010221465079 L 481.01045296167246 127.59795570698469 L 482.7526132404181 114.82112436115847 L 484.49477351916374 108.68824531516185 L 486.2369337979094 100 L 487.97909407665503 108.1771720613288 L 489.7212543554007 134.2419080068143 L 491.4634146341463 144.4633730834753 L 493.20557491289196 178.02385008517888 L 494.9477351916376 129.13117546848383 L 496.68989547038325 105.62180579216357 L 498.4320557491289 105.9625212947189 L 500.17421602787454 112.09540034071551 L 501.9163763066202 104.9403747870528 L 503.6585365853658 109.1993185689949 L 505.40069686411147 116.35434412265761 L 507.1428571428571 115.50255536626918 L 508.88501742160275 117.20613287904598 L 510.6271777003484 125.21294718909712 L 512.3693379790941 124.87223168654174 L 514.1114982578397 127.42759795570697 L 515.8536585365853 141.396933560477 L 517.595818815331 148.04088586030667 L 519.3379790940767 158.94378194207837 L 521.0801393728223 156.38841567291314 L 522.822299651568 161.15843270868828 L 524.5644599303137 170.35775127768312 L 526.3066202090592 164.7359454855196 L 528.0487804878048 167.97274275979555 L 529.7909407665505 193.69676320272572 L 531.5331010452962 186.71209540034073 L 533.2752613240418 186.03066439522996 L 535.0174216027874 188.75638841567292 L 536.7595818815331 187.39352640545144 L 538.5017421602788 184.49744463373082 L 540.2439024390244 191.1413969335605 L 541.98606271777 196.763202725724 L 543.7282229965157 201.0221465076661 L 545.4703832752614 200.51107325383305 L 547.212543554007 199.3185689948893 L 548.9547038327526 204.2589437819421 L 550.6968641114983 212.26575809199318 L 552.439024390244 220.95400340715503 L 554.1811846689895 218.73935264054518 L 555.9233449477351 213.96933560477004 L 557.6655052264808 215.1618398637138 L 559.4076655052265 213.28790459965927 L 561.1498257839721 217.71720613287903 L 562.8919860627177 216.01362862010222 L 564.6341463414634 212.77683134582622 L 566.3763066202091 213.458262350937 L 568.1184668989547 221.80579216354346 L 569.8606271777003 216.3543441226576 L 571.602787456446 219.93185689948893 L 573.3449477351917 214.99148211243613 L 575.0871080139373 225.72402044293017 L 576.8292682926829 224.3611584327087 L 578.5714285714286 231.17546848381602 L 580.3135888501743 227.08688245315165 L 582.0557491289198 222.99829642248721 L 583.7979094076654 224.19080068143103 L 585.5400696864111 222.82793867120955 L 587.2822299651568 222.6575809199319 L 589.0243902439024 227.76831345826236 L 590.766550522648 223.85008517887564 L 592.5087108013937 230.15332197614993 L 594.2508710801394 225.72402044293017 L 595.993031358885 214.1396933560477 L 597.7351916376306 215.33219761499151 L 599.4773519163763 217.03577512776832 L 601.219512195122 222.6575809199319 L 602.9616724738676 229.3015332197615 L 604.7038327526132 238.33049403747873 L 606.4459930313589 237.98977853492335 L 608.1881533101046 238.67120954003406 L 609.9303135888501 248.381601362862 L 611.6724738675957 250.25553662691652 L 613.4146341463414 263.5434412265758 L 615.1567944250871 266.4395229982964 L 616.8989547038327 268.4838160136286 L 618.6411149825783 270.86882453151617 L 620.383275261324 276.3202725724021 L 622.1254355400697 287.2231686541738 L 623.8675958188153 295.7410562180579 L 625.609756097561 286.71209540034073 L 627.3519163763067 300.85178875638843 L 629.0940766550523 300.6814310051107 L 630.8362369337979 292.6746166950596 L 632.5783972125436 291.1413969335605 L 634.3205574912893 296.763202725724 L 636.0627177700349 304.0885860306644 L 637.8048780487804 306.6439522998296 L 639.5470383275261 307.15502555366265 L 641.2891986062718 306.98466780238505 L 643.0313588850174 308.5178875638842 L 644.773519163763 319.25042589437817 L 646.5156794425087 317.54684838160136 L 648.2578397212544 314.3100511073254 L 650 314.480408858603 L 650 400 Z" /><text  class="poloto_labels poloto_text poloto_title" alignment-baseline="start" text-anchor="middle" font-size="x-large" x="400" y="37.5" >Total players on 2021-05-31</text><text  class="poloto_labels poloto_text poloto_xname" alignment-baseline="start" text-anchor="middle" font-size="x-large" x="400" y="481.25" >Time</text><text  class="poloto_labels poloto_text poloto_yname" alignment-baseline="start" text-anchor="middle" font-size="x-large" transform="rotate(-90,37.5,250)" x="37.5" y="250" >Count</text><line  class="poloto_axis_lines" stroke="black" x1="208.0487804878049" x2="208.0487804878049" y1="400" y2="405" /><text  class="poloto_tick_labels poloto_text" alignment-baseline="start" text-anchor="middle" x="208.0487804878049" y="430" > 02:46:40</text><line  class="poloto_axis_lines" stroke="black" x1="266.1207897793264" x2="266.1207897793264" y1="400" y2="405" /><text  class="poloto_tick_labels poloto_text" alignment-baseline="start" text-anchor="middle" x="266.1207897793264" y="430" > 05:33:20</text><line  class="poloto_axis_lines" stroke="black" x1="324.19279907084785" x2="324.19279907084785" y1="400" y2="405" /><text  class="poloto_tick_labels poloto_text" alignment-baseline="start" text-anchor="middle" x="324.19279907084785" y="430" > 08:20:00</text><line  class="poloto_axis_lines" stroke="black" x1="382.2648083623693" x2="382.2648083623693" y1="400" y2="405" /><text  class="poloto_tick_labels poloto_text" alignment-baseline="start" text-anchor="middle" x="382.2648083623693" y="430" > 11:06:40</text><line  class="poloto_axis_lines" stroke="black" x1="440.3368176538908" x2="440.3368176538908" y1="400" y2="405" /><text  class="poloto_tick_labels poloto_text" alignment-baseline="start" text-anchor="middle" x="440.3368176538908" y="430" > 13:53:20</text><line  class="poloto_axis_lines" stroke="black" x1="498.4088269454123" x2="498.4088269454123" y1="400" y2="405" /><text  class="poloto_tick_labels poloto_text" alignment-baseline="start" text-anchor="middle" x="498.4088269454123" y="430" > 16:40:00</text><line  class="poloto_axis_lines" stroke="black" x1="556.4808362369338" x2="556.4808362369338" y1="400" y2="405" /><text  class="poloto_tick_labels poloto_text" alignment-baseline="start" text-anchor="middle" x="556.4808362369338" y="430" > 19:26:40</text><line  class="poloto_axis_lines" stroke="black" x1="614.5528455284552" x2="614.5528455284552" y1="400" y2="405" /><text  class="poloto_tick_labels poloto_text" alignment-baseline="start" text-anchor="middle" x="614.5528455284552" y="430" > 22:13:20</text><line  class="poloto_axis_lines" stroke="black" x1="150" x2="144" y1="391.65247018739353" y2="391.65247018739353" /><text  class="poloto_tick_labels poloto_text" alignment-baseline="middle" text-anchor="end" x="135" y="391.65247018739353" > 1000</text><line  class="poloto_axis_lines" stroke="black" x1="150" x2="144" y1="306.473594548552" y2="306.473594548552" /><text  class="poloto_tick_labels poloto_text" alignment-baseline="middle" text-anchor="end" x="135" y="306.473594548552" > 1500</text><line  class="poloto_axis_lines" stroke="black" x1="150" x2="144" y1="221.2947189097104" y2="221.2947189097104" /><text  class="poloto_tick_labels poloto_text" alignment-baseline="middle" text-anchor="end" x="135" y="221.2947189097104" > 2000</text><line  class="poloto_axis_lines" stroke="black" x1="150" x2="144" y1="136.11584327086882" y2="136.11584327086882" /><text  class="poloto_tick_labels poloto_text" alignment-baseline="middle" text-anchor="end" x="135" y="136.11584327086882" > 2500</text><path  stroke="black" fill="none" class="poloto_axis_lines" style="stroke-dasharray:14.518002322880372;stroke-dashoffset:-58.04878048780488;" d=" M 150 400 L 650 400" /><path  stroke="black" fill="none" class="poloto_axis_lines" style="stroke-dasharray:8.517887563884155;stroke-dashoffset:-8.347529812606467;" d=" M 150 400 L 150 100" /></svg>