<svg class="poloto" width="800" height="500" viewBox="0 0 800 500" xmlns="http://www.w3.org/2000/svg"><style>.poloto { stroke-linecap:round; stroke-linejoin:round; font-family: 'Tahoma', sans-serif; background-color: AliceBlue;} .poloto_scatter{stroke-width:7} .poloto_line{stroke-width:2} .poloto_text{fill: black;} .poloto_axis_lines{stroke: black;stroke-width:3;fill:none;stroke-dasharray:none} .poloto0stroke{stroke:  blue;} .poloto1stroke{stroke:  red;} .poloto2stroke{stroke:  green;} .poloto3stroke{stroke:  gold;} .poloto4stroke{stroke:  aqua;} .poloto5stroke{stroke:  lime;} .poloto6stroke{stroke:  orange;} .poloto7stroke{stroke:  chocolate;} .poloto0fill{fill:blue;} .poloto1fill{fill:red;} .poloto2fill{fill:green;} .poloto3fill{fill:gold;} .poloto4fill{fill:aqua;} .poloto5fill{fill:lime;} .poloto6fill{fill:orange;} .poloto7fill{fill:chocolate;}</style><text  class="poloto_text poloto_legend_text" alignment-baseline="middle" text-anchor="start" font-size="large" x="675" y="100" ></text><path  class="poloto_linefill poloto0fill" d=" M 150 400 L 150 351.26475548060705 L 151.74216027874564 350.5902192242833 L 153.4843205574913 357.504215851602 L 155.22648083623693 360.3709949409781 L 156.96864111498257 359.1905564924115 L 158.71080139372822 354.80607082630695 L 160.45296167247386 350.7588532883642 L 162.1951219512195 352.27655986509274 L 163.93728222996515 356.3237774030354 L 165.6794425087108 353.1197301854975 L 167.42160278745644 355.4806070826307 L 169.16376306620208 354.3001686340641 L 170.90592334494772 357.33558178752105 L 172.64808362369337 360.0337268128162 L 174.390243902439 365.4300168634064 L 176.13240418118465 374.87352445193926 L 177.8745644599303 377.74030354131537 L 179.61672473867597 382.1247892074199 L 181.3588850174216 387.858347386172 L 183.10104529616726 390.72512647554805 L 184.8432055749129 389.2074198988196 L 186.58536585365854 394.09780775716695 L 188.3275261324042 393.929173693086 L 190.06968641114983 392.9173693086003 L 191.81184668989548 397.3018549747049 L 193.55400696864112 395.10961214165263 L 195.29616724738676 391.06239460370995 L 197.0383275261324 398.3136593591905 L 198.78048780487805 400 L 200.5226480836237 399.83136593591905 L 202.26480836236934 397.3018549747049 L 204.00696864111498 395.2782462057336 L 205.74912891986062 395.10961214165263 L 207.49128919860627 392.41146711635747 L 209.2334494773519 391.39966273187184 L 210.97560975609755 391.2310286677909 L 212.7177700348432 383.81112984822937 L 214.45993031358887 383.3052276559865 L 216.2020905923345 381.1129848229342 L 217.94425087108016 381.95615514333895 L 219.6864111498258 375.88532883642495 L 221.42857142857144 373.6930860033727 L 223.1707317073171 372.1753794266442 L 224.91289198606273 368.1281618887015 L 226.65505226480838 364.9241146711636 L 228.39721254355402 367.6222596964587 L 230.13937282229966 367.11635750421584 L 231.8815331010453 366.4418212478921 L 233.62369337979095 366.1045531197302 L 235.3658536585366 363.575042158516 L 237.10801393728224 364.41821247892074 L 238.85017421602788 362.3946037099494 L 240.59233449477352 358.1787521079258 L 242.33449477351917 357.1669477234401 L 244.0766550522648 359.1905564924115 L 245.81881533101046 357.33558178752105 L 247.5609756097561 356.99831365935916 L 249.30313588850174 354.9747048903879 L 251.0452961672474 352.7824620573356 L 252.78745644599303 349.7470489038786 L 254.53542392566783 343.8448566610455 L 256.2717770034843 338.95446880269816 L 258.01393728222996 334.2327150084317 L 259.7560975609756 333.72681281618884 L 261.49825783972125 331.5345699831366 L 263.2404181184669 331.02866779089373 L 264.9883855981417 329.3423271500843 L 266.7247386759582 327.318718381113 L 268.4668989547038 329.51096121416526 L 270.20905923344947 329.6795952782462 L 271.9512195121951 332.88364249578416 L 273.69337979094075 328.6677908937605 L 275.44134727061555 332.20910623946037 L 277.17770034843204 325.4637436762226 L 278.9198606271777 328.33052276559863 L 280.6620209059233 327.15008431703205 L 282.40418118466897 331.7032040472175 L 284.1463414634146 326.47554806070826 L 285.88850174216026 326.13827993254637 L 287.6306620209059 324.78920741989884 L 289.37282229965155 321.92242833052273 L 291.1149825783972 318.38111298482295 L 292.85714285714283 316.6947723440135 L 294.5993031358885 315.177065767285 L 296.3414634146342 307.5885328836425 L 298.08362369337976 304.3844856661045 L 299.82578397212546 301.3490725126475 L 301.56794425087105 303.7099494097808 L 303.31010452961675 298.6509274873524 L 305.05226480836234 301.0118043844857 L 306.79442508710804 299.49409780775716 L 308.5365853658536 293.929173693086 L 310.2787456445993 293.42327150084316 L 312.0209059233449 290.05059021922426 L 313.7630662020906 286.5092748735244 L 315.5052264808362 286.3406408094435 L 317.2473867595819 280.60708263069137 L 318.9895470383275 279.93254637436763 L 320.7317073170732 282.29342327150084 L 322.4738675958188 275.716694772344 L 324.2160278745645 273.0185497470489 L 325.95818815331006 271.1635750421585 L 327.70034843205576 270.6576728499157 L 329.44250871080135 267.11635750421584 L 331.18466898954705 272.3440134907251 L 332.92682926829264 271.83811129848226 L 334.66898954703834 263.06913996627316 L 336.4111498257839 262.2259696458685 L 338.1533101045296 264.41821247892074 L 339.8954703832752 262.2259696458685 L 341.6376306620209 255.64924114671163 L 343.3797909407665 245.86846543001684 L 345.1219512195122 248.7352445193929 L 346.86411149825784 244.68802698145026 L 348.6062717770035 243.84485666104553 L 350.34843205574913 238.95446880269816 L 352.0905923344948 239.29173693086 L 353.8327526132404 240.64080944350758 L 355.57491289198606 244.35075885328837 L 357.3170731707317 245.02529510961216 L 359.05923344947735 244.01349072512647 L 360.801393728223 247.38617200674537 L 362.54355400696863 240.97807757166947 L 364.2857142857143 249.57841483979763 L 366.0278745644599 252.95109612141653 L 367.77003484320556 246.0370994940978 L 369.5121951219512 248.56661045531195 L 371.25435540069685 241.65261382799326 L 372.9965156794425 248.56661045531195 L 374.73867595818814 226.81281618887016 L 376.4808362369338 224.95784148397973 L 378.2229965156794 215.00843170320405 L 379.96515679442507 213.15345699831363 L 381.7073170731707 213.15345699831363 L 383.44947735191636 213.49072512647552 L 385.191637630662 209.4435075885329 L 386.93379790940764 209.61214165261384 L 388.6759581881533 203.87858347386168 L 390.41811846689893 205.22765598650926 L 392.1602787456446 213.49072512647552 L 393.9024390243902 204.21585160202358 L 395.6445993031359 202.3608768971332 L 397.3867595818815 200.50590219224284 L 399.1289198606272 193.929173693086 L 400.876887340302 187.858347386172 L 402.6132404181185 186.34064080944347 L 404.3554006968641 214.8397976391231 L 406.0975609756097 190.5564924114671 L 407.83972125435537 181.61888701517705 L 409.581881533101 177.90893760539626 L 411.32404181184666 182.1247892074199 L 413.0662020905923 212.141652613828 L 414.80836236933794 205.7335581787521 L 416.5505226480836 198.98819561551431 L 418.29268292682923 191.5682967959528 L 420.0348432055749 190.2192242833052 L 421.7770034843206 191.5682967959528 L 423.5191637630662 190.2192242833052 L 425.26132404181186 188.70151770657674 L 427.0034843205575 187.35244519392916 L 428.74564459930315 175.716694772344 L 430.4878048780488 173.18718381112984 L 432.2357723577236 180.10118043844858 L 433.9721254355401 180.10118043844858 L 435.7142857142857 181.1129848229342 L 437.45644599303137 183.97976391231026 L 439.198606271777 179.0893760539629 L 440.94076655052265 174.19898819561553 L 442.6829268292683 186.00337268128163 L 444.42508710801394 192.9173693086003 L 446.1672473867596 190.2192242833052 L 447.9094076655052 176.3912310286678 L 449.65156794425087 146.20573355817874 L 451.3937282229965 146.0370994940978 L 453.13588850174216 146.54300168634063 L 454.8780487804878 145.0252951096121 L 456.62020905923345 134.40134907251263 L 458.3623693379791 129.17369308600337 L 460.10452961672473 126.64418212478921 L 461.8466898954704 131.02866779089373 L 463.588850174216 131.02866779089373 L 465.33101045296166 119.56155143338952 L 467.0731707317073 115.177065767285 L 468.81533101045295 113.49072512647552 L 470.5574912891986 112.98482293423268 L 472.29965156794424 115.85160202360873 L 474.04761904761904 107.75716694772342 L 475.7839721254355 104.04721753794263 L 477.52613240418117 100 L 479.2682926829268 109.44350758853284 L 481.01045296167246 103.70994940978073 L 482.7526132404181 107.41989881956152 L 484.49477351916374 117.53794266441821 L 486.2369337979094 108.43170320404721 L 487.97909407665503 110.28667790893758 L 489.7212543554007 112.98482293423268 L 491.4634146341463 113.32209106239458 L 493.20557491289196 121.07925801011805 L 494.9477351916376 119.39291736930858 L 496.68989547038325 125.63237774030353 L 498.4320557491289 122.76559865092747 L 500.17421602787454 121.58516020236084 L 501.9163763066202 111.97301854974705 L 503.6585365853658 116.02023608768968 L 505.40069686411147 115.177065767285 L 507.1428571428571 122.93423271500842 L 508.88501742160275 136.9308600337268 L 510.6271777003484 132.20910623946037 L 512.3693379790941 129.34232715008432 L 514.1114982578397 134.56998313659358 L 515.8536585365853 134.23271500843168 L 517.595818815331 135.58178752107926 L 519.3379790940767 138.9544688026981 L 521.0801393728223 144.51939291736932 L 522.822299651568 154.97470489038784 L 524.5644599303137 156.8296795952782 L 526.3066202090592 168.46543001686337 L 528.0487804878048 160.2023608768971 L 529.7909407665505 168.80269814502526 L 531.5331010452962 168.46543001686337 L 533.2752613240418 180.7757166947723 L 535.0174216027874 187.5210792580101 L 536.7595818815331 193.929173693086 L 538.5017421602788 197.47048903878584 L 540.2439024390244 195.44688026981447 L 541.98606271777 198.65092748735242 L 543.7282229965157 210.96121416526137 L 545.4703832752614 208.09443507588531 L 547.212543554007 218.7183811129848 L 548.9547038327526 218.7183811129848 L 550.6968641114983 227.8246205733558 L 552.439024390244 231.02866779089373 L 554.1811846689895 229.34232715008432 L 555.9233449477351 238.11129848229342 L 557.6655052264808 245.86846543001684 L 559.4076655052265 235.7504215851602 L 561.1498257839721 229.17369308600337 L 562.8919860627177 234.06408094435074 L 564.6341463414634 244.18212478920742 L 566.3763066202091 236.76222596964584 L 568.1242740998839 243.84485666104553 L 569.8606271777003 244.35075885328837 L 571.602787456446 247.38617200674537 L 573.3449477351917 242.49578414839795 L 575.0871080139373 255.81787521079258 L 576.8292682926829 253.45699831365937 L 578.5714285714286 276.89713322091063 L 580.3135888501743 259.1905564924115 L 582.0557491289198 261.38279932546374 L 583.7979094076654 264.2495784148398 L 585.5400696864111 264.75548060708263 L 587.2822299651568 268.80269814502526 L 589.0301974448316 273.6930860033727 L 590.766550522648 273.18718381112984 L 592.5087108013937 275.0421585160202 L 594.2508710801394 276.89713322091063 L 595.993031358885 280.1011804384486 L 597.7351916376306 290.893760539629 L 599.4773519163763 284.822934232715 L 601.219512195122 281.4502529510961 L 602.9616724738676 282.96795952782463 L 604.7038327526132 278.58347386172005 L 606.4459930313589 276.0539629005059 L 608.1881533101046 280.60708263069137 L 609.9303135888501 280.94435075885326 L 611.6724738675957 284.31703204047216 L 613.4146341463414 291.5682967959528 L 615.1567944250871 294.09780775716695 L 616.8989547038327 304.5531197301855 L 618.6411149825783 310.2866779089376 L 620.383275261324 305.90219224283305 L 622.1254355400697 303.3726812816189 L 623.8675958188153 308.93760539629005 L 625.609756097561 312.141652613828 L 627.3519163763067 312.31028667790895 L 629.0940766550523 314.67116357504216 L 630.8362369337979 324.45193929173695 L 632.5783972125436 316.0202360876897 L 634.3205574912893 316.3575042158516 L 636.0627177700349 318.5497470489039 L 637.8048780487804 322.9342327150084 L 639.5470383275261 325.9696458684654 L 641.2891986062718 328.1618887015177 L 643.0313588850174 329.6795952782462 L 644.773519163763 328.4991568296796 L 646.5156794425087 338.1112984822934 L 648.2578397212544 340.3035413153457 L 650 341.1467116357504 L 650 400 Z" /><text  class="poloto_labels poloto_text poloto_title" alignment-baseline="start" text-anchor="middle" font-size="x-large" x="400" y="37.5" >Total players on 2021-08-07</text><text  class="poloto_labels poloto_text poloto_xname" alignment-baseline="start" text-anchor="middle" font-size="x-large" x="400" y="481.25" >Time</text><text  class="poloto_labels poloto_text poloto_yname" alignment-baseline="start" text-anchor="middle" font-size="x-large" transform="rotate(-90,37.5,250)" x="37.5" y="250" >Count</text><line  class="poloto_axis_lines" stroke="black" x1="208.0487804878049" x2="208.0487804878049" y1="400" y2="405" /><text  class="poloto_tick_labels poloto_text" alignment-baseline="start" text-anchor="middle" x="208.0487804878049" y="430" > 03:00</text><line  class="poloto_axis_lines" stroke="black" x1="266.1207897793264" x2="266.1207897793264" y1="400" y2="405" /><text  class="poloto_tick_labels poloto_text" alignment-baseline="start" text-anchor="middle" x="266.1207897793264" y="430" > 06:00</text><line  class="poloto_axis_lines" stroke="black" x1="324.19279907084785" x2="324.19279907084785" y1="400" y2="405" /><text  class="poloto_tick_labels poloto_text" alignment-baseline="start" text-anchor="middle" x="324.19279907084785" y="430" > 08:00</text><line  class="poloto_axis_lines" stroke="black" x1="382.2648083623693" x2="382.2648083623693" y1="400" y2="405" /><text  class="poloto_tick_labels poloto_text" alignment-baseline="start" text-anchor="middle" x="382.2648083623693" y="430" > 11:00</text><line  class="poloto_axis_lines" stroke="black" x1="440.3368176538908" x2="440.3368176538908" y1="400" y2="405" /><text  class="poloto_tick_labels poloto_text" alignment-baseline="start" text-anchor="middle" x="440.3368176538908" y="430" > 14:00</text><line  class="poloto_axis_lines" stroke="black" x1="498.4088269454123" x2="498.4088269454123" y1="400" y2="405" /><text  class="poloto_tick_labels poloto_text" alignment-baseline="start" text-anchor="middle" x="498.4088269454123" y="430" > 17:00</text><line  class="poloto_axis_lines" stroke="black" x1="556.4808362369338" x2="556.4808362369338" y1="400" y2="405" /><text  class="poloto_tick_labels poloto_text" alignment-baseline="start" text-anchor="middle" x="556.4808362369338" y="430" > 19:00</text><line  class="poloto_axis_lines" stroke="black" x1="614.5528455284552" x2="614.5528455284552" y1="400" y2="405" /><text  class="poloto_tick_labels poloto_text" alignment-baseline="start" text-anchor="middle" x="614.5528455284552" y="430" > 22:00</text><line  class="poloto_axis_lines" stroke="black" x1="150" x2="144" y1="347.8920741989882" y2="347.8920741989882" /><text  class="poloto_tick_labels poloto_text" alignment-baseline="middle" text-anchor="end" x="135" y="347.8920741989882" > 1500</text><line  class="poloto_axis_lines" stroke="black" x1="150" x2="144" y1="263.575042158516" y2="263.575042158516" /><text  class="poloto_tick_labels poloto_text" alignment-baseline="middle" text-anchor="end" x="135" y="263.575042158516" > 2000</text><line  class="poloto_axis_lines" stroke="black" x1="150" x2="144" y1="179.25801011804384" y2="179.25801011804384" /><text  class="poloto_tick_labels poloto_text" alignment-baseline="middle" text-anchor="end" x="135" y="179.25801011804384" > 2500</text><path  stroke="black" fill="none" class="poloto_axis_lines" style="stroke-dasharray:14.518002322880372;stroke-dashoffset:-58.04878048780488;" d=" M 150 400 L 650 400" /><path  stroke="black" fill="none" class="poloto_axis_lines" style="stroke-dasharray:8.431703204047219;stroke-dashoffset:-52.10792580101182;" d=" M 150 400 L 150 100" /></svg>