<svg class="poloto" width="800" height="500" viewBox="0 0 800 500" xmlns="http://www.w3.org/2000/svg"><style>.poloto { stroke-linecap:round; stroke-linejoin:round; font-family: 'Tahoma', sans-serif; background-color: AliceBlue;} .poloto_scatter{stroke-width:7} .poloto_line{stroke-width:2} .poloto_text{fill: black;} .poloto_axis_lines{stroke: black;stroke-width:3;fill:none;stroke-dasharray:none} .poloto0stroke{stroke:  blue;} .poloto1stroke{stroke:  red;} .poloto2stroke{stroke:  green;} .poloto3stroke{stroke:  gold;} .poloto4stroke{stroke:  aqua;} .poloto5stroke{stroke:  lime;} .poloto6stroke{stroke:  orange;} .poloto7stroke{stroke:  chocolate;} .poloto0fill{fill:blue;} .poloto1fill{fill:red;} .poloto2fill{fill:green;} .poloto3fill{fill:gold;} .poloto4fill{fill:aqua;} .poloto5fill{fill:lime;} .poloto6fill{fill:orange;} .poloto7fill{fill:chocolate;}</style><text  class="poloto_text poloto_legend_text" alignment-baseline="middle" text-anchor="start" font-size="large" x="675" y="100" ></text><path  class="poloto_linefill poloto0fill" d=" M 150 400 L 150 368.6546463245493 L 151.74216027874564 375.1733703190014 L 153.4843205574913 377.39251040221916 L 155.22648083623693 378.0859916782247 L 156.96864111498257 379.4729542302358 L 158.71080139372822 384.6047156726769 L 160.45296167247386 385.2981969486824 L 162.1951219512195 383.91123439667126 L 163.93728222996515 383.3564493758669 L 165.6794425087108 382.9403606102635 L 167.42160278745644 381.55339805825247 L 169.16376306620208 382.52427184466023 L 170.90592334494772 385.1595006934813 L 172.64808362369337 389.4590846047157 L 174.390243902439 389.59778085991684 L 176.13240418118465 389.4590846047157 L 177.8745644599303 387.93342579750345 L 179.61672473867597 388.626907073509 L 181.3588850174216 387.7947295423024 L 183.10104529616726 385.7142857142857 L 184.8432055749129 388.2108183079057 L 186.58536585365854 388.0721220527046 L 188.3275261324042 390.5686546463246 L 190.06968641114983 390.7073509015257 L 191.81184668989548 391.81692094313456 L 193.55400696864112 396.11650485436894 L 195.29616724738676 394.31345353675454 L 197.0383275261324 399.7226074895978 L 198.78048780487805 397.22607489597783 L 200.5226480836237 397.22607489597783 L 202.26480836236934 395.00693481276005 L 204.00696864111498 393.7586685159501 L 205.74912891986062 395.7004160887656 L 207.49128919860627 394.8682385575589 L 209.2334494773519 395.00693481276005 L 210.97560975609755 398.47434119278785 L 212.7177700348432 398.75173370319004 L 214.45993031358887 396.53259361997226 L 216.2020905923345 394.45214979195566 L 217.94425087108016 393.3425797503468 L 219.6864111498258 393.61997226074897 L 221.42857142857144 391.67822468793344 L 223.1707317073171 397.64216366158115 L 224.91289198606273 396.11650485436894 L 226.65505226480838 398.8904299583911 L 228.39721254355402 400 L 230.13937282229966 397.36477115117896 L 231.8815331010453 396.9486823855756 L 233.62369337979095 396.6712898751734 L 235.3658536585366 395.9778085991678 L 237.10801393728224 396.6712898751734 L 238.85017421602788 397.5034674063801 L 240.59233449477352 395.2843273231623 L 242.33449477351917 392.7877947295423 L 244.0766550522648 394.31345353675454 L 245.81881533101046 392.9264909847434 L 247.5609756097561 393.89736477115116 L 249.30313588850174 389.04299583911234 L 251.0452961672474 383.0790568654646 L 252.78745644599303 383.0790568654646 L 254.52961672473867 382.246879334258 L 256.2717770034843 383.6338418862691 L 258.01393728222996 383.3564493758669 L 259.7560975609756 383.21775312066575 L 261.49825783972125 384.0499306518724 L 263.2404181184669 388.2108183079057 L 264.98257839721254 394.31345353675454 L 266.7247386759582 395.7004160887656 L 268.4668989547038 393.89736477115116 L 270.20905923344947 393.7586685159501 L 271.9512195121951 392.7877947295423 L 273.69337979094075 390.4299583911235 L 275.4355400696864 392.51040221914013 L 277.17770034843204 395.00693481276005 L 278.91986062717774 393.3425797503468 L 280.6620209059233 387.37864077669906 L 282.404181184669 386.8238557558946 L 284.1463414634146 382.8016643550624 L 285.8885017421603 384.46601941747576 L 287.6306620209059 383.91123439667126 L 289.3728222996516 379.61165048543694 L 291.1149825783972 379.3342579750347 L 292.8571428571429 375.1733703190014 L 294.5993031358885 373.370319001387 L 296.3414634146342 372.2607489597781 L 298.08362369337976 366.5742024965326 L 299.82578397212546 367.82246879334264 L 301.56794425087105 369.62552011095704 L 303.31010452961675 368.93203883495147 L 305.05226480836234 367.6837725381415 L 306.79442508710804 367.6837725381415 L 308.5365853658536 368.377253814147 L 310.2787456445993 366.0194174757282 L 312.0209059233449 364.49375866851597 L 313.7630662020906 365.46463245492373 L 315.5052264808362 372.3994452149792 L 317.2473867595819 369.3481276005548 L 318.9895470383275 368.0998613037448 L 320.7317073170732 369.4868238557559 L 322.4738675958188 366.0194174757282 L 324.2160278745645 375.58945908460475 L 325.9581881533101 373.0929264909847 L 327.70034843205576 370.18030513176143 L 329.4425087108014 368.93203883495147 L 331.18466898954705 370.4576976421637 L 332.9268292682927 366.99029126213594 L 334.66898954703834 363.24549237170595 L 336.411149825784 361.1650485436893 L 338.1533101045296 358.252427184466 L 339.89547038327527 356.72676837725385 L 341.6376306620209 359.3619972260749 L 343.37979094076655 392.2330097087379 L 345.1219512195122 358.94590846047157 L 346.86411149825784 359.3619972260749 L 348.6062717770035 355.7558945908461 L 350.34843205574913 354.92371705963944 L 352.0905923344948 351.872399445215 L 353.8327526132404 348.26629680998616 L 355.57491289198606 346.3245492371706 L 357.3170731707317 344.93758668515954 L 359.05923344947735 341.47018030513175 L 360.801393728223 334.95145631067965 L 362.54355400696863 334.95145631067965 L 364.2857142857143 341.747572815534 L 366.0278745644599 329.68099861303745 L 367.77003484320556 328.57142857142856 L 369.5121951219512 327.7392510402219 L 371.25435540069685 325.38141470180307 L 372.9965156794425 324.54923717059637 L 374.73867595818814 318.7239944521498 L 376.4808362369338 321.6366158113731 L 378.2229965156795 313.73092926490983 L 379.96515679442507 309.4313453536755 L 381.70731707317077 306.9348127600555 L 383.44947735191636 302.49653259362003 L 385.19163763066206 300.4160887656034 L 386.93379790940764 300 L 388.67595818815334 303.60610263522886 L 390.41811846689893 300.97087378640776 L 392.16027874564463 295.56171983356455 L 393.9024390243902 296.5325936199723 L 395.6445993031359 293.3425797503468 L 397.3867595818815 286.26907073509017 L 399.1289198606272 278.2246879334258 L 400.8710801393728 277.25381414701803 L 402.6132404181185 274.8959778085992 L 404.3554006968641 279.0568654646325 L 406.0975609756098 275.1733703190014 L 407.8397212543554 265.60332871012486 L 409.58188153310107 264.9098474341193 L 411.3240418118467 254.78502080443832 L 413.06620209059236 247.43411927877952 L 414.808362369338 241.60887656033287 L 416.55052264808364 262.69070735090156 L 418.2926829268293 257.14285714285717 L 420.03484320557493 223.43966712898754 L 421.7770034843206 219.9722607489598 L 423.5191637630662 215.39528432732317 L 425.26132404181186 206.65742024965328 L 427.0034843205575 205.40915395284327 L 428.74564459930315 201.66435506241334 L 430.4878048780488 197.64216366158115 L 432.22996515679444 200.55478502080445 L 433.9721254355401 202.21914008321778 L 435.7142857142857 198.4743411927878 L 437.45644599303137 205.9639389736477 L 439.198606271777 199.4452149791956 L 440.94076655052265 205.82524271844665 L 442.6829268292683 201.5256588072122 L 444.42508710801394 199.7226074895978 L 446.1672473867596 187.9334257975035 L 447.9094076655052 179.0568654646325 L 449.65156794425087 176.4216366158114 L 451.3937282229965 168.65464632454928 L 453.13588850174216 163.10679611650488 L 454.8780487804878 159.36199722607495 L 456.62020905923345 157.42024965325936 L 458.3623693379791 150.2080443828017 L 460.10452961672473 149.9306518723995 L 461.8466898954704 149.51456310679612 L 463.588850174216 145.9084604715673 L 465.33101045296166 144.79889042995842 L 467.0731707317073 141.33148404993068 L 468.81533101045295 138.5575589459085 L 470.5574912891986 134.25797503467408 L 472.29965156794424 131.62274618585303 L 474.0418118466899 132.871012482663 L 475.7839721254355 131.20665742024966 L 477.52613240418117 125.65880721220532 L 479.2682926829268 123.85575589459086 L 481.01045296167246 118.44660194174759 L 482.7526132404181 121.49791955617201 L 484.49477351916374 113.86962552011096 L 486.2369337979094 115.2565880721221 L 487.97909407665503 115.67267683772542 L 489.7212543554007 120.38834951456312 L 491.4634146341463 111.92787794729543 L 493.20557491289196 107.90568654646324 L 494.9477351916376 108.59916782246881 L 496.68989547038325 100 L 498.4320557491289 106.24133148404997 L 500.17421602787454 109.84743411927883 L 501.91637630662024 112.76005547850212 L 503.6585365853659 115.39528432732317 L 505.4006968641115 115.5339805825243 L 507.14285714285717 122.74618585298202 L 508.8850174216028 126.35228848821083 L 510.62717770034845 136.75450762829405 L 512.3693379790941 141.60887656033287 L 514.1114982578397 137.86407766990294 L 515.8536585365854 136.33841886269073 L 517.5958188153311 128.98751733703193 L 519.3379790940767 131.7614424410541 L 521.0801393728223 124.27184466019418 L 522.822299651568 136.61581137309292 L 524.5644599303137 139.80582524271847 L 526.3066202090592 155.0624133148405 L 528.0487804878048 158.52981969486825 L 529.7909407665505 167.9611650485437 L 531.5331010452962 177.6699029126214 L 533.2752613240418 182.24687933425798 L 535.0174216027874 187.79472954230238 L 536.7595818815331 186.13037447988904 L 538.5017421602788 183.63384188626907 L 540.2439024390244 185.71428571428572 L 541.98606271777 194.1747572815534 L 543.7282229965157 199.86130374479893 L 545.4703832752614 205.13176144244107 L 547.212543554007 219.9722607489598 L 548.9547038327526 216.78224687933425 L 550.6968641114983 221.7753120665742 L 552.439024390244 228.15533980582524 L 554.1811846689895 224.82662968099862 L 555.9233449477351 221.63661581137313 L 557.6655052264808 225.5201109570042 L 559.4076655052265 231.34535367545078 L 561.1498257839721 237.0319001386963 L 562.8919860627177 234.11927877947295 L 564.6341463414634 238.8349514563107 L 566.3763066202091 240.36061026352291 L 568.1184668989547 251.7337031900139 L 569.8606271777003 248.40499306518728 L 571.602787456446 255.47850208044383 L 573.3449477351917 253.2593619972261 L 575.0871080139373 257.14285714285717 L 576.8292682926829 262.82940360610263 L 578.5714285714286 267.8224687933426 L 580.3135888501743 267.12898751733707 L 582.0557491289198 281.41470180305134 L 583.7979094076654 275.0346740638003 L 585.5400696864111 277.25381414701803 L 587.2822299651568 276.1442441054092 L 589.0243902439024 277.5312066574203 L 590.766550522648 282.94036061026355 L 592.5087108013937 286.13037447988904 L 594.2508710801394 283.7725381414702 L 595.993031358885 286.8238557558946 L 597.7351916376306 286.13037447988904 L 599.4773519163763 290.29126213592235 L 601.219512195122 291.40083217753124 L 602.9616724738676 289.18169209431346 L 604.7038327526133 291.40083217753124 L 606.445993031359 300.97087378640776 L 608.1881533101046 305.9639389736477 L 609.9303135888501 309.9861303744799 L 611.6724738675958 302.49653259362003 L 613.4146341463415 304.57697642163663 L 615.1567944250871 306.24133148404997 L 616.8989547038327 311.65048543689323 L 618.6411149825784 308.876560332871 L 620.3832752613241 309.8474341192788 L 622.1254355400697 310.26352288488215 L 623.8675958188153 311.2343966712899 L 625.609756097561 312.8987517337032 L 627.3519163763067 315.117891816921 L 629.0940766550523 315.117891816921 L 630.8362369337979 320.80443828016644 L 632.5783972125436 323.71705963938973 L 634.3205574912893 323.71705963938973 L 636.0627177700349 328.1553398058253 L 637.8048780487804 326.07489597780864 L 639.5470383275261 327.7392510402219 L 641.2891986062718 328.4327323162275 L 643.0313588850174 329.12621359223306 L 644.773519163763 331.9001386962552 L 646.5156794425087 334.6740638002774 L 648.2578397212544 338.14147018030513 L 650 337.17059639389737 L 650 400 Z" /><text  class="poloto_labels poloto_text poloto_title" alignment-baseline="start" text-anchor="middle" font-size="x-large" x="400" y="37.5" >Total players on 2021-09-24</text><text  class="poloto_labels poloto_text poloto_xname" alignment-baseline="start" text-anchor="middle" font-size="x-large" x="400" y="481.25" >Time</text><text  class="poloto_labels poloto_text poloto_yname" alignment-baseline="start" text-anchor="middle" font-size="x-large" transform="rotate(-90,37.5,250)" x="37.5" y="250" >Count</text><line  class="poloto_axis_lines" stroke="black" x1="150" x2="150" y1="400" y2="405" /><text  class="poloto_tick_labels poloto_text" alignment-baseline="start" text-anchor="middle" x="150" y="430" > 00:00:00</text><line  class="poloto_axis_lines" stroke="black" x1="266.14401858304296" x2="266.14401858304296" y1="400" y2="405" /><text  class="poloto_tick_labels poloto_text" alignment-baseline="start" text-anchor="middle" x="266.14401858304296" y="430" > 05:33:20</text><line  class="poloto_axis_lines" stroke="black" x1="382.2880371660859" x2="382.2880371660859" y1="400" y2="405" /><text  class="poloto_tick_labels poloto_text" alignment-baseline="start" text-anchor="middle" x="382.2880371660859" y="430" > 11:06:40</text><line  class="poloto_axis_lines" stroke="black" x1="498.4320557491289" x2="498.4320557491289" y1="400" y2="405" /><text  class="poloto_tick_labels poloto_text" alignment-baseline="start" text-anchor="middle" x="498.4320557491289" y="430" > 16:40:00</text><line  class="poloto_axis_lines" stroke="black" x1="614.5760743321719" x2="614.5760743321719" y1="400" y2="405" /><text  class="poloto_tick_labels poloto_text" alignment-baseline="start" text-anchor="middle" x="614.5760743321719" y="430" > 22:13:20</text><line  class="poloto_axis_lines" stroke="black" x1="150" x2="144" y1="331.622746185853" y2="331.622746185853" /><text  class="poloto_tick_labels poloto_text" alignment-baseline="middle" text-anchor="end" x="135" y="331.622746185853" > 1500</text><line  class="poloto_axis_lines" stroke="black" x1="150" x2="144" y1="262.27461858529824" y2="262.27461858529824" /><text  class="poloto_tick_labels poloto_text" alignment-baseline="middle" text-anchor="end" x="135" y="262.27461858529824" > 2000</text><line  class="poloto_axis_lines" stroke="black" x1="150" x2="144" y1="192.92649098474345" y2="192.92649098474345" /><text  class="poloto_tick_labels poloto_text" alignment-baseline="middle" text-anchor="end" x="135" y="192.92649098474345" > 2500</text><line  class="poloto_axis_lines" stroke="black" x1="150" x2="144" y1="123.57836338418866" y2="123.57836338418866" /><text  class="poloto_tick_labels poloto_text" alignment-baseline="middle" text-anchor="end" x="135" y="123.57836338418866" > 3000</text><path  stroke="black" fill="none" class="poloto_axis_lines" style="stroke-dasharray:14.518002322880372;stroke-dashoffset:-0;" d=" M 150 400 L 650 400" /><path  stroke="black" fill="none" class="poloto_axis_lines" style="stroke-dasharray:6.934812760055477;stroke-dashoffset:-68.377253814147;" d=" M 150 400 L 150 100" /></svg>