<svg class="poloto" width="800" height="500" viewBox="0 0 800 500" xmlns="http://www.w3.org/2000/svg"><style>.poloto { stroke-linecap:round; stroke-linejoin:round; font-family: 'Tahoma', sans-serif; background-color: AliceBlue;} .poloto_scatter{stroke-width:7} .poloto_line{stroke-width:2} .poloto_text{fill: black;} .poloto_axis_lines{stroke: black;stroke-width:3;fill:none;stroke-dasharray:none} .poloto0stroke{stroke:  blue;} .poloto1stroke{stroke:  red;} .poloto2stroke{stroke:  green;} .poloto3stroke{stroke:  gold;} .poloto4stroke{stroke:  aqua;} .poloto5stroke{stroke:  lime;} .poloto6stroke{stroke:  orange;} .poloto7stroke{stroke:  chocolate;} .poloto0fill{fill:blue;} .poloto1fill{fill:red;} .poloto2fill{fill:green;} .poloto3fill{fill:gold;} .poloto4fill{fill:aqua;} .poloto5fill{fill:lime;} .poloto6fill{fill:orange;} .poloto7fill{fill:chocolate;}</style><text  class="poloto_text poloto_legend_text" alignment-baseline="middle" text-anchor="start" font-size="large" x="675" y="100" ></text><path  class="poloto_linefill poloto0fill" d=" M 150 400 L 150 356.915949702184 L 151.74216027874564 354.73196558570487 L 153.4843205574913 356.518861681006 L 155.22648083623693 359.69556585043017 L 156.97444831591173 360.29119788219725 L 158.71080139372822 367.0416942422237 L 160.45296167247386 371.21111846459297 L 162.1951219512195 386.8960953011251 L 163.93728222996515 369.6227663798809 L 165.6794425087108 375.57908669755125 L 167.42160278745644 377.96161482461946 L 169.16376306620208 389.47716743878226 L 170.91173054587688 378.9543348775645 L 172.64808362369337 381.5354070152217 L 174.390243902439 379.9470549305096 L 176.13240418118465 384.5135671740569 L 177.8745644599303 382.5281270681668 L 179.61672473867597 387.2931833223031 L 181.3588850174216 382.72667107875577 L 183.10104529616726 381.3368630046327 L 184.8432055749129 384.3150231634679 L 186.58536585365854 383.52084712111184 L 188.3275261324042 384.91065519523494 L 190.06968641114983 385.109199205824 L 191.81184668989548 383.9179351422899 L 193.55400696864112 387.0946393117141 L 195.29616724738676 387.8888153540702 L 197.0383275261324 391.46260754467244 L 198.78048780487805 393.05095962938447 L 200.5226480836237 390.0727994705493 L 202.26480836236934 393.05095962938447 L 204.00696864111498 400 L 205.74912891986062 399.00727994705494 L 207.49128919860627 399.801455989411 L 209.2334494773519 392.25678358702845 L 210.97560975609755 389.8742554599603 L 212.7177700348432 385.109199205824 L 214.45993031358887 386.8960953011251 L 216.2020905923345 383.9179351422899 L 217.94425087108016 385.109199205824 L 219.6864111498258 381.5354070152217 L 221.42857142857144 375.97617471872934 L 223.1707317073171 375.38054268696226 L 224.91289198606273 372.9980145598941 L 226.65505226480838 373.7921906022502 L 228.39721254355402 375.18199867637327 L 230.13937282229966 368.23295830575773 L 231.8815331010453 360.48974189278624 L 233.62369337979095 358.10721376571803 L 235.3658536585366 353.5407015221707 L 237.10801393728224 346.1945731303772 L 238.85017421602788 346.3931171409663 L 240.59233449477352 339.0469887491728 L 242.33449477351917 329.71542025148904 L 244.0766550522648 330.9066843150232 L 245.81881533101046 327.9285241561879 L 247.5609756097561 337.45863666446064 L 249.30313588850174 331.50231634679017 L 251.0452961672474 331.1052283256122 L 252.78745644599303 328.9212442091331 L 254.52961672473867 322.7663798808736 L 256.2717770034843 318.99404367968236 L 258.01393728222996 319.39113170086034 L 259.7560975609756 311.44937127729975 L 261.49825783972125 315.6187954996691 L 263.2404181184669 315.6187954996691 L 264.98257839721254 316.41297154202516 L 266.7247386759582 310.0595632031767 L 268.4668989547038 315.8173395102581 L 270.20905923344947 314.03044341495695 L 271.9512195121951 310.0595632031767 L 273.69337979094075 306.68431502316344 L 275.4355400696864 304.30178689609534 L 277.17770034843204 309.26538716082064 L 278.9198606271777 315.4202514890801 L 280.6620209059233 321.97220383851754 L 282.40418118466897 318.3984116479153 L 284.1463414634146 318.1998676373263 L 285.88850174216026 323.3620119126406 L 287.6306620209059 331.1052283256122 L 289.37282229965155 327.13434811383195 L 291.1149825783972 318.99404367968236 L 292.85714285714283 326.1416280608868 L 294.5993031358885 308.47121111846457 L 296.3414634146342 306.08868299139647 L 298.08362369337976 306.8828590337524 L 299.82578397212546 302.9119788219722 L 301.56794425087105 293.97749834546653 L 303.31010452961675 294.7716743878226 L 305.05226480836234 298.1469225678359 L 306.79442508710804 297.1542025148908 L 308.5365853658536 301.52217074784915 L 310.2787456445993 302.7134348113832 L 312.0209059233449 296.9556585043018 L 313.7630662020906 298.94109861019194 L 315.5052264808362 290.60225016545337 L 317.2473867595819 290.60225016545337 L 318.9895470383275 287.4255459960291 L 320.7317073170732 274.9172733289213 L 322.4738675958188 273.9245532759762 L 324.2160278745645 276.10853739245533 L 325.95818815331006 272.3362011912641 L 327.70034843205576 264.1958967571145 L 329.44250871080135 263.00463269358045 L 331.18466898954705 269.5565850430179 L 332.92682926829264 265.58570483123765 L 334.66898954703834 257.84248841826604 L 336.4111498257839 256.849768365321 L 338.1533101045296 253.67306419589679 L 339.8954703832752 248.3123759099934 L 341.6376306620209 250.09927200529452 L 343.3797909407665 241.3633355393779 L 345.1219512195122 236.00264725347452 L 346.86411149825784 239.37789543348774 L 348.6062717770035 249.30509596293845 L 350.34843205574913 236.00264725347452 L 352.0905923344948 233.62011912640637 L 353.8327526132404 236.2011912640635 L 355.57491289198606 242.753143613501 L 357.3170731707317 242.753143613501 L 359.05923344947735 248.70946393117143 L 360.801393728223 236.00264725347452 L 362.54355400696863 244.93712772998018 L 364.2857142857143 229.45069490403708 L 366.0278745644599 237.59099933818666 L 367.77003484320556 227.86234281932494 L 369.5121951219512 224.48709463931172 L 371.25435540069685 223.49437458636666 L 372.9965156794425 232.03176704169422 L 374.73867595818814 218.13368630046327 L 376.4808362369338 232.03176704169422 L 378.2229965156794 220.91330244870946 L 379.96515679442507 217.93514228987428 L 381.7073170731707 226.27399073461285 L 383.44947735191636 223.8914626075447 L 385.191637630662 213.36863004632696 L 386.93379790940764 210.58901389808076 L 388.6759581881533 216.94242223692922 L 390.41811846689893 210.19192587690273 L 392.1602787456446 199.47054930509594 L 393.9024390243902 202.64725347452017 L 395.6445993031359 206.81667769688946 L 397.3867595818815 199.669093315685 L 399.1289198606272 188.55062872270022 L 400.8710801393728 197.68365320979487 L 402.6132404181185 194.70549305095963 L 404.3554006968641 191.13170086035737 L 406.0975609756097 186.7637326273991 L 407.83972125435537 186.96227663798808 L 409.581881533101 196.8894771674388 L 411.32404181184666 187.5579086697551 L 413.0662020905923 185.96955658504302 L 414.80836236933794 185.17538054268695 L 416.5505226480836 177.2336201191264 L 418.29268292682923 184.77829252150892 L 420.0348432055749 180.2117802779616 L 421.7770034843206 184.38120450033094 L 423.5191637630662 173.65982792852415 L 425.26132404181186 168.6962276637988 L 427.0034843205575 175.84381204500332 L 428.74564459930315 162.93845135671742 L 430.4878048780488 156.18795499669093 L 432.22996515679444 156.18795499669093 L 433.9721254355401 173.26273990734612 L 435.7142857142857 143.481138318994 L 437.45644599303137 133.7524818001324 L 439.198606271777 128.98742554599608 L 440.94076655052265 130.7743216412972 L 442.6829268292683 130.17868960953012 L 444.42508710801394 138.3189940436797 L 446.1672473867596 141.2971542025149 L 447.9094076655052 139.51025810721376 L 449.65156794425087 139.90734612839185 L 451.3937282229965 135.7379219060225 L 453.13588850174216 125.41363335539381 L 454.8780487804878 124.22236929185965 L 456.62020905923345 125.21508934480482 L 458.3623693379791 126.40635340833887 L 460.10452961672473 125.41363335539381 L 461.8466898954704 129.58305757776304 L 463.588850174216 128.391793514229 L 465.33101045296166 128.98742554599608 L 467.0731707317073 115.28788881535411 L 468.81533101045295 103.37524818001327 L 470.5574912891986 108.14030443414958 L 472.29965156794424 111.71409662475185 L 474.0418118466899 116.28060886829917 L 475.7839721254355 113.69953673064197 L 477.52613240418117 100 L 479.2682926829268 109.13302448709464 L 481.01045296167246 103.57379219060226 L 482.7526132404181 115.4864328259431 L 484.49477351916374 106.94904037061553 L 486.2369337979094 112.7068166776969 L 487.97909407665503 112.30972865651893 L 489.7212543554007 117.86896095301131 L 491.4634146341463 126.80344142951685 L 493.20557491289196 114.49371277299804 L 494.9477351916376 116.67769688947715 L 496.68989547038325 124.42091330244875 L 498.4320557491289 121.83984116479155 L 500.17421602787454 131.96558570483126 L 501.9163763066202 129.38451356717405 L 503.6585365853658 133.95102581072138 L 505.40069686411147 130.17868960953012 L 507.1428571428571 130.17868960953012 L 508.88501742160275 122.03838517538054 L 510.6271777003484 127.99470549305101 L 512.3693379790941 127.39907346128393 L 514.1114982578397 129.98014559894114 L 515.8536585365853 147.0549305095963 L 517.595818815331 152.61416280608867 L 519.3379790940767 152.61416280608867 L 521.0801393728223 143.08405029781602 L 522.822299651568 146.45929847782926 L 524.5644599303137 136.13500992720049 L 526.3066202090592 143.481138318994 L 528.0487804878048 143.6796823295831 L 529.7909407665505 154.79814692256784 L 531.5331010452962 159.16611515552617 L 533.2752613240418 179.21906022501653 L 535.0174216027874 184.77829252150892 L 536.7595818815331 180.41032428855064 L 538.5017421602788 178.22634017207147 L 540.2439024390244 184.77829252150892 L 541.98606271777 181.4030443414957 L 543.7282229965157 184.1826604897419 L 545.4703832752614 187.75645268034415 L 547.2183507549362 191.72733289212445 L 548.9547038327526 194.1098610191926 L 550.6968641114983 203.6399735274653 L 552.439024390244 197.68365320979487 L 554.1811846689895 202.84579748510922 L 555.9233449477351 208.6035737921906 L 557.6655052264808 216.54533421575118 L 559.4076655052265 222.30311052283255 L 561.1498257839721 222.10456651224357 L 562.8919860627177 216.74387822634017 L 564.6341463414634 224.09000661813369 L 566.3763066202091 223.09728656518863 L 568.1184668989547 223.49437458636666 L 569.8606271777003 227.06816677696892 L 571.602787456446 235.80410324288553 L 573.3449477351917 254.66578424884185 L 575.0871080139373 249.90072799470548 L 576.8292682926829 248.70946393117143 L 578.5714285714286 254.07015221707476 L 580.3135888501743 237.98808735936464 L 582.0557491289198 266.5784248841827 L 583.7979094076654 236.59827928524155 L 585.5400696864111 242.35605559232297 L 587.2822299651568 273.52746525479813 L 589.0243902439024 271.542025148908 L 590.766550522648 265.38716082064855 L 592.5087108013937 262.2104566512244 L 594.2508710801394 260.42356055592325 L 595.993031358885 259.4308405029782 L 597.7351916376306 268.16677696889474 L 599.4773519163763 262.60754467240235 L 601.219512195122 262.0119126406354 L 602.9616724738676 260.22501654533426 L 604.7038327526132 260.42356055592325 L 606.4459930313589 264.99007279947057 L 608.1881533101046 265.58570483123765 L 609.9303135888501 268.7624090006618 L 611.6724738675957 274.7187293183322 L 613.4146341463414 277.6968894771675 L 615.1567944250871 280.0794176042356 L 616.8989547038327 278.29252150893444 L 618.6411149825783 276.9027134348114 L 620.383275261324 281.8663136995367 L 622.1254355400697 293.77895433487754 L 623.8675958188153 291.39642620780944 L 625.609756097561 308.47121111846457 L 627.3519163763067 300.92653871608206 L 629.0940766550523 309.66247518199873 L 630.8362369337979 315.023163467902 L 632.5783972125436 321.37657180675046 L 634.3205574912893 316.41297154202516 L 636.0627177700349 321.97220383851754 L 637.8048780487804 323.7590999338187 L 639.5470383275261 323.95764394440766 L 641.2891986062718 327.5314361350099 L 643.0313588850174 331.50231634679017 L 644.773519163763 334.87756452680344 L 646.5156794425087 326.53871608206487 L 648.2578397212544 353.3421575115817 L 650 341.62806088682987 L 650 400 Z" /><text  class="poloto_labels poloto_text poloto_title" alignment-baseline="start" text-anchor="middle" font-size="x-large" x="400" y="37.5" >Total players on 2021-07-24</text><text  class="poloto_labels poloto_text poloto_xname" alignment-baseline="start" text-anchor="middle" font-size="x-large" x="400" y="481.25" >Time</text><text  class="poloto_labels poloto_text poloto_yname" alignment-baseline="start" text-anchor="middle" font-size="x-large" transform="rotate(-90,37.5,250)" x="37.5" y="250" >Count</text><line  class="poloto_axis_lines" stroke="black" x1="208.0487804878049" x2="208.0487804878049" y1="400" y2="405" /><text  class="poloto_tick_labels poloto_text" alignment-baseline="start" text-anchor="middle" x="208.0487804878049" y="430" > 03:00</text><line  class="poloto_axis_lines" stroke="black" x1="266.1207897793264" x2="266.1207897793264" y1="400" y2="405" /><text  class="poloto_tick_labels poloto_text" alignment-baseline="start" text-anchor="middle" x="266.1207897793264" y="430" > 06:00</text><line  class="poloto_axis_lines" stroke="black" x1="324.19279907084785" x2="324.19279907084785" y1="400" y2="405" /><text  class="poloto_tick_labels poloto_text" alignment-baseline="start" text-anchor="middle" x="324.19279907084785" y="430" > 08:00</text><line  class="poloto_axis_lines" stroke="black" x1="382.2648083623693" x2="382.2648083623693" y1="400" y2="405" /><text  class="poloto_tick_labels poloto_text" alignment-baseline="start" text-anchor="middle" x="382.2648083623693" y="430" > 11:00</text><line  class="poloto_axis_lines" stroke="black" x1="440.3368176538908" x2="440.3368176538908" y1="400" y2="405" /><text  class="poloto_tick_labels poloto_text" alignment-baseline="start" text-anchor="middle" x="440.3368176538908" y="430" > 14:00</text><line  class="poloto_axis_lines" stroke="black" x1="498.4088269454123" x2="498.4088269454123" y1="400" y2="405" /><text  class="poloto_tick_labels poloto_text" alignment-baseline="start" text-anchor="middle" x="498.4088269454123" y="430" > 17:00</text><line  class="poloto_axis_lines" stroke="black" x1="556.4808362369338" x2="556.4808362369338" y1="400" y2="405" /><text  class="poloto_tick_labels poloto_text" alignment-baseline="start" text-anchor="middle" x="556.4808362369338" y="430" > 19:00</text><line  class="poloto_axis_lines" stroke="black" x1="614.5528455284552" x2="614.5528455284552" y1="400" y2="405" /><text  class="poloto_tick_labels poloto_text" alignment-baseline="start" text-anchor="middle" x="614.5528455284552" y="430" > 22:00</text><line  class="poloto_axis_lines" stroke="black" x1="150" x2="144" y1="321.37657180675046" y2="321.37657180675046" /><text  class="poloto_tick_labels poloto_text" alignment-baseline="middle" text-anchor="end" x="135" y="321.37657180675046" > 1500</text><line  class="poloto_axis_lines" stroke="black" x1="150" x2="144" y1="222.10456651224354" y2="222.10456651224354" /><text  class="poloto_tick_labels poloto_text" alignment-baseline="middle" text-anchor="end" x="135" y="222.10456651224354" > 2000</text><line  class="poloto_axis_lines" stroke="black" x1="150" x2="144" y1="122.83256121773661" y2="122.83256121773661" /><text  class="poloto_tick_labels poloto_text" alignment-baseline="middle" text-anchor="end" x="135" y="122.83256121773661" > 2500</text><path  stroke="black" fill="none" class="poloto_axis_lines" style="stroke-dasharray:14.518002322880372;stroke-dashoffset:-58.04878048780488;" d=" M 150 400 L 650 400" /><path  stroke="black" fill="none" class="poloto_axis_lines" style="stroke-dasharray:9.927200529450694;stroke-dashoffset:-78.62342819324951;" d=" M 150 400 L 150 100" /></svg>