<svg class="poloto" width="800" height="500" viewBox="0 0 800 500" xmlns="http://www.w3.org/2000/svg"><style>.poloto { stroke-linecap:round; stroke-linejoin:round; font-family: 'Tahoma', sans-serif; background-color: AliceBlue;} .poloto_scatter{stroke-width:7} .poloto_line{stroke-width:2} .poloto_text{fill: black;} .poloto_axis_lines{stroke: black;stroke-width:3;fill:none;stroke-dasharray:none} .poloto0stroke{stroke:  blue;} .poloto1stroke{stroke:  red;} .poloto2stroke{stroke:  green;} .poloto3stroke{stroke:  gold;} .poloto4stroke{stroke:  aqua;} .poloto5stroke{stroke:  lime;} .poloto6stroke{stroke:  orange;} .poloto7stroke{stroke:  chocolate;} .poloto0fill{fill:blue;} .poloto1fill{fill:red;} .poloto2fill{fill:green;} .poloto3fill{fill:gold;} .poloto4fill{fill:aqua;} .poloto5fill{fill:lime;} .poloto6fill{fill:orange;} .poloto7fill{fill:chocolate;}</style><text  class="poloto_text poloto_legend_text" alignment-baseline="middle" text-anchor="start" font-size="large" x="675" y="100" ></text><path  class="poloto_linefill poloto0fill" d=" M 150 400 L 150 315.27320605661623 L 151.74216027874564 321.1981566820277 L 153.4843205574913 316.65569453587887 L 155.22648083623693 316.0631994733377 L 156.96864111498257 327.3206056616195 L 158.71080139372822 334.6280447662936 L 160.45296167247386 334.825543120474 L 162.1951219512195 338.57801184990126 L 163.93728222996515 340.1579986833443 L 165.6794425087108 346.6754443712969 L 167.42160278745644 351.4154048716261 L 169.16376306620208 351.4154048716261 L 170.90592334494772 355.7603686635945 L 172.64808362369337 365.63528637261356 L 174.390243902439 361.2903225806452 L 176.13240418118465 367.2152732060566 L 177.8745644599303 363.66030283080977 L 179.61672473867597 365.63528637261356 L 181.3588850174216 369.7827518104016 L 183.10104529616726 377.48518762343645 L 184.8432055749129 383.0151415404872 L 186.58536585365854 380.64516129032256 L 188.3275261324042 387.36010533245553 L 190.06968641114983 390.52007899934165 L 191.81184668989548 392.8900592495063 L 193.55400696864112 390.52007899934165 L 195.29616724738676 391.70506912442397 L 197.0383275261324 389.53258722843975 L 198.78048780487805 383.6076366030283 L 200.5226480836237 383.41013824884794 L 202.26480836236934 387.9526003949967 L 204.00696864111498 392.4950625411455 L 205.74912891986062 394.66754443712966 L 207.49128919860627 399.0125082290981 L 209.2334494773519 395.852534562212 L 210.97560975609755 400 L 212.7177700348432 395.2600394996708 L 214.45993031358887 388.3475971033575 L 216.2020905923345 388.9400921658986 L 217.94425087108016 383.2126398946675 L 219.6864111498258 374.9177090190915 L 221.42857142857144 369.5852534562212 L 223.1707317073171 373.53522053982886 L 224.91289198606273 372.7452271231073 L 226.65505226480838 376.695194206715 L 228.39721254355402 373.53522053982886 L 230.13937282229966 381.2376563528637 L 231.8815331010453 380.2501645819618 L 233.62369337979095 376.3001974983542 L 235.3658536585366 373.1402238314681 L 237.10801393728224 377.48518762343645 L 238.85017421602788 375.51020408163265 L 240.59233449477352 380.64516129032256 L 242.33449477351917 382.02764976958525 L 244.0766550522648 384.59512837393027 L 245.81881533101046 380.842659644503 L 247.5609756097561 382.02764976958525 L 249.30313588850174 378.4726793943384 L 251.0452961672474 375.9052007899934 L 252.78745644599303 369.7827518104016 L 254.52961672473867 370.37524687294274 L 256.2717770034843 374.52271231073075 L 258.01393728222996 377.68268597761687 L 259.7560975609756 380.64516129032256 L 261.49825783972125 376.1026991441738 L 263.2404181184669 383.2126398946675 L 264.98257839721254 383.8051349572087 L 266.7247386759582 389.3350888742594 L 268.4668989547038 386.9651086240948 L 270.20905923344947 386.37261356155364 L 271.9512195121951 386.9651086240948 L 273.69337979094075 385.9776168531929 L 275.4355400696864 385.58262014483216 L 277.17770034843204 381.2376563528637 L 278.9198606271777 374.9177090190915 L 280.6620209059233 378.8676761026992 L 282.40418118466897 379.65766951942066 L 284.1463414634146 373.33772218564843 L 285.88850174216026 365.0427913100724 L 287.6306620209059 362.0803159973667 L 289.37282229965155 363.46280447662934 L 291.1149825783972 362.87030941408824 L 292.85714285714283 357.34035549703754 L 294.5993031358885 356.9453587886768 L 296.3414634146342 358.9203423304806 L 298.08362369337976 357.9328505595787 L 299.82578397212546 352.60039499670836 L 301.56794425087105 352.0078999341672 L 303.31010452961675 350.2304147465438 L 305.05226480836234 349.44042132982224 L 306.79442508710804 355.7603686635945 L 308.5365853658536 353.1928900592495 L 310.2787456445993 358.13034891375906 L 312.0209059233449 354.57537853851215 L 313.7630662020906 363.66030283080977 L 315.5052264808362 361.685319289006 L 317.2473867595819 356.35286372613564 L 318.9895470383275 352.7978933508888 L 320.7317073170732 351.0204081632653 L 322.4738675958188 350.4279131007242 L 324.2160278745645 345.29295589203423 L 325.95818815331006 350.0329163923634 L 327.70034843205576 346.6754443712969 L 329.44250871080135 347.2679394338381 L 331.18466898954705 340.7504937458855 L 332.92682926829264 340.3554970375247 L 334.66898954703834 337.78801843317973 L 336.4111498257839 333.245556287031 L 338.1533101045296 325.7406188281764 L 339.8954703832752 327.91310072416064 L 341.6376306620209 331.4680710994075 L 343.3797909407665 319.815668202765 L 345.1219512195122 308.16326530612247 L 346.86411149825784 305.3982883475971 L 348.6062717770035 308.16326530612247 L 350.34843205574913 311.12574061882816 L 352.0905923344948 303.2258064516129 L 353.8327526132404 300.0658327847268 L 355.57491289198606 301.4483212639895 L 357.3170731707317 296.31336405529953 L 359.05923344947735 296.11586570111916 L 360.801393728223 286.83344305464124 L 362.54355400696863 284.8584595128374 L 364.2857142857143 278.93350888742594 L 366.0278745644599 276.95852534562215 L 367.77003484320556 276.56352863726136 L 369.5121951219512 269.651086240948 L 371.25435540069685 268.4660961158657 L 372.9965156794425 263.52863726135615 L 374.73867595818814 263.1336405529954 L 376.4808362369338 263.3311389071758 L 378.2229965156794 260.76366030283083 L 379.96515679442507 258.788676761027 L 381.7073170731707 259.18367346938777 L 383.44947735191636 257.2086899275839 L 385.191637630662 255.03620803159976 L 386.93379790940764 254.4437129690586 L 388.6759581881533 249.50625411454905 L 390.41811846689893 243.97630019749835 L 392.1602787456446 241.80381830151418 L 393.9024390243902 226.0039499670836 L 395.6445993031359 217.1165240289664 L 397.3867595818815 235.8788676761027 L 399.1289198606272 218.8940092165899 L 400.8710801393728 217.31402238314683 L 402.6132404181185 207.83410138248848 L 404.3554006968641 203.29163923633968 L 406.0975609756097 197.76168531928903 L 407.83972125435537 205.66161948650426 L 409.581881533101 203.88413429888084 L 411.32404181184666 202.69914417379857 L 413.0662020905923 200.13166556945362 L 414.80836236933794 203.4891375905201 L 416.5505226480836 197.5641869651086 L 418.29268292682923 189.466754443713 L 420.0348432055749 188.0842659644503 L 421.7770034843206 183.34430546412113 L 423.5191637630662 183.5418038183015 L 425.26132404181186 181.5668202764977 L 427.0034843205575 182.5543120473996 L 428.74564459930315 170.9019091507571 L 430.4878048780488 159.44700460829495 L 432.22996515679444 161.026991441738 L 433.9721254355401 148.9795918367347 L 435.7142857142857 154.70704410796577 L 437.45644599303137 158.06451612903226 L 439.198606271777 151.3495720868993 L 440.94076655052265 145.22712310730742 L 442.6829268292683 138.31468071099408 L 444.42508710801394 130.61224489795921 L 446.1672473867596 124.48979591836735 L 447.9094076655052 125.87228439763004 L 449.65156794425087 116.39236339697169 L 451.3937282229965 117.57735352205401 L 453.13588850174216 110.66491112574062 L 454.8780487804878 112.63989466754447 L 456.62020905923345 113.23238973008557 L 458.3623693379791 110.07241606319946 L 460.10452961672473 110.07241606319946 L 461.8466898954704 110.26991441737988 L 463.588850174216 107.10994075049376 L 465.33101045296166 116.58986175115206 L 467.0731707317073 114.61487820934826 L 468.81533101045295 121.5273206056616 L 470.5574912891986 119.35483870967744 L 472.29965156794424 121.5273206056616 L 474.0418118466899 124.09479921000661 L 475.7839721254355 127.64976958525347 L 477.52613240418117 123.89730085582619 L 479.2682926829268 122.11981566820276 L 481.01045296167246 116.19486504279132 L 482.7526132404181 118.95984200131664 L 484.49477351916374 122.11981566820276 L 486.2369337979094 115.99736668861095 L 487.97909407665503 114.21988150098747 L 489.7212543554007 108.88742593811719 L 491.4634146341463 109.08492429229756 L 493.20557491289196 103.75246872942728 L 494.9477351916376 103.15997366688612 L 496.68989547038325 100 L 498.4320557491289 110.26991441737988 L 500.17421602787454 114.0223831468071 L 501.9163763066202 109.08492429229756 L 503.6585365853658 103.75246872942728 L 505.40069686411147 122.51481237656355 L 507.1428571428571 116.19486504279132 L 508.88501742160275 119.35483870967744 L 510.6271777003484 119.74983541803817 L 512.3693379790941 124.09479921000661 L 514.1114982578397 125.47728768926925 L 515.8536585365853 127.0572745227123 L 517.595818815331 141.0796576695194 L 519.3379790940767 135.9447004608295 L 521.0801393728223 156.28703094140883 L 522.822299651568 134.9572086899276 L 524.5644599303137 140.68466096115867 L 526.3066202090592 148.78209348255433 L 528.0487804878048 173.66688610928242 L 529.7909407665505 169.5194206714944 L 531.5331010452962 167.1494404213298 L 533.2752613240418 167.74193548387098 L 535.0174216027874 169.32192231731403 L 536.7595818815331 162.60697827518106 L 538.5017421602788 170.70441079657672 L 540.2439024390244 174.85187623436474 L 541.98606271777 183.14680710994077 L 543.7282229965157 182.9493087557604 L 545.4703832752614 181.5668202764977 L 547.212543554007 180.3818301514154 L 548.9547038327526 181.17182356813692 L 550.6968641114983 192.03423304805796 L 552.439024390244 187.29427254772878 L 554.1811846689895 191.83673469387753 L 555.9233449477351 198.55167873601056 L 557.6655052264808 192.82422646477949 L 559.4076655052265 198.74917709019093 L 561.1498257839721 192.23173140223832 L 562.8919860627177 191.4417379855168 L 564.6341463414634 192.03423304805796 L 566.3763066202091 201.71165240289668 L 568.1184668989547 196.5766951942067 L 569.8606271777003 207.43910467412775 L 571.602787456446 205.66161948650426 L 573.3449477351917 201.1191573403555 L 575.0871080139373 214.74654377880188 L 576.8292682926829 227.3864384463463 L 578.5714285714286 218.8940092165899 L 580.3135888501743 204.67412771560237 L 582.0557491289198 208.22909809084928 L 583.7979094076654 225.60895325872286 L 585.5400696864111 223.83146807109944 L 587.2822299651568 231.13890717577357 L 589.0243902439024 239.0388413429888 L 590.766550522648 241.21132323897302 L 592.5087108013937 247.33377221856483 L 594.2508710801394 253.85121790651743 L 595.993031358885 246.14878209348257 L 597.7351916376306 262.54114549045426 L 599.4773519163763 244.96379196840024 L 601.219512195122 245.75378538512177 L 602.9616724738676 244.37129690585914 L 604.7038327526132 243.77880184331798 L 606.4459930313589 243.18630678077682 L 608.1881533101046 246.14878209348257 L 609.9303135888501 248.71626069782752 L 611.6724738675957 256.6161948650428 L 613.4146341463414 260.56616194865046 L 615.1567944250871 266.29361421988153 L 616.8989547038327 274.19354838709677 L 618.6411149825783 274.58854509545756 L 620.383275261324 281.5009874917709 L 622.1254355400697 286.43844634628044 L 623.8675958188153 282.4884792626728 L 625.609756097561 282.6859776168532 L 627.3519163763067 289.99341672152735 L 629.0940766550523 299.670836076366 L 630.8362369337979 300.46082949308754 L 632.5783972125436 320.8031599736669 L 634.3205574912893 322.9756418696511 L 636.0627177700349 318.2356813693219 L 637.8048780487804 315.66820276497697 L 639.5470383275261 314.2857142857143 L 641.2891986062718 321.79065174456883 L 643.0313588850174 320.8031599736669 L 644.773519163763 317.05069124423966 L 646.5156794425087 320.01316655694535 L 648.2578397212544 320.01316655694535 L 650 326.7281105990784 L 650 400 Z" /><text  class="poloto_labels poloto_text poloto_title" alignment-baseline="start" text-anchor="middle" font-size="x-large" x="400" y="37.5" >Total players on 2021-06-23</text><text  class="poloto_labels poloto_text poloto_xname" alignment-baseline="start" text-anchor="middle" font-size="x-large" x="400" y="481.25" >Time</text><text  class="poloto_labels poloto_text poloto_yname" alignment-baseline="start" text-anchor="middle" font-size="x-large" transform="rotate(-90,37.5,250)" x="37.5" y="250" >Count</text><line  class="poloto_axis_lines" stroke="black" x1="208.0487804878049" x2="208.0487804878049" y1="400" y2="405" /><text  class="poloto_tick_labels poloto_text" alignment-baseline="start" text-anchor="middle" x="208.0487804878049" y="430" > 02:46:40</text><line  class="poloto_axis_lines" stroke="black" x1="266.1207897793264" x2="266.1207897793264" y1="400" y2="405" /><text  class="poloto_tick_labels poloto_text" alignment-baseline="start" text-anchor="middle" x="266.1207897793264" y="430" > 05:33:20</text><line  class="poloto_axis_lines" stroke="black" x1="324.19279907084785" x2="324.19279907084785" y1="400" y2="405" /><text  class="poloto_tick_labels poloto_text" alignment-baseline="start" text-anchor="middle" x="324.19279907084785" y="430" > 08:20:00</text><line  class="poloto_axis_lines" stroke="black" x1="382.2648083623693" x2="382.2648083623693" y1="400" y2="405" /><text  class="poloto_tick_labels poloto_text" alignment-baseline="start" text-anchor="middle" x="382.2648083623693" y="430" > 11:06:40</text><line  class="poloto_axis_lines" stroke="black" x1="440.3368176538908" x2="440.3368176538908" y1="400" y2="405" /><text  class="poloto_tick_labels poloto_text" alignment-baseline="start" text-anchor="middle" x="440.3368176538908" y="430" > 13:53:20</text><line  class="poloto_axis_lines" stroke="black" x1="498.4088269454123" x2="498.4088269454123" y1="400" y2="405" /><text  class="poloto_tick_labels poloto_text" alignment-baseline="start" text-anchor="middle" x="498.4088269454123" y="430" > 16:40:00</text><line  class="poloto_axis_lines" stroke="black" x1="556.4808362369338" x2="556.4808362369338" y1="400" y2="405" /><text  class="poloto_tick_labels poloto_text" alignment-baseline="start" text-anchor="middle" x="556.4808362369338" y="430" > 19:26:40</text><line  class="poloto_axis_lines" stroke="black" x1="614.5528455284552" x2="614.5528455284552" y1="400" y2="405" /><text  class="poloto_tick_labels poloto_text" alignment-baseline="start" text-anchor="middle" x="614.5528455284552" y="430" > 22:13:20</text><line  class="poloto_axis_lines" stroke="black" x1="150" x2="144" y1="370.37524687294274" y2="370.37524687294274" /><text  class="poloto_tick_labels poloto_text" alignment-baseline="middle" text-anchor="end" x="135" y="370.37524687294274" > 1200</text><line  class="poloto_axis_lines" stroke="black" x1="150" x2="144" y1="330.8755760368664" y2="330.8755760368664" /><text  class="poloto_tick_labels poloto_text" alignment-baseline="middle" text-anchor="end" x="135" y="330.8755760368664" > 1400</text><line  class="poloto_axis_lines" stroke="black" x1="150" x2="144" y1="291.37590520079" y2="291.37590520079" /><text  class="poloto_tick_labels poloto_text" alignment-baseline="middle" text-anchor="end" x="135" y="291.37590520079" > 1600</text><line  class="poloto_axis_lines" stroke="black" x1="150" x2="144" y1="251.87623436471364" y2="251.87623436471364" /><text  class="poloto_tick_labels poloto_text" alignment-baseline="middle" text-anchor="end" x="135" y="251.87623436471364" > 1800</text><line  class="poloto_axis_lines" stroke="black" x1="150" x2="144" y1="212.3765635286373" y2="212.3765635286373" /><text  class="poloto_tick_labels poloto_text" alignment-baseline="middle" text-anchor="end" x="135" y="212.3765635286373" > 2000</text><line  class="poloto_axis_lines" stroke="black" x1="150" x2="144" y1="172.8768926925609" y2="172.8768926925609" /><text  class="poloto_tick_labels poloto_text" alignment-baseline="middle" text-anchor="end" x="135" y="172.8768926925609" > 2200</text><line  class="poloto_axis_lines" stroke="black" x1="150" x2="144" y1="133.37722185648454" y2="133.37722185648454" /><text  class="poloto_tick_labels poloto_text" alignment-baseline="middle" text-anchor="end" x="135" y="133.37722185648454" > 2400</text><path  stroke="black" fill="none" class="poloto_axis_lines" style="stroke-dasharray:14.518002322880372;stroke-dashoffset:-58.04878048780488;" d=" M 150 400 L 650 400" /><path  stroke="black" fill="none" class="poloto_axis_lines" style="stroke-dasharray:9.874917709019092;stroke-dashoffset:-29.62475312705726;" d=" M 150 400 L 150 100" /></svg>