<svg class="poloto" width="800" height="500" viewBox="0 0 800 500" xmlns="http://www.w3.org/2000/svg"><style>.poloto { stroke-linecap:round; stroke-linejoin:round; font-family: 'Tahoma', sans-serif; background-color: AliceBlue;} .poloto_scatter{stroke-width:7} .poloto_line{stroke-width:2} .poloto_text{fill: black;} .poloto_axis_lines{stroke: black;stroke-width:3;fill:none;stroke-dasharray:none} .poloto0stroke{stroke:  blue;} .poloto1stroke{stroke:  red;} .poloto2stroke{stroke:  green;} .poloto3stroke{stroke:  gold;} .poloto4stroke{stroke:  aqua;} .poloto5stroke{stroke:  lime;} .poloto6stroke{stroke:  orange;} .poloto7stroke{stroke:  chocolate;} .poloto0fill{fill:blue;} .poloto1fill{fill:red;} .poloto2fill{fill:green;} .poloto3fill{fill:gold;} .poloto4fill{fill:aqua;} .poloto5fill{fill:lime;} .poloto6fill{fill:orange;} .poloto7fill{fill:chocolate;}</style><text  class="poloto_text poloto_legend_text" alignment-baseline="middle" text-anchor="start" font-size="large" x="675" y="100" ></text><path  class="poloto_linefill poloto0fill" d=" M 150 400 L 150 373.95833333333337 L 151.74216027874564 376.48809523809524 L 153.4843205574913 377.5297619047619 L 155.22648083623693 373.6607142857143 L 156.96864111498257 381.69642857142856 L 158.71080139372822 384.375 L 160.45296167247386 382.1428571428571 L 162.1951219512195 382.5892857142857 L 163.93728222996515 382.88690476190476 L 165.6794425087108 384.2261904761905 L 167.42160278745644 387.5 L 169.16376306620208 386.1607142857143 L 170.90592334494772 389.8809523809524 L 172.64808362369337 393.0059523809524 L 174.390243902439 394.19642857142856 L 176.13240418118465 398.80952380952385 L 177.8745644599303 398.2142857142857 L 179.61672473867597 398.36309523809524 L 181.3588850174216 398.36309523809524 L 183.10104529616726 397.17261904761904 L 184.8432055749129 397.32142857142856 L 186.58536585365854 397.6190476190476 L 188.3275261324042 398.36309523809524 L 190.06968641114983 397.9166666666667 L 191.81184668989548 396.1309523809524 L 193.55400696864112 395.9821428571429 L 195.29616724738676 400 L 197.0383275261324 393.30357142857144 L 198.78048780487805 389.58333333333337 L 200.5226480836237 386.01190476190476 L 202.26480836236934 380.95238095238096 L 204.00696864111498 380.20833333333337 L 205.74912891986062 375.5952380952381 L 207.49128919860627 378.8690476190476 L 209.2334494773519 377.2321428571429 L 210.97560975609755 383.7797619047619 L 212.7177700348432 381.9940476190476 L 214.45993031358887 379.1666666666667 L 216.2020905923345 376.0416666666667 L 217.94425087108016 370.38690476190476 L 219.6864111498258 367.4107142857143 L 221.42857142857144 364.13690476190476 L 223.1707317073171 361.01190476190476 L 224.91289198606273 364.58333333333337 L 226.65505226480838 357.88690476190476 L 228.39721254355402 363.5416666666667 L 230.13937282229966 362.6488095238095 L 231.8815331010453 358.6309523809524 L 233.62369337979095 358.6309523809524 L 235.3658536585366 356.1011904761905 L 237.10801393728224 353.7202380952381 L 238.85017421602788 347.4702380952381 L 240.59233449477352 344.7916666666667 L 242.33449477351917 341.2202380952381 L 244.0766550522648 338.5416666666667 L 245.81881533101046 334.375 L 247.5609756097561 334.375 L 249.30313588850174 333.7797619047619 L 251.0452961672474 329.91071428571433 L 252.78745644599303 326.6369047619048 L 254.52961672473867 322.6190476190476 L 256.2717770034843 317.41071428571433 L 258.01393728222996 311.16071428571433 L 259.7560975609756 310.2678571428571 L 261.49825783972125 315.0297619047619 L 263.2404181184669 319.94047619047615 L 264.98257839721254 316.96428571428567 L 266.7247386759582 318.75 L 268.4668989547038 319.3452380952381 L 270.20905923344947 319.19642857142856 L 271.9512195121951 317.8571428571429 L 273.69337979094075 315.92261904761904 L 275.4355400696864 314.58333333333337 L 277.17770034843204 306.25 L 278.91986062717774 308.6309523809524 L 280.6620209059233 311.7559523809524 L 282.404181184669 314.8809523809524 L 284.1463414634146 317.41071428571433 L 285.8885017421603 313.69047619047615 L 287.6306620209059 306.54761904761904 L 289.3728222996516 305.5059523809524 L 291.1149825783972 302.9761904761905 L 292.8571428571429 302.08333333333337 L 294.5993031358885 303.125 L 296.3414634146342 295.68452380952385 L 298.08362369337976 294.19642857142856 L 299.82578397212546 291.2202380952381 L 301.56794425087105 286.6071428571429 L 303.31010452961675 277.5297619047619 L 305.05226480836234 279.6130952380953 L 306.79442508710804 273.80952380952385 L 308.5365853658536 276.93452380952385 L 310.2787456445993 273.3630952380953 L 312.0209059233449 281.8452380952381 L 313.7630662020906 284.67261904761904 L 315.5052264808362 275 L 317.2473867595819 269.3452380952381 L 318.9895470383275 272.6190476190476 L 320.7317073170732 273.21428571428567 L 322.4738675958188 272.4702380952381 L 324.2160278745645 266.3690476190476 L 325.9581881533101 266.07142857142856 L 327.70034843205576 263.54166666666663 L 329.4425087108014 265.4761904761905 L 331.18466898954705 263.9880952380953 L 332.9268292682927 255.95238095238093 L 334.66898954703834 254.7619047619048 L 336.411149825784 251.48809523809527 L 338.1533101045296 256.25 L 339.89547038327527 251.93452380952382 L 341.6376306620209 244.79166666666666 L 343.37979094076655 242.85714285714286 L 345.1219512195122 236.9047619047619 L 346.86411149825784 229.7619047619048 L 348.6062717770035 227.67857142857142 L 350.34843205574913 229.01785714285714 L 352.0905923344948 226.04166666666666 L 353.8327526132404 223.95833333333334 L 355.57491289198606 213.54166666666666 L 357.3170731707317 216.36904761904762 L 359.05923344947735 214.73214285714286 L 360.801393728223 217.85714285714286 L 362.54355400696863 212.3511904761905 L 364.2857142857143 207.29166666666666 L 366.0278745644599 209.52380952380955 L 367.77003484320556 210.7142857142857 L 369.5121951219512 203.57142857142858 L 371.25435540069685 199.25595238095238 L 372.9965156794425 213.69047619047618 L 374.73867595818814 203.57142857142858 L 376.4808362369338 194.04761904761907 L 378.2229965156795 197.91666666666666 L 379.96515679442507 205.50595238095238 L 381.70731707317077 205.50595238095238 L 383.44947735191636 206.39880952380955 L 385.19163763066206 211.60714285714286 L 386.93379790940764 214.73214285714286 L 388.67595818815334 219.49404761904762 L 390.41811846689893 214.1369047619048 L 392.16027874564463 211.60714285714286 L 393.9024390243902 215.0297619047619 L 395.6445993031359 222.32142857142858 L 397.3867595818815 211.45833333333334 L 399.1289198606272 207.29166666666666 L 400.8710801393728 207.73809523809527 L 402.6132404181185 204.9107142857143 L 404.3554006968641 204.9107142857143 L 406.0975609756098 205.50595238095238 L 407.8397212543554 203.27380952380955 L 409.58188153310107 190.17857142857142 L 411.3240418118467 196.2797619047619 L 413.06620209059236 185.11904761904762 L 414.808362369338 188.98809523809527 L 416.55052264808364 169.19642857142858 L 418.2926829268293 166.81547619047618 L 420.03484320557493 172.76785714285714 L 421.7770034843206 169.19642857142858 L 423.5191637630662 163.8392857142857 L 425.26132404181186 163.39285714285714 L 427.0034843205575 162.3511904761905 L 428.74564459930315 162.79761904761907 L 430.4878048780488 163.0952380952381 L 432.22996515679444 160.41666666666666 L 433.9721254355401 159.2261904761905 L 435.7142857142857 157.8869047619048 L 437.45644599303137 158.18452380952382 L 439.198606271777 143.75 L 440.94076655052265 137.94642857142856 L 442.6829268292683 143.30357142857144 L 444.42508710801394 134.52380952380952 L 446.1672473867596 130.05952380952385 L 447.9094076655052 127.52976190476193 L 449.65156794425087 126.4880952380953 L 451.3937282229965 134.375 L 453.13588850174216 123.06547619047615 L 454.8780487804878 122.32142857142856 L 456.62020905923345 117.70833333333337 L 458.3623693379791 111.01190476190482 L 460.10452961672473 115.625 L 461.8466898954704 132.1428571428571 L 463.588850174216 111.01190476190482 L 465.33101045296166 110.71428571428578 L 467.0731707317073 114.13690476190482 L 468.81533101045295 108.63095238095241 L 470.5574912891986 106.54761904761904 L 472.29965156794424 111.90476190476193 L 474.0418118466899 123.66071428571433 L 475.7839721254355 115.32738095238096 L 477.52613240418117 109.375 L 479.2682926829268 109.67261904761904 L 481.01045296167246 105.95238095238096 L 482.7526132404181 105.95238095238096 L 484.49477351916374 100 L 486.2369337979094 104.6130952380953 L 487.97909407665503 104.01785714285711 L 489.7212543554007 108.48214285714289 L 491.4634146341463 116.07142857142856 L 493.20557491289196 129.91071428571433 L 494.9477351916376 123.06547619047615 L 496.68989547038325 123.66071428571433 L 498.4320557491289 130.65476190476193 L 500.17421602787454 133.92857142857144 L 501.91637630662024 129.46428571428578 L 503.6585365853659 144.79166666666666 L 505.4006968641115 138.83928571428567 L 507.14285714285717 147.17261904761907 L 508.8850174216028 150.29761904761907 L 510.62717770034845 147.4702380952381 L 512.3693379790941 162.20238095238093 L 514.1114982578397 156.69642857142858 L 515.8536585365854 159.82142857142858 L 517.5958188153311 166.66666666666666 L 519.3379790940767 169.79166666666666 L 521.0801393728223 174.55357142857142 L 522.822299651568 171.13095238095238 L 524.5644599303137 177.08333333333334 L 526.3066202090592 181.8452380952381 L 528.0487804878048 192.11309523809527 L 529.7909407665505 192.11309523809527 L 531.5331010452962 199.8511904761905 L 533.2752613240418 193.89880952380955 L 535.0174216027874 196.87500000000003 L 536.7595818815331 197.02380952380955 L 538.5017421602788 207.5892857142857 L 540.2439024390244 208.7797619047619 L 541.98606271777 210.86309523809527 L 543.7282229965157 216.66666666666666 L 545.4703832752614 219.64285714285714 L 547.212543554007 217.85714285714286 L 548.9547038327526 223.5119047619048 L 550.6968641114983 219.04761904761907 L 552.439024390244 229.7619047619048 L 554.1811846689895 244.79166666666666 L 555.9233449477351 245.3869047619048 L 557.6655052264808 239.43452380952382 L 559.4076655052265 246.2797619047619 L 561.1498257839721 236.1607142857143 L 562.8919860627177 240.0297619047619 L 564.6341463414634 243.30357142857142 L 566.3763066202091 240.17857142857142 L 568.1184668989547 253.12500000000003 L 569.8606271777003 245.83333333333334 L 571.602787456446 256.69642857142856 L 573.3449477351917 255.95238095238093 L 575.0871080139373 260.2678571428571 L 576.8292682926829 265.32738095238096 L 578.5714285714286 270.2380952380953 L 580.3135888501743 268.1547619047619 L 582.0557491289198 269.4940476190476 L 583.7979094076654 268.75 L 585.5400696864111 267.8571428571429 L 587.2822299651568 275.7440476190476 L 589.0243902439024 268.0059523809524 L 590.766550522648 266.66666666666663 L 592.5087108013937 270.08928571428567 L 594.2508710801394 272.4702380952381 L 595.993031358885 275.8928571428571 L 597.7351916376306 279.0178571428571 L 599.4773519163763 283.6309523809524 L 601.219512195122 281.3988095238095 L 602.9616724738676 285.41666666666663 L 604.7038327526133 292.41071428571433 L 606.445993031359 294.6428571428571 L 608.1881533101046 296.875 L 609.9303135888501 305.5059523809524 L 611.6724738675958 305.05952380952385 L 613.4146341463415 308.92857142857144 L 615.1567944250871 311.30952380952385 L 616.8989547038327 315.4761904761905 L 618.6411149825784 317.8571428571429 L 620.3832752613241 315.0297619047619 L 622.1254355400697 335.86309523809524 L 623.8675958188153 333.03571428571433 L 625.609756097561 321.57738095238096 L 627.3519163763067 321.2797619047619 L 629.0940766550523 329.31547619047615 L 630.8362369337979 336.45833333333337 L 632.5783972125436 336.6071428571429 L 634.3205574912893 342.41071428571433 L 636.0627177700349 344.04761904761904 L 637.8048780487804 341.07142857142856 L 639.5470383275261 345.38690476190476 L 641.2891986062718 352.5297619047619 L 643.0313588850174 348.51190476190476 L 644.773519163763 358.03571428571433 L 646.5156794425087 358.6309523809524 L 648.2578397212544 359.9702380952381 L 650 364.43452380952385 L 650 400 Z" /><text  class="poloto_labels poloto_text poloto_title" alignment-baseline="start" text-anchor="middle" font-size="x-large" x="400" y="37.5" >Total players on 2021-08-23</text><text  class="poloto_labels poloto_text poloto_xname" alignment-baseline="start" text-anchor="middle" font-size="x-large" x="400" y="481.25" >Time</text><text  class="poloto_labels poloto_text poloto_yname" alignment-baseline="start" text-anchor="middle" font-size="x-large" transform="rotate(-90,37.5,250)" x="37.5" y="250" >Count</text><line  class="poloto_axis_lines" stroke="black" x1="150" x2="150" y1="400" y2="405" /><text  class="poloto_tick_labels poloto_text" alignment-baseline="start" text-anchor="middle" x="150" y="430" > 00:00:00</text><line  class="poloto_axis_lines" stroke="black" x1="266.14401858304296" x2="266.14401858304296" y1="400" y2="405" /><text  class="poloto_tick_labels poloto_text" alignment-baseline="start" text-anchor="middle" x="266.14401858304296" y="430" > 05:33:20</text><line  class="poloto_axis_lines" stroke="black" x1="382.2880371660859" x2="382.2880371660859" y1="400" y2="405" /><text  class="poloto_tick_labels poloto_text" alignment-baseline="start" text-anchor="middle" x="382.2880371660859" y="430" > 11:06:40</text><line  class="poloto_axis_lines" stroke="black" x1="498.4320557491289" x2="498.4320557491289" y1="400" y2="405" /><text  class="poloto_tick_labels poloto_text" alignment-baseline="start" text-anchor="middle" x="498.4320557491289" y="430" > 16:40:00</text><line  class="poloto_axis_lines" stroke="black" x1="614.5760743321719" x2="614.5760743321719" y1="400" y2="405" /><text  class="poloto_tick_labels poloto_text" alignment-baseline="start" text-anchor="middle" x="614.5760743321719" y="430" > 22:13:20</text><line  class="poloto_axis_lines" stroke="black" x1="150" x2="144" y1="363.3928571428571" y2="363.3928571428571" /><text  class="poloto_tick_labels poloto_text" alignment-baseline="middle" text-anchor="end" x="135" y="363.3928571428571" > 1500</text><line  class="poloto_axis_lines" stroke="black" x1="150" x2="144" y1="288.9880952380953" y2="288.9880952380953" /><text  class="poloto_tick_labels poloto_text" alignment-baseline="middle" text-anchor="end" x="135" y="288.9880952380953" > 2000</text><line  class="poloto_axis_lines" stroke="black" x1="150" x2="144" y1="214.58333333333337" y2="214.58333333333337" /><text  class="poloto_tick_labels poloto_text" alignment-baseline="middle" text-anchor="end" x="135" y="214.58333333333337" > 2500</text><line  class="poloto_axis_lines" stroke="black" x1="150" x2="144" y1="140.17857142857144" y2="140.17857142857144" /><text  class="poloto_tick_labels poloto_text" alignment-baseline="middle" text-anchor="end" x="135" y="140.17857142857144" > 3000</text><path  stroke="black" fill="none" class="poloto_axis_lines" style="stroke-dasharray:14.518002322880372;stroke-dashoffset:-0;" d=" M 150 400 L 650 400" /><path  stroke="black" fill="none" class="poloto_axis_lines" style="stroke-dasharray:7.44047619047619;stroke-dashoffset:-36.60714285714286;" d=" M 150 400 L 150 100" /></svg>