<svg class="poloto" width="800" height="500" viewBox="0 0 800 500" xmlns="http://www.w3.org/2000/svg"><style>.poloto { stroke-linecap:round; stroke-linejoin:round; font-family: 'Tahoma', sans-serif; background-color: AliceBlue;} .poloto_scatter{stroke-width:7} .poloto_line{stroke-width:2} .poloto_text{fill: black;} .poloto_axis_lines{stroke: black;stroke-width:3;fill:none;stroke-dasharray:none} .poloto0stroke{stroke:  blue;} .poloto1stroke{stroke:  red;} .poloto2stroke{stroke:  green;} .poloto3stroke{stroke:  gold;} .poloto4stroke{stroke:  aqua;} .poloto5stroke{stroke:  lime;} .poloto6stroke{stroke:  orange;} .poloto7stroke{stroke:  chocolate;} .poloto0fill{fill:blue;} .poloto1fill{fill:red;} .poloto2fill{fill:green;} .poloto3fill{fill:gold;} .poloto4fill{fill:aqua;} .poloto5fill{fill:lime;} .poloto6fill{fill:orange;} .poloto7fill{fill:chocolate;}</style><text  class="poloto_text poloto_legend_text" alignment-baseline="middle" text-anchor="start" font-size="large" x="675" y="100" ></text><path  class="poloto_linefill poloto0fill" d=" M 150 400 L 150 311.9932432432432 L 151.74216027874564 321.2837837837838 L 153.4843205574913 325.8445945945946 L 155.22648083623693 328.71621621621625 L 156.96864111498257 333.1081081081081 L 158.71080139372822 339.3581081081081 L 160.45296167247386 341.55405405405406 L 162.1951219512195 347.2972972972973 L 163.93728222996515 351.5202702702703 L 165.6794425087108 346.4527027027027 L 167.42160278745644 345.10135135135135 L 169.16376306620208 354.05405405405406 L 170.90592334494772 351.01351351351354 L 172.64808362369337 347.2972972972973 L 174.390243902439 347.80405405405406 L 176.13240418118465 347.97297297297297 L 177.8745644599303 343.91891891891896 L 179.61672473867597 343.91891891891896 L 181.3588850174216 344.0878378378378 L 183.10104529616726 354.05405405405406 L 184.8432055749129 346.2837837837838 L 186.58536585365854 346.2837837837838 L 188.3275261324042 353.5472972972973 L 190.06968641114983 351.8581081081081 L 191.81184668989548 351.68918918918916 L 193.55400696864112 351.5202702702703 L 195.29616724738676 352.3648648648649 L 197.0383275261324 350.8445945945946 L 198.78048780487805 379.05405405405406 L 200.5226480836237 366.55405405405406 L 202.26480836236934 361.9932432432432 L 204.00696864111498 358.7837837837838 L 205.74912891986062 354.22297297297297 L 207.49128919860627 355.0675675675676 L 209.2334494773519 349.4932432432432 L 210.97560975609755 400 L 212.7177700348432 394.2567567567568 L 214.45993031358887 391.8918918918919 L 216.2020905923345 393.0743243243243 L 217.94425087108016 363.85135135135135 L 219.6864111498258 360.81081081081084 L 221.42857142857144 355.0675675675676 L 223.1707317073171 357.7702702702703 L 224.91289198606273 358.27702702702703 L 226.65505226480838 357.93918918918916 L 228.39721254355402 361.9932432432432 L 230.13937282229966 365.8783783783784 L 231.8815331010453 364.0202702702703 L 233.62369337979095 352.19594594594594 L 235.3658536585366 351.68918918918916 L 237.10801393728224 357.93918918918916 L 238.85017421602788 361.48648648648646 L 240.59233449477352 358.6148648648649 L 242.33449477351917 357.60135135135135 L 244.0766550522648 358.7837837837838 L 245.81881533101046 354.89864864864865 L 247.5609756097561 357.60135135135135 L 249.30313588850174 356.0810810810811 L 251.0452961672474 344.4256756756757 L 252.78745644599303 343.91891891891896 L 254.52961672473867 342.5675675675676 L 256.2717770034843 337.3310810810811 L 258.01393728222996 334.12162162162167 L 259.7560975609756 330.23648648648646 L 261.49825783972125 334.2905405405405 L 263.2404181184669 325 L 264.98257839721254 320.2702702702703 L 266.7247386759582 326.5202702702703 L 268.4668989547038 321.9594594594595 L 270.20905923344947 315.0337837837838 L 271.9512195121951 311.6554054054054 L 273.69337979094075 307.0945945945946 L 275.4355400696864 306.25 L 277.17770034843204 300.8445945945946 L 278.9198606271777 297.2972972972973 L 280.6620209059233 293.5810810810811 L 282.40418118466897 285.81081081081084 L 284.1463414634146 278.0405405405406 L 285.88850174216026 286.4864864864865 L 287.6306620209059 293.4121621621622 L 289.37282229965155 290.3716216216216 L 291.1149825783972 292.56756756756755 L 292.85714285714283 298.9864864864865 L 294.5993031358885 292.22972972972974 L 296.3414634146342 294.2567567567568 L 298.08362369337976 290.7094594594595 L 299.82578397212546 295.4391891891892 L 301.56794425087105 301.6891891891892 L 303.31010452961675 296.4527027027027 L 305.05226480836234 294.08783783783787 L 306.79442508710804 293.5810810810811 L 308.5365853658536 283.6148648648649 L 310.2787456445993 279.05405405405406 L 312.0209059233449 283.7837837837838 L 313.7630662020906 279.89864864864865 L 315.5052264808362 289.69594594594594 L 317.2473867595819 287.1621621621622 L 318.9895470383275 282.60135135135135 L 320.7317073170732 285.64189189189193 L 322.4738675958188 292.22972972972974 L 324.2160278745645 286.4864864864865 L 325.95818815331006 283.6148648648649 L 327.70034843205576 272.46621621621625 L 329.44250871080135 287.83783783783787 L 331.18466898954705 284.2905405405406 L 332.92682926829264 278.88513513513516 L 334.66898954703834 276.6891891891892 L 336.4111498257839 272.46621621621625 L 338.1533101045296 268.4121621621622 L 339.8954703832752 262.1621621621622 L 341.6376306620209 273.81756756756755 L 343.3797909407665 268.4121621621622 L 345.1219512195122 274.1554054054054 L 346.86411149825784 276.8581081081081 L 348.6062717770035 269.76351351351354 L 350.34843205574913 265.7094594594595 L 352.0905923344948 259.1216216216216 L 353.8327526132404 267.7364864864865 L 355.57491289198606 265.7094594594595 L 357.3170731707317 269.4256756756757 L 359.05923344947735 264.8648648648649 L 360.801393728223 255.06756756756755 L 362.54355400696863 242.22972972972974 L 364.2857142857143 235.47297297297297 L 366.0278745644599 230.40540540540542 L 367.77003484320556 228.5472972972973 L 369.5121951219512 226.01351351351354 L 371.25435540069685 223.9864864864865 L 372.9965156794425 219.59459459459458 L 374.73867595818814 206.75675675675677 L 376.4808362369338 209.96621621621625 L 378.2229965156794 210.81081081081084 L 379.96515679442507 208.7837837837838 L 381.7073170731707 214.8648648648649 L 383.44947735191636 216.72297297297297 L 385.191637630662 212.83783783783787 L 386.93379790940764 211.4864864864865 L 388.6759581881533 208.6148648648649 L 390.41811846689893 211.82432432432432 L 392.1602787456446 213.34459459459458 L 393.9024390243902 205.40540540540542 L 395.6445993031359 207.09459459459458 L 397.3867595818815 195.10135135135135 L 399.1289198606272 192.39864864864865 L 400.8710801393728 195.10135135135135 L 402.6132404181185 193.75 L 404.3554006968641 188.68243243243245 L 406.0975609756097 188.85135135135135 L 407.83972125435537 183.10810810810813 L 409.581881533101 186.65540540540542 L 411.32404181184666 179.89864864864865 L 413.0662020905923 174.32432432432432 L 414.80836236933794 176.01351351351354 L 416.5505226480836 173.31081081081084 L 418.29268292682923 170.27027027027026 L 420.0348432055749 176.18243243243245 L 421.7770034843206 176.68918918918922 L 423.5191637630662 169.59459459459458 L 425.26132404181186 165.54054054054058 L 427.0034843205575 174.6621621621622 L 428.74564459930315 176.85810810810813 L 430.4878048780488 178.04054054054058 L 432.22996515679444 181.4189189189189 L 433.9721254355401 184.45945945945948 L 435.7142857142857 173.47972972972974 L 437.45644599303137 166.55405405405406 L 439.198606271777 174.49324324324328 L 440.94076655052265 161.3175675675676 L 442.6829268292683 158.9527027027027 L 444.42508710801394 154.72972972972974 L 446.1672473867596 156.4189189189189 L 447.9094076655052 150.84459459459458 L 449.65156794425087 142.90540540540542 L 451.3937282229965 139.18918918918922 L 453.13588850174216 156.0810810810811 L 454.8780487804878 151.18243243243245 L 456.62020905923345 151.85810810810813 L 458.3623693379791 143.75 L 460.10452961672473 141.89189189189193 L 461.8466898954704 131.92567567567568 L 463.588850174216 123.81756756756761 L 465.33101045296166 119.93243243243245 L 467.0731707317073 113.34459459459458 L 468.81533101045295 106.25 L 470.5574912891986 100.67567567567568 L 472.29965156794424 100 L 474.0418118466899 104.39189189189193 L 475.7839721254355 106.0810810810811 L 477.52613240418117 116.89189189189193 L 479.2682926829268 107.09459459459458 L 481.01045296167246 104.05405405405406 L 482.7526132404181 101.18243243243245 L 484.49477351916374 108.10810810810813 L 486.2369337979094 113.68243243243245 L 487.97909407665503 119.42567567567568 L 489.7212543554007 114.69594594594594 L 491.4634146341463 116.72297297297297 L 493.20557491289196 112.66891891891896 L 494.9477351916376 114.35810810810813 L 496.68989547038325 109.62837837837839 L 498.4320557491289 107.60135135135135 L 500.17421602787454 107.09459459459458 L 501.9163763066202 107.26351351351354 L 503.6585365853658 112.5 L 505.40069686411147 117.06081081081084 L 507.1428571428571 121.62162162162161 L 508.88501742160275 124.8310810810811 L 510.6271777003484 129.72972972972974 L 512.3693379790941 140.0337837837838 L 514.1114982578397 153.20945945945948 L 515.8536585365853 145.94594594594594 L 517.595818815331 143.75 L 519.3379790940767 148.9864864864865 L 521.0801393728223 142.7364864864865 L 522.822299651568 155.0675675675676 L 524.5644599303137 157.26351351351354 L 526.3066202090592 156.25 L 528.0487804878048 157.43243243243245 L 529.7909407665505 165.54054054054058 L 531.5331010452962 166.72297297297297 L 533.2752613240418 182.77027027027026 L 535.0174216027874 176.18243243243245 L 536.7595818815331 180.40540540540542 L 538.5017421602788 194.42567567567568 L 540.2439024390244 195.27027027027026 L 541.98606271777 199.49324324324323 L 543.7282229965157 212.1621621621622 L 545.4703832752614 211.3175675675676 L 547.212543554007 221.6216216216216 L 548.9547038327526 220.77702702702703 L 550.6968641114983 215.2027027027027 L 552.439024390244 209.1216216216216 L 554.1811846689895 217.5675675675676 L 555.9233449477351 221.6216216216216 L 557.6655052264808 218.5810810810811 L 559.4076655052265 216.21621621621625 L 561.1498257839721 211.3175675675676 L 562.8919860627177 212.3310810810811 L 564.6341463414634 221.6216216216216 L 566.3763066202091 234.1216216216216 L 568.1184668989547 237.6689189189189 L 569.8606271777003 242.90540540540542 L 571.602787456446 240.3716216216216 L 573.3449477351917 246.1148648648649 L 575.0871080139373 249.6621621621622 L 576.8292682926829 249.8310810810811 L 578.5714285714286 250.33783783783787 L 580.3135888501743 261.9932432432432 L 582.0557491289198 256.4189189189189 L 583.7979094076654 250.67567567567568 L 585.5400696864111 246.79054054054058 L 587.2822299651568 247.63513513513516 L 589.0243902439024 245.10135135135135 L 590.766550522648 246.1148648648649 L 592.5087108013937 252.5337837837838 L 594.2508710801394 244.42567567567568 L 595.993031358885 246.6216216216216 L 597.7351916376306 256.4189189189189 L 599.4773519163763 254.22297297297297 L 601.219512195122 251.01351351351354 L 602.9616724738676 253.71621621621625 L 604.7038327526132 260.30405405405406 L 606.4459930313589 272.80405405405406 L 608.1881533101046 267.56756756756755 L 609.9303135888501 257.60135135135135 L 611.6724738675957 253.20945945945948 L 613.4146341463414 256.9256756756757 L 615.1567944250871 263.51351351351354 L 616.8989547038327 269.93243243243245 L 618.6411149825783 255.9121621621622 L 620.383275261324 270.77702702702703 L 622.1254355400697 266.21621621621625 L 623.8675958188153 271.9594594594595 L 625.609756097561 270.94594594594594 L 627.3519163763067 274.4932432432432 L 629.0940766550523 281.0810810810811 L 630.8362369337979 286.6554054054054 L 632.5783972125436 289.52702702702703 L 634.3205574912893 290.8783783783784 L 636.0627177700349 290.5405405405406 L 637.8048780487804 300.8445945945946 L 639.5470383275261 314.52702702702703 L 641.2891986062718 315.8783783783784 L 643.0313588850174 320.94594594594594 L 644.773519163763 317.73648648648646 L 646.5156794425087 321.2837837837838 L 648.2578397212544 325.16891891891896 L 650 330.0675675675676 L 650 400 Z" /><text  class="poloto_labels poloto_text poloto_title" alignment-baseline="start" text-anchor="middle" font-size="x-large" x="400" y="37.5" >Total players on 2021-05-22</text><text  class="poloto_labels poloto_text poloto_xname" alignment-baseline="start" text-anchor="middle" font-size="x-large" x="400" y="481.25" >Time</text><text  class="poloto_labels poloto_text poloto_yname" alignment-baseline="start" text-anchor="middle" font-size="x-large" transform="rotate(-90,37.5,250)" x="37.5" y="250" >Count</text><line  class="poloto_axis_lines" stroke="black" x1="208.0487804878049" x2="208.0487804878049" y1="400" y2="405" /><text  class="poloto_tick_labels poloto_text" alignment-baseline="start" text-anchor="middle" x="208.0487804878049" y="430" > 03:00</text><line  class="poloto_axis_lines" stroke="black" x1="266.1207897793264" x2="266.1207897793264" y1="400" y2="405" /><text  class="poloto_tick_labels poloto_text" alignment-baseline="start" text-anchor="middle" x="266.1207897793264" y="430" > 06:00</text><line  class="poloto_axis_lines" stroke="black" x1="324.19279907084785" x2="324.19279907084785" y1="400" y2="405" /><text  class="poloto_tick_labels poloto_text" alignment-baseline="start" text-anchor="middle" x="324.19279907084785" y="430" > 08:00</text><line  class="poloto_axis_lines" stroke="black" x1="382.2648083623693" x2="382.2648083623693" y1="400" y2="405" /><text  class="poloto_tick_labels poloto_text" alignment-baseline="start" text-anchor="middle" x="382.2648083623693" y="430" > 11:00</text><line  class="poloto_axis_lines" stroke="black" x1="440.3368176538908" x2="440.3368176538908" y1="400" y2="405" /><text  class="poloto_tick_labels poloto_text" alignment-baseline="start" text-anchor="middle" x="440.3368176538908" y="430" > 14:00</text><line  class="poloto_axis_lines" stroke="black" x1="498.4088269454123" x2="498.4088269454123" y1="400" y2="405" /><text  class="poloto_tick_labels poloto_text" alignment-baseline="start" text-anchor="middle" x="498.4088269454123" y="430" > 17:00</text><line  class="poloto_axis_lines" stroke="black" x1="556.4808362369338" x2="556.4808362369338" y1="400" y2="405" /><text  class="poloto_tick_labels poloto_text" alignment-baseline="start" text-anchor="middle" x="556.4808362369338" y="430" > 19:00</text><line  class="poloto_axis_lines" stroke="black" x1="614.5528455284552" x2="614.5528455284552" y1="400" y2="405" /><text  class="poloto_tick_labels poloto_text" alignment-baseline="start" text-anchor="middle" x="614.5528455284552" y="430" > 22:00</text><line  class="poloto_axis_lines" stroke="black" x1="150" x2="144" y1="394.93243243243245" y2="394.93243243243245" /><text  class="poloto_tick_labels poloto_text" alignment-baseline="middle" text-anchor="end" x="135" y="394.93243243243245" > 1000</text><line  class="poloto_axis_lines" stroke="black" x1="150" x2="144" y1="310.472972972973" y2="310.472972972973" /><text  class="poloto_tick_labels poloto_text" alignment-baseline="middle" text-anchor="end" x="135" y="310.472972972973" > 1500</text><line  class="poloto_axis_lines" stroke="black" x1="150" x2="144" y1="226.01351351351354" y2="226.01351351351354" /><text  class="poloto_tick_labels poloto_text" alignment-baseline="middle" text-anchor="end" x="135" y="226.01351351351354" > 2000</text><line  class="poloto_axis_lines" stroke="black" x1="150" x2="144" y1="141.55405405405406" y2="141.55405405405406" /><text  class="poloto_tick_labels poloto_text" alignment-baseline="middle" text-anchor="end" x="135" y="141.55405405405406" > 2500</text><path  stroke="black" fill="none" class="poloto_axis_lines" style="stroke-dasharray:14.518002322880372;stroke-dashoffset:-58.04878048780488;" d=" M 150 400 L 650 400" /><path  stroke="black" fill="none" class="poloto_axis_lines" style="stroke-dasharray:8.445945945945946;stroke-dashoffset:-5.067567567567551;" d=" M 150 400 L 150 100" /></svg>