<svg class="poloto" width="800" height="500" viewBox="0 0 800 500" xmlns="http://www.w3.org/2000/svg"><style>.poloto { stroke-linecap:round; stroke-linejoin:round; font-family: 'Tahoma', sans-serif; background-color: AliceBlue;} .poloto_scatter{stroke-width:7} .poloto_line{stroke-width:2} .poloto_text{fill: black;} .poloto_axis_lines{stroke: black;stroke-width:3;fill:none;stroke-dasharray:none} .poloto0stroke{stroke:  blue;} .poloto1stroke{stroke:  red;} .poloto2stroke{stroke:  green;} .poloto3stroke{stroke:  gold;} .poloto4stroke{stroke:  aqua;} .poloto5stroke{stroke:  lime;} .poloto6stroke{stroke:  orange;} .poloto7stroke{stroke:  chocolate;} .poloto0fill{fill:blue;} .poloto1fill{fill:red;} .poloto2fill{fill:green;} .poloto3fill{fill:gold;} .poloto4fill{fill:aqua;} .poloto5fill{fill:lime;} .poloto6fill{fill:orange;} .poloto7fill{fill:chocolate;}</style><text  class="poloto_text poloto_legend_text" alignment-baseline="middle" text-anchor="start" font-size="large" x="675" y="100" ></text><path  class="poloto_linefill poloto0fill" d=" M 150 400 L 150 359.218203033839 L 151.74205911387259 379.171528588098 L 153.4841182277452 380.9218203033839 L 155.22617734161778 361.1435239206535 L 156.9682364554904 362.36872812135357 L 158.71029556936298 365.8693115519253 L 160.4523546832356 368.66977829638273 L 162.19441379710818 369.8949824970829 L 163.93647291098077 379.87164527421237 L 165.67853202485338 375.3208868144691 L 167.42059113872597 374.2707117852975 L 169.16265025259858 373.04550758459743 L 170.90470936647117 370.7701283547258 L 172.64676848034378 366.74445740956827 L 174.38882759421637 371.9953325554259 L 176.13088670808895 375.14585764294054 L 177.87294582196157 374.095682613769 L 179.61500493583415 372.34539089848306 L 181.35706404970676 374.095682613769 L 183.09912316357935 372.8704784130689 L 184.84118227745194 372.69544924154025 L 186.58324139132455 374.095682613769 L 188.32530050519713 375.84597432905485 L 190.06735961906975 377.9463243873979 L 191.80941873294233 377.24620770128354 L 193.55147784681492 376.37106184364063 L 195.29353696068753 380.22170361726955 L 197.03559607456015 381.79696616102683 L 198.77765518843273 378.6464410735123 L 200.51971430230532 385.8226371061844 L 202.26177341617793 380.9218203033839 L 204.00383253005052 385.4725787631272 L 205.74589164392313 387.0478413068845 L 207.48795075779572 388.2730455075846 L 209.2300098716683 392.4737456242707 L 210.97206898554091 394.39906651108515 L 212.7141280994135 398.07467911318554 L 214.4561872132861 395.0991831971995 L 216.1982463271587 391.5985997666278 L 217.94030544103128 385.2975495915986 L 219.6823645549039 391.7736289381564 L 221.4244236687765 390.54842473745623 L 223.1664827826491 387.0478413068845 L 224.90854189652168 388.62310385064177 L 226.65060101039427 387.74795799299886 L 228.39266012426688 391.4235705950992 L 230.1347192381395 390.3733955659277 L 231.87677835201208 388.2730455075846 L 233.61883746588467 386.6977829638273 L 235.36089657975728 384.59743290548425 L 237.10295569362987 386.3477246207701 L 238.84501480750248 385.12252042007003 L 240.58707392137507 383.022170361727 L 242.32913303524765 388.79813302217036 L 244.07119214912026 387.3978996499417 L 245.81325126299288 389.84830805134186 L 247.55531037686546 392.9988331388565 L 249.29736949073805 395.9743290548425 L 251.03942860461063 398.5997666277713 L 252.78148771848325 400 L 254.52354683235586 400 L 256.26560594622845 397.72462077012835 L 258.00766506010103 393.52392065344225 L 259.7497241739736 389.84830805134186 L 261.49178328784626 387.2228704784131 L 263.23384240171885 385.12252042007003 L 264.97590151559143 389.14819136522755 L 266.717960629464 381.9719953325555 L 268.4600197433366 375.67094515752626 L 270.20207885720924 374.9708284714119 L 271.94413797108183 373.9206534422404 L 273.6861970849544 376.19603267211204 L 275.428256198827 373.9206534422404 L 277.1703153126996 371.82030338389734 L 278.9123744265722 371.64527421236875 L 280.6544335404448 369.5449241540257 L 282.3964926543174 365.8693115519253 L 284.13855176819004 363.94399066511085 L 285.88061088206257 366.2193698949825 L 287.6226699959352 369.1948658109685 L 289.3647291098078 366.2193698949825 L 291.1067882236804 369.3698949824971 L 292.848847337553 372.8704784130689 L 294.59090645142555 375.84597432905485 L 296.3329655652982 380.57176196032674 L 298.0750246791708 379.87164527421237 L 299.81708379304337 376.02100350058345 L 301.559142906916 375.67094515752626 L 303.30120202078854 374.095682613769 L 305.0432611346612 377.5962660443407 L 306.78532024853376 379.69661610268383 L 308.52737936240635 376.37106184364063 L 310.269438476279 375.3208868144691 L 312.0114975901515 373.5705950991832 L 313.75355670402416 373.04550758459743 L 315.49561581789675 370.24504084014006 L 317.23767493176933 367.61960326721123 L 318.979734045642 367.4445740956826 L 320.72179315951456 362.0186697782964 L 322.46385227338715 359.39323220536755 L 324.20591138725973 361.1435239206535 L 325.9479705011323 357.6429404900817 L 327.69002961500496 352.0420070011669 L 329.43208872887755 352.21703617269543 L 331.17414784275013 353.79229871645276 L 332.9162069566228 351.6919486581097 L 334.6582660704953 353.96732788798136 L 336.40032518436794 348.5414235705951 L 338.14238429824053 341.71528588098016 L 339.8844434121131 346.44107351225205 L 341.62650252598576 340.66511085180866 L 343.3685616398583 330.5134189031505 L 345.1106207537309 324.73745624270714 L 346.8526798676035 318.96149358226376 L 348.5947389814761 318.2613768961494 L 350.33679809534874 312.66044340723454 L 352.07885720922127 307.4095682613769 L 353.8209163230939 304.08401400233373 L 355.5629754369665 296.9078179696616 L 357.3050345508391 285.3558926487748 L 359.0470936647117 290.0816802800467 L 360.78915277858425 289.38156359393236 L 362.5312118924569 280.8051341890315 L 364.2732710063295 280.63010501750296 L 366.01533012020207 278.52975495915985 L 367.7573892340747 281.3302217036173 L 369.49944834794724 277.65460910151694 L 371.2415074618199 267.5029171528588 L 372.98356657569246 274.8541423570596 L 374.72562568956505 267.5029171528588 L 376.4676848034377 263.12718786464416 L 378.2097439173103 261.02683780630105 L 379.95180303118286 263.47724620770134 L 381.69386214505545 258.7514585764294 L 383.43592125892803 254.90081680280045 L 385.1779803728007 258.92648774795805 L 386.92003948667326 256.3010501750292 L 388.66209860054585 251.22520420070012 L 390.40415771441843 252.10035005834308 L 392.146216828291 251.05017502917153 L 393.88827594216366 250.52508751458575 L 395.63033505603624 247.72462077012838 L 397.37239416990883 248.2497082847141 L 399.1144532837815 240.72345390898485 L 400.856512397654 237.57292882147024 L 402.59857151152664 234.9474912485414 L 404.3406306253992 236.17269544924156 L 406.0826897392718 222.69544924154027 L 407.8247488531444 219.36989498249707 L 409.56680796701704 210.79346557759627 L 411.3088670808896 205.7176196032672 L 413.0509261947622 203.09218203033842 L 414.7929853086348 200.81680280046677 L 416.5350444225074 195.39089848308052 L 418.27710353638 188.389731621937 L 420.0191626502526 184.88914819136525 L 421.7612217641252 179.98833138856477 L 423.5032808779978 180.86347724620774 L 425.24533999187037 165.81096849474912 L 427.01643342430754 163.36056009334888 L 428.7584925381801 160.21003500583433 L 430.5005516520527 155.30921820303385 L 432.24261076592535 156.88448074679113 L 433.98466987979793 161.08518086347723 L 435.7267289936705 159.50991831971996 L 437.4687881075431 156.35939323220535 L 439.2108472214157 157.7596266044341 L 440.95290633528833 169.4865810968495 L 442.6949654491609 152.33372228704783 L 444.4370245630335 148.13302217036173 L 446.1790836769061 149.18319719953328 L 447.92114279077873 126.2543757292882 L 449.6632019046513 126.42940490081685 L 451.4052610185239 128.17969661610266 L 453.1473201323965 115.57759626604434 L 454.8893792462691 115.22753792298715 L 456.6314383601417 114.00233372228706 L 458.3734974740143 123.10385064177365 L 460.1155565878869 122.22870478413074 L 461.85761570175947 116.6277712952159 L 463.59967481563206 111.37689614935823 L 465.3417339295047 104.02567094515757 L 467.0837930433773 104.20070011668611 L 468.82585215724987 102.27537922987165 L 470.56791127112245 104.20070011668611 L 472.30997038499504 100 L 474.0520294988677 102.97549591598602 L 475.79408861274027 115.57759626604434 L 477.53614772661285 107.52625437572931 L 479.27820684048544 104.37572928821476 L 481.0202659543581 104.90081680280048 L 482.76232506823067 102.80046674445737 L 484.50438418210325 124.32905484247374 L 486.24644329597584 122.75379229871646 L 487.9885024098484 122.57876312718793 L 489.73056152372106 124.67911318553092 L 491.47262063759365 136.93115519253206 L 493.21467975146624 135.88098016336062 L 494.9567388653388 135.18086347724625 L 496.6987979792114 150.58343057176197 L 498.44085709308405 145.3325554259043 L 500.18291620695663 149.0081680280047 L 501.9249753208292 217.6196032672112 L 503.6670344347018 246.49941656942823 L 505.40909354857445 194.86581096849474 L 507.15115266244703 179.2882147024504 L 508.8932117763196 193.81563593932324 L 510.6352708901922 201.3418903150525 L 512.3773300040648 195.04084014002333 L 514.1193891179374 195.39089848308052 L 515.8614482318101 188.0396732788798 L 517.6035073456826 197.1411901983664 L 519.3455664595551 206.24270711785297 L 521.0876255734278 198.19136522753794 L 522.8296846873004 196.6161026837806 L 524.5717438011729 193.81563593932324 L 526.3138029150456 202.04200700116687 L 528.0558620289182 187.8646441073512 L 529.7979211427908 173.16219369894984 L 531.5399802566634 178.5880980163361 L 533.282039370536 192.94049008168028 L 535.0240984844086 212.54375729288213 L 536.7661575982811 206.41773628938157 L 538.5082167121539 203.44224037339555 L 540.2502758260264 212.36872812135354 L 541.9923349398989 206.06767794632438 L 543.7343940537716 212.193698949825 L 545.4764531676442 213.94399066511087 L 547.2185122815167 216.7444574095683 L 548.9605713953894 221.64527421236872 L 550.702630509262 219.89498249708285 L 552.4446896231345 227.94632438739794 L 554.1867487370071 228.47141190198366 L 555.9288078508798 245.79929988331392 L 557.6708669647523 244.39906651108518 L 559.4129260786249 244.049008168028 L 561.1549851924975 245.97432905484246 L 562.8970443063702 237.57292882147024 L 564.6391034202427 242.12368728121353 L 566.3811625341153 245.27421236872814 L 568.123221647988 240.54842473745626 L 569.8652807618605 245.27421236872814 L 571.6073398757331 255.42590431738623 L 573.3493989896058 246.84947491248542 L 575.0914581034783 244.2240373395566 L 576.8335172173508 241.24854142357063 L 578.5755763312235 251.9253208868145 L 580.3176354450961 250.3500583430572 L 582.0596945589687 249.12485414235707 L 583.8017536728413 251.7502917152859 L 585.5438127867139 251.22520420070012 L 587.2858719005865 254.55075845974332 L 589.0279310144591 245.97432905484246 L 590.7699901283318 254.20070011668614 L 592.5120492422043 252.8004667444574 L 594.2541083560768 254.7257876312719 L 595.9961674699496 252.8004667444574 L 597.7382265838221 257.0011668611436 L 599.4802856976946 257.1761960326721 L 601.2223448115673 258.92648774795805 L 602.9644039254399 265.9276546091015 L 604.7064630393124 271.7036172695449 L 606.4485221531851 276.07934655775966 L 608.1905812670577 276.2543757292882 L 609.9326403809303 290.43173862310385 L 611.6746994948028 299.00816802800466 L 613.4167586086755 299.53325554259044 L 615.1588177225481 302.8588098016336 L 616.9008768364206 309.33488914819134 L 618.6429359502932 303.03383897316223 L 620.3849950641659 306.70945157526256 L 622.1270541780384 307.23453908984834 L 623.869113291911 311.26021003500585 L 625.6111724057837 311.96032672112017 L 627.3532315196562 319.66161026837807 L 629.0952906335289 318.7864644107351 L 630.8373497474015 321.41190198366394 L 632.579408861274 324.73745624270714 L 634.3214679751466 322.9871645274212 L 636.0635270890192 326.487747957993 L 637.8055862028918 327.1878646441073 L 639.5476453167644 332.61376896149363 L 641.289704430637 329.46324387397897 L 643.0317635445097 335.2392065344224 L 644.7738226583822 339.7899649941657 L 646.5158817722548 343.8156359393232 L 648.2579408861275 349.41656942823806 L 650 352.74212368728126 L 650 400 Z" /><text  class="poloto_labels poloto_text poloto_title" alignment-baseline="start" text-anchor="middle" font-size="x-large" x="400" y="37.5" >Total players on 2021-11-18</text><text  class="poloto_labels poloto_text poloto_xname" alignment-baseline="start" text-anchor="middle" font-size="x-large" x="400" y="481.25" >Time</text><text  class="poloto_labels poloto_text poloto_yname" alignment-baseline="start" text-anchor="middle" font-size="x-large" transform="rotate(-90,37.5,250)" x="37.5" y="250" >Count</text><line  class="poloto_axis_lines" stroke="black" x1="150" x2="150" y1="400" y2="405" /><text  class="poloto_tick_labels poloto_text" alignment-baseline="start" text-anchor="middle" x="150" y="430" > 00:00:00</text><line  class="poloto_axis_lines" stroke="black" x1="266.1372742581732" x2="266.1372742581732" y1="400" y2="405" /><text  class="poloto_tick_labels poloto_text" alignment-baseline="start" text-anchor="middle" x="266.1372742581732" y="430" > 05:33:20</text><line  class="poloto_axis_lines" stroke="black" x1="382.27454851634633" x2="382.27454851634633" y1="400" y2="405" /><text  class="poloto_tick_labels poloto_text" alignment-baseline="start" text-anchor="middle" x="382.27454851634633" y="430" > 11:06:40</text><line  class="poloto_axis_lines" stroke="black" x1="498.41182277451946" x2="498.41182277451946" y1="400" y2="405" /><text  class="poloto_tick_labels poloto_text" alignment-baseline="start" text-anchor="middle" x="498.41182277451946" y="430" > 16:40:00</text><line  class="poloto_axis_lines" stroke="black" x1="614.5490970326927" x2="614.5490970326927" y1="400" y2="405" /><text  class="poloto_tick_labels poloto_text" alignment-baseline="start" text-anchor="middle" x="614.5490970326927" y="430" > 22:13:20</text><line  class="poloto_axis_lines" stroke="black" x1="150" x2="144" y1="363.2438739789965" y2="363.2438739789965" /><text  class="poloto_tick_labels poloto_text" alignment-baseline="middle" text-anchor="end" x="135" y="363.2438739789965" > 1000</text><line  class="poloto_axis_lines" stroke="black" x1="150" x2="144" y1="275.7292882147025" y2="275.7292882147025" /><text  class="poloto_tick_labels poloto_text" alignment-baseline="middle" text-anchor="end" x="135" y="275.7292882147025" > 1500</text><line  class="poloto_axis_lines" stroke="black" x1="150" x2="144" y1="188.21470245040837" y2="188.21470245040837" /><text  class="poloto_tick_labels poloto_text" alignment-baseline="middle" text-anchor="end" x="135" y="188.21470245040837" > 2000</text><line  class="poloto_axis_lines" stroke="black" x1="150" x2="144" y1="100.70011668611437" y2="100.70011668611437" /><text  class="poloto_tick_labels poloto_text" alignment-baseline="middle" text-anchor="end" x="135" y="100.70011668611437" > 2500</text><path  stroke="black" fill="none" class="poloto_axis_lines" style="stroke-dasharray:14.517159282271646;stroke-dashoffset:-0;" d=" M 150 400 L 650 400" /><path  stroke="black" fill="none" class="poloto_axis_lines" style="stroke-dasharray:8.751458576429405;stroke-dashoffset:-36.756126021003496;" d=" M 150 400 L 150 100" /></svg>