<svg class="poloto" width="800" height="500" viewBox="0 0 800 500" xmlns="http://www.w3.org/2000/svg"><style>.poloto { stroke-linecap:round; stroke-linejoin:round; font-family: 'Tahoma', sans-serif; background-color: AliceBlue;} .poloto_scatter{stroke-width:7} .poloto_line{stroke-width:2} .poloto_text{fill: black;} .poloto_axis_lines{stroke: black;stroke-width:3;fill:none;stroke-dasharray:none} .poloto0stroke{stroke:  blue;} .poloto1stroke{stroke:  red;} .poloto2stroke{stroke:  green;} .poloto3stroke{stroke:  gold;} .poloto4stroke{stroke:  aqua;} .poloto5stroke{stroke:  lime;} .poloto6stroke{stroke:  orange;} .poloto7stroke{stroke:  chocolate;} .poloto0fill{fill:blue;} .poloto1fill{fill:red;} .poloto2fill{fill:green;} .poloto3fill{fill:gold;} .poloto4fill{fill:aqua;} .poloto5fill{fill:lime;} .poloto6fill{fill:orange;} .poloto7fill{fill:chocolate;}</style><text  class="poloto_text poloto_legend_text" alignment-baseline="middle" text-anchor="start" font-size="large" x="675" y="100" ></text><path  class="poloto_linefill poloto0fill" d=" M 150 400 L 150 356.78092399403874 L 151.74216027874564 360.95380029806256 L 153.4843205574913 362.29508196721315 L 155.22648083623693 357.0789865871833 L 156.96864111498257 352.9061102831595 L 158.71080139372822 355.7377049180328 L 160.45296167247386 361.84798807749627 L 162.1951219512195 361.99701937406854 L 163.93728222996515 365.87183308494787 L 165.6794425087108 367.66020864381517 L 167.42160278745644 365.2757078986587 L 169.16376306620208 361.698956780924 L 170.90592334494772 360.35767511177346 L 172.64808362369337 362.29508196721315 L 174.390243902439 361.40089418777944 L 176.13240418118465 360.655737704918 L 177.8745644599303 365.87183308494787 L 179.61672473867597 366.1698956780924 L 181.3588850174216 367.5111773472429 L 183.10104529616726 377.04918032786884 L 184.8432055749129 379.2846497764531 L 186.58536585365854 378.98658718330853 L 188.3275261324042 388.5245901639344 L 190.06968641114983 394.6348733233979 L 191.81184668989548 394.4858420268256 L 193.55400696864112 391.8032786885246 L 195.29616724738676 389.26974664679585 L 197.0383275261324 385.24590163934425 L 198.78048780487805 400 L 200.5226480836237 395.08196721311475 L 202.26480836236934 380.17883755588673 L 204.00696864111498 385.24590163934425 L 205.74912891986062 384.79880774962743 L 207.49128919860627 381.52011922503726 L 209.2334494773519 371.68405365126677 L 210.97560975609755 369.8956780923994 L 212.7177700348432 371.68405365126677 L 214.45993031358887 369.59761549925486 L 216.2020905923345 367.9582712369598 L 217.94425087108016 364.97764530551416 L 219.6864111498258 359.016393442623 L 221.42857142857144 360.8047690014903 L 223.1707317073171 356.03576751117737 L 224.91289198606273 350.07451564828614 L 226.65505226480838 349.92548435171386 L 228.39721254355402 345.75260804769005 L 230.13937282229966 344.5603576751118 L 231.8815331010453 339.04619970193744 L 233.62369337979095 340.5365126676602 L 235.3658536585366 342.17585692995533 L 237.10801393728224 340.3874813710879 L 238.85017421602788 337.25782414307 L 240.59233449477352 339.04619970193744 L 242.33449477351917 339.49329359165426 L 244.0766550522648 335.7675111773473 L 245.81881533101046 334.575260804769 L 247.5609756097561 332.4888226527571 L 249.30313588850174 327.7198211624441 L 251.0452961672474 328.6140089418778 L 252.78745644599303 324.8882265275708 L 254.52961672473867 319.82116244411327 L 256.2717770034843 320.7153502235469 L 258.01393728222996 320.56631892697465 L 259.7560975609756 315.79731743666173 L 261.49825783972125 313.26378539493294 L 263.2404181184669 310.5812220566319 L 264.98257839721254 319.97019374068554 L 266.7247386759582 316.0953800298063 L 268.4668989547038 313.85991058122204 L 270.20905923344947 309.9850968703428 L 271.9512195121951 312.8166915052161 L 273.69337979094075 309.8360655737705 L 275.4355400696864 310.4321907600596 L 277.17770034843204 312.3695976154993 L 278.9198606271777 317.2876304023845 L 280.6620209059233 312.220566318927 L 282.40418118466897 311.17734724292103 L 284.1463414634146 315.20119225037257 L 285.88850174216026 317.1385991058122 L 287.6306620209059 315.79731743666173 L 289.37282229965155 316.39344262295083 L 291.1149825783972 317.88375558867364 L 292.85714285714283 308.3457526080477 L 294.5993031358885 310.5812220566319 L 296.3414634146342 308.64381520119224 L 298.08362369337976 305.2160953800298 L 299.82578397212546 311.62444113263786 L 301.56794425087105 310.2831594634873 L 303.31010452961675 303.1296572280179 L 305.05226480836234 299.70193740685545 L 306.79442508710804 295.52906110283163 L 308.5365853658536 291.3561847988077 L 310.2787456445993 287.48137108792844 L 312.0209059233449 288.5245901639345 L 313.7630662020906 284.053651266766 L 315.5052264808362 280.9239940387481 L 317.2473867595819 278.24143070044715 L 318.9895470383275 281.6691505216096 L 320.7317073170732 280.77496274217583 L 322.4738675958188 282.1162444113264 L 324.2160278745645 278.83755588673625 L 325.95818815331006 276.7511177347243 L 327.70034843205576 268.107302533532 L 329.44250871080135 267.9582712369597 L 331.18466898954705 257.5260804769001 L 332.92682926829264 253.35320417287633 L 334.66898954703834 247.09388971684055 L 336.4111498257839 242.92101341281668 L 338.1533101045296 243.96423248882266 L 339.8954703832752 237.10879284649778 L 341.6376306620209 235.61847988077497 L 343.3797909407665 233.2339791356185 L 345.1219512195122 235.91654247391952 L 346.86411149825784 239.0461997019374 L 348.6062717770035 237.25782414307005 L 350.34843205574913 230.55141579731745 L 352.0905923344948 237.40685543964233 L 353.8327526132404 229.806259314456 L 355.57491289198606 227.57078986587183 L 357.3170731707317 226.67660208643818 L 359.0650406504065 217.8837555886736 L 360.801393728223 219.82116244411324 L 362.54355400696863 218.47988077496277 L 364.2857142857143 222.5037257824143 L 366.0278745644599 219.5230998509687 L 367.77003484320556 217.8837555886736 L 369.5121951219512 220.4172876304024 L 371.25435540069685 212.22056631892698 L 372.9965156794425 213.85991058122207 L 374.73867595818814 206.11028315946348 L 376.4808362369338 201.19225037257823 L 378.2229965156794 201.93740685543966 L 379.96515679442507 196.87034277198214 L 381.7073170731707 197.31743666169896 L 383.44947735191636 197.1684053651267 L 385.191637630662 201.3412816691505 L 386.93379790940764 198.21162444113267 L 388.6759581881533 194.18777943368107 L 390.41811846689893 197.46646795827124 L 392.1602787456446 194.9329359165425 L 393.9024390243902 200.29806259314458 L 395.6445993031359 201.04321907600595 L 397.3867595818815 195.97615499254843 L 399.1289198606272 198.80774962742177 L 400.8710801393728 196.27421758569298 L 402.6132404181185 193.74068554396425 L 404.3554006968641 196.1251862891207 L 406.0975609756097 201.3412816691505 L 407.83972125435537 198.06259314456034 L 409.581881533101 197.91356184798806 L 411.32404181184666 194.48584202682562 L 413.0662020905923 195.38002980625933 L 414.80836236933794 197.0193740685544 L 416.5505226480836 197.0193740685544 L 418.29268292682923 196.87034277198214 L 420.0348432055749 195.08196721311478 L 421.7770034843206 195.38002980625933 L 423.5191637630662 197.6154992548435 L 425.26132404181186 192.99552906110281 L 427.0034843205575 193.29359165424742 L 428.74564459930315 187.77943368107302 L 430.4878048780488 178.83755588673623 L 432.22996515679444 178.0923994038748 L 433.9721254355401 176.00596125186289 L 435.7142857142857 182.1162444113264 L 437.45644599303137 178.68852459016395 L 439.198606271777 170.49180327868854 L 440.94076655052265 170.6408345752608 L 442.6829268292683 163.63636363636365 L 444.42508710801394 160.8047690014903 L 446.1672473867596 149.9254843517139 L 447.9094076655052 151.1177347242921 L 449.65156794425087 153.94932935916543 L 451.3937282229965 140.23845007451564 L 453.13588850174216 137.70491803278685 L 454.8780487804878 145.60357675111774 L 456.62020905923345 144.56035767511176 L 458.3623693379791 142.3248882265276 L 460.10452961672473 141.87779433681078 L 461.8466898954704 126.3785394932936 L 463.5946573751452 125.93144560357678 L 465.33101045296166 116.5424739195231 L 467.0731707317073 115.3502235469449 L 468.81533101045295 113.11475409836066 L 470.5574912891986 107.45156482861398 L 472.29965156794424 123.84500745156481 L 474.0418118466899 110.13412816691505 L 475.7839721254355 108.34575260804775 L 477.52613240418117 102.23546944858424 L 479.2682926829268 105.81222056631896 L 481.01045296167246 100 L 482.7526132404181 104.02384500745154 L 484.49477351916374 104.02384500745154 L 486.2369337979094 107.45156482861398 L 487.97909407665503 103.87481371087927 L 489.7212543554007 112.07153502235474 L 491.4634146341463 118.4798807749628 L 493.20557491289196 119.22503725782417 L 494.9477351916376 120.2682563338301 L 496.68989547038325 122.80178837555889 L 498.4320557491289 134.57526080476896 L 500.17421602787454 134.87332339791362 L 501.9163763066202 137.55588673621457 L 503.6585365853658 170.93889716840536 L 505.40069686411147 146.19970193740684 L 507.1428571428571 156.92995529061105 L 508.88501742160275 153.20417287630406 L 510.6271777003484 156.78092399403877 L 512.3693379790941 159.91058122205666 L 514.1114982578397 167.51117734724292 L 515.8536585365853 171.08792846497764 L 517.595818815331 175.70789865871834 L 519.3379790940767 185.096870342772 L 521.0801393728223 192.39940387481371 L 522.822299651568 191.35618479880773 L 524.5644599303137 195.23099850968705 L 526.3066202090592 189.26974664679582 L 528.0487804878048 188.37555886736217 L 529.7909407665505 201.04321907600595 L 531.5331010452962 199.40387481371087 L 533.2752613240418 200.44709388971685 L 535.0174216027874 217.13859910581223 L 536.7595818815331 218.03278688524588 L 538.5017421602788 213.11475409836063 L 540.2439024390244 207.451564828614 L 541.98606271777 208.19672131147544 L 543.7282229965157 215.35022354694487 L 545.4703832752614 219.5230998509687 L 547.212543554007 223.84500745156484 L 548.9547038327526 231.14754098360655 L 550.6968641114983 231.4456035767511 L 552.439024390244 238.4500745156483 L 554.1811846689895 239.1952309985097 L 555.9233449477351 243.96423248882266 L 557.6655052264808 247.09388971684055 L 559.4076655052265 247.83904619970193 L 561.1498257839721 260.8047690014903 L 562.8919860627177 261.9970193740686 L 564.6341463414634 256.929955290611 L 566.3763066202091 256.78092399403874 L 568.1242740998839 256.78092399403874 L 569.8606271777003 259.6125186289121 L 571.602787456446 259.91058122205663 L 573.3449477351917 263.6363636363636 L 575.0871080139373 274.3666169895678 L 576.8292682926829 272.5782414307005 L 578.5714285714286 266.46795827123697 L 580.3135888501743 274.0685543964232 L 582.0557491289198 271.38599105812216 L 583.7979094076654 275.4098360655738 L 585.5400696864111 282.41430700447097 L 587.2822299651568 279.58271236959763 L 589.0243902439024 280.17883755588673 L 590.766550522648 278.83755588673625 L 592.5087108013937 286.73621460506706 L 594.2508710801394 283.60655737704917 L 595.993031358885 291.50521609538 L 597.7351916376306 283.15946348733235 L 599.4773519163763 286.14008941877796 L 601.219512195122 285.54396423248886 L 602.9616724738676 287.1833084947839 L 604.7038327526132 293.44262295081967 L 606.4459930313589 297.16840536512666 L 608.1881533101046 300.29806259314455 L 609.9303135888501 303.5767511177347 L 611.6724738675957 306.40834575260806 L 613.4146341463414 304.6199701937407 L 615.1567944250871 326.9746646795827 L 616.8989547038327 326.9746646795827 L 618.6411149825783 317.2876304023845 L 620.383275261324 301.78837555886736 L 622.1254355400697 302.5335320417288 L 623.8675958188153 299.8509687034277 L 625.609756097561 302.9806259314456 L 627.3519163763067 309.0909090909091 L 629.0940766550523 309.2399403874814 L 630.8362369337979 311.9225037257824 L 632.5783972125436 312.9657228017884 L 634.3205574912893 316.39344262295083 L 636.0627177700349 315.64828614008945 L 637.8048780487804 315.79731743666173 L 639.5470383275261 315.3502235469449 L 641.2891986062718 321.01341281669147 L 643.0313588850174 326.5275707898659 L 644.773519163763 327.123695976155 L 646.5156794425087 332.78688524590166 L 648.2578397212544 329.06110283159467 L 650 333.8301043219076 L 650 400 Z" /><text  class="poloto_labels poloto_text poloto_title" alignment-baseline="start" text-anchor="middle" font-size="x-large" x="400" y="37.5" >Total players on 2021-08-09</text><text  class="poloto_labels poloto_text poloto_xname" alignment-baseline="start" text-anchor="middle" font-size="x-large" x="400" y="481.25" >Time</text><text  class="poloto_labels poloto_text poloto_yname" alignment-baseline="start" text-anchor="middle" font-size="x-large" transform="rotate(-90,37.5,250)" x="37.5" y="250" >Count</text><line  class="poloto_axis_lines" stroke="black" x1="208.0487804878049" x2="208.0487804878049" y1="400" y2="405" /><text  class="poloto_tick_labels poloto_text" alignment-baseline="start" text-anchor="middle" x="208.0487804878049" y="430" > 03:00</text><line  class="poloto_axis_lines" stroke="black" x1="266.1207897793264" x2="266.1207897793264" y1="400" y2="405" /><text  class="poloto_tick_labels poloto_text" alignment-baseline="start" text-anchor="middle" x="266.1207897793264" y="430" > 06:00</text><line  class="poloto_axis_lines" stroke="black" x1="324.19279907084785" x2="324.19279907084785" y1="400" y2="405" /><text  class="poloto_tick_labels poloto_text" alignment-baseline="start" text-anchor="middle" x="324.19279907084785" y="430" > 08:00</text><line  class="poloto_axis_lines" stroke="black" x1="382.2648083623693" x2="382.2648083623693" y1="400" y2="405" /><text  class="poloto_tick_labels poloto_text" alignment-baseline="start" text-anchor="middle" x="382.2648083623693" y="430" > 11:00</text><line  class="poloto_axis_lines" stroke="black" x1="440.3368176538908" x2="440.3368176538908" y1="400" y2="405" /><text  class="poloto_tick_labels poloto_text" alignment-baseline="start" text-anchor="middle" x="440.3368176538908" y="430" > 14:00</text><line  class="poloto_axis_lines" stroke="black" x1="498.4088269454123" x2="498.4088269454123" y1="400" y2="405" /><text  class="poloto_tick_labels poloto_text" alignment-baseline="start" text-anchor="middle" x="498.4088269454123" y="430" > 17:00</text><line  class="poloto_axis_lines" stroke="black" x1="556.4808362369338" x2="556.4808362369338" y1="400" y2="405" /><text  class="poloto_tick_labels poloto_text" alignment-baseline="start" text-anchor="middle" x="556.4808362369338" y="430" > 19:00</text><line  class="poloto_axis_lines" stroke="black" x1="614.5528455284552" x2="614.5528455284552" y1="400" y2="405" /><text  class="poloto_tick_labels poloto_text" alignment-baseline="start" text-anchor="middle" x="614.5528455284552" y="430" > 22:00</text><line  class="poloto_axis_lines" stroke="black" x1="150" x2="144" y1="330.7004470938897" y2="330.7004470938897" /><text  class="poloto_tick_labels poloto_text" alignment-baseline="middle" text-anchor="end" x="135" y="330.7004470938897" > 1500</text><line  class="poloto_axis_lines" stroke="black" x1="150" x2="144" y1="256.18479880774964" y2="256.18479880774964" /><text  class="poloto_tick_labels poloto_text" alignment-baseline="middle" text-anchor="end" x="135" y="256.18479880774964" > 2000</text><line  class="poloto_axis_lines" stroke="black" x1="150" x2="144" y1="181.6691505216096" y2="181.6691505216096" /><text  class="poloto_tick_labels poloto_text" alignment-baseline="middle" text-anchor="end" x="135" y="181.6691505216096" > 2500</text><line  class="poloto_axis_lines" stroke="black" x1="150" x2="144" y1="107.15350223546943" y2="107.15350223546943" /><text  class="poloto_tick_labels poloto_text" alignment-baseline="middle" text-anchor="end" x="135" y="107.15350223546943" > 3000</text><path  stroke="black" fill="none" class="poloto_axis_lines" style="stroke-dasharray:14.518002322880372;stroke-dashoffset:-58.04878048780488;" d=" M 150 400 L 650 400" /><path  stroke="black" fill="none" class="poloto_axis_lines" style="stroke-dasharray:7.451564828614009;stroke-dashoffset:-69.29955290611028;" d=" M 150 400 L 150 100" /></svg>