<svg class="poloto" width="800" height="500" viewBox="0 0 800 500" xmlns="http://www.w3.org/2000/svg"><style>.poloto { stroke-linecap:round; stroke-linejoin:round; font-family: 'Tahoma', sans-serif; background-color: AliceBlue;} .poloto_scatter{stroke-width:7} .poloto_line{stroke-width:2} .poloto_text{fill: black;} .poloto_axis_lines{stroke: black;stroke-width:3;fill:none;stroke-dasharray:none} .poloto0stroke{stroke:  blue;} .poloto1stroke{stroke:  red;} .poloto2stroke{stroke:  green;} .poloto3stroke{stroke:  gold;} .poloto4stroke{stroke:  aqua;} .poloto5stroke{stroke:  lime;} .poloto6stroke{stroke:  orange;} .poloto7stroke{stroke:  chocolate;} .poloto0fill{fill:blue;} .poloto1fill{fill:red;} .poloto2fill{fill:green;} .poloto3fill{fill:gold;} .poloto4fill{fill:aqua;} .poloto5fill{fill:lime;} .poloto6fill{fill:orange;} .poloto7fill{fill:chocolate;}</style><text  class="poloto_text poloto_legend_text" alignment-baseline="middle" text-anchor="start" font-size="large" x="675" y="100" ></text><path  class="poloto_linefill poloto0fill" d=" M 150 400 L 150 346.3709677419355 L 151.74216027874564 352.01612903225805 L 153.4843205574913 345.56451612903226 L 155.22648083623693 351.81451612903226 L 156.96864111498257 343.9516129032258 L 158.71080139372822 349.39516129032256 L 160.45296167247386 356.6532258064516 L 162.1951219512195 357.4596774193548 L 163.93728222996515 361.0887096774194 L 165.6794425087108 357.6612903225806 L 167.42160278745644 363.10483870967744 L 169.16376306620208 365.1209677419355 L 170.90592334494772 370.36290322580646 L 172.64808362369337 372.98387096774195 L 174.390243902439 372.7822580645161 L 176.13240418118465 375 L 177.8745644599303 379.0322580645161 L 179.61672473867597 380.8467741935484 L 181.3588850174216 388.7096774193548 L 183.10104529616726 385.48387096774195 L 184.8432055749129 385.68548387096774 L 186.58536585365854 391.73387096774195 L 188.3275261324042 392.94354838709677 L 190.06968641114983 391.93548387096774 L 191.81184668989548 391.1290322580645 L 193.55400696864112 387.9032258064516 L 195.29616724738676 391.5322580645161 L 197.0383275261324 389.91935483870964 L 198.78048780487805 387.9032258064516 L 200.5226480836237 387.7016129032258 L 202.26480836236934 383.26612903225805 L 204.00696864111498 387.5 L 205.74912891986062 384.67741935483866 L 207.49128919860627 389.7177419354839 L 209.2334494773519 387.29838709677415 L 210.97560975609755 388.7096774193548 L 212.7177700348432 389.7177419354839 L 214.45993031358887 388.7096774193548 L 216.2020905923345 386.69354838709677 L 217.94425087108016 386.69354838709677 L 219.6864111498258 391.1290322580645 L 221.42857142857144 393.75 L 223.1707317073171 392.3387096774194 L 224.91289198606273 396.5725806451613 L 226.65505226480838 393.75 L 228.39721254355402 392.5403225806451 L 230.13937282229966 398.991935483871 L 231.8815331010453 396.9758064516129 L 233.62369337979095 400 L 235.3658536585366 396.9758064516129 L 237.10801393728224 393.9516129032258 L 238.85017421602788 392.5403225806451 L 240.59233449477352 398.5887096774194 L 242.33449477351917 397.98387096774195 L 244.0766550522648 395.9677419354839 L 245.81881533101046 389.51612903225805 L 247.5609756097561 385.48387096774195 L 249.30313588850174 383.26612903225805 L 251.0452961672474 383.4677419354839 L 252.78745644599303 380.64516129032256 L 254.52961672473867 374.39516129032256 L 256.2717770034843 374.19354838709677 L 258.01393728222996 375.80645161290323 L 259.7560975609756 364.91935483870964 L 261.49825783972125 378.6290322580645 L 263.2404181184669 363.10483870967744 L 264.98257839721254 361.0887096774194 L 266.7247386759582 364.11290322580646 L 268.4668989547038 367.741935483871 L 270.20905923344947 367.13709677419354 L 271.9512195121951 367.3387096774194 L 273.69337979094075 366.1290322580645 L 275.4355400696864 372.3790322580645 L 277.17770034843204 367.13709677419354 L 278.9198606271777 362.5 L 280.6620209059233 363.7096774193548 L 282.40418118466897 367.3387096774194 L 284.1463414634146 365.5241935483871 L 285.88850174216026 363.7096774193548 L 287.6306620209059 364.7177419354839 L 289.37282229965155 355.241935483871 L 291.1149825783972 350.2016129032258 L 292.85714285714283 347.98387096774195 L 294.5993031358885 350.2016129032258 L 296.3414634146342 350.4032258064516 L 298.08362369337976 349.39516129032256 L 299.82578397212546 344.758064516129 L 301.56794425087105 340.9274193548387 L 303.31010452961675 336.491935483871 L 305.05226480836234 340.3225806451613 L 306.79442508710804 341.3306451612903 L 308.5365853658536 338.508064516129 L 310.2787456445993 333.26612903225805 L 312.0209059233449 335.88709677419354 L 313.7630662020906 331.25 L 315.5052264808362 330.84677419354836 L 317.2473867595819 327.01612903225805 L 318.9895470383275 323.38709677419354 L 320.7317073170732 324.59677419354836 L 322.4738675958188 320.56451612903226 L 324.2160278745645 327.8225806451613 L 325.95818815331006 325.80645161290323 L 327.70034843205576 331.0483870967742 L 329.44250871080135 321.5725806451613 L 331.18466898954705 337.2983870967742 L 332.92682926829264 316.1290322580645 L 334.66898954703834 308.8709677419355 L 336.4111498257839 306.6532258064516 L 338.1533101045296 311.89516129032256 L 339.8954703832752 309.0725806451613 L 341.6376306620209 302.21774193548384 L 343.3797909407665 296.5725806451613 L 345.1219512195122 295.16129032258067 L 346.86411149825784 293.3467741935484 L 348.6062717770035 285.88709677419354 L 350.34843205574913 289.9193548387097 L 352.0905923344948 288.91129032258067 L 353.8327526132404 291.73387096774195 L 355.57491289198606 276.008064516129 L 357.3170731707317 285.2822580645161 L 359.05923344947735 273.18548387096774 L 360.801393728223 269.35483870967744 L 362.54355400696863 269.758064516129 L 364.2857142857143 267.94354838709677 L 366.0278745644599 268.75 L 367.77003484320556 265.9274193548387 L 369.5121951219512 259.2741935483871 L 371.25435540069685 261.2903225806452 L 372.9965156794425 257.4596774193548 L 374.73867595818814 262.2983870967742 L 376.4808362369338 258.6693548387097 L 378.2229965156794 261.2903225806452 L 379.96515679442507 258.06451612903226 L 381.7073170731707 258.06451612903226 L 383.44947735191636 248.99193548387098 L 385.191637630662 251.00806451612902 L 386.93379790940764 250.4032258064516 L 388.6759581881533 249.39516129032256 L 390.41811846689893 245.16129032258067 L 392.1602787456446 252.4193548387097 L 393.9024390243902 243.3467741935484 L 395.6445993031359 229.43548387096774 L 397.3867595818815 223.99193548387098 L 399.1289198606272 227.6209677419355 L 400.8710801393728 219.75806451612902 L 402.6132404181185 214.51612903225805 L 404.3554006968641 211.08870967741933 L 406.0975609756097 220.9677419354839 L 407.83972125435537 223.18548387096774 L 409.581881533101 210.0806451612903 L 411.32404181184666 206.65322580645164 L 413.0662020905923 201.41129032258067 L 414.80836236933794 203.02419354838707 L 416.5505226480836 200.60483870967744 L 418.29268292682923 197.17741935483872 L 420.0348432055749 188.50806451612902 L 421.7770034843206 181.0483870967742 L 423.5191637630662 180.24193548387098 L 425.26132404181186 179.43548387096774 L 427.0034843205575 170.76612903225805 L 428.74564459930315 181.85483870967744 L 430.4878048780488 164.9193548387097 L 432.22996515679444 160.68548387096774 L 433.9721254355401 160.68548387096774 L 435.7142857142857 163.70967741935482 L 437.45644599303137 153.42741935483872 L 439.198606271777 157.05645161290323 L 440.94076655052265 143.5483870967742 L 442.6829268292683 140.1209677419355 L 444.42508710801394 144.95967741935482 L 446.1672473867596 147.5806451612903 L 447.9094076655052 150.80645161290323 L 449.65156794425087 148.18548387096774 L 451.3937282229965 135.0806451612903 L 453.13588850174216 128.22580645161293 L 454.8780487804878 119.75806451612902 L 456.62020905923345 119.35483870967744 L 458.3623693379791 117.54032258064518 L 460.10452961672473 119.15322580645164 L 461.8466898954704 118.34677419354841 L 463.588850174216 114.51612903225805 L 465.33101045296166 112.09677419354841 L 467.0731707317073 137.90322580645164 L 468.81533101045295 112.7016129032258 L 470.5574912891986 110.48387096774195 L 472.29965156794424 104.83870967741939 L 474.0418118466899 113.50806451612902 L 475.7839721254355 103.62903225806451 L 477.52613240418117 106.0483870967742 L 479.2682926829268 100 L 481.01045296167246 109.67741935483872 L 482.7526132404181 145.76612903225805 L 484.49477351916374 121.37096774193549 L 486.2369337979094 121.57258064516128 L 487.97909407665503 115.52419354838713 L 489.7212543554007 118.34677419354841 L 491.4634146341463 126.00806451612902 L 493.20557491289196 131.4516129032258 L 494.9477351916376 130.24193548387098 L 496.68989547038325 117.54032258064518 L 498.4320557491289 125.40322580645164 L 500.17421602787454 131.65322580645164 L 501.9163763066202 127.62096774193549 L 503.6585365853658 116.3306451612903 L 505.40069686411147 123.58870967741939 L 507.1428571428571 118.34677419354841 L 508.88501742160275 123.58870967741939 L 510.6271777003484 130.8467741935484 L 512.3693379790941 158.4677419354839 L 514.1114982578397 153.22580645161293 L 515.8536585365853 143.5483870967742 L 517.595818815331 171.57258064516128 L 519.3379790940767 172.98387096774195 L 521.0801393728223 173.99193548387098 L 522.822299651568 170.56451612903226 L 524.5644599303137 184.8790322580645 L 526.3066202090592 190.72580645161293 L 528.0487804878048 188.50806451612902 L 529.7909407665505 196.1693548387097 L 531.5331010452962 178.8306451612903 L 533.2752613240418 189.11290322580646 L 535.0174216027874 169.95967741935482 L 536.7595818815331 179.8387096774194 L 538.5017421602788 177.6209677419355 L 540.2439024390244 194.35483870967744 L 541.98606271777 188.50806451612902 L 543.7282229965157 193.75 L 545.4703832752614 190.1209677419355 L 547.212543554007 194.15322580645164 L 548.9547038327526 199.39516129032256 L 550.6968641114983 204.43548387096774 L 552.439024390244 208.4677419354839 L 554.1811846689895 216.73387096774195 L 555.9233449477351 234.07258064516128 L 557.6655052264808 238.10483870967744 L 559.4076655052265 237.7016129032258 L 561.1498257839721 212.0967741935484 L 562.8919860627177 198.99193548387098 L 564.6341463414634 219.95967741935482 L 566.3763066202091 222.3790322580645 L 568.1184668989547 223.99193548387098 L 569.8606271777003 232.25806451612902 L 571.602787456446 239.7177419354839 L 573.3449477351917 232.45967741935482 L 575.0871080139373 227.6209677419355 L 576.8292682926829 250.2016129032258 L 578.5714285714286 246.57258064516128 L 580.3135888501743 253.02419354838707 L 582.0557491289198 252.21774193548384 L 583.7979094076654 253.6290322580645 L 585.5400696864111 260.68548387096774 L 587.2822299651568 257.258064516129 L 589.0243902439024 253.8306451612903 L 590.766550522648 256.6532258064516 L 592.5087108013937 253.42741935483872 L 594.2508710801394 278.6290322580645 L 595.993031358885 281.6532258064516 L 597.7351916376306 283.46774193548384 L 599.4773519163763 283.06451612903226 L 601.219512195122 284.6774193548387 L 602.9616724738676 295.56451612903226 L 604.7038327526132 283.06451612903226 L 606.4459930313589 294.758064516129 L 608.1881533101046 284.6774193548387 L 609.9303135888501 285.68548387096774 L 611.6724738675957 304.0322580645161 L 613.4146341463414 295.16129032258067 L 615.1567944250871 276.41129032258067 L 616.8989547038327 290.9274193548387 L 618.6411149825783 297.7822580645161 L 620.383275261324 301.008064516129 L 622.1254355400697 304.0322580645161 L 623.8675958188153 303.0241935483871 L 625.609756097561 302.01612903225805 L 627.3519163763067 324.59677419354836 L 629.0940766550523 321.1693548387097 L 630.8362369337979 314.71774193548384 L 632.5783972125436 314.11290322580646 L 634.3205574912893 324.19354838709677 L 636.0627177700349 323.18548387096774 L 637.8048780487804 323.58870967741933 L 639.5470383275261 325 L 641.2891986062718 325.80645161290323 L 643.0313588850174 336.491935483871 L 644.773519163763 346.5725806451613 L 646.5156794425087 335.68548387096774 L 648.2578397212544 340.9274193548387 L 650 344.9596774193548 L 650 400 Z" /><text  class="poloto_labels poloto_text poloto_title" alignment-baseline="start" text-anchor="middle" font-size="x-large" x="400" y="37.5" >Total players on 2021-07-06</text><text  class="poloto_labels poloto_text poloto_xname" alignment-baseline="start" text-anchor="middle" font-size="x-large" x="400" y="481.25" >Time</text><text  class="poloto_labels poloto_text poloto_yname" alignment-baseline="start" text-anchor="middle" font-size="x-large" transform="rotate(-90,37.5,250)" x="37.5" y="250" >Count</text><line  class="poloto_axis_lines" stroke="black" x1="208.0487804878049" x2="208.0487804878049" y1="400" y2="405" /><text  class="poloto_tick_labels poloto_text" alignment-baseline="start" text-anchor="middle" x="208.0487804878049" y="430" > 02:46:40</text><line  class="poloto_axis_lines" stroke="black" x1="266.1207897793264" x2="266.1207897793264" y1="400" y2="405" /><text  class="poloto_tick_labels poloto_text" alignment-baseline="start" text-anchor="middle" x="266.1207897793264" y="430" > 05:33:20</text><line  class="poloto_axis_lines" stroke="black" x1="324.19279907084785" x2="324.19279907084785" y1="400" y2="405" /><text  class="poloto_tick_labels poloto_text" alignment-baseline="start" text-anchor="middle" x="324.19279907084785" y="430" > 08:20:00</text><line  class="poloto_axis_lines" stroke="black" x1="382.2648083623693" x2="382.2648083623693" y1="400" y2="405" /><text  class="poloto_tick_labels poloto_text" alignment-baseline="start" text-anchor="middle" x="382.2648083623693" y="430" > 11:06:40</text><line  class="poloto_axis_lines" stroke="black" x1="440.3368176538908" x2="440.3368176538908" y1="400" y2="405" /><text  class="poloto_tick_labels poloto_text" alignment-baseline="start" text-anchor="middle" x="440.3368176538908" y="430" > 13:53:20</text><line  class="poloto_axis_lines" stroke="black" x1="498.4088269454123" x2="498.4088269454123" y1="400" y2="405" /><text  class="poloto_tick_labels poloto_text" alignment-baseline="start" text-anchor="middle" x="498.4088269454123" y="430" > 16:40:00</text><line  class="poloto_axis_lines" stroke="black" x1="556.4808362369338" x2="556.4808362369338" y1="400" y2="405" /><text  class="poloto_tick_labels poloto_text" alignment-baseline="start" text-anchor="middle" x="556.4808362369338" y="430" > 19:26:40</text><line  class="poloto_axis_lines" stroke="black" x1="614.5528455284552" x2="614.5528455284552" y1="400" y2="405" /><text  class="poloto_tick_labels poloto_text" alignment-baseline="start" text-anchor="middle" x="614.5528455284552" y="430" > 22:13:20</text><line  class="poloto_axis_lines" stroke="black" x1="150" x2="144" y1="367.3387096774194" y2="367.3387096774194" /><text  class="poloto_tick_labels poloto_text" alignment-baseline="middle" text-anchor="end" x="135" y="367.3387096774194" > 1200</text><line  class="poloto_axis_lines" stroke="black" x1="150" x2="144" y1="327.01612903225805" y2="327.01612903225805" /><text  class="poloto_tick_labels poloto_text" alignment-baseline="middle" text-anchor="end" x="135" y="327.01612903225805" > 1400</text><line  class="poloto_axis_lines" stroke="black" x1="150" x2="144" y1="286.69354838709677" y2="286.69354838709677" /><text  class="poloto_tick_labels poloto_text" alignment-baseline="middle" text-anchor="end" x="135" y="286.69354838709677" > 1600</text><line  class="poloto_axis_lines" stroke="black" x1="150" x2="144" y1="246.3709677419355" y2="246.3709677419355" /><text  class="poloto_tick_labels poloto_text" alignment-baseline="middle" text-anchor="end" x="135" y="246.3709677419355" > 1800</text><line  class="poloto_axis_lines" stroke="black" x1="150" x2="144" y1="206.0483870967742" y2="206.0483870967742" /><text  class="poloto_tick_labels poloto_text" alignment-baseline="middle" text-anchor="end" x="135" y="206.0483870967742" > 2000</text><line  class="poloto_axis_lines" stroke="black" x1="150" x2="144" y1="165.72580645161293" y2="165.72580645161293" /><text  class="poloto_tick_labels poloto_text" alignment-baseline="middle" text-anchor="end" x="135" y="165.72580645161293" > 2200</text><line  class="poloto_axis_lines" stroke="black" x1="150" x2="144" y1="125.40322580645164" y2="125.40322580645164" /><text  class="poloto_tick_labels poloto_text" alignment-baseline="middle" text-anchor="end" x="135" y="125.40322580645164" > 2400</text><path  stroke="black" fill="none" class="poloto_axis_lines" style="stroke-dasharray:14.518002322880372;stroke-dashoffset:-58.04878048780488;" d=" M 150 400 L 650 400" /><path  stroke="black" fill="none" class="poloto_axis_lines" style="stroke-dasharray:10.080645161290322;stroke-dashoffset:-32.66129032258064;" d=" M 150 400 L 150 100" /></svg>