<svg class="poloto" width="800" height="500" viewBox="0 0 800 500" xmlns="http://www.w3.org/2000/svg"><style>.poloto { stroke-linecap:round; stroke-linejoin:round; font-family: 'Tahoma', sans-serif; background-color: AliceBlue;} .poloto_scatter{stroke-width:7} .poloto_line{stroke-width:2} .poloto_text{fill: black;} .poloto_axis_lines{stroke: black;stroke-width:3;fill:none;stroke-dasharray:none} .poloto0stroke{stroke:  blue;} .poloto1stroke{stroke:  red;} .poloto2stroke{stroke:  green;} .poloto3stroke{stroke:  gold;} .poloto4stroke{stroke:  aqua;} .poloto5stroke{stroke:  lime;} .poloto6stroke{stroke:  orange;} .poloto7stroke{stroke:  chocolate;} .poloto0fill{fill:blue;} .poloto1fill{fill:red;} .poloto2fill{fill:green;} .poloto3fill{fill:gold;} .poloto4fill{fill:aqua;} .poloto5fill{fill:lime;} .poloto6fill{fill:orange;} .poloto7fill{fill:chocolate;}</style><text  class="poloto_text poloto_legend_text" alignment-baseline="middle" text-anchor="start" font-size="large" x="675" y="100" ></text><path  class="poloto_linefill poloto0fill" d=" M 150 400 L 150 346.57534246575347 L 151.73637324475314 353.0821917808219 L 153.47855375788336 352.05479452054794 L 155.2207342710136 355.3082191780822 L 156.96291478414383 358.04794520547944 L 158.70509529727406 362.8424657534247 L 160.4530830787814 368.4931506849315 L 162.18945632353453 370.7191780821918 L 163.93163683666478 371.57534246575347 L 165.673817349795 369.86301369863014 L 167.41599786292522 371.74657534246575 L 169.15817837605547 376.027397260274 L 170.9003588891857 375.68493150684935 L 172.64253940231595 379.2808219178082 L 174.38471991544617 381.67808219178085 L 176.1269004285764 388.6986301369863 L 177.86908094170664 389.7260273972603 L 179.61126145483686 393.83561643835617 L 181.35344196796711 389.8972602739726 L 183.09562248109734 386.1301369863014 L 184.8378029942276 392.9794520547945 L 186.5799835073578 392.8082191780822 L 188.32216402048806 399.14383561643837 L 190.06434453361828 392.8082191780822 L 191.81233231512562 394.3493150684932 L 193.54870555987875 395.8904109589041 L 195.29088607300898 395.3767123287671 L 197.03306658613923 393.83561643835617 L 198.77524709926945 397.94520547945206 L 200.51742761239967 400 L 202.25960812552992 395.7191780821918 L 204.00178863866014 397.7739726027397 L 205.7439691517904 396.06164383561645 L 207.48614966492062 392.8082191780822 L 209.22833017805084 393.66438356164383 L 210.9705106911811 393.83561643835617 L 212.71849847268842 392.29452054794524 L 214.45487171744156 392.29452054794524 L 216.19705223057179 391.43835616438355 L 217.939232743702 388.18493150684935 L 219.68141325683226 390.92465753424653 L 221.4235937699625 388.6986301369863 L 223.16577428309273 390.2397260273973 L 224.90795479622295 387.1575342465753 L 226.65013530935317 381.33561643835617 L 228.39231582248343 377.3972602739726 L 230.13449633561368 372.0890410958904 L 231.8766768487439 366.95205479452056 L 233.61885736187412 361.986301369863 L 235.36103787500434 370.3767123287671 L 237.1032183881346 369.6917808219178 L 238.84539890126484 367.29452054794524 L 240.58757941439507 364.3835616438356 L 242.3297599275253 359.5890410958904 L 244.0719404406555 361.472602739726 L 245.81412095378576 358.04794520547944 L 247.556301466916 352.2260273972603 L 249.29848198004623 347.2602739726027 L 251.04066249317646 346.4041095890411 L 252.78284300630668 346.4041095890411 L 254.52502351943693 343.83561643835617 L 256.2672040325672 351.8835616438356 L 258.0093845456974 349.6575342465753 L 259.7515650588276 348.8013698630137 L 261.4937455719579 348.28767123287673 L 263.23592608508807 358.7328767123288 L 264.98391386659546 351.71232876712327 L 266.72028711134857 351.3698630136986 L 268.4624676244788 351.027397260274 L 270.20464813760907 344.3493150684932 L 271.94682865073923 331.8493150684932 L 273.6890091638695 333.2191780821918 L 275.43118967699974 336.1301369863014 L 277.17337019012996 337.67123287671234 L 278.91555070326024 333.2191780821918 L 280.6577312163904 333.56164383561645 L 282.3999117295207 338.013698630137 L 284.1420922426509 328.5958904109589 L 285.8842727557811 322.2602739726027 L 287.6264532689114 325.8561643835617 L 289.36863378204157 326.3698630136986 L 291.11081429517185 321.06164383561645 L 292.85299480830207 316.2671232876712 L 294.5951753214323 319.69178082191786 L 296.3431631029397 313.3561643835617 L 298.07953634769274 314.8972602739726 L 299.821716860823 307.5342465753424 L 301.56389737395324 304.1095890410959 L 303.30607788708346 302.56849315068496 L 305.04825840021374 299.1438356164383 L 306.7904389133439 289.8972602739726 L 308.5326194264742 286.4726027397261 L 310.2747999396044 284.93150684931504 L 312.01698045273463 284.93150684931504 L 313.7591609658649 285.2739726027397 L 315.5013414789951 292.80821917808214 L 317.24352199212535 295.20547945205476 L 318.9857025052556 282.70547945205476 L 320.7278830183858 277.56849315068496 L 322.4700635315161 282.19178082191786 L 324.2122440446463 272.43150684931504 L 325.9544245577765 267.6369863013699 L 327.69660507090674 266.7808219178082 L 329.43878558403696 259.41780821917814 L 331.18096609716724 257.8767123287671 L 332.92314661029747 250.1712328767123 L 334.6653271234277 248.80136986301372 L 336.4075076365579 248.45890410958904 L 338.15549541806524 240.92465753424656 L 339.8918686628184 245.37671232876713 L 341.63404917594863 240.06849315068493 L 343.37622968907885 236.81506849315068 L 345.1184102022091 230.30821917808223 L 346.8605907153393 228.5958904109589 L 348.6027712284696 221.74657534246577 L 350.3449517415998 222.94520547945208 L 352.08713225473 221.74657534246577 L 353.8293127678603 216.95205479452054 L 355.57149328099047 216.0958904109589 L 357.31367379412075 216.95205479452054 L 359.05585430725097 216.43835616438358 L 360.7980348203812 227.05479452054797 L 362.54021533351147 215.06849315068493 L 364.28239584664163 221.74657534246577 L 366.0245763597719 222.0890410958904 L 367.76675687290214 218.15068493150685 L 369.50893738603236 210.27397260273975 L 371.25111789916264 196.57534246575344 L 372.9932984122928 196.74657534246577 L 374.7354789254231 194.5205479452055 L 376.4776594385533 196.74657534246577 L 378.2198399516835 196.57534246575344 L 379.9620204648138 187.67123287671237 L 381.70420097794397 185.95890410958904 L 383.44638149107425 186.47260273972606 L 385.18856200420447 190.23972602739727 L 386.9307425173347 186.986301369863 L 388.672923030465 188.527397260274 L 390.41510354359514 187.15753424657535 L 392.1572840567254 187.50000000000003 L 393.89946456985564 189.38356164383563 L 395.64164508298586 189.2123287671233 L 397.38382559611614 189.8972602739726 L 399.1260061092463 187.50000000000003 L 400.8681866223766 181.3356164383562 L 402.6103671355068 180.65068493150685 L 404.352547648637 188.35616438356166 L 406.09472816176725 184.5890410958904 L 407.83690867489753 180.99315068493152 L 409.57908918802775 179.96575342465755 L 411.321269701158 180.99315068493152 L 413.0634502142882 180.4794520547945 L 414.8056307274184 166.78082191780825 L 416.5478112405487 185.61643835616437 L 418.2899917536789 169.00684931506848 L 420.03217226680914 175.00000000000003 L 421.77435277993936 173.2876712328767 L 423.5165332930696 168.8356164383562 L 425.25871380619986 178.93835616438358 L 427.0008943193301 168.15068493150685 L 428.7430748324603 165.58219178082194 L 430.48525534559053 163.86986301369862 L 432.22743585872075 156.84931506849315 L 433.96961637185103 162.84246575342465 L 435.71179688498125 157.36301369863017 L 437.4539773981115 163.527397260274 L 439.1961579112417 153.93835616438358 L 440.938338424372 147.6027397260274 L 442.6805189375022 143.83561643835617 L 444.4226994506324 141.09589041095887 L 446.16487996376264 135.78767123287673 L 447.90706047689287 132.8767123287671 L 449.64924099002315 132.19178082191786 L 451.39142150315337 121.57534246575347 L 453.1336020162836 112.5 L 454.8757825294138 109.93150684931504 L 456.61796304254403 105.99315068493149 L 458.3601435556743 100.68493150684935 L 460.10232406880453 106.50684931506851 L 461.84450458193476 101.19863013698637 L 463.5924923634421 104.28082191780823 L 465.3288656081952 100 L 467.0710461213255 101.19863013698637 L 468.8132266344557 111.30136986301375 L 470.5554071475859 111.13013698630141 L 472.29758766071615 110.78767123287673 L 474.03976817384637 106.33561643835617 L 475.78194868697665 101.19863013698637 L 477.52412920010687 103.42465753424653 L 479.2663097132371 110.27397260273972 L 481.0084902263673 112.5 L 482.75067073949754 108.39041095890411 L 484.4928512526278 115.41095890410963 L 486.23503176575804 114.89726027397262 L 487.97721227888826 119.00684931506851 L 489.7193927920185 125.17123287671234 L 491.4615733051487 123.80136986301375 L 493.203753818279 126.36986301369859 L 494.9517415997863 125.85616438356169 L 496.6881148445394 126.02739726027403 L 498.43029535766965 124.82876712328766 L 500.17247587079993 123.1164383561644 L 501.91465638393015 129.45205479452056 L 503.6568368970604 134.07534246575347 L 505.3990174101906 137.15753424657532 L 507.1411979233208 142.1232876712329 L 508.8833784364511 157.53424657534245 L 510.6255589495813 156.67808219178082 L 512.3677394627116 161.986301369863 L 514.1099199758418 185.95890410958904 L 515.8521004889719 180.30821917808223 L 517.5942810021022 184.5890410958904 L 519.3364615152325 185.61643835616437 L 521.0786420283628 202.3972602739726 L 522.8208225414929 197.0890410958904 L 524.5630030546231 202.05479452054797 L 526.3051835677534 209.76027397260273 L 528.0473640808837 217.80821917808223 L 529.7895445940139 223.45890410958904 L 531.5317251071441 223.2876712328767 L 533.2739056202743 238.18493150684932 L 535.0160861334045 235.95890410958904 L 536.7582666465348 238.35616438356166 L 538.5004471596651 233.39041095890414 L 540.2426276727953 237.15753424657535 L 541.9848081859254 234.5890410958904 L 543.7269886990557 235.27397260273975 L 545.469169212186 232.36301369863017 L 547.2113497253163 226.36986301369862 L 548.9535302384464 232.36301369863017 L 550.6957107515766 241.95205479452054 L 552.4378912647069 245.7191780821918 L 554.1800717778372 247.6027397260274 L 555.9222522909674 251.027397260274 L 557.6644328040976 255.1369863013699 L 559.4066133172278 260.44520547945206 L 561.148793830358 257.19178082191786 L 562.8909743434883 259.58904109589037 L 564.6331548566186 266.95205479452056 L 566.3753353697488 274.486301369863 L 568.117515882879 273.80136986301375 L 569.8596963960092 269.8630136986302 L 571.6018769091395 272.2602739726027 L 573.3440574222698 273.6301369863014 L 575.0862379353999 271.7465753424658 L 576.8284184485302 273.80136986301375 L 578.5705989616604 276.54109589041093 L 580.3127794747907 277.3972602739726 L 582.0549599879209 273.28767123287673 L 583.7971405010511 271.7465753424658 L 585.5393210141814 276.02739726027403 L 587.2815015273115 278.93835616438355 L 589.0236820404418 282.0205479452055 L 590.7658625535721 276.54109589041093 L 592.5080430667023 272.6027397260274 L 594.2502235798326 273.28767123287673 L 595.9924040929627 276.19863013698625 L 597.734584606093 276.54109589041093 L 599.4767651192233 272.43150684931504 L 601.2189456323534 271.2328767123288 L 602.9611261454837 282.19178082191786 L 604.7033066586139 277.91095890410963 L 606.4454871717442 281.5068493150685 L 608.1876676848744 288.8698630136986 L 609.9298481980046 301.71232876712327 L 611.6720287111349 308.56164383561645 L 613.414209224265 310.6164383561644 L 615.1563897373953 311.81506849315065 L 616.8985702505256 311.81506849315065 L 618.6407507636558 308.9041095890411 L 620.382931276786 309.7602739726027 L 622.1251117899162 313.8698630136986 L 623.8672923030465 318.66438356164383 L 625.6094728161768 319.5205479452055 L 627.3516533293069 323.9726027397261 L 629.0938338424372 326.54109589041093 L 630.8360143555674 333.2191780821918 L 632.5781948686977 333.04794520547944 L 634.320375381828 335.1027397260274 L 636.0625558949582 335.95890410958907 L 637.8047364080884 336.6438356164383 L 639.5469169212186 352.2260273972603 L 641.2890974343488 353.42465753424653 L 643.0312779474791 352.7397260273973 L 644.7734584606094 359.4178082191781 L 646.5156389737396 361.81506849315065 L 648.2578194868697 363.527397260274 L 650 372.43150684931504 L 650 400 Z" /><text  class="poloto_labels poloto_text poloto_title" alignment-baseline="start" text-anchor="middle" font-size="x-large" x="400" y="37.5" >Total players on 2021-08-08</text><text  class="poloto_labels poloto_text poloto_xname" alignment-baseline="start" text-anchor="middle" font-size="x-large" x="400" y="481.25" >Time</text><text  class="poloto_labels poloto_text poloto_yname" alignment-baseline="start" text-anchor="middle" font-size="x-large" transform="rotate(-90,37.5,250)" x="37.5" y="250" >Count</text><line  class="poloto_axis_lines" stroke="black" x1="208.0436474291223" x2="208.0436474291223" y1="400" y2="405" /><text  class="poloto_tick_labels poloto_text" alignment-baseline="start" text-anchor="middle" x="208.0436474291223" y="430" > 03:00</text><line  class="poloto_axis_lines" stroke="black" x1="266.1163312001301" x2="266.1163312001301" y1="400" y2="405" /><text  class="poloto_tick_labels poloto_text" alignment-baseline="start" text-anchor="middle" x="266.1163312001301" y="430" > 06:00</text><line  class="poloto_axis_lines" stroke="black" x1="324.1890149711379" x2="324.1890149711379" y1="400" y2="405" /><text  class="poloto_tick_labels poloto_text" alignment-baseline="start" text-anchor="middle" x="324.1890149711379" y="430" > 08:00</text><line  class="poloto_axis_lines" stroke="black" x1="382.26169874214565" x2="382.26169874214565" y1="400" y2="405" /><text  class="poloto_tick_labels poloto_text" alignment-baseline="start" text-anchor="middle" x="382.26169874214565" y="430" > 11:00</text><line  class="poloto_axis_lines" stroke="black" x1="440.33438251315346" x2="440.33438251315346" y1="400" y2="405" /><text  class="poloto_tick_labels poloto_text" alignment-baseline="start" text-anchor="middle" x="440.33438251315346" y="430" > 14:00</text><line  class="poloto_axis_lines" stroke="black" x1="498.40706628416126" x2="498.40706628416126" y1="400" y2="405" /><text  class="poloto_tick_labels poloto_text" alignment-baseline="start" text-anchor="middle" x="498.40706628416126" y="430" > 17:00</text><line  class="poloto_axis_lines" stroke="black" x1="556.479750055169" x2="556.479750055169" y1="400" y2="405" /><text  class="poloto_tick_labels poloto_text" alignment-baseline="start" text-anchor="middle" x="556.479750055169" y="430" > 19:00</text><line  class="poloto_axis_lines" stroke="black" x1="614.5524338261769" x2="614.5524338261769" y1="400" y2="405" /><text  class="poloto_tick_labels poloto_text" alignment-baseline="start" text-anchor="middle" x="614.5524338261769" y="430" > 22:00</text><line  class="poloto_axis_lines" stroke="black" x1="150" x2="144" y1="347.6027397260274" y2="347.6027397260274" /><text  class="poloto_tick_labels poloto_text" alignment-baseline="middle" text-anchor="end" x="135" y="347.6027397260274" > 1500</text><line  class="poloto_axis_lines" stroke="black" x1="150" x2="144" y1="261.986301369863" y2="261.986301369863" /><text  class="poloto_tick_labels poloto_text" alignment-baseline="middle" text-anchor="end" x="135" y="261.986301369863" > 2000</text><line  class="poloto_axis_lines" stroke="black" x1="150" x2="144" y1="176.3698630136986" y2="176.3698630136986" /><text  class="poloto_tick_labels poloto_text" alignment-baseline="middle" text-anchor="end" x="135" y="176.3698630136986" > 2500</text><path  stroke="black" fill="none" class="poloto_axis_lines" style="stroke-dasharray:14.518170942751949;stroke-dashoffset:-58.043647429122295;" d=" M 150 400 L 650 400" /><path  stroke="black" fill="none" class="poloto_axis_lines" style="stroke-dasharray:8.561643835616438;stroke-dashoffset:-52.39726027397259;" d=" M 150 400 L 150 100" /></svg>