<svg class="poloto" width="800" height="500" viewBox="0 0 800 500" xmlns="http://www.w3.org/2000/svg"><style>.poloto { stroke-linecap:round; stroke-linejoin:round; font-family: 'Tahoma', sans-serif; background-color: AliceBlue;} .poloto_scatter{stroke-width:7} .poloto_line{stroke-width:2} .poloto_text{fill: black;} .poloto_axis_lines{stroke: black;stroke-width:3;fill:none;stroke-dasharray:none} .poloto0stroke{stroke:  blue;} .poloto1stroke{stroke:  red;} .poloto2stroke{stroke:  green;} .poloto3stroke{stroke:  gold;} .poloto4stroke{stroke:  aqua;} .poloto5stroke{stroke:  lime;} .poloto6stroke{stroke:  orange;} .poloto7stroke{stroke:  chocolate;} .poloto0fill{fill:blue;} .poloto1fill{fill:red;} .poloto2fill{fill:green;} .poloto3fill{fill:gold;} .poloto4fill{fill:aqua;} .poloto5fill{fill:lime;} .poloto6fill{fill:orange;} .poloto7fill{fill:chocolate;}</style><text  class="poloto_text poloto_legend_text" alignment-baseline="middle" text-anchor="start" font-size="large" x="675" y="100" ></text><path  class="poloto_linefill poloto0fill" d=" M 150 400 L 150 362.15484569572277 L 151.74216027874564 367.8397401191121 L 153.4843205574913 378.5598267460747 L 155.22648083623693 385.7065511640498 L 156.96864111498257 388.4677855982675 L 158.71080139372822 386.0314022739578 L 160.45296167247386 387.0059556036816 L 162.1951219512195 381.8083378451543 L 163.93728222996515 382.6204656199242 L 165.6794425087108 384.569572279372 L 167.42160278745644 384.89442338927995 L 169.16376306620208 385.54412560909583 L 170.90592334494772 385.05684894423393 L 172.64808362369337 384.407146724418 L 174.390243902439 386.84353004872764 L 176.13240418118465 387.65565782349756 L 177.8745644599303 388.4677855982675 L 179.61672473867597 391.55387114239306 L 181.3588850174216 390.09204114780727 L 183.10104529616726 387.3308067135896 L 184.8432055749129 388.1429344883595 L 186.58536585365854 386.68110449377366 L 188.3275261324042 386.5186789388197 L 190.06968641114983 382.78289117487816 L 191.81184668989548 381.64591229020033 L 193.55400696864112 385.54412560909583 L 195.29616724738676 376.610720086627 L 197.0383275261324 380.02165674066055 L 198.78048780487805 375.3113156469951 L 200.5226480836237 370.6009745533297 L 202.26480836236934 368.651867893882 L 204.00696864111498 370.11369788846775 L 205.74912891986062 374.0119112073633 L 207.49128919860627 367.0276123443422 L 209.2334494773519 360.2057390362751 L 210.97560975609755 358.9063345966432 L 212.7177700348432 352.57173795343806 L 214.45993031358887 352.89658906334597 L 216.2020905923345 355.0081212777477 L 217.94425087108016 353.70871683811583 L 219.6864111498258 348.1862479696806 L 221.42857142857144 349.64807796426635 L 223.1707317073171 349.16080129940445 L 224.91289198606273 344.2880346507851 L 226.65505226480838 342.5013535462913 L 228.39721254355402 341.3643746616134 L 230.13937282229966 338.6031402273958 L 231.8815331010453 338.2782891174878 L 233.62369337979095 337.95343800757985 L 235.3658536585366 333.2430969139144 L 237.10801393728224 327.5582024905252 L 238.85017421602788 334.5425013535463 L 240.59233449477352 334.05522468868435 L 242.33449477351917 334.05522468868435 L 244.0766550522648 335.6794802382242 L 245.81881533101046 332.59339469409855 L 247.5609756097561 336.65403356794803 L 249.30313588850174 339.74011911207367 L 251.0452961672474 340.2273957769356 L 252.78745644599303 334.86735246345427 L 254.52961672473867 339.90254466702766 L 256.2717770034843 341.68922577152136 L 258.01393728222996 336.32918245804007 L 259.7560975609756 336.00433134813215 L 261.49825783972125 330.31943692474283 L 263.2404181184669 324.30969139144565 L 264.98257839721254 315.2138603140228 L 266.7247386759582 312.777476989713 L 268.4668989547038 309.0416892257715 L 270.20905923344947 304.49377368706007 L 271.9512195121951 296.04764482945313 L 273.69337979094075 290.8500270709259 L 275.4355400696864 285.32755820249054 L 277.17770034843204 281.26691932864105 L 278.91986062717774 278.50568489442344 L 280.6620209059233 273.30806713589607 L 282.404181184669 264.3746616134272 L 284.1463414634146 263.2376827287493 L 285.8885017421603 264.0498105035192 L 287.6306620209059 260.4764482945317 L 289.3728222996516 257.06551164049813 L 291.1149825783972 258.04006497022203 L 292.8571428571429 260.3140227395777 L 294.5993031358885 257.06551164049813 L 296.3414634146342 256.2533838657282 L 298.08362369337976 259.1770438548998 L 299.82578397212546 252.35517054683274 L 301.56794425087105 257.5527883053601 L 303.31010452961675 258.36491608013 L 305.05226480836234 259.5018949648078 L 306.79442508710804 260.63887384948566 L 308.5365853658536 260.1515971846237 L 310.2787456445993 263.0752571737953 L 312.0209059233449 260.80129940443965 L 313.7630662020906 263.56253383865726 L 315.5052264808362 262.2631293990255 L 317.2473867595819 262.9128316188413 L 318.9895470383275 258.85219274499184 L 320.7317073170732 259.0146182999458 L 322.4738675958188 249.43151055766108 L 324.2160278745645 244.55874390904168 L 325.9581881533101 244.0714672441798 L 327.70034843205576 248.13210611802927 L 329.4425087108014 249.2690850027071 L 331.18466898954705 245.53329723876558 L 332.9268292682927 248.78180833784515 L 334.66898954703834 241.95993502977805 L 336.411149825784 235.95018949648082 L 338.1533101045296 227.1792095289659 L 339.89547038327527 227.50406063887388 L 341.6376306620209 225.06767731456418 L 343.37979094076655 231.0774228478614 L 345.1219512195122 227.82891174878185 L 346.86411149825784 223.4434217650244 L 348.6062717770035 223.60584731997838 L 350.34843205574913 222.79371954520846 L 352.0905923344948 221.49431510557665 L 353.8327526132404 217.75852734163507 L 355.57491289198606 217.59610178668115 L 357.3170731707317 214.99729290741746 L 359.05923344947735 220.68218733080673 L 360.801393728223 220.19491066594478 L 362.54355400696863 216.62154845695724 L 364.2857142857143 214.02273957769356 L 366.0278745644599 213.37303735787768 L 367.77003484320556 213.5354629128316 L 369.5121951219512 212.2360584731998 L 371.25435540069685 209.1499729290742 L 372.9965156794425 209.7996751488901 L 374.73867595818814 202.65295073091502 L 376.4808362369338 201.35354629128315 L 378.2229965156795 195.83107742284787 L 379.96515679442507 200.5414185165133 L 381.70731707317077 194.85652409312402 L 383.44947735191636 193.88197076340012 L 385.19163763066206 192.90741743367627 L 386.93379790940764 192.90741743367627 L 388.67595818815334 184.78613968597725 L 390.41811846689893 178.61396859772603 L 392.16027874564463 175.0406063887385 L 393.9024390243902 174.8781808337845 L 395.6445993031359 173.74120194910668 L 397.3867595818815 171.30481862479698 L 399.1289198606272 166.59447753113156 L 400.8710801393728 166.2696264212236 L 402.6132404181185 166.75690308608554 L 404.3554006968641 157.66107200866273 L 406.0975609756098 160.42230644288034 L 407.8397212543554 157.17379534380078 L 409.58188153310107 159.93502977801845 L 411.3240418118467 154.25013535462912 L 413.06620209059236 157.9859231185707 L 414.808362369338 155.549539794261 L 416.55052264808364 149.86464537087167 L 418.2926829268293 152.30102869518137 L 420.03484320557493 145.8040064970222 L 421.7770034843206 143.0427720628046 L 423.5191637630662 144.99187872225232 L 425.26132404181186 143.20519761775859 L 427.0034843205575 135.57119653492146 L 428.74564459930315 134.59664320519767 L 430.4878048780488 129.2365998917163 L 432.22996515679444 127.61234434217647 L 433.9721254355401 125.5008121277748 L 435.7142857142857 123.55170546832699 L 437.45644599303137 128.2620465619924 L 439.198606271777 126.96264212236065 L 440.94076655052265 127.61234434217647 L 442.6829268292683 132.80996210070384 L 444.42508710801394 136.0584731997834 L 446.1672473867596 130.04872766648623 L 447.9094076655052 122.25230102869523 L 449.65156794425087 117.21710882512184 L 451.3937282229965 114.45587439090423 L 453.13588850174216 108.44612885760694 L 454.8780487804878 100 L 456.62020905923345 102.43638332430976 L 458.3623693379791 102.43638332430976 L 460.10452961672473 116.40498105035192 L 461.8466898954704 117.37953438007582 L 463.588850174216 127.12506767731463 L 465.33101045296166 120.30319436924742 L 467.0731707317073 114.7807255008122 L 468.81533101045295 121.92744991878726 L 470.5574912891986 131.67298321602595 L 472.29965156794424 131.02328099621013 L 474.0418118466899 144.50460205739037 L 475.7839721254355 144.66702761234436 L 477.52613240418117 135.40877097996758 L 479.2682926829268 136.2208987547374 L 481.01045296167246 132.97238765565783 L 482.7526132404181 141.25609095831078 L 484.49477351916374 142.71792095289663 L 486.2369337979094 139.63183540877094 L 487.97909407665503 146.7785598267461 L 489.7212543554007 160.9095831077423 L 491.4634146341463 172.76664861938278 L 493.20557491289196 168.2187330806714 L 494.9477351916376 175.52788305360045 L 496.68989547038325 180.07579859231188 L 498.4320557491289 184.13643746616137 L 500.17421602787454 193.39469409853817 L 501.91637630662024 200.3789929615593 L 503.6585365853659 203.95235517054684 L 505.4006968641115 208.50027070925827 L 507.14285714285717 214.18516513264754 L 508.8850174216028 219.8700595560368 L 510.62717770034845 222.14401732539253 L 512.3693379790941 227.1792095289659 L 514.1114982578397 230.42772062804548 L 515.8536585365854 233.6762317271251 L 517.5958188153311 240.4981050351922 L 519.3379790940767 251.38061721710883 L 521.0801393728223 250.406063887385 L 522.822299651568 252.68002165674065 L 524.5644599303137 258.527341635084 L 526.3066202090592 255.27883053600434 L 528.0487804878048 258.202490525176 L 529.7909407665505 259.66432051976176 L 531.5331010452962 267.7855982674607 L 533.2752613240418 266.323768272875 L 535.0174216027874 268.9225771521386 L 536.7595818815331 261.61342717920957 L 538.5017421602788 259.3394694098538 L 540.2439024390244 261.4510016242556 L 541.98606271777 256.2533838657282 L 543.7282229965157 257.5527883053601 L 545.4703832752614 258.68976719003786 L 547.212543554007 263.0752571737953 L 548.9547038327526 265.1867893881971 L 550.6968641114983 274.60747157552794 L 552.439024390244 268.43530048727666 L 554.1811846689895 268.9225771521386 L 555.9233449477351 261.1261505143476 L 557.6655052264808 266.48619382782897 L 559.4076655052265 267.9480238224147 L 561.1498257839721 274.120194910666 L 562.8919860627177 275.0947482403899 L 564.6341463414634 275.7444504602057 L 566.3763066202091 285.9772604223065 L 568.1184668989547 281.591770438549 L 569.8606271777003 267.62317271250674 L 571.602787456446 271.8462371413102 L 573.3449477351917 282.07904710341097 L 575.0871080139373 284.19057931781265 L 576.8292682926829 287.4390904168922 L 578.5714285714286 286.7893881970764 L 580.3135888501743 286.30211153221444 L 582.0557491289198 287.92636708175417 L 583.7979094076654 287.7639415268002 L 585.5400696864111 290.3627504060639 L 587.2822299651568 289.38819707634 L 589.0243902439024 287.11423930698436 L 590.766550522648 286.13968597726046 L 592.5087108013937 287.92636708175417 L 594.2508710801394 294.91066594477536 L 595.993031358885 302.2198159177044 L 597.7351916376306 310.1786681104494 L 599.4773519163763 316.35083919870056 L 601.219512195122 324.14726583649167 L 602.9616724738676 328.2079047103411 L 604.7038327526133 327.7206280454792 L 606.445993031359 327.8830536004332 L 608.1881533101046 332.9182458040065 L 609.9303135888501 332.75582024905253 L 611.6724738675958 341.85165132647535 L 613.4146341463415 345.42501353546294 L 615.1567944250871 352.57173795343806 L 616.8989547038327 361.6675690308609 L 618.6411149825784 361.5051434759069 L 620.3832752613241 363.6166756903086 L 622.1254355400697 367.8397401191121 L 623.8675958188153 369.78884677855984 L 625.609756097561 370.9258256632377 L 627.3519163763067 374.8240389821332 L 629.0940766550523 376.28586897671903 L 630.8362369337979 377.58527341635084 L 632.5783972125436 381.3210611802924 L 634.3205574912893 383.75744450460206 L 636.0627177700349 378.0725500812128 L 637.8048780487804 386.35625338386575 L 639.5470383275261 385.05684894423393 L 641.2891986062718 388.63021115322147 L 643.0313588850174 390.09204114780727 L 644.773519163763 395.2896589063346 L 646.5156794425087 397.2387655657824 L 648.2578397212544 400 L 650 398.7005955603682 L 650 400 Z" /><text  class="poloto_labels poloto_text poloto_title" alignment-baseline="start" text-anchor="middle" font-size="x-large" x="400" y="37.5" >Total players on 2021-12-12</text><text  class="poloto_labels poloto_text poloto_xname" alignment-baseline="start" text-anchor="middle" font-size="x-large" x="400" y="481.25" >Time</text><text  class="poloto_labels poloto_text poloto_yname" alignment-baseline="start" text-anchor="middle" font-size="x-large" transform="rotate(-90,37.5,250)" x="37.5" y="250" >Count</text><line  class="poloto_axis_lines" stroke="black" x1="150" x2="150" y1="400" y2="405" /><text  class="poloto_tick_labels poloto_text" alignment-baseline="start" text-anchor="middle" x="150" y="430" > 00:00</text><line  class="poloto_axis_lines" stroke="black" x1="266.14401858304296" x2="266.14401858304296" y1="400" y2="405" /><text  class="poloto_tick_labels poloto_text" alignment-baseline="start" text-anchor="middle" x="266.14401858304296" y="430" > 06:00</text><line  class="poloto_axis_lines" stroke="black" x1="382.2880371660859" x2="382.2880371660859" y1="400" y2="405" /><text  class="poloto_tick_labels poloto_text" alignment-baseline="start" text-anchor="middle" x="382.2880371660859" y="430" > 11:00</text><line  class="poloto_axis_lines" stroke="black" x1="498.4320557491289" x2="498.4320557491289" y1="400" y2="405" /><text  class="poloto_tick_labels poloto_text" alignment-baseline="start" text-anchor="middle" x="498.4320557491289" y="430" > 17:00</text><line  class="poloto_axis_lines" stroke="black" x1="614.5760743321719" x2="614.5760743321719" y1="400" y2="405" /><text  class="poloto_tick_labels poloto_text" alignment-baseline="start" text-anchor="middle" x="614.5760743321719" y="430" > 22:00</text><line  class="poloto_axis_lines" stroke="black" x1="150" x2="144" y1="338.4407146724418" y2="338.4407146724418" /><text  class="poloto_tick_labels poloto_text" alignment-baseline="middle" text-anchor="end" x="135" y="338.4407146724418" > 1500</text><line  class="poloto_axis_lines" stroke="black" x1="150" x2="144" y1="257.2279371954521" y2="257.2279371954521" /><text  class="poloto_tick_labels poloto_text" alignment-baseline="middle" text-anchor="end" x="135" y="257.2279371954521" > 2000</text><line  class="poloto_axis_lines" stroke="black" x1="150" x2="144" y1="176.01515971846243" y2="176.01515971846243" /><text  class="poloto_tick_labels poloto_text" alignment-baseline="middle" text-anchor="end" x="135" y="176.01515971846243" > 2500</text><path  stroke="black" fill="none" class="poloto_axis_lines" style="stroke-dasharray:14.518002322880372;stroke-dashoffset:-0;" d=" M 150 400 L 650 400" /><path  stroke="black" fill="none" class="poloto_axis_lines" style="stroke-dasharray:8.121277747698972;stroke-dashoffset:-61.5592853275582;" d=" M 150 400 L 150 100" /></svg>