<svg class="poloto" width="800" height="500" viewBox="0 0 800 500" xmlns="http://www.w3.org/2000/svg"><style>.poloto { stroke-linecap:round; stroke-linejoin:round; font-family: 'Tahoma', sans-serif; background-color: AliceBlue;} .poloto_scatter{stroke-width:7} .poloto_line{stroke-width:2} .poloto_text{fill: black;} .poloto_axis_lines{stroke: black;stroke-width:3;fill:none;stroke-dasharray:none} .poloto0stroke{stroke:  blue;} .poloto1stroke{stroke:  red;} .poloto2stroke{stroke:  green;} .poloto3stroke{stroke:  gold;} .poloto4stroke{stroke:  aqua;} .poloto5stroke{stroke:  lime;} .poloto6stroke{stroke:  orange;} .poloto7stroke{stroke:  chocolate;} .poloto0fill{fill:blue;} .poloto1fill{fill:red;} .poloto2fill{fill:green;} .poloto3fill{fill:gold;} .poloto4fill{fill:aqua;} .poloto5fill{fill:lime;} .poloto6fill{fill:orange;} .poloto7fill{fill:chocolate;}</style><text  class="poloto_text poloto_legend_text" alignment-baseline="middle" text-anchor="start" font-size="large" x="675" y="100" ></text><path  class="poloto_linefill poloto0fill" d=" M 150 400 L 150 335.16192994051556 L 151.74216027874564 339.52412425644417 L 153.4843205574913 352.61070720423004 L 155.22648083623693 350.03304692663585 L 156.96864111498257 351.02445472571054 L 158.71080139372822 353.00727032385987 L 160.45296167247386 355.18836748182423 L 162.1951219512195 365.10244547257105 L 163.93728222996515 363.1196298744217 L 165.6794425087108 366.49041639127563 L 167.42160278745644 375.21480502313284 L 169.16376306620208 378.5855915399868 L 170.90592334494772 381.55981493721083 L 172.64808362369337 384.33575677462 L 174.390243902439 390.0859220092532 L 176.13240418118465 393.4567085261071 L 177.8745644599303 397.8189028420357 L 179.61672473867597 400 L 181.3588850174216 399.8017184401851 L 183.10104529616726 399.8017184401851 L 184.8432055749129 394.6463978849967 L 186.58536585365854 399.4051553205552 L 188.3275261324042 396.0343688037012 L 190.06968641114983 395.2412425644415 L 191.81184668989548 393.654990085922 L 193.55400696864112 386.7151354923992 L 195.29616724738676 390.0859220092532 L 197.0383275261324 391.8704560475876 L 198.78048780487805 394.4481163251818 L 200.5226480836237 393.0601454064772 L 202.26480836236934 395.4395241242564 L 204.00696864111498 393.654990085922 L 205.74912891986062 385.1288830138797 L 207.49128919860627 392.2670191672174 L 209.2334494773519 391.6721744877726 L 210.97560975609755 391.2756113681428 L 212.7177700348432 394.2498347653668 L 214.45993031358887 391.4738929279577 L 216.2020905923345 391.0773298083278 L 217.94425087108016 384.9306014540648 L 219.6864111498258 382.3529411764706 L 221.42857142857144 383.7409120951752 L 223.1707317073171 384.33575677462 L 224.91289198606273 377.1976206212822 L 226.65505226480838 377.79246530072703 L 228.39721254355402 374.818241903503 L 230.13937282229966 378.38730998017184 L 231.8815331010453 375.61136814276273 L 233.62369337979095 376.20621282220753 L 235.3658536585366 367.4818241903503 L 237.10801393728224 364.11103767349636 L 238.85017421602788 352.21414408460015 L 240.59233449477352 360.14540647719764 L 242.33449477351917 360.34368803701256 L 244.0766550522648 365.300727032386 L 245.81881533101046 355.78321216126903 L 247.5609756097561 357.76602775941836 L 249.30313588850174 358.3608724388632 L 251.0452961672474 359.55056179775283 L 252.78745644599303 355.98149372108395 L 254.52961672473867 356.97290152015864 L 256.2717770034843 362.32650363516194 L 258.01393728222996 356.37805684071384 L 259.7560975609756 360.74025115664244 L 261.49825783972125 361.92994051553205 L 263.2404181184669 352.80898876404495 L 264.9883855981417 351.81758096497026 L 266.7247386759582 353.20555188367484 L 268.4668989547038 352.61070720423004 L 270.20905923344947 363.51619299405155 L 271.9512195121951 355.78321216126903 L 273.69337979094075 353.99867812293456 L 275.4355400696864 352.80898876404495 L 277.17770034843204 354.59352280237937 L 278.9198606271777 355.98149372108395 L 280.6620209059233 356.7746199603437 L 282.40418118466897 355.18836748182423 L 284.1463414634146 346.46397884996696 L 285.88850174216026 347.25710508922674 L 287.6306620209059 351.61929940515535 L 289.37282229965155 352.80898876404495 L 291.1149825783972 354.19695968274954 L 292.85714285714283 355.58493060145406 L 294.5993031358885 348.05023132848646 L 296.3414634146342 341.70522141440847 L 298.08362369337976 341.11037673496367 L 299.82578397212546 338.7309980171844 L 301.56794425087105 336.3516192994052 L 303.31010452961675 331.39458030403176 L 305.05226480836234 336.15333773959026 L 306.79442508710804 330.40317250495707 L 308.5365853658536 327.0323859881031 L 310.2787456445993 324.8512888301388 L 312.0209059233449 327.428949107733 L 313.7630662020906 320.6873760740251 L 315.5052264808362 313.3509583608725 L 317.2473867595819 308.1956378056841 L 318.9895470383275 306.2128222075347 L 320.7317073170732 307.9973562458691 L 322.4738675958188 305.8162590879048 L 324.2160278745645 307.2042300066094 L 325.95818815331006 301.2557832121613 L 327.70034843205576 297.6867151354924 L 329.44250871080135 303.8334434897555 L 331.18466898954705 306.6093853271646 L 332.92682926829264 305.0231328486451 L 334.66898954703834 304.6265697290152 L 336.4111498257839 304.0317250495704 L 338.1533101045296 306.0145406477198 L 339.8954703832752 302.8420356906808 L 341.6376306620209 301.65234633179114 L 343.3797909407665 301.2557832121613 L 345.1219512195122 293.72108393919365 L 346.86411149825784 299.074686054197 L 348.6062717770035 286.18638466622605 L 350.34843205574913 288.76404494382024 L 352.0905923344948 275.87574355584934 L 353.8327526132404 264.77197620621286 L 355.57491289198606 276.07402511566426 L 357.3170731707317 268.53932584269666 L 359.05923344947735 264.5736946463979 L 360.801393728223 259.8149372108394 L 362.54355400696863 256.4441506939855 L 364.2857142857143 257.83212161269006 L 366.0278745644599 251.8836748182419 L 367.77003484320556 251.8836748182419 L 369.5121951219512 266.35822868473235 L 371.25435540069685 264.5736946463979 L 372.9965156794425 246.13350958360877 L 374.73867595818814 242.5644415069399 L 376.4808362369338 240.5816259087905 L 378.2229965156794 224.12425644415072 L 379.96515679442507 227.89160608063452 L 381.7073170731707 238.0039656311963 L 383.44947735191636 240.38334434897558 L 385.191637630662 237.4091209517515 L 386.93379790940764 237.60740251156642 L 388.6759581881533 221.15003304692664 L 390.41811846689893 234.8314606741573 L 392.1602787456446 215.79643093192334 L 393.9024390243902 225.90879048248513 L 395.6445993031359 210.641110376735 L 397.3867595818815 213.41705221414412 L 399.1289198606272 214.80502313284865 L 400.8710801393728 214.01189689358893 L 402.6132404181185 216.58955717118312 L 404.3554006968641 223.72769332452083 L 406.0975609756097 221.15003304692664 L 407.83972125435537 214.21017845340384 L 409.581881533101 202.90812954395244 L 411.32404181184666 198.54593522802384 L 413.0662020905923 192.00264375413087 L 414.80836236933794 194.18374091209517 L 416.5505226480836 197.35624586913417 L 418.29268292682923 199.53734302709853 L 420.0348432055749 193.39061467283545 L 421.7770034843206 186.84732319894255 L 423.5191637630662 178.71777924653009 L 425.26132404181186 173.9590218109716 L 427.0034843205575 179.70918704560478 L 428.74564459930315 171.7779246530073 L 430.4878048780488 168.6054196959683 L 432.22996515679444 162.0621282220754 L 433.9721254355401 166.0277594183741 L 435.7142857142857 168.2088565763384 L 437.45644599303137 151.5532055518837 L 439.198606271777 149.9669530733642 L 440.94076655052265 152.1480502313285 L 442.6829268292683 178.91606080634506 L 444.42508710801394 154.7257105089227 L 446.1672473867596 152.5446133509584 L 447.9094076655052 165.4329147389293 L 449.65156794425087 143.62194315928622 L 451.3937282229965 147.38929279577002 L 453.13588850174216 149.57038995373432 L 454.8780487804878 143.4236615994713 L 456.62020905923345 148.3807005948447 L 458.3623693379791 149.17382683410443 L 460.10452961672473 150.9583608724389 L 461.8466898954704 138.6649041639128 L 463.588850174216 138.46662260409784 L 465.33101045296166 140.44943820224722 L 467.0731707317073 135.88896232650364 L 468.81533101045295 125.97488433575683 L 470.5574912891986 120.81956378056844 L 472.29965156794424 113.48314606741576 L 474.0418118466899 110.7072042300066 L 475.7839721254355 125.38003965631196 L 477.52613240418117 118.24190350297425 L 479.2682926829268 100 L 481.01045296167246 108.72438863185732 L 482.7526132404181 110.11235955056179 L 484.49477351916374 119.82815598149375 L 486.2369337979094 110.11235955056179 L 487.97909407665503 107.73298083278257 L 489.7212543554007 102.97422339722414 L 491.4634146341463 114.67283542630537 L 493.20557491289196 117.05221414408464 L 494.9477351916376 118.63846662260414 L 496.68989547038325 125.38003965631196 L 498.4320557491289 130.53536021150035 L 500.17421602787454 126.37144745538666 L 501.9163763066202 123.79378717779247 L 503.6585365853658 123.99206873760744 L 505.40069686411147 130.33707865168543 L 507.1428571428571 142.63053536021152 L 508.88501742160275 135.4923992068738 L 510.6271777003484 141.63912756113683 L 512.3693379790941 160.27759418374092 L 514.1114982578397 160.87243886318578 L 515.8536585365853 157.5016523463318 L 517.595818815331 151.3549239920688 L 519.3379790940767 159.28618638466628 L 521.0801393728223 163.64838070059488 L 522.822299651568 168.0105750165235 L 524.5644599303137 165.4329147389293 L 526.3066202090592 175.5452742894911 L 528.0487804878048 160.87243886318578 L 529.7909407665505 178.71777924653009 L 531.5331010452962 175.94183740912098 L 533.2752613240418 185.65763384005288 L 535.0174216027874 181.29543952412428 L 536.7595818815331 182.28684732319897 L 538.5017421602788 181.4937210839392 L 540.2439024390244 184.07138136153338 L 541.98606271777 186.84732319894255 L 543.7282229965157 194.77858559154004 L 545.4703832752614 204.49438202247194 L 547.212543554007 204.29610046265702 L 548.9547038327526 214.60674157303373 L 550.6968641114983 226.1070720423001 L 552.439024390244 236.4177131526768 L 554.1811846689895 236.02115003304692 L 555.9233449477351 236.02115003304692 L 557.6655052264808 234.0383344348976 L 559.4076655052265 232.84864507600793 L 561.1498257839721 238.0039656311963 L 562.8919860627177 239.5902181097158 L 564.6341463414634 246.9266358228685 L 566.3763066202091 234.43489755452742 L 568.1184668989547 240.5816259087905 L 569.8606271777003 238.20224719101128 L 571.602787456446 240.1850627891606 L 573.3449477351917 247.71976206212827 L 575.0871080139373 236.8142762723067 L 576.8292682926829 241.1764705882353 L 578.5714285714286 252.8750826173166 L 580.3135888501743 241.96959682749508 L 582.0557491289198 245.14210178453408 L 583.7979094076654 249.30601454064777 L 585.5400696864111 249.30601454064777 L 587.2822299651568 251.09054857898218 L 589.0243902439024 250.6939854593523 L 590.766550522648 246.3317911434237 L 592.5087108013937 251.8836748182419 L 594.2508710801394 255.0561797752809 L 595.993031358885 261.20290812954397 L 597.7351916376306 260.40978189028425 L 599.4773519163763 259.02181097157967 L 601.219512195122 265.36682088565766 L 602.9616724738676 264.5736946463979 L 604.7038327526132 266.75479180436224 L 606.4459930313589 274.09120951751487 L 608.1881533101046 274.48777263714476 L 609.9303135888501 270.32385988103107 L 611.6724738675957 272.10839391936554 L 613.4146341463414 273.49636483807006 L 615.1567944250871 274.48777263714476 L 616.8989547038327 275.08261731658956 L 618.6411149825783 286.9795109054858 L 620.383275261324 291.53998678122935 L 622.1254355400697 322.4719101123596 L 623.8675958188153 297.4884335756775 L 625.609756097561 299.47124917382683 L 627.3519163763067 300.8592200925314 L 629.0940766550523 301.4540647719762 L 630.8362369337979 302.4454725710509 L 632.5783972125436 307.7990746860542 L 634.3205574912893 314.937210839392 L 636.0627177700349 318.9028420356907 L 637.8048780487804 324.256444150694 L 639.5470383275261 328.0237937871778 L 641.2891986062718 329.6100462656973 L 643.0313588850174 333.3773959021811 L 644.773519163763 337.1447455386649 L 646.5156794425087 333.773959021811 L 648.2578397212544 340.7138136153338 L 650 349.8347653668209 L 650 400 Z" /><text  class="poloto_labels poloto_text poloto_title" alignment-baseline="start" text-anchor="middle" font-size="x-large" x="400" y="37.5" >Total players on 2021-07-14</text><text  class="poloto_labels poloto_text poloto_xname" alignment-baseline="start" text-anchor="middle" font-size="x-large" x="400" y="481.25" >Time</text><text  class="poloto_labels poloto_text poloto_yname" alignment-baseline="start" text-anchor="middle" font-size="x-large" transform="rotate(-90,37.5,250)" x="37.5" y="250" >Count</text><line  class="poloto_axis_lines" stroke="black" x1="208.0487804878049" x2="208.0487804878049" y1="400" y2="405" /><text  class="poloto_tick_labels poloto_text" alignment-baseline="start" text-anchor="middle" x="208.0487804878049" y="430" > 02:46:40</text><line  class="poloto_axis_lines" stroke="black" x1="266.1207897793264" x2="266.1207897793264" y1="400" y2="405" /><text  class="poloto_tick_labels poloto_text" alignment-baseline="start" text-anchor="middle" x="266.1207897793264" y="430" > 05:33:20</text><line  class="poloto_axis_lines" stroke="black" x1="324.19279907084785" x2="324.19279907084785" y1="400" y2="405" /><text  class="poloto_tick_labels poloto_text" alignment-baseline="start" text-anchor="middle" x="324.19279907084785" y="430" > 08:20:00</text><line  class="poloto_axis_lines" stroke="black" x1="382.2648083623693" x2="382.2648083623693" y1="400" y2="405" /><text  class="poloto_tick_labels poloto_text" alignment-baseline="start" text-anchor="middle" x="382.2648083623693" y="430" > 11:06:40</text><line  class="poloto_axis_lines" stroke="black" x1="440.3368176538908" x2="440.3368176538908" y1="400" y2="405" /><text  class="poloto_tick_labels poloto_text" alignment-baseline="start" text-anchor="middle" x="440.3368176538908" y="430" > 13:53:20</text><line  class="poloto_axis_lines" stroke="black" x1="498.4088269454123" x2="498.4088269454123" y1="400" y2="405" /><text  class="poloto_tick_labels poloto_text" alignment-baseline="start" text-anchor="middle" x="498.4088269454123" y="430" > 16:40:00</text><line  class="poloto_axis_lines" stroke="black" x1="556.4808362369338" x2="556.4808362369338" y1="400" y2="405" /><text  class="poloto_tick_labels poloto_text" alignment-baseline="start" text-anchor="middle" x="556.4808362369338" y="430" > 19:26:40</text><line  class="poloto_axis_lines" stroke="black" x1="614.5528455284552" x2="614.5528455284552" y1="400" y2="405" /><text  class="poloto_tick_labels poloto_text" alignment-baseline="start" text-anchor="middle" x="614.5528455284552" y="430" > 22:13:20</text><line  class="poloto_axis_lines" stroke="black" x1="150" x2="144" y1="329.6100462656973" y2="329.6100462656973" /><text  class="poloto_tick_labels poloto_text" alignment-baseline="middle" text-anchor="end" x="135" y="329.6100462656973" > 1500</text><line  class="poloto_axis_lines" stroke="black" x1="150" x2="144" y1="230.4692663582287" y2="230.4692663582287" /><text  class="poloto_tick_labels poloto_text" alignment-baseline="middle" text-anchor="end" x="135" y="230.4692663582287" > 2000</text><line  class="poloto_axis_lines" stroke="black" x1="150" x2="144" y1="131.32848645076012" y2="131.32848645076012" /><text  class="poloto_tick_labels poloto_text" alignment-baseline="middle" text-anchor="end" x="135" y="131.32848645076012" > 2500</text><path  stroke="black" fill="none" class="poloto_axis_lines" style="stroke-dasharray:14.518002322880372;stroke-dashoffset:-58.04878048780488;" d=" M 150 400 L 650 400" /><path  stroke="black" fill="none" class="poloto_axis_lines" style="stroke-dasharray:9.91407799074686;stroke-dashoffset:-70.38995373430271;" d=" M 150 400 L 150 100" /></svg>