<svg class="poloto" width="800" height="500" viewBox="0 0 800 500" xmlns="http://www.w3.org/2000/svg"><style>.poloto { stroke-linecap:round; stroke-linejoin:round; font-family: 'Tahoma', sans-serif; background-color: AliceBlue;} .poloto_scatter{stroke-width:7} .poloto_line{stroke-width:2} .poloto_text{fill: black;} .poloto_axis_lines{stroke: black;stroke-width:3;fill:none;stroke-dasharray:none} .poloto0stroke{stroke:  blue;} .poloto1stroke{stroke:  red;} .poloto2stroke{stroke:  green;} .poloto3stroke{stroke:  gold;} .poloto4stroke{stroke:  aqua;} .poloto5stroke{stroke:  lime;} .poloto6stroke{stroke:  orange;} .poloto7stroke{stroke:  chocolate;} .poloto0fill{fill:blue;} .poloto1fill{fill:red;} .poloto2fill{fill:green;} .poloto3fill{fill:gold;} .poloto4fill{fill:aqua;} .poloto5fill{fill:lime;} .poloto6fill{fill:orange;} .poloto7fill{fill:chocolate;}</style><text  class="poloto_text poloto_legend_text" alignment-baseline="middle" text-anchor="start" font-size="large" x="675" y="100" ></text><path  class="poloto_linefill poloto0fill" d=" M 150 400 L 150 350.74626865671644 L 151.74216027874564 354.5350172215844 L 153.4843205574913 360.90700344431684 L 155.22648083623693 362.6291618828932 L 156.96864111498257 364.69575200918484 L 158.71080139372822 378.4730195177956 L 160.45296167247386 361.5958668197474 L 162.1951219512195 362.6291618828932 L 163.93728222996515 361.94029850746267 L 165.6794425087108 362.284730195178 L 167.42160278745644 367.1067738231917 L 169.16376306620208 369.0011481056257 L 170.90592334494772 372.9621125143513 L 172.64808362369337 374.16762342135473 L 174.390243902439 378.4730195177956 L 176.13240418118465 377.7841561423651 L 177.8745644599303 373.4787600459242 L 179.61672473867597 375.7175660160735 L 181.3588850174216 378.8174512055109 L 183.10104529616726 376.57864523536165 L 184.8432055749129 374.16762342135473 L 186.58536585365854 374.51205510907005 L 188.3275261324042 373.1343283582089 L 190.06968641114983 372.27324913892073 L 191.81184668989548 371.06773823191736 L 193.55400696864112 370.3788748564868 L 195.29616724738676 372.10103329506313 L 197.0383275261324 372.7898966704937 L 198.78048780487805 372.9621125143513 L 200.5226480836237 378.1285878300804 L 202.26480836236934 374.68427095292765 L 204.00696864111498 372.4454649827784 L 205.74912891986062 369.0011481056257 L 207.49128919860627 364.8679678530425 L 209.2334494773519 368.82893226176805 L 210.97560975609755 368.14006888633753 L 212.7177700348432 373.6509758897819 L 214.45993031358887 373.4787600459242 L 216.2020905923345 373.8231917336395 L 217.94425087108016 372.61768082663605 L 219.6864111498258 376.75086107921925 L 221.42857142857144 380.3673938002296 L 223.1707317073171 382.08955223880594 L 224.91289198606273 382.43398392652125 L 226.65505226480838 384.1561423650976 L 228.39721254355402 385.01722158438577 L 230.13937282229966 385.361653272101 L 231.8815331010453 387.25602755453497 L 233.62369337979095 387.94489092996554 L 235.3658536585366 387.77267508610794 L 237.10801393728224 383.98392652123994 L 238.85017421602788 383.8117106773823 L 240.59233449477352 379.5063145809414 L 242.33449477351917 379.85074626865674 L 244.0766550522648 377.2675086107922 L 245.81881533101046 381.0562571756601 L 247.5609756097561 382.9506314580941 L 249.30313588850174 382.60619977037885 L 251.0452961672474 383.6394948335247 L 252.78745644599303 381.7451205510907 L 254.52961672473867 382.08955223880594 L 256.2717770034843 383.4672789896671 L 258.01393728222996 393.80022962112514 L 259.7560975609756 389.83926521239954 L 261.49825783972125 389.15040183696897 L 263.2404181184669 390.35591274397245 L 264.98257839721254 393.9724454649828 L 266.7247386759582 395.5223880597015 L 268.4668989547038 396.38346727898966 L 270.20905923344947 398.105625717566 L 271.9512195121951 400 L 273.69337979094075 396.0390355912744 L 275.4355400696864 395.69460390355914 L 277.17770034843204 394.1446613088404 L 278.91986062717774 387.77267508610794 L 280.6620209059233 387.6004592422503 L 282.404181184669 385.1894374282434 L 284.1463414634146 380.7118254879449 L 285.8885017421603 382.2617680826636 L 287.6306620209059 373.8231917336395 L 289.3728222996516 369.5177956371986 L 291.1149825783972 372.10103329506313 L 292.8571428571429 375.3731343283582 L 294.5993031358885 369.5177956371986 L 296.3414634146342 367.27898966704936 L 298.08362369337976 366.59012629161884 L 299.82578397212546 372.27324913892073 L 301.56794425087105 376.06199770378873 L 303.31010452961675 373.30654420206656 L 305.05226480836234 372.7898966704937 L 306.79442508710804 376.40642939150405 L 308.5365853658536 377.95637198622273 L 310.2787456445993 376.2342135476464 L 312.0209059233449 381.91733639494834 L 313.7630662020906 385.7060849598163 L 315.5052264808362 387.6004592422503 L 317.2473867595819 387.08381171067737 L 318.9895470383275 385.5338691159586 L 320.7317073170732 388.6337543053961 L 322.4738675958188 387.77267508610794 L 324.2160278745645 383.12284730195177 L 325.9581881533101 376.9230769230769 L 327.70034843205576 374.8564867967853 L 329.4425087108014 370.5510907003444 L 331.18466898954705 371.06773823191736 L 332.9268292682927 369.8622273249139 L 334.66898954703834 373.9954075774971 L 336.411149825784 375.0287026406429 L 338.1533101045296 370.3788748564868 L 339.89547038327527 371.41216991963256 L 341.6376306620209 365.2123995407577 L 343.37979094076655 362.9735935706085 L 345.1219512195122 357.2904707233065 L 346.86411149825784 357.46268656716416 L 348.6062717770035 362.284730195178 L 350.34843205574913 349.0241102181401 L 352.0905923344948 350.5740528128588 L 353.8327526132404 343.51320321469575 L 355.57491289198606 338.0022962112514 L 357.3170731707317 331.9747416762342 L 359.05923344947735 337.83008036739375 L 360.801393728223 325.4305396096441 L 362.54355400696863 321.98622273249134 L 364.2857142857143 324.39724454649826 L 366.0278745644599 324.7416762342135 L 367.77003484320556 313.20321469575197 L 369.5121951219512 317.6808266360505 L 371.25435540069685 310.61997703788745 L 372.9965156794425 303.90355912743973 L 374.73867595818814 298.73708381171065 L 376.4808362369338 295.8094144661309 L 378.2229965156795 298.3926521239954 L 379.96515679442507 295.12055109070036 L 381.70731707317077 290.64293915040184 L 383.44947735191636 283.926521239954 L 385.19163763066206 282.0321469575201 L 386.93379790940764 279.96555683122847 L 388.67595818815334 279.96555683122847 L 390.41811846689893 278.4156142365098 L 392.16027874564463 272.2158438576349 L 393.9024390243902 272.38805970149247 L 395.6445993031359 271.8714121699196 L 397.3867595818815 272.2158438576349 L 399.1289198606272 268.9437428243398 L 400.8710801393728 261.88289322617675 L 402.6132404181185 259.1274397244546 L 404.3554006968641 254.4776119402985 L 406.0975609756098 259.29965556831223 L 407.8397212543554 257.40528128587823 L 409.58188153310107 245.6946039035591 L 411.3240418118467 244.31687715269803 L 413.06620209059236 235.7060849598163 L 414.808362369338 238.63375430539608 L 416.55052264808364 225.71756601607345 L 418.2926829268293 213.14580941446613 L 420.03484320557493 208.6681974741676 L 421.7770034843206 209.52927669345578 L 423.5191637630662 206.0849598163031 L 425.26132404181186 209.35706084959813 L 427.0034843205575 211.07921928817447 L 428.74564459930315 205.91274397244544 L 430.4878048780488 192.3076923076923 L 432.22996515679444 197.12973593570607 L 433.9721254355401 187.48564867967852 L 435.7142857142857 185.59127439724452 L 437.45644599303137 183.18025258323766 L 439.198606271777 184.5579793340987 L 440.94076655052265 178.35820895522383 L 442.6829268292683 171.98622273249137 L 444.42508710801394 169.05855338691154 L 446.1672473867596 176.6360505166475 L 447.9094076655052 171.46957520091846 L 449.65156794425087 161.13662456946034 L 451.3937282229965 166.64753157290468 L 453.13588850174216 153.21469575200913 L 454.8780487804878 152.35361653272096 L 456.62020905923345 147.18714121699193 L 458.3623693379791 147.87600459242245 L 460.10452961672473 144.94833524684267 L 461.8466898954704 136.68197474167619 L 463.588850174216 139.95407577497122 L 465.33101045296166 142.02066590126287 L 467.0731707317073 130.65442020665898 L 468.81533101045295 124.62686567164178 L 470.5574912891986 133.75430539609636 L 472.29965156794424 121.69919632606195 L 474.0418118466899 118.25487944890926 L 475.7839721254355 119.46039035591275 L 477.52613240418117 149.4259471871412 L 479.2682926829268 122.56027554535012 L 481.01045296167246 114.63834672789892 L 482.7526132404181 109.98851894374275 L 484.49477351916374 108.95522388059703 L 486.2369337979094 113.08840413318023 L 487.97909407665503 108.2663605051664 L 489.7212543554007 103.78874856486789 L 491.4634146341463 100 L 493.20557491289196 112.74397244546492 L 494.9477351916376 106.54420206659006 L 496.68989547038325 109.8163030998852 L 498.4320557491289 108.09414466130886 L 500.17421602787454 105.85533869115955 L 501.91637630662024 103.27210103329503 L 503.6585365853659 104.47761194029852 L 505.4006968641115 105.68312284730189 L 507.14285714285717 108.43857634902406 L 508.8850174216028 112.39954075774972 L 510.62717770034845 116.53272101033292 L 512.3693379790941 122.90470723306544 L 514.1114982578397 123.4213547646383 L 515.8536585365854 121.69919632606195 L 517.5958188153311 130.82663605051664 L 519.3379790940767 145.4649827784156 L 521.0801393728223 149.4259471871412 L 522.822299651568 164.40872560275542 L 524.5644599303137 166.30309988518943 L 526.3066202090592 173.1917336394948 L 528.0487804878048 176.80826636050514 L 529.7909407665505 173.36394948335246 L 531.5331010452962 174.91389207807114 L 533.2752613240418 178.5304247990815 L 535.0174216027874 175.77497129735931 L 536.7595818815331 181.63030998851892 L 538.5017421602788 183.69690011481052 L 540.2439024390244 179.219288174512 L 541.98606271777 181.97474167623417 L 543.7282229965157 179.39150401836966 L 545.4703832752614 176.29161882893223 L 547.212543554007 179.73593570608492 L 548.9547038327526 186.62456946039035 L 550.6968641114983 185.93570608495978 L 552.439024390244 198.50746268656715 L 554.1811846689895 196.2686567164179 L 555.9233449477351 192.13547646383464 L 557.6655052264808 192.3076923076923 L 559.4076655052265 200.918484500574 L 561.1498257839721 202.812858783008 L 562.8919860627177 196.7853042479908 L 564.6341463414634 202.64064293915035 L 566.3763066202091 199.54075774971292 L 568.1184668989547 208.8404133180252 L 569.8606271777003 201.60734787600458 L 571.602787456446 221.4121699196326 L 573.3449477351917 215.90126291618824 L 575.0871080139373 219.345579793341 L 576.8292682926829 226.75086107921928 L 578.5714285714286 222.61768082663602 L 580.3135888501743 225.20091848450053 L 582.0557491289198 223.9954075774971 L 583.7979094076654 218.82893226176807 L 585.5400696864111 214.1791044776119 L 587.2822299651568 223.82319173363945 L 589.0243902439024 219.345579793341 L 590.766550522648 222.61768082663602 L 592.5087108013937 233.2950631458094 L 594.2508710801394 225.3731343283582 L 595.993031358885 238.28932261768082 L 597.7351916376306 250.5166475315729 L 599.4773519163763 240.52812858783008 L 601.219512195122 240.18369690011477 L 602.9616724738676 233.12284730195174 L 604.7038327526133 239.6670493685419 L 606.445993031359 249.31113662456946 L 608.1881533101046 252.75545350172214 L 609.9303135888501 253.27210103329506 L 611.6724738675958 259.8163030998852 L 613.4146341463415 264.6383467278989 L 615.1567944250871 259.1274397244546 L 616.8989547038327 260.33295063145806 L 618.6411149825784 262.3995407577497 L 620.3832752613241 268.77152698048224 L 622.1254355400697 271.5269804822043 L 623.8675958188153 281.17106773823195 L 625.609756097561 286.50975889781853 L 627.3519163763067 293.0539609644087 L 629.0940766550523 292.88174512055105 L 630.8362369337979 296.4982778415614 L 632.5783972125436 296.67049368541905 L 634.3205574912893 295.12055109070036 L 636.0627177700349 301.8369690011481 L 637.8048780487804 306.8312284730195 L 639.5470383275261 308.03673938002294 L 641.2891986062718 309.07003444316877 L 643.0313588850174 309.5866819747416 L 644.773519163763 333.18025258323763 L 646.5156794425087 335.4190585533869 L 648.2578397212544 336.9690011481056 L 650 325.947187141217 L 650 400 Z" /><text  class="poloto_labels poloto_text poloto_title" alignment-baseline="start" text-anchor="middle" font-size="x-large" x="400" y="37.5" >Total players on 2021-10-14</text><text  class="poloto_labels poloto_text poloto_xname" alignment-baseline="start" text-anchor="middle" font-size="x-large" x="400" y="481.25" >Time</text><text  class="poloto_labels poloto_text poloto_yname" alignment-baseline="start" text-anchor="middle" font-size="x-large" transform="rotate(-90,37.5,250)" x="37.5" y="250" >Count</text><line  class="poloto_axis_lines" stroke="black" x1="150" x2="150" y1="400" y2="405" /><text  class="poloto_tick_labels poloto_text" alignment-baseline="start" text-anchor="middle" x="150" y="430" > 00:00:00</text><line  class="poloto_axis_lines" stroke="black" x1="266.14401858304296" x2="266.14401858304296" y1="400" y2="405" /><text  class="poloto_tick_labels poloto_text" alignment-baseline="start" text-anchor="middle" x="266.14401858304296" y="430" > 05:33:20</text><line  class="poloto_axis_lines" stroke="black" x1="382.2880371660859" x2="382.2880371660859" y1="400" y2="405" /><text  class="poloto_tick_labels poloto_text" alignment-baseline="start" text-anchor="middle" x="382.2880371660859" y="430" > 11:06:40</text><line  class="poloto_axis_lines" stroke="black" x1="498.4320557491289" x2="498.4320557491289" y1="400" y2="405" /><text  class="poloto_tick_labels poloto_text" alignment-baseline="start" text-anchor="middle" x="498.4320557491289" y="430" > 16:40:00</text><line  class="poloto_axis_lines" stroke="black" x1="614.5760743321719" x2="614.5760743321719" y1="400" y2="405" /><text  class="poloto_tick_labels poloto_text" alignment-baseline="start" text-anchor="middle" x="614.5760743321719" y="430" > 22:13:20</text><line  class="poloto_axis_lines" stroke="black" x1="150" x2="144" y1="372.27324913892073" y2="372.27324913892073" /><text  class="poloto_tick_labels poloto_text" alignment-baseline="middle" text-anchor="end" x="135" y="372.27324913892073" > 1000</text><line  class="poloto_axis_lines" stroke="black" x1="150" x2="144" y1="286.1653272101033" y2="286.1653272101033" /><text  class="poloto_tick_labels poloto_text" alignment-baseline="middle" text-anchor="end" x="135" y="286.1653272101033" > 1500</text><line  class="poloto_axis_lines" stroke="black" x1="150" x2="144" y1="200.0574052812858" y2="200.0574052812858" /><text  class="poloto_tick_labels poloto_text" alignment-baseline="middle" text-anchor="end" x="135" y="200.0574052812858" > 2000</text><line  class="poloto_axis_lines" stroke="black" x1="150" x2="144" y1="113.9494833524684" y2="113.9494833524684" /><text  class="poloto_tick_labels poloto_text" alignment-baseline="middle" text-anchor="end" x="135" y="113.9494833524684" > 2500</text><path  stroke="black" fill="none" class="poloto_axis_lines" style="stroke-dasharray:14.518002322880372;stroke-dashoffset:-0;" d=" M 150 400 L 650 400" /><path  stroke="black" fill="none" class="poloto_axis_lines" style="stroke-dasharray:8.610792192881746;stroke-dashoffset:-27.72675086107924;" d=" M 150 400 L 150 100" /></svg>