<svg class="poloto" width="800" height="500" viewBox="0 0 800 500" xmlns="http://www.w3.org/2000/svg"><style>.poloto { stroke-linecap:round; stroke-linejoin:round; font-family: 'Tahoma', sans-serif; background-color: AliceBlue;} .poloto_scatter{stroke-width:7} .poloto_line{stroke-width:2} .poloto_text{fill: black;} .poloto_axis_lines{stroke: black;stroke-width:3;fill:none;stroke-dasharray:none} .poloto0stroke{stroke:  blue;} .poloto1stroke{stroke:  red;} .poloto2stroke{stroke:  green;} .poloto3stroke{stroke:  gold;} .poloto4stroke{stroke:  aqua;} .poloto5stroke{stroke:  lime;} .poloto6stroke{stroke:  orange;} .poloto7stroke{stroke:  chocolate;} .poloto0fill{fill:blue;} .poloto1fill{fill:red;} .poloto2fill{fill:green;} .poloto3fill{fill:gold;} .poloto4fill{fill:aqua;} .poloto5fill{fill:lime;} .poloto6fill{fill:orange;} .poloto7fill{fill:chocolate;}</style><text  class="poloto_text poloto_legend_text" alignment-baseline="middle" text-anchor="start" font-size="large" x="675" y="100" ></text><path  class="poloto_linefill poloto0fill" d=" M 150 400 L 150 355.06778566817303 L 151.74216027874564 371.3363460296966 L 153.4843205574913 372.1110393802453 L 155.22648083623693 369.3996126533247 L 156.96864111498257 375.59715945771467 L 158.71080139372822 378.88960619754675 L 160.45296167247386 376.7591994835377 L 162.1951219512195 374.24144609425434 L 163.93728222996515 374.0477727566172 L 165.6794425087108 375.2098127824403 L 167.42160278745644 371.53001936733375 L 169.16376306620208 365.7198192382182 L 170.90592334494772 366.49451258876695 L 172.64808362369337 372.8857327307941 L 174.390243902439 380.4389928986443 L 176.13240418118465 377.5338928340865 L 177.8745644599303 378.88960619754675 L 179.61672473867597 377.9212395093609 L 181.3588850174216 382.3757262750161 L 183.10104529616726 377.5338928340865 L 184.8432055749129 382.18205293737896 L 186.58536585365854 381.6010329244674 L 188.3275261324042 386.2491930277598 L 190.06968641114983 388.76694641704324 L 191.81184668989548 390.12265978050357 L 193.55400696864112 395.15816655907037 L 195.29616724738676 399.6126533247256 L 197.0383275261324 397.6759199483538 L 198.78048780487805 400 L 200.5226480836237 398.4506132989025 L 202.26480836236934 398.4506132989025 L 204.00696864111498 397.28857327307935 L 205.74912891986062 394.5771465461588 L 207.49128919860627 396.70755326016786 L 209.2334494773519 393.4151065203357 L 210.97560975609755 392.64041316978694 L 212.7177700348432 393.6087798579729 L 214.45993031358887 393.0277598450613 L 216.2020905923345 393.2214331826985 L 217.94425087108016 397.86959328599096 L 219.6864111498258 392.2530664945126 L 221.42857142857144 383.34409296320206 L 223.1707317073171 391.47837314396384 L 224.91289198606273 387.4112330535829 L 226.65505226480838 380.82633957391863 L 228.39721254355402 377.3402194964493 L 230.13937282229966 370.5616526791478 L 231.8815331010453 380.2453195610071 L 233.62369337979095 372.30471271788247 L 235.3658536585366 366.8818592640413 L 237.10801393728224 364.1704325371207 L 238.85017421602788 360.4906391220142 L 240.59233449477352 361.07165913492577 L 242.33449477351917 361.07165913492577 L 244.0766550522648 361.26533247256293 L 245.81881533101046 358.16655907036795 L 247.5609756097561 346.1588121368625 L 249.30313588850174 347.5145255003228 L 251.0452961672474 347.70819883795997 L 252.78745644599303 344.80309877340216 L 254.52961672473867 346.1588121368625 L 256.2717770034843 341.70432537120723 L 258.01393728222996 343.4473854099419 L 259.7560975609756 340.54228534538413 L 261.49825783972125 338.0245319561007 L 263.2404181184669 344.4157520981278 L 264.9883855981417 346.1588121368625 L 266.7247386759582 341.70432537120723 L 268.4668989547038 345.7714654615881 L 270.20905923344947 341.51065203357 L 271.9512195121951 340.7359586830213 L 273.69337979094075 340.3486120077469 L 275.4355400696864 345.19044544867654 L 277.17770034843204 338.0245319561007 L 278.9198606271777 339.9612653324726 L 280.6620209059233 340.54228534538413 L 282.40418118466897 342.2853453841188 L 284.1463414634146 347.70819883795997 L 285.88850174216026 340.54228534538413 L 287.6306620209059 334.73208521626856 L 289.37282229965155 333.7637185280826 L 291.1149825783972 326.9851517107811 L 292.85714285714283 329.3092317624274 L 294.5993031358885 326.40413169786956 L 296.3414634146342 330.85861846352486 L 298.08362369337976 328.5345384118786 L 299.82578397212546 330.4712717882505 L 301.56794425087105 327.17882504841833 L 303.31010452961675 319.04454486765655 L 305.05226480836234 321.1749515816656 L 306.79442508710804 312.0723047127179 L 308.5365853658536 309.7482246610717 L 310.2787456445993 315.9457714654616 L 312.0209059233449 314.2027114267269 L 313.7630662020906 316.13944480309874 L 315.5052264808362 312.26597805035505 L 317.2473867595819 311.87863137508066 L 318.9895470383275 312.45965138799227 L 320.7317073170732 311.10393802453194 L 322.4738675958188 312.26597805035505 L 324.2160278745645 310.5229180116204 L 325.95818815331006 315.9457714654616 L 327.70034843205576 308.77985797288574 L 329.44250871080135 317.3014848289219 L 331.18466898954705 315.9457714654616 L 332.92682926829264 310.135571336346 L 334.66898954703834 303.7443511943189 L 336.4111498257839 299.09619109102647 L 338.1591173054587 296.9657843770174 L 339.8954703832752 289.99354422207875 L 341.6376306620209 285.92640413169784 L 343.3797909407665 292.8986442866365 L 345.1219512195122 286.8947708198838 L 346.86411149825784 285.92640413169784 L 348.6062717770035 282.24661071659136 L 350.34843205574913 275.85539057456424 L 352.0905923344948 267.72111039380246 L 353.8327526132404 260.55519690122657 L 355.57491289198606 260.7488702388638 L 357.3170731707317 261.5235635894125 L 359.05923344947735 262.2982569399613 L 360.801393728223 262.49193027759844 L 362.54355400696863 255.71336346029693 L 364.2857142857143 258.0374435119432 L 366.0278745644599 256.68173014848287 L 367.77003484320556 253.19561007101356 L 369.5121951219512 250.29051000645575 L 371.25435540069685 243.1245965138799 L 372.9965156794425 238.47643641058744 L 374.73867595818814 237.12072304712717 L 376.4808362369338 233.44092963202064 L 378.2229965156794 231.3105229180116 L 379.96515679442507 232.08521626856037 L 381.7073170731707 247.19173660426083 L 383.44947735191636 249.12846998063264 L 385.191637630662 240.99418979987087 L 386.93379790940764 237.70174306003872 L 388.6759581881533 237.8954163976759 L 390.41811846689893 245.8360232408005 L 392.1602787456446 234.60296965784374 L 393.9024390243902 235.37766300839252 L 395.6445993031359 228.79276952872823 L 397.3867595818815 236.15235635894123 L 399.1289198606272 236.92704970949 L 400.8710801393728 233.6346029696578 L 402.6132404181185 230.1484828921885 L 404.3554006968641 226.46868947708197 L 406.0975609756097 232.66623628147192 L 407.83972125435537 235.1839896707553 L 409.581881533101 234.99031633311813 L 411.32404181184666 217.9470626210458 L 413.0662020905923 222.4015493867011 L 414.80836236933794 217.55971594577147 L 416.5505226480836 217.9470626210458 L 418.29268292682923 202.45319561007102 L 420.0348432055749 206.32666236281472 L 421.7770034843206 201.0974822466107 L 423.5191637630662 193.7378954163977 L 425.26132404181186 195.09360877985796 L 427.0034843205575 197.80503550677855 L 428.74564459930315 188.12136862491928 L 430.4878048780488 190.4454486765655 L 432.22996515679444 191.80116204002582 L 433.9721254355401 176.30729502905098 L 435.7142857142857 183.47320852162687 L 437.45644599303137 177.08198837959975 L 439.198606271777 163.71852808263395 L 440.94076655052265 152.29180116204003 L 442.6829268292683 144.15752098127825 L 444.42508710801394 135.44222078760492 L 446.1672473867596 143.18915429309232 L 447.9094076655052 135.05487411233054 L 449.65156794425087 142.41446094254354 L 451.3937282229965 141.63976759199483 L 453.13588850174216 150.54874112330538 L 454.8780487804878 135.2485474499677 L 456.62020905923345 118.78631375080698 L 458.3623693379791 115.49386701097484 L 460.10452961672473 113.75080697224013 L 461.8466898954704 108.52162685603611 L 463.588850174216 117.04325371207227 L 465.33101045296166 101.35571336346032 L 467.0731707317073 104.84183344092963 L 468.81533101045295 108.71530019367339 L 470.5574912891986 119.56100710135576 L 472.29965156794424 104.4544867656553 L 474.0418118466899 99.99999999999994 L 475.7839721254355 106.77856681730151 L 477.52613240418117 101.93673337637182 L 479.2682926829268 126.53324725629437 L 481.01045296167246 118.78631375080698 L 482.7526132404181 120.7230471271788 L 484.49477351916374 115.49386701097484 L 486.2369337979094 118.39896707553254 L 487.97909407665503 119.17366042608131 L 489.7212543554007 130.01936733376368 L 491.4634146341463 128.08263395739186 L 493.20557491289196 133.11814073595866 L 494.9477351916376 135.2485474499677 L 496.68989547038325 143.5765009683667 L 498.4320557491289 136.02324080051648 L 500.17421602787454 153.45384118786313 L 501.9163763066202 149.38670109748222 L 503.6585365853658 154.42220787604907 L 505.40069686411147 169.91607488702385 L 507.1428571428571 171.46546158812134 L 508.88501742160275 175.53260167850226 L 510.6271777003484 179.40606843124596 L 512.3693379790941 192.38218205293737 L 514.1114982578397 189.67075532601677 L 515.8536585365853 192.96320206584892 L 517.595818815331 200.32278889606198 L 519.3379790940767 195.09360877985796 L 521.0801393728223 198.3860555196901 L 522.822299651568 202.2595222724338 L 524.5644599303137 206.52033570045188 L 526.3066202090592 208.45706907682376 L 528.0487804878048 206.90768237572627 L 529.7909407665505 211.55584247901874 L 531.5331010452962 212.1368624919303 L 533.2752613240418 215.6229825693996 L 535.0174216027874 214.0735958683021 L 536.7595818815331 227.4370561652679 L 538.5017421602788 223.17624273724982 L 540.2439024390244 221.239509360878 L 541.98606271777 218.72175597159458 L 543.7282229965157 221.82052937378955 L 545.4703832752614 225.88766946417041 L 547.212543554007 229.95480955455133 L 548.9547038327526 259.39315687540346 L 550.6968641114983 241.57520981278242 L 552.439024390244 242.93092317624274 L 554.1811846689895 258.8121368624919 L 555.9233449477351 250.48418334409297 L 557.6655052264808 241.9625564880568 L 559.4076655052265 240.60684312459648 L 561.1498257839721 233.82827630729503 L 562.8919860627177 243.89928986442868 L 564.6341463414634 247.19173660426083 L 566.3763066202091 248.5474499677211 L 568.1184668989547 253.7766300839251 L 569.8606271777003 254.93867010974822 L 571.602787456446 257.6500968366688 L 573.3449477351917 252.03357004519046 L 575.0871080139373 256.2943834732085 L 576.8292682926829 250.29051000645575 L 578.5714285714286 255.90703679793415 L 580.3135888501743 258.0374435119432 L 582.0557491289198 251.06520335700452 L 583.7979094076654 249.7094899935442 L 585.5400696864111 264.81601032924465 L 587.2822299651568 256.1007101355713 L 589.0243902439024 262.2982569399613 L 590.766550522648 297.93415106520337 L 592.5087108013937 277.9857972885733 L 594.2508710801394 287.28211749515816 L 595.993031358885 311.10393802453194 L 597.7351916376306 298.5151710781149 L 599.4773519163763 305.1000645577792 L 601.219512195122 305.68108457069076 L 602.9616724738676 314.3963847643641 L 604.7038327526132 314.97740477727564 L 606.4459930313589 314.0090380890897 L 608.1881533101046 309.16720464816007 L 609.9303135888501 310.71659134925756 L 611.6724738675957 334.73208521626856 L 613.4146341463414 325.0484183344093 L 615.1567944250871 324.8547449967721 L 616.8989547038327 321.1749515816656 L 618.6411149825783 320.20658489347966 L 620.383275261324 328.14719173660427 L 622.1254355400697 332.21433182698513 L 623.8675958188153 333.7637185280826 L 625.609756097561 338.4118786313751 L 627.3519163763067 345.19044544867654 L 629.0940766550523 350.80697224015495 L 630.8362369337979 347.90187217559713 L 632.5783972125436 342.86636539703034 L 634.3205574912893 348.2892188508715 L 636.0627177700349 353.90574564234987 L 637.8048780487804 352.3563589412524 L 639.5470383275261 352.1626856036152 L 641.2891986062718 352.74370561652677 L 643.0313588850174 355.06778566817303 L 644.773519163763 362.23369916074887 L 646.5156794425087 366.49451258876695 L 648.2578397212544 368.04389928986444 L 650 375.2098127824403 L 650 400 Z" /><text  class="poloto_labels poloto_text poloto_title" alignment-baseline="start" text-anchor="middle" font-size="x-large" x="400" y="37.5" >Total players on 2021-07-23</text><text  class="poloto_labels poloto_text poloto_xname" alignment-baseline="start" text-anchor="middle" font-size="x-large" x="400" y="481.25" >Time</text><text  class="poloto_labels poloto_text poloto_yname" alignment-baseline="start" text-anchor="middle" font-size="x-large" transform="rotate(-90,37.5,250)" x="37.5" y="250" >Count</text><line  class="poloto_axis_lines" stroke="black" x1="208.0487804878049" x2="208.0487804878049" y1="400" y2="405" /><text  class="poloto_tick_labels poloto_text" alignment-baseline="start" text-anchor="middle" x="208.0487804878049" y="430" > 02:46:40</text><line  class="poloto_axis_lines" stroke="black" x1="266.1207897793264" x2="266.1207897793264" y1="400" y2="405" /><text  class="poloto_tick_labels poloto_text" alignment-baseline="start" text-anchor="middle" x="266.1207897793264" y="430" > 05:33:20</text><line  class="poloto_axis_lines" stroke="black" x1="324.19279907084785" x2="324.19279907084785" y1="400" y2="405" /><text  class="poloto_tick_labels poloto_text" alignment-baseline="start" text-anchor="middle" x="324.19279907084785" y="430" > 08:20:00</text><line  class="poloto_axis_lines" stroke="black" x1="382.2648083623693" x2="382.2648083623693" y1="400" y2="405" /><text  class="poloto_tick_labels poloto_text" alignment-baseline="start" text-anchor="middle" x="382.2648083623693" y="430" > 11:06:40</text><line  class="poloto_axis_lines" stroke="black" x1="440.3368176538908" x2="440.3368176538908" y1="400" y2="405" /><text  class="poloto_tick_labels poloto_text" alignment-baseline="start" text-anchor="middle" x="440.3368176538908" y="430" > 13:53:20</text><line  class="poloto_axis_lines" stroke="black" x1="498.4088269454123" x2="498.4088269454123" y1="400" y2="405" /><text  class="poloto_tick_labels poloto_text" alignment-baseline="start" text-anchor="middle" x="498.4088269454123" y="430" > 16:40:00</text><line  class="poloto_axis_lines" stroke="black" x1="556.4808362369338" x2="556.4808362369338" y1="400" y2="405" /><text  class="poloto_tick_labels poloto_text" alignment-baseline="start" text-anchor="middle" x="556.4808362369338" y="430" > 19:26:40</text><line  class="poloto_axis_lines" stroke="black" x1="614.5528455284552" x2="614.5528455284552" y1="400" y2="405" /><text  class="poloto_tick_labels poloto_text" alignment-baseline="start" text-anchor="middle" x="614.5528455284552" y="430" > 22:13:20</text><line  class="poloto_axis_lines" stroke="black" x1="150" x2="144" y1="341.1233053582957" y2="341.1233053582957" /><text  class="poloto_tick_labels poloto_text" alignment-baseline="middle" text-anchor="end" x="135" y="341.1233053582957" > 1500</text><line  class="poloto_axis_lines" stroke="black" x1="150" x2="144" y1="244.286636539703" y2="244.286636539703" /><text  class="poloto_tick_labels poloto_text" alignment-baseline="middle" text-anchor="end" x="135" y="244.286636539703" > 2000</text><line  class="poloto_axis_lines" stroke="black" x1="150" x2="144" y1="147.4499677211104" y2="147.4499677211104" /><text  class="poloto_tick_labels poloto_text" alignment-baseline="middle" text-anchor="end" x="135" y="147.4499677211104" > 2500</text><path  stroke="black" fill="none" class="poloto_axis_lines" style="stroke-dasharray:14.518002322880372;stroke-dashoffset:-58.04878048780488;" d=" M 150 400 L 650 400" /><path  stroke="black" fill="none" class="poloto_axis_lines" style="stroke-dasharray:9.683666881859263;stroke-dashoffset:-58.87669464170432;" d=" M 150 400 L 150 100" /></svg>