<svg class="poloto" width="800" height="500" viewBox="0 0 800 500" xmlns="http://www.w3.org/2000/svg"><style>.poloto { stroke-linecap:round; stroke-linejoin:round; font-family: 'Tahoma', sans-serif; background-color: AliceBlue;} .poloto_scatter{stroke-width:7} .poloto_line{stroke-width:2} .poloto_text{fill: black;} .poloto_axis_lines{stroke: black;stroke-width:3;fill:none;stroke-dasharray:none} .poloto0stroke{stroke:  blue;} .poloto1stroke{stroke:  red;} .poloto2stroke{stroke:  green;} .poloto3stroke{stroke:  gold;} .poloto4stroke{stroke:  aqua;} .poloto5stroke{stroke:  lime;} .poloto6stroke{stroke:  orange;} .poloto7stroke{stroke:  chocolate;} .poloto0fill{fill:blue;} .poloto1fill{fill:red;} .poloto2fill{fill:green;} .poloto3fill{fill:gold;} .poloto4fill{fill:aqua;} .poloto5fill{fill:lime;} .poloto6fill{fill:orange;} .poloto7fill{fill:chocolate;}</style><text  class="poloto_text poloto_legend_text" alignment-baseline="middle" text-anchor="start" font-size="large" x="675" y="100" ></text><path  class="poloto_linefill poloto0fill" d=" M 150 400 L 150 327.3802115743622 L 151.74216027874564 325.5133789670193 L 153.4843205574913 330.1804604853765 L 155.22648083623693 334.8475420037337 L 156.96864111498257 348.6621032980709 L 158.71080139372822 353.7025513378967 L 160.45296167247386 349.4088363410081 L 162.1951219512195 347.9153702551338 L 163.93728222996515 348.1020535158681 L 165.6794425087108 347.7286869943995 L 167.42160278745644 349.0354698195395 L 169.16376306620208 354.4492843808339 L 170.90592334494772 356.6894835096453 L 172.64808362369337 352.76913503422526 L 174.390243902439 352.3957685127567 L 176.13240418118465 358.92968263845677 L 177.8745644599303 360.79651524579964 L 179.61672473867597 371.8108276291226 L 181.3588850174216 374.05102675793404 L 183.10104529616726 382.26509023024266 L 184.8432055749129 384.31860609831983 L 186.58536585365854 382.82514001244556 L 188.3275261324042 386.1854387056627 L 190.06968641114983 388.2389545737399 L 191.81184668989548 389.73242065961415 L 193.55400696864112 393.27940261356565 L 195.29616724738676 397.1997510889857 L 197.0383275261324 395.51960174237706 L 198.78048780487805 392.7193528313628 L 200.5226480836237 398.5065339141257 L 202.26480836236934 399.25326695706286 L 204.00696864111498 400 L 205.74912891986062 396.45301804604856 L 207.49128919860627 397.0130678282514 L 209.2334494773519 395.3329184816428 L 210.97560975609755 399.25326695706286 L 212.7177700348432 398.3198506533914 L 214.45993031358887 393.09271935283135 L 216.2020905923345 394.5861854387057 L 217.94425087108016 385.43870566272557 L 219.6864111498258 381.5183571873056 L 221.42857142857144 382.63845675171126 L 223.1707317073171 375.9178593652769 L 224.91289198606273 383.01182327317986 L 226.65505226480838 378.3447417548226 L 228.39721254355402 380.02489110143125 L 230.13937282229966 379.83820784069695 L 231.8815331010453 376.85127566894835 L 233.62369337979095 377.7846919726198 L 235.3658536585366 381.3316739265713 L 237.10801393728224 378.3447417548226 L 238.85017421602788 373.1176104542626 L 240.59233449477352 368.4505289359054 L 242.33449477351917 368.0771624144369 L 244.0766550522648 363.41008089607965 L 245.81881533101046 361.9166148102054 L 247.5609756097561 359.4897324206596 L 249.30313588850174 354.6359676415682 L 251.0452961672474 354.2626011200996 L 252.78745644599303 351.275668948351 L 254.52961672473867 352.2090852520224 L 256.2717770034843 354.2626011200996 L 258.01393728222996 353.5158680771624 L 259.7560975609756 360.2364654635968 L 261.49825783972125 361.5432482887368 L 263.2404181184669 356.8761667703796 L 264.98257839721254 360.60983198506534 L 266.7247386759582 352.76913503422526 L 268.4668989547038 349.0354698195395 L 270.20905923344947 349.96888612321095 L 271.9512195121951 339.32794026135656 L 273.69337979094075 342.87492221530806 L 275.4355400696864 351.6490354698195 L 277.17770034843204 335.9676415681394 L 278.9198606271777 338.3945239576851 L 280.6620209059233 332.6073428749222 L 282.40418118466897 335.034225264468 L 284.1463414634146 337.2744243932794 L 285.88850174216026 329.9937772246422 L 287.6306620209059 328.68699439950217 L 289.37282229965155 329.43372744243936 L 291.1149825783972 329.6204107031736 L 292.85714285714283 329.6204107031736 L 294.5993031358885 323.64654635967645 L 296.3414634146342 318.9794648413192 L 298.08362369337976 321.9663970130678 L 299.82578397212546 324.019912881145 L 301.56794425087105 320.47293092719354 L 303.31010452961675 323.64654635967645 L 305.05226480836234 323.45986309894215 L 306.79442508710804 323.08649657747355 L 308.5365853658536 325.5133789670193 L 310.2787456445993 323.27317983820785 L 312.0209059233449 324.9533291848164 L 313.7630662020906 322.1530802738021 L 315.5052264808362 317.67268201617924 L 317.2473867595819 312.25886745488486 L 318.9895470383275 310.01866832607345 L 320.7317073170732 302.17797137523337 L 322.4738675958188 298.07093963907903 L 324.2160278745645 300.4978220286248 L 325.95818815331006 298.81767268201617 L 327.70034843205576 296.76415681393905 L 329.44250871080135 295.457373988799 L 331.18466898954705 292.4704418170504 L 332.92682926829264 286.8699439950218 L 334.66898954703834 285.74984443061606 L 336.4111498257839 284.44306160547603 L 338.1533101045296 283.13627878033606 L 339.8954703832752 280.522713130056 L 341.6376306620209 279.215930304916 L 343.3797909407665 278.6558805227131 L 345.1219512195122 279.96266334785315 L 346.86411149825784 276.0423148724331 L 348.6062717770035 270.2551337896702 L 350.34843205574913 266.33478531425015 L 352.0905923344948 262.974486621033 L 353.8327526132404 263.53453640323585 L 355.57491289198606 255.13378967019293 L 357.3170731707317 250.28002489110145 L 359.05923344947735 252.70690728064716 L 360.801393728223 245.05289359054137 L 362.54355400696863 250.46670815183575 L 364.2857142857143 250.09334163036715 L 366.0278745644599 247.29309271935284 L 367.77003484320556 250.46670815183575 L 369.5121951219512 240.7591785936528 L 371.25435540069685 246.73304293715 L 372.9965156794425 245.61294337274427 L 374.73867595818814 251.58680771624148 L 376.4808362369338 243.9327940261357 L 378.2229965156794 241.31922837585563 L 379.96515679442507 235.53204729309272 L 381.7073170731707 228.06471686372123 L 383.44947735191636 228.43808338518983 L 385.191637630662 226.9446172993155 L 386.93379790940764 228.81144990665837 L 388.6759581881533 220.59738643434974 L 390.41811846689893 217.05040448039824 L 392.1602787456446 209.20970752955822 L 393.9024390243902 207.71624144368388 L 395.6445993031359 200.99564405724954 L 397.3867595818815 195.02177971375232 L 399.1289198606272 195.20846297448662 L 400.8710801393728 191.28811449906658 L 402.6132404181185 185.50093341630367 L 404.3554006968641 186.24766645924086 L 406.0975609756097 183.6341008089608 L 407.83972125435537 182.51400124455506 L 409.581881533101 180.8338518979465 L 411.32404181184666 183.6341008089608 L 413.0662020905923 178.03360298693218 L 414.80836236933794 172.9931549471064 L 416.5505226480836 173.1798382078407 L 418.29268292682923 170.3795892968264 L 420.0348432055749 167.95270690728069 L 421.7770034843206 169.07280647168636 L 423.5191637630662 174.29993777224644 L 425.26132404181186 163.65899191039205 L 427.0034843205575 160.2986932171749 L 428.74564459930315 158.80522713130057 L 430.4878048780488 163.28562538892345 L 432.22996515679444 164.40572495332918 L 433.9721254355401 156.19166148102056 L 435.7142857142857 168.32607342874923 L 437.45644599303137 162.9122588674549 L 439.198606271777 156.7517112632234 L 440.94076655052265 163.47230864965775 L 442.6829268292683 162.16552582451777 L 444.42508710801394 160.85874299937774 L 446.1672473867596 150.59116365899195 L 447.9094076655052 138.45675171126322 L 449.65156794425087 135.09645301804608 L 451.3937282229965 127.255756067206 L 453.13588850174216 121.84194150591168 L 454.8780487804878 114.0012445550716 L 456.62020905923345 119.78842563783451 L 458.3623693379791 118.10827629122588 L 460.10452961672473 104.10703173615434 L 461.8466898954704 100.3733665214686 L 463.588850174216 100 L 465.33101045296166 108.58742999377722 L 467.0731707317073 116.6148102053516 L 468.81533101045295 119.04169259489737 L 470.5574912891986 113.06782825140016 L 472.29965156794424 117.36154324828874 L 474.0418118466899 114.0012445550716 L 475.7839721254355 108.40074673304298 L 477.52613240418117 105.04044803982578 L 479.2682926829268 103.1736154324829 L 481.01045296167246 108.02738021157438 L 482.7526132404181 107.84069695084008 L 484.49477351916374 107.28064716863724 L 486.2369337979094 105.41381456129437 L 487.97909407665503 115.30802738021157 L 489.7212543554007 112.13441194772872 L 491.4634146341463 115.86807716241447 L 493.20557491289196 102.9869321717486 L 494.9477351916376 115.30802738021157 L 496.68989547038325 120.72184194150594 L 498.4320557491289 117.73490976975734 L 500.17421602787454 116.8014934660859 L 501.9163763066202 128.37585563161173 L 503.6585365853658 123.70877411325455 L 505.40069686411147 115.49471064094587 L 507.1428571428571 121.65525824517738 L 508.88501742160275 116.241443683883 L 510.6271777003484 123.33540759178595 L 512.3693379790941 125.20224019912882 L 514.1114982578397 137.89670192906038 L 515.8536585365853 141.0703173615433 L 517.595818815331 146.8574984443062 L 519.3379790940767 145.92408214063477 L 521.0801393728223 147.60423148724334 L 522.822299651568 143.3105164903547 L 524.5644599303137 145.36403235843187 L 526.3066202090592 148.91101431238332 L 528.0487804878048 148.16428126944618 L 529.7909407665505 164.40572495332918 L 531.5331010452962 156.9383945239577 L 533.2752613240418 161.97884256378347 L 535.0174216027874 161.97884256378347 L 536.7595818815331 157.49844430616054 L 538.5017421602788 173.7398879900436 L 540.2439024390244 172.24642190416927 L 541.98606271777 170.5662725575607 L 543.7282229965157 176.5401369010579 L 545.4703832752614 171.31300560049783 L 547.212543554007 185.12756689483513 L 548.9547038327526 186.994399502178 L 550.6968641114983 188.30118232731797 L 552.439024390244 194.0883634100809 L 554.1811846689895 193.15494710640945 L 555.9233449477351 202.11574362165527 L 557.6655052264808 201.36901057871813 L 559.4076655052265 199.68886123210956 L 561.1498257839721 204.54262601120104 L 562.8919860627177 207.90292470441818 L 564.6341463414634 210.7031736154325 L 566.3763066202091 212.75668948350966 L 568.1184668989547 209.20970752955822 L 569.8606271777003 208.46297448662102 L 571.602787456446 203.79589296826384 L 573.3449477351917 214.81020535158683 L 575.0871080139373 214.99688861232113 L 576.8292682926829 219.2906036092097 L 578.5714285714286 220.41070317361545 L 580.3135888501743 209.76975731176105 L 582.0557491289198 210.5164903546982 L 583.7979094076654 208.27629122588678 L 585.5400696864111 214.25015556938394 L 587.2822299651568 226.57125077784696 L 589.0243902439024 231.98506533914127 L 590.766550522648 231.79838207840697 L 592.5087108013937 230.3049159925327 L 594.2508710801394 231.42501555693843 L 595.993031358885 236.65214685749845 L 597.7351916376306 242.06596141879277 L 599.4773519163763 247.29309271935284 L 601.219512195122 244.49284380833853 L 602.9616724738676 238.70566272557562 L 604.7038327526132 239.26571250777846 L 606.4459930313589 242.25264467952707 L 608.1881533101046 249.34660858743 L 609.9303135888501 254.76042314872433 L 611.6724738675957 261.8543870566273 L 613.4146341463414 258.68077162414437 L 615.1567944250871 262.4144368388301 L 616.8989547038327 276.0423148724331 L 618.6411149825783 285.1897946484132 L 620.383275261324 290.97697573117614 L 622.1254355400697 290.79029247044184 L 623.8675958188153 293.59054138145615 L 625.609756097561 301.05787181082763 L 627.3519163763067 296.39079029247046 L 629.0940766550523 304.7915370255134 L 630.8362369337979 304.9782202862477 L 632.5783972125436 307.9651524579963 L 634.3205574912893 311.8855009334163 L 636.0627177700349 309.27193528313626 L 637.8048780487804 307.21841941505915 L 639.5470383275261 303.85812072184194 L 641.2891986062718 312.44555071561916 L 643.0313588850174 309.83198506533915 L 644.773519163763 314.87243310516493 L 646.5156794425087 312.25886745488486 L 648.2578397212544 315.43248288736777 L 650 327.75357809583073 L 650 400 Z" /><text  class="poloto_labels poloto_text poloto_title" alignment-baseline="start" text-anchor="middle" font-size="x-large" x="400" y="37.5" >Total players on 2021-06-12</text><text  class="poloto_labels poloto_text poloto_xname" alignment-baseline="start" text-anchor="middle" font-size="x-large" x="400" y="481.25" >Time</text><text  class="poloto_labels poloto_text poloto_yname" alignment-baseline="start" text-anchor="middle" font-size="x-large" transform="rotate(-90,37.5,250)" x="37.5" y="250" >Count</text><line  class="poloto_axis_lines" stroke="black" x1="208.0487804878049" x2="208.0487804878049" y1="400" y2="405" /><text  class="poloto_tick_labels poloto_text" alignment-baseline="start" text-anchor="middle" x="208.0487804878049" y="430" > 02:46:40</text><line  class="poloto_axis_lines" stroke="black" x1="266.1207897793264" x2="266.1207897793264" y1="400" y2="405" /><text  class="poloto_tick_labels poloto_text" alignment-baseline="start" text-anchor="middle" x="266.1207897793264" y="430" > 05:33:20</text><line  class="poloto_axis_lines" stroke="black" x1="324.19279907084785" x2="324.19279907084785" y1="400" y2="405" /><text  class="poloto_tick_labels poloto_text" alignment-baseline="start" text-anchor="middle" x="324.19279907084785" y="430" > 08:20:00</text><line  class="poloto_axis_lines" stroke="black" x1="382.2648083623693" x2="382.2648083623693" y1="400" y2="405" /><text  class="poloto_tick_labels poloto_text" alignment-baseline="start" text-anchor="middle" x="382.2648083623693" y="430" > 11:06:40</text><line  class="poloto_axis_lines" stroke="black" x1="440.3368176538908" x2="440.3368176538908" y1="400" y2="405" /><text  class="poloto_tick_labels poloto_text" alignment-baseline="start" text-anchor="middle" x="440.3368176538908" y="430" > 13:53:20</text><line  class="poloto_axis_lines" stroke="black" x1="498.4088269454123" x2="498.4088269454123" y1="400" y2="405" /><text  class="poloto_tick_labels poloto_text" alignment-baseline="start" text-anchor="middle" x="498.4088269454123" y="430" > 16:40:00</text><line  class="poloto_axis_lines" stroke="black" x1="556.4808362369338" x2="556.4808362369338" y1="400" y2="405" /><text  class="poloto_tick_labels poloto_text" alignment-baseline="start" text-anchor="middle" x="556.4808362369338" y="430" > 19:26:40</text><line  class="poloto_axis_lines" stroke="black" x1="614.5528455284552" x2="614.5528455284552" y1="400" y2="405" /><text  class="poloto_tick_labels poloto_text" alignment-baseline="start" text-anchor="middle" x="614.5528455284552" y="430" > 22:13:20</text><line  class="poloto_axis_lines" stroke="black" x1="150" x2="144" y1="329.43372744243936" y2="329.43372744243936" /><text  class="poloto_tick_labels poloto_text" alignment-baseline="middle" text-anchor="end" x="135" y="329.43372744243936" > 1500</text><line  class="poloto_axis_lines" stroke="black" x1="150" x2="144" y1="236.0920970752956" y2="236.0920970752956" /><text  class="poloto_tick_labels poloto_text" alignment-baseline="middle" text-anchor="end" x="135" y="236.0920970752956" > 2000</text><line  class="poloto_axis_lines" stroke="black" x1="150" x2="144" y1="142.75046670815186" y2="142.75046670815186" /><text  class="poloto_tick_labels poloto_text" alignment-baseline="middle" text-anchor="end" x="135" y="142.75046670815186" > 2500</text><path  stroke="black" fill="none" class="poloto_axis_lines" style="stroke-dasharray:14.518002322880372;stroke-dashoffset:-58.04878048780488;" d=" M 150 400 L 650 400" /><path  stroke="black" fill="none" class="poloto_axis_lines" style="stroke-dasharray:9.334163036714374;stroke-dashoffset:-70.56627255756064;" d=" M 150 400 L 150 100" /></svg>