<svg class="poloto" width="800" height="500" viewBox="0 0 800 500" xmlns="http://www.w3.org/2000/svg"><style>.poloto { stroke-linecap:round; stroke-linejoin:round; font-family: 'Tahoma', sans-serif; background-color: AliceBlue;} .poloto_scatter{stroke-width:7} .poloto_line{stroke-width:2} .poloto_text{fill: black;} .poloto_axis_lines{stroke: black;stroke-width:3;fill:none;stroke-dasharray:none} .poloto0stroke{stroke:  blue;} .poloto1stroke{stroke:  red;} .poloto2stroke{stroke:  green;} .poloto3stroke{stroke:  gold;} .poloto4stroke{stroke:  aqua;} .poloto5stroke{stroke:  lime;} .poloto6stroke{stroke:  orange;} .poloto7stroke{stroke:  chocolate;} .poloto0fill{fill:blue;} .poloto1fill{fill:red;} .poloto2fill{fill:green;} .poloto3fill{fill:gold;} .poloto4fill{fill:aqua;} .poloto5fill{fill:lime;} .poloto6fill{fill:orange;} .poloto7fill{fill:chocolate;}</style><text  class="poloto_text poloto_legend_text" alignment-baseline="middle" text-anchor="start" font-size="large" x="675" y="100" ></text><path  class="poloto_linefill poloto0fill" d=" M 150 400 L 150 321.36105860113423 L 151.74216027874564 334.593572778828 L 153.4843205574913 343.10018903591686 L 155.22648083623693 350.0945179584121 L 156.96864111498257 356.52173913043475 L 158.71080139372822 359.16824196597355 L 160.45296167247386 363.3270321361059 L 162.1951219512195 366.16257088846885 L 163.93728222996515 361.4366729678639 L 165.6794425087108 362.94896030245746 L 167.42160278745644 368.241965973535 L 169.16376306620208 370.51039697542535 L 170.90592334494772 368.8090737240076 L 172.64808362369337 371.07750472589794 L 174.390243902439 373.1568998109641 L 176.13240418118465 376.3705103969754 L 177.8745644599303 382.41965973534974 L 179.61672473867597 380.5293005671077 L 181.3588850174216 375.80340264650283 L 183.10104529616726 377.882797731569 L 184.8432055749129 381.4744801512287 L 186.58536585365854 384.6880907372401 L 188.3275261324042 390.1701323251418 L 190.06968641114983 395.6521739130435 L 191.81184668989548 396.2192816635161 L 193.55400696864112 389.79206049149343 L 195.29616724738676 389.41398865784504 L 197.0383275261324 391.6824196597354 L 198.78048780487805 391.1153119092628 L 200.5226480836237 389.03591682419665 L 202.26480836236934 384.4990548204159 L 204.00696864111498 376.5595463137996 L 205.74912891986062 380.5293005671077 L 207.49128919860627 377.6937618147448 L 209.2334494773519 375.61436672967864 L 210.97560975609755 378.2608695652174 L 212.7177700348432 381.0964083175803 L 214.45993031358887 385.44423440453687 L 216.2020905923345 386.95652173913044 L 217.94425087108016 384.8771266540643 L 219.6864111498258 382.04158790170135 L 221.42857142857144 377.5047258979206 L 223.1707317073171 379.96219281663514 L 224.91289198606273 384.8771266540643 L 226.65505226480838 386.76748582230624 L 228.39721254355402 385.2551984877127 L 230.13937282229966 384.3100189035917 L 231.8815331010453 382.79773156899813 L 233.62369337979095 385.82230623818526 L 235.3658536585366 390.7372400756144 L 237.10801393728224 394.3289224952741 L 238.85017421602788 394.5179584120983 L 240.59233449477352 398.67674858223063 L 242.33449477351917 400 L 244.0766550522648 398.8657844990548 L 245.81881533101046 397.54253308128546 L 247.5609756097561 399.4328922495274 L 249.30313588850174 398.10964083175804 L 251.0452961672474 394.5179584120983 L 252.78745644599303 392.81663516068056 L 254.52961672473867 388.84688090737245 L 256.2717770034843 387.14555765595463 L 258.01393728222996 389.60302457466923 L 259.7560975609756 391.8714555765596 L 261.49825783972125 387.9017013232514 L 263.2404181184669 382.23062381852554 L 264.98257839721254 384.6880907372401 L 266.7247386759582 381.8525519848771 L 268.4668989547038 381.4744801512287 L 270.20905923344947 383.5538752362949 L 271.9512195121951 388.0907372400756 L 273.69337979094075 386.38941398865785 L 275.4355400696864 384.1209829867675 L 277.17770034843204 382.41965973534974 L 278.9198606271777 380.9073724007561 L 280.6620209059233 381.6635160680529 L 282.40418118466897 382.60869565217394 L 284.1463414634146 378.82797731568996 L 285.88850174216026 383.9319470699433 L 287.6306620209059 379.20604914933836 L 289.37282229965155 375.23629489603024 L 291.1149825783972 373.5349716446125 L 292.85714285714283 367.4858223062382 L 294.5993031358885 362.1928166351607 L 296.3414634146342 354.0642722117202 L 298.08362369337976 358.97920604914935 L 299.82578397212546 359.54631379962194 L 301.56794425087105 359.16824196597355 L 303.31010452961675 365.59546313799626 L 305.05226480836234 361.4366729678639 L 306.79442508710804 364.2722117202269 L 308.5365853658536 362.1928166351607 L 310.2787456445993 358.97920604914935 L 312.0209059233449 361.2476370510397 L 313.7630662020906 365.21739130434787 L 315.5052264808362 366.54064272211724 L 317.2473867595819 366.16257088846885 L 318.9895470383275 361.6257088846881 L 320.7317073170732 371.26654064272213 L 322.4738675958188 368.9981096408318 L 324.2160278745645 363.3270321361059 L 325.95818815331006 363.8941398865785 L 327.70034843205576 359.92438563327033 L 329.44250871080135 355.76559546313797 L 331.18466898954705 355.5765595463138 L 332.92682926829264 356.14366729678636 L 334.66898954703834 348.01512287334594 L 336.4111498257839 345.7466918714556 L 338.1533101045296 346.124763705104 L 339.8954703832752 346.88090737240077 L 341.6376306620209 338.75236294896035 L 343.3797909407665 337.9962192816635 L 345.1219512195122 334.593572778828 L 346.86411149825784 324.19659735349717 L 348.6062717770035 320.60491493383745 L 350.34843205574913 319.65973534971647 L 352.0905923344948 315.87901701323256 L 353.8327526132404 310.0189035916824 L 355.57491289198606 310.0189035916824 L 357.3170731707317 312.09829867674864 L 359.05923344947735 304.1587901701323 L 360.801393728223 310.5860113421551 L 362.54355400696863 307.750472589792 L 364.2857142857143 307.18336483931944 L 366.0278745644599 308.1285444234404 L 367.77003484320556 302.26843100189035 L 369.5121951219512 293.95085066162574 L 371.25435540069685 285.25519848771273 L 372.9965156794425 274.85822306238185 L 374.73867595818814 269.3761814744802 L 376.4808362369338 261.43667296786396 L 378.2229965156794 263.5160680529301 L 379.96515679442507 253.87523629489604 L 381.7073170731707 251.7958412098299 L 383.44947735191636 249.90548204158793 L 385.191637630662 243.47826086956522 L 386.93379790940764 237.80718336483935 L 388.6759581881533 232.8922495274102 L 390.41811846689893 233.83742911153118 L 392.1602787456446 236.29489603024578 L 393.9024390243902 224.95274102079398 L 395.6445993031359 224.76370510396978 L 397.3867595818815 227.03213610586013 L 399.1289198606272 222.49527410207938 L 400.8710801393728 223.8185255198488 L 402.6132404181185 215.50094517958414 L 404.3554006968641 208.31758034026464 L 406.0975609756097 207.37240075614366 L 407.83972125435537 204.53686200378073 L 409.581881533101 197.54253308128543 L 411.32404181184666 198.86578449905485 L 413.0662020905923 196.59735349716445 L 414.80836236933794 200.00000000000003 L 416.5505226480836 192.24952741020795 L 418.29268292682923 194.7069943289225 L 420.0348432055749 184.31001890359167 L 421.7770034843206 171.8336483931947 L 423.5191637630662 175.04725897920608 L 425.26132404181186 175.42533081285447 L 427.0034843205575 180.52930056710775 L 428.74564459930315 180.34026465028356 L 430.4878048780488 179.0170132325142 L 432.22996515679444 175.04725897920608 L 433.9721254355401 171.8336483931947 L 435.7142857142857 171.8336483931947 L 437.45644599303137 165.21739130434784 L 439.198606271777 158.97920604914933 L 440.94076655052265 152.74102079395087 L 442.6829268292683 149.33837429111534 L 444.42508710801394 148.58223062381856 L 446.1672473867596 154.44234404536863 L 447.9094076655052 153.49716446124765 L 449.65156794425087 148.77126654064276 L 451.3937282229965 145.36862003780718 L 453.13588850174216 144.8015122873346 L 454.8780487804878 138.18525519848777 L 456.62020905923345 134.97164461247633 L 458.3623693379791 135.91682419659742 L 460.10452961672473 134.97164461247633 L 461.8466898954704 139.69754253308133 L 463.588850174216 132.32514177693758 L 465.33101045296166 143.85633270321364 L 467.0731707317073 128.73345935727787 L 468.81533101045295 126.65406427221171 L 470.5574912891986 127.78827977315689 L 472.29965156794424 127.4102079395085 L 474.0418118466899 118.3364839319471 L 475.7839721254355 113.6105860113422 L 477.52613240418117 120.60491493383745 L 479.2682926829268 118.3364839319471 L 481.01045296167246 108.8846880907372 L 482.7526132404181 107.93950850661622 L 484.49477351916374 100 L 486.2369337979094 105.29300567107748 L 487.97909407665503 106.80529300567105 L 489.7212543554007 116.63516068052934 L 491.4634146341463 115.50094517958416 L 493.20557491289196 110.96408317580347 L 494.9477351916376 117.39130434782612 L 496.68989547038325 112.47637051039703 L 498.4320557491289 119.09262759924388 L 500.17421602787454 127.4102079395085 L 501.9163763066202 128.92249527410206 L 503.6585365853658 130.24574669187143 L 505.40069686411147 134.40453686200374 L 507.1428571428571 137.61814744801518 L 508.88501742160275 145.93572778827976 L 510.6271777003484 138.94139886578455 L 512.3693379790941 136.8620037807184 L 514.1114982578397 144.234404536862 L 515.8536585365853 148.01512287334597 L 517.595818815331 147.25897920604913 L 519.3379790940767 149.52741020793954 L 521.0801393728223 151.6068052930057 L 522.822299651568 149.90548204158793 L 524.5644599303137 157.84499054820415 L 526.3066202090592 155.1984877126654 L 528.0487804878048 164.08317580340267 L 529.7909407665505 166.7296786389414 L 531.5331010452962 175.04725897920608 L 533.2752613240418 170.69943289224952 L 535.0174216027874 179.0170132325142 L 536.7595818815331 174.6691871455577 L 538.5017421602788 173.7240075614367 L 540.2439024390244 173.15689981096412 L 541.98606271777 179.20604914933838 L 543.7282229965157 174.6691871455577 L 545.4703832752614 171.6446124763705 L 547.212543554007 173.34593572778832 L 548.9547038327526 173.9130434782609 L 550.6968641114983 177.31568998109643 L 552.439024390244 178.4499054820416 L 554.1811846689895 183.55387523629489 L 555.9233449477351 190.359168241966 L 557.6655052264808 201.3232514177694 L 559.4076655052265 207.18336483931947 L 561.1498257839721 210.77504725897924 L 562.8919860627177 210.2079395085066 L 564.6341463414634 206.61625708884688 L 566.3763066202091 212.2873345935728 L 568.1184668989547 215.31190926275994 L 569.8606271777003 220.41587901701322 L 571.602787456446 217.76937618147448 L 573.3449477351917 218.90359168241966 L 575.0871080139373 214.74480151228735 L 576.8292682926829 215.87901701323253 L 578.5714285714286 217.76937618147448 L 580.3135888501743 214.17769376181477 L 582.0557491289198 207.56143667296786 L 583.7979094076654 207.93950850661625 L 585.5400696864111 213.61058601134218 L 587.2822299651568 223.6294896030246 L 589.0243902439024 232.703213610586 L 590.766550522648 223.6294896030246 L 592.5087108013937 229.67863894139887 L 594.2508710801394 223.25141776937622 L 595.993031358885 227.78827977315692 L 597.7351916376306 228.7334593572779 L 599.4773519163763 233.64839319470698 L 601.219512195122 233.83742911153118 L 602.9616724738676 228.5444234404537 L 604.7038327526132 227.78827977315692 L 606.4459930313589 242.91115311909263 L 608.1881533101046 241.39886578449907 L 609.9303135888501 242.72211720226844 L 611.6724738675957 240.0756143667297 L 613.4146341463414 242.53308128544424 L 615.1567944250871 248.77126654064276 L 616.8989547038327 253.87523629489604 L 618.6411149825783 250.6616257088847 L 620.383275261324 250.47258979206052 L 622.1254355400697 248.58223062381856 L 623.8675958188153 249.14933837429115 L 625.609756097561 256.33270321361056 L 627.3519163763067 257.46691871455573 L 629.0940766550523 259.5463137996219 L 630.8362369337979 269.5652173913044 L 632.5783972125436 271.6446124763705 L 634.3205574912893 282.0415879017013 L 636.0627177700349 279.96219281663514 L 637.8048780487804 282.6086956521739 L 639.5470383275261 284.49905482041584 L 641.2891986062718 291.8714555765596 L 643.0313588850174 300.5671077504726 L 644.773519163763 301.1342155009452 L 646.5156794425087 301.32325141776937 L 648.2578397212544 304.3478260869565 L 650 304.9149338374291 L 650 400 Z" /><text  class="poloto_labels poloto_text poloto_title" alignment-baseline="start" text-anchor="middle" font-size="x-large" x="400" y="37.5" >Total players on 2021-06-17</text><text  class="poloto_labels poloto_text poloto_xname" alignment-baseline="start" text-anchor="middle" font-size="x-large" x="400" y="481.25" >Time</text><text  class="poloto_labels poloto_text poloto_yname" alignment-baseline="start" text-anchor="middle" font-size="x-large" transform="rotate(-90,37.5,250)" x="37.5" y="250" >Count</text><line  class="poloto_axis_lines" stroke="black" x1="208.0487804878049" x2="208.0487804878049" y1="400" y2="405" /><text  class="poloto_tick_labels poloto_text" alignment-baseline="start" text-anchor="middle" x="208.0487804878049" y="430" > 03:00</text><line  class="poloto_axis_lines" stroke="black" x1="266.1207897793264" x2="266.1207897793264" y1="400" y2="405" /><text  class="poloto_tick_labels poloto_text" alignment-baseline="start" text-anchor="middle" x="266.1207897793264" y="430" > 06:00</text><line  class="poloto_axis_lines" stroke="black" x1="324.19279907084785" x2="324.19279907084785" y1="400" y2="405" /><text  class="poloto_tick_labels poloto_text" alignment-baseline="start" text-anchor="middle" x="324.19279907084785" y="430" > 08:00</text><line  class="poloto_axis_lines" stroke="black" x1="382.2648083623693" x2="382.2648083623693" y1="400" y2="405" /><text  class="poloto_tick_labels poloto_text" alignment-baseline="start" text-anchor="middle" x="382.2648083623693" y="430" > 11:00</text><line  class="poloto_axis_lines" stroke="black" x1="440.3368176538908" x2="440.3368176538908" y1="400" y2="405" /><text  class="poloto_tick_labels poloto_text" alignment-baseline="start" text-anchor="middle" x="440.3368176538908" y="430" > 14:00</text><line  class="poloto_axis_lines" stroke="black" x1="498.4088269454123" x2="498.4088269454123" y1="400" y2="405" /><text  class="poloto_tick_labels poloto_text" alignment-baseline="start" text-anchor="middle" x="498.4088269454123" y="430" > 17:00</text><line  class="poloto_axis_lines" stroke="black" x1="556.4808362369338" x2="556.4808362369338" y1="400" y2="405" /><text  class="poloto_tick_labels poloto_text" alignment-baseline="start" text-anchor="middle" x="556.4808362369338" y="430" > 19:00</text><line  class="poloto_axis_lines" stroke="black" x1="614.5528455284552" x2="614.5528455284552" y1="400" y2="405" /><text  class="poloto_tick_labels poloto_text" alignment-baseline="start" text-anchor="middle" x="614.5528455284552" y="430" > 22:00</text><line  class="poloto_axis_lines" stroke="black" x1="150" x2="144" y1="389.60302457466923" y2="389.60302457466923" /><text  class="poloto_tick_labels poloto_text" alignment-baseline="middle" text-anchor="end" x="135" y="389.60302457466923" > 1000</text><line  class="poloto_axis_lines" stroke="black" x1="150" x2="144" y1="295.0850661625709" y2="295.0850661625709" /><text  class="poloto_tick_labels poloto_text" alignment-baseline="middle" text-anchor="end" x="135" y="295.0850661625709" > 1500</text><line  class="poloto_axis_lines" stroke="black" x1="150" x2="144" y1="200.5671077504726" y2="200.5671077504726" /><text  class="poloto_tick_labels poloto_text" alignment-baseline="middle" text-anchor="end" x="135" y="200.5671077504726" > 2000</text><line  class="poloto_axis_lines" stroke="black" x1="150" x2="144" y1="106.04914933837426" y2="106.04914933837426" /><text  class="poloto_tick_labels poloto_text" alignment-baseline="middle" text-anchor="end" x="135" y="106.04914933837426" > 2500</text><path  stroke="black" fill="none" class="poloto_axis_lines" style="stroke-dasharray:14.518002322880372;stroke-dashoffset:-58.04878048780488;" d=" M 150 400 L 650 400" /><path  stroke="black" fill="none" class="poloto_axis_lines" style="stroke-dasharray:9.45179584120983;stroke-dashoffset:-10.396975425330794;" d=" M 150 400 L 150 100" /></svg>