<svg class="poloto" width="800" height="500" viewBox="0 0 800 500" xmlns="http://www.w3.org/2000/svg"><style>.poloto { stroke-linecap:round; stroke-linejoin:round; font-family: 'Tahoma', sans-serif; background-color: AliceBlue;} .poloto_scatter{stroke-width:7} .poloto_line{stroke-width:2} .poloto_text{fill: black;} .poloto_axis_lines{stroke: black;stroke-width:3;fill:none;stroke-dasharray:none} .poloto0stroke{stroke:  blue;} .poloto1stroke{stroke:  red;} .poloto2stroke{stroke:  green;} .poloto3stroke{stroke:  gold;} .poloto4stroke{stroke:  aqua;} .poloto5stroke{stroke:  lime;} .poloto6stroke{stroke:  orange;} .poloto7stroke{stroke:  chocolate;} .poloto0fill{fill:blue;} .poloto1fill{fill:red;} .poloto2fill{fill:green;} .poloto3fill{fill:gold;} .poloto4fill{fill:aqua;} .poloto5fill{fill:lime;} .poloto6fill{fill:orange;} .poloto7fill{fill:chocolate;}</style><text  class="poloto_text poloto_legend_text" alignment-baseline="middle" text-anchor="start" font-size="large" x="675" y="100" ></text><path  class="poloto_linefill poloto0fill" d=" M 150 400 L 150 343.80719951189747 L 151.74216027874564 348.2001220256254 L 153.4843205574913 357.35204392922515 L 155.22648083623693 357.71812080536915 L 156.96864111498257 362.660158633313 L 158.71080139372822 363.392312385601 L 160.45296167247386 369.6156192800488 L 162.1951219512195 371.6290420988407 L 163.93728222996515 371.4460036607687 L 165.6794425087108 371.6290420988407 L 167.42160278745644 379.3166564978645 L 169.16376306620208 379.68273337400854 L 170.90592334494772 380.7809640024405 L 172.64808362369337 379.3166564978645 L 174.390243902439 381.33007931665645 L 176.13240418118465 383.34350213544843 L 177.8745644599303 385.90604026845637 L 179.61672473867597 389.56680902989626 L 181.3588850174216 388.10250152532035 L 183.10104529616726 395.9731543624161 L 184.8432055749129 398.71873093349603 L 186.58536585365854 392.3123856009762 L 188.3275261324042 393.59365466748017 L 190.06968641114983 397.9865771812081 L 191.81184668989548 400 L 193.55400696864112 396.70530811470405 L 195.29616724738676 396.3392312385601 L 197.0383275261324 394.69188529591213 L 198.78048780487805 396.1561928004881 L 200.5226480836237 396.3392312385601 L 202.26480836236934 394.1427699816961 L 204.00696864111498 389.56680902989626 L 205.74912891986062 385.5399633923124 L 207.49128919860627 386.4551555826723 L 209.2334494773519 379.3166564978645 L 210.97560975609755 374.55765710799267 L 212.7177700348432 376.3880414887126 L 214.45993031358887 372.17815741305674 L 216.2020905923345 374.19158023184866 L 217.94425087108016 372.72727272727275 L 219.6864111498258 383.34350213544843 L 221.42857142857144 382.7943868212325 L 223.1707317073171 388.83465527760825 L 224.91289198606273 386.8212324588163 L 226.65505226480838 391.03111653447223 L 228.39721254355402 386.2721171446003 L 230.13937282229966 384.2586943258084 L 231.8815331010453 374.55765710799267 L 233.62369337979095 375.1067724222087 L 235.3658536585366 374.55765710799267 L 237.10801393728224 376.7541183648566 L 238.85017421602788 375.65588773642463 L 240.59233449477352 380.04881025015254 L 242.33449477351917 378.9505796217205 L 244.0766550522648 377.4862721171446 L 245.81881533101046 368.33435021354484 L 247.5609756097561 368.8834655277608 L 249.30313588850174 372.54423428920074 L 251.0452961672474 377.8523489932886 L 252.78745644599303 371.2629652226967 L 254.52961672473867 370.71384990848077 L 256.2717770034843 372.17815741305674 L 258.01393728222996 376.9371568029286 L 259.7560975609756 373.82550335570465 L 261.49825783972125 371.2629652226967 L 263.2404181184669 367.2361195851129 L 264.98257839721254 365.03965832824895 L 266.7247386759582 365.03965832824895 L 268.4668989547038 367.05308114704087 L 270.20905923344947 371.99511897498473 L 271.9512195121951 374.37461866992066 L 273.69337979094075 372.36119585112874 L 275.4355400696864 377.3032336790726 L 277.17770034843204 372.54423428920074 L 278.9198606271777 370.89688834655277 L 280.6620209059233 365.7718120805369 L 282.40418118466897 368.7004270896888 L 284.1463414634146 370.3477730323368 L 285.88850174216026 360.82977425259304 L 287.6306620209059 360.46369737644903 L 289.37282229965155 352.4100061012813 L 291.1149825783972 353.6912751677852 L 292.85714285714283 353.8743136058572 L 294.5993031358885 351.8608907870653 L 296.3414634146342 355.52165954850517 L 298.08362369337976 352.7760829774253 L 299.82578397212546 350.03050640634535 L 301.56794425087105 353.14215985356924 L 303.31010452961675 355.52165954850517 L 305.05226480836234 360.82977425259304 L 306.79442508710804 360.2806589383771 L 308.5365853658536 355.52165954850517 L 310.2787456445993 358.63331299572906 L 312.0209059233449 357.9011592434411 L 313.7630662020906 363.02623550945697 L 315.5052264808362 365.22269676632095 L 317.2473867595819 362.477120195241 L 318.9895470383275 358.81635143380106 L 320.7317073170732 357.53508236729715 L 322.4738675958188 351.8608907870653 L 324.2160278745645 352.7760829774253 L 325.95818815331006 351.31177547284926 L 327.70034843205576 354.6064673581452 L 329.44250871080135 352.4100061012813 L 331.18466898954705 344.3563148261135 L 332.92682926829264 344.9054301403295 L 334.66898954703834 337.94996949359364 L 336.4111498257839 335.3874313605857 L 338.1533101045296 335.3874313605857 L 339.8954703832752 335.02135448444176 L 341.6376306620209 330.6284319707138 L 343.3797909407665 325.5033557046979 L 345.1219512195122 328.06589383770586 L 346.86411149825784 317.0835875533862 L 348.6062717770035 315.4362416107382 L 350.34843205574913 313.6058572300183 L 352.0905923344948 309.0298962782184 L 353.8327526132404 307.0164734594265 L 355.57491289198606 309.0298962782184 L 357.3170731707317 302.25747406955463 L 359.05923344947735 300.0610128126907 L 360.801393728223 294.75289810860284 L 362.54355400696863 289.44478340451496 L 364.2857142857143 283.2214765100671 L 366.0278745644599 281.02501525320315 L 367.77003484320556 271.50701647345943 L 369.5121951219512 274.8017083587554 L 371.25435540069685 268.3953630262355 L 372.9965156794425 265.83282489322755 L 374.73867595818814 259.9755948749237 L 376.4808362369338 262.3550945698596 L 378.2229965156794 259.6095179987798 L 379.96515679442507 248.62721171446 L 381.7073170731707 243.50213544844414 L 383.44947735191636 241.3056741915802 L 385.191637630662 236.72971323978035 L 386.93379790940764 226.84563758389262 L 388.6759581881533 228.1269066503966 L 390.41811846689893 231.60463697376449 L 392.1602787456446 232.88590604026845 L 393.9024390243902 231.7876754118365 L 395.6445993031359 229.7742525930445 L 397.3867595818815 231.97071384990844 L 399.1289198606272 229.5912141549725 L 400.8710801393728 222.81879194630872 L 402.6132404181185 226.1134838316046 L 404.3554006968641 231.60463697376449 L 406.0975609756097 228.67602196461254 L 407.83972125435537 224.46613788895664 L 409.581881533101 220.4392922513728 L 411.32404181184666 218.2428309945088 L 413.0662020905923 223.73398413666868 L 414.80836236933794 210.738255033557 L 416.5505226480836 218.4258694325808 L 418.29268292682923 201.5863331299573 L 420.0348432055749 199.02379499694936 L 421.7770034843206 192.98352654057348 L 423.5191637630662 186.76021964612565 L 425.26132404181186 179.07260524710185 L 427.0034843205575 182.91641244661375 L 428.74564459930315 194.81391092129346 L 430.4878048780488 184.92983526540573 L 432.22996515679444 177.24222086638193 L 433.9721254355401 173.58145210494203 L 435.7142857142857 176.32702867602197 L 437.45644599303137 170.10372178157414 L 439.198606271777 168.27333740085416 L 440.94076655052265 161.50091519219032 L 442.6829268292683 154.54545454545453 L 444.42508710801394 145.21049420378276 L 446.1672473867596 147.22391702257474 L 447.9094076655052 145.75960951799877 L 449.65156794425087 145.75960951799877 L 451.3937282229965 148.68822452715065 L 453.13588850174216 129.65222696766318 L 454.8780487804878 127.08968883465525 L 456.62020905923345 133.67907260524703 L 458.3623693379791 121.23245881635137 L 460.10452961672473 122.51372788285539 L 461.8466898954704 126.17449664429523 L 463.588850174216 124.89322757779132 L 465.33101045296166 126.54057352043924 L 467.0731707317073 128.37095790115927 L 468.81533101045295 132.94691885295913 L 470.5574912891986 135.14338010982306 L 472.29965156794424 129.28615009151918 L 474.0418118466899 125.44234289200733 L 475.7839721254355 121.78157413056738 L 477.52613240418117 126.35753508236724 L 479.2682926829268 125.80841976815134 L 481.01045296167246 121.41549725442337 L 482.7526132404181 117.57169005491153 L 484.49477351916374 108.05369127516781 L 486.2369337979094 110.43319097010374 L 487.97909407665503 101.28126906650391 L 489.7212543554007 104.94203782794386 L 491.4634146341463 100 L 493.20557491289196 101.46430750457591 L 494.9477351916376 110.06711409395973 L 496.68989547038325 108.05369127516781 L 498.4320557491289 111.89749847467965 L 500.17421602787454 109.33496034167172 L 501.9163763066202 118.30384380719954 L 503.6585365853658 105.85723001830377 L 505.40069686411147 110.98230628431963 L 507.1428571428571 102.19646125686393 L 508.88501742160275 105.49115314215987 L 510.6271777003484 109.33496034167172 L 512.3693379790941 114.09395973154358 L 514.1114982578397 118.48688224527143 L 515.8536585365853 111.71446003660765 L 517.595818815331 118.12080536912754 L 519.3379790940767 121.23245881635137 L 521.0801393728223 133.86211104331903 L 522.822299651568 145.57657107992677 L 524.5644599303137 151.6168395363026 L 526.3066202090592 158.20622330689443 L 528.0487804878048 157.47406955460647 L 529.7909407665505 165.34472239170222 L 531.5331010452962 172.48322147651007 L 533.2752613240418 170.8358755338621 L 535.0174216027874 166.6259914582062 L 536.7595818815331 177.42525930445393 L 538.5017421602788 178.3404514948139 L 540.2439024390244 182.91641244661375 L 541.98606271777 183.64856619890176 L 543.7282229965157 177.79133618059788 L 545.4703832752614 178.7065283709579 L 547.212543554007 189.13971934106158 L 548.9547038327526 191.15314215985356 L 550.6968641114983 189.50579621720559 L 552.439024390244 183.83160463697376 L 554.1811846689895 187.8584502745576 L 555.9233449477351 193.5326418547895 L 557.6655052264808 190.0549115314216 L 559.4076655052265 190.97010372178156 L 561.1498257839721 198.29164124466135 L 562.8919860627177 199.57291031116532 L 564.6341463414634 197.1934106162294 L 566.3763066202091 199.57291031116532 L 568.1184668989547 202.31848688224525 L 569.8606271777003 205.2471018913972 L 571.602787456446 210.921293471629 L 573.3449477351917 205.79621720561315 L 575.0871080139373 207.0774862721171 L 576.8292682926829 209.64002440512505 L 578.5714285714286 209.0909090909091 L 580.3135888501743 206.52837095790116 L 582.0557491289198 201.2202562538133 L 583.7979094076654 205.2471018913972 L 585.5400696864111 205.61317876754114 L 587.2822299651568 207.80964002440513 L 589.0243902439024 216.22940817571688 L 590.766550522648 210.37217815741306 L 592.5087108013937 210.555216595485 L 594.2508710801394 208.54179377669308 L 595.993031358885 213.11775472849294 L 597.7351916376306 206.34533251982916 L 599.4773519163763 216.5954850518609 L 601.219512195122 220.4392922513728 L 602.9616724738676 216.5954850518609 L 604.7038327526132 231.23856009762048 L 606.4459930313589 229.9572910311165 L 608.1881533101046 230.68944478340453 L 609.9303135888501 238.92617449664428 L 611.6724738675957 246.9798657718121 L 613.4146341463414 244.05125076266015 L 615.1567944250871 249.54240390482002 L 616.8989547038327 255.39963392312384 L 618.6411149825783 261.2568639414277 L 620.383275261324 260.1586333129957 L 622.1254355400697 261.4399023794997 L 623.8675958188153 260.7077486272117 L 625.609756097561 272.78828553996334 L 627.3519163763067 273.15436241610735 L 629.0940766550523 279.74374618669924 L 630.8362369337979 281.75716900549116 L 632.5783972125436 280.10982306284313 L 634.3205574912893 289.07870652837096 L 636.0627177700349 301.5253203172666 L 637.8048780487804 305.18608907870646 L 639.5470383275261 313.23978035387427 L 641.2891986062718 320.56131787675406 L 643.0313588850174 324.588163514338 L 644.773519163763 326.60158633312994 L 646.5156794425087 326.41854789505794 L 648.2578397212544 333.0079316656498 L 650 335.3874313605857 L 650 400 Z" /><text  class="poloto_labels poloto_text poloto_title" alignment-baseline="start" text-anchor="middle" font-size="x-large" x="400" y="37.5" >Total players on 2021-06-07</text><text  class="poloto_labels poloto_text poloto_xname" alignment-baseline="start" text-anchor="middle" font-size="x-large" x="400" y="481.25" >Time</text><text  class="poloto_labels poloto_text poloto_yname" alignment-baseline="start" text-anchor="middle" font-size="x-large" transform="rotate(-90,37.5,250)" x="37.5" y="250" >Count</text><line  class="poloto_axis_lines" stroke="black" x1="208.0487804878049" x2="208.0487804878049" y1="400" y2="405" /><text  class="poloto_tick_labels poloto_text" alignment-baseline="start" text-anchor="middle" x="208.0487804878049" y="430" > 03:00</text><line  class="poloto_axis_lines" stroke="black" x1="266.1207897793264" x2="266.1207897793264" y1="400" y2="405" /><text  class="poloto_tick_labels poloto_text" alignment-baseline="start" text-anchor="middle" x="266.1207897793264" y="430" > 06:00</text><line  class="poloto_axis_lines" stroke="black" x1="324.19279907084785" x2="324.19279907084785" y1="400" y2="405" /><text  class="poloto_tick_labels poloto_text" alignment-baseline="start" text-anchor="middle" x="324.19279907084785" y="430" > 08:00</text><line  class="poloto_axis_lines" stroke="black" x1="382.2648083623693" x2="382.2648083623693" y1="400" y2="405" /><text  class="poloto_tick_labels poloto_text" alignment-baseline="start" text-anchor="middle" x="382.2648083623693" y="430" > 11:00</text><line  class="poloto_axis_lines" stroke="black" x1="440.3368176538908" x2="440.3368176538908" y1="400" y2="405" /><text  class="poloto_tick_labels poloto_text" alignment-baseline="start" text-anchor="middle" x="440.3368176538908" y="430" > 14:00</text><line  class="poloto_axis_lines" stroke="black" x1="498.4088269454123" x2="498.4088269454123" y1="400" y2="405" /><text  class="poloto_tick_labels poloto_text" alignment-baseline="start" text-anchor="middle" x="498.4088269454123" y="430" > 17:00</text><line  class="poloto_axis_lines" stroke="black" x1="556.4808362369338" x2="556.4808362369338" y1="400" y2="405" /><text  class="poloto_tick_labels poloto_text" alignment-baseline="start" text-anchor="middle" x="556.4808362369338" y="430" > 19:00</text><line  class="poloto_axis_lines" stroke="black" x1="614.5528455284552" x2="614.5528455284552" y1="400" y2="405" /><text  class="poloto_tick_labels poloto_text" alignment-baseline="start" text-anchor="middle" x="614.5528455284552" y="430" > 22:00</text><line  class="poloto_axis_lines" stroke="black" x1="150" x2="144" y1="313.9719341061623" y2="313.9719341061623" /><text  class="poloto_tick_labels poloto_text" alignment-baseline="middle" text-anchor="end" x="135" y="313.9719341061623" > 1500</text><line  class="poloto_axis_lines" stroke="black" x1="150" x2="144" y1="222.4527150701647" y2="222.4527150701647" /><text  class="poloto_tick_labels poloto_text" alignment-baseline="middle" text-anchor="end" x="135" y="222.4527150701647" > 2000</text><line  class="poloto_axis_lines" stroke="black" x1="150" x2="144" y1="130.9334960341672" y2="130.9334960341672" /><text  class="poloto_tick_labels poloto_text" alignment-baseline="middle" text-anchor="end" x="135" y="130.9334960341672" > 2500</text><path  stroke="black" fill="none" class="poloto_axis_lines" style="stroke-dasharray:14.518002322880372;stroke-dashoffset:-58.04878048780488;" d=" M 150 400 L 650 400" /><path  stroke="black" fill="none" class="poloto_axis_lines" style="stroke-dasharray:9.151921903599757;stroke-dashoffset:-86.02806589383769;" d=" M 150 400 L 150 100" /></svg>