<svg class="poloto" width="800" height="500" viewBox="0 0 800 500" xmlns="http://www.w3.org/2000/svg"><style>.poloto { stroke-linecap:round; stroke-linejoin:round; font-family: 'Tahoma', sans-serif; background-color: AliceBlue;} .poloto_scatter{stroke-width:7} .poloto_line{stroke-width:2} .poloto_text{fill: black;} .poloto_axis_lines{stroke: black;stroke-width:3;fill:none;stroke-dasharray:none} .poloto0stroke{stroke:  blue;} .poloto1stroke{stroke:  red;} .poloto2stroke{stroke:  green;} .poloto3stroke{stroke:  gold;} .poloto4stroke{stroke:  aqua;} .poloto5stroke{stroke:  lime;} .poloto6stroke{stroke:  orange;} .poloto7stroke{stroke:  chocolate;} .poloto0fill{fill:blue;} .poloto1fill{fill:red;} .poloto2fill{fill:green;} .poloto3fill{fill:gold;} .poloto4fill{fill:aqua;} .poloto5fill{fill:lime;} .poloto6fill{fill:orange;} .poloto7fill{fill:chocolate;}</style><text  class="poloto_text poloto_legend_text" alignment-baseline="middle" text-anchor="start" font-size="large" x="675" y="100" ></text><path  class="poloto_linefill poloto0fill" d=" M 150 400 L 150 336.2704918032787 L 151.74216027874564 345.28688524590166 L 153.4843205574913 341.18852459016387 L 155.22648083623693 334.22131147540983 L 156.96864111498257 337.9098360655737 L 158.71080139372822 351.2295081967213 L 160.45296167247386 360.04098360655735 L 162.1951219512195 359.6311475409836 L 163.93728222996515 364.54918032786884 L 165.6794425087108 364.344262295082 L 167.42160278745644 367.62295081967216 L 169.16376306620208 368.44262295081967 L 170.90592334494772 370.69672131147536 L 172.64808362369337 376.639344262295 L 174.390243902439 375.40983606557376 L 176.13240418118465 384.22131147540983 L 177.8745644599303 382.78688524590166 L 179.61672473867597 388.9344262295082 L 181.3588850174216 387.90983606557376 L 183.10104529616726 393.8524590163934 L 184.8432055749129 387.5 L 186.58536585365854 384.8360655737705 L 188.3275261324042 382.58196721311475 L 190.06968641114983 387.5 L 191.81184668989548 391.8032786885246 L 193.55400696864112 386.6803278688525 L 195.29616724738676 388.9344262295082 L 197.0383275261324 389.344262295082 L 198.78048780487805 385.45081967213116 L 200.5226480836237 386.0655737704918 L 202.26480836236934 389.9590163934426 L 204.00696864111498 392.4180327868852 L 205.74912891986062 391.8032786885246 L 207.49128919860627 397.1311475409836 L 209.2334494773519 397.95081967213116 L 210.97560975609755 400 L 212.7177700348432 390.983606557377 L 214.45993031358887 389.139344262295 L 216.2020905923345 388.7295081967213 L 217.94425087108016 388.9344262295082 L 219.6864111498258 386.6803278688525 L 221.42857142857144 381.1475409836065 L 223.1707317073171 382.172131147541 L 224.91289198606273 376.4344262295082 L 226.65505226480838 377.2540983606557 L 228.39721254355402 373.9754098360655 L 230.13937282229966 367.62295081967216 L 231.8815331010453 367.62295081967216 L 233.62369337979095 368.44262295081967 L 235.3658536585366 371.9262295081967 L 237.10801393728224 371.5163934426229 L 238.85017421602788 369.2622950819672 L 240.59233449477352 369.4672131147541 L 242.33449477351917 363.11475409836066 L 244.0766550522648 362.0901639344262 L 245.81881533101046 351.844262295082 L 247.5609756097561 361.6803278688525 L 249.30313588850174 362.90983606557376 L 251.0452961672474 357.9918032786885 L 252.78745644599303 358.4016393442623 L 254.52961672473867 358.19672131147536 L 256.2717770034843 353.483606557377 L 258.01393728222996 349.79508196721315 L 259.7560975609756 350.8196721311475 L 261.49825783972125 344.87704918032784 L 263.2404181184669 344.87704918032784 L 264.98257839721254 345.28688524590166 L 266.7247386759582 346.9262295081967 L 268.4668989547038 346.72131147540983 L 270.20905923344947 347.95081967213116 L 271.9512195121951 352.04918032786884 L 273.69337979094075 353.27868852459017 L 275.4355400696864 351.844262295082 L 277.17770034843204 352.86885245901635 L 278.9198606271777 348.36065573770486 L 280.6620209059233 344.2622950819672 L 282.40418118466897 342.21311475409834 L 284.1463414634146 345.28688524590166 L 285.88850174216026 344.2622950819672 L 287.6306620209059 344.87704918032784 L 289.37282229965155 340.1639344262295 L 291.1149825783972 332.78688524590166 L 292.85714285714283 336.0655737704918 L 294.5993031358885 325.8196721311475 L 296.3414634146342 328.27868852459017 L 298.08362369337976 331.3524590163935 L 299.82578397212546 326.2295081967213 L 301.56794425087105 322.13114754098365 L 303.31010452961675 344.46721311475403 L 305.05226480836234 325.20491803278685 L 306.79442508710804 319.87704918032784 L 308.5365853658536 317.827868852459 L 310.2787456445993 321.72131147540983 L 312.0209059233449 321.72131147540983 L 313.7630662020906 316.5983606557377 L 315.5052264808362 311.4754098360655 L 317.2473867595819 317.0081967213115 L 318.9895470383275 315.983606557377 L 320.7317073170732 313.9344262295082 L 322.4738675958188 313.3196721311475 L 324.2160278745645 316.80327868852453 L 325.95818815331006 313.7295081967213 L 327.70034843205576 308.4016393442623 L 329.44250871080135 310.04098360655735 L 331.18466898954705 313.11475409836066 L 332.92682926829264 312.0901639344262 L 334.66898954703834 305.12295081967216 L 336.4111498257839 295.4918032786885 L 338.1533101045296 298.7704918032787 L 339.8954703832752 298.155737704918 L 341.6376306620209 294.05737704918033 L 343.3797909407665 292.21311475409834 L 345.1219512195122 288.52459016393436 L 346.86411149825784 285.04098360655735 L 348.6062717770035 281.96721311475403 L 350.34843205574913 277.45901639344265 L 352.0905923344948 276.02459016393436 L 353.8327526132404 267.4180327868852 L 355.57491289198606 268.44262295081967 L 357.3170731707317 258.811475409836 L 359.05923344947735 262.29508196721315 L 360.801393728223 257.172131147541 L 362.54355400696863 255.12295081967213 L 364.2857142857143 253.48360655737704 L 366.0278745644599 255.12295081967213 L 367.77003484320556 252.86885245901638 L 369.5121951219512 254.30327868852456 L 371.25435540069685 246.31147540983605 L 372.9965156794425 249.18032786885246 L 374.73867595818814 244.46721311475406 L 376.4808362369338 247.74590163934423 L 378.2229965156794 240.98360655737704 L 379.96515679442507 238.5245901639344 L 381.7073170731707 223.97540983606555 L 383.44947735191636 218.64754098360655 L 385.191637630662 224.79508196721312 L 386.93379790940764 220.28688524590163 L 388.6759581881533 205.94262295081964 L 390.41811846689893 214.34426229508196 L 392.1602787456446 222.54098360655738 L 393.9024390243902 209.83606557377047 L 395.6445993031359 208.81147540983605 L 397.3867595818815 215.36885245901638 L 399.1289198606272 203.48360655737704 L 400.8710801393728 197.74590163934423 L 402.6132404181185 209.01639344262296 L 404.3554006968641 208.81147540983605 L 406.0975609756097 191.5983606557377 L 407.83972125435537 194.0573770491803 L 409.581881533101 201.0245901639344 L 411.32404181184666 201.63934426229505 L 413.0662020905923 206.5573770491803 L 414.80836236933794 198.3606557377049 L 416.5505226480836 198.3606557377049 L 418.29268292682923 191.1885245901639 L 420.0348432055749 184.2213114754098 L 421.7770034843206 177.0491803278688 L 423.5191637630662 171.31147540983605 L 425.26132404181186 174.18032786885246 L 427.0034843205575 169.2622950819672 L 428.74564459930315 175.20491803278688 L 430.4878048780488 185.04098360655738 L 432.22996515679444 165.36885245901638 L 433.9721254355401 174.3852459016393 L 435.7142857142857 163.31967213114754 L 437.45644599303137 161.8852459016393 L 439.198606271777 156.14754098360655 L 440.94076655052265 181.14754098360655 L 442.6829268292683 159.4262295081967 L 444.42508710801394 169.67213114754097 L 446.1672473867596 159.83606557377047 L 447.9094076655052 148.77049180327865 L 449.65156794425087 141.18852459016387 L 451.3937282229965 144.87704918032787 L 453.13588850174216 138.72950819672133 L 454.8780487804878 143.03278688524586 L 456.62020905923345 139.95901639344265 L 458.3623693379791 128.89344262295083 L 460.10452961672473 148.5655737704918 L 461.8466898954704 141.39344262295083 L 463.588850174216 139.13934426229503 L 465.33101045296166 137.9098360655737 L 467.0731707317073 143.64754098360652 L 468.81533101045295 119.26229508196718 L 470.5574912891986 115.77868852459017 L 472.29965156794424 113.52459016393436 L 474.0418118466899 110.2459016393442 L 475.7839721254355 116.39344262295083 L 477.52613240418117 112.29508196721315 L 479.2682926829268 103.89344262295083 L 481.01045296167246 100.81967213114751 L 482.7526132404181 108.81147540983602 L 484.49477351916374 117.62295081967216 L 486.2369337979094 110.2459016393442 L 487.97909407665503 105.12295081967216 L 489.7212543554007 100 L 491.4634146341463 105.53278688524586 L 493.20557491289196 101.22950819672133 L 494.9477351916376 111.06557377049182 L 496.68989547038325 110.2459016393442 L 498.4320557491289 118.44262295081967 L 500.17421602787454 114.13934426229503 L 501.9163763066202 114.54918032786884 L 503.6585365853658 123.56557377049182 L 505.40069686411147 118.64754098360652 L 507.1428571428571 119.87704918032784 L 508.88501742160275 126.43442622950818 L 510.6271777003484 145.28688524590163 L 512.3693379790941 149.99999999999997 L 514.1114982578397 150.81967213114754 L 515.8536585365853 146.10655737704914 L 517.595818815331 151.84426229508196 L 519.3379790940767 164.13934426229505 L 521.0801393728223 168.2377049180328 L 522.822299651568 170.28688524590163 L 524.5644599303137 159.83606557377047 L 526.3066202090592 173.5655737704918 L 528.0487804878048 179.7131147540983 L 529.7909407665505 184.4262295081967 L 531.5331010452962 177.86885245901638 L 533.2752613240418 187.49999999999997 L 535.0174216027874 184.4262295081967 L 536.7595818815331 191.3934426229508 L 538.5017421602788 216.1885245901639 L 540.2439024390244 213.31967213114754 L 541.98606271777 210.24590163934423 L 543.7282229965157 204.91803278688522 L 545.4703832752614 206.3524590163934 L 547.212543554007 212.29508196721312 L 548.9547038327526 212.09016393442622 L 550.6968641114983 214.13934426229505 L 552.439024390244 210.04098360655738 L 554.1811846689895 214.34426229508196 L 555.9233449477351 206.5573770491803 L 557.6655052264808 209.01639344262296 L 559.4076655052265 210.04098360655738 L 561.1498257839721 216.80327868852456 L 562.8919860627177 221.7213114754098 L 564.6341463414634 229.50819672131146 L 566.3763066202091 245.49180327868848 L 568.1184668989547 242.41803278688522 L 569.8606271777003 249.18032786885246 L 571.602787456446 250.20491803278688 L 573.3449477351917 256.55737704918033 L 575.0871080139373 259.016393442623 L 576.8292682926829 243.2377049180328 L 578.5714285714286 240.16393442622947 L 580.3135888501743 235.8606557377049 L 582.0557491289198 234.01639344262296 L 583.7979094076654 235.04098360655738 L 585.5400696864111 235.45081967213113 L 587.2822299651568 237.09016393442622 L 589.0243902439024 236.0655737704918 L 590.766550522648 239.95901639344262 L 592.5087108013937 230.32786885245898 L 594.2508710801394 221.7213114754098 L 595.993031358885 228.27868852459014 L 597.7351916376306 231.5573770491803 L 599.4773519163763 242.62295081967213 L 601.219512195122 253.8934426229508 L 602.9616724738676 255.12295081967213 L 604.7038327526132 249.99999999999997 L 606.4459930313589 247.33606557377047 L 608.1881533101046 256.3524590163935 L 609.9303135888501 257.9918032786885 L 611.6724738675957 269.46721311475403 L 613.4146341463414 266.18852459016387 L 615.1567944250871 271.72131147540983 L 616.8989547038327 275.4098360655737 L 618.6411149825783 276.02459016393436 L 620.383275261324 285.45081967213116 L 622.1254355400697 278.483606557377 L 623.8675958188153 275.8196721311475 L 625.609756097561 273.36065573770486 L 627.3519163763067 278.483606557377 L 629.0940766550523 281.7622950819672 L 630.8362369337979 284.63114754098353 L 632.5783972125436 283.4016393442623 L 634.3205574912893 294.672131147541 L 636.0627177700349 293.03278688524586 L 637.8048780487804 297.95081967213116 L 639.5470383275261 298.7704918032787 L 641.2891986062718 300.4098360655737 L 643.0313588850174 304.5081967213115 L 644.773519163763 319.672131147541 L 646.5156794425087 321.9262295081967 L 648.2578397212544 324.5901639344262 L 650 325.61475409836066 L 650 400 Z" /><text  class="poloto_labels poloto_text poloto_title" alignment-baseline="start" text-anchor="middle" font-size="x-large" x="400" y="37.5" >Total players on 2021-07-08</text><text  class="poloto_labels poloto_text poloto_xname" alignment-baseline="start" text-anchor="middle" font-size="x-large" x="400" y="481.25" >Time</text><text  class="poloto_labels poloto_text poloto_yname" alignment-baseline="start" text-anchor="middle" font-size="x-large" transform="rotate(-90,37.5,250)" x="37.5" y="250" >Count</text><line  class="poloto_axis_lines" stroke="black" x1="208.0487804878049" x2="208.0487804878049" y1="400" y2="405" /><text  class="poloto_tick_labels poloto_text" alignment-baseline="start" text-anchor="middle" x="208.0487804878049" y="430" > 02:46:40</text><line  class="poloto_axis_lines" stroke="black" x1="266.1207897793264" x2="266.1207897793264" y1="400" y2="405" /><text  class="poloto_tick_labels poloto_text" alignment-baseline="start" text-anchor="middle" x="266.1207897793264" y="430" > 05:33:20</text><line  class="poloto_axis_lines" stroke="black" x1="324.19279907084785" x2="324.19279907084785" y1="400" y2="405" /><text  class="poloto_tick_labels poloto_text" alignment-baseline="start" text-anchor="middle" x="324.19279907084785" y="430" > 08:20:00</text><line  class="poloto_axis_lines" stroke="black" x1="382.2648083623693" x2="382.2648083623693" y1="400" y2="405" /><text  class="poloto_tick_labels poloto_text" alignment-baseline="start" text-anchor="middle" x="382.2648083623693" y="430" > 11:06:40</text><line  class="poloto_axis_lines" stroke="black" x1="440.3368176538908" x2="440.3368176538908" y1="400" y2="405" /><text  class="poloto_tick_labels poloto_text" alignment-baseline="start" text-anchor="middle" x="440.3368176538908" y="430" > 13:53:20</text><line  class="poloto_axis_lines" stroke="black" x1="498.4088269454123" x2="498.4088269454123" y1="400" y2="405" /><text  class="poloto_tick_labels poloto_text" alignment-baseline="start" text-anchor="middle" x="498.4088269454123" y="430" > 16:40:00</text><line  class="poloto_axis_lines" stroke="black" x1="556.4808362369338" x2="556.4808362369338" y1="400" y2="405" /><text  class="poloto_tick_labels poloto_text" alignment-baseline="start" text-anchor="middle" x="556.4808362369338" y="430" > 19:26:40</text><line  class="poloto_axis_lines" stroke="black" x1="614.5528455284552" x2="614.5528455284552" y1="400" y2="405" /><text  class="poloto_tick_labels poloto_text" alignment-baseline="start" text-anchor="middle" x="614.5528455284552" y="430" > 22:13:20</text><line  class="poloto_axis_lines" stroke="black" x1="150" x2="144" y1="365.1639344262295" y2="365.1639344262295" /><text  class="poloto_tick_labels poloto_text" alignment-baseline="middle" text-anchor="end" x="135" y="365.1639344262295" > 1200</text><line  class="poloto_axis_lines" stroke="black" x1="150" x2="144" y1="324.1803278688525" y2="324.1803278688525" /><text  class="poloto_tick_labels poloto_text" alignment-baseline="middle" text-anchor="end" x="135" y="324.1803278688525" > 1400</text><line  class="poloto_axis_lines" stroke="black" x1="150" x2="144" y1="283.19672131147536" y2="283.19672131147536" /><text  class="poloto_tick_labels poloto_text" alignment-baseline="middle" text-anchor="end" x="135" y="283.19672131147536" > 1600</text><line  class="poloto_axis_lines" stroke="black" x1="150" x2="144" y1="242.21311475409834" y2="242.21311475409834" /><text  class="poloto_tick_labels poloto_text" alignment-baseline="middle" text-anchor="end" x="135" y="242.21311475409834" > 1800</text><line  class="poloto_axis_lines" stroke="black" x1="150" x2="144" y1="201.22950819672133" y2="201.22950819672133" /><text  class="poloto_tick_labels poloto_text" alignment-baseline="middle" text-anchor="end" x="135" y="201.22950819672133" > 2000</text><line  class="poloto_axis_lines" stroke="black" x1="150" x2="144" y1="160.2459016393442" y2="160.2459016393442" /><text  class="poloto_tick_labels poloto_text" alignment-baseline="middle" text-anchor="end" x="135" y="160.2459016393442" > 2200</text><line  class="poloto_axis_lines" stroke="black" x1="150" x2="144" y1="119.26229508196718" y2="119.26229508196718" /><text  class="poloto_tick_labels poloto_text" alignment-baseline="middle" text-anchor="end" x="135" y="119.26229508196718" > 2400</text><path  stroke="black" fill="none" class="poloto_axis_lines" style="stroke-dasharray:14.518002322880372;stroke-dashoffset:-58.04878048780488;" d=" M 150 400 L 650 400" /><path  stroke="black" fill="none" class="poloto_axis_lines" style="stroke-dasharray:10.245901639344263;stroke-dashoffset:-34.8360655737705;" d=" M 150 400 L 150 100" /></svg>