<svg class="poloto" width="800" height="500" viewBox="0 0 800 500" xmlns="http://www.w3.org/2000/svg"><style>.poloto { stroke-linecap:round; stroke-linejoin:round; font-family: 'Tahoma', sans-serif; background-color: AliceBlue;} .poloto_scatter{stroke-width:7} .poloto_line{stroke-width:2} .poloto_text{fill: black;} .poloto_axis_lines{stroke: black;stroke-width:3;fill:none;stroke-dasharray:none} .poloto0stroke{stroke:  blue;} .poloto1stroke{stroke:  red;} .poloto2stroke{stroke:  green;} .poloto3stroke{stroke:  gold;} .poloto4stroke{stroke:  aqua;} .poloto5stroke{stroke:  lime;} .poloto6stroke{stroke:  orange;} .poloto7stroke{stroke:  chocolate;} .poloto0fill{fill:blue;} .poloto1fill{fill:red;} .poloto2fill{fill:green;} .poloto3fill{fill:gold;} .poloto4fill{fill:aqua;} .poloto5fill{fill:lime;} .poloto6fill{fill:orange;} .poloto7fill{fill:chocolate;}</style><text  class="poloto_text poloto_legend_text" alignment-baseline="middle" text-anchor="start" font-size="large" x="675" y="100" ></text><path  class="poloto_linefill poloto0fill" d=" M 150 400 L 150 358.1143740340031 L 151.74216027874564 362.44204018547146 L 153.4843205574913 363.3693972179289 L 155.22648083623693 361.3601236476043 L 156.96864111498257 366.76970633693975 L 158.71080139372822 369.39721792890265 L 160.45296167247386 368.62442040185476 L 162.1951219512195 373.5703245749614 L 163.93728222996515 376.35239567233384 L 165.6794425087108 379.7527047913447 L 167.42160278745644 380.83462132921176 L 169.16376306620208 387.32612055641425 L 170.90592334494772 392.27202472952087 L 172.64808362369337 391.499227202473 L 174.390243902439 390.8809891808346 L 176.13240418118465 388.87171561051 L 177.8745644599303 388.87171561051 L 179.61672473867597 392.27202472952087 L 181.3588850174216 392.1174652241113 L 183.10104529616726 399.3817619783617 L 184.8432055749129 400 L 186.58536585365854 397.9907264296754 L 188.3275261324042 396.7542503863988 L 190.06968641114983 392.4265842349305 L 191.81184668989548 392.4265842349305 L 193.55400696864112 398.2998454404946 L 195.29616724738676 396.29057187017 L 197.0383275261324 393.04482225656875 L 198.78048780487805 393.6630602782071 L 200.5226480836237 396.4451313755796 L 202.26480836236934 397.2179289026275 L 204.00696864111498 389.9536321483771 L 205.74912891986062 396.90880989180835 L 207.49128919860627 392.58114374034005 L 209.2334494773519 391.3446676970634 L 210.97560975609755 383.7712519319938 L 212.7177700348432 386.2442040185472 L 214.45993031358887 385.78052550231837 L 216.2020905923345 382.9984544049459 L 217.94425087108016 383.1530139103555 L 219.6864111498258 384.54404945904173 L 221.42857142857144 372.1792890262751 L 223.1707317073171 369.242658423493 L 224.91289198606273 363.52395672333853 L 226.65505226480838 362.596599690881 L 228.39721254355402 360.27820710973725 L 230.13937282229966 361.8238021638331 L 231.8815331010453 357.9598145285935 L 233.62369337979095 358.4234930448223 L 235.3658536585366 353.01391035548687 L 237.10801393728224 349.14992272024733 L 238.85017421602788 342.1947449768161 L 240.59233449477352 341.57650695517776 L 242.33449477351917 352.5502318392581 L 244.0766550522648 343.4312210200927 L 245.81881533101046 344.0494590417311 L 247.5609756097561 339.1035548686244 L 249.30313588850174 331.2210200927357 L 251.0452961672474 334.9304482225657 L 252.78745644599303 330.2936630602782 L 254.53542392566783 327.8207109737249 L 256.2717770034843 331.2210200927357 L 258.01393728222996 330.6027820710974 L 259.7560975609756 327.8207109737249 L 261.49825783972125 327.20247295208657 L 263.2404181184669 329.82998454404947 L 264.9883855981417 328.7480680061824 L 266.7247386759582 333.53941267387944 L 268.4668989547038 324.2658423493045 L 270.20905923344947 318.7017001545595 L 271.9512195121951 314.6831530139104 L 273.69337979094075 310.51004636785166 L 275.44134727061555 312.5193199381762 L 277.17770034843204 321.02009273570326 L 278.9198606271777 308.96445131375583 L 280.6620209059233 313.6012364760433 L 282.40418118466897 305.8732612055642 L 284.1463414634146 302.16383307573415 L 285.88850174216026 298.4544049459042 L 287.6306620209059 297.52704791344667 L 289.37282229965155 305.10046367851623 L 291.1149825783972 304.4822256568779 L 292.85714285714283 302.9366306027821 L 294.5993031358885 300.3091190108192 L 296.3414634146342 295.3632148377125 L 298.08362369337976 292.42658423493043 L 299.82578397212546 288.5625965996909 L 301.56794425087105 287.6352395672334 L 303.31010452961675 288.5625965996909 L 305.05226480836234 283.9258114374034 L 306.80023228803714 281.60741885625964 L 308.5365853658536 281.2982998454405 L 310.2787456445993 278.97990726429674 L 312.0209059233449 281.76197836166926 L 313.7630662020906 272.79752704791343 L 315.5052264808362 274.65224111282845 L 317.253193960511 268.3153013910356 L 318.9895470383275 265.9969088098918 L 320.7317073170732 261.20556414219476 L 322.4738675958188 257.95981452859354 L 324.2160278745645 252.39567233384855 L 325.95818815331006 254.71406491499226 L 327.70615563298486 253.47758887171562 L 329.44250871080135 255.17774343122102 L 331.18466898954705 249.61360123647603 L 332.92682926829264 248.0680061823802 L 334.66898954703834 251.15919629057186 L 336.4111498257839 248.84080370942814 L 338.1533101045296 246.98608964451313 L 339.8954703832752 242.65842349304484 L 341.6376306620209 240.95826893353944 L 343.3797909407665 235.54868624420402 L 345.1219512195122 233.53941267387944 L 346.86411149825784 229.6754250386399 L 348.6062717770035 232.3029366306028 L 350.34843205574913 227.047913446677 L 352.0905923344948 227.97527047913445 L 353.8327526132404 232.3029366306028 L 355.57491289198606 223.80216383307572 L 357.3170731707317 234.15765069551776 L 359.0650406504065 227.51159196290575 L 360.801393728223 225.8114374034003 L 362.54355400696863 217.31066460587328 L 364.2857142857143 216.84698608964453 L 366.0278745644599 217.9289026275116 L 367.77003484320556 217.9289026275116 L 369.51800232288036 212.36476043276662 L 371.25435540069685 205.87326120556418 L 372.9965156794425 205.40958268933542 L 374.73867595818814 200.9273570324575 L 376.4808362369338 190.26275115919628 L 378.2229965156794 190.10819165378672 L 379.9709639953542 196.4451313755796 L 381.7073170731707 193.8176197836167 L 383.44947735191636 191.34466769706336 L 385.191637630662 189.02627511591965 L 386.93379790940764 178.82534775888718 L 388.6759581881533 184.85316846986092 L 390.41811846689893 188.2534775888717 L 392.1602787456446 194.59041731066463 L 393.9024390243902 187.32612055641425 L 395.6445993031359 208.8098918083462 L 397.3867595818815 184.2349304482226 L 399.1289198606272 179.4435857805255 L 400.8710801393728 182.22565687789802 L 402.6132404181185 178.51622874806804 L 404.3554006968641 179.90726429675425 L 406.0975609756097 185.00772797527048 L 407.8455284552845 185.16228748068005 L 409.581881533101 181.14374034003094 L 411.32404181184666 180.21638330757344 L 413.0662020905923 179.59814528593512 L 414.80836236933794 179.28902627511593 L 416.5505226480836 171.5610510046368 L 418.29268292682923 166.46058732612056 L 420.0348432055749 160.43276661514682 L 421.7770034843206 167.54250386398763 L 423.5191637630662 162.90571870170015 L 425.26132404181186 161.82380216383308 L 427.0034843205575 165.84234930448224 L 428.74564459930315 169.24265842349308 L 430.4878048780488 166.76970633693975 L 432.2357723577236 164.14219474497685 L 433.9721254355401 156.4142194744977 L 435.7142857142857 153.47758887171562 L 437.45644599303137 148.9953632148377 L 439.198606271777 154.8686244204019 L 440.94076655052265 150.2318392581144 L 442.6829268292683 142.19474497681608 L 444.42508710801394 135.7032457496136 L 446.1672473867596 133.84853168469863 L 447.9094076655052 136.32148377125196 L 449.65156794425087 138.63987635239567 L 451.3937282229965 126.27511591962906 L 453.1416957026713 127.047913446677 L 454.8780487804878 123.64760432766616 L 456.62020905923345 125.8114374034003 L 458.3623693379791 118.85625965996911 L 460.10452961672473 115.14683153013914 L 461.8466898954704 120.09273570324575 L 463.588850174216 107.57341576506957 L 465.33101045296166 108.03709428129832 L 467.0731707317073 113.44667697063369 L 468.81533101045295 110.81916537867079 L 470.5574912891986 102.6275115919629 L 472.29965156794424 107.57341576506957 L 474.0418118466899 105.40958268933542 L 475.7839721254355 100.61823802163832 L 477.52613240418117 102.78207109737252 L 479.2682926829268 104.94590417310667 L 481.01045296167246 100 L 482.7526132404181 110.81916537867079 L 484.49477351916374 100.61823802163832 L 486.2369337979094 104.7913446676971 L 487.97909407665503 111.43740340030911 L 489.7212543554007 110.20092735703247 L 491.4634146341463 124.26584234930448 L 493.20557491289196 122.56568778979909 L 494.9477351916376 126.58423493044825 L 496.68989547038325 130.75734157650697 L 498.4320557491289 124.11128284389491 L 500.17421602787454 126.42967542503862 L 501.9163763066202 131.3755795981453 L 503.6585365853658 143.1221020092736 L 505.40069686411147 150.2318392581144 L 507.1428571428571 155.64142194744977 L 508.88501742160275 157.65069551777435 L 510.6271777003484 163.3693972179289 L 512.3693379790941 169.8608964451314 L 514.1114982578397 163.98763523956723 L 515.8536585365853 168.9335394126739 L 517.595818815331 168.6244204018547 L 519.3379790940767 182.84389489953634 L 521.0801393728223 178.51622874806804 L 522.822299651568 182.38021638330758 L 524.5644599303137 172.17928902627511 L 526.3124274099885 180.21638330757344 L 528.0487804878048 186.8624420401855 L 529.7909407665505 196.75425038639878 L 531.5331010452962 207.26429675425038 L 533.2752613240418 210.0463678516229 L 535.0174216027874 204.79134466769705 L 536.7595818815331 215.76506955177746 L 538.5017421602788 220.24729520865532 L 540.2439024390244 222.72024729520865 L 541.98606271777 226.1205564142195 L 543.7282229965157 230.29366306027822 L 545.4703832752614 236.78516228748072 L 547.212543554007 241.112828438949 L 548.9547038327526 242.34930448222565 L 550.6968641114983 240.64914992272026 L 552.439024390244 248.9953632148377 L 554.1811846689895 249.61360123647603 L 555.9233449477351 247.29520865533232 L 557.6655052264808 247.6043276661515 L 559.4076655052265 240.03091190108194 L 561.1498257839721 243.1221020092736 L 562.8919860627177 253.32302936630606 L 564.6341463414634 253.7867078825348 L 566.3763066202091 256.4142194744977 L 568.1184668989547 259.50540958268937 L 569.8606271777003 266.15146831530143 L 571.602787456446 270.01545595054097 L 573.3449477351917 266.306027820711 L 575.0871080139373 265.2241112828439 L 576.8292682926829 276.50695517774346 L 578.5714285714286 264.2967542503864 L 580.3135888501743 266.6151468315301 L 582.0557491289198 265.53323029366305 L 583.7979094076654 264.76043276661517 L 585.5400696864111 261.0510046367852 L 587.2822299651568 264.2967542503864 L 589.0243902439024 268.0061823802164 L 590.766550522648 271.5610510046368 L 592.5087108013937 275.7341576506955 L 594.2508710801394 279.4435857805255 L 595.993031358885 284.54404945904173 L 597.7351916376306 280.52550231839257 L 599.4773519163763 282.225656877898 L 601.219512195122 290.5718701700155 L 602.9616724738676 291.96290571870173 L 604.7038327526132 294.435857805255 L 606.4459930313589 299.69088098918087 L 608.1881533101046 299.69088098918087 L 609.9361207897794 295.6723338485317 L 611.6724738675957 292.8902627511592 L 613.4146341463414 298.76352395672336 L 615.1567944250871 294.89953632148377 L 616.8989547038327 304.79134466769705 L 618.6411149825783 309.8918083462133 L 620.383275261324 311.28284389489954 L 622.1254355400697 312.6738794435858 L 623.8675958188153 313.2921174652241 L 625.609756097561 324.4204018547141 L 627.3519163763067 319.0108191653787 L 629.0940766550523 315.61051004636784 L 630.8362369337979 327.6661514683153 L 632.5783972125436 328.90262751159196 L 634.3205574912893 325.65687789799074 L 636.0627177700349 326.7387944358578 L 637.8048780487804 331.2210200927357 L 639.5470383275261 335.23956723338483 L 641.2950058072009 339.41267387944356 L 643.0313588850174 340.95826893353944 L 644.773519163763 344.5131375579598 L 646.5156794425087 345.13137557959817 L 648.2578397212544 347.14064914992275 L 650 343.5857805255023 L 650 400 Z" /><text  class="poloto_labels poloto_text poloto_title" alignment-baseline="start" text-anchor="middle" font-size="x-large" x="400" y="37.5" >Total players on 2021-08-15</text><text  class="poloto_labels poloto_text poloto_xname" alignment-baseline="start" text-anchor="middle" font-size="x-large" x="400" y="481.25" >Time</text><text  class="poloto_labels poloto_text poloto_yname" alignment-baseline="start" text-anchor="middle" font-size="x-large" transform="rotate(-90,37.5,250)" x="37.5" y="250" >Count</text><line  class="poloto_axis_lines" stroke="black" x1="208.0487804878049" x2="208.0487804878049" y1="400" y2="405" /><text  class="poloto_tick_labels poloto_text" alignment-baseline="start" text-anchor="middle" x="208.0487804878049" y="430" > 03:00</text><line  class="poloto_axis_lines" stroke="black" x1="266.1207897793264" x2="266.1207897793264" y1="400" y2="405" /><text  class="poloto_tick_labels poloto_text" alignment-baseline="start" text-anchor="middle" x="266.1207897793264" y="430" > 06:00</text><line  class="poloto_axis_lines" stroke="black" x1="324.19279907084785" x2="324.19279907084785" y1="400" y2="405" /><text  class="poloto_tick_labels poloto_text" alignment-baseline="start" text-anchor="middle" x="324.19279907084785" y="430" > 08:00</text><line  class="poloto_axis_lines" stroke="black" x1="382.2648083623693" x2="382.2648083623693" y1="400" y2="405" /><text  class="poloto_tick_labels poloto_text" alignment-baseline="start" text-anchor="middle" x="382.2648083623693" y="430" > 11:00</text><line  class="poloto_axis_lines" stroke="black" x1="440.3368176538908" x2="440.3368176538908" y1="400" y2="405" /><text  class="poloto_tick_labels poloto_text" alignment-baseline="start" text-anchor="middle" x="440.3368176538908" y="430" > 14:00</text><line  class="poloto_axis_lines" stroke="black" x1="498.4088269454123" x2="498.4088269454123" y1="400" y2="405" /><text  class="poloto_tick_labels poloto_text" alignment-baseline="start" text-anchor="middle" x="498.4088269454123" y="430" > 17:00</text><line  class="poloto_axis_lines" stroke="black" x1="556.4808362369338" x2="556.4808362369338" y1="400" y2="405" /><text  class="poloto_tick_labels poloto_text" alignment-baseline="start" text-anchor="middle" x="556.4808362369338" y="430" > 19:00</text><line  class="poloto_axis_lines" stroke="black" x1="614.5528455284552" x2="614.5528455284552" y1="400" y2="405" /><text  class="poloto_tick_labels poloto_text" alignment-baseline="start" text-anchor="middle" x="614.5528455284552" y="430" > 22:00</text><line  class="poloto_axis_lines" stroke="black" x1="150" x2="144" y1="357.8052550231839" y2="357.8052550231839" /><text  class="poloto_tick_labels poloto_text" alignment-baseline="middle" text-anchor="end" x="135" y="357.8052550231839" > 1500</text><line  class="poloto_axis_lines" stroke="black" x1="150" x2="144" y1="280.52550231839257" y2="280.52550231839257" /><text  class="poloto_tick_labels poloto_text" alignment-baseline="middle" text-anchor="end" x="135" y="280.52550231839257" > 2000</text><line  class="poloto_axis_lines" stroke="black" x1="150" x2="144" y1="203.24574961360122" y2="203.24574961360122" /><text  class="poloto_tick_labels poloto_text" alignment-baseline="middle" text-anchor="end" x="135" y="203.24574961360122" > 2500</text><line  class="poloto_axis_lines" stroke="black" x1="150" x2="144" y1="125.96599690880993" y2="125.96599690880993" /><text  class="poloto_tick_labels poloto_text" alignment-baseline="middle" text-anchor="end" x="135" y="125.96599690880993" > 3000</text><path  stroke="black" fill="none" class="poloto_axis_lines" style="stroke-dasharray:14.518002322880372;stroke-dashoffset:-58.04878048780488;" d=" M 150 400 L 650 400" /><path  stroke="black" fill="none" class="poloto_axis_lines" style="stroke-dasharray:7.727975270479135;stroke-dashoffset:-42.194744976816054;" d=" M 150 400 L 150 100" /></svg>