<svg class="poloto" width="800" height="500" viewBox="0 0 800 500" xmlns="http://www.w3.org/2000/svg"><style>.poloto { stroke-linecap:round; stroke-linejoin:round; font-family: 'Tahoma', sans-serif; background-color: AliceBlue;} .poloto_scatter{stroke-width:7} .poloto_line{stroke-width:2} .poloto_text{fill: black;} .poloto_axis_lines{stroke: black;stroke-width:3;fill:none;stroke-dasharray:none} .poloto0stroke{stroke:  blue;} .poloto1stroke{stroke:  red;} .poloto2stroke{stroke:  green;} .poloto3stroke{stroke:  gold;} .poloto4stroke{stroke:  aqua;} .poloto5stroke{stroke:  lime;} .poloto6stroke{stroke:  orange;} .poloto7stroke{stroke:  chocolate;} .poloto0fill{fill:blue;} .poloto1fill{fill:red;} .poloto2fill{fill:green;} .poloto3fill{fill:gold;} .poloto4fill{fill:aqua;} .poloto5fill{fill:lime;} .poloto6fill{fill:orange;} .poloto7fill{fill:chocolate;}</style><text  class="poloto_text poloto_legend_text" alignment-baseline="middle" text-anchor="start" font-size="large" x="675" y="100" ></text><path  class="poloto_linefill poloto0fill" d=" M 150 400 L 150 358.4464964693102 L 151.74216027874564 361.05377512221617 L 153.4843205574913 366.75719717544814 L 155.22648083623693 362.3574144486692 L 156.96864111498257 366.59424225964153 L 158.71080139372822 371.48288973384035 L 160.45296167247386 371.48288973384035 L 162.1951219512195 373.7642585551331 L 163.93728222996515 377.67517653449215 L 165.6794425087108 388.7561108093428 L 167.42160278745644 377.67517653449215 L 169.16376306620208 378.00108636610537 L 170.90592334494772 381.26018468223793 L 172.64808362369337 377.0233568712656 L 174.390243902439 381.42313959804454 L 176.13240418118465 384.35632808256383 L 177.8745644599303 387.778381314503 L 179.61672473867597 386.96360673546985 L 181.3588850174216 384.19337316675717 L 183.10104529616726 386.1488321564367 L 184.8432055749129 394.1336230309614 L 186.58536585365854 396.08908202064094 L 188.3275261324042 393.3188484519283 L 190.06968641114983 397.55567626290065 L 191.81184668989548 394.62248777838136 L 193.55400696864112 395.43726235741445 L 195.29616724738676 400 L 197.0383275261324 394.4595328625747 L 198.78048780487805 388.4302009777295 L 200.5226480836237 390.385659967409 L 202.26480836236934 388.59315589353616 L 204.00696864111498 384.8451928299837 L 205.74912891986062 380.93427485062466 L 207.49128919860627 376.3715372080391 L 209.2334494773519 384.5192829983705 L 210.97560975609755 385.17110266159693 L 212.7177700348432 389.082020640956 L 214.45993031358887 391.3633894622488 L 216.2020905923345 385.49701249321026 L 217.94425087108016 384.5192829983705 L 219.6864111498258 382.4008690928843 L 221.42857142857144 387.9413362303096 L 223.1707317073171 387.6154263986964 L 224.91289198606273 385.49701249321026 L 226.65505226480838 378.4899511135253 L 228.39721254355402 380.28245518739817 L 230.13937282229966 376.860401955459 L 231.8815331010453 377.67517653449215 L 233.62369337979095 373.11243889190655 L 235.3658536585366 376.20858229223245 L 237.10801393728224 372.78652906029333 L 238.85017421602788 373.6013036393265 L 240.59233449477352 373.7642585551331 L 242.33449477351917 370.5051602390006 L 244.0766550522648 372.4606192286801 L 245.81881533101046 368.2237914177078 L 247.5609756097561 367.5719717544813 L 249.30313588850174 366.59424225964153 L 251.0452961672474 364.31287343834873 L 252.78745644599303 363.98696360673546 L 254.52961672473867 369.0385659967409 L 256.2717770034843 370.17925040738726 L 258.01393728222996 368.3867463335144 L 259.7560975609756 371.80879956545357 L 261.49825783972125 369.69038565996743 L 263.2404181184669 369.5274307441608 L 264.98257839721254 364.31287343834873 L 266.7247386759582 365.12764801738183 L 268.4668989547038 364.14991852254207 L 270.20905923344947 371.80879956545357 L 271.9512195121951 371.9717544812602 L 273.69337979094075 371.64584464964696 L 275.4355400696864 369.85334057577404 L 277.17770034843204 372.4606192286801 L 278.91986062717774 373.9272134709397 L 280.6620209059233 371.64584464964696 L 282.404181184669 373.7642585551331 L 284.1463414634146 369.20152091254755 L 285.8885017421603 364.31287343834873 L 287.6306620209059 363.98696360673546 L 289.3728222996516 360.0760456273764 L 291.1149825783972 360.89082020640956 L 292.8571428571429 356.9799022270505 L 294.5993031358885 354.3726235741445 L 296.3414634146342 358.7724063009234 L 298.08362369337976 356.00217273221074 L 299.82578397212546 354.3726235741445 L 301.56794425087105 350.4617055947855 L 303.31010452961675 342.47691472026077 L 305.05226480836234 339.2178164041282 L 306.79442508710804 341.9880499728408 L 308.5365853658536 338.5659967409017 L 310.2787456445993 342.47691472026077 L 312.0209059233449 341.9880499728408 L 313.7630662020906 339.38077131993487 L 315.5052264808362 343.78055404671375 L 317.2473867595819 348.9951113525258 L 318.9895470383275 344.9212384573601 L 320.7317073170732 340.52145573058124 L 322.4738675958188 339.8696360673547 L 324.2160278745645 341.8250950570342 L 325.9581881533101 344.7582835415535 L 327.70034843205576 343.78055404671375 L 329.4425087108014 342.1510048886475 L 331.18466898954705 341.3362303096144 L 332.9268292682927 339.2178164041282 L 334.66898954703834 349.32102118413906 L 336.411149825784 344.106463878327 L 338.1533101045296 350.4617055947855 L 339.89547038327527 349.80988593155894 L 341.6376306620209 339.2178164041282 L 343.37979094076655 347.6914720260728 L 345.1219512195122 340.68441064638785 L 346.86411149825784 328.46279196089085 L 348.6062717770035 324.877783813145 L 350.34843205574913 327.6480173818577 L 352.0905923344948 325.8555133079848 L 353.8327526132404 327.3221075502445 L 355.57491289198606 322.7593699076589 L 357.3170731707317 319.663226507333 L 359.05923344947735 318.0336773492667 L 360.801393728223 315.5893536121673 L 362.54355400696863 312.3302552960348 L 364.2857142857143 308.9082020640956 L 366.0278745644599 304.1825095057034 L 367.77003484320556 304.3454644215101 L 369.5121951219512 297.66431287343835 L 371.25435540069685 291.79793590439976 L 372.9965156794425 291.96089082020643 L 374.73867595818814 291.96089082020643 L 376.4808362369338 290.4942965779468 L 378.2229965156795 291.79793590439976 L 379.96515679442507 283.9760999456817 L 381.70731707317077 280.8799565453558 L 383.44947735191636 280.22813688212926 L 385.19163763066206 281.6947311243889 L 386.93379790940764 286.74633351439434 L 388.67595818815334 273.5469853340576 L 390.41811846689893 275.5024443237371 L 392.16027874564463 274.03585008147746 L 393.9024390243902 270.93970668115156 L 395.6445993031359 272.8951656708311 L 397.3867595818815 270.4508419337317 L 399.1289198606272 276.96903856599675 L 400.8710801393728 272.4063009234112 L 402.6132404181185 270.1249321021184 L 404.3554006968641 265.073329712113 L 406.0975609756098 270.1249321021184 L 407.8397212543554 264.4215100488865 L 409.58188153310107 257.57740358500814 L 411.3240418118467 248.28897338403044 L 413.06620209059236 244.70396523628466 L 414.808362369338 244.86692015209127 L 416.55052264808364 237.6969038565997 L 418.2926829268293 231.01575230852796 L 420.03484320557493 226.9418794133623 L 421.7770034843206 224.4975556762629 L 423.5191637630662 214.88321564367192 L 425.26132404181186 213.25366648560566 L 427.0034843205575 212.9277566539924 L 428.74564459930315 209.3427485062466 L 430.4878048780488 203.1504617055948 L 432.22996515679444 200.38022813688212 L 433.9721254355401 201.68386746333516 L 435.7142857142857 193.86203150461705 L 437.45644599303137 187.01792504073876 L 439.198606271777 184.89951113525262 L 440.94076655052265 179.68495382944053 L 442.6829268292683 173.65562194459534 L 444.42508710801394 168.92992938620318 L 446.1672473867596 175.44812601846826 L 447.9094076655052 169.90765888104295 L 449.65156794425087 179.03313416621404 L 451.3937282229965 177.4035850081478 L 453.13588850174216 162.73764258555133 L 454.8780487804878 160.7821835958718 L 456.62020905923345 179.03313416621404 L 458.3623693379791 164.85605649103752 L 460.10452961672473 162.4117327539381 L 461.8466898954704 144.48669201520914 L 463.588850174216 145.79033134166218 L 465.33101045296166 130.63552417164584 L 467.0731707317073 123.139598044541 L 468.81533101045295 120.36936447582838 L 470.5574912891986 121.02118413905487 L 472.29965156794424 126.56165127648018 L 474.0418118466899 120.85822922324826 L 475.7839721254355 117.5991309071157 L 477.52613240418117 126.72460619228684 L 479.2682926829268 116.7843563280826 L 481.01045296167246 112.54752851711027 L 482.7526132404181 102.60727865290607 L 484.49477351916374 100 L 486.2369337979094 102.2813688212928 L 487.97909407665503 119.8804997284085 L 489.7212543554007 120.0434546442151 L 491.4634146341463 117.92504073872897 L 493.20557491289196 107.00706137968496 L 494.9477351916376 105.2145573058121 L 496.68989547038325 105.54046713742531 L 498.4320557491289 110.42911461162413 L 500.17421602787454 117.43617599130909 L 501.91637630662024 142.8571428571429 L 503.6585365853659 129.1689299293862 L 505.4006968641115 129.33188484519286 L 507.14285714285717 128.5171102661597 L 508.8850174216028 129.65779467680608 L 510.62717770034845 129.49483976099947 L 512.3693379790941 132.75393807713203 L 514.1114982578397 148.5605649103748 L 515.8536585365854 139.43508962520372 L 517.5958188153311 145.79033134166218 L 519.3379790940767 152.96034763715375 L 521.0801393728223 152.63443780554047 L 522.822299651568 163.87832699619776 L 524.5644599303137 165.83378598587728 L 526.3066202090592 174.30744160782183 L 528.0487804878048 173.9815317762086 L 529.7909407665505 175.77403585008148 L 531.5331010452962 180.6626833242803 L 533.2752613240418 178.38131450298755 L 535.0174216027874 186.52906029331888 L 536.7595818815331 197.7729494839761 L 538.5017421602788 201.19500271591528 L 540.2439024390244 196.958174904943 L 541.98606271777 199.89136338946224 L 543.7282229965157 240.46713742531233 L 545.4703832752614 199.72840847365563 L 547.212543554007 206.0836501901141 L 548.9547038327526 213.25366648560566 L 550.6968641114983 215.3720803910918 L 552.439024390244 202.33568712656165 L 554.1811846689895 217.32753938077133 L 555.9233449477351 216.51276480173823 L 557.6655052264808 222.70505160239003 L 559.4076655052265 228.08256382400873 L 561.1498257839721 229.3862031504617 L 562.8919860627177 219.60890820206413 L 564.6341463414634 217.49049429657794 L 566.3763066202091 215.53503530689846 L 568.1184668989547 218.79413362303097 L 569.8606271777003 231.50461705594785 L 571.602787456446 231.17870722433463 L 573.3449477351917 246.3335143943509 L 575.0871080139373 241.11895708853888 L 576.8292682926829 263.60673546985333 L 578.5714285714286 254.80717001629552 L 580.3135888501743 245.51873981531776 L 582.0557491289198 246.00760456273764 L 583.7979094076654 250.24443237370997 L 585.5400696864111 242.25964149918525 L 587.2822299651568 248.45192829983705 L 589.0243902439024 248.61488321564372 L 590.766550522648 265.88810429114613 L 592.5087108013937 269.9619771863118 L 594.2508710801394 269.7990222705052 L 595.993031358885 260.3476371537208 L 597.7351916376306 268.65833785985876 L 599.4773519163763 275.8283541553504 L 601.219512195122 269.3101575230853 L 602.9616724738676 266.05105920695274 L 604.7038327526133 280.55404671374254 L 606.445993031359 288.53883758826726 L 608.1881533101046 282.6724606192287 L 609.9303135888501 285.7686040195546 L 611.6724738675958 288.70179250407386 L 613.4146341463415 287.5611080934275 L 615.1567944250871 286.909288430201 L 616.8989547038327 285.93155893536124 L 618.6411149825784 296.523628462792 L 620.3832752613241 291.30907115697994 L 622.1254355400697 296.523628462792 L 623.8675958188153 299.29386203150466 L 625.609756097561 305.1602390005432 L 627.3519163763067 308.9082020640956 L 629.0940766550523 306.78978815860944 L 630.8362369337979 316.8929929386203 L 632.5783972125436 322.1075502444324 L 634.3205574912893 322.1075502444324 L 636.0627177700349 327.9739272134709 L 637.8048780487804 330.9071156979902 L 639.5470383275261 336.4475828354156 L 641.2891986062718 334.81803367734926 L 643.0313588850174 336.1216730038023 L 644.773519163763 350.6246605105921 L 646.5156794425087 338.4030418250951 L 648.2578397212544 334.0032590983161 L 650 340.84736556219445 L 650 400 Z" /><text  class="poloto_labels poloto_text poloto_title" alignment-baseline="start" text-anchor="middle" font-size="x-large" x="400" y="37.5" >Total players on 2021-09-29</text><text  class="poloto_labels poloto_text poloto_xname" alignment-baseline="start" text-anchor="middle" font-size="x-large" x="400" y="481.25" >Time</text><text  class="poloto_labels poloto_text poloto_yname" alignment-baseline="start" text-anchor="middle" font-size="x-large" transform="rotate(-90,37.5,250)" x="37.5" y="250" >Count</text><line  class="poloto_axis_lines" stroke="black" x1="150" x2="150" y1="400" y2="405" /><text  class="poloto_tick_labels poloto_text" alignment-baseline="start" text-anchor="middle" x="150" y="430" > 00:00:00</text><line  class="poloto_axis_lines" stroke="black" x1="266.14401858304296" x2="266.14401858304296" y1="400" y2="405" /><text  class="poloto_tick_labels poloto_text" alignment-baseline="start" text-anchor="middle" x="266.14401858304296" y="430" > 05:33:20</text><line  class="poloto_axis_lines" stroke="black" x1="382.2880371660859" x2="382.2880371660859" y1="400" y2="405" /><text  class="poloto_tick_labels poloto_text" alignment-baseline="start" text-anchor="middle" x="382.2880371660859" y="430" > 11:06:40</text><line  class="poloto_axis_lines" stroke="black" x1="498.4320557491289" x2="498.4320557491289" y1="400" y2="405" /><text  class="poloto_tick_labels poloto_text" alignment-baseline="start" text-anchor="middle" x="498.4320557491289" y="430" > 16:40:00</text><line  class="poloto_axis_lines" stroke="black" x1="614.5760743321719" x2="614.5760743321719" y1="400" y2="405" /><text  class="poloto_tick_labels poloto_text" alignment-baseline="start" text-anchor="middle" x="614.5760743321719" y="430" > 22:13:20</text><line  class="poloto_axis_lines" stroke="black" x1="150" x2="144" y1="378.4899511135253" y2="378.4899511135253" /><text  class="poloto_tick_labels poloto_text" alignment-baseline="middle" text-anchor="end" x="135" y="378.4899511135253" > 1000</text><line  class="poloto_axis_lines" stroke="black" x1="150" x2="144" y1="297.01249321021186" y2="297.01249321021186" /><text  class="poloto_tick_labels poloto_text" alignment-baseline="middle" text-anchor="end" x="135" y="297.01249321021186" > 1500</text><line  class="poloto_axis_lines" stroke="black" x1="150" x2="144" y1="215.53503530689846" y2="215.53503530689846" /><text  class="poloto_tick_labels poloto_text" alignment-baseline="middle" text-anchor="end" x="135" y="215.53503530689846" > 2000</text><line  class="poloto_axis_lines" stroke="black" x1="150" x2="144" y1="134.05757740358501" y2="134.05757740358501" /><text  class="poloto_tick_labels poloto_text" alignment-baseline="middle" text-anchor="end" x="135" y="134.05757740358501" > 2500</text><path  stroke="black" fill="none" class="poloto_axis_lines" style="stroke-dasharray:14.518002322880372;stroke-dashoffset:-0;" d=" M 150 400 L 650 400" /><path  stroke="black" fill="none" class="poloto_axis_lines" style="stroke-dasharray:8.14774579033134;stroke-dashoffset:-21.51004888647472;" d=" M 150 400 L 150 100" /></svg>