<svg class="poloto" width="800" height="500" viewBox="0 0 800 500" xmlns="http://www.w3.org/2000/svg"><style>.poloto { stroke-linecap:round; stroke-linejoin:round; font-family: 'Tahoma', sans-serif; background-color: AliceBlue;} .poloto_scatter{stroke-width:7} .poloto_line{stroke-width:2} .poloto_text{fill: black;} .poloto_axis_lines{stroke: black;stroke-width:3;fill:none;stroke-dasharray:none} .poloto0stroke{stroke:  blue;} .poloto1stroke{stroke:  red;} .poloto2stroke{stroke:  green;} .poloto3stroke{stroke:  gold;} .poloto4stroke{stroke:  aqua;} .poloto5stroke{stroke:  lime;} .poloto6stroke{stroke:  orange;} .poloto7stroke{stroke:  chocolate;} .poloto0fill{fill:blue;} .poloto1fill{fill:red;} .poloto2fill{fill:green;} .poloto3fill{fill:gold;} .poloto4fill{fill:aqua;} .poloto5fill{fill:lime;} .poloto6fill{fill:orange;} .poloto7fill{fill:chocolate;}</style><text  class="poloto_text poloto_legend_text" alignment-baseline="middle" text-anchor="start" font-size="large" x="675" y="100" ></text><path  class="poloto_linefill poloto0fill" d=" M 150 400 L 150 342.8482198625859 L 151.74216027874564 352.4047470331043 L 153.4843205574913 351.65521549031854 L 155.22648083623693 357.4640849469082 L 156.96864111498257 368.3322923173017 L 158.71080139372822 372.26733291692693 L 160.45296167247386 377.3266708307308 L 162.1951219512195 381.4490943160525 L 163.93728222996515 383.3229231730169 L 165.6794425087108 385.946283572767 L 167.42160278745644 391.00562148657093 L 169.16376306620208 384.4472204871955 L 170.90592334494772 378.8257339163023 L 172.64808362369337 376.76452217364147 L 174.390243902439 383.8850718301062 L 176.13240418118465 381.0743285446596 L 177.8745644599303 382.76077451592755 L 179.61672473867597 383.5103060587133 L 181.3588850174216 390.4434728294816 L 183.10104529616726 392.69206745783885 L 184.8432055749129 387.4453466583385 L 186.58536585365854 391.9425359150531 L 188.3275261324042 395.5028107432854 L 190.06968641114983 394.94066208619614 L 191.81184668989548 394.94066208619614 L 193.55400696864112 397.00187382885696 L 195.29616724738676 393.25421611492817 L 197.0383275261324 390.81823860087445 L 198.78048780487805 385.946283572767 L 200.5226480836237 387.4453466583385 L 202.26480836236934 389.8813241723923 L 204.00696864111498 392.1299188007495 L 205.74912891986062 391.9425359150531 L 207.49128919860627 388.00749531542783 L 209.2334494773519 395.31542785758904 L 210.97560975609755 399.06308557151783 L 212.7177700348432 397.5640224859463 L 214.45993031358887 395.87757651467837 L 216.2020905923345 395.12804497189256 L 217.94425087108016 396.2523422860712 L 219.6864111498258 397.00187382885696 L 221.42857142857144 400 L 223.1707317073171 394.94066208619614 L 224.91289198606273 397.37663960024986 L 226.65505226480838 389.8813241723923 L 228.39721254355402 394.0037476577139 L 230.13937282229966 392.1299188007495 L 231.8815331010453 393.62898188632107 L 233.62369337979095 388.75702685821364 L 235.3658536585366 390.2560899437851 L 237.10801393728224 381.8238600874454 L 238.85017421602788 383.5103060587133 L 240.59233449477352 383.1355402873204 L 242.33449477351917 377.51405371642727 L 244.0766550522648 372.64209868831983 L 245.81881533101046 371.3304184884447 L 247.5609756097561 375.0780762023735 L 249.30313588850174 371.5178013741412 L 251.0452961672474 366.64584634603375 L 252.78745644599303 367.5827607745159 L 254.52961672473867 370.20612117426606 L 256.2717770034843 373.20424734540916 L 258.01393728222996 375.4528419737664 L 259.7560975609756 381.0743285446596 L 261.49825783972125 384.25983760149904 L 263.2404181184669 388.38226108682073 L 264.98257839721254 386.6958151155528 L 266.7247386759582 381.0743285446596 L 268.4668989547038 385.946283572767 L 270.20905923344947 386.3210493441599 L 271.9512195121951 388.38226108682073 L 273.69337979094075 387.8201124297314 L 275.4355400696864 386.6958151155528 L 277.17770034843204 389.5065584009994 L 278.9198606271777 379.95003123048093 L 280.6620209059233 376.95190505933795 L 282.40418118466897 375.8276077451593 L 284.1463414634146 379.95003123048093 L 285.88850174216026 382.3860087445347 L 287.6306620209059 378.0762023735166 L 289.37282229965155 370.20612117426606 L 291.1149825783972 364.39725171767645 L 292.85714285714283 367.0206121174266 L 294.5993031358885 363.4603372891943 L 296.3414634146342 357.0893191755153 L 298.08362369337976 353.90381011867584 L 299.82578397212546 351.65521549031854 L 301.56794425087105 359.1505309181762 L 303.31010452961675 362.7108057464085 L 305.05226480836234 361.7738913179263 L 306.79442508710804 360.8369768894441 L 308.5365853658536 355.59025608994375 L 310.2787456445993 359.525296689569 L 312.0209059233449 363.2729544034978 L 313.7630662020906 368.3322923173017 L 315.5052264808362 365.3341661461586 L 317.2473867595819 367.9575265459088 L 318.9895470383275 364.9594003747658 L 320.7317073170732 363.83510306058713 L 322.4738675958188 364.39725171767645 L 324.2160278745645 357.4640849469082 L 325.95818815331006 360.2748282323548 L 327.70034843205576 356.9019362898189 L 329.44250871080135 351.84259837601496 L 331.18466898954705 346.03372891942536 L 332.92682926829264 339.1005621486571 L 334.66898954703834 341.72392254840724 L 336.4111498257839 334.6033728919425 L 338.1533101045296 334.790755777639 L 339.8954703832752 332.9169269206746 L 341.6376306620209 336.2898188632105 L 343.3797909407665 331.2304809494066 L 345.1219512195122 322.98563397876325 L 346.86411149825784 316.6146158650843 L 348.6062717770035 313.6164896939413 L 350.34843205574913 305.37164272329795 L 352.0905923344948 298.0637101811368 L 353.8327526132404 293.3791380387258 L 355.57491289198606 298.6258588382261 L 357.3170731707317 298.2510930668332 L 359.05923344947735 289.8188632104934 L 360.801393728223 288.6945658963148 L 362.54355400696863 285.3216739537789 L 364.2857142857143 285.13429106808246 L 366.0278745644599 282.32354778263584 L 367.77003484320556 303.68519675203 L 369.5121951219512 277.6389756402248 L 371.25435540069685 271.0805746408495 L 372.9965156794425 272.39225484072455 L 374.73867595818814 272.2048719550281 L 376.4808362369338 269.5815115552779 L 378.2229965156794 270.51842598376015 L 379.96515679442507 265.83385384134914 L 381.7073170731707 266.0212367270456 L 383.44947735191636 263.96002498438475 L 385.191637630662 253.09181761399122 L 386.93379790940764 254.40349781386635 L 388.6759581881533 253.65396627108055 L 390.41811846689893 248.40724547158027 L 392.1602787456446 247.84509681449094 L 393.9024390243902 246.90818238600872 L 395.6445993031359 245.59650218613365 L 397.3867595818815 247.0955652717052 L 399.1289198606272 240.9119300437227 L 400.8710801393728 235.47782635852593 L 402.6132404181185 236.97688944409742 L 404.3554006968641 232.85446595877573 L 406.0975609756097 230.2311055590256 L 407.83972125435537 228.7320424734541 L 409.581881533101 227.23297938788255 L 411.32404181184666 226.8582136164897 L 413.0662020905923 215.9900062460962 L 414.80836236933794 216.92692067457835 L 416.5505226480836 213.92879450343537 L 418.29268292682923 212.42973141786382 L 420.0348432055749 213.55402873204247 L 421.7770034843206 207.18301061836354 L 423.5191637630662 205.12179887570267 L 425.26132404181186 195.94003747657712 L 427.0034843205575 193.31667707682698 L 428.74564459930315 191.06808244846968 L 430.4878048780488 193.12929419113055 L 432.22996515679444 192.0049968769519 L 433.9721254355401 189.7564022485946 L 435.7142857142857 182.26108682073703 L 437.45644599303137 179.07557776389757 L 439.198606271777 173.6414740787008 L 440.94076655052265 179.45034353529041 L 442.6829268292683 173.4540911930044 L 444.42508710801394 174.01623985009365 L 446.1672473867596 164.45971267957526 L 447.9094076655052 150.03123048094938 L 449.65156794425087 156.7770143660212 L 451.3937282229965 155.0905683947533 L 453.13588850174216 161.83635227982512 L 454.8780487804878 148.34478450968146 L 456.62020905923345 144.97189256714552 L 458.3623693379791 137.28919425359152 L 460.10452961672473 141.59900062460963 L 461.8466898954704 140.47470331043098 L 463.588850174216 128.66958151155524 L 465.33101045296166 129.41911305434104 L 467.0731707317073 130.5434103685197 L 468.81533101045295 133.16677076826983 L 470.5574912891986 120.61211742660834 L 472.29965156794424 122.48594628357273 L 474.0418118466899 121.54903185509056 L 475.7839721254355 124.35977514053712 L 477.52613240418117 111.99250468457211 L 479.2682926829268 112.36727045596501 L 481.01045296167246 111.61773891317927 L 482.7526132404181 120.04996876951901 L 484.49477351916374 117.9887570268582 L 486.2369337979094 128.4821986258588 L 487.97909407665503 112.92941911305434 L 489.7212543554007 118.92567145534042 L 491.4634146341463 119.30043722673327 L 493.20557491289196 119.48782011242974 L 494.9477351916376 119.86258588382259 L 496.68989547038325 103.93504059962521 L 498.4320557491289 100 L 500.17421602787454 103.37289194253589 L 501.9163763066202 100.93691442848217 L 503.6585365853658 119.11305434103684 L 505.40069686411147 121.17426608369766 L 507.1428571428571 122.48594628357273 L 508.88501742160275 118.17613991255462 L 510.6271777003484 124.92192379762645 L 512.3693379790941 121.17426608369766 L 514.1114982578397 120.79950031230481 L 515.8536585365853 121.36164896939414 L 517.595818815331 126.98313554028732 L 519.3379790940767 136.53966271080571 L 521.0801393728223 137.66396002498436 L 522.822299651568 144.22236102435977 L 524.5644599303137 146.8457214241099 L 526.3066202090592 151.15552779512802 L 528.0487804878048 148.53216739537788 L 529.7909407665505 152.27982510930667 L 531.5331010452962 152.27982510930667 L 533.2752613240418 152.65459088069957 L 535.0174216027874 168.20737039350405 L 536.7595818815331 173.0793254216115 L 538.5017421602788 181.88632104934413 L 540.2439024390244 180.94940662086196 L 541.98606271777 180.01249219237974 L 543.7282229965157 189.5690193628982 L 545.4703832752614 193.31667707682698 L 547.212543554007 197.43910056214867 L 548.9547038327526 200.4372267332917 L 550.6968641114983 207.7451592754528 L 552.439024390244 216.92692067457835 L 554.1811846689895 216.3647720174891 L 555.9233449477351 215.24047470331044 L 557.6655052264808 215.61524047470328 L 559.4076655052265 218.23860087445348 L 561.1498257839721 215.42785758900686 L 562.8919860627177 221.61149281698937 L 564.6341463414634 219.36289818863207 L 566.3763066202091 211.49281698938165 L 568.1184668989547 214.67832604622112 L 569.8606271777003 218.051217988757 L 571.602787456446 216.1773891317926 L 573.3449477351917 216.73953778888193 L 575.0871080139373 213.92879450343537 L 576.8292682926829 226.4834478450968 L 578.5714285714286 229.85633978763275 L 580.3135888501743 222.5484072454716 L 582.0557491289198 221.04934415990004 L 583.7979094076654 227.04559650218613 L 585.5400696864111 231.16801998750782 L 587.2822299651568 228.54465958775762 L 589.0243902439024 227.23297938788255 L 590.766550522648 229.66895690193627 L 592.5087108013937 237.53903810118675 L 594.2508710801394 233.22923173016864 L 595.993031358885 234.72829481574013 L 597.7351916376306 244.472204871955 L 599.4773519163763 241.0993129294191 L 601.219512195122 245.40911930043723 L 602.9616724738676 246.90818238600872 L 604.7038327526132 250.46845721424108 L 606.4459930313589 249.34415990006244 L 608.1881533101046 257.5890068707058 L 609.9303135888501 267.1455340412242 L 611.6724738675957 261.71143035602745 L 613.4146341463414 273.1417863835103 L 615.1567944250871 277.4515927545284 L 616.8989547038327 288.3198001249219 L 618.6411149825783 284.38475952529666 L 620.383275261324 285.5090568394753 L 622.1254355400697 288.3198001249219 L 623.8675958188153 296.3772642098688 L 625.609756097561 290.0062460961899 L 627.3519163763067 305.5590256089944 L 629.0940766550523 307.9950031230481 L 630.8362369337979 309.68144909431606 L 632.5783972125436 304.0599625234229 L 634.3205574912893 305.37164272329795 L 636.0627177700349 309.68144909431606 L 637.8048780487804 313.42910680824485 L 639.5470383275261 317.55153029356654 L 641.2891986062718 324.8594628357277 L 643.0313588850174 332.5421611492817 L 644.773519163763 339.6627108057464 L 646.5156794425087 341.5365396627108 L 648.2578397212544 336.2898188632105 L 650 332.9169269206746 L 650 400 Z" /><text  class="poloto_labels poloto_text poloto_title" alignment-baseline="start" text-anchor="middle" font-size="x-large" x="400" y="37.5" >Total players on 2021-06-09</text><text  class="poloto_labels poloto_text poloto_xname" alignment-baseline="start" text-anchor="middle" font-size="x-large" x="400" y="481.25" >Time</text><text  class="poloto_labels poloto_text poloto_yname" alignment-baseline="start" text-anchor="middle" font-size="x-large" transform="rotate(-90,37.5,250)" x="37.5" y="250" >Count</text><line  class="poloto_axis_lines" stroke="black" x1="208.0487804878049" x2="208.0487804878049" y1="400" y2="405" /><text  class="poloto_tick_labels poloto_text" alignment-baseline="start" text-anchor="middle" x="208.0487804878049" y="430" > 02:46:40</text><line  class="poloto_axis_lines" stroke="black" x1="266.1207897793264" x2="266.1207897793264" y1="400" y2="405" /><text  class="poloto_tick_labels poloto_text" alignment-baseline="start" text-anchor="middle" x="266.1207897793264" y="430" > 05:33:20</text><line  class="poloto_axis_lines" stroke="black" x1="324.19279907084785" x2="324.19279907084785" y1="400" y2="405" /><text  class="poloto_tick_labels poloto_text" alignment-baseline="start" text-anchor="middle" x="324.19279907084785" y="430" > 08:20:00</text><line  class="poloto_axis_lines" stroke="black" x1="382.2648083623693" x2="382.2648083623693" y1="400" y2="405" /><text  class="poloto_tick_labels poloto_text" alignment-baseline="start" text-anchor="middle" x="382.2648083623693" y="430" > 11:06:40</text><line  class="poloto_axis_lines" stroke="black" x1="440.3368176538908" x2="440.3368176538908" y1="400" y2="405" /><text  class="poloto_tick_labels poloto_text" alignment-baseline="start" text-anchor="middle" x="440.3368176538908" y="430" > 13:53:20</text><line  class="poloto_axis_lines" stroke="black" x1="498.4088269454123" x2="498.4088269454123" y1="400" y2="405" /><text  class="poloto_tick_labels poloto_text" alignment-baseline="start" text-anchor="middle" x="498.4088269454123" y="430" > 16:40:00</text><line  class="poloto_axis_lines" stroke="black" x1="556.4808362369338" x2="556.4808362369338" y1="400" y2="405" /><text  class="poloto_tick_labels poloto_text" alignment-baseline="start" text-anchor="middle" x="556.4808362369338" y="430" > 19:26:40</text><line  class="poloto_axis_lines" stroke="black" x1="614.5528455284552" x2="614.5528455284552" y1="400" y2="405" /><text  class="poloto_tick_labels poloto_text" alignment-baseline="start" text-anchor="middle" x="614.5528455284552" y="430" > 22:13:20</text><line  class="poloto_axis_lines" stroke="black" x1="150" x2="144" y1="318.11367895065587" y2="318.11367895065587" /><text  class="poloto_tick_labels poloto_text" alignment-baseline="middle" text-anchor="end" x="135" y="318.11367895065587" > 1500</text><line  class="poloto_axis_lines" stroke="black" x1="150" x2="144" y1="224.422236102436" y2="224.422236102436" /><text  class="poloto_tick_labels poloto_text" alignment-baseline="middle" text-anchor="end" x="135" y="224.422236102436" > 2000</text><line  class="poloto_axis_lines" stroke="black" x1="150" x2="144" y1="130.7307932542161" y2="130.7307932542161" /><text  class="poloto_tick_labels poloto_text" alignment-baseline="middle" text-anchor="end" x="135" y="130.7307932542161" > 2500</text><path  stroke="black" fill="none" class="poloto_axis_lines" style="stroke-dasharray:14.518002322880372;stroke-dashoffset:-58.04878048780488;" d=" M 150 400 L 650 400" /><path  stroke="black" fill="none" class="poloto_axis_lines" style="stroke-dasharray:9.369144284821987;stroke-dashoffset:-81.88632104934413;" d=" M 150 400 L 150 100" /></svg>