<svg class="poloto" width="800" height="500" viewBox="0 0 800 500" xmlns="http://www.w3.org/2000/svg"><style>.poloto { stroke-linecap:round; stroke-linejoin:round; font-family: 'Tahoma', sans-serif; background-color: AliceBlue;} .poloto_scatter{stroke-width:7} .poloto_line{stroke-width:2} .poloto_text{fill: black;} .poloto_axis_lines{stroke: black;stroke-width:3;fill:none;stroke-dasharray:none} .poloto0stroke{stroke:  blue;} .poloto1stroke{stroke:  red;} .poloto2stroke{stroke:  green;} .poloto3stroke{stroke:  gold;} .poloto4stroke{stroke:  aqua;} .poloto5stroke{stroke:  lime;} .poloto6stroke{stroke:  orange;} .poloto7stroke{stroke:  chocolate;} .poloto0fill{fill:blue;} .poloto1fill{fill:red;} .poloto2fill{fill:green;} .poloto3fill{fill:gold;} .poloto4fill{fill:aqua;} .poloto5fill{fill:lime;} .poloto6fill{fill:orange;} .poloto7fill{fill:chocolate;}</style><text  class="poloto_text poloto_legend_text" alignment-baseline="middle" text-anchor="start" font-size="large" x="675" y="100" ></text><path  class="poloto_linefill poloto0fill" d=" M 150 400 L 150 348.6460348162476 L 151.74216027874564 353.14313346228244 L 153.4843205574913 356.04448742746615 L 155.22648083623693 356.18955512572535 L 156.96864111498257 355.3191489361702 L 158.71080139372822 357.35009671179887 L 160.45296167247386 360.6866537717601 L 162.1951219512195 367.06963249516446 L 163.93728222996515 369.24564796905224 L 165.6794425087108 367.504835589942 L 167.42160278745644 365.76402321083174 L 169.16376306620208 371.42166344294003 L 170.90592334494772 372.58220502901355 L 172.64808362369337 375.19342359767893 L 174.390243902439 375.91876208897486 L 176.13240418118465 382.5918762088975 L 177.8745644599303 388.24951644100577 L 179.61672473867597 387.2340425531915 L 181.3588850174216 387.6692456479691 L 183.10104529616726 387.95938104448743 L 184.8432055749129 393.4719535783365 L 186.58536585365854 393.036750483559 L 188.3275261324042 391.29593810444874 L 190.06968641114983 386.7988394584139 L 191.81184668989548 388.394584139265 L 193.55400696864112 397.0986460348163 L 195.29616724738676 397.0986460348163 L 197.0383275261324 390.4255319148936 L 198.78048780487805 389.11992263056095 L 200.5226480836237 388.53965183752416 L 202.26480836236934 387.52417794970984 L 204.00696864111498 391.29593810444874 L 205.74912891986062 387.3791102514507 L 207.49128919860627 382.15667311411994 L 209.2334494773519 379.11025145067697 L 210.97560975609755 377.0793036750483 L 212.7177700348432 377.2243713733076 L 214.45993031358887 374.90328820116054 L 216.2020905923345 365.9090909090909 L 217.94425087108016 363.29787234042556 L 219.6864111498258 358.51063829787233 L 221.42857142857144 356.7698259187621 L 223.1707317073171 354.15860735009676 L 224.91289198606273 351.9825918762089 L 226.65505226480838 352.4177949709865 L 228.39721254355402 348.5009671179884 L 230.13937282229966 347.9206963249517 L 231.8815331010453 345.30947775628624 L 233.62369337979095 340.81237911025147 L 235.3658536585366 346.03481624758217 L 237.10801393728224 342.9883945841393 L 238.85017421602788 340.81237911025147 L 240.59233449477352 331.6731141199226 L 242.33449477351917 331.963249516441 L 244.0766550522648 326.88588007736945 L 245.81881533101046 328.1914893617021 L 247.5609756097561 318.036750483559 L 249.30313588850174 313.53965183752416 L 251.0452961672474 310.49323017408125 L 252.78745644599303 311.3636363636364 L 254.52961672473867 307.30174081237914 L 256.2717770034843 323.54932301740814 L 258.01393728222996 320.21276595744683 L 259.7560975609756 304.25531914893617 L 261.49825783972125 300.3384912959381 L 263.2404181184669 296.7117988394584 L 264.98257839721254 298.4526112185687 L 266.7247386759582 303.52998065764024 L 268.4668989547038 299.6131528046422 L 270.20905923344947 297.43713733075435 L 271.9512195121951 294.825918762089 L 273.69337979094075 293.0851063829787 L 275.4355400696864 291.77949709864606 L 277.17770034843204 288.7330754352031 L 278.91986062717774 280.174081237911 L 280.6620209059233 292.9400386847195 L 282.404181184669 293.3752417794971 L 284.1463414634146 278.86847195357836 L 285.8885017421603 288.29787234042556 L 287.6306620209059 276.9825918762089 L 289.3728222996516 293.2301740812379 L 291.1149825783972 281.33462282398455 L 292.8571428571429 277.1276595744681 L 294.5993031358885 284.23597678916826 L 296.3414634146342 281.7698259187621 L 298.08362369337976 278.14313346228244 L 299.82578397212546 272.05029013539655 L 301.56794425087105 279.4487427466151 L 303.31010452961675 278.72340425531917 L 305.05226480836234 281.47969052224374 L 306.79442508710804 279.1586073500967 L 308.5365853658536 274.66150870406193 L 310.2787456445993 266.972920696325 L 312.0209059233449 265.23210831721474 L 313.7630662020906 261.31528046421664 L 315.5052264808362 261.17021276595744 L 317.2473867595819 257.3984526112186 L 318.9895470383275 257.83365570599614 L 320.7317073170732 254.35203094777563 L 322.4738675958188 254.0618955512573 L 324.2160278745645 247.67891682785302 L 325.9581881533101 248.98452611218568 L 327.70034843205576 246.9535783365571 L 329.4425087108014 249.12959381044487 L 331.18466898954705 244.3423597678917 L 332.9268292682927 241.29593810444874 L 334.66898954703834 235.0580270793037 L 336.411149825784 231.431334622824 L 338.1533101045296 232.73694390715667 L 339.89547038327527 231.72147001934235 L 341.6376306620209 236.50870406189557 L 343.37979094076655 230.85106382978722 L 345.1219512195122 229.25531914893617 L 346.86411149825784 230.70599613152808 L 348.6062717770035 232.88201160541587 L 350.34843205574913 228.67504835589943 L 352.0905923344948 226.20889748549325 L 353.8327526132404 224.7582205029014 L 355.57491289198606 218.95551257253385 L 357.3170731707317 216.34429400386847 L 359.05923344947735 215.47388781431334 L 360.801393728223 209.81624758220505 L 362.54355400696863 211.5570599613153 L 364.2857142857143 211.7021276595745 L 366.0278745644599 207.9303675048356 L 367.77003484320556 205.46421663442942 L 369.5121951219512 212.13733075435204 L 371.25435540069685 205.31914893617022 L 372.9965156794425 205.17408123791103 L 374.73867595818814 199.08123791102514 L 376.4808362369338 203.57833655705997 L 378.2229965156795 204.1586073500967 L 379.96515679442507 200.9671179883946 L 381.70731707317077 202.56286266924565 L 383.44947735191636 203.43326885880077 L 385.19163763066206 202.70793036750484 L 386.93379790940764 210.25145067698259 L 388.67595818815334 196.47001934235976 L 390.41811846689893 186.46034816247584 L 392.16027874564463 184.7195357833656 L 393.9024390243902 184.86460348162478 L 395.6445993031359 180.36750483558995 L 397.3867595818815 187.62088974854936 L 399.1289198606272 181.8181818181818 L 400.8710801393728 181.09284332688588 L 402.6132404181185 183.26885880077373 L 404.3554006968641 185.00967117988398 L 406.0975609756098 184.4294003868472 L 407.8397212543554 183.55899419729207 L 409.58188153310107 184.13926499032885 L 411.3240418118467 180.07736943907156 L 413.06620209059236 179.64216634429403 L 414.808362369338 179.93230174081242 L 416.55052264808364 179.20696324951643 L 418.2926829268293 178.3365570599613 L 420.03484320557493 173.40425531914894 L 421.7770034843206 174.27466150870407 L 423.5191637630662 175.2901353965184 L 425.26132404181186 174.27466150870407 L 427.0034843205575 170.35783365570603 L 428.74564459930315 161.94390715667316 L 430.4878048780488 165.13539651837527 L 432.22996515679444 161.65377176015477 L 433.9721254355401 152.6595744680851 L 435.7142857142857 157.88201160541587 L 437.45644599303137 154.40038684719536 L 439.198606271777 153.0947775628627 L 440.94076655052265 138.29787234042556 L 442.6829268292683 133.0754352030948 L 444.42508710801394 127.56286266924565 L 446.1672473867596 130.17408123791103 L 447.9094076655052 132.05996131528047 L 449.65156794425087 116.97292069632499 L 451.3937282229965 116.10251450676986 L 453.13588850174216 122.48549323017409 L 454.8780487804878 126.98259187620891 L 456.62020905923345 117.84332688588012 L 458.3623693379791 116.10251450676986 L 460.10452961672473 117.69825918762092 L 461.8466898954704 106.81818181818187 L 463.588850174216 106.38297872340428 L 465.33101045296166 109.86460348162478 L 467.0731707317073 103.6266924564797 L 468.81533101045295 110.44487427466152 L 470.5574912891986 107.97872340425533 L 472.29965156794424 100 L 474.0418118466899 154.69052224371376 L 475.7839721254355 121.47001934235982 L 477.52613240418117 115.66731141199227 L 479.2682926829268 117.11798839458419 L 481.01045296167246 113.0560928433269 L 482.7526132404181 113.0560928433269 L 484.49477351916374 112.47582205029016 L 486.2369337979094 114.36170212765961 L 487.97909407665503 114.07156673114122 L 489.7212543554007 116.10251450676986 L 491.4634146341463 123.06576402321087 L 493.20557491289196 120.5996131528047 L 494.9477351916376 121.03481624758223 L 496.68989547038325 136.2669245647969 L 498.4320557491289 119.14893617021278 L 500.17421602787454 120.74468085106383 L 501.91637630662024 130.7543520309478 L 503.6585365853659 136.2669245647969 L 505.4006968641115 145.40618955512576 L 507.14285714285717 144.97098646034817 L 508.8850174216028 149.0328820116054 L 510.62717770034845 153.96518375241783 L 512.3693379790941 158.46228239845266 L 514.1114982578397 163.53965183752422 L 515.8536585365854 167.31141199226306 L 517.5958188153311 176.59574468085106 L 519.3379790940767 172.8239845261122 L 521.0801393728223 182.2533849129594 L 522.822299651568 187.47582205029016 L 524.5644599303137 190.66731141199227 L 526.3066202090592 190.08704061895554 L 528.0487804878048 200.24177949709866 L 529.7909407665505 204.8839458413927 L 531.5331010452962 214.31334622823988 L 533.2752613240418 224.90328820116054 L 535.0174216027874 223.45261121856868 L 536.7595818815331 217.3597678916828 L 538.5017421602788 218.81044487427465 L 540.2439024390244 223.30754352030948 L 541.98606271777 237.5241779497099 L 543.7282229965157 247.38878143133462 L 545.4703832752614 244.92263056092844 L 547.212543554007 249.8549323017408 L 548.9547038327526 255.80270793036755 L 550.6968641114983 253.04642166344297 L 552.439024390244 264.94197292069634 L 554.1811846689895 261.31528046421664 L 555.9233449477351 263.926499032882 L 557.6655052264808 262.04061895551257 L 559.4076655052265 266.3926499032882 L 561.1498257839721 265.95744680851067 L 562.8919860627177 264.94197292069634 L 564.6341463414634 268.8588007736944 L 566.3763066202091 271.1798839458414 L 568.1184668989547 269.294003868472 L 569.8606271777003 267.5531914893617 L 571.602787456446 265.6673114119923 L 573.3449477351917 262.62088974854936 L 575.0871080139373 264.94197292069634 L 576.8292682926829 273.21083172147 L 578.5714285714286 273.7911025145068 L 580.3135888501743 280.4642166344294 L 582.0557491289198 283.220502901354 L 583.7979094076654 282.35009671179887 L 585.5400696864111 281.18955512572535 L 587.2822299651568 283.9458413926499 L 589.0243902439024 281.04448742746615 L 590.766550522648 283.0754352030948 L 592.5087108013937 279.7388781431335 L 594.2508710801394 278.4332688588008 L 595.993031358885 283.9458413926499 L 597.7351916376306 281.33462282398455 L 599.4773519163763 292.7949709864604 L 601.219512195122 293.5203094777563 L 602.9616724738676 296.5667311411992 L 604.7038327526133 293.6653771760155 L 606.445993031359 297.43713733075435 L 608.1881533101046 306.431334622824 L 609.9303135888501 306.1411992263056 L 611.6724738675958 307.30174081237914 L 613.4146341463415 307.5918762088975 L 615.1567944250871 308.752417794971 L 616.8989547038327 315.715667311412 L 618.6411149825784 315.4255319148936 L 620.3832752613241 325.2901353965184 L 622.1254355400697 328.04642166344297 L 623.8675958188153 335.4448742746615 L 625.609756097561 338.4912959381045 L 627.3519163763067 342.2630560928433 L 629.0940766550523 345.4545454545455 L 630.8362369337979 345.1644100580271 L 632.5783972125436 346.76015473887816 L 634.3205574912893 345.4545454545455 L 636.0627177700349 346.03481624758217 L 637.8048780487804 348.5009671179884 L 639.5470383275261 357.7852998065764 L 641.2891986062718 362.5725338491296 L 643.0313588850174 363.7330754352031 L 644.773519163763 365.3288201160542 L 646.5156794425087 367.504835589942 L 648.2578397212544 400 L 650 369.24564796905224 L 650 400 Z" /><text  class="poloto_labels poloto_text poloto_title" alignment-baseline="start" text-anchor="middle" font-size="x-large" x="400" y="37.5" >Total players on 2021-08-22</text><text  class="poloto_labels poloto_text poloto_xname" alignment-baseline="start" text-anchor="middle" font-size="x-large" x="400" y="481.25" >Time</text><text  class="poloto_labels poloto_text poloto_yname" alignment-baseline="start" text-anchor="middle" font-size="x-large" transform="rotate(-90,37.5,250)" x="37.5" y="250" >Count</text><line  class="poloto_axis_lines" stroke="black" x1="150" x2="150" y1="400" y2="405" /><text  class="poloto_tick_labels poloto_text" alignment-baseline="start" text-anchor="middle" x="150" y="430" > 00:00:00</text><line  class="poloto_axis_lines" stroke="black" x1="266.14401858304296" x2="266.14401858304296" y1="400" y2="405" /><text  class="poloto_tick_labels poloto_text" alignment-baseline="start" text-anchor="middle" x="266.14401858304296" y="430" > 05:33:20</text><line  class="poloto_axis_lines" stroke="black" x1="382.2880371660859" x2="382.2880371660859" y1="400" y2="405" /><text  class="poloto_tick_labels poloto_text" alignment-baseline="start" text-anchor="middle" x="382.2880371660859" y="430" > 11:06:40</text><line  class="poloto_axis_lines" stroke="black" x1="498.4320557491289" x2="498.4320557491289" y1="400" y2="405" /><text  class="poloto_tick_labels poloto_text" alignment-baseline="start" text-anchor="middle" x="498.4320557491289" y="430" > 16:40:00</text><line  class="poloto_axis_lines" stroke="black" x1="614.5760743321719" x2="614.5760743321719" y1="400" y2="405" /><text  class="poloto_tick_labels poloto_text" alignment-baseline="start" text-anchor="middle" x="614.5760743321719" y="430" > 22:13:20</text><line  class="poloto_axis_lines" stroke="black" x1="150" x2="144" y1="363.29787234042556" y2="363.29787234042556" /><text  class="poloto_tick_labels poloto_text" alignment-baseline="middle" text-anchor="end" x="135" y="363.29787234042556" > 1500</text><line  class="poloto_axis_lines" stroke="black" x1="150" x2="144" y1="290.76402321083174" y2="290.76402321083174" /><text  class="poloto_tick_labels poloto_text" alignment-baseline="middle" text-anchor="end" x="135" y="290.76402321083174" > 2000</text><line  class="poloto_axis_lines" stroke="black" x1="150" x2="144" y1="218.23017408123792" y2="218.23017408123792" /><text  class="poloto_tick_labels poloto_text" alignment-baseline="middle" text-anchor="end" x="135" y="218.23017408123792" > 2500</text><line  class="poloto_axis_lines" stroke="black" x1="150" x2="144" y1="145.6963249516441" y2="145.6963249516441" /><text  class="poloto_tick_labels poloto_text" alignment-baseline="middle" text-anchor="end" x="135" y="145.6963249516441" > 3000</text><path  stroke="black" fill="none" class="poloto_axis_lines" style="stroke-dasharray:14.518002322880372;stroke-dashoffset:-0;" d=" M 150 400 L 650 400" /><path  stroke="black" fill="none" class="poloto_axis_lines" style="stroke-dasharray:7.253384912959381;stroke-dashoffset:-36.70212765957447;" d=" M 150 400 L 150 100" /></svg>