<svg class="poloto" width="800" height="500" viewBox="0 0 800 500" xmlns="http://www.w3.org/2000/svg"><style>.poloto { stroke-linecap:round; stroke-linejoin:round; font-family: 'Tahoma', sans-serif; background-color: AliceBlue;} .poloto_scatter{stroke-width:7} .poloto_line{stroke-width:2} .poloto_text{fill: black;} .poloto_axis_lines{stroke: black;stroke-width:3;fill:none;stroke-dasharray:none} .poloto0stroke{stroke:  blue;} .poloto1stroke{stroke:  red;} .poloto2stroke{stroke:  green;} .poloto3stroke{stroke:  gold;} .poloto4stroke{stroke:  aqua;} .poloto5stroke{stroke:  lime;} .poloto6stroke{stroke:  orange;} .poloto7stroke{stroke:  chocolate;} .poloto0fill{fill:blue;} .poloto1fill{fill:red;} .poloto2fill{fill:green;} .poloto3fill{fill:gold;} .poloto4fill{fill:aqua;} .poloto5fill{fill:lime;} .poloto6fill{fill:orange;} .poloto7fill{fill:chocolate;}</style><text  class="poloto_text poloto_legend_text" alignment-baseline="middle" text-anchor="start" font-size="large" x="675" y="100" ></text><path  class="poloto_linefill poloto0fill" d=" M 150 400 L 150 340.27885360185905 L 151.74216027874564 346.3206816421379 L 153.4843205574913 350.9682416731216 L 155.22648083623693 343.29976762199846 L 156.96864111498257 344.92641363284275 L 158.71080139372822 350.9682416731216 L 160.45296167247386 355.151045701007 L 162.1951219512195 356.08055770720375 L 163.93728222996515 359.56622773044154 L 165.6794425087108 344.92641363284275 L 167.42160278745644 350.0387296669249 L 169.16376306620208 353.98915569326107 L 170.90592334494772 365.8404337722696 L 172.64808362369337 362.35476374903175 L 174.390243902439 366.3051897753679 L 176.13240418118465 368.3965917893106 L 177.8745644599303 380.7126258714175 L 179.61672473867597 381.1773818745159 L 181.3588850174216 392.56390395042604 L 183.10104529616726 393.2610379550736 L 184.8432055749129 396.0495739736638 L 186.58536585365854 387.9163439194423 L 188.3275261324042 389.31061192873744 L 190.06968641114983 390.93725793958174 L 191.81184668989548 397.2114639814098 L 193.55400696864112 400 L 195.29616724738676 399.76762199845086 L 197.0383275261324 397.6762199845082 L 198.78048780487805 396.5143299767622 L 200.5226480836237 393.2610379550736 L 202.26480836236934 393.72579395817195 L 204.00696864111498 386.0573199070488 L 205.74912891986062 388.61347792408986 L 207.49128919860627 397.6762199845082 L 209.2334494773519 396.0495739736638 L 210.97560975609755 392.56390395042604 L 212.7177700348432 392.56390395042604 L 214.45993031358887 394.42292796281953 L 216.2020905923345 389.54298993028664 L 217.94425087108016 382.8040278853602 L 219.6864111498258 390.00774593338497 L 221.42857142857144 391.86676994577846 L 223.1707317073171 395.81719597211463 L 224.91289198606273 395.58481797056544 L 226.65505226480838 389.54298993028664 L 228.39721254355402 381.6421378776143 L 230.13937282229966 382.571649883811 L 231.8815331010453 381.4097598760651 L 233.62369337979095 377.4593338497289 L 235.3658536585366 376.99457784663053 L 237.10801393728224 374.20604182804027 L 238.85017421602788 369.5584817970566 L 240.59233449477352 361.42525174283503 L 242.33449477351917 357.24244771494966 L 244.0766550522648 353.2920216886135 L 245.81881533101046 353.98915569326107 L 247.5609756097561 350.5034856700232 L 249.30313588850174 344.4616576297444 L 251.0452961672474 338.18745158791637 L 252.78745644599303 334.7017815646786 L 254.52961672473867 335.1665375677769 L 256.2717770034843 337.2579395817196 L 258.01393728222996 340.04647560030986 L 259.7560975609756 338.8845855925639 L 261.49825783972125 334.004647560031 L 263.2404181184669 360.49573973663826 L 264.98257839721254 355.61580170410537 L 266.7247386759582 336.5608055770721 L 268.4668989547038 350.2711076684741 L 270.20905923344947 349.1092176607281 L 271.9512195121951 342.37025561580174 L 273.69337979094075 336.0960495739737 L 275.4355400696864 329.35708752904725 L 277.17770034843204 324.94190549961274 L 278.9198606271777 324.01239349341597 L 280.6620209059233 324.47714949651436 L 282.40418118466897 325.63903950426027 L 284.1463414634146 326.33617350890785 L 285.88850174216026 324.70952749806355 L 287.6306620209059 325.4066615027111 L 289.37282229965155 322.61812548412087 L 291.1149825783972 321.2238574748257 L 292.85714285714283 321.6886134779241 L 294.5993031358885 318.4353214562355 L 296.3414634146342 307.04879938032536 L 298.08362369337976 319.3648334624322 L 299.82578397212546 322.85050348567006 L 301.56794425087105 329.12470952749806 L 303.31010452961675 313.32300542215336 L 305.05226480836234 315.87916343919443 L 306.79442508710804 315.41440743609604 L 308.5365853658536 316.8086754453912 L 310.2787456445993 313.0906274206042 L 312.0209059233449 318.6676994577847 L 313.7630662020906 322.3857474825717 L 315.5052264808362 320.0619674670798 L 317.2473867595819 316.8086754453912 L 318.9895470383275 312.39349341595664 L 320.7317073170732 307.9783113865221 L 322.4738675958188 302.86599535244 L 324.2160278745645 299.147947327653 L 325.95818815331006 294.0356312935709 L 327.70034843205576 290.7823392718823 L 329.44250871080135 289.155693261038 L 331.18466898954705 283.1138652207591 L 332.92682926829264 281.719597211464 L 334.66898954703834 276.8396591789311 L 336.4111498257839 274.28350116189 L 338.1533101045296 269.8683191324555 L 339.8954703832752 270.3330751355538 L 341.6376306620209 261.0379550735864 L 343.3797909407665 256.3903950426027 L 345.1219512195122 271.0302091402014 L 346.86411149825784 253.13710302091403 L 348.6062717770035 275.44539116963597 L 350.34843205574913 258.9465530596437 L 352.0905923344948 252.90472501936483 L 353.8327526132404 253.36948102246322 L 355.57491289198606 249.65143299767624 L 357.3170731707317 248.02478698683194 L 359.05923344947735 251.74283501161892 L 360.801393728223 243.144848954299 L 362.54355400696863 241.98295894655308 L 364.2857142857143 243.84198295894657 L 366.0278745644599 235.70875290472503 L 367.77003484320556 238.96204492641363 L 369.5121951219512 238.7296669248645 L 371.25435540069685 236.17350890782342 L 372.9965156794425 236.4058869093726 L 374.73867595818814 231.52594887683966 L 376.4808362369338 228.50503485670026 L 378.2229965156794 224.0898528272657 L 379.96515679442507 222.2308288148722 L 381.7073170731707 221.0689388071263 L 383.44947735191636 225.9488768396592 L 385.191637630662 221.99845081332302 L 386.93379790940764 216.42137877614255 L 388.6759581881533 217.11851278079013 L 390.41811846689893 204.33772269558483 L 392.1602787456446 196.66924864446167 L 393.9024390243902 205.0348567002324 L 395.6445993031359 196.2044926413633 L 397.3867595818815 202.01394268009295 L 399.1289198606272 196.66924864446167 L 400.8710801393728 195.27498063516657 L 402.6132404181185 203.64058869093725 L 404.3554006968641 197.13400464756006 L 406.0975609756097 202.47869868319134 L 407.83972125435537 203.87296669248644 L 409.581881533101 201.78156467854376 L 411.32404181184666 202.24632068164215 L 413.0662020905923 193.8807126258714 L 414.80836236933794 187.14175058094503 L 416.5505226480836 182.49419054996127 L 418.29268292682923 172.0371804802479 L 420.0348432055749 168.08675445391174 L 421.7770034843206 169.24864446165765 L 423.5191637630662 172.50193648334624 L 425.26132404181186 177.3818745158792 L 427.0034843205575 186.67699457784664 L 428.74564459930315 169.71340046475603 L 430.4878048780488 169.24864446165765 L 432.22996515679444 156.93261037955074 L 433.9721254355401 154.37645236250972 L 435.7142857142857 161.8125484120837 L 437.45644599303137 152.74980635166537 L 439.198606271777 151.35553834237027 L 440.94076655052265 151.58791634391946 L 442.6829268292683 152.51742835011623 L 444.42508710801394 147.1727343144849 L 446.1672473867596 139.2718822618126 L 447.9094076655052 140.66615027110765 L 449.65156794425087 138.80712625871422 L 451.3937282229965 137.87761425251745 L 453.13588850174216 136.018590240124 L 454.8780487804878 129.04725019364832 L 456.62020905923345 114.40743609604965 L 458.3623693379791 117.428350116189 L 460.10452961672473 118.5902401239349 L 461.8466898954704 110.9217660728118 L 463.588850174216 109.06274206041826 L 465.33101045296166 111.3865220759102 L 467.0731707317073 111.3865220759102 L 468.81533101045295 103.48567002323784 L 470.5574912891986 111.3865220759102 L 472.29965156794424 131.83578621223865 L 474.0418118466899 100 L 475.7839721254355 107.43609604957396 L 477.52613240418117 107.20371804802483 L 479.2682926829268 113.47792408985288 L 481.01045296167246 113.47792408985288 L 482.7526132404181 113.71030209140201 L 484.49477351916374 106.5065840433773 L 486.2369337979094 110.45701006971342 L 487.97909407665503 115.33694810224631 L 489.7212543554007 129.74438419829596 L 491.4634146341463 121.14639814097598 L 493.20557491289196 122.54066615027114 L 494.9477351916376 126.49109217660725 L 496.68989547038325 119.28737412858254 L 498.4320557491289 132.7652982184353 L 500.17421602787454 130.20914020139423 L 501.9163763066202 135.32145623547638 L 503.6585365853658 133.69481022463208 L 505.40069686411147 138.57474825716497 L 507.1428571428571 147.4051123160341 L 508.88501742160275 147.4051123160341 L 510.6271777003484 145.3137103020914 L 512.3693379790941 157.39736638264912 L 514.1114982578397 163.2068164213788 L 515.8536585365853 172.50193648334624 L 517.595818815331 172.96669248644463 L 519.3379790940767 164.36870642912476 L 521.0801393728223 174.82571649883812 L 522.822299651568 170.87529047250194 L 524.5644599303137 179.0085205267235 L 526.3066202090592 151.12316034082107 L 528.0487804878048 158.79163439194423 L 529.7909407665505 159.4887683965918 L 531.5331010452962 164.6010844306739 L 533.2752613240418 167.85437645236254 L 535.0174216027874 175.2904725019365 L 536.7595818815331 175.7552285050349 L 538.5017421602788 175.2904725019365 L 540.2439024390244 177.84663051897758 L 541.98606271777 197.59876065065845 L 543.7282229965157 195.27498063516657 L 545.4703832752614 195.73973663826496 L 547.212543554007 202.01394268009295 L 548.9547038327526 205.96436870642913 L 550.6968641114983 211.07668474051127 L 552.439024390244 205.73199070487993 L 554.1811846689895 206.4291247095275 L 555.9233449477351 220.37180480247872 L 557.6655052264808 223.62509682416731 L 559.4076655052265 223.62509682416731 L 561.1498257839721 228.50503485670026 L 562.8919860627177 229.43454686289698 L 564.6341463414634 228.73741285824946 L 566.3763066202091 233.38497288923315 L 568.1184668989547 234.31448489542993 L 569.8606271777003 240.58869093725798 L 571.602787456446 236.870642912471 L 573.3449477351917 240.1239349341596 L 575.0871080139373 246.86289697908597 L 576.8292682926829 245.00387296669248 L 578.5714285714286 244.30673896204496 L 580.3135888501743 246.39814097598764 L 582.0557491289198 235.47637490317584 L 583.7979094076654 232.68783888458563 L 585.5400696864111 235.94113090627422 L 587.2822299651568 236.870642912471 L 589.0243902439024 237.80015491866772 L 590.766550522648 245.70100697134006 L 592.5087108013937 244.30673896204496 L 594.2508710801394 240.58869093725798 L 595.993031358885 241.98295894655308 L 597.7351916376306 234.54686289697912 L 599.4773519163763 241.98295894655308 L 601.219512195122 244.7714949651433 L 602.9616724738676 252.67234701781564 L 604.7038327526132 257.5522850503486 L 606.4459930313589 260.573199070488 L 608.1881533101046 264.75600309837336 L 609.9303135888501 269.8683191324555 L 611.6724738675957 266.61502711076685 L 613.4146341463414 262.4322230828815 L 615.1567944250871 277.30441518202946 L 616.8989547038327 271.4949651432998 L 618.6411149825783 275.67776917118516 L 620.383275261324 283.8109992254067 L 622.1254355400697 278.46630518977537 L 623.8675958188153 282.41673121611154 L 625.609756097561 286.5995352439969 L 627.3519163763067 293.57087529047254 L 629.0940766550523 347.25019364833463 L 630.8362369337979 306.81642137877617 L 632.5783972125436 308.90782339271885 L 634.3205574912893 310.53446940356315 L 636.0627177700349 321.4562354763749 L 637.8048780487804 320.5267234701782 L 639.5470383275261 322.85050348567006 L 641.2891986062718 327.73044151820295 L 643.0313588850174 321.2238574748257 L 644.773519163763 329.12470952749806 L 646.5156794425087 344.4616576297444 L 648.2578397212544 342.37025561580174 L 650 348.1797056545314 L 650 400 Z" /><text  class="poloto_labels poloto_text poloto_title" alignment-baseline="start" text-anchor="middle" font-size="x-large" x="400" y="37.5" >Total players on 2021-07-04</text><text  class="poloto_labels poloto_text poloto_xname" alignment-baseline="start" text-anchor="middle" font-size="x-large" x="400" y="481.25" >Time</text><text  class="poloto_labels poloto_text poloto_yname" alignment-baseline="start" text-anchor="middle" font-size="x-large" transform="rotate(-90,37.5,250)" x="37.5" y="250" >Count</text><line  class="poloto_axis_lines" stroke="black" x1="208.0487804878049" x2="208.0487804878049" y1="400" y2="405" /><text  class="poloto_tick_labels poloto_text" alignment-baseline="start" text-anchor="middle" x="208.0487804878049" y="430" > 02:46:40</text><line  class="poloto_axis_lines" stroke="black" x1="266.1207897793264" x2="266.1207897793264" y1="400" y2="405" /><text  class="poloto_tick_labels poloto_text" alignment-baseline="start" text-anchor="middle" x="266.1207897793264" y="430" > 05:33:20</text><line  class="poloto_axis_lines" stroke="black" x1="324.19279907084785" x2="324.19279907084785" y1="400" y2="405" /><text  class="poloto_tick_labels poloto_text" alignment-baseline="start" text-anchor="middle" x="324.19279907084785" y="430" > 08:20:00</text><line  class="poloto_axis_lines" stroke="black" x1="382.2648083623693" x2="382.2648083623693" y1="400" y2="405" /><text  class="poloto_tick_labels poloto_text" alignment-baseline="start" text-anchor="middle" x="382.2648083623693" y="430" > 11:06:40</text><line  class="poloto_axis_lines" stroke="black" x1="440.3368176538908" x2="440.3368176538908" y1="400" y2="405" /><text  class="poloto_tick_labels poloto_text" alignment-baseline="start" text-anchor="middle" x="440.3368176538908" y="430" > 13:53:20</text><line  class="poloto_axis_lines" stroke="black" x1="498.4088269454123" x2="498.4088269454123" y1="400" y2="405" /><text  class="poloto_tick_labels poloto_text" alignment-baseline="start" text-anchor="middle" x="498.4088269454123" y="430" > 16:40:00</text><line  class="poloto_axis_lines" stroke="black" x1="556.4808362369338" x2="556.4808362369338" y1="400" y2="405" /><text  class="poloto_tick_labels poloto_text" alignment-baseline="start" text-anchor="middle" x="556.4808362369338" y="430" > 19:26:40</text><line  class="poloto_axis_lines" stroke="black" x1="614.5528455284552" x2="614.5528455284552" y1="400" y2="405" /><text  class="poloto_tick_labels poloto_text" alignment-baseline="start" text-anchor="middle" x="614.5528455284552" y="430" > 22:13:20</text><line  class="poloto_axis_lines" stroke="black" x1="150" x2="144" y1="374.20604182804027" y2="374.20604182804027" /><text  class="poloto_tick_labels poloto_text" alignment-baseline="middle" text-anchor="end" x="135" y="374.20604182804027" > 1200</text><line  class="poloto_axis_lines" stroke="black" x1="150" x2="144" y1="327.73044151820295" y2="327.73044151820295" /><text  class="poloto_tick_labels poloto_text" alignment-baseline="middle" text-anchor="end" x="135" y="327.73044151820295" > 1400</text><line  class="poloto_axis_lines" stroke="black" x1="150" x2="144" y1="281.25484120836563" y2="281.25484120836563" /><text  class="poloto_tick_labels poloto_text" alignment-baseline="middle" text-anchor="end" x="135" y="281.25484120836563" > 1600</text><line  class="poloto_axis_lines" stroke="black" x1="150" x2="144" y1="234.77924089852831" y2="234.77924089852831" /><text  class="poloto_tick_labels poloto_text" alignment-baseline="middle" text-anchor="end" x="135" y="234.77924089852831" > 1800</text><line  class="poloto_axis_lines" stroke="black" x1="150" x2="144" y1="188.30364058869094" y2="188.30364058869094" /><text  class="poloto_tick_labels poloto_text" alignment-baseline="middle" text-anchor="end" x="135" y="188.30364058869094" > 2000</text><line  class="poloto_axis_lines" stroke="black" x1="150" x2="144" y1="141.82804027885362" y2="141.82804027885362" /><text  class="poloto_tick_labels poloto_text" alignment-baseline="middle" text-anchor="end" x="135" y="141.82804027885362" > 2200</text><path  stroke="black" fill="none" class="poloto_axis_lines" style="stroke-dasharray:14.518002322880372;stroke-dashoffset:-58.04878048780488;" d=" M 150 400 L 650 400" /><path  stroke="black" fill="none" class="poloto_axis_lines" style="stroke-dasharray:11.618900077459333;stroke-dashoffset:-25.79395817195973;" d=" M 150 400 L 150 100" /></svg>