<svg class="poloto" width="800" height="500" viewBox="0 0 800 500" xmlns="http://www.w3.org/2000/svg"><style>.poloto { stroke-linecap:round; stroke-linejoin:round; font-family: 'Tahoma', sans-serif; background-color: AliceBlue;} .poloto_scatter{stroke-width:7} .poloto_line{stroke-width:2} .poloto_text{fill: black;} .poloto_axis_lines{stroke: black;stroke-width:3;fill:none;stroke-dasharray:none} .poloto0stroke{stroke:  blue;} .poloto1stroke{stroke:  red;} .poloto2stroke{stroke:  green;} .poloto3stroke{stroke:  gold;} .poloto4stroke{stroke:  aqua;} .poloto5stroke{stroke:  lime;} .poloto6stroke{stroke:  orange;} .poloto7stroke{stroke:  chocolate;} .poloto0fill{fill:blue;} .poloto1fill{fill:red;} .poloto2fill{fill:green;} .poloto3fill{fill:gold;} .poloto4fill{fill:aqua;} .poloto5fill{fill:lime;} .poloto6fill{fill:orange;} .poloto7fill{fill:chocolate;}</style><text  class="poloto_text poloto_legend_text" alignment-baseline="middle" text-anchor="start" font-size="large" x="675" y="100" ></text><path  class="poloto_linefill poloto0fill" d=" M 150 400 L 150 340.1012373453318 L 151.74216027874564 335.37682789651296 L 153.4843205574913 347.69403824521936 L 155.22648083623693 349.718785151856 L 156.96864111498257 355.11811023622045 L 158.71080139372822 364.3982002249719 L 160.45296167247386 358.66141732283467 L 162.1951219512195 356.97412823397076 L 163.93728222996515 359.5050618672666 L 165.6794425087108 357.6490438695163 L 167.42160278745644 363.89201349831274 L 169.16376306620208 363.5545556805399 L 170.90592334494772 363.5545556805399 L 172.64808362369337 365.5793025871766 L 174.390243902439 373.5095613048369 L 176.13240418118465 369.96625421822273 L 177.8745644599303 365.748031496063 L 179.61672473867597 367.77277840269966 L 181.3588850174216 369.46006749156356 L 183.10104529616726 370.8098987626547 L 184.8432055749129 366.5916760404949 L 186.58536585365854 367.0978627671541 L 188.3275261324042 370.1349831271091 L 190.06968641114983 372.66591676040497 L 191.81184668989548 376.8841394825647 L 193.55400696864112 368.1102362204724 L 195.29616724738676 366.42294713160857 L 197.0383275261324 368.2789651293589 L 198.78048780487805 369.2913385826772 L 200.5226480836237 370.97862767154106 L 202.26480836236934 372.49718785151856 L 204.00696864111498 372.66591676040497 L 205.74912891986062 375.3655793025872 L 207.49128919860627 378.90888638920137 L 209.2334494773519 380.5961754780652 L 210.97560975609755 382.2834645669292 L 212.7177700348432 380.25871766029246 L 214.45993031358887 384.4769403824522 L 216.2020905923345 382.1147356580427 L 217.94425087108016 377.89651293588304 L 219.6864111498258 375.1968503937008 L 221.42857142857144 378.4026996625422 L 223.1707317073171 378.74015748031496 L 224.91289198606273 378.74015748031496 L 226.65505226480838 385.82677165354335 L 228.39721254355402 384.64566929133855 L 230.13937282229966 387.00787401574803 L 231.8815331010453 388.18897637795277 L 233.62369337979095 387.34533183352085 L 235.3658536585366 393.92575928009 L 237.10801393728224 391.22609673790777 L 238.85017421602788 389.8762654668167 L 240.59233449477352 389.2013498312711 L 242.33449477351917 387.17660292463444 L 244.0766550522648 389.70753655793027 L 245.81881533101046 390.7199100112486 L 247.5609756097561 392.9133858267717 L 249.30313588850174 400 L 251.0452961672474 396.6254218222722 L 252.78745644599303 394.09448818897636 L 254.52961672473867 393.7570303712036 L 256.2717770034843 393.41957255343084 L 258.01393728222996 387.5140607424072 L 259.7560975609756 381.77727784026996 L 261.49825783972125 381.1023622047244 L 263.2404181184669 374.69066366704163 L 264.98257839721254 374.69066366704163 L 266.7247386759582 375.3655793025872 L 268.4668989547038 371.1473565804274 L 270.20905923344947 364.73565804274466 L 271.9512195121951 364.90438695163107 L 273.69337979094075 366.08548931383575 L 275.4355400696864 368.2789651293589 L 277.17770034843204 368.78515185601805 L 278.91986062717774 362.8796400449944 L 280.6620209059233 358.49268841394826 L 282.404181184669 357.3115860517436 L 284.1463414634146 359.8425196850394 L 285.8885017421603 363.21709786276716 L 287.6306620209059 363.5545556805399 L 289.3728222996516 367.0978627671541 L 291.1149825783972 365.9167604049494 L 292.8571428571429 368.44769403824523 L 294.5993031358885 370.97862767154106 L 296.3414634146342 373.34083239595054 L 298.08362369337976 373.0033745781777 L 299.82578397212546 371.48481439820023 L 301.56794425087105 374.18447694038247 L 303.31010452961675 372.66591676040497 L 305.05226480836234 372.49718785151856 L 306.79442508710804 375.1968503937008 L 308.5365853658536 373.17210348706413 L 310.2787456445993 371.1473565804274 L 312.0209059233449 368.9538807649044 L 313.7630662020906 366.08548931383575 L 315.5052264808362 359.33633295838024 L 317.2473867595819 358.8301462317211 L 318.9895470383275 355.2868391451069 L 320.7317073170732 350.89988751406077 L 322.4738675958188 346.00674915635545 L 324.2160278745645 344.1507311586052 L 325.9581881533101 340.607424071991 L 327.70034843205576 336.72665916760405 L 329.4425087108014 334.7019122609674 L 331.18466898954705 334.533183352081 L 332.9268292682927 329.4713160854893 L 334.66898954703834 328.7964004499438 L 336.411149825784 322.89088863892016 L 338.1533101045296 322.384701912261 L 339.89547038327527 320.35995500562433 L 341.6376306620209 316.14173228346453 L 343.37979094076655 314.62317210348704 L 345.1219512195122 313.77952755905517 L 346.86411149825784 308.54893138357704 L 348.6062717770035 301.29358830146236 L 350.34843205574913 302.13723284589423 L 352.0905923344948 301.9685039370079 L 353.8327526132404 306.355455568054 L 355.57491289198606 305.0056242969629 L 357.3170731707317 305.3430821147357 L 359.05923344947735 306.8616422947132 L 360.801393728223 306.0179977502812 L 362.54355400696863 306.0179977502812 L 364.2857142857143 306.355455568054 L 366.0278745644599 300.4499437570304 L 367.77003484320556 313.6107986501687 L 369.5121951219512 300.4499437570304 L 371.25435540069685 293.19460067491565 L 372.9965156794425 289.1451068616423 L 374.73867595818814 293.5320584926884 L 376.4808362369338 287.28908886389206 L 378.2229965156795 282.39595050618675 L 379.96515679442507 287.62654668166476 L 381.70731707317077 284.4206974128234 L 383.44947735191636 276.8278965129359 L 385.19163763066206 274.1282339707536 L 386.93379790940764 278.0089988751406 L 388.67595818815334 283.57705286839143 L 390.41811846689893 267.8852643419573 L 392.16027874564463 267.7165354330709 L 393.9024390243902 271.59730033745785 L 395.6445993031359 251.6872890888639 L 397.3867595818815 256.2429696287964 L 399.1289198606272 250.84364454443198 L 400.8710801393728 250 L 402.6132404181185 240.04499437570303 L 404.3554006968641 236.3329583802025 L 406.0975609756098 244.60067491563558 L 407.8397212543554 231.6085489313836 L 409.58188153310107 228.4026996625422 L 411.3240418118467 218.785151856018 L 413.06620209059236 211.69853768278966 L 414.808362369338 220.6411698537683 L 416.55052264808364 208.66141732283467 L 418.2926829268293 201.23734533183352 L 420.03484320557493 203.93700787401576 L 421.7770034843206 209.5050618672666 L 423.5191637630662 193.13835770528686 L 425.26132404181186 192.80089988751405 L 427.0034843205575 192.96962879640046 L 428.74564459930315 200.2249718785152 L 430.4878048780488 182.33970753655797 L 432.22996515679444 170.35995500562433 L 433.9721254355401 167.32283464566933 L 435.7142857142857 161.4173228346457 L 437.45644599303137 159.22384701912262 L 439.198606271777 151.63104611923512 L 440.94076655052265 147.24409448818898 L 442.6829268292683 142.35095613048372 L 444.42508710801394 140.66366704161982 L 446.1672473867596 134.92688413948258 L 447.9094076655052 134.08323959505066 L 449.65156794425087 127.67154105736785 L 451.3937282229965 127.33408323959509 L 453.13588850174216 124.97187851518561 L 454.8780487804878 126.32170978627676 L 456.62020905923345 121.59730033745785 L 458.3623693379791 118.56017997750286 L 460.10452961672473 113.16085489313838 L 461.8466898954704 119.23509561304837 L 463.588850174216 120.75365579302587 L 465.33101045296166 121.7660292463442 L 467.0731707317073 118.39145106861645 L 468.81533101045295 118.39145106861645 L 470.5574912891986 110.9673790776153 L 472.29965156794424 100 L 474.0418118466899 102.02474690663666 L 475.7839721254355 102.02474690663666 L 477.52613240418117 110.9673790776153 L 479.2682926829268 116.19797525309338 L 481.01045296167246 105.39932508436448 L 482.7526132404181 107.93025871766031 L 484.49477351916374 110.79865016872895 L 486.2369337979094 120.58492688413952 L 487.97909407665503 113.66704161979754 L 489.7212543554007 119.57255343082119 L 491.4634146341463 131.214848143982 L 493.20557491289196 134.42069741282342 L 494.9477351916376 137.79527559055117 L 496.68989547038325 138.132733408324 L 498.4320557491289 143.86951631046122 L 500.17421602787454 147.75028121484814 L 501.91637630662024 149.7750281214848 L 503.6585365853659 154.33070866141736 L 505.4006968641115 165.2980877390326 L 507.14285714285717 175.25309336332958 L 508.8850174216028 180.65241844769406 L 510.62717770034845 190.10123734533187 L 512.3693379790941 187.23284589426322 L 514.1114982578397 197.3565804274466 L 515.8536585365854 203.09336332958384 L 517.5958188153311 201.57480314960634 L 519.3379790940767 195.8380202474691 L 521.0801393728223 199.88751406074243 L 522.822299651568 202.0809898762655 L 524.5644599303137 202.75590551181102 L 526.3066202090592 206.80539932508435 L 528.0487804878048 217.94150731158607 L 529.7909407665505 217.6040494938133 L 531.5331010452962 226.5466816647919 L 533.2752613240418 226.04049493813272 L 535.0174216027874 208.1552305961755 L 536.7595818815331 211.3610798650169 L 538.5017421602788 214.90438695163107 L 540.2439024390244 221.31608548931388 L 541.98606271777 215.07311586051748 L 543.7282229965157 220.6411698537683 L 545.4703832752614 217.4353205849269 L 547.212543554007 223.6782902137233 L 548.9547038327526 224.01574803149606 L 550.6968641114983 220.6411698537683 L 552.439024390244 224.35320584926887 L 554.1811846689895 221.48481439820023 L 555.9233449477351 223.34083239595054 L 557.6655052264808 227.22159730033746 L 559.4076655052265 224.85939257592804 L 561.1498257839721 226.7154105736783 L 562.8919860627177 218.9538807649044 L 564.6341463414634 221.82227221597304 L 566.3763066202091 226.04049493813272 L 568.1184668989547 232.28346456692913 L 569.8606271777003 239.70753655793027 L 571.602787456446 235.32058492688418 L 573.3449477351917 238.86389201349834 L 575.0871080139373 237.6827896512936 L 576.8292682926829 247.30033745781776 L 578.5714285714286 253.54330708661416 L 580.3135888501743 246.962879640045 L 582.0557491289198 251.34983127109115 L 583.7979094076654 255.73678290213724 L 585.5400696864111 249.83127109111365 L 587.2822299651568 249.15635545556808 L 589.0243902439024 255.56805399325083 L 590.766550522648 262.99212598425197 L 592.5087108013937 264.6794150731159 L 594.2508710801394 263.1608548931384 L 595.993031358885 262.8233970753656 L 597.7351916376306 259.78627671541057 L 599.4773519163763 266.02924634420697 L 601.219512195122 271.7660292463442 L 602.9616724738676 267.8852643419573 L 604.7038327526133 271.59730033745785 L 606.445993031359 275.4780652418448 L 608.1881533101046 278.51518560179977 L 609.9303135888501 275.140607424072 L 611.6724738675958 279.6962879640045 L 613.4146341463415 291.3385826771654 L 615.1567944250871 291.50731158605174 L 616.8989547038327 294.206974128234 L 618.6411149825784 294.0382452193476 L 620.3832752613241 297.58155230596174 L 622.1254355400697 301.29358830146236 L 623.8675958188153 301.79977502812153 L 625.609756097561 300.28121484814403 L 627.3519163763067 299.2688413948257 L 629.0940766550523 300.11248593925757 L 630.8362369337979 306.6929133858268 L 632.5783972125436 312.7671541057368 L 634.3205574912893 315.1293588301462 L 636.0627177700349 314.96062992125985 L 637.8048780487804 324.24071991001125 L 639.5470383275261 329.30258717660297 L 641.2891986062718 330.9898762654668 L 643.0313588850174 331.32733408323963 L 644.773519163763 329.80877390326214 L 646.5156794425087 331.8335208098988 L 648.2578397212544 331.6647919010124 L 650 337.40157480314963 L 650 400 Z" /><text  class="poloto_labels poloto_text poloto_title" alignment-baseline="start" text-anchor="middle" font-size="x-large" x="400" y="37.5" >Total players on 2021-11-25</text><text  class="poloto_labels poloto_text poloto_xname" alignment-baseline="start" text-anchor="middle" font-size="x-large" x="400" y="481.25" >Time</text><text  class="poloto_labels poloto_text poloto_yname" alignment-baseline="start" text-anchor="middle" font-size="x-large" transform="rotate(-90,37.5,250)" x="37.5" y="250" >Count</text><line  class="poloto_axis_lines" stroke="black" x1="150" x2="150" y1="400" y2="405" /><text  class="poloto_tick_labels poloto_text" alignment-baseline="start" text-anchor="middle" x="150" y="430" > 00:00</text><line  class="poloto_axis_lines" stroke="black" x1="266.14401858304296" x2="266.14401858304296" y1="400" y2="405" /><text  class="poloto_tick_labels poloto_text" alignment-baseline="start" text-anchor="middle" x="266.14401858304296" y="430" > 06:00</text><line  class="poloto_axis_lines" stroke="black" x1="382.2880371660859" x2="382.2880371660859" y1="400" y2="405" /><text  class="poloto_tick_labels poloto_text" alignment-baseline="start" text-anchor="middle" x="382.2880371660859" y="430" > 11:00</text><line  class="poloto_axis_lines" stroke="black" x1="498.4320557491289" x2="498.4320557491289" y1="400" y2="405" /><text  class="poloto_tick_labels poloto_text" alignment-baseline="start" text-anchor="middle" x="498.4320557491289" y="430" > 17:00</text><line  class="poloto_axis_lines" stroke="black" x1="614.5760743321719" x2="614.5760743321719" y1="400" y2="405" /><text  class="poloto_tick_labels poloto_text" alignment-baseline="start" text-anchor="middle" x="614.5760743321719" y="430" > 22:00</text><line  class="poloto_axis_lines" stroke="black" x1="150" x2="144" y1="360.01124859392576" y2="360.01124859392576" /><text  class="poloto_tick_labels poloto_text" alignment-baseline="middle" text-anchor="end" x="135" y="360.01124859392576" > 1000</text><line  class="poloto_axis_lines" stroke="black" x1="150" x2="144" y1="275.6467941507312" y2="275.6467941507312" /><text  class="poloto_tick_labels poloto_text" alignment-baseline="middle" text-anchor="end" x="135" y="275.6467941507312" > 1500</text><line  class="poloto_axis_lines" stroke="black" x1="150" x2="144" y1="191.28233970753655" y2="191.28233970753655" /><text  class="poloto_tick_labels poloto_text" alignment-baseline="middle" text-anchor="end" x="135" y="191.28233970753655" > 2000</text><line  class="poloto_axis_lines" stroke="black" x1="150" x2="144" y1="106.91788526434198" y2="106.91788526434198" /><text  class="poloto_tick_labels poloto_text" alignment-baseline="middle" text-anchor="end" x="135" y="106.91788526434198" > 2500</text><path  stroke="black" fill="none" class="poloto_axis_lines" style="stroke-dasharray:14.518002322880372;stroke-dashoffset:-0;" d=" M 150 400 L 650 400" /><path  stroke="black" fill="none" class="poloto_axis_lines" style="stroke-dasharray:8.43644544431946;stroke-dashoffset:-39.98875140607424;" d=" M 150 400 L 150 100" /></svg>