<svg class="poloto" width="800" height="500" viewBox="0 0 800 500" xmlns="http://www.w3.org/2000/svg"><style>.poloto { stroke-linecap:round; stroke-linejoin:round; font-family: 'Tahoma', sans-serif; background-color: AliceBlue;} .poloto_scatter{stroke-width:7} .poloto_line{stroke-width:2} .poloto_text{fill: black;} .poloto_axis_lines{stroke: black;stroke-width:3;fill:none;stroke-dasharray:none} .poloto0stroke{stroke:  blue;} .poloto1stroke{stroke:  red;} .poloto2stroke{stroke:  green;} .poloto3stroke{stroke:  gold;} .poloto4stroke{stroke:  aqua;} .poloto5stroke{stroke:  lime;} .poloto6stroke{stroke:  orange;} .poloto7stroke{stroke:  chocolate;} .poloto0fill{fill:blue;} .poloto1fill{fill:red;} .poloto2fill{fill:green;} .poloto3fill{fill:gold;} .poloto4fill{fill:aqua;} .poloto5fill{fill:lime;} .poloto6fill{fill:orange;} .poloto7fill{fill:chocolate;}</style><text  class="poloto_text poloto_legend_text" alignment-baseline="middle" text-anchor="start" font-size="large" x="675" y="100" ></text><path  class="poloto_linefill poloto0fill" d=" M 150 400 L 150 339.9677245831092 L 151.74216027874564 345.13179128563746 L 153.4843205574913 337.7084454007531 L 155.22648083623693 346.7455621301775 L 156.96864111498257 346.2614308768155 L 158.71080139372822 351.2641204948897 L 160.45296167247386 356.42818719741797 L 162.1951219512195 359.1715976331361 L 163.93728222996515 358.36471221086606 L 165.6794425087108 356.58956428187196 L 167.42160278745644 363.5287789133943 L 169.16376306620208 386.60570199031736 L 170.90592334494772 389.9946207638515 L 172.64808362369337 374.01828940290477 L 174.390243902439 374.3410435718128 L 176.13240418118465 374.9865519096288 L 177.8745644599303 372.88864981172674 L 179.61672473867597 376.4389456697149 L 181.3588850174216 377.4072081764389 L 183.10104529616726 381.44163528778915 L 184.8432055749129 386.12157073695533 L 186.58536585365854 384.18504572350724 L 188.3275261324042 380.95750403442713 L 190.06968641114983 378.698224852071 L 191.81184668989548 378.859601936525 L 193.55400696864112 380.31199569661106 L 195.29616724738676 380.6347498655191 L 197.0383275261324 379.343733189887 L 198.78048780487805 377.568585260893 L 200.5226480836237 382.5712748789672 L 202.26480836236934 387.0898332436794 L 204.00696864111498 386.44432490586337 L 205.74912891986062 382.8940290478752 L 207.49128919860627 382.8940290478752 L 209.2334494773519 387.5739644970414 L 210.97560975609755 389.5104895104895 L 212.7177700348432 391.9311457772996 L 214.45993031358887 390.6401291016676 L 216.2020905923345 388.0580957504034 L 217.94425087108016 384.3464228079613 L 219.6864111498258 384.18504572350724 L 221.42857142857144 384.8305540613233 L 223.1707317073171 378.375470683163 L 224.91289198606273 382.08714362560517 L 226.65505226480838 378.859601936525 L 228.39721254355402 383.37816030123724 L 230.13937282229966 381.2802582033351 L 231.8815331010453 384.3464228079613 L 233.62369337979095 383.86229155459927 L 235.3658536585366 389.3491124260355 L 237.10801393728224 388.0580957504034 L 238.85017421602788 393.3835395373857 L 240.59233449477352 391.4470145239376 L 242.33449477351917 395.6428187197418 L 244.0766550522648 396.2883270575578 L 245.81881533101046 395.32006455083376 L 247.5609756097561 394.83593329747174 L 249.30313588850174 394.9973103819258 L 251.0452961672474 399.515868746638 L 252.78745644599303 400 L 254.52961672473867 395.8041958041958 L 256.2717770034843 393.5449166218397 L 258.01393728222996 392.5766541151157 L 259.7560975609756 391.7697686928456 L 261.49825783972125 389.1877353415815 L 263.2404181184669 382.08714362560517 L 264.98257839721254 380.4733727810651 L 266.7247386759582 377.89133942980095 L 268.4668989547038 372.2431414739107 L 270.20905923344947 364.81979558902634 L 271.9512195121951 363.3674018289403 L 273.69337979094075 365.4653039268424 L 275.4355400696864 369.3383539537386 L 277.17770034843204 367.4018289402905 L 278.91986062717774 364.81979558902634 L 280.6620209059233 363.2060247444863 L 282.404181184669 364.01291016675634 L 284.1463414634146 359.01022054868207 L 285.8885017421603 360.94674556213016 L 287.6306620209059 363.3674018289403 L 289.3728222996516 359.3329747175901 L 291.1149825783972 361.4308768154922 L 292.8571428571429 359.8171059709521 L 294.5993031358885 360.94674556213016 L 296.3414634146342 361.4308768154922 L 298.08362369337976 359.9784830554061 L 299.82578397212546 356.750941366326 L 301.56794425087105 359.1715976331361 L 303.31010452961675 353.84615384615387 L 305.05226480836234 351.9096288327058 L 306.79442508710804 352.3937600860678 L 308.5365853658536 356.91231845078 L 310.2787456445993 355.6213017751479 L 312.0209059233449 353.52339967724583 L 313.7630662020906 353.6847767616998 L 315.5052264808362 353.36202259279185 L 317.2473867595819 353.0392684238838 L 318.9895470383275 349.16621839698763 L 320.7317073170732 348.8434642280796 L 322.4738675958188 349.16621839698763 L 324.2160278745645 345.29316837009145 L 325.9581881533101 341.58149542764926 L 327.70034843205576 343.1952662721894 L 329.4425087108014 345.93867670790746 L 331.18466898954705 338.35395373856915 L 332.9268292682927 343.0338891877353 L 334.66898954703834 340.93598708983325 L 336.411149825784 341.9042495965573 L 338.1533101045296 337.8698224852071 L 339.89547038327527 335.610543302851 L 341.6376306620209 332.38300161377083 L 343.37979094076655 327.2189349112426 L 345.1219512195122 323.0231307154384 L 346.86411149825784 326.7348036578806 L 348.6062717770035 316.7294244217321 L 350.34843205574913 313.663259817106 L 352.0905923344948 306.72404518558363 L 353.8327526132404 299.62345346960734 L 355.57491289198606 303.1737493275955 L 357.3170731707317 304.62614308768156 L 359.05923344947735 300.91447014523936 L 360.801393728223 301.7213555675094 L 362.54355400696863 300.26896180742335 L 364.2857142857143 299.78483055406133 L 366.0278745644599 290.5863367401829 L 367.77003484320556 283.6471221086606 L 369.5121951219512 285.09951586874666 L 371.25435540069685 280.0968262506724 L 372.9965156794425 277.6761699838623 L 374.73867595818814 270.41420118343194 L 376.4808362369338 272.027972027972 L 378.2229965156795 276.70790747713824 L 379.96515679442507 272.99623453469604 L 381.70731707317077 272.83485745024205 L 383.44947735191636 272.99623453469604 L 385.19163763066206 277.6761699838623 L 386.93379790940764 275.0941366325982 L 388.67595818815334 270.41420118343194 L 390.41811846689893 268.63905325443784 L 392.16027874564463 261.53846153846155 L 393.9024390243902 253.6309844002152 L 395.6445993031359 247.82140935987093 L 397.3867595818815 243.7869822485207 L 399.1289198606272 240.72081764389458 L 400.8710801393728 232.81334050564823 L 402.6132404181185 232.81334050564823 L 404.3554006968641 230.39268423883811 L 406.0975609756098 221.8396987627757 L 407.8397212543554 218.1280258203335 L 409.58188153310107 222.16245293168373 L 411.3240418118467 217.3211403980635 L 413.06620209059236 208.6067778375471 L 414.808362369338 207.63851533082305 L 416.55052264808364 202.15169445938676 L 418.2926829268293 200.6993006993007 L 420.03484320557493 201.66756320602474 L 421.7770034843206 192.14631522323833 L 423.5191637630662 194.56697149004845 L 425.26132404181186 180.36578805809575 L 427.0034843205575 167.77837547068316 L 428.74564459930315 172.61968800430338 L 430.4878048780488 163.582571274879 L 432.22996515679444 164.06670252824102 L 433.9721254355401 168.58526089295322 L 435.7142857142857 158.41850457235074 L 437.45644599303137 162.13017751479293 L 439.198606271777 164.06670252824102 L 440.94076655052265 168.90801506186125 L 442.6829268292683 157.93437331898872 L 444.42508710801394 152.9316837009145 L 446.1672473867596 152.44755244755248 L 447.9094076655052 150.18827326519636 L 449.65156794425087 142.28079612695 L 451.3937282229965 137.11672942442175 L 453.13588850174216 127.59548144163529 L 454.8780487804878 128.72512103281338 L 456.62020905923345 136.79397525551371 L 458.3623693379791 117.91285637439483 L 460.10452961672473 113.55567509413663 L 461.8466898954704 113.39429800968264 L 463.588850174216 112.58741258741259 L 465.33101045296166 118.88111888111888 L 467.0731707317073 111.13501882732652 L 468.81533101045295 102.90478752017214 L 470.5574912891986 107.26196880043034 L 472.29965156794424 105.16406670252826 L 474.0418118466899 100 L 475.7839721254355 100.64550833781607 L 477.52613240418117 109.35987089833247 L 479.2682926829268 117.26734803657882 L 481.01045296167246 116.62183969876281 L 482.7526132404181 123.88380849919315 L 484.49477351916374 132.59817105970956 L 486.2369337979094 136.3098440021517 L 487.97909407665503 141.79666487358799 L 489.7212543554007 152.9316837009145 L 491.4634146341463 166.0032275416891 L 493.20557491289196 161.32329209252288 L 494.9477351916376 173.91070467993546 L 496.68989547038325 180.36578805809575 L 498.4320557491289 174.07208176438945 L 500.17421602787454 173.91070467993546 L 501.91637630662024 173.91070467993546 L 503.6585365853659 182.78644432490586 L 505.4006968641115 192.95320064550833 L 507.14285714285717 201.82894029047878 L 508.8850174216028 199.08552985476064 L 510.62717770034845 199.73103819257665 L 512.3693379790941 206.831629908553 L 514.1114982578397 211.51156535771923 L 515.8536585365854 220.22592791823564 L 517.5958188153311 212.15707369553525 L 519.3379790940767 204.08821947283485 L 521.0801393728223 204.41097364174288 L 522.822299651568 210.70467993544918 L 524.5644599303137 206.02474448628294 L 526.3066202090592 215.38461538461542 L 528.0487804878048 216.99838622915547 L 529.7909407665505 213.7708445400753 L 531.5331010452962 217.64389456697148 L 533.2752613240418 217.4825174825175 L 535.0174216027874 217.64389456697148 L 536.7595818815331 221.03281334050564 L 538.5017421602788 219.09628832705755 L 540.2439024390244 217.64389456697148 L 541.98606271777 214.25497579343732 L 543.7282229965157 211.99569661108126 L 545.4703832752614 217.15976331360946 L 547.212543554007 221.03281334050564 L 548.9547038327526 223.7762237762238 L 550.6968641114983 237.17052178590643 L 552.439024390244 223.6148466917698 L 554.1811846689895 231.84507799892418 L 555.9233449477351 220.71005917159766 L 557.6655052264808 223.7762237762238 L 559.4076655052265 225.06724045185587 L 561.1498257839721 233.78160301237227 L 562.8919860627177 229.74717590102205 L 564.6341463414634 234.9112426035503 L 566.3763066202091 220.0645508337816 L 568.1184668989547 232.81334050564823 L 569.8606271777003 231.52232383001615 L 571.602787456446 229.42442173211407 L 573.3449477351917 235.55675094136632 L 575.0871080139373 237.17052178590643 L 576.8292682926829 237.4932759548144 L 578.5714285714286 243.94835933297475 L 580.3135888501743 255.5675094136633 L 582.0557491289198 257.5040344271114 L 583.7979094076654 246.53039268423885 L 585.5400696864111 246.04626143087683 L 587.2822299651568 260.89295320064554 L 589.0243902439024 251.04895104895104 L 590.766550522648 257.34265734265733 L 592.5087108013937 259.9246906939215 L 594.2508710801394 257.5040344271114 L 595.993031358885 258.4722969338354 L 597.7351916376306 266.7025282409898 L 599.4773519163763 266.7025282409898 L 601.219512195122 273.1576116191501 L 602.9616724738676 276.54653039268425 L 604.7038327526133 274.12587412587413 L 606.445993031359 277.19203873050026 L 608.1881533101046 282.3561054330285 L 609.9303135888501 288.0043033889188 L 611.6724738675958 293.32974717590105 L 613.4146341463415 289.9408284023669 L 615.1567944250871 292.03873050026897 L 616.8989547038327 289.2953200645508 L 618.6411149825784 289.45669714900487 L 620.3832752613241 292.522861753631 L 622.1254355400697 302.20548682087144 L 623.8675958188153 298.9779451317913 L 625.609756097561 302.68961807423346 L 627.3519163763067 309.14470145239375 L 629.0940766550523 308.33781603012375 L 630.8362369337979 307.20817643894566 L 632.5783972125436 307.3695535233997 L 634.3205574912893 304.78752017213554 L 636.0627177700349 305.27165142549757 L 637.8048780487804 310.27434104357184 L 639.5470383275261 315.43840774610004 L 641.2891986062718 318.5045723507262 L 643.0313588850174 328.0258203335126 L 644.773519163763 330.12372243141476 L 646.5156794425087 330.28509951586875 L 648.2578397212544 334.3195266272189 L 650 338.0311995696611 L 650 400 Z" /><text  class="poloto_labels poloto_text poloto_title" alignment-baseline="start" text-anchor="middle" font-size="x-large" x="400" y="37.5" >Total players on 2021-11-24</text><text  class="poloto_labels poloto_text poloto_xname" alignment-baseline="start" text-anchor="middle" font-size="x-large" x="400" y="481.25" >Time</text><text  class="poloto_labels poloto_text poloto_yname" alignment-baseline="start" text-anchor="middle" font-size="x-large" transform="rotate(-90,37.5,250)" x="37.5" y="250" >Count</text><line  class="poloto_axis_lines" stroke="black" x1="150" x2="150" y1="400" y2="405" /><text  class="poloto_tick_labels poloto_text" alignment-baseline="start" text-anchor="middle" x="150" y="430" > 00:00:00</text><line  class="poloto_axis_lines" stroke="black" x1="266.14401858304296" x2="266.14401858304296" y1="400" y2="405" /><text  class="poloto_tick_labels poloto_text" alignment-baseline="start" text-anchor="middle" x="266.14401858304296" y="430" > 05:33:20</text><line  class="poloto_axis_lines" stroke="black" x1="382.2880371660859" x2="382.2880371660859" y1="400" y2="405" /><text  class="poloto_tick_labels poloto_text" alignment-baseline="start" text-anchor="middle" x="382.2880371660859" y="430" > 11:06:40</text><line  class="poloto_axis_lines" stroke="black" x1="498.4320557491289" x2="498.4320557491289" y1="400" y2="405" /><text  class="poloto_tick_labels poloto_text" alignment-baseline="start" text-anchor="middle" x="498.4320557491289" y="430" > 16:40:00</text><line  class="poloto_axis_lines" stroke="black" x1="614.5760743321719" x2="614.5760743321719" y1="400" y2="405" /><text  class="poloto_tick_labels poloto_text" alignment-baseline="start" text-anchor="middle" x="614.5760743321719" y="430" > 22:13:20</text><line  class="poloto_axis_lines" stroke="black" x1="150" x2="144" y1="361.4308768154922" y2="361.4308768154922" /><text  class="poloto_tick_labels poloto_text" alignment-baseline="middle" text-anchor="end" x="135" y="361.4308768154922" > 1000</text><line  class="poloto_axis_lines" stroke="black" x1="150" x2="144" y1="280.74233458848846" y2="280.74233458848846" /><text  class="poloto_tick_labels poloto_text" alignment-baseline="middle" text-anchor="end" x="135" y="280.74233458848846" > 1500</text><line  class="poloto_axis_lines" stroke="black" x1="150" x2="144" y1="200.05379236148468" y2="200.05379236148468" /><text  class="poloto_tick_labels poloto_text" alignment-baseline="middle" text-anchor="end" x="135" y="200.05379236148468" > 2000</text><line  class="poloto_axis_lines" stroke="black" x1="150" x2="144" y1="119.3652501344809" y2="119.3652501344809" /><text  class="poloto_tick_labels poloto_text" alignment-baseline="middle" text-anchor="end" x="135" y="119.3652501344809" > 2500</text><path  stroke="black" fill="none" class="poloto_axis_lines" style="stroke-dasharray:14.518002322880372;stroke-dashoffset:-0;" d=" M 150 400 L 650 400" /><path  stroke="black" fill="none" class="poloto_axis_lines" style="stroke-dasharray:8.068854222700377;stroke-dashoffset:-38.5691231845078;" d=" M 150 400 L 150 100" /></svg>