<svg class="poloto" width="800" height="500" viewBox="0 0 800 500" xmlns="http://www.w3.org/2000/svg"><style>.poloto { stroke-linecap:round; stroke-linejoin:round; font-family: 'Tahoma', sans-serif; background-color: AliceBlue;} .poloto_scatter{stroke-width:7} .poloto_line{stroke-width:2} .poloto_text{fill: black;} .poloto_axis_lines{stroke: black;stroke-width:3;fill:none;stroke-dasharray:none} .poloto0stroke{stroke:  blue;} .poloto1stroke{stroke:  red;} .poloto2stroke{stroke:  green;} .poloto3stroke{stroke:  gold;} .poloto4stroke{stroke:  aqua;} .poloto5stroke{stroke:  lime;} .poloto6stroke{stroke:  orange;} .poloto7stroke{stroke:  chocolate;} .poloto0fill{fill:blue;} .poloto1fill{fill:red;} .poloto2fill{fill:green;} .poloto3fill{fill:gold;} .poloto4fill{fill:aqua;} .poloto5fill{fill:lime;} .poloto6fill{fill:orange;} .poloto7fill{fill:chocolate;}</style><text  class="poloto_text poloto_legend_text" alignment-baseline="middle" text-anchor="start" font-size="large" x="675" y="100" ></text><path  class="poloto_linefill poloto0fill" d=" M 150 400 L 150 385.8981533296027 L 151.74216027874564 391.27028539451595 L 153.4843205574913 388.24846110800223 L 155.22648083623693 390.26301063234473 L 156.96864111498257 391.60604364857306 L 158.71080139372822 385.73027420257415 L 160.45296167247386 391.4381645215445 L 162.1951219512195 389.25573587017345 L 163.93728222996515 391.4381645215445 L 165.6794425087108 393.28483491885845 L 167.42160278745644 397.98545047565756 L 169.16376306620208 396.9781757134863 L 170.90592334494772 392.7811975377728 L 172.64808362369337 394.4599888080582 L 174.390243902439 395.63514269725795 L 176.13240418118465 396.1387800783436 L 177.8745644599303 393.452714045887 L 179.61672473867597 394.6278679350867 L 181.3588850174216 395.4672635702294 L 183.10104529616726 398.1533296026861 L 184.8432055749129 399.4963626189144 L 186.58536585365854 393.11695579182987 L 188.3275261324042 390.43088975937326 L 190.06968641114983 393.95635142697256 L 191.81184668989548 385.05875769446 L 193.55400696864112 386.7375489647454 L 195.29616724738676 386.7375489647454 L 197.0383275261324 388.9199776161164 L 198.78048780487805 387.40906547285954 L 200.5226480836237 390.7666480134303 L 202.26480836236934 384.2193620593173 L 204.00696864111498 381.70117515388915 L 205.74912891986062 376.1611639619474 L 207.49128919860627 380.3581421376609 L 209.2334494773519 381.5332960268606 L 210.97560975609755 379.35086737548966 L 212.7177700348432 378.17571348628985 L 214.45993031358887 378.0078343592613 L 216.2020905923345 381.5332960268606 L 217.94425087108016 381.70117515388915 L 219.6864111498258 384.05148293228876 L 221.42857142857144 376.1611639619474 L 223.1707317073171 373.1393396754337 L 224.91289198606273 371.9641857862339 L 226.65505226480838 370.11751538891997 L 228.39721254355402 367.2635702294348 L 230.13937282229966 367.7672076105204 L 231.8815331010453 361.55567991046445 L 233.62369337979095 360.3805260212647 L 235.3658536585366 357.19082260772245 L 237.10801393728224 357.86233911583656 L 238.85017421602788 360.71628427532175 L 240.59233449477352 369.6138780078344 L 242.33449477351917 364.40962506994964 L 244.0766550522648 360.3805260212647 L 245.81881533101046 356.1835478455512 L 247.5609756097561 360.5484051482932 L 249.30313588850174 360.5484051482932 L 251.0452961672474 369.4459988808058 L 252.78745644599303 364.9132624510353 L 254.52961672473867 363.2344711807499 L 256.2717770034843 363.2344711807499 L 258.01393728222996 361.3878007834359 L 259.7560975609756 356.51930609960823 L 261.49825783972125 350.9792949076665 L 263.2404181184669 355.51203133743707 L 264.98257839721254 357.19082260772245 L 266.7247386759582 358.86961387800784 L 268.4668989547038 354.33687744823726 L 270.20905923344947 353.329602686066 L 271.9512195121951 351.98656966983776 L 273.69337979094075 348.2932288752098 L 275.4355400696864 343.25685506435366 L 277.17770034843204 338.7241186345831 L 278.91986062717774 337.5489647453833 L 280.6620209059233 335.03077783995525 L 282.404181184669 333.6877448237269 L 284.1463414634146 331.50531617235595 L 285.8885017421603 330.6659205372132 L 287.6306620209059 329.4907666480134 L 289.3728222996516 325.4616675993285 L 291.1149825783972 324.7901510912143 L 292.8571428571429 318.4107442641298 L 294.5993031358885 320.7610520425294 L 296.3414634146342 316.39619473978735 L 298.08362369337976 320.0895355344152 L 299.82578397212546 320.7610520425294 L 301.56794425087105 311.69557918298824 L 303.31010452961675 305.6519306099608 L 305.05226480836234 305.8198097369893 L 306.79442508710804 303.1337437045328 L 308.5365853658536 292.7252378287633 L 310.2787456445993 289.03189703413545 L 312.0209059233449 297.4258533855624 L 313.7630662020906 294.7397873531057 L 315.5052264808362 290.87856743144937 L 317.2473867595819 290.71068830442084 L 318.9895470383275 291.717963066592 L 320.7317073170732 296.75433687744817 L 322.4738675958188 298.93676552881925 L 324.2160278745645 296.2506994963626 L 325.9581881533101 293.3967543368774 L 327.70034843205576 288.0246222719642 L 329.4425087108014 292.0537213206492 L 331.18466898954705 292.7252378287633 L 332.9268292682927 281.6452154448797 L 334.66898954703834 275.76944599888077 L 336.411149825784 270.5651930609961 L 338.1533101045296 264.8573027420257 L 339.89547038327527 270.229434806939 L 341.6376306620209 263.34639059876883 L 343.37979094076655 256.7991046446558 L 345.1219512195122 254.95243424734187 L 346.86411149825784 253.6094012311136 L 348.6062717770035 253.77728035814212 L 350.34843205574913 252.7700055959709 L 352.0905923344948 247.2299944040291 L 353.8327526132404 244.04029099048685 L 355.57491289198606 241.6899832120873 L 357.3170731707317 242.02574146614435 L 359.05923344947735 247.39787353105763 L 360.801393728223 245.04756575265807 L 362.54355400696863 240.0111919418019 L 364.2857142857143 253.94515948517065 L 366.0278745644599 242.69725797425852 L 367.77003484320556 252.7700055959709 L 369.5121951219512 248.0693900391718 L 371.25435540069685 248.23726916620032 L 372.9965156794425 241.01846670397313 L 374.73867595818814 236.31785114717403 L 376.4808362369338 227.42025741466145 L 378.2229965156795 230.94571908226075 L 379.96515679442507 227.58813654168998 L 381.70731707317077 222.04812534974818 L 383.44947735191636 218.18690542809176 L 385.19163763066206 220.03357582540568 L 386.93379790940764 221.54448796866254 L 388.67595818815334 213.48628987129266 L 390.41811846689893 211.9753777280358 L 392.16027874564463 206.26748740906547 L 393.9024390243902 201.39899272523783 L 395.6445993031359 197.87353105763847 L 397.3867595818815 190.99048684946834 L 399.1289198606272 188.9759373251259 L 400.8710801393728 190.65472859541129 L 402.6132404181185 191.32624510352545 L 404.3554006968641 192.16564073866815 L 406.0975609756098 202.23838836038053 L 407.8397212543554 184.94683827644096 L 409.58188153310107 185.282596530498 L 411.3240418118467 182.5965304980414 L 413.06620209059236 191.32624510352545 L 414.808362369338 174.37045327364294 L 416.55052264808364 161.2758813654169 L 418.2926829268293 162.78679350867375 L 420.03484320557493 159.09345271404587 L 421.7770034843206 157.41466144376048 L 423.5191637630662 153.21768326804695 L 425.26132404181186 152.71404588696137 L 427.0034843205575 152.21040850587573 L 428.74564459930315 149.69222160044765 L 430.4878048780488 153.04980414101843 L 432.22996515679444 144.15221040850585 L 433.9721254355401 138.78007834359255 L 435.7142857142857 136.094012311136 L 437.45644599303137 128.87520984890875 L 439.198606271777 133.07218802462228 L 440.94076655052265 129.37884722999434 L 442.6829268292683 118.46670397313926 L 444.42508710801394 115.78063794068271 L 446.1672473867596 120.31337437045329 L 447.9094076655052 112.75881365416899 L 449.65156794425087 116.11639619473976 L 451.3937282229965 123.67095691102406 L 453.13588850174216 120.81701175153887 L 454.8780487804878 114.94124230553996 L 456.62020905923345 110.91214325685507 L 458.3623693379791 105.20425293788469 L 460.10452961672473 110.07274762171232 L 461.8466898954704 99.99999999999989 L 463.588850174216 103.86121992165636 L 465.33101045296166 108.22607722439841 L 467.0731707317073 100.67151650811411 L 468.81533101045295 103.18970341354225 L 470.5574912891986 114.43760492445438 L 472.29965156794424 114.26972579742585 L 474.0418118466899 112.92669278119752 L 475.7839721254355 115.61275881365418 L 477.52613240418117 116.11639619473976 L 479.2682926829268 121.15277000559593 L 481.01045296167246 116.28427532176829 L 482.7526132404181 115.27700055959701 L 484.49477351916374 122.1600447677672 L 486.2369337979094 127.70005595970895 L 487.97909407665503 128.03581421376612 L 489.7212543554007 129.04308897593728 L 491.4634146341463 140.62674874090646 L 493.20557491289196 138.10856183547844 L 494.9477351916376 146.33463905987688 L 496.68989547038325 140.96250699496363 L 498.4320557491289 150.69949636261887 L 500.17421602787454 158.58981533296023 L 501.91637630662024 161.1080022383883 L 503.6585365853659 169.5019585898153 L 505.4006968641115 179.57470621152768 L 507.14285714285717 176.55288192501396 L 508.8850174216028 176.88864017907102 L 510.62717770034845 178.90318970341352 L 512.3693379790941 192.33351986569667 L 514.1114982578397 201.23111359820925 L 515.8536585365854 195.85898153329603 L 517.5958188153311 198.041410184667 L 519.3379790940767 203.9171796306659 L 521.0801393728223 212.98265249020702 L 522.822299651568 216.34023503077785 L 524.5644599303137 211.47174034695016 L 526.3066202090592 206.09960828203694 L 528.0487804878048 209.1214325685506 L 529.7909407665505 212.47901510912143 L 531.5331010452962 215.66871852266368 L 533.2752613240418 217.17963066592054 L 535.0174216027874 224.73419138220478 L 536.7595818815331 239.6754336877448 L 538.5017421602788 246.894236149972 L 540.2439024390244 238.50027979854505 L 541.98606271777 254.11303861219918 L 543.7282229965157 239.84331281477333 L 545.4703832752614 260.1566871852266 L 547.212543554007 253.27364297705648 L 548.9547038327526 265.3609401231114 L 550.6968641114983 276.27308337996647 L 552.439024390244 286.84946838276437 L 554.1811846689895 276.6088416340235 L 555.9233449477351 271.4045886961387 L 557.6655052264808 281.8130945719082 L 559.4076655052265 273.4191382204813 L 561.1498257839721 279.79854504756577 L 562.8919860627177 275.09792949076666 L 564.6341463414634 289.3676552881925 L 566.3763066202091 279.63066592053724 L 568.1184668989547 291.5500839395635 L 569.8606271777003 285.8421936205932 L 571.602787456446 288.36038052602123 L 573.3449477351917 286.3458310016788 L 575.0871080139373 294.5719082260772 L 576.8292682926829 281.98097369893674 L 578.5714285714286 283.9955232232792 L 580.3135888501743 284.83491885842193 L 582.0557491289198 289.3676552881925 L 583.7979094076654 303.1337437045328 L 585.5400696864111 300.2797985450476 L 587.2822299651568 303.3016228315613 L 589.0243902439024 304.30889759373247 L 590.766550522648 312.0313374370453 L 592.5087108013937 305.6519306099608 L 594.2508710801394 316.7319529938444 L 595.993031358885 319.082260772244 L 597.7351916376306 312.5349748181309 L 599.4773519163763 319.5858981533296 L 601.219512195122 316.39619473978735 L 602.9616724738676 314.71740346950196 L 604.7038327526133 315.89255735870177 L 606.445993031359 323.6149972020146 L 608.1881533101046 330.6659205372132 L 609.9303135888501 328.4834918858422 L 611.6724738675958 332.17683268047006 L 613.4146341463415 335.70229434806936 L 615.1567944250871 337.2132064913262 L 616.8989547038327 338.7241186345831 L 618.6411149825784 335.70229434806936 L 620.3832752613241 344.0962506994964 L 622.1254355400697 347.95747062115277 L 623.8675958188153 347.28595411303866 L 625.609756097561 356.68718522663676 L 627.3519163763067 363.4023503077784 L 629.0940766550523 367.7672076105204 L 630.8362369337979 364.9132624510353 L 632.5783972125436 374.65025181869055 L 634.3205574912893 382.20481253497485 L 636.0627177700349 377.8399552322328 L 637.8048780487804 381.86905428091774 L 639.5470383275261 383.0442081701175 L 641.2891986062718 385.73027420257415 L 643.0313588850174 385.05875769446 L 644.773519163763 384.89087856743146 L 646.5156794425087 391.7739227756016 L 648.2578397212544 395.4672635702294 L 650 400 L 650 400 Z" /><text  class="poloto_labels poloto_text poloto_title" alignment-baseline="start" text-anchor="middle" font-size="x-large" x="400" y="37.5" >Total players on 2021-11-20</text><text  class="poloto_labels poloto_text poloto_xname" alignment-baseline="start" text-anchor="middle" font-size="x-large" x="400" y="481.25" >Time</text><text  class="poloto_labels poloto_text poloto_yname" alignment-baseline="start" text-anchor="middle" font-size="x-large" transform="rotate(-90,37.5,250)" x="37.5" y="250" >Count</text><line  class="poloto_axis_lines" stroke="black" x1="150" x2="150" y1="400" y2="405" /><text  class="poloto_tick_labels poloto_text" alignment-baseline="start" text-anchor="middle" x="150" y="430" > 00:00</text><line  class="poloto_axis_lines" stroke="black" x1="266.14401858304296" x2="266.14401858304296" y1="400" y2="405" /><text  class="poloto_tick_labels poloto_text" alignment-baseline="start" text-anchor="middle" x="266.14401858304296" y="430" > 06:00</text><line  class="poloto_axis_lines" stroke="black" x1="382.2880371660859" x2="382.2880371660859" y1="400" y2="405" /><text  class="poloto_tick_labels poloto_text" alignment-baseline="start" text-anchor="middle" x="382.2880371660859" y="430" > 11:00</text><line  class="poloto_axis_lines" stroke="black" x1="498.4320557491289" x2="498.4320557491289" y1="400" y2="405" /><text  class="poloto_tick_labels poloto_text" alignment-baseline="start" text-anchor="middle" x="498.4320557491289" y="430" > 17:00</text><line  class="poloto_axis_lines" stroke="black" x1="614.5760743321719" x2="614.5760743321719" y1="400" y2="405" /><text  class="poloto_tick_labels poloto_text" alignment-baseline="start" text-anchor="middle" x="614.5760743321719" y="430" > 22:00</text><line  class="poloto_axis_lines" stroke="black" x1="150" x2="144" y1="361.55567991046445" y2="361.55567991046445" /><text  class="poloto_tick_labels poloto_text" alignment-baseline="middle" text-anchor="end" x="135" y="361.55567991046445" > 1500</text><line  class="poloto_axis_lines" stroke="black" x1="150" x2="144" y1="277.6161163961947" y2="277.6161163961947" /><text  class="poloto_tick_labels poloto_text" alignment-baseline="middle" text-anchor="end" x="135" y="277.6161163961947" > 2000</text><line  class="poloto_axis_lines" stroke="black" x1="150" x2="144" y1="193.67655288192498" y2="193.67655288192498" /><text  class="poloto_tick_labels poloto_text" alignment-baseline="middle" text-anchor="end" x="135" y="193.67655288192498" > 2500</text><line  class="poloto_axis_lines" stroke="black" x1="150" x2="144" y1="109.73698936765527" y2="109.73698936765527" /><text  class="poloto_tick_labels poloto_text" alignment-baseline="middle" text-anchor="end" x="135" y="109.73698936765527" > 3000</text><path  stroke="black" fill="none" class="poloto_axis_lines" style="stroke-dasharray:14.518002322880372;stroke-dashoffset:-0;" d=" M 150 400 L 650 400" /><path  stroke="black" fill="none" class="poloto_axis_lines" style="stroke-dasharray:8.393956351426974;stroke-dashoffset:-38.44432008953555;" d=" M 150 400 L 150 100" /></svg>