<svg class="poloto" width="800" height="500" viewBox="0 0 800 500" xmlns="http://www.w3.org/2000/svg"><style>.poloto { stroke-linecap:round; stroke-linejoin:round; font-family: 'Tahoma', sans-serif; background-color: AliceBlue;} .poloto_scatter{stroke-width:7} .poloto_line{stroke-width:2} .poloto_text{fill: black;} .poloto_axis_lines{stroke: black;stroke-width:3;fill:none;stroke-dasharray:none} .poloto0stroke{stroke:  blue;} .poloto1stroke{stroke:  red;} .poloto2stroke{stroke:  green;} .poloto3stroke{stroke:  gold;} .poloto4stroke{stroke:  aqua;} .poloto5stroke{stroke:  lime;} .poloto6stroke{stroke:  orange;} .poloto7stroke{stroke:  chocolate;} .poloto0fill{fill:blue;} .poloto1fill{fill:red;} .poloto2fill{fill:green;} .poloto3fill{fill:gold;} .poloto4fill{fill:aqua;} .poloto5fill{fill:lime;} .poloto6fill{fill:orange;} .poloto7fill{fill:chocolate;}</style><text  class="poloto_text poloto_legend_text" alignment-baseline="middle" text-anchor="start" font-size="large" x="675" y="100" ></text><path  class="poloto_linefill poloto0fill" d=" M 150 400 L 150 373.25471698113205 L 151.74216027874564 373.25471698113205 L 153.4843205574913 377.35849056603774 L 155.22648083623693 372.688679245283 L 156.96864111498257 373.9622641509434 L 158.71080139372822 370.99056603773585 L 160.45296167247386 375.66037735849056 L 162.1951219512195 379.7641509433962 L 163.93728222996515 382.311320754717 L 165.6794425087108 382.5943396226415 L 167.42160278745644 384.7169811320755 L 169.16376306620208 391.9339622641509 L 170.90592334494772 391.9339622641509 L 172.64808362369337 389.3867924528302 L 174.390243902439 390.0943396226415 L 176.13240418118465 388.25471698113205 L 177.8745644599303 387.97169811320754 L 179.61672473867597 387.688679245283 L 181.3588850174216 391.3679245283019 L 183.10104529616726 396.8867924528302 L 184.8432055749129 392.2169811320755 L 186.58536585365854 388.5377358490566 L 188.3275261324042 388.8207547169811 L 190.06968641114983 390.9433962264151 L 191.81184668989548 391.6509433962264 L 193.55400696864112 397.59433962264154 L 195.29616724738676 400 L 197.0383275261324 391.50943396226415 L 198.78048780487805 388.39622641509436 L 200.5226480836237 387.97169811320754 L 202.26480836236934 390.0943396226415 L 204.00696864111498 386.9811320754717 L 205.74912891986062 390.0943396226415 L 207.49128919860627 386.83962264150944 L 209.2334494773519 388.8207547169811 L 210.97560975609755 386.6981132075472 L 212.7177700348432 385.99056603773585 L 214.45993031358887 387.2641509433962 L 216.2020905923345 390.37735849056605 L 217.94425087108016 387.54716981132077 L 219.6864111498258 387.8301886792453 L 221.42857142857144 383.4433962264151 L 223.1707317073171 385.5660377358491 L 224.91289198606273 388.6792452830189 L 226.65505226480838 389.811320754717 L 228.39721254355402 391.3679245283019 L 230.13937282229966 388.5377358490566 L 231.8815331010453 388.8207547169811 L 233.62369337979095 390.0943396226415 L 235.3658536585366 388.6792452830189 L 237.10801393728224 387.12264150943395 L 238.85017421602788 387.8301886792453 L 240.59233449477352 386.41509433962267 L 242.33449477351917 388.1132075471698 L 244.0766550522648 389.10377358490564 L 245.81881533101046 391.50943396226415 L 247.5609756097561 389.95283018867923 L 249.30313588850174 389.6698113207547 L 251.0452961672474 391.9339622641509 L 252.78745644599303 391.6509433962264 L 254.52961672473867 388.6792452830189 L 256.2717770034843 387.688679245283 L 258.01393728222996 384.4339622641509 L 259.7560975609756 386.83962264150944 L 261.49825783972125 379.7641509433962 L 263.2404181184669 382.311320754717 L 264.98257839721254 383.8679245283019 L 266.7247386759582 377.7830188679245 L 268.4668989547038 376.79245283018867 L 270.20905923344947 374.6698113207547 L 271.9512195121951 375.8018867924528 L 273.69337979094075 370.5660377358491 L 275.4355400696864 368.72641509433964 L 277.17770034843204 366.74528301886795 L 278.91986062717774 367.311320754717 L 280.6620209059233 367.45283018867923 L 282.404181184669 369.00943396226415 L 284.1463414634146 370.5660377358491 L 285.8885017421603 367.5943396226415 L 287.6306620209059 367.1698113207547 L 289.3728222996516 364.7641509433962 L 291.1149825783972 371.6981132075472 L 292.8571428571429 374.95283018867923 L 294.5993031358885 373.25471698113205 L 296.3414634146342 372.4056603773585 L 298.08362369337976 376.79245283018867 L 299.82578397212546 380.04716981132077 L 301.56794425087105 381.60377358490564 L 303.31010452961675 378.49056603773585 L 305.05226480836234 377.2169811320755 L 306.79442508710804 375.37735849056605 L 308.5365853658536 374.95283018867923 L 310.2787456445993 372.4056603773585 L 312.0209059233449 369.29245283018867 L 313.7630662020906 368.4433962264151 L 315.5052264808362 367.1698113207547 L 317.2473867595819 363.20754716981133 L 318.9895470383275 365.3301886792453 L 320.7317073170732 362.5 L 322.4738675958188 362.2169811320755 L 324.2160278745645 355.5660377358491 L 325.9581881533101 351.4622641509434 L 327.70034843205576 351.0377358490566 L 329.4425087108014 349.7641509433962 L 331.18466898954705 345.37735849056605 L 332.9268292682927 342.688679245283 L 334.66898954703834 339.57547169811323 L 336.411149825784 332.7830188679245 L 338.1533101045296 329.24528301886795 L 339.89547038327527 327.97169811320754 L 341.6376306620209 323.72641509433964 L 343.37979094076655 326.5566037735849 L 345.1219512195122 325.70754716981133 L 346.86411149825784 322.1698113207547 L 348.6062717770035 314.6698113207547 L 350.34843205574913 306.60377358490564 L 352.0905923344948 312.688679245283 L 353.8327526132404 315.2358490566038 L 355.57491289198606 312.97169811320754 L 357.3170731707317 311.27358490566036 L 359.05923344947735 307.5943396226415 L 360.801393728223 299.6698113207547 L 362.54355400696863 295.70754716981133 L 364.2857142857143 293.0188679245283 L 366.0278745644599 290.6132075471698 L 367.77003484320556 291.74528301886795 L 369.5121951219512 282.97169811320754 L 371.25435540069685 283.39622641509436 L 372.9965156794425 276.1792452830189 L 374.73867595818814 274.62264150943395 L 376.4808362369338 273.6320754716981 L 378.2229965156795 271.3679245283019 L 379.96515679442507 266.6981132075472 L 381.70731707317077 259.1981132075472 L 383.44947735191636 254.38679245283015 L 385.19163763066206 251.1320754716981 L 386.93379790940764 242.35849056603774 L 388.67595818815334 238.25471698113205 L 390.41811846689893 237.83018867924528 L 392.16027874564463 243.20754716981133 L 393.9024390243902 240.94339622641508 L 395.6445993031359 235.42452830188677 L 397.3867595818815 228.6320754716981 L 399.1289198606272 230.47169811320754 L 400.8710801393728 228.06603773584902 L 402.6132404181185 228.77358490566036 L 404.3554006968641 223.82075471698113 L 406.0975609756098 219.7169811320755 L 407.8397212543554 210.66037735849056 L 409.58188153310107 213.9150943396226 L 411.3240418118467 215.04716981132077 L 413.06620209059236 198.9150943396226 L 414.808362369338 196.93396226415092 L 416.55052264808364 195.80188679245282 L 418.2926829268293 190.56603773584902 L 420.03484320557493 185.8962264150943 L 421.7770034843206 188.8679245283019 L 423.5191637630662 186.17924528301887 L 425.26132404181186 183.20754716981133 L 427.0034843205575 179.81132075471697 L 428.74564459930315 177.68867924528303 L 430.4878048780488 162.97169811320754 L 432.22996515679444 156.17924528301887 L 433.9721254355401 153.20754716981133 L 435.7142857142857 149.95283018867923 L 437.45644599303137 147.54716981132077 L 439.198606271777 140.75471698113205 L 440.94076655052265 138.3490566037736 L 442.6829268292683 129.29245283018867 L 444.42508710801394 136.6509433962264 L 446.1672473867596 174.57547169811318 L 447.9094076655052 132.12264150943395 L 449.65156794425087 137.5 L 451.3937282229965 147.54716981132077 L 453.13588850174216 131.1320754716981 L 454.8780487804878 134.81132075471697 L 456.62020905923345 151.22641509433964 L 458.3623693379791 127.73584905660374 L 460.10452961672473 123.49056603773585 L 461.8466898954704 125.47169811320754 L 463.588850174216 122.92452830188677 L 465.33101045296166 120.37735849056605 L 467.0731707317073 127.45283018867923 L 468.81533101045295 116.69811320754718 L 470.5574912891986 115.42452830188677 L 472.29965156794424 122.5 L 474.0418118466899 118.39622641509436 L 475.7839721254355 107.78301886792451 L 477.52613240418117 107.21698113207549 L 479.2682926829268 109.19811320754718 L 481.01045296167246 100 L 482.7526132404181 102.2641509433962 L 484.49477351916374 109.48113207547169 L 486.2369337979094 113.44339622641508 L 487.97909407665503 116.1320754716981 L 489.7212543554007 116.83962264150944 L 491.4634146341463 123.6320754716981 L 493.20557491289196 132.12264150943395 L 494.9477351916376 131.9811320754717 L 496.68989547038325 137.64150943396226 L 498.4320557491289 137.5 L 500.17421602787454 142.87735849056605 L 501.91637630662024 144.85849056603774 L 503.6585365853659 149.81132075471697 L 505.4006968641115 157.87735849056605 L 507.14285714285717 164.52830188679246 L 508.8850174216028 171.60377358490564 L 510.62717770034845 176.83962264150944 L 512.3693379790941 179.10377358490564 L 514.1114982578397 181.08490566037733 L 515.8536585365854 186.32075471698113 L 517.5958188153311 184.62264150943395 L 519.3379790940767 185.47169811320754 L 521.0801393728223 184.4811320754717 L 522.822299651568 183.06603773584902 L 524.5644599303137 186.7452830188679 L 526.3066202090592 192.68867924528303 L 528.0487804878048 193.96226415094338 L 529.7909407665505 197.7830188679245 L 531.5331010452962 196.93396226415092 L 533.2752613240418 201.8867924528302 L 535.0174216027874 205.70754716981133 L 536.7595818815331 205 L 538.5017421602788 208.53773584905662 L 540.2439024390244 213.20754716981133 L 541.98606271777 215.8962264150943 L 543.7282229965157 208.53773584905662 L 545.4703832752614 208.53773584905662 L 547.212543554007 219.57547169811318 L 548.9547038327526 219.7169811320755 L 550.6968641114983 221.83962264150944 L 552.439024390244 230.8962264150943 L 554.1811846689895 235.70754716981133 L 555.9233449477351 233.30188679245282 L 557.6655052264808 236.1320754716981 L 559.4076655052265 237.83018867924528 L 561.1498257839721 238.1132075471698 L 562.8919860627177 236.69811320754718 L 564.6341463414634 240.09433962264148 L 566.3763066202091 242.5 L 568.1184668989547 249.43396226415092 L 569.8606271777003 251.69811320754718 L 571.602787456446 256.3679245283019 L 573.3449477351917 252.83018867924528 L 575.0871080139373 249.1509433962264 L 576.8292682926829 249.57547169811318 L 578.5714285714286 251.69811320754718 L 580.3135888501743 251.83962264150944 L 582.0557491289198 257.64150943396226 L 583.7979094076654 263.16037735849056 L 585.5400696864111 259.05660377358487 L 587.2822299651568 263.0188679245283 L 589.0243902439024 278.0188679245283 L 590.766550522648 259.7641509433962 L 592.5087108013937 256.9339622641509 L 594.2508710801394 266.27358490566036 L 595.993031358885 266.5566037735849 L 597.7351916376306 270.37735849056605 L 599.4773519163763 276.4622641509434 L 601.219512195122 277.5943396226415 L 602.9616724738676 287.9245283018868 L 604.7038327526133 288.77358490566036 L 606.445993031359 290.6132075471698 L 608.1881533101046 289.4811320754717 L 609.9303135888501 288.49056603773585 L 611.6724738675958 287.35849056603774 L 613.4146341463415 291.74528301886795 L 615.1567944250871 292.7358490566038 L 616.8989547038327 297.688679245283 L 618.6411149825784 301.50943396226415 L 620.3832752613241 302.64150943396226 L 622.1254355400697 302.35849056603774 L 623.8675958188153 302.5 L 625.609756097561 308.0188679245283 L 627.3519163763067 308.8679245283019 L 629.0940766550523 312.2641509433962 L 630.8362369337979 316.22641509433964 L 632.5783972125436 313.8207547169811 L 634.3205574912893 316.22641509433964 L 636.0627177700349 318.49056603773585 L 637.8048780487804 313.5377358490566 L 639.5470383275261 316.22641509433964 L 641.2891986062718 317.2169811320755 L 643.0313588850174 323.3018867924528 L 644.773519163763 326.5566037735849 L 646.5156794425087 325.8490566037736 L 648.2578397212544 325.8490566037736 L 650 331.79245283018867 L 650 400 Z" /><text  class="poloto_labels poloto_text poloto_title" alignment-baseline="start" text-anchor="middle" font-size="x-large" x="400" y="37.5" >Total players on 2021-11-19</text><text  class="poloto_labels poloto_text poloto_xname" alignment-baseline="start" text-anchor="middle" font-size="x-large" x="400" y="481.25" >Time</text><text  class="poloto_labels poloto_text poloto_yname" alignment-baseline="start" text-anchor="middle" font-size="x-large" transform="rotate(-90,37.5,250)" x="37.5" y="250" >Count</text><line  class="poloto_axis_lines" stroke="black" x1="150" x2="150" y1="400" y2="405" /><text  class="poloto_tick_labels poloto_text" alignment-baseline="start" text-anchor="middle" x="150" y="430" > 00:00:00</text><line  class="poloto_axis_lines" stroke="black" x1="266.14401858304296" x2="266.14401858304296" y1="400" y2="405" /><text  class="poloto_tick_labels poloto_text" alignment-baseline="start" text-anchor="middle" x="266.14401858304296" y="430" > 05:33:20</text><line  class="poloto_axis_lines" stroke="black" x1="382.2880371660859" x2="382.2880371660859" y1="400" y2="405" /><text  class="poloto_tick_labels poloto_text" alignment-baseline="start" text-anchor="middle" x="382.2880371660859" y="430" > 11:06:40</text><line  class="poloto_axis_lines" stroke="black" x1="498.4320557491289" x2="498.4320557491289" y1="400" y2="405" /><text  class="poloto_tick_labels poloto_text" alignment-baseline="start" text-anchor="middle" x="498.4320557491289" y="430" > 16:40:00</text><line  class="poloto_axis_lines" stroke="black" x1="614.5760743321719" x2="614.5760743321719" y1="400" y2="405" /><text  class="poloto_tick_labels poloto_text" alignment-baseline="start" text-anchor="middle" x="614.5760743321719" y="430" > 22:13:20</text><line  class="poloto_axis_lines" stroke="black" x1="150" x2="144" y1="378.77358490566036" y2="378.77358490566036" /><text  class="poloto_tick_labels poloto_text" alignment-baseline="middle" text-anchor="end" x="135" y="378.77358490566036" > 1000</text><line  class="poloto_axis_lines" stroke="black" x1="150" x2="144" y1="308.0188679245283" y2="308.0188679245283" /><text  class="poloto_tick_labels poloto_text" alignment-baseline="middle" text-anchor="end" x="135" y="308.0188679245283" > 1500</text><line  class="poloto_axis_lines" stroke="black" x1="150" x2="144" y1="237.2641509433962" y2="237.2641509433962" /><text  class="poloto_tick_labels poloto_text" alignment-baseline="middle" text-anchor="end" x="135" y="237.2641509433962" > 2000</text><line  class="poloto_axis_lines" stroke="black" x1="150" x2="144" y1="166.50943396226415" y2="166.50943396226415" /><text  class="poloto_tick_labels poloto_text" alignment-baseline="middle" text-anchor="end" x="135" y="166.50943396226415" > 2500</text><path  stroke="black" fill="none" class="poloto_axis_lines" style="stroke-dasharray:14.518002322880372;stroke-dashoffset:-0;" d=" M 150 400 L 650 400" /><path  stroke="black" fill="none" class="poloto_axis_lines" style="stroke-dasharray:7.0754716981132075;stroke-dashoffset:-21.22641509433963;" d=" M 150 400 L 150 100" /></svg>