<svg class="poloto" width="800" height="500" viewBox="0 0 800 500" xmlns="http://www.w3.org/2000/svg"><style>.poloto { stroke-linecap:round; stroke-linejoin:round; font-family: 'Tahoma', sans-serif; background-color: AliceBlue;} .poloto_scatter{stroke-width:7} .poloto_line{stroke-width:2} .poloto_text{fill: black;} .poloto_axis_lines{stroke: black;stroke-width:3;fill:none;stroke-dasharray:none} .poloto0stroke{stroke:  blue;} .poloto1stroke{stroke:  red;} .poloto2stroke{stroke:  green;} .poloto3stroke{stroke:  gold;} .poloto4stroke{stroke:  aqua;} .poloto5stroke{stroke:  lime;} .poloto6stroke{stroke:  orange;} .poloto7stroke{stroke:  chocolate;} .poloto0fill{fill:blue;} .poloto1fill{fill:red;} .poloto2fill{fill:green;} .poloto3fill{fill:gold;} .poloto4fill{fill:aqua;} .poloto5fill{fill:lime;} .poloto6fill{fill:orange;} .poloto7fill{fill:chocolate;}</style><text  class="poloto_text poloto_legend_text" alignment-baseline="middle" text-anchor="start" font-size="large" x="675" y="100" ></text><path  class="poloto_linefill poloto0fill" d=" M 150 400 L 150 359.09090909090907 L 151.74216027874564 362.0689655172414 L 153.4843205574913 358.46394984326014 L 155.22648083623693 363.00940438871476 L 156.96864111498257 359.8746081504702 L 158.71080139372822 362.69592476489026 L 160.45296167247386 368.6520376175548 L 162.1951219512195 371.15987460815046 L 163.93728222996515 371.3166144200627 L 165.6794425087108 372.41379310344826 L 167.42160278745644 370.37617554858934 L 169.16376306620208 368.80877742946706 L 170.90592334494772 376.48902821316614 L 172.64808362369337 378.6833855799373 L 174.390243902439 385.26645768025077 L 176.13240418118465 395.7680250783699 L 177.8745644599303 395.45454545454544 L 179.61672473867597 398.27586206896547 L 181.3588850174216 400 L 183.10104529616726 395.45454545454544 L 184.8432055749129 396.8652037617555 L 186.58536585365854 390.7523510971787 L 188.3275261324042 390.9090909090909 L 190.06968641114983 389.9686520376175 L 191.81184668989548 391.0658307210031 L 193.55400696864112 397.4921630094044 L 195.29616724738676 393.2601880877743 L 197.0383275261324 391.0658307210031 L 198.78048780487805 392.3197492163009 L 200.5226480836237 391.69278996865205 L 202.26480836236934 395.6112852664577 L 204.00696864111498 389.9686520376175 L 205.74912891986062 394.20062695924764 L 207.49128919860627 394.6708463949843 L 209.2334494773519 393.88714733542315 L 210.97560975609755 391.84952978056424 L 212.7177700348432 392.16300940438873 L 214.45993031358887 394.5141065830721 L 216.2020905923345 395.45454545454544 L 217.94425087108016 394.8275862068965 L 219.6864111498258 393.2601880877743 L 221.42857142857144 393.2601880877743 L 223.1707317073171 391.0658307210031 L 224.91289198606273 387.30407523510974 L 226.65505226480838 385.1097178683385 L 228.39721254355402 385.5799373040752 L 230.13937282229966 388.4012539184953 L 231.8815331010453 389.34169278996865 L 233.62369337979095 387.7742946708464 L 235.3658536585366 391.0658307210031 L 237.10801393728224 388.5579937304075 L 238.85017421602788 384.63949843260184 L 240.59233449477352 387.6175548589341 L 242.33449477351917 389.02821316614416 L 244.0766550522648 389.6551724137931 L 245.81881533101046 388.5579937304075 L 247.5609756097561 388.7147335423198 L 249.30313588850174 391.22257053291537 L 251.0452961672474 389.9686520376175 L 252.78745644599303 381.34796238244513 L 254.52961672473867 381.0344827586207 L 256.2717770034843 380.09404388714734 L 258.01393728222996 384.16927899686516 L 259.7560975609756 384.16927899686516 L 261.49825783972125 386.0501567398119 L 263.2404181184669 380.7210031347962 L 264.98257839721254 377.27272727272725 L 266.7247386759582 370.6896551724138 L 268.4668989547038 368.9655172413793 L 270.20905923344947 372.88401253918494 L 271.9512195121951 372.25705329153607 L 273.69337979094075 370.37617554858934 L 275.4355400696864 365.8307210031348 L 277.17770034843204 365.98746081504703 L 278.91986062717774 366.6144200626959 L 280.6620209059233 366.9278996865204 L 282.404181184669 365.8307210031348 L 284.1463414634146 362.69592476489026 L 285.8885017421603 363.00940438871476 L 287.6306620209059 365.8307210031348 L 289.3728222996516 367.55485893416926 L 291.1149825783972 368.4952978056426 L 292.8571428571429 368.18181818181813 L 294.5993031358885 370.06269592476485 L 296.3414634146342 372.72727272727275 L 298.08362369337976 369.7492163009404 L 299.82578397212546 366.9278996865204 L 301.56794425087105 366.4576802507837 L 303.31010452961675 363.00940438871476 L 305.05226480836234 358.6206896551724 L 306.79442508710804 361.2852664576802 L 308.5365853658536 361.5987460815047 L 310.2787456445993 363.7931034482758 L 312.0209059233449 359.09090909090907 L 313.7630662020906 357.3667711598746 L 315.5052264808362 351.41065830721004 L 317.2473867595819 351.09717868338555 L 318.9895470383275 354.23197492163007 L 320.7317073170732 352.0376175548589 L 322.4738675958188 355.0156739811912 L 324.2160278745645 354.0752351097178 L 325.9581881533101 356.1128526645768 L 327.70034843205576 359.717868338558 L 329.4425087108014 359.717868338558 L 331.18466898954705 359.4043887147335 L 332.9268292682927 354.858934169279 L 334.66898954703834 349.2163009404388 L 336.411149825784 349.05956112852664 L 338.1533101045296 348.27586206896547 L 339.89547038327527 349.3730407523511 L 341.6376306620209 343.41692789968647 L 343.37979094076655 338.24451410658304 L 345.1219512195122 339.8119122257053 L 346.86411149825784 337.9310344827586 L 348.6062717770035 335.8934169278997 L 350.34843205574913 330.564263322884 L 352.0905923344948 327.8996865203761 L 353.8327526132404 320.37617554858934 L 355.57491289198606 320.37617554858934 L 357.3170731707317 316.7711598746081 L 359.05923344947735 310.5015673981191 L 360.801393728223 301.8808777429467 L 362.54355400696863 298.9028213166144 L 364.2857142857143 299.3730407523511 L 366.0278745644599 297.1786833855799 L 367.77003484320556 293.5736677115987 L 369.5121951219512 289.34169278996865 L 371.25435540069685 284.95297805642633 L 372.9965156794425 282.60188087774293 L 374.73867595818814 276.80250783699057 L 376.4808362369338 274.92163009404385 L 378.2229965156795 276.0188087774294 L 379.96515679442507 266.3009404388714 L 381.70731707317077 264.576802507837 L 383.44947735191636 262.5391849529781 L 385.19163763066206 254.3887147335423 L 386.93379790940764 249.84326018808773 L 388.67595818815334 249.37304075235105 L 390.41811846689893 245.7680250783699 L 392.16027874564463 239.8119122257053 L 393.9024390243902 239.96865203761755 L 395.6445993031359 235.89341692789966 L 397.3867595818815 224.60815047021939 L 399.1289198606272 222.57053291536047 L 400.8710801393728 218.18181818181816 L 402.6132404181185 208.6206896551724 L 404.3554006968641 206.7398119122257 L 406.0975609756098 202.35109717868337 L 407.8397212543554 197.96238244514106 L 409.58188153310107 190.28213166144198 L 411.3240418118467 185.42319749216298 L 413.06620209059236 179.15360501567395 L 414.808362369338 174.1379310344827 L 416.55052264808364 171.0031347962382 L 418.2926829268293 169.2789968652037 L 420.03484320557493 164.26332288401252 L 421.7770034843206 160.18808777429464 L 423.5191637630662 162.3824451410658 L 425.26132404181186 151.8808777429467 L 427.0034843205575 149.84326018808773 L 428.74564459930315 153.9184952978056 L 430.4878048780488 149.68652037617554 L 432.22996515679444 140.282131661442 L 433.9721254355401 138.71473354231966 L 435.7142857142857 125.07836990595604 L 437.45644599303137 122.25705329153607 L 439.198606271777 117.71159874608145 L 440.94076655052265 115.83072100313473 L 442.6829268292683 112.85266457680245 L 444.42508710801394 120.06269592476485 L 446.1672473867596 119.43573667711598 L 447.9094076655052 114.73354231974918 L 449.65156794425087 142.4764890282131 L 451.3937282229965 108.46394984326014 L 453.13588850174216 100.31347962382438 L 454.8780487804878 100 L 456.62020905923345 110.34482758620686 L 458.3623693379791 109.87460815047018 L 460.10452961672473 101.56739811912223 L 461.8466898954704 102.82131661441997 L 463.588850174216 105.32915360501568 L 465.33101045296166 107.2100313479624 L 467.0731707317073 113.16614420062695 L 468.81533101045295 114.73354231974918 L 470.5574912891986 116.77115987460809 L 472.29965156794424 116.14420062695922 L 474.0418118466899 124.92163009404385 L 475.7839721254355 126.64576802507838 L 477.52613240418117 123.5109717868338 L 479.2682926829268 124.60815047021936 L 481.01045296167246 124.60815047021936 L 482.7526132404181 121.00313479623821 L 484.49477351916374 123.98119122257049 L 486.2369337979094 124.76489028213166 L 487.97909407665503 129.46708463949835 L 489.7212543554007 130.4075235109717 L 491.4634146341463 128.6833855799373 L 493.20557491289196 132.60188087774293 L 494.9477351916376 141.37931034482756 L 496.68989547038325 147.1786833855799 L 498.4320557491289 153.9184952978056 L 500.17421602787454 159.8746081504702 L 501.91637630662024 155.95611285266452 L 503.6585365853659 161.44200626959244 L 505.4006968641115 176.01880877742943 L 507.14285714285717 175.39184952978056 L 508.8850174216028 186.83385579937303 L 510.62717770034845 202.50783699059556 L 512.3693379790941 198.58934169278993 L 514.1114982578397 207.5235109717868 L 515.8536585365854 205.32915360501565 L 517.5958188153311 207.83699059561124 L 519.3379790940767 207.83699059561124 L 521.0801393728223 212.53918495297805 L 522.822299651568 215.83072100313476 L 524.5644599303137 218.80877742946703 L 526.3066202090592 217.86833855799372 L 528.0487804878048 238.40125391849526 L 529.7909407665505 234.63949843260187 L 531.5331010452962 236.2068965517241 L 533.2752613240418 243.10344827586206 L 535.0174216027874 241.3793103448276 L 536.7595818815331 242.94670846394982 L 538.5017421602788 245.7680250783699 L 540.2439024390244 252.82131661442006 L 541.98606271777 259.2476489028213 L 543.7282229965157 264.576802507837 L 545.4703832752614 268.8087774294671 L 547.212543554007 269.435736677116 L 548.9547038327526 271.6300940438871 L 550.6968641114983 276.4890282131661 L 552.439024390244 277.58620689655174 L 554.1811846689895 280.09404388714734 L 555.9233449477351 281.5047021943574 L 557.6655052264808 285.2664576802507 L 559.4076655052265 281.5047021943574 L 561.1498257839721 286.3636363636364 L 562.8919860627177 285.8934169278997 L 564.6341463414634 282.60188087774293 L 566.3763066202091 287.30407523510974 L 568.1184668989547 286.67711598746075 L 569.8606271777003 289.8119122257053 L 571.602787456446 293.2601880877743 L 573.3449477351917 292.6332288401254 L 575.0871080139373 291.0658307210031 L 576.8292682926829 289.8119122257053 L 578.5714285714286 288.5579937304075 L 580.3135888501743 291.0658307210031 L 582.0557491289198 293.2601880877743 L 583.7979094076654 297.6489028213166 L 585.5400696864111 291.53605015673975 L 587.2822299651568 293.10344827586204 L 589.0243902439024 289.9686520376175 L 590.766550522648 296.23824451410655 L 592.5087108013937 299.3730407523511 L 594.2508710801394 296.08150470219437 L 595.993031358885 298.9028213166144 L 597.7351916376306 302.1943573667711 L 599.4773519163763 302.6645768025078 L 601.219512195122 306.26959247648904 L 602.9616724738676 305.6426332288401 L 604.7038327526133 307.6802507836991 L 606.445993031359 315.04702194357367 L 608.1881533101046 316.9278996865204 L 609.9303135888501 320.37617554858934 L 611.6724738675958 325.5485893416928 L 613.4146341463415 325.8620689655172 L 615.1567944250871 328.3699059561128 L 616.8989547038327 331.1912225705329 L 618.6411149825784 333.38557993730404 L 620.3832752613241 334.48275862068965 L 622.1254355400697 338.87147335423197 L 623.8675958188153 344.98432601880876 L 625.609756097561 342.00626959247643 L 627.3519163763067 343.41692789968647 L 629.0940766550523 338.24451410658304 L 630.8362369337979 344.0438871473354 L 632.5783972125436 346.70846394984324 L 634.3205574912893 350.4702194357367 L 636.0627177700349 354.23197492163007 L 637.8048780487804 355.95611285266455 L 639.5470383275261 357.99373040752346 L 641.2891986062718 358.30721003134795 L 643.0313588850174 368.6520376175548 L 644.773519163763 369.90595611285266 L 646.5156794425087 371.4733542319749 L 648.2578397212544 374.13793103448273 L 650 375.0783699059561 L 650 400 Z" /><text  class="poloto_labels poloto_text poloto_title" alignment-baseline="start" text-anchor="middle" font-size="x-large" x="400" y="37.5" >Total players on 2021-12-24</text><text  class="poloto_labels poloto_text poloto_xname" alignment-baseline="start" text-anchor="middle" font-size="x-large" x="400" y="481.25" >Time</text><text  class="poloto_labels poloto_text poloto_yname" alignment-baseline="start" text-anchor="middle" font-size="x-large" transform="rotate(-90,37.5,250)" x="37.5" y="250" >Count</text><line  class="poloto_axis_lines" stroke="black" x1="150" x2="150" y1="400" y2="405" /><text  class="poloto_tick_labels poloto_text" alignment-baseline="start" text-anchor="middle" x="150" y="430" > 00:00:00</text><line  class="poloto_axis_lines" stroke="black" x1="266.14401858304296" x2="266.14401858304296" y1="400" y2="405" /><text  class="poloto_tick_labels poloto_text" alignment-baseline="start" text-anchor="middle" x="266.14401858304296" y="430" > 05:33:20</text><line  class="poloto_axis_lines" stroke="black" x1="382.2880371660859" x2="382.2880371660859" y1="400" y2="405" /><text  class="poloto_tick_labels poloto_text" alignment-baseline="start" text-anchor="middle" x="382.2880371660859" y="430" > 11:06:40</text><line  class="poloto_axis_lines" stroke="black" x1="498.4320557491289" x2="498.4320557491289" y1="400" y2="405" /><text  class="poloto_tick_labels poloto_text" alignment-baseline="start" text-anchor="middle" x="498.4320557491289" y="430" > 16:40:00</text><line  class="poloto_axis_lines" stroke="black" x1="614.5760743321719" x2="614.5760743321719" y1="400" y2="405" /><text  class="poloto_tick_labels poloto_text" alignment-baseline="start" text-anchor="middle" x="614.5760743321719" y="430" > 22:13:20</text><line  class="poloto_axis_lines" stroke="black" x1="150" x2="144" y1="386.83385579937305" y2="386.83385579937305" /><text  class="poloto_tick_labels poloto_text" alignment-baseline="middle" text-anchor="end" x="135" y="386.83385579937305" > 1000</text><line  class="poloto_axis_lines" stroke="black" x1="150" x2="144" y1="308.46394984326014" y2="308.46394984326014" /><text  class="poloto_tick_labels poloto_text" alignment-baseline="middle" text-anchor="end" x="135" y="308.46394984326014" > 1500</text><line  class="poloto_axis_lines" stroke="black" x1="150" x2="144" y1="230.09404388714734" y2="230.09404388714734" /><text  class="poloto_tick_labels poloto_text" alignment-baseline="middle" text-anchor="end" x="135" y="230.09404388714734" > 2000</text><line  class="poloto_axis_lines" stroke="black" x1="150" x2="144" y1="151.72413793103445" y2="151.72413793103445" /><text  class="poloto_tick_labels poloto_text" alignment-baseline="middle" text-anchor="end" x="135" y="151.72413793103445" > 2500</text><path  stroke="black" fill="none" class="poloto_axis_lines" style="stroke-dasharray:14.518002322880372;stroke-dashoffset:-0;" d=" M 150 400 L 650 400" /><path  stroke="black" fill="none" class="poloto_axis_lines" style="stroke-dasharray:7.836990595611286;stroke-dashoffset:-13.166144200626974;" d=" M 150 400 L 150 100" /></svg>