<svg class="poloto" width="800" height="500" viewBox="0 0 800 500" xmlns="http://www.w3.org/2000/svg"><style>.poloto { stroke-linecap:round; stroke-linejoin:round; font-family: 'Tahoma', sans-serif; background-color: AliceBlue;} .poloto_scatter{stroke-width:7} .poloto_line{stroke-width:2} .poloto_text{fill: black;} .poloto_axis_lines{stroke: black;stroke-width:3;fill:none;stroke-dasharray:none} .poloto0stroke{stroke:  blue;} .poloto1stroke{stroke:  red;} .poloto2stroke{stroke:  green;} .poloto3stroke{stroke:  gold;} .poloto4stroke{stroke:  aqua;} .poloto5stroke{stroke:  lime;} .poloto6stroke{stroke:  orange;} .poloto7stroke{stroke:  chocolate;} .poloto0fill{fill:blue;} .poloto1fill{fill:red;} .poloto2fill{fill:green;} .poloto3fill{fill:gold;} .poloto4fill{fill:aqua;} .poloto5fill{fill:lime;} .poloto6fill{fill:orange;} .poloto7fill{fill:chocolate;}</style><text  class="poloto_text poloto_legend_text" alignment-baseline="middle" text-anchor="start" font-size="large" x="675" y="100" ></text><path  class="poloto_linefill poloto0fill" d=" M 150 400 L 150 351.9230769230769 L 151.73637324475314 358.7412587412588 L 153.47855375788336 355.24475524475525 L 155.2207342710136 367.4825174825175 L 156.96291478414383 356.64335664335664 L 158.70509529727406 356.8181818181818 L 160.4472758104043 354.37062937062933 L 162.18945632353453 358.0419580419581 L 163.93163683666478 356.8181818181818 L 165.673817349795 358.21678321678326 L 167.41599786292522 358.0419580419581 L 169.15817837605547 361.013986013986 L 170.9003588891857 368.35664335664336 L 172.64253940231595 373.0769230769231 L 174.38471991544617 371.1538461538462 L 176.1269004285764 377.27272727272725 L 177.86908094170664 374.4755244755245 L 179.61126145483686 373.6013986013986 L 181.35344196796711 373.7762237762238 L 183.09562248109734 375.1748251748252 L 184.8378029942276 372.3776223776224 L 186.5799835073578 372.72727272727275 L 188.32216402048806 378.8461538461538 L 190.06434453361828 383.5664335664336 L 191.81233231512562 380.94405594405595 L 193.54870555987875 381.64335664335664 L 195.29088607300898 378.3216783216783 L 197.03306658613923 378.67132867132864 L 198.77524709926945 379.8951048951049 L 200.51742761239967 400 L 202.25960812552992 392.65734265734267 L 204.00178863866014 393.1818181818182 L 205.7439691517904 393.006993006993 L 207.48614966492062 390.55944055944053 L 209.22833017805084 386.53846153846155 L 210.9705106911811 379.5454545454545 L 212.7126912043113 379.020979020979 L 214.45487171744156 382.6923076923077 L 216.19705223057179 378.49650349650346 L 217.939232743702 375.1748251748252 L 219.68141325683226 373.25174825174827 L 221.4235937699625 370.27972027972027 L 223.16577428309273 368.006993006993 L 224.90795479622295 365.2097902097902 L 226.65013530935317 369.4055944055944 L 228.39231582248343 362.93706293706293 L 230.13449633561368 362.06293706293707 L 231.8766768487439 365.38461538461536 L 233.61885736187412 361.3636363636364 L 235.36103787500434 354.19580419580416 L 237.1032183881346 356.2937062937063 L 238.84539890126484 353.1468531468531 L 240.58757941439507 353.8461538461538 L 242.3297599275253 348.95104895104896 L 244.0719404406555 342.83216783216784 L 245.81412095378576 342.13286713286715 L 247.556301466916 341.9580419580419 L 249.29848198004623 344.4055944055944 L 251.04066249317646 342.83216783216784 L 252.78284300630668 345.1048951048951 L 254.530830787814 340.7342657342657 L 256.2672040325672 338.986013986014 L 258.0093845456974 341.4335664335664 L 259.7515650588276 343.8811188811189 L 261.4937455719579 338.6363636363636 L 263.23592608508807 340.55944055944053 L 264.97810659821835 336.53846153846155 L 266.72028711134857 339.5104895104895 L 268.4624676244788 341.4335664335664 L 270.20464813760907 338.986013986014 L 271.94682865073923 343.1818181818182 L 273.6890091638695 336.3636363636364 L 275.43699694537685 336.8881118881119 L 277.17337019012996 342.65734265734267 L 278.91555070326024 334.7902097902098 L 280.6577312163904 339.68531468531467 L 282.3999117295207 344.05594405594405 L 284.1420922426509 339.5104895104895 L 285.8842727557811 337.76223776223776 L 287.6264532689114 338.46153846153845 L 289.36863378204157 329.020979020979 L 291.11081429517185 322.5524475524476 L 292.85299480830207 317.48251748251744 L 294.5951753214323 310.6643356643357 L 296.3373558345626 310.4895104895105 L 298.07953634769274 312.06293706293707 L 299.821716860823 308.21678321678326 L 301.56389737395324 312.93706293706293 L 303.30607788708346 308.91608391608395 L 305.04825840021374 309.2657342657343 L 306.7904389133439 312.5874125874126 L 308.5326194264742 307.3426573426574 L 310.2747999396044 311.1888111888112 L 312.01698045273463 302.27272727272725 L 313.7591609658649 299.3006993006993 L 315.5013414789951 295.4545454545455 L 317.24352199212535 295.62937062937067 L 318.9857025052556 291.60839160839157 L 320.7278830183858 291.9580419580419 L 322.4700635315161 283.0419580419581 L 324.2122440446463 286.8881118881119 L 325.9544245577765 280.06993006993 L 327.69660507090674 284.7902097902098 L 329.43878558403696 281.4685314685315 L 331.18096609716724 283.5664335664336 L 332.92314661029747 276.2237762237762 L 334.6653271234277 271.8531468531469 L 336.4075076365579 265.55944055944053 L 338.15549541806524 266.4335664335664 L 339.8918686628184 267.6573426573426 L 341.63404917594863 263.2867132867133 L 343.37622968907885 267.48251748251744 L 345.1184102022091 259.7902097902098 L 346.8605907153393 256.4685314685315 L 348.6027712284696 253.67132867132867 L 350.3449517415998 261.8881118881119 L 352.08713225473 264.16083916083915 L 353.8293127678603 251.5734265734266 L 355.57149328099047 259.7902097902098 L 357.31367379412075 259.965034965035 L 359.05585430725097 254.89510489510488 L 360.7980348203812 248.60139860139859 L 362.54021533351147 243.53146853146856 L 364.28239584664163 246.32867132867133 L 366.0245763597719 243.53146853146856 L 367.76675687290214 241.78321678321677 L 369.50893738603236 239.6853146853147 L 371.25111789916264 233.74125874125875 L 372.9932984122928 230.94405594405598 L 374.7354789254231 222.2027972027972 L 376.4776594385533 223.77622377622376 L 378.2198399516835 232.6923076923077 L 379.96782773319086 229.89510489510488 L 381.70420097794397 238.63636363636365 L 383.44638149107425 237.58741258741262 L 385.18856200420447 222.72727272727272 L 386.9307425173347 220.45454545454547 L 388.672923030465 221.15384615384616 L 390.42091081197225 219.75524475524477 L 392.1572840567254 222.37762237762237 L 393.89946456985564 229.1958041958042 L 395.64164508298586 219.05594405594408 L 397.38382559611614 209.7902097902098 L 399.1260061092463 204.020979020979 L 400.8681866223766 202.7972027972028 L 402.6103671355068 198.07692307692307 L 404.352547648637 193.53146853146856 L 406.09472816176725 191.78321678321677 L 407.83690867489753 194.23076923076925 L 409.57908918802775 197.2027972027972 L 411.321269701158 198.77622377622376 L 413.0634502142882 192.65734265734264 L 414.8056307274184 185.66433566433565 L 416.5478112405487 183.56643356643357 L 418.2899917536789 183.04195804195805 L 420.03217226680914 186.36363636363635 L 421.7801600483165 186.71328671328675 L 423.5165332930696 183.04195804195805 L 425.25871380619986 193.18181818181822 L 427.0008943193301 177.27272727272728 L 428.7430748324603 175.69930069930072 L 430.48525534559053 167.3076923076923 L 432.22743585872075 176.5734265734266 L 433.96961637185103 166.43356643356643 L 435.71179688498125 152.44755244755245 L 437.4539773981115 144.40559440559443 L 439.1961579112417 132.69230769230774 L 440.938338424372 131.11888111888118 L 442.6805189375022 125.87412587412587 L 444.4226994506324 128.49650349650346 L 446.16487996376264 134.09090909090912 L 447.90706047689287 122.20279720279723 L 449.64924099002315 120.97902097902102 L 451.39142150315337 122.55244755244757 L 453.1336020162836 124.3006993006993 L 454.8757825294138 127.27272727272725 L 456.61796304254403 120.10489510489515 L 458.3601435556743 128.49650349650346 L 460.10232406880453 134.44055944055947 L 461.84450458193476 143.00699300699307 L 463.586685095065 129.19580419580416 L 465.3288656081952 127.09790209790208 L 467.0710461213255 125.87412587412587 L 468.8132266344557 128.14685314685312 L 470.5554071475859 122.20279720279723 L 472.29758766071615 121.15384615384619 L 474.0455754422235 122.55244755244757 L 475.78194868697665 118.00699300699307 L 477.52412920010687 122.3776223776224 L 479.2663097132371 118.35664335664342 L 481.0084902263673 109.2657342657343 L 482.75067073949754 104.19580419580416 L 484.4928512526278 113.98601398601397 L 486.23503176575804 100 L 487.97721227888826 105.944055944056 L 489.7193927920185 107.51748251748256 L 491.4615733051487 109.2657342657343 L 493.203753818279 127.97202797202794 L 494.9517415997863 132.16783216783222 L 496.6881148445394 129.02097902097898 L 498.43029535766965 133.04195804195808 L 500.17247587079993 141.95804195804192 L 501.91465638393015 132.8671328671329 L 503.6568368970604 139.68531468531467 L 505.3990174101906 138.8111888111888 L 507.1411979233208 142.30769230769226 L 508.8833784364511 143.18181818181824 L 510.6255589495813 134.79020979020981 L 512.3677394627116 140.20979020979019 L 514.1099199758418 142.48251748251744 L 515.8521004889719 158.74125874125875 L 517.5942810021022 154.7202797202797 L 519.3364615152325 165.55944055944056 L 521.0786420283628 164.6853146853147 L 522.8208225414929 166.78321678321677 L 524.5630030546231 171.5034965034965 L 526.3051835677534 168.00699300699304 L 528.0473640808837 177.7972027972028 L 529.7895445940139 177.62237762237763 L 531.5317251071441 175.34965034965037 L 533.2739056202743 186.71328671328675 L 535.0160861334045 183.74125874125875 L 536.7582666465348 194.40559440559443 L 538.5004471596651 196.85314685314685 L 540.2426276727953 202.44755244755245 L 541.9848081859254 204.89510489510488 L 543.7269886990557 209.6153846153846 L 545.469169212186 210.3146853146853 L 547.2113497253163 214.33566433566435 L 548.9535302384464 216.43356643356643 L 550.6957107515766 208.3916083916084 L 552.4378912647069 214.51048951048952 L 554.1800717778372 234.7902097902098 L 555.9222522909674 229.7202797202797 L 557.6644328040976 235.48951048951048 L 559.4066133172278 240.9090909090909 L 561.148793830358 244.05594405594408 L 562.8909743434883 250.8741258741259 L 564.6331548566186 245.8041958041958 L 566.3753353697488 254.89510489510488 L 568.117515882879 250.52447552447555 L 569.8596963960092 259.7902097902098 L 571.6018769091395 265.38461538461536 L 573.3440574222698 274.3006993006993 L 575.0862379353999 275.34965034965035 L 576.8284184485302 270.80419580419584 L 578.5705989616604 270.80419580419584 L 580.3127794747907 267.8321678321678 L 582.0549599879209 263.8111888111888 L 583.7971405010511 268.88111888111894 L 585.5393210141814 266.2587412587412 L 587.2815015273115 255.59440559440557 L 589.0236820404418 256.99300699300704 L 590.7658625535721 254.54545454545453 L 592.5080430667023 261.013986013986 L 594.2502235798326 265.9090909090909 L 595.9924040929627 266.2587412587412 L 597.734584606093 260.6643356643357 L 599.4767651192233 257.1678321678322 L 601.2189456323534 256.99300699300704 L 602.9611261454837 259.965034965035 L 604.7033066586139 260.83916083916085 L 606.4454871717442 259.61538461538464 L 608.1876676848744 267.8321678321678 L 609.9298481980046 267.1328671328671 L 611.6720287111349 265.2097902097902 L 613.414209224265 267.1328671328671 L 615.1563897373953 279.020979020979 L 616.8985702505256 282.8671328671329 L 618.6407507636558 285.6643356643357 L 620.382931276786 291.4335664335664 L 622.1251117899162 284.7902097902098 L 623.8672923030465 293.18181818181813 L 625.6094728161768 300.6993006993007 L 627.3516533293069 311.3636363636364 L 629.0938338424372 314.16083916083915 L 630.8360143555674 320.10489510489515 L 632.5781948686977 321.32867132867136 L 634.320375381828 322.02797202797206 L 636.0625558949582 325.5244755244755 L 637.8047364080884 331.99300699300704 L 639.5469169212186 337.93706293706293 L 641.2890974343488 342.65734265734267 L 643.0312779474791 340.55944055944053 L 644.7734584606094 331.99300699300704 L 646.5156389737396 328.67132867132864 L 648.2578194868697 332.69230769230774 L 650 338.2867132867133 L 650 400 Z" /><text  class="poloto_labels poloto_text poloto_title" alignment-baseline="start" text-anchor="middle" font-size="x-large" x="400" y="37.5" >Total players on 2021-08-03</text><text  class="poloto_labels poloto_text poloto_xname" alignment-baseline="start" text-anchor="middle" font-size="x-large" x="400" y="481.25" >Time</text><text  class="poloto_labels poloto_text poloto_yname" alignment-baseline="start" text-anchor="middle" font-size="x-large" transform="rotate(-90,37.5,250)" x="37.5" y="250" >Count</text><line  class="poloto_axis_lines" stroke="black" x1="208.0436474291223" x2="208.0436474291223" y1="400" y2="405" /><text  class="poloto_tick_labels poloto_text" alignment-baseline="start" text-anchor="middle" x="208.0436474291223" y="430" > 03:00</text><line  class="poloto_axis_lines" stroke="black" x1="266.1163312001301" x2="266.1163312001301" y1="400" y2="405" /><text  class="poloto_tick_labels poloto_text" alignment-baseline="start" text-anchor="middle" x="266.1163312001301" y="430" > 06:00</text><line  class="poloto_axis_lines" stroke="black" x1="324.1890149711379" x2="324.1890149711379" y1="400" y2="405" /><text  class="poloto_tick_labels poloto_text" alignment-baseline="start" text-anchor="middle" x="324.1890149711379" y="430" > 08:00</text><line  class="poloto_axis_lines" stroke="black" x1="382.26169874214565" x2="382.26169874214565" y1="400" y2="405" /><text  class="poloto_tick_labels poloto_text" alignment-baseline="start" text-anchor="middle" x="382.26169874214565" y="430" > 11:00</text><line  class="poloto_axis_lines" stroke="black" x1="440.33438251315346" x2="440.33438251315346" y1="400" y2="405" /><text  class="poloto_tick_labels poloto_text" alignment-baseline="start" text-anchor="middle" x="440.33438251315346" y="430" > 14:00</text><line  class="poloto_axis_lines" stroke="black" x1="498.40706628416126" x2="498.40706628416126" y1="400" y2="405" /><text  class="poloto_tick_labels poloto_text" alignment-baseline="start" text-anchor="middle" x="498.40706628416126" y="430" > 17:00</text><line  class="poloto_axis_lines" stroke="black" x1="556.479750055169" x2="556.479750055169" y1="400" y2="405" /><text  class="poloto_tick_labels poloto_text" alignment-baseline="start" text-anchor="middle" x="556.479750055169" y="430" > 19:00</text><line  class="poloto_axis_lines" stroke="black" x1="614.5524338261769" x2="614.5524338261769" y1="400" y2="405" /><text  class="poloto_tick_labels poloto_text" alignment-baseline="start" text-anchor="middle" x="614.5524338261769" y="430" > 22:00</text><line  class="poloto_axis_lines" stroke="black" x1="150" x2="144" y1="335.83916083916085" y2="335.83916083916085" /><text  class="poloto_tick_labels poloto_text" alignment-baseline="middle" text-anchor="end" x="135" y="335.83916083916085" > 1500</text><line  class="poloto_axis_lines" stroke="black" x1="150" x2="144" y1="248.42657342657344" y2="248.42657342657344" /><text  class="poloto_tick_labels poloto_text" alignment-baseline="middle" text-anchor="end" x="135" y="248.42657342657344" > 2000</text><line  class="poloto_axis_lines" stroke="black" x1="150" x2="144" y1="161.01398601398603" y2="161.01398601398603" /><text  class="poloto_tick_labels poloto_text" alignment-baseline="middle" text-anchor="end" x="135" y="161.01398601398603" > 2500</text><path  stroke="black" fill="none" class="poloto_axis_lines" style="stroke-dasharray:14.518170942751949;stroke-dashoffset:-58.043647429122295;" d=" M 150 400 L 650 400" /><path  stroke="black" fill="none" class="poloto_axis_lines" style="stroke-dasharray:8.741258741258742;stroke-dashoffset:-64.16083916083917;" d=" M 150 400 L 150 100" /></svg>