<svg class="poloto" width="800" height="500" viewBox="0 0 800 500" xmlns="http://www.w3.org/2000/svg"><style>.poloto { stroke-linecap:round; stroke-linejoin:round; font-family: 'Tahoma', sans-serif; background-color: AliceBlue;} .poloto_scatter{stroke-width:7} .poloto_line{stroke-width:2} .poloto_text{fill: black;} .poloto_axis_lines{stroke: black;stroke-width:3;fill:none;stroke-dasharray:none} .poloto0stroke{stroke:  blue;} .poloto1stroke{stroke:  red;} .poloto2stroke{stroke:  green;} .poloto3stroke{stroke:  gold;} .poloto4stroke{stroke:  aqua;} .poloto5stroke{stroke:  lime;} .poloto6stroke{stroke:  orange;} .poloto7stroke{stroke:  chocolate;} .poloto0fill{fill:blue;} .poloto1fill{fill:red;} .poloto2fill{fill:green;} .poloto3fill{fill:gold;} .poloto4fill{fill:aqua;} .poloto5fill{fill:lime;} .poloto6fill{fill:orange;} .poloto7fill{fill:chocolate;}</style><text  class="poloto_text poloto_legend_text" alignment-baseline="middle" text-anchor="start" font-size="large" x="675" y="100" ></text><path  class="poloto_linefill poloto0fill" d=" M 150 400 L 150 352.4768644529123 L 151.74216027874564 354.59989112683724 L 153.4843205574913 357.7027762656505 L 155.22648083623693 362.2754491017964 L 156.96864111498257 370.44093630919974 L 158.71080139372822 371.58410451823624 L 160.45296167247386 373.05389221556885 L 162.1951219512195 379.09635274904736 L 163.93728222996515 379.58628198149154 L 165.6794425087108 378.6064235166032 L 167.42160278745644 381.5459989112684 L 169.16376306620208 375.01360914534564 L 170.90592334494772 377.95318454001085 L 172.64808362369337 377.78987479586283 L 174.390243902439 381.7093086554164 L 176.13240418118465 380.72945019052804 L 177.8745644599303 382.03592814371257 L 179.61672473867597 388.56831790963525 L 181.3588850174216 386.2819814915623 L 183.10104529616726 391.8345127925966 L 184.8432055749129 393.14099074578115 L 186.58536585365854 397.0604246053348 L 188.3275261324042 396.7338051170386 L 190.06968641114983 400 L 191.81184668989548 396.24387588459444 L 193.55400696864112 393.46761023407726 L 195.29616724738676 394.2841589548176 L 197.0383275261324 395.9172563962983 L 198.78048780487805 391.9978225367447 L 200.5226480836237 390.20141535111594 L 202.26480836236934 393.30430048992923 L 204.00696864111498 391.18127381600436 L 205.74912891986062 394.9373979314099 L 207.49128919860627 389.7114861186717 L 209.2334494773519 390.364725095264 L 210.97560975609755 387.58845944474683 L 212.7177700348432 387.4251497005988 L 214.45993031358887 389.5481763745237 L 216.2020905923345 389.5481763745237 L 217.94425087108016 389.0582471420795 L 219.6864111498258 389.87479586281984 L 221.42857142857144 393.46761023407726 L 223.1707317073171 394.2841589548176 L 224.91289198606273 393.7942297223734 L 226.65505226480838 391.0179640718563 L 228.39721254355402 390.20141535111594 L 230.13937282229966 387.915078933043 L 231.8815331010453 391.18127381600436 L 233.62369337979095 391.8345127925966 L 235.3658536585366 390.6913445835602 L 237.10801393728224 392.16113228089273 L 238.85017421602788 386.4452912357104 L 240.59233449477352 382.68916712030483 L 242.33449477351917 384.6488840500816 L 244.0766550522648 385.46543277082196 L 245.81881533101046 387.26183995645073 L 247.5609756097561 386.4452912357104 L 249.30313588850174 382.68916712030483 L 251.0452961672474 379.2596624931954 L 252.78745644599303 378.4431137724551 L 254.52961672473867 377.1366358192705 L 256.2717770034843 378.6064235166032 L 258.01393728222996 377.46325530756667 L 259.7560975609756 376.6467065868263 L 261.49825783972125 372.5639629831246 L 263.2404181184669 375.5035383777898 L 264.98257839721254 370.6042460533479 L 266.7247386759582 368.9711486118672 L 268.4668989547038 363.58192705498095 L 270.20905923344947 365.37833424060966 L 271.9512195121951 364.2351660315732 L 273.69337979094075 363.9085465432771 L 275.4355400696864 359.9891126837234 L 277.17770034843204 356.559608056614 L 278.91986062717774 352.64017419706045 L 280.6620209059233 353.4567229178008 L 282.404181184669 354.27327163854113 L 284.1463414634146 353.6200326619488 L 285.8885017421603 353.29341317365265 L 287.6306620209059 357.86608600979855 L 289.3728222996516 358.02939575394663 L 291.1149825783972 359.9891126837234 L 292.8571428571429 358.3560152422428 L 294.5993031358885 358.1927054980947 L 296.3414634146342 356.8862275449102 L 298.08362369337976 357.53946652150245 L 299.82578397212546 355.2531301034295 L 301.56794425087105 355.0898203592814 L 303.31010452961675 353.6200326619488 L 305.05226480836234 353.13010342950463 L 306.79442508710804 350.35383777898744 L 308.5365853658536 351.00707675557976 L 310.2787456445993 351.49700598802394 L 312.0209059233449 351.00707675557976 L 313.7630662020906 350.1905280348394 L 315.5052264808362 350.5171475231356 L 317.2473867595819 348.39412084921065 L 318.9895470383275 345.12792596624934 L 320.7317073170732 342.025040827436 L 322.4738675958188 339.7387044093631 L 324.2160278745645 340.2286336418073 L 325.9581881533101 332.3897659227 L 327.70034843205576 331.7365269461078 L 329.4425087108014 330.91997822536746 L 331.18466898954705 326.5106151333696 L 332.9268292682927 330.26673924877514 L 334.66898954703834 338.5955362003266 L 336.411149825784 337.28905824714207 L 338.1533101045296 338.92215568862275 L 339.89547038327527 333.5329341317365 L 341.6376306620209 330.4300489929233 L 343.37979094076655 327.1638541099619 L 345.1219512195122 320.63146434403916 L 346.86411149825784 322.754491017964 L 348.6062717770035 320.63146434403916 L 350.34843205574913 314.75231355470873 L 352.0905923344948 317.0386499727817 L 353.8327526132404 308.05661404463797 L 355.57491289198606 302.3407729994556 L 357.3170731707317 302.6673924877517 L 359.05923344947735 296.1350027218291 L 360.801393728223 290.74578116494285 L 362.54355400696863 291.23571039738704 L 364.2857142857143 290.4191616766467 L 366.0278745644599 287.4795862819815 L 367.77003484320556 284.54001088731627 L 369.5121951219512 278.17093086554166 L 371.25435540069685 270.4953728905824 L 372.9965156794425 268.0457267283615 L 374.73867595818814 253.34784975503536 L 376.4808362369338 253.02123026673925 L 378.2229965156795 252.367991290147 L 379.96515679442507 250.57158410451822 L 381.70731707317077 253.51115949918344 L 383.44947735191636 261.0234077299946 L 385.19163763066206 249.91834512792596 L 386.93379790940764 247.9586281981491 L 388.67595818815334 241.09961894393032 L 390.41811846689893 240.1197604790419 L 392.16027874564463 237.83342406096895 L 393.9024390243902 233.5873707131192 L 395.6445993031359 223.78878606423515 L 397.3867595818815 219.70604246053344 L 399.1289198606272 232.4442025040827 L 400.8710801393728 219.37942297223734 L 402.6132404181185 222.64561785519865 L 404.3554006968641 219.05280348394118 L 406.0975609756098 208.43767011431683 L 407.8397212543554 209.25421883505712 L 409.58188153310107 205.82471420794772 L 411.3240418118467 197.9858464888405 L 413.06620209059236 187.53402286336419 L 414.808362369338 188.02395209580837 L 416.55052264808364 185.73761567773542 L 418.2926829268293 183.2879695155144 L 420.03484320557493 181.00163309744144 L 421.7770034843206 172.1829069134458 L 423.5191637630662 166.1404463799673 L 425.26132404181186 162.05770277626564 L 427.0034843205575 163.85410996189435 L 428.74564459930315 154.7087642896026 L 430.4878048780488 154.54545454545453 L 432.22996515679444 152.74904735982577 L 433.9721254355401 150.78933043004898 L 435.7142857142857 150.95264017419706 L 437.45644599303137 154.38214480130645 L 439.198606271777 153.07566684812193 L 440.94076655052265 149.80947196516055 L 442.6829268292683 148.9929232444202 L 444.42508710801394 143.76701143168202 L 446.1672473867596 140.6641262928688 L 447.9094076655052 137.56124115405555 L 449.65156794425087 124.33315187806204 L 451.3937282229965 136.58138268916707 L 453.13588850174216 116.49428415895477 L 454.8780487804878 115.18780620577024 L 456.62020905923345 127.10941752857923 L 458.3623693379791 111.59499183451283 L 460.10452961672473 105.38922155688624 L 461.8466898954704 107.02231899836693 L 463.588850174216 100 L 465.33101045296166 102.77626565051708 L 467.0731707317073 105.2259118127381 L 468.81533101045295 110.12520413718016 L 470.5574912891986 108.6554164398475 L 472.29965156794424 108.98203592814366 L 474.0418118466899 110.61513336962435 L 475.7839721254355 112.08492106695701 L 477.52613240418117 109.47196516058784 L 479.2682926829268 107.34893848666297 L 481.01045296167246 114.69787697332606 L 482.7526132404181 116.98421339139895 L 484.49477351916374 121.55688622754485 L 486.2369337979094 126.12955906369075 L 487.97909407665503 142.4605334784975 L 489.7212543554007 163.85410996189435 L 491.4634146341463 146.70658682634726 L 493.20557491289196 151.11594991834508 L 494.9477351916376 150.6260206859009 L 496.68989547038325 156.17855198693522 L 498.4320557491289 161.5677735438214 L 500.17421602787454 164.99727817093085 L 501.91637630662024 165.16058791507893 L 503.6585365853659 164.83396842678277 L 505.4006968641115 173.3260751224823 L 507.14285714285717 179.53184540010884 L 508.8850174216028 181.00163309744144 L 510.62717770034845 187.20740337506803 L 512.3693379790941 192.4333151878062 L 514.1114982578397 190.63690800217742 L 515.8536585365854 189.0038105606968 L 517.5958188153311 191.61676646706584 L 519.3379790940767 195.53620032661948 L 521.0801393728223 198.63908546543277 L 522.822299651568 204.5182362547632 L 524.5644599303137 212.3571039738704 L 526.3066202090592 204.02830702231896 L 528.0487804878048 207.7844311377245 L 529.7909407665505 218.23625476320083 L 531.5331010452962 208.43767011431683 L 533.2752613240418 211.70386499727815 L 535.0174216027874 207.9477408818726 L 536.7595818815331 212.3571039738704 L 538.5017421602788 222.48230811105063 L 540.2439024390244 225.58519324986392 L 541.98606271777 220.84921066956994 L 543.7282229965157 216.9297768100163 L 545.4703832752614 217.58301578660857 L 547.212543554007 211.70386499727815 L 548.9547038327526 213.663581927055 L 550.6968641114983 216.9297768100163 L 552.439024390244 220.52259118127378 L 554.1811846689895 224.76864452912358 L 555.9233449477351 222.9722373434948 L 557.6655052264808 222.80892759934673 L 559.4076655052265 232.77082199237887 L 561.1498257839721 226.4017419706042 L 562.8919860627177 231.13772455089818 L 564.6341463414634 226.23843222645618 L 566.3763066202091 225.74850299401194 L 568.1184668989547 228.19814915623297 L 569.8606271777003 221.17583015786605 L 571.602787456446 224.44202504082742 L 573.3449477351917 234.56722917800758 L 575.0871080139373 231.95427327163853 L 576.8292682926829 230.9744148067501 L 578.5714285714286 230.9744148067501 L 580.3135888501743 235.38377789874792 L 582.0557491289198 240.93630919978224 L 583.7979094076654 250.89820359281438 L 585.5400696864111 257.267283614589 L 587.2822299651568 261.51333696243876 L 589.0243902439024 262.4931954273271 L 590.766550522648 263.79967338051165 L 592.5087108013937 263.79967338051165 L 594.2508710801394 263.4730538922156 L 595.993031358885 272.1284703320631 L 597.7351916376306 280.13064779531845 L 599.4773519163763 276.537833424061 L 601.219512195122 281.9270549809472 L 602.9616724738676 282.5802939575394 L 604.7038327526133 286.336418072945 L 606.445993031359 286.8263473053892 L 608.1881533101046 289.43930321175833 L 609.9303135888501 291.7256396298312 L 611.6724738675958 301.68753402286336 L 613.4146341463415 298.421339139902 L 615.1567944250871 301.3609145345672 L 616.8989547038327 294.9918345127926 L 618.6411149825784 306.9134458356015 L 620.3832752613241 310.506260206859 L 622.1254355400697 320.141535111595 L 623.8675958188153 325.04082743603703 L 625.609756097561 326.34730538922156 L 627.3519163763067 325.69406641262924 L 629.0940766550523 328.9602612955906 L 630.8362369337979 330.4300489929233 L 632.5783972125436 331.8998366902558 L 634.3205574912893 337.45236799129015 L 636.0627177700349 341.5351115949918 L 637.8048780487804 341.3718018508438 L 639.5470383275261 345.12792596624934 L 641.2891986062718 347.4142623843222 L 643.0313588850174 352.4768644529123 L 644.773519163763 355.57974959172566 L 646.5156794425087 357.86608600979855 L 648.2578397212544 363.09199782253677 L 650 362.92868807838863 L 650 400 Z" /><text  class="poloto_labels poloto_text poloto_title" alignment-baseline="start" text-anchor="middle" font-size="x-large" x="400" y="37.5" >Total players on 2021-12-08</text><text  class="poloto_labels poloto_text poloto_xname" alignment-baseline="start" text-anchor="middle" font-size="x-large" x="400" y="481.25" >Time</text><text  class="poloto_labels poloto_text poloto_yname" alignment-baseline="start" text-anchor="middle" font-size="x-large" transform="rotate(-90,37.5,250)" x="37.5" y="250" >Count</text><line  class="poloto_axis_lines" stroke="black" x1="150" x2="150" y1="400" y2="405" /><text  class="poloto_tick_labels poloto_text" alignment-baseline="start" text-anchor="middle" x="150" y="430" > 00:00</text><line  class="poloto_axis_lines" stroke="black" x1="266.14401858304296" x2="266.14401858304296" y1="400" y2="405" /><text  class="poloto_tick_labels poloto_text" alignment-baseline="start" text-anchor="middle" x="266.14401858304296" y="430" > 06:00</text><line  class="poloto_axis_lines" stroke="black" x1="382.2880371660859" x2="382.2880371660859" y1="400" y2="405" /><text  class="poloto_tick_labels poloto_text" alignment-baseline="start" text-anchor="middle" x="382.2880371660859" y="430" > 11:00</text><line  class="poloto_axis_lines" stroke="black" x1="498.4320557491289" x2="498.4320557491289" y1="400" y2="405" /><text  class="poloto_tick_labels poloto_text" alignment-baseline="start" text-anchor="middle" x="498.4320557491289" y="430" > 17:00</text><line  class="poloto_axis_lines" stroke="black" x1="614.5760743321719" x2="614.5760743321719" y1="400" y2="405" /><text  class="poloto_tick_labels poloto_text" alignment-baseline="start" text-anchor="middle" x="614.5760743321719" y="430" > 22:00</text><line  class="poloto_axis_lines" stroke="black" x1="150" x2="144" y1="368.80783886771906" y2="368.80783886771906" /><text  class="poloto_tick_labels poloto_text" alignment-baseline="middle" text-anchor="end" x="135" y="368.80783886771906" > 1000</text><line  class="poloto_axis_lines" stroke="black" x1="150" x2="144" y1="287.1529667936853" y2="287.1529667936853" /><text  class="poloto_tick_labels poloto_text" alignment-baseline="middle" text-anchor="end" x="135" y="287.1529667936853" > 1500</text><line  class="poloto_axis_lines" stroke="black" x1="150" x2="144" y1="205.4980947196516" y2="205.4980947196516" /><text  class="poloto_tick_labels poloto_text" alignment-baseline="middle" text-anchor="end" x="135" y="205.4980947196516" > 2000</text><line  class="poloto_axis_lines" stroke="black" x1="150" x2="144" y1="123.84322264561786" y2="123.84322264561786" /><text  class="poloto_tick_labels poloto_text" alignment-baseline="middle" text-anchor="end" x="135" y="123.84322264561786" > 2500</text><path  stroke="black" fill="none" class="poloto_axis_lines" style="stroke-dasharray:14.518002322880372;stroke-dashoffset:-0;" d=" M 150 400 L 650 400" /><path  stroke="black" fill="none" class="poloto_axis_lines" style="stroke-dasharray:8.165487207403377;stroke-dashoffset:-31.192161132280916;" d=" M 150 400 L 150 100" /></svg>