<svg class="poloto" width="800" height="500" viewBox="0 0 800 500" xmlns="http://www.w3.org/2000/svg"><style>.poloto { stroke-linecap:round; stroke-linejoin:round; font-family: 'Tahoma', sans-serif; background-color: AliceBlue;} .poloto_scatter{stroke-width:7} .poloto_line{stroke-width:2} .poloto_text{fill: black;} .poloto_axis_lines{stroke: black;stroke-width:3;fill:none;stroke-dasharray:none} .poloto0stroke{stroke:  blue;} .poloto1stroke{stroke:  red;} .poloto2stroke{stroke:  green;} .poloto3stroke{stroke:  gold;} .poloto4stroke{stroke:  aqua;} .poloto5stroke{stroke:  lime;} .poloto6stroke{stroke:  orange;} .poloto7stroke{stroke:  chocolate;} .poloto0fill{fill:blue;} .poloto1fill{fill:red;} .poloto2fill{fill:green;} .poloto3fill{fill:gold;} .poloto4fill{fill:aqua;} .poloto5fill{fill:lime;} .poloto6fill{fill:orange;} .poloto7fill{fill:chocolate;}</style><text  class="poloto_text poloto_legend_text" alignment-baseline="middle" text-anchor="start" font-size="large" x="675" y="100" ></text><path  class="poloto_linefill poloto0fill" d=" M 150 400 L 150 353.81210034431876 L 151.74216027874564 358.68175110673883 L 153.4843205574913 364.14166256763406 L 155.22648083623693 366.65027053615347 L 156.96864111498257 368.42105263157896 L 158.71080139372822 370.63453025086085 L 160.45296167247386 376.97983275946876 L 162.1951219512195 377.8652238071815 L 163.93728222996515 380.52139695031974 L 165.6794425087108 381.25922282341367 L 167.42160278745644 384.2105263157895 L 169.16376306620208 381.25922282341367 L 170.90592334494772 387.30939498278406 L 172.64808362369337 386.42400393507137 L 174.390243902439 392.1790457452041 L 176.13240418118465 390.9985243482538 L 177.8745644599303 394.2449581898672 L 179.61672473867597 396.31087063453026 L 181.3588850174216 398.37678307919333 L 183.10104529616726 396.60600098376784 L 184.8432055749129 393.2120019675357 L 186.58536585365854 388.78504672897196 L 188.3275261324042 395.7206099360551 L 190.06968641114983 394.9827840629612 L 191.81184668989548 395.57304476143634 L 193.55400696864112 397.3438268568618 L 195.29616724738676 399.2621741269061 L 197.0383275261324 398.6719134284309 L 198.78048780487805 396.458435809149 L 200.5226480836237 396.458435809149 L 202.26480836236934 398.6719134284309 L 204.00696864111498 396.9011313330054 L 205.74912891986062 397.4913920314806 L 207.49128919860627 400 L 209.2334494773519 396.60600098376784 L 210.97560975609755 393.80226266601085 L 212.7177700348432 391.1460895228726 L 214.45993031358887 391.1460895228726 L 216.2020905923345 393.0644367929169 L 217.94425087108016 391.1460895228726 L 219.6864111498258 390.26069847515987 L 221.42857142857144 386.42400393507137 L 223.1707317073171 380.373831775701 L 224.91289198606273 375.0614854894245 L 226.65505226480838 371.224790949336 L 228.39721254355402 368.42105263157896 L 230.13937282229966 359.7147073290704 L 231.8815331010453 360.6000983767831 L 233.62369337979095 355.8780127889818 L 235.3658536585366 354.6974913920315 L 237.10801393728224 355.43531726512543 L 238.85017421602788 357.0585341859321 L 240.59233449477352 353.5169699950812 L 242.33449477351917 349.2375799311363 L 244.0766550522648 352.4840137727497 L 245.81881533101046 349.38514510575504 L 247.5609756097561 350.56566650270537 L 249.30313588850174 348.79488440727994 L 251.0452961672474 347.1716674864732 L 252.78745644599303 345.4008853910477 L 254.52961672473867 340.6787998032464 L 256.2717770034843 329.1687161829808 L 258.01393728222996 327.25036891293655 L 259.7560975609756 320.3148057058534 L 261.49825783972125 323.26610919822923 L 263.2404181184669 319.72454500737825 L 264.98257839721254 326.5125430398426 L 266.7247386759582 328.1357599606493 L 268.4668989547038 339.9409739301525 L 270.20905923344947 345.5484505656665 L 271.9512195121951 346.4338416133793 L 273.69337979094075 347.7619281849484 L 275.4355400696864 348.35218888342354 L 277.17770034843204 347.6143630103296 L 278.91986062717774 345.9911460895229 L 280.6620209059233 346.4338416133793 L 282.404181184669 348.79488440727994 L 284.1463414634146 350.122970978849 L 285.8885017421603 350.86079685194295 L 287.6306620209059 352.7791441219872 L 289.3728222996516 351.7461878996557 L 291.1149825783972 342.8922774225283 L 292.8571428571429 342.00688637481556 L 294.5993031358885 338.02262666010824 L 296.3414634146342 334.1859321200197 L 298.08362369337976 326.6601082144614 L 299.82578397212546 322.2331529758977 L 301.56794425087105 316.7732415150025 L 303.31010452961675 315.002459419577 L 305.05226480836234 316.6256763403837 L 306.79442508710804 312.4938514510576 L 308.5365853658536 307.3290703393999 L 310.2787456445993 306.59124446630597 L 312.0209059233449 306.59124446630597 L 313.7630662020906 298.03246433841616 L 315.5052264808362 296.704377766847 L 317.2473867595819 296.55681259222825 L 318.9895470383275 297.7373339891786 L 320.7317073170732 294.3433349729464 L 322.4738675958188 296.2616822429907 L 324.2160278745645 294.1957697983276 L 325.9581881533101 300.5410723069356 L 327.70034843205576 291.83472700442695 L 329.4425087108014 287.85046728971963 L 331.18466898954705 285.04672897196264 L 332.9268292682927 290.3590752582391 L 334.66898954703834 287.70290211510087 L 336.411149825784 279.881947860305 L 338.1533101045296 273.38908017707826 L 339.89547038327527 269.69995081160846 L 341.6376306620209 271.61829808165277 L 343.37979094076655 268.0767338908018 L 345.1219512195122 257.5996064928677 L 346.86411149825784 262.0265617314314 L 348.6062717770035 251.6969995081161 L 350.34843205574913 249.48352188883428 L 352.0905923344948 245.20413182488937 L 353.8327526132404 243.43334972946388 L 355.57491289198606 242.99065420560748 L 357.3170731707317 240.9247417609444 L 359.05923344947735 242.40039350713232 L 360.801393728223 240.33448106246925 L 362.54355400696863 239.30152484013774 L 364.2857142857143 236.05509099852435 L 366.0278745644599 234.43187407771768 L 367.77003484320556 223.51205115592722 L 369.5121951219512 229.26709296606003 L 371.25435540069685 224.98770290211513 L 372.9965156794425 221.15100836202657 L 374.73867595818814 216.42892277422533 L 376.4808362369338 216.87161829808167 L 378.2229965156795 217.16674864731925 L 379.96515679442507 213.62518445646828 L 381.70731707317077 227.34874569601578 L 383.44947735191636 217.90457452041318 L 385.19163763066206 213.92031480570586 L 386.93379790940764 207.57501229709789 L 388.67595818815334 206.09936055091003 L 390.41811846689893 203.88588293162815 L 392.16027874564463 197.2454500737826 L 393.9024390243902 203.0004918839154 L 395.6445993031359 191.93310378750618 L 397.3867595818815 187.65371372356128 L 399.1289198606272 187.94884407279886 L 400.8710801393728 191.34284308903102 L 402.6132404181185 191.34284308903102 L 404.3554006968641 192.81849483521893 L 406.0975609756098 193.4087555336941 L 407.8397212543554 191.78553861288736 L 409.58188153310107 194.29414658140684 L 411.3240418118467 196.950319724545 L 413.06620209059236 205.65666502705363 L 414.808362369338 198.27840629611416 L 416.55052264808364 194.29414658140684 L 418.2926829268293 190.30988686669946 L 420.03484320557493 191.34284308903102 L 421.7770034843206 195.17953762911958 L 423.5191637630662 188.53910477127403 L 425.26132404181186 180.8657156910969 L 427.0034843205575 183.22675848499756 L 428.74564459930315 171.56910969011318 L 430.4878048780488 169.5031972454501 L 432.22996515679444 163.3054599114609 L 433.9721254355401 170.68371864240044 L 435.7142857142857 164.19085095917364 L 437.45644599303137 158.14067879980325 L 439.198606271777 152.38563698967045 L 440.94076655052265 148.6965076242007 L 442.6829268292683 149.87702902115103 L 444.42508710801394 142.49877029021155 L 446.1672473867596 141.9085095917364 L 447.9094076655052 137.6291195277915 L 449.65156794425087 132.31677324151502 L 451.3937282229965 160.20659124446632 L 453.13588850174216 131.5789473684211 L 454.8780487804878 131.5789473684211 L 456.62020905923345 125.38121003443189 L 458.3623693379791 115.494343334973 L 460.10452961672473 108.26364977865228 L 461.8466898954704 116.5272995573045 L 463.588850174216 116.23216920806692 L 465.33101045296166 113.72356123954751 L 467.0731707317073 112.83817019183476 L 468.81533101045295 102.21347761928189 L 470.5574912891986 100.88539104771274 L 472.29965156794424 100.00000000000006 L 474.0418118466899 105.31234628627647 L 475.7839721254355 114.01869158878509 L 477.52613240418117 114.01869158878509 L 479.2682926829268 107.37825873093954 L 481.01045296167246 107.67338908017712 L 482.7526132404181 114.16625676340385 L 484.49477351916374 114.46138711264143 L 486.2369337979094 116.37973438268574 L 487.97909407665503 110.47712739793411 L 489.7212543554007 114.31382193802267 L 491.4634146341463 119.7737333989179 L 493.20557491289196 120.95425479586822 L 494.9477351916376 123.6104279390064 L 496.68989547038325 127.2995573044762 L 498.4320557491289 126.41416625676345 L 500.17421602787454 128.77520905066405 L 501.91637630662024 132.02164289227744 L 503.6585365853659 138.07181505164783 L 505.4006968641115 152.23807181505168 L 507.14285714285717 147.81111657648796 L 508.8850174216028 152.38563698967045 L 510.62717770034845 159.76389572060998 L 512.3693379790941 168.32267584849978 L 514.1114982578397 168.17511067388097 L 515.8536585365854 167.87998032464338 L 517.5958188153311 156.07476635514024 L 519.3379790940767 186.17806197737337 L 521.0801393728223 189.71962616822435 L 522.822299651568 187.80127889818004 L 524.5644599303137 192.22823413674377 L 526.3066202090592 193.4087555336941 L 528.0487804878048 194.29414658140684 L 529.7909407665505 206.2469257255288 L 531.5331010452962 199.31136251844566 L 533.2752613240418 206.83718642400396 L 535.0174216027874 217.60944417117565 L 536.7595818815331 215.10083620265618 L 538.5017421602788 216.87161829808167 L 540.2439024390244 223.51205115592722 L 541.98606271777 228.97196261682245 L 543.7282229965157 227.79144121987213 L 545.4703832752614 225.43039842597148 L 547.212543554007 231.03787506148552 L 548.9547038327526 234.57943925233644 L 550.6968641114983 237.82587309394984 L 552.439024390244 238.71126414166258 L 554.1811846689895 242.25282833251356 L 555.9233449477351 253.76291195277918 L 557.6655052264808 247.12247909493362 L 559.4076655052265 245.05656665027055 L 561.1498257839721 248.00787014264637 L 562.8919860627177 253.61534677816036 L 564.6341463414634 257.15691096901134 L 566.3763066202091 258.33743236596166 L 568.1184668989547 256.12395474667983 L 569.8606271777003 262.0265617314314 L 571.602787456446 262.7643876045253 L 573.3449477351917 264.5351696999508 L 575.0871080139373 279.881947860305 L 576.8292682926829 272.5036891293655 L 578.5714285714286 273.8317757009346 L 580.3135888501743 280.47220855878015 L 582.0557491289198 277.52090506640434 L 583.7979094076654 275.45499262174127 L 585.5400696864111 274.8647319232661 L 587.2822299651568 275.3074274471225 L 589.0243902439024 276.19281849483525 L 590.766550522648 273.38908017707826 L 592.5087108013937 272.7988194786031 L 594.2508710801394 275.6025577963601 L 595.993031358885 272.5036891293655 L 597.7351916376306 276.9306443679292 L 599.4773519163763 278.2587309394983 L 601.219512195122 289.47368421052636 L 602.9616724738676 287.4077717658633 L 604.7038327526133 282.98081652729957 L 606.445993031359 287.55533694048205 L 608.1881533101046 285.9321200196754 L 609.9303135888501 297.58976881455976 L 611.6724738675958 301.13133300541074 L 613.4146341463415 303.049680275455 L 615.1567944250871 306.1485489424496 L 616.8989547038327 310.87063453025087 L 618.6411149825784 312.0511559272012 L 620.3832752613241 320.3148057058534 L 622.1254355400697 317.806197737334 L 623.8675958188153 322.3807181505165 L 625.609756097561 318.69158878504675 L 627.3519163763067 329.1687161829808 L 629.0940766550523 328.8735858337433 L 630.8362369337979 321.64289227742256 L 632.5783972125436 326.95523856369897 L 634.3205574912893 323.26610919822923 L 636.0627177700349 329.3162813575996 L 637.8048780487804 328.8735858337433 L 639.5470383275261 331.97245450073785 L 641.2891986062718 335.36645351697 L 643.0313588850174 335.6615838662076 L 644.773519163763 335.6615838662076 L 646.5156794425087 340.6787998032464 L 648.2578397212544 341.1214953271028 L 650 343.63010329562223 L 650 400 Z" /><text  class="poloto_labels poloto_text poloto_title" alignment-baseline="start" text-anchor="middle" font-size="x-large" x="400" y="37.5" >Total players on 2021-08-30</text><text  class="poloto_labels poloto_text poloto_xname" alignment-baseline="start" text-anchor="middle" font-size="x-large" x="400" y="481.25" >Time</text><text  class="poloto_labels poloto_text poloto_yname" alignment-baseline="start" text-anchor="middle" font-size="x-large" transform="rotate(-90,37.5,250)" x="37.5" y="250" >Count</text><line  class="poloto_axis_lines" stroke="black" x1="150" x2="150" y1="400" y2="405" /><text  class="poloto_tick_labels poloto_text" alignment-baseline="start" text-anchor="middle" x="150" y="430" > 00:00:00</text><line  class="poloto_axis_lines" stroke="black" x1="266.14401858304296" x2="266.14401858304296" y1="400" y2="405" /><text  class="poloto_tick_labels poloto_text" alignment-baseline="start" text-anchor="middle" x="266.14401858304296" y="430" > 05:33:20</text><line  class="poloto_axis_lines" stroke="black" x1="382.2880371660859" x2="382.2880371660859" y1="400" y2="405" /><text  class="poloto_tick_labels poloto_text" alignment-baseline="start" text-anchor="middle" x="382.2880371660859" y="430" > 11:06:40</text><line  class="poloto_axis_lines" stroke="black" x1="498.4320557491289" x2="498.4320557491289" y1="400" y2="405" /><text  class="poloto_tick_labels poloto_text" alignment-baseline="start" text-anchor="middle" x="498.4320557491289" y="430" > 16:40:00</text><line  class="poloto_axis_lines" stroke="black" x1="614.5760743321719" x2="614.5760743321719" y1="400" y2="405" /><text  class="poloto_tick_labels poloto_text" alignment-baseline="start" text-anchor="middle" x="614.5760743321719" y="430" > 22:13:20</text><line  class="poloto_axis_lines" stroke="black" x1="150" x2="144" y1="360.15740285292674" y2="360.15740285292674" /><text  class="poloto_tick_labels poloto_text" alignment-baseline="middle" text-anchor="end" x="135" y="360.15740285292674" > 1500</text><line  class="poloto_axis_lines" stroke="black" x1="150" x2="144" y1="286.3748155435317" y2="286.3748155435317" /><text  class="poloto_tick_labels poloto_text" alignment-baseline="middle" text-anchor="end" x="135" y="286.3748155435317" > 2000</text><line  class="poloto_axis_lines" stroke="black" x1="150" x2="144" y1="212.59222823413677" y2="212.59222823413677" /><text  class="poloto_tick_labels poloto_text" alignment-baseline="middle" text-anchor="end" x="135" y="212.59222823413677" > 2500</text><line  class="poloto_axis_lines" stroke="black" x1="150" x2="144" y1="138.8096409247418" y2="138.8096409247418" /><text  class="poloto_tick_labels poloto_text" alignment-baseline="middle" text-anchor="end" x="135" y="138.8096409247418" > 3000</text><path  stroke="black" fill="none" class="poloto_axis_lines" style="stroke-dasharray:14.518002322880372;stroke-dashoffset:-0;" d=" M 150 400 L 650 400" /><path  stroke="black" fill="none" class="poloto_axis_lines" style="stroke-dasharray:7.378258730939498;stroke-dashoffset:-39.84259714707326;" d=" M 150 400 L 150 100" /></svg>