<svg class="poloto" width="800" height="500" viewBox="0 0 800 500" xmlns="http://www.w3.org/2000/svg"><style>.poloto { stroke-linecap:round; stroke-linejoin:round; font-family: 'Tahoma', sans-serif; background-color: AliceBlue;} .poloto_scatter{stroke-width:7} .poloto_line{stroke-width:2} .poloto_text{fill: black;} .poloto_axis_lines{stroke: black;stroke-width:3;fill:none;stroke-dasharray:none} .poloto0stroke{stroke:  blue;} .poloto1stroke{stroke:  red;} .poloto2stroke{stroke:  green;} .poloto3stroke{stroke:  gold;} .poloto4stroke{stroke:  aqua;} .poloto5stroke{stroke:  lime;} .poloto6stroke{stroke:  orange;} .poloto7stroke{stroke:  chocolate;} .poloto0fill{fill:blue;} .poloto1fill{fill:red;} .poloto2fill{fill:green;} .poloto3fill{fill:gold;} .poloto4fill{fill:aqua;} .poloto5fill{fill:lime;} .poloto6fill{fill:orange;} .poloto7fill{fill:chocolate;}</style><text  class="poloto_text poloto_legend_text" alignment-baseline="middle" text-anchor="start" font-size="large" x="675" y="100" ></text><path  class="poloto_linefill poloto0fill" d=" M 150 400 L 150 347.72848743987174 L 151.74216027874564 346.12506680919296 L 153.4843205574913 346.92677712453235 L 155.22648083623693 351.7370390165687 L 156.96864111498257 355.1042223409941 L 158.71080139372822 359.1127739176911 L 160.45296167247386 363.4420096205238 L 162.1951219512195 372.9021913415286 L 163.93728222996515 378.1934794227686 L 165.6794425087108 378.5141635489043 L 167.42160278745644 382.2020309994655 L 169.16376306620208 380.7589524318546 L 170.90592334494772 381.560662747194 L 172.64808362369337 391.0208444681988 L 174.390243902439 390.3794762159273 L 176.13240418118465 393.58631747728487 L 177.8745644599303 391.5018706574025 L 179.61672473867597 389.7381079636558 L 181.3588850174216 392.7846071619455 L 183.10104529616726 391.0208444681988 L 184.8432055749129 388.2950293960449 L 186.58536585365854 390.5398182789952 L 188.3275261324042 393.42597541421696 L 190.06968641114983 395.99144842330304 L 191.81184668989548 397.91555318011757 L 193.55400696864112 394.70871191876 L 195.29616724738676 400 L 197.0383275261324 395.99144842330304 L 198.78048780487805 396.95350080171033 L 200.5226480836237 397.4345269909139 L 202.26480836236934 393.9070016034206 L 204.00696864111498 388.9363976483164 L 205.74912891986062 389.5777659005879 L 207.49128919860627 389.7381079636558 L 209.2334494773519 385.2485301977552 L 210.97560975609755 388.7760555852485 L 212.7177700348432 383.16408337787277 L 214.45993031358887 386.21058257616244 L 216.2020905923345 380.1175841795831 L 217.94425087108016 373.70390165686797 L 219.6864111498258 374.82629609834316 L 221.42857142857144 365.3661143773383 L 223.1707317073171 361.6782469267771 L 224.91289198606273 361.838588989845 L 226.65505226480838 353.981827899519 L 228.39721254355402 349.0112239444147 L 230.13937282229966 340.6734366648851 L 231.8815331010453 336.50454302512026 L 233.62369337979095 329.28915018706573 L 235.3658536585366 326.72367717797965 L 237.10801393728224 322.0737573490112 L 238.85017421602788 321.9134152859433 L 240.59233449477352 317.26349545697485 L 242.33449477351917 316.30144307856756 L 244.0766550522648 310.0481026189203 L 245.81881533101046 314.3773383217531 L 247.5609756097561 310.68947087119193 L 249.30313588850174 309.72741849278464 L 251.0452961672474 304.5964724746125 L 252.78745644599303 302.8327097808658 L 254.52961672473867 305.8792089791556 L 256.2717770034843 302.5120256547301 L 258.01393728222996 307.32228754676646 L 259.7560975609756 297.70176376269376 L 261.49825783972125 295.7776590058792 L 263.2404181184669 298.98450026723674 L 264.98257839721254 294.9759486905398 L 266.7247386759582 301.0689470871192 L 268.4668989547038 295.6173169428114 L 270.20905923344947 298.02244788882945 L 271.9512195121951 295.9380010689471 L 273.69337979094075 299.30518439337254 L 275.4355400696864 301.7103153393907 L 277.17770034843204 300.7482629609834 L 278.91986062717774 296.2586851950829 L 280.6620209059233 295.9380010689471 L 282.404181184669 291.7691074291822 L 284.1463414634146 284.3933725280599 L 285.8885017421603 279.58311063602355 L 287.6306620209059 272.8487439871726 L 289.3728222996516 271.4056654195617 L 291.1149825783972 269.48156066274714 L 292.8571428571429 266.4350614644575 L 294.5993031358885 261.9454836985569 L 296.3414634146342 262.7471940138963 L 298.08362369337976 260.66274719401395 L 299.82578397212546 255.53180117584182 L 301.56794425087105 245.75093532870122 L 303.31010452961675 241.74238375200426 L 305.05226480836234 245.26990913949763 L 306.79442508710804 245.59059326563337 L 308.5365853658536 251.6835916622127 L 310.2787456445993 249.75948690539818 L 312.0209059233449 250.24051309460182 L 313.7630662020906 249.27846071619453 L 315.5052264808362 252.32495991448425 L 317.2473867595819 252.16461785141635 L 318.9895470383275 263.2282202030999 L 320.7317073170732 247.83538214858365 L 322.4738675958188 238.0545163014431 L 324.2160278745645 235.48904329235702 L 325.9581881533101 235.80972741849277 L 327.70034843205576 229.3960448957777 L 329.4425087108014 224.74612506680919 L 331.18466898954705 222.98236237306256 L 332.9268292682927 224.26509887760554 L 334.66898954703834 226.34954569748797 L 336.411149825784 225.54783538214858 L 338.1533101045296 227.95296632816675 L 339.89547038327527 225.38749331908073 L 341.6376306620209 221.53928380545162 L 343.37979094076655 221.05825761624803 L 345.1219512195122 212.72047033671836 L 346.86411149825784 219.93586317477283 L 348.6062717770035 218.8134687332977 L 350.34843205574913 217.2100481026189 L 352.0905923344948 219.29449492250134 L 353.8327526132404 215.12560128273654 L 355.57491289198606 214.6445750935329 L 357.3170731707317 209.83431320149654 L 359.05923344947735 208.07055050774986 L 360.801393728223 209.83431320149654 L 362.54355400696863 212.07910208444682 L 364.2857142857143 207.58952431854627 L 366.0278745644599 200.6948156066275 L 367.77003484320556 201.49652592196688 L 369.5121951219512 190.91394975948694 L 371.25435540069685 193.31908070550512 L 372.9965156794425 186.1036878674506 L 374.73867595818814 181.61411010154998 L 376.4808362369338 176.6435061464458 L 378.2229965156795 175.20042757883485 L 379.96515679442507 177.44521646178518 L 381.70731707317077 178.24692677712457 L 383.44947735191636 175.20042757883485 L 385.19163763066206 168.7867450561197 L 386.93379790940764 168.46606092998397 L 388.67595818815334 161.57135221806524 L 390.41811846689893 162.21272047033673 L 392.16027874564463 156.600748262961 L 393.9024390243902 163.81614110101552 L 395.6445993031359 173.75734901122397 L 397.3867595818815 172.15392838054518 L 399.1289198606272 182.73650454302512 L 400.8710801393728 176.6435061464458 L 402.6132404181185 176.80384820951363 L 404.3554006968641 185.3019775521112 L 406.0975609756098 184.3399251737039 L 407.8397212543554 183.21753073222877 L 409.58188153310107 189.15018706574025 L 411.3240418118467 179.8503474078033 L 413.06620209059236 184.17958311063606 L 414.808362369338 176.6435061464458 L 416.55052264808364 171.51256012827363 L 418.2926829268293 171.1918760021379 L 420.03484320557493 174.39871726349546 L 421.7770034843206 173.9176910742918 L 423.5191637630662 164.93853554249065 L 425.26132404181186 163.17477284874403 L 427.0034843205575 160.2886157135222 L 428.74564459930315 155.31801175841795 L 430.4878048780488 152.11117049706039 L 432.22996515679444 127.09780865847142 L 433.9721254355401 125.49438802779264 L 435.7142857142857 122.60823089257087 L 437.45644599303137 116.83591662212723 L 439.198606271777 111.38428647781939 L 440.94076655052265 110.10154997327629 L 442.6829268292683 129.1822554783538 L 444.42508710801394 121.00481026189209 L 446.1672473867596 125.97541421699623 L 447.9094076655052 127.25815072153932 L 449.65156794425087 121.48583645109568 L 451.3937282229965 130.6253340459648 L 453.13588850174216 119.0807055050775 L 454.8780487804878 123.57028327097805 L 456.62020905923345 119.4013896312133 L 458.3623693379791 115.87386424371994 L 460.10452961672473 122.92891501870656 L 461.8466898954704 114.27044361304115 L 463.588850174216 119.5617316942811 L 465.33101045296166 107.21539283805453 L 467.0731707317073 114.11010154997325 L 468.81533101045295 100 L 470.5574912891986 111.38428647781939 L 472.29965156794424 115.71352218065203 L 474.0418118466899 109.4601817210048 L 475.7839721254355 111.06360235168358 L 477.52613240418117 113.94975948690546 L 479.2682926829268 125.01336183858905 L 481.01045296167246 131.10636023516838 L 482.7526132404181 132.06841261357567 L 484.49477351916374 140.24585783003738 L 486.2369337979094 130.6253340459648 L 487.97909407665503 137.52004275788352 L 489.7212543554007 140.72688401924108 L 491.4634146341463 132.70978086584716 L 493.20557491289196 151.309460181721 L 494.9477351916376 148.58364510956707 L 496.68989547038325 148.10261892036348 L 498.4320557491289 165.4195617316943 L 500.17421602787454 151.4698022447889 L 501.91637630662024 158.84553714591127 L 503.6585365853659 168.7867450561197 L 505.4006968641115 167.98503474078032 L 507.14285714285717 164.29716729021916 L 508.8850174216028 171.1918760021379 L 510.62717770034845 180.9727418492785 L 512.3693379790941 186.26402993051843 L 514.1114982578397 193.63976483164086 L 515.8536585365854 193.47942276857296 L 517.5958188153311 193.31908070550512 L 519.3379790940767 192.19668626402992 L 521.0801393728223 200.37413148049174 L 522.822299651568 213.52218065205776 L 524.5644599303137 206.94815606627472 L 526.3066202090592 204.0619989310529 L 528.0487804878048 217.53073222875466 L 529.7909407665505 209.67397113842864 L 531.5331010452962 209.3532870122929 L 533.2752613240418 220.41688936397648 L 535.0174216027874 219.13415285943344 L 536.7595818815331 223.62373062533405 L 538.5017421602788 231.9615179048637 L 540.2439024390244 237.73383217530736 L 541.98606271777 233.08391234633885 L 543.7282229965157 226.99091394975952 L 545.4703832752614 227.31159807589526 L 547.212543554007 234.84767504008553 L 548.9547038327526 229.0753607696419 L 550.6968641114983 234.68733297701763 L 552.439024390244 243.1854623196152 L 554.1811846689895 247.03367183324426 L 555.9233449477351 252.32495991448425 L 557.6655052264808 256.8145376803848 L 559.4076655052265 259.05932656333516 L 561.1498257839721 255.21111704970602 L 562.8919860627177 256.3335114911812 L 564.6341463414634 260.66274719401395 L 566.3763066202091 264.1902725815072 L 568.1184668989547 268.51950828433996 L 569.8606271777003 270.44361304115444 L 571.602787456446 269.96258685195085 L 573.3449477351917 269.80224478888294 L 575.0871080139373 270.76429716729024 L 576.8292682926829 270.60395510422234 L 578.5714285714286 276.2159273115981 L 580.3135888501743 274.6125066809193 L 582.0557491289198 275.5745590593266 L 583.7979094076654 281.6675574559059 L 585.5400696864111 288.40192410475686 L 587.2822299651568 285.1950828433993 L 589.0243902439024 290.80705505077503 L 590.766550522648 294.6552645644041 L 592.5087108013937 322.0737573490112 L 594.2508710801394 325.28059861036877 L 595.993031358885 302.3516835916622 L 597.7351916376306 307.64297167290215 L 599.4773519163763 310.529128808124 L 601.219512195122 311.4911811865313 L 602.9616724738676 311.9722073757349 L 604.7038327526133 312.9342597541422 L 606.445993031359 312.2928915018707 L 608.1881533101046 314.8583645109567 L 609.9303135888501 321.2720470336718 L 611.6724738675958 319.18760021378944 L 613.4146341463415 326.72367717797965 L 615.1567944250871 329.1288081239978 L 616.8989547038327 329.60983431320153 L 618.6411149825784 328.64778193479424 L 620.3832752613241 328.00641368252275 L 622.1254355400697 332.17530732228755 L 623.8675958188153 334.74078033137357 L 625.609756097561 340.83377872795296 L 627.3519163763067 349.0112239444147 L 629.0940766550523 350.1336183858899 L 630.8362369337979 348.0491715660075 L 632.5783972125436 356.86798503474074 L 634.3205574912893 361.1972207375735 L 636.0627177700349 358.9524318546232 L 637.8048780487804 363.6023516835917 L 639.5470383275261 368.7332977017637 L 641.2891986062718 369.37466595403527 L 643.0313588850174 369.37466595403527 L 644.773519163763 371.4591127739177 L 646.5156794425087 375.7883484767504 L 648.2578397212544 376.10903260288615 L 650 378.03313735970073 L 650 400 Z" /><text  class="poloto_labels poloto_text poloto_title" alignment-baseline="start" text-anchor="middle" font-size="x-large" x="400" y="37.5" >Total players on 2021-09-05</text><text  class="poloto_labels poloto_text poloto_xname" alignment-baseline="start" text-anchor="middle" font-size="x-large" x="400" y="481.25" >Time</text><text  class="poloto_labels poloto_text poloto_yname" alignment-baseline="start" text-anchor="middle" font-size="x-large" transform="rotate(-90,37.5,250)" x="37.5" y="250" >Count</text><line  class="poloto_axis_lines" stroke="black" x1="150" x2="150" y1="400" y2="405" /><text  class="poloto_tick_labels poloto_text" alignment-baseline="start" text-anchor="middle" x="150" y="430" > 00:00</text><line  class="poloto_axis_lines" stroke="black" x1="266.14401858304296" x2="266.14401858304296" y1="400" y2="405" /><text  class="poloto_tick_labels poloto_text" alignment-baseline="start" text-anchor="middle" x="266.14401858304296" y="430" > 06:00</text><line  class="poloto_axis_lines" stroke="black" x1="382.2880371660859" x2="382.2880371660859" y1="400" y2="405" /><text  class="poloto_tick_labels poloto_text" alignment-baseline="start" text-anchor="middle" x="382.2880371660859" y="430" > 11:00</text><line  class="poloto_axis_lines" stroke="black" x1="498.4320557491289" x2="498.4320557491289" y1="400" y2="405" /><text  class="poloto_tick_labels poloto_text" alignment-baseline="start" text-anchor="middle" x="498.4320557491289" y="430" > 17:00</text><line  class="poloto_axis_lines" stroke="black" x1="614.5760743321719" x2="614.5760743321719" y1="400" y2="405" /><text  class="poloto_tick_labels poloto_text" alignment-baseline="start" text-anchor="middle" x="614.5760743321719" y="430" > 22:00</text><line  class="poloto_axis_lines" stroke="black" x1="150" x2="144" y1="344.8423303046499" y2="344.8423303046499" /><text  class="poloto_tick_labels poloto_text" alignment-baseline="middle" text-anchor="end" x="135" y="344.8423303046499" > 1500</text><line  class="poloto_axis_lines" stroke="black" x1="150" x2="144" y1="264.6712987707109" y2="264.6712987707109" /><text  class="poloto_tick_labels poloto_text" alignment-baseline="middle" text-anchor="end" x="135" y="264.6712987707109" > 2000</text><line  class="poloto_axis_lines" stroke="black" x1="150" x2="144" y1="184.50026723677183" y2="184.50026723677183" /><text  class="poloto_tick_labels poloto_text" alignment-baseline="middle" text-anchor="end" x="135" y="184.50026723677183" > 2500</text><line  class="poloto_axis_lines" stroke="black" x1="150" x2="144" y1="104.32923570283276" y2="104.32923570283276" /><text  class="poloto_tick_labels poloto_text" alignment-baseline="middle" text-anchor="end" x="135" y="104.32923570283276" > 3000</text><path  stroke="black" fill="none" class="poloto_axis_lines" style="stroke-dasharray:14.518002322880372;stroke-dashoffset:-0;" d=" M 150 400 L 650 400" /><path  stroke="black" fill="none" class="poloto_axis_lines" style="stroke-dasharray:8.017103153393906;stroke-dashoffset:-55.15766969535008;" d=" M 150 400 L 150 100" /></svg>