<svg class="poloto" width="800" height="500" viewBox="0 0 800 500" xmlns="http://www.w3.org/2000/svg"><style>.poloto { stroke-linecap:round; stroke-linejoin:round; font-family: 'Tahoma', sans-serif; background-color: AliceBlue;} .poloto_scatter{stroke-width:7} .poloto_line{stroke-width:2} .poloto_text{fill: black;} .poloto_axis_lines{stroke: black;stroke-width:3;fill:none;stroke-dasharray:none} .poloto0stroke{stroke:  blue;} .poloto1stroke{stroke:  red;} .poloto2stroke{stroke:  green;} .poloto3stroke{stroke:  gold;} .poloto4stroke{stroke:  aqua;} .poloto5stroke{stroke:  lime;} .poloto6stroke{stroke:  orange;} .poloto7stroke{stroke:  chocolate;} .poloto0fill{fill:blue;} .poloto1fill{fill:red;} .poloto2fill{fill:green;} .poloto3fill{fill:gold;} .poloto4fill{fill:aqua;} .poloto5fill{fill:lime;} .poloto6fill{fill:orange;} .poloto7fill{fill:chocolate;}</style><text  class="poloto_text poloto_legend_text" alignment-baseline="middle" text-anchor="start" font-size="large" x="675" y="100" ></text><path  class="poloto_linefill poloto0fill" d=" M 150 400 L 150 370.1006229036895 L 151.74216027874564 371.9693339722089 L 153.4843205574913 373.98179204599904 L 155.22648083623693 372.1130809774796 L 156.96864111498257 379.01293723047434 L 158.71080139372822 375.41926209870627 L 160.45296167247386 376.2817441303306 L 162.1951219512195 379.15668423574505 L 163.93728222996515 384.3315764254911 L 165.6794425087108 387.06276952563485 L 167.42160278745644 382.31911835170104 L 169.16376306620208 381.16914230953523 L 170.90592334494772 382.46286535697175 L 172.64808362369337 379.58792525155724 L 174.390243902439 380.30666027791085 L 176.13240418118465 381.60038332534737 L 177.8745644599303 380.88164829899375 L 179.61672473867597 382.60661236224246 L 181.3588850174216 385.0503114518448 L 183.10104529616726 384.3315764254911 L 184.8432055749129 382.75035936751317 L 186.58536585365854 384.3315764254911 L 188.3275261324042 385.91279348346904 L 190.06968641114983 388.5002395783421 L 191.81184668989548 391.8064206995688 L 193.55400696864112 389.07522759942503 L 195.29616724738676 391.9501677048395 L 197.0383275261324 398.7062769525635 L 198.78048780487805 396.69381887877336 L 200.5226480836237 400 L 202.26480836236934 393.9626257786296 L 204.00696864111498 383.900335409679 L 205.74912891986062 384.6190704360326 L 207.49128919860627 382.46286535697175 L 209.2334494773519 380.5941542884523 L 210.97560975609755 377.4317201724964 L 212.7177700348432 376.7129851461428 L 214.45993031358887 376.8567321514135 L 216.2020905923345 376.8567321514135 L 217.94425087108016 379.15668423574505 L 219.6864111498258 375.70675610924775 L 221.42857142857144 376.4254911356013 L 223.1707317073171 373.26305701964543 L 224.91289198606273 373.26305701964543 L 226.65505226480838 374.12553905126975 L 228.39721254355402 372.1130809774796 L 230.13937282229966 371.9693339722089 L 231.8815331010453 369.3818878773359 L 233.62369337979095 365.50071873502634 L 235.3658536585366 360.03833253473886 L 237.10801393728224 357.59463344513654 L 238.85017421602788 358.4571154767609 L 240.59233449477352 358.0258744609487 L 242.33449477351917 352.70723526593196 L 244.0766550522648 349.1135601341639 L 245.81881533101046 350.6947771921418 L 247.5609756097561 342.788691902252 L 249.30313588850174 340.0574988021083 L 251.0452961672474 337.0388116914231 L 252.78745644599303 335.17010062290365 L 254.52961672473867 330.85769046478197 L 256.2717770034843 330.57019645424054 L 258.01393728222996 332.1514135122185 L 259.7560975609756 327.26401533301384 L 261.49825783972125 329.8514614278869 L 263.2404181184669 323.38284619070436 L 264.98257839721254 321.9453761379971 L 266.7247386759582 321.65788212745565 L 268.4668989547038 323.95783421178726 L 270.20905923344947 323.95783421178726 L 271.9512195121951 320.93914710110204 L 273.69337979094075 321.80162913272636 L 275.4355400696864 315.62050790608527 L 277.17770034843204 315.76425491135603 L 278.91986062717774 314.4705318639195 L 280.6620209059233 321.0828941063728 L 282.404181184669 317.34547196933397 L 284.1463414634146 320.50790608528985 L 285.8885017421603 314.61427886919023 L 287.6306620209059 318.2079540009583 L 289.3728222996516 317.20172496406326 L 291.1149825783972 315.04551988500236 L 292.8571428571429 312.7455678006708 L 294.5993031358885 311.1643507426928 L 296.3414634146342 306.99568758984185 L 298.08362369337976 304.9832295160517 L 299.82578397212546 301.53330138955437 L 301.56794425087105 299.80833732630566 L 303.31010452961675 299.80833732630566 L 305.05226480836234 301.6770483948251 L 306.79442508710804 301.6770483948251 L 308.5365853658536 297.3646382367034 L 310.2787456445993 300.81456636320075 L 312.0209059233449 296.7896502156205 L 313.7630662020906 297.79587925251553 L 315.5052264808362 289.746046957355 L 317.2473867595819 288.3085769046478 L 318.9895470383275 289.8897939626258 L 320.7317073170732 284.7149017728797 L 322.4738675958188 284.28366075706754 L 324.2160278745645 286.4398658361284 L 325.9581881533101 286.29611883085767 L 327.70034843205576 281.6962146621945 L 329.4425087108014 278.82127455678005 L 331.18466898954705 280.68998562529947 L 332.9268292682927 280.402491614758 L 334.66898954703834 273.35888835649257 L 336.411149825784 270.19645424053664 L 338.1533101045296 270.48394825107806 L 339.89547038327527 267.3215141351222 L 341.6376306620209 262.0028749401054 L 343.37979094076655 259.1279348346909 L 345.1219512195122 257.8342117872544 L 346.86411149825784 261.14039290848103 L 348.6062717770035 255.10301868711065 L 350.34843205574913 247.48442740776233 L 352.0905923344948 249.64063248682316 L 353.8327526132404 246.33445136559652 L 355.57491289198606 244.4657402970771 L 357.3170731707317 239.2908481073311 L 359.05923344947735 234.83469094393865 L 360.801393728223 238.7158600862482 L 362.54355400696863 229.94729276473407 L 364.2857142857143 228.79731672256827 L 366.0278745644599 227.21609966459027 L 367.77003484320556 230.8097747963584 L 369.5121951219512 218.59127934834692 L 371.25435540069685 214.4226161954959 L 372.9965156794425 220.60373742213704 L 374.73867595818814 216.1475802587446 L 376.4808362369338 212.84139913751795 L 378.2229965156795 212.41015812170576 L 379.96515679442507 214.85385721130808 L 381.70731707317077 218.73502635361763 L 383.44947735191636 216.7225682798275 L 385.19163763066206 215.5725922376617 L 386.93379790940764 221.1787254432199 L 388.67595818815334 211.40392908481073 L 390.41811846689893 209.9664590321035 L 392.16027874564463 211.11643507426925 L 393.9024390243902 208.52898897939622 L 395.6445993031359 199.47292764734067 L 397.3867595818815 190.56061332055577 L 399.1289198606272 185.96070915189267 L 400.8710801393728 189.26689027311926 L 402.6132404181185 189.98562529947293 L 404.3554006968641 191.71058936272158 L 406.0975609756098 189.55438428366074 L 407.8397212543554 183.66075706756106 L 409.58188153310107 194.58552946813603 L 411.3240418118467 182.65452803066603 L 413.06620209059236 185.38572113080977 L 414.808362369338 181.3608049832295 L 416.55052264808364 180.2108289410637 L 418.2926829268293 183.51701006229035 L 420.03484320557493 172.44849065644462 L 421.7770034843206 170.86727359846668 L 423.5191637630662 162.67369429803546 L 425.26132404181186 151.17393387637753 L 427.0034843205575 161.23622424532817 L 428.74564459930315 150.45519885002392 L 430.4878048780488 154.19262098706275 L 432.22996515679444 152.32390991854334 L 433.9721254355401 161.66746526114036 L 435.7142857142857 154.33636799233346 L 437.45644599303137 148.01149976042166 L 439.198606271777 150.7426928605654 L 440.94076655052265 152.0364159080019 L 442.6829268292683 152.32390991854334 L 444.42508710801394 154.04887398179204 L 446.1672473867596 148.01149976042166 L 447.9094076655052 141.54288452323908 L 449.65156794425087 145.28030666027786 L 451.3937282229965 145.28030666027786 L 453.13588850174216 134.4992812649736 L 454.8780487804878 129.18064206995683 L 456.62020905923345 133.2055582175371 L 458.3623693379791 135.21801629132722 L 460.10452961672473 125.73071394345948 L 461.8466898954704 122.28078581696212 L 463.588850174216 124.72448490656444 L 465.33101045296166 127.88691902252032 L 467.0731707317073 125.29947292764729 L 468.81533101045295 125.15572592237658 L 470.5574912891986 121.99329180642064 L 472.29965156794424 124.58073790129367 L 474.0418118466899 120.55582175371342 L 475.7839721254355 122.13703881169141 L 477.52613240418117 108.76856732151413 L 479.2682926829268 108.33732630570194 L 481.01045296167246 106.756109247724 L 482.7526132404181 108.48107331097265 L 484.49477351916374 99.99999999999994 L 486.2369337979094 102.15620507906084 L 487.97909407665503 115.38092956396741 L 489.7212543554007 117.24964063248677 L 491.4634146341463 119.98083373263051 L 493.20557491289196 114.94968854815522 L 494.9477351916376 108.33732630570194 L 496.68989547038325 104.88739817920458 L 498.4320557491289 106.1811212266411 L 500.17421602787454 111.21226641111639 L 501.91637630662024 123.43076185912793 L 503.6585365853659 130.90560613320554 L 505.4006968641115 123.71825586966935 L 507.14285714285717 111.49976042165787 L 508.8850174216028 117.96837565884039 L 510.62717770034845 125.44321993291805 L 512.3693379790941 129.32438907522754 L 514.1114982578397 131.33684714901773 L 515.8536585365854 143.5553425970292 L 517.5958188153311 155.48634403449927 L 519.3379790940767 171.29851461427887 L 521.0801393728223 167.70483948251075 L 522.822299651568 176.18591279348345 L 524.5644599303137 183.22951605174887 L 526.3066202090592 183.22951605174887 L 528.0487804878048 185.38572113080977 L 529.7909407665505 190.41686631528506 L 531.5331010452962 198.03545759463344 L 533.2752613240418 185.8169621466219 L 535.0174216027874 192.28557738380448 L 536.7595818815331 208.52898897939622 L 538.5017421602788 208.09774796358408 L 540.2439024390244 206.80402491614757 L 541.98606271777 209.67896502156202 L 543.7282229965157 207.37901293723047 L 545.4703832752614 207.37901293723047 L 547.212543554007 205.22280785816957 L 548.9547038327526 209.10397700047912 L 550.6968641114983 225.63488260661234 L 552.439024390244 219.74125539051266 L 554.1811846689895 218.016291327264 L 555.9233449477351 219.31001437470053 L 557.6655052264808 223.90991854336363 L 559.4076655052265 226.35361763296595 L 561.1498257839721 227.64734068040246 L 562.8919860627177 230.66602779108769 L 564.6341463414634 228.07858169621466 L 566.3763066202091 236.84714901772878 L 568.1184668989547 241.30330618112123 L 569.8606271777003 240.87206516530904 L 571.602787456446 243.8907522759942 L 573.3449477351917 243.7470052707235 L 575.0871080139373 249.06564446574026 L 576.8292682926829 252.3718255869669 L 578.5714285714286 253.9530426449449 L 580.3135888501743 245.18447532343072 L 582.0557491289198 251.50934355534258 L 583.7979094076654 254.24053665548632 L 585.5400696864111 264.01533301389554 L 587.2822299651568 263.58409199808335 L 589.0243902439024 263.72783900335406 L 590.766550522648 265.0215620507906 L 592.5087108013937 268.7589841878294 L 594.2508710801394 270.62769525634883 L 595.993031358885 277.2400574988021 L 597.7351916376306 281.6962146621945 L 599.4773519163763 273.646382367034 L 601.219512195122 280.68998562529947 L 602.9616724738676 279.1087685673215 L 604.7038327526133 274.5088643986583 L 606.445993031359 275.6588404408241 L 608.1881533101046 275.0838524197412 L 609.9303135888501 279.6837565884044 L 611.6724738675958 289.8897939626258 L 613.4146341463415 297.2208912314327 L 615.1567944250871 305.2707235265932 L 616.8989547038327 306.85194058457114 L 618.6411149825784 305.5582175371346 L 620.3832752613241 306.27695256348824 L 622.1254355400697 304.1207474844274 L 623.8675958188153 305.98945855294676 L 625.609756097561 308.14566363200765 L 627.3519163763067 314.18303785337804 L 629.0940766550523 320.0766650694777 L 630.8362369337979 318.9266890273119 L 632.5783972125436 327.5515093435553 L 634.3205574912893 323.38284619070436 L 636.0627177700349 325.6827982750359 L 637.8048780487804 328.55773838045036 L 639.5470383275261 332.1514135122185 L 641.2891986062718 337.61379971250597 L 643.0313588850174 343.6511739338764 L 644.773519163763 343.50742692860564 L 646.5156794425087 343.07618591279345 L 648.2578397212544 346.8136080498323 L 650 348.1073310972688 L 650 400 Z" /><text  class="poloto_labels poloto_text poloto_title" alignment-baseline="start" text-anchor="middle" font-size="x-large" x="400" y="37.5" >Total players on 2021-10-16</text><text  class="poloto_labels poloto_text poloto_xname" alignment-baseline="start" text-anchor="middle" font-size="x-large" x="400" y="481.25" >Time</text><text  class="poloto_labels poloto_text poloto_yname" alignment-baseline="start" text-anchor="middle" font-size="x-large" transform="rotate(-90,37.5,250)" x="37.5" y="250" >Count</text><line  class="poloto_axis_lines" stroke="black" x1="150" x2="150" y1="400" y2="405" /><text  class="poloto_tick_labels poloto_text" alignment-baseline="start" text-anchor="middle" x="150" y="430" > 00:00</text><line  class="poloto_axis_lines" stroke="black" x1="266.14401858304296" x2="266.14401858304296" y1="400" y2="405" /><text  class="poloto_tick_labels poloto_text" alignment-baseline="start" text-anchor="middle" x="266.14401858304296" y="430" > 06:00</text><line  class="poloto_axis_lines" stroke="black" x1="382.2880371660859" x2="382.2880371660859" y1="400" y2="405" /><text  class="poloto_tick_labels poloto_text" alignment-baseline="start" text-anchor="middle" x="382.2880371660859" y="430" > 11:00</text><line  class="poloto_axis_lines" stroke="black" x1="498.4320557491289" x2="498.4320557491289" y1="400" y2="405" /><text  class="poloto_tick_labels poloto_text" alignment-baseline="start" text-anchor="middle" x="498.4320557491289" y="430" > 17:00</text><line  class="poloto_axis_lines" stroke="black" x1="614.5760743321719" x2="614.5760743321719" y1="400" y2="405" /><text  class="poloto_tick_labels poloto_text" alignment-baseline="start" text-anchor="middle" x="614.5760743321719" y="430" > 22:00</text><line  class="poloto_axis_lines" stroke="black" x1="150" x2="144" y1="343.6511739338764" y2="343.6511739338764" /><text  class="poloto_tick_labels poloto_text" alignment-baseline="middle" text-anchor="end" x="135" y="343.6511739338764" > 1500</text><line  class="poloto_axis_lines" stroke="black" x1="150" x2="144" y1="271.7776712985146" y2="271.7776712985146" /><text  class="poloto_tick_labels poloto_text" alignment-baseline="middle" text-anchor="end" x="135" y="271.7776712985146" > 2000</text><line  class="poloto_axis_lines" stroke="black" x1="150" x2="144" y1="199.9041686631528" y2="199.9041686631528" /><text  class="poloto_tick_labels poloto_text" alignment-baseline="middle" text-anchor="end" x="135" y="199.9041686631528" > 2500</text><line  class="poloto_axis_lines" stroke="black" x1="150" x2="144" y1="128.03066602779109" y2="128.03066602779109" /><text  class="poloto_tick_labels poloto_text" alignment-baseline="middle" text-anchor="end" x="135" y="128.03066602779109" > 3000</text><path  stroke="black" fill="none" class="poloto_axis_lines" style="stroke-dasharray:14.518002322880372;stroke-dashoffset:-0;" d=" M 150 400 L 650 400" /><path  stroke="black" fill="none" class="poloto_axis_lines" style="stroke-dasharray:7.187350263536177;stroke-dashoffset:-56.34882606612362;" d=" M 150 400 L 150 100" /></svg>