<svg class="poloto" width="800" height="500" viewBox="0 0 800 500" xmlns="http://www.w3.org/2000/svg"><style>.poloto { stroke-linecap:round; stroke-linejoin:round; font-family: 'Tahoma', sans-serif; background-color: AliceBlue;} .poloto_scatter{stroke-width:7} .poloto_line{stroke-width:2} .poloto_text{fill: black;} .poloto_axis_lines{stroke: black;stroke-width:3;fill:none;stroke-dasharray:none} .poloto0stroke{stroke:  blue;} .poloto1stroke{stroke:  red;} .poloto2stroke{stroke:  green;} .poloto3stroke{stroke:  gold;} .poloto4stroke{stroke:  aqua;} .poloto5stroke{stroke:  lime;} .poloto6stroke{stroke:  orange;} .poloto7stroke{stroke:  chocolate;} .poloto0fill{fill:blue;} .poloto1fill{fill:red;} .poloto2fill{fill:green;} .poloto3fill{fill:gold;} .poloto4fill{fill:aqua;} .poloto5fill{fill:lime;} .poloto6fill{fill:orange;} .poloto7fill{fill:chocolate;}</style><text  class="poloto_text poloto_legend_text" alignment-baseline="middle" text-anchor="start" font-size="large" x="675" y="100" ></text><path  class="poloto_linefill poloto0fill" d=" M 150 400 L 150 377.33898754306915 L 151.74216027874564 378.77020938245425 L 153.4843205574913 381.4736284124039 L 155.22648083623693 380.28094354624966 L 156.96864111498257 385.2107076596873 L 158.71080139372822 384.7336337132256 L 160.45296167247386 386.9599787967135 L 162.1951219512195 386.6419294990724 L 163.93728222996515 385.8468062549695 L 165.6794425087108 385.05168301086667 L 167.42160278745644 389.2658362046117 L 169.16376306620208 389.5838855022528 L 170.90592334494772 392.3668168566128 L 172.64808362369337 392.2873045322025 L 174.390243902439 393.95706334481844 L 176.13240418118465 398.4892658362046 L 177.8745644599303 399.1253644314869 L 179.61672473867597 400 L 181.3588850174216 398.25072886297374 L 183.10104529616726 395.229260535383 L 184.8432055749129 394.8316989133316 L 186.58536585365854 394.7521865889213 L 188.3275261324042 396.5809700503578 L 190.06968641114983 398.33024118738405 L 191.81184668989548 395.5473098330241 L 193.55400696864112 391.7307182613305 L 195.29616724738676 391.17413199045853 L 197.0383275261324 389.1863238802014 L 198.78048780487805 385.8468062549695 L 200.5226480836237 382.0302146832759 L 202.26480836236934 382.58680095414786 L 204.00696864111498 384.01802279353296 L 205.74912891986062 382.4277763053273 L 207.49128919860627 375.7487410548635 L 209.2334494773519 376.38483965014575 L 210.97560975609755 376.30532732573545 L 212.7177700348432 376.30532732573545 L 214.45993031358887 374.7150808375298 L 216.2020905923345 373.04532202491384 L 217.94425087108016 372.17068645640074 L 219.6864111498258 372.09117413199044 L 221.42857142857144 370.9780015902465 L 223.1707317073171 370.26239067055394 L 224.91289198606273 368.83116883116884 L 226.65505226480838 369.38775510204084 L 228.39721254355402 368.67214418234823 L 230.13937282229966 366.84336072091173 L 231.8815331010453 365.41213888152663 L 233.62369337979095 362.3111582295256 L 235.3658536585366 361.4365226610125 L 237.10801393728224 358.2560296846011 L 238.85017421602788 356.42724622316456 L 240.59233449477352 357.6994434137291 L 242.33449477351917 355.63212297906176 L 244.0766550522648 352.61065465147095 L 245.81881533101046 353.3262655711635 L 247.5609756097561 352.5311423270607 L 249.30313588850174 352.21309302941955 L 251.0452961672474 351.9745560561887 L 252.78745644599303 348.79406307977735 L 254.52961672473867 350.38430956798305 L 256.2717770034843 351.497482109727 L 258.01393728222996 350.70235886562415 L 259.7560975609756 349.1916247018288 L 261.49825783972125 347.83991518685394 L 263.2404181184669 349.1121123774185 L 264.98257839721254 347.52186588921285 L 266.7247386759582 345.37503313013514 L 268.4668989547038 347.283328915982 L 270.20905923344947 350.22528491916245 L 271.9512195121951 348.6350384309568 L 273.69337979094075 348.2374768089054 L 275.4355400696864 346.96527961834084 L 277.17770034843204 346.72674264511 L 278.91986062717774 347.1243042671614 L 280.6620209059233 346.2496686986483 L 282.404181184669 349.35064935064935 L 284.1463414634146 350.6228465412139 L 285.8885017421603 350.78187119003445 L 287.6306620209059 350.38430956798305 L 289.3728222996516 348.1579644844951 L 291.1149825783972 346.170156374238 L 292.8571428571429 345.53405777895574 L 294.5993031358885 342.98966339782663 L 296.3414634146342 342.59210177577523 L 298.08362369337976 344.10283593957064 L 299.82578397212546 344.10283593957064 L 301.56794425087105 338.6164855552611 L 303.31010452961675 337.3442883646965 L 305.05226480836234 336.07209117413197 L 306.79442508710804 333.4481844685926 L 308.5365853658536 335.0384309567983 L 310.2787456445993 331.77842565597666 L 312.0209059233449 333.84574609064407 L 313.7630662020906 333.36867214418237 L 315.5052264808362 331.0628147362841 L 317.2473867595819 329.5520805724887 L 318.9895470383275 326.61012456930825 L 320.7317073170732 328.83646965279615 L 322.4738675958188 326.2125629472568 L 324.2160278745645 322.9525576464352 L 325.9581881533101 321.9188974291015 L 327.70034843205576 322.8730453220249 L 329.4425087108014 322.63450834879404 L 331.18466898954705 320.4876755897164 L 332.9268292682927 321.20328650940894 L 334.66898954703834 320.88523721176784 L 336.411149825784 318.976941425921 L 338.1533101045296 317.38669493771533 L 339.89547038327527 317.0686456400742 L 341.6376306620209 318.42035515504904 L 343.37979094076655 317.6252319109462 L 345.1219512195122 313.5701033660217 L 346.86411149825784 315.00132520540683 L 348.6062717770035 314.5242512589451 L 350.34843205574913 313.09302941956 L 352.0905923344948 314.3652266101246 L 353.8327526132404 310.1510734163795 L 355.57491289198606 308.2427776305327 L 357.3170731707317 309.1969255234561 L 359.05923344947735 307.9247283328916 L 360.801393728223 307.20911741319907 L 362.54355400696863 300.37105751391465 L 364.2857142857143 296.3954412934005 L 366.0278745644599 296.3159289689902 L 367.77003484320556 290.9090909090909 L 369.5121951219512 290.4320169626292 L 371.25435540069685 293.13543599257883 L 372.9965156794425 285.26371587596077 L 374.73867595818814 290.9090909090909 L 376.4808362369338 289.0007951232441 L 378.2229965156795 284.70712960508877 L 379.96515679442507 287.1720116618076 L 381.70731707317077 290.0344553405778 L 383.44947735191636 287.3310363106281 L 385.19163763066206 287.8081102570898 L 386.93379790940764 288.8417704744235 L 388.67595818815334 282.0832228995494 L 390.41811846689893 287.8081102570898 L 392.16027874564463 281.2880996554466 L 393.9024390243902 282.40127219719056 L 395.6445993031359 287.8876225815001 L 397.3867595818815 283.83249403657567 L 399.1289198606272 287.7285979326796 L 400.8710801393728 280.1749271137026 L 402.6132404181185 276.59687251523985 L 404.3554006968641 274.0524781341108 L 406.0975609756098 272.5417439703154 L 407.8397212543554 274.76808905380335 L 409.58188153310107 282.40127219719056 L 411.3240418118467 281.685661277498 L 413.06620209059236 277.94858203021465 L 414.808362369338 275.4041876490856 L 416.55052264808364 273.33686721441825 L 418.2926829268293 267.1349059104161 L 420.03484320557493 269.04320169626294 L 421.7770034843206 264.9880731513384 L 423.5191637630662 264.9085608269282 L 425.26132404181186 261.6485555261065 L 427.0034843205575 262.5231910946197 L 428.74564459930315 263.4773389875431 L 430.4878048780488 265.703684071031 L 432.22996515679444 261.9666048237477 L 433.9721254355401 259.66074741584947 L 435.7142857142857 255.4465942221044 L 437.45644599303137 253.935860058309 L 439.198606271777 254.73098330241186 L 440.94076655052265 252.5841505433342 L 442.6829268292683 249.6421945401537 L 444.42508710801394 249.00609594487145 L 446.1672473867596 247.57487410548634 L 447.9094076655052 243.1221839385105 L 449.65156794425087 237.63583355420087 L 451.3937282229965 234.21680360455866 L 453.13588850174216 234.61436522661012 L 454.8780487804878 230.47972435727536 L 456.62020905923345 224.9933739729658 L 458.3623693379791 227.4582560296846 L 460.10452961672473 221.41531937450304 L 461.8466898954704 220.38165915716934 L 463.588850174216 216.64457990988603 L 465.33101045296166 219.2684866154254 L 467.0731707317073 215.53140736814203 L 468.81533101045295 213.70262390670553 L 470.5574912891986 222.1309302941956 L 472.29965156794424 219.6660482374768 L 474.0418118466899 217.12165385634773 L 475.7839721254355 219.18897429101509 L 477.52613240418117 221.33580705009274 L 479.2682926829268 214.10018552875692 L 481.01045296167246 215.53140736814203 L 482.7526132404181 215.76994434137288 L 484.49477351916374 217.91677710045053 L 486.2369337979094 226.18605883912005 L 487.97909407665503 223.80068910681155 L 489.7212543554007 229.12801484230056 L 491.4634146341463 222.9260535382984 L 493.20557491289196 227.855817651736 L 494.9477351916376 231.83143387225016 L 496.68989547038325 234.21680360455866 L 498.4320557491289 233.89875430691757 L 500.17421602787454 233.89875430691757 L 501.91637630662024 235.48900079512322 L 503.6585365853659 235.01192684866152 L 505.4006968641115 236.12509939040552 L 507.14285714285717 238.66949377153458 L 508.8850174216028 243.5197455605619 L 510.62717770034845 243.1221839385105 L 512.3693379790941 241.92949907235624 L 514.1114982578397 242.6451099920488 L 515.8536585365854 249.3241452425126 L 517.5958188153311 180.62549695202756 L 519.3379790940767 101.3517095149748 L 521.0801393728223 100.71561091969255 L 522.822299651568 100 L 524.5644599303137 118.44685926318579 L 526.3066202090592 262.6822157434402 L 528.0487804878048 264.590511529287 L 529.7909407665505 263.4773389875431 L 531.5331010452962 275.3246753246753 L 533.2752613240418 292.10177577524513 L 535.0174216027874 284.1505433342168 L 536.7595818815331 287.09249933739727 L 538.5017421602788 291.0681155579115 L 540.2439024390244 289.39835674529553 L 541.98606271777 289.7164060429366 L 543.7282229965157 289.7164060429366 L 545.4703832752614 289.0007951232441 L 547.212543554007 290.75006626027033 L 548.9547038327526 307.3681420620196 L 550.6968641114983 293.45348529022 L 552.439024390244 293.77153458786114 L 554.1811846689895 290.1934799893983 L 555.9233449477351 289.6368937185264 L 557.6655052264808 292.73787437052744 L 559.4076655052265 295.3617810760668 L 561.1498257839721 295.3617810760668 L 562.8919860627177 297.58812615955475 L 564.6341463414634 298.7012987012987 L 566.3763066202091 302.438377948582 L 568.1184668989547 310.46912271402067 L 569.8606271777003 304.0286244367877 L 571.602787456446 307.9247283328916 L 573.3449477351917 309.51497482109727 L 575.0871080139373 310.6281473628412 L 576.8292682926829 313.1725417439703 L 578.5714285714286 318.976941425921 L 580.3135888501743 316.90962099125363 L 582.0557491289198 318.34084283063873 L 583.7979094076654 317.7047442353565 L 585.5400696864111 315.00132520540683 L 587.2822299651568 316.90962099125363 L 589.0243902439024 319.21547839915183 L 590.766550522648 321.5213358070501 L 592.5087108013937 323.9067055393586 L 594.2508710801394 323.66816856612775 L 595.993031358885 326.05353829843625 L 597.7351916376306 328.99549430161676 L 599.4773519163763 330.9833024118738 L 601.219512195122 330.188179167771 L 602.9616724738676 332.4940365756692 L 604.7038327526133 333.68672144182347 L 606.445993031359 335.11794328120857 L 608.1881533101046 336.3901404717731 L 609.9303135888501 336.4696527961834 L 611.6724738675958 334.958918632388 L 613.4146341463415 337.9008746355685 L 615.1567944250871 342.19454015372384 L 616.8989547038327 338.6959978796713 L 618.6411149825784 338.85502252849193 L 620.3832752613241 342.4330771269547 L 622.1254355400697 342.9101510734164 L 623.8675958188153 342.2740524781341 L 625.609756097561 347.6808905380334 L 627.3519163763067 350.78187119003445 L 629.0940766550523 350.30479724357275 L 630.8362369337979 353.16724092234296 L 632.5783972125436 353.9623641664458 L 634.3205574912893 356.50675854757486 L 636.0627177700349 357.6994434137291 L 637.8048780487804 358.41505433342166 L 639.5470383275261 356.824807845216 L 641.2891986062718 358.41505433342166 L 643.0313588850174 360.32335011926847 L 644.773519163763 362.5496952027564 L 646.5156794425087 365.3326265571163 L 648.2578397212544 369.0697058043997 L 650 366.6048237476809 L 650 400 Z" /><text  class="poloto_labels poloto_text poloto_title" alignment-baseline="start" text-anchor="middle" font-size="x-large" x="400" y="37.5" >Total players on 2021-08-27</text><text  class="poloto_labels poloto_text poloto_xname" alignment-baseline="start" text-anchor="middle" font-size="x-large" x="400" y="481.25" >Time</text><text  class="poloto_labels poloto_text poloto_yname" alignment-baseline="start" text-anchor="middle" font-size="x-large" transform="rotate(-90,37.5,250)" x="37.5" y="250" >Count</text><line  class="poloto_axis_lines" stroke="black" x1="150" x2="150" y1="400" y2="405" /><text  class="poloto_tick_labels poloto_text" alignment-baseline="start" text-anchor="middle" x="150" y="430" > 00:00:00</text><line  class="poloto_axis_lines" stroke="black" x1="266.14401858304296" x2="266.14401858304296" y1="400" y2="405" /><text  class="poloto_tick_labels poloto_text" alignment-baseline="start" text-anchor="middle" x="266.14401858304296" y="430" > 05:33:20</text><line  class="poloto_axis_lines" stroke="black" x1="382.2880371660859" x2="382.2880371660859" y1="400" y2="405" /><text  class="poloto_tick_labels poloto_text" alignment-baseline="start" text-anchor="middle" x="382.2880371660859" y="430" > 11:06:40</text><line  class="poloto_axis_lines" stroke="black" x1="498.4320557491289" x2="498.4320557491289" y1="400" y2="405" /><text  class="poloto_tick_labels poloto_text" alignment-baseline="start" text-anchor="middle" x="498.4320557491289" y="430" > 16:40:00</text><line  class="poloto_axis_lines" stroke="black" x1="614.5760743321719" x2="614.5760743321719" y1="400" y2="405" /><text  class="poloto_tick_labels poloto_text" alignment-baseline="start" text-anchor="middle" x="614.5760743321719" y="430" > 22:13:20</text><line  class="poloto_axis_lines" stroke="black" x1="150" x2="144" y1="372.806785051683" y2="372.806785051683" /><text  class="poloto_tick_labels poloto_text" alignment-baseline="middle" text-anchor="end" x="135" y="372.806785051683" > 1500</text><line  class="poloto_axis_lines" stroke="black" x1="150" x2="144" y1="333.0506228465412" y2="333.0506228465412" /><text  class="poloto_tick_labels poloto_text" alignment-baseline="middle" text-anchor="end" x="135" y="333.0506228465412" > 2000</text><line  class="poloto_axis_lines" stroke="black" x1="150" x2="144" y1="293.2944606413994" y2="293.2944606413994" /><text  class="poloto_tick_labels poloto_text" alignment-baseline="middle" text-anchor="end" x="135" y="293.2944606413994" > 2500</text><line  class="poloto_axis_lines" stroke="black" x1="150" x2="144" y1="253.5382984362576" y2="253.5382984362576" /><text  class="poloto_tick_labels poloto_text" alignment-baseline="middle" text-anchor="end" x="135" y="253.5382984362576" > 3000</text><line  class="poloto_axis_lines" stroke="black" x1="150" x2="144" y1="213.78213623111583" y2="213.78213623111583" /><text  class="poloto_tick_labels poloto_text" alignment-baseline="middle" text-anchor="end" x="135" y="213.78213623111583" > 3500</text><line  class="poloto_axis_lines" stroke="black" x1="150" x2="144" y1="174.025974025974" y2="174.025974025974" /><text  class="poloto_tick_labels poloto_text" alignment-baseline="middle" text-anchor="end" x="135" y="174.025974025974" > 4000</text><line  class="poloto_axis_lines" stroke="black" x1="150" x2="144" y1="134.26981182083222" y2="134.26981182083222" /><text  class="poloto_tick_labels poloto_text" alignment-baseline="middle" text-anchor="end" x="135" y="134.26981182083222" > 4500</text><path  stroke="black" fill="none" class="poloto_axis_lines" style="stroke-dasharray:14.518002322880372;stroke-dashoffset:-0;" d=" M 150 400 L 650 400" /><path  stroke="black" fill="none" class="poloto_axis_lines" style="stroke-dasharray:3.97561622051418;stroke-dashoffset:-27.193214948316992;" d=" M 150 400 L 150 100" /></svg>