<svg class="poloto" width="800" height="500" viewBox="0 0 800 500" xmlns="http://www.w3.org/2000/svg"><style>.poloto { stroke-linecap:round; stroke-linejoin:round; font-family: 'Tahoma', sans-serif; background-color: AliceBlue;} .poloto_scatter{stroke-width:7} .poloto_line{stroke-width:2} .poloto_text{fill: black;} .poloto_axis_lines{stroke: black;stroke-width:3;fill:none;stroke-dasharray:none} .poloto0stroke{stroke:  blue;} .poloto1stroke{stroke:  red;} .poloto2stroke{stroke:  green;} .poloto3stroke{stroke:  gold;} .poloto4stroke{stroke:  aqua;} .poloto5stroke{stroke:  lime;} .poloto6stroke{stroke:  orange;} .poloto7stroke{stroke:  chocolate;} .poloto0fill{fill:blue;} .poloto1fill{fill:red;} .poloto2fill{fill:green;} .poloto3fill{fill:gold;} .poloto4fill{fill:aqua;} .poloto5fill{fill:lime;} .poloto6fill{fill:orange;} .poloto7fill{fill:chocolate;}</style><text  class="poloto_text poloto_legend_text" alignment-baseline="middle" text-anchor="start" font-size="large" x="675" y="100" ></text><path  class="poloto_linefill poloto0fill" d=" M 150 400 L 150 357.0964247020585 L 151.74216027874564 362.6218851570965 L 153.4843205574913 372.04767063922 L 155.22648083623693 377.7356446370531 L 156.96864111498257 382.2860238353196 L 158.71080139372822 385.0487540628386 L 160.45296167247386 387.9739978331528 L 162.1951219512195 390.41170097508126 L 163.93728222996515 393.9869989165764 L 165.6794425087108 397.5622968580715 L 167.42160278745644 396.42470205850486 L 169.16376306620208 396.9122426868906 L 170.90592334494772 395.28710725893825 L 172.64808362369337 395.124593716143 L 174.390243902439 398.21235102925243 L 176.13240418118465 396.58721560130016 L 177.8745644599303 397.23726977248106 L 179.61672473867597 397.88732394366195 L 181.3588850174216 398.8624052004334 L 183.10104529616726 393.6619718309859 L 184.8432055749129 396.2621885157097 L 186.58536585365854 398.37486457204767 L 188.3275261324042 395.77464788732397 L 190.06968641114983 389.59913326110507 L 191.81184668989548 391.38678223185264 L 193.55400696864112 392.1993499458288 L 195.29616724738676 391.87432286023835 L 197.0383275261324 390.41170097508126 L 198.78048780487805 395.28710725893825 L 200.5226480836237 395.9371614301192 L 202.26480836236934 392.0368364030336 L 204.00696864111498 392.0368364030336 L 205.74912891986062 388.136511375948 L 207.49128919860627 389.76164680390036 L 209.2334494773519 390.41170097508126 L 210.97560975609755 387.1614301191766 L 212.7177700348432 386.5113759479957 L 214.45993031358887 387.32394366197184 L 216.2020905923345 385.6988082340195 L 217.94425087108016 388.78656554712893 L 219.6864111498258 389.1115926327194 L 221.42857142857144 383.09859154929575 L 223.1707317073171 382.12351029252443 L 224.91289198606273 387.8114842903575 L 226.65505226480838 388.6240520043337 L 228.39721254355402 389.76164680390036 L 230.13937282229966 386.5113759479957 L 231.8815331010453 387.1614301191766 L 233.62369337979095 384.8862405200433 L 235.3658536585366 388.29902491874327 L 237.10801393728224 393.6619718309859 L 238.85017421602788 392.1993499458288 L 240.59233449477352 388.94907908992417 L 242.33449477351917 390.249187432286 L 244.0766550522648 396.9122426868906 L 245.81881533101046 400 L 247.5609756097561 395.77464788732397 L 249.30313588850174 396.0996749729144 L 251.0452961672474 396.2621885157097 L 252.78745644599303 396.74972914409534 L 254.52961672473867 396.42470205850486 L 256.2717770034843 393.4994582881907 L 258.01393728222996 392.68689057421454 L 259.7560975609756 391.38678223185264 L 261.49825783972125 389.4366197183099 L 263.2404181184669 384.39869989165766 L 264.98257839721254 380.0108342361864 L 266.7247386759582 382.12351029252443 L 268.4668989547038 384.2361863488624 L 270.20905923344947 381.31094257854824 L 271.9512195121951 380.6608884073673 L 273.69337979094075 383.4236186348862 L 275.4355400696864 382.93607800650057 L 277.17770034843204 384.39869989165766 L 278.91986062717774 385.0487540628386 L 280.6620209059233 376.11050920910077 L 282.404181184669 377.4106175514626 L 284.1463414634146 375.4604550379198 L 285.8885017421603 374.97291440953416 L 287.6306620209059 376.9230769230769 L 289.3728222996516 368.3098591549296 L 291.1149825783972 367.9848320693391 L 292.8571428571429 365.2221018418202 L 294.5993031358885 370.9100758396533 L 296.3414634146342 367.9848320693391 L 298.08362369337976 369.60996749729145 L 299.82578397212546 370.9100758396533 L 301.56794425087105 368.63488624052 L 303.31010452961675 372.53521126760563 L 305.05226480836234 367.8223185265439 L 306.79442508710804 367.9848320693391 L 308.5365853658536 367.8223185265439 L 310.2787456445993 368.47237269772484 L 312.0209059233449 369.60996749729145 L 313.7630662020906 367.65980498374864 L 315.5052264808362 371.8851570964247 L 317.2473867595819 368.14734561213436 L 318.9895470383275 367.8223185265439 L 320.7317073170732 366.84723726977245 L 322.4738675958188 362.296858071506 L 324.2160278745645 360.9967497291441 L 325.9581881533101 364.08450704225356 L 327.70034843205576 361.32177681473456 L 329.4425087108014 358.88407367280604 L 331.18466898954705 354.1711809317443 L 332.9268292682927 353.0335861321777 L 334.66898954703834 352.22101841820154 L 336.411149825784 352.22101841820154 L 338.1533101045296 352.0585048754063 L 339.89547038327527 351.5709642470206 L 341.6376306620209 351.2459371614301 L 343.37979094076655 345.7204767063922 L 345.1219512195122 338.8949079089924 L 346.86411149825784 340.68255687974 L 348.6062717770035 335.4821235102925 L 350.34843205574913 337.10725893824485 L 352.0905923344948 337.10725893824485 L 353.8327526132404 340.84507042253523 L 355.57491289198606 345.8829902491874 L 357.3170731707317 338.56988082340195 L 359.05923344947735 335.4821235102925 L 360.801393728223 334.9945828819068 L 362.54355400696863 330.1191765980499 L 364.2857142857143 322.80606717226436 L 366.0278745644599 322.9685807150596 L 367.77003484320556 313.0552546045504 L 369.5121951219512 314.35536294691224 L 371.25435540069685 312.2426868905742 L 372.9965156794425 310.6175514626219 L 374.73867595818814 313.5427952329361 L 376.4808362369338 304.4420368364031 L 378.2229965156795 301.84182015167926 L 379.96515679442507 302.979414951246 L 381.70731707317077 297.94149512459376 L 383.44947735191636 300.216684723727 L 385.19163763066206 302.6543878656555 L 386.93379790940764 299.7291440953413 L 388.67595818815334 301.84182015167926 L 390.41811846689893 303.6294691224268 L 392.16027874564463 301.5167930660889 L 393.9024390243902 302.16684723726974 L 395.6445993031359 303.30444203683646 L 397.3867595818815 293.87865655471285 L 399.1289198606272 292.57854821235105 L 400.8710801393728 289.4907908992416 L 402.6132404181185 285.91549295774644 L 404.3554006968641 277.95232936078 L 406.0975609756098 282.6652221018418 L 407.8397212543554 275.8396533044421 L 409.58188153310107 287.5406283856988 L 411.3240418118467 283.9653304442037 L 413.06620209059236 277.95232936078 L 414.808362369338 277.95232936078 L 416.55052264808364 278.7648970747563 L 418.2926829268293 278.4398699891658 L 420.03484320557493 263.00108342361864 L 421.7770034843206 265.43878656554716 L 423.5191637630662 255.52546045503792 L 425.26132404181186 264.30119176598055 L 427.0034843205575 247.23726977248103 L 428.74564459930315 248.69989165763812 L 430.4878048780488 238.46153846153848 L 432.22996515679444 236.1863488624052 L 433.9721254355401 224.8104008667389 L 435.7142857142857 219.77248104008666 L 437.45644599303137 218.14734561213433 L 439.198606271777 208.07150595882987 L 440.94076655052265 202.2210184182015 L 442.6829268292683 198.32069339111595 L 444.42508710801394 200.75839653304442 L 446.1672473867596 192.63271939328277 L 447.9094076655052 185.64463705308773 L 449.65156794425087 184.99458288190684 L 451.3937282229965 180.2816901408451 L 453.13588850174216 175.4062838569881 L 454.8780487804878 177.51895991332609 L 456.62020905923345 170.36836403033587 L 458.3623693379791 160.45503791982665 L 460.10452961672473 152.65438786565548 L 461.8466898954704 146.9664138678223 L 463.588850174216 145.34127843986997 L 465.33101045296166 150.54171180931743 L 467.0731707317073 142.25352112676057 L 468.81533101045295 152.00433369447452 L 470.5574912891986 128.4398699891658 L 472.29965156794424 127.62730227518955 L 474.0418118466899 131.0400866738895 L 475.7839721254355 140.95341278439867 L 477.52613240418117 138.51570964247026 L 479.2682926829268 126.65222101841823 L 481.01045296167246 120.63921993499457 L 482.7526132404181 111.21343445287107 L 484.49477351916374 111.37594799566625 L 486.2369337979094 112.0260021668472 L 487.97909407665503 111.37594799566625 L 489.7212543554007 100 L 491.4634146341463 103.57529794149514 L 493.20557491289196 105.68797399783318 L 494.9477351916376 111.05092091007589 L 496.68989547038325 119.66413867822314 L 498.4320557491289 114.7887323943662 L 500.17421602787454 118.851570964247 L 501.91637630662024 117.87648970747557 L 503.6585365853659 126.81473456121341 L 505.4006968641115 137.37811484290353 L 507.14285714285717 140.465872156013 L 508.8850174216028 138.02816901408448 L 510.62717770034845 136.7280606717227 L 512.3693379790941 145.82881906825568 L 514.1114982578397 154.6045503791983 L 515.8536585365854 154.76706392199347 L 517.5958188153311 156.87973997833151 L 519.3379790940767 166.30552546045502 L 521.0801393728223 164.6803900325027 L 522.822299651568 159.1549295774648 L 524.5644599303137 159.31744312026004 L 526.3066202090592 159.1549295774648 L 528.0487804878048 166.14301191765978 L 529.7909407665505 177.84398699891656 L 531.5331010452962 182.23185265438784 L 533.2752613240418 197.50812567713976 L 535.0174216027874 194.74539544962082 L 536.7595818815331 200.10834236186346 L 538.5017421602788 210.34669555796316 L 540.2439024390244 204.33369447453956 L 541.98606271777 203.52112676056336 L 543.7282229965157 201.89599133261103 L 545.4703832752614 208.39653304442035 L 547.212543554007 218.30985915492957 L 548.9547038327526 211.646803900325 L 550.6968641114983 220.42253521126761 L 552.439024390244 221.397616468039 L 554.1811846689895 206.93391115926326 L 555.9233449477351 214.5720476706392 L 557.6655052264808 228.87323943661974 L 559.4076655052265 230.8234019501625 L 561.1498257839721 231.79848320693392 L 562.8919860627177 226.43553629469122 L 564.6341463414634 227.57313109425783 L 566.3763066202091 230.33586132177683 L 568.1184668989547 234.88624052004334 L 569.8606271777003 233.26110509209101 L 571.602787456446 234.39869989165763 L 573.3449477351917 239.43661971830986 L 575.0871080139373 236.34886240520044 L 576.8292682926829 237.48645720476705 L 578.5714285714286 235.69880823401948 L 580.3135888501743 240.89924160346695 L 582.0557491289198 245.77464788732394 L 583.7979094076654 248.69989165763812 L 585.5400696864111 244.9620801733478 L 587.2822299651568 250.9750812567714 L 589.0243902439024 255.20043336944744 L 590.766550522648 255.36294691224268 L 592.5087108013937 260.5633802816901 L 594.2508710801394 266.4138678223185 L 595.993031358885 274.70205850487537 L 597.7351916376306 279.4149512459371 L 599.4773519163763 281.2026002166847 L 601.219512195122 278.7648970747563 L 602.9616724738676 284.61538461538464 L 604.7038327526133 285.2654387865656 L 606.445993031359 283.477789815818 L 608.1881533101046 288.8407367280606 L 609.9303135888501 292.74106175514623 L 611.6724738675958 297.6164680390033 L 613.4146341463415 289.97833152762735 L 615.1567944250871 290.6283856988082 L 616.8989547038327 293.228602383532 L 618.6411149825784 292.90357529794153 L 620.3832752613241 298.7540628385699 L 622.1254355400697 305.2546045503792 L 623.8675958188153 316.1430119176598 L 625.609756097561 321.0184182015168 L 627.3519163763067 338.24485373781147 L 629.0940766550523 338.8949079089924 L 630.8362369337979 341.17009750812565 L 632.5783972125436 345.557963163597 L 634.3205574912893 344.0953412784399 L 636.0627177700349 344.9079089924161 L 637.8048780487804 347.5081256771398 L 639.5470383275261 351.2459371614301 L 641.2891986062718 352.22101841820154 L 643.0313588850174 356.28385698808233 L 644.773519163763 358.23401950162514 L 646.5156794425087 365.54712892741065 L 648.2578397212544 365.05958829902494 L 650 366.3596966413868 L 650 400 Z" /><text  class="poloto_labels poloto_text poloto_title" alignment-baseline="start" text-anchor="middle" font-size="x-large" x="400" y="37.5" >Total players on 2021-09-06</text><text  class="poloto_labels poloto_text poloto_xname" alignment-baseline="start" text-anchor="middle" font-size="x-large" x="400" y="481.25" >Time</text><text  class="poloto_labels poloto_text poloto_yname" alignment-baseline="start" text-anchor="middle" font-size="x-large" transform="rotate(-90,37.5,250)" x="37.5" y="250" >Count</text><line  class="poloto_axis_lines" stroke="black" x1="150" x2="150" y1="400" y2="405" /><text  class="poloto_tick_labels poloto_text" alignment-baseline="start" text-anchor="middle" x="150" y="430" > 00:00:00</text><line  class="poloto_axis_lines" stroke="black" x1="266.14401858304296" x2="266.14401858304296" y1="400" y2="405" /><text  class="poloto_tick_labels poloto_text" alignment-baseline="start" text-anchor="middle" x="266.14401858304296" y="430" > 05:33:20</text><line  class="poloto_axis_lines" stroke="black" x1="382.2880371660859" x2="382.2880371660859" y1="400" y2="405" /><text  class="poloto_tick_labels poloto_text" alignment-baseline="start" text-anchor="middle" x="382.2880371660859" y="430" > 11:06:40</text><line  class="poloto_axis_lines" stroke="black" x1="498.4320557491289" x2="498.4320557491289" y1="400" y2="405" /><text  class="poloto_tick_labels poloto_text" alignment-baseline="start" text-anchor="middle" x="498.4320557491289" y="430" > 16:40:00</text><line  class="poloto_axis_lines" stroke="black" x1="614.5760743321719" x2="614.5760743321719" y1="400" y2="405" /><text  class="poloto_tick_labels poloto_text" alignment-baseline="start" text-anchor="middle" x="614.5760743321719" y="430" > 22:13:20</text><line  class="poloto_axis_lines" stroke="black" x1="150" x2="144" y1="322.15601300108347" y2="322.15601300108347" /><text  class="poloto_tick_labels poloto_text" alignment-baseline="middle" text-anchor="end" x="135" y="322.15601300108347" > 1500</text><line  class="poloto_axis_lines" stroke="black" x1="150" x2="144" y1="240.89924160346698" y2="240.89924160346698" /><text  class="poloto_tick_labels poloto_text" alignment-baseline="middle" text-anchor="end" x="135" y="240.89924160346698" > 2000</text><line  class="poloto_axis_lines" stroke="black" x1="150" x2="144" y1="159.6424702058505" y2="159.6424702058505" /><text  class="poloto_tick_labels poloto_text" alignment-baseline="middle" text-anchor="end" x="135" y="159.6424702058505" > 2500</text><path  stroke="black" fill="none" class="poloto_axis_lines" style="stroke-dasharray:14.518002322880372;stroke-dashoffset:-0;" d=" M 150 400 L 650 400" /><path  stroke="black" fill="none" class="poloto_axis_lines" style="stroke-dasharray:8.125677139761647;stroke-dashoffset:-77.84398699891656;" d=" M 150 400 L 150 100" /></svg>