<svg class="poloto" width="800" height="500" viewBox="0 0 800 500" xmlns="http://www.w3.org/2000/svg"><style>.poloto { stroke-linecap:round; stroke-linejoin:round; font-family: 'Tahoma', sans-serif; background-color: AliceBlue;} .poloto_scatter{stroke-width:7} .poloto_line{stroke-width:2} .poloto_text{fill: black;} .poloto_axis_lines{stroke: black;stroke-width:3;fill:none;stroke-dasharray:none} .poloto0stroke{stroke:  blue;} .poloto1stroke{stroke:  red;} .poloto2stroke{stroke:  green;} .poloto3stroke{stroke:  gold;} .poloto4stroke{stroke:  aqua;} .poloto5stroke{stroke:  lime;} .poloto6stroke{stroke:  orange;} .poloto7stroke{stroke:  chocolate;} .poloto0fill{fill:blue;} .poloto1fill{fill:red;} .poloto2fill{fill:green;} .poloto3fill{fill:gold;} .poloto4fill{fill:aqua;} .poloto5fill{fill:lime;} .poloto6fill{fill:orange;} .poloto7fill{fill:chocolate;}</style><text  class="poloto_text poloto_legend_text" alignment-baseline="middle" text-anchor="start" font-size="large" x="675" y="100" ></text><path  class="poloto_linefill poloto0fill" d=" M 150 400 L 150 340.03331482509714 L 151.74216027874564 342.36535258189895 L 153.4843205574913 344.69739033870076 L 155.22648083623693 343.69794558578565 L 156.96864111498257 344.36424208772905 L 158.71080139372822 351.02720710716267 L 160.45296167247386 351.5269294836202 L 162.1951219512195 352.69294836202107 L 163.93728222996515 356.5241532481955 L 165.6794425087108 359.0227651304831 L 167.42160278745644 358.1898945030539 L 169.16376306620208 363.5202665186008 L 170.90592334494772 370.6829539144919 L 172.64808362369337 370.0166574125486 L 174.390243902439 375.34702942809554 L 176.13240418118465 377.34591893392565 L 177.8745644599303 375.34702942809554 L 179.61672473867597 379.51138256524155 L 181.3588850174216 379.84453081621325 L 183.10104529616726 378.34536368684064 L 184.8432055749129 380.67740144364245 L 186.58536585365854 383.50916157690176 L 188.3275261324042 386.6740699611327 L 190.06968641114983 386.84064408661857 L 191.81184668989548 386.6740699611327 L 193.55400696864112 384.6751804553026 L 195.29616724738676 385.67462520821766 L 197.0383275261324 375.34702942809554 L 198.78048780487805 379.3448084397557 L 200.5226480836237 374.847307051638 L 202.26480836236934 371.5158245419211 L 204.00696864111498 368.68406440866187 L 205.74912891986062 385.8411993337035 L 207.49128919860627 391.1715713492504 L 209.2334494773519 384.00888395335926 L 210.97560975609755 380.67740144364245 L 212.7177700348432 379.67795669072734 L 214.45993031358887 384.34203220433096 L 216.2020905923345 380.01110494169905 L 217.94425087108016 384.50860632981676 L 219.6864111498258 387.00721821210436 L 221.42857142857144 389.83897834536367 L 223.1707317073171 387.00721821210436 L 224.91289198606273 388.3398112159911 L 226.65505226480838 385.8411993337035 L 228.39721254355402 386.17434758467516 L 230.13937282229966 390.3387007218212 L 231.8815331010453 388.50638534147697 L 233.62369337979095 390.1721265963354 L 235.3658536585366 392.00444197667963 L 237.10801393728224 391.0049972237646 L 238.85017421602788 395.5024986118823 L 240.59233449477352 400 L 242.33449477351917 399.33370349805665 L 244.0766550522648 397.5013881177124 L 245.81881533101046 393.8367573570239 L 247.5609756097561 387.67351471404777 L 249.30313588850174 391.0049972237646 L 251.0452961672474 384.34203220433096 L 252.78745644599303 387.34036646307607 L 254.52961672473867 388.0066629650195 L 256.2717770034843 387.67351471404777 L 258.01393728222996 386.6740699611327 L 259.7560975609756 386.00777345918937 L 261.49825783972125 380.84397556912825 L 263.2404181184669 377.51249305941144 L 264.98257839721254 378.17878956135485 L 266.7247386759582 375.51360355358133 L 268.4668989547038 376.34647418101054 L 270.20905923344947 387.67351471404777 L 271.9512195121951 377.34591893392565 L 273.69337979094075 385.00832870627426 L 275.4355400696864 377.01277068295394 L 277.17770034843204 368.517490283176 L 278.9198606271777 361.188228761799 L 280.6620209059233 359.8556357579123 L 282.40418118466897 358.6896168795114 L 284.1463414634146 357.1904497501388 L 285.88850174216026 356.85730149916714 L 287.6306620209059 359.0227651304831 L 289.37282229965155 354.0255413659078 L 291.1149825783972 353.3592448639645 L 292.85714285714283 355.5247084952804 L 294.5993031358885 354.0255413659078 L 296.3414634146342 351.86007773459187 L 298.08362369337976 351.02720710716267 L 299.82578397212546 351.5269294836202 L 301.56794425087105 355.5247084952804 L 303.31010452961675 350.52748473070517 L 305.05226480836234 345.3636868406441 L 306.79442508710804 344.1976679622432 L 308.5365853658536 348.02887284841756 L 310.2787456445993 348.02887284841756 L 312.0209059233449 349.69461410327597 L 313.7630662020906 347.0294280955025 L 315.5052264808362 348.52859522487506 L 317.2473867595819 348.52859522487506 L 318.9895470383275 347.69572459744586 L 320.7317073170732 350.3609106052193 L 322.4738675958188 349.19489172681847 L 324.2160278745645 343.364797334814 L 325.95818815331006 345.8634092171016 L 327.70034843205576 344.1976679622432 L 329.44250871080135 343.19822320932815 L 331.18466898954705 342.03220433092724 L 332.92682926829264 340.19988895058304 L 334.66898954703834 339.03387007218214 L 336.4111498257839 332.2043309272626 L 338.1533101045296 334.7029428095502 L 339.8954703832752 335.5358134369794 L 341.6376306620209 333.3703498056635 L 343.3797909407665 328.5397001665741 L 345.1219512195122 325.8745141588007 L 346.86411149825784 325.541365907829 L 348.6062717770035 322.87617990005555 L 350.34843205574913 321.71016102165464 L 352.0905923344948 316.3797890061077 L 353.8327526132404 310.88284286507496 L 355.57491289198606 309.0505274847307 L 357.3170731707317 303.38700721821215 L 359.05923344947735 300.55524708495284 L 360.801393728223 301.88784008883954 L 362.54355400696863 298.88950583009444 L 364.2857142857143 298.05663520266523 L 366.0278745644599 302.8872848417546 L 367.77003484320556 301.2215435868962 L 369.5121951219512 301.72126596335374 L 371.25435540069685 295.2248750694059 L 372.9965156794425 294.5585785674625 L 374.73867595818814 290.893947806774 L 376.4808362369338 291.3936701832315 L 378.2229965156794 286.729594669628 L 379.96515679442507 278.400888395336 L 381.7073170731707 281.8989450305386 L 383.44947735191636 277.5680177679068 L 385.191637630662 271.90449750138816 L 386.93379790940764 265.74125485841205 L 388.6759581881533 266.07440310938364 L 390.41811846689893 266.57412548584125 L 392.1602787456446 262.90949472515274 L 393.9024390243902 256.246529705719 L 395.6445993031359 255.74680732926154 L 397.3867595818815 260.2443087173792 L 399.1289198606272 248.41754580788452 L 400.8710801393728 246.25208217656856 L 402.6132404181185 251.58245419211548 L 404.3554006968641 257.4125485841199 L 406.0975609756097 253.74791782343144 L 407.83972125435537 248.25097168239867 L 409.581881533101 254.4142143253748 L 411.32404181184666 251.91560244308718 L 413.0662020905923 257.9122709605774 L 414.80836236933794 253.24819544697394 L 416.5505226480836 239.7556912826208 L 418.29268292682923 237.25707940033314 L 420.0348432055749 234.25874514158804 L 421.7770034843206 225.2637423653526 L 423.5191637630662 219.76679622431985 L 425.26132404181186 219.600222098834 L 427.0034843205575 213.77012770682953 L 428.74564459930315 210.10549694614107 L 430.4878048780488 203.7756801776791 L 432.22996515679444 203.4425319267074 L 433.9721254355401 332.2043309272626 L 435.7142857142857 326.20766240977235 L 437.45644599303137 196.94614103275958 L 439.198606271777 191.28262076624097 L 440.94076655052265 184.7862298722932 L 442.6829268292683 308.38423098278736 L 444.42508710801394 323.2093281510272 L 446.1672473867596 167.7956690727374 L 447.9094076655052 166.46307606885065 L 449.65156794425087 168.6285397001666 L 451.3937282229965 169.9611327040533 L 453.13588850174216 318.37867851193784 L 454.8780487804878 321.8767351471405 L 456.62020905923345 290.7273736812882 L 458.3623693379791 285.2304275402554 L 460.10452961672473 290.5607995558023 L 461.8466898954704 218.93392559689065 L 463.588850174216 154.13659078289842 L 465.33101045296166 149.47251526929486 L 467.0731707317073 151.30483064963911 L 468.81533101045295 149.47251526929486 L 470.5574912891986 149.13936701832316 L 472.29965156794424 296.7240421987784 L 474.0418118466899 296.0577456968351 L 475.7839721254355 147.47362576346475 L 477.52613240418117 139.9777901166019 L 479.2682926829268 141.6435313714603 L 481.01045296167246 136.9794558578568 L 482.7526132404181 131.98223209328148 L 484.49477351916374 138.4786229872293 L 486.2369337979094 139.6446418656302 L 487.97909407665503 131.3159355913382 L 489.7212543554007 130.98278734036649 L 491.4634146341463 125.31926707384787 L 493.20557491289196 134.8139922265408 L 494.9477351916376 120.65519156024436 L 496.68989547038325 107.16268739589123 L 498.4320557491289 106.99611327040532 L 500.17421602787454 105.33037201554691 L 501.9163763066202 100 L 503.6585365853658 100.4997223764575 L 505.40069686411147 110.32759578012212 L 507.1428571428571 105.83009439200441 L 508.88501742160275 112.99278178789564 L 510.6271777003484 111.16046640755133 L 512.3693379790941 114.65852304275404 L 514.1114982578397 117.65685730149914 L 515.8536585365853 121.32148806218765 L 517.595818815331 124.48639644641867 L 519.3379790940767 129.15047196002217 L 521.0801393728223 126.98500832870627 L 522.822299651568 126.81843420322048 L 524.5644599303137 134.4808439755692 L 526.3066202090592 132.6485285952249 L 528.0487804878048 145.80788450860635 L 529.7909407665505 145.80788450860635 L 531.5331010452962 154.63631315935592 L 533.2752613240418 156.13548028872853 L 535.0174216027874 156.30205441421433 L 536.7595818815331 168.46196557468076 L 538.5017421602788 173.95891171571353 L 540.2439024390244 195.78012215435868 L 541.98606271777 182.28761799000554 L 543.7282229965157 178.2898389783454 L 545.4703832752614 184.7862298722932 L 547.212543554007 187.11826762909496 L 548.9547038327526 198.9450305385897 L 550.6968641114983 209.10605219322602 L 552.439024390244 196.4464186563021 L 554.1811846689895 195.11382565241533 L 555.9233449477351 197.11271515824544 L 557.6655052264808 199.11160466407554 L 559.4076655052265 196.61299278178794 L 561.1498257839721 194.78067740144368 L 562.8919860627177 189.78345363686842 L 564.6341463414634 188.11771238201 L 566.3763066202091 188.11771238201 L 568.1184668989547 185.2859522487507 L 569.8606271777003 187.6179900055525 L 571.602787456446 194.11438089950028 L 573.3449477351917 200.2776235424764 L 575.0871080139373 205.27484730705166 L 576.8292682926829 207.44031093836762 L 578.5714285714286 210.43864519711272 L 580.3135888501743 220.26651860077735 L 582.0557491289198 210.60521932259857 L 583.7979094076654 223.93114936146586 L 585.5400696864111 226.5963353692393 L 587.2822299651568 225.43031649083846 L 589.0243902439024 225.59689061632426 L 590.766550522648 226.42976124375346 L 592.5087108013937 229.76124375347032 L 594.2508710801394 233.92559689061633 L 595.993031358885 240.58856191005 L 597.7351916376306 241.25485841199335 L 599.4773519163763 243.5868961687951 L 601.219512195122 248.25097168239867 L 602.9616724738676 250.91615769017213 L 604.7038327526132 251.41588006662968 L 606.4459930313589 252.24875069405888 L 608.1881533101046 257.2459744586341 L 609.9303135888501 250.41643531371463 L 611.6724738675957 242.42087729039426 L 613.4146341463414 245.75235980011107 L 615.1567944250871 247.91782343142702 L 616.8989547038327 257.4125485841199 L 618.6411149825783 258.0788450860633 L 620.383275261324 262.90949472515274 L 622.1254355400697 259.9111604664075 L 623.8675958188153 259.24486396446423 L 625.609756097561 249.75013881177128 L 627.3519163763067 254.4142143253748 L 629.0940766550523 257.0794003331482 L 630.8362369337979 263.24264297612444 L 632.5783972125436 271.90449750138816 L 634.3205574912893 277.7345918933926 L 636.0627177700349 290.0610771793448 L 637.8048780487804 284.8972792892837 L 639.5470383275261 288.0621876735147 L 641.2891986062718 289.894503053859 L 643.0313588850174 292.7262631871183 L 644.773519163763 294.5585785674625 L 646.5156794425087 298.88950583009444 L 648.2578397212544 300.55524708495284 L 650 302.22098833981124 L 650 400 Z" /><text  class="poloto_labels poloto_text poloto_title" alignment-baseline="start" text-anchor="middle" font-size="x-large" x="400" y="37.5" >Total players on 2021-05-21</text><text  class="poloto_labels poloto_text poloto_xname" alignment-baseline="start" text-anchor="middle" font-size="x-large" x="400" y="481.25" >Time</text><text  class="poloto_labels poloto_text poloto_yname" alignment-baseline="start" text-anchor="middle" font-size="x-large" transform="rotate(-90,37.5,250)" x="37.5" y="250" >Count</text><line  class="poloto_axis_lines" stroke="black" x1="208.0487804878049" x2="208.0487804878049" y1="400" y2="405" /><text  class="poloto_tick_labels poloto_text" alignment-baseline="start" text-anchor="middle" x="208.0487804878049" y="430" > 03:00</text><line  class="poloto_axis_lines" stroke="black" x1="266.1207897793264" x2="266.1207897793264" y1="400" y2="405" /><text  class="poloto_tick_labels poloto_text" alignment-baseline="start" text-anchor="middle" x="266.1207897793264" y="430" > 06:00</text><line  class="poloto_axis_lines" stroke="black" x1="324.19279907084785" x2="324.19279907084785" y1="400" y2="405" /><text  class="poloto_tick_labels poloto_text" alignment-baseline="start" text-anchor="middle" x="324.19279907084785" y="430" > 08:00</text><line  class="poloto_axis_lines" stroke="black" x1="382.2648083623693" x2="382.2648083623693" y1="400" y2="405" /><text  class="poloto_tick_labels poloto_text" alignment-baseline="start" text-anchor="middle" x="382.2648083623693" y="430" > 11:00</text><line  class="poloto_axis_lines" stroke="black" x1="440.3368176538908" x2="440.3368176538908" y1="400" y2="405" /><text  class="poloto_tick_labels poloto_text" alignment-baseline="start" text-anchor="middle" x="440.3368176538908" y="430" > 14:00</text><line  class="poloto_axis_lines" stroke="black" x1="498.4088269454123" x2="498.4088269454123" y1="400" y2="405" /><text  class="poloto_tick_labels poloto_text" alignment-baseline="start" text-anchor="middle" x="498.4088269454123" y="430" > 17:00</text><line  class="poloto_axis_lines" stroke="black" x1="556.4808362369338" x2="556.4808362369338" y1="400" y2="405" /><text  class="poloto_tick_labels poloto_text" alignment-baseline="start" text-anchor="middle" x="556.4808362369338" y="430" > 19:00</text><line  class="poloto_axis_lines" stroke="black" x1="614.5528455284552" x2="614.5528455284552" y1="400" y2="405" /><text  class="poloto_tick_labels poloto_text" alignment-baseline="start" text-anchor="middle" x="614.5528455284552" y="430" > 22:00</text><line  class="poloto_axis_lines" stroke="black" x1="150" x2="144" y1="389.6724042198779" y2="389.6724042198779" /><text  class="poloto_tick_labels poloto_text" alignment-baseline="middle" text-anchor="end" x="135" y="389.6724042198779" > 1000</text><line  class="poloto_axis_lines" stroke="black" x1="150" x2="144" y1="306.38534147695725" y2="306.38534147695725" /><text  class="poloto_tick_labels poloto_text" alignment-baseline="middle" text-anchor="end" x="135" y="306.38534147695725" > 1500</text><line  class="poloto_axis_lines" stroke="black" x1="150" x2="144" y1="223.09827873403663" y2="223.09827873403663" /><text  class="poloto_tick_labels poloto_text" alignment-baseline="middle" text-anchor="end" x="135" y="223.09827873403663" > 2000</text><line  class="poloto_axis_lines" stroke="black" x1="150" x2="144" y1="139.81121599111611" y2="139.81121599111611" /><text  class="poloto_tick_labels poloto_text" alignment-baseline="middle" text-anchor="end" x="135" y="139.81121599111611" > 2500</text><path  stroke="black" fill="none" class="poloto_axis_lines" style="stroke-dasharray:14.518002322880372;stroke-dashoffset:-58.04878048780488;" d=" M 150 400 L 650 400" /><path  stroke="black" fill="none" class="poloto_axis_lines" style="stroke-dasharray:8.32870627429206;stroke-dashoffset:-10.327595780122152;" d=" M 150 400 L 150 100" /></svg>