<svg class="poloto" width="800" height="500" viewBox="0 0 800 500" xmlns="http://www.w3.org/2000/svg"><style>.poloto { stroke-linecap:round; stroke-linejoin:round; font-family: 'Tahoma', sans-serif; background-color: AliceBlue;} .poloto_scatter{stroke-width:7} .poloto_line{stroke-width:2} .poloto_text{fill: black;} .poloto_axis_lines{stroke: black;stroke-width:3;fill:none;stroke-dasharray:none} .poloto0stroke{stroke:  blue;} .poloto1stroke{stroke:  red;} .poloto2stroke{stroke:  green;} .poloto3stroke{stroke:  gold;} .poloto4stroke{stroke:  aqua;} .poloto5stroke{stroke:  lime;} .poloto6stroke{stroke:  orange;} .poloto7stroke{stroke:  chocolate;} .poloto0fill{fill:blue;} .poloto1fill{fill:red;} .poloto2fill{fill:green;} .poloto3fill{fill:gold;} .poloto4fill{fill:aqua;} .poloto5fill{fill:lime;} .poloto6fill{fill:orange;} .poloto7fill{fill:chocolate;}</style><text  class="poloto_text poloto_legend_text" alignment-baseline="middle" text-anchor="start" font-size="large" x="675" y="100" ></text><path  class="poloto_linefill poloto0fill" d=" M 150 400 L 150 337.52941176470586 L 151.74216027874564 332.94117647058823 L 153.4843205574913 339.11764705882354 L 155.22648083623693 344.94117647058823 L 156.96864111498257 350.4117647058823 L 158.71080139372822 356.0588235294117 L 160.45296167247386 353.4117647058823 L 162.1951219512195 356.4117647058823 L 163.93728222996515 356.4117647058823 L 165.6794425087108 358.70588235294116 L 167.42160278745644 358.17647058823525 L 169.16376306620208 358.17647058823525 L 170.90592334494772 360.8235294117647 L 172.64808362369337 366.8235294117647 L 174.390243902439 368.4117647058823 L 176.13240418118465 373.3529411764706 L 177.8745644599303 374.94117647058823 L 179.61672473867597 378.11764705882354 L 181.3588850174216 376.52941176470586 L 183.10104529616726 375.8235294117647 L 184.8432055749129 375.6470588235294 L 186.58536585365854 376.3529411764706 L 188.3275261324042 375.2941176470588 L 190.06968641114983 371.94117647058823 L 191.81184668989548 377.94117647058823 L 193.55400696864112 380.0588235294117 L 195.29616724738676 383.5882352941176 L 197.0383275261324 382.52941176470586 L 198.78048780487805 383.7647058823529 L 200.5226480836237 382.52941176470586 L 202.26480836236934 374.4117647058823 L 204.00696864111498 374.0588235294117 L 205.74912891986062 375.8235294117647 L 207.49128919860627 377.94117647058823 L 209.2334494773519 377.0588235294117 L 210.97560975609755 382.70588235294116 L 212.7177700348432 386.7647058823529 L 214.45993031358887 393.11764705882354 L 216.2020905923345 396.6470588235294 L 217.94425087108016 398.2352941176471 L 219.6864111498258 400 L 221.42857142857144 389.05882352941177 L 223.1707317073171 383.94117647058823 L 224.91289198606273 386.2352941176471 L 226.65505226480838 384.47058823529414 L 228.39721254355402 385.3529411764706 L 230.13937282229966 386.05882352941177 L 231.8815331010453 384.8235294117647 L 233.62369337979095 386.5882352941176 L 235.3658536585366 386.05882352941177 L 237.10801393728224 387.47058823529414 L 238.85017421602788 384.8235294117647 L 240.59233449477352 384.11764705882354 L 242.33449477351917 383.7647058823529 L 244.0766550522648 378.8235294117647 L 245.81881533101046 375.47058823529414 L 247.5609756097561 373.70588235294116 L 249.30313588850174 368.2352941176471 L 251.0452961672474 370.52941176470586 L 252.78745644599303 363.8235294117647 L 254.52961672473867 364.52941176470586 L 256.2717770034843 368.2352941176471 L 258.01393728222996 374.4117647058823 L 259.7560975609756 373.52941176470586 L 261.49825783972125 372.6470588235294 L 263.2404181184669 377.5882352941176 L 264.98257839721254 378.11764705882354 L 266.7247386759582 375.11764705882354 L 268.4668989547038 383.2352941176471 L 270.20905923344947 380.2352941176471 L 271.9512195121951 379.88235294117646 L 273.69337979094075 378.6470588235294 L 275.4355400696864 375.47058823529414 L 277.17770034843204 375.6470588235294 L 278.9198606271777 372.8235294117647 L 280.6620209059233 366.8235294117647 L 282.40418118466897 365.4117647058823 L 284.1463414634146 358.52941176470586 L 285.88850174216026 356.5882352941176 L 287.6306620209059 356.5882352941176 L 289.37282229965155 358.52941176470586 L 291.1149825783972 356.2352941176471 L 292.85714285714283 357.11764705882354 L 294.5993031358885 358.17647058823525 L 296.3414634146342 359.4117647058823 L 298.08362369337976 359.0588235294117 L 299.82578397212546 355.3529411764706 L 301.56794425087105 354.47058823529414 L 303.31010452961675 355.3529411764706 L 305.05226480836234 356.5882352941176 L 306.79442508710804 355 L 308.5365853658536 353.94117647058823 L 310.2787456445993 352.88235294117646 L 312.0209059233449 356.0588235294117 L 313.7630662020906 351.2941176470588 L 315.5052264808362 353.7647058823529 L 317.2473867595819 350.94117647058823 L 318.9895470383275 349.52941176470586 L 320.7317073170732 353.5882352941176 L 322.4738675958188 356.94117647058823 L 324.2160278745645 364.17647058823525 L 325.95818815331006 357.8235294117647 L 327.70034843205576 350.94117647058823 L 329.44250871080135 358 L 331.18466898954705 353.0588235294117 L 332.92682926829264 344.0588235294117 L 334.66898954703834 335.5882352941176 L 336.4111498257839 331.88235294117646 L 338.1533101045296 334 L 339.8954703832752 340.17647058823525 L 341.6376306620209 338.0588235294117 L 343.3797909407665 334.3529411764706 L 345.1219512195122 332.0588235294117 L 346.86411149825784 331.70588235294116 L 348.6062717770035 326.94117647058823 L 350.34843205574913 320.4117647058823 L 352.0905923344948 327.6470588235294 L 353.8327526132404 333.2941176470588 L 355.57491289198606 327.47058823529414 L 357.3170731707317 325.52941176470586 L 359.05923344947735 322.70588235294116 L 360.801393728223 320.94117647058823 L 362.54355400696863 318.8235294117647 L 364.2857142857143 316.88235294117646 L 366.0278745644599 312.11764705882354 L 367.77003484320556 296.0588235294117 L 369.5121951219512 292.17647058823525 L 371.25435540069685 289.52941176470586 L 372.9965156794425 286 L 374.73867595818814 286 L 376.4808362369338 280.52941176470586 L 378.2229965156794 271.7058823529411 L 379.96515679442507 275.0588235294117 L 381.7073170731707 261.11764705882354 L 383.44947735191636 259 L 385.191637630662 262.3529411764706 L 386.93379790940764 259.3529411764706 L 388.6759581881533 257.5882352941177 L 390.41811846689893 251.41176470588235 L 392.1602787456446 251.58823529411765 L 393.9024390243902 357.11764705882354 L 395.6445993031359 274.7058823529411 L 397.3867595818815 258.6470588235294 L 399.1289198606272 255.47058823529412 L 400.8710801393728 256.88235294117646 L 402.6132404181185 251.05882352941174 L 404.3554006968641 248.23529411764704 L 406.0975609756097 248.41176470588235 L 407.83972125435537 248.41176470588235 L 409.581881533101 234.1176470588235 L 411.32404181184666 225.82352941176467 L 413.0662020905923 227.23529411764704 L 414.80836236933794 230.9411764705882 L 416.5505226480836 218.58823529411765 L 418.29268292682923 209.23529411764704 L 420.0348432055749 209.05882352941174 L 421.7770034843206 201.64705882352936 L 423.5191637630662 204.47058823529412 L 425.26132404181186 191.23529411764704 L 427.0034843205575 186.99999999999997 L 428.74564459930315 189.2941176470588 L 430.4878048780488 181.70588235294113 L 432.22996515679444 180.64705882352936 L 433.9721254355401 181.17647058823528 L 435.7142857142857 169.70588235294113 L 437.45644599303137 170.5882352941176 L 439.198606271777 172.70588235294113 L 440.94076655052265 177.2941176470588 L 442.6829268292683 174.2941176470588 L 444.42508710801394 169.52941176470588 L 446.1672473867596 166.88235294117644 L 447.9094076655052 163.17647058823528 L 449.65156794425087 155.9411764705882 L 451.3937282229965 157.17647058823528 L 453.13588850174216 147.1176470588235 L 454.8780487804878 143.58823529411757 L 456.62020905923345 140.23529411764707 L 458.3623693379791 137.41176470588232 L 460.10452961672473 134.58823529411757 L 461.8466898954704 134.23529411764707 L 463.588850174216 141.6470588235294 L 465.33101045296166 126.82352941176464 L 467.0731707317073 135.6470588235294 L 468.81533101045295 135.47058823529414 L 470.5574912891986 140.76470588235293 L 472.29965156794424 139.17647058823525 L 474.0418118466899 134.23529411764707 L 475.7839721254355 138.47058823529414 L 477.52613240418117 124.88235294117646 L 479.2682926829268 111.64705882352939 L 481.01045296167246 112.35294117647061 L 482.7526132404181 120.82352941176464 L 484.49477351916374 114.82352941176464 L 486.2369337979094 113.94117647058818 L 487.97909407665503 112.52941176470586 L 489.7212543554007 109.52941176470586 L 491.4634146341463 110.58823529411757 L 493.20557491289196 106.52941176470586 L 494.9477351916376 100 L 496.68989547038325 106.7058823529411 L 498.4320557491289 102.82352941176464 L 500.17421602787454 103 L 501.9163763066202 106.35294117647061 L 503.6585365853658 110.94117647058818 L 505.40069686411147 107.23529411764707 L 507.1428571428571 113.41176470588232 L 508.88501742160275 117.82352941176464 L 510.6271777003484 115.35294117647061 L 512.3693379790941 113.94117647058818 L 514.1114982578397 127 L 515.8536585365853 138.29411764705878 L 517.595818815331 135.29411764705878 L 519.3379790940767 135.47058823529414 L 521.0801393728223 136.17647058823525 L 522.822299651568 136.52941176470586 L 524.5644599303137 146.7647058823529 L 526.3066202090592 148.88235294117644 L 528.0487804878048 154.35294117647058 L 529.7909407665505 157.35294117647058 L 531.5331010452962 162.2941176470588 L 533.2752613240418 160.52941176470588 L 535.0174216027874 167.23529411764704 L 536.7595818815331 171.99999999999997 L 538.5017421602788 169.70588235294113 L 540.2439024390244 172.35294117647058 L 541.98606271777 173.41176470588235 L 543.7282229965157 179.7647058823529 L 545.4703832752614 180.1176470588235 L 547.212543554007 186.82352941176467 L 548.9547038327526 185.7647058823529 L 550.6968641114983 199.52941176470588 L 552.439024390244 196.88235294117644 L 554.1811846689895 201.47058823529412 L 555.9233449477351 206.05882352941174 L 557.6655052264808 202.52941176470588 L 559.4076655052265 208.88235294117644 L 561.1498257839721 213.82352941176467 L 562.8919860627177 217.35294117647058 L 564.6341463414634 216.1176470588235 L 566.3763066202091 211.88235294117644 L 568.1184668989547 215.9411764705882 L 569.8606271777003 211.70588235294113 L 571.602787456446 212.58823529411765 L 573.3449477351917 215.41176470588235 L 575.0871080139373 213.47058823529412 L 576.8292682926829 210.64705882352936 L 578.5714285714286 211.17647058823528 L 580.3135888501743 214.70588235294113 L 582.0557491289198 214.35294117647058 L 583.7979094076654 210.64705882352936 L 585.5400696864111 210.64705882352936 L 587.2822299651568 212.9411764705882 L 589.0243902439024 214.17647058823528 L 590.766550522648 214.17647058823528 L 592.5087108013937 213.82352941176467 L 594.2508710801394 211.70588235294113 L 595.993031358885 211.17647058823528 L 597.7351916376306 214.35294117647058 L 599.4773519163763 208.88235294117644 L 601.219512195122 216.2941176470588 L 602.9616724738676 219.2941176470588 L 604.7038327526132 231.47058823529412 L 606.4459930313589 232.88235294117644 L 608.1881533101046 230.05882352941174 L 609.9303135888501 229.17647058823528 L 611.6724738675957 231.1176470588235 L 613.4146341463414 237.99999999999997 L 615.1567944250871 240.99999999999997 L 616.8989547038327 251.41176470588235 L 618.6411149825783 255.82352941176467 L 620.383275261324 259 L 622.1254355400697 265.52941176470586 L 623.8675958188153 264.47058823529414 L 625.609756097561 265.88235294117646 L 627.3519163763067 271 L 629.0940766550523 281.5882352941177 L 630.8362369337979 283.52941176470586 L 632.5783972125436 284.2352941176471 L 634.3205574912893 294.82352941176464 L 636.0627177700349 300.2941176470588 L 637.8048780487804 294.82352941176464 L 639.5470383275261 298.17647058823525 L 641.2891986062718 295.52941176470586 L 643.0313588850174 294.47058823529414 L 644.773519163763 295.52941176470586 L 646.5156794425087 299.4117647058823 L 648.2578397212544 303.47058823529414 L 650 309.6470588235294 L 650 400 Z" /><text  class="poloto_labels poloto_text poloto_title" alignment-baseline="start" text-anchor="middle" font-size="x-large" x="400" y="37.5" >Total players on 2021-06-02</text><text  class="poloto_labels poloto_text poloto_xname" alignment-baseline="start" text-anchor="middle" font-size="x-large" x="400" y="481.25" >Time</text><text  class="poloto_labels poloto_text poloto_yname" alignment-baseline="start" text-anchor="middle" font-size="x-large" transform="rotate(-90,37.5,250)" x="37.5" y="250" >Count</text><line  class="poloto_axis_lines" stroke="black" x1="208.0487804878049" x2="208.0487804878049" y1="400" y2="405" /><text  class="poloto_tick_labels poloto_text" alignment-baseline="start" text-anchor="middle" x="208.0487804878049" y="430" > 03:00</text><line  class="poloto_axis_lines" stroke="black" x1="266.1207897793264" x2="266.1207897793264" y1="400" y2="405" /><text  class="poloto_tick_labels poloto_text" alignment-baseline="start" text-anchor="middle" x="266.1207897793264" y="430" > 06:00</text><line  class="poloto_axis_lines" stroke="black" x1="324.19279907084785" x2="324.19279907084785" y1="400" y2="405" /><text  class="poloto_tick_labels poloto_text" alignment-baseline="start" text-anchor="middle" x="324.19279907084785" y="430" > 08:00</text><line  class="poloto_axis_lines" stroke="black" x1="382.2648083623693" x2="382.2648083623693" y1="400" y2="405" /><text  class="poloto_tick_labels poloto_text" alignment-baseline="start" text-anchor="middle" x="382.2648083623693" y="430" > 11:00</text><line  class="poloto_axis_lines" stroke="black" x1="440.3368176538908" x2="440.3368176538908" y1="400" y2="405" /><text  class="poloto_tick_labels poloto_text" alignment-baseline="start" text-anchor="middle" x="440.3368176538908" y="430" > 14:00</text><line  class="poloto_axis_lines" stroke="black" x1="498.4088269454123" x2="498.4088269454123" y1="400" y2="405" /><text  class="poloto_tick_labels poloto_text" alignment-baseline="start" text-anchor="middle" x="498.4088269454123" y="430" > 17:00</text><line  class="poloto_axis_lines" stroke="black" x1="556.4808362369338" x2="556.4808362369338" y1="400" y2="405" /><text  class="poloto_tick_labels poloto_text" alignment-baseline="start" text-anchor="middle" x="556.4808362369338" y="430" > 19:00</text><line  class="poloto_axis_lines" stroke="black" x1="614.5528455284552" x2="614.5528455284552" y1="400" y2="405" /><text  class="poloto_tick_labels poloto_text" alignment-baseline="start" text-anchor="middle" x="614.5528455284552" y="430" > 22:00</text><line  class="poloto_axis_lines" stroke="black" x1="150" x2="144" y1="398.05882352941177" y2="398.05882352941177" /><text  class="poloto_tick_labels poloto_text" alignment-baseline="middle" text-anchor="end" x="135" y="398.05882352941177" > 1000</text><line  class="poloto_axis_lines" stroke="black" x1="150" x2="144" y1="309.82352941176464" y2="309.82352941176464" /><text  class="poloto_tick_labels poloto_text" alignment-baseline="middle" text-anchor="end" x="135" y="309.82352941176464" > 1500</text><line  class="poloto_axis_lines" stroke="black" x1="150" x2="144" y1="221.58823529411768" y2="221.58823529411768" /><text  class="poloto_tick_labels poloto_text" alignment-baseline="middle" text-anchor="end" x="135" y="221.58823529411768" > 2000</text><line  class="poloto_axis_lines" stroke="black" x1="150" x2="144" y1="133.3529411764706" y2="133.3529411764706" /><text  class="poloto_tick_labels poloto_text" alignment-baseline="middle" text-anchor="end" x="135" y="133.3529411764706" > 2500</text><path  stroke="black" fill="none" class="poloto_axis_lines" style="stroke-dasharray:14.518002322880372;stroke-dashoffset:-58.04878048780488;" d=" M 150 400 L 650 400" /><path  stroke="black" fill="none" class="poloto_axis_lines" style="stroke-dasharray:8.823529411764707;stroke-dashoffset:-1.941176470588232;" d=" M 150 400 L 150 100" /></svg>