<svg class="poloto" width="800" height="500" viewBox="0 0 800 500" xmlns="http://www.w3.org/2000/svg"><style>.poloto { stroke-linecap:round; stroke-linejoin:round; font-family: 'Tahoma', sans-serif; background-color: AliceBlue;} .poloto_scatter{stroke-width:7} .poloto_line{stroke-width:2} .poloto_text{fill: black;} .poloto_axis_lines{stroke: black;stroke-width:3;fill:none;stroke-dasharray:none} .poloto0stroke{stroke:  blue;} .poloto1stroke{stroke:  red;} .poloto2stroke{stroke:  green;} .poloto3stroke{stroke:  gold;} .poloto4stroke{stroke:  aqua;} .poloto5stroke{stroke:  lime;} .poloto6stroke{stroke:  orange;} .poloto7stroke{stroke:  chocolate;} .poloto0fill{fill:blue;} .poloto1fill{fill:red;} .poloto2fill{fill:green;} .poloto3fill{fill:gold;} .poloto4fill{fill:aqua;} .poloto5fill{fill:lime;} .poloto6fill{fill:orange;} .poloto7fill{fill:chocolate;}</style><text  class="poloto_text poloto_legend_text" alignment-baseline="middle" text-anchor="start" font-size="large" x="675" y="100" ></text><path  class="poloto_linefill poloto0fill" d=" M 150 400 L 150 355.81613508442774 L 151.74216027874564 355.2532833020638 L 153.4843205574913 357.08255159474675 L 155.22648083623693 359.7560975609756 L 156.96864111498257 361.02251407129455 L 158.71080139372822 366.65103189493436 L 160.45296167247386 368.0581613508443 L 162.1951219512195 368.62101313320824 L 163.93728222996515 367.2138836772983 L 165.6794425087108 368.76172607879926 L 167.42160278745644 366.7917448405253 L 169.16376306620208 363.27392120075046 L 170.90592334494772 365.1031894934334 L 172.64808362369337 367.3545966228893 L 174.390243902439 365.2439024390244 L 176.13240418118465 365.9474671669793 L 177.8745644599303 370.45028142589115 L 179.61672473867597 369.3245778611632 L 181.3588850174216 371.9981238273921 L 183.10104529616726 380.86303939962477 L 184.8432055749129 386.0694183864915 L 186.58536585365854 388.18011257035647 L 188.3275261324042 390.0093808630394 L 190.06968641114983 390.1500938086304 L 191.81184668989548 392.2607879924953 L 193.55400696864112 396.06003752345214 L 195.29616724738676 399.01500938086303 L 197.0383275261324 400 L 198.78048780487805 394.7936210131332 L 200.5226480836237 392.4015009380863 L 202.26480836236934 389.8686679174484 L 204.00696864111498 387.0544090056285 L 205.74912891986062 388.6022514071294 L 207.49128919860627 389.30581613508446 L 209.2334494773519 392.1200750469043 L 210.97560975609755 393.10506566604124 L 212.7177700348432 386.35084427767356 L 214.45993031358887 386.4915572232645 L 216.2020905923345 381.14446529080675 L 217.94425087108016 380.58161350844273 L 219.6864111498258 380.44090056285177 L 221.42857142857144 376.219512195122 L 223.1707317073171 367.7767354596623 L 224.91289198606273 365.38461538461536 L 226.65505226480838 367.2138836772983 L 228.39721254355402 364.8217636022514 L 230.13937282229966 364.68105065666043 L 231.8815331010453 369.4652908067542 L 233.62369337979095 369.4652908067542 L 235.3658536585366 373.968105065666 L 237.10801393728224 372.2795497185741 L 238.85017421602788 368.0581613508443 L 240.59233449477352 365.5253283302064 L 242.33449477351917 363.1332082551595 L 244.0766550522648 361.72607879924954 L 245.81881533101046 356.8011257035647 L 247.5609756097561 354.6904315196998 L 249.30313588850174 355.2532833020638 L 251.0452961672474 349.624765478424 L 252.78745644599303 347.79549718574106 L 254.52961672473867 344.55909943714823 L 256.2717770034843 342.5891181988743 L 258.01393728222996 341.0412757973734 L 259.7560975609756 339.77485928705437 L 261.49825783972125 339.6341463414634 L 263.2404181184669 337.1013133208255 L 264.98257839721254 335.4127579737336 L 266.7247386759582 331.33208255159474 L 268.4668989547038 336.2570356472795 L 270.20905923344947 339.9155722326454 L 271.9512195121951 336.3977485928705 L 273.69337979094075 333.0206378986867 L 275.4355400696864 333.16135084427765 L 277.17770034843204 332.5984990619137 L 278.91986062717774 328.3771106941839 L 280.6620209059233 330.3470919324578 L 282.404181184669 330.9099437148218 L 284.1463414634146 328.79924953095684 L 285.8885017421603 325.422138836773 L 287.6306620209059 325.56285178236396 L 289.3728222996516 322.0450281425891 L 291.1149825783972 320.4971857410882 L 292.8571428571429 319.9343339587242 L 294.5993031358885 321.90431519699814 L 296.3414634146342 320.63789868667914 L 298.08362369337976 322.7485928705441 L 299.82578397212546 320.4971857410882 L 301.56794425087105 319.37148217636025 L 303.31010452961675 317.6829268292683 L 305.05226480836234 315.8536585365854 L 306.79442508710804 315.0093808630394 L 308.5365853658536 311.63227016885554 L 310.2787456445993 305.01876172607876 L 312.0209059233449 304.59662288930576 L 313.7630662020906 299.24953095684805 L 315.5052264808362 297.7016885553471 L 317.2473867595819 300.09380863039394 L 318.9895470383275 294.4652908067542 L 320.7317073170732 289.68105065666043 L 322.4738675958188 284.0525328330207 L 324.2160278745645 278.9868667917449 L 325.9581881533101 289.96247654784236 L 327.70034843205576 280.81613508442774 L 329.4425087108014 282.08255159474675 L 331.18466898954705 275.75046904315195 L 332.9268292682927 272.6547842401501 L 334.66898954703834 271.10694183864916 L 336.411149825784 270.26266416510316 L 338.1533101045296 272.09193245778613 L 339.89547038327527 270.9662288930582 L 341.6376306620209 269.13696060037523 L 343.37979094076655 268.99624765478427 L 345.1219512195122 273.780487804878 L 346.86411149825784 268.99624765478427 L 348.6062717770035 273.780487804878 L 350.34843205574913 273.780487804878 L 352.0905923344948 270.1219512195122 L 353.8327526132404 271.52908067542216 L 355.57491289198606 264.6341463414634 L 357.3170731707317 260.9756097560976 L 359.05923344947735 249.437148217636 L 360.801393728223 246.20075046904313 L 362.54355400696863 247.1857410881801 L 364.2857142857143 243.52720450281427 L 366.0278745644599 234.09943714821762 L 367.77003484320556 237.7579737335835 L 369.5121951219512 234.66228893058158 L 371.25435540069685 230.72232645403378 L 372.9965156794425 223.68667917448406 L 374.73867595818814 222.56097560975607 L 376.4808362369338 229.03377110694183 L 378.2229965156795 228.33020637898684 L 379.96515679442507 225.51594746716697 L 381.70731707317077 222.13883677298313 L 383.44947735191636 227.62664165103192 L 385.19163763066206 252.25140712945588 L 386.93379790940764 226.07879924953093 L 388.67595818815334 219.7467166979362 L 390.41811846689893 210.88180112570356 L 392.16027874564463 212.4296435272045 L 393.9024390243902 211.16322701688554 L 395.6445993031359 208.48968105065663 L 397.3867595818815 206.51969981238275 L 399.1289198606272 206.09756097560975 L 400.8710801393728 209.1932457786116 L 402.6132404181185 207.22326454033768 L 404.3554006968641 202.7204502814259 L 406.0975609756098 197.79549718574108 L 407.8397212543554 191.88555347091935 L 409.58188153310107 183.02063789868666 L 411.3240418118467 177.95497185741087 L 413.06620209059236 202.5797373358349 L 414.808362369338 175.281425891182 L 416.55052264808364 166.41651031894932 L 418.2926829268293 165.0093808630394 L 420.03484320557493 163.18011257035644 L 421.7770034843206 161.9136960600375 L 423.5191637630662 167.68292682926827 L 425.26132404181186 164.72795497185743 L 427.0034843205575 164.8686679174484 L 428.74564459930315 165.2908067542214 L 430.4878048780488 164.02439024390245 L 432.22996515679444 157.83302063789867 L 433.9721254355401 150.23452157598499 L 435.7142857142857 141.79174484052533 L 437.45644599303137 137.85178236397746 L 439.198606271777 138.69606003752347 L 440.94076655052265 139.8217636022514 L 442.6829268292683 136.8667917448405 L 444.42508710801394 135.31894934333957 L 446.1672473867596 134.05253283302068 L 447.9094076655052 125.04690431519703 L 449.65156794425087 124.48405253283306 L 451.3937282229965 118.8555347091932 L 453.13588850174216 117.44840525328334 L 454.8780487804878 118.29268292682923 L 456.62020905923345 114.77485928705437 L 458.3623693379791 113.93058161350848 L 460.10452961672473 112.24202626641647 L 461.8466898954704 116.04127579737337 L 463.588850174216 110.41275797373362 L 465.33101045296166 106.47279549718576 L 467.0731707317073 119.84052532833016 L 468.81533101045295 122.51407129455913 L 470.5574912891986 137.00750469043146 L 472.29965156794424 132.6454033771107 L 474.0418118466899 121.66979362101313 L 475.7839721254355 118.57410881801127 L 477.52613240418117 120.68480300187616 L 479.2682926829268 100 L 481.01045296167246 106.05065666041276 L 482.7526132404181 110.27204502814254 L 484.49477351916374 107.87992495309572 L 486.2369337979094 107.45778611632272 L 487.97909407665503 109.28705440900558 L 489.7212543554007 108.02063789868669 L 491.4634146341463 114.2120075046904 L 493.20557491289196 116.04127579737337 L 494.9477351916376 118.57410881801127 L 496.68989547038325 123.21763602251406 L 498.4320557491289 130.53470919324582 L 500.17421602787454 128.28330206378985 L 501.91637630662024 124.76547842401499 L 503.6585365853659 124.62476547842402 L 505.4006968641115 124.62476547842402 L 507.14285714285717 145.87242026266418 L 508.8850174216028 140.80675422138836 L 510.62717770034845 135.88180112570353 L 512.3693379790941 147.56097560975607 L 514.1114982578397 140.10318949343343 L 515.8536585365854 144.8874296435272 L 517.5958188153311 153.33020637898684 L 519.3379790940767 154.03377110694183 L 521.0801393728223 155.86303939962474 L 522.822299651568 153.47091932457786 L 524.5644599303137 158.95872420262666 L 526.3066202090592 162.47654784240152 L 528.0487804878048 166.13508442776734 L 529.7909407665505 175.84427767354597 L 531.5331010452962 179.08067542213885 L 533.2752613240418 177.8142589118199 L 535.0174216027874 174.718574108818 L 536.7595818815331 183.58348968105068 L 538.5017421602788 186.96060037523452 L 540.2439024390244 174.15572232645403 L 541.98606271777 170.35647279549718 L 543.7282229965157 187.52345215759848 L 545.4703832752614 203.28330206378988 L 547.212543554007 205.81613508442777 L 548.9547038327526 207.3639774859287 L 550.6968641114983 212.0075046904315 L 552.439024390244 218.33958724202628 L 554.1811846689895 217.77673545966226 L 555.9233449477351 212.5703564727955 L 557.6655052264808 215.1031894934334 L 559.4076655052265 221.85741088180114 L 561.1498257839721 224.81238273921198 L 562.8919860627177 227.9080675422139 L 564.6341463414634 229.5966228893058 L 566.3763066202091 234.24015009380864 L 568.1184668989547 231.8480300187617 L 569.8606271777003 232.83302063789867 L 571.602787456446 248.31144465290808 L 573.3449477351917 239.1651031894934 L 575.0871080139373 246.20075046904313 L 576.8292682926829 246.20075046904313 L 578.5714285714286 248.59287054409006 L 580.3135888501743 248.59287054409006 L 582.0557491289198 250.42213883677297 L 583.7979094076654 249.437148217636 L 585.5400696864111 253.37711069418387 L 587.2822299651568 252.95497185741087 L 589.0243902439024 256.89493433395876 L 590.766550522648 256.05065666041276 L 592.5087108013937 253.51782363977483 L 594.2508710801394 264.2120075046904 L 595.993031358885 267.8705440900562 L 597.7351916376306 263.0863039399625 L 599.4773519163763 257.5984990619137 L 601.219512195122 258.3020637898686 L 602.9616724738676 250.84427767354597 L 604.7038327526133 251.54784240150096 L 606.445993031359 254.08067542213885 L 608.1881533101046 256.6135084427767 L 609.9303135888501 262.38273921200755 L 611.6724738675958 263.7898686679174 L 613.4146341463415 269.41838649155727 L 615.1567944250871 269.13696060037523 L 616.8989547038327 276.17260787992495 L 618.6411149825784 276.59474671669795 L 620.3832752613241 281.0975609756098 L 622.1254355400697 287.57035647279554 L 623.8675958188153 292.7767354596623 L 625.609756097561 293.6210131332083 L 627.3519163763067 297.8424015009381 L 629.0940766550523 298.40525328330205 L 630.8362369337979 303.04878048780483 L 632.5783972125436 314.0243902439024 L 634.3205574912893 311.63227016885554 L 636.0627177700349 310.2251407129456 L 637.8048780487804 309.9437148217636 L 639.5470383275261 313.6022514071294 L 641.2891986062718 318.10506566604124 L 643.0313588850174 321.06003752345214 L 644.773519163763 326.96998123827393 L 646.5156794425087 325.56285178236396 L 648.2578397212544 323.73358348968105 L 650 330.0656660412758 L 650 400 Z" /><text  class="poloto_labels poloto_text poloto_title" alignment-baseline="start" text-anchor="middle" font-size="x-large" x="400" y="37.5" >Total players on 2021-10-30</text><text  class="poloto_labels poloto_text poloto_xname" alignment-baseline="start" text-anchor="middle" font-size="x-large" x="400" y="481.25" >Time</text><text  class="poloto_labels poloto_text poloto_yname" alignment-baseline="start" text-anchor="middle" font-size="x-large" transform="rotate(-90,37.5,250)" x="37.5" y="250" >Count</text><line  class="poloto_axis_lines" stroke="black" x1="150" x2="150" y1="400" y2="405" /><text  class="poloto_tick_labels poloto_text" alignment-baseline="start" text-anchor="middle" x="150" y="430" > 00:00</text><line  class="poloto_axis_lines" stroke="black" x1="266.14401858304296" x2="266.14401858304296" y1="400" y2="405" /><text  class="poloto_tick_labels poloto_text" alignment-baseline="start" text-anchor="middle" x="266.14401858304296" y="430" > 06:00</text><line  class="poloto_axis_lines" stroke="black" x1="382.2880371660859" x2="382.2880371660859" y1="400" y2="405" /><text  class="poloto_tick_labels poloto_text" alignment-baseline="start" text-anchor="middle" x="382.2880371660859" y="430" > 11:00</text><line  class="poloto_axis_lines" stroke="black" x1="498.4320557491289" x2="498.4320557491289" y1="400" y2="405" /><text  class="poloto_tick_labels poloto_text" alignment-baseline="start" text-anchor="middle" x="498.4320557491289" y="430" > 17:00</text><line  class="poloto_axis_lines" stroke="black" x1="614.5760743321719" x2="614.5760743321719" y1="400" y2="405" /><text  class="poloto_tick_labels poloto_text" alignment-baseline="start" text-anchor="middle" x="614.5760743321719" y="430" > 22:00</text><line  class="poloto_axis_lines" stroke="black" x1="150" x2="144" y1="354.6904315196998" y2="354.6904315196998" /><text  class="poloto_tick_labels poloto_text" alignment-baseline="middle" text-anchor="end" x="135" y="354.6904315196998" > 1500</text><line  class="poloto_axis_lines" stroke="black" x1="150" x2="144" y1="284.3339587242026" y2="284.3339587242026" /><text  class="poloto_tick_labels poloto_text" alignment-baseline="middle" text-anchor="end" x="135" y="284.3339587242026" > 2000</text><line  class="poloto_axis_lines" stroke="black" x1="150" x2="144" y1="213.9774859287054" y2="213.9774859287054" /><text  class="poloto_tick_labels poloto_text" alignment-baseline="middle" text-anchor="end" x="135" y="213.9774859287054" > 2500</text><line  class="poloto_axis_lines" stroke="black" x1="150" x2="144" y1="143.6210131332083" y2="143.6210131332083" /><text  class="poloto_tick_labels poloto_text" alignment-baseline="middle" text-anchor="end" x="135" y="143.6210131332083" > 3000</text><path  stroke="black" fill="none" class="poloto_axis_lines" style="stroke-dasharray:14.518002322880372;stroke-dashoffset:-0;" d=" M 150 400 L 650 400" /><path  stroke="black" fill="none" class="poloto_axis_lines" style="stroke-dasharray:7.0356472795497185;stroke-dashoffset:-45.309568480300186;" d=" M 150 400 L 150 100" /></svg>