<svg class="poloto" width="800" height="500" viewBox="0 0 800 500" xmlns="http://www.w3.org/2000/svg"><style>.poloto { stroke-linecap:round; stroke-linejoin:round; font-family: 'Tahoma', sans-serif; background-color: AliceBlue;} .poloto_scatter{stroke-width:7} .poloto_line{stroke-width:2} .poloto_text{fill: black;} .poloto_axis_lines{stroke: black;stroke-width:3;fill:none;stroke-dasharray:none} .poloto0stroke{stroke:  blue;} .poloto1stroke{stroke:  red;} .poloto2stroke{stroke:  green;} .poloto3stroke{stroke:  gold;} .poloto4stroke{stroke:  aqua;} .poloto5stroke{stroke:  lime;} .poloto6stroke{stroke:  orange;} .poloto7stroke{stroke:  chocolate;} .poloto0fill{fill:blue;} .poloto1fill{fill:red;} .poloto2fill{fill:green;} .poloto3fill{fill:gold;} .poloto4fill{fill:aqua;} .poloto5fill{fill:lime;} .poloto6fill{fill:orange;} .poloto7fill{fill:chocolate;}</style><text  class="poloto_text poloto_legend_text" alignment-baseline="middle" text-anchor="start" font-size="large" x="675" y="100" ></text><path  class="poloto_linefill poloto0fill" d=" M 150 400 L 150 377.7027027027027 L 151.74216027874564 380.4054054054054 L 153.4843205574913 374.6621621621622 L 155.22648083623693 372.80405405405406 L 156.96864111498257 370.77702702702703 L 158.71080139372822 375.5067567567568 L 160.45296167247386 380.9121621621622 L 162.1951219512195 377.3648648648649 L 163.93728222996515 387.8378378378378 L 165.6794425087108 391.0472972972973 L 167.42160278745644 396.62162162162167 L 169.16376306620208 392.22972972972974 L 170.90592334494772 392.9054054054054 L 172.64808362369337 395.2702702702703 L 174.390243902439 397.1283783783784 L 176.13240418118465 397.80405405405406 L 177.8745644599303 396.1148648648649 L 179.61672473867597 397.80405405405406 L 181.3588850174216 393.0743243243243 L 183.10104529616726 389.8648648648649 L 184.8432055749129 394.4256756756757 L 186.58536585365854 392.22972972972974 L 188.3275261324042 394.76351351351354 L 190.06968641114983 395.2702702702703 L 191.81184668989548 395.2702702702703 L 193.55400696864112 391.38513513513516 L 195.29616724738676 392.22972972972974 L 197.0383275261324 391.55405405405406 L 198.78048780487805 392.06081081081084 L 200.5226480836237 390.8783783783784 L 202.26480836236934 386.6554054054054 L 204.00696864111498 385.30405405405406 L 205.74912891986062 388.51351351351354 L 207.49128919860627 388.1756756756757 L 209.2334494773519 383.7837837837838 L 210.97560975609755 387.8378378378378 L 212.7177700348432 384.2905405405405 L 214.45993031358887 389.52702702702703 L 216.2020905923345 388.3445945945946 L 217.94425087108016 389.3581081081081 L 219.6864111498258 386.6554054054054 L 221.42857142857144 387.8378378378378 L 223.1707317073171 391.0472972972973 L 224.91289198606273 390.8783783783784 L 226.65505226480838 390.7094594594595 L 228.39721254355402 392.22972972972974 L 230.13937282229966 396.2837837837838 L 231.8815331010453 391.72297297297297 L 233.62369337979095 394.0878378378378 L 235.3658536585366 391.38513513513516 L 237.10801393728224 392.39864864864865 L 238.85017421602788 396.7905405405405 L 240.59233449477352 389.69594594594594 L 242.33449477351917 392.39864864864865 L 244.0766550522648 388.68243243243245 L 245.81881533101046 391.72297297297297 L 247.5609756097561 395.94594594594594 L 249.30313588850174 400 L 251.0452961672474 397.46621621621625 L 252.78745644599303 397.46621621621625 L 254.52961672473867 396.7905405405405 L 256.2717770034843 397.97297297297297 L 258.01393728222996 396.62162162162167 L 259.7560975609756 395.94594594594594 L 261.49825783972125 396.7905405405405 L 263.2404181184669 394.5945945945946 L 264.98257839721254 395.6081081081081 L 266.7247386759582 396.1148648648649 L 268.4668989547038 395.43918918918916 L 270.20905923344947 394.93243243243245 L 271.9512195121951 395.77702702702703 L 273.69337979094075 400 L 275.4355400696864 396.9594594594595 L 277.17770034843204 395.94594594594594 L 278.91986062717774 396.9594594594595 L 280.6620209059233 393.0743243243243 L 282.404181184669 392.5675675675676 L 284.1463414634146 385.47297297297297 L 285.8885017421603 381.41891891891896 L 287.6306620209059 378.2094594594595 L 289.3728222996516 377.87162162162167 L 291.1149825783972 379.05405405405406 L 292.8571428571429 378.71621621621625 L 294.5993031358885 373.8175675675676 L 296.3414634146342 375.3378378378378 L 298.08362369337976 371.4527027027027 L 299.82578397212546 365.8783783783784 L 301.56794425087105 364.3581081081081 L 303.31010452961675 360.13513513513516 L 305.05226480836234 359.96621621621625 L 306.79442508710804 360.97972972972974 L 308.5365853658536 362.5 L 310.2787456445993 364.0202702702703 L 312.0209059233449 373.64864864864865 L 313.7630662020906 372.63513513513516 L 315.5052264808362 371.62162162162167 L 317.2473867595819 372.46621621621625 L 318.9895470383275 372.2972972972973 L 320.7317073170732 370.77702702702703 L 322.4738675958188 370.77702702702703 L 324.2160278745645 364.52702702702703 L 325.9581881533101 363.1756756756757 L 327.70034843205576 363.0067567567568 L 329.4425087108014 358.1081081081081 L 331.18466898954705 354.222972972973 L 332.9268292682927 359.2905405405405 L 334.66898954703834 357.0945945945946 L 336.411149825784 356.9256756756757 L 338.1533101045296 356.5878378378378 L 339.89547038327527 359.7972972972973 L 341.6376306620209 357.7702702702703 L 343.37979094076655 353.88513513513516 L 345.1219512195122 357.26351351351354 L 346.86411149825784 357.7702702702703 L 348.6062717770035 352.19594594594594 L 350.34843205574913 346.9594594594595 L 352.0905923344948 360.6418918918919 L 353.8327526132404 356.7567567567568 L 355.57491289198606 354.05405405405406 L 357.3170731707317 351.68918918918916 L 359.05923344947735 351.5202702702703 L 360.801393728223 356.0810810810811 L 362.54355400696863 343.0743243243243 L 364.2857142857143 338.85135135135135 L 366.0278745644599 334.6283783783784 L 367.77003484320556 331.0810810810811 L 369.5121951219512 334.4594594594595 L 371.25435540069685 318.0743243243243 L 372.9965156794425 319.93243243243245 L 374.73867595818814 315.5405405405405 L 376.4808362369338 314.18918918918916 L 378.2229965156795 316.8918918918919 L 379.96515679442507 304.56081081081084 L 381.70731707317077 307.60135135135135 L 383.44947735191636 294.4256756756757 L 385.19163763066206 301.5202702702703 L 386.93379790940764 301.5202702702703 L 388.67595818815334 294.93243243243245 L 390.41811846689893 299.4932432432432 L 392.16027874564463 301.5202702702703 L 393.9024390243902 309.4594594594595 L 395.6445993031359 298.64864864864865 L 397.3867595818815 288.1756756756757 L 399.1289198606272 287.1621621621622 L 400.8710801393728 289.3581081081081 L 402.6132404181185 289.8648648648649 L 404.3554006968641 286.8243243243243 L 406.0975609756098 280.0675675675676 L 407.8397212543554 278.0405405405406 L 409.58188153310107 263.0067567567568 L 411.3240418118467 261.8243243243243 L 413.06620209059236 260.81081081081084 L 414.808362369338 260.30405405405406 L 416.55052264808364 254.89864864864865 L 418.2926829268293 249.32432432432432 L 420.03484320557493 251.18243243243245 L 421.7770034843206 252.3648648648649 L 423.5191637630662 240.3716216216216 L 425.26132404181186 243.5810810810811 L 427.0034843205575 241.21621621621625 L 428.74564459930315 235.13513513513516 L 430.4878048780488 240.8783783783784 L 432.22996515679444 234.1216216216216 L 433.9721254355401 223.64864864864865 L 435.7142857142857 222.1283783783784 L 437.45644599303137 210.13513513513516 L 439.198606271777 211.4864864864865 L 440.94076655052265 198.8175675675676 L 442.6829268292683 202.19594594594594 L 444.42508710801394 201.35135135135135 L 446.1672473867596 200.50675675675677 L 447.9094076655052 193.07432432432432 L 449.65156794425087 192.39864864864865 L 451.3937282229965 177.19594594594594 L 453.13588850174216 172.1283783783784 L 454.8780487804878 163.17567567567568 L 456.62020905923345 153.88513513513516 L 458.3623693379791 147.97297297297297 L 460.10452961672473 137.66891891891896 L 461.8466898954704 138.34459459459458 L 463.588850174216 141.55405405405406 L 465.33101045296166 141.21621621621625 L 467.0731707317073 144.42567567567568 L 468.81533101045295 142.7364864864865 L 470.5574912891986 141.0472972972973 L 472.29965156794424 132.77027027027026 L 474.0418118466899 120.77702702702703 L 475.7839721254355 129.05405405405406 L 477.52613240418117 119.76351351351354 L 479.2682926829268 128.20945945945948 L 481.01045296167246 118.5810810810811 L 482.7526132404181 103.20945945945948 L 484.49477351916374 103.20945945945948 L 486.2369337979094 104.22297297297297 L 487.97909407665503 105.40540540540542 L 489.7212543554007 101.35135135135135 L 491.4634146341463 100 L 493.20557491289196 100.50675675675677 L 494.9477351916376 109.96621621621625 L 496.68989547038325 111.14864864864865 L 498.4320557491289 121.62162162162161 L 500.17421602787454 114.8648648648649 L 501.91637630662024 118.07432432432432 L 503.6585365853659 119.25675675675677 L 505.4006968641115 117.73648648648651 L 507.14285714285717 119.93243243243245 L 508.8850174216028 126.01351351351354 L 510.62717770034845 128.04054054054058 L 512.3693379790941 132.77027027027026 L 514.1114982578397 141.89189189189193 L 515.8536585365854 147.80405405405406 L 517.5958188153311 152.02702702702703 L 519.3379790940767 152.3648648648649 L 521.0801393728223 168.07432432432432 L 522.822299651568 169.25675675675677 L 524.5644599303137 177.02702702702703 L 526.3066202090592 178.88513513513516 L 528.0487804878048 185.13513513513516 L 529.7909407665505 188.17567567567568 L 531.5331010452962 192.06081081081084 L 533.2752613240418 191.21621621621625 L 535.0174216027874 197.97297297297297 L 536.7595818815331 213.68243243243245 L 538.5017421602788 206.58783783783787 L 540.2439024390244 206.4189189189189 L 541.98606271777 206.25 L 543.7282229965157 208.27702702702703 L 545.4703832752614 251.18243243243245 L 547.212543554007 214.52702702702703 L 548.9547038327526 211.82432432432432 L 550.6968641114983 213.68243243243245 L 552.439024390244 222.97297297297297 L 554.1811846689895 226.18243243243245 L 555.9233449477351 230.2364864864865 L 557.6655052264808 229.56081081081084 L 559.4076655052265 230.57432432432432 L 561.1498257839721 222.97297297297297 L 562.8919860627177 226.68918918918922 L 564.6341463414634 228.71621621621625 L 566.3763066202091 237.6689189189189 L 568.1184668989547 233.9527027027027 L 569.8606271777003 240.8783783783784 L 571.602787456446 241.0472972972973 L 573.3449477351917 238.00675675675677 L 575.0871080139373 246.4527027027027 L 576.8292682926829 246.1148648648649 L 578.5714285714286 244.25675675675677 L 580.3135888501743 243.5810810810811 L 582.0557491289198 247.46621621621625 L 583.7979094076654 251.35135135135135 L 585.5400696864111 252.8716216216216 L 587.2822299651568 247.1283783783784 L 589.0243902439024 249.15540540540542 L 590.766550522648 255.0675675675676 L 592.5087108013937 263.3445945945946 L 594.2508710801394 262.3310810810811 L 595.993031358885 257.0945945945946 L 597.7351916376306 258.44594594594594 L 599.4773519163763 258.1081081081081 L 601.219512195122 264.1891891891892 L 602.9616724738676 267.06081081081084 L 604.7038327526133 266.21621621621625 L 606.445993031359 269.2567567567568 L 608.1881533101046 274.3243243243243 L 609.9303135888501 279.56081081081084 L 611.6724738675958 278.0405405405406 L 613.4146341463415 278.88513513513516 L 615.1567944250871 284.6283783783784 L 616.8989547038327 289.3581081081081 L 618.6411149825784 298.1418918918919 L 620.3832752613241 303.0405405405405 L 622.1254355400697 301.8581081081081 L 623.8675958188153 305.7432432432432 L 625.609756097561 344.76351351351354 L 627.3519163763067 312.66891891891896 L 629.0940766550523 311.3175675675676 L 630.8362369337979 314.0202702702703 L 632.5783972125436 319.4256756756757 L 634.3205574912893 330.9121621621622 L 636.0627177700349 338.3445945945946 L 637.8048780487804 338.85135135135135 L 639.5470383275261 345.77702702702703 L 641.2891986062718 345.6081081081081 L 643.0313588850174 350.3378378378378 L 644.773519163763 357.43243243243245 L 646.5156794425087 354.56081081081084 L 648.2578397212544 357.26351351351354 L 650 361.14864864864865 L 650 400 Z" /><text  class="poloto_labels poloto_text poloto_title" alignment-baseline="start" text-anchor="middle" font-size="x-large" x="400" y="37.5" >Total players on 2021-10-13</text><text  class="poloto_labels poloto_text poloto_xname" alignment-baseline="start" text-anchor="middle" font-size="x-large" x="400" y="481.25" >Time</text><text  class="poloto_labels poloto_text poloto_yname" alignment-baseline="start" text-anchor="middle" font-size="x-large" transform="rotate(-90,37.5,250)" x="37.5" y="250" >Count</text><line  class="poloto_axis_lines" stroke="black" x1="150" x2="150" y1="400" y2="405" /><text  class="poloto_tick_labels poloto_text" alignment-baseline="start" text-anchor="middle" x="150" y="430" > 00:00:00</text><line  class="poloto_axis_lines" stroke="black" x1="266.14401858304296" x2="266.14401858304296" y1="400" y2="405" /><text  class="poloto_tick_labels poloto_text" alignment-baseline="start" text-anchor="middle" x="266.14401858304296" y="430" > 05:33:20</text><line  class="poloto_axis_lines" stroke="black" x1="382.2880371660859" x2="382.2880371660859" y1="400" y2="405" /><text  class="poloto_tick_labels poloto_text" alignment-baseline="start" text-anchor="middle" x="382.2880371660859" y="430" > 11:06:40</text><line  class="poloto_axis_lines" stroke="black" x1="498.4320557491289" x2="498.4320557491289" y1="400" y2="405" /><text  class="poloto_tick_labels poloto_text" alignment-baseline="start" text-anchor="middle" x="498.4320557491289" y="430" > 16:40:00</text><line  class="poloto_axis_lines" stroke="black" x1="614.5760743321719" x2="614.5760743321719" y1="400" y2="405" /><text  class="poloto_tick_labels poloto_text" alignment-baseline="start" text-anchor="middle" x="614.5760743321719" y="430" > 22:13:20</text><line  class="poloto_axis_lines" stroke="black" x1="150" x2="144" y1="383.1081081081081" y2="383.1081081081081" /><text  class="poloto_tick_labels poloto_text" alignment-baseline="middle" text-anchor="end" x="135" y="383.1081081081081" > 1000</text><line  class="poloto_axis_lines" stroke="black" x1="150" x2="144" y1="298.64864864864865" y2="298.64864864864865" /><text  class="poloto_tick_labels poloto_text" alignment-baseline="middle" text-anchor="end" x="135" y="298.64864864864865" > 1500</text><line  class="poloto_axis_lines" stroke="black" x1="150" x2="144" y1="214.18918918918922" y2="214.18918918918922" /><text  class="poloto_tick_labels poloto_text" alignment-baseline="middle" text-anchor="end" x="135" y="214.18918918918922" > 2000</text><line  class="poloto_axis_lines" stroke="black" x1="150" x2="144" y1="129.72972972972974" y2="129.72972972972974" /><text  class="poloto_tick_labels poloto_text" alignment-baseline="middle" text-anchor="end" x="135" y="129.72972972972974" > 2500</text><path  stroke="black" fill="none" class="poloto_axis_lines" style="stroke-dasharray:14.518002322880372;stroke-dashoffset:-0;" d=" M 150 400 L 650 400" /><path  stroke="black" fill="none" class="poloto_axis_lines" style="stroke-dasharray:8.445945945945946;stroke-dashoffset:-16.891891891891873;" d=" M 150 400 L 150 100" /></svg>