<svg class="poloto" width="800" height="500" viewBox="0 0 800 500" xmlns="http://www.w3.org/2000/svg"><style>.poloto { stroke-linecap:round; stroke-linejoin:round; font-family: 'Tahoma', sans-serif; background-color: AliceBlue;} .poloto_scatter{stroke-width:7} .poloto_line{stroke-width:2} .poloto_text{fill: black;} .poloto_axis_lines{stroke: black;stroke-width:3;fill:none;stroke-dasharray:none} .poloto0stroke{stroke:  blue;} .poloto1stroke{stroke:  red;} .poloto2stroke{stroke:  green;} .poloto3stroke{stroke:  gold;} .poloto4stroke{stroke:  aqua;} .poloto5stroke{stroke:  lime;} .poloto6stroke{stroke:  orange;} .poloto7stroke{stroke:  chocolate;} .poloto0fill{fill:blue;} .poloto1fill{fill:red;} .poloto2fill{fill:green;} .poloto3fill{fill:gold;} .poloto4fill{fill:aqua;} .poloto5fill{fill:lime;} .poloto6fill{fill:orange;} .poloto7fill{fill:chocolate;}</style><text  class="poloto_text poloto_legend_text" alignment-baseline="middle" text-anchor="start" font-size="large" x="675" y="100" ></text><path  class="poloto_linefill poloto0fill" d=" M 150 400 L 150 336.6989117291415 L 151.74216027874564 337.2430471584039 L 153.4843205574913 343.40991535671105 L 155.22648083623693 352.1160822249093 L 156.96864111498257 351.39056831922613 L 158.71080139372822 360.27811366384526 L 160.45296167247386 356.8319226118501 L 162.1951219512195 358.82708585247883 L 163.93728222996515 362.09189842805324 L 165.6794425087108 361.9105199516324 L 167.42160278745644 367.5332527206772 L 169.16376306620208 371.16082224909314 L 170.90592334494772 371.5235792019347 L 172.64808362369337 368.07738814993957 L 174.390243902439 367.5332527206772 L 176.13240418118465 372.43047158403874 L 177.8745644599303 372.6118500604595 L 179.61672473867597 375.3325272067715 L 181.3588850174216 377.32769044740024 L 183.10104529616726 378.05320435308346 L 184.8432055749129 377.509068923821 L 186.58536585365854 376.42079806529625 L 188.3275261324042 374.4256348246675 L 190.06968641114983 372.0677146311971 L 191.81184668989548 373.7001209189843 L 193.55400696864112 368.07738814993957 L 195.29616724738676 372.0677146311971 L 197.0383275261324 377.509068923821 L 198.78048780487805 376.0580411124547 L 200.5226480836237 379.1414752116082 L 202.26480836236934 381.8621523579202 L 204.00696864111498 386.9407496977026 L 205.74912891986062 389.84280532043533 L 207.49128919860627 388.2103990326481 L 209.2334494773519 390.7496977025393 L 210.97560975609755 394.3772672309553 L 212.7177700348432 396.0096735187425 L 214.45993031358887 400 L 216.2020905923345 397.82345828295047 L 217.94425087108016 396.9165659008464 L 219.6864111498258 395.82829504232166 L 221.42857142857144 393.65175332527207 L 223.1707317073171 398.186215235792 L 224.91289198606273 397.09794437726725 L 226.65505226480838 390.9310761789601 L 228.39721254355402 392.5634824667473 L 230.13937282229966 391.11245465538093 L 231.8815331010453 392.5634824667473 L 233.62369337979095 397.82345828295047 L 235.3658536585366 390.9310761789601 L 237.10801393728224 390.7496977025393 L 238.85017421602788 389.4800483675937 L 240.59233449477352 393.28899637243046 L 242.33449477351917 390.2055622732769 L 244.0766550522648 388.75453446191057 L 245.81881533101046 391.11245465538093 L 247.5609756097561 388.3917775090689 L 249.30313588850174 389.29866989117295 L 251.0452961672474 386.5779927448609 L 252.78745644599303 384.58282950423217 L 254.52961672473867 383.857315598549 L 256.2717770034843 382.7690447400242 L 258.01393728222996 379.50423216444983 L 259.7560975609756 379.1414752116082 L 261.49825783972125 376.78355501813786 L 263.2404181184669 369.7097944377267 L 264.98257839721254 364.993954050786 L 266.7247386759582 366.80773881499397 L 268.4668989547038 362.8174123337364 L 270.20905923344947 355.9250302297461 L 271.9512195121951 355.3808948004837 L 273.69337979094075 351.75332527206774 L 275.4355400696864 351.5719467956469 L 277.17770034843204 354.6553808948005 L 278.91986062717774 360.09673518742443 L 280.6620209059233 367.5332527206772 L 282.404181184669 371.7049576783555 L 284.1463414634146 366.08222490931075 L 285.8885017421603 369.34703748488516 L 287.6306620209059 364.2684401451028 L 289.3728222996516 362.273276904474 L 291.1149825783972 366.9891172914148 L 292.8571428571429 364.81257557436516 L 294.5993031358885 363.7243047158404 L 296.3414634146342 360.82224909310764 L 298.08362369337976 363.36154776299884 L 299.82578397212546 359.9153567110036 L 301.56794425087105 354.47400241837965 L 303.31010452961675 350.3022974607013 L 305.05226480836234 345.40507859733975 L 306.79442508710804 350.665054413543 L 308.5365853658536 351.5719467956469 L 310.2787456445993 355.5622732769045 L 312.0209059233449 355.74365175332525 L 313.7630662020906 350.48367593712214 L 315.5052264808362 351.39056831922613 L 317.2473867595819 350.8464328899637 L 318.9895470383275 349.0326481257557 L 320.7317073170732 344.86094316807737 L 322.4738675958188 337.60580411124545 L 324.2160278745645 338.33131801692866 L 325.9581881533101 343.95405078597344 L 327.70034843205576 335.0665054413543 L 329.4425087108014 332.7085852478839 L 331.18466898954705 325.0906892382104 L 332.9268292682927 325.6348246674728 L 334.66898954703834 334.34099153567115 L 336.411149825784 326.360338573156 L 338.1533101045296 318.01692865779927 L 339.89547038327527 317.2914147521161 L 341.6376306620209 313.4824667472793 L 343.37979094076655 315.2962515114873 L 345.1219512195122 298.4280532043531 L 346.86411149825784 297.3397823458283 L 348.6062717770035 296.2515114873035 L 350.34843205574913 294.98186215235796 L 352.0905923344948 292.44256348246677 L 353.8327526132404 286.819830713422 L 355.57491289198606 277.0253929866989 L 357.3170731707317 276.11850060459494 L 359.05923344947735 281.74123337363966 L 360.801393728223 276.6626360338573 L 362.54355400696863 274.4860943168078 L 364.2857142857143 271.03990326481255 L 366.0278745644599 269.04474002418385 L 367.77003484320556 265.4171704957679 L 369.5121951219512 287.9081015719468 L 371.25435540069685 279.9274486094317 L 372.9965156794425 275.0302297460702 L 374.73867595818814 260.15719467956467 L 376.4808362369338 252.17654171704956 L 378.2229965156795 253.26481257557438 L 379.96515679442507 258.88754534461907 L 381.70731707317077 264.1475211608223 L 383.44947735191636 252.90205562273277 L 385.19163763066206 245.46553808948008 L 386.93379790940764 243.2889963724305 L 388.67595818815334 244.19588875453448 L 390.41811846689893 241.83796856106412 L 392.16027874564463 228.05320435308343 L 393.9024390243902 223.51874244256348 L 395.6445993031359 234.03869407496975 L 397.3867595818815 218.98428053204353 L 399.1289198606272 216.80773881499394 L 400.8710801393728 212.45465538089482 L 402.6132404181185 202.6602176541717 L 404.3554006968641 204.65538089480046 L 406.0975609756098 208.28295042321642 L 407.8397212543554 188.87545344619107 L 409.58188153310107 184.70374848851267 L 411.3240418118467 182.70858524788392 L 413.06620209059236 231.31801692865778 L 414.808362369338 248.00483675937122 L 416.55052264808364 206.1064087061669 L 418.2926829268293 197.40024183796854 L 420.03484320557493 188.51269649334947 L 421.7770034843206 186.51753325272065 L 423.5191637630662 180.16928657799272 L 425.26132404181186 177.44860943168075 L 427.0034843205575 177.0858524788392 L 428.74564459930315 177.44860943168075 L 430.4878048780488 160.76178960096738 L 432.22996515679444 165.65900846432888 L 433.9721254355401 168.37968561064085 L 435.7142857142857 166.20314389359132 L 437.45644599303137 153.32527206771462 L 439.198606271777 147.15840386940752 L 440.94076655052265 142.44256348246677 L 442.6829268292683 140.0846432889964 L 444.42508710801394 133.0108827085852 L 446.1672473867596 124.12333736396613 L 447.9094076655052 149.51632406287789 L 449.65156794425087 128.65779927448614 L 451.3937282229965 128.11366384522375 L 453.13588850174216 147.3397823458283 L 454.8780487804878 137.5453446191052 L 456.62020905923345 113.78476420798063 L 458.3623693379791 113.05925030229741 L 460.10452961672473 111.6082224909311 L 461.8466898954704 111.97097944377265 L 463.588850174216 108.52478839177752 L 465.33101045296166 104.5344619105199 L 467.0731707317073 102.35792019347036 L 468.81533101045295 100.36275695284155 L 470.5574912891986 103.99032648125751 L 472.29965156794424 101.2696493349456 L 474.0418118466899 101.99516324062881 L 475.7839721254355 108.52478839177752 L 477.52613240418117 100 L 479.2682926829268 104.5344619105199 L 481.01045296167246 112.8778718258767 L 482.7526132404181 111.78960096735182 L 484.49477351916374 119.04474002418385 L 486.2369337979094 122.85368802902053 L 487.97909407665503 122.49093107617898 L 489.7212543554007 125.75574365175328 L 491.4634146341463 130.2902055622733 L 493.20557491289196 132.2853688029021 L 494.9477351916376 137.72672309552604 L 496.68989547038325 144.61910519951633 L 498.4320557491289 146.61426844014508 L 500.17421602787454 151.14873035066503 L 501.91637630662024 152.59975816203146 L 503.6585365853659 157.6783555018138 L 505.4006968641115 162.39419588875452 L 507.14285714285717 163.66384522370012 L 508.8850174216028 170.73760580411127 L 510.62717770034845 172.18863361547764 L 512.3693379790941 168.74244256348246 L 514.1114982578397 174.72793228536878 L 515.8536585365854 176.1789600967352 L 517.5958188153311 179.08101571946796 L 519.3379790940767 182.3458282950423 L 521.0801393728223 199.75816203143896 L 522.822299651568 190.68923821039905 L 524.5644599303137 194.67956469165657 L 526.3066202090592 193.9540507859734 L 528.0487804878048 191.9588875453446 L 529.7909407665505 198.66989117291413 L 531.5331010452962 200.84643288996372 L 533.2752613240418 206.65054413542927 L 535.0174216027874 199.93954050785973 L 536.7595818815331 199.93954050785973 L 538.5017421602788 198.30713422007253 L 540.2439024390244 197.21886336154776 L 541.98606271777 197.76299879081014 L 543.7282229965157 205.56227327690445 L 545.4703832752614 209.00846432889963 L 547.212543554007 213.18016928657798 L 548.9547038327526 225.69528415961307 L 550.6968641114983 222.4304715840387 L 552.439024390244 233.13180169286576 L 554.1811846689895 226.96493349455866 L 555.9233449477351 223.8814993954051 L 557.6655052264808 219.89117291414752 L 559.4076655052265 220.61668681983073 L 561.1498257839721 219.34703748488513 L 562.8919860627177 218.62152357920192 L 564.6341463414634 214.99395405078596 L 566.3763066202091 220.07255139056835 L 568.1184668989547 218.62152357920192 L 569.8606271777003 228.41596130592504 L 571.602787456446 231.86215235792022 L 573.3449477351917 225.69528415961307 L 575.0871080139373 224.42563482466747 L 576.8292682926829 227.50906892382105 L 578.5714285714286 224.6070133010883 L 580.3135888501743 225.15114873035068 L 582.0557491289198 223.7001209189843 L 583.7979094076654 225.87666263603384 L 585.5400696864111 224.2442563482467 L 587.2822299651568 229.32285368802903 L 589.0243902439024 226.60217654171706 L 590.766550522648 234.2200725513906 L 592.5087108013937 243.2889963724305 L 594.2508710801394 251.0882708585248 L 595.993031358885 256.71100362756954 L 597.7351916376306 261.0640870616687 L 599.4773519163763 259.6130592503023 L 601.219512195122 266.6868198307134 L 602.9616724738676 259.25030229746073 L 604.7038327526133 260.3385731559855 L 606.445993031359 256.71100362756954 L 608.1881533101046 266.3240628778718 L 609.9303135888501 269.77025392986695 L 611.6724738675958 277.7509068923821 L 613.4146341463415 279.9274486094317 L 615.1567944250871 275.3929866989117 L 616.8989547038327 287.3639661426844 L 618.6411149825784 288.4522370012092 L 620.3832752613241 291.5356711003628 L 622.1254355400697 295.3446191051995 L 623.8675958188153 298.0652962515115 L 625.609756097561 298.9721886336155 L 627.3519163763067 306.0459492140266 L 629.0940766550523 309.4921402660218 L 630.8362369337979 310.9431680773881 L 632.5783972125436 316.38452237001206 L 634.3205574912893 318.19830713422004 L 636.0627177700349 323.27690447400244 L 637.8048780487804 328.8996372430472 L 639.5470383275261 328.35550181378477 L 641.2891986062718 331.80169286577996 L 643.0313588850174 337.7871825876663 L 644.773519163763 334.7037484885127 L 646.5156794425087 334.7037484885127 L 648.2578397212544 336.8802902055623 L 650 341.9588875453446 L 650 400 Z" /><text  class="poloto_labels poloto_text poloto_title" alignment-baseline="start" text-anchor="middle" font-size="x-large" x="400" y="37.5" >Total players on 2021-11-30</text><text  class="poloto_labels poloto_text poloto_xname" alignment-baseline="start" text-anchor="middle" font-size="x-large" x="400" y="481.25" >Time</text><text  class="poloto_labels poloto_text poloto_yname" alignment-baseline="start" text-anchor="middle" font-size="x-large" transform="rotate(-90,37.5,250)" x="37.5" y="250" >Count</text><line  class="poloto_axis_lines" stroke="black" x1="150" x2="150" y1="400" y2="405" /><text  class="poloto_tick_labels poloto_text" alignment-baseline="start" text-anchor="middle" x="150" y="430" > 00:00</text><line  class="poloto_axis_lines" stroke="black" x1="266.14401858304296" x2="266.14401858304296" y1="400" y2="405" /><text  class="poloto_tick_labels poloto_text" alignment-baseline="start" text-anchor="middle" x="266.14401858304296" y="430" > 06:00</text><line  class="poloto_axis_lines" stroke="black" x1="382.2880371660859" x2="382.2880371660859" y1="400" y2="405" /><text  class="poloto_tick_labels poloto_text" alignment-baseline="start" text-anchor="middle" x="382.2880371660859" y="430" > 11:00</text><line  class="poloto_axis_lines" stroke="black" x1="498.4320557491289" x2="498.4320557491289" y1="400" y2="405" /><text  class="poloto_tick_labels poloto_text" alignment-baseline="start" text-anchor="middle" x="498.4320557491289" y="430" > 17:00</text><line  class="poloto_axis_lines" stroke="black" x1="614.5760743321719" x2="614.5760743321719" y1="400" y2="405" /><text  class="poloto_tick_labels poloto_text" alignment-baseline="start" text-anchor="middle" x="614.5760743321719" y="430" > 22:00</text><line  class="poloto_axis_lines" stroke="black" x1="150" x2="144" y1="352.8415961305925" y2="352.8415961305925" /><text  class="poloto_tick_labels poloto_text" alignment-baseline="middle" text-anchor="end" x="135" y="352.8415961305925" > 1000</text><line  class="poloto_axis_lines" stroke="black" x1="150" x2="144" y1="262.1523579201935" y2="262.1523579201935" /><text  class="poloto_tick_labels poloto_text" alignment-baseline="middle" text-anchor="end" x="135" y="262.1523579201935" > 1500</text><line  class="poloto_axis_lines" stroke="black" x1="150" x2="144" y1="171.46311970979446" y2="171.46311970979446" /><text  class="poloto_tick_labels poloto_text" alignment-baseline="middle" text-anchor="end" x="135" y="171.46311970979446" > 2000</text><path  stroke="black" fill="none" class="poloto_axis_lines" style="stroke-dasharray:14.518002322880372;stroke-dashoffset:-0;" d=" M 150 400 L 650 400" /><path  stroke="black" fill="none" class="poloto_axis_lines" style="stroke-dasharray:9.068923821039904;stroke-dashoffset:-47.15840386940749;" d=" M 150 400 L 150 100" /></svg>