<svg class="poloto" width="800" height="500" viewBox="0 0 800 500" xmlns="http://www.w3.org/2000/svg"><style>.poloto { stroke-linecap:round; stroke-linejoin:round; font-family: 'Tahoma', sans-serif; background-color: AliceBlue;} .poloto_scatter{stroke-width:7} .poloto_line{stroke-width:2} .poloto_text{fill: black;} .poloto_axis_lines{stroke: black;stroke-width:3;fill:none;stroke-dasharray:none} .poloto0stroke{stroke:  blue;} .poloto1stroke{stroke:  red;} .poloto2stroke{stroke:  green;} .poloto3stroke{stroke:  gold;} .poloto4stroke{stroke:  aqua;} .poloto5stroke{stroke:  lime;} .poloto6stroke{stroke:  orange;} .poloto7stroke{stroke:  chocolate;} .poloto0fill{fill:blue;} .poloto1fill{fill:red;} .poloto2fill{fill:green;} .poloto3fill{fill:gold;} .poloto4fill{fill:aqua;} .poloto5fill{fill:lime;} .poloto6fill{fill:orange;} .poloto7fill{fill:chocolate;}</style><text  class="poloto_text poloto_legend_text" alignment-baseline="middle" text-anchor="start" font-size="large" x="675" y="100" ></text><path  class="poloto_linefill poloto0fill" d=" M 150 400 L 150 371.0575139146568 L 151.74216027874564 370.5009276437848 L 153.4843205574913 374.02597402597405 L 155.22648083623693 381.44712430426716 L 156.96864111498257 375.88126159554736 L 158.71080139372822 377.36549165120596 L 160.45296167247386 373.46938775510205 L 162.1951219512195 376.62337662337666 L 163.93728222996515 384.23005565862707 L 165.6794425087108 385.52875695732837 L 167.42160278745644 385.3432282003711 L 169.16376306620208 381.63265306122446 L 170.90592334494772 379.96289424860856 L 172.64808362369337 381.8181818181818 L 174.390243902439 386.6419294990724 L 176.13240418118465 395.9183673469388 L 177.8745644599303 397.9591836734694 L 179.61672473867597 398.5157699443414 L 181.3588850174216 400 L 183.10104529616726 397.58812615955475 L 184.8432055749129 394.4341372912802 L 186.58536585365854 389.795918367347 L 188.3275261324042 383.48794063079777 L 190.06968641114983 377.7365491651206 L 191.81184668989548 377.55102040816325 L 193.55400696864112 380.89053803339516 L 195.29616724738676 379.0352504638219 L 197.0383275261324 377.1799628942486 L 198.78048780487805 378.84972170686456 L 200.5226480836237 383.8589981447125 L 202.26480836236934 372.35621521335804 L 204.00696864111498 373.46938775510205 L 205.74912891986062 377.1799628942486 L 207.49128919860627 382.56029684601117 L 209.2334494773519 382.3747680890538 L 210.97560975609755 383.6734693877551 L 212.7177700348432 386.6419294990724 L 214.45993031358887 386.8274582560297 L 216.2020905923345 390.5380333951763 L 217.94425087108016 392.0222634508349 L 219.6864111498258 393.69202226345084 L 221.42857142857144 395.5473098330241 L 223.1707317073171 394.8051948051948 L 224.91289198606273 391.4656771799629 L 226.65505226480838 383.48794063079777 L 228.39721254355402 383.1168831168831 L 230.13937282229966 387.569573283859 L 231.8815331010453 391.65120593692023 L 233.62369337979095 389.9814471243043 L 235.3658536585366 392.0222634508349 L 237.10801393728224 391.2801484230056 L 238.85017421602788 395.3617810760668 L 240.59233449477352 395.7328385899815 L 242.33449477351917 389.61038961038963 L 244.0766550522648 390.5380333951763 L 245.81881533101046 387.012987012987 L 247.5609756097561 385.1576994434138 L 249.30313588850174 380.3339517625232 L 251.0452961672474 382.00371057513917 L 252.78745644599303 376.25231910946195 L 254.52961672473867 379.7773654916512 L 256.2717770034843 381.63265306122446 L 258.01393728222996 381.44712430426716 L 259.7560975609756 374.76808905380335 L 261.49825783972125 374.76808905380335 L 263.2404181184669 368.64564007421154 L 264.98257839721254 369.7588126159555 L 266.7247386759582 368.4601113172542 L 268.4668989547038 363.265306122449 L 270.20905923344947 362.70871985157703 L 271.9512195121951 361.96660482374773 L 273.69337979094075 356.7717996289425 L 275.4355400696864 357.14285714285717 L 277.17770034843204 363.6363636363636 L 278.91986062717774 365.30612244897964 L 280.6620209059233 360.6679035250464 L 282.404181184669 359.7402597402597 L 284.1463414634146 354.7309833024119 L 285.8885017421603 350.64935064935065 L 287.6306620209059 354.7309833024119 L 289.3728222996516 356.4007421150278 L 291.1149825783972 360.1113172541744 L 292.8571428571429 360.2968460111317 L 294.5993031358885 358.0705009276438 L 296.3414634146342 358.9981447124304 L 298.08362369337976 362.70871985157703 L 299.82578397212546 364.19294990723563 L 301.56794425087105 361.2244897959184 L 303.31010452961675 374.58256029684605 L 305.05226480836234 367.1614100185529 L 306.79442508710804 354.1743970315399 L 308.5365853658536 359.7402597402597 L 310.2787456445993 367.71799628942483 L 312.0209059233449 348.60853432282005 L 313.7630662020906 371.7996289424861 L 315.5052264808362 374.95361781076065 L 317.2473867595819 375.51020408163265 L 318.9895470383275 374.95361781076065 L 320.7317073170732 370.31539888682744 L 322.4738675958188 371.24304267161415 L 324.2160278745645 361.7810760667904 L 325.9581881533101 362.5231910946197 L 327.70034843205576 362.8942486085343 L 329.4425087108014 364.5640074211503 L 331.18466898954705 334.50834879406307 L 332.9268292682927 332.6530612244898 L 334.66898954703834 344.3413729128015 L 336.411149825784 330.0556586270872 L 338.1533101045296 328.0148423005566 L 339.89547038327527 328.20037105751396 L 341.6376306620209 336.54916512059367 L 343.37979094076655 323.93320964749535 L 345.1219512195122 340.63079777365493 L 346.86411149825784 341.37291280148423 L 348.6062717770035 339.517625231911 L 350.34843205574913 338.7755102040817 L 352.0905923344948 328.94248608534326 L 353.8327526132404 323.19109461966605 L 355.57491289198606 325.78849721706865 L 357.3170731707317 315.02782931354363 L 359.05923344947735 325.04638218923935 L 360.801393728223 318.7384044526902 L 362.54355400696863 284.23005565862707 L 364.2857142857143 287.569573283859 L 366.0278745644599 286.0853432282004 L 367.77003484320556 284.04452690166977 L 369.5121951219512 284.6011131725418 L 371.25435540069685 295.9183673469388 L 372.9965156794425 282.00371057513917 L 374.73867595818814 279.59183673469386 L 376.4808362369338 284.97217068645637 L 378.2229965156795 272.91280148423004 L 379.96515679442507 270.50092764378485 L 381.70731707317077 275.13914656771806 L 383.44947735191636 264.56400742115034 L 385.19163763066206 264.74953617810763 L 386.93379790940764 271.05751391465674 L 388.67595818815334 261.595547309833 L 390.41811846689893 253.61781076066794 L 392.16027874564463 249.16512059369202 L 393.9024390243902 245.45454545454547 L 395.6445993031359 244.71243042671617 L 397.3867595818815 249.16512059369202 L 399.1289198606272 233.2096474953618 L 400.8710801393728 229.31354359925788 L 402.6132404181185 235.43599257884975 L 404.3554006968641 233.7662337662338 L 406.0975609756098 227.64378478664193 L 407.8397212543554 221.70686456400742 L 409.58188153310107 218.3673469387755 L 411.3240418118467 205.38033395176254 L 413.06620209059236 218.18181818181822 L 414.808362369338 198.51576994434137 L 416.55052264808364 188.8682745825603 L 418.2926829268293 187.01298701298705 L 420.03484320557493 188.49721706864565 L 421.7770034843206 184.2300556586271 L 423.5191637630662 172.72727272727278 L 425.26132404181186 169.94434137291282 L 427.0034843205575 165.49165120593696 L 428.74564459930315 164.5640074211503 L 430.4878048780488 156.7717996289425 L 432.22996515679444 145.08348794063082 L 433.9721254355401 139.51762523191098 L 435.7142857142857 145.08348794063082 L 437.45644599303137 130.42671614100186 L 439.198606271777 133.39517625231917 L 440.94076655052265 144.71243042671617 L 442.6829268292683 124.30426716141005 L 444.42508710801394 119.85157699443414 L 446.1672473867596 132.46753246753246 L 447.9094076655052 117.81076066790354 L 449.65156794425087 114.28571428571433 L 451.3937282229965 109.27643784786642 L 453.13588850174216 116.88311688311694 L 454.8780487804878 118.36734693877554 L 456.62020905923345 123.00556586270875 L 458.3623693379791 126.71614100185536 L 460.10452961672473 125.23191094619665 L 461.8466898954704 121.89239332096474 L 463.588850174216 134.87940630797777 L 465.33101045296166 124.30426716141005 L 467.0731707317073 103.3395176252319 L 468.81533101045295 100 L 470.5574912891986 106.67903525046381 L 472.29965156794424 103.15398886827461 L 474.0418118466899 130.98330241187386 L 475.7839721254355 110.76066790352513 L 477.52613240418117 112.43042671614103 L 479.2682926829268 109.64749536178113 L 481.01045296167246 107.05009276437852 L 482.7526132404181 115.39888682745834 L 484.49477351916374 109.09090909090912 L 486.2369337979094 107.23562152133582 L 487.97909407665503 112.24489795918373 L 489.7212543554007 124.86085343228206 L 491.4634146341463 135.06493506493507 L 493.20557491289196 133.20964749536176 L 494.9477351916376 130.79777365491657 L 496.68989547038325 154.91651205936924 L 498.4320557491289 152.31910946196663 L 500.17421602787454 152.31910946196663 L 501.91637630662024 164.5640074211503 L 503.6585365853659 168.46011131725422 L 505.4006968641115 172.17068645640077 L 507.14285714285717 177.55102040816328 L 508.8850174216028 178.10760667903529 L 510.62717770034845 163.45083487940636 L 512.3693379790941 170.50092764378482 L 514.1114982578397 184.60111317254174 L 515.8536585365854 184.97217068645645 L 517.5958188153311 183.30241187384044 L 519.3379790940767 180.7050092764379 L 521.0801393728223 185.3432282003711 L 522.822299651568 183.85899814471244 L 524.5644599303137 208.3487940630798 L 526.3066202090592 188.126159554731 L 528.0487804878048 196.28942486085347 L 529.7909407665505 200.37105751391468 L 531.5331010452962 214.47124304267166 L 533.2752613240418 209.0909090909091 L 535.0174216027874 205.7513914656772 L 536.7595818815331 201.48423005565863 L 538.5017421602788 209.46196660482374 L 540.2439024390244 207.7922077922078 L 541.98606271777 204.45269016697588 L 543.7282229965157 205.19480519480524 L 545.4703832752614 200.55658627087203 L 547.212543554007 209.0909090909091 L 548.9547038327526 209.6474953617811 L 550.6968641114983 213.7291280148423 L 552.439024390244 215.95547309833026 L 554.1811846689895 227.45825602968463 L 555.9233449477351 229.1280148423006 L 557.6655052264808 224.48979591836738 L 559.4076655052265 224.67532467532467 L 561.1498257839721 229.68460111317253 L 562.8919860627177 223.37662337662337 L 564.6341463414634 222.44897959183677 L 566.3763066202091 238.5899814471243 L 568.1184668989547 226.15955473098333 L 569.8606271777003 233.39517625231915 L 571.602787456446 236.92022263450835 L 573.3449477351917 246.38218923933212 L 575.0871080139373 243.97031539888687 L 576.8292682926829 245.45454545454547 L 578.5714285714286 242.67161410018556 L 580.3135888501743 230.79777365491654 L 582.0557491289198 231.53988868274584 L 583.7979094076654 229.31354359925788 L 585.5400696864111 232.09647495361784 L 587.2822299651568 230.6122448979592 L 589.0243902439024 232.09647495361784 L 590.766550522648 232.83858998144714 L 592.5087108013937 228.94248608534323 L 594.2508710801394 239.33209647495366 L 595.993031358885 240.4452690166976 L 597.7351916376306 246.93877551020412 L 599.4773519163763 251.02040816326533 L 601.219512195122 254.35992578849724 L 602.9616724738676 256.5862708719852 L 604.7038327526133 258.8126159554731 L 606.445993031359 264.74953617810763 L 608.1881533101046 271.98515769944345 L 609.9303135888501 280.33395176252316 L 611.6724738675958 282.3747680890539 L 613.4146341463415 285.3432282003711 L 615.1567944250871 292.0222634508349 L 616.8989547038327 294.0630797773655 L 618.6411149825784 296.8460111317254 L 620.3832752613241 295.5473098330241 L 622.1254355400697 293.6920222634509 L 623.8675958188153 301.113172541744 L 625.609756097561 297.4025974025974 L 627.3519163763067 297.0315398886828 L 629.0940766550523 301.2987012987013 L 630.8362369337979 308.90538033395177 L 632.5783972125436 310.2040816326531 L 634.3205574912893 315.02782931354363 L 636.0627177700349 317.99628942486083 L 637.8048780487804 319.4805194805195 L 639.5470383275261 328.7569573283859 L 641.2891986062718 331.72541743970316 L 643.0313588850174 337.6623376623377 L 644.773519163763 342.8571428571429 L 646.5156794425087 340.8163265306123 L 648.2578397212544 342.3005565862709 L 650 344.71243042671614 L 650 400 Z" /><text  class="poloto_labels poloto_text poloto_title" alignment-baseline="start" text-anchor="middle" font-size="x-large" x="400" y="37.5" >Total players on 2021-11-10</text><text  class="poloto_labels poloto_text poloto_xname" alignment-baseline="start" text-anchor="middle" font-size="x-large" x="400" y="481.25" >Time</text><text  class="poloto_labels poloto_text poloto_yname" alignment-baseline="start" text-anchor="middle" font-size="x-large" transform="rotate(-90,37.5,250)" x="37.5" y="250" >Count</text><line  class="poloto_axis_lines" stroke="black" x1="150" x2="150" y1="400" y2="405" /><text  class="poloto_tick_labels poloto_text" alignment-baseline="start" text-anchor="middle" x="150" y="430" > 00:00:00</text><line  class="poloto_axis_lines" stroke="black" x1="266.14401858304296" x2="266.14401858304296" y1="400" y2="405" /><text  class="poloto_tick_labels poloto_text" alignment-baseline="start" text-anchor="middle" x="266.14401858304296" y="430" > 05:33:20</text><line  class="poloto_axis_lines" stroke="black" x1="382.2880371660859" x2="382.2880371660859" y1="400" y2="405" /><text  class="poloto_tick_labels poloto_text" alignment-baseline="start" text-anchor="middle" x="382.2880371660859" y="430" > 11:06:40</text><line  class="poloto_axis_lines" stroke="black" x1="498.4320557491289" x2="498.4320557491289" y1="400" y2="405" /><text  class="poloto_tick_labels poloto_text" alignment-baseline="start" text-anchor="middle" x="498.4320557491289" y="430" > 16:40:00</text><line  class="poloto_axis_lines" stroke="black" x1="614.5760743321719" x2="614.5760743321719" y1="400" y2="405" /><text  class="poloto_tick_labels poloto_text" alignment-baseline="start" text-anchor="middle" x="614.5760743321719" y="430" > 22:13:20</text><line  class="poloto_axis_lines" stroke="black" x1="150" x2="144" y1="366.97588126159553" y2="366.97588126159553" /><text  class="poloto_tick_labels poloto_text" alignment-baseline="middle" text-anchor="end" x="135" y="366.97588126159553" > 1000</text><line  class="poloto_axis_lines" stroke="black" x1="150" x2="144" y1="274.21150278293135" y2="274.21150278293135" /><text  class="poloto_tick_labels poloto_text" alignment-baseline="middle" text-anchor="end" x="135" y="274.21150278293135" > 1500</text><line  class="poloto_axis_lines" stroke="black" x1="150" x2="144" y1="181.44712430426716" y2="181.44712430426716" /><text  class="poloto_tick_labels poloto_text" alignment-baseline="middle" text-anchor="end" x="135" y="181.44712430426716" > 2000</text><path  stroke="black" fill="none" class="poloto_axis_lines" style="stroke-dasharray:14.518002322880372;stroke-dashoffset:-0;" d=" M 150 400 L 650 400" /><path  stroke="black" fill="none" class="poloto_axis_lines" style="stroke-dasharray:9.276437847866418;stroke-dashoffset:-33.02411873840444;" d=" M 150 400 L 150 100" /></svg>