<svg class="poloto" width="800" height="500" viewBox="0 0 800 500" xmlns="http://www.w3.org/2000/svg"><style>.poloto { stroke-linecap:round; stroke-linejoin:round; font-family: 'Tahoma', sans-serif; background-color: AliceBlue;} .poloto_scatter{stroke-width:7} .poloto_line{stroke-width:2} .poloto_text{fill: black;} .poloto_axis_lines{stroke: black;stroke-width:3;fill:none;stroke-dasharray:none} .poloto0stroke{stroke:  blue;} .poloto1stroke{stroke:  red;} .poloto2stroke{stroke:  green;} .poloto3stroke{stroke:  gold;} .poloto4stroke{stroke:  aqua;} .poloto5stroke{stroke:  lime;} .poloto6stroke{stroke:  orange;} .poloto7stroke{stroke:  chocolate;} .poloto0fill{fill:blue;} .poloto1fill{fill:red;} .poloto2fill{fill:green;} .poloto3fill{fill:gold;} .poloto4fill{fill:aqua;} .poloto5fill{fill:lime;} .poloto6fill{fill:orange;} .poloto7fill{fill:chocolate;}</style><text  class="poloto_text poloto_legend_text" alignment-baseline="middle" text-anchor="start" font-size="large" x="675" y="100" ></text><path  class="poloto_linefill poloto0fill" d=" M 150 400 L 150 361.0878661087866 L 151.74216027874564 370.50209205020917 L 153.4843205574913 373.64016736401675 L 155.22648083623693 380.8577405857741 L 156.96864111498257 380.8577405857741 L 158.71080139372822 378.50418410041846 L 160.45296167247386 375.6799163179916 L 162.1951219512195 377.8765690376569 L 163.93728222996515 376.3075313807532 L 165.6794425087108 380.2301255230126 L 167.42160278745644 386.9769874476988 L 169.16376306620208 379.75941422594144 L 170.90592334494772 382.26987447698747 L 172.64808362369337 386.9769874476988 L 174.390243902439 383.2112970711297 L 176.13240418118465 383.05439330543936 L 177.8745644599303 387.29079497907946 L 179.61672473867597 387.60460251046027 L 181.3588850174216 384.152719665272 L 183.10104529616726 384.152719665272 L 184.8432055749129 387.60460251046027 L 186.58536585365854 391.2133891213389 L 188.3275261324042 394.35146443514645 L 190.06968641114983 394.8221757322176 L 191.81184668989548 389.48744769874475 L 193.55400696864112 389.01673640167365 L 195.29616724738676 390.8995815899582 L 197.0383275261324 395.29288702928875 L 198.78048780487805 400 L 200.5226480836237 399.84309623430966 L 202.26480836236934 396.8619246861925 L 204.00696864111498 389.9581589958159 L 205.74912891986062 390.2719665271967 L 207.49128919860627 387.29079497907946 L 209.2334494773519 380.38702928870293 L 210.97560975609755 377.8765690376569 L 212.7177700348432 376.1506276150628 L 214.45993031358887 376.62133891213387 L 216.2020905923345 372.69874476987445 L 217.94425087108016 369.8744769874477 L 219.6864111498258 366.26569037656907 L 221.42857142857144 371.6004184100418 L 223.1707317073171 373.1694560669456 L 224.91289198606273 372.22803347280336 L 226.65505226480838 366.7364016736402 L 228.39721254355402 369.560669456067 L 230.13937282229966 367.2071129707113 L 231.8815331010453 369.71757322175733 L 233.62369337979095 379.75941422594144 L 235.3658536585366 373.7970711297071 L 237.10801393728224 367.3640167364017 L 238.85017421602788 365.010460251046 L 240.59233449477352 364.53974895397494 L 242.33449477351917 362.97071129707115 L 244.0766550522648 360.77405857740587 L 245.81881533101046 362.97071129707115 L 247.5609756097561 352.7719665271967 L 249.30313588850174 352.30125523012555 L 251.0452961672474 350.2615062761506 L 252.78745644599303 346.80962343096235 L 254.52961672473867 344.76987447698747 L 256.2717770034843 342.1025104602511 L 258.01393728222996 340.69037656903765 L 259.7560975609756 343.82845188284523 L 261.49825783972125 342.25941422594144 L 263.2404181184669 340.84728033472805 L 264.98257839721254 341.7887029288703 L 266.7247386759582 334.88493723849376 L 268.4668989547038 333.4728033472803 L 270.20905923344947 328.2949790794979 L 271.9512195121951 327.6673640167364 L 273.69337979094075 328.60878661087867 L 275.4355400696864 327.510460251046 L 277.17770034843204 325 L 278.91986062717774 318.8807531380753 L 280.6620209059233 316.68410041841 L 282.404181184669 310.56485355648533 L 284.1463414634146 309.152719665272 L 285.8885017421603 310.09414225941424 L 287.6306620209059 304.75941422594144 L 289.3728222996516 303.97489539748955 L 291.1149825783972 301.93514644351467 L 292.8571428571429 304.75941422594144 L 294.5993031358885 305.8577405857741 L 296.3414634146342 300.9937238493724 L 298.08362369337976 301.62133891213387 L 299.82578397212546 295.9728033472803 L 301.56794425087105 288.755230125523 L 303.31010452961675 287.65690376569034 L 305.05226480836234 283.5774058577406 L 306.79442508710804 277.92887029288704 L 308.5365853658536 279.6548117154812 L 310.2787456445993 275.10460251046027 L 312.0209059233449 271.80962343096235 L 313.7630662020906 264.12133891213387 L 315.5052264808362 260.6694560669456 L 317.2473867595819 258.4728033472803 L 318.9895470383275 260.82635983263594 L 320.7317073170732 257.53138075313814 L 322.4738675958188 257.53138075313814 L 324.2160278745645 262.8661087866109 L 325.9581881533101 260.0418410041841 L 327.70034843205576 264.12133891213387 L 329.4425087108014 260.51255230125525 L 331.18466898954705 253.4518828451883 L 332.9268292682927 250.78451882845192 L 334.66898954703834 246.8619246861925 L 336.411149825784 244.03765690376568 L 338.1533101045296 247.64644351464435 L 339.89547038327527 243.4100418410042 L 341.6376306620209 239.95815899581592 L 343.37979094076655 239.95815899581592 L 345.1219512195122 239.01673640167363 L 346.86411149825784 239.33054393305443 L 348.6062717770035 238.54602510460253 L 350.34843205574913 236.8200836820084 L 352.0905923344948 232.42677824267784 L 353.8327526132404 235.72175732217576 L 355.57491289198606 234.62343096234312 L 357.3170731707317 233.99581589958163 L 359.05923344947735 237.91841004184104 L 360.801393728223 241.2133891213389 L 362.54355400696863 240.42887029288707 L 364.2857142857143 241.52719665271965 L 366.0278745644599 244.97907949790797 L 367.77003484320556 243.72384937238493 L 369.5121951219512 236.97698744769875 L 371.25435540069685 232.26987447698744 L 372.9965156794425 226.6213389121339 L 374.73867595818814 234.62343096234312 L 376.4808362369338 229.13179916317992 L 378.2229965156795 232.42677824267784 L 379.96515679442507 231.79916317991635 L 381.70731707317077 231.4853556485356 L 383.44947735191636 226.46443514644355 L 385.19163763066206 226.93514644351464 L 386.93379790940764 224.58158995815901 L 388.67595818815334 222.071129707113 L 390.41811846689893 215.63807531380755 L 392.16027874564463 220.5020920502092 L 393.9024390243902 217.99163179916317 L 395.6445993031359 218.14853556485357 L 397.3867595818815 216.89330543933053 L 399.1289198606272 209.8326359832636 L 400.8710801393728 206.0669456066946 L 402.6132404181185 202.14435146443518 L 404.3554006968641 196.33891213389123 L 406.0975609756098 188.6506276150628 L 407.8397212543554 185.82635983263597 L 409.58188153310107 182.06066945606696 L 411.3240418118467 176.09832635983267 L 413.06620209059236 183.7866108786611 L 414.808362369338 179.86401673640168 L 416.55052264808364 184.25732217573224 L 418.2926829268293 183.7866108786611 L 420.03484320557493 182.68828451882845 L 421.7770034843206 175.62761506276152 L 423.5191637630662 172.489539748954 L 425.26132404181186 165.89958158995816 L 427.0034843205575 157.1129707112971 L 428.74564459930315 156.4853556485356 L 430.4878048780488 155.07322175732222 L 432.22996515679444 155.85774058577405 L 433.9721254355401 151.1506276150628 L 435.7142857142857 144.40376569037656 L 437.45644599303137 132.9497907949791 L 439.198606271777 128.87029288702934 L 440.94076655052265 126.67364016736406 L 442.6829268292683 135.61715481171552 L 444.42508710801394 129.81171548117152 L 446.1672473867596 125.26150627615061 L 447.9094076655052 129.34100418410048 L 449.65156794425087 124.47698744769878 L 451.3937282229965 124.32008368200843 L 453.13588850174216 118.35774058577408 L 454.8780487804878 116.4748953974896 L 456.62020905923345 112.39539748953973 L 458.3623693379791 109.10041841004181 L 460.10452961672473 100 L 461.8466898954704 104.70711297071136 L 463.588850174216 105.02092050209205 L 465.33101045296166 105.805439330544 L 467.0731707317073 110.35564853556491 L 468.81533101045295 110.82635983263606 L 470.5574912891986 111.6108786610879 L 472.29965156794424 119.45606694560672 L 474.0418118466899 122.90794979079499 L 475.7839721254355 123.53556485355648 L 477.52613240418117 126.98744769874475 L 479.2682926829268 128.24267782426784 L 481.01045296167246 123.69246861924682 L 482.7526132404181 123.06485355648533 L 484.49477351916374 126.20292887029291 L 486.2369337979094 128.71338912133888 L 487.97909407665503 135.14644351464437 L 489.7212543554007 137.8138075313808 L 491.4634146341463 138.4414225941423 L 493.20557491289196 142.20711297071136 L 494.9477351916376 140.95188284518827 L 496.68989547038325 141.89330543933056 L 498.4320557491289 146.60041841004184 L 500.17421602787454 148.48326359832637 L 501.91637630662024 154.13179916317992 L 503.6585365853659 164.33054393305443 L 505.4006968641115 168.25313807531384 L 507.14285714285717 172.3326359832636 L 508.8850174216028 175.47071129707112 L 510.62717770034845 173.2740585774059 L 512.3693379790941 175.47071129707112 L 514.1114982578397 178.6087866108787 L 515.8536585365854 187.55230125523016 L 517.5958188153311 184.7280334728034 L 519.3379790940767 193.0439330543933 L 521.0801393728223 190.53347280334728 L 522.822299651568 196.96652719665272 L 524.5644599303137 209.8326359832636 L 526.3066202090592 217.99163179916317 L 528.0487804878048 220.97280334728035 L 529.7909407665505 219.40376569037656 L 531.5331010452962 223.32635983263597 L 533.2752613240418 221.4435146443515 L 535.0174216027874 226.1506276150628 L 536.7595818815331 227.2489539748954 L 538.5017421602788 226.93514644351464 L 540.2439024390244 221.75732217573224 L 541.98606271777 226.7782426778243 L 543.7282229965157 228.81799163179917 L 545.4703832752614 229.44560669456067 L 547.212543554007 232.1129707112971 L 548.9547038327526 236.34937238493725 L 550.6968641114983 236.0355648535565 L 552.439024390244 231.4853556485356 L 554.1811846689895 233.52510460251048 L 555.9233449477351 234.93723849372387 L 557.6655052264808 239.01673640167363 L 559.4076655052265 247.489539748954 L 561.1498257839721 253.6087866108787 L 562.8919860627177 255.33472803347283 L 564.6341463414634 251.56903765690376 L 566.3763066202091 252.0397489539749 L 568.1184668989547 258.7866108786611 L 569.8606271777003 263.1799163179917 L 571.602787456446 262.70920502092054 L 573.3449477351917 258.7866108786611 L 575.0871080139373 259.57112970711296 L 576.8292682926829 266.7887029288703 L 578.5714285714286 271.652719665272 L 580.3135888501743 267.7301255230126 L 582.0557491289198 263.4937238493724 L 583.7979094076654 260.82635983263594 L 585.5400696864111 267.88702928870293 L 587.2822299651568 267.1025104602511 L 589.0243902439024 270.55439330543936 L 590.766550522648 273.8493723849373 L 592.5087108013937 278.55648535564853 L 594.2508710801394 274.32008368200843 L 595.993031358885 266.94560669456064 L 597.7351916376306 268.20083682008374 L 599.4773519163763 273.8493723849373 L 601.219512195122 271.18200836820085 L 602.9616724738676 273.37866108786613 L 604.7038327526133 276.67364016736406 L 606.445993031359 280.28242677824267 L 608.1881533101046 288.1276150627615 L 609.9303135888501 285.4602510460251 L 611.6724738675958 296.44351464435147 L 613.4146341463415 297.5418410041841 L 615.1567944250871 306.1715481171548 L 616.8989547038327 301.77824267782427 L 618.6411149825784 306.1715481171548 L 620.3832752613241 307.42677824267787 L 622.1254355400697 305.2301255230126 L 623.8675958188153 311.1924686192469 L 625.609756097561 308.8389121338912 L 627.3519163763067 308.05439330543936 L 629.0940766550523 307.5836820083682 L 630.8362369337979 310.09414225941424 L 632.5783972125436 314.01673640167365 L 634.3205574912893 316.05648535564853 L 636.0627177700349 314.17364016736406 L 637.8048780487804 319.6652719665272 L 639.5470383275261 322.6464435146444 L 641.2891986062718 322.489539748954 L 643.0313588850174 329.2364016736402 L 644.773519163763 329.7071129707113 L 646.5156794425087 332.5313807531381 L 648.2578397212544 336.14016736401675 L 650 341.31799163179915 L 650 400 Z" /><text  class="poloto_labels poloto_text poloto_title" alignment-baseline="start" text-anchor="middle" font-size="x-large" x="400" y="37.5" >Total players on 2022-01-01</text><text  class="poloto_labels poloto_text poloto_xname" alignment-baseline="start" text-anchor="middle" font-size="x-large" x="400" y="481.25" >Time</text><text  class="poloto_labels poloto_text poloto_yname" alignment-baseline="start" text-anchor="middle" font-size="x-large" transform="rotate(-90,37.5,250)" x="37.5" y="250" >Count</text><line  class="poloto_axis_lines" stroke="black" x1="150" x2="150" y1="400" y2="405" /><text  class="poloto_tick_labels poloto_text" alignment-baseline="start" text-anchor="middle" x="150" y="430" > 00:00:00</text><line  class="poloto_axis_lines" stroke="black" x1="266.14401858304296" x2="266.14401858304296" y1="400" y2="405" /><text  class="poloto_tick_labels poloto_text" alignment-baseline="start" text-anchor="middle" x="266.14401858304296" y="430" > 05:33:20</text><line  class="poloto_axis_lines" stroke="black" x1="382.2880371660859" x2="382.2880371660859" y1="400" y2="405" /><text  class="poloto_tick_labels poloto_text" alignment-baseline="start" text-anchor="middle" x="382.2880371660859" y="430" > 11:06:40</text><line  class="poloto_axis_lines" stroke="black" x1="498.4320557491289" x2="498.4320557491289" y1="400" y2="405" /><text  class="poloto_tick_labels poloto_text" alignment-baseline="start" text-anchor="middle" x="498.4320557491289" y="430" > 16:40:00</text><line  class="poloto_axis_lines" stroke="black" x1="614.5760743321719" x2="614.5760743321719" y1="400" y2="405" /><text  class="poloto_tick_labels poloto_text" alignment-baseline="start" text-anchor="middle" x="614.5760743321719" y="430" > 22:13:20</text><line  class="poloto_axis_lines" stroke="black" x1="150" x2="144" y1="381.4853556485356" y2="381.4853556485356" /><text  class="poloto_tick_labels poloto_text" alignment-baseline="middle" text-anchor="end" x="135" y="381.4853556485356" > 1000</text><line  class="poloto_axis_lines" stroke="black" x1="150" x2="144" y1="303.0334728033473" y2="303.0334728033473" /><text  class="poloto_tick_labels poloto_text" alignment-baseline="middle" text-anchor="end" x="135" y="303.0334728033473" > 1500</text><line  class="poloto_axis_lines" stroke="black" x1="150" x2="144" y1="224.58158995815904" y2="224.58158995815904" /><text  class="poloto_tick_labels poloto_text" alignment-baseline="middle" text-anchor="end" x="135" y="224.58158995815904" > 2000</text><line  class="poloto_axis_lines" stroke="black" x1="150" x2="144" y1="146.12970711297075" y2="146.12970711297075" /><text  class="poloto_tick_labels poloto_text" alignment-baseline="middle" text-anchor="end" x="135" y="146.12970711297075" > 2500</text><path  stroke="black" fill="none" class="poloto_axis_lines" style="stroke-dasharray:14.518002322880372;stroke-dashoffset:-0;" d=" M 150 400 L 650 400" /><path  stroke="black" fill="none" class="poloto_axis_lines" style="stroke-dasharray:7.845188284518828;stroke-dashoffset:-18.514644351464426;" d=" M 150 400 L 150 100" /></svg>