<svg class="poloto" width="800" height="500" viewBox="0 0 800 500" xmlns="http://www.w3.org/2000/svg"><style>.poloto { stroke-linecap:round; stroke-linejoin:round; font-family: 'Tahoma', sans-serif; background-color: AliceBlue;} .poloto_scatter{stroke-width:7} .poloto_line{stroke-width:2} .poloto_text{fill: black;} .poloto_axis_lines{stroke: black;stroke-width:3;fill:none;stroke-dasharray:none} .poloto0stroke{stroke:  blue;} .poloto1stroke{stroke:  red;} .poloto2stroke{stroke:  green;} .poloto3stroke{stroke:  gold;} .poloto4stroke{stroke:  aqua;} .poloto5stroke{stroke:  lime;} .poloto6stroke{stroke:  orange;} .poloto7stroke{stroke:  chocolate;} .poloto0fill{fill:blue;} .poloto1fill{fill:red;} .poloto2fill{fill:green;} .poloto3fill{fill:gold;} .poloto4fill{fill:aqua;} .poloto5fill{fill:lime;} .poloto6fill{fill:orange;} .poloto7fill{fill:chocolate;}</style><text  class="poloto_text poloto_legend_text" alignment-baseline="middle" text-anchor="start" font-size="large" x="675" y="100" ></text><path  class="poloto_linefill poloto0fill" d=" M 150 400 L 150 361.0335195530726 L 151.74216027874564 365.4329608938547 L 153.4843205574913 375.2793296089385 L 155.22648083623693 375.0698324022346 L 156.96864111498257 373.18435754189943 L 158.71080139372822 367.94692737430165 L 160.45296167247386 375.9078212290502 L 162.1951219512195 379.05027932960894 L 163.93728222996515 381.35474860335194 L 165.6794425087108 379.25977653631287 L 167.42160278745644 383.24022346368713 L 169.16376306620208 386.5921787709497 L 170.90592334494772 384.4972067039106 L 172.64808362369337 385.1256983240223 L 174.390243902439 383.44972067039106 L 176.13240418118465 390.99162011173183 L 177.8745644599303 390.7821229050279 L 179.61672473867597 385.33519553072625 L 181.3588850174216 387.0111731843575 L 183.10104529616726 387.0111731843575 L 184.8432055749129 387.22067039106145 L 186.58536585365854 384.4972067039106 L 188.3275261324042 397.69553072625695 L 190.06968641114983 398.74301675977654 L 191.81184668989548 396.2290502793296 L 193.55400696864112 392.2486033519553 L 195.29616724738676 400 L 197.0383275261324 396.4385474860335 L 198.78048780487805 393.50558659217876 L 200.5226480836237 393.92458100558656 L 202.26480836236934 388.68715083798884 L 204.00696864111498 393.50558659217876 L 205.74912891986062 387.0111731843575 L 207.49128919860627 387.22067039106145 L 209.2334494773519 379.46927374301674 L 210.97560975609755 377.3743016759777 L 212.7177700348432 378.2122905027933 L 214.45993031358887 380.51675977653633 L 216.2020905923345 381.35474860335194 L 217.94425087108016 377.3743016759777 L 219.6864111498258 374.231843575419 L 221.42857142857144 368.1564245810056 L 223.1707317073171 367.108938547486 L 224.91289198606273 367.94692737430165 L 226.65505226480838 366.06145251396646 L 228.39721254355402 362.7094972067039 L 230.13937282229966 357.2625698324022 L 231.8815331010453 356.42458100558656 L 233.62369337979095 353.70111731843576 L 235.3658536585366 355.79608938547483 L 237.10801393728224 360.8240223463687 L 238.85017421602788 357.2625698324022 L 240.59233449477352 352.8631284916201 L 242.33449477351917 348.0446927374302 L 244.0766550522648 351.3966480446927 L 245.81881533101046 356.6340782122905 L 247.5609756097561 356.42458100558656 L 249.30313588850174 343.645251396648 L 251.0452961672474 338.4078212290503 L 252.78745644599303 334.6368715083799 L 254.52961672473867 339.8743016759776 L 256.2717770034843 342.8072625698324 L 258.01393728222996 344.48324022346367 L 259.7560975609756 338.61731843575416 L 261.49825783972125 331.7039106145251 L 263.2404181184669 331.91340782122904 L 264.98257839721254 336.10335195530723 L 266.7247386759582 332.122905027933 L 268.4668989547038 330.8659217877095 L 270.20905923344947 326.67597765363126 L 271.9512195121951 322.69553072625695 L 273.69337979094075 320.6005586592179 L 275.4355400696864 319.1340782122905 L 277.17770034843204 315.1536312849162 L 278.91986062717774 307.8212290502793 L 280.6620209059233 311.80167597765364 L 282.404181184669 313.268156424581 L 284.1463414634146 317.877094972067 L 285.8885017421603 314.73463687150837 L 287.6306620209059 312.22067039106145 L 289.3728222996516 306.56424581005587 L 291.1149825783972 298.60335195530723 L 292.8571428571429 298.81284916201116 L 294.5993031358885 292.10893854748605 L 296.3414634146342 299.4413407821229 L 298.08362369337976 301.11731843575416 L 299.82578397212546 303.840782122905 L 301.56794425087105 304.6787709497207 L 303.31010452961675 310.1256983240223 L 305.05226480836234 307.40223463687147 L 306.79442508710804 306.77374301675974 L 308.5365853658536 304.88826815642454 L 310.2787456445993 304.2597765363128 L 312.0209059233449 298.18435754189943 L 313.7630662020906 295.0418994413408 L 315.5052264808362 292.3184357541899 L 317.2473867595819 291.8994413407821 L 318.9895470383275 294.83240223463685 L 320.7317073170732 289.17597765363126 L 322.4738675958188 291.8994413407821 L 324.2160278745645 286.66201117318434 L 325.9581881533101 274.0921787709497 L 327.70034843205576 268.43575418994413 L 329.4425087108014 267.5977653631285 L 331.18466898954705 271.5782122905028 L 332.9268292682927 268.2262569832402 L 334.66898954703834 262.9888268156424 L 336.411149825784 255.02793296089385 L 338.1533101045296 254.60893854748605 L 339.89547038327527 255.44692737430165 L 341.6376306620209 251.25698324022346 L 343.37979094076655 248.9525139664804 L 345.1219512195122 241.8296089385475 L 346.86411149825784 242.87709497206703 L 348.6062717770035 235.33519553072625 L 350.34843205574913 224.0223463687151 L 352.0905923344948 220.87988826815644 L 353.8327526132404 224.4413407821229 L 355.57491289198606 222.5558659217877 L 357.3170731707317 221.71787709497204 L 359.05923344947735 229.88826815642454 L 360.801393728223 231.98324022346367 L 362.54355400696863 232.40223463687147 L 364.2857142857143 233.86871508379886 L 366.0278745644599 237.63966480446925 L 367.77003484320556 237.01117318435752 L 369.5121951219512 231.35474860335194 L 371.25435540069685 225.27932960893855 L 372.9965156794425 226.95530726256982 L 374.73867595818814 230.09776536312847 L 376.4808362369338 216.2709497206704 L 378.2229965156795 206.42458100558656 L 379.96515679442507 201.18715083798884 L 381.70731707317077 204.7486033519553 L 383.44947735191636 208.93854748603349 L 385.19163763066206 206.00558659217876 L 386.93379790940764 201.18715083798884 L 388.67595818815334 198.6731843575419 L 390.41811846689893 193.43575418994413 L 392.16027874564463 193.43575418994413 L 393.9024390243902 192.38826815642454 L 395.6445993031359 186.10335195530723 L 397.3867595818815 177.304469273743 L 399.1289198606272 176.25698324022346 L 400.8710801393728 173.9525139664804 L 402.6132404181185 163.68715083798884 L 404.3554006968641 159.91620111731845 L 406.0975609756098 162.43016759776538 L 407.8397212543554 165.7821229050279 L 409.58188153310107 157.82122905027933 L 411.3240418118467 150.27932960893855 L 413.06620209059236 148.18435754189943 L 414.808362369338 129.12011173184356 L 416.55052264808364 137.70949720670387 L 418.2926829268293 135.6145251396648 L 420.03484320557493 129.12011173184356 L 421.7770034843206 130.1675977653631 L 423.5191637630662 134.14804469273741 L 425.26132404181186 129.95810055865923 L 427.0034843205575 119.06424581005587 L 428.74564459930315 125.76815642458098 L 430.4878048780488 117.59776536312847 L 432.22996515679444 118.645251396648 L 433.9721254355401 114.66480446927375 L 435.7142857142857 112.98882681564243 L 437.45644599303137 114.45530726256982 L 439.198606271777 108.37988826815644 L 440.94076655052265 103.35195530726259 L 442.6829268292683 106.49441340782124 L 444.42508710801394 106.49441340782124 L 446.1672473867596 99.99999999999994 L 447.9094076655052 104.81843575418992 L 449.65156794425087 105.44692737430165 L 451.3937282229965 104.18994413407819 L 453.13588850174216 110.4748603351955 L 454.8780487804878 116.75977653631281 L 456.62020905923345 120.32122905027933 L 458.3623693379791 118.645251396648 L 460.10452961672473 129.12011173184356 L 461.8466898954704 128.07262569832403 L 463.588850174216 126.18715083798884 L 465.33101045296166 128.70111731843576 L 467.0731707317073 115.71229050279328 L 468.81533101045295 114.87430167597762 L 470.5574912891986 121.15921787709493 L 472.29965156794424 121.36871508379886 L 474.0418118466899 116.34078212290501 L 475.7839721254355 129.3296089385475 L 477.52613240418117 140.01396648044692 L 479.2682926829268 129.95810055865923 L 481.01045296167246 131.2150837988827 L 482.7526132404181 137.29050279329607 L 484.49477351916374 138.96648044692733 L 486.2369337979094 154.46927374301674 L 487.97909407665503 134.77653631284915 L 489.7212543554007 139.804469273743 L 491.4634146341463 141.2709497206704 L 493.20557491289196 135.82402234636868 L 494.9477351916376 142.52793296089385 L 496.68989547038325 150.06983240223462 L 498.4320557491289 150.27932960893855 L 500.17421602787454 151.95530726256982 L 501.91637630662024 160.96368715083798 L 503.6585365853659 155.09776536312847 L 505.4006968641115 163.26815642458098 L 507.14285714285717 171.2290502793296 L 508.8850174216028 170.60055865921788 L 510.62717770034845 172.06703910614522 L 512.3693379790941 180.8659217877095 L 514.1114982578397 179.60893854748605 L 515.8536585365854 190.08379888268155 L 517.5958188153311 195.94972067039106 L 519.3379790940767 195.1117318435754 L 521.0801393728223 197.41620111731845 L 522.822299651568 199.51117318435752 L 524.5644599303137 197.20670391061452 L 526.3066202090592 203.07262569832403 L 528.0487804878048 197.20670391061452 L 529.7909407665505 200.34916201117318 L 531.5331010452962 193.85474860335194 L 533.2752613240418 193.43575418994413 L 535.0174216027874 191.7597765363128 L 536.7595818815331 188.8268156424581 L 538.5017421602788 182.96089385474858 L 540.2439024390244 194.48324022346367 L 541.98606271777 198.46368715083798 L 543.7282229965157 200.76815642458098 L 545.4703832752614 208.7290502793296 L 547.212543554007 212.08100558659214 L 548.9547038327526 212.70949720670387 L 550.6968641114983 207.47206703910615 L 552.439024390244 205.37709497206703 L 554.1811846689895 208.10055865921788 L 555.9233449477351 210.40502793296088 L 557.6655052264808 210.82402234636868 L 559.4076655052265 221.0893854748603 L 561.1498257839721 218.57541899441338 L 562.8919860627177 218.99441340782124 L 564.6341463414634 214.804469273743 L 566.3763066202091 222.9748603351955 L 568.1184668989547 215.64245810055866 L 569.8606271777003 222.34636871508377 L 571.602787456446 219.41340782122904 L 573.3449477351917 212.9189944134078 L 575.0871080139373 205.79608938547483 L 576.8292682926829 213.3379888268156 L 578.5714285714286 210.6145251396648 L 580.3135888501743 218.7849162011173 L 582.0557491289198 221.71787709497204 L 583.7979094076654 218.15642458100558 L 585.5400696864111 221.29888268156424 L 587.2822299651568 222.76536312849163 L 589.0243902439024 222.76536312849163 L 590.766550522648 235.12569832402232 L 592.5087108013937 241.41061452513964 L 594.2508710801394 243.50558659217876 L 595.993031358885 247.69553072625695 L 597.7351916376306 253.7709497206704 L 599.4773519163763 257.7513966480447 L 601.219512195122 251.46648044692733 L 602.9616724738676 261.73184357541896 L 604.7038327526133 268.0167597765363 L 606.445993031359 274.72067039106145 L 608.1881533101046 275.768156424581 L 609.9303135888501 295.87988826815644 L 611.6724738675958 286.87150837988827 L 613.4146341463415 281.8435754189944 L 615.1567944250871 282.68156424581 L 616.8989547038327 286.0335195530726 L 618.6411149825784 290.22346368715085 L 620.3832752613241 296.71787709497204 L 622.1254355400697 297.34636871508377 L 623.8675958188153 302.58379888268155 L 625.609756097561 307.8212290502793 L 627.3519163763067 305.93575418994413 L 629.0940766550523 310.5446927374302 L 630.8362369337979 311.80167597765364 L 632.5783972125436 317.2486033519553 L 634.3205574912893 326.04748603351953 L 636.0627177700349 327.9329608938547 L 637.8048780487804 323.9525139664804 L 639.5470383275261 323.1145251396648 L 641.2891986062718 330.6564245810056 L 643.0313588850174 341.55027932960894 L 644.773519163763 348.0446927374302 L 646.5156794425087 346.36871508379886 L 648.2578397212544 352.02513966480444 L 650 345.74022346368713 L 650 400 Z" /><text  class="poloto_labels poloto_text poloto_title" alignment-baseline="start" text-anchor="middle" font-size="x-large" x="400" y="37.5" >Total players on 2022-01-03</text><text  class="poloto_labels poloto_text poloto_xname" alignment-baseline="start" text-anchor="middle" font-size="x-large" x="400" y="481.25" >Time</text><text  class="poloto_labels poloto_text poloto_yname" alignment-baseline="start" text-anchor="middle" font-size="x-large" transform="rotate(-90,37.5,250)" x="37.5" y="250" >Count</text><line  class="poloto_axis_lines" stroke="black" x1="150" x2="150" y1="400" y2="405" /><text  class="poloto_tick_labels poloto_text" alignment-baseline="start" text-anchor="middle" x="150" y="430" > 00:00</text><line  class="poloto_axis_lines" stroke="black" x1="266.14401858304296" x2="266.14401858304296" y1="400" y2="405" /><text  class="poloto_tick_labels poloto_text" alignment-baseline="start" text-anchor="middle" x="266.14401858304296" y="430" > 06:00</text><line  class="poloto_axis_lines" stroke="black" x1="382.2880371660859" x2="382.2880371660859" y1="400" y2="405" /><text  class="poloto_tick_labels poloto_text" alignment-baseline="start" text-anchor="middle" x="382.2880371660859" y="430" > 11:00</text><line  class="poloto_axis_lines" stroke="black" x1="498.4320557491289" x2="498.4320557491289" y1="400" y2="405" /><text  class="poloto_tick_labels poloto_text" alignment-baseline="start" text-anchor="middle" x="498.4320557491289" y="430" > 17:00</text><line  class="poloto_axis_lines" stroke="black" x1="614.5760743321719" x2="614.5760743321719" y1="400" y2="405" /><text  class="poloto_tick_labels poloto_text" alignment-baseline="start" text-anchor="middle" x="614.5760743321719" y="430" > 22:00</text><line  class="poloto_axis_lines" stroke="black" x1="150" x2="144" y1="364.59497206703907" y2="364.59497206703907" /><text  class="poloto_tick_labels poloto_text" alignment-baseline="middle" text-anchor="end" x="135" y="364.59497206703907" > 1200</text><line  class="poloto_axis_lines" stroke="black" x1="150" x2="144" y1="322.69553072625695" y2="322.69553072625695" /><text  class="poloto_tick_labels poloto_text" alignment-baseline="middle" text-anchor="end" x="135" y="322.69553072625695" > 1400</text><line  class="poloto_axis_lines" stroke="black" x1="150" x2="144" y1="280.79608938547483" y2="280.79608938547483" /><text  class="poloto_tick_labels poloto_text" alignment-baseline="middle" text-anchor="end" x="135" y="280.79608938547483" > 1600</text><line  class="poloto_axis_lines" stroke="black" x1="150" x2="144" y1="238.8966480446927" y2="238.8966480446927" /><text  class="poloto_tick_labels poloto_text" alignment-baseline="middle" text-anchor="end" x="135" y="238.8966480446927" > 1800</text><line  class="poloto_axis_lines" stroke="black" x1="150" x2="144" y1="196.9972067039106" y2="196.9972067039106" /><text  class="poloto_tick_labels poloto_text" alignment-baseline="middle" text-anchor="end" x="135" y="196.9972067039106" > 2000</text><line  class="poloto_axis_lines" stroke="black" x1="150" x2="144" y1="155.09776536312847" y2="155.09776536312847" /><text  class="poloto_tick_labels poloto_text" alignment-baseline="middle" text-anchor="end" x="135" y="155.09776536312847" > 2200</text><line  class="poloto_axis_lines" stroke="black" x1="150" x2="144" y1="113.19832402234636" y2="113.19832402234636" /><text  class="poloto_tick_labels poloto_text" alignment-baseline="middle" text-anchor="end" x="135" y="113.19832402234636" > 2400</text><path  stroke="black" fill="none" class="poloto_axis_lines" style="stroke-dasharray:14.518002322880372;stroke-dashoffset:-0;" d=" M 150 400 L 650 400" /><path  stroke="black" fill="none" class="poloto_axis_lines" style="stroke-dasharray:10.474860335195531;stroke-dashoffset:-35.405027932960905;" d=" M 150 400 L 150 100" /></svg>