<svg class="poloto" width="800" height="500" viewBox="0 0 800 500" xmlns="http://www.w3.org/2000/svg"><style>.poloto { stroke-linecap:round; stroke-linejoin:round; font-family: 'Tahoma', sans-serif; background-color: AliceBlue;} .poloto_scatter{stroke-width:7} .poloto_line{stroke-width:2} .poloto_text{fill: black;} .poloto_axis_lines{stroke: black;stroke-width:3;fill:none;stroke-dasharray:none} .poloto0stroke{stroke:  blue;} .poloto1stroke{stroke:  red;} .poloto2stroke{stroke:  green;} .poloto3stroke{stroke:  gold;} .poloto4stroke{stroke:  aqua;} .poloto5stroke{stroke:  lime;} .poloto6stroke{stroke:  orange;} .poloto7stroke{stroke:  chocolate;} .poloto0fill{fill:blue;} .poloto1fill{fill:red;} .poloto2fill{fill:green;} .poloto3fill{fill:gold;} .poloto4fill{fill:aqua;} .poloto5fill{fill:lime;} .poloto6fill{fill:orange;} .poloto7fill{fill:chocolate;}</style><text  class="poloto_text poloto_legend_text" alignment-baseline="middle" text-anchor="start" font-size="large" x="675" y="100" ></text><path  class="poloto_linefill poloto0fill" d=" M 150 400 L 150 375.47495682210706 L 151.74216027874564 374.78411053540583 L 153.4843205574913 378.7564766839378 L 155.22648083623693 386.873920552677 L 156.96864111498257 383.07426597582037 L 158.71080139372822 382.21070811744386 L 160.45296167247386 387.73747841105353 L 162.1951219512195 391.19170984455957 L 163.93728222996515 393.2642487046632 L 165.6794425087108 389.11917098445593 L 167.42160278745644 390.1554404145078 L 169.16376306620208 391.70984455958546 L 170.90592334494772 388.2556131260794 L 172.64808362369337 390.846286701209 L 174.390243902439 390.1554404145078 L 176.13240418118465 394.30051813471505 L 177.8745644599303 392.0552677029361 L 179.61672473867597 391.5371329879102 L 181.3588850174216 393.4369602763385 L 183.10104529616726 391.70984455958546 L 184.8432055749129 393.9550949913644 L 186.58536585365854 391.5371329879102 L 188.3275261324042 390.50086355785834 L 190.06968641114983 392.9188255613126 L 191.81184668989548 390.846286701209 L 193.55400696864112 379.10189982728843 L 195.29616724738676 398.61830742659754 L 197.0383275261324 393.4369602763385 L 198.78048780487805 393.9550949913644 L 200.5226480836237 389.6373056994819 L 202.26480836236934 400 L 204.00696864111498 398.10017271157164 L 205.74912891986062 392.57340241796203 L 207.49128919860627 388.60103626943004 L 209.2334494773519 381.34715025906735 L 210.97560975609755 380.1381692573402 L 212.7177700348432 377.720207253886 L 214.45993031358887 375.8203799654577 L 216.2020905923345 374.09326424870466 L 217.94425087108016 371.3298791018998 L 219.6864111498258 369.0846286701209 L 221.42857142857144 371.1571675302245 L 223.1707317073171 374.26597582037994 L 224.91289198606273 374.26597582037994 L 226.65505226480838 370.293609671848 L 228.39721254355402 362.52158894645936 L 230.13937282229966 364.4214162348877 L 231.8815331010453 361.8307426597582 L 233.62369337979095 356.99481865284974 L 235.3658536585366 360.62176165803106 L 237.10801393728224 369.7754749568221 L 238.85017421602788 368.39378238341965 L 240.59233449477352 366.14853195164073 L 242.33449477351917 363.7305699481865 L 244.0766550522648 356.64939550949913 L 245.81881533101046 355.6131260794473 L 247.5609756097561 351.12262521588946 L 249.30313588850174 345.76856649395506 L 251.0452961672474 349.0500863557858 L 252.78745644599303 342.48704663212436 L 254.52961672473867 347.1502590673575 L 256.2717770034843 349.5682210708118 L 258.01393728222996 344.7322970639033 L 259.7560975609756 353.1951640759931 L 261.49825783972125 351.64075993091535 L 263.2404181184669 354.0587219343696 L 264.98257839721254 350.60449050086356 L 266.7247386759582 350.4317789291882 L 268.4668989547038 344.55958549222794 L 270.20905923344947 345.25043177892917 L 271.9512195121951 340.75993091537134 L 273.69337979094075 332.9879101899827 L 275.4355400696864 325.21588946459417 L 277.17770034843204 327.6338514680483 L 278.91986062717774 322.45250431778925 L 280.6620209059233 322.45250431778925 L 282.404181184669 318.65284974093265 L 284.1463414634146 315.5440414507772 L 285.8885017421603 314.1623488773748 L 287.6306620209059 308.80829015544043 L 289.3728222996516 312.9533678756477 L 291.1149825783972 317.4438687392055 L 292.8571428571429 317.2711571675302 L 294.5993031358885 317.61658031088086 L 296.3414634146342 311.9170984455958 L 298.08362369337976 312.26252158894647 L 299.82578397212546 307.94473229706387 L 301.56794425087105 304.4905008635578 L 303.31010452961675 302.7633851468048 L 305.05226480836234 301.89982728842836 L 306.79442508710804 297.58203799654575 L 308.5365853658536 294.9913644214163 L 310.2787456445993 293.4369602763385 L 312.0209059233449 292.05526770293613 L 313.7630662020906 285.14680483592394 L 315.5052264808362 284.62867012089805 L 317.2473867595819 279.62003454231433 L 318.9895470383275 275.47495682210706 L 320.7317073170732 268.7392055267703 L 322.4738675958188 267.5302245250432 L 324.2160278745645 272.71157167530225 L 325.9581881533101 270.46632124352334 L 327.70034843205576 271.8480138169257 L 329.4425087108014 277.54749568221075 L 331.18466898954705 279.447322970639 L 332.9268292682927 272.19343696027636 L 334.66898954703834 270.12089810017267 L 336.411149825784 264.7668393782384 L 338.1533101045296 265.2849740932643 L 339.89547038327527 263.9032815198618 L 341.6376306620209 261.139896373057 L 343.37979094076655 265.8031088082902 L 345.1219512195122 258.20379965457687 L 346.86411149825784 254.57685664939552 L 348.6062717770035 260.4490500863558 L 350.34843205574913 252.8497409326425 L 352.0905923344948 252.5043177892919 L 353.8327526132404 247.84110535405873 L 355.57491289198606 241.62348877374782 L 357.3170731707317 235.06044905008636 L 359.05923344947735 236.2694300518135 L 360.801393728223 236.96027633851466 L 362.54355400696863 240.4145077720207 L 364.2857142857143 241.62348877374782 L 366.0278745644599 240.06908462867014 L 367.77003484320556 248.18652849740934 L 369.5121951219512 249.05008635578585 L 371.25435540069685 244.73229706390325 L 372.9965156794425 239.5509499136442 L 374.73867595818814 236.96027633851466 L 376.4808362369338 241.45077720207254 L 378.2229965156795 237.13298791019 L 379.96515679442507 232.98791018998273 L 381.70731707317077 235.57858376511226 L 383.44947735191636 229.36096718480135 L 385.19163763066206 229.8791018998273 L 386.93379790940764 222.10708117443866 L 388.67595818815334 217.09844559585494 L 390.41811846689893 216.9257340241796 L 392.16027874564463 210.1899827288428 L 393.9024390243902 208.2901554404145 L 395.6445993031359 213.2987910189983 L 397.3867595818815 215.0259067357513 L 399.1289198606272 210.36269430051814 L 400.8710801393728 199.8272884283247 L 402.6132404181185 197.23661485319516 L 404.3554006968641 188.60103626943007 L 406.0975609756098 186.01036269430054 L 407.8397212543554 188.94645941278063 L 409.58188153310107 178.7564766839378 L 411.3240418118467 176.3385146804836 L 413.06620209059236 165.97582037996543 L 414.808362369338 158.03108808290156 L 416.55052264808364 155.95854922279793 L 418.2926829268293 146.286701208981 L 420.03484320557493 138.51468048359243 L 421.7770034843206 131.60621761658035 L 423.5191637630662 135.7512953367875 L 425.26132404181186 128.6701208981002 L 427.0034843205575 125.04317789291883 L 428.74564459930315 115.19861830742661 L 430.4878048780488 114.85319516407594 L 432.22996515679444 115.71675302245251 L 433.9721254355401 122.62521588946458 L 435.7142857142857 122.62521588946458 L 437.45644599303137 121.5889464594128 L 439.198606271777 118.48013816925732 L 440.94076655052265 113.81692573402415 L 442.6829268292683 115.54404145077717 L 444.42508710801394 116.92573402417963 L 446.1672473867596 120.72538860103623 L 447.9094076655052 121.76165803108813 L 449.65156794425087 109.32642487046633 L 451.3937282229965 118.82556131260799 L 453.13588850174216 105.00863557858372 L 454.8780487804878 100 L 456.62020905923345 106.56303972366152 L 458.3623693379791 103.7996545768566 L 460.10452961672473 111.3989637305699 L 461.8466898954704 123.83419689119171 L 463.588850174216 115.37132987910195 L 465.33101045296166 121.76165803108813 L 467.0731707317073 118.99827288428321 L 468.81533101045295 124.00690846286705 L 470.5574912891986 123.83419689119171 L 472.29965156794424 127.46113989637308 L 474.0418118466899 126.77029360967185 L 475.7839721254355 130.39723661485323 L 477.52613240418117 135.57858376511228 L 479.2682926829268 136.26943005181352 L 481.01045296167246 144.21416234887735 L 482.7526132404181 146.286701208981 L 484.49477351916374 156.30397236614854 L 486.2369337979094 154.05872193436957 L 487.97909407665503 155.78583765112265 L 489.7212543554007 169.77547495682208 L 491.4634146341463 167.7029360967185 L 493.20557491289196 177.720207253886 L 494.9477351916376 178.5837651122625 L 496.68989547038325 174.9568221070812 L 498.4320557491289 174.61139896373058 L 500.17421602787454 183.9378238341969 L 501.91637630662024 189.63730569948186 L 503.6585365853659 189.98272884283247 L 505.4006968641115 186.87392055267705 L 507.14285714285717 191.1917098445596 L 508.8850174216028 194.64594127806564 L 510.62717770034845 199.99999999999997 L 512.3693379790941 212.08981001727116 L 514.1114982578397 208.63557858376512 L 515.8536585365854 211.05354058721932 L 517.5958188153311 211.57167530224527 L 519.3379790940767 223.48877374784112 L 521.0801393728223 221.7616580310881 L 522.822299651568 224.35233160621763 L 524.5644599303137 225.21588946459414 L 526.3066202090592 220.03454231433503 L 528.0487804878048 228.67012089810018 L 529.7909407665505 235.23316062176164 L 531.5331010452962 232.12435233160622 L 533.2752613240418 237.47841105354055 L 535.0174216027874 243.00518134715023 L 536.7595818815331 239.72366148531952 L 538.5017421602788 243.35060449050084 L 540.2439024390244 238.16925734024178 L 541.98606271777 236.78756476683938 L 543.7282229965157 240.93264248704665 L 545.4703832752614 240.7599309153713 L 547.212543554007 248.35924006908462 L 548.9547038327526 248.70466321243524 L 550.6968641114983 246.97754749568222 L 552.439024390244 245.7685664939551 L 554.1811846689895 246.1139896373057 L 555.9233449477351 244.21416234887735 L 557.6655052264808 245.42314335060448 L 559.4076655052265 248.18652849740934 L 561.1498257839721 253.3678756476684 L 562.8919860627177 251.64075993091538 L 564.6341463414634 255.09499136442142 L 566.3763066202091 258.03108808290153 L 568.1184668989547 260.4490500863558 L 569.8606271777003 264.4214162348877 L 571.602787456446 265.2849740932643 L 573.3449477351917 262.86701208981003 L 575.0871080139373 263.9032815198618 L 576.8292682926829 264.59412780656305 L 578.5714285714286 264.9395509499136 L 580.3135888501743 268.0483592400691 L 582.0557491289198 270.63903281519856 L 583.7979094076654 270.63903281519856 L 585.5400696864111 277.8929188255613 L 587.2822299651568 272.19343696027636 L 589.0243902439024 276.1658031088083 L 590.766550522648 279.9654576856649 L 592.5087108013937 284.2832469775475 L 594.2508710801394 289.119170984456 L 595.993031358885 290.6735751295337 L 597.7351916376306 291.70984455958546 L 599.4773519163763 288.42832469775476 L 601.219512195122 293.26424870466315 L 602.9616724738676 296.7184801381693 L 604.7038327526133 298.61830742659754 L 606.445993031359 300.34542314335056 L 608.1881533101046 300 L 609.9303135888501 307.77202072538864 L 611.6724738675958 312.4352331606218 L 613.4146341463415 316.58031088082896 L 615.1567944250871 320.72538860103623 L 616.8989547038327 322.97063903281514 L 618.6411149825784 321.93436960276335 L 620.3832752613241 324.00690846286705 L 622.1254355400697 324.8704663212435 L 623.8675958188153 328.84283246977543 L 625.609756097561 329.87910189982733 L 627.3519163763067 335.5785837651123 L 629.0940766550523 336.44214162348874 L 630.8362369337979 338.16925734024176 L 632.5783972125436 344.55958549222794 L 634.3205574912893 352.50431778929186 L 636.0627177700349 353.0224525043178 L 637.8048780487804 356.3039723661485 L 639.5470383275261 353.713298791019 L 641.2891986062718 359.75820379965455 L 643.0313588850174 362.1761658031088 L 644.773519163763 367.1848013816925 L 646.5156794425087 369.9481865284974 L 648.2578397212544 373.74784110535404 L 650 373.22970639032815 L 650 400 Z" /><text  class="poloto_labels poloto_text poloto_title" alignment-baseline="start" text-anchor="middle" font-size="x-large" x="400" y="37.5" >Total players on 2022-01-02</text><text  class="poloto_labels poloto_text poloto_xname" alignment-baseline="start" text-anchor="middle" font-size="x-large" x="400" y="481.25" >Time</text><text  class="poloto_labels poloto_text poloto_yname" alignment-baseline="start" text-anchor="middle" font-size="x-large" transform="rotate(-90,37.5,250)" x="37.5" y="250" >Count</text><line  class="poloto_axis_lines" stroke="black" x1="150" x2="150" y1="400" y2="405" /><text  class="poloto_tick_labels poloto_text" alignment-baseline="start" text-anchor="middle" x="150" y="430" > 00:00</text><line  class="poloto_axis_lines" stroke="black" x1="266.14401858304296" x2="266.14401858304296" y1="400" y2="405" /><text  class="poloto_tick_labels poloto_text" alignment-baseline="start" text-anchor="middle" x="266.14401858304296" y="430" > 06:00</text><line  class="poloto_axis_lines" stroke="black" x1="382.2880371660859" x2="382.2880371660859" y1="400" y2="405" /><text  class="poloto_tick_labels poloto_text" alignment-baseline="start" text-anchor="middle" x="382.2880371660859" y="430" > 11:00</text><line  class="poloto_axis_lines" stroke="black" x1="498.4320557491289" x2="498.4320557491289" y1="400" y2="405" /><text  class="poloto_tick_labels poloto_text" alignment-baseline="start" text-anchor="middle" x="498.4320557491289" y="430" > 17:00</text><line  class="poloto_axis_lines" stroke="black" x1="614.5760743321719" x2="614.5760743321719" y1="400" y2="405" /><text  class="poloto_tick_labels poloto_text" alignment-baseline="start" text-anchor="middle" x="614.5760743321719" y="430" > 22:00</text><line  class="poloto_axis_lines" stroke="black" x1="150" x2="144" y1="331.08808290155434" y2="331.08808290155434" /><text  class="poloto_tick_labels poloto_text" alignment-baseline="middle" text-anchor="end" x="135" y="331.08808290155434" > 1500</text><line  class="poloto_axis_lines" stroke="black" x1="150" x2="144" y1="244.73229706390327" y2="244.73229706390327" /><text  class="poloto_tick_labels poloto_text" alignment-baseline="middle" text-anchor="end" x="135" y="244.73229706390327" > 2000</text><line  class="poloto_axis_lines" stroke="black" x1="150" x2="144" y1="158.3765112262522" y2="158.3765112262522" /><text  class="poloto_tick_labels poloto_text" alignment-baseline="middle" text-anchor="end" x="135" y="158.3765112262522" > 2500</text><path  stroke="black" fill="none" class="poloto_axis_lines" style="stroke-dasharray:14.518002322880372;stroke-dashoffset:-0;" d=" M 150 400 L 650 400" /><path  stroke="black" fill="none" class="poloto_axis_lines" style="stroke-dasharray:8.635578583765113;stroke-dashoffset:-68.91191709844563;" d=" M 150 400 L 150 100" /></svg>